0 Untitled Model
0 Name:  五边形
0 Author:  
0 CustomBrick
0 NumOfBricks:  10
1 15 -9.999949 -9.999880 110.000100 0.000000 0.000001 -1.000000 0.000000 -1.000000 -0.000001 -1.000000 0.000000 0.000000 64871.dat
1 0 129.999300 -19.999700 110.000400 0.000000 -0.306698 -0.951809 -1.000000 0.000000 0.000000 0.000000 0.951808 -0.306699 2780.dat
0 STEP
1 15 172.937200 -29.999620 -23.252300 -0.951807 0.000001 -0.306700 -0.000001 -1.000000 -0.000001 -0.306701 0.000000 0.951807 64871.dat
0 STEP
1 15 102.412700 -9.999660 -238.519200 0.585814 0.000000 -0.810447 -0.000001 -1.000000 -0.000001 -0.810447 0.000002 -0.585814 64871.dat
1 0 215.875200 -19.999540 -156.505200 0.000000 -0.585813 0.810448 1.000000 0.000000 0.000000 0.000000 0.810447 0.585813 2780.dat
0 STEP
1 15 -124.111300 -29.999610 -237.967500 0.589757 -0.000002 0.807582 -0.000001 -1.000000 -0.000001 0.807582 0.000000 -0.589757 64871.dat
1 0 -11.049980 -19.999780 -320.533300 0.000000 -0.585813 0.810448 1.000000 0.000000 0.000000 0.000000 0.810447 0.585813 2780.dat
0 STEP
1 0 -237.172800 -39.999440 -155.401300 0.000000 -0.807582 -0.589758 -1.000000 0.000000 0.000000 0.000000 0.589758 -0.807582 2780.dat
1 19 -150.242900 -29.999360 110.762600 0.000000 -0.585813 0.810448 1.000000 0.000000 0.000000 0.000000 0.810447 0.585813 32556.dat
0 STEP
1 15 -193.708200 -49.999400 -22.319070 -0.950587 0.000001 0.310463 -0.000001 -1.000000 0.000000 0.310462 0.000000 0.950587 64871.dat
0 STEP
0 STEP
