0 FILE mini发动机.io
0 Untitled Model
0 Name:  mini发动机
0 Author:  
0 CustomBrick
0 NumOfBricks:  42
1 1 -20.000190 -32.000000 -29.999990 1.000000 0.000000 0.000000 0.000000 1.000000 0.000000 0.000000 0.000000 1.000000 3703.dat
0 STEP
1 1 -20.000190 -80.000010 -29.999990 1.000000 0.000000 0.000000 0.000000 1.000000 0.000000 0.000000 0.000000 1.000000 3702.dat
1 1 -20.000190 -55.999990 -29.999990 1.000000 0.000000 0.000000 0.000000 1.000000 0.000000 0.000000 0.000000 1.000000 3895.dat
0 STEP
1 16 -20.000000 -24.000000 20.000000 0.981627 -0.190810 0.000000 0.190810 0.981627 0.000000 0.000000 0.000000 1.000000 submodel group 2
0 STEP
1 71 -19.825900 -69.410670 -50.408570 -0.870360 -0.492418 0.000000 -0.492418 0.870359 0.000000 0.000000 0.000000 -1.000001 3713.dat
0 STEP
1 16 -20.000000 -12.000000 70.000000 1.000000 0.000000 0.000000 0.000000 1.000000 0.000000 0.000000 0.000000 1.000000 submodel group 1
0 STEP
1 71 -80.000140 -70.000010 50.080140 1.000000 0.000000 0.000001 0.000000 1.000000 0.000000 -0.000001 0.000000 1.000000 3713.dat
1 0 -80.000080 -70.000010 80.080140 0.000000 0.000000 1.000000 0.000000 1.000000 0.000000 -1.000000 0.000000 0.000000 3705.dat
0 STEP
1 1 119.999900 -8.000000 20.000010 0.000000 0.000000 1.000000 0.000000 1.000000 0.000000 -1.000000 0.000000 0.000000 3738.dat
1 1 -160.000000 -8.000000 20.000000 0.000000 0.000000 1.000000 0.000000 1.000000 0.000000 -1.000000 0.000000 0.000000 3738.dat
0 STEP
1 1 119.999900 -39.999990 20.000010 0.000000 0.000000 1.000000 0.000000 1.000000 0.000000 -1.000000 0.000000 0.000000 32001.dat
1 1 -160.000200 -39.999990 20.000020 0.000000 0.000000 1.000000 0.000000 1.000000 0.000000 -1.000000 0.000000 0.000000 32001.dat
0 STEP
1 72 -20.000190 -70.000000 89.870010 -0.891008 0.453988 0.000000 -0.453988 -0.891008 0.000000 0.000000 0.000000 1.000000 3647.dat
1 71 -80.000080 -70.000010 90.080140 0.000000 -1.000001 0.000000 1.000000 0.000000 0.000000 0.000000 0.000000 1.000000 3649.dat
0 STEP
1 71 -80.000080 -70.000000 110.140200 0.000001 -0.000001 -1.000000 -1.000000 -0.000001 -0.000001 -0.000001 1.000000 -0.000001 33299.dat
1 4 -120.000000 -70.000040 140.140100 0.000000 0.000000 1.000001 0.000000 1.000000 0.000000 -1.000001 0.000000 0.000000 62462.dat
0 STEP
1 1 -20.000190 -104.000000 -29.999990 1.000000 0.000000 0.000000 0.000000 1.000000 0.000000 0.000000 0.000000 1.000000 3702.dat
1 1 -20.001410 -128.000100 -29.999990 1.000000 0.000000 0.000000 0.000000 1.000000 0.000000 0.000000 0.000000 1.000000 3894.dat
0 STEP
1 1 -20.000130 -152.000000 70.000060 1.000000 0.000000 0.000000 0.000000 1.000000 0.000000 0.000000 0.000000 1.000000 3701.dat
1 1 -20.000190 -152.000100 -29.999990 1.000000 0.000000 0.000000 0.000000 1.000000 0.000000 0.000000 0.000000 1.000000 3701.dat
0 STEP
1 1 -20.000130 -176.000000 70.000060 1.000000 0.000000 0.000000 0.000000 1.000000 0.000000 0.000000 0.000000 1.000000 3701.dat
1 1 -20.000190 -176.000100 -29.999990 1.000000 0.000000 0.000000 0.000000 1.000000 0.000000 0.000000 0.000000 1.000000 3701.dat
0 STEP
1 1 -20.000190 -200.000100 -29.999990 1.000000 0.000000 0.000000 0.000000 1.000000 0.000000 0.000000 0.000000 1.000000 3700.dat
1 1 -20.000130 -200.000000 70.000060 1.000000 0.000000 0.000000 0.000000 1.000000 0.000000 0.000000 0.000000 1.000000 3700.dat
0 STEP
1 0 -20.000430 -216.000100 0.000870 0.000000 0.000000 1.000000 -1.000000 0.000000 0.000000 0.000000 -1.000000 0.000000 3706.dat
1 0 -18.185340 -144.159900 -0.080130 -0.000002 0.999389 0.034902 -0.000003 -0.034902 0.999389 1.000000 0.000002 0.000003 32013.dat
0 STEP
1 1 -20.000160 -208.000100 19.999890 0.000000 0.000000 1.000000 0.000000 1.000000 0.000000 -1.000000 0.000000 0.000000 32001.dat
1 1 -20.000430 -216.000100 20.000870 0.000001 0.000000 1.000000 0.000000 1.000000 0.000000 -1.000000 0.000000 0.000001 32001.dat
0 STEP
1 71 -20.000430 -245.230000 0.000870 1.000000 0.000000 0.000000 0.000000 0.000000 1.000000 0.000000 -1.000001 0.000000 3649.dat
0 STEP
1 71 -20.000430 -263.420000 0.000930 -1.000001 0.000000 -0.000001 0.000001 0.000000 -1.000000 0.000000 -1.000000 0.000000 3650c.dat
0 STEP
0 STEP
0 NOFILE
0 FILE SubModel Group 2
0 SubModel Group 2
0 Name:  SubModel Group 2
0 Author:  
0 CustomBrick
0 NumOfBricks:  9
1 1 -11.146510 -78.298500 -0.080050 0.000000 -1.000000 0.000000 0.999999 0.000000 0.000001 -0.000001 0.000000 1.000000 3894.dat
1 71 -21.146520 -118.298500 -10.080120 0.000000 0.000000 -1.000000 0.000001 0.999999 0.000000 1.000000 -0.000001 0.000000 3673.dat
1 19 -21.146450 -38.298530 -0.080190 0.000000 0.190810 0.981628 0.000000 0.981627 -0.190810 -1.000000 0.000000 0.000000 32556.dat
0 STEP
1 0 -8.493860 -44.609540 -50.078720 0.000000 -0.317300 0.948329 0.000000 0.948332 0.317299 -0.999996 0.000000 0.000000 3705.dat
1 72 -8.490230 -44.608800 -20.080190 -0.317298 -0.948326 0.000000 0.948326 -0.317298 0.000000 0.000000 0.000000 1.000000 3648b.dat
0 STEP
1 14 -8.495110 -44.609930 -35.160810 0.948332 -0.317300 0.000000 0.317300 0.948332 0.000000 0.000000 0.000000 1.000000 32123a.dat
0 STEP
1 0 -8.777430 -45.154820 49.919980 0.000000 -0.275634 0.961263 0.000000 0.961263 0.275634 -1.000000 0.000000 0.000000 3705.dat
1 72 -8.777430 -45.154830 19.919900 -0.275634 -0.961263 0.000000 0.961263 -0.275634 0.000000 0.000000 0.000000 1.000001 3648b.dat
0 STEP
1 14 -8.777430 -45.154840 34.820000 -0.275635 0.961263 0.000000 0.961263 0.275634 0.000000 0.000000 0.000000 -1.000001 32123a.dat
0 STEP
0 NOFILE
0 FILE SubModel Group 1
0 SubModel Group 1
0 Name:  SubModel Group 1
0 Author:  
0 CustomBrick
0 NumOfBricks:  5
1 1 -0.000130 -20.000000 0.000050 1.000000 0.000000 0.000000 0.000000 1.000000 0.000000 0.000000 0.000000 1.000000 3703.dat
0 STEP
1 1 -0.000130 -68.000010 0.000050 1.000000 0.000000 0.000000 0.000000 1.000000 0.000000 0.000000 0.000000 1.000000 3702.dat
1 1 -0.000130 -43.999990 0.000050 1.000000 0.000000 0.000000 0.000000 1.000000 0.000000 0.000000 0.000000 1.000000 3895.dat
0 STEP
1 1 -0.000130 -116.000000 0.000050 1.000000 0.000000 0.000000 0.000000 1.000000 0.000000 0.000000 0.000000 1.000000 3894.dat
1 1 -0.000130 -92.000010 0.000050 1.000000 0.000000 0.000000 0.000000 1.000000 0.000000 0.000000 0.000000 1.000000 3702.dat
0 STEP
0 NOFILE
