0 FILE 旋转试验.io
0 Untitled Model
0 Name:  旋转试验
0 Author:  
0 CustomBrick
0 NumOfBricks:  115
1 0 160.000000 -21.999840 -39.999960 -1.000001 0.000000 0.000000 0.000000 1.000000 0.000000 0.000000 0.000000 -1.000001 2780.dat
1 0 160.000000 -21.999840 39.999980 -1.000001 0.000000 0.000000 0.000000 1.000000 0.000000 0.000000 0.000000 -1.000001 2780.dat
1 16 113.013400 -52.417960 -70.460650 -1.000000 0.000000 0.000000 0.000000 0.000000 -1.000000 0.000000 -1.000000 0.000000 submodel group 9 copy copy copy
0 STEP
1 1 159.999400 -7.999850 -200.000200 0.000000 0.000000 1.000000 0.000000 1.000000 0.000000 -1.000000 0.000000 0.000000 32001.dat
1 1 159.999400 -7.999850 -19.999730 0.000000 0.000000 1.000000 0.000000 1.000000 0.000000 -1.000000 0.000000 0.000000 3738.dat
1 1 170.000100 -31.999850 -100.000000 0.000000 0.000000 1.000001 0.000000 1.000000 0.000000 -1.000001 0.000000 0.000000 3703.dat
0 STEP
1 1 169.999900 -55.999860 -100.000000 0.000000 0.000000 0.999997 0.000000 1.000000 0.000000 -0.999997 0.000000 0.000000 3702.dat
1 0 160.000000 -45.999840 -120.000100 -1.000001 0.000000 0.000000 0.000000 1.000000 0.000000 0.000000 0.000000 -1.000001 2780.dat
1 0 160.000000 -45.999840 -80.000040 -1.000001 0.000000 0.000000 0.000000 1.000000 0.000000 0.000000 0.000000 -1.000001 2780.dat
0 STEP
1 1 150.000000 -55.999860 -100.000000 0.000000 0.000000 1.000001 0.000000 1.000000 0.000000 -1.000001 0.000000 0.000000 3701.dat
1 0 140.000000 -45.999840 -100.000000 -1.000001 0.000000 0.000000 0.000000 1.000000 0.000000 0.000000 0.000000 -1.000001 2780.dat
0 STEP
1 1 150.000000 -63.999870 -100.000000 0.000001 0.000000 1.000002 0.000000 1.000000 0.000000 -1.000002 0.000000 0.000001 3023.dat
1 1 150.000100 -71.999810 -99.999910 0.000001 0.000000 1.000001 0.000000 1.000000 0.000000 -1.000001 0.000000 0.000001 3023.dat
0 STEP
1 1 150.000100 -95.999790 -99.999970 0.000000 0.000000 1.000001 0.000000 1.000000 0.000000 -1.000001 0.000000 0.000000 3700.dat
1 0 140.000000 -85.999810 -99.999970 -1.000001 0.000000 0.000000 0.000000 1.000000 0.000000 0.000000 0.000000 -1.000001 2780.dat
0 STEP
1 16 90.000000 -36.000000 -100.000000 1.000000 0.000000 0.000000 0.000000 1.000000 0.000000 0.000000 0.000000 1.000000 submodel group 5
0 STEP
0 STEP
1 15 -70.000330 -21.999910 -0.000140 0.000001 1.000002 0.000001 -1.000000 0.000001 -0.000001 -0.000001 -0.000001 1.000001 32316.dat
1 4 -70.000330 -21.999860 39.999860 1.000001 0.000001 -0.000001 0.000001 0.000001 1.000000 0.000001 -1.000001 0.000001 32054.dat
1 4 -70.000390 -21.999880 -40.000080 1.000001 0.000001 -0.000001 0.000001 0.000001 1.000000 0.000001 -1.000001 0.000001 32054.dat
0 STEP
1 16 -230.000000 0.000000 -80.000000 1.000000 0.000000 0.000000 0.000000 1.000000 0.000000 0.000000 0.000000 1.000000 submodel group 4
0 STEP
1 0 -169.769800 -215.999700 -100.000200 0.000000 -1.000001 0.000000 -1.000000 0.000000 0.000000 0.000000 0.000000 -1.000001 2780.dat
1 0 -129.769900 -215.999700 -100.000200 0.000000 -1.000001 0.000000 -1.000000 0.000000 0.000000 0.000000 0.000000 -1.000001 2780.dat
0 STEP
1 1 -189.770000 -205.999600 -100.000300 0.000001 0.000001 1.000001 0.000001 1.000000 -0.000001 -1.000001 0.000001 0.000001 32140.dat
1 4 -189.999900 -195.999900 -100.001000 0.000000 0.000000 -1.000001 0.999999 0.000000 0.000000 0.000000 -1.000000 0.000000 32062.dat
0 STEP
1 71 -49.769860 -206.999800 -100.000400 1.000001 0.000000 0.000001 -0.000001 0.000000 1.000000 0.000000 -1.000001 0.000000 3713.dat
1 16 -50.000000 -168.000000 -100.000000 1.000000 0.000000 0.000000 0.000000 1.000000 0.000000 0.000000 0.000000 1.000000 submodel group 2
0 STEP
1 16 -70.000000 -336.000000 -100.000000 1.000000 0.000000 0.000000 0.000000 1.000000 0.000000 0.000000 0.000000 1.000000 submodel group 1
0 STEP
1 19 10.230270 -395.999800 -100.000500 -0.000001 0.906310 -0.422618 -0.999999 -0.000001 0.000001 0.000001 0.422618 0.906312 3749.dat
1 72 10.229510 -405.999800 -99.999500 0.422616 -0.906311 0.000000 0.000000 -0.000001 0.999999 -0.906309 -0.422616 -0.000001 3647.dat
0 STEP
1 71 50.229980 -425.570500 -100.000500 -1.000002 -0.000001 -0.000001 -0.000001 0.000000 1.000001 0.000000 1.000002 0.000000 3713.dat
1 72 50.230220 -405.780200 -100.001100 1.000001 0.000000 0.000000 0.000000 0.000000 0.999999 0.000000 -1.000000 0.000000 3648b.dat
0 STEP
1 14 -49.769980 -422.900100 -100.000500 1.000001 0.000000 0.000000 0.000000 0.000000 1.000000 0.000000 -1.000001 0.000000 32123a.dat
1 71 -49.769980 -406.569900 -100.000500 1.000001 0.000000 0.000000 0.000000 0.000000 1.000000 0.000000 -1.000001 0.000000 3649.dat
0 STEP
1 71 -200.000500 -166.000000 -100.000800 -1.000001 0.000000 0.000000 0.000000 0.999999 0.000000 0.000000 0.000000 -1.000000 3673.dat
1 0 -189.999900 -166.000000 -100.001000 -1.000001 -0.000002 -0.000002 -0.000002 -0.000002 0.999999 -0.000002 1.000000 0.000002 32013.dat
0 STEP
1 0 -200.000700 -325.999900 -100.000900 -1.000001 0.000000 0.000000 0.000000 1.000000 0.000000 0.000000 0.000000 -1.000001 2780.dat
1 0 -190.000500 -325.999900 -100.001000 1.000001 0.000002 0.000002 -0.000002 -0.000002 1.000000 0.000002 -1.000001 -0.000002 32013.dat
0 STEP
1 15 -210.000700 -286.000000 -100.000900 0.000001 1.000002 0.000001 -0.000001 -0.000001 1.000000 1.000001 -0.000001 0.000001 64871.dat
0 STEP
1 15 -189.430500 -285.999800 -100.000800 0.000001 1.000002 0.000001 -0.000001 -0.000001 1.000000 1.000001 -0.000001 0.000001 32523.dat
1 1 -209.430700 -305.999800 -100.000800 1.000001 0.000000 0.000000 0.000000 1.000000 0.000000 0.000000 0.000000 1.000001 6558.dat
1 1 -209.430600 -265.999800 -100.000800 1.000001 0.000000 0.000000 0.000000 0.999999 0.000000 0.000000 0.000000 1.000000 6558.dat
0 STEP
1 15 -230.000500 -266.000000 -100.000900 0.000000 1.000001 0.000001 -0.000001 -0.000001 0.999999 1.000000 0.000000 0.000001 40490.dat
1 1 -230.000700 -186.000000 -100.000800 1.000001 0.000000 0.000000 0.000000 0.999999 0.000000 0.000000 0.000000 1.000000 6558.dat
1 1 -230.000600 -345.999900 -100.000900 1.000001 0.000000 0.000000 0.000000 0.999999 0.000000 0.000000 0.000000 1.000000 6558.dat
1 1 -230.000700 -206.000000 -100.000800 1.000001 0.000000 0.000000 0.000000 0.999999 0.000000 0.000000 0.000000 1.000000 6558.dat
0 STEP
1 15 -250.000800 -206.000000 -100.000800 0.000001 1.000001 0.000001 0.000001 0.000001 -1.000000 -1.000001 0.000001 -0.000001 64871.dat
0 STEP
1 1 150.380300 -185.999800 -100.000200 1.000001 0.000000 0.000000 0.000000 0.000000 1.000000 0.000000 -1.000001 0.000000 6558.dat
1 1 150.380300 -165.999900 -100.000100 1.000001 0.000000 0.000000 0.000000 0.000000 1.000000 0.000000 -1.000001 0.000000 6558.dat
1 4 150.380300 -165.999900 -100.000200 0.000000 0.000000 -1.000001 0.000000 -1.000000 0.000000 -1.000001 0.000000 0.000000 42003.dat
0 STEP
1 72 150.000200 -225.999900 -100.000200 0.000000 0.000000 -1.000001 -1.000000 0.000000 0.000000 0.000000 1.000001 0.000000 3647.dat
1 71 149.780300 -285.999900 -100.000200 0.000000 0.000000 -1.000001 0.224950 -0.974371 0.000000 -0.974372 -0.224950 0.000000 3649.dat
0 STEP
1 15 170.380300 -226.000000 -100.000200 0.000001 1.000002 0.000001 -0.000001 -0.000001 1.000000 1.000001 -0.000001 0.000001 32524.dat
0 STEP
1 0 180.380300 -245.999900 -100.000200 -1.000001 0.000000 0.000000 0.000000 1.000000 0.000000 0.000000 0.000000 -1.000001 2780.dat
1 0 180.380300 -205.999900 -100.000200 -1.000001 0.000000 0.000000 0.000000 1.000000 0.000000 0.000000 0.000000 -1.000001 2780.dat
0 STEP
1 15 182.000000 -226.232500 -100.000000 0.000000 0.000000 1.000000 0.000000 1.000000 0.000000 -1.000000 0.000000 0.000000 dx0063.dat.dat
0 STEP
0 STEP
0 NOFILE
0 FILE SubModel Group 9 Copy Copy Copy
0 SubModel Group 9 Copy Copy Copy
0 Name:  SubModel Group 9 Copy Copy Copy
0 Author:  
0 CustomBrick
0 NumOfBricks:  3
1 72 10.000000 -1.128810 -10.000000 1.000000 0.000000 0.000000 0.000000 0.000000 -1.000000 0.000000 1.000000 0.000000 dch003.dat
1 71 -27.466620 -79.717990 29.427020 1.000000 0.000000 0.000000 0.000000 0.000000 -1.000000 0.000000 1.000000 0.000000 dch004.dat
1 25 7.837010 13.484720 -9.965000 1.000000 0.000000 0.000000 0.000000 0.000000 -1.000000 0.000000 1.000000 0.000000 dch005.dat
0 NOFILE
0 FILE SubModel Group 5
0 SubModel Group 5
0 Name:  SubModel Group 5
0 Author:  
0 CustomBrick
0 NumOfBricks:  23
1 15 20.230200 -249.999900 -0.000270 0.000001 1.000002 0.000001 -0.000001 -0.000001 1.000000 1.000001 -0.000001 0.000001 64871.dat
1 0 10.230160 -289.999900 -0.000270 -1.000001 0.000000 0.000000 0.000000 1.000000 0.000000 0.000000 0.000000 -1.000001 2780.dat
1 0 10.230160 -269.999900 -0.000270 -1.000001 0.000000 0.000000 0.000000 1.000000 0.000000 0.000000 0.000000 -1.000001 2780.dat
0 STEP
1 0 10.230220 -230.000000 -0.000270 -1.000001 0.000000 0.000000 0.000000 1.000000 0.000000 0.000000 0.000000 -1.000001 2780.dat
1 0 30.380190 -249.999800 -0.000150 -1.000001 0.000000 0.000000 0.000000 0.974369 0.224949 0.000000 0.224950 -0.974370 3706.dat
0 STEP
1 15 0.230190 -249.999900 -0.000310 0.000001 1.000002 0.000001 -0.000001 -0.000001 1.000000 1.000001 -0.000001 0.000001 32523.dat
1 19 -19.619920 -249.999800 -0.000180 0.000000 0.000000 -1.000001 0.224949 -0.974369 0.000000 -0.974370 -0.224950 0.000000 32269.dat
0 STEP
1 16 -30.000000 -120.000000 0.000000 1.000000 0.000000 0.000000 0.000000 1.000000 0.000000 0.000000 0.000000 1.000000 submodel group 6
0 STEP
1 71 30.230260 -209.999900 -0.000210 -1.000001 0.000000 0.000000 0.000000 0.999999 0.000000 0.000000 0.000000 -1.000000 3673.dat
1 71 30.230360 -109.999900 -0.000150 -1.000001 0.000000 0.000000 0.000000 0.999999 0.000000 0.000000 0.000000 -1.000000 3673.dat
0 STEP
1 15 40.000120 -149.999800 -0.000090 0.000001 1.000001 0.000001 0.000001 0.000001 -1.000000 -1.000001 0.000001 -0.000001 64871.dat
1 0 70.000200 -189.999900 -0.000150 -1.000001 0.000000 0.000000 0.000000 1.000000 0.000000 0.000000 0.000000 -1.000001 3705.dat
0 STEP
1 4 0.230220 -319.999900 -0.000490 0.000000 -1.000001 0.000000 -1.000000 0.000000 0.000000 0.000000 0.000000 -1.000001 32062.dat
1 0 0.230130 -289.999900 -0.000370 -1.000001 -0.000002 -0.000002 -0.000002 -0.000002 1.000000 -0.000002 1.000001 0.000002 32013.dat
0 STEP
0 NOFILE
0 FILE SubModel Group 6
0 SubModel Group 6
0 Name:  SubModel Group 6
0 Author:  
0 CustomBrick
0 NumOfBricks:  10
1 15 -109.769900 -69.999840 -0.000240 0.000001 0.000001 -1.000001 0.000001 1.000000 0.000001 1.000001 -0.000001 0.000001 64871.dat
1 0 10.230270 -59.999960 -0.000370 0.000000 0.000000 -1.000001 1.000000 0.000000 0.000000 0.000000 -1.000001 0.000000 2780.dat
1 0 -29.769690 -59.999860 -0.000310 0.000000 0.000000 -1.000001 1.000000 0.000000 0.000000 0.000000 -1.000001 0.000000 2780.dat
0 STEP
1 0 -9.769890 -159.570000 -0.000240 0.000000 0.000001 1.000002 -1.000002 0.000000 0.000000 0.000000 -1.000002 0.000000 3708.dat
0 STEP
1 71 -9.769859 -89.570140 -0.000240 1.000002 0.000001 0.000001 -0.000001 0.000000 1.000002 0.000000 -1.000002 0.000000 3713.dat
1 19 -9.769879 -100.880100 -0.000240 -1.000002 0.000001 -0.000001 0.000001 0.000000 -1.000002 0.000000 -1.000003 0.000000 6589.dat
0 STEP
1 1 30.230340 -49.999960 -0.000370 -0.000001 -0.000001 -1.000001 -0.000001 -1.000000 0.000001 -1.000001 0.000001 0.000001 32140.dat
1 4 30.230370 -39.999860 -0.000370 0.000000 -1.000001 0.000000 -1.000000 0.000000 0.000000 0.000000 0.000000 -1.000001 32062.dat
0 STEP
1 0 40.230310 -9.999889 -0.000150 -1.000001 0.000000 0.000000 0.000000 1.000000 0.000000 0.000000 0.000000 -1.000001 2780.dat
1 0 30.230310 -9.999889 -0.000240 -1.000001 -0.000002 -0.000002 -0.000002 -0.000002 1.000000 -0.000002 1.000001 0.000002 32013.dat
0 STEP
0 NOFILE
0 FILE SubModel Group 4
0 SubModel Group 4
0 Name:  SubModel Group 4
0 Author:  
0 CustomBrick
0 NumOfBricks:  15
1 1 -10.000930 -8.000000 59.999940 0.000000 0.000000 1.000000 0.000000 1.000000 0.000000 -1.000000 0.000000 0.000000 3738.dat
1 1 -10.000290 -8.000000 -120.000300 0.000000 0.000000 0.999997 0.000000 1.000000 0.000000 -0.999997 0.000000 0.000000 32001.dat
1 1 -20.000810 -32.000000 -20.000450 0.000001 0.000000 1.000001 0.000000 1.000000 0.000000 -1.000001 0.000000 0.000001 3703.dat
0 STEP
1 1 -20.000810 -56.000000 -20.000450 0.000001 0.000000 1.000001 0.000000 1.000000 0.000000 -1.000001 0.000000 0.000001 3702.dat
0 STEP
1 1 -0.000760 -56.000000 -20.000480 0.000000 0.000000 1.000001 0.000000 1.000000 0.000000 -1.000001 0.000000 0.000000 3701.dat
1 0 -10.000810 -46.000000 -40.000480 -1.000001 0.000000 0.000000 0.000000 1.000000 0.000000 0.000000 0.000000 -1.000001 2780.dat
1 0 -10.000810 -46.000000 -0.000460 -1.000001 0.000000 0.000000 0.000000 1.000000 0.000000 0.000000 0.000000 -1.000001 2780.dat
0 STEP
1 1 -0.000820 -64.000000 -20.000600 0.000000 0.000000 1.000001 0.000000 1.000000 0.000000 -1.000001 0.000000 0.000000 3023.dat
1 1 -0.000820 -71.999960 -20.000600 0.000001 0.000000 1.000001 0.000000 1.000000 0.000000 -1.000001 0.000000 0.000001 3023.dat
0 STEP
1 1 -0.000820 -95.999950 -20.000660 0.000000 0.000000 1.000001 0.000000 1.000000 0.000000 -1.000001 0.000000 0.000000 3700.dat
1 0 -10.000930 -85.999950 -20.000660 -1.000001 0.000000 0.000000 0.000000 1.000000 0.000000 0.000000 0.000000 -1.000001 2780.dat
0 STEP
1 4 -20.240650 -22.000000 119.999600 -1.000002 -0.000001 0.000001 0.000001 0.000001 1.000000 -0.000001 1.000001 -0.000001 32054.dat
1 4 -20.000720 -22.000020 39.999640 -1.000001 -0.000001 0.000001 0.000001 0.000001 1.000000 -0.000001 1.000001 -0.000001 32054.dat
0 STEP
1 0 69.759830 -22.000030 119.999700 -1.000001 0.000000 0.000000 0.000000 1.000000 0.000000 0.000000 0.000000 -1.000001 3707.dat
1 0 69.999790 -22.000040 39.999640 -1.000001 0.000000 0.000000 0.000000 1.000000 0.000000 0.000000 0.000000 -1.000001 3707.dat
0 STEP
0 NOFILE
0 FILE SubModel Group 2
0 SubModel Group 2
0 Name:  SubModel Group 2
0 Author:  
0 CustomBrick
0 NumOfBricks:  16
1 71 0.230140 -78.319810 -0.000310 -1.000001 -0.000001 -0.000001 0.000001 -1.000000 0.000000 -0.000001 0.000000 1.000001 33299.dat
1 15 0.230140 -98.059810 -0.000310 1.000001 -0.000001 0.000001 0.000001 1.000000 0.000001 -0.000001 -0.000001 1.000001 32524.dat
0 STEP
1 14 0.230140 -113.009700 -0.000310 1.000001 0.000000 0.000000 0.000000 0.000000 -1.000000 0.000000 1.000001 0.000000 32123a.dat
1 0 0.230140 -60.079850 -0.000310 0.000000 0.000000 -1.000001 1.000000 0.000000 0.000000 0.000000 -1.000001 0.000000 3706.dat
0 STEP
1 19 0.230270 -108.059800 -60.001000 -0.000001 -0.000001 -1.000001 -1.000000 -0.000001 0.000001 -0.000001 1.000001 -0.000001 3749.dat
1 19 0.230180 -108.059700 59.999760 -0.000001 -0.000001 -1.000001 -1.000000 -0.000001 0.000001 -0.000001 1.000001 -0.000001 3749.dat
0 STEP
1 16 0.000000 -108.000000 0.000000 1.000000 0.000000 0.000000 0.000000 1.000000 0.000000 0.000000 0.000000 1.000000 submodel group 3
0 STEP
1 19 0.230270 -168.059600 -60.001000 0.000001 0.000001 1.000001 1.000000 0.000001 -0.000001 -0.000001 1.000001 -0.000001 3749.dat
1 19 0.230180 -168.059600 59.999760 0.000001 0.000001 1.000001 1.000000 0.000001 -0.000001 -0.000001 1.000001 -0.000001 3749.dat
0 STEP
1 15 0.230330 -178.059700 -0.000730 -1.000001 0.000001 -0.000001 0.000001 1.000000 0.000001 0.000001 0.000001 -1.000001 40490.dat
0 STEP
1 71 0.230330 -198.059600 -0.000670 -1.000001 -0.000001 0.000000 -0.000001 1.000000 -0.000001 0.000000 -0.000001 -1.000001 33299.dat
1 71 0.230020 -209.929700 -0.000490 0.000000 -1.000001 0.000000 1.000000 0.000000 0.000000 0.000000 0.000000 1.000001 32073.dat
0 STEP
0 NOFILE
0 FILE SubModel Group 3
0 SubModel Group 3
0 Name:  SubModel Group 3
0 Author:  
0 CustomBrick
0 NumOfBricks:  5
1 4 0.230660 -30.059330 59.998600 -0.000001 1.000000 -0.000001 0.000001 0.000001 0.999997 1.000000 0.000001 -0.000001 32054.dat
1 4 0.230180 -30.059660 59.999760 0.000000 1.000001 0.000000 0.000000 0.000000 -1.000000 -1.000001 0.000000 0.000000 32034.dat
0 STEP
1 4 0.230240 -30.059720 -60.001000 0.000001 -1.000001 0.000001 0.000001 0.000001 1.000000 -1.000000 -0.000001 0.000001 32054.dat
1 71 0.230240 -30.059760 -0.000980 0.000000 0.000000 -1.000001 0.000000 1.000000 0.000000 1.000000 0.000000 0.000000 32073.dat
0 STEP
1 4 0.230270 -30.059660 -60.001000 0.000000 1.000001 0.000000 0.000000 0.000000 -1.000000 -1.000001 0.000000 0.000000 32034.dat
0 STEP
0 NOFILE
0 FILE SubModel Group 1
0 SubModel Group 1
0 Name:  SubModel Group 1
0 Author:  
0 CustomBrick
0 NumOfBricks:  8
1 1 -119.769900 -29.999640 -0.000270 0.000001 0.000001 1.000001 0.000001 1.000000 -0.000001 -1.000001 0.000001 0.000001 32140.dat
1 4 -120.000500 -19.999910 -0.000950 0.000000 0.000000 -1.000001 0.999999 0.000000 0.000000 0.000000 -1.000000 0.000000 32062.dat
0 STEP
1 0 -99.769870 -39.999660 -0.000270 0.000000 -1.000001 0.000000 -1.000000 0.000000 0.000000 0.000000 0.000000 -1.000001 2780.dat
1 0 -59.770050 -39.999700 -0.000340 0.000000 -1.000001 0.000000 -1.000000 0.000000 0.000000 0.000000 0.000000 -1.000001 2780.dat
0 STEP
1 15 20.229960 -49.999720 -0.000370 0.000001 0.000001 -1.000001 0.000001 1.000000 0.000001 1.000001 -0.000001 0.000001 64871.dat
0 STEP
1 1 160.230200 -29.999880 -0.000490 -0.000001 -0.000001 -1.000001 -0.000001 -1.000000 0.000001 -1.000001 0.000001 0.000001 32140.dat
1 0 140.230100 -39.999850 -0.000490 0.000000 0.000000 -1.000001 1.000000 0.000000 0.000000 0.000000 -1.000001 0.000000 2780.dat
1 0 100.230200 -39.999850 -0.000430 0.000000 0.000000 -1.000001 1.000000 0.000000 0.000000 0.000000 -1.000001 0.000000 2780.dat
0 STEP
0 NOFILE
