0 FILE 44-摇摆锤.io
0 Untitled Model
0 Name:  44-摇摆锤
0 Author:  
0 CustomBrick
0 NumOfBricks:  76
1 0 -50.001680 -14.000020 43.135380 -1.000003 0.000000 0.000000 0.000000 1.000000 0.000000 0.000000 0.000000 -1.000003 2780.dat
1 0 -50.001680 -14.000020 -196.865300 -1.000002 0.000000 0.000000 0.000000 1.000000 0.000000 0.000000 0.000000 -1.000002 2780.dat
1 1 -40.002280 -24.000020 -76.864640 0.000000 0.000000 1.000001 0.000000 1.000000 0.000000 -1.000001 0.000000 0.000000 3703.dat
0 STEP
1 1 -60.001790 -24.000020 -76.864940 0.000000 0.000000 1.000003 0.000000 1.000000 0.000000 -1.000003 0.000000 0.000000 3703.dat
0 STEP
1 0 -70.001910 -14.000020 -176.865300 -1.000003 0.000000 0.000000 0.000000 1.000000 0.000000 0.000000 0.000000 -1.000003 2780.dat
0 STEP
1 0 -50.001800 -14.000020 -216.865400 1.000005 0.000000 0.000000 0.000000 1.000012 0.000000 0.000000 0.000000 1.000003 3706.dat
0 STEP
1 1 -80.001260 -14.000080 -136.865800 0.000000 -1.000002 0.000000 0.000000 0.000000 1.000000 -1.000003 0.000000 0.000000 32009.dat
0 STEP
1 0 -30.001710 -14.000020 -176.865300 -1.000002 0.000000 0.000000 0.000000 1.000000 0.000000 0.000000 0.000000 -1.000002 2780.dat
0 STEP
1 19 -70.001070 -114.000100 -136.865800 1.000005 0.000001 -0.000001 -0.000001 1.000000 -0.000001 0.000001 0.000001 1.000005 3749.dat
0 STEP
1 71 -50.000100 -114.003000 -136.866000 -0.000001 0.000000 1.000002 0.000000 1.000000 0.000000 -1.000002 0.000000 -0.000001 59443.dat
0 STEP
1 19 -30.000730 -114.000100 -136.865800 -1.000005 -0.000001 0.000001 -0.000001 1.000000 -0.000001 -0.000001 -0.000001 -1.000005 3749.dat
0 STEP
1 1 -20.000700 -14.000080 -136.865800 0.000000 -1.000003 0.000000 0.000000 0.000000 1.000000 -1.000003 0.000000 0.000000 32009.dat
0 STEP
1 71 9.995279 -14.002820 -216.866300 -0.000001 0.000000 1.000003 0.000000 1.000012 0.000000 -1.000001 0.000000 -0.000001 59443.dat
1 71 -110.002100 -14.002820 -216.865400 -0.000001 0.000000 1.000003 0.000000 1.000000 0.000000 -1.000003 0.000000 -0.000001 59443.dat
0 STEP
1 4 -130.002200 -14.000020 -216.865400 -1.000003 0.000000 0.000000 0.000000 1.000000 0.000000 0.000000 0.000000 -1.000003 32062.dat
1 4 29.995320 -14.000020 -216.866300 -1.000002 0.000000 0.000000 0.000000 1.000000 0.000000 0.000000 0.000000 -1.000002 32062.dat
0 STEP
1 15 -140.002100 -24.000020 -216.865400 0.000000 0.000000 1.000003 0.000000 1.000000 0.000000 -1.000003 0.000000 0.000000 32064a.dat
1 15 39.995290 -24.000020 -216.866300 0.000000 0.000000 1.000003 0.000000 1.000000 0.000000 -1.000003 0.000000 0.000000 32064a.dat
0 STEP
1 16 -40.000180 -92.706300 -140.000400 1.000000 0.000000 0.000000 0.000000 1.000000 0.000000 0.000000 0.000000 1.000000 submodel group 1
0 STEP
1 4 -20.000580 -154.000100 -136.866000 -1.000003 -0.000001 0.000001 -0.000001 -0.000001 -1.000000 0.000001 -1.000003 0.000001 32054.dat
1 4 -20.000580 -134.000000 -136.866000 -1.000003 -0.000001 0.000001 -0.000001 -0.000001 -1.000000 0.000001 -1.000003 0.000001 32054.dat
1 4 -80.001260 -154.000100 -136.866000 1.000003 0.000001 -0.000001 0.000001 0.000001 1.000000 0.000001 -1.000003 0.000001 32054.dat
1 4 -80.001130 -134.000100 -136.866000 1.000003 0.000001 -0.000001 0.000001 0.000001 1.000000 0.000001 -1.000003 0.000001 32054.dat
0 STEP
0 NOFILE
0 FILE SubModel Group 1
0 SubModel Group 1
0 Name:  SubModel Group 1
0 Author:  
0 CustomBrick
0 NumOfBricks:  54
1 0 9.996950 -465.081900 -99.998430 1.000007 0.000000 0.000000 0.000000 1.000000 0.000000 0.000000 0.000000 1.000007 2780.dat
1 0 9.997069 -465.081900 -19.997070 1.000007 0.000000 0.000000 0.000000 1.000000 0.000000 0.000000 0.000000 1.000007 2780.dat
1 1 19.996700 -475.081600 -59.997800 0.000000 0.000000 -1.000007 0.000000 1.000000 0.000000 1.000007 0.000000 0.000000 3702.dat
0 STEP
1 15 -0.003230 -465.081900 -59.998430 0.000001 1.000000 0.000001 1.000000 -0.000001 0.000001 0.000001 0.000001 -1.000000 32316.dat
0 STEP
1 0 -10.003050 -465.081700 -79.998370 1.000007 0.000000 0.000000 0.000000 1.000000 0.000000 0.000000 0.000000 1.000008 2780.dat
1 0 -10.003050 -465.081900 -39.997620 1.000007 0.000000 0.000000 0.000000 1.000000 0.000000 0.000000 0.000000 1.000007 2780.dat
0 STEP
1 72 -25.002560 -465.081500 -59.997920 0.000000 1.000006 0.000000 0.000000 0.000000 1.000000 1.000007 0.000000 0.000000 99773.dat
1 72 -15.003300 -465.081900 -59.997920 0.000000 1.000007 0.000000 0.000000 0.000000 1.000000 1.000007 0.000000 0.000000 99773.dat
0 STEP
1 19 -30.142940 -465.081900 -99.998430 1.000008 0.000001 -0.000001 -0.000001 1.000001 -0.000001 0.000001 0.000001 1.000008 3749.dat
1 19 -29.212890 -465.081900 -19.997130 1.000008 0.000001 -0.000001 -0.000001 1.000001 -0.000001 0.000001 0.000001 1.000008 3749.dat
0 STEP
1 1 -40.142940 -475.081800 -59.997800 0.000000 0.000000 -1.000007 0.000000 1.000000 0.000000 1.000007 0.000000 0.000000 3702.dat
0 STEP
1 0 -10.002930 -445.081700 -59.997860 1.000007 0.000000 0.000000 0.000000 1.000000 0.000000 0.000000 0.000000 1.000007 2780.dat
1 0 -10.003050 -425.081500 -59.997860 1.000007 0.000000 0.000000 0.000000 1.000000 0.000000 0.000000 0.000000 1.000007 2780.dat
0 STEP
1 15 -0.001220 -305.081500 -59.997800 -0.000001 -0.999997 -0.000001 -0.000001 -0.000001 0.999990 -1.000007 0.000001 -0.000001 64871.dat
0 STEP
1 1 -10.003050 -483.081800 -119.998300 -1.000007 0.000000 0.000000 0.000000 1.000000 0.000000 0.000000 0.000000 -1.000007 32001.dat
1 1 -10.000000 -483.081500 -80.000020 -1.000000 0.000000 0.000000 0.000000 1.000000 0.000000 0.000000 0.000000 -1.000000 32001.dat
1 1 -10.003050 -483.081500 -39.997680 -1.000007 0.000000 0.000000 0.000000 1.000000 0.000000 0.000000 0.000000 -1.000007 32001.dat
1 1 -10.003660 -483.081600 0.003420 -1.000001 0.000000 0.000000 0.000000 1.000000 0.000000 0.000000 0.000000 -1.000001 32001.dat
0 STEP
1 19 -0.001220 -325.081300 -59.997860 0.999997 0.000000 0.000000 0.000000 -0.965916 0.258816 0.000000 -0.258821 -0.965933 6558.dat
1 19 -0.000850 -165.082300 -59.998120 0.999997 0.000000 0.000001 0.000000 -0.965916 0.258816 0.000001 -0.258820 -0.965934 6558.dat
0 STEP
1 15 -20.000980 -245.081000 -59.998430 -0.000001 -1.000003 -0.000001 0.000001 0.000001 -0.999995 1.000008 -0.000001 0.000001 40490.dat
0 STEP
1 1 19.998540 -321.292000 3.134890 -0.000001 -0.999997 0.000001 -0.965916 0.000001 0.258818 -0.258822 -0.000001 -0.965933 32140.dat
0 STEP
1 0 -10.001100 -321.292100 3.134890 0.999997 0.000000 0.000000 0.000000 0.258816 0.965916 0.000000 -0.965933 0.258821 3706.dat
1 4 39.998540 -321.292000 3.135010 0.000000 0.000001 -0.999997 0.965916 0.258817 0.000001 0.258821 -0.965934 -0.000001 32039.dat
0 STEP
1 0 -10.000730 -281.292000 3.134580 -0.999998 0.000000 0.000000 0.000000 0.999992 0.000000 0.000000 0.000000 -1.000007 2780.dat
1 1 -0.000980 -261.292200 3.134640 -0.000001 -0.999998 0.000001 -0.000001 -0.000001 -0.999992 1.000008 -0.000001 -0.000001 32140.dat
0 STEP
1 19 9.999020 -161.293000 3.134520 0.999997 0.000001 -0.000001 -0.000001 0.965916 -0.258817 0.000001 0.258821 0.965933 3749.dat
1 1 19.998780 -161.293000 3.134640 -0.000001 -0.999997 0.000001 -0.965916 0.000001 0.258817 -0.258821 -0.000001 -0.965933 32140.dat
0 STEP
1 15 -0.000980 -101.293500 3.134580 -0.000001 -0.999998 -0.000001 -0.000001 -0.000001 0.999992 -1.000008 0.000001 -0.000001 32524.dat
0 STEP
1 0 -10.000980 -81.293460 3.134460 -0.999998 0.000000 0.000000 0.000000 0.999992 0.000000 0.000000 0.000000 -1.000007 2780.dat
1 0 -10.000860 -121.293300 3.134700 -0.999998 0.000000 0.000000 0.000000 0.999992 0.000000 0.000000 0.000000 -1.000007 2780.dat
0 STEP
1 15 -20.000860 -181.292800 3.134580 -0.000001 -0.999998 -0.000001 -0.000001 -0.000001 0.999992 -1.000008 0.000001 -0.000001 64871.dat
0 STEP
1 19 -30.000860 -141.293100 3.134700 -0.999998 -0.000001 0.000001 -0.000001 0.999992 -0.000001 -0.000001 -0.000001 -1.000008 3749.dat
1 19 -29.996830 -161.293400 3.135740 -0.999991 -0.000001 0.000001 -0.000001 0.999990 -0.000001 -0.000001 -0.000001 -1.000001 3749.dat
0 STEP
1 15 -20.000860 -321.291500 103.135300 -0.000001 -0.999997 -0.000001 0.999990 -0.000001 0.000001 -0.000001 -0.000001 1.000007 40490.dat
1 4 -20.000730 -321.291700 23.134640 0.999997 0.000001 -0.000001 0.000001 0.000001 0.999990 0.000001 -1.000007 0.000001 32054.dat
0 STEP
1 19 -30.000580 -321.291500 163.135800 -0.999997 -0.000001 0.000001 -0.000001 0.999990 -0.000001 -0.000001 -0.000001 -1.000007 3749.dat
0 STEP
1 15 -29.750730 -323.291400 3.134700 0.000000 -0.999997 0.000000 0.999990 0.000000 0.000000 0.000000 0.000000 1.000007 banyuan.dat
0 STEP
1 71 -39.996950 -161.293400 3.135680 -0.000001 0.000000 0.999997 0.000000 0.999990 0.000000 -1.000007 0.000000 -0.000001 3713.dat
1 71 -40.000700 -321.291500 163.135800 -0.000001 0.000000 0.999997 0.000000 0.999990 0.000000 -1.000007 0.000000 -0.000001 3713.dat
1 71 -40.001100 -321.292100 3.134840 -0.000001 0.000000 0.999997 0.258817 0.965916 0.000000 -0.965933 0.258821 -0.000001 3713.dat
1 71 -40.000860 -141.293000 3.134580 -0.000001 0.000000 0.999997 0.000000 0.999990 0.000000 -1.000007 0.000000 -0.000001 3713.dat
0 STEP
1 0 59.998300 -253.677900 21.252440 0.000000 0.000000 -0.999997 0.965916 0.258817 0.000000 0.258821 -0.965933 0.000000 3707.dat
1 71 59.998420 -175.284900 42.260980 0.999997 0.000000 0.000000 0.000000 0.258817 0.965916 0.000000 -0.965933 0.258821 59443.dat
0 STEP
1 0 59.998300 -98.010860 62.963680 0.000000 0.000000 -0.999997 0.965916 0.258817 0.000000 0.258821 -0.965933 0.000000 3707.dat
0 STEP
1 14 59.998300 -151.001000 48.764900 0.000000 -0.999997 -0.000001 -0.258817 0.000000 -0.965916 0.965933 0.000000 -0.258821 32123a.dat
1 4 39.998660 -136.494600 52.651550 0.000000 0.000001 -0.999997 -0.965916 -0.258817 0.000000 -0.258821 0.965933 0.000001 32039.dat
0 STEP
1 71 19.995730 -136.497000 52.658400 -0.999996 0.000000 -0.000001 0.000001 0.258822 -0.965934 0.000000 -0.965953 -0.258826 4519.dat
0 STEP
1 4 -0.002810 -136.497100 52.658820 0.000000 -0.000001 0.999997 -0.965935 0.258822 0.000000 -0.258826 -0.965953 -0.000001 32039.dat
1 4 -20.002560 -146.156600 50.070690 0.000000 0.000000 -0.999997 0.965935 0.258822 0.000000 0.258826 -0.965953 0.000000 32062.dat
0 STEP
1 0 59.997560 -93.413490 64.196480 0.000000 -1.000000 0.000000 0.258822 0.000000 0.965925 -0.965925 0.000000 0.258823 44309.dat
1 71 59.998300 -93.413120 64.195560 1.000000 0.000000 0.000000 0.000000 -0.258822 -0.965925 0.000000 0.965925 -0.258822 56145.dat
0 STEP
1 0 59.994580 -40.056360 78.493660 0.000000 -1.000000 0.000001 0.258821 0.000001 0.965925 -0.965926 0.000000 0.258824 44309.dat
1 71 59.998300 -40.055950 78.493220 1.000000 0.000000 -0.000001 -0.000001 -0.258821 -0.965926 0.000000 0.965926 -0.258821 56145.dat
0 STEP
0 NOFILE
