0 FILE 电动小车.io
0 Untitled Model
0 Name:  电动小车
0 Author:  
0 CustomBrick
0 NumOfBricks:  47
1 1 -21.999210 -52.635230 64.000070 0.999996 0.000000 0.000000 0.000000 0.999997 0.000000 0.000000 0.000000 0.999998 3703.dat
1 0 -81.998950 -42.635270 54.000100 0.000000 0.000000 -0.999996 0.000000 0.999997 0.000000 0.999998 0.000000 0.000000 2780.dat
1 0 -121.998700 -42.635270 54.000110 0.000000 0.000000 -0.999996 0.000000 0.999997 0.000000 0.999998 0.000000 0.000000 2780.dat
0 STEP
1 19 118.000100 -42.635240 74.000030 -0.000001 0.999996 -0.000001 0.000001 0.000001 0.999997 0.999998 0.000001 -0.000001 3749.dat
1 71 -101.998800 -42.635270 63.940140 0.000000 -0.999996 0.000000 0.000000 0.000000 0.999997 -0.999998 0.000000 0.000000 4519.dat
1 72 -101.998800 -42.635270 83.940100 0.000000 -0.999996 0.000000 0.999997 0.000000 0.000000 0.000000 0.000000 0.999998 3648b.dat
0 STEP
1 0 -161.998600 -42.635280 -5.640170 0.000000 0.130527 -0.991444 0.000000 0.991445 0.130527 0.999998 0.000000 0.000000 3708.dat
1 72 -161.998600 -42.635260 83.920090 0.991441 0.130526 0.000000 -0.130527 0.991442 0.000000 0.000000 0.000000 0.999998 3648b.dat
0 STEP
1 15 -102.000000 -43.000000 53.000000 -1.000000 0.000000 -0.000005 0.000000 1.000000 0.000000 0.000005 0.000000 -1.000000 xt0019.dat
0 STEP
1 1 -21.999220 -52.635230 -75.999860 0.999996 0.000000 0.000000 0.000000 0.999997 0.000000 0.000000 0.000000 0.999998 3703.dat
1 71 -161.998500 -42.635270 -95.899890 0.991441 0.130526 0.000000 -0.130527 0.991442 0.000000 0.000000 0.000000 0.999998 3713.dat
1 19 118.000100 -42.635280 -85.999930 -0.000001 0.999996 -0.000001 -0.000001 -0.000001 -0.999997 -0.999998 -0.000001 0.000001 3749.dat
0 STEP
1 1 -171.998600 -28.635310 -45.999960 0.000000 0.000000 0.999996 0.000000 0.999997 0.000000 -0.999998 0.000000 0.000000 3710.dat
1 1 -171.998600 -28.635310 34.000200 0.000000 0.000000 0.999996 0.000000 0.999997 0.000000 -0.999998 0.000000 0.000000 3710.dat
1 15 -171.998600 -36.635310 -5.999980 0.000000 0.000000 0.999999 0.000000 1.000000 0.000000 -0.999998 0.000000 0.000000 2431.dat
0 STEP
1 1 128.000000 -28.635310 -45.999930 0.000000 0.000000 0.999996 0.000000 0.999997 0.000000 -0.999998 0.000000 0.000000 3710.dat
1 1 128.000100 -28.635310 34.000160 0.000000 0.000000 0.999996 0.000000 0.999997 0.000000 -0.999998 0.000000 0.000000 3710.dat
1 15 128.000100 -36.635310 -6.000010 0.000000 0.000000 0.999999 0.000000 1.000000 0.000000 -0.999998 0.000000 0.000000 2431.dat
0 STEP
1 1 -161.998700 -60.635210 -6.000040 0.000000 0.000000 0.999996 0.000000 0.999997 0.000000 -0.999998 0.000000 0.000000 3738.dat
1 1 98.000140 -60.635200 -6.000070 0.000000 0.000000 0.999996 0.000000 0.999997 0.000000 -0.999998 0.000000 0.000000 3738.dat
0 STEP
1 16 -40.000000 -60.000000 -10.000000 1.000000 0.000000 0.000000 0.000000 1.000000 0.000000 0.000000 0.000000 1.000000 submodel group 1
0 STEP
1 19 98.000000 -98.635200 14.000200 0.999999 0.000001 -0.000001 0.000001 0.000001 1.000000 0.000001 -0.999998 0.000001 3749.dat
1 19 98.000000 -98.635150 -26.000030 0.999999 0.000001 -0.000001 0.000001 0.000001 1.000000 0.000001 -0.999998 0.000001 3749.dat
1 15 88.000080 -132.635200 -75.999940 -0.999999 0.000000 0.000000 0.000000 1.000000 0.000000 0.000000 0.000000 -0.999998 3040b.dat
1 15 88.000030 -132.635200 64.000060 0.999999 0.000000 0.000000 0.000000 1.000000 0.000000 0.000000 0.000000 0.999998 3040b.dat
0 STEP
1 72 102.990100 -98.635150 -26.000030 0.000000 0.000000 0.999999 0.000000 1.000000 0.000000 -0.999998 0.000000 0.000000 6575.dat
1 72 103.540000 -98.635150 14.000200 0.000000 0.000000 0.999999 0.000000 1.000000 0.000000 -0.999998 0.000000 0.000000 6575.dat
0 STEP
1 19 111.000000 -98.635150 -26.000030 -0.000001 0.000000 0.999999 0.000000 -1.000000 0.000000 0.999998 0.000000 0.000001 6589.dat
1 19 111.000000 -98.635150 14.000200 -0.000001 0.000000 0.999999 0.000000 -1.000000 0.000000 0.999998 0.000000 0.000001 6589.dat
0 STEP
1 0 -161.998700 -42.634960 -125.936600 -0.130526 0.991441 0.000000 -0.991446 -0.130527 -0.000001 -0.000001 0.000000 0.999998 30391.dat
1 71 -161.998700 -42.635260 -125.679900 0.991441 0.130526 0.000000 -0.130527 0.991442 0.000000 0.000000 0.000000 0.999998 55982.dat
1 0 -162.000800 -42.635160 114.207000 -0.130527 -0.991444 0.000000 -0.991445 0.130527 -0.000001 0.000001 0.000000 -0.999998 30391.dat
1 71 -161.998600 -42.635270 113.950100 -0.991441 0.130526 0.000000 0.130527 0.991442 0.000000 0.000000 0.000000 -0.999998 55982.dat
0 STEP
1 0 118.000000 -42.635270 -106.255100 0.000000 0.999996 0.000000 -0.999997 0.000000 -0.000001 -0.000001 0.000000 0.999998 30391.dat
1 71 118.000100 -42.635280 -105.999900 0.999996 0.000000 0.000000 0.000000 0.999997 0.000000 0.000000 0.000000 0.999998 55982.dat
1 0 118.000500 -42.635240 94.258060 0.000000 -0.999996 0.000000 -0.999997 0.000000 -0.000001 0.000001 0.000000 -0.999998 30391.dat
1 71 118.000100 -42.635240 94.000000 -0.999998 0.000000 0.000000 0.000000 0.999998 0.000000 0.000000 0.000000 -0.999998 55982.dat
0 STEP
0 STEP
0 NOFILE
0 FILE SubModel Group 1
0 SubModel Group 1
0 Name:  SubModel Group 1
0 Author:  
0 CustomBrick
0 NumOfBricks:  11
1 1 -111.997500 -48.635200 3.995750 0.000000 0.000000 0.999999 0.000000 1.000000 0.000000 -0.999998 0.000000 0.000000 3702.dat
1 1 -111.998700 -24.635210 3.999840 0.000000 0.000000 0.999999 0.000000 1.000000 0.000000 -0.999998 0.000000 0.000000 3702.dat
0 STEP
1 0 -102.001800 -38.635230 -35.999900 -1.000002 0.000000 0.000000 0.000000 1.000000 0.000000 0.000000 0.000000 -1.000002 2780.dat
1 0 -102.001800 -38.635200 44.001100 -1.000002 0.000000 0.000000 0.000000 1.000000 0.000000 0.000000 0.000000 -1.000002 2780.dat
0 STEP
1 16 -55.000000 -48.294410 -66.000000 1.000000 0.000000 0.000000 0.000000 0.000000 1.000000 0.000000 -1.000000 0.000000 submodel group 9 copy copy copy
0 STEP
1 0 117.999200 -38.635230 -35.999800 -1.000002 0.000000 0.000000 0.000000 1.000000 0.000000 0.000000 0.000000 -1.000001 2780.dat
1 0 117.999200 -38.635230 44.000160 -1.000002 0.000000 0.000000 0.000000 1.000000 0.000000 0.000000 0.000000 -1.000001 2780.dat
0 STEP
1 1 128.000200 -24.635200 3.999930 0.000000 0.000000 0.999999 0.000000 1.000000 0.000000 -0.999998 0.000000 0.000000 3702.dat
1 1 128.000000 -48.635200 4.000000 0.000000 0.000000 1.000000 0.000000 1.000000 0.000000 -1.000000 0.000000 0.000000 3702.dat
0 STEP
0 NOFILE
0 FILE SubModel Group 9 Copy Copy Copy
0 SubModel Group 9 Copy Copy Copy
0 Name:  SubModel Group 9 Copy Copy Copy
0 Author:  
0 CustomBrick
0 NumOfBricks:  3
1 72 10.000000 -1.128810 -10.000000 1.000000 0.000000 0.000000 0.000000 0.000000 -1.000000 0.000000 1.000000 0.000000 dch003.dat
1 71 -27.466620 -79.717990 29.427020 1.000000 0.000000 0.000000 0.000000 0.000000 -1.000000 0.000000 1.000000 0.000000 dch004.dat
1 25 7.837010 13.484720 -9.965000 1.000000 0.000000 0.000000 0.000000 0.000000 -1.000000 0.000000 1.000000 0.000000 dch005.dat
0 NOFILE
