0 Untitled Model
0 Name:  印纸机
0 Author:  
0 CustomBrick
0 NumOfBricks:  44
1 1 -130.000300 -104.000000 32.000070 1.000001 0.000000 0.000000 0.000000 1.000000 0.000000 0.000000 0.000000 1.000001 3702.dat
1 0 -130.000300 -94.000000 2.000160 0.000000 0.000000 1.000001 0.000000 1.000000 0.000000 -1.000001 0.000000 0.000000 3705.dat
1 71 -130.000300 -94.000000 12.210130 1.000001 0.000000 0.000000 0.000000 -1.000000 0.000000 0.000000 0.000000 -1.000001 3649.dat
0 STEP
1 0 -70.000110 -94.000000 11.630160 0.000000 -0.342019 0.939693 0.000000 0.939693 0.342019 -1.000000 0.000000 0.000000 3706.dat
1 72 -70.000360 -93.999900 12.000160 0.384291 -0.923212 0.000000 -0.923212 -0.384291 0.000000 0.000000 0.000000 -1.000000 3647.dat
0 STEP
1 14 -70.000100 -94.000020 46.790180 0.342019 0.939693 0.000000 -0.939693 0.342019 0.000000 0.000000 0.000000 1.000000 32123a.dat
0 STEP
1 71 -70.000100 -94.000020 61.630160 -0.342019 0.000000 0.939694 0.939693 0.000001 0.342019 -0.000001 1.000000 0.000000 33299.dat
1 4 -32.412360 -80.319260 91.630190 0.000000 0.000000 1.000000 0.000000 1.000000 0.000000 -1.000000 0.000000 0.000000 62462.dat
0 STEP
1 71 -130.000300 -94.000000 -7.999860 1.000001 0.000000 0.000000 0.000000 -1.000000 0.000000 0.000000 0.000000 -1.000001 3649.dat
1 72 -70.000360 -93.999870 -7.999870 0.384291 -0.923212 0.000000 -0.923212 -0.384291 0.000000 0.000000 0.000000 -1.000000 3647.dat
0 STEP
1 1 -130.000300 -104.000000 -28.000010 1.000001 0.000000 0.000000 0.000000 1.000000 0.000000 0.000000 0.000000 1.000001 3702.dat
0 STEP
1 1 -50.000320 -80.000000 32.000060 1.000001 0.000000 0.000000 0.000000 1.000000 0.000000 0.000000 0.000000 1.000001 3710.dat
1 1 -50.000320 -80.000000 -28.000020 1.000001 0.000000 0.000000 0.000000 1.000000 0.000000 0.000000 0.000000 1.000001 3710.dat
0 STEP
1 1 29.999990 -104.000000 32.000050 1.000001 0.000000 0.000000 0.000000 1.000000 0.000000 0.000000 0.000000 1.000001 3702.dat
1 1 29.999980 -104.000000 -28.000020 1.000001 0.000000 0.000000 0.000000 1.000000 0.000000 0.000000 0.000000 1.000001 3702.dat
0 STEP
1 15 -50.000320 -112.000000 32.000060 -1.000001 0.000000 0.000000 0.000000 1.000000 0.000000 0.000000 0.000000 -1.000001 2431.dat
1 15 -50.000320 -112.000000 -28.000020 -1.000001 0.000000 0.000000 0.000000 1.000000 0.000000 0.000000 0.000000 -1.000001 2431.dat
0 STEP
1 1 -200.000400 -80.000000 2.000170 0.000000 0.000000 1.000001 0.000000 1.000000 0.000000 -1.000001 0.000000 0.000000 3710.dat
0 STEP
1 72 -70.000110 -94.000020 -43.369900 0.342019 0.939694 0.000000 -0.939693 0.342019 0.000000 0.000000 0.000000 1.000000 6575.dat
0 STEP
1 1 90.000070 -80.000000 2.000130 0.000000 0.000000 1.000001 0.000000 1.000000 0.000000 -1.000001 0.000000 0.000000 3709b.dat
0 STEP
1 1 100.000000 -72.000000 2.000010 0.000000 0.000000 1.000000 0.000000 1.000000 0.000000 -1.000000 0.000000 0.000000 3894.dat
1 1 80.000050 -72.000000 2.000010 0.000000 0.000000 1.000003 0.000000 1.000000 0.000000 -1.000003 0.000000 0.000000 3701.dat
0 STEP
1 1 100.000000 -48.000000 2.000000 0.000000 0.000000 1.000000 0.000000 1.000000 0.000000 -1.000000 0.000000 0.000000 3894.dat
1 1 80.000430 -48.000010 2.001410 0.000000 0.000000 1.000000 0.000000 1.000000 0.000000 -1.000000 0.000000 0.000000 3701.dat
0 STEP
1 1 -50.000320 -72.000000 32.000060 1.000000 0.000000 0.000000 0.000000 1.000000 0.000000 0.000000 0.000000 1.000000 3700.dat
1 1 -50.000320 -72.000000 -28.000020 1.000000 0.000000 0.000000 0.000000 1.000000 0.000000 0.000000 0.000000 1.000000 3700.dat
0 STEP
1 1 -50.000320 -48.000000 32.000060 1.000000 0.000000 0.000000 0.000000 1.000000 0.000000 0.000000 0.000000 1.000000 3700.dat
1 1 -50.000320 -48.000000 -28.000020 1.000000 0.000000 0.000000 0.000000 1.000000 0.000000 0.000000 0.000000 1.000000 3700.dat
0 STEP
1 1 -200.000400 -48.000000 2.000170 0.000000 0.000000 1.000000 0.000000 1.000000 0.000000 -1.000000 0.000000 0.000000 3894.dat
1 1 -200.000400 -72.000000 2.000170 0.000000 0.000000 1.000000 0.000000 1.000000 0.000000 -1.000000 0.000000 0.000000 3894.dat
0 STEP
1 1 -200.000400 -112.000000 2.000040 0.000000 0.000000 1.000001 0.000000 1.000000 0.000000 -1.000001 0.000000 0.000000 3710.dat
0 STEP
1 1 90.000240 -112.000000 2.000380 0.000000 0.000000 1.000000 0.000000 1.000000 0.000000 -1.000000 0.000000 0.000000 3709b.dat
0 STEP
1 19 -210.000400 -38.000020 42.000100 -1.000000 -0.000001 0.000001 -0.000001 -0.000001 -1.000000 0.000001 -1.000000 0.000001 3749.dat
1 19 -210.000400 -38.000020 -38.000010 -1.000000 -0.000001 0.000001 -0.000001 -0.000001 -1.000000 0.000001 -1.000000 0.000001 3749.dat
0 STEP
1 0 -230.257900 -38.000020 41.999300 -0.000001 0.000000 1.000002 1.000000 0.000000 0.000001 0.000000 1.000002 0.000000 30391.dat
1 71 -230.000400 -38.000020 42.000100 0.000000 0.000000 1.000000 0.000000 -1.000000 0.000000 1.000000 0.000000 0.000000 55982.dat
0 STEP
1 0 -230.258100 -38.000030 -38.001540 -0.000001 0.000000 1.000003 1.000000 0.000000 0.000001 0.000000 1.000003 0.000000 30391.dat
1 71 -230.000400 -38.000020 -38.000010 0.000000 0.000000 1.000000 0.000000 -1.000000 0.000000 1.000000 0.000000 0.000000 55982.dat
0 STEP
1 19 110.000000 -38.000020 41.999930 1.000000 0.000001 -0.000001 -0.000001 -0.000001 -1.000000 -0.000001 1.000000 -0.000001 3749.dat
1 19 110.000100 -38.000020 -38.000050 1.000000 0.000001 -0.000001 -0.000001 -0.000001 -1.000000 -0.000001 1.000000 -0.000001 3749.dat
0 STEP
1 0 130.257200 -38.000020 42.000240 0.000001 0.000000 -1.000000 -1.000000 0.000000 -0.000001 0.000000 1.000000 0.000000 30391.dat
1 71 129.999900 -38.000020 41.999810 0.000000 0.000000 -1.000004 0.000000 1.000000 0.000000 1.000004 0.000000 0.000000 55982.dat
0 STEP
1 0 130.256900 -38.000020 -37.998890 0.000001 0.000000 -1.000000 -1.000000 0.000000 -0.000001 0.000000 1.000000 0.000000 30391.dat
1 71 130.000000 -38.000020 -38.000290 0.000000 0.000000 -1.000002 0.000000 1.000000 0.000000 1.000002 0.000000 0.000000 55982.dat
0 STEP
0 STEP
