0 FILE 单杠运动.io
0 Untitled Model
0 Name:  单杠运动
0 Author:  
0 CustomBrick
0 NumOfBricks:  91
1 15 20.000000 -13.999970 30.000000 0.000001 0.000001 -1.000000 -1.000000 0.000001 -0.000001 0.000001 1.000000 0.000001 64871.dat
1 0 40.000000 -14.000000 20.000000 0.000000 0.000000 -1.000000 0.000000 1.000000 0.000000 1.000000 0.000000 0.000000 2780.dat
1 0 0.000000 -14.000000 20.000000 0.000000 0.000000 -1.000000 0.000000 1.000000 0.000000 1.000000 0.000000 0.000000 2780.dat
0 STEP
1 1 20.000000 -24.000000 10.000000 1.000000 0.000000 0.000000 0.000000 1.000000 0.000000 0.000000 0.000000 1.000000 3701.dat
1 4 20.000000 -13.999990 10.000000 -0.000001 1.000000 -0.000001 0.000001 0.000001 1.000000 1.000000 0.000001 -0.000001 32054.dat
0 STEP
1 1 20.000000 -64.000000 10.000000 1.000000 0.000000 0.000000 0.000000 1.000000 0.000000 0.000000 0.000000 1.000000 3700.dat
1 1 20.000000 -32.000000 10.000000 1.000000 0.000000 0.000000 0.000000 1.000000 0.000000 0.000000 0.000000 1.000000 3023.dat
1 1 20.000000 -40.000000 10.000000 1.000000 0.000000 0.000000 0.000000 1.000000 0.000000 0.000000 0.000000 1.000000 3023.dat
0 STEP
1 1 20.000000 -72.000000 10.000000 1.000000 0.000000 0.000000 0.000000 1.000000 0.000000 0.000000 0.000000 1.000000 3023.dat
1 1 20.000000 -80.000000 10.000000 1.000000 0.000000 0.000000 0.000000 1.000000 0.000000 0.000000 0.000000 1.000000 3023.dat
1 0 20.000000 -54.000000 20.000000 0.000000 0.000000 -1.000000 0.000000 1.000000 0.000000 1.000000 0.000000 0.000000 2780.dat
0 STEP
1 1 20.000000 -104.000000 10.000000 1.000000 0.000000 0.000000 0.000000 1.000000 0.000000 0.000000 0.000000 1.000000 3700.dat
1 0 20.000000 -94.000000 20.000000 0.000000 0.000000 -1.000000 0.000000 1.000000 0.000000 1.000000 0.000000 0.000000 2780.dat
0 STEP
1 15 20.000110 -174.000000 30.000120 1.000000 -0.000001 0.000001 0.000001 0.000001 -1.000000 0.000001 1.000000 0.000001 64871.dat
1 19 20.000110 -273.999000 18.228000 0.000001 -0.999997 0.000002 0.000001 0.000001 0.999993 -1.000000 -0.000001 0.000001 3749.dat
0 STEP
1 16 80.000000 -36.000000 -110.000000 1.000000 0.000000 0.000000 0.000000 1.000000 0.000000 0.000000 0.000000 1.000000 submodel group 2
0 STEP
1 4 20.000000 -14.000010 -250.000000 0.000001 -1.000000 0.000001 0.000001 0.000001 1.000000 -1.000000 -0.000001 0.000001 32054.dat
1 0 20.000000 -14.000020 -120.000000 0.000000 0.000000 1.000000 0.000000 1.000000 0.000000 -1.000000 0.000000 0.000000 3708.dat
0 STEP
1 1 20.000000 -23.999960 -250.000100 1.000000 0.000000 0.000000 0.000000 1.000000 0.000000 0.000000 0.000000 1.000000 3701.dat
1 1 20.000000 -31.999960 -250.000100 1.000000 0.000000 0.000000 0.000000 1.000000 0.000000 0.000000 0.000000 1.000000 3023.dat
1 1 20.000000 -39.999960 -250.000100 1.000000 0.000000 0.000000 0.000000 1.000000 0.000000 0.000000 0.000000 1.000000 3023.dat
0 STEP
1 0 0.000000 -13.999960 -260.000100 0.000000 0.000000 -1.000000 0.000000 1.000000 0.000000 1.000000 0.000000 0.000000 2780.dat
1 0 40.000000 -13.999960 -260.000100 0.000000 0.000000 -1.000000 0.000000 1.000000 0.000000 1.000000 0.000000 0.000000 2780.dat
0 STEP
1 15 20.000000 -13.999970 -270.000100 0.000001 0.000001 -1.000000 -1.000000 0.000001 -0.000001 0.000001 1.000000 0.000001 64871.dat
0 STEP
1 1 20.000000 -63.999960 -250.000100 1.000000 0.000000 0.000000 0.000000 1.000000 0.000000 0.000000 0.000000 1.000000 3700.dat
1 0 20.000000 -53.999960 -260.000100 0.000000 0.000000 -1.000000 0.000000 1.000000 0.000000 1.000000 0.000000 0.000000 2780.dat
0 STEP
1 1 20.000000 -79.999950 -250.000100 1.000000 0.000000 0.000000 0.000000 1.000000 0.000000 0.000000 0.000000 1.000000 3023.dat
1 1 20.000000 -71.999960 -250.000100 1.000000 0.000000 0.000000 0.000000 1.000000 0.000000 0.000000 0.000000 1.000000 3023.dat
0 STEP
1 1 20.000000 -104.000000 -250.000100 1.000000 0.000000 0.000000 0.000000 1.000000 0.000000 0.000000 0.000000 1.000000 3700.dat
1 0 20.000000 -93.999950 -260.000000 0.000000 0.000000 -1.000000 0.000000 1.000000 0.000000 1.000000 0.000000 0.000000 2780.dat
0 STEP
1 15 19.999890 -174.000000 -270.000000 1.000000 -0.000001 0.000001 -0.000001 -0.000001 1.000000 -0.000001 -1.000000 -0.000001 64871.dat
0 STEP
1 16 20.000000 -240.000000 -310.000000 1.000000 0.000000 0.000000 0.000000 1.000000 0.000000 0.000000 0.000000 1.000000 submodel group 1
0 STEP
1 0 140.000000 -14.000020 -280.000100 0.000000 0.000000 -1.000000 0.000000 1.000000 0.000000 1.000000 0.000000 0.000000 2780.dat
1 0 160.000100 -13.999830 -280.000100 0.000000 0.000000 -1.000000 0.000000 1.000000 0.000000 1.000000 0.000000 0.000000 2780.dat
0 STEP
1 1 160.000000 -73.999820 -290.000100 -1.000000 0.000001 0.000001 0.000001 0.000001 1.000000 0.000001 1.000000 -0.000001 32140.dat
1 4 160.000000 -53.999880 -290.000100 0.000001 -1.000000 0.000001 0.000001 0.000001 1.000000 -1.000000 -0.000001 0.000001 32054.dat
1 19 160.000000 -73.999840 -300.000100 -0.000001 1.000000 -0.000001 0.000001 0.000001 1.000000 1.000000 0.000001 -0.000001 3749.dat
0 STEP
1 16 197.000000 -4.000000 -320.000000 1.000000 0.000000 0.000000 0.000000 1.000000 0.000000 0.000000 0.000000 1.000000 submodel group 9 copy copy copy
1 15 71.000000 -313.950000 -310.000000 0.000000 0.000000 1.000000 0.000000 1.000000 0.000000 -1.000000 0.000000 0.000000 dx0060.dat.dat
0 STEP
0 STEP
0 NOFILE
0 FILE SubModel Group 2
0 SubModel Group 2
0 Name:  SubModel Group 2
0 Author:  
0 CustomBrick
0 NumOfBricks:  30
1 1 9.724899 -71.752960 8.008639 0.999997 -0.000001 0.000000 0.000001 0.000001 0.999993 -0.000001 -1.000000 0.000001 32140.dat
1 0 29.724600 -11.753240 18.008820 0.000000 0.000001 -0.999997 0.000000 0.999993 0.000000 1.000000 0.000000 0.000000 2780.dat
1 0 9.724580 -11.753220 18.007110 0.000000 0.000001 -0.999997 0.000000 0.999993 0.000000 1.000000 0.000000 0.000000 2780.dat
1 15 9.725010 -11.753260 28.008820 0.000000 0.000001 -0.999997 -0.999993 0.000001 -0.000001 0.000001 1.000000 0.000001 32523.dat
0 STEP
1 0 9.724780 -51.753100 18.008640 0.000000 0.000001 -0.999997 0.000000 0.999993 0.000000 1.000000 0.000000 0.000000 2780.dat
1 19 9.724899 -71.752980 18.008700 0.000001 -0.999997 0.000002 0.000001 0.000001 0.999993 -1.000000 -0.000001 0.000001 3749.dat
0 STEP
1 15 9.724899 -111.752500 28.008640 -0.999997 0.000001 0.000000 -0.000001 -0.000001 0.999993 0.000001 1.000000 0.000001 32524.dat
0 STEP
1 19 9.724990 -91.752750 -41.991140 0.000001 0.000001 1.000000 0.000001 -1.000000 0.000001 1.000000 0.000001 -0.000001 3749.dat
1 19 9.724919 -91.752620 18.008640 0.000001 0.000001 1.000000 -0.000001 1.000000 -0.000001 -1.000000 -0.000001 0.000001 3749.dat
1 4 9.724870 -91.752870 -11.991180 0.000000 -1.000000 0.000000 1.000000 0.000000 0.000000 0.000000 0.000000 1.000000 32034.dat
0 STEP
1 19 9.724780 -171.752300 18.008640 0.000001 -0.999997 0.000002 0.000001 0.000001 0.999993 -1.000000 -0.000001 0.000001 3749.dat
1 19 9.724780 -171.752300 -41.991670 -0.000001 0.999997 -0.000001 0.000001 0.000001 0.999993 1.000000 0.000001 -0.000001 3749.dat
1 4 9.724780 -171.752300 -11.991670 0.000000 -0.999997 0.000000 0.999993 0.000000 0.000000 0.000000 0.000000 1.000000 32034.dat
0 STEP
1 15 19.724900 -191.752300 -11.991610 0.000000 -0.999997 0.000000 0.000000 0.000000 0.999993 -1.000000 0.000000 0.000000 32064a.dat
1 19 9.724780 -181.752300 -11.991670 0.000001 -0.999997 0.000001 -0.999993 -0.000001 0.000001 -0.000001 -0.000001 -1.000000 3749.dat
0 STEP
1 0 9.724899 -111.752500 -12.021820 0.000000 -0.664557 0.747233 0.000000 0.747229 0.664554 -1.000000 0.000000 0.000000 3707.dat
1 16 20.000000 0.000000 -40.000000 1.000000 0.000000 0.000000 0.000000 1.000000 0.000000 0.000000 0.000000 1.000000 submodel group 3
0 STEP
1 14 9.724780 -111.752500 43.238500 0.664557 0.747233 0.000000 -0.747229 0.664554 0.000000 0.000000 0.000000 1.000000 32123a.dat
1 14 9.724899 -111.752500 -67.021820 0.664557 0.747233 0.000000 -0.747229 0.664554 0.000000 0.000000 0.000000 1.000000 32123a.dat
0 STEP
1 1 9.725010 -111.752600 57.978610 0.664557 0.000000 -0.747233 -0.747229 0.000000 -0.664554 0.000000 1.000000 0.000000 6629.dat
0 STEP
1 4 -59.999210 -237.998900 97.978120 -0.083306 -0.996523 0.000000 0.996518 -0.083307 0.000000 0.000000 0.000000 1.000000 32034.dat
1 0 -60.000000 -237.999100 -12.021270 0.000000 -0.996521 -0.083306 0.000000 -0.083307 0.996518 -1.000000 0.000000 0.000000 3737.dat
0 STEP
1 1 9.724899 -111.752500 -82.021820 0.664557 0.000000 -0.747232 -0.747229 0.000000 -0.664554 0.000000 1.000000 0.000000 6629.dat
1 4 -60.000110 -238.000100 -122.019800 0.083307 0.996524 0.000000 -0.996524 0.083307 0.000000 0.000000 0.000000 1.000000 32034.dat
0 STEP
0 NOFILE
0 FILE SubModel Group 3
0 SubModel Group 3
0 Name:  SubModel Group 3
0 Author:  
0 CustomBrick
0 NumOfBricks:  7
1 15 -10.275100 -111.752500 -11.991670 -0.999997 0.000001 0.000000 -0.000001 -0.000001 0.999993 0.000001 1.000000 0.000001 32524.dat
1 0 -10.275220 -51.753100 -1.991670 0.000000 0.000001 -0.999997 0.000000 0.999993 0.000000 1.000000 0.000000 0.000000 2780.dat
1 19 -10.275100 -71.752960 -1.991610 -0.000001 0.999997 -0.000001 0.000001 0.000001 0.999993 1.000000 0.000001 -0.000001 3749.dat
0 STEP
1 1 -10.275100 -71.752960 8.008510 0.999997 -0.000001 -0.000001 0.000001 0.000001 0.999993 -0.000001 -1.000000 0.000001 32140.dat
1 0 -10.275220 -11.753320 -1.991490 0.000000 0.000001 -0.999997 0.000000 0.999993 0.000000 1.000000 0.000000 0.000000 2780.dat
1 0 9.724700 -11.753290 -1.991490 0.000000 0.000001 -0.999997 0.000000 0.999993 0.000000 1.000000 0.000000 0.000000 2780.dat
0 STEP
1 15 9.724589 -11.753280 -11.991490 0.000000 0.000001 -0.999997 -0.999993 0.000001 -0.000001 0.000001 1.000000 0.000001 32523.dat
0 STEP
0 NOFILE
0 FILE SubModel Group 1
0 SubModel Group 1
0 Name:  SubModel Group 1
0 Author:  
0 CustomBrick
0 NumOfBricks:  22
1 14 -25.140200 -74.000060 0.000090 0.000000 0.000000 1.000000 -1.000000 0.000000 0.000000 0.000000 -1.000000 0.000000 32123a.dat
1 14 24.909800 -73.999970 0.000090 0.000000 0.000000 1.000000 -1.000000 0.000000 0.000000 0.000000 -1.000000 0.000000 32123a.dat
1 0 -9.140200 -74.000060 0.000090 -1.000000 0.000000 0.000000 0.000000 1.000000 0.000000 0.000000 0.000000 -1.000000 3707.dat
1 71 0.069790 -74.000060 0.000090 0.000000 0.000000 1.000000 0.000000 1.000000 0.000000 -1.000000 0.000000 0.000000 4716.dat
0 STEP
1 71 -60.140200 -74.000060 0.000090 0.000001 0.000000 -1.000000 0.000000 1.000000 0.000000 1.000000 0.000000 0.000001 3713.dat
1 4 -40.000220 -74.000060 0.000090 0.000000 0.000000 1.000000 0.000000 -1.000000 0.000000 1.000000 0.000000 0.000000 42003.dat
0 STEP
1 0 49.999800 -94.000060 0.000030 -1.000000 0.000000 0.000000 0.000000 1.000000 0.000000 0.000000 0.000000 -1.000000 2780.dat
1 4 39.999800 -73.999970 0.000030 0.000000 0.000000 1.000000 0.000000 -1.000000 0.000000 1.000000 0.000000 0.000000 42003.dat
0 STEP
1 14 39.999800 -54.000060 15.000090 0.000000 -1.000000 0.000000 1.000000 0.000000 0.000000 0.000000 0.000000 1.000000 32123a.dat
1 14 -40.000220 -54.000060 15.000030 0.000000 -1.000000 0.000000 1.000000 0.000000 0.000000 0.000000 0.000000 1.000000 32123a.dat
1 71 -40.000220 -54.000060 0.000090 0.000000 -1.000000 0.000000 0.000000 0.000000 1.000000 -1.000000 0.000000 0.000000 4519.dat
1 71 39.999800 -54.000060 0.000090 0.000000 -1.000000 0.000000 0.000000 0.000000 1.000000 -1.000000 0.000000 0.000000 4519.dat
0 STEP
1 72 -0.000200 -54.000060 25.000090 1.000000 0.000000 0.000000 0.000000 0.000000 1.000000 0.000000 -1.000000 0.000000 99773.dat
0 STEP
1 0 -0.000110 -14.000090 30.000090 0.000000 1.000000 0.000000 0.000000 0.000000 1.000000 1.000000 0.000000 0.000000 2780.dat
1 0 -0.000200 -53.999970 30.000090 0.000000 1.000000 0.000000 0.000000 0.000000 1.000000 1.000000 0.000000 0.000000 2780.dat
0 STEP
1 14 -0.000110 -34.000060 14.980200 -0.996523 -0.083307 0.000000 -0.083308 0.996523 0.000000 0.000000 0.000000 -1.000000 32123a.dat
1 71 -0.000110 -34.000060 17.980200 0.000000 -0.996523 -0.083307 0.000000 -0.083307 0.996523 -1.000000 0.000000 0.000000 32073.dat
0 STEP
1 72 -0.000110 -34.000060 -0.179780 -0.083307 0.996523 0.000000 0.996523 0.083307 0.000000 0.000000 0.000000 -1.000000 3648b.dat
0 STEP
1 14 -40.000220 -54.000060 -15.129910 0.000000 1.000000 0.000000 -1.000000 0.000000 0.000000 0.000000 0.000000 1.000000 32123a.dat
1 14 -0.000110 -34.000060 -15.209810 0.083307 -0.996524 0.000000 -0.996524 -0.083307 0.000000 0.000000 0.000000 -1.000000 32123a.dat
1 14 39.999800 -53.999970 -15.429780 0.000000 1.000000 0.000000 -1.000000 0.000000 0.000000 0.000000 0.000000 1.000000 32123a.dat
0 STEP
1 72 -0.000200 -54.000060 -24.999970 1.000000 0.000000 0.000000 0.000000 0.000000 1.000000 0.000000 -1.000000 0.000000 99773.dat
0 STEP
0 NOFILE
0 FILE SubModel Group 9 Copy Copy Copy
0 SubModel Group 9 Copy Copy Copy
0 Name:  SubModel Group 9 Copy Copy Copy
0 Author:  
0 CustomBrick
0 NumOfBricks:  3
1 72 10.000000 -1.128810 -10.000000 1.000000 0.000000 0.000000 0.000000 0.000000 -1.000000 0.000000 1.000000 0.000000 dch003.dat
1 71 -27.466620 -79.717990 29.427020 1.000000 0.000000 0.000000 0.000000 0.000000 -1.000000 0.000000 1.000000 0.000000 dch004.dat
1 25 7.837010 13.484720 -9.965000 1.000000 0.000000 0.000000 0.000000 0.000000 -1.000000 0.000000 1.000000 0.000000 dch005.dat
0 NOFILE
