0 Untitled Model
0 Name:  齿轮传递
0 Author:  
0 CustomBrick
0 NumOfBricks:  22
1 1 -110.000100 -40.000060 -3.999830 0.000000 0.000000 1.000000 -1.000000 0.000000 0.000000 0.000000 -1.000000 0.000000 3709b.dat
1 1 -10.000070 -70.000000 20.000070 1.000000 0.000000 0.000000 0.000000 0.000000 1.000000 0.000000 -1.000000 0.000000 3895.dat
1 1 -10.000010 -10.000000 20.000000 1.000000 0.000000 0.000000 0.000000 0.000000 1.000000 0.000000 -1.000000 0.000000 3895.dat
0 STEP
1 0 -30.000080 -60.000100 10.000090 0.000000 1.000000 0.000000 -0.999999 0.000000 0.000000 0.000000 0.000000 1.000000 3706.dat
1 14 -30.000080 -25.000060 10.000090 1.000000 0.000000 0.000000 0.000000 0.000000 0.999999 0.000000 -0.999999 0.000000 32123a.dat
0 STEP
1 0 89.999980 -120.000400 9.999750 0.000000 0.000000 1.000000 -1.000000 0.000000 0.000000 0.000000 -1.000000 0.000000 3708.dat
1 14 89.999900 -24.280130 9.999969 1.000000 0.000000 0.000000 0.000000 0.000000 -0.999999 0.000000 0.999999 0.000000 32123a.dat
0 STEP
1 1 99.999840 -40.000060 -3.999830 0.000000 0.000000 -1.000000 1.000000 0.000000 0.000000 0.000000 -1.000000 0.000000 3710.dat
0 STEP
1 1 -110.000000 -40.000040 27.999620 0.000000 0.000000 1.000000 -0.999999 0.000000 0.000000 0.000000 -0.999999 0.000000 3709b.dat
1 1 99.999840 -40.000060 28.000070 0.000000 0.000000 -1.000000 1.000000 0.000000 0.000000 0.000000 -1.000000 0.000000 3710.dat
0 STEP
1 19 50.000520 -80.000000 9.999240 -0.000001 0.780430 0.625243 -1.000001 -0.000002 0.000000 0.000001 -0.625243 0.780429 3749.dat
0 STEP
1 72 89.999900 -88.090090 10.000030 0.000000 -1.000000 0.000000 0.000000 0.000000 1.000000 -1.000000 0.000000 0.000000 3647.dat
1 72 50.000580 -90.000030 9.999180 0.780429 -0.625245 0.000001 0.000000 0.000001 1.000000 -0.625244 -0.780429 0.000000 3648b.dat
1 71 -30.000080 -90.790030 10.000090 1.000000 0.000000 0.000000 0.000000 0.000000 1.000000 0.000000 -1.000000 0.000000 3649.dat
0 STEP
1 71 -30.000080 -110.000000 10.000160 0.000001 -0.000001 -1.000000 0.000001 -1.000000 0.000001 -1.000000 -0.000001 -0.000001 33299.dat
0 STEP
1 4 -70.000270 -140.000000 10.000090 0.000000 1.000000 0.000000 1.000000 0.000000 0.000000 0.000000 0.000000 -1.000000 62462.dat
0 STEP
1 0 89.999820 -250.000000 10.000090 0.000002 -1.000000 -0.000002 0.000002 0.000002 -1.000000 1.000000 0.000002 0.000002 32013.dat
0 STEP
1 0 89.999710 -250.000100 9.970059 0.000000 0.000000 1.000000 0.000000 1.000000 0.000000 -1.000000 0.000000 0.000000 3705.dat
0 STEP
1 14 89.999710 -250.000100 -5.029900 1.000000 0.000000 0.000000 0.000000 -1.000000 0.000000 0.000000 0.000000 -1.000000 32123a.dat
1 14 89.999710 -250.000100 25.339980 1.000000 0.000000 0.000000 0.000000 -1.000000 0.000000 0.000000 0.000000 -1.000000 32123a.dat
0 STEP
1 71 89.999710 -250.000100 -19.779910 0.000000 -1.000000 0.000000 -1.000000 0.000000 0.000000 0.000000 0.000000 -1.000000 3649.dat
1 71 89.999710 -250.000100 39.969980 1.000000 0.000000 0.000000 0.000000 1.000000 0.000000 0.000000 0.000000 1.000000 3649.dat
0 STEP
0 STEP
