0 FILE 直升飞机_Copy.io
0 Untitled Model
0 Name:  直升飞机_Copy
0 Author:  
0 CustomBrick
1 16 27.469130 -157.590300 -8.731259 1.000000 0.000000 0.000000 0.000000 0.000000 1.000000 0.000000 -1.000000 0.000000 submodel group 2 copy
0 STEP
1 4 190.000200 -109.001100 30.406820 1.000009 0.000000 0.000001 0.000000 -1.000006 0.000000 0.000002 0.000000 -1.000015 42003.dat
1 0 190.000100 -109.001100 30.916720 0.000001 0.000000 -1.000009 0.000000 -1.000006 0.000000 -1.000015 0.000000 -0.000002 3705.dat
0 STEP
1 14 190.000300 -109.001100 -4.084130 0.000000 -1.000009 0.000001 -1.000006 0.000000 0.000000 0.000000 -0.000002 -1.000015 32123a.dat
1 14 190.000200 -109.001000 65.818060 0.000000 -1.000009 0.000001 -1.000006 0.000000 0.000000 0.000000 -0.000002 -1.000015 32123a.dat
0 STEP
1 1 190.002000 -129.001200 1.268130 -0.000001 0.000000 -1.000000 0.000000 1.000006 0.000000 1.000006 0.000000 -0.000002 32556.dat
1 1 190.002500 -129.001200 62.269020 0.000001 0.000000 1.000004 0.000000 1.000006 0.000000 -1.000010 0.000000 0.000002 32556.dat
0 STEP
1 4 -9.997200 -109.001000 32.267600 1.000003 0.000000 0.000001 0.000000 -1.000006 0.000000 0.000002 0.000000 -1.000009 42003.dat
1 1 -9.995399 -129.001200 62.268600 0.000001 0.000000 1.000004 0.000000 1.000006 0.000000 -1.000010 0.000000 0.000002 32556.dat
0 STEP
1 1 -9.995620 -129.001200 1.267580 -0.000001 0.000000 -1.000000 0.000000 1.000006 0.000000 1.000006 0.000000 -0.000002 32556.dat
0 STEP
1 16 70.000000 -96.000000 80.000000 1.000000 0.000000 0.000000 0.000000 1.000000 0.000000 0.000000 0.000000 1.000000 submodel group 16
0 STEP
1 16 -50.000000 -120.000000 30.000000 1.000000 0.000000 0.000000 0.000000 1.000000 0.000000 0.000000 0.000000 1.000000 submodel group 15
0 STEP
1 16 70.000000 -96.000000 -20.000000 1.000000 0.000000 0.000000 0.000000 1.000000 0.000000 0.000000 0.000000 1.000000 submodel group 14
0 STEP
1 16 -80.000000 -84.000000 30.000000 1.000000 0.000000 0.000000 0.000000 1.000000 0.000000 0.000000 0.000000 1.000000 submodel group 13
0 STEP
1 1 -70.001040 -147.001100 31.268120 -0.000001 0.000000 -1.000003 0.000000 1.000006 0.000000 1.000009 0.000000 -0.000002 32001.dat
0 STEP
1 16 -40.000000 -60.000000 30.000000 1.000000 0.000000 0.000000 0.000000 1.000000 0.000000 0.000000 0.000000 1.000000 submodel group 12
0 STEP
1 0 130.001200 -129.001000 92.268890 0.000000 0.000000 -1.000000 0.000000 1.000006 0.000000 1.000006 -0.000001 0.000000 2780.dat
1 0 110.001200 -129.001000 92.269000 0.000000 0.000000 -1.000000 0.000000 1.000006 0.000000 1.000006 -0.000001 0.000000 2780.dat
1 0 50.000760 -129.001000 92.268760 0.000000 0.000000 -1.000000 0.000000 1.000006 0.000000 1.000006 -0.000001 0.000000 2780.dat
0 STEP
1 1 -50.001040 -129.001100 102.268500 0.000000 0.000000 1.000000 -1.000006 0.000000 0.000000 0.000001 -1.000006 0.000000 6629.dat
0 STEP
1 0 130.001500 -129.001200 -28.732020 0.000000 0.000000 -1.000000 0.000000 1.000006 0.000000 1.000006 -0.000001 0.000000 2780.dat
1 0 110.001500 -129.001200 -28.732030 0.000000 0.000000 -1.000000 0.000000 1.000006 0.000000 1.000006 -0.000001 0.000000 2780.dat
1 0 50.000980 -129.001200 -28.732110 0.000000 0.000000 -1.000000 0.000000 1.000006 0.000000 1.000006 -0.000001 0.000000 2780.dat
0 STEP
1 1 -50.001110 -129.001000 -38.903930 0.000000 0.000000 1.000000 -1.000006 0.000000 0.000000 0.000001 -1.000006 0.000000 6629.dat
0 STEP
1 15 30.001580 -187.001400 -18.732880 1.000003 0.000000 -0.000001 0.000000 1.000006 0.000000 0.000002 0.000000 1.000009 32064a.dat
1 15 30.001320 -187.001500 82.269600 1.000003 0.000000 -0.000001 0.000000 1.000006 0.000000 0.000002 0.000000 1.000009 32064a.dat
0 STEP
1 16 30.000000 -192.000000 30.000000 1.000000 0.000000 0.000000 0.000000 1.000000 0.000000 0.000000 0.000000 1.000000 submodel group 11
0 STEP
1 1 -69.999160 -209.001500 101.268300 0.000000 0.000000 -1.000000 1.000006 0.000000 0.000000 -0.000001 -1.000006 0.000000 32009.dat
0 STEP
1 19 -29.999280 -209.001500 91.268390 0.000001 -1.000000 0.000001 0.000001 0.000001 1.000006 -1.000006 -0.000001 0.000000 3749.dat
1 19 -69.999170 -169.001100 91.268340 0.000001 -1.000000 0.000001 0.000001 0.000001 1.000006 -1.000006 -0.000001 0.000000 3749.dat
0 STEP
1 16 -70.000000 -156.000000 20.000000 1.000000 0.000000 0.000000 0.000000 1.000000 0.000000 0.000000 0.000000 1.000000 submodel group 10
1 16 -30.000000 -204.000000 20.000000 1.000000 0.000000 0.000000 0.000000 1.000000 0.000000 0.000000 0.000000 1.000000 submodel group 9
0 STEP
1 1 -69.999320 -209.001500 -38.732940 0.000000 0.000000 -1.000000 1.000006 0.000000 0.000000 -0.000001 -1.000006 0.000000 32009.dat
0 STEP
1 16 130.000000 0.000000 -30.000000 1.000000 0.000000 0.000000 0.000000 1.000000 0.000000 0.000000 0.000000 1.000000 submodel group 8
0 STEP
1 16 130.000000 0.000000 90.000000 1.000000 0.000000 0.000000 0.000000 1.000000 0.000000 0.000000 0.000000 1.000000 submodel group 7
0 STEP
1 16 420.000000 -144.000000 30.000000 1.000000 0.000000 0.000000 0.000000 1.000000 0.000000 0.000000 0.000000 1.000000 submodel group 6
0 STEP
1 16 170.000000 -12.000000 30.000000 1.000000 0.000000 0.000000 0.000000 1.000000 0.000000 0.000000 0.000000 1.000000 submodel group 5
0 STEP
1 16 170.000000 -108.000000 90.000000 1.000000 0.000000 0.000000 0.000000 1.000000 0.000000 0.000000 0.000000 1.000000 submodel group 4
0 STEP
1 16 170.000000 -108.000000 -30.000000 1.000000 0.000000 0.000000 0.000000 1.000000 0.000000 0.000000 0.000000 1.000000 submodel group 3
0 STEP
1 16 110.000000 -216.000000 30.000000 1.000000 0.000000 0.000000 0.000000 1.000000 0.000000 0.000000 0.000000 1.000000 submodel group 2
0 STEP
1 16 130.000000 -276.000000 30.000000 0.904085 0.000000 -0.427354 0.000000 1.000000 0.000000 0.427354 0.000000 0.904085 submodel group 1
0 STEP
0 NOFILE
0 FILE SubModel Group 2 Copy
0 SubModel Group 2 Copy
0 Name:  SubModel Group 2 Copy
0 Author:  
0 CustomBrick
1 72 10.000000 -39.427000 -20.000000 1.000000 0.000000 0.000000 0.000000 1.000000 0.000000 0.000000 0.000000 1.000000 dch003.dat
1 71 -27.466620 0.000000 58.589180 1.000000 0.000000 0.000000 0.000000 1.000000 0.000000 0.000000 0.000000 1.000000 dch004.dat
1 25 7.837000 -39.392000 -34.613530 1.000000 0.000000 0.000000 0.000000 1.000000 0.000000 0.000000 0.000000 1.000000 dch005.dat
0 NOFILE
0 FILE SubModel Group 16
0 SubModel Group 16
0 Name:  SubModel Group 16
0 Author:  
0 CustomBrick
0 NumOfBricks:  5
1 1 20.002190 -19.001100 2.269600 1.000003 0.000000 -0.000001 0.000000 1.000006 0.000000 0.000002 0.000000 1.000009 3701.dat
0 STEP
1 1 0.001360 -43.001200 2.268710 1.000003 0.000000 -0.000001 0.000000 1.000006 0.000000 0.000002 0.000000 1.000009 3703.dat
0 STEP
1 19 -140.000800 -33.001010 12.268550 -0.000001 1.000000 -0.000001 0.000001 0.000001 1.000006 1.000006 0.000001 -0.000002 3749.dat
0 STEP
1 1 100.001400 -51.001100 2.269320 1.000003 0.000000 0.000001 0.000000 1.000006 0.000000 0.000000 -0.000001 1.000009 3710.dat
1 1 0.002330 -67.001400 2.269540 1.000003 0.000000 -0.000001 0.000000 1.000006 0.000000 0.000002 0.000000 1.000009 3894.dat
0 STEP
0 NOFILE
0 FILE SubModel Group 15
0 SubModel Group 15
0 Name:  SubModel Group 15
0 Author:  
0 CustomBrick
0 NumOfBricks:  5
1 0 -0.000860 -9.001100 -37.733280 0.000001 0.000000 1.000007 0.000000 1.000006 0.000000 -1.000013 0.000000 0.000002 3705.dat
1 71 -0.000960 -9.001100 -27.733010 1.000007 0.000000 0.000000 0.000000 1.000006 0.000000 0.000001 0.000000 1.000013 3713.dat
0 STEP
1 71 -0.001120 -9.004000 2.264520 1.000003 0.000000 0.000000 0.000000 1.000006 0.000000 0.000001 0.000000 1.000009 59443.dat
0 STEP
1 0 -0.000980 -9.001100 42.267680 0.000001 0.000000 1.000007 0.000000 1.000006 0.000000 -1.000013 0.000000 0.000002 3705.dat
1 71 -0.001000 -9.001100 32.267520 1.000007 0.000000 0.000000 0.000000 1.000006 0.000000 0.000001 0.000000 1.000013 3713.dat
0 STEP
0 NOFILE
0 FILE SubModel Group 14
0 SubModel Group 14
0 Name:  SubModel Group 14
0 Author:  
0 CustomBrick
0 NumOfBricks:  5
1 1 20.001800 -19.001100 1.267050 -1.000000 0.000000 0.000001 0.000000 1.000006 0.000000 -0.000002 0.000000 -1.000006 3701.dat
0 STEP
1 1 0.000980 -43.001300 1.267870 -1.000000 0.000000 0.000001 0.000000 1.000006 0.000000 -0.000002 0.000000 -1.000006 3703.dat
1 19 -140.000600 -33.001100 -8.732340 0.000000 1.000000 -0.000001 -0.000001 -0.000001 -1.000006 -1.000006 0.000000 0.000002 3749.dat
0 STEP
1 1 100.001600 -51.001200 2.268100 1.000002 0.000000 0.000001 0.000000 1.000006 0.000000 0.000000 -0.000001 1.000008 3710.dat
1 1 0.001960 -67.001400 1.267100 -1.000000 0.000000 0.000001 0.000000 1.000006 0.000000 -0.000002 0.000000 -1.000006 3894.dat
0 STEP
0 NOFILE
0 FILE SubModel Group 13
0 SubModel Group 13
0 Name:  SubModel Group 13
0 Author:  
0 CustomBrick
0 NumOfBricks:  11
1 15 9.998960 -23.001000 1.268270 0.000001 0.000000 1.000003 0.000000 1.000006 0.000000 -1.000009 0.000000 0.000003 3001.dat
0 STEP
1 1 -0.001100 -31.001000 -38.732010 0.000001 0.000000 1.000003 0.000000 1.000006 0.000000 -1.000009 0.000000 0.000003 3023.dat
1 1 -0.001010 -31.001100 21.268710 0.000001 0.000000 1.000003 0.000000 1.000006 0.000000 -1.000009 0.000000 0.000003 3710.dat
0 STEP
1 15 -0.001700 -55.001300 -18.733140 0.000001 0.000000 1.000002 0.000000 1.000006 0.000000 -1.000008 0.000000 0.000003 32064a.dat
1 4 -0.275280 -45.001100 -18.730440 -1.000008 0.000000 0.000001 0.000000 1.000006 0.000000 -0.000002 0.000000 -1.000014 32062.dat
0 STEP
1 15 -0.000940 -55.001200 21.268860 0.000001 0.000000 1.000003 0.000000 1.000006 0.000000 -1.000009 0.000000 0.000003 32064a.dat
1 4 -0.270920 -45.001100 21.268850 -1.000003 0.000000 0.000001 0.000000 1.000006 0.000000 -0.000002 0.000000 -1.000009 32062.dat
0 STEP
1 14 15.009170 -45.001100 21.268980 0.000001 0.000000 -1.000003 0.000000 -1.000006 0.000000 -1.000009 0.000000 -0.000002 32123a.dat
1 14 15.004740 -45.001100 -18.730440 0.000001 0.000000 -1.000008 0.000000 -1.000006 0.000000 -1.000014 0.000000 -0.000002 32123a.dat
0 STEP
1 14 -15.471340 -45.001100 21.268120 0.000001 0.000000 -1.000003 0.000000 -1.000006 0.000000 -1.000008 0.000000 -0.000002 32123a.dat
1 14 -15.475120 -45.001100 -18.730560 0.000001 0.000000 -1.000008 0.000000 -1.000006 0.000000 -1.000014 0.000000 -0.000002 32123a.dat
0 STEP
0 NOFILE
0 FILE SubModel Group 12
0 SubModel Group 12
0 Name:  SubModel Group 12
0 Author:  
0 CustomBrick
0 NumOfBricks:  9
1 71 -10.001010 -9.000840 1.268280 -0.000001 -1.000003 0.000000 0.000000 0.000000 -1.000006 1.000009 0.000000 0.000001 4519.dat
1 71 -10.001010 -9.000840 1.268280 0.000000 -1.000003 0.000001 -1.000007 0.000000 -0.000001 0.000002 0.000000 -1.000009 3713.dat
0 STEP
1 4 -10.001000 -9.000880 21.268720 1.000003 0.000000 0.000001 0.000000 -1.000007 -0.000001 0.000001 0.000002 -1.000009 32039.dat
1 4 -10.000920 -9.000840 -18.731770 1.000003 0.000000 0.000000 0.000000 1.000007 0.000001 0.000000 -0.000002 1.000009 32039.dat
0 STEP
1 19 -0.000690 -9.000939 41.269240 -1.000003 0.000000 0.000001 -0.000001 -0.000001 -1.000007 0.000001 -1.000009 0.000002 3749.dat
1 19 -0.000640 -9.000850 -38.731910 -1.000003 0.000000 0.000001 -0.000001 -0.000001 -1.000007 0.000000 -1.000009 0.000002 3749.dat
0 STEP
1 15 9.999889 -9.000850 1.269800 -0.000001 -1.000003 -0.000002 1.000007 -0.000001 0.000001 -0.000002 -0.000001 1.000009 32316.dat
0 STEP
1 0 19.999520 -9.001010 21.268860 1.000003 0.000000 -0.000001 0.000000 1.000006 0.000000 0.000000 -0.000001 1.000009 2780.dat
1 0 19.999600 -9.001100 -18.731770 1.000003 0.000000 -0.000001 0.000000 1.000006 0.000000 0.000000 -0.000001 1.000009 2780.dat
0 STEP
0 NOFILE
0 FILE SubModel Group 11
0 SubModel Group 11
0 Name:  SubModel Group 11
0 Author:  
0 CustomBrick
0 NumOfBricks:  8
1 1 0.001500 -3.001500 1.267400 0.000000 0.000000 1.000000 0.000000 1.000006 0.000000 -1.000006 -0.000001 0.000000 3738.dat
1 15 0.001500 -27.001500 1.267430 0.000000 0.000000 1.000000 0.000000 1.000006 0.000000 -1.000006 -0.000001 0.000000 3001.dat
0 STEP
1 1 -0.001740 -27.001500 51.269700 1.000000 0.000000 0.000000 0.000000 1.000006 0.000000 0.000000 -0.000001 1.000006 3700.dat
1 0 0.001580 -17.001500 61.268220 0.000000 0.000000 -1.000000 0.000000 1.000006 0.000000 1.000006 -0.000001 0.000000 2780.dat
0 STEP
1 0 0.001580 -17.001500 -58.733640 0.000000 0.000000 -1.000000 0.000000 1.000006 0.000000 1.000006 -0.000001 0.000000 2780.dat
1 1 0.001580 -27.001590 -48.733740 1.000000 0.000000 0.000000 0.000000 1.000006 0.000000 0.000000 -0.000001 1.000006 3700.dat
0 STEP
1 1 10.001650 -35.001590 1.267430 0.000000 0.000000 1.000000 0.000000 1.000006 0.000000 -1.000006 -0.000001 0.000000 3023.dat
1 1 10.001650 -43.001590 1.267440 0.000000 0.000000 1.000000 0.000000 1.000006 0.000000 -1.000006 -0.000001 0.000000 3023.dat
0 STEP
0 NOFILE
0 FILE SubModel Group 10
0 SubModel Group 10
0 Name:  SubModel Group 10
0 Author:  
0 CustomBrick
0 NumOfBricks:  5
1 71 0.001020 -13.004090 51.268200 1.000000 0.000000 0.000001 0.000000 1.000006 0.000000 -0.000001 -0.000001 1.000006 59443.dat
0 STEP
1 0 0.000760 -13.001190 11.267640 0.000000 0.000000 1.000000 0.000000 1.000006 0.000000 -1.000006 -0.000001 0.000000 3705.dat
1 4 0.000760 -13.001190 11.267640 0.000000 0.000000 1.000000 0.000000 1.000006 0.000000 -1.000006 -0.000001 0.000000 62462.dat
0 STEP
1 19 0.000700 -13.001300 -48.732800 -0.000001 1.000000 -0.000001 0.000001 0.000001 1.000006 1.000007 0.000001 -0.000002 3749.dat
1 71 0.002720 -13.004090 -28.730450 0.999997 0.000000 0.000001 0.000000 1.000006 0.000000 -0.000001 -0.000001 1.000004 59443.dat
0 STEP
0 NOFILE
0 FILE SubModel Group 9
0 SubModel Group 9
0 Name:  SubModel Group 9
0 Author:  
0 CustomBrick
0 NumOfBricks:  5
1 71 0.000710 -5.004290 51.268240 1.000000 0.000000 0.000001 0.000000 1.000006 0.000000 -0.000001 -0.000001 1.000006 59443.dat
0 STEP
1 0 0.000760 -5.001500 11.267810 0.000000 0.000000 1.000000 0.000000 1.000006 0.000000 -1.000006 -0.000001 0.000000 3705.dat
1 4 0.000760 -5.001500 11.267810 0.000000 0.000000 1.000000 0.000000 1.000006 0.000000 -1.000006 -0.000001 0.000000 62462.dat
0 STEP
1 19 0.000690 -5.001500 -48.732740 -0.000001 1.000000 -0.000001 0.000001 0.000001 1.000006 1.000007 0.000001 -0.000002 3749.dat
1 71 0.001820 -5.004290 -28.731890 0.999998 0.000000 0.000001 0.000000 1.000006 0.000000 -0.000001 -0.000001 1.000005 59443.dat
0 STEP
0 NOFILE
0 FILE SubModel Group 8
0 SubModel Group 8
0 Name:  SubModel Group 8
0 Author:  
0 CustomBrick
0 NumOfBricks:  6
1 15 -20.000000 -9.000899 -10.000000 0.000001 0.000001 -1.000000 1.000000 -0.000002 0.000001 -0.000002 -1.000000 -0.000001 40490.dat
1 0 0.001400 -9.000770 -0.002250 0.000000 0.000000 -1.000000 0.000001 1.000006 0.000000 1.000006 -0.000001 0.000000 2780.dat
1 0 20.001010 -9.000710 -0.002250 0.000000 0.000000 -1.000000 0.000001 1.000006 0.000000 1.000006 -0.000001 0.000000 2780.dat
0 STEP
1 1 0.001400 -69.001330 9.997690 1.000000 -0.000001 -0.000001 0.000001 0.000000 1.000006 -0.000001 -1.000006 0.000000 32140.dat
1 4 0.001500 -69.001230 -0.002180 0.000000 0.000000 1.000000 -0.000001 1.000006 0.000000 -1.000006 -0.000001 0.000000 32062.dat
0 STEP
1 1 0.001400 -69.001230 -8.731930 -1.000000 0.000001 0.000001 -0.000001 -0.000002 -1.000006 -0.000001 -1.000007 0.000002 32140.dat
0 STEP
0 NOFILE
0 FILE SubModel Group 7
0 SubModel Group 7
0 Name:  SubModel Group 7
0 Author:  
0 CustomBrick
0 NumOfBricks:  6
1 15 -20.003400 -9.000100 11.259100 -0.000001 -0.000001 1.000000 1.000008 -0.000001 0.000001 0.000000 1.000006 0.000001 40490.dat
1 0 20.000900 -9.000100 1.258860 0.000000 0.000000 1.000000 0.000000 1.000008 0.000000 -1.000006 -0.000001 0.000000 2780.dat
1 0 0.001100 -9.000100 1.258860 0.000000 0.000000 1.000000 0.000000 1.000008 0.000000 -1.000006 -0.000001 0.000000 2780.dat
0 STEP
1 1 0.001690 -69.000880 -8.741460 1.000000 -0.000001 -0.000001 0.000001 0.000001 1.000006 -0.000001 -1.000006 0.000000 32140.dat
1 4 0.001210 -69.000810 1.258920 0.000000 0.000000 -1.000000 0.000000 1.000008 0.000000 1.000006 -0.000001 0.000000 32062.dat
0 STEP
1 1 0.001100 -69.000810 12.268900 -1.000000 0.000001 0.000001 -0.000001 -0.000001 -1.000008 -0.000001 -1.000007 0.000002 32140.dat
0 STEP
0 NOFILE
0 FILE SubModel Group 6
0 SubModel Group 6
0 Name:  SubModel Group 6
0 Author:  
0 CustomBrick
0 NumOfBricks:  24
1 1 110.003700 -17.000600 12.269300 -0.000001 0.000000 1.000003 0.000000 1.000006 0.000000 -1.000009 -0.000001 0.000000 32556.dat
1 1 70.003120 -17.001800 32.273850 0.000000 -0.000001 1.000002 -1.000006 0.000000 0.000000 0.000001 -1.000009 0.000000 6629.dat
0 STEP
1 15 -29.989680 -17.002000 12.268060 0.000001 0.000000 -1.000003 1.000006 -0.000001 0.000001 -0.000002 -1.000009 -0.000001 64871.dat
0 STEP
1 0 70.002900 -17.001690 2.269240 -0.000001 0.000000 1.000003 0.000000 1.000010 0.000000 -1.000013 -0.000001 0.000000 3705.dat
0 STEP
1 15 -29.997340 -17.000600 -7.730320 0.000001 0.000000 -1.000002 1.000002 -0.000001 0.000001 -0.000002 -1.000007 -0.000001 64871.dat
0 STEP
1 0 90.003600 -17.000600 -17.731290 0.000001 0.000000 -1.000002 0.000000 1.000006 0.000000 1.000008 -0.000001 0.000000 2780.dat
0 STEP
1 0 206.003700 -65.000800 2.269000 -0.000001 0.799995 0.600012 0.000000 0.600014 -0.799999 -1.000008 -0.000001 0.000001 3705.dat
1 14 206.003700 -65.000700 17.189280 0.600002 -0.800002 0.000000 -0.800006 -0.600004 -0.000002 0.000004 0.000001 -1.000009 32123a.dat
0 STEP
1 72 229.996500 -97.011100 -2.560880 0.600000 0.000001 -0.799993 -0.800007 0.000000 -0.600014 0.000001 1.000006 0.000001 99773.dat
1 72 230.004000 -96.999300 7.284590 0.599978 0.000001 -0.799993 -0.799993 0.000000 -0.600003 0.000001 0.999994 0.000001 99773.dat
0 STEP
1 14 206.003200 -65.002000 -12.669690 -0.800021 -0.599995 -0.000003 -0.600018 0.800023 -0.000002 0.000003 -0.000001 -1.000020 32123a.dat
1 19 198.002300 -121.002600 -7.560460 0.000001 -0.600000 0.800004 0.000000 0.800006 0.600003 -1.000007 -0.000002 0.000000 3749.dat
0 STEP
1 72 197.999500 -121.004700 -17.547620 0.599999 0.800001 0.000001 -0.799997 0.600006 0.000000 0.000002 -0.000001 0.999999 3648b.dat
0 STEP
1 1 70.003300 -17.000600 -27.731560 0.000000 -0.000001 1.000002 -1.000006 0.000000 0.000000 0.000001 -1.000008 0.000000 6629.dat
0 STEP
1 1 -169.997800 -17.000300 12.268940 -0.000001 0.000000 1.000003 0.000000 1.000006 0.000000 -1.000009 -0.000001 0.000000 32556.dat
0 STEP
1 0 -149.997300 -17.000200 22.269230 0.000001 0.000000 -1.000003 0.000000 1.000006 0.000000 1.000009 -0.000001 0.000000 2780.dat
1 0 -149.997900 -17.001300 -17.731230 0.000001 0.000000 -1.000002 0.000000 1.000006 0.000000 1.000008 -0.000001 0.000000 2780.dat
0 STEP
1 1 -169.997700 -27.000290 32.269230 1.000002 0.000000 0.000001 0.000000 1.000006 0.000000 0.000000 -0.000001 1.000008 3701.dat
1 1 -169.998400 -27.001300 -27.731410 1.000003 0.000000 0.000001 0.000000 1.000006 0.000000 0.000000 -0.000001 1.000009 3701.dat
0 STEP
1 1 -189.998200 -3.001210 2.268970 0.000001 0.000000 -1.000002 0.000000 1.000006 0.000000 1.000008 -0.000001 0.000000 32001.dat
0 STEP
1 1 -209.998400 -27.001300 -47.731860 1.000002 0.000000 0.000001 0.000000 1.000006 0.000000 0.000000 -0.000001 1.000008 3702.dat
1 1 -209.998500 -27.001190 52.269500 1.000003 0.000000 0.000001 0.000000 1.000006 0.000000 0.000000 -0.000001 1.000009 3702.dat
0 STEP
1 1 -149.997700 -35.001390 2.269140 -0.000001 0.000000 1.000002 0.000000 1.000006 0.000000 -1.000008 -0.000001 0.000000 32001.dat
1 1 -189.998200 -35.001390 2.269120 -0.000001 0.000000 1.000002 0.000000 1.000006 0.000000 -1.000008 -0.000001 0.000000 32001.dat
0 STEP
0 NOFILE
0 FILE SubModel Group 5
0 SubModel Group 5
0 Name:  SubModel Group 5
0 Author:  
0 CustomBrick
0 NumOfBricks:  3
1 4 0.001190 -197.001500 2.269240 -1.000007 0.000000 -0.000001 0.000000 1.000006 0.000000 0.000000 -0.000001 -1.000013 32062.dat
1 15 0.884900 -197.248600 2.077410 0.000000 0.000000 1.000005 -0.000001 1.000000 0.000000 -1.000005 -0.000001 0.000000 dx0016.dat
0 STEP
1 19 -9.993899 -197.623000 2.266740 -0.000001 0.000000 1.000002 0.000000 1.000006 0.000000 -1.000008 -0.000001 0.000000 18575.dat
0 STEP
0 NOFILE
0 FILE SubModel Group 4
0 SubModel Group 4
0 Name:  SubModel Group 4
0 Author:  
0 CustomBrick
0 NumOfBricks:  4
1 0 0.000700 -21.001010 2.269020 0.000000 0.000000 -1.000000 0.000000 1.000006 0.000000 1.000006 -0.000001 0.000000 2780.dat
1 0 0.007800 -101.002300 2.269100 -0.000001 0.000000 1.000009 0.000000 1.000014 0.000000 -1.000007 -0.000001 0.000000 2780.dat
1 1 10.000790 -61.001190 12.269100 0.000000 -1.000001 -0.000001 -1.000006 0.000000 0.000000 0.000001 0.000000 -1.000007 3894.dat
0 STEP
1 1 0.007600 -111.002400 -7.730940 -1.000009 0.000000 -0.000001 0.000000 1.000014 0.000000 0.000000 -0.000001 -1.000007 3700.dat
0 STEP
0 NOFILE
0 FILE SubModel Group 3
0 SubModel Group 3
0 Name:  SubModel Group 3
0 Author:  
0 CustomBrick
0 NumOfBricks:  4
1 0 0.000790 -21.001200 1.268220 0.000000 0.000000 -1.000000 0.000000 1.000006 0.000000 1.000006 -0.000001 0.000000 2780.dat
1 0 0.000700 -101.001600 1.268200 0.000001 0.000000 -1.000001 0.000000 1.000006 0.000000 1.000007 -0.000001 0.000000 2780.dat
1 1 9.999889 -61.001020 -8.731810 0.000000 -0.999998 -0.000001 -1.000003 0.000000 0.000000 0.000001 0.000000 -1.000007 3894.dat
0 STEP
1 1 0.000700 -111.001700 11.268280 -1.000001 0.000000 -0.000001 0.000000 1.000006 0.000000 0.000000 -0.000001 -1.000007 3700.dat
0 STEP
0 NOFILE
0 FILE SubModel Group 2
0 SubModel Group 2
0 Name:  SubModel Group 2
0 Author:  
0 CustomBrick
0 NumOfBricks:  21
1 1 20.000600 -3.001590 1.268240 0.000001 0.000000 -1.000001 0.000000 1.000006 0.000000 1.000007 -0.000001 0.000000 32001.dat
0 STEP
1 1 20.000500 -27.001910 51.267970 1.000001 0.000000 0.000001 0.000000 1.000006 0.000000 0.000000 -0.000001 1.000007 3895.dat
0 STEP
1 0 -19.999230 -17.001800 61.267890 0.000001 0.000000 -1.000001 0.000000 1.000006 0.000000 1.000007 -0.000001 0.000000 2780.dat
1 0 20.000500 -17.001800 61.267910 0.000001 0.000000 -1.000001 0.000000 1.000006 0.000000 1.000007 -0.000001 0.000000 2780.dat
0 STEP
1 15 0.000500 -17.001800 71.267800 0.000001 0.000000 -1.000001 1.000006 -0.000001 0.000001 -0.000002 -1.000007 -0.000001 32523.dat
0 STEP
1 15 -69.998320 -27.001910 31.267990 0.000000 0.000000 1.000000 0.000000 1.000006 0.000000 -1.000006 -0.000001 0.000000 3040b.dat
1 1 -69.998320 -35.001800 41.268080 0.000001 0.000000 -1.000001 0.000000 1.000006 0.000000 1.000007 -0.000001 0.000000 3023.dat
0 STEP
1 1 20.000600 -27.001910 -48.732100 1.000001 0.000000 0.000001 0.000000 1.000006 0.000000 0.000000 -0.000001 1.000007 3895.dat
0 STEP
1 15 -69.998280 -27.001910 -28.733060 0.000000 0.000000 1.000000 0.000000 1.000006 0.000000 -1.000006 -0.000001 0.000000 3040b.dat
1 1 -69.999520 -35.001910 -38.732030 0.000001 0.000000 -1.000001 0.000000 1.000006 0.000000 1.000007 -0.000001 0.000000 3023.dat
0 STEP
1 0 -19.999280 -17.001800 -58.732180 0.000001 0.000000 -1.000001 0.000000 1.000006 0.000000 1.000007 -0.000001 0.000000 2780.dat
1 0 20.000500 -17.001800 -58.731980 0.000001 0.000000 -1.000001 0.000000 1.000006 0.000000 1.000007 -0.000001 0.000000 2780.dat
0 STEP
1 15 0.000610 -17.001910 -68.732140 0.000001 0.000000 -1.000001 1.000006 -0.000001 0.000001 -0.000002 -1.000007 -0.000001 32523.dat
0 STEP
1 0 20.000600 -35.001910 1.268180 0.000000 -0.904086 -0.427357 1.000006 0.000000 0.000000 -0.000001 -0.427359 0.904090 3705.dat
1 71 20.000510 -18.731800 1.268270 0.427356 -0.904086 0.000000 -0.000001 0.000000 1.000006 -0.904089 -0.427359 -0.000002 3650c.dat
0 STEP
1 1 100.000700 -35.001910 1.268300 0.000001 0.000000 -1.000001 0.000001 1.000006 0.000000 1.000007 -0.000002 0.000000 32001.dat
1 1 60.001100 -35.001910 1.268180 0.000001 0.000000 -1.000001 0.000000 1.000006 0.000000 1.000007 -0.000001 0.000000 32001.dat
1 1 20.000600 -35.001910 1.268180 0.000001 0.000000 -1.000001 0.000000 1.000006 0.000000 1.000007 -0.000001 0.000000 32001.dat
0 STEP
1 15 40.000400 -43.001900 31.268080 1.000001 0.000000 0.000001 0.000000 1.000006 0.000000 0.000000 -0.000001 1.000007 2431.dat
1 15 40.006000 -43.001900 -28.723430 0.999990 0.000000 0.000001 0.000000 1.000006 0.000000 0.000000 -0.000001 0.999996 2431.dat
0 STEP
1 71 20.000700 -49.601900 1.268190 0.904086 -0.427357 0.000001 0.000001 0.000000 -1.000006 0.427359 0.904089 0.000001 3650c.dat
0 STEP
0 NOFILE
0 FILE SubModel Group 1
0 SubModel Group 1
0 Name:  SubModel Group 1
0 Author:  
0 CustomBrick
0 NumOfBricks:  10
1 71 0.542500 -21.592160 1.149100 -1.000004 0.000000 -0.000001 0.000001 0.000000 -1.000006 -0.000004 -1.000006 0.000000 59443.dat
1 4 0.542230 -41.592130 1.149440 0.000001 0.000000 1.000002 -1.000020 0.000000 0.000000 0.000001 -1.000011 0.000004 32062.dat
0 STEP
1 71 0.542810 -51.592080 1.149520 0.000000 1.000001 0.000000 -0.000001 0.000000 1.000006 1.000007 0.000004 0.000000 3649.dat
0 STEP
1 0 10.541500 -61.592190 -8.850200 -0.000001 0.000000 -1.000001 1.000006 0.000001 0.000000 0.000000 -1.000007 -0.000005 2780.dat
1 0 -9.458449 -61.592200 11.149920 -0.000001 0.000000 -1.000001 1.000006 0.000001 0.000000 0.000000 -1.000007 -0.000005 2780.dat
0 STEP
1 1 -9.458500 -71.592250 -8.850309 0.000000 0.000000 -1.000002 -1.000006 -0.000001 0.000000 0.000000 1.000007 -0.000004 32556.dat
1 1 10.541520 -71.592250 11.149890 0.000000 0.000000 -1.000001 -1.000006 -0.000001 0.000000 0.000000 1.000007 -0.000005 32556.dat
0 STEP
1 15 -129.458400 -71.592120 -8.850580 0.000001 0.000000 -1.000001 0.000000 1.000006 0.000001 1.000008 -0.000001 -0.000004 64871.dat
1 15 130.541900 -71.592460 11.150460 0.000001 0.000000 -1.000001 0.000000 1.000006 0.000001 1.000008 -0.000001 -0.000004 64871.dat
0 STEP
1 72 0.541620 -91.592380 1.149570 0.000000 1.000002 0.000000 -0.000001 0.000000 1.000006 1.000007 0.000004 0.000000 3648b.dat
0 STEP
0 NOFILE
