0 FILE 摇头电扇.io
0 Untitled Model
0 Name:  摇头电扇
0 Author:  
0 CustomBrick
0 NumOfBricks:  61
1 1 -80.000000 -32.000000 90.000110 1.000000 0.000000 0.000000 0.000000 1.000000 0.000000 0.000000 0.000000 1.000000 3702.dat
1 1 -80.000000 -8.000000 100.000100 1.000000 0.000000 0.000000 0.000000 1.000000 0.000000 0.000000 0.000000 1.000000 3738.dat
0 STEP
1 1 -19.999180 -22.000000 70.001400 0.000000 0.000000 1.000000 0.000000 1.000000 0.000000 -1.000000 0.000000 0.000000 6558.dat
1 1 -40.000000 -22.000000 70.000110 0.000000 0.000000 1.000004 0.000000 1.000000 0.000000 -1.000004 0.000000 0.000000 6558.dat
1 4 -40.000000 -22.000000 70.000060 0.000000 1.000000 0.000000 -1.000000 0.000000 0.000000 0.000000 0.000000 1.000000 42003.dat
0 STEP
1 1 -80.000000 -32.000000 50.000000 1.000000 0.000000 0.000000 0.000000 1.000000 0.000000 0.000000 0.000000 1.000000 3702.dat
1 1 -80.000000 -8.000000 40.000000 1.000000 0.000000 0.000000 0.000000 1.000000 0.000000 0.000000 0.000000 1.000000 3738.dat
0 STEP
1 71 -60.000060 -123.540000 70.000000 1.000000 0.000000 0.000001 -0.000001 0.000000 1.000000 0.000000 -1.000000 0.000000 3713.dat
1 0 -60.000030 -92.000030 70.000060 0.000000 0.000000 1.000000 -1.000000 0.000000 0.000000 0.000000 -1.000000 0.000000 3707.dat
0 STEP
1 1 -100.000000 -149.270000 70.000060 1.000000 0.000000 0.000000 0.000000 1.000000 0.000000 0.000000 0.000000 1.000000 32001.dat
1 1 -99.999690 -141.270100 70.000180 1.000000 0.000000 0.000000 0.000000 1.000000 0.000000 0.000000 0.000000 1.000000 32001.dat
0 STEP
1 15 -119.999400 -162.269400 90.000240 1.000000 -0.000001 0.000001 0.000001 1.000000 0.000001 -0.000001 -0.000001 1.000000 32523.dat
1 19 -119.999700 -152.269800 70.000060 -0.000001 1.000000 -0.000001 1.000000 0.000001 -0.000001 -0.000001 -0.000001 -1.000000 3749.dat
0 STEP
1 71 -60.000060 -172.000000 70.002870 1.000000 0.000000 0.000001 -0.000001 0.000000 1.000000 0.000000 -1.000000 0.000000 59443.dat
0 STEP
1 1 -60.000030 -202.000100 90.000060 1.000000 -0.000001 -0.000001 -0.000001 -1.000000 0.000001 -0.000001 -0.000001 -1.000000 32140.dat
1 19 -60.000030 -192.000000 70.000060 -0.000001 1.000000 -0.000001 1.000000 0.000001 -0.000001 -0.000001 -0.000001 -1.000000 3749.dat
0 STEP
1 16 -120.000000 -156.000000 90.000000 1.000000 0.000000 0.000000 0.000000 1.000000 0.000000 0.000000 0.000000 1.000000 submodel group 1
0 STEP
1 1 -220.700000 -265.359600 46.232300 -1.000000 0.000000 0.000001 0.000001 0.342021 0.939692 0.000000 0.939692 -0.342021 32140.dat
0 STEP
1 71 -220.700000 -272.176100 27.504340 1.000000 0.000000 0.000000 0.000000 0.939692 0.342021 0.000000 -0.342021 0.939692 3713.dat
1 0 -220.700000 -212.398000 16.314330 0.000000 -1.000000 0.000000 0.342021 0.000000 -0.939691 0.939692 0.000000 0.342021 2780.dat
1 0 -220.700000 -231.192100 23.154540 0.000000 -1.000000 0.000000 0.342021 0.000000 -0.939692 0.939692 0.000000 0.342021 2780.dat
0 STEP
1 15 -220.700000 -197.024600 0.076840 1.000000 0.000000 0.000001 0.000001 0.342021 -0.939693 0.000000 0.939692 0.342021 32524.dat
0 STEP
1 1 -220.700000 -216.669500 180.007100 -1.000000 0.000000 0.000001 -0.000001 -0.342020 -0.939693 0.000000 -0.939693 0.342020 32140.dat
1 71 -220.700000 -209.918100 198.556600 1.000000 0.000000 0.000000 0.000000 0.939692 0.342021 0.000000 -0.342021 0.939692 3713.dat
0 STEP
1 0 -220.699700 -257.677500 184.291800 0.000000 -1.000000 0.000000 -0.342020 0.000000 0.939692 -0.939692 0.000000 -0.342021 2780.dat
1 0 -220.700000 -276.471300 191.131500 0.000000 -1.000000 0.000000 -0.342020 0.000000 0.939693 -0.939693 0.000000 -0.342021 2780.dat
0 STEP
1 15 -220.700000 -298.685400 188.575000 1.000000 0.000000 0.000001 0.000001 0.342020 -0.939693 0.000000 0.939693 0.342020 32524.dat
0 STEP
1 15 -49.000000 -242.254000 70.000000 0.000000 0.000000 1.000000 0.000000 1.000000 0.000000 -1.000000 0.000000 0.000000 xt0020.dat
1 16 97.000000 -200.000000 232.000000 -1.000000 0.000000 0.000000 0.000000 1.000000 0.000000 0.000000 0.000000 -1.000000 submodel group 9 copy copy copy
0 STEP
1 0 -20.000000 -80.000000 60.000000 0.000000 0.000000 1.000000 0.000000 1.000000 0.000000 -1.000000 0.000000 0.000000 73090b.dat
0 STEP
0 STEP
0 NOFILE
0 FILE SubModel Group 1
0 SubModel Group 1
0 Name:  SubModel Group 1
0 Author:  
0 CustomBrick
0 NumOfBricks:  30
1 0 -30.000030 -86.150100 -39.999940 -1.000000 0.000000 0.000000 0.000000 1.000000 0.000000 0.000000 0.000000 -1.000000 2780.dat
1 4 -20.000030 -86.150100 -19.999940 0.000000 0.000000 -1.000000 1.000000 0.000000 0.000000 0.000000 -1.000000 0.000000 42003.dat
0 STEP
1 14 -5.030000 -86.150100 -19.999940 0.000000 0.000000 1.000000 -1.000000 0.000000 0.000000 0.000000 -1.000000 0.000000 32123a.dat
1 0 10.000000 -86.150100 -19.999940 1.000000 0.000000 0.000000 0.000000 0.000000 1.000000 0.000000 -1.000000 0.000000 3707.dat
0 STEP
1 14 45.000000 -86.150100 -19.999940 0.000000 0.000000 1.000000 -1.000000 0.000000 0.000000 0.000000 -1.000000 0.000000 32123a.dat
1 71 20.140020 -86.150100 -19.999940 0.000000 0.000000 1.000000 0.000000 1.000000 0.000000 -1.000000 0.000000 0.000000 4716.dat
0 STEP
1 0 70.000000 -86.000080 -40.000000 -1.000000 0.000000 0.000000 0.000000 1.000000 0.000000 0.000000 0.000000 -1.000000 2780.dat
1 4 60.000000 -86.000060 -20.000000 0.000000 0.000000 -1.000000 1.000000 0.000000 0.000000 0.000000 -1.000000 0.000000 42003.dat
0 STEP
1 14 60.000000 -101.000100 0.000120 1.000000 0.000000 0.000000 0.000000 0.000000 -1.000000 0.000000 1.000000 0.000000 32123a.dat
1 0 60.000000 -76.000060 0.000060 0.000000 0.000000 1.000000 1.000000 0.000000 0.000000 0.000000 1.000000 0.000000 3705.dat
0 STEP
1 14 -20.000000 -101.110100 0.000060 1.000000 0.000000 0.000000 0.000000 0.000000 1.000000 0.000000 -1.000000 0.000000 32123a.dat
1 71 -20.000000 -86.150070 0.000060 0.000000 -1.000000 0.000000 1.000000 0.000000 0.000000 0.000000 0.000000 1.000000 4519.dat
0 STEP
1 72 20.000000 -110.960100 0.000060 1.000000 0.000000 0.000000 0.000000 1.000000 0.000000 0.000000 0.000000 1.000000 99773.dat
1 71 20.000180 -126.999900 19.999880 0.997185 -0.074977 0.000000 0.000000 0.000000 1.000000 -0.074977 -0.997185 0.000000 3713.dat
1 0 20.000150 -76.999940 19.999880 0.000000 -0.074977 0.997185 -1.000000 0.000000 0.000000 0.000000 -0.997185 -0.074977 3706.dat
0 STEP
1 14 20.000150 -100.679900 19.999940 0.997185 0.074977 0.000000 0.000000 0.000000 -1.000000 -0.074977 0.997185 0.000000 32123a.dat
1 72 20.000150 -86.309940 19.999940 0.997185 -0.074977 0.000000 0.000000 0.000000 1.000000 -0.074977 -0.997185 0.000000 3648b.dat
0 STEP
1 14 -20.000000 -71.150080 0.000060 1.000000 0.000000 0.000000 0.000000 0.000000 1.000000 0.000000 -1.000000 0.000000 32123a.dat
1 14 60.000000 -71.120060 0.000060 1.000000 0.000000 0.000000 0.000000 0.000000 -1.000000 0.000000 1.000000 0.000000 32123a.dat
1 14 20.000150 -71.999940 19.999880 0.997185 -0.074977 0.000000 0.000000 0.000000 1.000000 -0.074977 -0.997185 0.000000 32123a.dat
0 STEP
1 72 20.000000 -61.150070 0.000060 1.000000 0.000000 0.000000 0.000000 1.000000 0.000000 0.000000 0.000000 1.000000 99773.dat
0 STEP
1 14 20.000150 -31.999940 19.999940 0.997185 0.074977 0.000000 0.000000 0.000000 -1.000000 -0.074977 0.997185 0.000000 32123a.dat
1 71 20.000150 -46.999940 19.999880 0.997185 -0.074977 0.000001 -0.000001 0.000000 1.000000 -0.074977 -0.997185 0.000000 3713.dat
0 STEP
1 71 40.000430 -26.269350 20.003780 0.000001 -0.000001 -1.000000 -0.000001 1.000000 -0.000001 0.999990 0.000001 0.000000 33299.dat
0 STEP
1 15 -40.700010 -86.150100 0.000060 0.000001 1.000000 0.000001 -1.000000 0.000001 -0.000001 -0.000001 -0.000001 1.000000 32316.dat
1 72 -60.700020 -86.150150 20.000120 1.000000 0.000000 0.000000 0.000000 -0.939693 -0.342021 0.000000 0.342021 -0.939693 6587.dat
0 STEP
1 72 -60.000000 -86.150070 -19.999940 0.000000 0.000000 -1.000000 -1.000000 0.000000 0.000000 0.000000 1.000000 0.000000 3648b.dat
1 72 -60.700020 -86.150150 20.000060 0.000000 0.000000 -1.000000 -0.342021 -0.939692 0.000000 -0.939692 0.342021 0.000000 3647.dat
0 STEP
1 0 -100.700000 -85.394240 22.076720 0.000000 0.000000 1.000000 -0.342021 0.939692 0.000000 -0.939692 -0.342021 0.000000 3737.dat
1 4 -80.700020 -86.150130 20.000060 0.000000 -0.000001 1.000000 0.342021 -0.939693 -0.000001 0.939693 0.342021 0.000000 32039.dat
0 STEP
0 NOFILE
0 FILE SubModel Group 9 Copy Copy Copy
0 SubModel Group 9 Copy Copy Copy
0 Name:  SubModel Group 9 Copy Copy Copy
0 Author:  
0 CustomBrick
0 NumOfBricks:  3
1 72 10.000000 -1.128810 -10.000000 1.000000 0.000000 0.000000 0.000000 0.000000 -1.000000 0.000000 1.000000 0.000000 dch003.dat
1 71 -27.466620 -79.717990 29.427020 1.000000 0.000000 0.000000 0.000000 0.000000 -1.000000 0.000000 1.000000 0.000000 dch004.dat
1 25 7.837010 13.484720 -9.965000 1.000000 0.000000 0.000000 0.000000 0.000000 -1.000000 0.000000 1.000000 0.000000 dch005.dat
0 NOFILE
