0 Untitled Model
0 Name:  四边形
0 Author:  
0 CustomBrick
0 NumOfBricks:  8
1 15 89.999940 -10.000070 -9.999960 1.000000 -0.000001 0.000001 0.000001 1.000000 0.000001 -0.000001 -0.000001 1.000000 40490.dat
1 0 89.999820 -20.000140 -89.999980 0.000000 0.000000 -1.000000 1.000000 0.000000 0.000000 0.000000 -1.000000 0.000000 2780.dat
0 STEP
1 15 9.999860 -30.000070 -90.000060 -0.000001 -0.000001 1.000000 0.000001 1.000000 0.000001 -1.000000 0.000001 -0.000001 40490.dat
0 STEP
1 15 -70.000080 -10.000080 -9.999990 1.000000 -0.000001 0.000001 0.000001 1.000000 0.000001 -0.000001 -0.000001 1.000000 40490.dat
1 0 -70.000160 -20.000150 -89.999980 0.000000 0.000000 -1.000000 1.000000 0.000000 0.000000 0.000000 -1.000000 0.000000 2780.dat
0 STEP
1 0 -70.000000 -20.000000 70.000020 0.000000 0.000000 -1.000000 1.000000 0.000000 0.000000 0.000000 -1.000000 0.000000 2780.dat
1 0 89.999980 -19.999960 70.000000 0.000000 0.000000 -1.000000 1.000000 0.000000 0.000000 0.000000 -1.000000 0.000000 2780.dat
0 STEP
1 15 9.999980 -30.000040 70.000080 -0.000001 -0.000001 1.000000 0.000001 1.000000 0.000001 -1.000000 0.000001 -0.000001 40490.dat
0 STEP
0 STEP
