0 FILE 电动雨刮器.io
0 Untitled Model
0 Name:  电动雨刮器
0 Author:  
0 CustomBrick
0 NumOfBricks:  37
1 1 -60.000000 -24.000000 -130.000000 1.000000 0.000000 0.000000 0.000000 1.000000 0.000000 0.000000 0.000000 1.000000 3703.dat
1 1 -60.000000 -24.000000 -30.000000 1.000000 0.000000 0.000000 0.000000 1.000000 0.000000 0.000000 0.000000 1.000000 3703.dat
0 STEP
1 1 30.000000 -48.000000 -60.000000 0.000000 0.000000 1.000000 0.000000 1.000000 0.000000 -1.000000 0.000000 0.000000 3702.dat
1 1 -110.000000 -48.000000 -60.000120 0.000000 0.000000 -1.000000 0.000000 1.000000 0.000000 1.000000 0.000000 0.000000 3702.dat
0 STEP
1 15 -20.000000 -62.000000 -39.000000 1.000000 0.000000 0.000000 0.000000 1.000000 0.000000 0.000000 0.000000 1.000000 dx0056.dat.dat
1 16 -30.000000 -12.000000 -100.000000 1.000000 0.000000 0.000000 0.000000 1.000000 0.000000 0.000000 0.000000 1.000000 submodel group 2
0 STEP
1 16 -180.000000 0.000000 -160.000000 1.000000 0.000000 0.000000 0.000000 1.000000 0.000000 0.000000 0.000000 1.000000 submodel group 1
0 STEP
1 15 -69.993990 -92.837440 -191.000000 0.013957 0.000001 -0.999902 -0.999902 0.000001 -0.013957 0.000001 1.000000 0.000001 32524.dat
0 STEP
1 16 -220.000000 24.000000 202.000000 0.000001 0.000000 1.000000 0.000000 1.000000 0.000000 -1.000000 0.000000 0.000001 submodel group 9 copy copy copy
0 STEP
0 STEP
0 NOFILE
0 FILE SubModel Group 2
0 SubModel Group 2
0 Name:  SubModel Group 2
0 Author:  
0 CustomBrick
0 NumOfBricks:  15
1 1 -10.000000 -60.000000 -30.000120 1.000000 0.000000 0.000000 0.000000 1.000000 0.000000 0.000000 0.000000 1.000000 3702.dat
1 71 9.999100 -50.000000 -50.265620 1.000010 0.000000 0.000001 0.000000 1.000000 0.000000 -0.000001 0.000000 1.000010 3713.dat
1 0 10.000000 -50.000000 -41.000120 0.000000 0.000000 1.000000 0.000000 1.000000 0.000000 -1.000000 0.000000 0.000000 3705.dat
0 STEP
1 72 9.999209 -50.000000 -10.435490 0.000000 -1.000010 0.000000 1.000000 0.000000 0.000000 0.000000 0.000000 1.000010 3648b.dat
0 STEP
1 71 20.000000 -80.000000 -81.000000 0.000000 0.000000 -1.000000 0.000000 1.000000 0.000000 1.000000 0.000000 0.000000 3673.dat
1 71 10.000000 -50.000000 -71.000000 0.000000 -1.000000 0.000000 -1.000000 0.000000 0.000000 0.000000 0.000000 -1.000000 3649.dat
0 STEP
1 71 -30.000120 -50.000000 10.099920 0.000000 0.422618 0.906308 0.000000 0.906308 -0.422618 -1.000000 0.000000 0.000000 32073.dat
1 72 -30.000120 -50.000000 -9.900090 0.422618 -0.906308 0.000000 0.906308 0.422618 0.000000 0.000000 0.000000 1.000000 3647.dat
0 STEP
1 71 -30.000120 -50.000000 10.099920 0.906308 0.422618 0.000000 -0.422618 0.906308 0.000000 0.000000 0.000000 1.000000 3713.dat
1 72 -30.000120 -50.000000 30.629880 0.906308 0.422618 0.000000 -0.422618 0.906308 0.000000 0.000000 0.000000 1.000000 3648b.dat
0 STEP
1 1 -10.000000 -60.000000 50.000000 1.000000 0.000000 0.000000 0.000000 1.000000 0.000000 0.000000 0.000000 1.000000 3702.dat
1 71 10.000000 -50.000000 51.190000 0.000000 -1.000000 0.000000 0.000000 0.000000 1.000000 -1.000000 0.000000 0.000000 4519.dat
1 72 10.000000 -50.000000 30.789920 -1.000000 0.000000 0.000000 0.000000 1.000000 0.000000 0.000000 0.000000 -1.000000 3647.dat
0 STEP
1 0 30.000000 -50.000000 60.000000 0.000000 0.000000 -1.000000 0.000000 1.000000 0.000000 1.000000 0.000000 0.000000 2780.dat
1 0 -10.000000 -50.000000 60.000000 0.000000 0.000000 -1.000000 0.000000 1.000000 0.000000 1.000000 0.000000 0.000000 2780.dat
0 STEP
0 NOFILE
0 FILE SubModel Group 1
0 SubModel Group 1
0 Name:  SubModel Group 1
0 Author:  
0 CustomBrick
0 NumOfBricks:  13
1 15 -39.242310 -152.671300 9.999760 -0.990510 0.000001 -0.137445 0.137445 0.000001 -0.990509 -0.000001 -1.000000 -0.000002 64871.dat
1 71 -19.999910 -14.000000 20.000000 0.000000 0.000000 -1.000000 0.000000 1.000000 0.000000 1.000000 0.000000 0.000000 3673.dat
1 0 -58.484590 -291.342700 -0.001040 0.000000 0.000000 -1.000000 0.000000 1.000000 0.000000 1.000000 0.000000 0.000000 2780.dat
1 19 -50.237920 -231.912000 0.000000 0.000001 -0.991672 0.128795 0.000001 0.128795 0.991672 -1.000000 -0.000001 0.000001 3749.dat
0 STEP
1 1 -50.237920 -231.912000 -10.000000 -0.991672 0.000000 -0.128794 0.128794 0.000000 -0.991672 0.000000 -1.000000 0.000000 6629.dat
1 71 -30.995610 -93.240730 0.000000 0.000000 0.137444 -0.990510 0.000000 0.990510 0.137444 1.000000 0.000000 0.000000 3673.dat
0 STEP
1 15 10.011810 -93.674880 -11.000000 0.000001 0.000001 -1.000000 -1.000000 0.000001 -0.000001 0.000001 1.000000 0.000001 32316.dat
1 19 50.011810 -93.674850 -11.000000 0.000000 0.087154 0.996195 0.000000 0.996195 -0.087154 -1.000000 0.000000 0.000000 32556.dat
0 STEP
1 71 60.000000 -14.000000 20.000000 0.000000 0.000000 -1.000000 0.000000 1.000000 0.000000 1.000000 0.000000 0.000000 3673.dat
1 15 40.758390 -152.671200 9.999760 -0.990509 0.000001 -0.137439 0.137439 0.000001 -0.990509 -0.000001 -1.000000 -0.000001 64871.dat
0 STEP
1 0 21.309510 -291.313400 0.000000 0.000000 0.000000 -1.000000 0.000000 1.000000 0.000000 1.000000 0.000000 0.000000 2780.dat
1 19 29.763310 -231.911900 0.000000 0.000001 -0.990024 0.140898 0.000001 0.140898 0.990024 -1.000000 -0.000001 0.000001 3749.dat
0 STEP
1 1 29.763400 -231.911900 -10.000000 -0.990024 0.000000 -0.140897 0.140897 0.000000 -0.990024 0.000000 -1.000000 0.000000 6629.dat
0 STEP
0 NOFILE
0 FILE SubModel Group 9 Copy Copy Copy
0 SubModel Group 9 Copy Copy Copy
0 Name:  SubModel Group 9 Copy Copy Copy
0 Author:  
0 CustomBrick
0 NumOfBricks:  3
1 72 10.000000 -1.128810 -10.000000 1.000000 0.000000 0.000000 0.000000 0.000000 -1.000000 0.000000 1.000000 0.000000 dch003.dat
1 71 -27.466620 -79.717990 29.427020 1.000000 0.000000 0.000000 0.000000 0.000000 -1.000000 0.000000 1.000000 0.000000 dch004.dat
1 25 7.837010 13.484720 -9.965000 1.000000 0.000000 0.000000 0.000000 0.000000 -1.000000 0.000000 1.000000 0.000000 dch005.dat
0 NOFILE
