0 FILE 跳绳
0 Untitled Model
0 Name:  跳绳
0 Author:  
0 CustomBrick
0 NumOfBricks:  80
1 1 20.000240 -47.999060 -220.390300 0.999997 0.000000 0.000000 0.000000 0.999997 0.000000 0.000000 0.000000 1.000000 3894.dat
1 1 19.999880 -23.999070 -220.390300 1.000001 0.000000 0.000000 0.000000 1.000001 0.000000 0.000000 0.000000 1.000000 3702.dat
1 0 19.999880 -37.999110 -210.390300 0.000000 0.000000 -1.000001 0.000000 1.000001 0.000000 1.000000 0.000000 0.000000 2780.dat
0 STEP
1 1 19.999880 -63.999140 -220.390300 1.000001 0.000000 0.000000 0.000000 1.000001 0.000000 0.000000 0.000000 1.000000 3710.dat
1 1 19.999880 -55.999130 -220.390300 1.000001 0.000000 0.000000 0.000000 1.000001 0.000000 0.000000 0.000000 1.000000 3710.dat
0 STEP
1 1 19.999880 -87.999190 -220.390300 1.000001 0.000000 0.000000 0.000000 1.000001 0.000000 0.000000 0.000000 1.000000 3700.dat
1 0 19.999880 -77.999130 -210.390300 0.000000 0.000000 -1.000001 0.000000 1.000001 0.000000 1.000000 0.000000 0.000000 2780.dat
0 STEP
1 1 29.999720 -177.999100 -200.390300 0.000000 -1.000001 0.000000 -1.000001 0.000000 0.000000 0.000000 0.000000 -1.000000 3703.dat
0 STEP
1 0 19.999760 -137.999100 -190.390400 0.000000 0.000000 -0.999997 0.000000 0.999997 0.000000 1.000000 0.000000 0.000000 2780.dat
1 0 19.999760 -277.999500 -190.000400 0.000000 0.000000 -0.999997 0.000000 0.999997 0.000000 1.000000 0.000000 0.000000 2780.dat
0 STEP
1 1 29.999720 -177.999700 -180.000300 0.000000 -0.999997 0.000000 -0.999997 0.000000 0.000000 0.000000 0.000000 -1.000000 3703.dat
0 STEP
1 16 20.000000 0.000000 -160.000000 1.000000 0.000000 0.000000 0.000000 1.000000 0.000000 0.000000 0.000000 1.000000 submodel group 4
0 STEP
1 14 19.999630 -237.998900 -165.290400 0.648115 0.761539 0.000000 -0.761539 0.648115 0.000000 0.000000 0.000000 1.000000 32123a.dat
1 71 19.999760 -237.998900 -210.200400 0.000000 -0.648115 0.761538 0.000000 0.761538 0.648115 -1.000000 0.000000 0.000000 32073.dat
0 STEP
1 71 19.999760 -237.998900 -220.580300 0.648115 -0.761538 0.000000 -0.761538 -0.648115 0.000000 0.000000 0.000000 -1.000000 3649.dat
0 STEP
1 71 19.999760 -237.998900 -250.200400 -0.648116 -0.000001 -0.761539 0.761539 0.000001 -0.648115 0.000001 -1.000000 0.000000 33299.dat
1 4 -10.461760 -263.923600 -280.200400 0.000000 0.000000 0.999997 0.000000 0.999997 0.000000 -1.000000 0.000000 0.000000 62462.dat
0 STEP
1 16 20.000000 -72.000000 -70.000000 1.000000 0.000000 0.000000 0.000000 1.000000 0.000000 0.000000 0.000000 1.000000 submodel group 3
0 STEP
1 71 19.999800 -317.999600 29.539810 1.000000 0.000000 0.000001 0.000000 1.000000 0.000000 -0.000001 0.000000 1.000000 3713.dat
1 72 19.999390 -317.999300 -220.000300 0.000000 -0.999997 0.000000 -0.999997 0.000000 0.000000 0.000000 0.000000 -1.000000 3648b.dat
0 STEP
1 16 20.000000 0.000000 60.000000 1.000000 0.000000 0.000000 0.000000 1.000000 0.000000 0.000000 0.000000 1.000000 submodel group 1
0 STEP
1 14 19.999760 -317.999300 84.989570 0.000000 0.999997 0.000000 0.999997 0.000000 0.000000 0.000000 0.000000 -1.000000 32123a.dat
0 STEP
0 STEP
0 NOFILE
0 FILE SubModel Group 4
0 SubModel Group 4
0 Name:  SubModel Group 4
0 Author:  
0 CustomBrick
0 NumOfBricks:  9
1 1 -0.000850 -23.999840 0.809810 1.000003 0.000000 0.000000 0.000000 1.000002 0.000000 0.000000 0.000000 1.000000 3702.dat
0 STEP
1 1 -0.000850 -47.999880 0.809810 1.000003 0.000000 0.000000 0.000000 1.000002 0.000000 0.000000 0.000000 1.000000 3894.dat
1 0 -0.000850 -37.999860 -9.190189 0.000000 0.000000 -1.000003 0.000000 1.000002 0.000000 1.000000 0.000000 0.000000 2780.dat
0 STEP
1 1 -20.000790 -55.999860 0.809810 1.000003 0.000000 0.000000 0.000000 1.000002 0.000000 0.000000 0.000000 1.000000 3023.dat
1 1 19.999210 -55.999880 0.809810 1.000003 0.000000 0.000000 0.000000 1.000002 0.000000 0.000000 0.000000 1.000000 3023.dat
0 STEP
1 1 -20.000790 -63.999940 0.809810 1.000003 0.000000 0.000000 0.000000 1.000002 0.000000 0.000000 0.000000 1.000000 3023.dat
1 1 19.999210 -63.999940 0.809810 1.000003 0.000000 0.000000 0.000000 1.000002 0.000000 0.000000 0.000000 1.000000 3023.dat
0 STEP
1 15 -0.000850 -88.000090 0.809810 1.000002 0.000000 0.000000 0.000000 1.000002 0.000000 0.000000 0.000000 1.000000 32064a.dat
1 19 -0.000850 -78.000000 -11.000000 -0.000001 1.000004 -0.000001 0.000001 0.000001 1.000002 1.000000 0.000001 -0.000001 3749.dat
0 STEP
0 NOFILE
0 FILE SubModel Group 3
0 SubModel Group 3
0 Name:  SubModel Group 3
0 Author:  
0 CustomBrick
0 NumOfBricks:  32
1 1 -10.000460 -185.999500 -10.040410 0.000000 0.999997 0.000000 -0.999997 0.000000 0.000000 0.000000 0.000000 1.000000 3701.dat
1 71 -0.000370 -205.999500 -20.040410 0.000000 0.000000 -0.999997 0.000000 0.999997 0.000000 1.000000 0.000000 0.000000 3673.dat
0 STEP
1 0 -0.000370 -245.999300 -80.000300 0.000000 0.000000 0.999997 0.000000 0.999997 0.000000 -1.000000 0.000000 0.000000 3707.dat
1 1 -10.000340 -225.999400 -30.040400 0.000000 0.999997 0.000000 -0.999997 0.000000 0.000000 0.000000 0.000000 1.000000 3701.dat
0 STEP
1 0 -0.000240 -245.999300 79.999690 0.000000 0.000000 0.999997 0.000000 0.999997 0.000000 -1.000000 0.000000 0.000000 3707.dat
1 71 -0.000240 -246.002100 -0.000310 0.999997 0.000000 0.000001 0.000000 0.999997 0.000000 -0.000001 0.000000 1.000000 59443.dat
0 STEP
1 1 13.999510 -185.999600 -0.040220 0.000000 0.999997 0.000000 0.999997 0.000000 0.000000 0.000000 0.000000 -1.000000 3709b.dat
0 STEP
1 71 -0.000240 -205.999500 19.999700 0.000000 0.000000 -0.999997 0.000000 0.999997 0.000000 1.000000 0.000000 0.000000 3673.dat
1 1 -10.000460 -185.999500 9.959780 0.000000 0.999997 0.000000 -0.999997 0.000000 0.000000 0.000000 0.000000 1.000000 3701.dat
0 STEP
1 1 -10.000210 -225.999400 29.999760 0.000000 0.999997 0.000000 -0.999997 0.000000 0.000000 0.000000 0.000000 1.000000 3701.dat
0 STEP
1 1 -18.000330 -245.999200 -0.040410 0.000000 1.000000 0.000000 0.000000 0.000000 -1.000000 -1.000000 0.000000 0.000000 3709b.dat
0 STEP
1 71 -0.000490 -165.999500 19.959780 0.000000 0.000000 -0.999997 0.000000 0.999997 0.000000 1.000000 0.000000 0.000000 3673.dat
1 71 -0.000490 -165.999500 -20.040220 0.000000 0.000000 -0.999997 0.000000 0.999997 0.000000 1.000000 0.000000 0.000000 3673.dat
0 STEP
1 15 -0.000370 -105.999700 29.959840 -0.999997 0.000001 -0.000001 0.000001 0.000001 -0.999997 -0.000001 -1.000000 -0.000001 32524.dat
1 15 -0.000490 -105.999700 -30.040400 0.999997 -0.000001 0.000001 0.000001 0.000001 -0.999997 0.000001 1.000000 0.000001 32524.dat
0 STEP
1 0 -0.000550 -65.999850 -40.040410 0.000000 -0.999997 0.000000 0.000000 0.000000 -0.999997 1.000000 0.000000 0.000000 2780.dat
1 19 -0.000490 -85.999770 -40.040410 0.000001 -0.999997 0.000001 0.000001 0.000001 0.999997 -1.000000 -0.000001 0.000001 3749.dat
0 STEP
1 0 -0.000240 -65.999850 39.958920 0.000000 -0.999997 0.000000 0.000000 0.000000 -0.999997 1.000000 0.000000 0.000000 2780.dat
1 19 -0.000370 -85.999770 39.959840 -0.000001 0.999997 -0.000001 0.000001 0.000001 0.999997 1.000000 0.000001 -0.000001 3749.dat
0 STEP
1 1 -0.000490 -85.999770 49.959840 -0.999997 0.000001 0.000001 0.000001 0.000001 0.999997 0.000001 1.000000 -0.000001 32140.dat
1 1 -0.000550 -85.999770 -50.040400 -0.999997 0.000001 0.000001 0.000001 0.000001 0.999997 0.000001 1.000000 -0.000001 32140.dat
0 STEP
1 4 -0.000370 -225.999400 -70.000300 0.000000 0.999997 0.000001 0.000000 -0.000001 0.999997 1.000000 0.000000 0.000000 32039.dat
1 0 -0.000120 -115.999700 -70.000300 0.000000 0.999997 0.000000 0.999997 0.000000 0.000000 0.000000 0.000000 -1.000000 3708.dat
0 STEP
1 71 -0.000370 -245.999300 -90.000310 0.999997 0.000000 0.000001 0.000000 0.999997 0.000000 -0.000001 0.000000 1.000000 3713.dat
0 STEP
1 4 -0.000240 -225.999400 72.999690 0.000000 0.999997 0.000001 0.000000 -0.000001 0.999997 1.000000 0.000000 0.000000 32039.dat
1 0 0.000000 -115.999700 72.999690 0.000000 0.999997 0.000000 0.999997 0.000000 0.000000 0.000000 0.000000 -1.000000 3708.dat
0 STEP
1 0 -0.000370 -6.000000 3.649600 0.000000 0.000000 0.999997 0.000000 0.999997 0.000000 -1.000000 0.000000 0.000000 3706.dat
1 4 -0.000240 -6.000000 -50.000300 0.000000 -0.999997 -0.000001 0.999997 0.000000 0.000000 0.000000 -0.000001 1.000000 32039.dat
1 4 -0.000120 -6.240070 52.999700 0.000000 -0.999997 -0.000001 -0.999997 0.000000 0.000000 0.000000 0.000001 -1.000000 32039.dat
0 STEP
1 15 -18.000270 -285.999300 -0.040340 0.000000 1.000000 0.000000 -1.000000 0.000000 0.000000 0.000000 0.000000 1.000000 3941.dat
1 15 -42.000240 -265.999300 -0.040340 0.000000 1.000000 0.000000 1.000000 0.000000 0.000000 0.000000 0.000000 -1.000000 3941.dat
0 STEP
1 15 -26.000270 -295.999300 -0.040400 0.000000 1.000000 0.000000 0.000000 0.000000 -1.000000 -1.000000 0.000000 0.000000 2431.dat
0 STEP
0 NOFILE
0 FILE SubModel Group 1
0 SubModel Group 1
0 Name:  SubModel Group 1
0 Author:  
0 CustomBrick
0 NumOfBricks:  20
1 1 0.000000 -23.999930 -30.000000 1.000000 0.000000 0.000000 0.000000 1.000000 0.000000 0.000000 0.000000 1.000000 3702.dat
0 STEP
1 1 0.000000 -47.999940 -30.000000 1.000000 0.000000 0.000000 0.000000 1.000000 0.000000 0.000000 0.000000 1.000000 3894.dat
1 0 0.000000 -37.999930 -20.000000 0.000000 0.000000 -0.999998 0.000000 0.999998 0.000000 1.000000 0.000000 0.000000 2780.dat
0 STEP
1 1 0.000000 -55.999940 -30.000000 1.000000 0.000000 0.000000 0.000000 1.000000 0.000000 0.000000 0.000000 1.000000 3710.dat
0 STEP
1 1 0.000000 -63.999960 -30.000000 1.000000 0.000000 0.000000 0.000000 1.000000 0.000000 0.000000 0.000000 1.000000 3710.dat
0 STEP
1 1 0.000000 -87.999940 -30.000000 1.000000 0.000000 0.000000 0.000000 1.000000 0.000000 0.000000 0.000000 1.000000 3700.dat
1 0 0.000000 -77.999950 -20.000000 0.000000 0.000000 -0.999998 0.000000 0.999998 0.000000 1.000000 0.000000 0.000000 2780.dat
0 STEP
1 1 9.999630 -177.999700 -10.000310 0.000000 -0.999997 0.000000 0.999997 0.000000 0.000000 0.000000 0.000000 1.000000 3703.dat
0 STEP
1 0 -0.000240 -137.999800 0.019590 0.000000 0.000000 -0.999997 0.000000 0.999997 0.000000 1.000000 0.000000 0.000000 2780.dat
1 0 -0.000240 -277.999500 0.019590 0.000000 0.000000 -0.999997 0.000000 0.999997 0.000000 1.000000 0.000000 0.000000 2780.dat
0 STEP
1 1 9.999730 -177.999700 10.019590 0.000000 -0.999997 0.000000 0.999997 0.000000 0.000000 0.000000 0.000000 1.000000 3703.dat
0 STEP
1 16 0.000000 0.000000 30.000000 1.000000 0.000000 0.000000 0.000000 1.000000 0.000000 0.000000 0.000000 1.000000 submodel group 2
0 STEP
0 NOFILE
0 FILE SubModel Group 2
0 SubModel Group 2
0 Name:  SubModel Group 2
0 Author:  
0 CustomBrick
0 NumOfBricks:  9
1 1 -0.001340 -23.999760 0.019590 1.000003 0.000000 0.000000 0.000000 1.000003 0.000000 0.000000 0.000000 1.000000 3702.dat
0 STEP
1 1 -0.001340 -47.999880 0.019590 1.000003 0.000000 0.000000 0.000000 1.000003 0.000000 0.000000 0.000000 1.000000 3894.dat
1 0 -0.001340 -37.999830 -9.980410 0.000000 0.000000 -1.000003 0.000000 1.000003 0.000000 1.000000 0.000000 0.000000 2780.dat
0 STEP
1 1 -20.001530 -55.999880 0.019590 1.000003 0.000000 0.000000 0.000000 1.000003 0.000000 0.000000 0.000000 1.000000 3023.dat
1 1 19.998690 -55.999880 0.019590 1.000003 0.000000 0.000000 0.000000 1.000003 0.000000 0.000000 0.000000 1.000000 3023.dat
0 STEP
1 1 -20.001530 -63.999940 0.019590 1.000003 0.000000 0.000000 0.000000 1.000003 0.000000 0.000000 0.000000 1.000000 3023.dat
1 1 19.998690 -63.999940 0.019590 1.000003 0.000000 0.000000 0.000000 1.000003 0.000000 0.000000 0.000000 1.000000 3023.dat
0 STEP
1 15 -0.001340 -87.999980 0.019590 1.000003 0.000000 0.000000 0.000000 1.000003 0.000000 0.000000 0.000000 1.000000 32064a.dat
1 19 -0.001340 -77.999980 -9.980410 -0.000001 1.000003 -0.000001 0.000001 0.000001 1.000003 1.000000 0.000001 -0.000001 3749.dat
0 STEP
0 NOFILE
