0 Untitled Model
0 Name:  门
0 Author:  
0 CustomBrick
0 NumOfBricks:  31
1 1 -70.000550 -28.529960 -39.999460 0.999996 0.000000 0.000000 0.000000 0.000000 -1.000000 0.000000 0.999999 0.000000 3703.dat
0 STEP
1 14 -210.000000 -13.800010 -30.000010 1.000000 0.000000 0.000000 0.000000 0.000000 -1.000000 0.000000 1.000000 0.000000 32123a.dat
1 0 -210.000000 -98.570030 -30.000020 0.000000 0.000000 1.000000 -1.000000 0.000000 0.000000 0.000000 -1.000000 0.000000 3737.dat
0 STEP
1 71 -210.000000 -4.000010 -30.000010 1.000000 0.000000 0.000000 0.000000 0.000000 -1.000000 0.000000 1.000000 0.000000 4185.dat
0 STEP
1 1 -110.000000 -48.570000 -40.000260 1.000000 0.000000 0.000000 0.000000 0.000000 -1.000000 0.000000 1.000000 0.000000 3895.dat
0 STEP
1 0 29.999080 -38.529960 -29.999460 0.000000 0.000000 -1.000000 -1.000000 0.000000 0.000000 0.000000 1.000000 0.000000 2780.dat
1 0 49.998980 -38.529960 -29.999460 0.000000 0.000000 -1.000000 -1.000000 0.000000 0.000000 0.000000 1.000000 0.000000 2780.dat
0 STEP
1 1 49.998970 -48.529930 -39.999420 1.000000 0.000000 0.000000 0.000000 0.000000 -1.000000 0.000000 1.000000 0.000000 3701.dat
0 STEP
1 14 69.998370 -13.479960 -30.000010 1.000000 0.000000 0.000000 0.000000 0.000000 -1.000000 0.000000 1.000000 0.000000 32123a.dat
1 19 69.998900 -18.529990 -29.999460 -0.000001 0.999996 -0.000001 0.999999 0.000001 -0.000001 -0.000001 -0.000001 -0.999997 3749.dat
0 STEP
1 71 69.998370 -3.529980 -30.000010 1.000000 0.000000 0.000000 0.000000 0.000000 -1.000000 0.000000 1.000000 0.000000 4185.dat
0 STEP
1 1 -210.000000 -98.570090 -48.000260 0.000000 0.000000 1.000000 1.000000 0.000000 0.000000 0.000000 1.000000 0.000000 32001.dat
1 1 -110.000000 -148.570100 -40.000020 1.000000 0.000000 0.000000 0.000000 0.000000 -1.000000 0.000000 1.000000 0.000000 3895.dat
0 STEP
1 1 -70.000550 -168.530100 -40.000030 0.999996 0.000000 0.000000 0.000000 0.000000 -1.000000 0.000000 0.999999 0.000000 3703.dat
0 STEP
1 0 29.999080 -158.530100 -30.000020 0.000000 0.000000 -1.000000 -1.000000 0.000000 0.000000 0.000000 1.000000 0.000000 2780.dat
1 0 49.998980 -158.530100 -30.000020 0.000000 0.000000 -1.000000 -1.000000 0.000000 0.000000 0.000000 1.000000 0.000000 2780.dat
0 STEP
1 1 49.998980 -148.529900 -39.998920 1.000000 0.000000 0.000000 0.000000 0.000000 -1.000000 0.000000 1.000000 0.000000 3701.dat
0 STEP
1 71 -210.000000 -188.570100 -30.000030 1.000000 0.000000 0.000001 -0.000001 0.000000 1.000000 0.000000 -1.000000 0.000000 3713.dat
0 STEP
1 1 29.999080 -98.530010 -48.000020 0.000000 0.000000 1.000000 1.000000 0.000000 0.000000 0.000000 1.000000 0.000000 3738.dat
1 1 69.998900 -98.529910 -47.998860 0.000000 0.000000 0.999996 0.999999 0.000000 0.000000 0.000000 0.999997 0.000000 3738.dat
0 STEP
1 1 -170.000000 -98.570030 -48.000020 0.000000 0.000000 1.000000 1.000000 0.000000 0.000000 0.000000 1.000000 0.000000 32001.dat
1 1 -130.000000 -98.570030 -48.000020 0.000000 0.000000 1.000000 1.000000 0.000000 0.000000 0.000000 1.000000 0.000000 32001.dat
0 STEP
1 1 -10.000030 -98.570090 -48.000020 0.000000 0.000000 1.000000 1.000000 0.000000 0.000000 0.000000 1.000000 0.000000 32001.dat
1 1 -50.000020 -98.570030 -48.000020 0.000000 0.000000 1.000000 1.000000 0.000000 0.000000 0.000000 1.000000 0.000000 32001.dat
1 1 -90.000030 -98.570030 -48.000020 0.000000 0.000000 1.000000 1.000000 0.000000 0.000000 0.000000 1.000000 0.000000 32001.dat
0 STEP
1 15 -80.000040 -98.570030 -56.000020 0.000000 0.000000 1.000000 1.000000 0.000000 0.000000 0.000000 1.000000 0.000000 2431.dat
1 15 -60.000780 -98.570090 -55.998740 0.000000 0.000000 1.000000 1.000000 0.000000 0.000000 0.000000 1.000000 0.000000 2431.dat
0 STEP
1 71 -10.000030 -98.570090 -39.120010 0.000000 -1.000000 0.000000 0.000000 0.000000 1.000000 -1.000000 0.000000 0.000000 4519.dat
1 72 -10.000030 -98.570090 -60.180020 1.000000 0.000000 0.000000 0.000000 -1.000000 0.000000 0.000000 0.000000 -1.000000 3648b.dat
0 STEP
1 72 -10.000030 -98.570090 -33.040000 0.000000 -1.000000 0.000000 -1.000000 0.000000 0.000000 0.000000 0.000000 -1.000000 6575.dat
1 71 -10.000030 -98.570090 -17.960220 1.000000 0.000000 0.000001 0.000000 1.000000 0.000000 -0.000001 0.000000 1.000000 3713.dat
0 STEP
0 STEP
