0 FILE 兔子车.io
0 Untitled Model
0 Name:  兔子车
0 Author:  
0 CustomBrick
0 NumOfBricks:  88
1 16 49.000000 -120.427100 -104.000000 0.000000 1.000000 0.000000 0.000000 0.000000 1.000000 1.000000 0.000000 0.000000 submodel group 9 copy copy copy
1 15 -21.000030 -170.499700 58.999690 -0.000001 -0.000001 1.000000 0.000001 1.000000 0.000001 -1.000000 0.000001 -0.000001 32524.dat
1 1 -1.000060 -170.499700 58.999700 0.000000 0.000000 -1.000000 1.000000 0.000000 0.000000 0.000000 -1.000000 0.000000 6558.dat
1 1 -41.000060 -170.499700 58.999790 0.000000 0.000000 -1.000000 1.000000 0.000000 0.000000 0.000000 -1.000000 0.000000 6558.dat
0 STEP
1 0 -21.000030 -129.729700 58.999780 0.000000 -1.000000 0.000000 -1.000000 0.000000 0.000000 0.000000 0.000000 -1.000000 3706.dat
1 14 -21.000030 -95.499480 58.999780 1.000000 0.000000 0.000000 0.000000 0.000000 1.000000 0.000000 -1.000000 0.000000 32123a.dat
1 0 -21.000030 -80.309540 58.999780 1.000000 0.000000 0.000000 0.000000 0.000000 1.000000 0.000000 -1.000000 0.000000 32270.dat
0 STEP
1 0 19.000000 -110.499500 68.999800 0.000000 0.000000 -1.000000 0.000000 1.000000 0.000000 1.000000 0.000000 0.000000 2780.dat
1 19 18.999990 -150.499600 68.999810 -0.000001 1.000000 -0.000001 0.000001 0.000001 1.000000 1.000000 0.000001 -0.000001 3749.dat
1 1 18.999990 -150.499600 78.999810 1.000000 -0.000001 -0.000001 0.000001 0.000001 1.000000 -0.000001 -1.000000 0.000001 32140.dat
0 STEP
1 19 18.999150 -90.499480 68.999800 0.000001 -1.000000 0.000001 0.000001 0.000001 1.000000 -1.000000 -0.000001 0.000001 3749.dat
1 4 18.999150 -70.499500 58.999790 0.000000 0.000000 -1.000000 0.000000 1.000000 0.000000 1.000000 0.000000 0.000000 42003.dat
0 STEP
1 0 -61.000020 -110.499500 68.999800 0.000000 0.000000 -1.000000 0.000000 1.000000 0.000000 1.000000 0.000000 0.000000 2780.dat
1 19 -61.000020 -150.499600 68.999800 -0.000001 1.000000 -0.000001 0.000001 0.000001 1.000000 1.000000 0.000001 -0.000001 3749.dat
0 STEP
1 0 -22.811070 -50.499540 58.999780 -1.000000 0.000000 0.000000 0.000000 0.906308 -0.422619 0.000000 -0.422619 -0.906308 3737.dat
1 14 -48.831040 -50.499540 58.999780 0.000000 0.000000 1.000000 0.906308 0.422619 0.000000 -0.422619 0.906308 0.000000 32123a.dat
1 71 -37.171050 -50.499530 58.999780 -0.000001 0.000000 1.000000 -0.422619 0.906308 0.000000 -0.906308 -0.422619 -0.000001 3650c.dat
0 STEP
1 19 -61.000020 -90.499360 69.000460 0.000001 -1.000000 0.000001 0.000001 0.000001 1.000002 -1.000002 -0.000001 0.000001 3749.dat
1 4 -62.000020 -70.499330 59.000440 0.000000 0.000000 -1.000000 0.000000 1.000002 0.000000 1.000002 0.000000 0.000000 42003.dat
0 STEP
1 1 -61.000020 -150.499600 78.999920 -1.000000 0.000001 0.000001 0.000001 0.000001 1.000000 0.000001 1.000000 -0.000001 32140.dat
0 STEP
1 0 -61.000020 -110.499600 -151.000100 0.000000 0.000000 -1.000000 0.000000 1.000000 0.000000 1.000000 0.000000 0.000000 2780.dat
1 19 -61.000020 -150.499700 -151.000100 0.000001 -1.000000 0.000001 0.000001 0.000001 1.000000 -1.000000 -0.000001 0.000001 3749.dat
1 1 -61.000000 -150.499700 -161.000100 -1.000000 0.000001 0.000001 0.000001 0.000001 1.000000 0.000001 1.000000 -0.000001 32140.dat
0 STEP
1 19 -61.000020 -90.499550 -151.000200 -0.000001 1.000000 -0.000001 0.000001 0.000001 1.000000 1.000000 0.000001 -0.000001 3749.dat
1 4 -61.000020 -70.499550 -141.000200 0.000000 0.000000 1.000000 0.000000 1.000000 0.000000 -1.000000 0.000000 0.000000 42003.dat
0 STEP
1 0 -18.921050 -50.499660 -141.000000 -1.000000 0.000000 0.000000 0.000000 0.984807 -0.173648 0.000000 -0.173648 -0.984807 3737.dat
1 19 -48.501020 -50.499660 -141.000000 0.000000 0.000000 -1.000000 -0.173648 -0.984808 0.000000 -0.984808 0.173648 0.000000 32198.dat
0 STEP
1 15 -82.781140 -50.499480 -41.000200 0.000001 1.000000 0.000001 -1.000000 0.000001 -0.000001 -0.000001 -0.000001 1.000000 64871.dat
0 STEP
1 16 -20.000000 -24.000000 -40.000000 1.000000 0.000000 0.000000 0.000000 1.000000 0.000000 0.000000 0.000000 1.000000 submodel group 3
0 STEP
1 16 20.000000 -36.000000 -150.000000 1.000000 0.000000 0.000000 0.000000 1.000000 0.000000 0.000000 0.000000 1.000000 submodel group 2
0 STEP
1 15 39.218870 -50.499560 -41.000200 0.000001 1.000000 0.000001 -1.000000 0.000001 -0.000001 -0.000001 -0.000001 1.000000 64871.dat
0 STEP
1 0 -112.168000 -50.499450 58.999960 -0.000001 0.000000 1.000001 -0.906308 -0.422619 -0.000001 0.422619 -0.906309 0.000000 30391.dat
1 71 -111.911000 -50.499460 58.999660 0.000000 0.000000 1.000000 -0.422619 0.906308 0.000000 -0.906308 -0.422618 0.000000 55982.dat
1 0 -112.002100 -50.499500 -140.999800 -0.000001 0.000000 1.000004 -0.984808 -0.173650 -0.000001 0.173648 -0.984812 0.000000 30391.dat
1 71 -111.751000 -50.499660 -141.000000 0.000000 0.000000 1.000000 -0.173648 0.984808 0.000000 -0.984808 -0.173648 0.000000 55982.dat
0 STEP
1 0 69.865990 -50.499220 58.999950 0.000001 0.000000 -1.000000 -0.906308 0.422619 -0.000001 0.422619 0.906308 0.000000 30391.dat
1 71 69.609000 -50.499440 58.999560 0.000000 0.000000 -1.000000 0.422619 0.906308 0.000000 0.906308 -0.422619 0.000000 55982.dat
1 0 70.065090 -50.499600 -140.999700 0.000001 0.000000 -1.000000 -0.984808 0.173648 -0.000001 0.173648 0.984808 0.000000 30391.dat
1 71 69.808990 -50.499600 -141.000100 0.000000 0.000000 -1.000000 0.173648 0.984806 0.000000 0.984806 -0.173648 0.000000 55982.dat
0 STEP
1 19 18.999990 -130.499700 -171.000100 0.000001 -1.000000 0.000001 0.000001 0.000001 1.000000 -1.000000 -0.000001 0.000001 3749.dat
1 19 -61.000020 -130.499600 -171.000200 0.000001 -1.000000 0.000001 0.000001 0.000001 1.000000 -1.000000 -0.000001 0.000001 3749.dat
0 STEP
1 71 -61.000020 -130.499600 -176.000200 1.000000 0.000000 0.000000 0.000000 1.000000 0.000000 0.000000 0.000000 1.000000 4185.dat
1 71 18.999990 -130.499600 -176.500100 1.000000 0.000000 0.000000 0.000000 1.000000 0.000000 0.000000 0.000000 1.000000 4185.dat
0 STEP
1 19 -61.000020 -130.499600 -184.000200 -1.000000 0.000000 -0.000001 0.000000 1.000000 0.000000 0.000001 0.000000 -1.000000 6589.dat
1 19 18.999990 -130.499600 -184.000100 -1.000000 0.000000 -0.000001 0.000000 1.000000 0.000000 0.000001 0.000000 -1.000000 6589.dat
0 STEP
1 16 -20.000000 -144.000000 -70.000000 1.000000 0.000000 0.000000 0.000000 1.000000 0.000000 0.000000 0.000000 1.000000 submodel group 1
0 STEP
1 15 -21.000030 -182.115200 59.000040 -1.000000 0.000000 0.000000 0.000000 0.000000 -1.000000 0.000000 -1.000000 0.000000 dx0057.dat.dat
0 STEP
0 STEP
0 NOFILE
0 FILE SubModel Group 9 Copy Copy Copy
0 SubModel Group 9 Copy Copy Copy
0 Name:  SubModel Group 9 Copy Copy Copy
0 Author:  
0 CustomBrick
0 NumOfBricks:  3
1 72 10.000000 -1.128810 -10.000000 1.000000 0.000000 0.000000 0.000000 0.000000 -1.000000 0.000000 1.000000 0.000000 dch003.dat
1 71 -27.466620 -79.717990 29.427020 1.000000 0.000000 0.000000 0.000000 0.000000 -1.000000 0.000000 1.000000 0.000000 dch004.dat
1 25 7.837010 13.484720 -9.965000 1.000000 0.000000 0.000000 0.000000 0.000000 -1.000000 0.000000 1.000000 0.000000 dch005.dat
0 NOFILE
0 FILE SubModel Group 3
0 SubModel Group 3
0 Name:  SubModel Group 3
0 Author:  
0 CustomBrick
0 NumOfBricks:  15
1 14 -1.781160 -26.499540 -56.550120 1.000000 0.000000 0.000000 0.000000 1.000000 0.000000 0.000000 0.000000 1.000000 32123a.dat
1 0 -1.781160 -26.499510 -1.850210 0.000000 -1.000000 0.000000 0.000000 0.000000 -1.000000 1.000000 0.000000 0.000000 3707.dat
1 19 -1.781160 -26.499550 -71.850100 0.000000 -1.000000 0.000000 -1.000000 0.000000 0.000000 0.000000 0.000000 -1.000000 32269.dat
0 STEP
1 4 -1.781160 -26.499530 -41.000070 0.000000 0.000000 -1.000000 0.000000 -1.000000 0.000000 -1.000000 0.000000 0.000000 32034.dat
1 4 -1.781160 -26.499580 38.999740 0.000000 0.000000 -1.000000 0.000000 -1.000000 0.000000 -1.000000 0.000000 0.000000 32034.dat
0 STEP
1 14 -1.781160 -26.499480 54.139710 -1.000000 0.000000 0.000000 0.000000 -1.000000 0.000000 0.000000 0.000000 1.000000 32123a.dat
1 0 -1.781160 -26.499490 67.779860 0.000000 -1.000000 0.000000 -1.000000 0.000000 0.000000 0.000000 0.000000 -1.000000 32270.dat
0 STEP
1 4 -31.781160 -26.499540 -41.000070 -1.000000 0.000000 0.000000 0.000000 1.000000 0.000000 0.000000 0.000000 -1.000000 32062.dat
1 4 -31.781160 -26.499580 38.999850 -1.000000 0.000000 0.000000 0.000000 1.000000 0.000000 0.000000 0.000000 -1.000000 32062.dat
0 STEP
1 4 -61.781160 -26.499520 -41.000190 -1.000000 -0.000001 0.000001 0.000001 0.000001 1.000000 -0.000001 1.000000 -0.000001 32054.dat
1 4 -61.781160 -26.499580 38.999850 -1.000000 -0.000001 0.000001 0.000001 0.000001 1.000000 -0.000001 1.000000 -0.000001 32054.dat
0 STEP
1 4 28.218840 -26.499580 38.999740 -1.000000 0.000000 0.000000 0.000000 1.000000 0.000000 0.000000 0.000000 -1.000000 32062.dat
1 4 28.218840 -26.499530 -41.000070 -1.000000 0.000000 0.000000 0.000000 1.000000 0.000000 0.000000 0.000000 -1.000000 32062.dat
0 STEP
1 4 58.218850 -26.499600 38.999740 1.000000 0.000001 -0.000001 -0.000001 -0.000001 -1.000000 -0.000001 1.000000 -0.000001 32054.dat
1 4 58.218850 -26.499560 -41.000180 1.000000 0.000001 -0.000001 -0.000001 -0.000001 -1.000000 -0.000001 1.000000 -0.000001 32054.dat
0 STEP
0 NOFILE
0 FILE SubModel Group 2
0 SubModel Group 2
0 Name:  SubModel Group 2
0 Author:  
0 CustomBrick
0 NumOfBricks:  5
1 19 -1.000010 -114.499700 -1.000200 0.000001 -1.000000 0.000001 0.000001 0.000001 1.000000 -1.000000 -0.000001 0.000001 3749.dat
1 1 -1.000010 -114.499700 -11.000200 1.000000 -0.000001 -0.000001 0.000001 0.000001 1.000000 -0.000001 -1.000000 0.000001 32140.dat
0 STEP
1 0 -1.000010 -74.499640 -1.000210 0.000000 0.000000 -1.000000 0.000000 1.000000 0.000000 1.000000 0.000000 0.000000 2780.dat
1 19 -1.000010 -54.499500 -1.000150 -0.000001 1.000000 -0.000001 0.000001 0.000001 1.000000 1.000000 0.000001 -0.000001 3749.dat
0 STEP
1 4 -1.000010 -34.499490 8.999849 0.000000 0.000000 1.000000 0.000000 1.000000 0.000000 -1.000000 0.000000 0.000000 42003.dat
0 STEP
0 NOFILE
0 FILE SubModel Group 1
0 SubModel Group 1
0 Name:  SubModel Group 1
0 Author:  
0 CustomBrick
0 NumOfBricks:  22
1 0 18.999970 -16.499730 -71.000110 0.000000 0.000000 -1.000000 1.000000 0.000000 0.000000 0.000000 -1.000000 0.000000 2780.dat
1 0 -21.000040 -16.499730 -71.000110 0.000000 0.000000 -1.000000 1.000000 0.000000 0.000000 0.000000 -1.000000 0.000000 2780.dat
1 15 -1.000030 -26.499700 -71.000110 0.000001 0.000001 -1.000000 0.000001 1.000000 0.000001 1.000000 -0.000001 0.000001 32316.dat
0 STEP
1 0 38.999990 -36.499700 -71.000220 0.000000 -1.000000 0.000000 -1.000000 0.000000 0.000000 0.000000 0.000000 -1.000000 2780.dat
1 0 -41.000020 -36.499700 -71.000110 0.000000 -1.000000 0.000000 -1.000000 0.000000 0.000000 0.000000 0.000000 -1.000000 2780.dat
0 STEP
1 0 38.999140 -56.500380 -50.999480 0.000000 1.000000 0.000000 1.000000 0.000000 0.000000 0.000000 0.000000 -1.000000 2780.dat
1 19 38.999140 -56.500370 -10.999040 -0.000001 1.000000 -0.000001 1.000000 0.000001 -0.000001 -0.000001 -0.000001 -1.000000 3749.dat
1 1 38.999990 -46.499660 -11.000140 -1.000000 0.000001 0.000001 0.000001 1.000000 -0.000001 -0.000001 -0.000001 -1.000000 32140.dat
0 STEP
1 1 -41.000020 -46.499660 -11.000120 1.000000 -0.000001 -0.000001 -0.000001 -1.000000 0.000001 -0.000001 -0.000001 -1.000000 32140.dat
1 0 -41.000020 -56.499680 -51.000020 0.000000 -1.000000 0.000000 -1.000000 0.000000 0.000000 0.000000 0.000000 -1.000000 2780.dat
1 19 -41.000870 -56.499660 -11.000000 -0.000001 1.000000 -0.000001 1.000000 0.000001 -0.000001 -0.000001 -0.000001 -1.000000 3749.dat
0 STEP
1 15 38.999140 -66.500270 9.001249 1.000000 -0.000001 0.000001 0.000001 1.000006 0.000001 -0.000001 -0.000001 1.000011 40490.dat
1 0 38.999140 -76.500170 29.001470 0.000000 0.000000 -1.000000 1.000000 0.000000 0.000000 0.000000 -1.000000 0.000000 2780.dat
1 0 38.999140 -76.500270 -30.999220 0.000000 0.000000 -1.000000 1.000000 0.000000 0.000000 0.000000 -1.000000 0.000000 2780.dat
0 STEP
1 15 -41.000020 -66.499580 8.999980 1.000000 -0.000001 0.000001 0.000001 1.000000 0.000001 -0.000001 -0.000001 1.000000 40490.dat
1 0 -41.000020 -76.499590 -31.000000 0.000000 0.000000 -1.000000 1.000000 0.000000 0.000000 0.000000 -1.000000 0.000000 2780.dat
1 0 -41.000020 -76.499590 28.999980 0.000000 0.000000 -1.000000 1.000000 0.000000 0.000000 0.000000 -1.000000 0.000000 2780.dat
0 STEP
1 1 -1.000030 -46.499760 99.000040 1.000000 0.000000 0.000000 0.000000 0.000000 1.000000 0.000000 -1.000000 0.000000 3894.dat
1 0 -41.000870 -56.499720 89.003060 0.000000 0.000000 -1.000000 1.000009 0.000000 0.000000 0.000000 -1.000013 0.000000 2780.dat
1 0 38.999140 -56.500260 89.001940 0.000000 0.000000 -1.000000 1.000000 0.000000 0.000000 0.000000 -1.000000 0.000000 2780.dat
0 STEP
1 1 38.999140 -86.500110 109.001400 1.000000 0.000000 0.000000 0.000000 1.000000 0.000000 0.000000 0.000000 1.000000 32009.dat
1 1 -41.000020 -86.499560 109.000000 -1.000000 0.000000 0.000000 0.000000 -1.000000 0.000000 0.000000 0.000000 1.000000 32009.dat
0 STEP
0 NOFILE
