0 FILE 摩托车.io
0 Untitled Model
0 Name:  摩托车
0 Author:  
0 CustomBrick
0 NumOfBricks:  53
1 1 -263.172600 -59.973940 -93.000070 0.986856 0.161600 0.000000 -0.161600 0.986856 0.000000 0.000000 0.000000 1.000000 3894.dat
1 1 -263.172600 -59.973940 -113.000100 0.986856 0.161600 0.000000 -0.161600 0.986856 0.000000 0.000000 0.000000 1.000000 3894.dat
1 0 -301.030700 -43.641400 -103.000100 0.000000 0.161600 0.986856 0.000000 0.986856 -0.161600 -1.000000 0.000000 0.000000 3706.dat
0 STEP
1 0 -301.029900 -43.641340 -143.256600 -0.161600 0.986855 0.000000 -0.986855 -0.161600 -0.000001 -0.000001 0.000000 1.000000 30391.dat
1 71 -301.030700 -43.641440 -142.999800 0.986856 0.161600 0.000000 -0.161600 0.986856 0.000000 0.000000 0.000000 1.000000 55982.dat
0 STEP
1 71 -301.030700 -43.641420 -152.999700 0.986856 0.161600 0.000001 -0.161600 0.986856 0.000000 -0.000001 0.000000 1.000000 3713.dat
0 STEP
1 0 -301.030700 -43.641460 -61.423390 -0.161600 -0.986856 0.000000 -0.986856 0.161600 -0.000001 0.000001 0.000000 -1.000000 30391.dat
1 71 -301.030700 -43.641400 -61.679980 -0.986856 0.161600 0.000000 0.161600 0.986856 0.000000 0.000000 0.000000 -1.000000 55982.dat
0 STEP
1 71 -301.030700 -43.641400 -53.000040 -0.986856 0.161600 -0.000001 0.161600 0.986856 0.000000 0.000001 0.000000 -1.000000 3713.dat
0 STEP
1 1 -207.839700 -93.354530 -93.000070 0.986856 0.161600 0.000000 -0.161600 0.986856 0.000000 0.000000 0.000000 1.000000 3702.dat
1 1 -207.839600 -93.354610 -112.999000 0.986856 0.161600 0.000000 -0.161600 0.986856 0.000000 0.000000 0.000000 1.000000 3702.dat
0 STEP
1 15 -184.224200 -72.902000 -103.000100 0.000000 0.161600 0.986856 0.000000 0.986856 -0.161600 -1.000000 0.000000 0.000000 3001.dat
0 STEP
1 1 -105.275700 -85.830020 -103.000100 0.986856 0.161600 0.000000 -0.161600 0.986856 0.000000 0.000000 0.000000 1.000000 32001.dat
0 STEP
1 1 -103.982700 -77.935180 -103.000100 0.986856 0.161600 0.000000 -0.161600 0.986856 0.000000 0.000000 0.000000 1.000000 32001.dat
1 1 -102.690000 -70.040320 -103.000100 0.986856 0.161600 0.000000 -0.161600 0.986856 0.000000 0.000000 0.000000 1.000000 32001.dat
0 STEP
1 1 -67.094120 -100.188900 -103.000100 0.986856 0.161600 0.000000 -0.161600 0.986856 0.000000 0.000000 0.000000 1.000000 32001.dat
0 STEP
1 1 -69.679900 -115.978600 -103.000100 0.986856 0.161600 0.000000 -0.161600 0.986856 0.000000 0.000000 0.000000 1.000000 32001.dat
1 1 -68.386960 -108.083700 -103.000100 0.986856 0.161600 0.000000 -0.161600 0.986856 0.000000 0.000000 0.000000 1.000000 32001.dat
0 STEP
1 15 -211.718100 -117.038900 -103.000100 0.986856 0.161600 0.000000 -0.161600 0.986856 0.000000 0.000000 0.000000 1.000000 3941.dat
1 15 -152.506800 -126.735100 -103.000100 -0.986858 0.161600 0.000000 0.161601 0.986856 0.000000 0.000000 0.000000 -1.000000 3001.dat
0 STEP
1 15 -225.465100 -139.107700 -112.999800 0.000000 0.161600 -0.986858 0.000000 0.986856 0.161601 1.000000 0.000000 0.000000 3040b.dat
1 15 -225.465100 -139.107600 -93.000060 0.000000 0.161600 -0.986858 0.000000 0.986856 0.161601 1.000000 0.000000 0.000000 3040b.dat
0 STEP
1 16 -80.000000 -72.000000 -100.000000 0.962691 -0.270603 0.000000 0.270603 0.962691 0.000000 0.000000 0.000000 1.000000 submodel group 1
0 STEP
1 15 -25.352680 -92.807300 -103.000100 0.986856 0.161600 0.000000 -0.161600 0.986856 0.000000 0.000000 0.000000 1.000000 3941.dat
0 STEP
1 1 18.000000 -75.586870 -93.000000 0.986856 0.161600 0.000000 -0.161600 0.986856 0.000000 0.000000 0.000000 1.000000 3894.dat
1 1 18.000010 -75.586780 -113.000100 0.986856 0.161600 0.000000 -0.161600 0.986856 0.000000 0.000000 0.000000 1.000000 3894.dat
0 STEP
1 0 59.090160 -72.182200 -102.730000 0.000000 0.161600 0.986856 0.000000 0.986856 -0.161600 -1.000000 0.000000 0.000000 3707.dat
0 STEP
1 0 59.089980 -72.182160 -154.309500 0.986860 -0.161601 0.000000 -0.161601 -0.986860 0.000000 0.000000 0.000000 -1.000000 44309.dat
1 71 59.090220 -72.182220 -154.309500 -0.161601 -0.986856 0.000000 -0.986856 0.161601 0.000000 0.000000 0.000000 -1.000000 56145.dat
1 0 59.089960 -72.182190 -51.850000 0.986858 0.161601 0.000000 -0.161601 0.986858 0.000000 0.000000 0.000000 1.000000 44309.dat
1 71 59.090260 -72.182220 -51.850000 0.161600 -0.986856 0.000000 0.986856 0.161600 0.000000 0.000000 0.000000 1.000000 56145.dat
0 STEP
1 71 59.090160 -72.182200 -33.779950 -0.986856 0.161600 -0.000001 0.161600 0.986856 0.000000 0.000001 0.000000 -1.000000 3713.dat
1 71 59.090130 -72.182200 -172.729400 0.986856 0.161600 0.000001 -0.161600 0.986856 0.000000 -0.000001 0.000000 1.000000 3713.dat
0 STEP
0 STEP
0 NOFILE
0 FILE SubModel Group 1
0 SubModel Group 1
0 Name:  SubModel Group 1
0 Author:  
0 CustomBrick
0 NumOfBricks:  21
1 71 -88.904350 -113.939900 67.759020 0.000000 0.000001 1.000001 -1.000001 0.000000 0.000000 -0.000001 -1.000000 0.000002 33299.dat
1 15 -8.928470 -112.543800 47.759030 0.034901 0.000001 -0.999393 -0.999393 0.000001 -0.034901 0.000001 1.000000 0.000001 40490.dat
0 STEP
1 71 -88.903460 -113.940100 87.051990 1.000002 0.000001 0.000001 0.000001 -1.000002 0.000001 0.000001 -0.000002 -1.000000 3713.dat
1 0 -88.904320 -113.939800 -2.948030 -0.000001 0.000001 1.000002 -0.000001 -1.000002 0.000001 1.000000 -0.000002 0.000001 3737.dat
0 STEP
1 71 -88.904330 -113.939800 27.161340 1.000002 0.000001 0.000001 0.000001 -1.000002 0.000001 0.000001 -0.000002 -1.000000 3713.dat
1 19 -88.904330 -113.939800 7.059780 0.000001 -1.000002 -0.000001 -1.000002 -0.000001 0.000001 -0.000002 0.000000 -1.000000 32269.dat
0 STEP
1 71 -88.904270 -113.939600 -33.240930 1.000002 0.000001 0.000001 0.000001 -1.000002 0.000001 0.000001 -0.000002 -1.000000 3713.dat
1 19 -88.904060 -113.939500 -13.537880 -1.000002 0.000001 0.000000 -0.000001 -1.000002 -0.000002 0.000000 -0.000002 1.000000 32269.dat
0 STEP
1 0 11.059440 -111.845900 -1.559970 0.000000 0.422618 0.906309 0.000000 0.906309 -0.422618 -1.000000 0.000000 0.000000 3707.dat
1 0 11.059410 -111.845900 68.430900 0.906310 0.422618 0.000000 -0.422618 0.906309 0.000001 0.000000 0.000000 1.000000 32270.dat
0 STEP
1 71 11.059440 -111.845900 27.249970 0.906309 0.422618 0.000001 -0.422618 0.906309 0.000000 -0.000001 0.000000 1.000000 3713.dat
0 STEP
1 14 11.059460 -111.846000 12.459810 -0.422618 0.906309 0.000000 -0.906309 -0.422618 0.000001 0.000000 0.000000 1.000000 32123a.dat
1 4 19.512030 -93.719890 -3.000160 0.000000 0.906309 0.422619 0.000001 -0.422619 0.906309 1.000000 0.000000 -0.000001 32039.dat
0 STEP
1 71 27.964450 -75.593660 -2.999920 0.906310 0.000000 -0.422617 -0.422617 0.000001 -0.906310 0.000000 1.000000 0.000001 3713.dat
1 71 36.417000 -57.467440 -3.000050 0.422617 0.906308 0.000000 0.906308 -0.422617 0.000000 0.000000 0.000000 -1.000000 32073.dat
0 STEP
1 14 11.059430 -111.846000 -18.890290 -0.422618 0.906309 0.000000 -0.906309 -0.422618 0.000001 0.000000 0.000000 1.000000 32123a.dat
1 71 11.059440 -111.846000 -33.570280 0.906309 0.422618 0.000001 -0.422618 0.906309 0.000000 -0.000001 0.000000 1.000000 3713.dat
0 STEP
1 15 -8.928329 -112.543500 -53.158480 0.034901 0.000001 -0.999393 -0.999392 0.000001 -0.034901 0.000001 1.000000 0.000001 40490.dat
0 STEP
1 71 -88.904140 -113.939600 -73.158410 -0.000002 0.000001 1.000002 1.000002 0.000000 0.000002 0.000001 1.000000 -0.000001 33299.dat
0 STEP
1 71 -88.904130 -113.939600 -92.947290 -1.000002 0.000001 -0.000001 -0.000001 -1.000002 -0.000001 -0.000001 -0.000002 1.000000 3713.dat
1 0 11.059440 -111.846000 -73.619360 0.906309 0.422618 0.000000 -0.422618 0.906309 0.000001 0.000000 0.000000 1.000000 32270.dat
0 STEP
0 NOFILE
