0 Untitled Model
0 Name:  弹弓
0 Author:  
0 CustomBrick
0 NumOfBricks:  19
1 1 -139.000000 -38.350010 -10.670040 1.000000 0.000000 0.000000 0.000000 1.000000 0.000000 0.000000 0.000000 1.000000 3895.dat
0 STEP
1 1 -59.000000 -62.350000 -10.670040 1.000000 0.000000 0.000000 0.000000 1.000000 0.000000 0.000000 0.000000 1.000000 3703.dat
1 15 -239.000000 -62.350000 -10.670040 1.000000 0.000000 0.000000 0.000000 1.000000 0.000000 0.000000 0.000000 1.000000 32064a.dat
0 STEP
1 0 81.000000 -52.350000 -3.480100 0.000000 0.000000 1.000000 0.000000 1.000000 0.000000 -1.000000 0.000000 0.000000 3708.dat
1 71 81.000000 -52.350020 -30.980100 0.000000 -1.000000 0.000000 1.000000 0.000000 0.000001 -0.000001 0.000000 1.000000 3713.dat
0 STEP
1 71 81.000000 -52.350000 -73.800050 1.000000 0.000000 0.000001 0.000000 1.000000 0.000000 -0.000001 0.000000 1.000000 3713.dat
0 STEP
1 1 141.000000 -62.350000 -94.000000 1.000000 0.000000 0.000000 0.000000 1.000000 0.000000 0.000000 0.000000 1.000000 3702.dat
1 19 101.000000 -52.349990 -104.000000 0.000001 -1.000000 0.000001 0.000001 0.000001 1.000000 -1.000000 -0.000001 0.000001 3749.dat
0 STEP
1 0 181.000000 -52.350000 -104.000000 0.000000 0.000000 -1.000000 0.000000 1.000000 0.000000 1.000000 0.000000 0.000000 2780.dat
1 71 81.000000 -52.350000 -113.480100 1.000000 0.000000 0.000000 0.000000 -1.000000 0.000000 0.000000 0.000000 -1.000000 3649.dat
0 STEP
1 71 81.000000 -52.350080 9.329960 0.000001 -0.000001 -1.000000 1.000000 0.000001 0.000001 0.000001 -1.000000 0.000001 33299.dat
0 STEP
1 71 81.000000 -52.350000 67.989990 1.000000 0.000000 0.000001 0.000000 1.000000 0.000000 -0.000001 0.000000 1.000000 3713.dat
1 1 141.000000 -62.350000 86.269900 1.000000 0.000000 0.000000 0.000000 1.000000 0.000000 0.000000 0.000000 1.000000 3702.dat
0 STEP
1 0 181.000000 -52.350000 96.269900 0.000000 0.000000 -1.000000 0.000000 1.000000 0.000000 1.000000 0.000000 0.000000 2780.dat
1 19 101.000000 -52.350020 96.269900 0.000001 -1.000000 0.000001 -0.000001 -0.000001 -1.000000 1.000000 0.000001 -0.000001 3749.dat
0 STEP
1 71 81.000000 -52.350000 106.519900 1.000000 0.000000 0.000000 0.000000 -1.000000 0.000000 0.000000 0.000000 -1.000000 3649.dat
0 STEP
1 15 185.000000 -41.169000 -8.000000 0.000000 0.000000 1.000000 0.000000 1.000000 0.000000 -1.000000 0.000000 0.000000 xpj0102.dat
0 STEP
1 1 181.000000 -62.350000 106.269900 1.000000 0.000000 0.000000 0.000000 1.000000 0.000000 0.000000 0.000000 1.000000 3700.dat
1 1 181.000000 -62.350000 -114.000000 1.000000 0.000000 0.000000 0.000000 1.000000 0.000000 0.000000 0.000000 1.000000 3700.dat
0 STEP
0 STEP
