0 Untitled Model
0 Name:  等腰三角形
0 Author:  
0 CustomBrick
0 NumOfBricks:  6
1 0 49.999860 -20.000020 -70.000430 0.000000 -0.382692 -0.923877 1.000000 -0.000001 0.000000 -0.000001 -0.923876 0.382692 2780.dat
1 15 50.000080 -10.000000 10.000000 -1.000000 0.000001 -0.000001 0.000001 1.000000 0.000000 0.000001 0.000000 -1.000000 40490.dat
0 STEP
1 15 -5.432920 -29.999930 -47.038690 0.382693 0.000000 -0.923879 0.000002 1.000000 0.000001 0.923871 -0.000002 0.382692 32524.dat
0 STEP
1 0 -60.865300 -39.999860 -24.077330 0.000000 -0.382692 -0.923877 1.000000 -0.000001 0.000000 -0.000001 -0.923876 0.382692 2780.dat
1 19 48.866100 -29.999950 92.366080 0.000000 -0.382692 -0.923877 1.000000 -0.000001 0.000000 -0.000001 -0.923876 0.382692 32556.dat
0 STEP
1 15 -5.999670 -49.999900 34.144430 -0.727770 0.000001 -0.685823 0.000001 1.000000 0.000000 0.685821 0.000000 -0.727770 40490.dat
0 STEP
0 STEP
