0 FILE 火车头.io
0 Untitled Model
0 Name:  火车头
0 Author:  
0 CustomBrick
0 NumOfBricks:  62
1 1 -39.000020 -103.859000 -143.999800 -0.000001 -1.000001 0.000001 0.000001 0.000001 1.000000 -1.000001 0.000001 0.000001 32140.dat
1 0 -49.000020 -83.859050 -143.999800 -1.000001 0.000000 0.000000 0.000000 1.000000 0.000000 0.000000 0.000000 -1.000001 2780.dat
0 STEP
1 71 -40.080010 -103.859000 -143.999800 -1.000001 0.000000 0.000000 0.000000 0.000000 1.000000 0.000000 1.000001 0.000000 4519.dat
1 15 -60.080090 -143.859100 -143.999800 0.000001 1.000001 0.000001 -0.000001 -0.000001 1.000000 1.000001 -0.000001 0.000001 32524.dat
0 STEP
1 1 -40.080070 -143.859000 -143.999800 1.000001 0.000000 0.000000 0.000000 1.000000 0.000000 0.000000 0.000000 1.000001 6558.dat
1 0 -50.080120 -183.859100 -143.999900 -1.000001 0.000000 0.000000 0.000000 1.000000 0.000000 0.000000 0.000000 -1.000001 2780.dat
1 0 -50.080140 -203.859100 -143.999900 -1.000001 0.000000 0.000000 0.000000 1.000000 0.000000 0.000000 0.000000 -1.000001 2780.dat
0 STEP
1 1 -40.080130 -243.859200 -143.999900 0.000000 1.000001 0.000000 1.000000 0.000000 0.000000 0.000000 0.000000 -1.000001 32009.dat
1 71 -0.080090 -243.859200 16.000290 -1.000001 0.000000 0.000000 0.000000 1.000000 0.000000 0.000000 0.000000 -1.000001 32073.dat
0 STEP
1 16 -9.517980 -54.039360 -106.013400 0.000000 0.000000 -1.000000 0.000000 1.000000 0.000000 1.000000 0.000000 0.000000 submodel group 9 copy copy copy
0 STEP
1 1 41.000050 -143.859100 -144.000000 1.000001 0.000000 0.000000 0.000000 1.000000 0.000000 0.000000 0.000000 1.000001 6558.dat
0 STEP
1 19 21.000060 -83.859080 -154.000300 0.000001 -1.000001 0.000001 0.000001 0.000001 1.000000 -1.000001 -0.000001 0.000001 3749.dat
1 19 -18.999980 -83.859080 -154.000300 0.000001 -1.000001 0.000001 0.000001 0.000001 1.000000 -1.000001 -0.000001 0.000001 3749.dat
0 STEP
1 0 21.000000 -83.859140 -184.000500 0.000002 -1.000001 -0.000002 -1.000000 -0.000002 -0.000002 0.000002 0.000002 -1.000001 32013.dat
1 0 20.999980 -93.859160 -184.000500 0.000000 0.000000 -1.000001 1.000000 0.000000 0.000000 0.000000 -1.000001 0.000000 2780.dat
1 0 -19.000040 -83.859140 -184.000500 0.000002 -1.000001 -0.000002 -1.000000 -0.000002 -0.000002 0.000002 0.000002 -1.000001 32013.dat
1 0 -19.000060 -93.859160 -184.000500 0.000000 0.000000 -1.000001 1.000000 0.000000 0.000000 0.000000 -1.000001 0.000000 2780.dat
0 STEP
1 71 0.999960 -84.859140 -184.000700 0.000000 -1.000001 0.000000 -1.000000 0.000000 0.000000 0.000000 0.000000 -1.000002 4519.dat
1 15 0.961640 -94.469880 -184.489800 1.000000 0.000000 0.000000 0.000000 0.000004 -1.000000 0.000000 1.000000 0.000004 xt0016.dat
0 STEP
1 71 0.999940 -84.859160 -184.000700 1.000001 0.000000 0.000001 0.000001 0.000000 -1.000000 0.000000 1.000001 0.000000 3713.dat
1 0 0.999960 -64.859140 -184.000700 1.000001 0.000000 0.000000 0.000000 0.000000 1.000000 0.000000 -1.000001 0.000000 32270.dat
0 STEP
1 0 -29.509860 -43.859050 -143.999600 -1.000000 0.000000 0.000000 0.000000 1.000000 0.000000 0.000000 0.000000 -1.000000 2780.dat
1 0 -28.999950 -43.859080 -163.999600 -1.000001 0.000000 0.000000 0.000000 1.000000 0.000000 0.000000 0.000000 -1.000001 2780.dat
1 15 -19.509930 -43.859040 -163.999600 0.000001 1.000001 0.000001 -1.000000 0.000001 -0.000001 -0.000001 -0.000001 1.000001 32523.dat
0 STEP
1 71 -39.089880 -43.859050 -183.999900 0.000001 0.000001 -1.000000 -0.168474 0.985706 0.000000 0.985706 0.168474 0.000001 3713.dat
1 0 10.910120 -43.859100 -183.999900 -1.000000 0.000000 -0.000001 0.000001 0.168474 -0.985706 0.000000 -0.985706 -0.168474 3707.dat
0 STEP
1 14 27.530130 -43.859040 -183.999600 -0.000001 0.000000 1.000000 -0.985706 0.168473 -0.000001 -0.168473 -0.985706 0.000000 32123a.dat
1 71 41.050140 -43.859040 -183.999600 0.000001 0.000000 -1.000000 0.985706 0.168473 0.000001 0.168473 -0.985706 0.000001 3713.dat
1 19 19.910110 -43.859040 -183.999600 0.000000 -0.000001 -1.000001 0.168474 -0.985707 0.000001 -0.985706 -0.168473 0.000000 6589.dat
0 STEP
1 71 41.759860 -103.859000 -143.999500 -1.000001 0.000000 0.000000 0.000000 0.000000 1.000000 0.000000 1.000001 0.000000 4519.dat
1 1 40.999860 -103.859100 -143.999500 -0.000001 -1.000001 0.000001 0.000001 0.000001 0.999999 -1.000000 0.000001 0.000001 32140.dat
1 0 50.999880 -83.859100 -143.999500 -1.000001 0.000000 0.000000 0.000000 1.000000 0.000000 0.000000 0.000000 -1.000001 2780.dat
0 STEP
1 0 50.999910 -43.859140 -163.999500 -1.000001 0.000000 0.000000 0.000000 1.000000 0.000000 0.000000 0.000000 -1.000001 2780.dat
1 0 50.999940 -43.859160 -143.999400 -1.000000 0.000000 0.000000 0.000000 1.000000 0.000000 0.000000 0.000000 -1.000000 2780.dat
1 15 60.999920 -43.859140 -163.999400 0.000001 1.000001 0.000001 -1.000000 0.000001 -0.000001 -0.000001 -0.000001 1.000001 32523.dat
0 STEP
1 0 -69.346620 -43.858860 -183.999900 -0.000001 0.000001 1.000001 0.168474 0.985706 -0.000001 -0.985707 0.168474 -0.000001 30391.dat
1 71 -69.089900 -43.859000 -183.999900 0.000001 0.000000 1.000001 0.985706 -0.168474 -0.000001 0.168474 0.985707 0.000000 55982.dat
0 STEP
1 71 -39.000060 -103.859100 56.000060 -1.000001 0.000000 0.000000 0.000000 0.000000 1.000000 0.000000 1.000001 0.000000 4519.dat
1 1 -38.999940 -103.859100 56.000060 0.000001 1.000000 -0.000001 0.000001 0.000001 1.000000 1.000000 -0.000001 -0.000001 32140.dat
0 STEP
1 19 -48.999980 -43.859060 76.000110 -1.000000 -0.000001 0.000001 0.000001 0.113201 0.993572 -0.000001 0.993572 -0.113201 3749.dat
1 0 -49.000080 -83.859120 56.000160 -1.000001 0.000000 0.000000 0.000000 1.000000 0.000000 0.000000 0.000000 -1.000001 2780.dat
0 STEP
1 1 -39.000000 -123.859100 56.000060 -1.000001 0.000000 0.000000 0.000000 1.000000 0.000000 0.000000 0.000000 -1.000001 6558.dat
1 72 -58.999990 -43.859060 75.999880 0.000000 0.000000 1.000000 -0.113200 0.993573 0.000000 -0.993573 -0.113200 0.000000 3648b.dat
0 STEP
1 15 -59.000020 -123.859100 56.000060 0.000001 1.000001 0.000001 0.000001 0.000001 -1.000000 -1.000001 0.000001 -0.000001 32316.dat
0 STEP
1 19 -29.000000 -43.859120 55.999960 1.000000 0.000001 -0.000001 0.000001 0.000001 1.000000 0.000001 -1.000000 0.000001 3749.dat
0 STEP
1 19 30.999960 -43.859100 55.999950 -1.000000 -0.000001 0.000001 0.000001 0.000001 1.000000 -0.000001 1.000000 -0.000001 3749.dat
1 4 0.999960 -43.859020 55.998860 0.000000 0.000000 -1.000000 0.000000 -1.000002 0.000000 -1.000002 0.000000 0.000000 32034.dat
0 STEP
1 1 41.000080 -103.859100 56.000050 0.000001 1.000000 -0.000001 0.000001 0.000001 1.000000 1.000000 -0.000001 -0.000001 32140.dat
1 71 41.000100 -103.859100 55.999840 -1.000001 0.000000 0.000000 0.000000 0.000000 1.000000 0.000000 1.000001 0.000000 4519.dat
1 19 51.000000 -43.859080 75.999870 1.000000 0.000001 -0.000001 0.000001 -0.173652 0.984807 0.000001 -0.984807 -0.173652 3749.dat
0 STEP
1 0 51.000020 -83.859120 56.000060 -1.000001 0.000000 0.000000 0.000000 1.000000 0.000000 0.000000 0.000000 -1.000001 2780.dat
1 1 41.000040 -123.859100 56.000040 -1.000001 0.000000 0.000000 0.000000 -1.000000 0.000000 0.000000 0.000000 1.000001 6558.dat
0 STEP
1 1 41.000080 -243.859200 -143.999900 0.000000 1.000001 0.000000 1.000000 0.000000 0.000000 0.000000 0.000000 -1.000001 32009.dat
1 0 51.000100 -203.859100 -143.999900 -1.000001 0.000000 0.000000 0.000000 1.000000 0.000000 0.000000 0.000000 -1.000001 2780.dat
1 0 51.000100 -183.859100 -144.000000 -1.000001 0.000000 0.000000 0.000000 1.000000 0.000000 0.000000 0.000000 -1.000001 2780.dat
0 STEP
1 15 61.000040 -123.859100 56.000040 -0.000001 -1.000001 -0.000001 0.000001 0.000001 -1.000000 1.000001 -0.000001 0.000001 32316.dat
1 15 61.000060 -143.859100 -144.000000 -0.000001 -1.000001 -0.000001 -0.000001 -0.000001 1.000000 -1.000001 0.000001 -0.000001 32524.dat
0 STEP
1 72 61.000020 -43.859060 75.999860 0.000000 0.000000 1.000000 -0.173654 0.984807 0.000000 -0.984807 -0.173654 0.000000 3648b.dat
1 0 91.436950 -43.859120 -184.000400 0.000000 0.000000 -1.000003 -0.985706 -0.168475 0.000000 -0.168474 0.985714 0.000000 30391.dat
1 71 91.180160 -43.859180 -183.999900 0.000000 0.000001 -1.000001 -0.168474 0.985706 0.000001 0.985707 0.168474 0.000000 55982.dat
0 STEP
0 STEP
0 NOFILE
0 FILE SubModel Group 9 Copy Copy Copy
0 SubModel Group 9 Copy Copy Copy
0 Name:  SubModel Group 9 Copy Copy Copy
0 Author:  
0 CustomBrick
0 NumOfBricks:  3
1 72 10.000000 -1.128810 -10.000000 1.000000 0.000000 0.000000 0.000000 0.000000 -1.000000 0.000000 1.000000 0.000000 dch003.dat
1 71 -27.466620 -79.717990 29.427020 1.000000 0.000000 0.000000 0.000000 0.000000 -1.000000 0.000000 1.000000 0.000000 dch004.dat
1 25 7.837010 13.484720 -9.965000 1.000000 0.000000 0.000000 0.000000 0.000000 -1.000000 0.000000 1.000000 0.000000 dch005.dat
0 NOFILE
