0 FILE BLK011机械昆虫_Copy.io
0 Untitled Model
0 Name:  BLK011机械昆虫_Copy
0 Author:  
0 CustomBrick
0 NumOfBricks:  123
1 0 354.013300 -271.222100 133.482100 -1.000000 0.000000 0.000000 0.000000 0.000000 -1.000000 0.000000 -1.000000 0.000000 2780.dat
1 1 344.013300 -271.222200 133.482100 -1.000000 0.000000 0.000000 0.000000 0.000000 -1.000000 0.000000 -1.000000 0.000000 14720.dat
0 STEP
1 0 344.013200 -231.222100 113.482000 0.000000 -0.999999 0.000000 0.000000 0.000000 -1.000000 1.000000 0.000000 0.000000 44294.dat
1 71 344.513200 -231.222100 113.482100 0.000000 0.999999 0.000000 1.000000 0.000000 0.000001 0.000001 0.000000 -1.000000 3713.dat
0 STEP
1 0 364.013300 -231.222100 113.482100 0.000000 -0.999999 0.000000 0.000000 0.000000 1.000000 -1.000000 0.000000 0.000000 44294.dat
0 STEP
1 15 364.013200 -231.222100 148.482000 0.000000 0.000000 -1.000000 -1.000000 0.000000 0.000000 0.000000 1.000001 0.000000 41677.dat
0 STEP
1 1 324.013200 -231.222200 163.482000 -0.000001 -0.000001 0.999999 1.000000 -0.000001 0.000001 0.000001 1.000001 0.000001 64871.dat
0 STEP
1 15 364.013300 -231.222100 178.482100 0.000000 0.000000 -1.000000 -1.000000 0.000000 0.000000 0.000000 1.000001 0.000000 41677.dat
1 71 444.013200 -231.222100 173.482000 0.000000 0.000000 0.999999 0.000000 -1.000000 0.000000 1.000000 0.000000 0.000000 3673.dat
0 STEP
1 0 304.013300 -231.222100 113.482100 0.000000 -0.999999 0.000000 0.000000 0.000000 -1.000000 1.000000 0.000000 0.000000 3707.dat
0 STEP
1 1 304.013300 -231.222100 183.482000 -1.000000 -0.000001 0.000001 0.000001 -0.000001 1.000000 -0.000001 1.000001 0.000001 60483.dat
0 STEP
1 71 304.013300 -231.222100 148.482000 1.000000 0.000000 0.000000 0.000000 1.000000 0.000000 0.000000 0.000000 1.000000 32123a.dat
1 71 303.513300 -231.222100 133.482000 0.000000 -0.999999 0.000000 -1.000000 0.000000 -0.000001 0.000001 0.000000 -1.000000 3713.dat
0 STEP
1 14 304.013300 -231.222100 113.482000 0.000000 0.999999 0.000000 1.000000 0.000000 0.000000 0.000000 0.000000 -1.000000 3648b.dat
0 STEP
1 71 303.513300 -231.222100 93.481990 0.000000 -0.999999 0.000000 -1.000000 0.000000 -0.000001 0.000001 0.000000 -1.000000 3713.dat
1 71 304.013300 -231.222100 78.482020 1.000000 0.000000 0.000000 0.000000 1.000000 0.000000 0.000000 0.000000 1.000000 32123a.dat
0 STEP
1 71 344.013300 -311.222100 113.482100 0.000001 -1.000000 0.000001 1.000000 0.000001 -0.000001 0.000001 0.000001 1.000000 48989.dat
0 STEP
1 16 230.000000 -156.000000 110.000000 1.000000 0.000000 0.000000 0.000000 1.000000 0.000000 0.000000 0.000000 1.000000 submodel group 7
0 STEP
1 0 314.017400 -271.222500 113.498200 -0.999999 0.000000 0.000000 0.000000 -0.763949 -0.645277 0.000000 -0.645277 0.763949 3706.dat
1 71 279.017500 -271.222400 113.498200 0.000000 0.000000 -0.999999 -0.763949 -0.645277 0.000000 -0.645277 0.763949 0.000000 32123a.dat
0 STEP
1 71 304.017400 -271.604500 113.175600 0.000000 0.000000 0.999999 -0.645277 -0.763949 0.000000 0.763949 -0.645277 0.000000 4716.dat
0 STEP
1 71 334.017400 -270.840400 113.820800 -0.000001 0.000000 0.999999 0.645277 0.763949 0.000000 -0.763949 0.645277 0.000000 3713.dat
0 STEP
1 71 349.017400 -271.222400 113.498200 0.000000 0.000000 -0.999999 0.763949 0.645277 0.000000 0.645277 -0.763949 0.000000 32123a.dat
0 STEP
1 1 344.013300 -271.222200 93.482070 -1.000000 0.000000 0.000000 0.000000 0.000000 -1.000000 0.000000 -1.000000 0.000000 14720.dat
0 STEP
1 0 354.013300 -271.222100 93.482070 -1.000000 0.000000 0.000000 0.000000 0.000000 -1.000000 0.000000 -1.000000 0.000000 2780.dat
0 STEP
1 15 364.013200 -231.222100 78.482100 0.000000 0.000000 -1.000000 -1.000000 0.000000 0.000000 0.000000 1.000001 0.000000 41677.dat
0 STEP
1 16 430.000000 -216.000000 110.000000 1.000000 0.000000 0.000000 0.000000 1.000000 0.000000 0.000000 0.000000 1.000000 submodel group 6
0 STEP
1 0 484.013200 -231.222100 133.482000 0.000000 0.999999 0.000000 0.000000 0.000000 1.000000 1.000000 0.000000 0.000000 2780.dat
1 0 544.013200 -231.222100 133.482000 0.000000 0.999999 0.000000 0.000000 0.000000 1.000000 1.000000 0.000000 0.000000 2780.dat
0 STEP
1 1 484.013100 -231.222100 143.482000 0.000001 0.000001 0.999999 -1.000000 0.000001 0.000001 -0.000001 -1.000000 0.000001 32526.dat
0 STEP
1 1 324.013200 -231.222200 63.482020 -0.000001 -0.000001 0.999999 1.000000 -0.000001 0.000001 0.000001 1.000001 0.000001 64871.dat
0 STEP
1 0 484.013200 -231.222100 93.482040 0.000000 0.999999 0.000000 0.000000 0.000000 1.000000 1.000000 0.000000 0.000000 2780.dat
1 0 544.013200 -231.222100 93.482040 0.000000 0.999999 0.000000 0.000000 0.000000 1.000000 1.000000 0.000000 0.000000 2780.dat
0 STEP
1 1 484.013200 -231.222100 83.482060 0.000001 0.000001 0.999999 -1.000000 0.000001 0.000001 -0.000001 -1.000000 0.000001 32526.dat
0 STEP
1 71 444.013100 -231.222100 53.482070 0.000000 0.000000 0.999999 0.000000 -1.000000 0.000000 1.000000 0.000000 0.000000 3673.dat
0 STEP
1 15 364.013300 -231.222100 48.482080 0.000000 0.000000 -1.000000 1.000000 0.000000 0.000000 0.000000 -1.000001 0.000000 41677.dat
0 STEP
1 0 184.013500 -231.222100 53.482100 0.000000 0.999999 0.000000 0.000000 0.000000 1.000000 1.000000 0.000000 0.000000 2780.dat
1 0 224.013300 -231.222100 53.482100 0.000000 0.999999 0.000000 0.000000 0.000000 1.000000 1.000000 0.000000 0.000000 2780.dat
0 STEP
1 1 304.013300 -231.222100 43.482010 -1.000000 -0.000001 0.000001 0.000001 -0.000001 1.000000 -0.000001 1.000001 0.000001 60483.dat
0 STEP
1 16 60.000000 -216.000000 60.000000 1.000000 0.000000 0.000000 0.000000 1.000000 0.000000 0.000000 0.000000 1.000000 submodel group 5
0 STEP
1 71 34.017700 -191.221900 113.466000 0.000000 0.999999 0.000000 1.000000 0.000000 0.000000 0.000000 0.000000 -1.000000 18171.dat
0 STEP
1 71 44.022100 -231.722100 153.482000 0.999999 0.000000 0.000001 0.000000 -1.000000 0.000000 0.000001 0.000000 -1.000000 3713.dat
0 STEP
1 71 44.022100 -231.222100 168.482000 0.999999 0.000000 0.000000 0.000000 1.000000 0.000000 0.000000 0.000000 1.000000 32123a.dat
0 STEP
1 0 184.013700 -231.221900 173.481900 0.000000 1.000000 0.000000 0.000000 0.000000 1.000000 1.000000 0.000000 0.000000 2780.dat
1 0 224.013700 -231.221900 173.481900 0.000000 1.000000 0.000000 0.000000 0.000000 1.000000 1.000000 0.000000 0.000000 2780.dat
0 STEP
1 1 124.013700 -231.222000 183.482000 0.000001 0.000001 -1.000000 -1.000000 0.000001 -0.000001 0.000001 1.000001 0.000001 64290.dat
0 STEP
1 71 44.022100 -231.722100 203.482100 0.999999 0.000000 0.000001 0.000000 -1.000000 0.000000 0.000001 0.000000 -1.000000 3713.dat
0 STEP
1 71 164.013500 -231.222100 193.482000 0.000000 0.000000 0.999999 0.000000 -1.000000 0.000000 1.000000 0.000000 0.000000 3673.dat
0 STEP
1 15 170.285100 -171.550800 203.482100 0.994521 -0.000001 0.104529 -0.104529 -0.000001 0.994522 -0.000001 -1.000000 -0.000001 32524.dat
0 STEP
1 71 164.013600 -231.222100 33.482100 0.000000 0.000000 0.999999 0.000000 -1.000000 0.000000 1.000000 0.000000 0.000000 3673.dat
0 STEP
1 15 170.285200 -171.550800 23.482090 0.994521 -0.000001 0.104529 -0.104529 -0.000001 0.994522 -0.000001 -1.000000 -0.000001 32524.dat
0 STEP
1 19 304.013300 -211.222100 23.481980 0.000000 0.000000 -0.999999 0.000000 -1.000000 0.000000 -1.000000 0.000000 0.000000 32556.dat
1 19 304.013300 -211.222100 203.482100 0.000000 0.000000 0.999999 0.000000 -1.000000 0.000000 1.000000 0.000000 0.000000 32556.dat
0 STEP
1 15 437.741400 -171.550800 183.482100 0.994522 0.000000 -0.104528 0.104528 -0.000001 0.994522 -0.000001 -1.000000 -0.000001 32524.dat
1 71 431.469700 -111.879500 193.482000 0.000000 0.000000 0.999999 0.000000 -1.000000 0.000000 1.000000 0.000000 0.000000 3673.dat
0 STEP
1 15 437.741400 -171.550800 43.482100 0.994521 0.000000 -0.104528 0.104528 -0.000001 0.994522 -0.000001 -1.000000 -0.000001 32524.dat
1 71 431.469700 -111.879500 33.482060 0.000000 0.000000 0.999999 0.000000 -1.000000 0.000000 1.000000 0.000000 0.000000 3673.dat
0 STEP
1 71 176.557000 -111.879500 13.482090 0.000000 0.000000 0.999999 0.000000 -1.000000 0.000000 1.000000 0.000000 0.000000 3673.dat
1 71 176.556900 -111.879500 213.482000 0.000000 0.000000 0.999999 0.000000 -1.000000 0.000000 1.000000 0.000000 0.000000 3673.dat
0 STEP
1 1 414.334400 -125.029500 203.482100 0.615661 -0.000001 0.788010 -0.788011 0.000000 0.615661 -0.000001 -1.000000 -0.000001 64871.dat
1 1 414.334100 -125.029400 23.482070 0.615661 -0.000001 0.788010 -0.788011 0.000000 0.615661 -0.000001 -1.000000 -0.000001 64871.dat
0 STEP
1 16 150.000000 -24.000000 -10.000000 0.788011 0.615662 0.000000 -0.615662 0.788011 0.000001 0.000000 -0.000001 1.000000 submodel group 3
1 16 150.000000 -24.000000 230.000000 0.788011 0.615662 0.000000 -0.615662 0.788011 0.000001 0.000000 -0.000001 1.000000 submodel group 4
0 STEP
1 19 524.656100 -38.836790 213.482000 0.000001 -0.999999 0.000001 -0.000001 -0.000001 -1.000000 1.000000 0.000001 -0.000001 3749.dat
1 19 524.655800 -38.836790 13.481960 0.000001 -1.000000 0.000001 0.000001 0.000001 1.000000 -1.000000 -0.000001 0.000001 3749.dat
0 STEP
1 0 83.370570 -38.836760 -6.518010 0.000000 0.000000 0.999999 0.000000 -1.000000 0.000000 1.000000 0.000000 0.000000 3705.dat
1 71 83.370670 -39.336760 23.481980 0.999999 0.000000 0.000001 0.000000 -1.000000 0.000000 0.000001 0.000000 -1.000000 3713.dat
0 STEP
1 71 83.370670 -38.836760 -16.518010 -0.999999 0.000000 -0.000001 0.000000 -1.000000 0.000000 -0.000001 0.000000 1.000000 94925.dat
0 STEP
1 0 81.995790 -38.000010 233.482000 0.000000 0.000000 -0.999999 0.000000 -1.000000 0.000000 -1.000000 0.000000 0.000000 3705.dat
1 71 81.995790 -38.500000 203.482100 -0.999999 0.000000 -0.000001 0.000000 -1.000000 0.000000 -0.000001 0.000000 1.000000 3713.dat
0 STEP
1 71 81.995790 -38.000010 243.482000 -0.999999 0.000000 -0.000001 0.000000 -1.000000 0.000000 -0.000001 0.000000 1.000000 94925.dat
0 STEP
1 0 81.995790 -38.000010 273.738700 0.999999 0.000000 0.000001 0.000000 -1.000000 0.000000 0.000001 0.000000 -1.000000 30391.dat
1 71 81.995790 -38.000000 273.482000 0.000000 -0.999999 0.000000 -1.000000 0.000000 0.000000 0.000000 0.000000 -1.000000 55982.dat
1 0 83.370670 -38.836770 -48.774700 -0.999999 0.000000 -0.000001 0.000000 -1.000000 0.000000 -0.000001 0.000000 1.000000 30391.dat
1 71 83.370790 -38.836770 -48.518000 0.000000 0.999999 0.000000 -1.000000 0.000000 0.000000 0.000000 0.000000 1.000000 55982.dat
0 STEP
1 0 524.656100 -38.836790 233.738700 0.999999 0.000000 0.000001 0.000000 -1.000000 0.000000 0.000001 0.000000 -1.000000 30391.dat
1 71 524.656100 -38.836790 233.482000 0.000000 -0.999999 0.000000 -1.000000 0.000000 0.000000 0.000000 0.000000 -1.000000 55982.dat
1 0 524.655800 -38.836780 -6.774730 -0.999999 0.000000 -0.000001 0.000000 -1.000000 0.000000 -0.000001 0.000000 1.000000 30391.dat
1 71 524.655800 -38.836770 -6.518040 0.000000 0.999999 0.000000 -1.000000 0.000000 0.000000 0.000000 0.000000 1.000000 55982.dat
0 STEP
1 15 356.008000 -271.300000 113.178500 0.000000 0.000000 1.000000 0.000000 1.000000 0.000000 -1.000000 0.000000 0.000000 dx0043.dat
0 STEP
1 1 564.013100 -231.222100 153.482000 0.000000 0.000000 0.999999 0.000000 -1.000000 0.000000 1.000000 0.000000 0.000000 43093.dat
1 1 564.013100 -231.222100 73.482060 0.000000 0.000000 0.999999 0.000000 1.000000 0.000000 -1.000000 0.000000 0.000000 43093.dat
0 STEP
1 71 564.013100 -231.222100 53.482060 0.000000 0.999999 0.000000 -1.000000 0.000000 0.000000 0.000000 0.000000 1.000000 55982.dat
0 STEP
1 71 564.012900 -231.222100 173.482100 0.000000 -0.999999 0.000000 -1.000000 0.000000 0.000000 0.000000 0.000000 -1.000000 55982.dat
0 STEP
1 16 600.000000 -252.000000 160.000000 0.707107 -0.707106 0.000000 0.707106 0.707107 0.000000 0.000000 0.000000 1.000000 submodel group 2
1 16 600.000000 -252.000000 60.000000 0.707109 0.707104 0.000000 -0.707104 0.707109 0.000000 0.000000 0.000000 1.000000 submodel group 1
0 STEP
0 STEP
0 NOFILE
0 FILE SubModel Group 7
0 SubModel Group 7
0 Name:  SubModel Group 7
0 Author:  
0 CustomBrick
0 NumOfBricks:  9
1 16 -149.000000 -5.539400 14.000000 1.000000 0.000000 0.000000 0.000000 1.000000 0.000000 0.000000 0.000000 1.000000 submodel group 9 copy copy copy
0 STEP
1 0 14.013400 -75.222110 3.482090 0.000000 0.000000 0.999999 0.000000 1.000000 0.000000 -1.000000 0.000000 0.000000 3706.dat
0 STEP
1 71 14.013320 -75.222110 38.482100 0.000000 0.999999 0.000000 -1.000000 0.000000 0.000000 0.000000 0.000000 1.000000 32123a.dat
1 71 14.013400 -75.222110 -31.517900 0.000000 0.999999 0.000000 -1.000000 0.000000 0.000000 0.000000 0.000000 1.000000 32123a.dat
0 STEP
1 0 24.017490 -115.221800 23.465900 1.000000 0.000000 0.000000 0.000000 -1.000000 0.000000 0.000000 0.000000 -1.000000 2780.dat
1 0 24.017400 -115.221800 -16.534070 1.000000 0.000000 0.000000 0.000000 -1.000000 0.000000 0.000000 0.000000 -1.000000 2780.dat
0 STEP
1 1 34.017490 -115.221800 3.466000 -0.000001 -1.000000 -0.000001 -1.000000 0.000001 -0.000001 0.000001 0.000001 -1.000001 32523.dat
0 STEP
0 NOFILE
0 FILE SubModel Group 9 Copy Copy Copy
0 SubModel Group 9 Copy Copy Copy
0 Name:  SubModel Group 9 Copy Copy Copy
0 Author:  
0 CustomBrick
0 NumOfBricks:  3
1 72 10.000000 -1.128810 -10.000000 1.000000 0.000000 0.000000 0.000000 0.000000 -1.000000 0.000000 1.000000 0.000000 dch003.dat
1 71 -27.466620 -79.717990 29.427020 1.000000 0.000000 0.000000 0.000000 0.000000 -1.000000 0.000000 1.000000 0.000000 dch004.dat
1 25 7.837010 13.484720 -9.965000 1.000000 0.000000 0.000000 0.000000 0.000000 -1.000000 0.000000 1.000000 0.000000 dch005.dat
0 NOFILE
0 FILE SubModel Group 6
0 SubModel Group 6
0 Name:  SubModel Group 6
0 Author:  
0 CustomBrick
0 NumOfBricks:  10
1 15 -5.986790 -15.222110 -26.517980 -0.000001 -0.000001 1.000000 1.000000 -0.000001 0.000001 0.000001 1.000000 0.000001 32316.dat
0 STEP
1 1 -45.986700 -15.222110 -26.517920 0.000000 1.000000 0.000000 0.000000 0.000000 1.000000 1.000000 0.000000 0.000000 6558.dat
1 1 34.013220 -15.222110 -26.517920 0.000000 1.000000 0.000000 0.000000 0.000000 1.000000 1.000000 0.000000 0.000000 6558.dat
0 STEP
1 15 34.013220 -15.222200 -6.518010 -0.000001 -0.000001 1.000000 1.000000 -0.000001 0.000001 0.000001 1.000000 0.000001 40490.dat
0 STEP
1 0 -25.986760 -15.222110 3.482090 0.000000 1.000000 0.000000 0.000000 0.000000 -1.000000 -1.000000 0.000000 0.000000 2780.dat
1 0 14.013220 -15.222110 3.482090 0.000000 1.000000 0.000000 0.000000 0.000000 -1.000000 -1.000000 0.000000 0.000000 2780.dat
0 STEP
1 15 34.013220 -15.222200 13.482010 -0.000001 -0.000001 1.000000 1.000000 -0.000001 0.000001 0.000001 1.000000 0.000001 40490.dat
0 STEP
1 1 34.013220 -15.222110 33.482000 0.000000 0.999999 0.000000 0.000000 0.000000 -1.000000 -1.000000 0.000000 0.000000 6558.dat
1 1 -45.986700 -15.222110 33.482000 0.000000 0.999999 0.000000 0.000000 0.000000 -1.000000 -1.000000 0.000000 0.000000 6558.dat
1 15 -5.986690 -15.222200 33.482000 -0.000001 -0.000001 1.000000 1.000000 -0.000001 0.000001 0.000001 1.000000 0.000001 32316.dat
0 STEP
0 NOFILE
0 FILE SubModel Group 5
0 SubModel Group 5
0 Name:  SubModel Group 5
0 Author:  
0 CustomBrick
0 NumOfBricks:  5
1 0 -15.986320 -15.222110 53.482010 0.000000 0.000000 -0.999999 0.000000 1.000000 0.000000 1.000000 0.000000 0.000000 3737.dat
0 STEP
1 71 -15.977900 -15.722110 13.482040 -0.999999 0.000000 -0.000001 0.000000 -1.000000 0.000000 -0.000001 0.000000 1.000000 3713.dat
1 71 -15.977840 -15.222110 -1.517960 0.999999 0.000000 0.000000 0.000000 1.000000 0.000000 0.000000 0.000000 1.000000 32123a.dat
0 STEP
1 1 64.013710 -15.222000 -16.517940 0.000001 0.000001 -1.000000 -1.000000 0.000001 -0.000001 0.000001 1.000001 0.000001 64290.dat
0 STEP
1 71 -15.977900 -15.722110 -36.518000 -0.999999 0.000000 -0.000001 0.000000 -1.000000 0.000000 -0.000001 0.000000 1.000000 3713.dat
0 STEP
0 NOFILE
0 FILE SubModel Group 3
0 SubModel Group 3
0 Name:  SubModel Group 3
0 Author:  
0 CustomBrick
0 NumOfBricks:  3
1 1 96.629810 -52.712800 13.481930 0.000001 0.000001 -0.999999 -1.000000 0.000000 0.000000 0.000000 1.000000 0.000001 64871.dat
1 19 16.629980 -52.712740 3.481960 0.000000 0.788011 0.615661 -0.000001 0.615660 -0.788011 -1.000000 -0.000001 0.000000 3749.dat
0 STEP
1 1 4.316740 -36.952520 -6.518030 0.000000 -0.615662 -0.788010 -0.000001 0.788011 -0.615661 1.000000 0.000001 0.000000 42003.dat
0 STEP
0 NOFILE
0 FILE SubModel Group 4
0 SubModel Group 4
0 Name:  SubModel Group 4
0 Author:  
0 CustomBrick
0 NumOfBricks:  3
1 1 95.031120 -52.899760 -6.518160 0.000001 0.000001 -0.999999 -1.000000 0.000000 0.000000 0.000000 1.000000 0.000001 64871.dat
1 19 15.031290 -52.899900 3.481960 0.000002 -0.788009 0.615662 -0.000001 -0.615662 -0.788010 1.000000 0.000001 -0.000002 3749.dat
0 STEP
1 1 2.718060 -37.139690 13.481970 0.000000 -0.615662 -0.788010 -0.000001 0.788011 -0.615661 1.000000 0.000001 0.000000 42003.dat
0 STEP
0 NOFILE
0 FILE SubModel Group 2
0 SubModel Group 2
0 Name:  SubModel Group 2
0 Author:  
0 CustomBrick
0 NumOfBricks:  7
1 1 -39.038750 11.854680 -6.518010 0.000000 -1.000000 0.000000 0.000000 -0.000001 -1.000000 1.000000 0.000000 0.000000 43093.dat
1 71 -39.038720 -8.145579 3.481990 0.000000 0.999999 0.000001 0.000000 0.000002 -1.000000 -1.000000 0.000000 0.000000 32039.dat
0 STEP
1 15 -39.038800 -18.145380 3.481990 0.000000 0.999999 0.000000 1.000000 0.000002 0.000000 0.000000 0.000000 -1.000000 32062.dat
0 STEP
1 71 -39.038710 -48.145300 3.482100 1.000000 0.000002 0.000003 0.000004 0.000002 -1.000000 -0.000002 1.000000 0.000002 32013.dat
0 STEP
1 0 -49.038720 -48.145360 3.481990 -0.999999 0.000000 0.000000 -0.000002 0.000000 -1.000000 0.000000 -1.000000 0.000000 2780.dat
0 STEP
1 71 -59.038680 -48.145280 3.481990 1.000000 0.000002 0.000002 0.000000 -0.000002 0.999999 0.000002 -1.000000 -0.000002 32013.dat
0 STEP
1 0 -59.038760 -160.145200 3.482100 0.000000 0.000000 0.999999 -1.000000 0.000000 0.000002 0.000000 -1.000000 0.000000 60485.dat
0 STEP
0 NOFILE
0 FILE SubModel Group 1
0 SubModel Group 1
0 Name:  SubModel Group 1
0 Author:  
0 CustomBrick
0 NumOfBricks:  7
1 1 -11.854680 -39.038590 13.482060 0.000000 -0.000002 1.000000 0.000000 1.000000 0.000000 -1.000000 0.000000 0.000000 43093.dat
0 STEP
1 71 8.145300 -39.038610 3.482040 0.000000 -0.000002 1.000000 0.000000 1.000000 0.000000 -1.000000 0.000000 0.000000 32039.dat
0 STEP
1 15 18.145290 -39.038580 3.482040 -1.000000 -0.000002 0.000000 0.000000 1.000000 0.000000 0.000000 0.000000 -1.000000 32062.dat
0 STEP
1 71 48.145280 -39.038510 3.482120 -0.000004 -0.000002 0.999999 0.999999 0.000002 0.000002 -0.000002 1.000000 0.000002 32013.dat
0 STEP
1 0 48.145320 -49.038650 3.482060 0.000002 0.000000 1.000000 -1.000000 0.000000 0.000000 0.000000 -1.000000 0.000000 2780.dat
0 STEP
1 71 48.145290 -59.038530 3.482000 0.000001 0.000002 -1.000000 1.000000 0.000002 0.000003 0.000002 -1.000000 -0.000002 32013.dat
0 STEP
1 0 160.145200 -59.038600 3.482100 1.000000 0.000000 -0.000002 0.000000 0.000000 1.000000 0.000000 -1.000000 0.000000 60485.dat
0 STEP
0 NOFILE
