0 FILE BLK004火车头_Copy.io
0 Untitled Model
0 Name:  BLK004火车头_Copy
0 Author:  
0 CustomBrick
0 NumOfBricks:  118
1 1 104.044000 -51.949840 -23.548860 0.000372 -0.000014 -1.000000 1.000000 -0.000410 0.000372 -0.000410 -1.000000 0.000014 64290.dat
0 STEP
1 71 164.044100 -51.963820 -3.549900 0.000372 -1.000000 0.000015 1.000000 0.000372 0.000409 -0.000409 0.000015 1.000000 48989.dat
1 71 84.044120 -51.934140 -3.548680 0.000372 -1.000000 0.000015 1.000000 0.000372 0.000409 -0.000409 0.000015 1.000000 48989.dat
0 STEP
1 1 104.044600 -51.933420 16.451020 0.000372 -0.000014 -1.000000 1.000000 -0.000410 0.000372 -0.000410 -1.000000 0.000014 64290.dat
0 STEP
1 0 204.044500 -51.966400 26.449510 0.000016 -0.000379 1.000000 0.000408 -1.000000 -0.000379 1.000000 0.000408 -0.000016 2780.dat
1 0 164.044600 -51.951480 26.450180 0.000014 -0.000379 1.000000 0.000412 -1.000000 -0.000379 1.000000 0.000412 -0.000014 2780.dat
0 STEP
1 71 44.044640 -51.906760 26.451890 -0.000014 -0.000362 -1.000000 -0.000407 -1.000000 0.000362 -1.000000 0.000407 0.000014 3673.dat
1 0 4.044670 -51.892320 26.452470 -0.000014 -0.925417 -0.378952 -0.000409 -0.378952 0.925417 -1.000000 0.000168 -0.000373 2780.dat
0 STEP
1 1 4.016680 -131.888400 36.484960 1.000000 -0.000015 0.000352 -0.000352 -0.000406 1.000000 -0.000015 -1.000000 -0.000406 32526.dat
0 STEP
1 71 44.043740 -51.931360 -33.548130 -0.000014 -0.000359 -1.000000 -0.000403 -1.000000 0.000359 -1.000000 0.000403 0.000014 3673.dat
1 0 4.043760 -51.916980 -33.547530 -0.000014 -0.925416 -0.378955 -0.000415 -0.378956 0.925415 -1.000000 0.000170 -0.000378 2780.dat
0 STEP
1 16 0.000000 -84.000000 0.000000 1.000000 0.000000 0.000000 0.000000 1.000000 0.000000 0.000000 0.000000 1.000000 submodel group 5
0 STEP
1 1 4.015930 -131.921500 -43.515020 1.000000 -0.000016 0.000346 -0.000346 -0.000406 1.000000 -0.000016 -1.000000 -0.000406 32526.dat
0 STEP
1 0 204.043600 -51.991080 -33.550500 0.000016 0.927891 0.372853 0.000412 -0.372852 0.927891 1.000000 0.000139 -0.000389 2780.dat
1 0 164.043700 -51.976060 -33.549840 0.000016 0.926212 0.377005 0.000409 -0.377006 0.926212 1.000000 0.000140 -0.000385 2780.dat
0 STEP
1 16 270.000000 -36.000000 0.000000 1.000000 0.000000 0.000000 0.000000 1.000000 0.000000 0.000000 0.000000 1.000000 submodel group 3
0 STEP
1 16 210.000000 -96.000000 0.000000 1.000000 0.000000 0.000000 0.000000 1.000000 0.000000 0.000000 0.000000 1.000000 submodel group 2
0 STEP
1 0 23.995200 -191.912800 -3.491030 0.000014 0.000362 -1.000000 0.000407 1.000000 0.000362 1.000000 -0.000407 0.000014 32073.dat
1 71 23.995940 -191.396500 36.508750 -1.000000 0.000362 -0.000015 0.000362 1.000000 -0.000407 0.000014 -0.000407 -1.000000 3713.dat
0 STEP
1 0 24.009640 -151.912700 -3.523200 0.000018 0.000363 -1.000000 0.000406 1.000000 0.000363 1.000000 -0.000406 0.000018 32073.dat
1 71 24.010570 -151.396500 36.476560 -1.000000 0.000363 -0.000019 0.000363 1.000000 -0.000406 0.000019 -0.000406 -1.000000 3713.dat
0 STEP
1 71 23.994800 -191.429000 -43.491220 1.000000 0.000362 0.000014 -0.000362 1.000000 0.000407 -0.000014 -0.000407 1.000000 3713.dat
1 71 24.009050 -151.428900 -43.523420 1.000000 0.000363 0.000019 -0.000363 1.000000 0.000406 -0.000019 -0.000406 1.000000 3713.dat
0 STEP
1 15 304.013400 -104.132700 -3.517980 0.000000 -1.000000 0.000000 0.000000 0.000000 -1.000000 1.000000 0.000000 0.000000 dx0048.dat
0 STEP
1 0 364.022000 -109.039500 -3.529460 -1.000000 0.000377 -0.000015 0.000377 1.000000 -0.000409 0.000015 -0.000409 -1.000000 11478.dat
0 STEP
1 0 364.018200 -119.039500 -3.525470 -1.000000 0.000377 -0.000015 0.000377 1.000000 -0.000409 0.000015 -0.000409 -1.000000 11478.dat
0 STEP
1 1 364.016600 -124.031400 16.476630 -0.000378 -0.000016 1.000000 -1.000000 -0.000410 -0.000378 0.000410 -1.000000 -0.000016 43093.dat
1 1 364.016100 -124.047800 -23.523380 -0.000378 -0.000016 1.000000 -1.000000 -0.000410 -0.000378 0.000410 -1.000000 -0.000016 43093.dat
0 STEP
1 71 364.012500 -134.039500 -2.894270 0.000378 -0.000016 -1.000000 1.000000 -0.000410 0.000378 -0.000410 -1.000000 0.000016 32184.dat
0 STEP
1 1 374.012400 -134.043500 -3.519470 1.000000 -0.000378 -0.000016 -0.000378 -1.000000 -0.000410 -0.000016 0.000410 -1.000000 43093.dat
0 STEP
1 0 394.269200 -134.051000 -3.519740 -0.000377 0.000016 -1.000000 -1.000000 0.000410 0.000377 0.000410 1.000000 0.000016 30391.dat
1 71 394.012400 -134.050900 -3.519740 0.000016 0.000378 -1.000000 0.000410 1.000000 0.000378 1.000000 -0.000410 0.000016 55982.dat
0 STEP
1 16 300.000000 -60.000000 0.000000 0.798421 0.000054 -0.602100 -0.000054 1.000000 0.000018 0.602100 0.000018 0.798421 submodel group 1
0 STEP
1 1 384.043500 -52.055300 -23.553240 0.000376 1.000000 -0.000016 1.000000 -0.000376 -0.000411 -0.000411 -0.000015 -1.000000 42003.dat
0 STEP
1 0 404.043300 -52.066940 -33.553640 0.000015 0.841277 0.540605 0.000410 -0.540605 0.841278 1.000000 0.000209 -0.000353 2780.dat
1 0 384.043200 -52.059400 -33.553260 0.000017 0.852564 0.522624 0.000410 -0.522624 0.852565 1.000000 0.000200 -0.000358 2780.dat
0 STEP
1 1 384.043800 -52.038980 16.446740 0.000379 1.000000 -0.000018 1.000000 -0.000379 -0.000410 -0.000410 -0.000018 -1.000000 42003.dat
0 STEP
1 0 404.043900 -52.042420 26.446460 0.000017 0.870343 0.492446 0.000410 -0.492446 0.870344 1.000000 0.000187 -0.000365 2780.dat
1 0 384.043900 -52.034840 26.446760 0.000017 0.984900 -0.173128 0.000411 0.173128 0.984899 1.000000 -0.000088 -0.000401 2780.dat
0 STEP
1 1 284.044400 -51.992880 36.448380 0.000380 -0.000015 -1.000000 1.000000 -0.000411 0.000380 -0.000411 -1.000000 0.000015 64871.dat
0 STEP
1 19 344.044100 -52.019660 46.447420 0.000000 -1.000000 0.000001 -0.000001 -0.000001 -1.000000 1.000000 0.000000 -0.000001 3749.dat
1 19 264.044100 -51.989320 46.448660 0.000000 -1.000000 0.000001 -0.000001 -0.000001 -1.000000 1.000000 0.000000 -0.000001 3749.dat
0 STEP
1 1 424.044200 -52.049980 26.446180 -0.000013 1.000000 -0.000319 -0.000410 -0.000319 -1.000000 -1.000000 -0.000013 0.000410 43093.dat
0 STEP
1 71 423.543800 -52.062120 -3.553800 -0.000319 -1.000000 -0.000013 -1.000000 0.000319 -0.000410 0.000410 0.000013 -1.000000 32034.dat
0 STEP
1 1 424.043400 -52.074540 -33.553810 0.000013 1.000000 0.000319 0.000410 -0.000319 1.000000 1.000000 -0.000013 -0.000410 43093.dat
0 STEP
1 0 304.043700 -52.016820 -3.552000 -0.000015 -0.509149 -0.860679 -0.000410 -0.860679 0.509149 -1.000000 0.000360 -0.000196 44294.dat
0 STEP
1 71 304.046800 -51.988740 56.448020 -0.860678 0.509150 0.000194 0.509150 0.860679 -0.000057 -0.000196 0.000050 -1.000000 3647.dat
0 STEP
1 19 304.473800 -52.278580 -21.051920 -0.509149 0.860678 0.000014 -0.860679 -0.509149 0.000409 0.000359 0.000196 0.999999 6589.dat
0 STEP
1 71 304.042400 -52.028820 -28.552000 -0.860678 -0.509150 -0.000195 0.509150 -0.860679 0.000055 -0.000196 -0.000052 1.000000 32123a.dat
0 STEP
1 1 284.043300 -52.025660 -43.551760 0.000379 0.000015 1.000000 1.000000 0.000410 -0.000379 -0.000409 1.000000 -0.000015 64871.dat
0 STEP
1 19 344.042800 -52.052400 -53.552640 -0.000022 -0.859439 -0.511239 -0.000407 -0.511239 0.859440 -1.000000 0.000227 -0.000339 3749.dat
1 19 264.043200 -52.022100 -53.551330 0.000001 -0.859520 -0.511102 -0.000412 -0.511102 0.859521 -1.000000 0.000209 -0.000354 3749.dat
0 STEP
1 71 304.045000 -52.037860 -63.552040 -0.860678 0.509150 0.000194 0.509150 0.860679 -0.000057 -0.000196 0.000050 -1.000000 3647.dat
0 STEP
1 0 4.037400 -71.905640 -3.539310 0.000014 -0.856010 -0.516959 0.000411 0.516959 -0.856011 1.000000 -0.000201 0.000359 3707.dat
1 71 4.038240 -71.880920 56.600690 -0.516959 -0.856010 -0.000014 -0.856010 0.516959 -0.000412 0.000360 -0.000201 -1.000000 3649.dat
0 STEP
1 71 4.037780 -71.873680 71.460720 -0.516959 -0.856010 -0.000099 -0.856011 0.516959 -0.000360 0.000359 -0.000101 -0.999999 32123a.dat
0 STEP
1 71 4.036560 -71.930390 -63.759300 -0.516959 -0.856010 -0.000014 -0.856010 0.516959 -0.000412 0.000360 -0.000201 -1.000000 3649.dat
0 STEP
1 71 4.035920 -71.936290 -78.759300 -0.516959 -0.856010 -0.000099 -0.856010 0.516959 -0.000360 0.000359 -0.000101 -1.000000 32123a.dat
0 STEP
1 14 344.042600 -52.056520 -63.552640 0.859439 -0.511239 0.000022 0.511239 0.859439 0.000408 -0.000227 -0.000339 1.000000 3648b.dat
1 14 264.043200 -52.026220 -63.551320 0.859520 -0.511103 0.000000 0.511103 0.859521 0.000412 -0.000210 -0.000355 1.000000 3648b.dat
0 STEP
1 71 340.560100 -65.767300 -73.547000 0.000018 0.264921 0.964270 0.000409 -0.964270 0.264921 1.000000 0.000389 -0.000125 3673.dat
1 71 260.559100 -65.736560 -73.545670 -0.000005 0.264844 0.964292 0.000412 -0.964291 0.264844 1.000000 0.000397 -0.000108 3673.dat
0 STEP
1 15 300.559200 -65.756000 -83.545810 0.000382 -0.000001 1.000000 1.000000 0.000410 -0.000382 -0.000410 1.000000 0.000002 32316.dat
0 STEP
1 14 344.044200 -52.019660 56.447440 1.000000 0.000000 -0.000001 0.000000 1.000000 0.000000 0.000001 0.000000 1.000000 3648b.dat
1 14 264.044300 -51.989320 56.448660 1.000000 0.000000 -0.000001 0.000000 1.000000 0.000000 0.000001 0.000000 1.000000 3648b.dat
0 STEP
1 71 334.044500 -62.011440 66.447480 0.000018 0.264921 0.964270 0.000409 -0.964270 0.264921 1.000000 0.000389 -0.000125 3673.dat
1 71 254.044600 -61.981120 66.448640 0.000018 0.264921 0.964270 0.000409 -0.964270 0.264921 1.000000 0.000389 -0.000125 3673.dat
0 STEP
1 15 294.044300 -61.992000 76.447750 0.000382 -0.000001 1.000000 0.999995 0.000410 -0.000382 -0.000410 1.000000 0.000002 32316.dat
0 STEP
0 NOFILE
0 FILE SubModel Group 5
0 SubModel Group 5
0 Name:  SubModel Group 5
0 Author:  
0 CustomBrick
0 NumOfBricks:  9
1 1 4.030120 -7.913310 -23.531220 -1.000000 -0.000015 -0.000346 0.000346 -0.000406 -1.000000 0.000014 -1.000000 0.000406 32140.dat
0 STEP
1 1 4.029930 -7.917430 -33.531240 0.000015 -1.000000 -0.000347 0.000406 0.000347 -1.000000 1.000000 0.000015 0.000406 43093.dat
1 71 4.016030 -47.917400 -33.514940 -0.000015 -0.000347 -1.000000 -0.000406 -1.000000 0.000347 -1.000000 0.000406 0.000015 3673.dat
0 STEP
1 1 4.009600 -67.905300 -3.506810 0.000015 -1.000000 -0.000361 0.000401 0.000361 -1.000000 1.000000 0.000015 0.000401 6558.dat
1 1 -15.990380 -67.898300 -3.506520 0.000015 -1.000000 -0.000361 0.000407 0.000361 -1.000000 1.000000 0.000015 0.000407 6558.dat
0 STEP
1 1 23.980640 -147.912700 -3.474810 -1.000000 0.000016 0.000363 0.000363 0.000406 1.000000 0.000016 1.000000 -0.000406 32526.dat
0 STEP
1 1 4.032250 -7.897620 16.468770 -1.000000 -0.000016 -0.000372 0.000372 -0.000408 -1.000000 0.000015 -1.000000 0.000408 32140.dat
0 STEP
1 1 4.030640 -7.892470 26.468670 -0.000016 1.000000 -0.000373 -0.000407 -0.000373 -1.000000 -1.000000 -0.000016 0.000407 43093.dat
1 71 4.016580 -47.892500 26.484970 -0.000016 -0.000373 -1.000000 -0.000407 -1.000000 0.000373 -1.000000 0.000407 0.000016 3673.dat
0 STEP
0 NOFILE
0 FILE SubModel Group 3
0 SubModel Group 3
0 Name:  SubModel Group 3
0 Author:  
0 CustomBrick
0 NumOfBricks:  34
1 15 -5.979100 -76.001800 -3.526750 -1.000000 -0.000380 0.000015 0.000380 -1.000000 0.000409 0.000015 0.000409 1.000000 32316.dat
1 1 -5.978910 -75.993700 16.473240 0.000381 -0.877588 -0.479417 1.000000 0.000137 0.000543 -0.000410 -0.479417 0.877588 6558.dat
0 STEP
1 1 -45.971300 -55.978500 16.465520 0.000014 -0.000378 1.000000 0.000409 -1.000000 -0.000378 1.000000 0.000409 -0.000014 64871.dat
0 STEP
1 0 -25.975110 -65.986100 16.469520 -0.000379 -0.000001 -1.000000 -1.000000 0.000411 0.000379 0.000411 1.000000 -0.000001 2780.dat
0 STEP
1 15 -25.979000 -75.994300 -3.526460 -1.000000 -0.000377 0.000015 0.000377 -1.000000 0.000409 0.000015 0.000409 1.000000 32316.dat
0 STEP
1 1 -5.979310 -76.009920 -23.526750 0.000382 -0.877588 -0.479417 1.000000 0.000138 0.000544 -0.000411 -0.479417 0.877588 6558.dat
0 STEP
1 0 -25.975600 -66.002510 -23.530570 -0.000378 0.000015 -1.000000 -1.000000 0.000410 0.000378 0.000410 1.000000 0.000015 2780.dat
0 STEP
1 1 -45.971880 -55.994920 -23.534480 0.000015 -0.000378 1.000000 0.000410 -1.000000 -0.000378 1.000000 0.000410 -0.000015 64871.dat
0 STEP
1 72 94.036300 -36.031320 16.455330 0.000378 0.000017 1.000000 1.000000 0.000410 -0.000378 -0.000410 1.000000 -0.000017 11214.dat
1 71 94.036300 -36.031280 16.455330 1.000000 -0.000379 -0.000018 -0.000379 -1.000000 -0.000411 -0.000018 0.000411 -1.000000 18654.dat
0 STEP
1 71 94.035860 -36.047720 -23.544780 1.000000 -0.000377 -0.000016 -0.000377 -1.000000 -0.000411 -0.000016 0.000411 -1.000000 18654.dat
1 72 94.035860 -36.047740 -23.544780 0.000376 0.000015 1.000000 1.000000 0.000410 -0.000376 -0.000410 1.000000 -0.000015 11214.dat
0 STEP
1 0 -25.974580 -65.977900 36.469410 -0.000378 -0.000001 -1.000000 -1.000000 0.000410 0.000378 0.000410 1.000000 -0.000001 2780.dat
1 0 -5.974700 -65.985500 36.469140 0.000380 0.346786 0.937944 1.000000 0.000253 -0.000498 -0.000410 0.937944 -0.346786 2780.dat
0 STEP
1 0 -5.975890 -66.018310 -43.530860 0.000380 0.540231 0.841517 1.000000 0.000140 -0.000541 -0.000410 0.841517 -0.540230 2780.dat
1 0 -25.975910 -66.010700 -43.530560 -0.000377 -0.000001 -1.000000 -1.000000 0.000410 0.000377 0.000410 1.000000 -0.000001 2780.dat
0 STEP
1 15 34.029120 -56.000530 36.464380 0.000015 -0.000379 1.000000 0.000409 -1.000000 -0.000378 1.000000 0.000409 -0.000015 32524.dat
1 15 34.027800 -56.033340 -43.535640 0.000015 -0.000379 1.000000 0.000409 -1.000000 -0.000378 1.000000 0.000409 -0.000015 32524.dat
0 STEP
1 16 -140.000000 0.000000 0.000000 1.000000 0.000000 0.000000 0.000000 1.000000 0.000000 0.000000 0.000000 1.000000 submodel group 4
0 STEP
1 0 34.024690 -66.008700 16.468480 0.000377 0.540246 -0.841508 1.000000 -0.000549 0.000096 -0.000410 -0.841507 -0.540246 2780.dat
0 STEP
1 0 54.025390 -66.008090 36.468190 0.000378 0.533407 0.845859 1.000000 0.000145 -0.000538 -0.000410 0.845858 -0.533407 2780.dat
1 0 74.024890 -66.023910 16.467920 0.000377 1.000000 -0.000015 1.000000 -0.000377 -0.000410 -0.000410 -0.000015 -1.000000 2780.dat
0 STEP
1 1 14.021610 -75.993000 36.472950 -0.000015 0.000378 1.000000 -0.000409 1.000000 -0.000378 -1.000000 -0.000409 -0.000014 32140.dat
0 STEP
1 0 74.024110 -66.040300 -23.532080 0.000377 1.000000 -0.000015 1.000000 -0.000377 -0.000410 -0.000410 -0.000015 -1.000000 2780.dat
1 0 34.024200 -66.025100 -23.531500 0.000377 0.535784 -0.844356 1.000000 -0.000548 0.000099 -0.000410 -0.844356 -0.535784 2780.dat
0 STEP
1 0 54.024110 -66.040900 -43.531820 0.000378 0.504311 0.863522 1.000000 0.000164 -0.000533 -0.000410 0.863521 -0.504311 2780.dat
0 STEP
1 1 14.020200 -76.025700 -43.527120 0.000015 -0.000377 1.000000 0.000410 -1.000000 -0.000377 1.000000 0.000410 -0.000015 32140.dat
0 STEP
1 1 94.025300 -66.023200 36.467640 -0.000378 -1.000000 -0.000016 -1.000000 0.000378 -0.000410 0.000410 0.000016 -1.000000 43093.dat
1 1 94.023990 -66.056000 -43.532460 -0.000378 -1.000000 -0.000016 -1.000000 0.000378 -0.000410 0.000410 0.000016 -1.000000 43093.dat
0 STEP
0 NOFILE
0 FILE SubModel Group 4
0 SubModel Group 4
0 Name:  SubModel Group 4
0 Author:  
0 CustomBrick
0 NumOfBricks:  6
1 1 54.036420 -35.971240 -3.541900 -0.000375 1.000000 0.000013 -1.000000 -0.000375 0.000412 0.000412 -0.000013 1.000000 6558.dat
1 1 -25.963410 -35.941470 -3.540770 -0.000374 1.000000 0.000013 -1.000000 -0.000374 0.000410 0.000410 -0.000013 1.000000 6558.dat
1 1 14.036410 -35.956360 -3.541340 0.000012 -0.000373 1.000000 0.000411 -1.000000 -0.000373 1.000000 0.000411 -0.000012 14720.dat
0 STEP
1 15 14.029010 -55.956420 -3.533130 0.000013 0.000373 -1.000000 0.000412 1.000000 0.000373 1.000000 -0.000412 0.000013 32524.dat
0 STEP
1 71 -25.967100 -45.933330 16.463320 0.000372 -1.000000 0.000013 1.000000 0.000372 0.000410 -0.000410 0.000013 1.000000 3673.dat
1 71 -25.967500 -45.949710 -23.536680 0.000375 -1.000000 0.000013 1.000000 0.000375 0.000410 -0.000410 0.000013 1.000000 3673.dat
0 STEP
0 NOFILE
0 FILE SubModel Group 2
0 SubModel Group 2
0 Name:  SubModel Group 2
0 Author:  
0 CustomBrick
0 NumOfBricks:  7
1 16 -149.000000 -6.039400 7.000000 1.000000 0.000000 0.000000 0.000000 1.000000 0.000000 0.000000 0.000000 1.000000 submodel group 9 copy copy copy
0 STEP
1 1 24.013320 -35.982600 16.481820 1.000000 0.000374 0.000013 -0.000374 1.000000 0.000409 -0.000013 -0.000409 1.000000 43093.dat
1 1 24.012790 -35.998900 -23.518180 1.000000 0.000374 0.000013 -0.000374 1.000000 0.000410 -0.000013 -0.000410 1.000000 43093.dat
0 STEP
1 71 54.013220 -35.993800 16.481340 -0.000376 -0.000016 1.000000 -1.000000 -0.000412 -0.000376 0.000412 -1.000000 -0.000015 32013.dat
1 71 54.012910 -36.010200 -23.518660 -0.000376 -0.000015 1.000000 -1.000000 -0.000413 -0.000376 0.000413 -1.000000 -0.000015 32013.dat
0 STEP
0 NOFILE
0 FILE SubModel Group 9 Copy Copy Copy
0 SubModel Group 9 Copy Copy Copy
0 Name:  SubModel Group 9 Copy Copy Copy
0 Author:  
0 CustomBrick
0 NumOfBricks:  3
1 72 10.000000 -1.128810 -10.000000 1.000000 0.000000 0.000000 0.000000 0.000000 -1.000000 0.000000 1.000000 0.000000 dch003.dat
1 71 -27.466620 -79.717990 29.427020 1.000000 0.000000 0.000000 0.000000 0.000000 -1.000000 0.000000 1.000000 0.000000 dch004.dat
1 25 7.837010 13.484720 -9.965000 1.000000 0.000000 0.000000 0.000000 0.000000 -1.000000 0.000000 1.000000 0.000000 dch005.dat
0 NOFILE
0 FILE SubModel Group 1
0 SubModel Group 1
0 Name:  SubModel Group 1
0 Author:  
0 CustomBrick
0 NumOfBricks:  4
1 0 1.088770 -32.016880 -5.252720 0.000000 1.000000 0.000000 1.000000 0.000000 -0.000537 -0.000536 0.000000 -1.000000 4519.dat
1 19 0.588630 -9.516840 -5.264850 0.000000 -1.000000 0.000000 -0.000537 0.000000 1.000000 -1.000000 0.000000 -0.000537 6589.dat
0 STEP
1 71 1.088690 -17.016820 -5.260760 1.000000 0.000000 0.000000 0.000000 -0.000537 1.000000 0.000000 -1.000000 -0.000536 32123a.dat
0 STEP
1 71 1.588630 -32.016860 -5.252690 0.000000 1.000000 0.000000 -0.000536 0.000000 -1.000000 -1.000000 0.000000 0.000536 3713.dat
0 STEP
0 NOFILE
