0 FILE 打桩机.io
0 Untitled Model
0 Name:  打桩机
0 Author:  
0 CustomBrick
0 NumOfBricks:  51
1 1 -40.000000 -23.999990 30.000000 1.000000 0.000000 0.000000 0.000000 1.000000 0.000000 0.000000 0.000000 1.000000 3894.dat
1 1 -40.000000 -48.000080 30.000000 1.000000 0.000000 0.000000 0.000000 1.000000 0.000000 0.000000 0.000000 1.000000 3701.dat
0 STEP
1 1 -40.000000 -64.000000 30.000000 1.000000 0.000000 0.000000 0.000000 1.000000 0.000000 0.000000 0.000000 1.000000 3710.dat
1 1 -40.000000 -56.000080 30.000000 1.000000 0.000000 0.000000 0.000000 1.000000 0.000000 0.000000 0.000000 1.000000 3710.dat
0 STEP
1 1 -40.000000 -87.999910 30.000000 1.000000 0.000000 0.000000 0.000000 1.000000 0.000000 0.000000 0.000000 1.000000 3701.dat
0 STEP
1 0 -40.000000 -77.999910 20.000010 0.000000 1.000000 0.000000 0.000000 0.000000 1.000000 1.000000 0.000000 0.000000 2780.dat
1 0 -40.000000 -38.000080 20.000010 0.000000 1.000000 0.000000 0.000000 0.000000 1.000000 1.000000 0.000000 0.000000 2780.dat
0 STEP
1 1 -30.000010 -138.000000 10.000010 0.000000 -1.000000 0.000000 1.000000 0.000000 0.000000 0.000000 0.000000 1.000000 3895.dat
0 STEP
1 0 -40.000000 -238.000000 0.000010 0.000000 0.000000 -1.000000 0.000000 1.000000 0.000000 1.000000 0.000000 0.000000 2780.dat
1 0 -40.000000 -58.000100 0.000010 0.000000 0.000000 -1.000000 0.000000 1.000000 0.000000 1.000000 0.000000 0.000000 2780.dat
0 STEP
1 1 -30.000010 -138.000000 -9.999990 0.000000 -1.000000 0.000000 1.000000 0.000000 0.000000 0.000000 0.000000 1.000000 3895.dat
0 STEP
1 16 -40.000000 0.000000 -30.000000 1.000000 0.000000 0.000000 0.000000 1.000000 0.000000 0.000000 0.000000 1.000000 submodel group 2
0 STEP
1 0 -40.000000 -218.000000 -20.000000 0.000000 0.000000 -1.000000 0.000000 1.000000 0.000000 1.000000 0.000000 0.000000 2780.dat
1 0 -40.000000 -138.000000 -20.000000 0.000000 0.000000 -1.000000 0.000000 1.000000 0.000000 1.000000 0.000000 0.000000 2780.dat
0 STEP
1 1 -20.000010 -218.000000 -29.000000 1.000000 0.000000 0.000000 0.000000 0.000000 -1.000000 0.000000 1.000000 0.000000 3738.dat
1 1 -0.000100 -138.000100 -28.807920 1.000000 0.000000 0.000000 0.000000 0.000000 -1.000000 0.000000 1.000000 0.000000 32001.dat
0 STEP
1 0 39.999900 -138.000100 -18.458000 0.000000 0.000000 -1.000000 0.000000 1.000000 0.000000 1.000000 0.000000 0.000000 2780.dat
1 0 39.999980 -218.000000 -18.458000 0.000000 0.000000 -1.000000 0.000000 1.000000 0.000000 1.000000 0.000000 0.000000 2780.dat
0 STEP
1 0 -80.000140 -218.000000 1.800060 0.000000 0.000000 1.000000 0.000000 1.000000 0.000000 -1.000000 0.000000 0.000000 3706.dat
1 0 -80.000140 -218.000000 0.870010 0.000002 -1.000000 -0.000002 0.000002 0.000002 -1.000000 1.000000 0.000002 0.000002 32013.dat
0 STEP
1 0 -80.000020 -128.000200 0.870010 0.000000 -1.000000 0.000000 -1.000000 0.000000 0.000000 0.000000 0.000000 -1.000000 3707.dat
0 STEP
1 71 -80.000140 -218.000000 -39.740040 1.000000 0.000000 0.000001 0.000000 1.000000 0.000000 -0.000001 0.000000 1.000000 3713.dat
0 STEP
1 16 50.000000 0.000000 0.000000 1.000000 0.000000 0.000000 0.000000 1.000000 0.000000 0.000000 0.000000 1.000000 submodel group 1
0 STEP
1 0 -40.000000 -138.000000 20.000010 0.000000 0.000000 -1.000000 0.000000 1.000000 0.000000 1.000000 0.000000 0.000000 2780.dat
1 0 -40.000000 -218.000000 20.000010 0.000000 0.000000 -1.000000 0.000000 1.000000 0.000000 1.000000 0.000000 0.000000 2780.dat
1 0 39.999980 -138.000100 21.541040 0.000000 0.000000 -1.000001 0.000000 1.000000 0.000000 1.000002 0.000000 0.000000 2780.dat
1 0 39.999980 -218.000000 21.540060 0.000000 0.000000 -1.000000 0.000000 1.000000 0.000000 1.000000 0.000000 0.000000 2780.dat
0 STEP
1 1 -0.000010 -138.000100 30.541020 1.000000 0.000000 0.000000 0.000000 0.000000 1.000000 0.000000 -1.000000 0.000000 32001.dat
1 1 -20.000010 -218.000000 31.260020 1.000000 0.000000 0.000000 0.000000 0.000000 1.000000 0.000000 -1.000000 0.000000 3738.dat
0 STEP
1 71 -80.000140 -218.000000 41.750020 -1.000000 0.000000 -0.000001 0.000000 1.000000 0.000000 0.000001 0.000000 -1.000000 3713.dat
0 STEP
1 19 39.999980 -57.999960 -18.458000 0.000001 -1.000000 0.000001 0.000001 0.000001 1.000000 -1.000000 -0.000001 0.000001 3749.dat
1 19 39.999980 -17.999800 -18.458000 0.000001 -1.000000 0.000001 0.000001 0.000001 1.000000 -1.000000 -0.000001 0.000001 3749.dat
0 STEP
1 15 50.000020 -17.999780 -28.458010 0.000000 -1.000000 0.000000 1.000000 0.000000 0.000000 0.000000 0.000000 1.000000 32064a.dat
1 15 50.000030 -57.999940 -28.458010 0.000000 -1.000000 0.000000 1.000000 0.000000 0.000000 0.000000 0.000000 1.000000 32064a.dat
0 STEP
1 19 39.999890 -57.999960 21.541040 -0.000001 1.000000 -0.000001 0.000001 0.000001 1.000000 1.000000 0.000001 -0.000001 3749.dat
1 19 39.999890 -17.999790 21.541040 -0.000001 1.000000 -0.000001 0.000001 0.000001 1.000000 1.000000 0.000001 -0.000001 3749.dat
0 STEP
1 15 49.999920 -57.999970 31.541020 0.000000 -1.000000 0.000000 1.000000 0.000000 0.000000 0.000000 0.000000 1.000000 32064a.dat
1 15 49.999910 -17.999780 31.541020 0.000000 -1.000000 0.000000 1.000000 0.000000 0.000000 0.000000 0.000000 1.000000 32064a.dat
0 STEP
1 15 74.000020 -58.000020 1.541030 0.000000 -1.000000 0.000000 0.000000 0.000000 1.000000 -1.000000 0.000000 0.000000 3001.dat
1 15 73.999940 -17.999800 1.541030 0.000000 -1.000000 0.000000 0.000000 0.000000 -1.000000 1.000000 0.000000 0.000000 3001.dat
0 STEP
0 STEP
0 NOFILE
0 FILE SubModel Group 2
0 SubModel Group 2
0 Name:  SubModel Group 2
0 Author:  
0 CustomBrick
0 NumOfBricks:  7
1 1 0.000000 -24.000000 0.000000 1.000000 0.000000 0.000000 0.000000 1.000000 0.000000 0.000000 0.000000 1.000000 3894.dat
0 STEP
1 1 0.000000 -48.000100 0.000000 1.000000 0.000000 0.000000 0.000000 1.000000 0.000000 0.000000 0.000000 1.000000 3701.dat
1 0 0.000000 -38.000090 10.000000 0.000000 0.000000 -1.000000 0.000000 1.000000 0.000000 1.000000 0.000000 0.000000 2780.dat
0 STEP
1 1 0.000000 -64.000000 0.000000 1.000000 0.000000 0.000000 0.000000 1.000000 0.000000 0.000000 0.000000 1.000000 3710.dat
1 1 0.000000 -56.000100 0.000000 1.000000 0.000000 0.000000 0.000000 1.000000 0.000000 0.000000 0.000000 1.000000 3710.dat
0 STEP
1 1 0.000000 -87.999910 0.000000 1.000000 0.000000 0.000000 0.000000 1.000000 0.000000 0.000000 0.000000 1.000000 3701.dat
1 0 0.000090 -77.999910 10.000000 0.000000 0.000000 -1.000000 0.000000 1.000000 0.000000 1.000000 0.000000 0.000000 2780.dat
0 STEP
0 NOFILE
0 FILE SubModel Group 1
0 SubModel Group 1
0 Name:  SubModel Group 1
0 Author:  
0 CustomBrick
0 NumOfBricks:  6
1 1 -24.000100 -157.999900 1.541030 0.000000 -1.000003 0.000000 -1.000002 0.000000 0.000000 0.000000 0.000000 -1.000002 3709b.dat
0 STEP
1 1 0.000020 -238.000000 11.541020 0.000000 -1.000003 0.000000 1.000002 0.000000 0.000000 0.000000 0.000000 1.000002 3702.dat
1 1 0.000020 -238.000000 -8.458000 0.000000 -1.000003 0.000000 1.000002 0.000000 0.000000 0.000000 0.000000 1.000002 3702.dat
0 STEP
1 1 0.000020 -77.999850 11.541030 0.000000 -1.000003 0.000000 1.000002 0.000000 0.000000 0.000000 0.000000 1.000002 3702.dat
1 1 0.000020 -77.999850 -8.458000 0.000000 -1.000003 0.000000 1.000002 0.000000 0.000000 0.000000 0.000000 1.000002 3702.dat
0 STEP
1 1 8.000239 -158.000000 1.541030 0.000000 -1.000001 0.000000 -1.000000 0.000000 0.000000 0.000000 0.000000 -1.000002 3709b.dat
0 STEP
0 NOFILE
