0 FILE 简易小车_Copy_Copy.io
0 Untitled Model
0 Name:  简易小车_Copy_Copy
0 Author:  
0 CustomBrick
0 STEP
1 72 87.466620 -35.433130 -219.427200 1.000000 0.000000 0.000000 0.000000 0.000000 -1.000000 0.000000 1.000000 0.000000 dch003.dat
1 71 50.000000 -114.022300 -180.000200 1.000000 0.000000 0.000000 0.000000 0.000000 -1.000000 0.000000 1.000000 0.000000 dch004.dat
1 25 85.303620 -20.819600 -219.392200 1.000000 0.000000 0.000000 0.000000 0.000000 -1.000000 0.000000 1.000000 0.000000 dch005.dat
0 STEP
1 0 240.000000 -124.022300 -250.000100 0.000000 0.000000 -1.000000 0.000000 1.000000 0.000000 1.000000 0.000000 0.000000 2780.dat
1 0 240.000000 -84.022240 -250.000300 0.000000 0.000000 -1.000000 0.000000 1.000000 0.000000 1.000000 0.000000 0.000000 2780.dat
1 0 240.000000 -124.022300 -190.000100 0.000000 0.000000 -1.000000 0.000000 1.000000 0.000000 1.000000 0.000000 0.000000 2780.dat
1 0 240.000000 -84.022240 -190.000000 0.000000 0.000000 -1.000000 0.000000 1.000000 0.000000 1.000000 0.000000 0.000000 2780.dat
0 STEP
1 15 240.000000 -84.022250 -260.000100 -1.000000 0.000001 -0.000001 -0.000001 -0.000001 1.000000 0.000001 1.000000 0.000001 32316.dat
1 15 240.000000 -84.022250 -180.000000 -1.000000 0.000001 -0.000001 -0.000001 -0.000001 1.000000 0.000001 1.000000 0.000001 32316.dat
0 STEP
1 0 239.999000 -44.022160 -221.770000 0.000000 0.000000 1.000001 0.000000 1.000001 0.000000 -1.000000 0.000000 0.000000 3708.dat
0 STEP
1 71 239.999000 -44.022210 -280.249900 -1.000000 0.000000 -0.000001 0.000000 1.000000 0.000000 0.000001 0.000000 -1.000000 3713.dat
1 71 240.000000 -44.022200 -159.859900 -1.000000 0.000000 -0.000001 0.000000 1.000000 0.000000 0.000001 0.000000 -1.000000 3713.dat
0 STEP
1 1 260.000000 -64.022250 -200.000000 1.000000 0.000000 0.000000 0.000000 -1.000000 0.000000 0.000000 0.000000 -1.000000 32556.dat
1 1 260.000000 -64.022250 -240.000100 1.000000 0.000000 0.000000 0.000000 -1.000000 0.000000 0.000000 0.000000 -1.000000 32556.dat
0 STEP
1 1 260.000000 -74.022250 -220.000000 0.000000 0.000000 -1.000000 0.000000 1.000000 0.000000 1.000000 0.000000 0.000000 3701.dat
0 STEP
1 1 280.000000 -74.022250 -220.000100 0.000000 0.000000 -1.000000 0.000000 1.000000 0.000000 1.000000 0.000000 0.000000 3701.dat
0 STEP
1 71 40.000000 -84.022280 -220.000100 0.000000 0.000000 -1.000000 0.000000 1.000000 0.000000 1.000000 0.000000 0.000000 4519.dat
1 4 19.999020 -84.022300 -220.000100 0.000000 -1.000000 0.000000 0.000000 0.000000 1.000000 -1.000000 0.000000 0.000000 42003.dat
1 4 -0.000980 -104.022300 -220.000000 -0.000001 -0.000001 -1.000000 1.000000 0.000001 -0.000001 0.000001 -1.000000 0.000001 32054.dat
0 STEP
1 16 20.000000 -12.000000 -200.000000 1.000000 0.000000 0.000000 0.000000 1.000000 0.000000 0.000000 0.000000 1.000000 submodel group 1
0 STEP
1 4 40.000000 -124.022000 -179.999500 0.000001 0.000002 1.000000 -0.000001 1.000000 -0.000002 -1.000000 -0.000001 0.000001 32054.dat
1 4 40.000000 -104.022000 -179.999500 0.000001 0.000002 1.000000 -0.000001 1.000000 -0.000002 -1.000000 -0.000001 0.000001 32054.dat
1 4 40.000000 -124.022200 -260.000000 -0.000001 0.000000 -1.000000 -0.000001 1.000000 0.000000 1.000000 0.000001 -0.000001 32054.dat
1 4 40.000000 -104.022300 -260.000000 -0.000001 0.000000 -1.000000 -0.000001 1.000000 0.000000 1.000000 0.000001 -0.000001 32054.dat
0 STEP
1 71 239.999000 -44.022160 -341.770000 -1.000000 0.000000 0.000000 0.000000 1.000000 0.000000 0.000000 0.000000 -1.000000 56145.dat
1 0 240.000500 -44.022270 -341.765700 0.000000 1.000000 0.000000 -1.000000 0.000000 0.000000 0.000000 0.000000 1.000000 44309.dat
1 71 239.999000 -44.022160 -101.770000 1.000000 0.000000 0.000000 0.000000 1.000000 0.000000 0.000000 0.000000 1.000000 56145.dat
1 0 239.997200 -44.022340 -101.774500 0.000000 -1.000000 0.000000 -1.000000 0.000000 0.000000 0.000000 0.000000 -1.000000 44309.dat
1 71 40.000000 -44.022060 -99.569370 0.984808 0.173648 0.000000 -0.173648 0.984807 0.000000 0.000000 0.000000 1.000000 56145.dat
1 0 39.998260 -44.021860 -99.573940 -0.173648 -0.984806 0.000000 -0.984808 0.173647 0.000000 0.000000 0.000000 -1.000000 44309.dat
1 71 40.000000 -44.022080 -342.229300 -0.984808 0.173648 0.000000 0.173648 0.984807 0.000000 0.000000 0.000000 -1.000000 56145.dat
1 0 40.001960 -44.022360 -342.224800 -0.173648 0.984805 0.000000 -0.984808 -0.173649 0.000000 0.000000 0.000000 1.000000 44309.dat
0 STEP
0 NOFILE
0 FILE SubModel Group 1
0 SubModel Group 1
0 Name:  SubModel Group 1
0 Author:  
0 CustomBrick
0 NumOfBricks:  15
1 15 -19.903470 -31.750480 28.085010 0.000000 1.000000 0.000000 1.000000 0.000000 0.000000 0.000000 0.000000 -1.000000 dx0012.dat
0 STEP
1 1 10.000000 -32.022180 -79.999690 0.000001 1.000000 0.000000 1.000000 -0.000001 0.000000 0.000000 0.000000 -1.000001 3700.dat
0 STEP
1 1 10.000000 -72.022020 20.000500 0.000001 1.000000 0.000000 1.000000 -0.000001 0.000000 0.000000 0.000000 -1.000000 3894.dat
1 1 10.000000 -72.022020 -59.999790 0.000001 1.000000 0.000000 1.000000 -0.000001 0.000000 0.000000 0.000000 -1.000000 3894.dat
0 STEP
1 0 20.000000 -52.022020 30.000500 0.000000 1.000000 -0.000001 0.000000 -0.000001 -1.000000 -1.000000 0.000000 0.000000 2780.dat
1 0 0.000000 -32.022050 30.000610 0.000000 1.000000 -0.000001 0.000000 -0.000001 -1.000000 -1.000000 0.000000 0.000000 2780.dat
1 19 -40.000000 -32.021760 30.000500 -0.000001 0.000000 -1.000000 -0.000001 1.000000 0.000000 1.000000 0.000001 -0.000001 3749.dat
1 71 -20.000000 -32.022030 40.000500 0.000000 1.000000 0.000001 0.000000 -0.000001 1.000000 1.000000 0.000000 0.000000 4519.dat
0 STEP
1 1 -40.000000 -32.022120 40.000600 0.000000 0.000001 1.000000 -1.000000 0.000001 0.000000 -0.000001 -1.000000 0.000001 32140.dat
0 STEP
1 0 20.000000 -32.022080 -17.239400 0.000000 0.984810 0.173648 0.000000 -0.173647 0.984808 1.000000 0.000000 0.000000 3708.dat
0 STEP
1 71 20.000000 -32.022050 -100.409700 0.173648 0.984810 0.000000 0.984808 -0.173647 0.000001 0.000001 0.000000 -1.000000 3713.dat
0 STEP
1 71 -20.000000 -32.022030 60.000500 0.000001 1.000000 0.000000 1.000000 -0.000001 0.000000 0.000000 0.000000 -1.000000 94925.dat
1 71 20.000000 -32.022170 60.020600 0.173648 0.984810 0.000000 0.984808 -0.173647 0.000000 0.000000 0.000000 -1.000000 94925.dat
0 STEP
1 14 20.000000 -32.022180 75.100800 0.984810 0.173648 0.000000 -0.173647 0.984808 0.000000 0.000000 0.000000 1.000000 32123a.dat
1 14 20.000000 -32.022060 -115.269700 0.984810 0.173648 0.000000 -0.173647 0.984808 0.000000 0.000000 0.000000 1.000000 32123a.dat
0 STEP
0 NOFILE
