0 FILE 起落桥.io
0 Untitled Model
0 Name:  起落桥
0 Author:  
0 CustomBrick
0 NumOfBricks:  36
1 1 -19.999970 -24.000000 30.000000 1.000000 0.000000 0.000000 0.000000 1.000000 0.000000 0.000000 0.000000 1.000000 3701.dat
1 1 -180.000000 -24.000000 30.000000 1.000000 0.000000 0.000000 0.000000 1.000000 0.000000 0.000000 0.000000 1.000000 3701.dat
0 STEP
1 1 -99.999970 -48.000000 30.000000 1.000000 0.000000 0.000000 0.000000 1.000000 0.000000 0.000000 0.000000 1.000000 3895.dat
0 STEP
1 0 0.000020 -38.000000 -20.000000 0.000000 0.772734 0.634730 0.000000 0.634729 -0.772734 -1.000000 0.000000 0.000000 3707.dat
0 STEP
1 1 55.745640 -121.620700 10.000000 0.634729 0.772734 0.000000 -0.772734 0.634729 0.000000 0.000000 0.000000 1.000000 3895.dat
0 STEP
1 71 0.000050 -37.999930 -30.000000 -0.772735 0.000000 0.634729 -0.634729 -0.000001 -0.772734 0.000001 -1.000000 0.000001 33299.dat
0 STEP
1 1 55.745640 -121.620700 -50.000000 0.634729 0.772734 0.000000 -0.772734 0.634729 0.000000 0.000000 0.000000 1.000000 3895.dat
0 STEP
1 16 -100.000000 0.000000 -70.000000 1.000000 0.000000 0.000000 0.000000 1.000000 0.000000 0.000000 0.000000 1.000000 submodel group 1
0 STEP
1 1 -160.000000 -56.000000 -60.000000 1.000000 0.000000 0.000000 0.000000 1.000000 0.000000 0.000000 0.000000 1.000000 3738.dat
1 1 -59.999970 -56.000000 -20.000000 0.000000 0.000000 1.000000 0.000000 1.000000 0.000000 -1.000000 0.000000 0.000000 32001.dat
1 1 -160.000000 -56.000000 20.000000 1.000000 0.000000 0.000000 0.000000 1.000000 0.000000 0.000000 0.000000 1.000000 3738.dat
0 STEP
1 1 -220.000000 -64.000000 -20.000010 0.000000 0.000000 1.000000 0.000000 1.000000 0.000000 -1.000000 0.000000 0.000000 32001.dat
0 STEP
1 71 0.000030 -38.000010 50.000000 0.634729 0.772734 0.000000 -0.772734 0.634729 -0.000001 -0.000001 0.000000 1.000000 3713.dat
0 STEP
1 71 0.000030 -38.000000 -85.070010 0.634729 0.772734 0.000000 -0.772734 0.634729 0.000000 0.000000 0.000000 1.000000 4185.dat
0 STEP
1 71 -180.000000 -38.000000 -49.709960 1.000000 0.000000 0.000001 0.000000 1.000000 0.000000 -0.000001 0.000000 1.000000 3713.dat
1 0 -180.000000 -38.000000 -79.710010 0.000000 0.000000 1.000000 0.000000 1.000000 0.000000 -1.000000 0.000000 0.000000 3705.dat
0 STEP
1 14 -180.000000 -38.000000 -85.290040 0.000000 1.000000 0.000000 1.000000 0.000000 0.000000 0.000000 0.000000 -1.000000 32123a.dat
1 14 0.000030 -38.000000 -95.000000 0.772734 0.634730 0.000000 0.634730 -0.772734 0.000000 0.000000 0.000000 -1.000000 32123a.dat
0 STEP
1 15 -179.000000 -36.932890 -85.000000 1.000000 0.000000 0.000000 0.000000 1.000000 0.000000 0.000000 0.000000 1.000000 xpj0104.dat
0 STEP
1 71 -180.000000 -38.000010 -99.710010 0.000001 -0.000001 -1.000000 1.000000 0.000001 0.000001 0.000001 -1.000000 0.000001 33299.dat
0 STEP
1 4 -220.000000 -37.999920 -129.710000 0.000000 0.000000 1.000000 0.000000 1.000000 0.000000 -1.000000 0.000000 0.000000 62462.dat
1 14 -180.000000 -38.000000 -114.710000 0.000000 1.000000 0.000000 1.000000 0.000000 0.000000 0.000000 0.000000 -1.000000 32123a.dat
0 STEP
1 1 -13.909210 -49.425110 -20.000000 0.000000 0.772734 0.634729 0.000000 0.634729 -0.772734 -1.000000 0.000000 0.000000 3709b.dat
1 1 11.479980 -80.334480 -20.000000 0.000000 0.772734 0.634729 0.000000 0.634729 -0.772734 -1.000000 0.000000 0.000000 3709b.dat
0 STEP
1 1 68.605690 -149.880600 -20.000000 0.000000 0.772734 0.634731 0.000000 0.634729 -0.772735 -1.000001 0.000000 0.000000 3710.dat
1 1 43.216470 -118.971200 -20.000120 0.000000 0.772734 0.634729 0.000000 0.634729 -0.772734 -1.000000 0.000000 0.000000 3710.dat
1 15 30.521880 -103.516500 -20.000000 0.000000 0.772734 0.634730 0.000000 0.634729 -0.772734 -1.000000 0.000000 0.000000 2431.dat
1 15 55.911090 -134.425900 -19.999880 0.000000 0.772734 0.634729 0.000000 0.634729 -0.772734 -1.000000 0.000000 0.000000 2431.dat
0 STEP
1 1 113.036800 -203.971900 -19.999990 0.000000 0.772734 0.634729 0.000000 0.634729 -0.772734 -1.000000 0.000000 0.000000 3709b.dat
1 1 87.647560 -173.062600 -20.000000 0.000000 0.772734 0.634729 0.000000 0.634729 -0.772734 -1.000000 0.000000 0.000000 3709b.dat
0 STEP
1 15 100.838500 -226.932800 9.999760 0.000000 0.772734 0.634729 0.000000 0.634729 -0.772734 -1.000000 0.000000 0.000000 3040b.dat
1 15 100.838400 -226.932800 -10.000110 0.000000 0.772734 0.634729 0.000000 0.634729 -0.772734 -1.000000 0.000000 0.000000 3040b.dat
1 15 100.838500 -226.932800 -49.999860 0.000000 0.772734 0.634729 0.000000 0.634729 -0.772734 -1.000000 0.000000 0.000000 3040b.dat
1 15 100.838400 -226.932800 -29.999870 0.000000 0.772734 0.634729 0.000000 0.634729 -0.772734 -1.000000 0.000000 0.000000 3040b.dat
0 STEP
0 STEP
0 NOFILE
0 FILE SubModel Group 1
0 SubModel Group 1
0 Name:  SubModel Group 1
0 Author:  
0 CustomBrick
0 NumOfBricks:  3
1 1 80.000000 -24.000000 0.000000 1.000000 0.000000 0.000000 0.000000 1.000000 0.000000 0.000000 0.000000 1.000000 3701.dat
1 1 -80.000000 -24.000000 0.000000 1.000000 0.000000 0.000000 0.000000 1.000000 0.000000 0.000000 0.000000 1.000000 3701.dat
0 STEP
1 1 0.000000 -48.000000 0.000000 1.000000 0.000000 0.000000 0.000000 1.000000 0.000000 0.000000 0.000000 1.000000 3895.dat
0 STEP
0 NOFILE
