0 FILE 18-四轮车.io
0 Untitled Model
0 Name:  18-四轮车
0 Author:  
0 CustomBrick
0 NumOfBricks:  50
1 1 -50.001000 -48.000040 -9.458350 1.000002 0.000000 0.000000 0.000000 1.000000 0.000000 0.000000 0.000000 1.000000 3702.dat
1 0 -90.001170 -38.000050 -19.458350 0.000000 0.000000 1.000002 0.000000 1.000000 0.000000 -1.000000 0.000000 0.000000 2780.dat
1 0 -10.000940 -38.000050 -19.458350 0.000000 0.000000 1.000002 0.000000 1.000000 0.000000 -1.000000 0.000000 0.000000 2780.dat
0 STEP
1 1 -50.000920 -48.000050 -29.458350 1.000002 0.000000 0.000000 0.000000 1.000000 0.000000 0.000000 0.000000 1.000000 3702.dat
0 STEP
1 0 -110.001200 -38.000050 0.541650 0.000000 0.000000 1.000002 0.000000 1.000000 0.000000 -1.000000 0.000000 0.000000 2780.dat
1 0 9.999090 -38.000050 0.541650 0.000000 0.000000 1.000002 0.000000 1.000000 0.000000 -1.000000 0.000000 0.000000 2780.dat
0 STEP
1 15 -70.001100 -37.999980 10.541550 0.000001 0.000001 -1.000002 1.000000 -0.000001 0.000001 -0.000001 -1.000000 -0.000001 64871.dat
0 STEP
1 0 -210.001200 -38.000010 -21.148660 0.000000 0.000000 1.000006 0.000000 1.000000 0.000000 -1.000004 0.000000 0.000000 3737.dat
1 0 69.999400 -38.000260 -20.548260 0.000000 0.000000 1.000002 0.000000 1.000000 0.000000 -1.000000 0.000000 0.000000 3737.dat
1 71 -210.001200 -38.000010 -9.648660 -1.000002 0.000000 -0.000001 0.000000 1.000000 0.000000 0.000001 0.000000 -1.000000 3713.dat
1 71 69.999420 -38.000260 -9.408270 -1.000002 0.000000 -0.000001 0.000000 1.000000 0.000000 0.000001 0.000000 -1.000000 3713.dat
1 71 -210.001200 -38.000010 -29.618750 -1.000002 0.000000 -0.000001 0.000000 1.000000 0.000000 0.000001 0.000000 -1.000000 3713.dat
1 71 69.999400 -38.000260 -29.398230 -1.000002 0.000000 -0.000001 0.000000 1.000000 0.000000 0.000001 0.000000 -1.000000 3713.dat
0 STEP
1 0 -110.001200 -38.000050 -39.458350 0.000000 0.000000 1.000002 0.000000 1.000000 0.000000 -1.000000 0.000000 0.000000 2780.dat
1 0 9.999080 -38.000050 -39.458350 0.000000 0.000000 1.000002 0.000000 1.000000 0.000000 -1.000000 0.000000 0.000000 2780.dat
0 STEP
1 15 -70.001030 -38.000150 -49.928580 0.000001 0.000001 -1.000002 1.000000 -0.000001 0.000001 -0.000001 -1.000000 -0.000001 64871.dat
0 STEP
1 16 -180.000000 -24.000000 -20.000000 1.000000 0.000000 0.000000 0.000000 1.000000 0.000000 0.000000 0.000000 1.000000 submodel group 1
0 STEP
1 4 -130.001100 -37.999990 30.071120 0.000001 -1.000002 0.000001 0.000001 0.000001 1.000000 -1.000000 -0.000001 0.000001 32054.dat
1 4 -150.001100 -38.000010 30.071090 0.000001 -1.000002 0.000001 0.000001 0.000001 1.000000 -1.000000 -0.000001 0.000001 32054.dat
1 4 -130.001000 -38.000000 -69.928810 0.000001 -1.000002 0.000001 -0.000001 -0.000001 -1.000000 1.000000 0.000001 -0.000001 32054.dat
1 4 -150.001200 -38.000030 -69.928690 0.000001 -1.000002 0.000001 -0.000001 -0.000001 -1.000000 1.000000 0.000001 -0.000001 32054.dat
0 STEP
1 15 -210.011000 -38.252500 -66.000000 0.000000 1.000000 0.000000 -1.000000 0.000000 0.000000 0.000000 0.000000 1.000000 xpj0055.dat
0 STEP
1 0 -209.999900 -38.000010 -88.395560 -0.999999 0.000000 -0.000001 0.000000 -0.999998 0.000000 -0.000001 0.000000 1.000000 30391.dat
1 71 -210.001300 -38.000020 -88.138820 0.000000 1.000002 0.000000 -1.000000 0.000000 0.000000 0.000000 0.000000 1.000000 55982.dat
1 0 70.000040 -38.000270 -91.084940 -0.999999 0.000000 -0.000001 0.000000 -0.999997 0.000000 -0.000001 0.000000 1.000000 30391.dat
1 71 69.999370 -38.000270 -90.828250 0.000000 1.000002 0.000000 -1.000000 0.000000 0.000000 0.000000 0.000000 1.000000 55982.dat
1 0 -210.002600 -38.000010 50.528580 0.999999 0.000000 0.000001 0.000000 -0.999997 0.000000 0.000001 0.000000 -1.000000 30391.dat
1 71 -210.001200 -38.000010 50.271540 0.000000 -1.000002 0.000000 -1.000000 0.000000 0.000000 0.000000 0.000000 -1.000000 55982.dat
1 0 69.997500 -38.000260 52.948560 0.999999 0.000000 0.000001 0.000000 -0.999997 0.000000 0.000001 0.000000 -1.000000 30391.dat
1 71 69.999340 -38.000260 52.691780 0.000000 -1.000002 0.000000 -1.000000 0.000000 0.000000 0.000000 0.000000 -1.000000 55982.dat
0 STEP
1 0 9.999229 -96.000060 -19.458340 0.000000 0.000000 -1.000000 0.000000 1.000000 0.000000 1.000000 0.000000 0.000000 73090b.dat
0 STEP
0 NOFILE
0 FILE SubModel Group 1
0 SubModel Group 1
0 Name:  SubModel Group 1
0 Author:  
0 CustomBrick
0 NumOfBricks:  20
1 0 29.998800 -74.000060 0.070520 0.000000 0.000000 -1.000002 0.000000 1.000002 0.000000 1.000002 0.000000 0.000000 3706.dat
1 14 29.998900 -74.000080 15.070610 0.000000 -1.000002 0.000000 -1.000002 0.000000 0.000000 0.000000 0.000000 -1.000002 32123a.dat
1 4 9.999510 -74.000140 0.000330 0.000000 -1.000002 0.000000 0.000000 0.000000 1.000002 -1.000002 0.000000 0.000000 42003.dat
1 15 -10.000200 -87.750100 0.091030 -1.000002 0.000000 0.000000 0.000000 1.000000 0.000000 0.000000 0.000000 -1.000000 yuan.dat
0 STEP
1 1 29.998700 -74.000200 29.910470 -0.000001 -0.000001 -1.000002 1.000000 -0.000001 -0.000001 -0.000001 -1.000000 0.000001 32140.dat
0 STEP
1 71 -30.000200 -54.000270 0.360890 0.000000 0.000000 -1.000002 0.000000 1.000002 0.000000 1.000002 0.000000 0.000000 32073.dat
0 STEP
1 71 -30.000200 -54.000270 0.161060 -1.000002 0.000000 0.000000 0.000000 1.000002 0.000000 0.000000 0.000000 -1.000002 4716.dat
1 14 29.998900 -74.000080 -15.049600 0.000000 -1.000002 0.000000 -1.000002 0.000000 0.000000 0.000000 0.000000 -1.000002 32123a.dat
0 STEP
1 1 29.998900 -74.000070 -30.298760 -0.000001 -0.000001 -1.000002 1.000002 -0.000001 -0.000001 -0.000001 -1.000002 0.000001 32140.dat
0 STEP
1 1 29.998990 -74.000080 50.071060 1.000002 -0.000001 -0.000001 0.000001 0.000001 1.000002 -0.000001 -1.000002 0.000001 32140.dat
1 1 29.998990 -74.000080 -49.928940 1.000002 -0.000001 -0.000001 0.000001 0.000001 1.000002 -0.000001 -1.000002 0.000001 32140.dat
0 STEP
1 14 -30.000120 -54.000300 45.361500 0.000000 -1.000002 0.000000 -1.000002 0.000000 0.000000 0.000000 0.000000 -1.000002 32123a.dat
1 14 -30.001220 -54.000290 -45.508580 0.000000 -1.000002 0.000000 -1.000002 0.000000 0.000000 0.000000 0.000000 -1.000002 32123a.dat
0 STEP
1 72 9.999510 -84.000100 0.000330 0.000001 0.000000 1.000002 -1.000000 0.000000 0.000001 0.000000 -1.000000 0.000000 32002.dat
0 STEP
1 0 -10.000490 -78.340120 0.000300 0.000000 -0.342020 0.939695 1.000000 0.000000 0.000000 0.000000 0.939693 0.342019 3705.dat
1 72 -10.000490 -53.930080 0.000300 0.939695 0.342020 0.000000 0.000000 0.000000 1.000000 0.342019 -0.939693 0.000000 3647.dat
0 STEP
1 15 -10.000000 -86.750000 0.000000 -1.000000 0.000000 0.000000 0.000000 1.000000 0.000000 0.000000 0.000000 -1.000000 yuan04.dat
0 STEP
1 14 -10.000000 -93.240100 0.000000 -0.342019 -0.939693 0.000000 0.000000 0.000000 -1.000000 0.939693 -0.342019 0.000000 32123a.dat
0 STEP
1 4 -28.793400 -108.340100 -6.840240 0.000000 0.342021 -0.939695 1.000000 0.000000 0.000000 0.000000 -0.939693 -0.342020 32039.dat
1 71 -47.587390 -108.340000 -13.680520 -0.939695 0.000000 0.342020 0.000000 1.000000 0.000000 -0.342019 0.000000 -0.939693 4519.dat
0 STEP
0 NOFILE
