0 FILE 扫地车.io
0 Untitled Model
0 Name:  扫地车
0 Author:  
0 CustomBrick
0 NumOfBricks:  82
1 15 0.000000 -41.000000 110.000000 1.000000 0.000000 0.000000 0.000000 1.000000 0.000000 0.000000 0.000000 1.000000 dx0061.dat.dat
1 0 -19.999900 -40.840020 110.209800 0.000000 0.000000 -0.999999 0.000000 1.000000 0.000000 0.999999 0.000000 0.000000 2780.dat
1 0 20.000010 -40.840020 110.209800 0.000000 0.000000 -0.999999 0.000000 1.000000 0.000000 0.999999 0.000000 0.000000 2780.dat
0 STEP
1 71 0.000050 -40.840020 99.749820 0.000000 -0.999999 0.000000 0.000000 0.000000 1.000000 -0.999999 0.000000 0.000000 4519.dat
0 STEP
1 72 0.000050 -40.840020 105.209800 0.999999 0.000000 0.000000 0.000000 0.000000 -1.000000 0.000000 0.999999 0.000000 99773.dat
1 19 0.000050 -80.840050 110.209800 -0.000001 0.999999 -0.000001 0.000001 0.000001 1.000000 0.999999 0.000001 -0.000001 3749.dat
0 STEP
1 72 0.000050 -40.840020 95.209800 0.999999 0.000000 0.000000 0.000000 0.000000 -1.000000 0.000000 0.999999 0.000000 99773.dat
0 STEP
1 19 0.000060 -40.840020 79.749840 0.000000 -0.999999 0.000000 -1.000001 0.000000 0.000000 0.000000 0.000000 -0.999999 32269.dat
0 STEP
1 71 0.000060 -100.840200 140.000000 0.000000 0.000000 -1.000000 -1.000000 0.000000 0.000000 0.000000 1.000000 -0.000001 4519.dat
1 4 0.000050 -80.840060 119.709800 0.000000 0.999999 0.000001 1.000000 0.000000 0.000000 0.000000 0.000001 -0.999999 32039.dat
0 STEP
1 0 -49.999620 -40.839980 140.649600 -0.999999 0.000000 0.000000 0.000000 1.000000 0.000000 0.000000 0.000000 -0.999999 2780.dat
1 71 -39.999760 -40.840020 100.649900 0.000000 -0.999999 0.000000 0.000000 0.000000 1.000000 -0.999999 0.000000 0.000000 4519.dat
1 0 -39.999760 -40.839960 140.649600 0.999999 0.000002 0.000002 -0.000002 1.000000 0.000002 -0.000002 -0.000002 0.999999 32013.dat
0 STEP
1 0 50.000160 -40.839940 139.999700 -0.999999 0.000000 0.000000 0.000000 1.000000 0.000000 0.000000 0.000000 -0.999999 2780.dat
1 71 40.000060 -40.840020 99.999820 0.000000 -0.999999 0.000000 0.000000 0.000000 1.000000 -0.999999 0.000000 0.000000 4519.dat
1 0 40.000060 -40.839960 139.999700 0.999999 0.000002 0.000002 -0.000002 1.000000 0.000002 -0.000002 -0.000002 0.999999 32013.dat
0 STEP
1 0 39.999970 -40.839960 59.999860 -0.999999 -0.000002 -0.000002 -0.000002 1.000000 0.000002 0.000002 0.000002 -0.999999 32013.dat
1 0 -39.999760 -40.839960 60.649860 -0.999999 -0.000002 -0.000002 -0.000002 1.000000 0.000002 0.000002 0.000002 -0.999999 32013.dat
0 STEP
1 0 1.400080 -40.839990 59.999840 -0.999999 0.000000 0.000000 0.000000 1.000000 0.000000 0.000000 0.000000 -0.999999 3737.dat
1 19 -26.189860 -40.839990 59.999840 -0.000001 0.000000 0.999999 0.000000 -1.000000 0.000000 0.999999 0.000000 0.000001 6589.dat
0 STEP
1 0 0.500360 -40.840240 320.000200 -0.999999 0.000000 0.000000 0.000000 1.000000 0.000000 0.000000 0.000000 -0.999999 3737.dat
1 71 -39.939520 -40.840240 320.000200 0.000001 0.000000 -0.999999 0.000000 1.000000 0.000000 0.999999 0.000000 0.000001 3713.dat
1 15 -59.999480 -40.840010 180.649500 0.000001 0.999999 0.000001 -1.000001 0.000001 -0.000001 -0.000001 -0.000001 0.999999 64871.dat
0 STEP
1 15 60.000150 -40.840000 179.999500 0.000001 0.999999 0.000001 -1.000001 0.000001 -0.000001 -0.000001 -0.000001 0.999999 64871.dat
1 71 39.850280 -40.840240 320.000200 0.000001 0.000000 -0.999999 0.000000 1.000000 0.000000 0.999999 0.000000 0.000001 3713.dat
0 STEP
1 16 0.000000 -60.000000 60.000000 1.000000 0.000000 0.000000 0.000000 1.000000 0.000000 0.000000 0.000000 1.000000 submodel group 5
0 STEP
1 72 0.000060 -120.519900 -20.000050 0.999998 0.000000 0.000000 0.000000 0.000000 0.999999 0.000000 -0.999999 0.000000 3648b.dat
1 16 0.000000 0.000000 -20.000000 1.000000 0.000000 0.000000 0.000000 1.000000 0.000000 0.000000 0.000000 1.000000 submodel group 1
0 STEP
1 16 0.000000 -96.000000 190.000000 1.000000 0.000000 0.000000 0.000000 1.000000 0.000000 0.000000 0.000000 1.000000 submodel group 4
0 STEP
1 16 -90.000000 -36.000000 160.000000 1.000000 0.000000 0.000000 0.000000 1.000000 0.000000 0.000000 0.000000 1.000000 submodel group 3
0 STEP
1 16 90.000000 -36.000000 160.000000 1.000000 0.000000 0.000000 0.000000 1.000000 0.000000 0.000000 0.000000 1.000000 submodel group 2
0 STEP
1 0 -91.465900 -40.839990 59.999840 -0.000001 0.000000 0.999999 1.000000 0.000000 0.000001 0.000000 0.999999 0.000001 30391.dat
1 71 -91.209870 -40.839990 59.999840 0.000000 0.000000 0.999999 0.000000 -1.000000 0.000000 0.999999 0.000000 0.000001 55982.dat
1 0 -90.545630 -40.840240 320.000100 -0.000001 0.000000 0.999999 1.000000 0.000000 0.000001 0.000000 0.999999 0.000001 30391.dat
1 71 -90.289530 -40.840240 320.000100 0.000000 0.000000 0.999999 0.000000 -1.000000 0.000000 0.999999 0.000000 0.000001 55982.dat
0 STEP
1 0 90.757030 -40.840240 320.000600 0.000001 0.000000 -0.999999 1.000000 0.000000 0.000001 0.000000 -0.999999 0.000000 30391.dat
1 71 90.500480 -40.840240 320.000100 0.000000 0.000000 -1.000000 0.000000 -1.000000 0.000000 -1.000000 0.000000 0.000000 55982.dat
1 0 90.826290 -40.840000 59.998870 0.000001 0.000000 -1.000001 1.000000 0.000000 0.000001 0.000000 -1.000001 0.000000 30391.dat
1 71 90.570090 -40.839990 59.999860 0.000000 0.000000 -0.999999 0.000000 -1.000000 0.000000 -0.999999 0.000000 0.000000 55982.dat
0 STEP
1 1 120.000200 -120.840200 200.000500 -0.000001 -0.000001 -0.999999 -1.000000 0.000001 0.000001 0.000001 0.999999 -0.000001 32140.dat
1 0 79.999860 -120.840100 189.999900 0.000000 0.000000 -1.000001 0.000000 1.000000 0.000000 1.000000 0.000000 0.000000 2780.dat
1 0 60.000370 -120.840100 190.000400 0.000000 0.000000 -0.999999 0.000000 1.000000 0.000000 0.999999 0.000000 0.000000 2780.dat
1 0 60.000240 -140.840100 190.000400 0.000000 0.000000 -0.999999 0.000000 1.000000 0.000000 0.999999 0.000000 0.000000 2780.dat
0 STEP
1 1 -119.999800 -120.840300 200.000200 0.000001 0.000001 0.999999 -1.000000 0.000001 0.000001 -0.000001 -0.999999 0.000001 32140.dat
1 0 -59.999730 -140.840300 190.000200 0.000000 0.000000 -0.999999 0.000000 1.000000 0.000000 0.999999 0.000000 0.000000 2780.dat
1 0 -59.999920 -120.840300 189.999600 0.000000 0.000000 -1.000001 0.000000 1.000000 0.000000 1.000000 0.000000 0.000000 2780.dat
1 0 -79.999690 -120.840300 190.000200 0.000000 0.000000 -0.999999 0.000000 1.000000 0.000000 0.999999 0.000000 0.000000 2780.dat
0 STEP
1 15 0.000050 -140.840200 179.999900 0.000001 0.000001 -0.999999 -1.000000 0.000001 -0.000001 0.000001 0.999999 0.000001 64871.dat
1 4 20.000010 -140.840300 179.999900 0.000001 -0.999999 0.000001 0.000001 0.000001 1.000000 -0.999999 -0.000001 0.000001 32054.dat
1 4 -20.000000 -140.840300 179.999900 0.000001 -0.999999 0.000001 0.000001 0.000001 1.000000 -0.999999 -0.000001 0.000001 32054.dat
0 STEP
1 16 70.000000 -303.374800 129.000000 0.000000 1.000000 0.000000 1.000000 0.000000 0.000000 0.000000 0.000000 -1.000000 submodel group 9 copy copy copy
0 STEP
0 STEP
0 NOFILE
0 FILE SubModel Group 5
0 SubModel Group 5
0 Name:  SubModel Group 5
0 Author:  
0 CustomBrick
0 NumOfBricks:  7
1 0 0.000060 -40.320140 -0.000160 0.000000 0.999999 0.000000 1.000000 0.000000 0.000000 0.000000 0.000000 -0.999999 3705.dat
1 19 0.000060 -7.590120 -0.000160 0.999999 0.000000 0.000001 -0.000001 0.000000 1.000000 0.000000 -0.999999 0.000000 6589.dat
1 71 0.000060 -20.680150 -0.000170 0.000000 1.000000 0.000000 -0.000001 0.000000 1.000000 1.000000 0.000000 0.000001 3713.dat
0 STEP
1 15 0.000050 -40.840210 59.999810 -0.999999 0.000001 -0.000001 0.000001 1.000000 0.000001 0.000001 0.000001 -0.999999 64871.dat
1 19 0.000580 -50.840060 -39.999120 -0.000001 0.258818 -0.965923 -0.999999 -0.000001 0.000001 -0.000001 0.965924 0.258818 3749.dat
0 STEP
1 72 0.000580 -60.840050 -39.999120 -0.258819 -0.965924 0.000000 0.000000 0.000000 0.999999 -0.965925 0.258819 0.000000 3647.dat
1 71 0.000150 -60.940140 -0.000160 0.999998 0.000000 0.000001 -0.000001 0.000000 0.999999 0.000000 -0.999999 0.000000 3650c.dat
0 STEP
0 NOFILE
0 FILE SubModel Group 1
0 SubModel Group 1
0 Name:  SubModel Group 1
0 Author:  
0 CustomBrick
0 NumOfBricks:  8
1 0 0.000060 -79.149980 -0.000050 0.000000 0.999998 0.000000 0.999999 0.000000 0.000000 0.000000 0.000000 -0.999999 3706.dat
1 71 -0.000030 -30.000040 -0.000050 1.000000 0.000000 0.000000 0.000000 0.000000 1.000001 0.000000 -1.000000 0.000000 3649.dat
0 STEP
1 71 -10.000050 -20.000050 -10.000050 0.000000 0.000000 -1.000000 1.000000 0.000000 0.000000 0.000000 -1.000000 0.000000 3673.dat
1 71 -10.000030 -20.000050 9.999949 0.000000 0.000000 -1.000000 1.000000 0.000000 0.000000 0.000000 -1.000000 0.000000 3673.dat
0 STEP
1 71 10.000130 -20.000050 -10.000050 0.000000 0.000000 -1.000000 1.000000 0.000000 0.000000 0.000000 -1.000000 0.000000 3673.dat
1 71 10.000130 -20.000050 9.999949 0.000000 0.000000 -1.000000 1.000000 0.000000 0.000000 0.000000 -1.000000 0.000000 3673.dat
0 STEP
1 1 -49.999440 -9.999990 -10.000080 0.000001 0.000001 0.999997 0.000001 1.000000 -0.000001 -1.000000 0.000001 0.000001 32140.dat
1 1 50.000120 -10.000000 9.999949 -0.000001 -0.000001 -1.000000 0.000001 1.000000 -0.000001 1.000000 -0.000001 -0.000001 32140.dat
0 STEP
0 NOFILE
0 FILE SubModel Group 4
0 SubModel Group 4
0 Name:  SubModel Group 4
0 Author:  
0 CustomBrick
0 NumOfBricks:  5
1 0 0.100670 -14.840220 29.808000 0.000000 -0.999999 0.000000 -1.000000 0.000000 0.000000 0.000000 0.000000 -0.999999 2780.dat
1 0 0.100670 -24.840210 29.808000 0.000000 0.923876 0.382690 1.000001 0.000000 0.000000 0.000000 0.382691 -0.923876 32016.dat
0 STEP
1 15 0.000050 -24.840180 -10.000080 0.000001 0.000001 -0.999999 -1.000000 0.000001 -0.000001 0.000001 0.999999 0.000001 64871.dat
1 71 0.000050 -24.840210 -10.000080 0.000000 -0.999999 0.000000 0.000000 0.000000 1.000000 -0.999999 0.000000 0.000000 4519.dat
0 STEP
1 0 0.000050 -24.840210 -50.000020 0.000000 0.999999 0.000000 1.000001 0.000000 0.000000 0.000000 0.000000 -0.999999 32016.dat
0 STEP
0 NOFILE
0 FILE SubModel Group 3
0 SubModel Group 3
0 Name:  SubModel Group 3
0 Author:  
0 CustomBrick
0 NumOfBricks:  7
1 1 10.000560 -64.840050 0.649840 0.000001 0.999999 -0.000001 0.000001 0.000001 1.000000 0.999999 -0.000001 -0.000001 32140.dat
1 0 20.000530 -4.840000 20.649520 -0.999999 0.000000 0.000000 0.000000 1.000000 0.000000 0.000000 0.000000 -0.999999 2780.dat
1 0 20.000400 -4.839980 0.649780 -0.999999 0.000000 0.000000 0.000000 1.000000 0.000000 0.000000 0.000000 -0.999999 2780.dat
0 STEP
1 0 0.000330 -44.840020 0.649840 -0.999999 0.000000 0.000000 0.000000 1.000000 0.000000 0.000000 0.000000 -0.999999 2780.dat
1 19 0.000330 -64.840060 0.649840 0.999999 0.000001 -0.000001 0.000001 0.000001 1.000000 0.000001 -0.999999 0.000001 3749.dat
0 STEP
1 19 -9.999640 -84.840080 10.649840 0.000001 -0.999999 0.000001 0.000001 0.000001 1.000000 -0.999999 -0.000001 0.000001 3749.dat
1 4 -9.999640 -64.840060 0.649840 0.000000 0.000000 -0.999999 0.000000 1.000000 0.000000 0.999999 0.000000 0.000000 42003.dat
0 STEP
0 NOFILE
0 FILE SubModel Group 2
0 SubModel Group 2
0 Name:  SubModel Group 2
0 Author:  
0 CustomBrick
0 NumOfBricks:  7
1 1 -9.999889 -64.840050 -0.000230 0.000001 0.999999 -0.000001 0.000001 0.000001 1.000000 0.999999 -0.000001 -0.000001 32140.dat
1 0 -19.999990 -4.839960 19.999510 -0.999999 0.000000 0.000000 0.000000 1.000000 0.000000 0.000000 0.000000 -0.999999 2780.dat
1 0 -19.999990 -4.839970 -0.000350 -0.999999 0.000000 0.000000 0.000000 1.000000 0.000000 0.000000 0.000000 -0.999999 2780.dat
0 STEP
1 0 0.000180 -44.840040 -0.000230 -0.999999 0.000000 0.000000 0.000000 1.000000 0.000000 0.000000 0.000000 -0.999999 2780.dat
1 19 0.000180 -64.840090 -0.000230 -1.000000 -0.000001 0.000001 0.000001 0.000001 1.000001 -0.000001 0.999999 -0.000001 3749.dat
0 STEP
1 19 10.000070 -84.840110 9.999880 0.000001 -0.999999 0.000001 0.000001 0.000001 1.000000 -0.999999 -0.000001 0.000001 3749.dat
1 4 10.000160 -64.840100 -0.000110 0.000000 0.000000 -0.999999 0.000000 1.000000 0.000000 0.999999 0.000000 0.000000 42003.dat
0 STEP
0 NOFILE
0 FILE SubModel Group 9 Copy Copy Copy
0 SubModel Group 9 Copy Copy Copy
0 Name:  SubModel Group 9 Copy Copy Copy
0 Author:  
0 CustomBrick
0 NumOfBricks:  3
1 72 10.000000 -1.128810 -10.000000 1.000000 0.000000 0.000000 0.000000 0.000000 -1.000000 0.000000 1.000000 0.000000 dch003.dat
1 71 -27.466620 -79.717990 29.427020 1.000000 0.000000 0.000000 0.000000 0.000000 -1.000000 0.000000 1.000000 0.000000 dch004.dat
1 25 7.837010 13.484720 -9.965000 1.000000 0.000000 0.000000 0.000000 0.000000 -1.000000 0.000000 1.000000 0.000000 dch005.dat
0 NOFILE
