0 FILE 石油开采机.io
0 Untitled Model
0 Name:  石油开采机
0 Author:  
0 CustomBrick
0 NumOfBricks:  99
1 1 -168.780000 -28.000050 40.170180 1.000000 0.000000 0.000000 0.000000 1.000000 0.000000 0.000000 0.000000 1.000000 3702.dat
1 1 -128.780000 -36.000050 40.170180 1.000000 0.000000 0.000000 0.000000 1.000000 0.000000 0.000000 0.000000 1.000000 3023.dat
1 0 -208.780000 -18.000050 30.170180 0.000000 0.000000 -1.000000 0.000000 1.000000 0.000000 1.000000 0.000000 0.000000 2780.dat
1 0 -128.780000 -17.999970 30.170110 0.000000 0.000000 -1.000000 0.000000 1.000000 0.000000 1.000000 0.000000 0.000000 2780.dat
0 STEP
1 1 -168.780000 -60.000040 40.170180 1.000000 0.000000 0.000000 0.000000 1.000000 0.000000 0.000000 0.000000 1.000000 3894.dat
1 1 -188.780000 -36.000050 40.170180 1.000000 0.000000 0.000000 0.000000 1.000000 0.000000 0.000000 0.000000 1.000000 3710.dat
0 STEP
1 15 -88.780000 -17.999920 20.170050 0.000001 0.000001 -1.000000 -1.000000 0.000001 -0.000001 0.000001 1.000000 0.000001 64871.dat
0 STEP
1 16 -190.000000 -12.000000 0.000000 1.000000 0.000000 0.000000 0.000000 1.000000 0.000000 0.000000 0.000000 1.000000 submodel group 3
0 STEP
1 71 -148.780000 -17.999910 -19.829950 -0.000001 0.000001 1.000000 -1.000000 -0.000001 -0.000001 0.000001 -1.000000 0.000001 33299.dat
1 71 -228.780000 -17.999980 -19.829890 -0.000001 0.000001 1.000000 -1.000000 -0.000001 -0.000001 0.000001 -1.000000 0.000001 33299.dat
0 STEP
1 0 51.219920 -17.999740 10.170050 0.000000 0.000000 -1.000000 0.000000 1.000000 0.000000 1.000000 0.000000 0.000000 2780.dat
1 19 -8.779990 -17.999820 10.169990 -0.000001 1.000000 -0.000001 0.000000 -0.000001 -1.000000 -1.000000 -0.000001 0.000000 3749.dat
0 STEP
1 0 11.219960 -17.999840 -9.829989 0.000000 0.000000 -1.000000 0.000000 1.000000 0.000000 1.000000 0.000000 0.000000 2780.dat
1 1 -8.780069 -17.999710 0.170230 0.000001 0.000001 1.000000 -1.000000 0.000001 0.000001 -0.000001 -1.000000 0.000001 32140.dat
1 0 -48.779990 -17.999860 10.169990 0.000000 0.000000 -1.000000 0.000000 1.000000 0.000000 1.000000 0.000000 0.000000 2780.dat
1 0 51.219960 -37.999600 10.170290 0.000000 0.000000 -1.000000 0.000000 1.000000 0.000000 1.000000 0.000000 0.000000 2780.dat
0 STEP
1 15 -9.617900 -86.894870 0.170170 0.866024 -0.000001 0.500002 0.500002 0.000000 -0.866024 0.000001 1.000000 0.000001 40490.dat
1 0 30.382340 -156.176700 10.170410 0.000000 0.499998 -0.866027 0.000000 0.866027 0.499998 1.000000 0.000000 0.000000 2780.dat
1 0 0.382130 -104.215300 -9.829830 0.000000 0.000000 -1.000000 0.000000 1.000000 0.000000 1.000000 0.000000 0.000000 2780.dat
0 STEP
1 0 -49.618080 -17.612960 -29.829960 0.000000 0.000000 -1.000000 0.000000 1.000000 0.000000 1.000000 0.000000 0.000000 2780.dat
1 0 30.382280 -156.176800 -29.829840 0.000000 0.499998 -0.866027 0.000000 0.866027 0.499998 1.000000 0.000000 0.000000 2780.dat
1 15 -9.617909 -86.894910 -19.829890 0.866024 -0.000001 0.500002 0.500002 0.000000 -0.866024 0.000001 1.000000 0.000001 40490.dat
0 STEP
1 1 -8.780049 -17.999860 -19.830010 0.000001 0.000001 1.000000 -1.000000 0.000001 0.000001 -0.000001 -1.000000 0.000001 32140.dat
1 0 51.219960 -17.999800 -29.829960 0.000000 0.000000 -1.000000 0.000000 1.000000 0.000000 1.000000 0.000000 0.000000 2780.dat
1 19 -8.780040 -17.999860 -29.830020 -0.000001 1.000000 -0.000001 0.000001 0.000001 1.000000 1.000000 0.000001 -0.000001 3749.dat
0 STEP
1 15 -88.780000 -17.999940 -39.829960 0.000001 0.000001 -1.000000 -1.000000 0.000001 -0.000001 0.000001 1.000000 0.000001 64871.dat
0 STEP
1 0 -208.780000 -18.000050 -49.829900 0.000000 0.000000 -1.000000 0.000000 1.000000 0.000000 1.000000 0.000000 0.000000 2780.dat
1 0 -128.780000 -18.000050 -49.829840 0.000000 0.000000 -1.000000 0.000000 1.000000 0.000000 1.000000 0.000000 0.000000 2780.dat
1 0 51.219960 -37.999800 -29.829960 0.000000 0.000000 -1.000000 0.000000 1.000000 0.000000 1.000000 0.000000 0.000000 2780.dat
0 STEP
1 1 -168.780000 -28.000050 -59.829900 1.000000 0.000000 0.000000 0.000000 1.000000 0.000000 0.000000 0.000000 1.000000 3702.dat
1 1 -188.780000 -36.000050 -59.829900 1.000000 0.000000 0.000000 0.000000 1.000000 0.000000 0.000000 0.000000 1.000000 3710.dat
1 1 -128.780000 -36.000050 -59.829900 1.000000 0.000000 0.000000 0.000000 1.000000 0.000000 0.000000 0.000000 1.000000 3023.dat
0 STEP
1 1 -168.780000 -60.000040 -59.829900 1.000000 0.000000 0.000000 0.000000 1.000000 0.000000 0.000000 0.000000 1.000000 3894.dat
0 STEP
1 16 -180.000000 -24.000000 10.000000 1.000000 0.000000 0.000000 0.000000 1.000000 0.000000 0.000000 0.000000 1.000000 submodel group 2
0 STEP
1 1 -188.780000 -108.000000 -59.829900 1.000000 0.000000 0.000000 0.000000 1.000000 0.000000 0.000000 0.000000 1.000000 3701.dat
1 1 -188.780000 -108.000000 40.170180 1.000000 0.000000 0.000000 0.000000 1.000000 0.000000 0.000000 0.000000 1.000000 3701.dat
1 1 -128.780000 -92.000060 -9.829949 0.000000 0.000000 1.000000 0.000000 1.000000 0.000000 -1.000000 0.000000 0.000000 32001.dat
0 STEP
1 1 -168.780100 -116.000000 -9.829889 0.000000 0.000000 1.000000 0.000000 1.000000 0.000000 -1.000000 0.000000 0.000000 32001.dat
1 1 -208.780000 -116.000000 -9.829889 0.000000 0.000000 1.000000 0.000000 1.000000 0.000000 -1.000000 0.000000 0.000000 32001.dat
0 STEP
1 16 140.000000 -24.000000 -10.000000 0.984808 0.173647 0.000001 -0.173647 0.984808 0.000000 -0.000001 0.000000 1.000000 submodel group 1
0 STEP
1 15 26.909370 -175.872800 20.170410 0.984808 -0.000001 0.173647 -0.173647 -0.000001 0.984808 -0.000001 -1.000000 -0.000001 64871.dat
0 STEP
1 19 -164.293900 -246.317600 60.168500 0.000000 0.000001 0.999998 0.000000 0.999996 0.000000 -1.000003 0.000000 0.000000 32556.dat
1 4 -164.294100 -246.317400 30.168770 0.000000 0.422621 0.906305 0.000000 0.906302 -0.422620 -1.000004 0.000000 0.000000 62462.dat
0 STEP
1 15 -176.600100 -167.270100 80.168750 -0.988096 0.000001 0.153828 -0.153829 0.000001 -0.988094 -0.000001 -1.000004 -0.000001 40490.dat
0 STEP
1 1 -300.000000 -8.000000 0.000000 1.000000 0.000000 0.000000 0.000000 1.000000 0.000000 0.000000 0.000000 1.000000 32001.dat
1 15 -240.229400 -38.000050 -0.330330 0.000000 0.000000 -1.000000 0.000000 1.000000 0.000000 1.000000 0.000000 0.000000 xt0020.dat
0 STEP
1 16 -386.829400 3.999950 -162.330300 1.000000 0.000000 0.000000 0.000000 1.000000 0.000000 0.000000 0.000000 1.000000 submodel group 9 copy copy copy
0 STEP
0 STEP
0 NOFILE
0 FILE SubModel Group 3
0 SubModel Group 3
0 Name:  SubModel Group 3
0 Author:  
0 CustomBrick
0 NumOfBricks:  10
1 0 41.219990 -6.000010 -9.829949 0.000000 0.000000 1.000000 0.000000 1.000000 0.000000 -1.000000 0.000000 0.000000 3705.dat
1 4 41.219990 -26.000000 0.000130 0.000000 0.000000 1.000000 0.000000 -1.000000 0.000000 1.000000 0.000000 0.000000 42003.dat
0 STEP
1 14 26.169970 -26.000000 0.000130 0.000000 0.000000 1.000000 0.000000 1.000000 0.000000 -1.000000 0.000000 0.000000 32123a.dat
1 71 61.570020 -26.000000 0.000130 0.000001 0.000000 -1.000000 0.000000 1.000000 0.000000 1.000000 0.000000 0.000001 3713.dat
1 0 9.219990 -26.000000 0.000130 -1.000000 0.000000 0.000000 0.000000 1.000000 0.000000 0.000000 0.000000 -1.000000 3707.dat
0 STEP
1 14 -24.220020 -26.000000 0.000130 0.000000 0.000000 1.000000 0.000000 1.000000 0.000000 -1.000000 0.000000 0.000000 32123a.dat
1 71 1.009960 -26.000000 0.000130 0.000000 0.000000 1.000000 0.000000 1.000000 0.000000 -1.000000 0.000000 0.000000 4716.dat
0 STEP
1 0 -49.780020 -46.000000 0.000130 -1.000000 0.000000 0.000000 0.000000 1.000000 0.000000 0.000000 0.000000 -1.000000 2780.dat
1 4 -39.780020 -26.000000 0.000130 0.000000 0.000000 -1.000000 0.000000 -1.000000 0.000000 -1.000000 0.000000 0.000000 42003.dat
1 0 -38.780020 -6.000090 -9.829830 0.000000 0.000000 1.000000 0.000000 1.000000 0.000000 -1.000000 0.000000 0.000000 3705.dat
0 STEP
0 NOFILE
0 FILE SubModel Group 2
0 SubModel Group 2
0 Name:  SubModel Group 2
0 Author:  
0 CustomBrick
0 NumOfBricks:  9
1 0 -8.780010 -50.000040 -20.829890 0.000000 0.707107 0.707107 0.000000 0.707107 -0.707107 -1.000000 0.000000 0.000000 3707.dat
1 19 -8.780010 -50.000040 -10.199890 0.707107 -0.707107 0.000000 0.707107 0.707107 0.000000 0.000000 0.000000 1.000000 32269.dat
0 STEP
1 1 11.219990 -60.000040 30.170180 1.000000 0.000000 0.000000 0.000000 1.000000 0.000000 0.000000 0.000000 1.000000 3894.dat
1 71 -8.780010 -50.000040 10.310130 0.707107 -0.707107 0.000001 0.707107 0.707107 0.000001 -0.000001 0.000000 1.000000 3713.dat
0 STEP
1 71 -8.906420 -64.222640 60.168830 0.000000 0.000000 -1.000000 0.000000 1.000000 0.000000 1.000000 0.000000 0.000000 3673.dat
1 72 -8.779920 -50.000040 49.170140 -0.707107 -0.707107 0.000000 -0.707107 0.707107 0.000000 0.000000 0.000000 -1.000000 3648b.dat
0 STEP
1 71 -8.780010 -50.000060 -50.829900 0.707107 -0.707107 0.000001 0.707107 0.707107 0.000001 -0.000001 0.000000 1.000000 3713.dat
1 71 -8.780010 -50.000060 -30.829890 0.707107 -0.707107 0.000001 0.707107 0.707107 0.000001 -0.000001 0.000000 1.000000 3713.dat
0 STEP
1 1 11.219990 -60.000040 -69.829900 1.000000 0.000000 0.000000 0.000000 1.000000 0.000000 0.000000 0.000000 1.000000 3894.dat
0 STEP
0 NOFILE
0 FILE SubModel Group 1
0 SubModel Group 1
0 Name:  SubModel Group 1
0 Author:  
0 CustomBrick
0 NumOfBricks:  34
1 1 -126.205400 -310.668500 10.169870 0.978148 0.207912 -0.000002 -0.207912 0.978147 0.000001 0.000002 -0.000001 1.000000 3703.dat
1 0 -104.563200 -305.045200 0.170440 -0.000002 0.207912 -0.978148 0.000001 0.978147 0.207912 1.000000 -0.000001 -0.000002 2780.dat
1 0 -65.437320 -313.361800 0.170400 -0.000002 0.207912 -0.978148 0.000001 0.978147 0.207912 1.000000 -0.000001 -0.000002 2780.dat
0 STEP
1 71 -85.000260 -309.203500 20.170510 -0.000001 0.984808 -0.173647 0.000000 0.173647 0.984808 1.000000 0.000001 0.000000 3673.dat
1 19 -261.066800 -271.779700 10.170180 0.000001 -0.087146 0.996196 0.000000 0.996196 0.087146 -1.000000 0.000000 0.000001 32556.dat
1 0 -6.748420 -325.836500 20.170140 -0.000002 0.265545 -0.964100 0.000001 0.964099 0.265546 1.000001 -0.000001 -0.000002 2780.dat
1 0 12.534250 -331.147600 20.164060 -0.000002 -0.080211 -0.996779 0.000001 0.996778 -0.080211 1.000000 -0.000001 -0.000002 2780.dat
0 STEP
1 1 -126.205300 -310.668900 -9.829650 0.978147 0.207912 -0.000002 -0.207912 0.978146 0.000001 0.000002 -0.000001 1.000000 3703.dat
0 STEP
1 71 -85.000240 -309.203700 -19.829740 -0.000001 0.087163 -0.996194 0.000000 0.996194 0.087163 1.000000 0.000000 -0.000001 3673.dat
1 0 -6.748290 -325.836900 -19.835970 -0.000002 0.265547 -0.964113 0.000001 0.964098 0.265549 1.000011 -0.000001 -0.000002 2780.dat
1 0 12.534460 -331.147700 -19.837420 -0.000002 -0.080211 -0.996782 0.000001 0.996778 -0.080211 1.000003 -0.000001 -0.000002 2780.dat
0 STEP
1 15 51.098740 -341.769800 30.163900 -0.265546 0.000000 -0.964113 -0.964097 0.000002 0.265548 0.000002 1.000012 -0.000001 32524.dat
1 0 108.945500 -357.702100 20.163760 -0.000002 0.265547 -0.964115 0.000001 0.964098 0.265549 1.000012 -0.000001 -0.000002 2780.dat
1 19 89.663440 -352.391300 20.163750 0.000003 -0.964113 0.265548 -0.000001 0.265550 0.964097 -1.000012 -0.000003 0.000000 3749.dat
0 STEP
1 1 89.663490 -352.391500 10.163570 0.265548 -0.000001 0.964113 0.964097 0.000000 -0.265550 0.000000 1.000012 0.000001 32140.dat
1 0 147.510000 -368.324300 0.163360 -0.000002 0.265547 -0.964115 0.000001 0.964098 0.265549 1.000012 -0.000001 -0.000002 2780.dat
1 71 152.821200 -349.042600 20.163490 -0.000002 -0.080210 -0.996779 0.000001 0.996779 -0.080210 1.000000 -0.000001 -0.000002 3673.dat
0 STEP
1 1 89.663590 -352.391600 -9.836430 0.265548 -0.000001 0.964113 0.964097 0.000000 -0.265550 0.000000 1.000012 0.000001 32140.dat
0 STEP
1 0 108.945600 -357.702400 -19.836670 -0.000002 0.265547 -0.964115 0.000001 0.964098 0.265549 1.000012 -0.000001 -0.000002 2780.dat
1 71 152.820900 -349.042400 -19.836510 -0.000002 -0.080210 -0.996779 0.000001 0.996779 -0.080210 1.000000 -0.000001 -0.000002 3673.dat
1 19 89.663520 -352.391400 -19.836690 -0.000002 0.964114 0.265545 0.000002 -0.265548 0.964098 1.000012 0.000003 -0.000002 3749.dat
0 STEP
1 15 51.098820 -341.769900 -29.836410 -0.265546 0.000000 -0.964113 -0.964097 0.000002 0.265548 0.000002 1.000012 -0.000001 32524.dat
0 STEP
1 14 146.404100 -269.300600 15.323470 0.080208 0.996794 -0.000003 -0.996777 0.080210 0.000001 0.000001 0.000003 1.000012 32123a.dat
1 0 146.404100 -269.300600 0.163560 0.000002 -0.080208 0.996793 -0.000001 0.996777 0.080210 -1.000012 -0.000001 0.000002 3705.dat
1 15 149.612500 -309.171400 30.163920 -0.996793 -0.000001 -0.080209 -0.080211 0.000000 0.996777 -0.000001 1.000012 0.000000 32316.dat
0 STEP
1 14 146.404100 -269.300600 -14.836700 0.080208 0.996794 -0.000003 -0.996777 0.080210 0.000001 0.000001 0.000003 1.000012 32123a.dat
1 4 144.799800 -249.365000 0.243570 -0.000002 0.996792 -0.080207 0.000001 0.080209 0.996777 1.000012 0.000002 -0.000001 32039.dat
0 STEP
1 15 149.612500 -309.171600 -29.836270 -0.996794 -0.000001 -0.080209 -0.080211 -0.000001 0.996777 -0.000001 1.000012 0.000000 32316.dat
0 STEP
1 0 140.789000 -199.526100 0.243510 -0.080208 0.996792 0.000002 0.996776 0.080210 -0.000001 -0.000001 0.000002 -1.000012 3706.dat
1 19 138.382600 -169.622800 0.243270 0.996778 0.000002 -0.080208 0.080208 -0.000001 0.996778 0.000002 -1.000000 -0.000001 32269.dat
0 STEP
1 4 135.174400 -129.751700 0.243390 -0.080208 0.996778 0.000000 0.996778 0.080208 -0.000001 -0.000001 0.000000 -1.000000 32054.dat
0 STEP
1 4 130.361900 -69.945010 0.243390 0.080208 0.996778 -0.000002 -0.996778 0.080208 0.000001 0.000001 0.000002 1.000000 32054.dat
1 4 132.768200 -99.848350 0.243390 -0.080208 -0.000001 0.996778 0.996778 0.000001 0.080208 -0.000001 1.000000 0.000001 62462.dat
0 STEP
1 15 -85.000230 -169.203600 -29.829920 1.000000 0.000000 0.000000 0.000000 -0.000001 1.000000 0.000000 -1.000000 -0.000001 64871.dat
0 STEP
0 NOFILE
0 FILE SubModel Group 9 Copy Copy Copy
0 SubModel Group 9 Copy Copy Copy
0 Name:  SubModel Group 9 Copy Copy Copy
0 Author:  
0 CustomBrick
0 NumOfBricks:  3
1 72 10.000000 -1.128810 -10.000000 1.000000 0.000000 0.000000 0.000000 0.000000 -1.000000 0.000000 1.000000 0.000000 dch003.dat
1 71 -27.466620 -79.717990 29.427020 1.000000 0.000000 0.000000 0.000000 0.000000 -1.000000 0.000000 1.000000 0.000000 dch004.dat
1 25 7.837010 13.484720 -9.965000 1.000000 0.000000 0.000000 0.000000 0.000000 -1.000000 0.000000 1.000000 0.000000 dch005.dat
0 NOFILE
