0 FILE 电动直升机.io
0 Untitled Model
0 Name:  电动直升机
0 Author:  
0 CustomBrick
0 NumOfBricks:  79
1 0 -137.000000 -181.400200 235.000100 -1.000000 0.000000 0.000000 0.000000 1.000000 0.000000 0.000000 0.000000 -1.000000 2780.dat
1 0 -137.000000 -181.400200 195.000100 -1.000000 0.000000 0.000000 0.000000 1.000000 0.000000 0.000000 0.000000 -1.000000 2780.dat
1 16 36.000000 -71.177170 206.000000 -1.000000 0.000000 0.000000 0.000000 1.000000 0.000000 0.000000 0.000000 -1.000000 submodel group 9 copy copy copy
0 STEP
1 15 -147.000000 -161.400200 235.000100 0.000001 1.000000 0.000001 0.000001 0.000001 -1.000000 -1.000000 0.000001 -0.000001 32523.dat
1 15 -147.000000 -161.400200 195.000100 -0.000001 -1.000000 -0.000001 -0.000001 -0.000001 1.000000 -1.000000 0.000001 -0.000001 32523.dat
0 STEP
1 19 -157.000000 -161.400200 235.000100 -1.000000 -0.000001 0.000001 0.000001 -1.000000 0.000001 0.000001 0.000001 1.000000 3749.dat
1 19 -157.000000 -161.400200 195.000100 -1.000000 -0.000001 0.000001 0.000001 0.173649 0.984808 -0.000001 0.984808 -0.173649 3749.dat
0 STEP
1 71 -167.000000 -161.400200 235.000100 -0.000001 0.000000 1.000000 1.000000 0.000000 0.000001 0.000000 1.000000 0.000000 94925.dat
1 71 -167.000100 -161.400200 195.000100 -0.000001 0.000000 1.000000 0.984808 0.173648 0.000001 -0.173648 0.984808 0.000000 94925.dat
0 STEP
1 15 -127.000000 -141.400300 175.000100 1.000000 -0.000001 0.000001 -0.000001 -0.000001 1.000000 -0.000001 -1.000000 -0.000001 32316.dat
1 1 -127.000000 -121.400200 175.000100 0.000000 0.000000 1.000000 0.000000 1.000000 0.000000 -1.000000 0.000000 0.000000 6558.dat
1 1 -127.000000 -161.400200 175.000100 0.000000 0.000000 1.000000 0.000000 1.000000 0.000000 -1.000000 0.000000 0.000000 6558.dat
0 STEP
1 15 73.000030 -121.400200 175.000100 1.000000 -0.000001 0.000001 -0.000001 -0.000001 1.000000 -0.000001 -1.000000 -0.000001 32524.dat
1 1 73.000000 -121.400200 175.000100 0.000000 0.000000 1.000000 0.000000 1.000000 0.000000 -1.000000 0.000000 0.000000 6558.dat
1 1 73.000000 -161.400300 175.000100 0.000000 0.000000 1.000000 0.000000 1.000000 0.000000 -1.000000 0.000000 0.000000 6558.dat
0 STEP
1 15 13.000020 -161.400300 155.000100 0.000001 0.000001 -1.000000 -1.000000 0.000001 -0.000001 0.000001 1.000000 0.000001 64871.dat
0 STEP
1 15 -27.000010 -121.400100 155.000100 0.000001 0.000001 -1.000000 -1.000000 0.000001 -0.000001 0.000001 1.000000 0.000001 64871.dat
1 0 -7.000010 -121.400100 145.000100 0.000000 0.000000 -1.000000 0.000000 1.000000 0.000001 1.000002 0.000000 0.000000 2780.dat
1 0 -147.000000 -121.400200 145.000100 0.000000 0.000000 -1.000000 0.000000 1.000000 0.000000 1.000000 0.000000 0.000000 2780.dat
1 19 -107.000000 -121.400200 145.000100 0.000001 -1.000000 0.000001 0.000001 0.000001 1.000000 -1.000000 -0.000001 0.000001 3749.dat
1 19 -67.000010 -121.400100 145.000100 0.000001 -1.000000 0.000001 0.000001 0.000002 1.000000 -1.000002 -0.000001 0.000001 3749.dat
0 STEP
1 1 53.000160 -41.400310 135.001100 -0.799999 0.000001 -0.600001 0.600001 0.000001 -0.799999 -0.000001 -1.000002 -0.000001 6629.dat
1 19 53.000120 -41.400310 145.001100 0.000002 -0.600001 -0.799999 0.000000 -0.799999 0.600001 -1.000000 -0.000001 -0.000002 3749.dat
0 STEP
1 1 -226.999800 -41.400020 135.000100 0.800001 -0.000001 0.599999 0.599999 0.000000 -0.800001 0.000001 1.000000 0.000001 6629.dat
1 19 -226.999900 -41.400010 146.270100 0.000001 -0.599999 0.800001 0.000000 0.800001 0.599999 -1.000000 -0.000001 0.000001 3749.dat
0 STEP
1 15 -86.999870 -41.400420 155.001100 0.000001 0.000001 -1.000000 -1.000000 0.000001 -0.000001 0.000001 1.000000 0.000001 64871.dat
0 STEP
1 16 260.000000 -132.000000 210.000000 1.000000 0.000000 0.000000 0.000000 1.000000 0.000000 0.000000 0.000000 1.000000 submodel group 1
0 STEP
1 15 -127.000000 -141.400300 255.000100 1.000000 -0.000001 0.000001 -0.000001 -0.000001 1.000000 -0.000001 -1.000000 -0.000001 32316.dat
1 1 -127.000000 -161.400200 255.000100 0.000000 1.000000 0.000000 0.000000 0.000000 1.000000 1.000000 0.000000 0.000000 6558.dat
1 1 -126.999900 -121.400200 255.000100 0.000000 1.000000 0.000000 0.000000 0.000000 1.000000 1.000000 0.000000 0.000000 6558.dat
0 STEP
1 15 73.000030 -121.400200 255.000100 -1.000000 0.000001 -0.000001 0.000001 0.000001 -1.000000 -0.000001 -1.000000 -0.000001 32524.dat
1 1 73.000000 -121.400300 255.000100 0.000000 1.000000 0.000000 0.000000 0.000000 1.000000 1.000000 0.000000 0.000000 6558.dat
1 1 72.999970 -161.400300 255.000100 0.000000 1.000000 0.000000 0.000000 0.000000 1.000000 1.000000 0.000000 0.000000 6558.dat
0 STEP
1 15 13.000000 -161.400300 275.000000 0.000001 0.000001 -1.000000 -1.000000 0.000001 -0.000001 0.000001 1.000000 0.000001 64871.dat
0 STEP
1 15 -26.999880 -121.400100 275.000000 0.000001 0.000001 -1.000000 -1.000000 0.000001 -0.000001 0.000001 1.000000 0.000001 64871.dat
0 STEP
1 0 -146.999900 -121.400200 285.000000 0.000000 1.000000 0.000000 0.000000 0.000000 1.000000 1.000000 0.000000 0.000000 2780.dat
1 0 -7.000010 -121.399900 285.000000 0.000000 1.000000 -0.000001 0.000000 0.000000 1.000000 1.000000 0.000000 0.000000 2780.dat
1 19 -106.999900 -121.400200 285.000000 -0.000001 1.000000 -0.000001 0.000001 0.000001 1.000000 1.000000 0.000001 -0.000001 3749.dat
1 19 -67.000010 -121.400000 285.000000 -0.000001 1.000000 -0.000002 0.000001 0.000001 1.000000 1.000000 0.000001 -0.000001 3749.dat
0 STEP
1 1 -227.000000 -41.400290 295.000000 0.799999 -0.000001 0.600001 0.600001 0.000000 -0.799999 0.000001 1.000000 0.000001 6629.dat
1 19 -227.000000 -41.400270 285.000000 -0.000002 0.600001 0.799999 0.000000 -0.800000 0.600001 1.000000 0.000001 0.000001 3749.dat
0 STEP
1 1 52.999880 -41.399880 295.002000 -0.800001 0.000001 -0.599999 0.600000 0.000000 -0.800004 -0.000001 -1.000000 -0.000001 6629.dat
1 19 52.999880 -41.399890 285.002000 -0.000002 0.599998 -0.800002 0.000000 0.800002 0.599998 1.000000 0.000001 -0.000001 3749.dat
0 STEP
1 15 -87.000010 -41.400120 275.000000 0.000001 0.000001 -1.000000 -1.000000 0.000001 -0.000001 0.000001 1.000000 0.000001 64871.dat
0 STEP
1 0 113.000100 -230.130200 215.000100 0.000000 1.000000 0.000000 -1.000000 0.000000 0.000000 0.000000 0.000000 1.000000 3737.dat
1 15 113.000000 -148.375000 216.000000 0.000000 -1.000000 0.000000 0.000000 0.000000 1.000000 -1.000000 0.000000 0.000000 dx0055.dat
0 STEP
1 71 113.130000 -340.130100 215.000100 -1.000000 0.000000 0.000000 0.000000 0.000000 1.000000 0.000000 1.000000 0.000000 4519.dat
1 4 113.000000 -320.130100 215.000100 -1.000000 0.000000 0.000000 0.000000 -0.000001 1.000000 0.000000 1.000000 0.000001 32039.dat
0 STEP
1 0 92.980030 -350.130100 235.000100 0.000000 1.000000 0.000000 -1.000000 0.000000 0.000000 0.000000 0.000000 1.000000 2780.dat
1 0 92.980030 -350.130100 255.000100 0.000000 1.000000 0.000000 -1.000000 0.000000 0.000000 0.000000 0.000000 1.000000 2780.dat
1 4 92.980030 -340.130100 235.000100 -1.000000 0.000000 0.000000 0.000000 0.000000 1.000000 0.000000 1.000000 0.000000 42003.dat
0 STEP
1 0 133.130100 -350.130500 175.000100 0.000000 1.000002 0.000000 -1.000002 0.000000 0.000000 0.000000 0.000000 1.000000 2780.dat
1 0 133.130100 -350.130100 195.000100 0.000000 1.000000 0.000000 -1.000000 0.000000 0.000000 0.000000 0.000000 1.000000 2780.dat
1 4 133.130100 -340.130100 195.000100 1.000000 0.000000 0.000000 0.000000 0.000000 1.000000 0.000000 -1.000000 0.000000 42003.dat
0 STEP
1 15 133.130200 -360.130000 55.000180 -1.000000 0.000001 -0.000001 -0.000001 -1.000000 -0.000001 -0.000001 -0.000001 1.000000 64871.dat
1 15 92.979890 -360.130300 375.000000 -1.000000 0.000001 -0.000001 -0.000001 -1.000000 -0.000001 -0.000001 -0.000001 1.000000 64871.dat
0 STEP
0 STEP
0 NOFILE
0 FILE SubModel Group 9 Copy Copy Copy
0 SubModel Group 9 Copy Copy Copy
0 Name:  SubModel Group 9 Copy Copy Copy
0 Author:  
0 CustomBrick
0 NumOfBricks:  3
1 72 10.000000 -1.128810 -10.000000 1.000000 0.000000 0.000000 0.000000 0.000000 -1.000000 0.000000 1.000000 0.000000 dch003.dat
1 71 -27.466620 -79.717990 29.427020 1.000000 0.000000 0.000000 0.000000 0.000000 -1.000000 0.000000 1.000000 0.000000 dch004.dat
1 25 7.837010 13.484720 -9.965000 1.000000 0.000000 0.000000 0.000000 0.000000 -1.000000 0.000000 1.000000 0.000000 dch005.dat
0 NOFILE
0 FILE SubModel Group 1
0 SubModel Group 1
0 Name:  SubModel Group 1
0 Author:  
0 CustomBrick
0 NumOfBricks:  22
1 1 -7.000000 -39.400190 -34.999910 1.000000 0.000000 0.000000 0.000000 1.000000 0.000000 0.000000 0.000000 1.000000 3703.dat
1 0 133.000000 -29.400210 -24.999880 0.000000 0.000000 -1.000000 0.000000 1.000000 0.000000 1.000000 0.000000 0.000000 2780.dat
1 0 113.000000 -29.400240 -24.999880 0.000000 0.000000 -1.000000 0.000000 1.000000 0.000000 1.000000 0.000000 0.000000 2780.dat
1 0 -147.000000 -29.400220 -44.999910 0.000000 0.000000 -1.000000 0.000000 1.000000 0.000000 1.000000 0.000000 0.000000 2780.dat
1 1 -107.000000 -29.400160 -34.999910 0.000000 0.000000 -1.000000 0.000000 1.000000 0.000000 1.000000 0.000000 0.000000 6558.dat
0 STEP
1 0 -127.000000 -29.400220 -24.999900 0.000000 0.000000 -1.000000 0.000000 1.000000 0.000000 1.000000 0.000000 0.000000 2780.dat
1 19 -146.999900 -19.400190 -14.999920 -0.000001 -0.000001 -1.000000 -1.000000 -0.000001 0.000001 -0.000001 1.000000 -0.000001 3749.dat
1 4 -127.000000 -29.400190 -14.999920 0.000000 1.000000 0.000000 1.000000 0.000000 0.000000 0.000000 0.000000 -1.000000 42003.dat
0 STEP
1 1 132.999900 -89.400270 -14.999920 -1.000000 0.000001 0.000001 0.000001 0.000001 1.000000 0.000001 1.000000 -0.000001 32140.dat
1 14 133.000000 -69.400270 -30.479880 0.000000 1.000000 0.000000 -1.000000 0.000000 0.000000 0.000000 0.000000 1.000000 32123a.dat
1 0 132.999900 -69.400270 4.520110 0.000000 0.000000 1.000000 0.000000 1.000000 0.000000 -1.000000 0.000000 0.000000 3705.dat
0 STEP
1 1 132.999900 -89.400150 25.000080 -1.000000 0.000001 0.000001 0.000001 0.000001 1.000000 0.000001 1.000000 -0.000001 32140.dat
1 71 132.999900 -69.400270 4.820040 1.000000 0.000000 0.000000 0.000000 1.000000 0.000000 0.000000 0.000000 1.000000 3649.dat
0 STEP
1 14 133.000000 -69.400270 40.150120 0.000000 1.000000 0.000000 -1.000000 0.000000 0.000000 0.000000 0.000000 1.000000 32123a.dat
1 0 133.000000 -29.400210 35.000090 0.000000 0.000000 -1.000000 0.000000 1.000000 0.000000 1.000000 0.000000 0.000000 2780.dat
1 0 113.000000 -29.400210 35.000090 0.000000 0.000000 -1.000000 0.000000 1.000000 0.000000 1.000000 0.000000 0.000000 2780.dat
0 STEP
1 1 -7.000000 -39.400210 45.000080 1.000000 0.000000 0.000000 0.000000 1.000000 0.000000 0.000000 0.000000 1.000000 3703.dat
1 0 -147.000000 -29.400220 55.000000 0.000000 1.000000 0.000000 0.000000 0.000000 1.000000 1.000000 0.000000 0.000000 2780.dat
1 1 -107.000000 -29.400190 45.000080 0.000000 0.000000 1.000000 0.000000 1.000000 0.000000 -1.000000 0.000000 0.000000 6558.dat
0 STEP
1 0 -127.000000 -29.400190 35.000080 0.000000 1.000000 0.000000 0.000000 0.000000 1.000000 1.000000 0.000000 0.000000 2780.dat
1 19 -147.000000 -19.400190 25.000080 -0.000001 -0.000001 -1.000000 -1.000000 -0.000001 0.000001 -0.000001 1.000000 -0.000001 3749.dat
1 4 -127.000000 -29.400190 25.000080 0.000000 1.000000 0.000000 1.000000 0.000000 0.000000 0.000000 0.000000 -1.000000 42003.dat
0 STEP
0 NOFILE
