0 FILE 56-赛车.io
0 Untitled Model
0 Name:  56-赛车
0 Author:  
0 CustomBrick
0 NumOfBricks:  74
1 0 -40.152720 -41.445790 -180.008800 -1.000026 0.000000 0.000001 0.000000 1.000003 0.000000 -0.000001 0.000000 -1.000023 3706.dat
1 0 -39.963020 -41.445800 -140.008300 -1.000015 0.000000 0.000000 0.000000 1.000000 0.000000 0.000000 0.000000 -1.000015 3705.dat
1 72 -55.033000 -41.445800 -160.008800 0.000000 0.000000 -1.000028 1.000005 0.000000 0.000000 0.000000 -1.000023 -0.000001 6575.dat
0 STEP
1 71 -39.962540 -41.445810 -180.008900 0.000001 0.000000 -1.000028 0.000000 1.000005 0.000000 1.000023 0.000000 0.000001 3713.dat
1 71 -39.872520 -41.445800 -140.008700 -0.000001 0.000000 1.000026 0.000000 1.000003 0.000000 -1.000023 0.000000 -0.000001 3713.dat
0 STEP
1 72 -24.962060 -41.445800 -160.008800 0.000000 0.000001 -1.000028 1.000005 0.000000 0.000000 0.000000 -1.000023 -0.000001 6575.dat
0 STEP
1 15 -70.153400 -41.445880 -120.008700 0.000001 1.000028 0.000002 1.000005 -0.000001 0.000001 0.000001 0.000002 -1.000023 32524.dat
1 15 -10.001600 -41.445870 -120.008700 0.000001 1.000023 0.000002 1.000000 -0.000001 0.000001 0.000001 0.000002 -1.000023 32524.dat
0 STEP
1 72 -110.154200 -41.445790 -180.008900 0.000000 0.000001 -1.000026 1.000003 0.000000 0.000000 0.000000 -1.000023 -0.000001 32016.dat
1 72 29.656750 -41.445790 -180.109300 0.000000 0.382705 -0.923904 1.000003 0.000000 0.000000 0.000000 -0.923901 -0.382703 32016.dat
0 STEP
1 0 -80.153500 -41.445920 -80.008300 1.000023 0.000000 0.000000 0.000000 1.000000 0.000000 0.000000 0.000000 1.000023 2780.dat
1 0 -80.153640 -41.445940 -60.008060 1.000023 0.000000 0.000000 0.000000 1.000000 0.000000 0.000000 0.000000 1.000023 2780.dat
0 STEP
1 1 -90.153170 -51.445940 39.997710 0.000000 0.000000 -1.000015 0.000000 1.000000 0.000000 1.000015 0.000000 0.000000 3703.dat
0 STEP
1 0 -40.282900 -41.445940 179.999300 -1.000017 0.000000 0.000000 0.000000 1.000000 0.000000 0.000000 0.000000 -1.000017 3737.dat
0 STEP
1 71 -110.283600 -41.445940 179.999300 0.000001 0.000000 -1.000017 0.000000 1.000000 0.000000 1.000017 0.000000 0.000001 3713.dat
0 STEP
1 71 -69.963200 -41.445940 179.999300 0.000001 0.000000 -1.000017 0.000000 1.000000 0.000000 1.000017 0.000000 0.000001 3713.dat
0 STEP
1 19 -57.193080 -41.445940 179.999300 -0.000001 0.000000 1.000017 0.000000 -1.000000 0.000000 1.000017 0.000000 0.000001 6589.dat
0 STEP
1 0 -80.153140 -41.445990 -0.004920 1.000017 0.000000 0.000000 0.000000 1.000000 0.000000 0.000000 0.000000 1.000017 2780.dat
1 0 -80.153080 -41.445940 -40.005860 1.000017 0.000000 0.000000 0.000000 1.000000 0.000000 0.000000 0.000000 1.000017 2780.dat
0 STEP
1 16 -40.152400 -35.999460 19.997400 1.000015 0.000000 0.000000 0.000000 1.000000 0.000000 0.000000 0.000000 1.000015 submodel group 2
0 STEP
1 0 -0.271440 -41.445920 -40.005830 1.000017 0.000000 0.000000 0.000000 1.000000 0.000000 0.000000 0.000000 1.000017 2780.dat
1 0 -0.271500 -41.445970 -0.004980 1.000017 0.000000 0.000000 0.000000 1.000000 0.000000 0.000000 0.000000 1.000017 2780.dat
1 0 -0.001020 -41.445920 -60.008180 1.000023 0.000000 0.000000 0.000000 1.000000 0.000000 0.000000 0.000000 1.000023 2780.dat
1 0 -0.001020 -41.445900 -80.008400 1.000023 0.000000 0.000000 0.000000 1.000000 0.000000 0.000000 0.000000 1.000023 2780.dat
0 STEP
1 1 10.000000 -51.445900 40.000000 0.000000 0.000000 -1.000000 0.000000 1.000000 0.000000 1.000000 0.000000 0.000000 3703.dat
0 STEP
1 0 -40.415250 -41.445810 -100.008700 -1.000000 0.000000 0.000000 0.000000 1.000000 0.000000 0.000000 0.000000 -1.000000 3737.dat
0 STEP
1 71 29.718640 -41.445940 179.999300 0.000001 0.000000 -1.000017 0.000000 1.000000 0.000000 1.000017 0.000000 0.000001 3713.dat
1 71 -110.294600 -41.445800 -100.007900 0.000001 0.000000 -1.000017 0.000000 1.000000 0.000000 1.000017 0.000000 0.000001 3713.dat
1 71 29.627600 -41.445810 -100.008700 0.000001 0.000000 -1.000017 0.000000 1.000000 0.000000 1.000017 0.000000 0.000001 3713.dat
0 STEP
1 16 -40.000000 -24.000000 120.000000 1.000000 0.000000 0.000000 0.000000 1.000000 0.000000 0.000000 0.000000 1.000000 submodel group 3
0 STEP
1 1 -39.999940 -27.445900 -100.000000 -1.000000 0.000000 0.000000 0.000000 1.000000 0.000000 0.000000 0.000000 -1.000000 32001.dat
0 STEP
1 1 -40.000150 -59.445900 140.000400 -1.000000 0.000000 0.000000 0.000000 1.000000 0.000000 0.000000 0.000000 -1.000000 32001.dat
1 1 -40.000000 -59.445900 -100.000400 -1.000000 0.000000 0.000000 0.000000 1.000000 0.000000 0.000000 0.000000 -1.000000 32001.dat
0 STEP
1 0 -110.154200 -51.445760 -180.008900 0.000000 0.000000 1.000000 -1.000000 0.000000 0.000000 0.000000 -1.000000 0.000000 2780.dat
1 0 29.656750 -51.445760 -180.109300 0.000000 0.000000 1.000000 -1.000000 0.000000 0.000000 0.000000 -1.000000 0.000000 2780.dat
0 STEP
1 16 -40.000000 -48.000000 -180.000000 1.000000 0.000000 0.000000 0.000000 1.000000 0.000000 0.000000 0.000000 1.000000 submodel group 1
0 STEP
1 0 -100.153100 -41.445940 119.998900 1.000000 0.000000 0.000000 0.000000 1.000000 0.000000 0.000000 0.000000 1.000000 2780.dat
1 0 -100.153100 -41.445940 79.998210 1.000000 0.000000 0.000000 0.000000 1.000000 0.000000 0.000000 0.000000 1.000000 2780.dat
1 0 19.999990 -41.355080 120.000100 1.000000 0.000000 0.000000 0.000000 1.000000 0.000000 0.000000 0.000000 1.000000 2780.dat
1 0 19.999990 -41.445900 80.000100 1.000000 0.000000 0.000000 0.000000 1.000000 0.000000 0.000000 0.000000 1.000000 2780.dat
0 STEP
1 1 30.000080 -121.218700 180.181600 0.000001 -1.000000 -0.000001 -0.601815 -0.000001 0.798636 -0.798636 0.000000 -0.601815 6629.dat
0 STEP
1 4 20.000100 -121.217300 180.182800 -1.000002 -0.000001 0.000000 -0.000001 0.798635 -0.601815 0.000000 -0.601815 -0.798636 32062.dat
0 STEP
1 71 0.000050 -121.219800 180.184200 0.000001 -0.000001 -1.000002 0.601815 0.798635 0.000000 0.798636 -0.601815 0.000001 59443.dat
0 STEP
1 4 -20.000000 -121.217500 180.182500 -1.000002 -0.000001 0.000000 -0.000001 0.798635 -0.601815 0.000000 -0.601815 -0.798636 32062.dat
0 STEP
1 71 -40.000090 -121.219800 180.184400 0.000001 -0.000001 -1.000000 0.601815 0.798635 0.000000 0.798636 -0.601815 0.000001 59443.dat
0 STEP
1 4 -60.000100 -121.217500 180.182600 -1.000002 -0.000001 0.000000 -0.000001 0.798635 -0.601815 0.000000 -0.601815 -0.798636 32062.dat
0 STEP
1 71 -80.000110 -121.219900 180.184300 0.000001 -0.000001 -1.000002 0.601815 0.798635 0.000000 0.798636 -0.601815 0.000001 59443.dat
0 STEP
1 4 -100.000100 -121.217500 180.182600 -1.000002 -0.000001 0.000000 -0.000001 0.798635 -0.601815 0.000000 -0.601815 -0.798636 32062.dat
0 STEP
1 1 -110.153100 -121.218700 180.179600 0.000001 -1.000000 -0.000001 -0.601815 -0.000001 0.798636 -0.798636 0.000000 -0.601815 6629.dat
0 STEP
1 71 59.427460 -41.445810 -100.008700 0.000000 0.000000 -1.000000 0.000000 1.000000 0.000000 1.000000 0.000000 0.000000 55982.dat
1 0 -140.672000 -41.445630 -100.006200 -0.000001 0.000000 0.999997 -1.000000 0.000000 -0.000001 0.000000 -0.999997 0.000000 30391.dat
1 71 -140.415300 -41.445810 -100.008700 0.000000 0.000000 1.000000 0.000000 1.000000 0.000000 -1.000000 0.000000 0.000000 55982.dat
1 0 -140.541200 -41.445760 180.001200 -0.000001 0.000000 0.999997 -1.000000 0.000000 -0.000001 0.000000 -0.999997 0.000000 30391.dat
1 71 -140.284200 -41.445940 179.999400 0.000000 0.000000 1.000000 0.000000 1.000000 0.000000 -1.000000 0.000000 0.000000 55982.dat
1 0 59.974830 -41.445760 179.995300 0.000001 0.000000 -0.999997 -1.000000 0.000000 -0.000001 0.000000 0.999997 0.000000 30391.dat
1 71 59.718480 -41.445940 179.999300 0.000000 0.000000 -1.000000 0.000000 1.000000 0.000000 1.000000 0.000000 0.000000 55982.dat
1 0 59.683880 -41.445630 -100.011500 0.000001 0.000000 -0.999997 -1.000000 0.000000 -0.000001 0.000000 0.999997 0.000000 30391.dat
0 STEP
1 15 -40.044500 -59.998000 79.968500 1.000000 0.000000 0.000000 0.000000 0.000000 1.000000 0.000000 -1.000000 0.000000 xpj0026.dat
0 STEP
0 NOFILE
0 FILE SubModel Group 2
0 SubModel Group 2
0 Name:  SubModel Group 2
0 Author:  
0 CustomBrick
0 NumOfBricks:  6
1 1 -30.000100 -5.446540 -0.001840 -0.000001 -1.000002 0.000001 -1.000000 0.000001 0.000001 -0.000001 -0.000001 -1.000002 32140.dat
1 0 -0.000180 -5.446600 -0.001780 1.000002 0.000000 0.000000 0.000000 1.000000 0.000000 0.000000 0.000000 1.000002 3705.dat
0 STEP
1 14 -14.750220 -5.446530 -0.001840 0.000000 0.000000 -1.000002 -1.000000 0.000000 0.000000 0.000000 1.000002 0.000000 32123a.dat
1 71 -0.100100 -5.446530 -0.001840 0.000001 0.000000 -1.000002 0.000000 1.000000 0.000000 1.000002 0.000000 0.000001 3713.dat
1 14 14.869920 -5.446530 -0.001840 0.000000 0.000000 -1.000002 -1.000000 0.000000 0.000000 0.000000 1.000002 0.000000 32123a.dat
0 STEP
1 1 29.880300 -5.446550 -0.000070 -0.000001 -1.000002 0.000001 -1.000000 0.000001 0.000001 -0.000001 -0.000001 -1.000002 32140.dat
0 STEP
0 NOFILE
0 FILE SubModel Group 3
0 SubModel Group 3
0 Name:  SubModel Group 3
0 Author:  
0 CustomBrick
0 NumOfBricks:  10
1 4 -0.000220 -17.445870 -19.799900 0.000000 1.000001 0.000002 -1.000000 0.000000 0.000000 0.000000 -0.000002 1.000001 32039.dat
1 4 -0.000770 -17.505900 -39.799620 0.000000 -1.000000 0.000000 0.999999 0.000000 0.000000 0.000000 0.000000 1.000001 32062.dat
0 STEP
1 14 -0.000280 -32.575910 -39.799920 1.000000 0.000000 0.000000 0.000000 0.000000 -1.000000 0.000000 1.000001 0.000000 32123a.dat
1 14 -0.000280 -2.505870 -39.799920 1.000001 0.000000 0.000000 0.000000 0.000000 -1.000000 0.000000 1.000001 0.000000 32123a.dat
0 STEP
1 0 -0.000140 -17.445900 10.200210 0.000000 -1.000000 0.000000 0.000000 0.000000 -1.000000 1.000001 0.000000 0.000000 3705.dat
0 STEP
1 14 -0.000140 -17.445900 -5.019790 1.000000 0.000000 0.000000 0.000000 -1.000000 0.000000 0.000000 0.000000 -1.000000 32123a.dat
0 STEP
1 1 -0.000160 -27.445900 10.100100 -1.000000 0.000000 0.000000 0.000000 1.000000 0.000000 0.000000 0.000000 -1.000000 3700.dat
1 1 -0.000100 -27.445900 30.000400 -1.000000 0.000000 0.000000 0.000000 1.000000 0.000000 0.000000 0.000000 -1.000000 3700.dat
0 STEP
1 19 -0.000160 -17.445900 43.200200 1.000000 0.000000 0.000001 0.000000 1.000000 0.000000 -0.000001 0.000000 1.000000 6589.dat
0 STEP
1 1 -0.000120 -3.445900 20.000400 -1.000000 0.000000 0.000000 0.000000 1.000000 0.000000 0.000000 0.000000 -1.000000 32001.dat
0 STEP
0 NOFILE
0 FILE SubModel Group 1
0 SubModel Group 1
0 Name:  SubModel Group 1
0 Author:  
0 CustomBrick
0 NumOfBricks:  3
1 0 0.895820 -13.445760 -0.008850 -1.000000 0.000000 0.000000 0.000000 1.000000 0.000000 0.000000 0.000000 -1.000000 3706.dat
1 72 -70.154200 -13.445760 -0.008910 0.000000 0.000001 -1.000000 1.000000 0.000000 0.000000 0.000000 -1.000000 -0.000001 32016.dat
0 STEP
1 72 69.656770 -13.445760 -0.109310 0.000000 0.382692 -0.923877 1.000000 0.000000 0.000000 0.000000 -0.923877 -0.382692 32016.dat
0 STEP
0 NOFILE
