0 FILE 海盗船.io
0 Untitled Model
0 Name:  海盗船
0 Author:  
0 CustomBrick
0 NumOfBricks:  80
1 15 -177.999700 -33.000180 74.230830 0.000001 0.000001 -1.000000 -1.000000 0.000001 -0.000001 0.000001 1.000000 0.000001 64871.dat
1 19 -97.999740 -33.000090 84.230720 -0.000001 1.000000 -0.000001 0.000001 0.000001 1.000000 1.000000 0.000001 -0.000001 3749.dat
0 STEP
1 0 -218.000500 -33.000060 64.230830 0.000000 0.000000 -1.000000 0.000000 1.000000 0.000000 1.000000 0.000000 0.000000 2780.dat
1 19 -178.000500 -33.000120 64.230960 0.000001 -1.000000 0.000001 0.000001 0.000001 1.000000 -1.000000 -0.000001 0.000001 3749.dat
1 0 -77.999720 -33.000000 64.230530 0.000000 0.000000 -1.000000 0.000000 1.000000 0.000000 1.000000 0.000000 0.000000 2780.dat
1 19 -37.999730 -33.000060 64.230660 0.000001 -1.000000 0.000001 0.000001 0.000001 1.000000 -1.000000 -0.000001 0.000001 3749.dat
0 STEP
1 1 -37.999730 -33.000030 54.230660 -0.000001 -0.000001 -1.000000 -1.000000 0.000001 0.000001 0.000001 1.000000 -0.000001 32140.dat
1 1 -178.000500 -33.000090 54.230960 -0.000001 -0.000001 -1.000000 -1.000001 0.000001 0.000001 0.000001 1.000000 -0.000001 32140.dat
1 0 -238.000500 -53.000040 64.230830 0.000000 0.000000 -1.000000 0.000000 1.000000 0.000000 1.000000 0.000000 0.000000 2780.dat
1 0 -97.999740 -52.999970 64.230530 0.000000 0.000000 -1.000000 0.000000 1.000000 0.000000 1.000000 0.000000 0.000000 2780.dat
0 STEP
1 15 -238.000700 -193.000000 74.230960 1.000000 -0.000001 0.000001 -0.000001 -0.000001 1.000000 -0.000001 -1.000000 -0.000001 64871.dat
1 15 -97.999910 -193.000000 74.230660 1.000000 -0.000001 0.000001 -0.000001 -0.000001 1.000000 -0.000001 -1.000000 -0.000001 64871.dat
0 STEP
1 0 -238.000800 -333.000000 64.230960 0.000000 0.000000 -1.000000 0.000000 1.000000 0.000000 1.000000 0.000000 0.000000 2780.dat
1 0 -98.000110 -333.000000 64.230720 0.000000 0.000000 -1.000000 0.000000 1.000000 0.000000 1.000000 0.000000 0.000000 2780.dat
1 15 -158.000700 -332.999900 54.230960 0.000001 0.000001 -1.000000 -1.000000 0.000001 -0.000001 0.000001 1.000000 0.000001 40490.dat
0 STEP
1 0 -277.999700 -33.000290 84.230960 0.000000 0.000000 -1.000000 0.000000 1.000000 0.000000 1.000000 0.000000 0.000000 2780.dat
1 0 -318.001300 -33.000300 84.231080 0.000000 0.000000 -1.000003 0.000000 1.000000 0.000000 1.000003 0.000000 0.000000 2780.dat
1 1 -258.001200 -33.000250 94.231140 -0.000001 -0.000001 -1.000000 1.000000 -0.000001 -0.000001 -0.000001 -1.000000 0.000001 32140.dat
0 STEP
1 0 -77.999710 -33.000060 104.230700 0.000000 0.000000 -1.000000 0.000000 1.000000 0.000000 1.000000 0.000000 0.000000 2780.dat
1 1 -97.999610 -33.000070 94.230720 0.000001 0.000001 1.000000 1.000000 -0.000001 -0.000001 0.000001 1.000000 -0.000001 32140.dat
1 1 -57.999650 -33.000080 94.230670 0.000000 0.000000 1.000000 0.000000 1.000000 0.000000 -1.000000 0.000000 0.000000 6558.dat
0 STEP
1 1 -57.999780 -93.000080 114.230800 -1.000000 0.000000 0.000001 0.000001 0.000001 1.000000 0.000000 1.000000 -0.000001 32140.dat
1 0 -57.999680 -73.000170 124.230400 0.000000 0.000000 -1.000001 0.000000 1.000006 0.000000 1.000007 0.000000 0.000000 2780.dat
1 19 -57.999720 -93.000370 124.230800 0.000001 -1.000001 0.000001 0.000001 0.000001 1.000006 -1.000007 -0.000001 0.000001 3749.dat
0 STEP
1 16 105.513400 -3.039350 143.982000 -1.000000 0.000000 0.000000 0.000000 1.000000 0.000000 0.000000 0.000000 -1.000000 submodel group 9 copy copy copy
0 STEP
1 0 -238.000500 -33.000010 44.230840 0.000000 0.000000 -1.000000 0.000000 1.000000 0.000000 1.000000 0.000000 0.000000 2780.dat
1 0 -98.000520 -32.999960 44.230720 0.000000 0.000000 -1.000000 0.000000 1.000000 0.000000 1.000000 0.000000 0.000000 2780.dat
1 0 -198.000500 -33.000060 44.230840 0.000000 0.000000 -1.000000 0.000000 1.000000 0.000000 1.000000 0.000000 0.000000 2780.dat
1 0 -58.000520 -33.000000 44.230720 0.000000 0.000000 -1.000000 0.000000 1.000000 0.000000 1.000000 0.000000 0.000000 2780.dat
0 STEP
1 15 -178.000500 -33.000030 34.230840 0.000001 0.000001 -1.000000 -1.000000 0.000001 -0.000001 0.000001 1.000000 0.000001 64871.dat
0 STEP
1 0 -78.000520 -32.999920 24.230710 0.000000 0.000000 -1.000000 0.000000 1.000000 0.000000 1.000000 0.000000 0.000000 2780.dat
1 0 -38.000520 -32.999890 24.230710 0.000000 0.000000 -1.000000 0.000000 1.000000 0.000000 1.000000 0.000000 0.000000 2780.dat
1 0 -278.000500 -33.000110 24.230960 0.000000 0.000000 -1.000000 0.000000 1.000000 0.000000 1.000000 0.000000 0.000000 2780.dat
1 0 -318.002900 -33.000130 24.230290 0.000000 0.000000 -1.000005 0.000000 1.000000 0.000000 1.000005 0.000000 0.000000 2780.dat
0 STEP
1 1 -258.002900 -33.000080 14.230290 -0.000001 -0.000001 -1.000000 1.000000 -0.000001 -0.000001 -0.000001 -1.000000 0.000001 32140.dat
1 1 -98.000400 -32.999910 14.230710 0.000001 0.000001 1.000000 1.000000 -0.000001 -0.000001 0.000001 1.000000 -0.000001 32140.dat
0 STEP
1 0 -238.000500 -73.000070 84.230830 0.000000 0.000000 -1.000000 0.000000 1.000000 0.000000 1.000000 0.000000 0.000000 2780.dat
1 0 -238.000600 -113.000100 84.230830 0.000000 0.000000 -1.000000 0.000000 1.000000 0.000000 1.000000 0.000000 0.000000 2780.dat
1 71 -238.000600 -93.000080 74.230830 0.000000 -1.000000 0.000000 0.000000 0.000000 1.000000 -1.000000 0.000000 0.000000 4519.dat
0 STEP
1 15 -238.000000 -92.823650 85.000000 1.000000 0.000000 0.000000 0.000000 1.000000 0.000000 0.000000 0.000000 1.000000 dx0059.dat.dat
0 STEP
1 72 -238.000600 -93.000080 54.230840 -1.000000 0.000000 0.000000 0.000000 1.000000 0.000000 0.000000 0.000000 -1.000000 3647.dat
0 STEP
1 71 -238.000500 -153.000000 94.960880 0.382699 -0.923872 0.000000 0.923873 0.382699 0.000001 -0.000001 0.000000 1.000000 3713.dat
1 71 -238.000700 -153.000100 74.960880 0.000000 -0.382699 -0.923873 0.000000 -0.923873 0.382699 -1.000000 0.000000 0.000000 4519.dat
0 STEP
1 71 -238.000500 -153.000000 55.690980 0.923872 -0.382699 0.000000 -0.382699 -0.923872 0.000000 0.000000 0.000000 -1.000000 3649.dat
0 STEP
1 72 -98.000110 -253.000100 110.230800 1.000000 0.000000 0.000000 0.000000 -1.000000 0.000000 0.000000 0.000000 -1.000000 6575.dat
1 71 -97.999910 -273.000100 94.872440 1.000000 0.000000 0.000001 0.000000 1.000000 0.000000 -0.000001 0.000000 1.000000 3713.dat
1 0 -98.000110 -273.000100 34.870610 0.000000 0.000000 1.000003 0.000000 1.000000 0.000000 -1.000003 0.000000 0.000000 3737.dat
0 STEP
1 71 -98.000110 -273.000100 54.870670 0.000001 -0.000001 -1.000000 1.000000 0.000001 0.000001 0.000001 -1.000000 0.000001 33299.dat
1 71 -250.543100 -159.272600 44.870600 0.000000 -0.888615 -0.458655 0.000000 0.458655 -0.888615 1.000000 0.000000 0.000000 3673.dat
0 STEP
1 72 -98.000110 -293.000100 20.190550 -1.000000 0.000000 0.000000 0.000000 1.000000 0.000000 0.000000 0.000000 -1.000000 6575.dat
1 71 -98.000110 -273.000100 35.630560 -1.000000 0.000000 -0.000001 0.000000 1.000000 0.000000 0.000001 0.000000 -1.000000 3713.dat
0 STEP
1 15 -194.271500 -216.136400 34.870670 0.710798 -0.000001 -0.703396 0.703396 -0.000001 0.710798 -0.000001 -1.000000 0.000000 40490.dat
0 STEP
1 71 -98.000110 -273.000100 -34.999640 1.000000 0.000001 0.000001 -0.000001 0.000001 1.000000 0.000001 -1.000000 0.000001 33299.dat
1 15 -98.000110 -193.000100 -55.000060 1.000000 -0.000001 0.000001 -0.000001 -0.000001 1.000000 -0.000001 -1.000000 -0.000001 40490.dat
0 STEP
1 16 -100.000000 -60.000000 -110.000000 1.000000 0.000000 0.000000 0.000000 1.000000 0.000000 0.000000 0.000000 1.000000 submodel group 1
0 STEP
0 STEP
0 NOFILE
0 FILE SubModel Group 9 Copy Copy Copy
0 SubModel Group 9 Copy Copy Copy
0 Name:  SubModel Group 9 Copy Copy Copy
0 Author:  
0 CustomBrick
0 NumOfBricks:  3
1 72 10.000000 -1.128810 -10.000000 1.000000 0.000000 0.000000 0.000000 0.000000 -1.000000 0.000000 1.000000 0.000000 dch003.dat
1 71 -27.466620 -79.717990 29.427020 1.000000 0.000000 0.000000 0.000000 0.000000 -1.000000 0.000000 1.000000 0.000000 dch004.dat
1 25 7.837010 13.484720 -9.965000 1.000000 0.000000 0.000000 0.000000 0.000000 -1.000000 0.000000 1.000000 0.000000 dch005.dat
0 NOFILE
0 FILE SubModel Group 1
0 SubModel Group 1
0 Name:  SubModel Group 1
0 Author:  
0 CustomBrick
0 NumOfBricks:  24
1 1 2.000000 -43.000110 15.000000 1.000000 0.000000 0.000000 0.000000 1.000000 0.000000 0.000000 0.000000 1.000000 3895.dat
1 0 -18.000000 -33.000110 25.000000 0.000000 0.000000 -1.000000 0.000000 1.000000 0.000000 1.000000 0.000000 0.000000 2780.dat
1 0 22.000000 -33.000110 25.000000 0.000000 0.000000 -1.000000 0.000000 1.000000 0.000000 1.000000 0.000000 0.000000 2780.dat
0 STEP
1 72 2.000000 -33.000040 39.999940 1.000000 0.000000 0.000000 0.000000 0.000000 -1.000000 0.000000 1.000000 0.000000 99773.dat
1 72 2.000000 -33.000110 30.000000 1.000000 0.000000 0.000000 0.000000 0.000000 -1.000000 0.000000 1.000000 0.000000 99773.dat
0 STEP
1 0 2.000000 -53.000040 44.999940 0.000000 -1.000000 0.000000 0.000000 0.000000 -1.000000 1.000000 0.000000 0.000000 2780.dat
1 0 2.000000 -73.000100 44.999940 0.000000 -1.000000 0.000000 0.000000 0.000000 -1.000000 1.000000 0.000000 0.000000 2780.dat
0 STEP
1 1 -108.000000 -19.000110 -15.000000 0.000000 0.000000 1.000000 0.000000 1.000000 0.000000 -1.000000 0.000000 0.000000 3701.dat
1 1 112.000000 -19.000110 -15.000000 0.000000 0.000000 1.000000 0.000000 1.000000 0.000000 -1.000000 0.000000 0.000000 3701.dat
1 1 2.000000 -43.000110 -5.000000 1.000000 0.000000 0.000000 0.000000 1.000000 0.000000 0.000000 0.000000 1.000000 3703.dat
0 STEP
1 1 2.000000 -43.000110 -45.000000 1.000000 0.000000 0.000000 0.000000 1.000000 0.000000 0.000000 0.000000 1.000000 3895.dat
1 1 2.000000 -43.000110 -25.000000 1.000000 0.000000 0.000000 0.000000 1.000000 0.000000 0.000000 0.000000 1.000000 3703.dat
0 STEP
1 15 142.000000 -67.000110 -15.000000 1.000000 0.000000 0.000000 0.000000 1.000000 0.000000 0.000000 0.000000 1.000000 3941.dat
1 15 -138.000000 -67.000110 -15.000000 1.000000 0.000000 0.000000 0.000000 1.000000 0.000000 0.000000 0.000000 1.000000 3941.dat
0 STEP
1 15 -148.000100 -91.000080 -25.000000 0.000000 0.000000 -1.000000 0.000000 1.000000 0.000000 1.000000 0.000000 0.000000 3040b.dat
1 15 -147.999600 -91.000080 -5.000000 0.000000 0.000000 -0.999999 0.000000 1.000000 0.000000 0.999999 0.000000 0.000000 3040b.dat
1 15 152.000100 -91.000080 -25.000000 0.000000 0.000000 1.000000 0.000000 1.000000 0.000000 -1.000000 0.000000 0.000000 3040b.dat
1 15 151.999900 -91.000080 -5.002080 0.000000 0.000000 1.000002 0.000000 1.000000 0.000000 -1.000002 0.000000 0.000000 3040b.dat
0 STEP
1 1 -78.000000 -67.000110 -45.000000 1.000000 0.000000 0.000000 0.000000 1.000000 0.000000 0.000000 0.000000 1.000000 3894.dat
1 1 -78.000000 -67.000110 15.000000 1.000000 0.000000 0.000000 0.000000 1.000000 0.000000 0.000000 0.000000 1.000000 3894.dat
1 1 82.000000 -67.000110 -45.000000 1.000000 0.000000 0.000000 0.000000 1.000000 0.000000 0.000000 0.000000 1.000000 3894.dat
1 1 82.000000 -67.000110 15.000000 1.000000 0.000000 0.000000 0.000000 1.000000 0.000000 0.000000 0.000000 1.000000 3894.dat
0 STEP
1 1 2.000000 -91.000080 -45.000000 1.000000 0.000000 0.000000 0.000000 1.000000 0.000000 0.000000 0.000000 1.000000 3701.dat
1 1 2.000000 -91.000080 15.000000 1.000000 0.000000 0.000000 0.000000 1.000000 0.000000 0.000000 0.000000 1.000000 3701.dat
0 STEP
0 NOFILE
