0 FILE 摇摆机.io
0 Untitled Model
0 Name:  摇摆机
0 Author:  
0 CustomBrick
0 NumOfBricks:  29
1 1 1.000090 -32.000000 29.999980 1.000000 0.000000 0.000000 0.000000 1.000000 0.000000 0.000000 0.000000 1.000000 3894.dat
1 1 -39.999940 -8.000000 19.999980 0.000001 0.000000 1.000000 0.000000 1.000000 0.000000 -1.000000 0.000000 0.000001 3738.dat
1 1 41.000000 -8.000000 19.999970 0.000000 0.000000 1.000000 0.000000 1.000000 0.000000 -1.000000 0.000000 0.000000 3738.dat
0 STEP
1 1 1.000060 -56.000000 29.999980 1.000000 0.000000 0.000000 0.000000 1.000000 0.000000 0.000000 0.000000 1.000000 3701.dat
1 1 1.000060 -64.000000 29.999980 1.000000 0.000000 0.000000 0.000000 1.000000 0.000000 0.000000 0.000000 1.000000 3710.dat
0 STEP
1 1 1.000060 -96.000000 29.999980 1.000000 0.000000 0.000000 0.000000 1.000000 0.000000 0.000000 0.000000 1.000000 3701.dat
1 1 1.000060 -72.000000 29.999980 1.000000 0.000000 0.000000 0.000000 1.000000 0.000000 0.000000 0.000000 1.000000 3710.dat
0 STEP
1 0 1.000060 -86.000000 39.999990 0.000000 1.000000 0.000000 0.000000 0.000000 1.000000 1.000000 0.000000 0.000000 2780.dat
1 0 1.000060 -46.000000 39.999990 0.000000 1.000000 0.000000 0.000000 0.000000 1.000000 1.000000 0.000000 0.000000 2780.dat
0 STEP
1 1 10.999970 -146.000000 49.999990 0.000000 -1.000000 0.000000 1.000000 0.000000 0.000000 0.000000 0.000000 1.000000 3895.dat
0 STEP
1 0 1.000060 -126.000000 39.140000 0.000000 -0.248688 0.968584 0.000000 0.968584 0.248688 -1.000000 0.000000 0.000000 3705.dat
1 72 1.000060 -126.000000 69.140000 -0.968584 -0.248688 0.000000 -0.248688 0.968584 0.000000 0.000000 0.000000 -1.000000 3648b.dat
0 STEP
1 71 1.000060 -126.000000 30.140000 0.968584 -0.248688 0.000001 0.248688 0.968584 0.000000 -0.000001 0.000000 1.000000 3713.dat
0 STEP
1 71 1.000050 -126.000000 9.139990 -0.248687 -0.000001 -0.968584 0.968584 0.000001 -0.248687 0.000001 -1.000000 0.000001 33299.dat
1 4 -37.743290 -135.947500 -20.859950 0.000000 -0.248688 0.968584 0.000000 0.968584 0.248688 -1.000000 0.000000 0.000000 62462.dat
0 STEP
1 16 0.000000 -84.000000 80.000000 0.995885 -0.090630 -0.000001 0.090630 0.995885 0.000000 0.000001 0.000000 1.000000 submodel group 1
0 STEP
1 15 7.618170 -330.394300 99.139980 -0.996040 0.000000 0.088874 -0.088874 0.000000 -0.996040 0.000000 -1.000006 0.000000 32064a.dat
1 14 6.389870 -315.629600 89.139980 0.996043 0.000000 0.088874 0.088874 0.000000 -0.996043 0.000000 1.000000 0.000000 32123a.dat
0 STEP
1 15 9.395579 -350.315700 99.139980 -0.996043 0.000000 0.088874 -0.088874 0.000000 -0.996043 0.000000 -1.000000 0.000000 32064a.dat
1 14 10.773080 -364.754500 89.139980 0.996043 0.000000 0.088874 0.088874 0.000000 -0.996043 0.000000 1.000000 0.000000 32123a.dat
0 STEP
1 1 8.506780 -340.355300 107.140000 -0.088874 0.000000 -0.996043 0.996043 0.000000 -0.088874 0.000000 -1.000000 0.000000 32001.dat
0 STEP
1 15 -3.231130 -321.323100 115.140000 0.088874 0.000000 0.996043 -0.996043 0.000000 0.088874 0.000001 -1.000000 0.000000 2431.dat
1 15 16.689780 -319.545700 115.140000 0.088874 0.000000 0.996043 -0.996043 0.000000 0.088874 0.000001 -1.000000 0.000000 2431.dat
0 STEP
1 15 22.910890 -389.268700 131.140000 -0.996043 0.000000 0.088874 -0.088874 0.000000 -0.996043 0.000000 -1.000000 0.000000 3040b.dat
1 15 2.990120 -391.046100 131.140000 -0.996043 0.000000 0.088874 -0.088874 0.000000 -0.996043 0.000000 -1.000000 0.000000 3040b.dat
0 STEP
0 STEP
0 NOFILE
0 FILE SubModel Group 1
0 SubModel Group 1
0 Name:  SubModel Group 1
0 Author:  
0 CustomBrick
0 NumOfBricks:  5
1 4 -14.280740 -33.645220 9.140019 -0.000001 -0.999998 0.001763 0.000000 0.001763 0.999998 -1.000000 0.000001 0.000000 32034.dat
0 STEP
1 0 -14.506640 -161.795600 9.139999 -0.001763 0.999999 0.000003 -0.999999 -0.001763 0.000001 0.000000 -0.000003 1.000000 32013.dat
1 0 -14.513240 -165.575500 9.139999 -0.001763 -0.999999 -0.000001 -0.999999 0.001763 0.000000 0.000000 0.000001 -1.000000 3708.dat
0 STEP
1 19 -13.685950 -161.424000 -20.000000 0.000000 0.999998 0.000000 0.000001 0.000000 0.999998 1.000000 0.000000 -0.000001 3749.dat
1 0 -14.280750 -33.645210 -0.859990 0.000001 -0.159882 -0.987137 0.000000 0.987137 -0.159882 1.000000 0.000000 0.000001 2780.dat
0 STEP
0 NOFILE
