0 FILE 风车舂米机.io
0 Untitled Model
0 Name:  风车舂米机
0 Author:  
0 CustomBrick
0 NumOfBricks:  43
1 1 0.000050 -8.000000 60.000020 -1.000000 0.000000 0.000000 0.000000 1.000000 0.000000 0.000000 0.000000 -1.000000 3709b.dat
0 STEP
1 1 -19.999960 -32.000000 70.000020 1.000000 0.000000 0.000000 0.000000 1.000000 0.000000 0.000000 0.000000 1.000000 3894.dat
1 1 -59.999960 -8.000000 19.999990 0.000000 0.000000 1.000000 0.000000 1.000000 0.000000 -1.000000 0.000000 0.000000 32001.dat
0 STEP
1 1 -19.999960 -56.000000 70.000020 1.000000 0.000000 0.000000 0.000000 1.000000 0.000000 0.000000 0.000000 1.000000 3701.dat
1 0 -19.999960 -46.000000 60.000020 0.000000 0.000000 -1.000000 0.000000 1.000000 0.000000 1.000000 0.000000 0.000000 2780.dat
0 STEP
1 1 -19.999960 -64.000000 70.000020 1.000000 0.000000 0.000000 0.000000 1.000000 0.000000 0.000000 0.000000 1.000000 3710.dat
1 1 -19.999960 -72.000000 70.000020 1.000000 0.000000 0.000000 0.000000 1.000000 0.000000 0.000000 0.000000 1.000000 3710.dat
0 STEP
1 1 -19.999960 -96.000000 70.000020 1.000000 0.000000 0.000000 0.000000 1.000000 0.000000 0.000000 0.000000 1.000000 3701.dat
1 0 -19.999960 -86.000000 60.000020 0.000000 0.000000 -1.000000 0.000000 1.000000 0.000000 1.000000 0.000000 0.000000 2780.dat
0 STEP
1 1 -30.000020 -146.000000 50.000000 0.000000 1.000000 0.000000 1.000000 0.000000 0.000000 0.000000 0.000000 -1.000000 3895.dat
0 STEP
1 16 -20.000000 -60.000000 90.000000 1.000000 0.000000 0.000000 0.000000 1.000000 0.000000 0.000000 0.000000 1.000000 submodel group 2
0 STEP
1 72 -20.000020 -186.000000 30.030020 0.000000 -1.000000 0.000000 1.000000 0.000000 0.000000 0.000000 0.000000 1.000000 3648b.dat
0 STEP
1 19 -20.000080 -106.000000 39.999990 0.000001 -0.074981 0.997185 0.000001 0.997185 0.074981 -1.000000 0.000001 0.000001 3749.dat
0 STEP
1 71 -20.000020 -105.999900 30.020010 0.074982 -0.997185 0.000000 -0.997185 -0.074982 0.000002 -0.000002 0.000000 -1.000000 3649.dat
0 STEP
1 71 9.165700 -93.778640 20.020010 0.000000 0.000000 -1.000000 0.000000 1.000000 0.000000 1.000000 0.000000 0.000000 3673.dat
1 71 -49.165730 -118.221300 20.020010 0.000000 0.000000 -1.000000 0.000000 1.000000 0.000000 1.000000 0.000000 0.000000 3673.dat
0 STEP
1 1 39.999520 -32.000000 50.000000 1.000000 0.000000 0.000000 0.000000 1.000000 0.000000 0.000000 0.000000 1.000000 3701.dat
1 1 60.000000 -8.000000 19.999990 0.000000 0.000000 1.000000 0.000000 1.000000 0.000000 -1.000000 0.000000 0.000000 32001.dat
0 STEP
1 1 60.000000 -32.000000 70.000020 1.000000 0.000000 0.000000 0.000000 1.000000 0.000000 0.000000 0.000000 1.000000 3700.dat
0 STEP
1 15 50.000000 -56.000000 70.000020 0.000000 0.000000 -1.000000 0.000000 1.000000 0.000000 1.000000 0.000000 0.000000 3040b.dat
1 15 50.000060 -56.000000 50.000970 0.000000 0.000000 -1.000000 0.000000 1.000000 0.000000 1.000000 0.000000 0.000000 3040b.dat
0 STEP
1 1 0.000050 -8.000000 -20.000510 -1.000000 0.000000 0.000000 0.000000 1.000000 0.000000 0.000000 0.000000 -1.000000 3709b.dat
1 16 80.000000 -12.000000 0.000000 1.000000 0.000000 0.000000 0.000000 1.000000 0.000000 0.000000 0.000000 1.000000 submodel group 1
0 STEP
1 71 -20.000020 -186.000000 9.839960 0.000001 -0.000001 -1.000000 1.000000 0.000001 0.000001 0.000001 -1.000000 0.000001 33299.dat
1 4 -60.000020 -186.000000 -20.160480 0.000000 0.000000 1.000000 0.000000 1.000000 0.000000 -1.000000 0.000000 0.000000 62462.dat
0 STEP
0 STEP
0 NOFILE
0 FILE SubModel Group 2
0 SubModel Group 2
0 Name:  SubModel Group 2
0 Author:  
0 CustomBrick
0 NumOfBricks:  9
1 71 -0.000080 -126.000000 -19.629990 1.000000 0.000000 0.000001 0.000000 1.000000 0.000000 -0.000001 0.000000 1.000000 3713.dat
1 0 -0.000020 -126.000000 -34.449960 0.000000 0.000000 1.000000 0.000000 1.000000 0.000000 -1.000000 0.000000 0.000000 3706.dat
0 STEP
1 1 0.000040 -126.000000 -3.310040 0.000000 0.000000 -1.000000 1.000000 0.000000 0.000000 0.000000 -1.000000 0.000000 3738.dat
0 STEP
1 1 0.000040 -126.000000 4.689960 1.000000 0.000000 0.000000 0.000000 0.000000 1.000000 0.000000 -1.000000 0.000000 3738.dat
0 STEP
1 71 0.000040 -126.000000 14.829970 -1.000000 0.000000 -0.000001 0.000000 1.000000 0.000000 0.000001 0.000000 -1.000000 3713.dat
0 STEP
1 15 10.000110 -206.000000 4.689960 0.000000 0.000000 1.000000 -1.000000 0.000000 0.000000 0.000000 -1.000000 0.000000 2431.dat
1 15 -9.999960 -46.000000 4.689960 0.000000 0.000000 1.000000 -1.000000 0.000000 0.000000 0.000000 -1.000000 0.000000 2431.dat
0 STEP
1 1 80.000060 -136.000000 12.689960 1.000000 0.000000 0.000000 0.000000 0.000000 1.000000 0.000000 -1.000000 0.000000 3710.dat
1 1 -80.000000 -116.000000 12.689960 1.000000 0.000000 0.000000 0.000000 0.000000 1.000000 0.000000 -1.000000 0.000000 3710.dat
0 STEP
0 NOFILE
0 FILE SubModel Group 1
0 SubModel Group 1
0 Name:  SubModel Group 1
0 Author:  
0 CustomBrick
0 NumOfBricks:  11
1 1 -79.999950 -20.000000 -10.000020 1.000000 0.000000 0.000000 0.000000 1.000000 0.000000 0.000000 0.000000 1.000000 3702.dat
0 STEP
1 1 -79.999950 -44.000000 -10.000020 1.000000 0.000000 0.000000 0.000000 1.000000 0.000000 0.000000 0.000000 1.000000 3702.dat
1 1 -79.999950 -68.000000 -10.000020 1.000000 0.000000 0.000000 0.000000 1.000000 0.000000 0.000000 0.000000 1.000000 3702.dat
0 STEP
1 1 -79.999950 -92.000000 -10.000020 1.000000 0.000000 0.000000 0.000000 1.000000 0.000000 0.000000 0.000000 1.000000 3702.dat
1 71 -19.999940 -82.000000 -0.000140 0.000000 0.000000 -1.000000 0.000000 1.000000 0.000000 1.000000 0.000000 0.000000 3673.dat
0 STEP
1 1 -79.999950 -116.000000 -10.000020 1.000000 0.000000 0.000000 0.000000 1.000000 0.000000 0.000000 0.000000 1.000000 3894.dat
0 STEP
1 1 26.227900 -121.534500 9.999990 0.642791 -0.766042 0.000000 -0.766041 -0.642791 0.000000 0.000000 0.000000 -1.000000 3895.dat
0 STEP
1 15 90.507010 -198.138700 29.999990 0.642788 -0.766045 0.000001 -0.766045 -0.642788 0.000000 0.000000 -0.000001 -1.000000 32064a.dat
1 19 82.846530 -204.566600 19.999990 -0.000001 0.642789 0.766044 0.000001 -0.766044 0.642789 1.000000 0.000001 0.000000 3749.dat
0 STEP
1 15 108.892000 -182.711700 19.999990 0.000000 -0.766042 -0.642791 0.000000 -0.642791 0.766042 -1.000000 0.000000 0.000000 3941.dat
0 STEP
1 15 127.277000 -167.284700 19.999990 0.000000 -0.766042 -0.642791 0.000000 -0.642791 0.766042 -1.000000 0.000000 0.000000 3941.dat
0 STEP
0 NOFILE
