0 FILE 23-摆锤.io
0 Untitled Model
0 Name:  23-摆锤
0 Author:  
0 CustomBrick
0 NumOfBricks:  83
1 1 -174.053600 -11.718800 -9.999730 1.000000 0.000000 0.000000 0.000001 1.000000 0.000000 0.000000 0.000000 1.000001 32556.dat
1 1 -174.053800 -151.719600 -9.999660 1.000000 0.000000 0.000000 0.000001 1.000000 0.000000 0.000000 0.000000 1.000001 32556.dat
1 1 -174.053800 -131.718700 -9.999660 1.000000 0.000000 0.000000 0.000001 1.000000 0.000000 0.000000 0.000000 1.000001 32556.dat
1 15 -194.053600 -91.718790 -9.999730 -0.000001 -1.000000 -0.000001 0.000001 0.000000 -1.000001 1.000001 -0.000001 0.000001 40490.dat
0 STEP
1 4 -174.053600 -11.718800 -9.999730 1.000000 0.000000 0.000000 0.000001 -1.000000 0.000000 0.000000 0.000000 -1.000001 32034.dat
1 71 -174.053800 -111.719500 -9.459750 0.000000 -1.000001 0.000000 0.000000 -0.000001 -0.999999 1.000001 0.000000 0.000000 4519.dat
1 4 -174.053800 -131.718900 -9.999660 0.000000 0.000000 -1.000000 0.000000 -1.000000 -0.000001 -1.000001 0.000000 0.000000 42003.dat
0 STEP
1 19 -174.053500 -11.718860 20.000300 -0.000001 -0.000001 -1.000000 0.000001 -1.000000 0.000000 -1.000001 -0.000001 0.000001 3749.dat
1 19 -174.051900 -11.719170 -39.999550 0.000001 0.000001 0.999997 0.000001 -1.000000 0.000002 0.999998 0.000001 -0.000001 3749.dat
0 STEP
1 15 -154.053600 -91.719210 -9.998930 -0.000001 -1.000000 -0.000001 0.000001 0.000000 -1.000000 1.000000 -0.000001 0.000001 40490.dat
0 STEP
1 16 -170.000000 0.000000 0.000000 1.000000 0.000000 0.000000 0.000000 1.000000 0.000000 0.000000 0.000000 1.000000 submodel group 7
0 STEP
1 71 -94.053620 -11.719490 -11.169650 0.000000 -1.000001 0.000000 0.000000 -0.000001 0.999999 -1.000001 0.000000 0.000000 32073.dat
1 71 -94.053620 -11.719490 -9.589630 0.000000 -1.000001 0.000000 0.999999 -0.000001 0.000001 -0.000001 0.000000 1.000001 3713.dat
0 STEP
1 1 -174.053700 -11.719550 -29.529750 1.000001 0.000000 0.000000 0.000001 0.000000 0.999999 0.000000 -1.000001 0.000000 32009.dat
0 STEP
1 0 -114.053500 -11.719520 20.540400 0.000000 -1.000001 0.000000 0.000000 -0.000001 0.999999 -1.000001 0.000000 0.000000 2780.dat
1 0 -134.053600 -11.719460 20.540400 0.000000 -1.000001 0.000000 0.000000 -0.000001 0.999999 -1.000001 0.000000 0.000000 2780.dat
1 0 -114.053600 -11.719460 -39.529760 0.000000 -1.000001 0.000000 0.000000 -0.000001 0.999999 -1.000001 0.000000 0.000000 2780.dat
1 0 -134.053600 -11.719570 -39.529760 0.000000 -1.000001 0.000000 0.000000 -0.000001 0.999999 -1.000001 0.000000 0.000000 2780.dat
0 STEP
1 15 -174.053500 -11.719500 30.540400 0.000001 0.000001 -1.000000 1.000000 -0.000001 0.000000 -0.000001 -1.000000 -0.000001 64871.dat
1 15 -174.051300 -11.719290 -49.999940 0.000001 0.000001 -1.000000 1.000000 -0.000001 0.000000 -0.000001 -1.000000 -0.000001 64871.dat
0 STEP
1 0 -224.053700 -171.718800 -9.999790 -1.000000 0.000000 0.000000 -0.000001 0.999999 0.000000 0.000000 0.000000 -1.000000 3737.dat
1 71 -174.053800 -171.718800 -9.999849 -0.000001 0.000000 1.000000 0.999999 0.000000 0.000001 0.000000 1.000000 0.000000 3713.dat
1 71 -134.053600 -171.718800 -9.999300 -0.000001 1.000000 -0.000001 0.000001 0.000000 -1.000000 -1.000000 -0.000001 -0.000001 33299.dat
0 STEP
1 4 -104.053800 -211.718800 -9.999420 -1.000000 0.000000 0.000000 -0.000001 0.999999 0.000000 0.000000 0.000000 -1.000000 62462.dat
0 STEP
1 14 -209.103700 -171.718800 -9.999790 0.000000 0.000000 1.000000 -0.999999 0.000000 0.000001 0.000000 -1.000000 0.000000 32123a.dat
0 STEP
1 72 -219.053700 -151.718900 -9.999790 0.000000 0.000000 1.000000 0.000000 -0.999999 0.000001 1.000000 0.000000 0.000000 6575.dat
0 STEP
1 72 -274.323800 -191.718900 -9.999790 0.000000 0.000000 1.000000 0.000000 0.999999 0.000000 -1.000000 0.000000 0.000000 6575.dat
0 STEP
1 16 -340.000000 0.000000 -10.000000 1.000000 0.000000 0.000000 0.000000 1.000000 0.000000 0.000000 0.000000 1.000000 submodel group 1
0 STEP
1 4 -174.053600 -51.719580 29.790280 0.000001 -1.000000 0.000001 0.000001 0.000000 1.000000 -1.000000 -0.000001 0.000001 32054.dat
1 4 -174.053500 -151.719600 29.790280 0.000001 -1.000000 0.000001 0.000001 0.000000 1.000000 -1.000000 -0.000001 0.000001 32054.dat
1 4 -174.053700 -51.719520 -49.529660 -0.000001 1.000000 -0.000001 0.000001 0.000001 0.999999 1.000000 0.000001 -0.000001 32054.dat
1 4 -174.053600 -151.719500 -49.529600 -0.000001 1.000000 -0.000001 0.000001 0.000001 0.999999 1.000000 0.000001 -0.000001 32054.dat
0 STEP
1 16 -470.000000 -96.000000 -10.000000 1.000000 0.000000 0.000000 0.000000 1.000000 0.000000 0.000000 0.000000 1.000000 submodel group 2
0 STEP
0 NOFILE
0 FILE SubModel Group 7
0 SubModel Group 7
0 Name:  SubModel Group 7
0 Author:  
0 CustomBrick
0 NumOfBricks:  4
1 1 -4.053590 -11.719470 10.540390 1.000001 0.000000 0.000000 0.000001 0.000000 0.999999 0.000000 -1.000001 0.000000 32009.dat
1 1 -4.053800 -91.719520 -9.459690 0.000000 0.000000 1.000001 0.000000 0.999999 0.000001 -1.000001 0.000000 0.000000 32556.dat
1 1 -4.053800 -71.719420 -9.459690 0.000000 0.000000 1.000001 0.000000 0.999999 0.000001 -1.000001 0.000000 0.000000 32556.dat
0 STEP
1 4 -4.053800 -71.719420 -9.459750 1.000001 0.000000 0.000000 0.000001 -0.999999 0.000000 0.000000 0.000000 -1.000001 42003.dat
0 STEP
0 NOFILE
0 FILE SubModel Group 1
0 SubModel Group 1
0 Name:  SubModel Group 1
0 Author:  
0 CustomBrick
0 NumOfBricks:  47
1 0 165.946500 -91.719490 49.790450 0.000000 -1.000000 0.000000 0.000000 -0.000001 0.999999 -1.000000 0.000000 0.000000 2780.dat
1 0 165.946500 -111.719500 49.790450 0.000000 -1.000000 0.000000 0.000000 -0.000001 0.999999 -1.000000 0.000000 0.000000 2780.dat
1 1 105.947600 -111.719500 59.792350 0.000001 0.000001 1.000000 1.000000 -0.000001 -0.000001 0.000001 1.000000 -0.000001 32140.dat
1 0 145.946600 -111.719500 49.790450 0.000000 -1.000000 0.000000 0.000000 -0.000001 0.999999 -1.000000 0.000000 0.000000 2780.dat
1 0 125.946700 -111.719500 49.790450 0.000000 -1.000000 0.000000 0.000000 -0.000001 0.999999 -1.000000 0.000000 0.000000 2780.dat
0 STEP
1 15 165.946500 -131.719600 39.790280 1.000000 -0.000001 0.000001 0.000001 0.000001 -0.999999 0.000001 1.000000 0.000001 40490.dat
1 15 5.946500 -111.719700 39.791990 0.000001 0.000001 -1.000000 -0.999997 0.000001 -0.000001 0.000001 1.000000 0.000001 64871.dat
0 STEP
1 16 -50.000000 -192.000000 0.000000 1.000000 0.000000 0.000000 0.000000 1.000000 0.000000 0.000000 0.000000 1.000000 submodel group 5
0 STEP
1 16 -100.000000 -96.000000 0.000000 1.000000 0.000000 0.000000 0.000000 1.000000 0.000000 0.000000 0.000000 1.000000 submodel group 4
0 STEP
1 16 130.000000 -36.000000 -50.000000 1.000000 0.000000 0.000000 0.000000 1.000000 0.000000 0.000000 0.000000 1.000000 submodel group 3
0 STEP
1 19 -114.053500 -101.719800 -0.277740 -0.000001 1.000000 -0.000001 0.999999 0.000001 -0.000001 -0.000001 -0.000001 -1.000000 3749.dat
0 STEP
1 71 -114.055800 -81.718920 -0.277740 0.000000 1.000000 0.000000 0.000001 0.000000 -0.999997 -0.999998 0.000000 -0.000001 59443.dat
0 STEP
1 71 -114.053600 -49.999940 -0.277680 0.000000 1.000000 0.000000 -0.999999 0.000000 0.000000 0.000000 0.000000 1.000000 4519.dat
0 STEP
1 71 -114.056400 -20.000010 -0.277680 0.000000 1.000000 0.000000 0.000001 0.000000 -0.999999 -1.000000 0.000000 -0.000001 59443.dat
0 STEP
1 71 165.946500 -211.719400 -59.849430 0.000000 -1.000000 0.000000 1.000000 0.000000 0.000001 -0.000001 0.000000 1.000000 3713.dat
1 71 165.946500 -211.719400 59.920570 0.000000 -1.000000 0.000000 1.000000 0.000000 0.000001 -0.000001 0.000000 1.000000 3713.dat
0 STEP
0 NOFILE
0 FILE SubModel Group 5
0 SubModel Group 5
0 Name:  SubModel Group 5
0 Author:  
0 CustomBrick
0 NumOfBricks:  23
1 1 87.809790 -76.999270 10.050590 0.939693 -0.342020 0.000000 0.342020 0.939693 0.000000 0.000000 0.000000 1.000000 3703.dat
1 0 -9.579710 -101.804300 0.050600 0.000000 -0.939693 -0.342020 0.000000 -0.342020 0.939693 -1.000000 0.000000 0.000000 2780.dat
1 0 178.359100 -33.400270 0.050530 0.000000 -0.939693 -0.342020 0.000000 -0.342020 0.939693 -1.000000 0.000000 0.000000 2780.dat
0 STEP
1 1 87.809790 -76.999270 -9.949470 0.939693 -0.342020 0.000000 0.342020 0.939693 0.000000 0.000000 0.000000 1.000000 3703.dat
0 STEP
1 72 -47.166420 -115.484800 20.050780 0.000001 0.342020 0.939693 0.000000 -0.939693 0.342020 1.000000 0.000000 -0.000001 32002.dat
1 72 -28.373500 -108.644700 20.050540 0.000001 0.342020 0.939694 0.000000 -0.939693 0.342020 1.000001 0.000000 -0.000001 32002.dat
1 72 -47.167420 -115.485100 -19.949650 -0.000001 0.342020 -0.939693 0.000000 -0.939693 -0.342020 -1.000000 0.000000 0.000001 32002.dat
1 72 -28.373570 -108.644700 -19.949650 -0.000001 0.342020 -0.939693 0.000000 -0.939693 -0.342020 -1.000000 0.000000 0.000001 32002.dat
0 STEP
1 72 -65.961060 -122.325400 25.050480 -0.342020 0.000000 0.939694 0.939693 0.000000 0.342020 0.000000 1.000001 0.000000 99773.dat
0 STEP
1 71 -79.642060 -84.737750 0.100650 0.000000 -0.342020 0.939694 0.000000 0.939693 0.342020 -1.000001 0.000000 0.000000 4519.dat
1 71 -52.280360 -159.913100 0.040650 0.000000 -0.342020 0.939694 0.000000 0.939693 0.342020 -1.000001 0.000000 0.000000 4519.dat
0 STEP
1 16 -80.000000 -60.000000 0.000000 0.939693 -0.342020 0.000000 0.342020 0.939693 0.000000 0.000000 0.000000 1.000000 submodel group 6
0 STEP
1 72 -65.961180 -122.325500 -24.959600 -0.342020 0.000000 0.939693 0.939693 0.000000 0.342020 0.000000 1.000000 0.000000 99773.dat
0 STEP
1 0 215.946500 -19.719420 -0.319430 0.000000 0.000000 1.000000 0.000000 0.999999 0.000001 -1.000000 0.000000 0.000000 3707.dat
0 STEP
1 14 215.946600 -19.719420 24.680410 0.000000 1.000000 0.000000 -0.999999 0.000000 0.000000 0.000000 0.000000 1.000000 32123a.dat
1 14 215.946500 -19.719420 -24.609460 0.000000 1.000000 0.000000 -0.999999 0.000000 0.000000 0.000000 0.000000 1.000000 32123a.dat
0 STEP
0 NOFILE
0 FILE SubModel Group 6
0 SubModel Group 6
0 Name:  SubModel Group 6
0 Author:  
0 CustomBrick
0 NumOfBricks:  8
1 1 -42.124540 -63.368570 10.246950 0.000000 0.999996 0.000000 0.999996 0.000000 0.000000 0.000000 0.000000 -1.000000 3894.dat
1 0 -32.124240 -103.368400 0.240360 0.000000 0.000000 1.000000 0.000000 -1.000000 0.000000 1.000000 0.000000 0.000000 2780.dat
1 0 -32.124230 -23.368260 0.240360 0.000000 0.000000 1.000000 0.000000 -1.000000 0.000000 1.000000 0.000000 0.000000 2780.dat
0 STEP
1 1 -42.124530 -63.368380 -9.759820 0.000000 1.000000 0.000000 1.000000 0.000000 0.000000 0.000000 0.000000 -1.000000 3894.dat
0 STEP
1 1 -18.124270 -103.368500 10.240600 0.000000 1.000000 0.000000 1.000000 0.000000 0.000000 0.000000 0.000000 -1.000000 3700.dat
1 1 -18.124260 -23.368260 10.240600 0.000000 1.000000 0.000000 1.000000 0.000000 0.000000 0.000000 0.000000 -1.000000 3700.dat
1 1 -18.124270 -103.368400 -9.760010 0.000000 1.000000 0.000000 1.000000 0.000000 0.000000 0.000000 0.000000 -1.000000 3700.dat
1 1 -18.124260 -23.368260 -9.759890 0.000000 1.000000 0.000000 1.000000 0.000000 0.000000 0.000000 0.000000 -1.000000 3700.dat
0 STEP
0 NOFILE
0 FILE SubModel Group 4
0 SubModel Group 4
0 Name:  SubModel Group 4
0 Author:  
0 CustomBrick
0 NumOfBricks:  4
1 71 5.946530 -15.719600 0.469330 0.000000 0.000000 -1.000000 0.000000 0.999999 0.000000 1.000000 0.000000 0.000000 32073.dat
1 4 -14.053470 -15.719810 -0.277800 0.000000 -1.000000 0.000000 0.000000 -0.000001 0.999999 -1.000000 0.000000 0.000000 42003.dat
0 STEP
1 71 5.946410 -15.719810 -19.530910 0.000001 -0.000001 -1.000000 1.000000 0.000001 0.000001 0.000001 -1.000000 0.000001 33299.dat
1 71 5.946530 -15.719700 19.792160 0.000001 -0.000001 -1.000000 -0.999999 -0.000001 -0.000001 -0.000001 1.000000 -0.000001 33299.dat
0 STEP
0 NOFILE
0 FILE SubModel Group 3
0 SubModel Group 3
0 Name:  SubModel Group 3
0 Author:  
0 CustomBrick
0 NumOfBricks:  7
1 0 35.946410 -75.719400 0.468700 0.000000 -1.000000 0.000000 0.000000 -0.000001 0.999999 -1.000001 0.000000 0.000000 2780.dat
1 0 35.946410 -55.719390 0.468700 0.000000 -1.000000 0.000000 0.000000 -0.000001 0.999999 -1.000001 0.000000 0.000000 2780.dat
1 1 -24.055300 -75.719700 -9.528200 0.000001 0.000001 1.000000 1.000000 -0.000001 -0.000001 0.000001 0.999991 -0.000001 32140.dat
1 0 -4.053500 -75.719400 0.468820 0.000000 -1.000000 0.000000 0.000000 -0.000001 0.999999 -1.000001 0.000000 0.000000 2780.dat
1 0 15.946410 -75.719400 0.468820 0.000000 -1.000000 0.000000 0.000000 -0.000001 0.999999 -1.000001 0.000000 0.000000 2780.dat
0 STEP
1 15 35.946410 -95.719600 10.470400 1.000000 -0.000001 0.000001 0.000001 0.000001 -0.999999 0.000001 1.000000 0.000001 40490.dat
1 15 -124.053600 -75.719500 10.469240 0.000001 0.000001 -1.000000 -0.999999 0.000001 -0.000001 0.000001 1.000001 0.000001 64871.dat
0 STEP
0 NOFILE
0 FILE SubModel Group 2
0 SubModel Group 2
0 Name:  SubModel Group 2
0 Author:  
0 CustomBrick
0 NumOfBricks:  2
1 0 -4.052860 -45.349600 -0.276460 0.000000 0.000000 1.000000 -0.999999 0.000000 0.000000 0.000000 -1.000000 0.000000 3705.dat
1 72 -4.052860 -34.109600 -0.276400 0.999999 0.000000 0.000000 0.000001 0.000000 -0.999998 0.000000 1.000000 0.000000 3647.dat
0 NOFILE
