0 FILE 传动机器.io
0 Untitled Model
0 Name:  传动机器
0 Author:  
0 CustomBrick
0 NumOfBricks:  90
1 15 -182.000300 -9.000160 25.000070 0.000001 0.000001 -1.000000 -1.000000 0.000001 -0.000001 0.000001 1.000000 0.000001 64871.dat
1 0 -202.000300 -9.000170 15.000200 0.000000 0.000000 -1.000000 0.000000 1.000000 0.000000 1.000000 0.000000 0.000000 2780.dat
1 0 -162.000300 -9.000120 15.000080 0.000000 0.000000 -1.000000 0.000000 1.000000 0.000000 1.000000 0.000000 0.000000 2780.dat
0 STEP
1 14 -142.000300 -9.000090 9.999960 -1.000000 0.000000 0.000000 0.000000 1.000000 0.000000 0.000000 0.000000 -1.000000 32123a.dat
1 14 -222.000300 -9.000170 10.000200 -1.000000 0.000000 0.000000 0.000000 1.000000 0.000000 0.000000 0.000000 -1.000000 32123a.dat
1 19 -142.000300 -9.000090 14.999960 0.000001 -1.000000 0.000001 0.000001 0.000001 1.000000 -1.000000 -0.000001 0.000001 3749.dat
1 19 -222.000300 -9.000170 15.000200 0.000001 -1.000000 0.000001 0.000001 0.000001 1.000000 -1.000000 -0.000001 0.000001 3749.dat
0 STEP
1 72 -182.000200 -9.000160 0.000090 -1.000000 0.000000 0.000000 0.000000 0.000000 -1.000000 0.000000 -1.000000 0.000000 99773.dat
0 STEP
1 15 -182.000200 -109.000200 -14.999790 1.000000 -0.000001 0.000001 0.000001 0.000001 -1.000000 0.000001 1.000000 0.000001 40490.dat
1 4 -182.000200 -49.000180 -15.000030 -0.000001 1.000000 -0.000001 0.000001 0.000001 1.000000 1.000000 0.000001 -0.000001 32054.dat
1 4 -182.000300 -29.000150 -15.000030 -0.000001 1.000000 -0.000001 0.000001 0.000001 1.000000 1.000000 0.000001 -0.000001 32054.dat
0 STEP
1 0 -182.000200 -29.000240 -66.060000 0.000000 0.000000 1.000000 0.000000 1.000000 0.000000 -1.000000 0.000000 0.000000 3705.dat
1 0 -182.000100 -49.000260 -65.000000 0.000000 0.000000 1.000000 0.000000 1.000000 0.000000 -1.000000 0.000000 0.000000 3705.dat
0 STEP
1 16 -180.000000 -132.000000 0.000000 1.000000 0.000000 0.000000 0.000000 1.000000 0.000000 0.000000 0.000000 1.000000 submodel group 2
0 STEP
1 15 -182.000100 -213.000100 -14.999730 0.000001 0.000001 -1.000000 -1.000000 0.000001 -0.000001 0.000001 1.000000 0.000001 64871.dat
0 STEP
1 0 -42.000120 -213.000000 -4.999850 0.000000 0.000000 -1.000000 0.000000 1.000000 0.000000 1.000000 0.000000 0.000000 2780.dat
1 0 -322.000200 -213.000100 -4.999730 0.000000 0.000000 -1.000000 0.000000 1.000000 0.000000 1.000000 0.000000 0.000000 2780.dat
1 19 -262.000100 -213.000200 -4.999660 -0.000001 1.000000 -0.000001 0.000001 0.000001 1.000000 1.000000 0.000001 -0.000001 3749.dat
1 19 -102.000100 -213.000100 -4.999790 -0.000001 1.000000 -0.000001 0.000001 0.000001 1.000000 1.000000 0.000001 -0.000001 3749.dat
0 STEP
1 1 -102.000100 -213.000000 5.000090 0.000001 0.000001 1.000000 -1.000000 0.000000 0.000001 0.000000 -1.000000 0.000001 32140.dat
1 1 -262.000100 -213.000200 5.000340 -0.000001 -0.000001 -1.000000 -1.000000 0.000001 0.000001 0.000001 1.000000 -0.000001 32140.dat
0 STEP
1 0 -42.000110 -233.000000 15.000140 0.000000 0.000000 -1.000000 0.000000 1.000000 0.000000 1.000000 0.000000 0.000000 2780.dat
1 0 -322.000200 -233.000100 15.000260 0.000000 0.000000 -1.000000 0.000000 1.000000 0.000000 1.000000 0.000000 0.000000 2780.dat
0 STEP
1 1 -182.000200 -267.000200 25.000260 1.000000 0.000000 0.000000 0.000000 1.000000 0.000000 0.000000 0.000000 1.000000 3703.dat
1 1 -182.000200 -243.000100 25.000260 1.000000 0.000000 0.000000 0.000000 1.000000 0.000000 0.000000 0.000000 1.000000 3703.dat
0 STEP
1 71 -182.000000 -213.000300 -34.289950 -1.000000 0.000000 -0.000001 0.000000 1.000000 0.000000 0.000001 0.000000 -1.000000 3713.dat
1 0 -182.000000 -213.000300 -84.289980 0.000000 0.000000 1.000000 0.000000 1.000000 0.000000 -1.000000 0.000000 0.000000 3708.dat
0 STEP
1 0 -81.999850 -212.999900 -84.999880 0.000000 0.000000 1.000000 0.000000 1.000000 0.000000 -1.000000 0.000000 0.000000 3737.dat
1 0 -81.999860 -212.999900 -44.742700 -0.999997 0.000000 -0.000001 0.000000 0.999997 0.000000 0.000001 0.000000 -1.000000 30391.dat
1 71 -81.999880 -212.999900 -44.999910 0.000000 1.000000 0.000000 1.000000 0.000000 0.000000 0.000000 0.000000 -1.000000 55982.dat
0 STEP
1 0 -182.000400 -213.000300 -65.429940 1.000000 0.000000 0.000000 0.000000 -1.000000 0.000000 0.000000 0.000000 -1.000000 44309.dat
1 71 -182.000000 -213.000300 -65.429940 0.000000 -1.000000 0.000000 -1.000000 0.000000 0.000000 0.000000 0.000000 -1.000000 56145.dat
1 71 -182.000000 -213.000300 -74.289980 1.000000 0.000000 0.000001 0.000000 1.000000 0.000000 -0.000001 0.000000 1.000000 3713.dat
0 STEP
1 0 -281.999900 -213.000400 -85.199530 0.000000 0.000000 1.000000 0.000000 1.000000 0.000000 -1.000000 0.000000 0.000000 3737.dat
1 0 -282.000000 -213.000500 -44.942360 -1.000000 0.000000 -0.000001 0.000000 1.000000 0.000000 0.000001 0.000000 -1.000000 30391.dat
1 71 -281.999900 -213.000400 -45.199560 0.000000 1.000000 0.000000 1.000000 0.000000 0.000000 0.000000 0.000000 -1.000000 55982.dat
0 STEP
1 4 -182.000100 -49.000280 -115.000100 0.000001 0.000001 1.000001 -0.000001 1.000000 -0.000001 -1.000001 -0.000001 0.000001 32054.dat
1 4 -181.999800 -29.000330 -114.999400 0.000001 0.000001 1.000000 -0.000001 1.000000 -0.000001 -1.000000 -0.000001 0.000001 32054.dat
1 15 -182.000100 -109.000300 -115.000100 1.000000 -0.000001 0.000001 0.000001 0.000001 -1.000000 0.000001 1.000000 0.000001 40490.dat
0 STEP
1 72 -182.000100 -9.000290 -130.000100 1.000000 0.000000 0.000000 0.000000 0.000000 -1.000000 0.000000 1.000000 0.000000 99773.dat
1 0 -201.999900 -9.000310 -144.820200 0.000000 0.000000 -1.000000 0.000000 1.000000 0.000000 1.000000 0.000000 0.000000 2780.dat
1 0 -161.999800 -9.000279 -144.820200 0.000000 0.000000 -1.000000 0.000000 1.000000 0.000000 1.000000 0.000000 0.000000 2780.dat
0 STEP
1 14 -141.999900 -9.000219 -139.820200 -1.000000 0.000000 0.000000 0.000000 1.000000 0.000000 0.000000 0.000000 -1.000000 32123a.dat
1 14 -221.999900 -9.000290 -139.820200 -1.000000 0.000000 0.000000 0.000000 1.000000 0.000000 0.000000 0.000000 -1.000000 32123a.dat
1 19 -222.000100 -9.000310 -144.820200 -0.000001 1.000000 -0.000001 0.000001 0.000001 1.000000 1.000000 0.000001 -0.000001 3749.dat
1 19 -141.999900 -9.000230 -144.820200 -0.000001 1.000000 -0.000001 0.000001 0.000001 1.000000 1.000000 0.000001 -0.000001 3749.dat
0 STEP
1 15 -181.999800 -9.000279 -154.820200 0.000001 0.000001 -1.000000 -1.000000 0.000001 -0.000001 0.000001 1.000000 0.000001 64871.dat
0 STEP
1 71 -182.000000 -213.000300 -94.289980 1.000000 0.000000 0.000001 0.000000 1.000000 0.000000 -0.000001 0.000000 1.000000 3713.dat
1 0 -282.000000 -213.000500 -83.882320 -1.000000 0.000000 -0.000001 0.000000 1.000000 0.000000 0.000001 0.000000 -1.000000 30391.dat
1 71 -281.999900 -213.000400 -84.139530 0.000000 1.000003 0.000000 1.000003 0.000000 0.000000 0.000000 0.000000 -1.000000 55982.dat
1 0 -81.999910 -213.000500 -83.452700 -0.999997 0.000000 -0.000001 0.000000 0.999997 0.000000 0.000001 0.000000 -1.000000 30391.dat
1 71 -81.999850 -212.999900 -83.709900 0.000000 1.000000 0.000000 1.000000 0.000000 0.000000 0.000000 0.000000 -1.000000 55982.dat
0 STEP
1 15 -182.000000 -213.000300 -115.000000 0.000001 0.000001 -1.000000 -1.000000 0.000001 -0.000001 0.000001 1.000000 0.000001 64871.dat
0 STEP
1 16 -180.000000 -132.000000 -130.000000 1.000000 0.000000 0.000000 0.000000 1.000000 0.000000 0.000000 0.000000 1.000000 submodel group 1
0 STEP
1 0 -41.999980 -213.000200 -125.000100 0.000000 0.000000 -1.000000 0.000000 1.000000 0.000000 1.000000 0.000000 0.000000 2780.dat
1 19 -101.999900 -213.000000 -124.999900 0.000001 -1.000000 0.000001 0.000001 0.000001 1.000000 -1.000000 -0.000001 0.000001 3749.dat
1 19 -142.000000 -213.000300 -144.999900 0.000001 -0.906308 0.422618 0.000001 0.422618 0.906308 -1.000000 -0.000001 0.000001 3749.dat
1 19 -222.000200 -213.000300 -145.000000 0.000001 -0.866024 0.500000 0.000001 0.500000 0.866025 -1.000000 0.000000 0.000001 3749.dat
1 0 -322.000000 -213.000500 -124.999900 0.000000 0.000000 -1.000000 0.000000 1.000000 0.000000 1.000000 0.000000 0.000000 2780.dat
1 19 -261.999900 -213.000400 -124.999900 0.000001 -1.000000 0.000001 0.000001 0.000001 1.000000 -1.000000 -0.000001 0.000001 3749.dat
0 STEP
1 1 -101.999800 -212.999900 -134.999900 0.000001 0.000001 1.000000 -1.000000 0.000000 0.000001 -0.000001 -1.000000 0.000001 32140.dat
1 1 -262.000000 -213.000400 -135.199500 -0.000001 -0.000001 -1.000000 -1.000000 0.000001 0.000001 0.000001 1.000000 -0.000001 32140.dat
0 STEP
1 72 -182.000000 -213.000300 -154.629900 0.000000 -1.000000 0.000000 -1.000000 0.000000 0.000000 0.000000 0.000000 -1.000000 3648b.dat
0 STEP
1 72 -142.000000 -213.000300 -154.999900 -0.422617 -0.906308 0.000000 -0.906308 0.422617 0.000001 0.000000 0.000001 -1.000000 3647.dat
1 72 -222.000200 -213.000300 -155.000000 -0.499999 -0.866026 0.000000 -0.866026 0.499999 0.000001 0.000000 0.000001 -1.000000 3647.dat
0 STEP
1 71 -81.999860 -212.999900 -154.999900 1.000000 0.000000 0.000000 0.000000 -1.000000 0.000000 0.000000 0.000000 -1.000000 3649.dat
1 71 -281.999900 -213.000400 -155.199500 0.000000 -1.000000 0.000000 -1.000000 0.000000 0.000000 0.000000 0.000000 -1.000000 3649.dat
0 STEP
1 15 -181.999900 -213.000000 -174.999800 0.000001 0.000001 -1.000000 -1.000000 0.000001 -0.000001 0.000001 1.000000 0.000001 64871.dat
1 0 -201.999800 -213.000000 -184.999800 0.000000 0.000000 -1.000000 0.000000 1.000000 0.000000 1.000000 0.000000 0.000000 2780.dat
1 0 -161.999900 -213.000000 -184.999800 0.000000 0.000000 -1.000000 0.000000 1.000000 0.000000 1.000000 0.000000 0.000000 2780.dat
0 STEP
1 16 18.000000 -128.000000 -427.000000 0.000000 0.000000 -1.000000 0.000000 1.000000 0.000000 1.000000 0.000000 0.000000 submodel group 9 copy copy copy
1 15 -182.000000 -212.907200 -186.000000 -1.000000 0.000000 0.000000 0.000000 1.000000 0.000000 0.000000 0.000000 -1.000000 dx0056.dat.dat
0 STEP
0 STEP
0 NOFILE
0 FILE SubModel Group 2
0 SubModel Group 2
0 Name:  SubModel Group 2
0 Author:  
0 CustomBrick
0 NumOfBricks:  9
1 0 -2.000110 -17.000200 -4.999790 0.000000 -1.000000 0.000000 0.000000 0.000000 -1.000000 1.000000 0.000000 0.000000 2780.dat
1 1 -2.000110 -7.000180 4.999910 -1.000000 0.000000 0.000000 0.000000 -1.000000 0.000000 0.000000 0.000000 1.000000 3700.dat
0 STEP
1 1 -2.000110 -31.000200 4.999970 -1.000000 0.000000 0.000000 0.000000 -1.000000 0.000000 0.000000 0.000000 1.000000 3023.dat
1 1 -2.000110 -39.000200 4.999970 -1.000000 0.000000 0.000000 0.000000 -1.000000 0.000000 0.000000 0.000000 1.000000 3023.dat
0 STEP
1 0 -2.000110 -57.000200 -4.999790 0.000000 -1.000000 0.000000 0.000000 0.000000 -1.000000 1.000000 0.000000 0.000000 2780.dat
1 1 -2.000110 -47.000200 5.000210 -1.000000 0.000000 0.000000 0.000000 -1.000000 0.000000 0.000000 0.000000 1.000000 3701.dat
0 STEP
1 1 -2.000110 -71.000200 5.000210 1.000000 0.000000 0.000000 0.000000 -1.000000 0.000000 0.000000 0.000000 -1.000000 3701.dat
1 0 17.999890 -81.000200 -4.999790 0.000000 0.000000 -1.000000 0.000000 1.000000 0.000000 1.000000 0.000000 0.000000 2780.dat
1 0 -22.000110 -81.000200 -4.999730 0.000000 0.000000 -1.000000 0.000000 1.000000 0.000000 1.000000 0.000000 0.000000 2780.dat
0 STEP
0 NOFILE
0 FILE SubModel Group 1
0 SubModel Group 1
0 Name:  SubModel Group 1
0 Author:  
0 CustomBrick
0 NumOfBricks:  9
1 1 -2.000110 -7.000280 -5.000000 -1.000000 0.000000 0.000000 0.000000 -1.000000 0.000000 0.000000 0.000000 1.000000 3700.dat
1 0 -2.000110 -17.000300 5.000000 0.000000 -1.000000 0.000000 0.000000 0.000000 -1.000000 1.000000 0.000000 0.000000 2780.dat
0 STEP
1 1 -2.000110 -31.000300 -5.000000 -1.000000 0.000000 0.000000 0.000000 -1.000000 0.000000 0.000000 0.000000 1.000000 3023.dat
1 1 -2.000110 -39.000300 -5.000000 -1.000000 0.000000 0.000000 0.000000 -1.000000 0.000000 0.000000 0.000000 1.000000 3023.dat
0 STEP
1 1 -2.000000 -47.000300 -5.000000 -1.000000 0.000000 0.000000 0.000000 -1.000000 0.000000 0.000000 0.000000 1.000000 3701.dat
1 0 -2.000000 -57.000290 5.000000 0.000000 -1.000000 0.000000 0.000000 0.000000 -1.000000 1.000000 0.000000 0.000000 2780.dat
0 STEP
1 1 -2.000000 -71.000320 -5.000000 1.000000 0.000000 0.000000 0.000000 -1.000000 0.000000 0.000000 0.000000 -1.000000 3894.dat
1 0 -22.000000 -81.000320 5.000000 0.000000 0.000000 -1.000000 0.000000 1.000000 0.000000 1.000000 0.000000 0.000000 2780.dat
1 0 18.000000 -81.000320 5.000000 0.000000 0.000000 -1.000000 0.000000 1.000000 0.000000 1.000000 0.000000 0.000000 2780.dat
0 STEP
0 NOFILE
0 FILE SubModel Group 9 Copy Copy Copy
0 SubModel Group 9 Copy Copy Copy
0 Name:  SubModel Group 9 Copy Copy Copy
0 Author:  
0 CustomBrick
0 NumOfBricks:  3
1 72 10.000000 -1.128810 -10.000000 1.000000 0.000000 0.000000 0.000000 0.000000 -1.000000 0.000000 1.000000 0.000000 dch003.dat
1 71 -27.466620 -79.717990 29.427020 1.000000 0.000000 0.000000 0.000000 0.000000 -1.000000 0.000000 1.000000 0.000000 dch004.dat
1 25 7.837010 13.484720 -9.965000 1.000000 0.000000 0.000000 0.000000 0.000000 -1.000000 0.000000 1.000000 0.000000 dch005.dat
0 NOFILE
