0 FILE BLK002钻头车_Copy.io
0 Untitled Model
0 Name:  BLK002钻头车_Copy
0 Author:  
0 CustomBrick
0 NumOfBricks:  103
1 0 199.996400 -77.998920 -59.983990 0.000000 -0.540302 0.841471 0.000000 0.841471 0.540302 -1.000000 0.000000 0.000000 2780.dat
1 1 179.995500 -17.999260 -49.983840 1.000000 -0.000001 0.000013 0.000013 -0.000001 -1.000000 0.000001 1.000000 -0.000001 32140.dat
0 STEP
1 0 179.995800 -37.999050 -31.983990 0.000000 -0.000013 1.000000 0.000000 1.000000 0.000013 -1.000000 0.000000 0.000000 3707.dat
1 71 179.995900 -37.999290 -29.983850 0.000013 -1.000000 0.000000 -1.000000 -0.000013 0.000000 0.000000 0.000000 -1.000000 3647.dat
0 STEP
1 71 179.495800 -37.999150 -69.983890 0.000013 -1.000000 0.000000 -1.000000 -0.000013 -0.000001 0.000001 0.000000 -1.000000 3713.dat
0 STEP
1 1 119.996400 -77.999000 -69.984000 -0.000001 -0.000001 1.000000 -1.000000 0.000001 -0.000001 -0.000001 -1.000000 -0.000001 64290.dat
0 STEP
1 0 159.996400 -77.999060 -59.983990 0.000000 -1.000000 0.000000 0.000000 0.000000 1.000000 -1.000000 0.000000 0.000000 2780.dat
1 0 119.996400 -77.999060 -59.983990 0.000000 -1.000000 0.000000 0.000000 0.000000 1.000000 -1.000000 0.000000 0.000000 2780.dat
0 STEP
1 1 139.996400 -117.999000 -49.984060 1.000000 0.000000 0.000000 0.000000 0.000000 1.000000 0.000000 -1.000000 0.000000 14720.dat
0 STEP
1 0 179.996000 -77.999020 -29.984150 0.000000 0.799465 0.600713 0.000000 -0.600713 0.799465 1.000000 0.000000 0.000000 32073.dat
1 14 179.996400 -77.999140 -29.984040 0.600713 -0.799465 0.000000 0.799465 0.600713 0.000000 0.000000 0.000000 1.000000 3648b.dat
0 STEP
1 71 139.996400 -157.999000 -29.983990 -0.000001 1.000000 -0.000001 -1.000000 -0.000001 0.000001 0.000001 0.000001 1.000000 48989.dat
0 STEP
1 1 139.996400 -117.999000 -9.984000 1.000000 0.000000 0.000000 0.000000 0.000000 1.000000 0.000000 -1.000000 0.000000 14720.dat
0 STEP
1 0 129.996400 -117.999000 -9.983920 1.000000 0.000000 0.000000 0.000000 1.000000 0.000000 0.000000 0.000000 1.000000 2780.dat
1 0 129.996400 -117.999000 -49.983980 1.000000 0.000000 0.000000 0.000000 1.000000 0.000000 0.000000 0.000000 1.000000 2780.dat
0 STEP
1 1 19.996360 -77.999070 -69.984070 0.000000 1.000000 0.000000 0.000000 0.000000 1.000000 1.000000 0.000000 0.000000 6558.dat
1 1 79.996400 -77.999050 -69.984070 0.000000 -1.000000 0.000000 0.000000 0.000000 -1.000000 1.000000 0.000000 0.000000 6558.dat
0 STEP
1 16 10.000000 -24.000000 -30.000000 1.000000 0.000000 0.000000 0.000000 1.000000 0.000000 0.000000 0.000000 1.000000 submodel group 4
0 STEP
1 16 -10.000000 -48.000000 -30.000000 1.000000 0.000000 0.000000 0.000000 1.000000 0.000000 0.000000 0.000000 1.000000 submodel group 3
0 STEP
1 0 -20.004280 -177.999000 -79.983790 0.000000 0.000000 1.000000 0.000000 1.000000 0.000000 -1.000000 0.000000 0.000000 2780.dat
0 STEP
1 1 -20.003480 -157.999100 -79.984100 0.000000 0.000000 1.000000 0.000000 1.000000 0.000000 -1.000000 0.000000 0.000000 43093.dat
1 0 -20.003800 -117.999100 -79.983880 0.000000 0.000000 1.000000 0.000000 1.000000 0.000000 -1.000000 0.000000 0.000000 2780.dat
0 STEP
1 1 139.996500 -77.999070 -79.984140 0.000000 -1.000000 0.000000 0.000000 0.000000 1.000000 -1.000000 0.000000 0.000000 43093.dat
1 1 219.996400 -77.999080 -79.984000 0.000000 0.000000 1.000000 0.000000 1.000000 0.000000 -1.000000 0.000000 0.000000 43093.dat
0 STEP
1 1 -10.004260 -177.999000 -89.983810 0.000001 0.000001 -1.000000 -1.000000 0.000001 -0.000001 0.000001 1.000000 0.000001 43857.dat
0 STEP
1 1 139.996400 -157.999000 -69.984040 0.000000 -1.000000 0.000000 0.000000 0.000000 1.000000 -1.000000 0.000000 0.000000 6558.dat
1 1 139.996400 -157.999000 10.016040 0.000000 1.000000 0.000000 0.000000 0.000000 1.000000 1.000000 0.000000 0.000000 6558.dat
0 STEP
1 1 -20.003410 -77.499050 -89.984260 0.000000 0.000000 -1.000000 -1.000000 0.000000 0.000000 0.000000 1.000000 0.000000 32009.dat
0 STEP
1 0 159.996400 -77.999000 0.016000 0.000000 0.000000 -1.000000 0.000000 1.000000 0.000000 1.000000 0.000000 0.000000 2780.dat
1 0 119.996500 -77.999000 0.016000 0.000000 0.000000 -1.000000 0.000000 1.000000 0.000000 1.000000 0.000000 0.000000 2780.dat
0 STEP
1 1 179.995900 -17.999060 -9.983980 1.000000 -0.000001 -0.000001 -0.000001 -0.000001 -1.000000 0.000001 1.000000 -0.000001 32140.dat
1 0 199.995900 -77.999050 0.016100 0.000000 0.000000 -1.000000 0.000000 1.000000 0.000000 1.000000 0.000000 0.000000 2780.dat
0 STEP
1 71 179.995800 -37.499050 10.016030 -1.000000 0.000000 -0.000001 0.000000 1.000000 0.000000 0.000001 0.000000 -1.000000 3713.dat
0 STEP
1 1 119.996000 -77.999130 10.015970 -0.000001 -0.000001 1.000000 1.000000 -0.000001 0.000001 0.000001 1.000000 0.000001 64290.dat
0 STEP
1 1 79.995920 -77.999060 10.016170 0.000000 -1.000000 0.000000 0.000000 0.000000 1.000000 -1.000000 0.000000 0.000000 6558.dat
1 1 19.995880 -77.999060 10.016170 0.000000 -1.000000 0.000000 0.000000 0.000000 1.000000 -1.000000 0.000000 0.000000 6558.dat
0 STEP
1 0 -20.004180 -177.998900 19.983700 0.000000 0.000000 1.000000 0.000000 1.000000 0.000000 -1.000000 0.000000 0.000000 2780.dat
1 0 -20.004280 -117.998900 19.983790 0.000000 0.000000 1.000000 0.000000 1.000000 0.000000 -1.000000 0.000000 0.000000 2780.dat
1 1 -20.004080 -157.998900 19.983550 0.000000 0.000000 -1.000000 0.000000 1.000000 0.000000 1.000000 0.000000 0.000000 43093.dat
0 STEP
1 1 139.995900 -77.999060 20.015980 0.000000 0.000000 -1.000000 0.000000 1.000000 0.000000 1.000000 0.000000 0.000000 43093.dat
1 1 219.995900 -77.999080 20.015960 0.000000 0.000000 -1.000000 0.000000 1.000000 0.000000 1.000000 0.000000 0.000000 43093.dat
0 STEP
1 1 -20.004030 -77.499040 30.016170 0.000000 0.000000 -1.000000 -1.000000 0.000000 0.000000 0.000000 1.000000 0.000000 32009.dat
0 STEP
1 71 139.996400 -157.999000 -69.984120 1.000000 0.000000 0.000000 0.000000 0.000000 -1.000000 0.000000 1.000000 0.000000 18654.dat
1 71 139.996400 -157.999000 10.016100 1.000000 0.000000 0.000000 0.000000 0.000000 -1.000000 0.000000 1.000000 0.000000 18654.dat
0 STEP
1 16 40.000000 -144.000000 -30.000000 1.000000 0.000000 0.000000 0.000000 1.000000 0.000000 0.000000 0.000000 1.000000 submodel group 2
0 STEP
1 1 -10.004390 -177.999000 30.016190 -0.000001 -0.000001 1.000000 1.000000 -0.000001 0.000001 0.000001 1.000000 0.000001 43857.dat
0 STEP
1 16 240.000000 -60.000000 -30.000000 1.000000 0.000000 0.000000 0.000000 1.000000 0.000000 0.000000 0.000000 1.000000 submodel group 1
0 STEP
1 1 219.996500 -158.499000 -89.984020 0.000000 0.000000 1.000000 1.000000 0.000000 0.000000 0.000000 1.000000 0.000000 32009.dat
0 STEP
1 1 219.996600 -158.499000 30.015960 0.000000 0.000000 1.000000 1.000000 0.000000 0.000000 0.000000 1.000000 0.000000 32009.dat
0 STEP
1 0 -80.004260 -37.998980 40.273250 0.000000 -1.000000 0.000000 -1.000000 0.000000 -0.000001 0.000001 0.000000 -1.000000 30391.dat
1 71 -80.004190 -37.998990 40.016380 -1.000000 0.000000 0.000000 0.000000 1.000000 0.000000 0.000000 0.000000 -1.000000 55982.dat
1 0 -80.004180 -37.999000 -31.983700 0.000000 0.000000 -1.000000 0.000000 -1.000000 0.000000 -1.000000 0.000000 0.000000 3707.dat
0 STEP
1 71 -80.004160 -37.998990 -99.983790 1.000000 0.000000 0.000000 0.000000 1.000000 0.000000 0.000000 0.000000 1.000000 55982.dat
1 0 -80.004150 -37.998990 -100.240600 0.000000 1.000000 0.000000 -1.000000 0.000000 -0.000001 -0.000001 0.000000 1.000000 30391.dat
0 STEP
1 0 179.995900 -37.999040 40.272770 0.000000 -1.000000 0.000000 -1.000000 0.000000 -0.000001 0.000001 0.000000 -1.000000 30391.dat
1 71 179.995800 -37.999040 40.016110 -1.000000 0.000000 0.000000 0.000000 1.000000 0.000000 0.000000 0.000000 -1.000000 55982.dat
1 71 179.995800 -37.999050 -101.984000 1.000000 0.000000 0.000000 0.000000 1.000000 0.000000 0.000000 0.000000 1.000000 55982.dat
1 0 179.995800 -37.999040 -102.240800 0.000000 1.000000 0.000000 -1.000000 0.000000 -0.000001 -0.000001 0.000000 1.000000 30391.dat
0 STEP
0 STEP
0 NOFILE
0 FILE SubModel Group 4
0 SubModel Group 4
0 Name:  SubModel Group 4
0 Author:  
0 CustomBrick
0 NumOfBricks:  12
1 0 -10.004200 -53.999010 -29.983800 0.000000 -1.000000 0.000000 0.000000 0.000000 1.000000 -1.000000 0.000000 0.000000 2780.dat
1 1 -90.004220 -13.999000 -39.983800 0.000001 0.000001 1.000000 -1.000000 0.000001 0.000001 -0.000001 -1.000000 0.000001 32526.dat
1 0 -10.004200 -13.999000 -29.983800 0.000000 -1.000000 0.000000 0.000000 0.000000 1.000000 -1.000000 0.000000 0.000000 2780.dat
0 STEP
1 1 69.995830 -53.999000 -19.983830 -0.000001 -0.000001 -1.000000 1.000000 -0.000001 -0.000001 -0.000001 -1.000000 0.000001 32526.dat
0 STEP
1 1 29.996430 -53.999050 0.015990 0.000000 -1.000000 0.000000 0.000000 0.000000 -1.000000 1.000000 0.000000 0.000000 6558.dat
1 1 -10.004200 -33.999020 0.016180 0.000000 -1.000000 0.000000 0.000000 0.000000 -1.000000 1.000000 0.000000 0.000000 6558.dat
0 STEP
1 71 29.996430 -53.999060 0.015960 -1.000000 0.000000 0.000000 0.000000 0.000000 -1.000000 0.000000 -1.000000 0.000000 18654.dat
1 71 -10.004200 -33.999040 0.016160 -1.000000 0.000000 0.000000 0.000000 0.000000 -1.000000 0.000000 -1.000000 0.000000 18654.dat
0 STEP
1 1 69.995830 -53.999050 20.016140 -0.000001 -0.000001 -1.000000 1.000000 -0.000001 -0.000001 -0.000001 -1.000000 0.000001 32526.dat
0 STEP
1 0 -10.004200 -53.999050 30.016140 0.000000 -1.000000 0.000000 0.000000 0.000000 1.000000 -1.000000 0.000000 0.000000 2780.dat
1 0 -10.004200 -13.999050 30.016140 0.000000 -1.000000 0.000000 0.000000 0.000000 1.000000 -1.000000 0.000000 0.000000 2780.dat
0 STEP
1 1 -90.004220 -13.999040 40.016120 0.000001 0.000001 1.000000 -1.000000 0.000001 0.000001 -0.000001 -1.000000 0.000001 32526.dat
0 STEP
0 NOFILE
0 FILE SubModel Group 3
0 SubModel Group 3
0 Name:  SubModel Group 3
0 Author:  
0 CustomBrick
0 NumOfBricks:  10
1 16 -46.986620 -0.039360 -10.517980 -1.000000 0.000000 0.000000 0.000000 1.000000 0.000000 0.000000 0.000000 -1.000000 submodel group 9 copy copy copy
0 STEP
1 0 -10.004280 -89.998900 29.983810 0.000000 0.000000 1.000000 0.000000 1.000000 0.000000 -1.000000 0.000000 0.000000 2780.dat
1 0 -10.004280 -49.999030 29.983810 0.000000 0.000000 1.000000 0.000000 1.000000 0.000000 -1.000000 0.000000 0.000000 2780.dat
0 STEP
1 0 -10.004280 -89.998900 -29.983800 0.000000 0.000000 1.000000 0.000000 1.000000 0.000000 -1.000000 0.000000 0.000000 2780.dat
1 0 -10.004280 -49.999030 -29.983800 0.000000 0.000000 1.000000 0.000000 1.000000 0.000000 -1.000000 0.000000 0.000000 2780.dat
0 STEP
1 15 -10.004220 -69.999000 -39.983840 1.000000 -0.000001 0.000001 0.000001 0.000001 -1.000000 0.000001 1.000000 0.000001 32524.dat
1 15 -10.004190 -69.998900 39.983660 1.000000 -0.000001 0.000001 0.000001 0.000001 -1.000000 0.000001 1.000000 0.000001 32524.dat
0 STEP
1 15 138.000000 -71.000000 -1.000000 0.000000 0.000000 -1.000000 0.000000 1.000000 0.000000 1.000000 0.000000 0.000000 dx0044.dat
0 STEP
0 NOFILE
0 FILE SubModel Group 9 Copy Copy Copy
0 SubModel Group 9 Copy Copy Copy
0 Name:  SubModel Group 9 Copy Copy Copy
0 Author:  
0 CustomBrick
0 NumOfBricks:  3
1 72 10.000000 -1.128810 -10.000000 1.000000 0.000000 0.000000 0.000000 0.000000 -1.000000 0.000000 1.000000 0.000000 dch003.dat
1 71 -27.466620 -79.717990 29.427020 1.000000 0.000000 0.000000 0.000000 0.000000 -1.000000 0.000000 1.000000 0.000000 dch004.dat
1 25 7.837010 13.484720 -9.965000 1.000000 0.000000 0.000000 0.000000 0.000000 -1.000000 0.000000 1.000000 0.000000 dch005.dat
0 NOFILE
0 FILE SubModel Group 2
0 SubModel Group 2
0 Name:  SubModel Group 2
0 Author:  
0 CustomBrick
0 NumOfBricks:  8
1 72 -40.004250 -33.999000 -39.983880 0.000000 -1.000000 -0.000001 0.000001 0.000001 -1.000000 1.000000 0.000000 0.000001 11214.dat
1 1 19.995690 -13.998990 -39.983850 -0.000001 -0.000001 -1.000000 -1.000000 0.000001 0.000001 0.000001 1.000000 -0.000001 32140.dat
0 STEP
1 71 -40.004350 -34.499000 0.016080 1.000000 0.000000 0.000000 0.000000 -1.000000 0.000000 0.000000 0.000000 -1.000000 32034.dat
0 STEP
1 72 -40.004390 -33.999000 40.016140 0.000000 1.000000 0.000001 0.000001 0.000001 -1.000000 -1.000000 0.000000 -0.000001 11214.dat
0 STEP
1 0 19.995690 -13.998990 -39.983900 0.000000 0.000000 -1.000000 0.000000 -1.000000 0.000000 -1.000000 0.000000 0.000000 4519.dat
0 STEP
1 71 19.995680 -14.498990 0.016190 1.000000 0.000000 0.000000 0.000000 -1.000000 0.000000 0.000000 0.000000 -1.000000 32034.dat
0 STEP
1 0 19.995680 -13.998990 40.016160 0.000000 0.000000 1.000000 0.000000 -1.000000 0.000000 1.000000 0.000000 0.000000 4519.dat
0 STEP
1 1 19.995560 -13.998990 40.016290 -0.000001 -0.000001 -1.000000 -1.000000 0.000001 0.000001 0.000001 1.000000 -0.000001 32140.dat
0 STEP
0 NOFILE
0 FILE SubModel Group 1
0 SubModel Group 1
0 Name:  SubModel Group 1
0 Author:  
0 CustomBrick
0 NumOfBricks:  19
1 0 -50.003680 -57.999000 0.016120 1.000000 0.000000 0.000000 0.000000 -1.000000 0.000000 0.000000 0.000000 -1.000000 3707.dat
0 STEP
1 71 -85.003680 -57.999000 0.015920 0.000000 0.000000 -1.000000 1.000000 0.000000 0.000000 0.000000 -1.000000 0.000000 32123a.dat
1 71 -100.003700 -57.499000 0.015920 -0.000001 0.000000 1.000000 0.000000 1.000000 0.000000 -1.000000 0.000000 -0.000001 3713.dat
0 STEP
1 71 -60.003680 -57.499000 0.016010 0.000000 0.000000 -1.000000 0.000000 1.000000 0.000000 1.000000 0.000000 0.000000 4716.dat
0 STEP
1 71 -35.003690 -57.999000 0.016010 0.000000 0.000000 -1.000000 1.000000 0.000000 0.000000 0.000000 -1.000000 0.000000 32123a.dat
0 STEP
1 71 -20.003600 -57.999000 0.015950 0.000000 -1.000000 0.000000 0.000000 0.000000 1.000000 -1.000000 0.000000 0.000000 27940.dat
0 STEP
1 71 -20.003480 -57.999000 30.015960 1.000000 0.000000 0.000001 0.000000 1.000000 0.000000 -0.000001 0.000000 1.000000 59443.dat
1 71 -20.003480 -57.999000 -29.983990 1.000000 0.000000 0.000001 0.000000 1.000000 0.000000 -0.000001 0.000000 1.000000 59443.dat
0 STEP
1 1 -20.003600 -57.999000 50.015930 0.000000 0.000000 1.000000 0.000000 1.000000 0.000000 -1.000000 0.000000 0.000000 43093.dat
1 1 -20.003480 -57.999000 -49.984070 0.000000 0.000000 -1.000000 0.000000 1.000000 0.000000 1.000000 0.000000 0.000000 43093.dat
0 STEP
1 71 -2.503600 -57.999000 0.016010 0.000000 0.000000 1.000000 0.000000 1.000000 0.000000 -1.000000 0.000000 0.000000 3649.dat
0 STEP
1 14 19.996310 -57.999100 0.016110 0.000000 0.000000 1.000000 1.000000 0.000000 0.000000 0.000000 1.000000 0.000000 3648b.dat
0 STEP
1 0 29.996400 -67.999100 10.016040 1.000000 0.000000 0.000000 0.000000 1.000000 0.000000 0.000000 0.000000 1.000000 2780.dat
1 0 29.996400 -47.999100 -9.984039 1.000000 0.000000 0.000000 0.000000 1.000000 0.000000 0.000000 0.000000 1.000000 2780.dat
0 STEP
1 14 39.996400 -57.999100 0.016000 0.000000 0.000000 1.000000 1.000000 0.000000 0.000000 0.000000 1.000000 0.000000 3648b.dat
0 STEP
1 0 69.996310 -57.999100 0.016050 -1.000000 0.000000 0.000000 0.000000 1.000000 0.000000 0.000000 0.000000 -1.000000 3705.dat
0 STEP
1 71 59.996400 -57.999100 0.016030 -0.000001 0.000000 1.000000 0.000000 -1.000000 0.000000 1.000000 0.000000 0.000001 94925.dat
1 0 79.996310 -57.999100 0.016040 0.000000 0.000000 -1.000000 -1.000000 0.000000 0.000000 0.000000 1.000000 0.000000 32270.dat
0 STEP
1 71 99.996310 -57.999000 0.016040 0.000000 0.000000 -1.000000 -1.000000 0.000000 0.000000 0.000000 1.000000 0.000000 3647.dat
0 STEP
0 NOFILE
