0 FILE 机械昆虫_Copy.io
0 Untitled Model
0 Name:  机械昆虫_Copy
0 Author:  
0 CustomBrick
1 1 -60.001860 -283.412600 -309.998400 0.000000 0.000000 -1.000003 0.000000 1.000000 0.000000 1.000003 0.000000 0.000000 3701.dat
0 STEP
1 0 -70.001750 -273.412600 -309.998400 -1.000003 0.000000 0.000000 0.000000 1.000000 0.000000 0.000000 0.000000 -1.000003 2780.dat
1 0 -50.001860 -273.412600 -329.998500 -1.000003 0.000000 0.000000 0.000000 1.000000 0.000000 0.000000 0.000000 -1.000003 2780.dat
1 0 -50.001860 -273.412600 -289.998300 -1.000003 0.000000 0.000000 0.000000 1.000000 0.000000 0.000000 0.000000 -1.000003 2780.dat
0 STEP
1 1 -80.001780 -283.412600 -309.998400 0.000000 0.000000 -1.000004 0.000000 1.000000 0.000000 1.000004 0.000000 0.000000 3701.dat
0 STEP
1 0 -90.001810 -273.412600 -329.998500 -1.000003 0.000000 0.000000 0.000000 1.000000 0.000000 0.000000 0.000000 -1.000003 2780.dat
1 0 -90.001810 -273.412600 -289.998300 -1.000003 0.000000 0.000000 0.000000 1.000000 0.000000 0.000000 0.000000 -1.000003 2780.dat
0 STEP
1 15 -40.001700 -273.412500 -309.998400 -0.000001 -1.000003 -0.000001 -1.000000 0.000001 -0.000001 0.000001 0.000001 -1.000003 32316.dat
1 15 -100.001900 -273.412500 -309.998400 -0.000001 -1.000003 -0.000001 -1.000000 0.000001 -0.000001 0.000001 0.000001 -1.000003 32316.dat
0 STEP
1 0 -30.001780 -273.412600 -349.998600 -1.000003 0.000000 0.000000 0.000000 1.000000 0.000000 0.000000 0.000000 -1.000003 2780.dat
1 0 -30.001660 -273.412500 -269.998200 -1.000003 0.000000 0.000000 0.000000 1.000000 0.000000 0.000000 0.000000 -1.000003 2780.dat
1 0 -110.002000 -273.412600 -349.998600 -1.000003 0.000000 0.000000 0.000000 1.000000 0.000000 0.000000 0.000000 -1.000003 2780.dat
1 0 -110.001900 -273.412500 -269.998200 -1.000003 0.000000 0.000000 0.000000 1.000000 0.000000 0.000000 0.000000 -1.000003 2780.dat
0 STEP
1 0 -68.271900 -273.412600 -369.999400 -1.000005 0.000000 0.000000 0.000000 1.000000 0.000000 0.000000 0.000000 -1.000005 3706.dat
1 15 -20.001740 -273.412600 -409.998700 -0.000001 -1.000003 -0.000001 -1.000000 0.000001 -0.000001 0.000001 0.000001 -1.000003 64871.dat
0 STEP
1 4 -90.002030 -293.412600 -369.999500 -1.000000 0.000000 0.000001 0.000000 -1.000000 0.000000 0.000001 0.000000 1.000000 42003.dat
1 4 -49.281880 -293.412600 -369.999400 -1.000005 0.000000 0.000001 0.000000 -1.000000 0.000000 0.000001 0.000000 1.000005 42003.dat
1 71 -69.601970 -273.412600 -369.999400 -0.000001 0.000000 1.000005 0.000000 1.000000 0.000000 -1.000005 0.000000 -0.000001 3713.dat
1 14 -105.332200 -273.412600 -369.999400 0.000000 0.000000 1.000005 0.000000 -1.000000 0.000000 1.000005 0.000000 0.000000 32123a.dat
1 14 -34.041850 -273.412600 -369.999400 0.000000 0.000000 1.000005 0.000000 -1.000000 0.000000 1.000005 0.000000 0.000000 32123a.dat
0 STEP
1 1 -90.002040 -313.412600 -369.999400 0.000000 0.000000 1.000005 0.000000 -1.000000 0.000000 1.000005 0.000000 0.000000 32556.dat
1 1 -49.281880 -313.412600 -369.999400 0.000000 0.000000 1.000005 0.000000 -1.000000 0.000000 1.000005 0.000000 0.000000 32556.dat
1 15 -70.000180 -313.412600 -390.000900 0.000001 0.000001 -1.000005 0.999998 -0.000001 0.000001 -0.000001 -1.000003 -0.000001 32523.dat
0 STEP
1 0 -70.000060 -313.412800 -420.001000 0.000000 0.000000 1.000004 0.000000 1.000000 0.000000 -1.000004 0.000000 0.000000 3707.dat
1 14 -70.000060 -313.412800 -404.861000 -1.000003 0.000000 0.000000 0.000000 -1.000000 0.000000 0.000000 0.000000 1.000003 32123a.dat
1 71 -70.000060 -313.412800 -430.090900 -1.000003 0.000000 0.000000 0.000000 1.000000 0.000000 0.000000 0.000000 -1.000003 4716.dat
0 STEP
1 0 -70.530080 -273.412800 -490.001100 1.000003 0.000000 0.000000 0.000000 1.000000 0.000000 0.000000 0.000000 1.000003 3706.dat
1 14 -35.530010 -273.412800 -490.001100 0.000000 0.000000 1.000003 0.000000 -1.000000 0.000000 1.000003 0.000000 0.000000 32123a.dat
1 0 -69.991510 -273.412600 -429.999600 -1.000022 0.000000 0.000000 0.000000 0.993646 -0.112716 0.000000 -0.112718 -0.993631 3707.dat
1 14 -70.000060 -313.412800 -455.000900 -1.000003 0.000000 0.000000 0.000000 -1.000000 0.000000 0.000000 0.000000 1.000003 32123a.dat
1 15 -70.000060 -313.412800 -470.001100 0.000001 0.000001 -1.000003 1.000000 -0.000001 0.000001 -0.000001 -1.000003 -0.000001 32523.dat
0 STEP
1 14 -34.973490 -273.412600 -429.999500 -0.000001 0.000000 -1.000003 -0.112716 -0.993627 0.000000 -0.993631 0.112716 0.000000 32123a.dat
1 71 -49.843160 -273.412600 -429.999500 0.000001 0.000000 -1.000003 -0.993627 0.112716 -0.000001 0.112716 0.993631 0.000000 3713.dat
1 71 -70.000060 -313.412800 -490.001100 1.000003 0.000000 0.000001 0.000000 1.000000 0.000000 -0.000001 0.000000 1.000003 3713.dat
0 STEP
1 72 -69.843080 -273.412600 -429.999500 0.000000 0.000000 -1.000004 0.112716 0.993627 0.000000 0.993631 -0.112716 0.000000 3648b.dat
1 71 -89.992890 -273.412600 -429.999500 -0.000001 0.000001 1.000003 -0.993627 -0.112716 -0.000001 0.112717 -0.993631 0.000001 3713.dat
1 14 -104.993100 -273.412600 -429.999600 -0.000001 0.000000 -1.000003 -0.112716 -0.993627 0.000000 -0.993631 0.112716 0.000000 32123a.dat
1 0 -90.000080 -313.412800 -480.000900 0.000000 0.000000 -1.000004 0.000000 1.000000 0.000000 1.000004 0.000000 0.000000 2780.dat
1 0 -50.000020 -313.412800 -480.001100 0.000000 0.000000 -1.000003 0.000000 1.000000 0.000000 1.000003 0.000000 0.000000 2780.dat
0 STEP
1 16 -110.000000 -224.823600 -652.533400 0.000000 -1.000000 0.000000 0.000000 0.000000 -1.000000 1.000000 0.000000 0.000000 submodel group 2 copy copy
0 STEP
1 14 -105.020100 -273.412800 -490.001200 0.000000 0.000000 1.000003 0.000000 -1.000000 0.000000 1.000003 0.000000 0.000000 32123a.dat
1 15 -120.002100 -273.412600 -409.998800 -0.000001 -1.000003 -0.000001 -1.000000 0.000001 -0.000001 0.000001 0.000001 -1.000003 64871.dat
0 STEP
1 0 -10.000610 -273.412600 -549.999300 -1.000008 0.000000 0.000000 0.000000 1.000004 0.000000 0.000000 0.000000 -1.000003 2780.dat
1 0 -10.000610 -273.412600 -529.999000 -1.000008 0.000000 0.000000 0.000000 1.000004 0.000000 0.000000 0.000000 -1.000003 2780.dat
1 1 0.010300 -273.412600 -429.999600 0.000000 1.000004 -0.000001 0.112716 0.000001 0.993627 0.993631 0.000000 -0.112717 32140.dat
1 1 -0.001180 -219.936800 -318.987400 0.000000 0.000000 -1.000003 -0.945520 0.325568 0.000000 0.325567 0.945522 0.000000 3702.dat
1 4 -0.001550 -273.412500 -289.998300 -1.000003 -0.000001 0.000001 0.000000 0.559193 0.829038 -0.000001 0.829041 -0.559195 32054.dat
0 STEP
1 15 -0.179890 -273.412700 -610.002000 -0.000001 -1.000003 -0.000001 -1.000000 0.000001 -0.000001 0.000001 0.000001 -1.000003 40490.dat
0 STEP
1 4 19.820170 -273.412700 -570.002000 -1.000003 -0.000001 0.000001 -0.000001 -0.559195 -0.829036 0.000001 -0.829040 0.559197 32054.dat
1 1 19.820300 -213.043200 -562.549600 -0.000002 0.000000 -1.000003 -0.958821 -0.284014 0.000002 -0.284015 0.958824 0.000000 3702.dat
1 15 20.010370 -159.861900 -328.213600 -0.000002 -1.000003 -0.000002 -0.743145 0.000002 -0.669131 0.669133 0.000000 -0.743147 64871.dat
1 19 20.010370 -253.540100 -432.253900 -1.000005 0.000000 0.000000 0.000000 -0.766045 0.642789 0.000000 0.642791 0.766047 6558.dat
1 1 20.010270 -159.861800 -328.213600 -1.000000 0.000000 0.000000 0.000000 -0.766046 0.642786 0.000000 0.642786 0.766045 32556.dat
0 STEP
1 71 21.790160 -273.412800 -710.002400 0.000001 -1.000004 0.000001 1.000000 0.000001 0.000001 -0.000001 0.000001 1.000003 33299.dat
1 1 40.010200 -159.861800 -536.295000 -1.000003 0.000002 0.000001 -0.000002 -0.743145 -0.669130 -0.000001 -0.669132 0.743147 32556.dat
1 15 40.010200 -159.861800 -536.295000 0.000002 1.000004 0.000002 -0.743145 0.000002 -0.669131 -0.669132 0.000000 0.743147 64871.dat
0 STEP
1 71 41.790720 -273.412800 -710.002700 -1.000005 0.000000 0.000000 0.000000 1.000001 0.000000 0.000000 0.000000 -1.000003 4519.dat
1 19 50.010300 -106.331400 -595.747100 1.000003 -0.000001 -0.000001 -0.000001 -0.965926 0.258816 -0.000001 -0.258817 -0.965930 3749.dat
1 72 60.010070 -66.183380 -640.335800 -1.000011 0.000000 0.000000 0.000000 -1.000000 0.000000 0.000000 0.000000 1.000009 6587.dat
1 72 40.011300 -66.183700 -224.172700 -1.000005 0.000000 0.000001 0.000001 -0.743146 0.669130 0.000000 0.669133 0.743147 6587.dat
0 STEP
1 71 41.790720 -273.412800 -710.002700 0.000001 0.000000 -1.000005 0.000000 1.000001 0.000000 1.000003 0.000000 0.000001 3713.dat
1 71 60.008360 -66.182910 -640.334100 0.000000 0.000000 -1.000003 0.000000 1.000000 0.000000 1.000003 0.000000 0.000000 94925.dat
1 71 41.661080 -66.183600 -224.172700 0.000000 -1.000005 0.000000 -0.743146 0.000000 -0.669131 0.669134 0.000000 -0.743147 33299.dat
0 STEP
1 71 51.790940 -273.412800 -710.002700 0.000000 0.000000 -1.000004 0.000000 -1.000000 0.000000 -1.000004 0.000000 0.000000 56145.dat
1 71 90.010390 -66.183380 -640.335700 0.000000 0.000000 -1.000003 -1.000000 0.000000 0.000000 0.000000 1.000003 0.000000 55982.dat
1 0 90.264800 -66.183380 -640.335400 0.000001 0.000000 -1.000002 0.000000 -1.000000 0.000000 -1.000002 0.000000 -0.000001 30391.dat
1 71 71.661480 -66.183680 -224.172600 0.000000 0.000001 -1.000005 -0.743147 0.669130 0.000001 0.669133 0.743147 0.000000 55982.dat
1 0 71.918190 -66.183680 -224.172600 0.000000 0.000000 -1.000005 -0.669130 -0.743147 0.000000 -0.743147 0.669133 0.000000 30391.dat
0 STEP
1 0 -67.650070 -273.412800 -690.002400 1.000003 0.000000 0.000000 0.000000 1.000000 0.000000 0.000000 0.000000 1.000003 3737.dat
1 4 -30.149980 -273.412800 -710.002400 -1.000003 0.000000 0.000000 0.000000 1.000000 0.000001 0.000000 0.000001 -1.000003 32039.dat
1 14 -15.249880 -273.412800 -690.002400 0.000000 0.000000 1.000003 0.000000 -1.000000 0.000000 1.000003 0.000000 0.000000 32123a.dat
1 4 60.011160 -101.156200 -615.065400 -1.000003 0.000000 -0.000002 0.000002 0.258815 -0.965927 0.000000 -0.965931 -0.258816 42003.dat
0 STEP
1 0 -129.992700 -273.412700 -549.999300 -1.000024 0.000000 0.000000 0.000000 1.000020 0.000000 0.000000 0.000000 -1.000003 2780.dat
1 0 -129.992700 -273.412700 -529.999000 -1.000024 0.000000 0.000000 0.000000 1.000020 0.000000 0.000000 0.000000 -1.000003 2780.dat
1 4 -110.220200 -273.412800 -710.002400 1.000000 0.000000 0.000000 0.000000 -1.000000 -0.000001 0.000000 0.000001 -1.000000 32039.dat
1 1 -140.001900 -229.262300 -331.840400 0.000000 0.000000 -1.000003 -0.829039 0.559190 0.000000 0.559193 0.829043 0.000000 3702.dat
1 4 -140.002100 -273.412500 -289.998300 1.000003 0.000001 -0.000001 -0.000001 -0.559194 -0.829037 -0.000002 0.829041 -0.559195 32054.dat
0 STEP
1 4 -30.149980 -273.412800 -720.002600 0.000000 0.000000 -1.000003 0.000000 1.000000 0.000000 1.000003 0.000000 0.000000 32062.dat
1 1 -139.992800 -273.412600 -429.999600 0.000000 1.000004 -0.000001 -0.112716 -0.000001 -0.993628 -0.993631 0.000000 0.112716 32140.dat
1 4 -110.220200 -273.412800 -720.002700 0.000000 -0.000001 -1.000000 -0.000001 -1.000000 0.000001 -1.000000 0.000001 0.000000 32062.dat
1 14 -124.580300 -273.412800 -690.002400 0.000000 0.000000 1.000000 0.000000 -1.000000 0.000000 1.000000 0.000000 0.000000 32123a.dat
0 STEP
1 0 -30.250440 -273.412800 -749.810100 0.000000 -0.923880 -0.382692 1.000000 0.000000 0.000000 0.000000 -0.382692 0.923880 32016.dat
1 0 -110.119600 -273.412800 -749.810100 -0.000001 0.923876 0.382691 -1.000000 -0.000002 0.000000 0.000001 -0.382691 0.923876 32016.dat
1 15 -139.580400 -273.412700 -610.002000 -0.000001 -1.000003 -0.000001 -1.000000 0.000001 -0.000001 0.000001 0.000001 -1.000003 40490.dat
1 19 -159.993000 -293.285200 -427.745200 1.000003 0.000000 0.000000 0.000000 -0.766044 0.642789 0.000000 -0.642791 -0.766047 6558.dat
1 1 -159.992600 -172.657000 -356.689600 1.000003 -0.000002 0.000000 -0.000002 -0.829040 -0.559190 0.000001 0.559192 -0.829043 32556.dat
1 15 -159.992600 -172.657000 -356.689600 -0.000002 -1.000004 -0.000003 -0.507539 0.000004 -0.861630 0.861633 0.000000 -0.507541 64871.dat
0 STEP
1 1 -70.000180 -243.412800 -710.002400 -1.000004 0.000000 0.000000 0.000000 1.000000 0.000000 0.000000 0.000000 -1.000004 3701.dat
1 1 -50.000140 -233.412800 -710.002400 0.000000 0.000000 -1.000003 0.000000 1.000000 0.000000 1.000003 0.000000 0.000000 32556.dat
1 1 -90.000220 -233.412800 -710.002400 0.000000 0.000000 -1.000003 0.000000 1.000000 0.000000 1.000003 0.000000 0.000000 32556.dat
1 4 -159.580400 -273.412600 -570.001900 1.000003 0.000001 -0.000001 0.000000 0.559196 0.829036 0.000001 -0.829039 0.559198 32054.dat
1 1 -159.580300 -217.859400 -545.224400 -0.000003 -0.000002 -1.000004 -0.833892 -0.551938 0.000004 -0.551939 0.833891 0.000000 3702.dat
0 STEP
1 1 -69.999320 -243.412800 -730.002600 -1.000003 0.000000 0.000000 0.000000 1.000000 0.000000 0.000000 0.000000 -1.000003 3701.dat
1 71 -161.520600 -273.412800 -710.002400 -0.000001 1.000003 -0.000001 -1.000000 -0.000001 -0.000001 -0.000001 0.000001 1.000003 33299.dat
1 0 -159.869800 -273.412900 -869.913600 -0.382691 0.000000 0.923875 0.000000 1.000000 0.000000 -0.923876 0.000000 -0.382691 3708.dat
1 0 19.499370 -273.412800 -869.914400 -0.382692 0.000000 -0.923881 0.000000 1.000000 0.000000 0.923881 0.000000 -0.382692 3708.dat
1 15 -179.993300 -175.871300 -503.995000 0.000001 1.000003 0.000002 -0.544639 0.000002 -0.838671 -0.838674 0.000000 0.544641 64871.dat
1 1 -179.993300 -175.871300 -503.995000 1.000003 0.000000 0.000000 0.000000 -0.766046 0.642786 0.000000 -0.642788 -0.766049 32556.dat
0 STEP
1 71 -181.524500 -273.412800 -710.004200 0.999999 0.000000 0.000000 0.000000 -1.000004 0.000000 0.000000 0.000000 -0.999999 4519.dat
1 72 -178.852300 -52.028800 -285.634000 1.000003 0.000002 -0.000001 -0.000002 0.861629 -0.507539 0.000000 0.507540 0.861633 6587.dat
1 72 -199.993700 -58.457500 -580.245200 1.000003 0.000000 0.000000 0.000000 -1.000000 0.000000 0.000000 -0.000001 -1.000003 6587.dat
1 19 -189.993600 -108.777600 -547.566800 -1.000003 0.000000 -0.000001 -0.000001 0.858318 0.513118 0.000001 0.513120 -0.858322 3749.dat
0 STEP
1 71 -181.520700 -273.412700 -710.002400 -0.000001 0.000000 1.000003 0.000000 -1.000004 0.000000 1.000003 0.000000 0.000001 3713.dat
1 71 -179.992400 -52.028820 -285.634000 0.000001 1.000004 -0.000002 0.507538 -0.000002 -0.861629 -0.861633 0.000000 -0.507540 33299.dat
1 71 -199.993700 -58.457500 -580.245200 0.000000 0.000000 1.000003 0.000000 1.000000 0.000000 -1.000003 0.000000 0.000000 94925.dat
0 STEP
1 71 -191.524500 -273.412800 -710.004200 0.000000 0.000000 1.000003 0.000000 -1.000000 0.000000 1.000004 0.000000 0.000000 56145.dat
1 4 -201.443200 -98.514930 -564.732700 1.000003 -0.000002 0.000000 0.000001 0.513119 0.858311 -0.000002 -0.858321 0.513117 42003.dat
0 STEP
1 71 -210.512600 -52.028550 -285.633900 0.000000 0.000001 1.000011 -0.861629 0.507542 0.000000 -0.507540 -0.861639 0.000001 55982.dat
1 0 -210.767100 -52.028360 -285.634200 -0.000002 0.000000 1.000000 -0.507537 -0.861629 -0.000001 0.861630 -0.507540 0.000001 30391.dat
1 71 -229.993900 -58.457520 -580.245200 0.000000 0.000000 1.000003 -1.000000 0.000000 0.000000 0.000000 -1.000003 0.000000 55982.dat
1 0 -230.251600 -58.456500 -580.245700 -0.000001 0.000000 1.000003 0.000000 -1.000000 0.000000 1.000004 0.000000 0.000001 30391.dat
0 STEP
1 15 -70.035060 -313.667000 -358.862200 0.999998 0.000000 0.000000 0.000000 1.000000 0.000000 0.000000 0.000000 0.999998 dx0014.dat
0 STEP
0 NOFILE
0 FILE SubModel Group 2 Copy Copy
0 SubModel Group 2 Copy Copy
0 Name:  SubModel Group 2 Copy Copy
0 Author:  
0 CustomBrick
1 72 10.000000 -39.427000 -20.000000 1.000000 0.000000 0.000000 0.000000 1.000000 0.000000 0.000000 0.000000 1.000000 dch003.dat
1 71 -27.466620 0.000000 58.589180 1.000000 0.000000 0.000000 0.000000 1.000000 0.000000 0.000000 0.000000 1.000000 dch004.dat
1 25 7.837000 -39.392000 -34.613530 1.000000 0.000000 0.000000 0.000000 1.000000 0.000000 0.000000 0.000000 1.000000 dch005.dat
0 NOFILE
