0 FILE 电钻台.io
0 Untitled Model
0 Name:  电钻台
0 Author:  
0 CustomBrick
0 NumOfBricks:  70
1 0 -54.000280 -190.000300 -132.449900 0.000000 0.000000 1.000000 0.000000 1.000000 0.000000 -1.000000 0.000000 0.000000 2780.dat
1 0 65.999820 -190.000200 -132.449900 0.000000 0.000000 1.000000 0.000000 1.000000 0.000000 -1.000000 0.000000 0.000000 2780.dat
1 15 5.999570 -190.000200 -142.449900 0.000001 0.000001 -1.000000 -1.000000 0.000001 -0.000001 0.000001 1.000000 0.000001 64871.dat
1 0 105.999600 -190.000200 -132.450900 0.000000 0.000000 -1.000000 0.000000 1.000003 0.000000 1.000003 0.000000 0.000000 2780.dat
1 0 85.999580 -190.000200 -132.450900 0.000000 0.000000 -1.000000 0.000000 1.000003 0.000000 1.000003 0.000000 0.000000 2780.dat
0 STEP
1 15 5.999700 -190.000200 -122.449900 0.000001 0.000001 -1.000000 -1.000000 0.000001 -0.000001 0.000001 1.000000 0.000001 32524.dat
1 1 105.999800 -129.999900 -122.449900 -1.000000 0.000001 0.000001 -0.000001 -0.000001 -1.000000 -0.000001 -1.000000 0.000001 32140.dat
0 STEP
1 15 5.999700 -190.000200 -103.619900 0.000001 0.000001 -1.000000 -1.000000 0.000001 -0.000001 0.000001 1.000000 0.000001 32316.dat
1 0 6.000010 -190.000200 -71.660040 0.000000 0.000000 1.000000 0.000000 1.000000 0.000000 -1.000000 0.000000 0.000000 3737.dat
0 STEP
1 0 -34.000460 -190.000200 -72.529910 0.000000 0.000000 1.000000 0.000000 1.000000 0.000000 -1.000000 0.000000 0.000000 3706.dat
0 STEP
1 72 5.999570 -190.000200 -88.090880 1.000004 0.000000 0.000000 0.000000 0.000000 -1.000001 0.000000 1.000001 0.000000 99773.dat
0 STEP
1 72 5.999570 -190.000200 -72.779910 -1.000004 0.000000 0.000000 0.000000 1.000000 0.000000 0.000000 0.000000 -1.000000 3647.dat
1 4 -34.000460 -210.000400 -73.060920 0.000000 0.000000 1.000004 0.000000 -1.000001 0.000000 1.000001 0.000000 0.000000 42003.dat
0 STEP
1 0 -5.480560 -210.000300 -73.380920 -1.000004 0.000000 0.000000 0.000000 1.000001 0.000000 0.000000 0.000000 -1.000001 3707.dat
0 STEP
1 71 -13.680510 -210.000300 -73.380920 0.000001 0.000000 -1.000004 0.000000 1.000001 0.000000 1.000001 0.000000 0.000001 3713.dat
1 71 16.659820 -210.000200 -73.380920 0.000000 0.000000 1.000004 0.000000 1.000001 0.000000 -1.000001 0.000000 0.000000 4716.dat
0 STEP
1 0 56.000110 -230.000200 -73.380920 -1.000004 0.000000 0.000000 0.000000 1.000001 0.000000 0.000000 0.000000 -1.000001 2780.dat
1 4 46.000020 -210.000200 -73.380920 0.000000 0.000000 1.000004 0.000000 -1.000001 0.000000 1.000001 0.000000 0.000000 42003.dat
0 STEP
1 0 45.999760 -190.000200 -72.449890 0.000000 0.000000 1.000000 0.000000 1.000000 0.000000 -1.000000 0.000000 0.000000 3706.dat
0 STEP
1 72 5.999570 -190.000200 -58.097900 1.000004 0.000000 0.000000 0.000000 0.000000 -0.999998 0.000000 0.999998 0.000000 99773.dat
0 STEP
0 STEP
1 1 -94.000480 -130.000100 -122.448900 1.000000 -0.000001 -0.000001 -0.000001 -0.000001 -1.000000 0.000001 1.000000 -0.000001 32140.dat
1 0 -94.000290 -190.000400 -132.449900 0.000000 0.000000 -1.000000 0.000000 1.000004 0.000000 1.000002 0.000000 0.000000 2780.dat
1 0 -74.000270 -190.000400 -132.449900 0.000000 0.000000 -1.000000 0.000000 1.000004 0.000000 1.000002 0.000000 0.000000 2780.dat
0 STEP
1 0 -94.000480 -170.000100 -132.448900 0.000000 0.000000 -1.000000 0.000000 1.000000 0.000000 1.000000 0.000000 0.000000 2780.dat
1 19 -94.000480 -130.000100 -132.448900 -0.000001 1.000000 -0.000001 0.000001 0.000001 1.000000 1.000000 0.000001 -0.000001 3749.dat
0 STEP
1 15 -94.000480 -90.000000 -142.448900 1.000000 -0.000001 0.000001 -0.000001 -0.000001 1.000000 -0.000001 -1.000000 -0.000001 40490.dat
1 0 -94.000610 -29.999840 -132.448900 0.000000 0.000000 -1.000000 0.000000 1.000004 0.000000 1.000004 0.000000 0.000000 2780.dat
1 19 -94.000480 -69.999970 -132.448900 -0.000001 1.000000 -0.000001 0.000001 0.000001 1.000004 1.000004 0.000001 -0.000001 3749.dat
0 STEP
1 0 105.999800 -169.999900 -132.449900 0.000000 0.000000 -1.000000 0.000000 1.000000 0.000000 1.000000 0.000000 0.000000 2780.dat
1 19 105.999800 -129.999900 -132.449900 -0.000001 1.000000 -0.000001 0.000001 0.000001 1.000000 1.000000 0.000001 -0.000001 3749.dat
0 STEP
1 15 105.999800 -89.999880 -142.449900 1.000000 -0.000001 0.000001 -0.000001 -0.000001 1.000000 -0.000001 -1.000000 -0.000001 40490.dat
1 0 105.998600 -29.999970 -130.999900 0.000000 0.000000 -1.000000 0.000000 1.000000 0.000000 1.000000 0.000000 0.000000 2780.dat
1 19 105.999800 -69.999860 -132.449900 -0.000001 1.000000 -0.000001 0.000001 0.000001 1.000000 1.000000 0.000001 -0.000001 3749.dat
0 STEP
1 1 -94.000480 -69.999940 -122.444900 1.000000 -0.000001 -0.000001 0.000001 0.000001 1.000000 -0.000001 -1.000000 0.000001 32140.dat
1 1 105.998600 -70.000010 -120.999900 -1.000000 0.000001 0.000001 0.000001 0.000001 1.000000 0.000001 1.000000 -0.000001 32140.dat
0 STEP
1 72 6.000000 -190.000200 -157.270000 0.000000 1.000000 0.000000 -1.000000 0.000000 0.000000 0.000000 0.000000 1.000000 6575.dat
0 STEP
1 19 6.000000 -190.000200 -164.660000 0.000000 -1.000000 0.000000 -1.000000 0.000000 -0.000001 0.000001 0.000000 -1.000000 6589.dat
0 STEP
1 16 -140.000000 -180.000000 -70.000000 1.000000 0.000000 0.000000 0.000000 1.000000 0.000000 0.000000 0.000000 1.000000 submodel group 1
0 STEP
1 15 6.001220 -190.000400 -42.693720 0.000001 0.000001 -1.000000 -0.999998 0.000001 -0.000001 0.000001 0.999998 0.000001 32316.dat
0 STEP
1 15 6.000210 -190.000200 -22.849790 0.000001 0.000001 -1.000000 -1.000000 0.000001 -0.000001 0.000001 1.000000 0.000001 32524.dat
1 0 -53.999800 -190.000300 -12.849730 0.000000 0.000000 -1.000000 0.000000 1.000000 0.000000 1.000000 0.000000 0.000000 2780.dat
1 0 66.000320 -190.000200 -12.849920 0.000000 0.000000 -1.000000 0.000000 1.000000 0.000000 1.000000 0.000000 0.000000 2780.dat
0 STEP
1 15 6.000210 -190.000200 -2.849790 0.000001 0.000001 -1.000000 -1.000000 0.000001 -0.000001 0.000001 1.000000 0.000001 64871.dat
0 STEP
1 72 6.000000 -190.000500 12.000000 0.000000 -1.000000 0.000000 1.000000 0.000000 0.000000 0.000000 0.000000 1.000000 6575.dat
1 19 6.000000 -190.000300 20.029970 0.000000 1.000000 0.000000 -1.000000 0.000000 -0.000001 -0.000001 0.000000 1.000000 6589.dat
0 STEP
1 0 106.000200 -190.000100 -12.849920 0.000000 0.000000 -1.000000 0.000000 1.000000 0.000000 1.000000 0.000000 0.000000 2780.dat
1 0 85.999430 -190.000100 -12.850830 0.000000 0.000000 -1.000002 0.000000 1.000000 0.000000 1.000002 0.000000 0.000000 2780.dat
0 STEP
1 1 106.000100 -130.000000 -22.850040 -1.000000 0.000001 0.000001 -0.000001 -0.000001 -1.000000 -0.000001 -1.000000 0.000001 32140.dat
0 STEP
1 0 106.000100 -170.000000 -12.849920 0.000000 0.000000 -1.000000 0.000000 1.000000 0.000000 1.000000 0.000000 0.000000 2780.dat
1 19 106.000200 -130.000000 -12.849920 0.000000 -0.000001 -1.000000 0.000001 -1.000000 0.000001 -1.000000 -0.000001 0.000001 3749.dat
0 STEP
1 0 -73.999920 -190.000100 -12.850040 0.000000 0.000000 -1.000000 0.000000 1.000000 0.000000 1.000000 0.000000 0.000000 2780.dat
1 0 -94.000610 -190.000100 -12.851500 0.000000 0.000000 -1.000003 0.000000 1.000000 0.000000 1.000003 0.000000 0.000000 2780.dat
0 STEP
1 1 -93.999810 -130.000100 -22.849920 1.000000 -0.000001 -0.000001 -0.000001 -0.000001 -1.000000 0.000001 1.000000 -0.000001 32140.dat
0 STEP
1 0 -93.999930 -170.000100 -12.849920 0.000000 0.000000 -1.000000 0.000000 1.000000 0.000000 1.000000 0.000000 0.000000 2780.dat
1 19 -93.999930 -130.000100 -12.849920 0.000000 -0.000001 -1.000000 0.000001 -1.000000 0.000001 -1.000000 -0.000001 0.000001 3749.dat
0 STEP
1 15 -93.999810 -90.000030 -2.850040 1.000000 -0.000001 0.000001 -0.000001 -0.000001 1.000000 -0.000001 -1.000000 -0.000001 40490.dat
1 15 106.000200 -90.000010 -2.850040 1.000000 -0.000001 0.000001 -0.000001 -0.000001 1.000000 -0.000001 -1.000000 -0.000001 40490.dat
0 STEP
1 0 -93.999810 -90.000030 7.149960 0.000000 1.000000 0.000000 0.000000 0.000000 -1.000000 -1.000000 0.000000 0.000000 2780.dat
1 0 106.000200 -90.000000 7.150090 0.000000 1.000000 0.000000 0.000000 0.000000 -1.000000 -1.000000 0.000000 0.000000 2780.dat
1 0 -93.999820 -50.000030 7.149960 0.000000 1.000000 0.000000 0.000000 0.000000 -1.000000 -1.000000 0.000000 0.000000 2780.dat
1 0 106.000200 -50.000020 7.150090 0.000000 1.000000 0.000000 0.000000 0.000000 -1.000000 -1.000000 0.000000 0.000000 2780.dat
0 STEP
1 15 57.000000 -209.804100 -73.000000 0.000000 0.000000 1.000000 0.000000 1.000000 0.000000 -1.000000 0.000000 0.000000 xt0021.dat
0 STEP
1 16 69.031260 0.000000 27.995070 -1.000000 0.000000 -0.000005 0.000000 1.000000 0.000000 0.000005 0.000000 -1.000000 submodel group 9 copy copy copy
0 STEP
0 STEP
0 NOFILE
0 FILE SubModel Group 1
0 SubModel Group 1
0 Name:  SubModel Group 1
0 Author:  
0 CustomBrick
0 NumOfBricks:  6
1 71 4.519120 -30.000280 -3.380920 -1.000000 0.000000 0.000000 0.000000 1.000000 0.000000 0.000000 0.000000 -1.000000 32073.dat
1 19 33.609030 -30.000260 -3.380920 0.000000 0.000000 1.000000 0.000000 -1.000000 0.000000 1.000000 0.000000 0.000000 32198.dat
1 71 54.519130 -30.003080 -3.380920 -0.000001 0.000000 1.000000 0.000000 1.000000 0.000000 -1.000000 0.000000 -0.000001 59443.dat
0 STEP
1 19 -18.480880 -30.000280 -3.380920 0.000001 0.000000 -1.000000 0.000000 -1.000000 0.000000 -1.000000 0.000000 -0.000001 6589.dat
1 71 5.869100 -30.000280 -3.380920 0.000000 0.000000 1.000000 0.000000 1.000000 0.000000 -1.000000 0.000000 0.000000 4716.dat
0 STEP
1 4 -55.480880 -30.000200 -3.380920 -1.000000 -0.000001 0.000001 0.000001 0.000001 1.000000 -0.000001 1.000000 -0.000001 32054.dat
0 STEP
0 NOFILE
0 FILE SubModel Group 9 Copy Copy Copy
0 SubModel Group 9 Copy Copy Copy
0 Name:  SubModel Group 9 Copy Copy Copy
0 Author:  
0 CustomBrick
0 NumOfBricks:  3
1 72 10.000000 -1.128810 -10.000000 1.000000 0.000000 0.000000 0.000000 0.000000 -1.000000 0.000000 1.000000 0.000000 dch003.dat
1 71 -27.466620 -79.717990 29.427020 1.000000 0.000000 0.000000 0.000000 0.000000 -1.000000 0.000000 1.000000 0.000000 dch004.dat
1 25 7.837010 13.484720 -9.965000 1.000000 0.000000 0.000000 0.000000 0.000000 -1.000000 0.000000 1.000000 0.000000 dch005.dat
0 NOFILE
