0 Untitled Model
0 Name:  手推车
0 Author:  
0 CustomBrick
0 NumOfBricks:  37
1 0 -92.000140 -78.000500 -3.289990 0.000000 -1.000000 0.000000 1.000000 0.000000 0.000000 0.000000 0.000000 1.000000 44309.dat
1 71 -92.000140 -78.000500 -3.289990 -1.000000 0.000000 0.000000 0.000000 -1.000000 0.000000 0.000000 0.000000 1.000000 56145.dat
0 STEP
1 0 -92.004440 -78.000500 -2.917920 0.000000 0.000000 1.000000 0.000000 1.000000 0.000000 -1.000000 0.000000 0.000000 3706.dat
0 STEP
1 71 -92.000140 -78.000520 6.710030 0.000000 -1.000000 0.000000 1.000000 0.000000 0.000001 -0.000001 0.000000 1.000000 3713.dat
0 STEP
1 14 -92.000140 -78.000500 -28.349930 0.000000 1.000000 0.000000 1.000000 0.000000 0.000000 0.000000 0.000000 -1.000000 32123a.dat
0 STEP
1 14 -92.000140 -78.000500 21.710030 0.000000 1.000000 0.000000 -1.000000 0.000000 0.000000 0.000000 0.000000 1.000000 32123a.dat
0 STEP
1 15 -32.000040 -78.000330 37.000050 0.000001 0.000001 -1.000000 -1.000000 0.000001 -0.000001 0.000001 1.000000 0.000001 32524.dat
0 STEP
1 14 -92.004440 -78.000500 52.083050 1.000009 0.000000 0.000000 0.000000 -1.000000 0.000000 0.000000 0.000000 -1.000009 32123a.dat
0 STEP
1 0 -12.000040 -78.000320 27.000050 0.000000 0.000000 1.000000 0.000000 1.000000 0.000000 -1.000000 0.000000 0.000000 2780.dat
1 0 28.000080 -78.000360 27.000040 0.000000 0.000000 1.000000 0.000000 1.000000 0.000000 -1.000000 0.000000 0.000000 2780.dat
0 STEP
1 1 67.999780 -78.000380 17.000050 -0.000001 -0.000001 -1.000000 -1.000000 0.000001 0.000001 0.000001 1.000000 -0.000001 32526.dat
0 STEP
1 19 -12.000040 -118.000300 -2.999950 0.000000 0.000000 1.000000 0.000000 1.000000 0.000000 -1.000000 0.000000 0.000000 32556.dat
1 19 7.999950 -78.000300 -2.999950 0.000000 0.000000 1.000000 0.000000 1.000000 0.000000 -1.000000 0.000000 0.000000 32556.dat
0 STEP
1 1 68.000000 -78.000320 -3.000000 -0.000001 -0.000001 -1.000000 -1.000000 0.000001 0.000001 0.000001 1.000000 -0.000001 32526.dat
0 STEP
1 1 67.999960 -78.000360 -22.999960 -0.000001 -0.000001 -1.000000 -1.000000 0.000001 0.000001 0.000001 1.000000 -0.000001 32526.dat
0 STEP
1 0 -12.000040 -78.000270 -32.999960 0.000000 0.000000 -1.000000 0.000000 1.000000 0.000000 1.000000 0.000000 0.000000 2780.dat
1 0 27.999960 -78.000300 -32.999960 0.000000 0.000000 -1.000000 0.000000 1.000000 0.000000 1.000000 0.000000 0.000000 2780.dat
0 STEP
1 15 -32.000040 -78.000360 -43.000000 0.000001 0.000001 -1.000000 -1.000000 0.000001 -0.000001 0.000001 1.000000 0.000001 32524.dat
0 STEP
1 14 -92.004440 -78.000500 -57.917960 0.000000 1.000000 0.000000 1.000000 0.000000 0.000000 0.000000 0.000000 -1.000000 32123a.dat
0 STEP
1 0 47.999960 -78.000320 -32.999960 0.000000 0.000000 -1.000000 0.000000 1.000000 0.000000 1.000000 0.000000 0.000000 2780.dat
1 0 67.999960 -78.000340 -32.999960 0.000000 0.000000 -1.000000 0.000000 1.000000 0.000000 1.000000 0.000000 0.000000 2780.dat
1 0 67.999900 -78.000390 27.000040 0.000000 0.000000 1.000000 0.000000 1.000000 0.000000 -1.000000 0.000000 0.000000 2780.dat
1 0 47.999900 -78.000370 27.000040 0.000000 0.000000 1.000000 0.000000 1.000000 0.000000 -1.000000 0.000000 0.000000 2780.dat
0 STEP
1 15 187.999900 -78.000220 37.000030 0.000001 0.000001 -1.000000 -1.000000 0.000001 -0.000001 0.000001 1.000000 0.000001 64871.dat
1 15 188.000000 -78.000220 -43.000000 0.000001 0.000001 -1.000000 -1.000000 0.000001 -0.000001 0.000001 1.000000 0.000001 64871.dat
0 STEP
1 0 207.999900 -78.000220 47.000030 0.000000 0.000000 -1.000000 0.000000 1.000000 0.000000 1.000000 0.000000 0.000000 2780.dat
1 0 187.999900 -78.000240 47.000030 0.000000 0.000000 -1.000000 0.000000 1.000000 0.000000 1.000000 0.000000 0.000000 2780.dat
0 STEP
1 1 188.000000 -18.000240 57.000040 1.000000 -0.000001 -0.000001 -0.000001 -0.000001 -1.000002 0.000001 1.000001 -0.000001 32140.dat
0 STEP
1 19 187.999900 -38.000250 67.000030 -0.000001 1.000000 -0.000001 0.000001 0.000001 1.000000 1.000000 0.000001 -0.000001 3749.dat
0 STEP
1 0 188.000100 -78.000200 -53.000000 0.000000 0.000000 -1.000000 0.000000 1.000000 0.000000 1.000000 0.000000 0.000000 2780.dat
1 0 208.000100 -78.000180 -53.000000 0.000000 0.000000 -1.000000 0.000000 1.000000 0.000000 1.000000 0.000000 0.000000 2780.dat
0 STEP
1 1 188.000100 -18.000160 -63.000000 1.000000 -0.000001 -0.000001 -0.000001 -0.000001 -1.000000 0.000001 1.000000 -0.000001 32140.dat
0 STEP
1 19 188.000100 -38.000150 -73.000000 0.000001 -1.000000 0.000001 0.000001 0.000001 1.000000 -1.000000 -0.000001 0.000001 3749.dat
0 STEP
1 0 188.000200 -38.000030 -93.255000 0.000000 1.000000 0.000000 -1.000000 0.000000 -0.000001 -0.000001 0.000000 1.000000 30391.dat
1 71 188.000100 -38.000140 -93.000000 1.000000 0.000000 0.000000 0.000000 1.000000 0.000000 0.000000 0.000000 1.000000 55982.dat
0 STEP
1 0 187.999900 -38.000140 87.257010 0.000000 -1.000000 0.000000 -1.000000 0.000000 -0.000001 0.000001 0.000000 -1.000000 30391.dat
1 71 187.999900 -38.000240 87.000040 -1.000000 0.000000 0.000000 0.000000 1.000000 0.000000 0.000000 0.000000 -1.000000 55982.dat
0 STEP
0 STEP
