0 Untitled Model
0 Name:  折叠支架
0 Author:  
0 CustomBrick
0 NumOfBricks:  40
1 15 67.342040 -57.249160 -87.000060 0.531403 -0.000001 0.847116 -0.847117 -0.000002 0.531403 0.000001 -1.000000 -0.000002 40490.dat
1 19 135.111400 -14.736760 -77.000180 0.000000 0.481754 0.876304 0.000004 -0.876304 0.481753 1.000000 0.000003 -0.000002 3749.dat
0 STEP
1 4 50.399040 -67.877550 -87.000670 -0.000001 0.481752 -0.876306 -0.000002 -0.876306 -0.481752 -1.000001 0.000001 0.000002 32054.dat
1 4 50.398490 -67.877330 -57.000680 0.000000 0.876304 -0.481753 0.000002 0.481753 0.876305 1.000000 -0.000001 -0.000002 32062.dat
0 STEP
1 15 33.644390 -56.955720 -107.000700 0.546093 0.000001 -0.837722 0.837722 -0.000002 0.546094 -0.000001 -1.000000 -0.000002 40490.dat
0 STEP
1 71 -0.427340 -99.761420 -97.000060 0.000000 0.304034 0.952656 -0.000001 0.952659 -0.304035 -1.000000 -0.000001 0.000001 3673.dat
1 1 -2.940860 -159.708700 -106.999000 -0.999121 0.000001 0.041890 0.041891 0.000001 0.999121 0.000000 1.000000 -0.000001 32140.dat
0 STEP
1 71 100.662100 -100.643200 -117.000500 0.000001 0.532859 0.846202 -0.000001 0.846201 -0.532861 -1.000000 0.000000 0.000001 3673.dat
1 71 -20.409810 -98.923660 -116.999300 0.000000 0.632018 -0.774951 -0.000002 -0.774951 -0.632018 -1.000001 0.000001 0.000002 3673.dat
0 STEP
1 1 40.496860 -109.594300 -127.000500 0.999846 0.017455 0.000000 -0.017456 0.999846 0.000000 0.000000 0.000000 1.000000 3895.dat
0 STEP
1 19 135.111200 -14.736630 -36.999940 -0.000001 0.481751 -0.876306 -0.000002 -0.876304 -0.481752 -0.999998 0.000001 0.000002 3749.dat
1 71 135.110400 -14.733900 -57.000550 -0.876305 0.481753 -0.000001 -0.481753 -0.876304 0.000002 0.000000 0.000002 0.999998 59443.dat
0 STEP
1 4 50.398640 -67.877230 -27.000980 0.000000 0.481753 0.876302 0.000003 -0.876304 0.481753 0.999999 0.000003 -0.000002 32054.dat
0 STEP
1 15 67.342040 -57.248940 -26.999940 0.531403 -0.000001 0.847116 -0.847117 -0.000002 0.531403 0.000001 -1.000000 -0.000002 40490.dat
0 STEP
1 19 -33.373590 -13.268210 -97.000980 -0.000001 0.965922 0.258822 0.000002 -0.258821 0.965924 1.000000 0.000002 -0.000002 3749.dat
0 STEP
1 4 -33.373680 -13.268190 -57.000860 0.000000 0.258823 -0.965922 0.000001 0.965924 0.258822 1.000000 -0.000001 -0.000001 32062.dat
1 71 -33.374080 -13.271070 -77.000850 0.965922 0.258824 0.000001 -0.258823 0.965923 0.000001 0.000000 -0.000001 1.000000 59443.dat
0 STEP
1 19 -33.373410 -13.268030 -17.000980 -0.000001 0.965921 -0.258826 -0.000002 -0.258825 -0.965923 -1.000000 -0.000001 0.000002 3749.dat
1 71 -33.376190 -13.266960 -37.000980 -0.258822 0.965921 0.000000 -0.965921 -0.258822 0.000000 0.000000 0.000000 0.999998 59443.dat
0 STEP
1 15 32.937960 -56.747520 -7.000980 0.553383 0.000001 -0.832924 0.832924 -0.000002 0.553383 -0.000001 -1.000000 -0.000002 40490.dat
0 STEP
1 71 99.571910 -101.018000 3.000000 0.000001 0.017454 0.999846 0.000000 0.999846 -0.017455 -1.000000 0.000000 0.000001 3673.dat
1 71 -0.427340 -99.761210 -17.000000 0.000001 0.532859 0.846202 -0.000001 0.846201 -0.532861 -1.000000 0.000000 0.000001 3673.dat
0 STEP
1 71 -20.409500 -98.923420 3.000000 -0.000001 0.632020 -0.774950 -0.000002 -0.774951 -0.632018 -1.000000 0.000001 0.000002 3673.dat
1 1 -2.940770 -159.708500 -7.000000 -0.999121 0.000001 0.041890 0.041891 0.000001 0.999121 0.000001 1.000000 -0.000001 32140.dat
0 STEP
1 1 39.406650 -109.969200 13.000000 0.999846 0.017454 0.000000 -0.017455 0.999846 0.000000 0.000000 0.000000 1.000000 3895.dat
0 STEP
1 15 39.267060 -117.968000 13.000000 -0.999846 0.017454 0.000000 0.017454 0.999846 0.000000 0.000000 0.000000 -1.000000 2431.dat
1 15 40.357300 -117.593100 -127.000500 -0.999846 0.017455 0.000000 0.017455 0.999846 0.000000 0.000000 0.000000 -1.000000 2431.dat
0 STEP
1 1 -41.000000 -132.569100 13.000000 -0.999848 0.017454 0.000000 0.017454 0.999848 0.000000 0.000000 0.000000 -1.000000 3701.dat
1 1 -39.909780 -132.194200 -127.002000 -0.999846 0.017455 0.000153 0.017455 0.999846 -0.000003 -0.000153 0.000000 -1.000000 3701.dat
0 STEP
1 0 -59.730620 -121.846600 -117.005200 0.000000 0.034905 0.999388 -0.000001 0.999388 -0.034906 -1.000000 -0.000001 0.000000 2780.dat
1 0 -40.825330 -122.570700 3.000000 0.000000 0.000000 0.999998 0.000000 0.999998 0.000000 -1.000000 0.000000 0.000000 2780.dat
1 0 -39.733690 -122.195700 -117.002300 0.000000 0.034905 0.999388 -0.000001 0.999388 -0.034906 -1.000000 -0.000001 0.000000 2780.dat
1 0 -60.822320 -122.221600 3.000000 0.000000 0.000000 0.999998 0.000000 0.999998 0.000000 -1.000000 0.000000 0.000000 2780.dat
0 STEP
1 1 -59.733640 -132.195700 -107.002300 -0.999998 0.000000 0.000000 0.000000 0.999998 0.000000 0.000000 0.000000 -1.000000 3701.dat
1 1 -59.733340 -132.195700 -6.997920 -0.999998 0.000000 0.000153 0.000000 0.999998 0.000000 -0.000153 0.000000 -1.000000 3701.dat
0 STEP
1 1 -59.733330 -108.195700 -56.999390 0.000000 0.000000 0.999998 0.000000 0.999998 0.000000 -1.000000 0.000000 0.000000 32001.dat
0 STEP
1 1 100.347600 -118.640100 -56.999700 0.000000 0.017455 0.999845 0.000000 0.999843 -0.017455 -1.000002 0.000000 0.000000 3738.dat
1 1 140.341900 -119.338700 -57.000550 0.000000 0.017455 0.999846 0.000000 0.999846 -0.017455 -1.000000 0.000000 0.000000 3738.dat
0 STEP
1 1 -79.733170 -140.195700 -57.002260 0.000000 0.000000 -0.999998 0.000000 0.999998 0.000000 1.000000 0.000000 0.000000 32001.dat
1 1 -39.733390 -140.195700 -57.002260 0.000000 0.000000 -0.999998 0.000000 0.999998 0.000000 1.000000 0.000000 0.000000 32001.dat
0 STEP
0 STEP
