0 Untitled Model
0 Name:  伸缩夹
0 Author:  
0 CustomBrick
0 NumOfBricks:  24
1 15 -130.000000 -9.999960 210.000000 -1.000000 0.000001 -0.000001 -0.000001 -1.000000 -0.000001 -0.000001 -0.000001 1.000000 64871.dat
1 0 -130.000000 -19.999920 150.000000 0.000000 0.000000 -1.000000 -1.000000 0.000000 0.000000 0.000000 1.000000 0.000000 2780.dat
0 STEP
1 15 -190.000000 -29.999860 150.000000 -0.000001 -0.000001 1.000000 -0.000001 -1.000000 -0.000001 1.000000 -0.000001 0.000001 64871.dat
0 STEP
1 1 -130.000200 -30.000120 370.000000 1.000000 -0.000001 -0.000001 -0.000001 -1.000000 0.000001 -0.000001 -0.000001 -1.000000 32140.dat
1 0 -130.000300 -20.000100 330.000000 0.000000 1.000000 0.000000 -1.000000 0.000000 0.000000 0.000000 0.000000 1.000000 2780.dat
1 0 -130.000200 -20.000100 350.000000 0.000000 1.000000 0.000000 -1.000000 0.000000 0.000000 0.000000 0.000000 1.000000 2780.dat
0 STEP
1 1 -350.000000 -49.999710 150.000000 0.000001 0.000001 1.000000 0.000001 1.000000 -0.000001 -1.000000 0.000001 0.000001 32140.dat
1 0 -330.000000 -39.999730 150.000000 0.000000 0.000000 -1.000000 -1.000000 0.000000 0.000000 0.000000 1.000000 0.000000 2780.dat
1 0 -310.000000 -39.999740 150.000000 0.000000 0.000000 -1.000000 -1.000000 0.000000 0.000000 0.000000 1.000000 0.000000 2780.dat
0 STEP
1 15 -49.999910 -9.999920 69.999980 -1.000000 0.000001 -0.000001 -0.000001 -1.000000 -0.000001 -0.000001 -0.000001 1.000000 40490.dat
1 71 -50.000030 -20.000000 150.000000 0.000000 0.000000 -1.000000 -1.000000 0.000000 0.000000 0.000000 1.000000 0.000000 3673.dat
0 STEP
1 71 -49.999910 -19.999920 69.999970 0.000000 0.000000 -1.000000 -1.000000 0.000000 0.000000 0.000000 1.000000 0.000000 3673.dat
1 71 -129.999900 -19.999850 69.999970 0.000000 0.000000 -1.000000 -1.000000 0.000000 0.000000 0.000000 1.000000 0.000000 3673.dat
0 STEP
1 15 -50.000430 -29.999760 69.999970 0.000001 0.000001 -1.000000 -0.000001 -1.000000 -0.000001 -1.000000 0.000001 -0.000001 40490.dat
0 STEP
1 15 30.000270 -9.999610 -10.000030 -1.000000 0.000001 -0.000001 -0.000001 -1.000000 -0.000001 -0.000001 -0.000001 1.000000 40490.dat
1 71 30.000180 -19.999700 69.999980 0.000000 0.000000 -1.000000 -1.000000 0.000000 0.000000 0.000000 1.000000 0.000000 3673.dat
0 STEP
1 71 -49.999920 -19.999850 -10.000030 0.000000 0.000000 -1.000000 -1.000000 0.000000 0.000000 0.000000 1.000000 0.000000 3673.dat
1 71 30.000180 -19.999770 -10.000030 0.000000 0.000000 -1.000000 -1.000000 0.000000 0.000000 0.000000 1.000000 0.000000 3673.dat
0 STEP
1 15 30.000090 -29.999780 -10.000030 0.000001 0.000001 -1.000000 -0.000001 -1.000000 -0.000001 -1.000000 0.000001 -0.000001 40490.dat
0 STEP
1 19 110.000100 -19.999700 -10.000030 -0.000001 1.000000 -0.000001 1.000000 0.000001 -0.000001 -0.000001 -0.000001 -1.000000 3749.dat
1 19 30.000270 -19.999550 -89.999000 -0.000001 1.000000 -0.000001 -1.000000 -0.000001 0.000001 0.000001 0.000001 1.000000 3749.dat
0 STEP
1 1 110.000200 -7.809680 -169.999200 1.000000 0.000000 0.000000 0.000000 -1.000000 0.000000 0.000000 0.000000 -1.000000 32009.dat
1 71 110.000200 -17.809700 -89.999000 0.000000 0.000000 -1.000000 -1.000000 0.000000 0.000000 0.000000 1.000000 0.000000 3673.dat
0 STEP
1 1 190.000300 -32.119560 -89.999000 0.000000 0.000000 1.000000 0.000000 1.000000 0.000000 -1.000000 0.000000 0.000000 32009.dat
0 STEP
0 STEP
