0 Untitled Model
0 Name:  mini按摩机
0 Author:  
0 CustomBrick
0 NumOfBricks:  32
1 1 100.000000 -24.000000 -70.000000 1.000000 0.000000 0.000000 0.000000 1.000000 0.000000 0.000000 0.000000 1.000000 3703.dat
1 1 100.000000 -24.000000 -10.000000 1.000000 0.000000 0.000000 0.000000 1.000000 0.000000 0.000000 0.000000 1.000000 3703.dat
0 STEP
1 1 -50.000000 -56.000000 -40.000120 0.000000 0.000000 1.000000 0.000000 1.000000 0.000000 -1.000000 0.000000 0.000000 3702.dat
1 1 -40.000000 -32.000000 -40.000000 0.000000 0.000000 1.000000 0.000000 1.000000 0.000000 -1.000000 0.000000 0.000000 32001.dat
0 STEP
1 1 -50.000000 -80.000000 -40.000120 0.000000 0.000000 1.000000 0.000000 1.000000 0.000000 -1.000000 0.000000 0.000000 3894.dat
1 15 -50.000000 -88.000000 -40.000120 0.000000 0.000000 1.000000 0.000000 1.000000 0.000000 -1.000000 0.000000 0.000000 2431.dat
0 STEP
1 1 240.000000 -32.000000 -40.000000 0.000000 0.000000 1.000000 0.000000 1.000000 0.000000 -1.000000 0.000000 0.000000 32001.dat
0 STEP
1 1 240.000000 -56.000000 -10.000000 1.000000 0.000000 0.000000 0.000000 1.000000 0.000000 0.000000 0.000000 1.000000 3700.dat
1 1 240.000000 -56.000000 -70.000000 1.000000 0.000000 0.000000 0.000000 1.000000 0.000000 0.000000 0.000000 1.000000 3700.dat
1 1 240.000000 -64.000000 -40.000000 0.000000 0.000000 1.000000 0.000000 1.000000 0.000000 -1.000000 0.000000 0.000000 3709b.dat
0 STEP
1 14 239.360000 -72.330100 -40.000180 1.000000 0.000000 0.000000 0.000000 0.000000 -1.000000 0.000000 1.000000 0.000000 32123a.dat
1 0 239.360000 -96.180100 -40.000180 0.000000 1.000000 0.000000 1.000000 0.000000 0.000000 0.000000 0.000000 -1.000000 3705.dat
0 STEP
1 14 -145.000000 -46.000000 19.999880 0.000000 0.000000 1.000000 0.000000 1.000000 0.000000 -1.000000 0.000000 0.000000 32123a.dat
1 0 -50.000000 -46.000000 19.999880 -1.000000 0.000000 0.000000 0.000000 1.000000 0.000000 0.000000 0.000000 -1.000000 3708.dat
0 STEP
1 0 -170.256800 -46.000020 19.999880 -0.000001 0.000000 1.000000 0.000000 1.000000 0.000000 -1.000000 0.000000 -0.000001 30391.dat
1 71 -170.000100 -46.000000 20.000000 0.000000 0.000000 1.000000 1.000000 0.000000 0.000000 0.000000 1.000000 0.000000 55982.dat
0 STEP
1 14 -147.460000 -46.000000 -100.000100 0.000000 0.000000 1.000000 0.000000 1.000000 0.000000 -1.000000 0.000000 0.000000 32123a.dat
1 0 -51.930000 -46.000000 -100.000100 -1.000000 0.000000 0.000000 0.000000 1.000000 0.000000 0.000000 0.000000 -1.000000 3708.dat
0 STEP
1 0 -172.454400 -46.000000 -99.998000 -0.000001 0.000000 0.999995 0.000000 1.000000 0.000000 -0.999996 0.000000 -0.000001 30391.dat
1 71 -172.200000 -46.000000 -100.000100 0.000000 0.000000 1.000000 1.000000 0.000000 0.000000 0.000000 1.000000 0.000000 55982.dat
0 STEP
1 19 79.359980 -56.000000 -100.000100 -0.000001 1.000000 -0.000001 1.000000 0.000001 -0.000001 -0.000001 -0.000001 -1.000000 3749.dat
1 4 59.359980 -46.000000 -100.000100 0.000000 0.000001 -1.000000 1.000000 0.000000 0.000000 0.000000 -1.000000 -0.000002 32039.dat
0 STEP
1 19 80.000000 -56.000000 20.000000 -0.000001 1.000000 -0.000001 1.000000 0.000001 -0.000001 -0.000001 -0.000001 -1.000000 3749.dat
1 4 60.000000 -46.000000 20.000000 0.000000 0.000001 -1.000000 1.000000 0.000000 0.000000 0.000000 -1.000000 -0.000002 32039.dat
0 STEP
1 15 160.000000 -66.000080 20.000000 0.000001 0.000001 -1.000000 0.000001 1.000000 0.000001 1.000000 -0.000001 0.000001 40490.dat
1 71 240.000000 -76.000160 19.999880 0.000000 -1.000000 0.000000 1.000000 0.000000 0.000000 0.000000 0.000000 1.000000 3673.dat
0 STEP
1 15 159.360100 -66.000080 -100.000200 0.000001 0.000001 -1.000000 0.000001 1.000000 0.000001 1.000000 -0.000001 0.000001 40490.dat
1 71 239.360100 -76.000160 -100.000200 0.000000 -1.000000 0.000000 1.000000 0.000000 0.000000 0.000000 0.000000 1.000000 3673.dat
0 STEP
1 1 229.360000 -86.000160 -40.000180 0.000000 1.000000 0.000000 0.000000 0.000000 1.000000 1.000000 0.000000 0.000000 3895.dat
0 STEP
1 71 239.360000 -106.000100 -40.000180 1.000000 0.000001 0.000001 -0.000001 1.000000 -0.000001 -0.000001 0.000001 1.000000 33299.dat
0 STEP
1 0 239.360000 -136.656800 -40.000180 -1.000000 0.000000 -0.000001 -0.000001 0.000000 1.000000 0.000000 1.000000 0.000000 30391.dat
1 71 239.360000 -136.400100 -40.000180 0.000000 1.000000 0.000000 0.000000 0.000000 1.000000 1.000000 0.000000 0.000000 55982.dat
0 STEP
0 STEP
