0 FILE 橡皮夹.io
0 Untitled Model
0 Name:  橡皮夹
0 Author:  
0 CustomBrick
0 NumOfBricks:  28
1 15 -89.999820 -10.000110 -70.000070 0.000001 0.000001 -1.000000 0.000001 1.000000 0.000001 1.000003 -0.000001 0.000001 64871.dat
1 71 -169.999800 -20.000020 -70.000070 0.000000 0.000000 -1.000000 1.000000 0.000000 0.000000 0.000000 -1.000003 0.000000 3673.dat
1 0 -209.999800 -19.999980 -70.000010 0.000000 -1.000000 0.000000 -1.000000 0.000000 0.000000 0.000000 0.000000 -1.000003 2780.dat
1 19 -229.999900 -29.999960 -70.000010 0.000000 1.000000 0.000000 -1.000000 0.000000 0.000000 0.000000 0.000000 1.000003 32556.dat
0 STEP
1 15 -289.999900 -30.000020 -70.000070 -0.000001 -0.000001 1.000000 0.000001 1.000000 0.000001 -1.000003 0.000001 -0.000001 40490.dat
0 STEP
1 0 -369.999900 -20.000080 -70.000070 0.000000 0.000000 -1.000000 -1.000000 0.000000 0.000000 0.000000 1.000003 0.000000 2780.dat
1 0 -249.999800 -19.999980 -70.000130 0.000000 0.000000 -1.000000 -1.000000 0.000000 0.000000 0.000000 1.000003 0.000000 2780.dat
0 STEP
1 15 -310.000000 -10.000030 -70.000070 0.000001 0.000001 -1.000000 -0.000001 -1.000000 -0.000001 -1.000003 0.000001 -0.000001 32524.dat
0 STEP
1 16 30.000000 0.000000 -70.000000 1.000000 0.000000 0.000000 0.000000 1.000000 0.000000 0.000000 0.000000 1.000000 submodel group 1
0 STEP
1 71 50.000200 -10.000200 -89.999740 1.000000 0.000000 0.000001 -0.000001 0.000000 1.000000 0.000000 -1.000003 0.000000 3713.dat
1 0 50.000240 -40.000220 -90.000480 0.000000 0.000000 1.000000 1.000002 0.000000 0.000000 0.000000 1.000003 0.000000 3705.dat
0 STEP
1 71 50.000160 -10.000220 -49.999700 0.983571 0.180522 0.000001 -0.000001 0.000000 1.000000 0.180522 -0.983574 0.000000 3713.dat
1 0 50.000190 -40.000220 -50.000260 0.000000 -0.180522 0.983571 1.000001 0.000000 0.000000 0.000000 0.983575 0.180522 3705.dat
0 STEP
1 71 50.000220 -50.000240 -50.000310 -0.180522 -0.983571 0.000000 0.000001 0.000000 -1.000000 0.983574 -0.180522 0.000001 94925.dat
1 71 50.000240 -50.000260 -90.000480 0.000000 -1.000000 0.000000 0.000001 0.000000 -1.000000 1.000003 0.000000 0.000001 94925.dat
0 STEP
1 1 -223.322300 -30.000020 -129.638300 -0.745477 0.000000 0.666531 0.000000 -1.000000 0.000000 0.666532 0.000000 0.745478 6629.dat
1 19 -223.468800 -39.999980 -129.877700 -0.000001 0.745480 -0.666528 1.000000 0.000000 -0.000001 -0.000001 -0.666529 -0.745481 3749.dat
0 STEP
1 15 -86.734260 -50.000120 -159.938900 0.214723 0.000001 -0.976675 0.000001 1.000000 0.000001 0.976678 -0.000001 0.214724 64871.dat
1 71 50.000290 -60.000260 -190.000900 0.000000 0.000000 -1.000000 1.000000 0.000000 0.000000 0.000000 -1.000003 0.000000 3673.dat
0 STEP
1 1 21.116780 -70.000240 107.371400 0.983571 0.000000 -0.180521 0.000000 1.000000 0.000000 0.180522 0.000000 0.983574 32009.dat
1 1 50.000320 -70.000260 -250.001100 1.000000 0.000000 0.000000 0.000000 -1.000000 0.000000 0.000000 0.000000 -1.000003 32009.dat
0 STEP
1 0 -183.330400 -40.000010 -84.909410 0.000000 -1.000000 0.000000 -1.000000 0.000000 0.000000 0.000000 0.000000 -1.000003 2780.dat
0 STEP
1 15 -181.000000 -50.000020 -85.000000 -1.000000 0.000000 0.000000 0.000000 0.000000 -1.000000 0.000000 -1.000000 0.000000 xpj106.dat
0 STEP
0 STEP
0 NOFILE
0 FILE SubModel Group 1
0 SubModel Group 1
0 Name:  SubModel Group 1
0 Author:  
0 CustomBrick
0 NumOfBricks:  6
1 1 10.000200 -30.000230 -0.000310 0.000000 1.000000 0.000000 0.000000 0.000000 1.000000 1.000003 0.000000 0.000000 3701.dat
1 0 20.000220 -20.000230 -0.000310 0.000000 0.000000 1.000000 1.000000 0.000000 0.000000 0.000000 1.000003 0.000000 2780.dat
0 STEP
1 1 2.000210 -30.000230 -0.000310 0.000000 1.000000 0.000000 0.000000 0.000000 -1.000000 -1.000003 0.000000 0.000000 3710.dat
1 1 -5.999780 -30.000230 -0.000310 0.000000 1.000000 0.000000 0.000000 0.000000 -1.000000 -1.000003 0.000000 0.000000 3710.dat
0 STEP
1 1 -29.999790 -30.000230 -0.000230 0.000000 1.000000 0.000000 0.000000 0.000000 1.000000 1.000000 0.000000 0.000000 3701.dat
1 0 -19.999800 -20.000190 -0.000190 0.000000 0.000000 1.000000 1.000000 0.000000 0.000000 0.000000 1.000003 0.000000 2780.dat
0 STEP
0 NOFILE
