0 Untitled Model
0 Name:  压印机
0 Author:  
0 CustomBrick
0 NumOfBricks:  17
1 1 -23.999250 -120.000100 -19.999980 0.000000 1.000000 0.000000 -1.000000 0.000000 0.000000 0.000000 0.000000 1.000000 3895.dat
1 1 -24.000020 -120.000100 -39.999970 0.000000 1.000000 0.000000 -1.000000 0.000000 0.000000 0.000000 0.000000 1.000000 3895.dat
0 STEP
1 0 -13.999990 -220.000100 12.870060 0.000000 -0.637424 0.770513 0.000000 0.770513 0.637424 -1.000000 0.000000 0.000000 3707.dat
0 STEP
1 71 -14.000020 -220.000100 -57.129910 0.770513 -0.637424 0.000001 0.637424 0.770513 0.000000 0.000000 0.000000 1.000000 3713.dat
0 STEP
1 71 -14.000050 -220.000100 0.470040 0.770513 -0.637423 0.000000 0.637424 0.770513 0.000000 0.000000 0.000000 1.000000 3649.dat
1 71 -14.000020 -220.000100 20.810010 0.770514 -0.637424 0.000000 0.637424 0.770514 0.000000 0.000000 0.000000 1.000000 3649.dat
0 STEP
1 0 -14.000050 -140.000000 9.999949 0.000000 0.000000 1.000000 0.000000 1.000000 0.000000 -1.000000 0.000000 0.000000 3706.dat
0 STEP
1 72 -14.000870 -140.000000 0.238350 0.000000 -1.000003 0.000000 1.000000 0.000000 0.000000 0.000000 0.000000 1.000003 3648b.dat
1 72 -14.000870 -140.000100 19.568370 0.000000 -1.000003 0.000000 1.000000 0.000000 0.000000 0.000000 0.000000 1.000003 3648b.dat
0 STEP
1 1 -24.000810 -120.000100 40.000010 0.000000 1.000002 0.000000 -1.000002 0.000000 0.000000 0.000000 0.000000 1.000000 3895.dat
1 1 -23.999960 -120.000100 60.000000 0.000000 1.000002 0.000000 -1.000002 0.000000 0.000000 0.000000 0.000000 1.000000 3895.dat
0 STEP
1 1 0.000000 -10.000020 10.000010 0.000000 1.000000 0.000000 0.000000 0.000000 1.000000 1.000000 0.000000 0.000000 3702.dat
1 1 0.000000 -30.000020 10.000010 0.000000 1.000000 0.000000 0.000000 0.000000 1.000000 1.000000 0.000000 0.000000 3702.dat
0 STEP
1 1 -48.000020 -10.000030 10.000010 0.000000 1.000000 0.000000 0.000000 0.000000 1.000000 1.000000 0.000000 0.000000 3702.dat
1 1 -48.000020 -30.000020 10.000070 0.000000 1.000000 0.000000 0.000000 0.000000 1.000000 1.000000 0.000000 0.000000 3702.dat
0 STEP
1 71 -14.000020 -220.000100 79.790120 -0.770514 0.000000 -0.637424 -0.637424 0.000001 0.770514 0.000000 1.000000 -0.000001 33299.dat
1 4 -39.497000 -189.179500 109.790100 0.000000 0.000000 1.000000 0.000000 1.000000 0.000000 -1.000000 0.000000 0.000000 62462.dat
0 STEP
0 STEP
