0 FILE 跳舞的猫头鹰.io
0 Untitled Model
0 Name:  跳舞的猫头鹰
0 Author:  
0 CustomBrick
0 NumOfBricks:  75
1 1 19.999800 -24.000000 49.997620 1.000000 0.000000 0.000000 0.000000 1.000000 0.000000 0.000000 0.000000 1.000000 3894.dat
1 1 19.999710 -24.000000 69.997740 1.000000 0.000000 0.000000 0.000000 1.000000 0.000000 0.000000 0.000000 1.000000 3894.dat
1 1 19.999960 -31.999990 59.997740 0.000001 0.000000 1.000004 0.000000 1.000000 0.000000 -1.000004 0.000000 0.000001 32001.dat
0 STEP
1 1 -20.000260 -31.999990 59.997680 0.000001 0.000000 1.000004 0.000000 1.000000 0.000000 -1.000004 0.000000 0.000001 32001.dat
1 1 60.000020 -31.999990 60.000000 0.000000 0.000000 1.000000 0.000000 1.000000 0.000000 -1.000000 0.000000 0.000000 32001.dat
0 STEP
1 1 20.000000 -24.000000 110.000000 1.000000 0.000000 0.000000 0.000000 1.000000 0.000000 0.000000 0.000000 1.000000 3702.dat
1 1 20.000060 -24.000000 10.000000 1.000000 0.000000 0.000000 0.000000 1.000000 0.000000 0.000000 0.000000 1.000000 3702.dat
0 STEP
1 15 20.000000 -55.999980 19.997800 1.000005 0.000000 0.000000 0.000000 1.000000 0.000000 0.000000 0.000000 1.000005 3001.dat
1 15 19.999970 -55.999980 99.997730 1.000005 0.000000 0.000000 0.000000 1.000000 0.000000 0.000000 0.000000 1.000005 3001.dat
0 STEP
1 15 20.000000 -85.799320 2.000000 1.000000 0.000000 0.000000 0.000000 1.000000 0.000000 0.000000 0.000000 1.000000 dx0056.dat.dat
0 STEP
1 15 20.000020 -65.999980 -10.002560 0.000001 0.000001 -1.000005 -1.000000 0.000001 -0.000001 0.000001 1.000005 0.000001 64871.dat
1 1 20.000000 -66.000000 -10.002560 0.000000 0.000000 1.000005 0.000000 1.000000 0.000000 -1.000005 0.000000 0.000000 6558.dat
0 STEP
1 0 -0.000090 -66.000000 -20.002500 0.000000 0.000000 -1.000005 0.000000 1.000000 0.000000 1.000005 0.000000 0.000000 2780.dat
1 0 40.000050 -65.999960 -20.002500 0.000000 0.000000 -1.000005 0.000000 1.000000 0.000000 1.000005 0.000000 0.000000 2780.dat
0 STEP
1 1 -0.000110 -85.999980 -10.002560 0.000001 0.000000 1.000005 0.000000 1.000000 0.000000 -1.000005 0.000000 0.000001 6558.dat
1 1 40.000020 -85.999980 -10.002380 0.000000 0.000000 1.000005 0.000000 1.000000 0.000000 -1.000005 0.000000 0.000000 6558.dat
1 0 20.000090 -85.999930 -18.652280 0.000000 0.000000 1.000005 0.000000 1.000000 0.000000 -1.000005 0.000000 0.000000 3705.dat
0 STEP
1 15 20.000020 -85.999970 -10.002560 0.000001 0.000001 -1.000005 -1.000000 0.000001 -0.000001 0.000001 1.000005 0.000001 32316.dat
0 STEP
1 0 -20.000150 -85.999980 -20.002380 0.000000 0.000000 -1.000005 0.000000 1.000000 0.000000 1.000005 0.000000 0.000000 2780.dat
1 0 60.000180 -85.999930 -20.002440 0.000000 1.000005 0.000000 0.000000 0.000000 1.000000 1.000005 0.000000 0.000000 2780.dat
0 STEP
1 1 -60.000520 -85.999950 -30.002440 0.000001 0.000000 1.000005 1.000000 -0.000001 -0.000001 0.000001 1.000005 -0.000001 32140.dat
0 STEP
1 71 -40.000280 -85.999950 -10.412420 -0.998032 0.062792 -0.000001 0.062792 0.998027 0.000000 0.000001 0.000000 -1.000005 3713.dat
1 71 -40.000280 -85.999940 -30.412480 0.000000 -0.998032 0.062792 0.000000 0.062792 0.998027 -1.000005 0.000000 0.000000 4519.dat
0 STEP
1 1 100.000400 -85.999900 -30.002560 -0.000001 -0.000001 -1.000005 1.000000 -0.000001 -0.000001 -0.000001 -1.000005 0.000001 32140.dat
0 STEP
1 71 80.000140 -85.999940 -10.212650 -0.996350 0.085420 -0.000001 0.085420 0.996345 0.000000 0.000001 0.000000 -1.000005 3713.dat
1 71 80.000110 -85.999940 -30.212650 0.000000 -0.996350 0.085420 0.000000 0.085420 0.996345 -1.000005 0.000000 0.000000 4519.dat
0 STEP
1 1 20.000000 -106.000000 -10.002560 0.000000 0.000000 1.000005 0.000000 1.000000 0.000000 -1.000005 0.000000 0.000000 6558.dat
0 STEP
1 15 19.999920 -206.000000 -30.002440 -1.000005 0.000001 -0.000001 0.000001 0.000001 -1.000000 -0.000001 -1.000005 -0.000001 64871.dat
0 STEP
1 72 20.000090 -85.999930 -50.372260 0.000000 1.000005 0.000000 -1.000000 0.000000 0.000000 0.000000 0.000000 1.000005 3647.dat
0 STEP
1 0 19.999960 -186.000000 -20.002500 0.000000 0.000000 -1.000005 0.000000 1.000000 0.000000 1.000005 0.000000 0.000000 2780.dat
1 0 19.999980 -146.000000 -20.002380 0.000000 0.000000 -1.000005 0.000000 1.000000 0.000000 1.000005 0.000000 0.000000 2780.dat
0 STEP
1 72 19.999940 -186.000000 -5.002320 1.000005 0.000000 0.000000 0.000000 0.000000 1.000000 0.000000 -1.000005 0.000000 99773.dat
1 72 19.999940 -186.000000 -15.002320 1.000005 0.000000 0.000000 0.000000 0.000000 1.000000 0.000000 -1.000005 0.000000 99773.dat
0 STEP
1 0 -0.000170 -186.000000 -20.002500 0.000000 1.000005 0.000000 0.000000 0.000000 1.000000 1.000005 0.000000 0.000000 2780.dat
1 19 -20.000240 -185.999900 -20.002500 0.000000 -1.000005 0.000000 -0.000002 0.000000 -1.000000 1.000005 0.000000 -0.000002 3749.dat
0 STEP
1 0 39.999980 -186.000000 -20.002500 0.000000 0.000000 -1.000005 0.000000 1.000000 0.000000 1.000005 0.000000 0.000000 2780.dat
1 19 60.000110 -186.000000 -20.002440 -0.000001 1.000005 -0.000001 0.000001 0.000001 1.000000 1.000005 0.000001 -0.000001 3749.dat
0 STEP
1 15 -20.000210 -186.000000 -30.002440 0.000001 0.000001 -1.000005 -1.000000 0.000001 -0.000001 0.000001 1.000005 0.000001 32523.dat
1 15 60.000110 -185.999900 -30.002440 0.000001 0.000001 -1.000005 -1.000000 0.000001 -0.000001 0.000001 1.000005 0.000001 32523.dat
0 STEP
1 19 -40.000300 -186.000000 -40.002440 0.000001 -1.000006 0.000001 0.000001 0.000001 1.000002 -1.000005 -0.000001 0.000001 3749.dat
1 19 80.000140 -185.999900 -40.002690 0.000001 -1.000007 0.000001 0.000001 0.000001 1.000002 -1.000005 -0.000001 0.000001 3749.dat
0 STEP
1 71 80.000110 -85.999940 -50.212460 -0.996350 0.085420 -0.000001 0.085420 0.996345 0.000000 0.000001 0.000000 -1.000005 3649.dat
1 71 -40.000280 -85.999940 -50.412300 0.998032 -0.062792 0.000000 -0.062792 -0.998027 0.000000 0.000000 0.000000 -1.000005 3649.dat
0 STEP
1 16 20.000000 -96.000000 -70.000000 0.998027 0.062791 -0.000001 -0.062791 0.998027 0.000000 0.000001 0.000000 1.000000 submodel group 1
0 STEP
1 1 80.000290 -245.849900 -70.002490 0.000001 0.000001 1.000005 0.000001 1.000000 -0.000001 -1.000005 0.000001 0.000001 32140.dat
1 1 -40.000000 -245.540000 -70.003120 -0.000001 -0.000001 -1.000005 -0.000001 -1.000000 0.000001 -1.000005 0.000001 0.000001 32140.dat
0 STEP
1 72 -19.999910 -260.860000 -70.003230 0.000000 -1.000005 0.000000 0.000000 0.000000 1.000000 -1.000005 0.000000 0.000000 6575.dat
1 72 60.000290 -261.099900 -70.002490 0.000000 1.000005 0.000000 0.000000 0.000000 1.000000 1.000005 0.000000 0.000000 6575.dat
0 STEP
1 14 80.000290 -271.849900 -70.002490 1.000005 0.000000 0.000000 0.000000 0.000000 -1.000000 0.000000 1.000005 0.000000 32123a.dat
1 14 -40.000000 -270.720000 -70.003120 1.000005 0.000000 0.000000 0.000000 0.000000 -1.000000 0.000000 1.000005 0.000000 32123a.dat
0 STEP
1 0 19.999790 -346.000000 -40.002690 0.000000 0.000000 -1.000005 0.000000 1.000000 0.000000 1.000005 0.000000 0.000000 2780.dat
0 STEP
1 1 19.999790 -356.000000 -50.002500 1.000005 0.000000 0.000000 0.000000 1.000000 0.000000 0.000000 0.000000 1.000005 3701.dat
0 STEP
1 1 19.999790 -324.000000 -50.002500 1.000005 0.000000 0.000000 0.000000 1.000000 0.000000 0.000000 0.000000 1.000005 3710.dat
1 1 19.999790 -332.000000 -50.002500 1.000005 0.000000 0.000000 0.000000 1.000000 0.000000 0.000000 0.000000 1.000005 3710.dat
0 STEP
1 1 19.999790 -316.000000 -50.002500 1.000005 0.000000 0.000000 0.000000 1.000000 0.000000 0.000000 0.000000 1.000005 3700.dat
0 STEP
1 4 19.999820 -306.000000 -50.002500 -0.000001 1.000005 -0.000001 0.000001 0.000001 1.000000 1.000005 0.000001 -0.000001 32054.dat
0 STEP
1 4 19.999830 -306.000100 -80.002870 0.000000 0.000000 -1.000005 0.000000 1.000000 0.000000 1.000005 0.000000 0.000000 32062.dat
0 STEP
1 19 39.999860 -345.999900 -60.002620 0.000001 -1.000005 0.000001 0.000001 0.000001 1.000000 -1.000005 -0.000001 0.000001 3749.dat
1 19 -0.000290 -345.999900 -60.002620 0.000001 -1.000005 0.000001 0.000001 0.000001 1.000000 -1.000005 -0.000001 0.000001 3749.dat
0 STEP
1 19 39.999860 -345.999900 -62.932680 -1.000005 0.000000 -0.000001 0.000000 1.000000 0.000000 0.000001 0.000000 -1.000005 6589.dat
1 19 -0.000270 -345.999900 -63.062680 -1.000005 0.000000 -0.000001 0.000000 1.000000 0.000000 0.000001 0.000000 -1.000005 6589.dat
0 STEP
1 1 -20.000400 -364.000000 -50.002500 1.000005 0.000000 0.000000 0.000000 1.000000 0.000000 0.000000 0.000000 1.000005 3710.dat
1 1 59.999920 -364.000000 -50.002620 1.000005 0.000000 0.000000 0.000000 1.000000 0.000000 0.000000 0.000000 1.000005 3710.dat
0 STEP
1 15 -20.000400 -372.000000 -50.002500 -1.000005 0.000000 0.000000 0.000000 1.000000 0.000000 0.000000 0.000000 -1.000005 2431.dat
1 15 59.999920 -372.000000 -50.002620 -1.000005 0.000000 0.000000 0.000000 1.000000 0.000000 0.000000 0.000000 -1.000005 2431.dat
0 STEP
1 16 -180.000000 0.000000 244.000000 0.000000 0.000000 1.000000 0.000000 1.000000 0.000000 -1.000000 0.000000 0.000000 submodel group 9 copy copy copy
0 STEP
0 STEP
0 NOFILE
0 FILE SubModel Group 1
0 SubModel Group 1
0 Name:  SubModel Group 1
0 Author:  
0 CustomBrick
0 NumOfBricks:  8
1 19 -60.509770 -13.787210 9.167610 0.000000 1.000005 0.000000 0.000001 0.000001 1.000000 1.000005 0.000000 -0.000001 3749.dat
1 0 -60.509780 -13.787210 -0.832640 0.000001 -0.995233 -0.097582 -0.000003 -0.097582 0.995228 -1.000005 0.000000 -0.000003 32013.dat
1 19 58.800000 -6.247080 9.787350 0.000000 0.999748 0.022689 0.000001 -0.022688 0.999743 1.000005 0.000000 -0.000001 3749.dat
1 0 58.800000 -6.247080 -0.213140 0.000000 -0.995232 -0.097582 -0.000003 -0.097582 0.995227 -1.000005 0.000000 -0.000003 32013.dat
0 STEP
1 0 -53.626340 -103.190900 -0.003170 0.062791 -0.000001 0.998032 -0.998027 0.000000 0.062791 0.000000 -1.000005 -0.000001 3707.dat
1 0 66.214380 -96.883380 -0.002450 0.062791 -0.000001 0.998032 -0.998027 0.000000 0.062791 0.000000 -1.000005 -0.000001 3707.dat
0 STEP
1 0 -54.230600 -93.589890 -0.003300 0.062793 -0.998031 -0.000003 -0.998026 -0.062794 -0.000002 0.000002 0.000003 -1.000005 32013.dat
1 0 65.532880 -86.054870 -0.002700 0.062793 -0.998031 -0.000003 -0.998026 -0.062794 -0.000002 0.000002 0.000003 -1.000005 32013.dat
0 STEP
0 NOFILE
0 FILE SubModel Group 9 Copy Copy Copy
0 SubModel Group 9 Copy Copy Copy
0 Name:  SubModel Group 9 Copy Copy Copy
0 Author:  
0 CustomBrick
0 NumOfBricks:  3
1 72 10.000000 -1.128810 -10.000000 1.000000 0.000000 0.000000 0.000000 0.000000 -1.000000 0.000000 1.000000 0.000000 dch003.dat
1 71 -27.466620 -79.717990 29.427020 1.000000 0.000000 0.000000 0.000000 0.000000 -1.000000 0.000000 1.000000 0.000000 dch004.dat
1 25 7.837010 13.484720 -9.965000 1.000000 0.000000 0.000000 0.000000 0.000000 -1.000000 0.000000 1.000000 0.000000 dch005.dat
0 NOFILE
