0 FILE 吊机_Copy.io
0 Untitled Model
0 Name:  吊机_Copy
0 Author:  
0 CustomBrick
0 NumOfBricks:  176
1 0 -40.260870 -14.000130 230.005600 -1.000003 0.000000 0.000000 0.000000 1.000000 0.000000 0.000000 0.000000 -1.000003 2780.dat
1 0 -40.260870 -14.000140 350.006000 -1.000003 0.000000 0.000000 0.000000 1.000000 0.000000 0.000000 0.000000 -1.000003 2780.dat
1 1 -30.260850 -24.000120 290.005900 0.000000 0.000000 -1.000003 0.000000 1.000000 0.000000 1.000003 0.000000 0.000000 3895.dat
0 STEP
1 1 -50.260890 -24.000120 290.005900 0.000000 0.000000 -1.000003 0.000000 1.000000 0.000000 1.000003 0.000000 0.000000 3702.dat
0 STEP
1 1 -40.260870 -32.000130 290.005900 0.000000 0.000000 -1.000003 0.000000 1.000000 0.000000 1.000003 0.000000 0.000000 32001.dat
0 STEP
1 15 -10.261230 -153.999900 330.005900 0.000001 1.000003 0.000001 -0.000001 -0.000001 0.999999 1.000002 -0.000001 0.000001 64871.dat
1 15 -10.260920 -154.000200 250.005700 0.000001 1.000003 0.000001 -0.000001 -0.000001 1.000000 1.000003 -0.000001 0.000001 64871.dat
0 STEP
1 4 -10.260740 -13.999930 330.005900 -1.000003 -0.000001 0.000001 0.000001 -1.000000 0.000001 0.000001 0.000001 1.000003 32054.dat
1 4 -10.260740 -14.000160 250.005800 -1.000003 -0.000001 0.000001 0.000001 -1.000000 0.000001 0.000001 0.000001 1.000003 32054.dat
1 0 -0.261140 -273.999800 330.005700 -1.000003 0.000000 0.000000 0.000000 0.000000 0.999999 0.000000 1.000002 0.000000 2780.dat
1 1 9.738810 -293.999400 330.005700 1.000003 0.000000 0.000000 0.000000 0.000000 -0.999999 0.000000 1.000002 0.000000 32556.dat
1 0 -0.261020 -273.999800 250.005600 -1.000003 0.000000 0.000000 0.000000 0.000000 1.000005 0.000000 1.000008 0.000000 2780.dat
1 1 9.738680 -293.999700 250.005600 1.000003 0.000000 0.000000 0.000000 0.000000 -1.000005 0.000000 1.000008 0.000000 32556.dat
0 STEP
1 15 9.731910 -414.000300 330.005400 0.000001 1.000001 0.000001 -0.000001 -0.000001 0.999998 1.000001 -0.000001 0.000001 64871.dat
1 15 9.731299 -413.999900 250.005200 0.000001 1.000001 0.000001 -0.000001 -0.000001 0.999999 1.000002 -0.000001 0.000001 64871.dat
0 STEP
1 0 19.738610 -513.999300 330.005400 -1.000003 0.000000 0.000000 0.000000 0.000000 0.999999 0.000000 1.000002 0.000000 2780.dat
1 0 19.738300 -514.000500 250.005300 -1.000003 0.000000 0.000000 0.000000 0.000000 1.000005 0.000000 1.000008 0.000000 2780.dat
0 STEP
1 16 50.000000 -504.000000 290.000000 1.000000 0.000000 0.000000 0.000000 1.000000 0.000000 0.000000 0.000000 1.000000 submodel group 11
0 STEP
1 0 39.739360 -13.999870 330.005900 1.000003 0.000000 0.000000 0.000000 0.000000 -1.000000 0.000000 1.000003 0.000000 3705.dat
1 0 40.809300 -14.000260 250.005700 1.000003 0.000000 0.000000 0.000000 0.000000 -1.000000 0.000000 1.000003 0.000000 3705.dat
0 STEP
1 4 89.739690 -13.999990 330.005900 1.000003 0.000001 -0.000001 0.000001 -0.999999 0.000001 -0.000001 -0.000001 -1.000002 32054.dat
1 4 90.809290 -14.000220 250.005800 1.000003 0.000001 -0.000001 0.000001 -1.000003 0.000001 -0.000001 -0.000001 -1.000006 32054.dat
0 STEP
1 16 40.000000 -276.000000 290.000000 1.000000 0.000000 0.000000 0.000000 1.000000 0.000000 0.000000 0.000000 1.000000 submodel group 10
0 STEP
1 1 69.739170 -293.999500 250.005500 1.000003 0.000000 0.000000 0.000000 0.000000 -1.000000 0.000000 1.000003 0.000000 32556.dat
1 1 69.738070 -294.000500 330.005300 1.000003 0.000000 0.000000 0.000000 0.000000 -1.000000 0.000000 1.000003 0.000000 32556.dat
0 STEP
1 15 69.739290 -413.999400 250.005600 -0.000001 -1.000003 -0.000001 -0.000001 -0.000001 1.000000 -1.000003 0.000001 -0.000001 64871.dat
1 15 69.738220 -414.000500 330.005500 -0.000001 -1.000003 -0.000001 -0.000001 -0.000001 1.000000 -1.000003 0.000001 -0.000001 64871.dat
0 STEP
1 0 79.754780 -273.999200 250.004700 -1.000017 0.000000 0.000000 0.000000 0.000000 1.000001 0.000000 1.000003 0.000000 2780.dat
1 0 79.738080 -274.000700 330.005300 -1.000003 0.000000 0.000000 0.000000 0.000000 1.000000 0.000000 1.000003 0.000000 2780.dat
0 STEP
1 15 89.739070 -153.999600 250.005300 -0.000001 -1.000003 -0.000001 -0.000001 -0.000001 1.000000 -1.000003 0.000001 -0.000001 64871.dat
1 15 89.737990 -154.000700 330.005200 -0.000001 -1.000003 -0.000001 -0.000001 -0.000001 1.000000 -1.000003 0.000001 -0.000001 64871.dat
0 STEP
1 16 120.000000 0.000000 290.000000 1.000000 0.000000 0.000000 0.000000 1.000000 0.000000 0.000000 0.000000 1.000000 submodel group 9
0 STEP
1 19 79.738080 -434.000500 330.005400 1.000003 0.000001 0.000000 0.000001 -0.601816 -0.798635 -0.000001 0.798639 -0.601817 3749.dat
1 19 79.739160 -373.999400 250.005600 1.000003 0.000001 -0.000001 -0.000001 -0.601818 -0.798638 -0.000001 0.798641 -0.601819 3749.dat
1 19 99.739130 -173.999600 250.005600 1.000003 0.000001 -0.000001 0.000000 0.798637 0.601813 0.000001 -0.601813 0.798637 3749.dat
1 19 99.122860 -113.998500 330.005900 1.000003 -0.000001 -0.000002 0.000002 0.798635 0.601816 0.000001 -0.601817 0.798639 3749.dat
0 STEP
1 4 89.739070 -392.053800 273.964600 0.000000 0.000000 -1.000003 0.601817 -0.798638 0.000001 -0.798642 -0.601818 0.000000 32062.dat
1 4 89.743980 -415.946100 306.046500 0.000000 0.000001 -1.000003 0.601815 -0.798636 -0.000001 -0.798640 -0.601817 -0.000001 32062.dat
1 4 89.739150 -386.035700 265.978200 -1.000003 0.000000 -0.000001 0.000001 -0.798638 -0.601817 0.000000 -0.601819 0.798642 32039.dat
1 71 89.739070 -404.087700 289.939100 -1.000003 0.000001 0.000000 0.000000 -0.798636 -0.601815 -0.000001 -0.601816 0.798640 59443.dat
1 4 89.743980 -421.964200 314.032800 1.000003 0.000001 0.000000 0.000001 -0.798634 0.601812 0.000001 -0.601814 -0.798637 32039.dat
1 16 110.000000 -96.000000 290.000000 1.000000 0.000000 0.000000 0.000000 0.798635 0.601816 0.000000 -0.601816 0.798635 submodel group 8
0 STEP
1 19 -20.260820 -114.000200 250.005800 -1.000003 -0.000001 0.000001 0.000000 -0.798634 -0.601812 0.000001 -0.601815 0.798640 3749.dat
1 19 -19.644670 -174.001400 330.006200 -1.000003 0.000001 0.000002 -0.000001 -0.798631 -0.601815 0.000001 -0.601819 0.798641 3749.dat
1 19 -0.268770 -433.999800 250.005100 -1.000003 -0.000001 0.000000 0.000001 -0.601816 -0.798634 0.000001 -0.798640 0.601820 3749.dat
1 19 -0.269870 -373.998800 330.005000 -1.000003 -0.000001 0.000001 -0.000001 -0.601818 -0.798637 0.000001 -0.798642 0.601822 3749.dat
0 STEP
1 4 -10.269890 -392.053200 306.045800 0.000000 0.000000 -1.000028 0.601810 0.798639 0.000000 0.798649 -0.601816 0.000000 32062.dat
1 4 -10.274900 -415.945600 273.963800 0.000000 0.000000 -1.000028 0.601811 0.798639 0.000000 0.798649 -0.601816 0.000000 32062.dat
1 4 -10.269890 -386.035100 314.032300 1.000003 0.000000 0.000001 0.000001 -0.798637 -0.601817 0.000001 0.601822 -0.798642 32039.dat
1 71 -10.274900 -403.906700 289.935000 1.000028 -0.000001 0.000000 0.000000 -0.798632 -0.601819 0.000001 0.601825 -0.798642 59443.dat
1 4 -10.274900 -421.963700 265.977700 -1.000003 -0.000001 0.000000 0.000001 -0.798633 0.601812 -0.000001 0.601817 0.798639 32039.dat
1 16 -30.000000 -96.000000 290.000000 1.000000 0.000001 0.000000 -0.000001 0.798636 -0.601814 0.000000 0.601814 0.798636 submodel group 7
0 STEP
1 16 40.000000 -216.000000 100.000000 1.000000 0.000000 0.000000 0.000000 1.000000 0.000000 0.000000 0.000000 1.000000 submodel group 2
0 STEP
1 16 30.000000 -96.000000 -220.000000 1.000000 0.000000 0.000000 0.000000 1.000000 0.000000 0.000000 0.000000 1.000000 submodel group 6
0 STEP
1 4 -10.099120 -554.000500 250.005000 1.000003 0.000001 -0.000001 -0.000001 -0.000001 -1.000000 -0.000001 1.000003 -0.000001 32054.dat
1 4 -10.099180 -554.000400 330.005900 1.000003 0.000001 -0.000001 -0.000001 -0.000001 -1.000000 -0.000001 1.000003 -0.000001 32054.dat
1 4 89.738040 -554.000500 250.005000 -1.000003 -0.000001 0.000001 0.000001 0.000001 1.000000 -0.000001 1.000003 -0.000001 32054.dat
1 4 89.737990 -554.000500 330.005800 -1.000003 -0.000001 0.000001 0.000001 0.000001 1.000000 -0.000001 1.000003 -0.000001 32054.dat
0 STEP
0 NOFILE
0 FILE SubModel Group 11
0 SubModel Group 11
0 Name:  SubModel Group 11
0 Author:  
0 CustomBrick
0 NumOfBricks:  6
1 15 -20.261600 -10.000490 0.005400 -0.000001 -1.000004 -0.000001 -1.000001 0.000001 -0.000001 0.000001 0.000001 -1.000003 32316.dat
1 0 -10.261620 -10.000490 -19.994690 -1.000004 0.000000 0.000000 0.000000 1.000001 0.000000 0.000000 0.000000 -1.000003 2780.dat
1 0 -10.261620 -10.000490 20.005490 -1.000004 0.000000 0.000000 0.000000 1.000001 0.000000 0.000000 0.000000 -1.000003 2780.dat
0 STEP
1 15 -0.262470 -10.000490 0.005400 -0.000001 -1.000003 -0.000001 -1.000000 0.000001 -0.000001 0.000001 0.000001 -1.000003 32316.dat
0 STEP
1 0 9.738190 -10.000490 -39.994700 -1.000004 0.000000 0.000000 0.000000 1.000001 0.000000 0.000000 0.000000 -1.000003 2780.dat
1 0 9.738190 -10.000490 40.005500 -1.000004 0.000000 0.000000 0.000000 1.000001 0.000000 0.000000 0.000000 -1.000003 2780.dat
0 STEP
0 NOFILE
0 FILE SubModel Group 10
0 SubModel Group 10
0 Name:  SubModel Group 10
0 Author:  
0 CustomBrick
0 NumOfBricks:  4
1 1 -0.261190 -3.999390 0.005620 0.000000 0.000000 -1.000003 0.000000 1.000000 0.000000 1.000003 0.000000 0.000000 3709b.dat
1 1 9.738999 -27.999390 0.005620 0.000000 0.000000 -1.000003 0.000000 1.000000 0.000000 1.000003 0.000000 0.000000 3894.dat
0 STEP
1 1 -10.261170 -27.999390 0.005620 0.000000 0.000000 -1.000003 0.000000 1.000000 0.000000 1.000003 0.000000 0.000000 3894.dat
0 STEP
1 1 -0.261440 -35.999390 0.005400 0.000000 0.000000 -1.000003 0.000000 1.000000 0.000000 1.000003 0.000000 0.000000 3709b.dat
0 STEP
0 NOFILE
0 FILE SubModel Group 9
0 SubModel Group 9
0 Name:  SubModel Group 9
0 Author:  
0 CustomBrick
0 NumOfBricks:  5
1 1 -9.175509 -24.000170 0.006590 0.000000 0.000000 -1.000020 0.000000 1.000000 0.000000 1.000020 0.000000 0.000000 3895.dat
1 0 0.824200 -14.000180 -59.994700 -1.000020 0.000000 0.000000 0.000000 0.000000 1.000000 0.000000 1.000020 0.000000 2780.dat
1 0 0.824200 -14.000180 60.007660 -1.000020 0.000000 0.000000 0.000000 0.000000 1.000000 0.000000 1.000020 0.000000 2780.dat
0 STEP
1 1 10.809400 -24.000170 0.005890 0.000000 0.000000 -1.000003 0.000000 1.000000 0.000000 1.000003 0.000000 0.000000 3702.dat
0 STEP
1 1 0.824200 -32.000180 0.006590 0.000000 0.000000 -1.000020 0.000000 1.000000 0.000000 1.000020 0.000000 0.000000 32001.dat
0 STEP
0 NOFILE
0 FILE SubModel Group 8
0 SubModel Group 8
0 Name:  SubModel Group 8
0 Author:  
0 CustomBrick
0 NumOfBricks:  5
1 4 -0.877190 -38.450320 -8.881660 0.000000 0.000000 1.000003 0.000003 1.000000 0.000000 -1.000003 0.000000 0.000000 32062.dat
1 4 -0.260800 -38.224020 -48.882340 0.000000 0.000000 1.000003 0.000004 1.000000 0.000000 -1.000004 0.000000 0.000000 32062.dat
1 71 -0.877190 -38.447460 -28.881780 1.000003 0.000000 0.000000 0.000000 -1.000001 0.000002 0.000000 0.000001 -1.000003 59443.dat
0 STEP
1 4 -0.877190 -38.450340 1.118260 1.000003 0.000001 0.000001 0.000001 -1.000001 0.000003 0.000001 0.000001 -1.000003 32039.dat
1 4 -0.260800 -38.223940 -58.882320 -1.000003 -0.000001 0.000000 0.000001 -1.000000 -0.000003 0.000001 0.000000 1.000003 32039.dat
0 STEP
0 NOFILE
0 FILE SubModel Group 7
0 SubModel Group 7
0 Name:  SubModel Group 7
0 Author:  
0 CustomBrick
0 NumOfBricks:  5
1 4 0.355200 -38.218410 48.892670 -0.000001 -0.000001 1.000003 -0.000004 1.000001 0.000000 -1.000003 0.000000 -0.000001 32062.dat
1 4 -0.260880 -38.444620 8.892020 0.000000 -0.000001 1.000003 -0.000004 1.000001 0.000001 -1.000003 0.000000 0.000000 32062.dat
1 71 0.355190 -38.221220 28.892570 -1.000028 0.000000 0.000000 -0.000001 1.000004 0.000000 0.000000 0.000010 -1.000008 59443.dat
0 STEP
1 4 0.355200 -38.218340 58.892690 -1.000003 -0.000002 0.000000 -0.000001 0.999999 -0.000003 0.000001 0.000005 -1.000004 32039.dat
1 4 -0.260890 -38.444590 -1.108030 1.000003 0.000000 0.000000 0.000000 0.999999 0.000004 0.000000 0.000005 1.000003 32039.dat
0 STEP
0 NOFILE
0 FILE SubModel Group 2
0 SubModel Group 2
0 Name:  SubModel Group 2
0 Author:  
0 CustomBrick
0 NumOfBricks:  82
1 15 -10.099480 -338.000500 -190.000000 -0.000001 -1.000029 -0.000001 -1.000000 0.000001 -0.000001 0.000001 0.000001 -1.000012 32524.dat
1 0 -0.099020 -338.000500 -210.000500 -1.000029 0.000000 0.000000 0.000000 1.000000 0.000000 0.000000 0.000000 -1.000012 2780.dat
1 0 -0.098870 -338.000400 -169.999600 -1.000029 0.000000 0.000000 0.000000 1.000000 0.000000 0.000000 0.000000 -1.000012 2780.dat
0 STEP
1 15 9.899000 -338.000500 -190.000000 -0.000001 -1.000029 -0.000001 -1.000000 0.000001 -0.000001 0.000001 0.000001 -1.000012 32524.dat
0 STEP
1 0 -20.099860 -338.000400 -129.999100 -1.000029 0.000000 0.000000 0.000000 1.000000 0.000000 0.000000 0.000000 -1.000012 2780.dat
1 0 19.899300 -338.000400 -129.999100 -1.000029 0.000000 0.000000 0.000000 1.000000 0.000000 0.000000 0.000000 -1.000012 2780.dat
1 0 -20.099740 -338.000500 -190.000000 -1.000029 0.000000 0.000000 0.000000 1.000000 0.000000 0.000000 0.000000 -1.000012 2780.dat
1 0 19.899170 -338.000500 -189.999900 -1.000029 0.000000 0.000000 0.000000 1.000000 0.000000 0.000000 0.000000 -1.000012 2780.dat
1 0 -20.099860 -338.000500 -250.001300 -1.000029 0.000000 0.000000 0.000000 1.000000 0.000000 0.000000 0.000000 -1.000012 2780.dat
1 0 19.899170 -338.000500 -250.001300 -1.000029 0.000000 0.000000 0.000000 1.000000 0.000000 0.000000 0.000000 -1.000012 2780.dat
0 STEP
1 1 -30.100460 -348.000500 -89.998530 0.000000 0.000000 -1.000030 0.000000 1.000000 0.000000 1.000013 0.000000 0.000000 3895.dat
0 STEP
1 1 -30.100180 -338.000400 10.002800 -1.000029 0.000000 0.000000 0.000000 -1.000000 0.000000 0.000000 0.000000 1.000012 32556.dat
1 1 -30.100180 -338.000500 -29.997480 -1.000029 0.000000 0.000000 0.000000 -1.000000 0.000000 0.000000 0.000000 1.000012 32556.dat
0 STEP
1 1 -50.099910 -348.000400 110.004400 0.000000 0.000000 -1.000029 0.000000 1.000000 0.000000 1.000012 0.000000 0.000000 3703.dat
0 STEP
1 4 -0.099110 -338.000400 10.002900 1.000029 0.000000 0.000000 0.000000 1.000000 0.000000 0.000000 0.000000 1.000012 62462.dat
1 4 -0.099110 -338.000500 -29.997480 1.000029 0.000000 0.000000 0.000000 1.000000 0.000000 0.000000 0.000000 1.000012 62462.dat
0 STEP
1 1 29.899200 -338.000400 10.002900 1.000029 0.000000 0.000000 0.000000 1.000000 0.000000 0.000000 0.000000 1.000012 32556.dat
1 1 29.899170 -338.000500 -29.997480 1.000029 0.000000 0.000000 0.000000 1.000000 0.000000 0.000000 0.000000 1.000012 32556.dat
0 STEP
1 1 -50.100160 -316.000700 250.006700 0.000000 0.000000 -1.000033 0.000000 1.000000 0.000000 1.000016 0.000000 0.000000 3023.dat
1 1 -50.100160 -324.001000 230.006300 0.000000 0.000000 -1.000033 0.000000 1.000000 0.000000 1.000016 0.000000 0.000000 3710.dat
1 15 -50.101140 -307.998500 250.005100 0.000000 0.000000 -1.000029 0.000000 1.000000 0.000000 1.000012 0.000000 0.000000 32064a.dat
0 STEP
1 15 -50.100280 -372.000500 200.005900 -1.000029 0.000000 0.000000 0.000000 1.000000 0.000000 0.000000 0.000000 -1.000012 3040b.dat
1 15 -50.100520 -372.000500 180.006000 1.000029 0.000000 0.000000 0.000000 1.000000 0.000000 0.000000 0.000000 1.000012 3040b.dat
1 1 -50.100400 -380.000500 190.006100 0.000000 0.000000 -1.000030 0.000000 1.000000 0.000000 1.000013 0.000000 0.000000 3023.dat
0 STEP
1 16 0.000000 -252.000000 260.000000 1.000000 0.000000 0.000000 0.000000 1.000000 0.000000 0.000000 0.000000 1.000000 submodel group 5
0 STEP
1 0 -0.098870 -338.000500 -230.001000 1.000029 0.000000 0.000000 0.000000 1.000000 0.000000 0.000000 0.000000 1.000012 3705.dat
0 STEP
1 1 -30.100490 -338.000500 -390.003100 0.000000 1.000030 0.000000 1.000000 0.000000 0.000000 0.000000 0.000000 -1.000013 32009.dat
0 STEP
1 0 -0.099390 -257.998700 -390.003300 1.000028 0.000000 0.000000 0.000000 1.000000 0.000000 0.000000 0.000000 1.000011 3705.dat
0 STEP
1 14 -14.769920 -257.998700 -390.003300 0.000000 0.000000 -1.000028 1.000000 0.000000 0.000000 0.000000 -1.000011 0.000000 32123a.dat
0 STEP
1 4 0.560650 -277.998800 -390.003300 -1.000028 0.000000 0.000000 0.000000 -1.000000 0.000000 0.000000 0.000000 1.000011 42003.dat
0 STEP
1 14 16.278440 -257.998700 -390.003300 0.000000 0.000001 -1.000028 1.000000 0.000000 0.000000 0.000000 -1.000011 -0.000001 32123a.dat
0 STEP
1 0 -0.098900 -338.000500 -290.001800 1.000028 0.000000 0.000000 0.000000 1.000000 0.000000 0.000000 0.000000 1.000011 3705.dat
1 0 -0.099140 -338.000500 -350.002600 1.000028 0.000000 0.000000 0.000000 1.000000 0.000000 0.000000 0.000000 1.000011 3705.dat
0 STEP
1 71 -0.098900 -338.000500 -290.001800 0.000000 0.000000 -1.000028 -1.000000 0.000000 0.000000 0.000000 1.000011 0.000000 55982.dat
1 71 -0.099050 -338.000500 -350.002600 0.000000 0.000000 -1.000028 -1.000000 0.000000 0.000000 0.000000 1.000011 0.000000 55982.dat
0 STEP
1 71 9.898359 -338.000700 -290.001900 0.000001 0.000000 -1.000028 0.000000 1.000000 0.000000 1.000011 0.000000 0.000001 3713.dat
1 71 9.898479 -338.000500 -350.002700 0.000001 0.000000 -1.000028 0.000000 1.000000 0.000000 1.000011 0.000000 0.000001 3713.dat
0 STEP
1 1 29.899380 -338.000500 -390.003000 0.000000 1.000028 0.000000 1.000000 0.000000 0.000000 0.000000 0.000000 -1.000011 32009.dat
0 STEP
1 1 29.899300 -348.000400 -89.998650 0.000000 0.000000 -1.000028 0.000000 1.000000 0.000000 1.000011 0.000000 0.000000 3895.dat
0 STEP
1 16 0.000000 -96.000000 170.000000 1.000000 0.000000 0.000000 0.000000 1.000000 0.000000 0.000000 0.000000 1.000000 submodel group 4
0 STEP
1 71 -70.265160 -338.000500 190.005800 -0.000001 0.000000 1.000028 0.000002 1.000000 0.000000 -1.000011 0.000002 -0.000001 3713.dat
0 STEP
1 16 50.000000 -288.000000 200.000000 1.000000 0.000000 0.000000 0.000000 1.000000 0.000000 0.000000 0.000000 1.000000 submodel group 3
0 STEP
1 71 64.739300 -338.000500 190.005700 0.000000 0.000000 -1.000028 0.000000 1.000000 0.000000 1.000011 0.000000 0.000000 4185.dat
0 STEP
1 1 -0.259240 -388.000500 190.005700 -1.000028 0.000000 0.000000 0.000000 1.000000 0.000000 0.000000 0.000000 -1.000011 32001.dat
0 STEP
1 15 58.733760 -417.866600 190.003900 0.000000 0.000000 -1.000028 0.000000 1.000000 0.000000 1.000011 0.000000 0.000000 dx0011.dat
0 STEP
1 4 59.737850 -418.000500 190.005600 1.000028 0.000000 0.000000 0.000000 1.000000 0.000000 0.000000 0.000000 1.000011 32062.dat
0 STEP
1 14 65.108300 -418.000500 190.005600 0.000000 0.000000 1.000028 1.000000 0.000000 0.000000 0.000000 1.000011 0.000000 32123a.dat
0 STEP
1 15 65.000000 -335.508500 190.002500 0.000000 0.000000 1.000000 0.000000 1.000000 0.000000 -1.000000 0.000000 0.000000 xpj0022.dat
0 STEP
1 16 -10.097590 7.999880 -300.001500 1.000028 0.000000 0.000000 0.000000 1.000000 0.000000 0.000000 0.000000 1.000011 submodel group 1
0 STEP
0 NOFILE
0 FILE SubModel Group 5
0 SubModel Group 5
0 Name:  SubModel Group 5
0 Author:  
0 CustomBrick
0 NumOfBricks:  9
1 16 -39.318940 -17.409310 27.472860 0.000000 -1.000000 0.000000 0.000000 0.000000 -1.000000 1.000000 0.000000 0.000000 submodel group 2 copy
1 0 -0.098960 -86.000490 -9.993740 1.000037 0.000000 0.000000 0.000000 1.000000 0.000000 0.000000 0.000000 1.000020 3706.dat
1 0 -0.039390 -45.998480 -9.993740 1.000037 0.000000 0.000000 0.000000 1.000000 0.000000 0.000000 0.000000 1.000020 3706.dat
0 STEP
1 14 -35.108520 -86.000490 -9.993740 0.000000 0.000000 -1.000037 1.000000 0.000000 0.000000 0.000000 -1.000020 0.000000 32123a.dat
1 14 -35.048830 -45.998480 -9.993620 0.000000 0.000000 -1.000037 1.000000 0.000000 0.000000 0.000000 -1.000020 0.000000 32123a.dat
1 14 34.898360 -86.000490 -9.993740 0.000000 0.000000 -1.000038 1.000000 0.000000 0.000000 0.000000 -1.000020 0.000000 32123a.dat
1 14 34.958060 -45.998480 -9.993740 0.000000 0.000000 -1.000038 1.000000 0.000000 0.000000 0.000000 -1.000020 0.000000 32123a.dat
0 STEP
0 NOFILE
0 FILE SubModel Group 2 Copy
0 SubModel Group 2 Copy
0 Name:  SubModel Group 2 Copy
0 Author:  
0 CustomBrick
0 NumOfBricks:  3
1 72 10.000000 -39.427000 -20.000000 1.000000 0.000000 0.000000 0.000000 1.000000 0.000000 0.000000 0.000000 1.000000 dch003.dat
1 71 -27.466620 0.000000 58.589180 1.000000 0.000000 0.000000 0.000000 1.000000 0.000000 0.000000 0.000000 1.000000 dch004.dat
1 25 7.837000 -39.392000 -34.613530 1.000000 0.000000 0.000000 0.000000 1.000000 0.000000 0.000000 0.000000 1.000000 dch005.dat
0 NOFILE
0 FILE SubModel Group 4
0 SubModel Group 4
0 Name:  SubModel Group 4
0 Author:  
0 CustomBrick
0 NumOfBricks:  5
1 15 3.861740 -264.080000 -74.478020 0.000000 0.000000 -1.000000 0.000000 1.000000 0.000000 1.000000 0.000000 0.000000 xt0001.dat
1 0 -0.259000 -242.000500 20.005710 1.000028 0.000000 0.000000 0.000000 1.000000 -0.000002 0.000000 0.000002 1.000011 3707.dat
1 72 0.102820 -241.999900 20.007600 1.000027 0.000000 -0.000001 -0.000001 0.707110 -0.707107 0.000000 0.707117 0.707118 32012.dat
0 STEP
1 71 -30.260280 -242.000200 20.005490 -0.000001 0.000000 1.000028 0.000001 0.999999 0.000000 -1.000010 0.000001 -0.000001 3713.dat
1 71 29.499530 -242.000200 20.005710 -0.000001 0.000000 1.000028 0.000001 0.999999 0.000000 -1.000010 0.000001 -0.000001 3713.dat
0 STEP
0 NOFILE
0 FILE SubModel Group 3
0 SubModel Group 3
0 Name:  SubModel Group 3
0 Author:  
0 CustomBrick
0 NumOfBricks:  7
1 1 -0.261650 -28.000670 50.005520 0.000000 0.000000 -1.000030 0.000000 1.000000 0.000000 1.000014 0.000000 0.000000 3023.dat
1 15 -0.261100 -19.998480 50.004480 0.000000 0.000000 -1.000025 0.000000 1.000000 0.000000 1.000008 0.000000 0.000000 32064a.dat
0 STEP
1 1 -0.261410 -36.000980 30.005500 0.000000 0.000000 -1.000031 0.000000 1.000000 0.000000 1.000014 0.000000 0.000000 3710.dat
1 1 -0.261100 -60.000440 -89.995620 0.000000 0.000000 -1.000028 0.000000 1.000000 0.000000 1.000011 0.000000 0.000000 3703.dat
0 STEP
1 15 -0.261410 -84.000490 -19.994510 1.000028 0.000000 0.000000 0.000000 1.000000 0.000000 0.000000 0.000000 1.000011 3040b.dat
1 15 -0.246770 -84.000490 0.005310 -1.000028 0.000000 0.000000 0.000000 1.000000 0.000000 0.000000 0.000000 -1.000011 3040b.dat
1 1 -0.261220 -92.000490 -9.994380 0.000000 0.000000 -1.000028 0.000000 1.000000 0.000000 1.000011 0.000000 0.000000 3023.dat
0 STEP
0 NOFILE
0 FILE SubModel Group 1
0 SubModel Group 1
0 Name:  SubModel Group 1
0 Author:  
0 CustomBrick
0 NumOfBricks:  16
1 1 -0.158390 -174.048700 14.004420 0.999973 0.000000 0.000000 0.000000 0.000000 -0.999998 0.000000 0.999992 0.000000 3710.dat
1 1 -0.158390 -174.048500 -9.995390 0.999973 0.000000 0.000000 0.000000 0.000000 -0.999995 0.000000 0.999989 0.000000 3700.dat
0 STEP
1 1 -30.157350 -124.049300 -9.995180 0.000000 0.000000 -0.999975 -1.000000 0.000000 0.000000 0.000000 0.999992 0.000000 3894.dat
0 STEP
1 0 -0.157410 -124.049200 0.004820 -0.999975 0.000000 0.000000 0.000000 0.000000 1.000000 0.000000 0.999995 0.000000 3705.dat
0 STEP
1 71 -0.157410 -124.049200 0.004820 0.000000 0.000000 -0.999975 0.000000 -1.000000 0.000000 -0.999992 0.000000 0.000000 55982.dat
0 STEP
1 71 9.842350 -124.049200 0.004820 0.000001 0.000000 -0.999975 -1.000000 0.000000 -0.000001 0.000000 0.999992 0.000000 3713.dat
0 STEP
1 1 29.832820 -124.049200 -9.994450 0.000000 0.000000 -0.999975 -1.000000 0.000000 0.000000 0.000000 0.999992 0.000000 3894.dat
0 STEP
1 1 -0.157410 -74.049440 14.004670 0.999975 0.000000 0.000000 0.000000 0.000000 -1.000000 0.000000 0.999992 0.000000 3710.dat
1 15 -0.157650 -74.049500 -9.995150 1.000000 0.000000 0.000000 0.000000 0.000000 -1.000000 0.000000 1.000000 0.000000 32064a.dat
0 STEP
1 15 -0.158140 -174.047300 -17.995030 0.999973 0.000000 0.000000 0.000000 0.000000 -0.999992 0.000000 0.999986 0.000000 2431.dat
1 15 -0.157410 -74.049500 -17.995120 0.999975 0.000000 0.000000 0.000000 0.000000 -1.000000 0.000000 0.999992 0.000000 2431.dat
0 STEP
1 4 -0.157410 -64.049560 0.004850 0.000000 0.000000 0.999975 1.000000 0.000000 0.000000 0.000000 0.999992 0.000000 32062.dat
0 STEP
1 71 -0.157410 -44.049420 0.002040 0.999975 0.000000 0.000001 0.000001 0.000000 -1.000000 0.000000 0.999992 0.000000 59443.dat
0 STEP
1 4 -0.157650 -24.049260 0.004850 0.000000 0.000000 0.999975 1.000000 0.000000 0.000000 0.000000 0.999992 0.000000 32062.dat
0 STEP
1 71 -0.155330 -13.959810 0.005250 0.999975 0.000000 0.000001 0.000000 -1.000000 0.000001 0.000001 -0.000001 -0.999992 33299.dat
0 STEP
1 4 -0.158140 -194.048700 0.004430 -0.000001 0.999973 -0.000002 0.999998 0.000001 -0.000001 -0.000001 -0.000002 -0.999992 32054.dat
0 STEP
0 NOFILE
0 FILE SubModel Group 6
0 SubModel Group 6
0 Name:  SubModel Group 6
0 Author:  
0 CustomBrick
0 NumOfBricks:  18
1 0 -1.126030 -14.000790 -20.001590 1.000028 0.000000 0.000000 0.000000 1.000000 0.000000 0.000000 0.000000 1.000014 3705.dat
1 1 -11.125900 -14.000900 -20.001800 0.000001 1.000028 -0.000001 -1.000000 0.000001 0.000001 0.000001 0.000001 1.000014 32140.dat
0 STEP
1 1 8.875970 -14.000790 -20.001690 0.000001 1.000028 -0.000001 -1.000000 0.000001 0.000001 0.000001 0.000001 1.000014 32140.dat
0 STEP
1 0 -21.126910 -14.000790 -0.001590 -1.000028 0.000000 0.000000 0.000000 0.000001 1.000000 0.000000 1.000014 -0.000001 2780.dat
1 0 -21.126940 -34.000700 39.998810 -1.000028 0.000000 0.000000 0.000000 0.000001 1.000000 0.000000 1.000014 -0.000001 2780.dat
1 19 -21.127150 -14.000700 39.998810 -1.000028 0.000000 0.000001 0.000000 -1.000000 0.000000 0.000001 0.000000 1.000014 3749.dat
1 0 18.876030 -34.000700 39.998810 -1.000028 0.000000 0.000000 0.000000 0.000001 1.000000 0.000000 1.000014 -0.000001 2780.dat
1 19 18.875720 -14.000700 39.998810 1.000028 0.000000 -0.000001 0.000000 1.000000 0.000000 0.000001 0.000000 1.000014 3749.dat
1 0 18.875970 -14.000700 -0.001500 -1.000028 0.000000 0.000000 0.000000 0.000001 1.000000 0.000000 1.000014 -0.000001 2780.dat
0 STEP
1 1 28.876190 -14.000790 39.998700 0.000000 1.000024 0.000000 0.000000 0.000000 -1.000000 -1.000014 0.000000 0.000000 6629.dat
0 STEP
1 4 18.875920 -150.000000 -8.001690 1.000028 0.000000 0.000000 0.000000 0.800000 0.600000 0.000000 -0.600008 0.800012 32062.dat
0 STEP
1 71 -1.125910 -150.002300 -7.999890 0.000001 0.000000 -1.000022 0.599998 0.800000 0.000000 0.800009 -0.600008 0.000001 59443.dat
0 STEP
1 4 -21.126970 -150.000000 -8.001690 1.000028 0.000000 0.000000 0.000000 0.800000 0.600000 0.000000 -0.600008 0.800012 32062.dat
0 STEP
1 1 -31.127390 -14.000700 39.998900 0.000000 1.000028 0.000000 0.000000 0.000000 -1.000000 -1.000014 0.000000 0.000000 6629.dat
0 STEP
1 1 -30.097120 -24.000800 -20.001590 0.000000 0.000000 -1.000028 0.000000 1.000000 0.000000 1.000014 0.000000 0.000000 3701.dat
1 1 28.876860 -24.000700 -20.001800 0.000000 0.000000 -1.000028 0.000000 1.000000 0.000000 1.000014 0.000000 0.000000 3701.dat
0 STEP
1 1 -1.126030 -32.000700 -0.001390 -1.000028 0.000000 0.000000 0.000000 1.000000 0.000000 0.000000 0.000000 -1.000014 32001.dat
1 1 -1.123900 -32.000700 -40.002110 -1.000028 0.000000 0.000000 0.000000 1.000000 0.000000 0.000000 0.000000 -1.000014 32001.dat
0 STEP
0 NOFILE
