0 FILE 拉力车_Copy.io
0 Untitled Model
0 Name:  拉力车_Copy
0 Author:  
0 CustomBrick
0 NumOfBricks:  150
0 STEP
1 72 -90.573000 -25.411280 -482.533400 0.000000 -1.000000 0.000000 0.000000 0.000000 -1.000000 1.000000 0.000000 0.000000 dch003.dat
1 71 -130.000000 -104.000500 -520.000000 0.000000 -1.000000 0.000000 0.000000 0.000000 -1.000000 1.000000 0.000000 0.000000 dch004.dat
1 25 -90.607990 -10.797750 -484.696400 0.000000 -1.000000 0.000000 0.000000 0.000000 -1.000000 1.000000 0.000000 0.000000 dch005.dat
0 STEP
1 16 -90.000000 -12.000000 -610.000000 1.000000 0.000000 0.000000 0.000000 1.000000 0.000000 0.000000 0.000000 1.000000 submodel group 12
0 STEP
1 16 -90.000000 -36.000000 -310.000000 1.000000 0.000000 0.000000 0.000000 1.000000 0.000000 0.000000 0.000000 1.000000 submodel group 11
0 STEP
1 16 -30.000000 -36.000000 -470.000000 1.000000 0.000000 0.000000 0.000000 1.000000 0.000000 0.000000 0.000000 1.000000 submodel group 10
0 STEP
1 15 -139.999100 -53.999970 -440.003600 0.000001 1.000006 0.000001 -1.000000 0.000001 -0.000001 -0.000001 -0.000001 1.000006 64871.dat
0 STEP
1 0 -149.999600 -53.999870 -520.004800 1.000006 0.000000 0.000000 0.000000 1.000000 0.000000 0.000000 0.000000 1.000006 2780.dat
1 0 -149.999500 -53.999960 -440.003400 1.000006 0.000000 0.000000 0.000000 1.000000 0.000000 0.000000 0.000000 1.000006 2780.dat
0 STEP
1 1 -159.999000 -64.000160 -480.002400 0.000000 0.000000 1.000006 0.000000 1.000000 0.000000 -1.000005 0.000000 0.000000 3894.dat
0 STEP
1 16 -160.000000 -36.000000 -200.000000 1.000000 0.000000 0.000000 0.000000 1.000000 0.000000 0.000000 0.000000 1.000000 submodel group 9
0 STEP
1 4 -159.996900 -54.000030 -320.003100 1.000001 0.000001 -0.000001 0.000001 0.000001 0.999995 0.000001 -1.000006 0.000001 32054.dat
1 4 -159.996900 -54.000030 -400.003400 1.000001 0.000001 -0.000001 0.000001 0.000001 0.999995 0.000001 -1.000005 0.000001 32054.dat
0 STEP
1 0 -169.997100 -54.000000 -140.001800 1.000001 0.000000 0.000000 0.000000 0.999995 0.000000 0.000000 0.000000 1.000006 3707.dat
1 72 -139.997000 -54.000000 -140.001800 0.000000 0.000000 1.000000 0.999995 0.000000 0.000000 0.000000 1.000004 0.000000 3648b.dat
0 STEP
1 71 -89.999000 -54.002860 -140.002000 0.000001 0.000000 -1.000005 0.000000 0.999995 0.000000 1.000009 0.000000 0.000001 59443.dat
1 71 -120.177100 -54.000000 -140.001800 -0.000001 0.000000 1.000000 0.000000 0.999995 0.000000 -1.000004 0.000000 -0.000001 3713.dat
0 STEP
1 71 -199.996900 -54.000000 -140.001900 0.000001 0.000000 -1.000001 0.000000 0.999995 0.000000 1.000005 0.000000 0.000001 3713.dat
1 71 -219.996900 -54.000000 -140.001900 -0.000001 0.000000 1.000001 0.000000 0.999995 0.000000 -1.000005 0.000000 -0.000001 3713.dat
0 STEP
1 16 -90.000000 -72.000000 -180.000000 1.000000 0.000000 0.000000 0.000000 0.996195 0.087156 0.000000 -0.087156 0.996195 submodel group 8
0 STEP
1 72 -179.996700 -93.999810 -180.002200 0.000000 0.000000 1.000001 0.996190 0.087155 0.000000 -0.087156 0.996200 0.000000 3648b.dat
0 STEP
1 16 -90.000000 -84.000000 -80.000000 1.000000 0.000000 0.000000 0.000000 1.000000 0.000000 0.000000 0.000000 1.000000 submodel group 7
0 STEP
1 16 -110.000000 -36.000000 -240.000000 1.000000 0.000000 0.000000 0.000000 1.000000 0.000000 0.000000 0.000000 1.000000 submodel group 6
0 STEP
1 72 -179.996500 -93.999820 -240.002300 0.000000 0.000000 1.000001 0.999995 0.000000 0.000000 0.000000 1.000006 0.000000 3648b.dat
0 STEP
1 16 -40.000000 -36.000000 -140.000000 1.000000 0.000000 0.000000 0.000000 1.000000 0.000000 0.000000 0.000000 1.000000 submodel group 5
0 STEP
1 16 -110.000000 -60.000000 -130.000000 1.000000 0.000000 0.000000 0.000000 0.906306 0.422622 0.000000 -0.422622 0.906306 submodel group 4
0 STEP
1 16 -10.000000 -36.000000 -200.000000 1.000000 0.000000 0.000000 0.000000 1.000000 0.000000 0.000000 0.000000 1.000000 submodel group 2
0 STEP
1 71 20.005320 -54.000000 -140.001800 0.000000 0.000000 1.000001 0.000000 0.999995 0.000000 -1.000006 0.000000 0.000000 3713.dat
1 71 40.005450 -54.000020 -140.001800 0.000000 0.000000 -1.000001 0.000000 -0.999995 0.000000 -1.000005 0.000000 0.000000 3713.dat
0 STEP
1 4 -19.990510 -53.999950 -399.999300 -1.000001 -0.000001 0.000001 -0.000001 -0.000001 -0.999995 0.000001 -1.000006 0.000001 32054.dat
1 4 -19.990510 -53.999940 -319.999300 -1.000001 -0.000001 0.000001 -0.000001 -0.000001 -0.999995 0.000001 -1.000005 0.000001 32054.dat
0 STEP
1 16 -90.000000 -168.000000 -120.000000 1.000000 0.000000 0.000000 0.000000 0.722365 0.691512 0.000000 -0.691512 0.722365 submodel group 1
0 STEP
1 4 -19.991120 -193.999200 -100.000600 -1.000001 -0.000001 0.000001 -0.000001 -0.000001 -0.999995 0.000001 -1.000006 0.000001 32054.dat
1 4 -159.996600 -193.999600 -100.001300 1.000001 0.000001 -0.000001 0.000001 0.000001 0.999995 0.000001 -1.000005 0.000001 32054.dat
0 STEP
1 71 70.005560 -54.000000 -140.001800 0.000000 0.000000 1.000001 -0.999995 0.000000 0.000000 0.000000 -1.000006 0.000000 56145.dat
1 0 70.005800 -54.000020 -140.001800 0.000000 0.000000 -1.000001 0.000000 0.999995 0.000000 1.000006 0.000000 0.000000 44309.dat
1 71 -249.997100 -54.000000 -140.001800 0.000000 0.000000 -1.000001 -0.999995 0.000000 0.000000 0.000000 1.000006 0.000000 56145.dat
1 0 -249.998300 -54.000020 -140.001800 0.000000 0.000000 1.000001 0.000000 0.999995 0.000000 -1.000006 0.000000 0.000000 44309.dat
0 STEP
0 NOFILE
0 FILE SubModel Group 12
0 SubModel Group 12
0 Name:  SubModel Group 12
0 Author:  
0 CustomBrick
0 NumOfBricks:  33
1 0 0.000510 -41.999840 9.988530 -1.000009 0.000000 0.000000 0.000000 1.000003 0.000000 0.000000 0.000000 -1.000006 2780.dat
1 0 0.000630 -41.999840 -30.012330 -1.000009 0.000000 0.000000 0.000000 1.000003 0.000000 0.000000 0.000000 -1.000006 2780.dat
1 1 -9.999269 -52.000080 -10.011900 0.000000 0.000000 -1.000009 0.000000 1.000003 0.000000 1.000006 0.000000 0.000000 3894.dat
0 STEP
1 1 10.000080 -52.000080 -10.011900 0.000000 0.000000 -1.000008 0.000000 1.000003 0.000000 1.000005 0.000000 0.000000 3894.dat
0 STEP
1 1 0.000510 -28.000000 9.988530 0.000000 0.000000 1.000009 0.000000 1.000003 0.000000 -1.000006 0.000000 0.000000 32001.dat
0 STEP
1 1 -29.999100 -41.999840 29.989200 -1.000009 0.000000 0.000000 0.000000 1.000003 0.000000 0.000000 0.000000 -1.000006 32556.dat
1 0 -19.999100 -41.999840 -50.011780 -1.000009 0.000000 0.000000 0.000000 1.000003 0.000000 0.000000 0.000000 -1.000006 2780.dat
0 STEP
1 15 -29.999100 -41.999790 -30.012080 0.000001 1.000009 0.000001 1.000003 -0.000001 0.000001 0.000001 0.000001 -1.000006 40490.dat
0 STEP
1 0 -39.999800 -41.999880 49.989080 -1.000009 0.000000 0.000000 0.000000 1.000003 0.000000 0.000000 0.000000 -1.000006 2780.dat
0 STEP
1 1 30.001140 -41.999840 29.989200 1.000009 0.000000 0.000000 0.000000 1.000003 0.000000 0.000000 0.000000 1.000006 32556.dat
1 0 20.000140 -41.999840 -50.012080 -1.000009 0.000000 0.000000 0.000000 1.000003 0.000000 0.000000 0.000000 -1.000006 2780.dat
0 STEP
1 0 0.000890 -41.999800 -110.012400 1.000013 0.000000 0.000000 0.000000 1.000003 0.000000 0.000000 0.000000 1.000006 3705.dat
1 14 -14.779400 -41.999790 -110.012300 0.000000 0.000000 1.000009 1.000003 0.000000 0.000000 0.000000 1.000006 0.000000 32123a.dat
0 STEP
1 71 5.290780 -41.999800 -110.012400 0.000000 0.000000 -1.000009 -1.000003 0.000000 0.000000 0.000000 1.000006 0.000000 4185.dat
1 0 5.290780 -41.999820 -110.012400 -0.000001 0.000000 1.000009 1.000003 0.000000 0.000001 0.000000 1.000006 0.000000 2815.dat
1 71 -4.689200 -41.999790 -110.012400 0.000000 0.000000 -1.000009 -1.000003 0.000000 0.000000 0.000000 1.000006 0.000000 4185.dat
1 0 -4.688590 -41.999760 -110.006600 -0.000001 0.000000 1.000005 1.000009 0.000000 0.000001 0.000000 1.000012 0.000000 2815.dat
0 STEP
1 14 15.001420 -41.999800 -110.012400 0.000000 0.000000 1.000009 1.000003 0.000000 0.000000 0.000000 1.000006 0.000000 32123a.dat
0 STEP
1 15 0.000760 -52.000080 59.990300 1.000009 0.000000 0.000000 0.000000 1.000003 0.000000 0.000000 0.000000 1.000006 32064a.dat
1 19 0.000890 -41.999860 69.991820 0.000001 -1.000009 0.000001 0.000001 0.000001 1.000003 -1.000006 -0.000001 0.000001 3749.dat
0 STEP
1 15 29.998940 -41.999860 -30.013430 0.000001 1.000006 0.000001 1.000000 -0.000001 0.000001 0.000001 0.000001 -1.000006 40490.dat
1 0 40.001660 -41.999960 49.989020 -1.000009 0.000000 0.000000 0.000000 1.000003 0.000000 0.000000 0.000000 -1.000006 2780.dat
0 STEP
1 1 0.000510 -60.000140 9.988530 0.000000 0.000000 1.000008 0.000000 1.000003 0.000000 -1.000005 0.000000 0.000000 32001.dat
0 STEP
1 16 0.000000 -48.000000 50.000000 1.000000 0.000000 0.000000 0.000000 1.000000 0.000000 0.000000 0.000000 1.000000 submodel group 13
0 STEP
1 15 -29.998810 -108.000500 59.990180 1.000009 0.000000 0.000001 0.000000 1.000003 0.000000 -0.000001 0.000000 1.000006 3040b.dat
1 15 30.001500 -108.000500 59.990300 1.000009 0.000000 0.000001 0.000000 1.000003 0.000000 -0.000001 0.000000 1.000006 3040b.dat
0 STEP
1 1 0.000890 -132.000800 59.990300 1.000009 0.000000 0.000000 0.000000 1.000003 0.000000 0.000000 0.000000 1.000006 3701.dat
0 STEP
1 0 20.000620 -122.000300 69.991520 0.000000 0.000000 1.000008 0.000000 1.000003 0.000000 -1.000005 0.000000 0.000000 2780.dat
1 0 0.001000 -122.000300 69.991520 0.000000 0.000000 1.000008 0.000000 1.000003 0.000000 -1.000005 0.000000 0.000000 2780.dat
1 0 -19.999000 -122.000300 69.991520 0.000000 0.000000 1.000009 0.000000 1.000003 0.000000 -1.000006 0.000000 0.000000 2780.dat
0 STEP
1 15 0.001120 -82.000270 79.992310 -1.000009 0.000001 -0.000001 0.000001 0.000001 -1.000003 -0.000001 -1.000006 -0.000001 32316.dat
0 STEP
0 NOFILE
0 FILE SubModel Group 13
0 SubModel Group 13
0 Name:  SubModel Group 13
0 Author:  
0 CustomBrick
0 NumOfBricks:  3
1 1 -29.998810 -12.000140 -0.010380 0.000000 0.000000 -1.000009 0.000000 1.000003 0.000000 1.000006 0.000000 0.000000 3023.dat
1 1 30.001500 -12.000140 -0.010620 0.000000 0.000000 -1.000009 0.000000 1.000003 0.000000 1.000006 0.000000 0.000000 3023.dat
0 STEP
1 15 0.000760 -36.000260 -0.010930 1.000009 0.000000 0.000000 0.000000 1.000003 0.000000 0.000000 0.000000 1.000006 3001.dat
0 STEP
0 NOFILE
0 FILE SubModel Group 11
0 SubModel Group 11
0 Name:  SubModel Group 11
0 Author:  
0 CustomBrick
0 NumOfBricks:  16
1 1 0.000890 -4.000260 9.999599 1.000006 0.000000 0.000000 0.000000 1.000000 0.000000 0.000000 0.000000 1.000006 3709b.dat
1 15 -29.998100 -28.000260 9.999510 0.000000 0.000000 -1.000006 0.000000 1.000000 0.000000 1.000006 0.000000 0.000000 32064a.dat
1 19 -39.998900 -18.000080 9.999700 1.000006 0.000001 -0.000001 0.000001 0.000001 1.000000 0.000001 -1.000006 0.000001 3749.dat
0 STEP
1 15 0.000890 -28.000270 -0.000610 -1.000006 0.000000 0.000000 0.000000 1.000000 0.000000 0.000000 0.000000 -1.000006 32064a.dat
1 19 0.000760 -18.000070 -10.000400 -0.000001 1.000006 -0.000001 0.000001 0.000001 1.000000 1.000006 0.000001 -0.000001 3749.dat
0 STEP
1 19 40.001420 -18.000080 9.999700 -1.000006 -0.000001 0.000001 0.000001 0.000001 1.000001 -0.000001 1.000006 -0.000001 3749.dat
1 15 30.001020 -28.000270 9.999510 0.000000 0.000000 -1.000006 0.000000 1.000000 0.000000 1.000006 0.000000 0.000000 32064a.dat
0 STEP
1 1 0.000890 -36.000300 9.999510 1.000006 0.000000 0.000000 0.000000 1.000000 0.000000 0.000000 0.000000 1.000006 3709b.dat
0 STEP
1 15 0.002950 -60.000360 10.001190 1.000001 0.000000 0.000000 0.000000 1.000000 0.000000 0.000000 0.000000 1.000000 3001.dat
0 STEP
1 15 -29.998100 -84.000610 -0.000490 -1.000006 0.000000 0.000000 0.000000 1.000000 0.000000 0.000000 0.000000 -1.000006 3040b.dat
1 15 30.001020 -84.000510 -0.000490 -1.000006 0.000000 0.000000 0.000000 1.000000 0.000000 0.000000 0.000000 -1.000006 3040b.dat
0 STEP
1 1 0.000890 -108.000800 -0.000610 -1.000006 0.000000 0.000000 0.000000 1.000000 0.000000 0.000000 0.000000 -1.000006 3701.dat
0 STEP
1 0 -19.999000 -98.000320 -10.000490 0.000000 0.000000 -1.000006 0.000000 1.000000 0.000000 1.000006 0.000000 0.000000 2780.dat
1 0 20.001100 -98.000320 -10.000490 0.000000 0.000000 -1.000006 0.000000 1.000000 0.000000 1.000006 0.000000 0.000000 2780.dat
1 0 0.000890 -98.000320 -10.000490 0.000000 0.000000 -1.000006 0.000000 1.000000 0.000000 1.000006 0.000000 0.000000 2780.dat
0 STEP
1 15 0.000890 -58.000350 -20.000090 1.000007 -0.000001 0.000001 0.000001 0.000001 -1.000001 0.000001 1.000006 0.000001 32316.dat
0 STEP
0 NOFILE
0 FILE SubModel Group 10
0 SubModel Group 10
0 Name:  SubModel Group 10
0 Author:  
0 CustomBrick
0 NumOfBricks:  4
1 15 -10.002200 -18.000260 29.986880 -0.000001 -0.999983 -0.000001 -0.999974 0.000001 -0.000001 0.000001 0.000001 -1.000008 64871.dat
1 0 0.001280 -17.999880 -50.005130 -1.000008 0.000000 0.000000 0.000000 1.000000 0.000000 0.000000 0.000000 -1.000008 2780.dat
1 0 0.001400 -17.999800 29.996700 -1.000008 0.000000 0.000000 0.000000 1.000000 0.000000 0.000000 0.000000 -1.000008 2780.dat
0 STEP
1 1 9.999720 -28.000110 -10.002110 0.000000 0.000000 -1.000006 0.000000 1.000000 0.000000 1.000006 0.000000 0.000000 3894.dat
0 STEP
0 NOFILE
0 FILE SubModel Group 9
0 SubModel Group 9
0 Name:  SubModel Group 9
0 Author:  
0 CustomBrick
0 NumOfBricks:  16
1 1 0.003100 -27.999960 -60.002680 0.000000 0.000000 -1.000001 0.000000 0.999995 0.000000 1.000006 0.000000 0.000000 3703.dat
1 19 -9.995999 -18.000040 -160.003800 -1.000002 -0.000001 0.000001 -0.000001 0.999995 -0.000001 -0.000001 -0.000001 -1.000006 3749.dat
0 STEP
1 1 0.003100 -35.999920 79.998310 0.000000 0.000000 -1.000001 0.000000 0.999995 0.000000 1.000006 0.000000 0.000000 3023.dat
1 1 0.003100 -35.999920 -180.003300 0.000000 0.000000 -1.000001 0.000000 0.999995 0.000000 1.000006 0.000000 0.000000 3710.dat
0 STEP
1 1 0.003300 -43.999940 99.998790 0.000000 0.000000 -1.000002 0.000000 0.999995 0.000000 1.000006 0.000000 0.000000 3710.dat
1 1 0.003100 -43.999900 -160.003100 0.000000 0.000000 -1.000001 0.000000 0.999995 0.000000 1.000005 0.000000 0.000000 3023.dat
0 STEP
1 1 0.003600 -67.999800 -20.002290 0.000000 0.000000 -1.000001 0.000000 0.999995 0.000000 1.000005 0.000000 0.000000 3703.dat
0 STEP
1 71 -19.996520 -17.999980 -160.002900 -0.000001 1.000001 -0.000001 0.000001 -0.000001 -0.999995 -1.000006 -0.000001 -0.000001 33299.dat
0 STEP
1 19 -8.777100 -18.000020 39.998000 -1.000001 -0.000001 0.000001 0.000001 0.000001 0.999995 -0.000001 1.000006 -0.000001 3749.dat
1 0 -9.997100 -18.000000 79.998310 -1.000001 0.000000 0.000000 0.000000 0.999995 0.000000 0.000000 0.000000 -1.000006 2780.dat
0 STEP
1 1 -19.997420 -18.000060 119.998900 0.000000 -1.000002 0.000000 0.000000 0.000000 0.999995 -1.000006 0.000000 0.000000 32009.dat
0 STEP
1 0 9.995299 -57.999980 -19.993390 1.000000 0.000000 0.000000 0.000000 1.000000 0.000000 0.000000 0.000000 1.000000 2780.dat
1 0 10.003600 -57.999860 -60.002500 1.000000 0.000000 0.000000 0.000000 1.000000 0.000000 0.000000 0.000000 1.000000 2780.dat
0 STEP
1 0 -9.996990 -157.999300 119.998400 -1.000001 0.000000 0.000000 0.000000 0.999995 0.000000 0.000000 0.000000 -1.000006 2780.dat
1 0 -9.997100 -117.999600 119.998400 -1.000001 0.000000 0.000000 0.000000 0.999995 0.000000 0.000000 0.000000 -1.000006 2780.dat
0 STEP
1 1 0.003400 -97.999790 119.998700 0.000001 1.000002 -0.000001 -0.000001 -0.000001 -0.999995 -1.000006 0.000001 0.000001 32140.dat
0 STEP
0 NOFILE
0 FILE SubModel Group 8
0 SubModel Group 8
0 Name:  SubModel Group 8
0 Author:  
0 CustomBrick
0 NumOfBricks:  7
1 71 50.266600 -21.915900 -1.919600 0.000001 0.000000 -1.000014 -0.000002 0.999995 0.000000 1.000018 0.000000 0.000001 3713.dat
1 71 10.315380 -21.915900 -1.919600 -0.000001 0.000000 1.000014 0.000002 0.999995 0.000000 -1.000018 0.000000 -0.000001 3713.dat
1 0 30.076580 -21.915900 -1.919600 0.000000 0.000000 1.000014 -0.000002 -0.999995 0.000000 1.000018 0.000000 0.000000 32270.dat
1 0 -10.001800 -21.915880 -1.913080 0.000000 0.000000 1.000001 -0.000002 -0.999995 0.000000 1.000005 0.000000 0.000000 32270.dat
1 71 -39.996400 -21.918760 -1.919580 -0.000001 0.000000 1.000014 0.000002 0.999995 0.000000 -1.000018 0.000000 -0.000001 59443.dat
1 71 -69.996310 -21.915890 -1.919600 -1.000014 0.000000 0.000000 0.000000 0.999995 0.000002 0.000000 0.000000 -1.000018 4519.dat
1 0 20.006120 -21.915900 -1.919600 -1.000014 0.000000 0.000000 0.000000 0.999995 0.000002 0.000000 0.000000 -1.000018 3706.dat
0 NOFILE
0 FILE SubModel Group 7
0 SubModel Group 7
0 Name:  SubModel Group 7
0 Author:  
0 CustomBrick
0 NumOfBricks:  7
1 0 -19.995700 -9.999820 -0.001320 -1.000005 0.000000 0.000000 0.000000 0.999995 0.000000 0.000000 0.000000 -1.000007 3705.dat
1 4 -9.995620 -29.999710 -0.001380 -1.000005 0.000000 0.000000 0.000000 0.000001 -0.999995 0.000000 -1.000007 -0.000001 32039.dat
1 71 -29.995800 -9.999810 -0.001320 0.000001 0.000000 -1.000005 0.000000 0.999995 0.000000 1.000007 0.000000 0.000001 3713.dat
0 STEP
1 71 20.003310 -10.002620 -0.001740 -0.000001 0.000000 1.000001 0.000000 0.999995 0.000000 -1.000005 0.000000 -0.000001 59443.dat
1 4 40.003860 -9.999770 -0.001740 -1.000004 0.000000 0.000000 0.000000 0.999995 0.000000 0.000000 0.000000 -1.000006 32062.dat
0 STEP
1 4 -69.996100 -9.999849 -0.001320 -1.000005 -0.000001 0.000001 -0.000001 -0.000001 -0.999995 0.000001 -1.000007 0.000001 32054.dat
1 4 70.004000 -9.999790 -0.001680 1.000004 0.000001 -0.000001 -0.000001 -0.000001 -0.999995 -0.000001 1.000006 -0.000001 32054.dat
0 STEP
0 NOFILE
0 FILE SubModel Group 6
0 SubModel Group 6
0 Name:  SubModel Group 6
0 Author:  
0 CustomBrick
0 NumOfBricks:  7
1 4 70.004380 -17.999960 -0.002400 1.000001 0.000001 -0.000001 -0.000001 -0.000001 -0.999996 -0.000001 1.000005 -0.000001 32054.dat
1 1 70.004380 -27.999940 -0.002400 0.000000 0.000000 -1.000001 0.000000 0.999995 0.000000 1.000005 0.000000 0.000000 3700.dat
0 STEP
1 0 20.002830 -17.999940 -0.002490 -1.000001 0.000000 0.000000 0.000000 0.999995 0.000000 0.000000 0.000000 -1.000006 3705.dat
1 4 -29.997000 -17.999960 -0.002490 -1.000001 -0.000001 0.000001 -0.000001 -0.000001 -0.999995 0.000001 -1.000005 0.000001 32054.dat
0 STEP
1 1 -29.997000 -27.999900 -0.002490 0.000000 0.000000 -1.000001 0.000000 0.999995 0.000000 1.000005 0.000000 0.000000 3700.dat
0 STEP
1 71 -49.996500 -57.999820 -0.002320 -1.000001 0.000000 0.000000 0.000000 0.999995 0.000000 0.000000 0.000000 -1.000006 4519.dat
1 15 -38.960500 -58.000020 -0.000490 0.000000 0.000000 1.000000 0.000000 1.000000 0.000000 -1.000000 0.000000 0.000000 dx0015.dat
0 STEP
0 NOFILE
0 FILE SubModel Group 5
0 SubModel Group 5
0 Name:  SubModel Group 5
0 Author:  
0 CustomBrick
0 NumOfBricks:  3
1 0 30.005240 -18.000000 -0.001800 1.000005 0.000000 0.000000 0.000000 0.999995 0.000000 0.000000 0.000000 1.000009 3707.dat
1 71 -19.997400 -18.000000 -0.002000 0.000001 0.000000 -1.000001 0.000000 0.999995 0.000000 1.000006 0.000000 0.000001 3713.dat
1 71 0.005120 -18.000020 -0.001800 0.000000 0.000000 -1.000000 0.000000 0.999995 0.000000 1.000004 0.000000 0.000000 94925.dat
0 NOFILE
0 FILE SubModel Group 4
0 SubModel Group 4
0 Name:  SubModel Group 4
0 Author:  
0 CustomBrick
0 NumOfBricks:  5
1 15 -9.996400 -74.740320 12.361610 0.000001 1.000001 0.000000 -0.596579 0.000001 -0.802551 -0.802552 0.000001 0.596590 32524.dat
1 72 -29.996500 -26.587220 -23.433860 0.000000 0.000000 0.999988 -0.000008 -0.999998 0.000000 0.999992 0.000000 0.000000 3647.dat
1 0 0.003700 -26.587220 -23.433860 -1.000001 0.000000 0.000000 0.000000 0.999998 0.000008 0.000000 0.000000 -1.000004 3737.dat
0 STEP
1 71 30.003740 -26.587210 -23.433860 0.000000 0.000000 1.000001 0.000008 0.999998 0.000000 -1.000004 0.000000 0.000000 94925.dat
1 19 9.747200 -26.590500 -23.428870 0.000000 0.000000 0.999988 -0.000008 -0.999998 0.000000 0.999992 0.000000 0.000000 18575.dat
0 STEP
0 NOFILE
0 FILE SubModel Group 2
0 SubModel Group 2
0 Name:  SubModel Group 2
0 Author:  
0 CustomBrick
0 NumOfBricks:  14
1 1 -9.990390 -27.999910 -59.999300 0.000000 0.000000 -1.000006 0.000000 0.999994 0.000000 1.000000 0.000000 0.000000 3703.dat
1 19 0.010610 -18.000040 -159.998700 1.000006 0.000001 -0.000001 -0.000001 0.999994 -0.000001 0.000001 0.000001 1.000000 3749.dat
0 STEP
1 1 -9.990390 -35.999850 -179.999200 0.000000 0.000000 -1.000006 0.000000 0.999994 0.000000 1.000000 0.000000 0.000000 3710.dat
1 1 -9.990390 -35.999840 80.000900 0.000000 0.000000 -1.000006 0.000000 0.999994 0.000000 1.000000 0.000000 0.000000 3023.dat
0 STEP
1 1 -9.990390 -43.999780 100.000800 0.000000 0.000000 -1.000006 0.000000 0.999994 0.000000 1.000000 0.000000 0.000000 3710.dat
1 1 -9.990260 -43.999800 -159.999300 0.000000 0.000000 -1.000006 0.000000 0.999994 0.000000 1.000000 0.000000 0.000000 3023.dat
0 STEP
1 1 -9.990260 -67.999620 -19.999220 0.000000 0.000000 -1.000006 0.000000 0.999994 0.000000 1.000000 0.000000 0.000000 3703.dat
0 STEP
1 71 10.009910 -17.999960 -159.999300 0.000001 -1.000006 0.000001 0.000001 -0.000001 -0.999994 1.000000 0.000001 0.000001 33299.dat
0 STEP
1 16 0.000000 -12.000000 100.000000 1.000000 0.000000 0.000000 0.000000 1.000000 0.000000 0.000000 0.000000 1.000000 submodel group 3
0 STEP
0 NOFILE
0 FILE SubModel Group 3
0 SubModel Group 3
0 Name:  SubModel Group 3
0 Author:  
0 CustomBrick
0 NumOfBricks:  6
1 0 0.008780 -145.999300 19.999540 -1.000006 0.000000 0.000000 0.000000 0.999995 0.000000 0.000000 0.000000 -1.000005 2780.dat
1 0 0.009030 -105.999500 19.999540 -1.000006 0.000000 0.000000 0.000000 0.999995 0.000000 0.000000 0.000000 -1.000005 2780.dat
1 1 -9.990880 -85.999610 19.999540 0.000001 1.000006 -0.000001 -0.000001 -0.000002 -0.999995 -1.000006 0.000001 0.000001 32140.dat
0 STEP
1 19 0.009390 -5.999990 -59.999100 1.000006 0.000001 -0.000001 -0.000001 -0.000001 -0.999994 -0.000001 1.000000 -0.000001 3749.dat
1 0 0.008900 -5.999940 -20.000610 -1.000006 0.000000 0.000000 0.000000 0.999995 0.000000 0.000000 0.000000 -1.000005 2780.dat
1 1 10.004170 -5.999990 19.998320 0.000000 -1.000001 0.000000 0.000000 0.000000 0.999995 -1.000006 0.000000 0.000000 32009.dat
0 STEP
0 NOFILE
0 FILE SubModel Group 1
0 SubModel Group 1
0 Name:  SubModel Group 1
0 Author:  
0 CustomBrick
0 NumOfBricks:  11
1 1 50.008660 -32.610830 -13.531890 0.000000 0.000000 1.000001 1.000001 0.000000 0.000000 -0.000008 1.000001 0.000000 3700.dat
1 1 0.015050 -32.610720 10.468300 -1.000001 0.000000 0.000000 0.000000 -0.000001 1.000001 0.000000 1.000000 -0.000008 32001.dat
1 1 -49.987500 -32.611060 -13.531830 0.000000 0.000000 1.000001 1.000001 -0.000001 0.000000 -0.000008 1.000000 0.000000 3700.dat
0 STEP
1 1 0.021390 -32.612040 -21.531920 -1.000001 0.000000 0.000000 0.000000 -0.000001 0.999994 0.000000 1.000000 -0.000008 32001.dat
0 STEP
1 1 -59.986000 -52.610980 -29.532160 -1.000001 0.000000 0.000000 0.000000 -0.000001 1.000000 0.000000 1.000000 -0.000008 32001.dat
1 1 60.008480 -52.610490 -29.531690 -1.000001 0.000000 0.000000 0.000000 -0.000001 1.000000 0.000000 1.000000 -0.000008 32001.dat
0 STEP
1 1 -59.984210 -12.611940 -29.532170 -1.000001 0.000000 0.000000 0.000000 -0.000001 1.000000 0.000000 1.000000 -0.000008 32001.dat
1 1 60.008600 -12.611660 -29.532180 -1.000001 0.000000 0.000000 0.000000 -0.000001 1.000000 0.000000 1.000000 -0.000008 32001.dat
0 STEP
1 1 0.017350 -32.607760 -37.531940 -0.999998 0.000000 0.000000 0.000000 -0.000001 0.999996 0.000000 1.000000 -0.000008 3738.dat
0 STEP
1 15 110.006700 -32.611370 -37.531910 0.000000 0.000000 1.000001 1.000000 -0.000001 0.000000 -0.000008 1.000000 0.000000 2431.dat
1 15 -109.984800 -32.610800 -37.532060 0.000000 0.000000 1.000001 1.000000 -0.000001 0.000000 -0.000008 1.000000 0.000000 2431.dat
0 STEP
0 NOFILE
