0 Untitled Model
0 Name:  六角形
0 Author:  
0 CustomBrick
0 NumOfBricks:  12
1 15 -262.925900 -10.000310 -174.870400 -1.000004 0.000000 -0.000002 0.000000 1.000000 0.000000 0.000000 0.000000 -1.000000 64871.dat
1 0 -262.926100 -20.000320 -314.870200 0.000000 0.766049 -0.642787 -1.000000 -0.000001 -0.000001 -0.000001 0.642787 0.766045 2780.dat
0 STEP
1 15 -131.368800 -30.000020 -362.753100 -0.342025 0.000002 -0.939694 0.000001 -1.000000 -0.000002 -0.939692 -0.000001 0.342021 64871.dat
0 STEP
1 15 107.435100 -9.999920 -320.645600 -0.642788 0.000000 0.766048 -0.000002 -1.000000 -0.000001 0.766044 -0.000003 0.642788 64871.dat
1 0 0.188300 -19.999730 -410.636000 0.000000 -0.984812 0.173646 -1.000000 0.000000 0.000001 -0.000001 -0.173648 -0.984808 2780.dat
0 STEP
1 0 214.681900 -20.000120 -230.655200 0.000000 0.766049 -0.642787 -1.000000 -0.000001 -0.000001 -0.000001 0.642787 0.766045 2780.dat
0 STEP
1 15 214.682400 -30.000290 -90.655150 -1.000004 0.000002 0.000004 -0.000002 -1.000000 -0.000001 0.000001 -0.000001 1.000000 64871.dat
0 STEP
1 15 83.125360 -10.000400 97.227180 -0.342025 0.000002 -0.939694 0.000001 -1.000000 -0.000002 -0.939692 -0.000001 0.342021 64871.dat
1 0 214.682700 -20.000110 49.344310 0.000000 0.342026 -0.939694 -1.000000 -0.000002 -0.000001 -0.000002 0.939692 0.342022 2780.dat
0 STEP
1 0 -262.925700 -20.000320 -34.870320 0.000000 0.766049 -0.642787 -1.000000 -0.000001 -0.000001 -0.000001 0.642787 0.766045 2780.dat
1 0 -48.432030 -20.000710 145.110300 0.000000 0.766049 -0.642787 -1.000000 -0.000001 -0.000001 -0.000001 0.642787 0.766045 2780.dat
0 STEP
1 15 -155.678600 -30.000500 55.120000 -0.642788 0.000000 0.766044 -0.000002 -1.000000 -0.000001 0.766044 -0.000003 0.642788 64871.dat
0 STEP
0 STEP
