0 FILE 风车.io
0 Untitled Model
0 Name:  风车
0 Author:  
0 CustomBrick
0 NumOfBricks:  38
1 1 -20.000490 -24.000020 -50.000020 1.000007 0.000000 0.000000 0.000000 1.000007 0.000000 0.000000 0.000000 1.000000 3702.dat
0 STEP
1 0 -20.000610 -38.000060 -60.000020 0.000000 0.000000 -1.000007 0.000000 1.000007 0.000000 1.000000 0.000000 0.000000 2780.dat
1 1 -20.000490 -48.000190 -50.000020 1.000007 0.000000 0.000000 0.000000 1.000007 0.000000 0.000000 0.000000 1.000000 3702.dat
0 STEP
1 1 -20.000490 -56.000190 -50.000020 1.000007 0.000000 0.000000 0.000000 1.000007 0.000000 0.000000 0.000000 1.000000 3710.dat
1 1 -20.000610 -64.000270 -50.000020 1.000007 0.000000 0.000000 0.000000 1.000007 0.000000 0.000000 0.000000 1.000000 3710.dat
0 STEP
1 1 -20.000490 -88.000550 -50.000020 1.000007 0.000000 0.000000 0.000000 1.000007 0.000000 0.000000 0.000000 1.000000 3894.dat
1 0 -20.000610 -78.000390 -60.000020 0.000000 0.000000 -1.000007 0.000000 1.000007 0.000000 1.000000 0.000000 0.000000 2780.dat
0 STEP
1 16 -10.000000 -12.000000 -80.000000 1.000000 0.000000 0.000000 0.000000 1.000000 0.000000 0.000000 0.000000 1.000000 submodel group 2
0 STEP
1 16 -20.000000 0.000000 -110.000000 1.000000 0.000000 0.000000 0.000000 1.000000 0.000000 0.000000 0.000000 1.000000 submodel group 1
0 STEP
1 71 -20.000730 -418.001300 -91.900020 0.000000 -0.081946 0.996637 0.000002 0.996637 0.081946 -1.000000 0.000002 0.000000 32073.dat
1 71 -20.000730 -418.001300 -110.360000 -0.996637 -0.081946 0.000000 -0.081946 0.996637 0.000002 0.000000 0.000002 -1.000000 3649.dat
0 STEP
1 71 -20.000730 -418.001100 -131.900000 -0.081946 0.000000 -0.996637 0.996637 0.000001 -0.081946 0.000001 -1.000000 0.000000 33299.dat
1 4 -59.866160 -421.278900 -161.899700 0.000000 0.000000 1.000000 0.000000 1.000000 0.000000 -1.000000 0.000000 0.000000 62462.dat
0 STEP
1 71 -20.000730 -418.001500 -51.760040 0.996637 -0.081946 0.000000 0.081946 0.996637 0.000000 0.000000 0.000000 1.000000 3713.dat
0 STEP
1 0 -20.000090 -478.000500 -40.400050 0.000000 0.000000 1.000000 0.000000 1.000000 0.000000 -1.000000 0.000000 0.000000 3707.dat
1 72 -20.000090 -478.000500 -110.400000 0.000000 -1.000000 0.000000 -1.000000 0.000000 0.000000 0.000000 0.000000 -1.000000 3647.dat
0 STEP
1 71 -20.000000 -478.000500 -51.550080 1.000000 0.000000 0.000001 0.000000 1.000000 0.000000 -0.000001 0.000000 1.000000 3713.dat
1 71 -20.000000 -478.000500 -31.660060 1.000000 0.000000 0.000001 0.000000 1.000000 0.000000 -0.000001 0.000000 1.000000 3713.dat
0 STEP
1 1 -20.000090 -478.000500 -5.569970 0.000000 0.000000 -1.000000 1.000000 0.000000 0.000000 0.000000 -1.000000 0.000000 3738.dat
1 1 -20.000090 -478.000500 -13.730000 -1.000000 0.000000 0.000000 0.000000 0.000000 -1.000000 0.000000 -1.000000 0.000000 3738.dat
0 STEP
1 71 -20.000090 -478.000500 4.599950 1.000000 0.000000 0.000001 0.000000 1.000000 0.000000 -0.000001 0.000000 1.000000 3713.dat
0 STEP
1 1 -20.000090 -398.000400 2.430030 0.000000 0.000000 1.000000 -1.000000 0.000000 0.000000 0.000000 -1.000000 0.000000 3709b.dat
1 1 -20.000090 -558.000500 2.430030 0.000000 0.000000 1.000000 -1.000000 0.000000 0.000000 0.000000 -1.000000 0.000000 3709b.dat
1 1 59.999960 -478.000500 -5.730000 -1.000000 0.000000 0.000000 0.000000 0.000000 -1.000000 0.000000 -1.000000 0.000000 3709b.dat
1 1 -100.000200 -478.000500 -5.730000 -1.000000 0.000000 0.000000 0.000000 0.000000 -1.000003 0.000000 -1.000003 0.000000 3709b.dat
0 STEP
1 72 -20.000090 -498.000500 29.999980 1.000000 0.000000 0.000000 0.000000 1.000000 0.000000 0.000000 0.000000 1.000000 6575.dat
1 72 -20.000090 -458.000500 19.499980 1.000000 0.000000 0.000000 0.000000 -1.000000 0.000000 0.000000 0.000000 -1.000000 6575.dat
0 STEP
0 STEP
0 NOFILE
0 FILE SubModel Group 2
0 SubModel Group 2
0 Name:  SubModel Group 2
0 Author:  
0 CustomBrick
0 NumOfBricks:  6
1 1 -0.000110 -126.000500 9.999980 0.000000 -1.000000 0.000000 -1.000000 0.000000 0.000000 0.000000 0.000000 -1.000000 3895.dat
1 1 -0.000020 -366.000500 9.999980 0.000000 -1.000000 0.000000 1.000000 0.000000 0.000000 0.000000 0.000000 1.000000 3895.dat
1 1 -23.999980 -246.000500 -0.000020 0.000000 -1.000000 0.000000 1.000000 0.000000 0.000000 0.000000 0.000000 1.000000 3709b.dat
0 STEP
1 1 -0.000020 -126.000500 -10.000010 0.000000 -1.000000 0.000000 1.000000 0.000000 0.000000 0.000000 0.000000 1.000000 3895.dat
1 1 0.000190 -366.000800 -10.000010 0.000000 -1.000000 0.000000 1.000000 0.000000 0.000000 0.000000 0.000000 1.000000 3895.dat
0 STEP
1 1 7.999940 -246.000500 -0.000020 0.000000 -1.000000 0.000000 1.000000 0.000000 0.000000 0.000000 0.000000 1.000000 3709b.dat
0 STEP
0 NOFILE
0 FILE SubModel Group 1
0 SubModel Group 1
0 Name:  SubModel Group 1
0 Author:  
0 CustomBrick
0 NumOfBricks:  7
1 1 0.000000 -24.000450 0.000000 1.000000 0.000000 0.000000 0.000000 1.000000 0.000000 0.000000 0.000000 1.000000 3702.dat
0 STEP
1 1 0.000000 -48.000460 0.000000 1.000000 0.000000 0.000000 0.000000 1.000000 0.000000 0.000000 0.000000 1.000000 3702.dat
1 0 0.000000 -38.000460 9.999990 0.000000 0.000000 -1.000000 0.000000 1.000000 0.000000 1.000000 0.000000 0.000000 2780.dat
0 STEP
1 1 0.000000 -56.000460 0.000000 1.000000 0.000000 0.000000 0.000000 1.000000 0.000000 0.000000 0.000000 1.000000 3710.dat
1 1 0.000000 -64.000460 0.000000 1.000000 0.000000 0.000000 0.000000 1.000000 0.000000 0.000000 0.000000 1.000000 3710.dat
0 STEP
1 1 0.000000 -88.000480 0.000000 1.000000 0.000000 0.000000 0.000000 1.000000 0.000000 0.000000 0.000000 1.000000 3894.dat
1 0 -0.000090 -78.000460 9.999990 0.000000 0.000000 -1.000000 0.000000 1.000000 0.000000 1.000000 0.000000 0.000000 2780.dat
0 STEP
0 NOFILE
