0 FILE 50-风车转.io
0 Untitled Model
0 Name:  50-风车转
0 Author:  
0 CustomBrick
0 NumOfBricks:  46
1 1 -220.000200 -8.000070 -159.999900 1.000000 0.000000 0.000000 0.000000 1.000000 0.000000 0.000000 0.000000 1.000000 32001.dat
1 1 -20.000300 -8.000070 -159.999900 1.000000 0.000000 0.000000 0.000000 1.000000 0.000000 0.000000 0.000000 1.000000 32001.dat
1 1 -120.000300 -32.000070 -149.999900 1.000000 0.000000 0.000000 0.000000 1.000000 0.000000 0.000000 0.000000 1.000000 3703.dat
0 STEP
1 1 -120.000300 -40.000070 -149.999900 1.000000 0.000000 0.000000 0.000000 1.000000 0.000000 0.000000 0.000000 1.000000 3710.dat
1 1 -120.000300 -48.000070 -149.999900 1.000000 0.000000 0.000000 0.000000 1.000000 0.000000 0.000000 0.000000 1.000000 3710.dat
0 STEP
1 1 -120.000300 -72.000070 -149.999900 1.000000 0.000000 0.000000 0.000000 1.000000 0.000000 0.000000 0.000000 1.000000 3701.dat
0 STEP
1 0 -120.000300 -62.000060 -139.999900 0.000000 -1.000000 0.000000 0.000001 0.000000 -1.000000 1.000000 0.000000 0.000000 2780.dat
1 0 -120.000400 -22.000050 -139.999900 0.000000 -1.000000 0.000000 0.000001 0.000000 -1.000000 1.000000 0.000000 0.000000 2780.dat
0 STEP
1 15 -120.000900 -162.000200 -129.999800 1.000000 -0.000001 0.000001 0.000001 0.000001 -1.000000 0.000001 1.000000 0.000001 64871.dat
0 STEP
1 1 -120.000700 -302.000200 -109.999700 0.000000 0.000000 -1.000000 0.000000 1.000000 0.000000 1.000000 0.000000 0.000000 32556.dat
1 1 -120.000900 -242.000000 -109.999700 0.000000 0.000000 -1.000000 0.000000 1.000000 0.000000 1.000000 0.000000 0.000000 32556.dat
0 STEP
1 15 -120.000100 -382.000200 -109.999700 1.000000 -0.000001 0.000001 0.000001 0.000001 -1.000000 0.000001 1.000000 0.000001 64871.dat
0 STEP
1 1 -120.001000 -42.000180 -109.999700 0.000000 0.000000 -1.000000 0.000000 1.000000 0.000000 1.000000 0.000000 0.000000 32556.dat
1 1 -120.001000 -82.000210 -109.999900 0.000000 0.000000 -1.000000 0.000000 1.000000 0.000000 1.000000 0.000000 0.000000 32556.dat
0 STEP
1 15 -120.000100 -62.000050 -110.000100 1.000000 -0.000001 0.000001 0.000001 0.000001 -1.000000 0.000001 1.000000 0.000001 32523.dat
0 STEP
1 15 -120.000100 -162.000000 -89.999810 1.000000 -0.000001 0.000001 -0.000001 -0.000001 1.000000 -0.000001 -1.000000 -0.000001 64871.dat
0 STEP
1 0 -120.000000 -22.000160 -80.000060 0.000000 -1.000000 0.000000 0.000000 0.000000 -1.000000 1.000000 0.000000 0.000000 2780.dat
1 0 -120.000000 -62.000040 -79.999980 0.000000 -1.000000 0.000000 0.000000 0.000000 -1.000000 1.000000 0.000000 0.000000 2780.dat
0 STEP
1 16 -120.000000 0.000000 -70.000000 1.000000 0.000000 0.000000 0.000000 1.000000 0.000000 0.000000 0.000000 1.000000 submodel group 2
0 STEP
1 71 -120.000100 -522.000200 -109.999700 0.000000 0.000000 -1.000000 0.000000 1.000002 0.000000 1.000005 0.000000 0.000000 4519.dat
0 STEP
1 71 -120.000100 -522.003100 -79.999620 0.999994 0.000000 0.000001 0.000000 1.000004 0.000000 -0.000001 0.000000 1.000002 59443.dat
0 STEP
1 16 -120.000100 -522.000000 -123.957700 1.000000 0.000000 0.000000 0.000000 0.000000 -1.000000 0.000000 1.000000 0.000000 submodel group 1
0 STEP
1 0 -120.000100 -522.000100 -39.999680 0.000000 0.000003 0.999990 0.000000 0.999995 -0.000004 -1.000002 0.000000 0.000000 3705.dat
0 STEP
1 72 -120.000400 -522.001200 -39.998460 0.000001 0.707106 0.707108 -0.000001 0.707108 -0.707106 -1.000000 0.000000 0.000001 32012.dat
0 STEP
1 71 -120.000200 -522.000100 -9.999680 0.000002 0.000001 0.999990 0.999995 0.000001 -0.000003 -0.000001 1.000002 -0.000001 33299.dat
0 STEP
1 4 -80.002770 -522.000200 20.002520 0.000000 0.000003 -0.999990 0.000000 0.999995 0.000004 1.000002 0.000000 0.000000 62462.dat
0 STEP
1 15 -100.000200 -453.049900 -34.008810 0.000000 1.000000 0.000000 -1.000000 0.000000 0.000000 0.000000 0.000000 1.000000 xt0003.dat
0 STEP
1 0 -100.000000 -54.000000 10.000000 0.000000 -1.000000 0.000000 1.000000 0.000000 0.000000 0.000000 0.000000 1.000000 44309.dat
1 71 -100.000300 -54.000020 9.999820 1.000002 0.000000 0.000000 0.000000 -1.000001 0.000000 0.000000 0.000000 -1.000001 56145.dat
0 STEP
0 NOFILE
0 FILE SubModel Group 2
0 SubModel Group 2
0 Name:  SubModel Group 2
0 Author:  
0 CustomBrick
0 NumOfBricks:  6
1 1 100.000000 -8.000000 10.000020 -1.000000 0.000000 0.000000 0.000000 1.000000 0.000000 0.000000 0.000000 -1.000000 32001.dat
1 1 -100.000000 -8.000000 10.000020 -1.000000 0.000000 0.000000 0.000000 1.000000 0.000000 0.000000 0.000000 -1.000000 32001.dat
1 1 -0.000100 -32.000000 0.000020 -1.000000 0.000000 0.000000 0.000000 1.000000 0.000000 0.000000 0.000000 -1.000000 3703.dat
0 STEP
1 1 -0.000100 -40.000000 0.000020 -1.000000 0.000000 0.000000 0.000000 1.000000 0.000000 0.000000 0.000000 -1.000000 3710.dat
1 1 -0.000100 -48.000000 0.000020 -1.000000 0.000000 0.000000 0.000000 1.000000 0.000000 0.000000 0.000000 -1.000000 3710.dat
0 STEP
1 1 0.000110 -72.000000 0.000020 -1.000000 0.000000 0.000000 0.000000 1.000000 0.000000 0.000000 0.000000 -1.000000 3701.dat
0 STEP
0 NOFILE
0 FILE SubModel Group 1
0 SubModel Group 1
0 Name:  SubModel Group 1
0 Author:  
0 CustomBrick
0 NumOfBricks:  13
1 71 0.000000 -6.000000 0.000000 1.000000 0.000000 0.000000 0.000000 0.000000 1.000000 0.000000 -1.000000 0.000000 3649.dat
1 19 -10.000000 -16.000010 -9.999969 0.000001 0.000001 1.000000 -1.000000 -0.000001 0.000001 0.000001 -1.000000 0.000001 3749.dat
1 19 10.000000 -16.000010 -9.999969 0.000001 0.000001 1.000000 -1.000000 -0.000001 0.000001 0.000001 -1.000000 0.000001 3749.dat
1 19 10.000000 -16.000000 10.000030 0.000001 0.000001 1.000000 -1.000000 -0.000001 0.000001 0.000001 -1.000000 0.000001 3749.dat
1 19 -10.000000 -16.000000 10.000030 0.000001 0.000001 1.000000 -1.000000 -0.000001 0.000001 0.000001 -1.000000 0.000001 3749.dat
0 STEP
1 0 10.000000 -16.000010 -30.000000 0.000000 0.000000 -1.000000 -1.000000 0.000000 0.000000 0.000000 1.000000 0.000000 2780.dat
1 0 30.000000 -16.000000 10.000000 0.000000 0.000000 -1.000000 -1.000000 0.000000 0.000000 0.000000 1.000000 0.000000 2780.dat
1 0 -10.000000 -16.000000 30.000000 0.000000 0.000000 -1.000000 -1.000000 0.000000 0.000000 0.000000 1.000000 0.000000 2780.dat
1 0 -30.000000 -16.000010 -10.000000 0.000000 0.000000 -1.000000 -1.000000 -0.000001 0.000000 0.000000 1.000000 0.000000 2780.dat
0 STEP
1 1 10.000000 -26.000000 10.000060 0.000000 0.000000 1.000000 0.000000 -1.000000 0.000000 1.000000 0.000000 0.000000 6629.dat
1 1 -10.000000 -26.000000 10.000060 -1.000000 0.000000 0.000000 0.000000 -1.000000 0.000000 0.000000 0.000000 1.000000 6629.dat
1 1 -10.000000 -26.000010 -10.000030 0.000000 0.000000 -1.000000 0.000000 -1.000000 0.000000 -1.000000 0.000000 0.000000 6629.dat
1 1 10.000060 -26.000010 -10.000000 1.000000 0.000000 0.000000 0.000000 -1.000000 0.000000 0.000000 0.000000 -1.000000 6629.dat
0 STEP
0 NOFILE
