0 Untitled Model
0 Name:  吊桥
0 Author:  
0 CustomBrick
0 NumOfBricks:  25
1 1 -10.000000 -66.000160 94.000430 -1.000000 0.000000 0.000000 0.000000 1.000002 0.000000 0.000000 0.000000 -1.000002 3709b.dat
0 STEP
1 1 20.000000 -90.000140 -5.999720 0.000000 0.000000 -1.000000 0.000000 1.000002 0.000000 1.000002 0.000000 0.000000 3895.dat
1 71 30.000000 -80.000110 -106.000000 -1.000000 0.000000 0.000000 0.000000 1.000002 0.000000 0.000000 0.000000 -1.000002 3673.dat
0 STEP
1 1 -40.000000 -90.000140 -5.999720 0.000000 0.000000 -1.000000 0.000000 1.000002 0.000000 1.000002 0.000000 0.000000 3895.dat
1 71 -50.000000 -80.000110 -106.000000 -1.000000 0.000000 0.000000 0.000000 1.000002 0.000000 0.000000 0.000000 -1.000002 3673.dat
0 STEP
1 1 -10.000000 -98.000170 94.000430 -1.000000 0.000000 0.000000 0.000000 1.000002 0.000000 0.000000 0.000000 -1.000002 3709b.dat
0 STEP
1 1 -60.000000 -120.000200 -95.999950 0.000000 0.000000 1.000000 -1.000003 0.000000 0.000000 0.000000 -1.000003 0.000000 3895.dat
0 STEP
1 0 -10.000000 -220.000400 -105.999700 1.000000 0.000000 0.000000 0.000000 1.000002 0.000000 0.000000 0.000000 1.000002 3707.dat
1 71 20.840000 -220.000700 -106.000000 0.000000 0.000000 -1.000000 1.000002 0.000000 0.000000 0.000000 -1.000002 0.000000 4185.dat
0 STEP
1 15 20.000000 -107.843400 83.999480 0.000000 0.000000 1.000000 0.000000 1.000002 0.000000 -1.000002 0.000000 0.000000 xt0015.dat
0 STEP
1 1 40.000000 -120.000200 -95.999950 0.000000 0.000000 1.000000 -1.000003 0.000000 0.000000 0.000000 -1.000003 0.000000 3895.dat
0 STEP
1 1 -10.000000 -10.000020 -120.000000 -1.000000 0.000000 0.000000 0.000000 0.000000 -1.000002 0.000000 -1.000002 0.000000 3894.dat
1 1 -10.000000 -10.000010 -144.000100 -1.000000 0.000000 0.000000 0.000000 0.000000 -1.000002 0.000000 -1.000002 0.000000 3894.dat
0 STEP
1 1 -10.000000 -20.000000 -88.000930 1.000000 0.000000 0.000000 0.000000 0.000000 1.000002 0.000000 -1.000002 0.000000 32001.dat
0 STEP
1 1 -10.000000 -9.999980 -40.000820 1.000000 0.000000 0.000000 0.000000 0.000000 1.000000 0.000000 -1.000000 0.000000 3894.dat
1 1 -10.000000 -9.999980 -64.000920 1.000000 0.000000 0.000000 0.000000 0.000000 1.000002 0.000000 -1.000002 0.000000 3894.dat
0 STEP
1 71 60.000000 -220.000700 -106.000000 0.000001 0.000000 -1.000000 0.000000 1.000002 0.000000 1.000002 0.000000 0.000001 3713.dat
0 STEP
1 0 -70.520600 -40.000080 -106.005000 -1.000000 0.000000 0.000000 0.000000 1.000002 0.000000 0.000000 0.000000 -1.000002 3705.dat
1 71 -40.520600 -40.000080 -106.005000 0.000001 0.000000 -1.000000 0.000000 1.000002 0.000000 1.000002 0.000000 0.000001 3713.dat
0 STEP
1 19 -70.000000 -120.000200 -106.000000 -1.000000 0.000001 0.000001 0.000001 0.970297 0.241927 -0.000001 0.241927 -0.970297 3749.dat
1 72 -78.500640 -40.000080 -106.005000 0.000000 0.000000 1.000000 1.000002 0.000000 0.000000 0.000000 1.000002 0.000000 3648b.dat
0 STEP
1 71 -80.079980 -120.000200 -106.000000 0.000000 -0.000002 -1.000000 0.241928 -0.970296 0.000002 -0.970296 -0.241928 0.000000 3649.dat
1 71 -81.250000 -220.000700 -106.000000 0.000000 0.000000 1.000000 1.000002 0.000000 0.000000 0.000000 1.000002 0.000000 3649.dat
0 STEP
1 71 -100.520000 -40.000100 -106.000000 0.000001 -1.000000 0.000001 0.000001 -0.000001 -1.000002 1.000002 0.000001 0.000001 33299.dat
0 STEP
1 4 -130.520000 -80.000080 -106.000000 -1.000000 0.000000 0.000000 0.000000 1.000002 0.000000 0.000000 0.000000 -1.000002 62462.dat
0 STEP
0 STEP
