0 FILE 秋千.io
0 Untitled Model
0 Name:  秋千
0 Author:  
0 CustomBrick
0 NumOfBricks:  33
1 1 129.999800 -48.000000 20.000990 0.000000 0.000000 1.000001 0.000000 1.000000 0.000000 -1.000001 0.000000 0.000000 3894.dat
1 1 130.000000 -24.000000 20.000010 0.000000 0.000000 1.000000 0.000000 1.000000 0.000000 -1.000000 0.000000 0.000000 3702.dat
0 STEP
1 1 129.999800 -72.000000 20.000990 0.000001 0.000000 1.000001 0.000000 1.000000 0.000000 -1.000001 0.000000 0.000001 3701.dat
1 0 119.999800 -62.000000 20.000990 -1.000001 0.000000 0.000000 0.000000 1.000000 0.000000 0.000000 0.000000 -1.000001 2780.dat
0 STEP
1 1 129.999800 -88.000000 20.000990 0.000001 0.000000 1.000001 0.000000 1.000000 0.000000 -1.000001 0.000000 0.000001 3710.dat
1 1 129.999800 -80.000000 20.000990 0.000000 0.000000 1.000001 0.000000 1.000000 0.000000 -1.000001 0.000000 0.000000 3710.dat
0 STEP
1 1 129.999800 -112.000000 20.000990 0.000000 0.000000 1.000001 0.000000 1.000000 0.000000 -1.000001 0.000000 0.000000 3701.dat
1 0 119.999700 -102.000000 20.000990 -1.000001 0.000000 0.000000 0.000000 1.000000 0.000000 0.000000 0.000000 -1.000001 2780.dat
0 STEP
1 1 109.999700 -162.000000 10.000990 0.000000 0.000000 1.000001 1.000000 0.000000 0.000000 0.000000 1.000001 0.000000 3895.dat
0 STEP
1 71 130.209900 -262.000000 20.000010 0.000001 0.000000 -1.000000 0.000000 1.000000 0.000000 1.000000 0.000000 0.000001 3713.dat
1 16 30.000000 -84.000000 20.000000 1.000000 0.000000 0.000000 0.000000 1.000000 0.000000 0.000000 0.000000 1.000000 submodel group 2
0 STEP
1 16 -70.000000 0.000000 20.000000 1.000000 0.000000 0.000000 0.000000 1.000000 0.000000 0.000000 0.000000 1.000000 submodel group 1
0 STEP
1 71 -69.790130 -262.000000 20.000040 0.000001 0.000000 -1.000000 0.000000 1.000000 0.000000 1.000000 0.000000 0.000001 3713.dat
0 STEP
1 71 -89.790230 -262.000000 20.000040 0.000000 0.000000 1.000000 0.000000 1.000000 0.000000 -1.000000 0.000000 0.000000 3649.dat
0 STEP
0 STEP
0 NOFILE
0 FILE SubModel Group 2
0 SubModel Group 2
0 Name:  SubModel Group 2
0 Author:  
0 CustomBrick
0 NumOfBricks:  12
1 1 0.029880 -23.209930 0.000030 1.000000 0.000000 0.000000 0.000000 1.000000 0.000000 0.000000 0.000000 1.000000 32001.dat
0 STEP
1 71 39.929740 -34.150000 0.000020 1.000000 0.000000 0.000001 -0.000001 0.000000 1.000000 0.000000 -1.000000 0.000000 3713.dat
1 0 39.929860 -85.460010 0.000020 0.000000 0.000000 1.000000 1.000000 0.000000 0.000000 0.000000 1.000000 0.000000 3707.dat
0 STEP
1 71 -39.970120 -34.639900 0.000030 1.000000 0.000000 0.000001 -0.000001 0.000000 1.000000 0.000000 -1.000000 0.000000 3713.dat
1 0 -39.970120 -86.640000 0.000030 0.000000 0.000000 1.000000 1.000001 0.000000 0.000000 0.000000 1.000001 0.000000 3707.dat
0 STEP
1 14 39.929860 -10.460010 0.000020 -1.000000 0.000000 0.000000 0.000000 0.000000 -1.000000 0.000000 -1.000000 0.000000 32123a.dat
1 14 -39.970120 -11.639940 0.000030 -1.000000 0.000000 0.000000 0.000000 0.000000 -1.000000 0.000000 -1.000000 0.000000 32123a.dat
0 STEP
1 4 39.929860 -158.000000 0.000020 -1.000000 0.000000 0.000000 0.000000 -0.000001 1.000000 0.000000 1.000000 0.000001 32039.dat
1 4 -39.970120 -158.000000 0.000030 -1.000000 0.000000 0.000000 0.000000 -0.000001 1.000000 0.000000 1.000000 0.000001 32039.dat
0 STEP
1 0 -9.790130 -178.000000 0.000030 -1.000000 0.000000 0.000000 0.000000 1.000000 0.000000 0.000000 0.000000 -1.000000 3708.dat
0 STEP
1 71 60.209840 -178.000000 0.000020 0.000001 0.000000 -1.000000 0.000000 1.000000 0.000000 1.000000 0.000000 0.000001 3713.dat
1 71 -59.790130 -178.000000 0.000030 0.000001 0.000000 -1.000000 0.000000 1.000000 0.000000 1.000000 0.000000 0.000001 3713.dat
0 STEP
0 NOFILE
0 FILE SubModel Group 1
0 SubModel Group 1
0 Name:  SubModel Group 1
0 Author:  
0 CustomBrick
0 NumOfBricks:  9
1 1 -0.000030 -24.000000 0.000030 0.000000 0.000000 1.000000 0.000000 1.000000 0.000000 -1.000000 0.000000 0.000000 3702.dat
0 STEP
1 1 -0.000160 -48.000000 0.000030 0.000000 0.000000 1.000000 0.000000 1.000000 0.000000 -1.000000 0.000000 0.000000 3894.dat
0 STEP
1 1 -0.000150 -72.000000 0.000030 0.000000 0.000000 1.000000 0.000000 1.000000 0.000000 -1.000000 0.000000 0.000000 3701.dat
1 0 9.999860 -62.000000 0.000030 -1.000000 0.000000 0.000000 0.000000 1.000000 0.000000 0.000000 0.000000 -1.000000 2780.dat
0 STEP
1 1 -0.000150 -80.000000 0.000030 0.000000 0.000000 1.000000 0.000000 1.000000 0.000000 -1.000000 0.000000 0.000000 3710.dat
1 1 -0.000150 -88.000000 0.000030 0.000000 0.000000 1.000000 0.000000 1.000000 0.000000 -1.000000 0.000000 0.000000 3710.dat
0 STEP
1 1 -0.000150 -112.000000 0.000030 0.000000 0.000000 1.000000 0.000000 1.000000 0.000000 -1.000000 0.000000 0.000000 3701.dat
1 0 9.999860 -102.000000 0.000030 -1.000000 0.000000 0.000000 0.000000 1.000000 0.000000 0.000000 0.000000 -1.000000 2780.dat
0 STEP
1 1 19.999860 -162.000000 -9.999960 0.000000 0.000000 1.000000 1.000000 0.000000 0.000000 0.000000 1.000000 0.000000 3895.dat
0 STEP
0 NOFILE
