0 FILE 工人.io
0 Untitled Model
0 Name:  工人
0 Author:  
0 CustomBrick
0 NumOfBricks:  88
1 16 100.031400 -28.000000 -59.004650 -1.000000 0.000000 -0.000001 0.000000 1.000000 0.000000 0.000001 0.000000 -1.000000 submodel group 9 copy copy copy
1 0 -62.000220 -118.000000 -17.900020 0.000000 1.000000 0.000000 0.000000 0.000000 1.000000 1.000000 0.000000 0.000000 2780.dat
1 1 -142.000500 -218.000000 -7.900150 -0.599999 -0.000001 0.800001 0.800001 0.000000 0.599999 -0.000001 1.000000 0.000001 6629.dat
0 STEP
1 0 -62.000220 -118.000100 -77.900150 0.000000 -1.000000 0.000000 0.000000 0.000000 1.000000 -1.000000 0.000000 0.000000 2780.dat
1 1 -62.000000 -78.000060 -88.000000 -0.000001 0.000000 1.000000 0.000001 1.000000 0.000000 -1.000000 0.000001 -0.000001 6558.dat
1 0 -62.000000 -98.000060 -45.730040 0.000000 0.000001 1.000000 0.000000 1.000000 -0.000001 -1.000000 0.000000 0.000000 3737.dat
0 STEP
1 1 -61.999910 -98.000060 12.310000 1.000000 -0.000001 -0.000001 0.000001 0.000001 1.000000 -0.000001 -1.000000 0.000001 32140.dat
0 STEP
1 71 -62.000000 -98.000060 33.899960 1.000000 0.000000 0.000001 0.000000 1.000000 0.000000 -0.000001 0.000000 1.000000 3713.dat
1 19 -62.000000 -38.000020 22.310060 -0.000001 1.000000 -0.000001 0.000001 0.000001 1.000000 1.000000 0.000001 -0.000001 3749.dat
0 STEP
1 71 -62.000000 -38.000020 27.310060 1.000000 0.000000 0.000000 0.000000 1.000000 0.000000 0.000000 0.000000 1.000000 4185.dat
1 0 -62.000120 -38.000020 27.310060 -1.000000 0.000000 0.000000 0.000000 1.000000 0.000000 0.000000 0.000000 -1.000000 2815.dat
1 71 -62.000120 -38.000020 37.310060 1.000000 0.000000 0.000000 0.000000 1.000000 0.000000 0.000000 0.000000 1.000000 4185.dat
1 0 -62.000120 -38.000020 37.310060 -1.000000 0.000000 0.000000 0.000000 1.000000 0.000000 0.000000 0.000000 -1.000000 2815.dat
0 STEP
1 71 -142.000300 -218.000000 -47.900020 0.000001 -0.599999 0.800001 0.000000 0.800001 0.599999 -1.000000 0.000000 0.000001 32073.dat
1 71 -190.000300 -153.999900 -47.900220 0.000000 -0.800001 -0.599999 -0.000001 -0.599999 0.800001 -1.000000 0.000000 -0.000001 4519.dat
1 72 -166.000300 -186.000000 -22.920100 0.599999 -0.000001 -0.800001 -0.800001 0.000000 -0.599999 0.000001 1.000000 -0.000001 99773.dat
0 STEP
1 14 -142.000500 -218.000000 -32.900150 0.599999 0.800001 -0.000001 -0.800001 0.599999 0.000000 0.000000 0.000001 1.000000 32123a.dat
1 14 -190.000300 -153.999900 -32.900210 0.599999 0.800001 -0.000001 -0.800001 0.599999 0.000000 0.000000 0.000001 1.000000 32123a.dat
0 STEP
1 4 -126.000300 -206.000000 -47.550050 -0.000001 0.800001 -0.599999 0.000000 0.599999 0.800001 1.000000 0.000001 -0.000001 42003.dat
1 4 -174.000300 -141.999900 -47.900150 0.000000 0.800001 -0.599999 0.000001 0.599999 0.800001 1.000000 0.000000 -0.000001 42003.dat
0 STEP
1 14 -135.210300 -193.720000 -47.550050 0.800001 0.000000 0.599999 0.599999 0.000001 -0.800001 0.000000 1.000000 0.000001 32123a.dat
1 14 -165.000300 -153.999900 -47.550050 0.800001 0.000000 0.599999 0.599999 0.000001 -0.800001 0.000000 1.000000 0.000001 32123a.dat
1 0 -144.000300 -182.000000 -47.550050 -0.599999 -0.800001 0.000000 0.800001 -0.599999 0.000001 -0.000001 0.000000 1.000000 3706.dat
1 71 -150.030300 -173.960000 -47.550110 -0.000001 -0.800001 0.599999 0.000001 -0.599999 -0.800001 1.000000 0.000000 0.000001 4716.dat
0 STEP
1 14 -190.000300 -153.999900 -62.730220 -0.599999 0.800001 0.000000 0.800001 0.599999 -0.000001 -0.000001 0.000000 -1.000000 32123a.dat
1 14 -142.000300 -218.000000 -62.440000 0.599999 0.800001 -0.000001 -0.800001 0.599999 0.000000 0.000000 0.000001 1.000000 32123a.dat
0 STEP
1 0 -182.000200 -197.999900 -49.860420 0.000000 -0.766042 0.642791 0.000000 0.642790 0.766042 -1.000000 0.000000 0.000000 3706.dat
1 14 -182.000200 -197.999900 -33.220400 0.766042 0.642790 0.000000 -0.642791 0.766042 0.000000 0.000000 0.000000 1.000000 32123a.dat
0 STEP
1 72 -182.000200 -197.999900 -48.090340 -0.642791 0.766042 0.000000 -0.766042 -0.642791 0.000000 0.000000 0.000000 1.000000 3648b.dat
1 14 -182.000200 -197.999900 -62.780400 0.766042 0.642791 0.000000 -0.642791 0.766042 0.000000 0.000000 0.000000 1.000000 32123a.dat
0 STEP
1 72 -166.000300 -186.000000 -72.900150 0.599999 -0.000001 -0.800001 -0.800001 0.000000 -0.599999 0.000001 1.000000 -0.000001 99773.dat
0 STEP
1 1 -142.000300 -217.999900 -87.900150 -0.599999 -0.000001 0.800001 0.800001 0.000000 0.599999 -0.000001 1.000000 0.000001 6629.dat
0 STEP
1 1 -62.000000 -98.000080 -108.000000 1.000000 -0.000001 -0.000001 0.000001 0.000001 1.000000 -0.000001 -1.000000 0.000001 32140.dat
0 STEP
1 71 -62.000000 -98.000060 -126.820000 1.000000 0.000000 0.000001 0.000000 1.000000 0.000000 -0.000001 0.000000 1.000000 3713.dat
1 19 -62.000120 -38.000060 -118.000000 0.000001 -1.000000 0.000001 0.000001 0.000001 1.000000 -1.000000 -0.000001 0.000001 3749.dat
0 STEP
1 71 -62.000000 -38.000060 -123.000000 1.000000 0.000000 0.000000 0.000000 1.000000 0.000000 0.000000 0.000000 1.000000 4185.dat
1 0 -62.000120 -38.000060 -123.000000 -1.000000 0.000000 0.000000 0.000000 1.000000 0.000000 0.000000 0.000000 -1.000000 2815.dat
1 71 -62.000000 -38.000050 -133.000000 1.000000 0.000000 0.000000 0.000000 1.000000 0.000000 0.000000 0.000000 1.000000 4185.dat
1 0 -62.000120 -38.000050 -133.000000 -1.000000 0.000000 0.000000 0.000000 1.000000 0.000000 0.000000 0.000000 -1.000000 2815.dat
0 STEP
1 0 -104.000300 -202.000000 -47.550050 -0.599999 0.000000 -0.800001 0.800001 -0.000001 -0.599999 -0.000001 -1.000000 0.000000 2780.dat
0 STEP
1 15 -120.000000 -213.158200 -47.000000 0.000000 0.819152 0.573577 -0.000007 0.573577 -0.819152 -1.000000 -0.000004 0.000006 xt0018.dat
0 STEP
1 71 -182.000200 -197.999900 -7.800350 -0.642791 -0.766042 -0.000001 -0.766042 0.642791 -0.000001 0.000001 0.000000 -1.000000 3713.dat
1 72 -154.000300 -202.000000 -17.920100 -0.000001 0.000000 -1.000000 0.000000 -1.000000 0.000000 -1.000000 0.000000 0.000001 32002.dat
1 72 -178.000300 -170.000000 -17.920100 -0.000001 0.000000 -1.000000 0.000000 -1.000000 0.000000 -1.000000 0.000000 0.000001 32002.dat
0 STEP
1 15 -189.746000 -153.810300 -7.920040 -0.803162 0.000001 -0.595761 -0.595761 -0.000001 0.803162 0.000000 1.000000 0.000001 32524.dat
0 STEP
1 72 -154.000300 -202.000000 -77.900150 0.000001 0.000000 1.000000 0.000000 -1.000000 0.000000 1.000000 0.000000 -0.000001 32002.dat
1 72 -178.000300 -169.999900 -77.900150 0.000001 0.000000 1.000000 0.000000 -1.000000 0.000000 1.000000 0.000000 -0.000001 32002.dat
0 STEP
1 15 -189.745900 -153.810300 -87.900150 -0.803162 0.000001 -0.595761 -0.595761 -0.000001 0.803162 0.000000 1.000000 0.000001 32524.dat
0 STEP
1 71 -182.000200 -197.999900 -88.000320 0.642791 -0.766042 0.000001 0.766042 0.642791 0.000001 -0.000001 0.000000 1.000000 3713.dat
0 STEP
1 71 -182.000200 -197.999900 -107.630400 -0.766042 -0.642790 0.000000 0.642791 -0.766042 0.000000 0.000000 0.000000 1.000000 3649.dat
1 71 -182.000200 -197.999900 12.499700 -0.766042 -0.642790 0.000000 0.642791 -0.766042 0.000000 0.000000 0.000000 1.000000 3649.dat
0 STEP
1 71 -225.491600 -105.620500 -68.080140 0.309015 0.951057 0.000000 -0.951057 0.309015 -0.000001 -0.000001 0.000000 1.000000 3713.dat
1 71 -225.491500 -105.620600 -88.080140 0.000000 -0.309015 0.951057 0.000000 0.951057 0.309015 -1.000000 0.000000 0.000000 4519.dat
0 STEP
1 71 -225.491500 -105.620600 -8.140019 0.000000 -0.390737 0.920502 0.000000 0.920502 0.390737 -1.000000 0.000000 0.000000 4519.dat
1 71 -225.491600 -105.620600 -28.140020 0.390737 0.920502 0.000000 -0.920502 0.390737 -0.000001 -0.000001 0.000000 1.000000 3713.dat
0 STEP
1 16 -220.000000 -12.000000 -130.000000 0.951056 -0.309019 -0.000001 0.309019 0.951056 0.000000 0.000001 0.000000 1.000000 submodel group 2
0 STEP
1 16 -220.000000 -24.000000 30.000000 0.920505 -0.390732 -0.000001 0.390732 0.920505 0.000000 0.000001 0.000000 1.000000 submodel group 1
0 STEP
1 0 138.000000 -78.000100 -77.899890 0.000000 -1.000000 0.000000 0.000000 0.000000 1.000000 -1.000000 0.000000 0.000000 2780.dat
1 19 137.999800 -98.000060 -77.900020 0.000001 -1.000000 0.000001 0.000001 0.000001 1.000000 -1.000000 -0.000001 0.000001 3749.dat
0 STEP
1 0 137.999600 -78.000060 -17.899900 0.000000 1.000000 0.000000 0.000000 0.000000 1.000000 1.000000 0.000000 0.000000 2780.dat
1 19 137.999800 -98.000060 -17.899900 -0.000001 1.000000 -0.000001 0.000001 0.000001 1.000000 1.000000 0.000001 -0.000001 3749.dat
0 STEP
1 1 137.999900 -98.000060 -87.900020 1.000000 -0.000001 -0.000001 0.000001 0.000001 1.000000 -0.000001 -1.000000 0.000001 32140.dat
1 1 137.999800 -98.000080 -7.900020 1.000000 -0.000001 -0.000001 0.000001 0.000001 1.000000 -0.000001 -1.000000 0.000001 32140.dat
0 STEP
1 19 157.999700 -38.000020 2.100100 -0.000001 1.000000 -0.000001 0.000001 0.000001 1.000000 1.000000 0.000001 -0.000001 3749.dat
1 19 157.999800 -38.000060 -97.899890 -0.000001 1.000000 -0.000001 -0.000001 -0.000001 -1.000000 -1.000000 -0.000001 0.000001 3749.dat
0 STEP
1 0 157.999800 -38.000030 22.358100 0.000000 1.000000 0.000000 1.000000 0.000000 0.000001 0.000001 0.000000 -1.000000 30391.dat
1 71 157.999700 -38.000000 22.099860 1.000003 0.000000 0.000000 0.000000 -1.000003 0.000000 0.000000 0.000000 -1.000000 55982.dat
1 0 157.999700 -38.000060 -118.156700 0.000000 -1.000000 0.000000 1.000000 0.000000 0.000001 -0.000001 0.000000 1.000000 30391.dat
1 71 157.999800 -38.000060 -117.899900 -1.000000 0.000000 0.000000 0.000000 -1.000000 0.000000 0.000000 0.000000 1.000000 55982.dat
0 STEP
1 19 137.999800 -118.000000 -77.899890 0.000001 -1.000000 0.000001 0.000001 0.000001 1.000000 -1.000000 -0.000001 0.000001 3749.dat
1 19 137.999700 -118.000000 -17.899900 -0.000001 1.000000 -0.000001 0.000001 0.000001 1.000000 1.000000 0.000001 -0.000001 3749.dat
0 STEP
1 1 137.999700 -198.000100 -7.899900 0.000000 0.000000 1.000000 1.000000 0.000000 0.000000 0.000000 1.000000 0.000000 32009.dat
1 19 97.999680 -198.000000 -17.899900 -0.000001 1.000000 -0.000001 -0.000001 -0.000001 -1.000000 -1.000000 -0.000001 0.000001 3749.dat
0 STEP
1 19 97.999790 -198.000100 -77.899890 -0.000001 1.000000 -0.000001 0.000001 0.000001 1.000000 1.000000 0.000001 -0.000001 3749.dat
1 4 97.999680 -198.000100 -47.899840 -1.000000 0.000000 -0.000001 0.000000 -1.000000 0.000000 0.000000 0.000000 1.000000 32034.dat
0 STEP
1 1 137.999800 -198.000100 -87.899890 0.000000 0.000000 1.000000 1.000000 0.000000 0.000000 0.000000 1.000000 0.000000 32009.dat
0 STEP
0 STEP
0 NOFILE
0 FILE SubModel Group 9 Copy Copy Copy
0 SubModel Group 9 Copy Copy Copy
0 Name:  SubModel Group 9 Copy Copy Copy
0 Author:  
0 CustomBrick
0 NumOfBricks:  3
1 72 10.000000 -1.128810 -10.000000 1.000000 0.000000 0.000000 0.000000 0.000000 -1.000000 0.000000 1.000000 0.000000 dch003.dat
1 71 -27.466620 -79.717990 29.427020 1.000000 0.000000 0.000000 0.000000 0.000000 -1.000000 0.000000 1.000000 0.000000 dch004.dat
1 25 7.837010 13.484720 -9.965000 1.000000 0.000000 0.000000 0.000000 0.000000 -1.000000 0.000000 1.000000 0.000000 dch005.dat
0 NOFILE
0 FILE SubModel Group 2
0 SubModel Group 2
0 Name:  SubModel Group 2
0 Author:  
0 CustomBrick
0 NumOfBricks:  6
1 0 -35.117240 -16.490640 2.371500 0.999999 0.000001 -0.000001 -0.000001 -0.000001 -0.999999 -0.000001 1.000002 -0.000001 30391.dat
1 71 -35.118810 -16.747210 2.371250 0.000001 -1.000000 -0.000001 -0.000001 0.000001 -1.000000 1.000000 0.000001 -0.000001 55982.dat
0 STEP
1 0 -35.118940 -95.457260 2.371120 -0.000001 -1.000000 -0.000001 -1.000000 0.000001 0.000001 -0.000001 0.000001 -1.000000 3707.dat
1 0 -34.153450 -87.341500 1.919880 -0.000003 -0.999999 -0.000003 -0.999999 0.000003 -0.000002 0.000002 0.000003 -1.000000 32013.dat
0 STEP
1 19 -35.117080 -185.457500 12.369580 0.000001 -0.999999 0.000000 0.000002 0.000000 0.999999 -1.000000 0.000000 0.000002 3749.dat
1 4 -35.119100 -165.457200 2.370980 0.000000 1.000000 0.000001 -0.000001 0.000000 1.000003 1.000000 0.000000 0.000001 32039.dat
0 STEP
0 NOFILE
0 FILE SubModel Group 1
0 SubModel Group 1
0 Name:  SubModel Group 1
0 Author:  
0 CustomBrick
0 NumOfBricks:  6
1 0 -37.399980 -16.539400 2.500580 0.999999 0.000001 0.000000 0.000000 0.000000 -1.000000 -0.000001 1.000002 0.000000 30391.dat
1 71 -37.401000 -16.796020 2.499730 0.000001 -1.000000 -0.000001 0.000000 0.000000 -1.000000 1.000000 0.000001 0.000000 55982.dat
0 STEP
1 0 -37.378610 -96.795160 2.499590 0.000000 -1.000000 0.000000 -1.000000 0.000000 0.000000 0.000000 0.000000 -1.000000 3707.dat
1 0 -36.946760 -72.986430 1.860010 0.000005 1.000000 0.000001 -1.000000 0.000005 0.000000 0.000000 -0.000001 1.000000 32013.dat
0 STEP
1 19 -37.378570 -188.465400 -7.500310 0.000001 0.999999 0.000000 0.000001 0.000000 1.000000 1.000000 0.000000 -0.000001 3749.dat
1 4 -37.378620 -168.465200 2.499700 0.000000 0.999999 0.000000 0.000000 0.000000 1.000000 1.000000 0.000000 0.000000 32039.dat
0 STEP
0 NOFILE
