0 Untitled Model
0 Name:  磨光器
0 Author:  
0 CustomBrick
0 NumOfBricks:  18
1 1 -54.000000 -70.710010 1.000000 1.000000 0.000000 0.000000 0.000000 0.000000 1.000000 0.000000 -1.000000 0.000000 3703.dat
1 1 -54.000000 -50.710010 0.999990 1.000000 0.000000 0.000000 0.000000 0.000000 1.000000 0.000000 -1.000000 0.000000 3703.dat
0 STEP
1 1 -174.000000 -60.710020 -22.998990 -1.000000 0.000000 0.000000 0.000000 0.000000 -1.000000 0.000000 -1.000000 0.000000 3709b.dat
1 1 -174.000000 -60.710010 9.000950 -1.000000 0.000000 0.000000 0.000000 0.000000 -1.000000 0.000000 -1.000000 0.000000 3709b.dat
0 STEP
1 0 86.000000 -60.000020 -8.999990 0.000000 0.144358 0.989526 1.000000 0.000000 0.000000 0.000000 0.989525 -0.144359 3705.dat
1 71 86.000090 -91.999980 -8.999990 -0.989526 0.144358 -0.000001 -0.000001 0.000000 1.000000 0.144359 0.989525 0.000000 3650c.dat
0 STEP
1 72 86.000090 -30.000020 -8.999990 0.989526 -0.144358 0.000000 0.000000 0.000000 1.000000 -0.144359 -0.989525 0.000000 3648b.dat
0 STEP
1 0 94.451690 -20.000020 -20.337980 0.000000 0.000000 -1.000000 -1.000000 -0.000001 0.000000 0.000000 1.000000 0.000000 2780.dat
1 0 74.661200 -20.000020 -17.451030 0.000000 0.000000 -1.000000 -1.000000 -0.000001 0.000000 0.000000 1.000000 0.000000 2780.dat
0 STEP
1 0 77.548400 -20.000020 2.338970 0.000000 0.000000 -1.000000 -1.000000 -0.000001 0.000000 0.000000 1.000000 0.000000 2780.dat
1 0 97.338900 -20.000000 -0.547980 0.000000 0.000000 -1.000000 -1.000000 -0.000001 0.000000 0.000000 1.000000 0.000000 2780.dat
0 STEP
1 71 86.000090 -10.000020 -8.999020 0.989526 -0.144358 0.000000 0.000000 0.000000 1.000000 -0.144359 -0.989525 0.000000 3649.dat
0 STEP
1 71 6.000000 -31.240020 -8.999020 1.000000 0.000000 0.000001 0.000001 0.000000 -1.000000 0.000000 1.000000 0.000000 3713.dat
1 0 6.000000 -79.460010 -8.999990 0.000000 0.000000 1.000000 1.000000 0.000000 0.000000 0.000000 1.000000 0.000000 3706.dat
0 STEP
1 71 6.000000 -91.019920 -8.999990 1.000000 0.000000 0.000000 0.000000 0.000000 0.999998 0.000000 -0.999998 0.000000 3649.dat
0 STEP
1 71 6.000000 -112.040000 -8.999010 1.000000 0.000000 0.000001 0.000001 0.000000 -1.000000 0.000000 1.000000 0.000000 3713.dat
0 STEP
1 71 6.000000 -126.890000 -8.999980 0.000001 -0.000001 -1.000000 0.000001 -1.000000 0.000001 -1.000000 -0.000001 -0.000001 33299.dat
1 4 -34.000120 -156.889900 -8.999980 0.000000 0.000000 1.000000 1.000000 0.000000 0.000000 0.000000 1.000000 0.000000 62462.dat
0 STEP
0 STEP
