0 FILE 2-扫地车.io
0 Untitled Model
0 Name:  2-扫地车
0 Author:  
0 CustomBrick
0 NumOfBricks:  88
1 1 -170.000800 -63.999970 -170.000700 0.000000 0.000000 1.000000 0.000000 1.000000 0.000000 -1.000000 0.000000 0.000000 3703.dat
1 0 -141.490900 -54.000000 -30.000090 -1.000002 0.000000 0.000000 0.000000 1.000000 0.000000 0.000000 0.000000 -1.000002 3707.dat
1 71 -191.490900 -54.000020 -30.000210 -0.000001 0.000000 1.000002 0.000000 1.000000 0.000000 -1.000002 0.000000 -0.000001 3713.dat
1 16 -170.000000 -48.000000 -210.000000 1.000000 0.000000 0.000000 0.000000 0.965925 0.258821 0.000000 -0.258821 0.965925 submodel group 5
0 STEP
1 19 -157.830700 -54.000000 -210.000400 -0.000001 0.000000 1.000002 0.258822 -0.965926 0.000000 0.965928 0.258821 0.000001 6589.dat
0 STEP
1 1 -110.000000 -63.999980 -170.000000 0.000001 0.000000 1.000000 0.000000 1.000000 0.000000 -1.000000 0.000000 0.000001 3703.dat
0 STEP
1 1 -141.270800 -39.999980 -30.000210 1.000002 0.000000 0.000000 0.000000 1.000000 0.000000 0.000000 0.000000 1.000002 3709b.dat
1 1 -141.270900 -71.999980 -30.000090 1.000002 0.000000 0.000000 0.000000 1.000000 0.000000 0.000000 0.000000 1.000002 3709b.dat
0 STEP
1 71 -90.010760 -54.000120 -210.001000 0.000001 0.000000 -1.000003 0.258822 0.965926 0.000000 0.965929 -0.258821 0.000001 3713.dat
1 71 -90.050670 -54.000020 -30.000150 0.000001 0.000000 -1.000002 0.000000 -1.000000 0.000000 -1.000002 0.000000 -0.000001 3713.dat
0 STEP
1 0 -181.270800 -54.000000 -110.000200 -1.000002 0.000000 0.000000 0.000000 1.000000 0.000000 0.000000 0.000000 -1.000002 2780.dat
1 0 -181.270800 -54.000000 -130.000400 -1.000002 0.000000 0.000000 0.000000 1.000000 0.000000 0.000000 0.000000 -1.000002 2780.dat
1 0 -100.000900 -54.000020 -110.000300 -1.000002 0.000000 0.000000 0.000000 1.000000 0.000000 0.000000 0.000000 -1.000002 2780.dat
1 0 -100.000900 -54.000020 -130.000400 -1.000002 0.000000 0.000000 0.000000 1.000000 0.000000 0.000000 0.000000 -1.000002 2780.dat
0 STEP
1 16 -140.000000 -36.000000 -270.000000 1.000000 0.000000 0.000000 0.000000 1.000000 0.000000 0.000000 0.000000 1.000000 submodel group 4
0 STEP
1 1 -140.000700 -71.999980 -290.000600 1.000002 0.000000 0.000000 0.000000 1.000000 0.000000 0.000000 0.000000 1.000002 3709b.dat
1 1 -140.000800 -71.999980 -250.000600 1.000002 0.000000 0.000000 0.000000 1.000000 0.000000 0.000000 0.000000 1.000002 3709b.dat
0 STEP
1 1 -140.000700 -71.999980 -180.000400 1.000002 0.000000 0.000000 0.000000 1.000000 0.000000 0.000000 0.000000 1.000002 3710.dat
1 1 -140.000800 -71.999980 -160.000400 1.000002 0.000000 0.000000 0.000000 1.000000 0.000000 0.000000 0.000000 1.000002 3710.dat
1 1 -150.000800 -80.000000 -270.000500 0.000000 0.000000 -1.000002 0.000000 1.000000 0.000000 1.000002 0.000000 0.000000 3710.dat
1 1 -130.000500 -80.000000 -270.000600 0.000000 0.000000 -1.000002 0.000000 1.000000 0.000000 1.000002 0.000000 0.000000 3710.dat
0 STEP
1 1 -191.271000 -114.000000 -110.000300 -0.000001 -1.000002 0.000001 0.000001 0.000001 1.000000 -1.000002 0.000001 0.000001 32140.dat
0 STEP
1 4 -181.270800 -114.000000 -110.000200 -1.000004 0.000000 0.000000 0.000000 1.000000 0.000000 0.000000 0.000000 -1.000004 32062.dat
0 STEP
1 71 -161.270800 -114.002800 -110.000300 0.000001 0.000000 -1.000002 0.000000 1.000000 0.000000 1.000002 0.000000 0.000001 59443.dat
0 STEP
1 4 -141.270600 -114.000000 -110.000400 -1.000004 0.000000 0.000000 0.000000 1.000000 0.000000 0.000000 0.000000 -1.000004 32062.dat
0 STEP
1 71 -121.272300 -114.002800 -110.001200 0.000001 0.000000 -1.000004 0.000000 1.000000 0.000000 1.000004 0.000000 0.000001 59443.dat
0 STEP
1 4 -100.571200 -114.000000 -110.000300 -1.000002 0.000000 0.000000 0.000000 1.000000 0.000000 0.000000 0.000000 -1.000002 32062.dat
0 STEP
1 1 -90.571300 -114.000000 -110.000300 -0.000001 -1.000002 0.000001 0.000001 0.000001 1.000000 -1.000002 0.000001 0.000001 32140.dat
0 STEP
1 0 -220.321300 -53.999840 -209.999900 0.000000 0.000000 1.000002 -0.965926 -0.258822 0.000000 0.258821 -0.965928 0.000000 44309.dat
1 71 -220.321300 -53.999950 -210.000300 0.000000 0.000000 -1.000004 0.258822 0.965926 0.000000 0.965931 -0.258821 0.000000 56145.dat
1 0 -221.490900 -53.999980 -30.000210 0.000000 0.000000 1.000000 -1.000000 0.000000 0.000000 0.000000 -1.000000 0.000000 44309.dat
1 71 -221.491200 -53.999980 -30.000020 0.000000 0.000000 -1.000002 0.000000 1.000000 0.000000 1.000002 0.000000 0.000000 56145.dat
1 0 -59.191390 -54.000000 -210.000500 0.000000 0.000000 -1.000000 -0.965926 0.258821 0.000000 0.258821 0.965926 0.000000 44309.dat
1 71 -59.190900 -53.999920 -210.000200 0.000000 0.000000 1.000002 -0.258822 0.965926 0.000000 -0.965928 -0.258821 0.000000 56145.dat
1 0 -58.661960 -54.000030 -30.000450 0.000000 0.000000 -1.000000 -1.000000 0.000000 0.000000 0.000000 1.000000 0.000000 44309.dat
1 71 -58.660740 -54.000020 -30.000090 0.000000 0.000000 1.000002 0.000000 1.000000 0.000000 -1.000002 0.000000 0.000000 56145.dat
0 STEP
1 16 -140.000000 0.000000 -360.000000 1.000000 0.000000 0.000000 0.000000 1.000000 0.000000 0.000000 0.000000 1.000000 submodel group 1
0 STEP
1 4 -190.000700 -53.999960 -290.000400 1.000000 0.000001 -0.000001 -0.000001 -0.000001 -0.999998 -0.000001 0.999998 -0.000001 32054.dat
1 4 -190.000800 -53.999940 -310.000700 1.000000 0.000001 -0.000001 -0.000001 -0.000001 -1.000000 -0.000001 1.000000 -0.000001 32054.dat
1 4 -90.000740 -54.000020 -310.000800 -1.000002 -0.000001 0.000001 0.000001 0.000001 1.000000 -0.000001 1.000002 -0.000001 32054.dat
1 4 -90.002090 -53.999020 -290.006200 -1.000002 -0.000001 0.000001 0.000001 0.000001 1.000011 -0.000001 1.000013 -0.000001 32054.dat
0 STEP
1 72 -140.001500 -154.000500 -390.007900 0.930562 0.366139 0.000000 0.000000 0.000000 1.000000 0.366140 -0.930563 0.000000 3647.dat
1 71 -140.001500 -154.000600 -330.007700 1.000002 0.000000 0.000000 0.000000 0.000000 1.000000 0.000000 -1.000002 0.000000 3649.dat
0 STEP
0 NOFILE
0 FILE SubModel Group 5
0 SubModel Group 5
0 Name:  SubModel Group 5
0 Author:  
0 CustomBrick
0 NumOfBricks:  2
1 0 29.679310 -5.795440 -1.553400 -1.000002 0.000000 0.000000 0.000000 1.000000 0.000000 0.000000 0.000000 -1.000002 3707.dat
1 71 -21.331240 -5.795430 -1.553190 -0.000001 0.000000 1.000002 0.000000 1.000000 0.000000 -1.000002 0.000000 -0.000001 3713.dat
0 NOFILE
0 FILE SubModel Group 4
0 SubModel Group 4
0 Name:  SubModel Group 4
0 Author:  
0 CustomBrick
0 NumOfBricks:  9
1 1 0.000110 -3.999980 -20.000000 1.000000 0.000000 0.000000 0.000000 1.000000 0.000000 0.000000 0.000000 1.000000 3709b.dat
1 1 0.000110 -27.999980 -30.000000 1.000000 0.000000 0.000000 0.000000 1.000000 0.000000 0.000000 0.000000 1.000000 3700.dat
1 1 0.000110 -27.999980 -10.000010 1.000000 0.000000 0.000001 0.000000 1.000000 0.000000 -0.000001 0.000000 1.000000 3700.dat
0 STEP
1 1 -0.000700 -3.999970 19.999310 1.000002 0.000000 0.000000 0.000000 1.000000 0.000000 0.000000 0.000000 1.000002 3709b.dat
1 1 -0.000720 -27.999970 29.999340 -1.000000 0.000000 0.000000 0.000000 1.000000 0.000000 0.000000 0.000000 -1.000000 3700.dat
1 1 -0.000720 -27.999970 9.999290 -1.000000 0.000000 0.000000 0.000000 1.000000 0.000000 0.000000 0.000000 -1.000000 3700.dat
0 STEP
1 0 -0.000700 -18.000000 -9.890630 0.000000 0.000000 1.000000 0.000000 1.000000 0.000000 -1.000000 0.000000 0.000000 3706.dat
1 19 -0.000810 -18.000000 43.109380 -1.000000 0.000000 -0.000001 0.000000 -1.000000 0.000000 -0.000001 0.000000 1.000000 6589.dat
0 STEP
1 19 0.000160 -17.999970 -43.530010 1.000000 0.000000 0.000001 0.000000 -1.000000 0.000000 0.000001 0.000000 -1.000000 6589.dat
0 STEP
0 NOFILE
0 FILE SubModel Group 1
0 SubModel Group 1
0 Name:  SubModel Group 1
0 Author:  
0 CustomBrick
0 NumOfBricks:  37
1 15 -0.001630 -93.999640 29.992190 -1.000003 0.000001 -0.000001 0.000001 1.000012 0.000001 0.000001 0.000001 -1.000013 32524.dat
1 71 -0.001510 -113.999900 29.992310 0.000000 -1.000005 0.000000 1.000014 0.000000 0.000000 0.000000 0.000000 1.000013 32073.dat
1 71 -0.001510 -113.999900 29.992310 0.000000 1.000003 0.000000 -0.000001 0.000000 1.000012 1.000013 0.000000 0.000001 3713.dat
1 16 0.000000 -60.000000 -30.000000 0.930560 0.000000 -0.366139 0.000000 1.000000 0.000000 0.366139 0.000000 0.930560 submodel group 3
0 STEP
1 14 -0.001510 -78.819490 29.992190 1.000005 0.000000 0.000000 0.000000 0.000000 1.000014 0.000000 -1.000013 0.000000 32123a.dat
1 71 0.001800 -63.999860 -30.008760 0.366143 -0.930563 0.000000 -0.000001 0.000000 1.000011 -0.930571 -0.366140 -0.000001 59443.dat
0 STEP
1 19 -0.002370 -70.999280 29.992190 0.000000 1.000003 0.000000 -0.000001 0.000000 1.000012 1.000013 0.000000 0.000001 6589.dat
1 4 -0.001390 -43.998900 -30.007960 0.000000 -0.930563 -0.366143 1.000012 0.000000 0.000000 0.000000 -0.366140 0.930572 32062.dat
0 STEP
1 1 -0.001750 -114.000000 69.992450 0.000000 0.000000 -1.000003 -1.000012 0.000001 0.000000 0.000000 1.000013 0.000000 32556.dat
1 1 -0.001750 -113.999900 89.992220 0.000000 0.000000 -1.000003 -1.000012 0.000001 0.000000 0.000000 1.000013 0.000000 32556.dat
0 STEP
1 4 -0.001750 -114.000000 69.992450 -1.000003 0.000000 0.000000 0.000000 0.000000 1.000012 0.000000 1.000013 0.000000 42003.dat
0 STEP
1 0 -0.181690 -113.999700 49.993860 1.000003 0.000000 0.000000 0.000000 1.000012 0.000000 0.000000 0.000000 1.000013 3706.dat
0 STEP
1 72 -14.851870 -113.999700 49.993800 0.000000 0.000000 1.000002 0.000000 -1.000011 0.000000 1.000012 0.000000 0.000000 6575.dat
1 72 14.818410 -113.999700 49.993800 0.000000 0.000000 1.000002 0.000000 -1.000011 0.000000 1.000012 0.000000 0.000000 6575.dat
0 STEP
1 71 -30.022040 -113.999900 49.994110 -0.000001 0.000000 1.000003 0.000000 -1.000015 0.000000 1.000015 0.000000 0.000001 3713.dat
1 71 30.048320 -113.999900 49.994050 0.000001 -0.000001 -1.000003 0.000000 -1.000015 0.000000 -1.000015 0.000000 -0.000001 3713.dat
0 STEP
1 15 -0.001630 -134.000200 29.992620 -1.000003 0.000001 -0.000001 0.000001 1.000012 0.000001 0.000001 0.000001 -1.000013 32524.dat
0 STEP
1 1 -50.182100 -113.999800 49.994170 0.000001 1.000003 -0.000001 0.000001 0.000001 1.000012 1.000013 -0.000001 -0.000001 32140.dat
1 1 49.998160 -113.999900 49.993860 0.000001 1.000003 -0.000001 0.000001 0.000001 1.000012 1.000013 -0.000001 -0.000001 32140.dat
0 STEP
1 71 -0.008830 -32.597780 -30.008520 -0.366143 -0.930562 0.000000 0.000000 0.000000 -1.000011 0.930572 -0.366140 0.000000 3649.dat
0 STEP
1 19 -24.257140 -22.598380 -50.298370 0.000000 -0.930565 -0.366142 1.000014 0.000001 -0.000001 0.000001 -0.366140 0.930573 3749.dat
1 19 24.253640 -22.598360 -9.718080 0.000001 -0.930565 -0.366142 1.000014 0.000001 -0.000001 0.000001 -0.366140 0.930572 3749.dat
1 19 20.281350 -22.597890 -54.264260 0.000001 -0.453991 0.891008 1.000000 0.000001 0.000000 -0.000001 0.891009 0.453992 3749.dat
1 19 -20.298640 -22.597880 -5.752810 -0.000001 0.453989 -0.891009 1.000000 0.000001 0.000000 0.000001 -0.891007 -0.453990 3749.dat
0 STEP
1 4 52.168820 -12.598190 1.266300 -0.930564 0.000000 -0.366143 0.000000 -1.000014 0.000000 -0.366140 0.000000 0.930572 32062.dat
1 4 33.903560 -12.597870 -80.994880 -0.453993 0.000001 0.891007 0.000000 -1.000000 0.000001 0.891010 0.000000 0.453992 32062.dat
1 4 -33.922300 -12.597870 20.976560 0.453991 -0.000001 -0.891006 0.000000 -1.000000 0.000001 -0.891011 0.000000 -0.453991 32062.dat
1 4 -29.386290 -12.597820 12.068480 0.000001 -0.891001 -0.453991 1.000000 0.000001 0.000000 0.000000 -0.453988 0.891008 32039.dat
1 4 42.864500 -12.598140 -2.394840 0.000000 -0.366144 0.930564 1.000013 0.000000 0.000000 0.000000 0.930572 0.366141 32039.dat
1 4 29.368890 -12.597840 -72.085580 -0.000001 0.891000 0.453993 1.000000 0.000001 0.000000 0.000000 0.453990 -0.891010 32039.dat
1 4 80.085970 -12.598160 12.250550 0.930565 -0.366142 0.000000 -0.000001 -0.000001 -1.000014 0.366140 0.930572 -0.000001 32054.dat
1 4 47.523180 -12.597900 -107.725500 0.453992 0.891008 -0.000001 -0.000001 -0.000001 -1.000000 -0.891011 0.453991 0.000000 32054.dat
1 4 -47.540620 -12.597880 47.708160 -0.453990 -0.891008 0.000001 -0.000001 -0.000001 -1.000000 0.891009 -0.453989 0.000000 32054.dat
1 16 -60.000000 0.000000 -60.000000 0.930560 0.000000 -0.366139 0.000000 1.000000 0.000000 0.366139 0.000000 0.930560 submodel group 2
0 STEP
0 NOFILE
0 FILE SubModel Group 3
0 SubModel Group 3
0 Name:  SubModel Group 3
0 Author:  
0 CustomBrick
0 NumOfBricks:  2
1 71 -0.004440 -53.999900 -0.006810 0.000000 -1.000003 0.000000 1.000012 0.000000 0.000000 0.000000 0.000000 1.000012 32073.dat
1 71 -0.004280 -53.999900 -0.006740 0.000000 1.000003 0.000000 -0.000001 0.000000 1.000012 1.000012 0.000000 0.000001 3713.dat
0 NOFILE
0 FILE SubModel Group 2
0 SubModel Group 2
0 Name:  SubModel Group 2
0 Author:  
0 CustomBrick
0 NumOfBricks:  3
1 4 16.812960 -12.598110 -4.058670 0.000000 0.000001 -1.000004 1.000013 0.000000 0.000000 0.000000 -1.000013 -0.000001 32039.dat
1 4 6.813180 -12.598080 -4.058940 -1.000004 0.000000 0.000000 0.000000 -1.000014 0.000000 -0.000001 0.000000 1.000012 32062.dat
0 STEP
1 4 -23.187140 -12.598130 -4.058920 -1.000004 -0.000001 0.000001 0.000001 0.000001 1.000014 -0.000001 1.000013 -0.000001 32054.dat
0 STEP
0 NOFILE
