0 Untitled Model
0 Name:  竹蜻蜓
0 Author:  
0 CustomBrick
0 NumOfBricks:  15
1 0 -161.001500 -120.000000 1.994950 0.000000 0.000000 -1.000000 1.000009 0.000000 0.000000 0.000000 -1.000008 0.000000 3708.dat
0 STEP
1 4 -161.000500 -250.000300 1.999830 -1.000000 0.000000 0.000000 0.000000 0.000000 1.000000 0.000000 1.000000 0.000000 32034.dat
1 0 -161.001500 -360.002300 1.995440 0.000000 0.000000 -1.000000 1.000009 0.000000 0.000000 0.000000 -1.000008 0.000000 3737.dat
0 STEP
1 19 -161.001500 -470.003500 1.994950 1.000000 0.000000 0.000000 0.000000 1.000009 0.000000 0.000000 0.000000 1.000008 32556.dat
1 0 -161.001500 -470.003500 1.994950 -1.000000 -0.000002 -0.000002 0.000002 0.000002 -1.000009 0.000002 -1.000008 -0.000002 32013.dat
0 STEP
1 1 -141.000300 -480.003500 1.994980 0.000000 0.000000 1.000000 0.000000 1.000009 0.000000 -1.000008 0.000000 0.000000 3701.dat
1 1 -181.001500 -480.003500 1.994950 0.000000 0.000000 1.000000 0.000000 1.000009 0.000000 -1.000008 0.000000 0.000000 3701.dat
0 STEP
1 1 -191.001500 -504.003500 -8.005150 1.000000 0.000000 0.000000 0.000000 1.000000 0.000000 0.000000 0.000000 1.000000 3702.dat
1 1 -111.001500 -504.003600 11.994860 1.000000 0.000000 0.000000 0.000000 1.000000 0.000000 0.000000 0.000000 1.000000 3702.dat
0 STEP
1 0 -251.001600 -494.003600 1.994860 0.000000 0.000000 -1.000000 0.000000 1.000000 0.000000 1.000000 0.000000 0.000000 2780.dat
1 0 -231.001600 -494.003400 1.994860 0.000000 0.000000 -1.000000 0.000000 1.000000 0.000000 1.000000 0.000000 0.000000 2780.dat
0 STEP
1 1 -291.001600 -504.003600 11.994920 1.000000 0.000000 0.000000 0.000000 1.000000 0.000000 0.000000 0.000000 1.000000 3702.dat
0 STEP
1 0 -71.001590 -494.003600 1.994860 0.000000 0.000000 -1.000000 0.000000 1.000000 0.000000 1.000000 0.000000 0.000000 2780.dat
1 0 -51.001600 -494.003400 1.994860 0.000000 0.000000 -1.000000 0.000000 1.000000 0.000000 1.000000 0.000000 0.000000 2780.dat
0 STEP
1 1 -11.001590 -504.003300 -8.005139 1.000000 0.000000 0.000000 0.000000 1.000000 0.000000 0.000000 0.000000 1.000000 3702.dat
0 STEP
0 STEP
