0 FILE 34-推车.io
0 Untitled Model
0 Name:  34-推车
0 Author:  
0 CustomBrick
0 NumOfBricks:  95
1 15 -50.000000 -121.354900 -80.000000 0.000001 0.000001 -1.000000 -1.000000 0.000001 -0.000001 0.000001 1.000000 0.000001 64871.dat
1 1 -189.999600 -121.355100 -79.999840 0.000000 1.000002 0.000000 0.000000 0.000000 1.000000 1.000002 0.000000 0.000000 32556.dat
1 0 89.999950 -121.354800 -90.000140 0.000000 0.000000 1.000000 0.000000 1.000000 0.000000 -1.000000 0.000000 0.000000 2780.dat
1 0 49.999900 -121.264000 -90.000170 0.000000 0.000000 1.000000 0.000000 1.000000 0.000000 -1.000000 0.000000 0.000000 2780.dat
0 STEP
1 1 150.181400 -41.491140 -100.000200 -0.798636 -0.000001 -0.601814 0.601814 0.000000 -0.798636 0.000000 -1.000000 0.000000 6629.dat
0 STEP
1 0 69.999940 -121.309400 -110.000200 0.000000 0.000000 1.000000 0.000000 1.000000 0.000000 -1.000000 0.000000 0.000000 2780.dat
1 0 138.145000 -57.463870 -110.000200 0.000000 0.000000 1.000000 0.000000 1.000000 0.000000 -1.000000 0.000000 0.000000 2780.dat
0 STEP
1 4 -189.999600 -121.355000 -109.999700 0.000000 0.000000 1.000000 0.000000 1.000000 0.000000 -1.000000 0.000000 0.000000 62462.dat
1 1 150.181400 -41.491120 -120.000200 -0.798636 -0.000001 -0.601814 0.601814 0.000000 -0.798636 0.000000 -1.000000 0.000000 6629.dat
0 STEP
1 1 -189.999600 -121.355000 -140.000000 0.000000 1.000002 0.000000 0.000000 0.000000 -1.000000 -1.000002 0.000000 0.000000 32556.dat
1 0 49.999950 -121.264000 -130.000100 0.000000 0.000000 1.000000 0.000000 1.000000 0.000000 -1.000000 0.000000 0.000000 2780.dat
1 0 89.999900 -121.354800 -130.000200 0.000000 0.000000 1.000000 0.000000 1.000000 0.000000 -1.000000 0.000000 0.000000 2780.dat
0 STEP
1 15 -50.000030 -121.264100 -140.000000 0.000001 0.000001 -1.000000 -1.000000 0.000001 -0.000001 0.000001 1.000000 0.000001 64871.dat
0 STEP
1 0 -129.999700 -121.355000 -69.999900 0.000000 0.000000 1.000000 0.000000 1.000000 0.000000 -1.000000 0.000000 0.000000 2780.dat
1 0 -129.999700 -121.264100 -150.000000 0.000000 0.000000 1.000000 0.000000 1.000000 0.000000 -1.000000 0.000000 0.000000 2780.dat
0 STEP
1 15 -269.999800 -121.355100 -59.999720 0.000001 0.000001 -1.000000 -1.000000 0.000001 -0.000001 0.000001 1.000000 0.000001 64871.dat
1 15 -269.999700 -121.355100 -160.000000 0.000001 0.000001 -1.000000 -1.000000 0.000001 -0.000001 0.000001 1.000000 0.000001 64871.dat
0 STEP
1 16 -450.000000 -24.000000 -100.000000 1.000000 0.000000 0.000000 0.000000 1.000000 0.000000 0.000000 0.000000 1.000000 submodel group 5
0 STEP
1 4 -369.999700 -121.355200 -59.999620 -0.000001 1.000000 -0.000001 -0.000001 -0.000001 -1.000000 -1.000000 -0.000001 0.000001 32054.dat
1 4 -329.999700 -121.355200 -59.999660 -0.000001 1.000000 -0.000001 -0.000001 -0.000001 -1.000000 -1.000000 -0.000001 0.000001 32054.dat
1 4 -369.999600 -121.355200 -159.999900 -0.000001 1.000000 -0.000001 0.000001 0.000001 1.000000 1.000000 0.000001 -0.000001 32054.dat
1 4 -329.999600 -121.355200 -159.999900 -0.000001 1.000000 -0.000001 0.000001 0.000001 1.000000 1.000000 0.000001 -0.000001 32054.dat
0 STEP
1 16 -430.000000 -108.000000 -110.000000 0.992546 0.000000 -0.121870 0.000000 1.000000 0.000000 0.121870 0.000000 0.992546 submodel group 3
0 STEP
1 4 -409.999100 -121.355200 -40.000880 0.000001 -1.000000 0.000000 0.000001 0.000001 1.000000 -1.000000 -0.000001 0.000001 32054.dat
1 4 -389.998700 -121.355200 -40.001000 0.000001 -1.000000 0.000000 0.000001 0.000001 1.000000 -1.000000 -0.000001 0.000001 32054.dat
1 4 -409.999300 -121.355200 -180.000400 0.000001 -1.000000 0.000001 -0.000001 -0.000001 -1.000000 1.000000 0.000001 -0.000001 32054.dat
1 4 -389.999000 -121.355100 -180.000400 0.000001 -1.000000 0.000001 -0.000001 -0.000001 -1.000000 1.000000 0.000001 -0.000001 32054.dat
0 STEP
1 16 -250.000000 -108.000000 -110.000000 1.000000 0.000000 0.000000 0.000000 1.000000 0.000000 0.000000 0.000000 1.000000 submodel group 1
0 STEP
1 4 -229.999800 -121.354800 -180.000000 0.000001 -1.000000 0.000001 -0.000001 -0.000001 -1.000001 1.000001 0.000001 -0.000001 32054.dat
1 4 -209.999200 -121.354800 -180.000000 0.000001 -1.000000 0.000001 -0.000001 -0.000001 -1.000001 1.000001 0.000001 -0.000001 32054.dat
1 4 -229.999500 -121.354800 -40.000180 0.000001 -1.000000 0.000000 0.000001 0.000001 1.000001 -1.000001 -0.000001 0.000001 32054.dat
1 4 -209.998900 -121.354800 -40.000210 0.000001 -1.000000 0.000000 0.000001 0.000001 1.000001 -1.000001 -0.000001 0.000001 32054.dat
0 STEP
0 NOFILE
0 FILE SubModel Group 5
0 SubModel Group 5
0 Name:  SubModel Group 5
0 Author:  
0 CustomBrick
0 NumOfBricks:  28
1 1 0.000210 -83.355190 -9.999790 0.000000 0.000000 -1.000004 0.000000 1.000000 0.000000 1.000004 0.000000 0.000000 3709b.dat
1 1 120.000200 -83.355190 -9.999790 0.000001 0.000000 -1.000004 0.000000 1.000000 0.000000 1.000004 0.000000 0.000001 3709b.dat
1 1 60.000280 -107.355200 -39.999900 1.000003 0.000000 0.000000 0.000000 1.000000 0.000000 0.000000 0.000000 1.000003 3702.dat
1 15 0.001340 -168.585300 -10.383110 -0.999991 0.000000 0.000000 0.000000 1.000000 0.000000 0.000000 0.000000 -0.999991 yuan.dat
0 STEP
1 1 60.001800 -107.355200 20.000660 1.000000 0.000000 0.000000 0.000000 1.000000 0.000000 0.000000 0.000000 1.000000 3702.dat
0 STEP
1 0 0.000490 -97.355190 30.000620 0.000000 0.000000 1.000003 0.000000 1.000000 0.000000 -1.000003 0.000000 0.000000 2780.dat
1 19 20.000490 -97.355190 30.000560 0.000001 0.000001 1.000003 0.000001 -1.000000 0.000001 1.000003 0.000001 -0.000001 3749.dat
1 0 0.000090 -97.355190 -49.999800 0.000000 0.000000 1.000003 0.000000 1.000000 0.000000 -1.000003 0.000000 0.000000 2780.dat
1 19 20.000210 -97.355190 -49.999900 0.000001 0.000001 1.000003 -0.000001 1.000000 -0.000001 -1.000003 -0.000001 0.000001 3749.dat
0 STEP
1 1 -10.000000 -107.355200 -9.999790 0.000000 0.000000 1.000003 0.000000 1.000000 0.000000 -1.000003 0.000000 0.000000 3700.dat
1 1 130.000200 -107.355200 -9.999790 0.000000 0.000000 1.000003 0.000000 1.000000 0.000000 -1.000003 0.000000 0.000000 3700.dat
0 STEP
1 15 -9.999790 -115.355200 -9.999900 0.000000 0.000000 -1.000003 0.000000 1.000000 0.000000 1.000003 0.000000 0.000000 2431.dat
1 15 130.000200 -115.355200 -9.999790 0.000000 0.000000 -1.000003 0.000000 1.000000 0.000000 1.000003 0.000000 0.000000 2431.dat
0 STEP
1 0 60.000220 -97.355190 -9.999790 -1.000007 0.000000 0.000000 0.000000 1.000000 0.000000 0.000000 0.000000 -1.000003 3737.dat
1 72 150.002400 -97.355190 -9.999900 0.000000 0.000000 1.000003 0.000000 -1.000000 0.000000 1.000003 0.000000 0.000000 3647.dat
0 STEP
1 71 -28.000120 -97.355190 -9.999790 0.000001 0.000000 -1.000003 1.000000 0.000000 0.000001 0.000000 -1.000003 0.000000 3650c.dat
0 STEP
1 1 19.999700 -97.355110 40.000500 0.000000 0.000000 -1.000003 1.000000 0.000000 0.000000 0.000000 -1.000003 0.000000 6629.dat
0 STEP
1 71 -39.999580 -97.355190 40.000500 0.000000 0.000000 -1.000003 0.000000 1.000000 0.000000 1.000003 0.000000 0.000000 4519.dat
1 72 -39.999000 -97.355190 19.998220 1.000002 0.000000 0.000000 0.000000 -1.000000 0.000000 0.000000 0.000000 -1.000002 3647.dat
0 STEP
1 71 -39.999580 -97.355190 60.000610 1.000003 0.000000 0.000000 0.000000 1.000000 0.000000 0.000000 0.000000 1.000003 3649.dat
0 STEP
1 71 -104.000500 -65.355090 20.000440 0.000000 0.258819 -0.965928 0.000000 0.965927 0.258819 1.000003 0.000000 0.000000 32073.dat
1 71 -104.001400 -65.354930 60.001080 -0.965928 -0.258819 -0.000001 0.258818 -0.965926 0.000000 -0.000001 0.000000 0.999999 94925.dat
0 STEP
1 71 -104.000500 -65.355090 20.000440 -0.965929 0.258819 0.000000 0.258819 0.965926 0.000000 0.000000 0.000000 -1.000003 3713.dat
0 STEP
1 0 -104.000200 -65.354600 -9.999499 0.965929 0.258820 0.000000 -0.258819 0.965926 0.000000 0.000000 0.000000 1.000003 44309.dat
1 71 -104.000400 -65.355190 -9.999610 -0.258820 -0.965931 0.000000 -0.965926 0.258819 0.000000 0.000000 0.000000 -1.000003 56145.dat
0 STEP
1 71 -104.001300 -65.357860 -29.999600 -0.965929 0.258819 0.000000 0.258819 0.965926 0.000000 0.000000 0.000000 -1.000003 59443.dat
0 STEP
1 19 -104.000600 -65.355110 -49.999600 0.000000 0.258820 -0.965929 -0.000001 0.965926 0.258819 1.000003 0.000001 0.000000 3749.dat
0 STEP
1 1 20.000210 -97.355190 -59.999800 0.000000 0.000000 -1.000003 1.000000 0.000000 0.000000 0.000000 -1.000003 0.000000 6629.dat
0 STEP
0 NOFILE
0 FILE SubModel Group 3
0 SubModel Group 3
0 Name:  SubModel Group 3
0 Author:  
0 CustomBrick
0 NumOfBricks:  18
1 0 19.851580 -73.355090 -2.438690 0.121871 0.000000 -0.992550 0.000000 1.000000 0.000000 0.992550 0.000000 0.121871 3705.dat
1 4 -0.004550 -73.355090 -0.040950 -0.121871 -0.992550 0.000000 0.000000 0.000000 1.000000 -0.992550 0.121871 0.000000 42003.dat
0 STEP
1 14 21.679720 -73.355090 12.449680 0.000000 -0.992550 -0.121871 -1.000000 0.000000 0.000000 0.000000 0.121871 -0.992550 32123a.dat
1 14 18.015020 -73.355090 -17.396160 0.000000 -0.992551 -0.121871 -1.000001 0.000000 0.000000 0.000000 0.121871 -0.992550 32123a.dat
0 STEP
1 71 24.726500 -73.358000 37.263560 0.992550 0.000000 0.121872 0.000000 1.000000 0.000000 -0.121872 0.000000 0.992550 59443.dat
1 71 14.976680 -73.358000 -42.140320 0.992550 0.000000 0.121872 0.000000 1.000000 0.000000 -0.121872 0.000000 0.992550 59443.dat
0 STEP
1 4 27.163890 -73.355090 57.114420 0.121871 0.000000 -0.992550 0.000000 1.000000 0.000000 0.992550 0.000000 0.121871 32062.dat
1 4 12.539440 -73.355090 -61.990960 0.121871 0.000000 -0.992550 0.000000 1.000000 0.000000 0.992550 0.000000 0.121871 32062.dat
0 STEP
1 1 28.382580 -73.355090 67.039840 0.992550 -0.121872 -0.000002 0.000002 0.000001 1.000000 -0.121872 -0.992550 0.000001 32140.dat
1 1 11.320760 -73.355090 -71.916210 0.992550 -0.121872 -0.000002 0.000002 0.000001 1.000000 -0.121872 -0.992551 0.000001 32140.dat
0 STEP
1 72 -0.004550 -83.355090 -0.040950 0.000000 -0.992550 -0.121871 -1.000000 0.000000 0.000001 -0.000001 0.121871 -0.992551 32002.dat
0 STEP
1 16 -20.000000 -36.000000 0.000000 1.000000 0.000000 0.000000 0.000000 1.000000 0.000000 0.000000 0.000000 1.000000 submodel group 4
0 STEP
1 15 -19.850940 -84.750000 2.437400 -0.992546 0.000000 -0.121870 0.000000 1.000000 0.000000 0.121870 0.000000 -0.992546 yuan04.dat
0 STEP
1 14 -19.856770 -89.705100 2.396410 1.000000 0.000000 0.000000 0.000000 0.000000 -1.000000 0.000000 1.000000 0.000000 32123a.dat
0 STEP
1 4 -19.856670 -104.625200 22.396540 0.000000 -1.000000 -0.000001 1.000000 0.000000 0.000000 0.000000 -0.000001 1.000000 32039.dat
0 STEP
1 71 -19.860420 -104.625500 42.393870 0.000000 0.000000 -1.000000 0.000000 1.000000 0.000000 1.000000 0.000000 0.000000 4519.dat
0 STEP
0 NOFILE
0 FILE SubModel Group 4
0 SubModel Group 4
0 Name:  SubModel Group 4
0 Author:  
0 CustomBrick
0 NumOfBricks:  3
1 0 0.143230 -38.625200 2.396410 -0.000001 1.000000 0.000000 1.000000 0.000001 0.000000 0.000000 0.000000 -1.000000 3705.dat
1 71 0.143220 -9.275300 2.396310 1.000000 0.000000 0.000001 -0.000001 0.000000 1.000000 0.000000 -1.000000 0.000000 3650c.dat
0 STEP
1 14 0.143230 -22.285300 2.396410 -1.000000 0.000000 0.000000 0.000000 0.000000 -1.000000 0.000000 -1.000000 0.000000 32123a.dat
0 STEP
0 NOFILE
0 FILE SubModel Group 1
0 SubModel Group 1
0 Name:  SubModel Group 1
0 Author:  
0 CustomBrick
0 NumOfBricks:  20
1 15 -19.999300 -84.585300 -0.382500 -0.999993 0.000000 0.000000 0.000000 1.000000 0.000000 0.000000 0.000000 -0.999994 yuan.dat
1 0 20.000410 -73.355090 -0.000500 0.000000 0.000000 -1.000004 0.000000 1.000001 0.000000 1.000005 0.000000 0.000000 3705.dat
1 4 0.000310 -73.355090 -0.040500 0.000000 -1.000004 0.000000 0.000000 0.000000 1.000000 -1.000005 0.000000 0.000000 42003.dat
0 STEP
1 14 20.000410 -73.354890 -15.070300 0.000000 -1.000005 0.000000 -1.000002 0.000000 0.000000 0.000000 0.000000 -1.000005 32123a.dat
1 14 20.000500 -73.355090 14.999470 0.000000 -1.000004 0.000000 -1.000000 0.000000 0.000000 0.000000 0.000000 -1.000005 32123a.dat
0 STEP
1 71 20.000310 -73.357890 -40.000400 1.000004 0.000000 0.000001 0.000000 1.000000 0.000000 -0.000001 0.000000 1.000005 59443.dat
1 71 20.000580 -73.358000 39.999580 1.000004 0.000000 0.000001 0.000000 1.000000 0.000000 -0.000001 0.000000 1.000005 59443.dat
0 STEP
1 4 20.000410 -73.355000 -60.000200 0.000000 0.000000 -1.000004 0.000000 1.000000 0.000000 1.000005 0.000000 0.000000 32062.dat
1 4 20.000700 -73.355090 59.999680 0.000000 0.000000 -1.000004 0.000000 1.000000 0.000000 1.000005 0.000000 0.000000 32062.dat
0 STEP
1 1 20.000700 -73.355090 -70.000200 1.000005 -0.000001 -0.000002 0.000002 0.000001 1.000000 -0.000001 -1.000005 0.000001 32140.dat
1 1 20.000780 -73.355400 70.000240 1.000004 -0.000001 -0.000002 0.000002 0.000001 0.999997 -0.000001 -1.000001 0.000001 32140.dat
0 STEP
1 72 0.000310 -83.355090 -0.040400 0.000000 -1.000004 0.000000 -1.000000 -0.000001 0.000001 -0.000001 0.000000 -1.000005 32002.dat
0 STEP
1 16 -20.000000 -12.000000 0.000000 1.000000 0.000000 0.000000 0.000000 1.000000 0.000000 0.000000 0.000000 1.000000 submodel group 2
0 STEP
1 15 -20.000000 -84.750000 0.000000 -1.000000 0.000000 0.000000 0.000000 1.000000 0.000000 0.000000 0.000000 -1.000000 yuan04.dat
0 STEP
1 14 -20.000210 -89.705100 -0.040710 1.000000 0.000000 0.000000 0.000000 0.000000 -1.000001 0.000000 1.000001 0.000000 32123a.dat
0 STEP
1 4 -20.000400 -104.625100 19.959090 0.000000 -1.000000 -0.000001 1.000000 0.000000 0.000000 0.000000 -0.000001 1.000001 32039.dat
0 STEP
1 71 -20.004000 -104.625400 39.956460 0.000000 0.000000 -1.000000 0.000000 1.000000 0.000000 1.000001 0.000000 0.000000 4519.dat
0 STEP
0 NOFILE
0 FILE SubModel Group 2
0 SubModel Group 2
0 Name:  SubModel Group 2
0 Author:  
0 CustomBrick
0 NumOfBricks:  4
1 71 -0.000310 -52.625120 -0.040790 0.000000 -1.000000 0.000000 1.000001 0.000000 0.000000 0.000000 0.000000 1.000001 32073.dat
1 71 -0.000210 -13.354900 -0.040790 0.999993 0.000000 0.000000 0.000000 0.000000 1.000000 0.000000 -0.999994 0.000000 3650c.dat
0 STEP
1 71 -0.000400 -31.354900 -0.040790 0.000000 0.999993 0.000000 -0.000001 0.000000 1.000000 0.999994 0.000000 0.000001 3713.dat
0 STEP
1 14 -0.000310 -46.285100 -0.040710 -1.000000 0.000000 0.000000 -0.000001 0.000001 -1.000000 0.000000 -1.000001 -0.000001 32123a.dat
0 STEP
0 NOFILE
