0 FILE BLK008电动旋转器_Copy.io
0 Untitled Model
0 Name:  BLK008电动旋转器_Copy
0 Author:  
0 CustomBrick
0 NumOfBricks:  82
1 1 -149.999800 -9.999900 10.000020 -0.000001 -1.000000 -0.000001 -1.000000 0.000001 -0.000001 0.000001 0.000001 -1.000000 64871.dat
1 0 -139.999800 -9.999990 -9.999949 -1.000000 0.000000 0.000000 0.000000 1.000000 0.000000 0.000000 0.000000 -1.000000 2780.dat
1 0 -139.999800 -9.999990 30.000010 -1.000000 0.000000 0.000000 0.000000 1.000000 0.000000 0.000000 0.000000 -1.000000 2780.dat
0 STEP
1 1 -129.999900 -50.000000 10.000010 0.000000 -1.000000 0.000000 0.000000 0.000000 1.000000 -1.000000 0.000000 0.000000 60484.dat
0 STEP
1 15 -130.000000 -9.999949 -130.000000 0.000000 -1.000000 0.000000 1.000000 0.000000 0.000000 0.000000 0.000000 1.000000 55615.dat
1 15 -130.000000 -9.999990 150.000000 0.000000 -1.000000 0.000000 -1.000000 0.000000 0.000000 0.000000 0.000000 -1.000000 55615.dat
0 STEP
1 1 9.999820 -9.999929 170.000300 -0.000001 -0.000001 1.000000 -1.000000 0.000001 -0.000001 -0.000001 -1.000000 -0.000001 64871.dat
0 STEP
1 15 150.000000 -10.000040 150.000100 0.000000 1.000000 0.000000 1.000000 0.000000 0.000000 0.000000 0.000000 -1.000000 55615.dat
0 STEP
1 1 9.999869 -9.999880 -149.999900 -0.000001 -0.000001 1.000000 -1.000000 0.000001 -0.000001 -0.000001 -1.000000 -0.000001 64871.dat
0 STEP
1 15 150.000000 -9.999980 -130.000000 0.000000 1.000000 0.000000 -1.000000 0.000000 0.000000 0.000000 0.000000 1.000000 55615.dat
0 STEP
1 16 -10.000000 0.000000 10.000000 1.000000 0.000000 0.000000 0.000000 1.000000 0.000000 0.000000 0.000000 1.000000 submodel group 2
0 STEP
1 16 150.000000 0.000000 10.000000 1.000000 0.000000 0.000000 0.000000 1.000000 0.000000 0.000000 0.000000 1.000000 submodel group 1
0 STEP
1 71 150.000000 -230.000400 10.499960 0.000001 0.000000 -1.000000 -1.000000 0.000000 -0.000001 0.000000 1.000000 0.000000 3713.dat
0 STEP
1 0 130.000000 -170.000700 9.999969 -1.000000 0.000000 0.000000 0.000000 -1.000000 0.000000 0.000000 0.000000 1.000000 4519.dat
1 71 109.999800 -170.000700 9.999929 0.000000 0.000000 1.000000 0.000000 -1.000000 0.000000 1.000000 0.000000 0.000000 3647.dat
0 STEP
1 15 141.859800 -169.996900 9.999969 0.000000 0.000000 1.000000 0.000000 1.000000 0.000000 -1.000000 0.000000 0.000000 dx0001.dat
0 STEP
1 16 330.859700 -99.996890 -104.000000 0.000000 0.000000 -1.000000 0.000000 1.000000 0.000000 1.000000 0.000000 0.000000 submodel group 9 copy copy copy
0 STEP
0 STEP
0 NOFILE
0 FILE SubModel Group 2
0 SubModel Group 2
0 Name:  SubModel Group 2
0 Author:  
0 CustomBrick
0 NumOfBricks:  56
1 1 80.000200 -230.000500 -0.000160 -0.000001 -1.000000 -0.000001 0.000001 0.000001 -1.000000 1.000000 -0.000001 0.000001 64871.dat
1 1 90.000240 -290.000300 -0.000080 1.000000 0.000000 0.000000 0.000000 0.000000 1.000000 0.000000 -1.000000 0.000000 43093.dat
0 STEP
1 0 94.999850 -260.000500 -0.000090 0.000000 1.000000 0.000000 0.000000 0.000000 1.000000 1.000000 0.000000 0.000000 32449.dat
0 STEP
1 0 104.999900 -260.000200 -0.000090 0.000000 1.000000 0.000000 0.000000 0.000000 1.000000 1.000000 0.000000 0.000000 32449.dat
0 STEP
1 0 109.999900 -230.000400 -0.000040 1.000000 0.000000 0.000000 0.000000 0.000000 -1.000000 0.000000 1.000000 0.000000 3706.dat
0 STEP
1 71 59.999700 -230.000400 0.499820 0.000001 0.000000 -0.999999 -1.000000 0.000000 -0.000001 0.000000 1.000000 0.000000 3713.dat
0 STEP
1 71 119.499800 -230.000400 -0.000130 0.000000 0.000000 1.000000 -1.000000 0.000000 0.000000 0.000000 -1.000000 0.000000 3649.dat
0 STEP
1 16 30.000000 -312.000000 0.000000 1.000000 0.000000 0.000000 0.000000 1.000000 0.000000 0.000000 0.000000 1.000000 submodel group 4
1 16 30.000000 -24.000000 0.000000 1.000000 0.000000 0.000000 0.000000 1.000000 0.000000 0.000000 0.000000 1.000000 submodel group 5
0 STEP
1 71 100.000100 -110.000800 0.499970 0.000001 0.000000 -1.000000 -1.000000 0.000000 -0.000001 0.000000 1.000000 0.000000 3713.dat
0 STEP
1 71 100.000100 -350.000500 0.499940 0.000001 0.000000 -1.000000 -1.000000 0.000000 -0.000001 0.000000 1.000000 0.000000 3713.dat
0 STEP
1 16 -40.000000 -96.000000 0.000000 1.000000 0.000000 0.000000 0.000000 1.000000 0.000000 0.000000 0.000000 1.000000 submodel group 3
0 STEP
1 71 -59.999840 -350.000500 -0.500060 -0.000001 0.000000 1.000000 -1.000000 0.000000 -0.000001 0.000000 -1.000000 0.000000 3713.dat
1 71 -59.999900 -110.000800 -0.500070 -0.000001 0.000000 1.000000 -1.000000 0.000000 -0.000001 0.000000 -1.000000 0.000000 3713.dat
0 STEP
1 15 -80.000040 -230.000800 -0.000130 0.000001 1.000001 0.000001 -0.000001 -0.000001 1.000001 1.000001 -0.000001 0.000001 32524.dat
0 STEP
1 0 -89.999930 -170.000700 0.000030 -1.000000 0.000000 0.000000 0.000000 0.000000 1.000000 0.000000 1.000000 0.000000 2780.dat
1 0 -89.999930 -290.000700 0.000030 -1.000000 0.000000 0.000000 0.000000 0.000000 1.000000 0.000000 1.000000 0.000000 2780.dat
0 STEP
1 1 -100.000000 -150.000500 0.000090 0.000001 1.000000 0.000001 0.000001 0.000001 -1.000001 -1.000000 0.000001 -0.000001 64871.dat
0 STEP
1 1 -110.000000 -270.000700 -0.000020 -1.000001 0.000000 0.000000 0.000000 0.000000 1.000000 0.000000 1.000000 0.000000 43093.dat
0 STEP
1 0 -115.000100 -270.000700 -0.000070 0.000001 1.000001 0.000001 -0.000001 -0.000001 1.000000 1.000001 -0.000001 0.000001 6632.dat
0 STEP
1 0 -125.000100 -270.000700 -0.000070 0.000001 1.000001 0.000001 -0.000001 -0.000001 1.000000 1.000001 -0.000001 0.000001 6632.dat
0 STEP
1 0 -109.999900 -50.000760 0.000030 -1.000000 0.000000 0.000000 0.000000 0.000000 1.000000 0.000000 1.000000 0.000000 2780.dat
1 0 -109.999900 -10.000810 0.000030 -1.000000 0.000000 0.000000 0.000000 0.000000 1.000000 0.000000 1.000000 0.000000 2780.dat
0 STEP
0 NOFILE
0 FILE SubModel Group 4
0 SubModel Group 4
0 Name:  SubModel Group 4
0 Author:  
0 CustomBrick
0 NumOfBricks:  14
1 0 -9.999800 -38.000460 -0.000060 -1.000000 0.000000 0.000000 0.000000 0.000000 1.000000 0.000000 1.000000 0.000000 60485.dat
1 71 -30.000020 -38.000460 -0.500060 0.000001 0.000000 -1.000000 1.000000 0.000000 0.000001 0.000000 -1.000000 0.000000 3713.dat
0 STEP
1 71 -14.999940 -38.000460 -0.000060 0.000000 0.000000 1.000000 0.000000 1.000000 0.000000 -1.000000 0.000000 0.000000 32123a.dat
0 STEP
1 71 0.000040 -58.000460 -0.000070 1.000000 0.000000 0.000000 0.000000 0.000001 -1.000000 0.000000 1.000000 0.000001 32039.dat
0 STEP
1 71 15.000090 -38.000460 -0.000060 0.000000 0.000000 1.000000 0.000000 1.000000 0.000000 -1.000000 0.000000 0.000000 32123a.dat
0 STEP
1 71 30.000130 -38.000460 -0.500060 0.000001 0.000000 -1.000000 1.000000 0.000000 0.000001 0.000000 -1.000000 0.000000 3713.dat
0 STEP
1 72 0.000030 -98.000640 -0.000060 0.000000 0.000000 1.000000 0.000000 1.000000 0.000000 -1.000000 0.000000 0.000000 6553.dat
0 STEP
1 0 0.000040 -98.000640 -0.000040 0.000000 0.000000 -1.000000 0.000000 1.000000 0.000000 1.000000 0.000000 0.000000 4519.dat
0 STEP
1 1 0.000040 -98.000640 19.999970 1.000000 0.000001 -0.000001 -0.000001 0.000001 -1.000000 -0.000001 1.000000 0.000001 60483.dat
0 STEP
1 1 0.000060 -97.375640 -20.000090 0.000000 0.000000 1.000000 0.000000 -1.000000 0.000000 1.000000 0.000000 0.000000 6536.dat
0 STEP
1 1 -0.000800 -118.000500 -20.000100 -1.000000 0.000000 0.000000 0.000000 0.000000 1.000000 0.000000 1.000000 0.000000 6558.dat
0 STEP
1 71 -20.000750 -118.000500 -20.000150 0.000000 1.000000 0.000000 0.000000 0.000000 -1.000000 -1.000000 0.000000 0.000000 18654.dat
1 71 19.999220 -118.000500 -20.000100 0.000000 1.000000 0.000000 0.000000 0.000000 -1.000000 -1.000000 0.000000 0.000000 18654.dat
0 STEP
1 14 -50.000020 -38.000400 -0.000060 0.000000 0.000000 1.000000 -1.000000 0.000000 0.000000 0.000000 -1.000000 0.000000 3648b.dat
0 STEP
0 NOFILE
0 FILE SubModel Group 5
0 SubModel Group 5
0 Name:  SubModel Group 5
0 Author:  
0 CustomBrick
0 NumOfBricks:  14
1 72 0.000100 -26.000710 -0.000070 0.000000 0.000000 1.000000 0.000000 -1.000000 0.000000 1.000000 0.000000 0.000000 6553.dat
0 STEP
1 0 0.000110 -26.000710 -0.000040 0.000000 0.000000 -1.000000 0.000000 -1.000000 0.000000 -1.000000 0.000000 0.000000 4519.dat
0 STEP
1 1 0.000110 -26.000760 -20.000020 1.000000 0.000001 -0.000001 0.000001 -0.000001 1.000000 0.000001 -1.000000 -0.000001 60483.dat
1 1 0.000100 -26.625720 19.999940 0.000000 0.000000 1.000000 0.000000 1.000000 0.000000 -1.000000 0.000000 0.000000 6536.dat
0 STEP
1 1 -0.000850 -6.000730 19.999960 -1.000000 0.000000 0.000000 0.000000 0.000000 -1.000000 0.000000 -1.000000 0.000000 6558.dat
0 STEP
1 71 -20.000800 -6.000730 19.999960 0.000000 1.000000 0.000000 0.000000 0.000000 1.000000 1.000000 0.000000 0.000000 18654.dat
1 71 19.999160 -6.000730 19.999960 0.000000 1.000000 0.000000 0.000000 0.000000 1.000000 1.000000 0.000000 0.000000 18654.dat
0 STEP
1 71 0.000110 -66.000770 -0.000070 1.000000 0.000000 0.000000 0.000000 -0.000001 1.000001 0.000000 -1.000000 -0.000001 32039.dat
0 STEP
1 0 -9.999880 -86.000800 -0.000070 -1.000000 0.000000 0.000000 0.000000 0.000000 -1.000000 0.000000 -1.000000 0.000000 60485.dat
0 STEP
1 71 15.000140 -86.000800 -0.000070 0.000000 0.000000 1.000000 0.000000 -1.000000 0.000000 1.000000 0.000000 0.000000 32123a.dat
0 STEP
1 71 30.000190 -86.000800 0.499930 0.000001 0.000000 -1.000000 -1.000001 0.000000 -0.000001 0.000000 1.000000 0.000000 3713.dat
0 STEP
1 71 -14.999880 -86.000800 -0.000070 0.000000 0.000000 1.000000 0.000000 -1.000000 0.000000 1.000000 0.000000 0.000000 32123a.dat
0 STEP
1 71 -29.999960 -86.000800 0.499930 0.000001 0.000000 -1.000000 -1.000001 0.000000 -0.000001 0.000000 1.000000 0.000000 3713.dat
0 STEP
1 14 -49.999950 -86.000900 -0.000070 0.000000 0.000000 1.000000 1.000000 0.000000 0.000000 0.000000 1.000000 0.000000 3648b.dat
0 STEP
0 NOFILE
0 FILE SubModel Group 3
0 SubModel Group 3
0 Name:  SubModel Group 3
0 Author:  
0 CustomBrick
0 NumOfBricks:  8
1 1 0.000250 -154.000600 -0.000160 -0.000001 -1.000000 -0.000001 0.000001 0.000001 -1.000000 1.000000 -0.000001 0.000001 64871.dat
1 19 10.000100 -194.000700 -0.000060 1.000000 0.000001 -0.000001 -0.000001 0.784223 -0.620479 0.000000 0.620479 0.784223 3749.dat
0 STEP
1 14 20.000240 -194.000700 -0.000070 0.000000 0.000000 1.000001 0.620479 0.784224 0.000000 -0.784224 0.620479 0.000000 3648b.dat
0 STEP
1 0 -29.999820 -134.000800 -0.000130 -1.000001 0.000000 0.000000 0.000000 1.000000 0.000000 0.000000 0.000000 -1.000001 3706.dat
1 19 10.000210 -74.000700 -0.000070 1.000001 0.000001 -0.000001 -0.000001 0.374607 -0.927184 0.000000 0.927184 0.374606 3749.dat
0 STEP
1 14 19.999880 -134.000800 -0.000090 0.000000 0.000000 1.000001 0.000000 -1.000000 0.000000 1.000000 0.000000 0.000000 3648b.dat
1 14 20.000240 -74.000800 -0.000070 0.000000 0.000000 1.000000 0.927184 0.374607 0.000000 -0.374607 0.927183 0.000000 3648b.dat
0 STEP
1 71 -20.000130 -134.000900 0.499810 0.000001 0.000000 -1.000000 -1.000000 0.000000 -0.000001 0.000000 1.000000 0.000000 3713.dat
0 STEP
0 NOFILE
0 FILE SubModel Group 1
0 SubModel Group 1
0 Name:  SubModel Group 1
0 Author:  
0 CustomBrick
0 NumOfBricks:  9
1 1 -20.000110 -150.000500 0.000070 0.000001 1.000001 0.000001 0.000001 0.000001 -1.000001 -1.000001 0.000001 -0.000001 64871.dat
1 0 -10.000110 -190.000700 -0.000020 -1.000000 0.000000 0.000000 0.000000 0.000000 1.000000 0.000000 1.000000 0.000000 2780.dat
1 0 -10.000000 -150.000700 -0.000020 -1.000000 0.000000 0.000000 0.000000 0.000000 1.000000 0.000000 1.000000 0.000000 2780.dat
0 STEP
1 0 -9.999889 -50.000740 -0.000020 -1.000000 0.000000 0.000000 0.000000 0.000000 1.000000 0.000000 1.000000 0.000000 2780.dat
1 0 -10.000000 -10.000770 0.000030 -1.000000 0.000000 0.000000 0.000000 0.000000 1.000000 0.000000 1.000000 0.000000 2780.dat
0 STEP
1 1 0.000110 -49.999980 -0.000040 0.000000 -1.000000 0.000000 0.000000 0.000000 1.000000 -1.000000 0.000000 0.000000 60484.dat
0 STEP
1 0 10.000110 -9.999980 -20.000050 -1.000000 0.000000 0.000000 0.000000 1.000000 0.000000 0.000000 0.000000 -1.000000 2780.dat
1 0 10.000110 -9.999980 19.999960 -1.000000 0.000000 0.000000 0.000000 1.000000 0.000000 0.000000 0.000000 -1.000000 2780.dat
0 STEP
1 1 20.000000 -9.999900 -0.000030 -0.000001 -1.000000 -0.000001 -1.000000 0.000001 -0.000001 0.000001 0.000001 -1.000000 64871.dat
0 STEP
0 NOFILE
0 FILE SubModel Group 9 Copy Copy Copy
0 SubModel Group 9 Copy Copy Copy
0 Name:  SubModel Group 9 Copy Copy Copy
0 Author:  
0 CustomBrick
0 NumOfBricks:  3
1 72 10.000000 -1.128810 -10.000000 1.000000 0.000000 0.000000 0.000000 0.000000 -1.000000 0.000000 1.000000 0.000000 dch003.dat
1 71 -27.466620 -79.717990 29.427020 1.000000 0.000000 0.000000 0.000000 0.000000 -1.000000 0.000000 1.000000 0.000000 dch004.dat
1 25 7.837010 13.484720 -9.965000 1.000000 0.000000 0.000000 0.000000 0.000000 -1.000000 0.000000 1.000000 0.000000 dch005.dat
0 NOFILE
