0 FILE BLK006四足爬虫.io
0 Untitled Model
0 Name:  BLK006四足爬虫
0 Author:  
0 CustomBrick
0 NumOfBricks:  121
1 15 -70.000240 -90.738030 50.860050 -0.000001 -0.000001 1.000000 1.000000 -0.000001 0.000001 0.000001 1.000000 0.000001 32524.dat
0 STEP
1 1 -30.000210 -90.737990 30.860060 0.000000 1.000000 0.000000 0.000000 0.000000 -1.000000 -1.000000 0.000000 0.000000 6558.dat
1 1 -130.000200 -90.738030 30.860060 0.000000 0.877583 0.479426 0.000000 0.479426 -0.877583 -1.000000 0.000000 0.000000 6558.dat
0 STEP
1 15 -70.000240 -90.738010 30.860020 -0.000001 -0.000001 1.000000 1.000000 -0.000001 0.000001 0.000001 1.000000 0.000001 32524.dat
0 STEP
1 15 -70.000290 -90.738090 10.860040 -0.000001 -0.000001 1.000000 1.000000 -0.000001 0.000001 0.000001 1.000000 0.000001 32524.dat
0 STEP
1 16 -110.000000 -84.000000 60.000000 1.000000 0.000000 0.000000 0.000000 1.000000 0.000000 0.000000 0.000000 1.000000 submodel group 10
0 STEP
1 71 -30.000210 -90.737990 70.860160 -0.000001 1.000000 -0.000001 1.000000 0.000001 -0.000001 -0.000001 -0.000001 -1.000000 48989.dat
0 STEP
1 1 29.999550 -90.737960 90.860050 0.000001 0.000001 -1.000000 -1.000000 0.000001 -0.000001 0.000001 1.000000 0.000001 64871.dat
0 STEP
1 16 120.000000 -72.000000 40.000000 1.000000 0.000000 0.000000 0.000000 1.000000 0.000000 0.000000 0.000000 1.000000 submodel group 9
0 STEP
1 0 49.999550 -90.737920 30.860090 0.000000 -0.878197 -0.478299 0.000000 0.478299 -0.878197 1.000000 0.000000 0.000000 60485.dat
1 19 9.999519 -90.737960 100.860200 -0.000001 1.000000 -0.000001 0.000001 0.000001 1.000000 1.000000 0.000001 -0.000001 3749.dat
0 STEP
1 71 49.999550 -90.737810 110.860100 0.478299 0.878197 0.000000 0.878197 -0.478299 0.000000 0.000000 0.000000 -1.000000 3647.dat
1 14 9.999510 -90.737920 110.860200 1.000000 0.000000 0.000000 0.000000 -1.000000 0.000000 0.000000 0.000000 -1.000000 3648b.dat
0 STEP
1 14 89.999740 -90.737850 110.860100 0.707108 -0.707105 0.000000 -0.707105 -0.707108 0.000000 0.000000 0.000000 -1.000000 3648b.dat
0 STEP
1 0 129.999700 -90.738120 -19.139950 0.000000 0.000000 1.000000 0.000000 1.000000 0.000000 -1.000000 0.000000 0.000000 2780.dat
0 STEP
1 71 -30.000310 -90.738040 -9.140010 -0.000001 1.000000 -0.000001 -1.000000 -0.000001 0.000001 0.000001 0.000001 1.000000 48989.dat
0 STEP
1 16 -110.000000 -84.000000 0.000000 1.000000 0.000000 0.000000 0.000000 1.000000 0.000000 0.000000 0.000000 1.000000 submodel group 8
0 STEP
1 1 29.999740 -90.737920 -29.140110 0.000001 0.000001 -1.000000 -1.000000 0.000001 -0.000001 0.000001 1.000000 0.000001 64871.dat
0 STEP
1 19 9.999740 -90.738040 -39.140060 0.000001 -1.000000 0.000001 0.000001 0.000001 1.000000 -1.000000 -0.000001 0.000001 3749.dat
0 STEP
1 14 89.999740 -90.737990 -49.139840 0.707107 0.707107 0.000000 0.707107 -0.707107 0.000000 0.000000 0.000000 -1.000000 3648b.dat
0 STEP
1 71 49.999760 -90.738070 -49.139940 0.478299 0.878197 0.000000 0.878197 -0.478299 0.000000 0.000000 0.000000 -1.000000 3647.dat
1 14 9.999750 -90.738040 -49.140080 1.000000 0.000000 0.000000 0.000000 -1.000000 0.000000 0.000000 0.000000 -1.000000 3648b.dat
0 STEP
1 1 -70.000030 -90.738010 -49.140060 0.000000 0.000000 1.000000 0.000000 1.000000 0.000000 -1.000000 0.000000 0.000000 6558.dat
0 STEP
1 1 -90.000080 -90.738040 -49.139980 0.000001 0.000001 -1.000000 1.000000 -0.000001 0.000001 -0.000001 -1.000000 -0.000001 32523.dat
0 STEP
1 0 -110.000100 -90.738010 -59.140000 0.000000 0.000000 1.000000 0.000000 1.000000 0.000000 -1.000000 0.000000 0.000000 2780.dat
0 STEP
1 0 149.999600 -100.738200 -9.139970 0.000000 0.000000 1.000000 -1.000000 0.000000 0.000000 0.000000 -1.000000 0.000000 2780.dat
1 0 149.999600 -100.737800 70.860160 0.000000 0.000000 1.000000 -1.000000 0.000000 0.000000 0.000000 -1.000000 0.000000 2780.dat
0 STEP
1 0 169.999700 -90.738060 -39.140060 0.000000 0.000000 1.000000 0.000000 1.000000 0.000000 -1.000000 0.000000 0.000000 2780.dat
1 0 149.999800 -90.738040 -39.140060 0.000000 0.000000 1.000000 0.000000 1.000000 0.000000 -1.000000 0.000000 0.000000 2780.dat
0 STEP
1 15 -90.000060 -90.737990 -69.140060 -0.000001 -0.000001 1.000000 -1.000000 0.000001 -0.000001 -0.000001 -1.000000 -0.000001 32316.dat
0 STEP
1 15 189.999700 -90.738030 -49.140060 -0.000001 -0.000001 1.000000 -1.000000 0.000001 -0.000001 -0.000001 -1.000000 -0.000001 32316.dat
0 STEP
1 15 89.999610 -110.738300 -9.140010 0.000001 0.000001 -1.000000 0.000001 1.000000 0.000001 1.000000 -0.000001 0.000001 32524.dat
0 STEP
1 15 89.999500 -110.738300 70.860010 0.000001 0.000001 -1.000000 0.000001 1.000000 0.000001 1.000000 -0.000001 0.000001 32524.dat
0 STEP
1 72 29.999500 -110.738200 70.860020 0.000000 -1.000000 -0.000001 -1.000000 0.000000 -0.000001 0.000001 0.000001 -1.000000 11214.dat
1 72 29.999600 -110.738200 -9.139990 0.000000 -1.000000 -0.000001 -1.000000 0.000000 -0.000001 0.000001 0.000001 -1.000000 11214.dat
0 STEP
1 16 -10.000000 -84.000000 30.000000 1.000000 0.000000 0.000000 0.000000 1.000000 0.000000 0.000000 0.000000 1.000000 submodel group 7
0 STEP
1 1 -70.000170 -90.738010 110.860100 0.000000 0.000000 -1.000000 0.000000 1.000000 0.000000 1.000000 0.000000 0.000000 6558.dat
0 STEP
1 1 -90.000220 -90.737990 110.860100 0.000001 0.000001 -1.000000 -1.000000 0.000001 -0.000001 0.000001 1.000000 0.000001 32523.dat
0 STEP
1 0 -110.000200 -90.738010 120.860100 0.000000 0.000000 -1.000000 0.000000 1.000000 0.000000 1.000000 0.000000 0.000000 2780.dat
0 STEP
1 0 169.999600 -90.737880 100.860100 0.000000 0.000000 -1.000000 0.000000 1.000000 0.000000 1.000000 0.000000 0.000000 2780.dat
1 0 149.999600 -90.737880 100.860100 0.000000 0.000000 -1.000000 0.000000 1.000000 0.000000 1.000000 0.000000 0.000000 2780.dat
0 STEP
1 16 30.000000 -120.000000 70.000000 1.000000 0.000000 0.000000 0.000000 1.000000 0.000000 0.000000 0.000000 1.000000 submodel group 5
1 16 30.000000 -120.000000 -10.000000 1.000000 0.000000 0.000000 0.000000 1.000000 0.000000 0.000000 0.000000 1.000000 submodel group 6
0 STEP
1 15 -90.000290 -90.738040 130.860200 0.000001 0.000001 -1.000000 1.000000 -0.000001 0.000001 -0.000001 -1.000000 -0.000001 32316.dat
0 STEP
1 15 189.999700 -90.737900 110.860200 0.000001 0.000001 -1.000000 1.000000 -0.000001 0.000001 -0.000001 -1.000000 -0.000001 32316.dat
0 STEP
1 71 -130.000300 -90.738010 140.860200 0.000000 0.000000 1.000000 0.000000 1.000000 0.000000 -1.000000 0.000000 0.000000 3673.dat
0 STEP
1 71 89.999720 -76.595740 120.860100 0.000000 0.000000 1.000000 0.000000 1.000000 0.000000 -1.000000 0.000000 0.000000 3673.dat
1 71 -0.000480 -100.737900 120.860200 0.000000 0.000000 1.000000 0.000000 1.000000 0.000000 -1.000000 0.000000 0.000000 3673.dat
0 STEP
1 19 229.999700 -90.737880 130.860200 0.000000 0.000000 -1.000000 0.000000 1.000000 0.000000 1.000000 0.000000 0.000000 32556.dat
0 STEP
1 71 229.999700 -90.737880 130.860200 1.000000 0.000000 0.000000 0.000000 0.000000 -1.000000 0.000000 1.000000 0.000000 18654.dat
0 STEP
1 71 -129.920600 -90.553500 -79.140170 0.000000 0.000000 1.000000 0.000000 1.000000 0.000000 -1.000000 0.000000 0.000000 3673.dat
0 STEP
1 71 89.999720 -76.595840 -59.139850 0.000000 0.000000 1.000000 0.000000 1.000000 0.000000 -1.000000 0.000000 0.000000 3673.dat
1 71 0.000000 -100.738100 -59.140090 0.000000 0.000000 1.000000 0.000000 1.000000 0.000000 -1.000000 0.000000 0.000000 3673.dat
0 STEP
1 19 230.976000 -91.148540 -69.139920 0.000000 0.000000 -1.000000 0.000000 -1.000000 0.000000 -1.000000 0.000000 0.000000 32556.dat
0 STEP
1 71 229.999700 -90.738040 -69.140100 0.000000 0.000000 -1.000000 1.000000 0.000000 0.000000 0.000000 -1.000000 0.000000 18654.dat
0 STEP
1 16 -120.000000 0.000000 140.000000 0.727397 -0.686217 0.000000 0.686217 0.727397 0.000001 0.000000 -0.000001 1.000000 submodel group 3
1 16 220.000000 0.000000 140.000000 0.866025 -0.500000 0.000000 0.500000 0.866025 0.000000 0.000000 0.000000 1.000000 submodel group 4
0 STEP
1 16 220.000000 0.000000 -80.000000 0.866025 -0.500000 0.000000 0.500000 0.866025 0.000000 0.000000 0.000000 1.000000 submodel group 1
1 16 -120.000000 0.000000 -80.000000 0.731354 -0.681998 0.000000 0.681998 0.731354 0.000001 0.000000 -0.000001 1.000000 submodel group 2
0 STEP
1 16 68.986620 -121.039400 41.517970 1.000000 0.000000 0.000000 0.000000 1.000000 0.000000 0.000000 0.000000 1.000000 submodel group 9 copy copy copy
0 STEP
1 0 29.999590 -210.738200 30.860020 0.000000 -1.000000 0.000000 0.000000 0.000000 -1.000000 1.000000 0.000000 0.000000 44294.dat
1 71 29.999540 -210.238300 90.860070 1.000000 0.000000 0.000001 0.000000 1.000000 0.000000 -0.000001 0.000000 1.000000 3713.dat
0 STEP
1 71 29.999600 -210.238200 -29.139990 -1.000000 0.000000 -0.000001 0.000000 1.000000 0.000000 0.000001 0.000000 -1.000000 3713.dat
0 STEP
1 15 164.025000 -90.481010 31.036980 0.000000 0.000000 1.000000 0.000000 -1.000000 0.000000 1.000000 0.000000 0.000000 dx0042.dat
0 STEP
0 STEP
0 NOFILE
0 FILE SubModel Group 10
0 SubModel Group 10
0 Name:  SubModel Group 10
0 Author:  
0 CustomBrick
0 NumOfBricks:  8
1 1 -0.000200 -46.738800 -9.139970 1.000000 0.000000 0.000000 0.000000 1.000000 0.000000 0.000000 0.000000 1.000000 42003.dat
0 STEP
1 19 -10.000200 -66.738700 -9.139970 1.000000 0.000001 -0.000001 -0.000001 -0.000001 -1.000000 -0.000001 1.000000 -0.000001 3749.dat
0 STEP
1 71 -20.000200 -66.738800 -9.139979 0.000000 0.000000 1.000000 0.000000 -1.000000 0.000000 1.000000 0.000000 0.000000 42610.dat
0 STEP
1 0 -0.000200 -46.738800 0.860090 0.000000 0.000000 -1.000000 0.000000 1.000000 0.000000 1.000000 0.000000 0.000000 2780.dat
1 0 -0.000200 -26.738410 0.860040 0.000000 0.000000 -1.000000 0.000000 1.000000 0.000000 1.000000 0.000000 0.000000 2780.dat
0 STEP
1 1 -0.000300 -46.738010 10.860100 -1.000000 0.000000 0.000000 0.000000 0.000000 1.000000 0.000000 1.000000 0.000000 60484.dat
0 STEP
1 1 19.999760 -6.737990 10.860070 0.000000 0.000000 1.000000 0.000000 1.000000 0.000000 -1.000000 0.000000 0.000000 6558.dat
1 1 -0.000200 -6.738010 10.860070 0.000000 0.000000 1.000000 0.000000 1.000000 0.000000 -1.000000 0.000000 0.000000 6558.dat
0 STEP
0 NOFILE
0 FILE SubModel Group 9
0 SubModel Group 9
0 Name:  SubModel Group 9
0 Author:  
0 CustomBrick
0 NumOfBricks:  11
1 15 -30.000340 -18.738120 -9.139950 0.000000 0.000000 1.000000 0.000000 1.000000 0.000000 -1.000000 0.000000 0.000000 64179.dat
0 STEP
1 0 19.985110 -18.737960 -9.139970 -1.000000 0.000000 0.000000 0.000000 -1.000000 0.000000 0.000000 0.000000 1.000000 3705.dat
1 71 9.985109 -19.237830 -9.139920 -0.000001 0.000000 1.000000 0.000000 -1.000000 0.000000 1.000000 0.000000 0.000001 3713.dat
0 STEP
1 71 -5.014900 -18.737880 -9.139910 0.000000 0.000000 -1.000000 0.000000 -1.000000 0.000000 -1.000000 0.000000 0.000000 32123a.dat
0 STEP
1 19 -12.514900 -18.737970 -9.639910 0.000001 0.000000 -1.000000 1.000000 0.000000 0.000001 0.000000 -1.000000 0.000000 6589.dat
0 STEP
1 0 -30.000290 -18.737990 -9.139860 0.000000 0.707105 0.707108 0.000000 0.707108 -0.707106 -1.000000 0.000000 0.000000 60485.dat
1 71 -30.000180 -18.737960 15.860170 -0.707106 0.707108 0.000000 -0.707108 -0.707106 0.000000 0.000000 0.000000 1.000000 32123a.dat
1 19 -30.353730 -18.384360 8.360030 -0.707105 -0.707108 0.000000 -0.707108 0.707106 0.000000 0.000001 0.000000 -1.000000 6589.dat
0 STEP
1 0 39.985200 -18.737810 -29.139840 -1.000000 0.000000 0.000000 0.000000 1.000000 0.000000 0.000000 0.000000 -1.000000 2780.dat
1 0 39.985110 -18.737830 10.860120 -1.000000 0.000000 0.000000 0.000000 1.000000 0.000000 0.000000 0.000000 -1.000000 2780.dat
0 STEP
1 0 9.999599 -18.737880 40.860120 0.000000 0.000000 1.000000 0.000000 1.000000 0.000000 -1.000000 0.000000 0.000000 2780.dat
0 STEP
0 NOFILE
0 FILE SubModel Group 8
0 SubModel Group 8
0 Name:  SubModel Group 8
0 Author:  
0 CustomBrick
0 NumOfBricks:  8
1 1 -0.000300 -46.738010 -9.140059 1.000000 0.000000 0.000000 0.000000 0.000000 1.000000 0.000000 -1.000000 0.000000 60484.dat
1 1 -0.000300 -6.738010 -9.140030 0.000000 0.000000 -1.000000 0.000000 1.000000 0.000000 1.000000 0.000000 0.000000 6558.dat
0 STEP
1 0 -0.000300 -46.738800 0.859950 0.000000 0.000000 1.000000 0.000000 1.000000 0.000000 -1.000000 0.000000 0.000000 2780.dat
1 0 -0.000300 -26.738410 0.859950 0.000000 0.000000 1.000000 0.000000 1.000000 0.000000 -1.000000 0.000000 0.000000 2780.dat
0 STEP
1 1 -0.000300 -46.738700 10.859910 -1.000000 0.000000 0.000000 0.000000 1.000000 0.000000 0.000000 0.000000 -1.000000 42003.dat
0 STEP
1 19 -10.000300 -66.738700 10.859860 1.000000 0.000001 -0.000001 0.000001 0.000001 1.000000 0.000001 -1.000000 0.000001 3749.dat
0 STEP
1 71 -20.000310 -66.738800 10.859870 0.000000 0.000000 1.000000 -1.000000 0.000000 0.000000 0.000000 -1.000000 0.000000 42610.dat
0 STEP
1 1 19.999700 -6.738070 -29.140000 0.000000 0.000000 1.000000 0.000000 1.000000 0.000000 -1.000000 0.000000 0.000000 6558.dat
0 STEP
0 NOFILE
0 FILE SubModel Group 7
0 SubModel Group 7
0 Name:  SubModel Group 7
0 Author:  
0 CustomBrick
0 NumOfBricks:  8
1 1 -40.000260 -46.738010 0.860010 -1.000000 0.000000 0.000000 0.000000 -1.000000 0.000000 0.000000 0.000000 1.000000 14720.dat
0 STEP
1 0 -20.000300 -36.738000 -39.140020 0.000000 0.000000 -1.000000 -1.000000 0.000000 0.000000 0.000000 1.000000 0.000000 2780.dat
1 0 -20.000300 -36.738000 40.860000 0.000000 0.000000 -1.000000 -1.000000 0.000000 0.000000 0.000000 1.000000 0.000000 2780.dat
0 STEP
1 15 -0.000280 -26.738000 40.860000 0.000000 0.000000 -1.000000 0.000000 1.000000 0.000000 1.000000 0.000000 0.000000 55615.dat
1 15 -0.000320 -26.738000 -39.140020 0.000000 0.000000 -1.000000 0.000000 1.000000 0.000000 1.000000 0.000000 0.000000 55615.dat
0 STEP
1 15 19.999730 -66.737900 0.859970 -0.000001 -1.000000 -0.000001 -1.000000 0.000001 -0.000001 0.000001 0.000001 -1.000000 32524.dat
0 STEP
1 0 29.999670 -66.738010 20.859970 1.000000 0.000000 0.000000 0.000000 1.000000 0.000000 0.000000 0.000000 1.000000 2780.dat
1 0 29.999670 -66.738010 -19.140040 1.000000 0.000000 0.000000 0.000000 1.000000 0.000000 0.000000 0.000000 1.000000 2780.dat
0 STEP
0 NOFILE
0 FILE SubModel Group 5
0 SubModel Group 5
0 Name:  SubModel Group 5
0 Author:  
0 CustomBrick
0 NumOfBricks:  3
1 71 0.499490 -30.738300 0.860050 0.000000 1.000000 0.000000 0.000000 0.000000 -1.000000 -1.000000 0.000000 0.000000 32034.dat
0 STEP
1 15 -0.000510 -60.738300 0.860050 0.000000 1.000000 0.000000 1.000000 0.000000 0.000000 0.000000 0.000000 -1.000000 32062.dat
0 STEP
1 71 -0.000570 -90.738300 0.860120 0.000002 -1.000000 -0.000002 0.000002 0.000002 -1.000000 1.000000 0.000002 0.000002 32013.dat
0 STEP
0 NOFILE
0 FILE SubModel Group 6
0 SubModel Group 6
0 Name:  SubModel Group 6
0 Author:  
0 CustomBrick
0 NumOfBricks:  3
1 71 0.499590 -30.738200 0.860040 0.000000 1.000000 0.000000 0.000000 0.000000 -1.000000 -1.000000 0.000000 0.000000 32034.dat
1 15 -0.000410 -60.738190 0.860040 0.000000 1.000000 0.000000 1.000000 0.000000 0.000000 0.000000 0.000000 -1.000000 32062.dat
0 STEP
1 71 -0.000480 -90.738220 0.860100 0.000002 -1.000000 -0.000002 0.000002 0.000002 -1.000000 1.000000 0.000002 0.000002 32013.dat
0 STEP
0 NOFILE
0 FILE SubModel Group 3
0 SubModel Group 3
0 Name:  SubModel Group 3
0 Author:  
0 CustomBrick
0 NumOfBricks:  6
1 71 -141.840500 -155.622000 0.860030 0.000000 -0.670186 0.742193 -0.000001 -0.742193 -0.670186 1.000000 -0.000001 0.000000 3673.dat
1 1 -82.090080 -75.435550 10.860110 -0.801867 0.000000 0.597503 0.597503 -0.000002 0.801867 0.000001 1.000000 0.000002 64290.dat
0 STEP
1 1 -34.289870 -11.286180 0.860280 0.000000 0.579086 0.815267 0.000001 0.815267 -0.579086 -1.000000 0.000001 0.000000 43093.dat
1 1 -22.708190 5.019140 0.860290 0.000000 0.579086 0.815267 0.000001 0.815267 -0.579086 -1.000000 0.000001 0.000000 43093.dat
0 STEP
1 0 -34.289870 -11.286170 -9.139720 0.579086 -0.815267 0.000000 0.815267 0.579086 -0.000001 0.000001 0.000000 1.000000 45590.dat
0 STEP
1 15 -61.840540 -155.622100 -9.139950 0.000000 0.000000 -1.000001 -1.000001 0.000000 0.000000 0.000000 1.000000 0.000001 40490.dat
0 STEP
0 NOFILE
0 FILE SubModel Group 4
0 SubModel Group 4
0 Name:  SubModel Group 4
0 Author:  
0 CustomBrick
0 NumOfBricks:  6
1 71 -107.419700 -154.291700 0.860210 0.000000 0.000000 1.000000 0.000000 1.000000 0.000000 -1.000000 0.000000 0.000000 3673.dat
1 1 -64.993300 -111.865400 10.860200 0.707106 -0.000001 0.707108 -0.707108 0.000000 0.707106 -0.000001 -1.000000 -0.000001 41239.dat
0 STEP
1 1 5.846890 -41.283040 0.860200 0.000000 -0.700636 -0.713519 0.000000 -0.713519 0.700636 -1.000000 0.000000 0.000000 43093.dat
1 1 19.859570 -27.012590 0.860200 0.000000 -0.700636 -0.713519 0.000000 -0.713519 0.700636 -1.000000 0.000000 0.000000 43093.dat
0 STEP
1 0 19.859570 -27.012590 -9.139800 -0.700634 0.713521 0.000000 -0.713521 -0.700634 0.000000 0.000000 0.000000 1.000000 45590.dat
0 STEP
1 15 -128.830300 -78.234700 -9.139890 0.961262 -0.000001 0.275637 0.275637 0.000001 -0.961262 0.000001 1.000000 0.000001 40490.dat
0 STEP
0 NOFILE
0 FILE SubModel Group 1
0 SubModel Group 1
0 Name:  SubModel Group 1
0 Author:  
0 CustomBrick
0 NumOfBricks:  6
1 71 -106.779600 -155.135700 0.860090 0.000000 0.000000 1.000000 0.000000 1.000000 0.000000 -1.000000 0.000000 0.000000 3673.dat
1 15 -128.830500 -78.234690 10.860070 0.961262 -0.000001 0.275637 0.275637 0.000001 -0.961262 0.000001 1.000000 0.000001 40490.dat
0 STEP
1 1 -64.353150 -112.709200 -9.139870 0.707106 -0.000001 0.707108 -0.707108 0.000000 0.707106 -0.000001 -1.000000 -0.000001 41239.dat
0 STEP
1 1 6.529180 -42.168080 0.860030 0.000000 0.698534 -0.715577 0.000000 0.715577 0.698534 1.000000 0.000000 0.000000 43093.dat
1 1 20.499940 -27.856620 0.860030 0.000000 0.698534 -0.715577 0.000000 0.715577 0.698534 1.000000 0.000000 0.000000 43093.dat
0 STEP
1 0 6.529170 -42.168090 10.860030 0.698537 0.715574 0.000000 0.715574 -0.698537 0.000000 0.000000 0.000000 -1.000000 45590.dat
0 STEP
0 NOFILE
0 FILE SubModel Group 2
0 SubModel Group 2
0 Name:  SubModel Group 2
0 Author:  
0 CustomBrick
0 NumOfBricks:  6
1 1 -81.000800 -75.469780 -9.140210 0.800449 0.000000 0.599401 -0.599401 0.000000 0.800449 -0.000001 -1.000000 0.000000 64290.dat
0 STEP
1 1 -33.048710 -11.433900 0.859760 0.000000 0.617476 -0.786590 -0.000001 0.786590 0.617476 1.000000 0.000001 0.000000 43093.dat
1 1 -20.699200 4.297890 0.859740 0.000000 0.617476 -0.786590 -0.000001 0.786590 0.617476 1.000000 0.000001 0.000000 43093.dat
0 STEP
1 0 -33.048720 -11.433910 10.859760 0.617476 0.786590 0.000000 0.786590 -0.617476 0.000001 0.000001 0.000000 -1.000000 45590.dat
0 STEP
1 71 -140.940800 -155.514800 0.859640 0.000000 -0.722363 -0.691515 0.000001 -0.691515 0.722363 -1.000000 -0.000001 0.000000 3673.dat
0 STEP
1 15 -60.940920 -155.514900 10.859770 -0.000001 0.000001 -1.000000 1.000001 0.000000 0.000000 0.000000 -1.000000 -0.000001 40490.dat
0 STEP
0 NOFILE
0 FILE SubModel Group 9 Copy Copy Copy
0 SubModel Group 9 Copy Copy Copy
0 Name:  SubModel Group 9 Copy Copy Copy
0 Author:  
0 CustomBrick
0 NumOfBricks:  3
1 72 10.000000 -1.128810 -10.000000 1.000000 0.000000 0.000000 0.000000 0.000000 -1.000000 0.000000 1.000000 0.000000 dch003.dat
1 71 -27.466620 -79.717990 29.427020 1.000000 0.000000 0.000000 0.000000 0.000000 -1.000000 0.000000 1.000000 0.000000 dch004.dat
1 25 7.837010 13.484720 -9.965000 1.000000 0.000000 0.000000 0.000000 0.000000 -1.000000 0.000000 1.000000 0.000000 dch005.dat
0 NOFILE
