0 Untitled Model
0 Name:  井字棋
0 Author:  
0 CustomBrick
0 NumOfBricks:  12
1 1 -8.000000 -10.000000 9.999909 0.000000 -1.000000 0.000000 0.000000 0.000000 1.000000 -1.000000 0.000000 0.000000 3701.dat
1 1 16.000000 -10.000000 9.999909 0.000000 -1.000000 0.000000 0.000000 0.000000 1.000000 -1.000000 0.000000 0.000000 3701.dat
0 STEP
1 1 40.000000 -10.000000 10.000000 0.000000 -1.000000 0.000000 0.000000 0.000000 1.000000 -1.000000 0.000000 0.000000 3701.dat
1 15 48.000000 -10.000000 10.000000 0.000000 -1.000000 0.000000 0.000000 0.000000 -1.000000 1.000000 0.000000 0.000000 2431.dat
0 STEP
1 71 -17.999990 -20.000000 9.999909 0.000000 0.000000 -1.000000 1.000000 0.000000 0.000000 0.000000 -1.000000 0.000000 3673.dat
1 19 -18.000010 -20.000000 29.999940 -0.000001 1.000000 -0.000001 -1.000000 -0.000001 0.000001 0.000001 0.000001 1.000000 3749.dat
0 STEP
1 71 6.000000 -20.000000 9.999909 0.000000 0.000000 -1.000000 1.000000 0.000000 0.000000 0.000000 -1.000000 0.000000 3673.dat
1 71 6.000000 -20.000000 29.999910 0.000000 0.000000 -1.000000 1.000000 0.000000 0.000000 0.000000 -1.000000 0.000000 3673.dat
1 71 6.000010 -20.000010 -10.000060 0.000000 0.000000 -1.000000 1.000000 -0.000001 0.000000 0.000000 -1.000000 0.000000 3673.dat
0 STEP
1 71 30.000010 -20.000000 -10.000000 0.000000 0.000000 -1.000000 1.000000 0.000000 0.000000 0.000000 -1.000000 0.000000 3673.dat
1 19 29.999990 -20.000000 10.000060 -0.000001 1.000000 -0.000001 -1.000000 -0.000001 0.000001 0.000001 0.000001 1.000000 3749.dat
1 19 29.999980 -20.000000 30.000030 -0.000001 1.000000 -0.000001 -1.000000 -0.000001 0.000001 0.000001 0.000001 1.000000 3749.dat
0 STEP
0 STEP
