0 FILE 叉车.io
0 Untitled Model
0 Name:  叉车
0 Author:  
0 CustomBrick
0 NumOfBricks:  95
1 1 -128.000000 -48.000080 -56.000000 0.000000 0.000000 0.999999 0.000000 1.000000 0.000000 -0.999999 0.000000 0.000000 3894.dat
1 1 -118.000000 -24.000080 -96.000000 0.000000 0.000000 0.999999 0.000000 1.000000 0.000000 -0.999999 0.000000 0.000000 3709b.dat
1 1 -118.000000 -24.000080 -16.000060 0.000000 0.000000 0.999999 0.000000 1.000000 0.000000 -0.999999 0.000000 0.000000 3709b.dat
0 STEP
1 1 22.000000 -48.000080 14.000000 0.999999 0.000000 0.000000 0.000000 1.000000 0.000000 0.000000 0.000000 0.999999 3703.dat
1 1 22.000000 -48.000080 -126.000000 0.999999 0.000000 0.000000 0.000000 1.000000 0.000000 0.000000 0.000000 0.999999 3703.dat
0 STEP
1 1 -118.000000 -56.000080 -56.000000 0.000000 0.000000 0.999999 0.000000 1.000000 0.000000 -0.999999 0.000000 0.000000 3738.dat
0 STEP
1 19 121.999900 -38.000090 4.000000 -0.000001 0.999999 -0.000001 -0.000001 -0.000001 -1.000000 -0.999999 -0.000001 0.000001 3749.dat
1 19 121.999900 -38.000070 -116.000200 -0.000001 0.999999 -0.000001 0.000000 0.000001 1.000000 0.999999 0.000001 0.000000 3749.dat
1 0 161.999800 -38.000080 4.000000 0.000000 0.000000 -0.999999 0.000000 1.000000 0.000000 0.999999 0.000000 0.000000 2780.dat
1 0 161.999800 -38.000080 -116.000000 0.000000 0.000000 -0.999999 0.000000 1.000000 0.000000 0.999999 0.000000 0.000000 2780.dat
0 STEP
1 1 121.999800 -38.000120 -106.000200 0.000001 0.000001 1.000000 -1.000001 0.000001 0.000001 -0.000001 -0.999999 0.000001 32140.dat
1 1 121.999900 -38.000120 -6.000000 0.000001 0.000001 0.999999 -1.000000 0.000001 0.000001 -0.000001 -0.999999 0.000001 32140.dat
0 STEP
1 0 181.999800 -38.000060 -15.999880 0.000000 0.000000 -0.999999 0.000000 1.000000 0.000000 0.999999 0.000000 0.000000 2780.dat
1 0 181.999800 -58.000060 -16.000000 0.000000 0.000000 -0.999999 0.000000 1.000000 0.000000 0.999999 0.000000 0.000000 2780.dat
0 STEP
1 0 181.999800 -38.000050 -96.000000 0.000000 -0.999999 0.000000 0.000000 0.000000 -1.000000 0.999999 0.000000 0.000000 2780.dat
1 0 181.999800 -58.000040 -96.000000 0.000000 -0.999999 0.000000 0.000000 0.000000 -1.000000 0.999999 0.000000 0.000000 2780.dat
0 STEP
1 15 181.999700 -178.000100 -25.999880 0.999999 -0.000001 0.000001 -0.000001 -0.000001 1.000000 -0.000001 -0.999999 -0.000001 64871.dat
1 15 181.999700 -178.000100 -86.000000 0.999999 -0.000001 0.000001 -0.000001 -0.000001 1.000000 -0.000001 -0.999999 -0.000001 64871.dat
0 STEP
1 16 80.000000 -36.000000 -60.000000 1.000000 0.000000 0.000000 0.000000 1.000000 0.000000 0.000000 0.000000 1.000000 submodel group 2
0 STEP
1 0 141.999900 -38.000080 -56.399840 0.000000 0.000000 1.000000 0.000000 1.000000 0.000000 -1.000000 0.000000 0.000000 3737.dat
1 0 141.999700 -38.000090 -156.658000 0.000000 1.000000 0.000000 -1.000000 0.000000 -0.000001 -0.000001 0.000000 1.000000 30391.dat
1 71 141.999900 -38.000080 -156.399800 1.000000 0.000000 0.000000 0.000000 1.000000 0.000000 0.000000 0.000000 1.000000 55982.dat
0 STEP
1 0 -98.000000 -38.000080 -57.149960 0.000000 0.000000 1.000000 0.000000 1.000000 0.000000 -1.000000 0.000000 0.000000 3737.dat
1 0 -98.000000 -38.000120 -157.406700 -0.999999 0.000000 -0.000001 0.000000 -1.000000 0.000000 -0.000001 0.000000 0.999999 30391.dat
1 71 -98.000000 -38.000080 -157.149800 0.000000 0.999999 0.000000 -1.000000 0.000000 0.000000 0.000000 0.000000 0.999999 55982.dat
0 STEP
1 0 -97.999210 -38.000050 44.256960 0.000000 -1.000000 0.000000 -1.000000 0.000000 -0.000001 0.000001 0.000000 -1.000000 30391.dat
1 71 -97.999910 -38.000080 44.000000 -1.000003 0.000000 0.000000 0.000000 1.000002 0.000000 0.000000 0.000000 -1.000000 55982.dat
1 0 142.000700 -38.000020 44.337400 0.000000 -1.000000 0.000000 -1.000000 0.000000 -0.000001 0.000001 0.000000 -1.000000 30391.dat
1 71 141.999900 -38.000080 44.079720 -1.000005 0.000000 0.000000 0.000000 1.000005 0.000000 0.000000 0.000000 -1.000000 55982.dat
0 STEP
1 16 240.000000 -48.000000 -60.000000 1.000000 0.000000 0.000000 0.000000 1.000000 0.000000 0.000000 0.000000 1.000000 submodel group 1
0 STEP
0 STEP
0 NOFILE
0 FILE SubModel Group 2
0 SubModel Group 2
0 Name:  SubModel Group 2
0 Author:  
0 CustomBrick
0 NumOfBricks:  35
1 1 2.001390 -12.000080 24.002750 -1.000001 0.000000 0.000000 0.000000 1.000000 0.000000 0.000000 0.000000 -1.000001 3709b.dat
1 1 2.001390 -12.000080 -15.997380 -1.000001 0.000000 0.000000 0.000000 1.000000 0.000000 0.000000 0.000000 -1.000001 3709b.dat
0 STEP
1 1 -8.000000 -36.000080 4.000120 0.000000 0.000000 0.999999 0.000000 1.000000 0.000000 -0.999999 0.000000 0.000000 3702.dat
1 1 -27.998420 -36.000080 4.002930 0.000001 0.000000 1.000000 0.000000 1.000000 0.000000 -1.000000 0.000000 0.000001 3702.dat
0 STEP
1 1 31.999900 -36.000080 4.000120 0.000000 0.000000 0.999999 0.000000 1.000000 0.000000 -0.999999 0.000000 0.000000 3702.dat
0 STEP
1 16 0.000000 -12.000000 0.000000 1.000000 0.000000 0.000000 0.000000 1.000000 0.000000 0.000000 0.000000 1.000000 submodel group 4
0 STEP
1 16 20.000000 -36.000000 0.000000 1.000000 0.000000 0.000000 0.000000 1.000000 0.000000 0.000000 0.000000 1.000000 submodel group 3
0 STEP
1 15 -38.000000 -44.000080 74.000000 -1.000000 0.000000 0.000000 0.000000 1.000000 0.000000 0.000000 0.000000 -1.000000 2431.dat
1 15 -28.000000 -60.000080 54.000120 0.000000 0.000000 -1.000000 0.000000 1.000000 0.000000 1.000000 0.000000 0.000000 3040b.dat
0 STEP
1 15 -38.000000 -44.000080 -66.000000 -1.000000 0.000000 0.000000 0.000000 1.000000 0.000000 0.000000 0.000000 -1.000000 2431.dat
1 15 -27.998420 -60.000080 -45.996950 0.000000 0.000000 -1.000000 0.000000 1.000000 0.000000 1.000000 0.000000 0.000000 3040b.dat
0 STEP
1 1 -98.000000 -36.000080 -66.000000 1.000000 0.000000 0.000000 0.000000 1.000000 0.000000 0.000000 0.000000 1.000000 3894.dat
1 1 -98.000000 -36.000080 74.000000 1.000000 0.000000 0.000000 0.000000 1.000000 0.000000 0.000000 0.000000 1.000000 3894.dat
0 STEP
0 NOFILE
0 FILE SubModel Group 4
0 SubModel Group 4
0 Name:  SubModel Group 4
0 Author:  
0 CustomBrick
0 NumOfBricks:  14
1 1 1.999890 -32.000080 3.999760 0.000000 0.000000 1.000001 0.000000 1.000000 0.000000 -1.000001 0.000000 0.000000 3709b.dat
1 1 41.999900 -32.000080 4.000120 0.000000 0.000000 0.999999 0.000000 1.000000 0.000000 -0.999999 0.000000 0.000000 3709b.dat
0 STEP
1 1 21.999980 -40.000080 33.999760 1.000001 0.000000 0.000000 0.000000 1.000000 0.000000 0.000000 0.000000 1.000001 3710.dat
1 1 21.999980 -40.000080 -26.001160 1.000001 0.000000 0.000000 0.000000 1.000000 0.000000 0.000000 0.000000 1.000001 3710.dat
0 STEP
1 1 51.999980 -64.000080 3.999760 0.000001 0.000000 1.000001 0.000000 1.000000 0.000000 -1.000001 0.000000 0.000001 3701.dat
1 1 -8.000110 -64.000080 3.999760 0.000000 0.000000 1.000001 0.000000 1.000000 0.000000 -1.000001 0.000000 0.000000 3701.dat
0 STEP
1 0 -7.590130 -54.000060 3.999630 -1.000001 0.000000 0.000000 0.000000 -0.925203 0.379473 0.000000 0.379472 0.925204 3707.dat
1 71 21.510000 -54.000120 3.999630 0.000000 0.000000 1.000001 0.379473 -0.925203 0.000000 0.925204 0.379472 0.000000 4716.dat
0 STEP
1 14 66.970000 -54.000120 3.999630 0.000000 0.000000 1.000001 0.379473 -0.925203 0.000000 0.925204 0.379472 0.000000 32123a.dat
1 71 -27.800020 -54.000020 3.999510 0.000001 0.000000 -1.000001 -0.379473 -0.925203 0.000000 -0.925204 0.379472 -0.000001 3713.dat
0 STEP
1 1 21.999890 -72.000080 33.999760 1.000001 0.000000 0.000000 0.000000 1.000000 0.000000 0.000000 0.000000 1.000001 3710.dat
1 1 21.999890 -72.000080 -26.001160 1.000001 0.000000 0.000000 0.000000 1.000000 0.000000 0.000000 0.000000 1.000001 3710.dat
0 STEP
1 71 -77.590300 -54.000060 3.999760 0.000000 -0.999999 0.000001 -0.379473 0.000001 0.925202 -0.925202 -0.000001 -0.379473 33299.dat
1 4 -107.589400 -16.991880 -11.179750 -0.999999 0.000000 0.000000 0.000000 0.925203 -0.379472 0.000000 -0.379472 -0.925203 62462.dat
0 STEP
0 NOFILE
0 FILE SubModel Group 3
0 SubModel Group 3
0 Name:  SubModel Group 3
0 Author:  
0 CustomBrick
0 NumOfBricks:  10
1 1 1.999890 -80.000100 33.999760 1.000001 0.000000 0.000000 0.000000 1.000000 0.000000 0.000000 0.000000 1.000001 3700.dat
1 1 1.999890 -56.000100 33.999760 1.000001 0.000000 0.000000 0.000000 1.000000 0.000000 0.000000 0.000000 1.000001 3023.dat
0 STEP
1 14 1.999980 -70.000100 19.059750 -0.323917 0.946087 0.000000 -0.946085 -0.323918 0.000000 0.000000 0.000000 1.000001 32123a.dat
1 0 1.999890 -70.000100 4.199710 0.000000 0.323917 0.946087 0.000000 0.946086 -0.323918 -1.000001 0.000000 0.000000 3706.dat
0 STEP
1 14 1.999980 -70.000100 -10.820500 -0.323917 0.946087 0.000000 -0.946085 -0.323918 0.000000 0.000000 0.000000 1.000001 32123a.dat
1 72 1.999890 -70.000100 4.109800 -0.323917 -0.946085 0.000000 -0.946086 0.323917 0.000000 0.000000 0.000000 -0.999999 3648b.dat
0 STEP
1 1 1.999890 -80.000100 -26.001160 1.000001 0.000000 0.000000 0.000000 1.000000 0.000000 0.000000 0.000000 1.000001 3700.dat
1 1 1.999890 -56.000100 -26.001160 1.000001 0.000000 0.000000 0.000000 1.000000 0.000000 0.000000 0.000000 1.000001 3023.dat
0 STEP
1 71 1.999980 -70.000100 54.199400 0.946087 -0.323917 0.000000 -0.323918 -0.946086 0.000000 0.000000 0.000000 -1.000001 3649.dat
1 71 1.999980 -70.000100 -45.631040 0.946087 -0.323917 0.000000 -0.323918 -0.946086 0.000000 0.000000 0.000000 -1.000001 3649.dat
0 STEP
0 NOFILE
0 FILE SubModel Group 1
0 SubModel Group 1
0 Name:  SubModel Group 1
0 Author:  
0 CustomBrick
0 NumOfBricks:  32
1 1 -68.000620 -129.000100 -45.999950 0.000000 0.999999 0.000000 1.000000 0.000000 0.000000 0.000000 0.000000 -0.999999 3701.dat
1 1 -68.000620 -129.000000 54.000070 0.000000 0.999999 0.000000 1.000000 0.000000 0.000000 0.000000 0.000000 -0.999999 3701.dat
1 1 -44.000340 -109.000000 3.998600 0.000000 0.999999 0.000000 0.000000 0.000000 -1.000000 -0.999999 0.000000 0.000000 32001.dat
1 1 -44.000340 -149.000100 3.998540 0.000000 0.999999 0.000000 0.000000 0.000000 -1.000000 -0.999999 0.000000 0.000000 32001.dat
0 STEP
1 1 -76.000490 -149.000000 3.998600 0.000000 0.999999 0.000000 0.000000 0.000000 -1.000000 -0.999999 0.000000 0.000000 32001.dat
1 1 -76.000640 -108.999900 3.998050 0.000000 0.999999 0.000000 0.000000 0.000000 -1.000000 -0.999999 0.000000 0.000000 32001.dat
0 STEP
1 0 -58.000340 -129.000000 63.998480 0.000000 0.999999 0.000000 0.000000 0.000000 1.000000 0.999999 0.000000 0.000000 2780.dat
1 1 -58.000370 -109.000000 74.000420 0.000000 0.999999 0.000000 0.000000 0.000000 1.000000 0.999999 0.000000 0.000000 6558.dat
0 STEP
1 15 -58.000370 -109.000000 74.000420 -0.999999 0.000001 -0.000001 0.000001 0.000001 -1.000000 -0.000001 -0.999999 -0.000001 32316.dat
1 0 -58.000300 -88.999940 84.000720 0.000000 0.999999 0.000000 0.000000 0.000000 1.000000 0.999999 0.000000 0.000000 2780.dat
0 STEP
1 71 -84.000610 -108.999900 53.998050 0.000000 0.999999 0.000000 1.000000 0.000000 0.000000 0.000000 0.000000 -0.999999 3743.dat
0 STEP
1 0 -58.000320 -129.000000 -56.000240 0.000000 0.999999 0.000000 0.000000 0.000000 1.000000 0.999999 0.000000 0.000000 2780.dat
1 1 -58.000320 -109.000000 -66.000230 0.000000 0.999999 0.000000 0.000000 0.000000 -1.000000 -0.999999 0.000000 0.000000 6558.dat
0 STEP
1 71 -84.000400 -109.000000 -46.001340 0.000000 0.999999 0.000000 1.000000 0.000000 0.000000 0.000000 0.000000 -0.999999 3743.dat
0 STEP
1 15 -58.000320 -109.000300 -66.000110 -0.999999 0.000001 -0.000001 0.000001 0.000001 -1.000000 -0.000001 -0.999999 -0.000001 32316.dat
1 0 -58.000340 -89.000030 -76.000160 0.000000 0.999999 0.000000 0.000000 0.000000 1.000000 0.999999 0.000000 0.000000 2780.dat
0 STEP
1 1 1.999910 -89.000140 -86.000140 -0.000001 -0.000001 -0.999999 -1.000000 0.000001 0.000002 0.000001 0.999999 -0.000001 32140.dat
1 1 1.999940 -89.000030 93.999270 -0.000001 -0.000001 -0.999999 -1.000000 0.000001 0.000002 0.000001 0.999999 -0.000001 32140.dat
0 STEP
1 71 1.999890 -88.999980 73.999040 0.999999 0.000000 0.000001 0.000000 1.000000 0.000000 -0.000001 0.000000 0.999999 3713.dat
1 71 1.999890 -88.999980 73.999040 0.000000 0.000000 0.999999 0.000000 -1.000000 0.000000 0.999999 0.000000 0.000000 4519.dat
0 STEP
1 71 1.999880 -89.000140 -66.000170 -0.999999 0.000000 -0.000001 0.000000 1.000000 0.000000 0.000001 0.000000 -0.999999 3713.dat
1 71 2.000170 -89.000110 -66.000420 0.000000 0.000000 0.999999 0.000000 -1.000000 0.000000 0.999999 0.000000 0.000000 4519.dat
0 STEP
1 1 2.000140 -9.000279 -46.000440 0.000000 0.000000 -0.999999 -1.000000 0.000000 0.000000 0.000000 0.999999 0.000000 32009.dat
1 1 1.999940 -9.000100 53.999160 0.000000 0.000000 -0.999999 -1.000000 0.000000 0.000000 0.000000 0.999999 0.000000 32009.dat
0 STEP
1 0 42.000120 -9.000279 -56.000240 0.000000 0.000000 -1.000000 0.000000 1.000000 0.000000 1.000000 0.000000 0.000000 2780.dat
1 0 142.000100 -9.000299 -56.000240 0.000000 0.000000 -1.000000 0.000000 1.000000 0.000000 1.000000 0.000000 0.000000 2780.dat
1 19 162.000100 -9.000330 -56.000240 -0.000001 1.000000 -0.000001 0.000001 0.000001 1.000000 1.000000 0.000001 -0.000001 3749.dat
0 STEP
1 0 141.999800 -9.000130 63.999210 0.000000 0.000000 -1.000000 0.000000 1.000000 0.000000 1.000000 0.000000 0.000000 2780.dat
1 0 41.999940 -9.000110 63.999210 0.000000 0.000000 -1.000000 0.000000 1.000000 0.000000 1.000000 0.000000 0.000000 2780.dat
1 19 161.999900 -9.000110 63.999210 0.000001 -1.000000 0.000001 0.000001 0.000001 1.000000 -1.000000 -0.000001 0.000001 3749.dat
0 STEP
1 1 142.000100 -19.000360 -66.000240 1.000000 0.000000 0.000000 0.000000 1.000000 0.000000 0.000000 0.000000 1.000000 3895.dat
1 1 141.999800 -19.000120 73.999210 1.000000 0.000000 0.000000 0.000000 1.000000 0.000000 0.000000 0.000000 1.000000 3895.dat
0 STEP
0 NOFILE
