0 FILE 旋转杯_Copy.io
0 Untitled Model
0 Name:  旋转杯_Copy
0 Author:  
0 CustomBrick
0 NumOfBricks:  63
0 STEP
1 72 150.573200 -162.533300 -61.410500 0.000000 1.000000 0.000000 1.000000 0.000000 0.000000 0.000000 0.000000 -1.000000 dch003.dat
1 71 190.000200 -200.000000 -139.999700 0.000000 1.000000 0.000000 1.000000 0.000000 0.000000 0.000000 0.000000 -1.000000 dch004.dat
1 25 150.608200 -164.696400 -46.796960 0.000000 1.000000 0.000000 1.000000 0.000000 0.000000 0.000000 0.000000 -1.000000 dch005.dat
0 STEP
1 0 120.000200 -9.999969 -109.999400 -1.000003 0.000000 0.000000 0.000000 1.000000 0.000000 0.000000 0.000000 -1.000003 2780.dat
1 0 120.000200 -9.999969 -149.999500 -1.000003 0.000000 0.000000 0.000000 1.000000 0.000000 0.000000 0.000000 -1.000003 2780.dat
0 STEP
1 0 180.000200 -9.999949 -149.999500 1.000003 0.000000 0.000000 0.000000 1.000000 0.000000 0.000000 0.000000 1.000003 2780.dat
1 0 180.000200 -9.999960 -109.999700 1.000003 0.000000 0.000000 0.000000 1.000000 0.000000 0.000000 0.000000 1.000003 2780.dat
0 STEP
1 1 109.998900 -19.999960 -129.998500 0.000000 0.000000 -1.000000 0.000000 1.000000 0.000000 1.000000 0.000000 0.000000 3703.dat
1 1 189.999300 -19.999940 -129.999300 0.000000 0.000000 0.999999 0.000000 1.000000 0.000000 -0.999999 0.000000 0.000000 3703.dat
0 STEP
1 0 170.000400 -220.000000 -169.999500 0.000000 -1.000000 0.000000 -1.000000 0.000000 0.000000 0.000000 0.000000 -1.000000 2780.dat
1 0 170.000300 -220.000000 -89.999430 0.000000 -1.000000 0.000000 -1.000000 0.000000 0.000000 0.000000 0.000000 -1.000000 2780.dat
1 0 130.000200 -220.000000 -89.999460 0.000000 -1.000000 0.000000 -1.000000 0.000000 0.000000 0.000000 0.000000 -1.000000 2780.dat
1 0 130.000300 -220.000000 -169.999500 0.000000 -1.000000 0.000000 -1.000000 0.000000 0.000000 0.000000 0.000000 -1.000000 2780.dat
0 STEP
1 16 150.000000 -48.000000 -180.000000 0.970296 0.000000 -0.241921 0.000000 1.000000 0.000000 0.241921 0.000000 0.970296 submodel group 3
0 STEP
1 16 270.000000 -264.000000 -290.000000 0.707111 0.000000 0.707102 0.000000 1.000000 0.000000 -0.707102 0.000000 0.707111 submodel group 2
0 STEP
1 16 40.000000 -264.000000 30.000000 0.707112 0.000000 0.707102 0.000000 1.000000 0.000000 -0.707102 0.000000 0.707112 submodel group 1
0 STEP
0 NOFILE
0 FILE SubModel Group 3
0 SubModel Group 3
0 Name:  SubModel Group 3
0 Author:  
0 CustomBrick
0 NumOfBricks:  32
1 15 7.260710 -192.239800 29.110080 0.970296 -0.000001 -0.241920 -0.000001 -1.000000 -0.000001 -0.241920 0.000001 -0.970296 64871.dat
1 0 -26.610800 -182.240100 -106.732000 0.000000 -0.970298 0.241921 1.000000 0.000000 0.000000 0.000000 0.241922 0.970296 2780.dat
1 0 -16.933880 -182.240100 -67.920340 0.000000 -0.970298 0.241921 1.000000 0.000000 0.000000 0.000000 0.241922 0.970296 2780.dat
0 STEP
1 72 21.774040 -177.239800 87.328800 -0.970296 0.000000 0.241921 0.000000 -1.000000 0.000000 0.241921 0.000000 0.970296 99773.dat
1 0 31.450940 -182.239800 126.140400 0.000000 -0.970296 0.241921 1.000000 0.000000 0.000000 0.000000 0.241921 0.970296 2780.dat
0 STEP
1 72 2.419620 -177.000000 9.703380 0.970296 0.000000 -0.241921 0.000000 -1.000000 0.000000 -0.241921 0.000000 -0.970296 99773.dat
1 0 -7.256620 -221.859300 -29.108920 0.000000 0.999999 -0.000001 -1.000000 0.000000 0.000000 0.000000 0.000000 0.999999 3707.dat
0 STEP
1 14 -7.257050 -166.710000 -29.108590 -0.000001 -0.999999 0.000000 0.000000 0.000000 -1.000000 0.999999 0.000000 0.000000 32123a.dat
1 71 -7.257050 -151.859900 -29.108590 -0.000001 0.999999 0.000000 -0.000001 0.000000 1.000001 0.999999 0.000001 0.000000 3713.dat
0 STEP
1 0 12.096580 -282.119200 48.516520 0.000000 -0.888688 0.458514 -1.000000 0.000000 0.000000 0.000000 -0.458512 -0.888689 3708.dat
1 71 12.096070 -172.119900 48.516540 0.458514 -0.888688 0.000000 0.000000 0.000000 1.000000 -0.888689 -0.458512 0.000000 3713.dat
0 STEP
1 71 -7.256820 -212.319700 -29.108870 -0.000001 0.999999 0.000000 0.000000 0.000000 1.000000 1.000000 0.000000 0.000000 3649.dat
1 72 12.095220 -212.081900 48.516040 0.458514 -0.888690 -0.000001 0.000001 0.000000 1.000000 -0.888688 -0.458513 0.000000 3648b.dat
0 STEP
1 15 2.419950 -232.119200 9.703500 0.970296 -0.000001 -0.241920 -0.000001 -1.000000 -0.000001 -0.241920 0.000001 -0.970296 32316.dat
0 STEP
1 72 -7.256640 -251.859200 -29.109010 -0.000001 0.999999 0.000000 0.000000 0.000000 1.000000 1.000000 0.000000 0.000000 3648b.dat
0 STEP
1 14 12.096580 -246.929100 48.516520 0.458514 0.888688 0.000000 0.000000 0.000000 -1.000000 -0.888689 0.458512 0.000000 32123a.dat
1 14 12.096780 -257.119200 48.516480 0.458514 0.888687 0.000000 0.000000 0.000000 -1.000000 -0.888689 0.458511 0.000000 32123a.dat
0 STEP
1 1 2.420060 -270.659300 9.703159 0.241921 0.000000 -0.970296 0.000000 1.000000 0.000000 0.970296 0.000000 0.241921 32001.dat
1 1 2.417600 -278.659600 9.703159 0.241921 0.000000 -0.970295 0.000000 0.999999 0.000000 0.970294 0.000000 0.241921 32001.dat
0 STEP
1 14 12.096580 -283.369200 48.516520 0.458514 0.888688 0.000000 0.000000 0.000000 -1.000000 -0.888689 0.458511 0.000000 32123a.dat
0 STEP
1 71 12.096580 -298.469500 48.516520 0.458514 0.888687 0.000000 0.000000 0.000000 -1.000000 -0.888689 0.458511 0.000000 3713.dat
0 STEP
1 4 12.096770 -328.549300 48.516480 0.000000 0.970296 0.241921 -1.000000 0.000000 0.000000 0.000000 -0.241921 0.970296 62462.dat
0 STEP
1 14 12.096770 -353.849500 48.516480 0.458514 0.888690 0.000000 0.000000 0.000000 -1.000000 -0.888689 0.458513 0.000000 32123a.dat
1 14 12.096770 -363.859400 48.516480 0.458514 0.888690 0.000000 0.000000 0.000000 -1.000000 -0.888689 0.458513 0.000000 32123a.dat
0 STEP
1 15 -21.727680 -181.500000 -87.337390 -0.241921 -0.970296 0.000000 0.000000 0.000000 1.000000 -0.970296 0.241921 0.000000 dx0018.dat
0 STEP
1 16 -20.000000 -156.000000 -90.000000 0.970296 0.000000 0.241921 0.000000 1.000000 0.000000 -0.241921 0.000000 0.970296 submodel group 4
0 STEP
1 14 -7.256830 -286.739300 -29.108870 -0.000002 -1.000002 0.000000 -0.000001 0.000000 -1.000000 1.000001 0.000000 -0.000001 32123a.dat
1 14 -7.256620 -296.859600 -29.108920 -0.000002 -1.000002 0.000000 -0.000001 0.000000 -1.000000 1.000001 0.000000 -0.000001 32123a.dat
0 STEP
1 71 12.095630 -378.899500 48.516440 -0.458514 0.888690 0.000000 0.000000 0.000000 1.000000 0.888689 0.458513 0.000000 3649.dat
1 14 12.096740 -393.989400 48.516380 0.458514 0.888690 0.000000 0.000000 0.000000 -1.000000 -0.888689 0.458512 0.000000 32123a.dat
0 STEP
0 NOFILE
0 FILE SubModel Group 4
0 SubModel Group 4
0 Name:  SubModel Group 4
0 Author:  
0 CustomBrick
0 NumOfBricks:  3
1 0 -2.366290 -46.240100 2.165550 0.000000 -1.000002 0.000000 1.000000 0.000000 0.000000 0.000000 0.000000 1.000000 3705.dat
1 19 -2.365780 -75.740120 2.165560 0.000000 1.000002 0.000000 0.000000 0.000000 1.000000 1.000000 0.000000 0.000000 18575.dat
0 STEP
1 72 -2.365980 -56.240120 2.165550 0.000000 1.000002 0.000000 0.000000 0.000000 1.000000 1.000000 0.000000 0.000000 3647.dat
0 STEP
0 NOFILE
0 FILE SubModel Group 2
0 SubModel Group 2
0 Name:  SubModel Group 2
0 Author:  
0 CustomBrick
0 NumOfBricks:  9
1 71 70.090120 -24.997190 -1.006550 0.707109 -0.707111 0.000000 0.000000 0.000000 1.000010 -0.707118 -0.707102 0.000000 56145.dat
1 0 70.082820 -24.998680 -1.016220 0.707111 -0.707103 0.000000 0.000000 0.000000 -1.000001 0.707102 0.707112 0.000000 44309.dat
1 14 70.090030 -19.237210 -1.006460 0.707111 -0.707109 0.000000 0.000000 0.000000 -1.000010 0.707102 0.707118 0.000000 32123a.dat
0 STEP
1 0 70.089990 -114.238000 -1.006680 0.000000 -0.707109 0.707111 1.000010 0.000000 0.000000 0.000000 0.707118 0.707102 3737.dat
1 14 70.089990 -167.298500 -1.006680 0.707111 -0.707109 0.000000 0.000000 0.000000 -1.000010 0.707103 0.707118 0.000000 32123a.dat
0 STEP
1 1 -69.910670 -182.898600 -11.005180 -1.000005 0.000000 0.000000 0.000000 0.000000 1.000010 0.000009 1.000005 0.000000 3703.dat
0 STEP
1 0 70.088610 -204.238700 -1.007720 -0.707111 0.707109 0.000000 0.000000 0.000000 -1.000009 -0.707102 -0.707118 0.000000 32270.dat
0 STEP
1 4 -209.911100 -182.899900 -1.004320 0.000000 0.707113 0.707105 1.000014 0.000000 -0.000001 -0.000001 0.707100 -0.707118 32054.dat
1 4 -189.911000 -182.899900 -1.004380 0.000001 0.707113 0.707105 1.000014 0.000000 -0.000001 -0.000001 0.707100 -0.707118 32054.dat
0 STEP
0 NOFILE
0 FILE SubModel Group 1
0 SubModel Group 1
0 Name:  SubModel Group 1
0 Author:  
0 CustomBrick
0 NumOfBricks:  9
1 71 -77.124900 -23.658520 -4.769980 -0.707109 0.707104 -0.000001 -0.000001 0.000000 1.000001 0.707119 0.707095 0.000001 56145.dat
1 0 -77.123690 -23.659610 -4.768930 -0.707110 0.707100 0.000001 0.000000 0.000001 -0.999997 -0.707102 -0.707110 -0.000001 44309.dat
1 14 -77.122380 -17.898600 -4.769550 -0.707111 0.707110 0.000001 0.000000 0.000001 -1.000010 -0.707103 -0.707118 -0.000001 32123a.dat
0 STEP
1 0 -77.122500 -112.899500 -4.769430 0.000000 0.707110 -0.707111 1.000010 0.000001 0.000000 0.000000 -0.707118 -0.707103 3737.dat
1 14 -77.122460 -167.730000 -4.769390 -0.707111 0.707110 0.000001 0.000000 0.000001 -1.000010 -0.707103 -0.707118 -0.000001 32123a.dat
0 STEP
1 1 62.878180 -182.899800 5.229130 1.000005 0.000000 0.000000 0.000000 0.000000 1.000010 -0.000010 -1.000005 0.000000 3703.dat
0 STEP
1 0 -77.122540 -202.900400 -4.769480 0.707111 -0.707109 0.000000 0.000000 -0.000001 -1.000010 0.707101 0.707119 0.000000 32270.dat
0 STEP
1 4 202.836900 -182.899800 -6.066010 0.000000 -0.707112 -0.707108 1.000010 0.000001 -0.000001 0.000001 -0.707101 0.707120 32054.dat
1 4 182.878800 -182.899800 -4.772070 0.000000 -0.707112 -0.707108 1.000010 0.000001 -0.000001 0.000001 -0.707101 0.707120 32054.dat
0 STEP
0 NOFILE
