0 FILE 齿轮橡皮联动.io
0 Untitled Model
0 Name:  齿轮橡皮联动
0 Author:  
0 CustomBrick
0 NumOfBricks:  67
1 1 0.000000 -24.000000 10.000120 1.000000 0.000000 0.000000 0.000000 1.000000 0.000000 0.000000 0.000000 1.000000 3895.dat
1 1 0.000000 -24.000000 -9.999880 1.000000 0.000000 0.000000 0.000000 1.000000 0.000000 0.000000 0.000000 1.000000 3895.dat
1 1 0.000000 -24.000000 -49.999880 1.000000 0.000000 0.000000 0.000000 1.000000 0.000000 0.000000 0.000000 1.000000 3895.dat
1 1 0.000000 -24.000000 -29.999880 1.000000 0.000000 0.000000 0.000000 1.000000 0.000000 0.000000 0.000000 1.000000 3895.dat
0 STEP
1 1 110.000000 -48.000000 -19.999880 0.000000 0.000000 1.000000 0.000000 1.000000 0.000000 -1.000000 0.000000 0.000000 3894.dat
0 STEP
1 1 90.000000 -48.000000 -20.000000 0.000000 0.000000 1.000000 0.000000 1.000000 0.000000 -1.000000 0.000000 0.000000 3894.dat
1 1 80.000000 -24.000000 -69.999880 1.000000 0.000000 0.000000 0.000000 1.000000 0.000000 0.000000 0.000000 1.000000 3701.dat
1 1 80.000000 -24.000000 30.000120 1.000000 0.000000 0.000000 0.000000 1.000000 0.000000 0.000000 0.000000 1.000000 3701.dat
0 STEP
1 1 40.000000 -40.000000 -19.999880 -1.000000 0.000000 0.000000 0.000000 1.000000 0.000000 0.000000 0.000000 -1.000000 3709b.dat
1 1 40.000000 -32.000000 -19.999880 -1.000000 0.000000 0.000000 0.000000 1.000000 0.000000 0.000000 0.000000 -1.000000 3709b.dat
0 STEP
1 1 40.000000 -48.000000 -19.999880 1.000000 0.000000 0.000000 0.000000 1.000000 0.000000 0.000000 0.000000 1.000000 3709b.dat
0 STEP
1 1 -40.000000 -24.000000 30.000120 1.000000 0.000000 0.000000 0.000000 1.000000 0.000000 0.000000 0.000000 1.000000 3702.dat
1 15 40.000000 -48.000000 20.000120 1.000000 0.000000 0.000000 0.000000 1.000000 0.000000 0.000000 0.000000 1.000000 3001.dat
0 STEP
1 1 -40.000000 -24.000000 -70.000000 1.000000 0.000000 0.000000 0.000000 1.000000 0.000000 0.000000 0.000000 1.000000 3702.dat
1 15 40.000000 -48.000000 -60.000020 1.000000 0.000000 0.000000 0.000000 1.000000 0.000000 0.000000 0.000000 1.000000 3001.dat
0 STEP
1 1 -60.000000 -32.000000 -19.999880 -1.000000 0.000000 0.000000 0.000000 1.000000 0.000000 0.000000 0.000000 -1.000000 32001.dat
0 STEP
1 1 -60.000000 -40.000000 -19.999880 1.000000 0.000000 -0.000001 0.000000 1.000000 0.000000 0.000001 0.000000 1.000000 32001.dat
1 1 -60.000000 -48.000000 -19.999760 1.000000 0.000000 0.000000 0.000000 1.000000 0.000000 0.000000 0.000000 1.000000 32001.dat
0 STEP
1 15 -100.000100 -48.000000 -60.000000 1.000000 0.000000 0.000000 0.000000 1.000000 0.000000 0.000000 0.000000 1.000000 3941.dat
1 15 -100.000100 -48.000000 20.000120 1.000000 0.000000 0.000000 0.000000 1.000000 0.000000 0.000000 0.000000 1.000000 3941.dat
0 STEP
1 16 100.000000 -48.000000 -20.000000 1.000000 0.000000 0.000000 0.000000 1.000000 0.000000 0.000000 0.000000 1.000000 submodel group 2
0 STEP
1 71 39.999760 -62.250180 -19.999880 0.000000 -1.000000 0.000000 0.000000 0.000000 -1.000000 1.000000 0.000000 0.000000 3713.dat
1 0 39.999760 -82.780170 -19.999880 0.000000 0.000000 1.000000 -1.000000 0.000000 0.000000 0.000000 -1.000000 0.000000 3706.dat
0 STEP
1 71 -40.000120 -62.030080 -19.999760 0.997124 -0.075789 0.000000 0.000000 0.000000 -1.000000 0.075789 0.997124 0.000000 3713.dat
1 0 -40.000120 -83.200080 -19.999760 0.000000 0.075789 -0.997124 1.000000 0.000000 0.000000 0.000000 -0.997124 -0.075789 3706.dat
0 STEP
1 71 39.999880 -71.209980 -19.999880 0.000000 1.000000 0.000000 0.000000 0.000000 -1.000000 -1.000000 0.000000 0.000000 55982.dat
1 0 40.000090 -69.953250 -19.999760 -1.000000 0.000000 -0.000001 0.000001 0.000000 -1.000000 0.000000 -1.000000 0.000000 30391.dat
1 0 -40.000120 -70.634000 -20.006290 1.000000 0.000000 0.000001 0.000001 0.000000 -0.999987 0.000000 0.999988 0.000000 30391.dat
1 71 -40.000120 -70.890010 -19.999700 -0.075789 -0.997124 0.000000 0.000000 0.000000 -1.000000 0.997124 -0.075789 0.000000 55982.dat
0 STEP
1 72 39.999880 -100.090000 -19.999880 1.000000 0.000000 0.000000 0.000000 0.000000 1.000000 0.000000 -1.000000 0.000000 3648b.dat
1 71 -40.000120 -99.460090 -19.999760 0.997124 0.075789 0.000000 0.000000 0.000000 1.000000 0.075789 -0.997124 0.000000 3649.dat
0 STEP
1 15 -0.000240 -119.470100 -19.999880 0.000001 0.000001 -1.000000 0.000001 1.000000 0.000001 1.000000 -0.000001 0.000001 32316.dat
0 STEP
1 71 -40.000120 -135.220100 -19.999760 0.997124 -0.075789 0.000000 0.000000 0.000000 -1.000000 0.075789 0.997124 0.000000 4185.dat
1 14 39.999760 -135.010200 -19.999880 1.000000 0.000000 0.000000 0.000000 0.000000 -1.000000 0.000000 1.000000 0.000000 32123a.dat
0 STEP
1 16 -110.000000 -36.000000 -20.000000 1.000000 0.000000 0.000000 0.000000 1.000000 0.000000 0.000000 0.000000 1.000000 submodel group 1
0 STEP
1 15 -43.000000 -50.194560 -19.000000 1.000000 0.000000 0.000000 0.000000 1.000000 0.000000 0.000000 0.000000 1.000000 xpj0101.dat
0 STEP
0 STEP
0 NOFILE
0 FILE SubModel Group 2
0 SubModel Group 2
0 Name:  SubModel Group 2
0 Author:  
0 CustomBrick
0 NumOfBricks:  18
1 15 -10.000000 -24.000000 -30.000010 1.000000 0.000000 0.000000 0.000000 1.000000 0.000000 0.000000 0.000000 1.000000 3040b.dat
1 15 10.000000 -24.000000 -30.000010 1.000000 0.000000 0.000000 0.000000 1.000000 0.000000 0.000000 0.000000 1.000000 3040b.dat
1 15 -10.000000 -24.000000 30.000000 -1.000000 0.000000 0.000000 0.000000 1.000000 0.000000 0.000000 0.000000 -1.000000 3040b.dat
1 15 10.000000 -24.000000 30.000000 -1.000000 0.000000 0.000000 0.000000 1.000000 0.000000 0.000000 0.000000 -1.000000 3040b.dat
1 15 0.000000 -24.000000 10.000000 1.000000 0.000000 0.000000 0.000000 1.000000 0.000000 0.000000 0.000000 1.000000 32064a.dat
1 15 0.000000 -24.000000 -10.000000 1.000000 0.000000 0.000000 0.000000 1.000000 0.000000 0.000000 0.000000 1.000000 32064a.dat
0 STEP
1 1 0.000000 -32.000000 0.000000 0.000000 0.000000 1.000000 0.000000 1.000000 0.000000 -1.000000 0.000000 0.000000 3709b.dat
0 STEP
1 1 10.000000 -56.000000 19.999630 0.000000 0.000000 1.000001 0.000000 1.000000 0.000000 -1.000001 0.000000 0.000000 3700.dat
1 1 -10.000000 -56.000000 19.999630 0.000000 0.000000 1.000001 0.000000 1.000000 0.000000 -1.000001 0.000000 0.000000 3700.dat
0 STEP
1 1 10.000000 -56.000000 -20.000120 0.000000 0.000000 1.000001 0.000000 1.000000 0.000000 -1.000001 0.000000 0.000000 3700.dat
1 1 -10.000000 -56.000000 -20.000000 0.000000 0.000000 1.000000 0.000000 1.000000 0.000000 -1.000000 0.000000 0.000000 3700.dat
0 STEP
1 1 0.000000 -64.000000 -0.000120 0.000000 0.000000 1.000000 0.000000 1.000000 0.000000 -1.000000 0.000000 0.000000 3709b.dat
0 STEP
1 1 9.999909 -88.000000 0.000120 0.000000 0.000000 1.000000 0.000000 1.000000 0.000000 -1.000000 0.000000 0.000000 3701.dat
1 1 -10.000000 -88.000000 -0.000120 0.000000 0.000000 1.000000 0.000000 1.000000 0.000000 -1.000000 0.000000 0.000000 3701.dat
0 STEP
1 0 1.409880 -77.999980 -0.000120 -1.000000 0.000000 0.000000 0.000000 0.774949 0.632026 0.000000 0.632024 -0.774949 3705.dat
1 71 -26.590120 -77.999950 -0.000060 0.000000 0.000000 -1.000000 0.632024 -0.774949 0.000000 -0.774949 -0.632024 0.000000 3650a.dat
0 STEP
1 71 31.409880 -77.999580 -0.001100 0.000000 1.000000 -0.000001 -0.632024 0.000001 0.774949 0.774949 0.000001 0.632024 33299.dat
1 4 61.409790 -47.001970 25.281430 -1.000000 0.000000 0.000000 0.000000 0.978509 0.206204 0.000000 0.206201 -0.978509 62462.dat
0 STEP
0 NOFILE
0 FILE SubModel Group 1
0 SubModel Group 1
0 Name:  SubModel Group 1
0 Author:  
0 CustomBrick
0 NumOfBricks:  15
1 1 -0.000130 -36.000000 0.000000 0.000000 0.000000 1.000000 0.000000 1.000000 0.000000 -1.000000 0.000000 0.000000 3702.dat
0 STEP
1 71 19.999870 -26.000000 0.000000 0.000001 0.000000 -1.000000 0.000000 1.000000 0.000000 1.000000 0.000000 0.000001 3713.dat
1 71 -0.000130 -26.000000 0.000000 -1.000000 0.000000 0.000000 0.000000 0.000000 1.000000 0.000000 1.000000 0.000000 4519.dat
0 STEP
1 72 -14.870120 -26.000000 0.000000 0.000000 0.000000 -1.000000 0.000000 -1.000000 0.000000 -1.000000 0.000000 0.000000 6575.dat
1 14 -25.000120 -26.000000 0.000000 0.000000 0.000000 1.000000 0.000000 1.000000 0.000000 -1.000000 0.000000 0.000000 32123a.dat
0 STEP
1 1 -0.000010 -44.000000 20.000000 0.000000 0.000000 1.000000 0.000000 1.000000 0.000000 -1.000000 0.000000 0.000000 3710.dat
1 1 -0.000010 -44.000000 -40.000010 0.000000 0.000000 1.000000 0.000000 1.000000 0.000000 -1.000000 0.000000 0.000000 3023.dat
0 STEP
1 1 -0.000130 -68.000000 0.000000 0.000000 0.000000 1.000000 0.000000 1.000000 0.000000 -1.000000 0.000000 0.000000 3894.dat
0 STEP
1 1 -0.000130 -76.000000 -20.000000 0.000000 0.000000 1.000000 0.000000 1.000000 0.000000 -1.000000 0.000000 0.000000 3710.dat
1 1 -0.000130 -76.000000 39.999880 0.000000 0.000000 1.000004 0.000000 1.000000 0.000000 -1.000004 0.000000 0.000000 3023.dat
0 STEP
1 1 -0.000130 -100.000000 0.000000 0.000000 0.000000 1.000000 0.000000 1.000000 0.000000 -1.000000 0.000000 0.000000 3894.dat
0 STEP
1 71 -0.060130 -89.999980 0.000120 -1.000000 0.000000 0.000000 0.000000 0.000000 1.000000 0.000000 1.000000 0.000000 4519.dat
1 71 17.939870 -89.999980 0.000000 0.000000 0.000000 1.000000 0.000000 1.000000 0.000000 -1.000000 0.000000 0.000000 3650a.dat
0 STEP
1 72 -14.800000 -90.000030 0.000240 0.000000 0.000000 -1.000000 0.000000 1.000000 0.000000 1.000000 0.000000 0.000000 6575.dat
1 14 -25.060120 -89.999980 0.000120 0.000000 0.000000 1.000000 0.000000 1.000000 0.000000 -1.000000 0.000000 0.000000 32123a.dat
0 STEP
0 NOFILE
