0 FILE 折叠栏杆.io
0 Untitled Model
0 Name:  折叠栏杆
0 Author:  
0 CustomBrick
0 NumOfBricks:  101
1 1 0.000000 -24.000000 90.000000 1.000000 0.000000 0.000000 0.000000 1.000000 0.000000 0.000000 0.000000 1.000000 3701.dat
1 0 19.999990 -14.000000 80.000000 0.000000 0.000000 -1.000000 0.000000 1.000000 0.000000 1.000000 0.000000 0.000000 2780.dat
1 0 -20.000000 -14.000020 79.999810 0.000000 -1.000000 0.000000 0.000000 0.000000 1.000000 -1.000000 0.000000 0.000000 2780.dat
0 STEP
1 1 0.000000 -32.000000 90.000000 1.000000 0.000000 0.000000 0.000000 1.000000 0.000000 0.000000 0.000000 1.000000 3023.dat
1 1 0.000000 -40.000000 90.000000 1.000000 0.000000 0.000000 0.000000 1.000000 0.000000 0.000000 0.000000 1.000000 3023.dat
0 STEP
1 15 19.999960 -13.999990 69.999810 0.000001 0.000001 -1.000000 -1.000000 0.000001 -0.000001 0.000001 1.000000 0.000001 64871.dat
1 1 -59.999900 -14.000100 90.000420 0.000000 0.000000 -1.000002 0.000000 1.000000 0.000000 1.000002 0.000000 0.000000 6558.dat
1 1 -80.000060 -14.000110 90.000060 0.000000 0.000000 -1.000000 0.000000 1.000000 0.000000 1.000000 0.000000 0.000000 6558.dat
0 STEP
1 1 -60.000140 -74.000140 110.000100 -1.000000 0.000001 0.000001 0.000001 0.000001 1.000000 0.000001 1.000000 -0.000001 32140.dat
1 0 -60.000140 -54.000140 120.000100 0.000000 -1.000000 0.000000 0.000000 0.000000 1.000000 -1.000000 0.000000 0.000000 2780.dat
1 19 -60.000380 -74.000140 120.001700 0.000001 -1.000000 0.000001 0.000001 0.000001 1.000000 -1.000000 -0.000001 0.000001 3749.dat
0 STEP
0 STEP
1 19 -120.000000 -14.000100 59.999920 0.000001 -1.000000 0.000001 0.000001 0.000001 1.000000 -1.000000 -0.000001 0.000001 3749.dat
1 19 80.000000 -13.999910 59.999740 0.000001 -1.000000 0.000001 0.000001 0.000001 1.000000 -1.000000 -0.000001 0.000001 3749.dat
0 STEP
1 1 0.000000 -64.000020 90.000000 1.000000 0.000000 0.000000 0.000000 1.000000 0.000000 0.000000 0.000000 1.000000 3700.dat
1 0 0.000000 -54.000020 80.000110 0.000000 0.000000 -1.000000 0.000000 1.000000 0.000000 1.000000 0.000000 0.000000 2780.dat
0 STEP
1 1 -0.000110 -72.000040 90.000110 -1.000000 0.000000 0.000000 0.000000 1.000000 0.000000 0.000000 0.000000 -1.000000 3023.dat
1 1 -0.000100 -80.000040 90.000080 -1.000000 0.000000 0.000000 0.000000 1.000000 0.000000 0.000000 0.000000 -1.000000 3023.dat
1 1 -0.000100 -104.000000 90.000080 -1.000000 0.000000 0.000000 0.000000 1.000000 0.000000 0.000000 0.000000 -1.000000 3700.dat
1 0 -0.000090 -94.000040 80.000100 0.000000 0.000000 1.000000 0.000000 1.000000 0.000000 -1.000000 0.000000 0.000000 2780.dat
0 STEP
1 15 -0.000090 -114.000000 70.000110 1.000000 -0.000001 0.000001 -0.000001 -0.000001 1.000000 -0.000001 -1.000000 -0.000001 40490.dat
0 STEP
1 19 80.000020 -13.999920 -0.000330 -0.000001 1.000000 -0.000001 0.000001 0.000001 1.000000 1.000000 0.000001 -0.000001 3749.dat
1 4 80.000000 -13.999910 29.999680 0.000000 1.000000 0.000000 -1.000000 0.000000 0.000000 0.000000 0.000000 1.000000 32034.dat
0 STEP
1 19 -120.000000 -14.000120 -0.000080 -0.000001 1.000000 -0.000001 0.000001 0.000001 1.000000 1.000000 0.000001 -0.000001 3749.dat
1 4 -120.000000 -14.000090 29.999920 0.000000 1.000000 0.000000 -1.000000 0.000000 0.000000 0.000000 0.000000 1.000000 32034.dat
0 STEP
1 15 20.000080 -13.999980 -10.000150 0.000001 0.000001 -1.000000 -1.000000 0.000001 -0.000001 0.000001 1.000000 0.000001 64871.dat
0 STEP
1 0 20.000070 -13.999980 -20.000210 0.000000 0.000000 -1.000000 0.000000 1.000000 0.000000 1.000000 0.000000 0.000000 2780.dat
1 0 -19.999920 -14.000020 -20.000090 0.000000 0.000000 -1.000000 0.000000 1.000000 0.000000 1.000000 0.000000 0.000000 2780.dat
0 STEP
1 1 0.000080 -24.000020 -30.000090 1.000000 0.000000 0.000000 0.000000 1.000000 0.000000 0.000000 0.000000 1.000000 3701.dat
0 STEP
1 16 10.000000 -156.000000 40.000000 1.000000 0.000000 0.000000 0.000000 1.000000 0.000000 0.000000 0.000000 1.000000 submodel group 1
0 STEP
1 14 -20.000140 -214.000000 45.000040 0.000000 1.000000 0.000000 1.000000 0.000000 0.000000 0.000000 0.000000 -1.000000 32123a.dat
1 0 -20.000140 -214.000000 60.000040 0.000000 0.000000 1.000000 0.000000 1.000000 0.000000 -1.000000 0.000000 0.000000 3707.dat
1 72 -20.000150 -214.000000 30.000050 1.000000 0.000000 0.000000 0.000000 -1.000000 0.000000 0.000000 0.000000 -1.000000 3648b.dat
0 STEP
1 14 -0.000090 -174.000000 15.260050 0.000000 1.000000 0.000000 -1.000000 0.000000 0.000000 0.000000 0.000000 1.000000 32123a.dat
1 14 -0.000140 -254.000000 15.100080 0.000000 1.000000 0.000000 -1.000000 0.000000 0.000000 0.000000 0.000000 1.000000 32123a.dat
1 14 -20.000150 -214.000000 15.070050 0.000000 1.000000 0.000000 1.000000 0.000000 0.000000 0.000000 0.000000 -1.000000 32123a.dat
0 STEP
1 72 -0.000120 -214.000000 5.000100 0.000000 0.000000 -1.000000 -1.000000 0.000000 0.000000 0.000000 1.000000 0.000000 99773.dat
1 72 -0.000080 -194.000000 0.000040 0.000001 0.000000 1.000000 0.000000 -1.000000 0.000000 1.000000 0.000000 -0.000001 32002.dat
0 STEP
1 15 -0.000010 -114.000000 -10.000030 1.000000 -0.000001 0.000001 -0.000001 -0.000001 1.000000 -0.000001 -1.000000 -0.000001 40490.dat
0 STEP
1 1 0.000080 -32.000020 -30.000090 1.000000 0.000000 0.000000 0.000000 1.000000 0.000000 0.000000 0.000000 1.000000 3023.dat
1 1 0.000080 -40.000020 -30.000090 1.000000 0.000000 0.000000 0.000000 1.000000 0.000000 0.000000 0.000000 1.000000 3023.dat
0 STEP
1 1 0.000080 -64.000020 -30.000090 1.000000 0.000000 0.000000 0.000000 1.000000 0.000000 0.000000 0.000000 1.000000 3700.dat
1 0 0.000060 -54.000020 -20.000090 0.000000 0.000000 -1.000000 0.000000 1.000000 0.000000 1.000000 0.000000 0.000000 2780.dat
0 STEP
1 1 0.000030 -72.000020 -30.000040 1.000000 0.000000 0.000000 0.000000 1.000000 0.000000 0.000000 0.000000 1.000000 3023.dat
1 1 0.000030 -80.000020 -30.000030 1.000000 0.000000 0.000000 0.000000 1.000000 0.000000 0.000000 0.000000 1.000000 3023.dat
1 1 0.000030 -104.000000 -30.000030 1.000000 0.000000 0.000000 0.000000 1.000000 0.000000 0.000000 0.000000 1.000000 3700.dat
1 0 0.000020 -94.000030 -20.000030 0.000000 0.000000 -1.000000 0.000000 1.000000 0.000000 1.000000 0.000000 0.000000 2780.dat
0 STEP
1 0 -40.000220 -214.000000 60.000230 0.000000 0.000000 -1.000000 0.000000 1.000000 0.000000 1.000000 0.000000 0.000000 2780.dat
1 0 -0.000230 -214.000000 60.000110 0.000000 0.000000 -1.000000 0.000000 1.000000 0.000000 1.000000 0.000000 0.000000 2780.dat
0 STEP
1 0 -0.000140 -214.000000 0.000160 0.000000 0.000000 -1.000000 0.000000 1.000000 0.000000 1.000000 0.000000 0.000000 2780.dat
1 0 -40.000130 -214.000000 0.000160 0.000000 0.000000 -1.000000 0.000000 1.000000 0.000000 1.000000 0.000000 0.000000 2780.dat
0 STEP
1 15 -80.000140 -214.000100 -9.999780 0.000001 0.000001 -1.000000 -1.000000 0.000001 -0.000001 0.000001 1.000000 0.000001 64871.dat
0 STEP
1 71 39.999840 -214.000100 -30.249480 0.996195 -0.087154 0.000000 0.087154 0.996195 0.000000 0.000000 0.000000 1.000001 3713.dat
1 0 39.999870 -213.999900 41.150440 0.000000 -0.087154 0.996195 0.000000 0.996195 0.087154 -1.000001 0.000000 0.000000 3708.dat
0 STEP
1 19 59.999860 -213.999900 0.000100 -0.000001 1.000000 -0.000001 0.000001 0.000001 1.000000 1.000000 0.000001 -0.000001 3749.dat
1 19 59.999820 -213.999900 60.000110 0.000001 -1.000000 0.000001 0.000001 0.000001 1.000000 -1.000000 -0.000001 0.000001 3749.dat
1 4 59.999860 -213.999900 30.000110 0.000000 -1.000000 0.000000 1.000000 0.000000 0.000000 0.000000 0.000000 1.000000 32034.dat
0 STEP
1 19 -100.000000 -214.000100 59.999920 0.000001 -1.000000 0.000001 0.000001 0.000001 1.000000 -1.000000 -0.000001 0.000001 3749.dat
1 19 -100.000200 -214.000100 0.000160 -0.000001 1.000000 -0.000001 0.000001 0.000001 1.000002 1.000000 0.000001 -0.000001 3749.dat
1 4 -100.000200 -214.000000 30.000230 -1.000000 0.000000 0.000000 0.000000 -1.000003 0.000000 0.000000 0.000000 1.000000 32034.dat
0 STEP
1 15 -80.000230 -214.000100 70.000240 0.000001 0.000001 -1.000000 -1.000000 0.000001 -0.000001 0.000001 1.000000 0.000001 64871.dat
0 STEP
1 71 39.999890 -213.999900 89.150440 -0.087154 -0.996195 0.000000 0.996195 -0.087154 0.000001 -0.000001 0.000000 1.000000 3650c.dat
1 72 -20.000150 -214.000000 90.180190 0.000000 -1.000000 0.000000 1.000000 0.000000 0.000000 0.000000 0.000000 1.000000 3648b.dat
0 STEP
1 71 39.999860 -214.000100 151.150700 0.996195 0.000000 0.087154 0.087154 -0.000001 -0.996195 0.000000 1.000001 -0.000001 33299.dat
1 71 39.999840 -214.000200 110.880700 0.996195 -0.087154 0.000000 0.087154 0.996195 0.000000 0.000000 0.000000 1.000001 3713.dat
1 71 39.999870 -214.000200 131.060700 0.996195 -0.087154 0.000000 0.087154 0.996195 0.000000 0.000000 0.000000 1.000001 3713.dat
0 STEP
1 71 -20.000050 -214.000100 129.999900 0.000001 -0.000001 -1.000000 1.000000 0.000001 0.000001 0.000001 -1.000000 0.000001 33299.dat
1 15 -160.000100 -214.000100 110.000200 0.000001 0.000001 -1.000000 -1.000000 0.000001 -0.000001 0.000001 1.000000 0.000001 64871.dat
1 0 -300.000200 -214.000300 120.000300 0.000000 0.000000 -1.000000 0.000000 1.000000 0.000000 1.000000 0.000000 0.000000 2780.dat
0 STEP
1 1 -398.123400 -228.645900 130.953400 0.148328 0.000001 0.988939 -0.988939 0.000000 0.148328 0.000000 -1.000001 0.000001 6629.dat
1 19 -256.508200 -255.942300 141.153400 0.000001 -0.712025 0.702154 0.000001 0.702154 0.712025 -1.000001 0.000000 0.000002 3749.dat
0 STEP
1 15 -457.424100 -237.780200 110.953500 0.151261 0.000001 -0.988494 -0.988494 0.000001 -0.151261 0.000001 1.000000 0.000001 64871.dat
1 0 -378.344500 -225.679300 120.953400 0.000000 0.000000 -1.000000 0.000000 1.000000 0.000000 1.000000 0.000000 0.000000 2780.dat
1 0 -338.787000 -219.746200 120.953400 0.000000 0.000000 -1.000000 0.000000 1.000000 0.000000 1.000000 0.000000 0.000000 2780.dat
0 STEP
1 15 -196.508700 -255.523700 151.153600 0.006980 0.000001 -0.999976 -0.999976 0.000001 -0.006980 0.000001 1.000001 0.000001 32524.dat
1 0 -136.509400 -255.104900 161.153500 0.000000 -0.006979 -0.999976 0.000000 0.999976 -0.006979 1.000001 0.000000 0.000000 2780.dat
1 0 -156.509600 -255.244500 161.153600 0.000000 -0.006979 -0.999976 0.000000 0.999976 -0.006979 1.000001 0.000000 0.000000 2780.dat
0 STEP
1 15 -36.512060 -254.406200 171.150800 0.006980 0.000001 -0.999976 -0.999976 0.000001 -0.006980 0.000001 1.000001 0.000001 64871.dat
0 STEP
1 15 79.999880 -274.000000 30.130110 -0.000001 -0.000001 1.000000 0.000001 1.000000 0.000001 -1.000000 0.000001 -0.000001 32524.dat
1 0 39.999890 -264.000000 30.130110 0.000000 0.000000 -1.000000 1.000000 0.000000 0.000000 0.000000 -1.000000 0.000000 2780.dat
1 19 79.999850 -284.000000 30.130110 -0.000001 0.939694 0.342019 -1.000000 -0.000001 0.000000 0.000001 -0.342019 0.939693 3749.dat
0 STEP
1 72 79.999840 -294.000000 30.130110 -0.342020 -0.939693 0.000000 0.000000 0.000000 1.000000 -0.939693 0.342020 0.000000 3647.dat
1 71 19.999920 -294.210100 30.130170 1.000000 0.000000 0.000000 0.000000 0.000000 1.000000 0.000000 -1.000000 0.000000 3649.dat
0 STEP
1 0 139.999900 -264.000000 30.130050 0.000000 0.000000 -1.000000 1.000000 0.000000 0.000000 0.000000 -1.000000 0.000000 2780.dat
1 0 99.999900 -264.000000 30.130110 0.000000 0.000000 -1.000000 1.000000 0.000000 0.000000 0.000000 -1.000000 0.000000 2780.dat
0 STEP
1 71 119.999900 -273.290000 30.130050 0.000000 -1.000000 0.000000 -1.000000 0.000000 0.000000 0.000000 0.000000 -1.000000 4519.dat
1 72 119.999900 -293.290000 30.130050 1.000000 0.000000 0.000000 0.000000 0.000000 1.000000 0.000000 -1.000000 0.000000 3648b.dat
0 STEP
1 15 119.969500 -262.282500 30.000520 0.000000 -1.000000 0.000000 0.000000 0.000000 1.000000 -1.000000 0.000000 0.000000 dx0064.dat.dat
1 16 103.000000 -4.000000 140.000000 -1.000000 0.000000 0.000000 0.000000 1.000000 0.000000 0.000000 0.000000 -1.000000 submodel group 9 copy copy copy
0 STEP
0 STEP
0 NOFILE
0 FILE SubModel Group 1
0 SubModel Group 1
0 Name:  SubModel Group 1
0 Author:  
0 CustomBrick
0 NumOfBricks:  12
1 14 -10.000080 -18.000020 5.310040 0.000000 1.000000 0.000000 -1.000000 0.000000 0.000000 0.000000 0.000000 1.000000 32123a.dat
1 71 -10.000090 -18.000030 -9.999949 0.000000 0.000000 1.000000 0.000000 1.000000 0.000000 -1.000000 0.000000 0.000000 32073.dat
1 4 9.999920 -18.000030 -9.719990 0.000000 1.000000 0.000000 0.000000 0.000000 1.000000 1.000000 0.000000 0.000000 42003.dat
0 STEP
1 14 9.999900 -33.030060 -9.869949 1.000000 0.000000 0.000000 0.000000 0.000000 -1.000000 0.000000 1.000000 0.000000 32123a.dat
1 0 9.999920 -80.650040 -9.869890 0.000000 1.000000 0.000000 1.000000 0.000000 0.000000 0.000000 0.000000 -1.000000 3707.dat
1 71 9.999900 -57.810040 -9.869830 0.000000 1.000000 0.000000 0.000000 0.000000 -1.000000 -1.000000 0.000000 0.000000 4716.dat
0 STEP
1 14 9.999920 -82.840030 -9.869830 1.000000 0.000000 0.000000 0.000000 0.000000 -1.000000 0.000000 1.000000 0.000000 32123a.dat
1 4 9.999889 -98.000030 -9.869890 0.000000 1.000000 0.000000 0.000000 0.000000 1.000000 1.000000 0.000000 0.000000 42003.dat
0 STEP
1 14 -10.000120 -98.000030 5.270130 0.000000 1.000000 0.000000 -1.000000 0.000000 0.000000 0.000000 0.000000 1.000000 32123a.dat
1 71 -10.000120 -98.000030 -7.269910 0.000000 0.000000 1.000000 0.000000 1.000000 0.000000 -1.000000 0.000000 0.000000 32073.dat
0 STEP
1 72 -10.000110 -58.000030 15.330060 0.000000 0.000000 -1.000000 -1.000000 0.000000 0.000000 0.000000 1.000000 0.000000 99773.dat
1 72 -10.000090 -38.000030 20.330060 -0.000001 0.000000 -1.000000 0.000000 -1.000000 0.000000 -1.000000 0.000000 0.000001 32002.dat
0 STEP
0 NOFILE
0 FILE SubModel Group 9 Copy Copy Copy
0 SubModel Group 9 Copy Copy Copy
0 Name:  SubModel Group 9 Copy Copy Copy
0 Author:  
0 CustomBrick
0 NumOfBricks:  3
1 72 10.000000 -1.128810 -10.000000 1.000000 0.000000 0.000000 0.000000 0.000000 -1.000000 0.000000 1.000000 0.000000 dch003.dat
1 71 -27.466620 -79.717990 29.427020 1.000000 0.000000 0.000000 0.000000 0.000000 -1.000000 0.000000 1.000000 0.000000 dch004.dat
1 25 7.837010 13.484720 -9.965000 1.000000 0.000000 0.000000 0.000000 0.000000 -1.000000 0.000000 1.000000 0.000000 dch005.dat
0 NOFILE
