0 FILE BLK018电动风力车_Copy.io
0 Untitled Model
0 Name:  BLK018电动风力车_Copy
0 Author:  
0 CustomBrick
0 NumOfBricks:  93
1 0 63.999820 -128.406800 119.000100 0.000000 0.000000 1.000002 0.000000 -1.000002 0.000000 1.000000 0.000000 0.000000 2780.dat
1 0 63.999830 -88.406900 119.000100 0.000000 0.000000 1.000002 0.000000 -1.000002 0.000000 1.000000 0.000000 0.000000 2780.dat
1 16 -99.000460 -38.574110 158.860100 1.000002 0.000000 0.000000 0.000000 1.000002 0.000000 0.000000 0.000000 1.000000 submodel group 9 copy copy copy
0 STEP
1 1 63.999820 -128.406800 109.000100 1.000002 -0.000001 -0.000001 0.000001 0.000001 1.000002 -0.000001 -1.000000 0.000001 32526.dat
0 STEP
1 16 130.000000 -36.000000 170.000000 1.000000 0.000000 0.000000 0.000000 1.000000 0.000000 0.000000 0.000000 1.000000 submodel group 6
0 STEP
1 1 104.000000 -48.406760 109.000100 0.000000 1.000002 0.000000 0.000000 0.000000 1.000002 1.000000 0.000000 0.000000 6558.dat
0 STEP
1 16 150.000000 -36.000000 110.000000 1.000000 0.000000 0.000000 0.000000 1.000000 0.000000 0.000000 0.000000 1.000000 submodel group 5
0 STEP
1 15 103.999900 -48.406720 89.000070 -0.000001 -0.000001 1.000002 -1.000002 0.000001 -0.000001 -0.000001 -1.000000 -0.000001 32316.dat
0 STEP
1 1 243.999900 -48.406780 119.000100 0.000000 -1.000002 0.000000 0.000000 0.000000 1.000002 -1.000000 0.000000 0.000000 43093.dat
1 0 344.000200 -48.406780 119.000000 0.000000 -1.000002 0.000000 0.000000 0.000000 -1.000002 1.000000 0.000000 0.000000 2780.dat
0 STEP
1 1 404.000300 -47.906780 109.000000 0.000000 0.000000 1.000002 -1.000002 0.000000 0.000000 0.000000 -1.000000 0.000000 32009.dat
0 STEP
1 1 243.999800 -48.406780 179.000200 0.000000 1.000002 0.000000 0.000000 0.000000 1.000002 1.000000 0.000000 0.000000 43093.dat
1 0 344.000200 -48.406780 179.000100 0.000000 -1.000002 0.000000 0.000000 0.000000 -1.000002 1.000000 0.000000 0.000000 2780.dat
0 STEP
1 16 400.000000 -120.000000 150.000000 1.000000 0.000000 0.000000 0.000000 1.000000 0.000000 0.000000 0.000000 1.000000 submodel group 4
0 STEP
1 1 404.000300 -47.906780 189.000100 0.000000 0.000000 1.000002 -1.000002 0.000000 0.000000 0.000000 -1.000000 0.000000 32009.dat
0 STEP
1 1 163.999900 -168.406900 209.000200 1.000002 -0.000001 0.000001 -0.000001 -0.000001 1.000002 -0.000001 -1.000000 -0.000001 41239.dat
0 STEP
1 0 164.000000 -288.407100 199.000100 0.000000 1.000002 0.000000 0.000000 0.000000 -1.000002 -1.000000 0.000000 0.000000 2780.dat
1 0 164.000000 -148.406900 199.000200 0.000000 1.000002 0.000000 0.000000 0.000000 -1.000002 -1.000000 0.000000 0.000000 2780.dat
0 STEP
1 16 170.000000 -144.000000 140.000000 1.000000 0.000000 0.000000 0.000000 1.000000 0.000000 0.000000 0.000000 1.000000 submodel group 3
0 STEP
1 1 164.000000 -168.407000 89.000070 -1.000002 0.000001 -0.000001 -0.000001 -0.000001 1.000002 0.000001 1.000000 0.000001 41239.dat
0 STEP
1 16 -170.000000 -36.000000 120.000000 1.000000 0.000000 0.000000 0.000000 1.000000 0.000000 0.000000 0.000000 1.000000 submodel group 2
0 STEP
1 16 -240.000000 -12.000000 160.000000 1.000000 0.000000 0.000000 0.000000 1.000000 0.000000 0.000000 0.000000 1.000000 submodel group 1
0 STEP
1 15 152.008400 -388.749200 149.000100 0.000000 0.000000 -1.000002 0.000000 1.000001 0.000000 1.000000 0.000000 0.000000 dx0047.dat
0 STEP
1 1 -295.992200 -48.406620 179.032600 0.000000 1.000002 0.000000 0.000000 0.000000 1.000003 1.000000 0.000000 0.000000 43093.dat
1 1 -135.992100 -128.406800 179.000100 0.000000 1.000002 0.000000 0.000000 0.000000 1.000002 1.000000 0.000000 0.000000 43093.dat
0 STEP
1 1 -295.992300 -128.906800 189.000100 0.000000 0.000000 -1.000002 1.000002 0.000000 0.000000 0.000000 -1.000000 0.000000 32009.dat
0 STEP
1 1 -295.992200 -48.406620 119.032600 0.000000 -1.000002 0.000000 0.000000 0.000000 1.000002 -1.000000 0.000000 0.000000 43093.dat
1 1 -135.992100 -128.406800 119.032500 0.000000 -1.000002 0.000000 0.000000 0.000000 1.000002 -1.000000 0.000000 0.000000 43093.dat
0 STEP
1 0 174.000000 -388.407300 149.000000 1.000002 0.000000 0.000000 0.000000 1.000002 0.000000 0.000000 0.000000 1.000000 3705.dat
0 STEP
1 71 205.500200 -388.407300 149.000100 0.000000 0.000000 -1.000002 0.000000 1.000002 0.000000 1.000000 0.000000 0.000000 3649.dat
0 STEP
1 1 -295.992300 -128.906800 109.032500 0.000000 0.000000 -1.000002 1.000002 0.000000 0.000000 0.000000 -1.000000 0.000000 32009.dat
0 STEP
1 71 214.375200 -378.407300 119.000100 -1.000002 0.000000 0.000000 0.000000 1.000002 0.000000 0.000000 0.000000 -1.000000 3673.dat
1 71 214.375200 -378.407300 139.000100 -1.000002 0.000000 0.000000 0.000000 1.000002 0.000000 0.000000 0.000000 -1.000000 3673.dat
0 STEP
1 71 214.375200 -398.407300 159.000000 -1.000002 0.000000 0.000000 0.000000 1.000002 0.000000 0.000000 0.000000 -1.000000 3673.dat
1 71 214.375200 -398.407400 179.000100 -1.000002 0.000000 0.000000 0.000000 1.000002 0.000000 0.000000 0.000000 -1.000000 3673.dat
0 STEP
1 15 224.375200 -378.407300 139.000000 0.000000 0.000000 -1.000002 -1.000002 0.000000 0.000000 0.000000 1.000000 0.000000 89509.dat
1 15 224.375200 -398.407400 159.000000 0.000000 0.000000 -1.000002 1.000002 0.000000 0.000000 0.000000 -1.000000 0.000000 89509.dat
0 STEP
1 0 404.000500 -108.406900 149.000000 0.000000 0.000000 -1.000002 0.000000 1.000002 0.000000 1.000000 0.000000 0.000000 60485.dat
1 71 404.000500 -108.406900 89.000030 1.000002 0.000000 0.000001 0.000000 1.000002 0.000000 -0.000001 0.000000 1.000000 3713.dat
1 71 404.000500 -108.406900 209.000000 -1.000002 0.000000 -0.000001 0.000000 1.000002 0.000000 0.000001 0.000000 -1.000000 3713.dat
0 STEP
1 71 404.000500 -108.406900 69.000030 0.000000 -0.999998 0.000000 -0.999998 0.000000 -0.000001 0.000001 0.000000 -1.000000 2903.dat
1 0 404.001500 -108.407200 69.000120 -0.064952 -0.997891 0.000000 0.997891 -0.064952 0.000000 0.000000 0.000000 1.000000 2902.dat
1 71 404.000000 -108.406900 229.000000 0.000000 -1.000000 0.000000 -1.000000 0.000000 -0.000001 0.000001 0.000000 -1.000000 2903.dat
1 0 404.000500 -108.407100 229.000000 -0.064952 -0.997892 0.000000 0.997892 -0.064952 0.000000 0.000000 0.000000 1.000000 2902.dat
0 STEP
0 STEP
0 NOFILE
0 FILE SubModel Group 9 Copy Copy Copy
0 SubModel Group 9 Copy Copy Copy
0 Name:  SubModel Group 9 Copy Copy Copy
0 Author:  
0 CustomBrick
0 NumOfBricks:  3
1 72 10.000000 -1.128810 -10.000000 1.000000 0.000000 0.000000 0.000000 0.000000 -1.000000 0.000000 1.000000 0.000000 dch003.dat
1 71 -27.466620 -79.717990 29.427020 1.000000 0.000000 0.000000 0.000000 0.000000 -1.000000 0.000000 1.000000 0.000000 dch004.dat
1 25 7.837010 13.484720 -9.965000 1.000000 0.000000 0.000000 0.000000 0.000000 -1.000000 0.000000 1.000000 0.000000 dch005.dat
0 NOFILE
0 FILE SubModel Group 6
0 SubModel Group 6
0 Name:  SubModel Group 6
0 Author:  
0 CustomBrick
0 NumOfBricks:  14
1 1 34.000050 -92.406890 19.000200 -1.000002 0.000001 0.000001 0.000001 0.000001 1.000003 0.000001 1.000000 -0.000001 32526.dat
1 1 -6.000060 -12.406770 19.000200 0.000000 -1.000002 0.000000 0.000000 0.000000 1.000002 -1.000000 0.000000 0.000000 6558.dat
0 STEP
1 0 34.000050 -92.406890 29.000200 0.000000 1.000002 0.000000 0.000000 0.000000 -1.000002 -1.000000 0.000000 0.000000 2780.dat
1 1 33.999970 -12.406770 19.000200 0.000000 -1.000002 0.000000 0.000000 0.000000 1.000002 -1.000000 0.000000 0.000000 6558.dat
0 STEP
1 15 -26.000160 -12.406730 39.000220 -0.000001 -0.000001 1.000002 -1.000002 0.000001 -0.000001 -0.000001 -1.000000 -0.000001 32316.dat
0 STEP
1 1 -26.000010 -12.406770 19.000200 0.000000 -1.000002 0.000000 0.000000 0.000000 1.000002 -1.000000 0.000000 0.000000 6558.dat
0 STEP
1 1 -66.000180 -92.406860 19.000200 1.000002 -0.000001 -0.000001 0.000001 0.000001 1.000002 -0.000001 -1.000000 0.000001 32526.dat
0 STEP
1 0 -66.000170 -12.406750 9.000199 0.000000 1.000002 0.000000 0.000000 0.000000 -1.000002 -1.000000 0.000000 0.000000 2780.dat
0 STEP
1 0 -66.000180 -92.406740 9.000170 0.000000 1.000002 0.000000 0.000000 0.000000 -1.000002 -1.000000 0.000000 0.000000 2780.dat
1 0 -66.000170 -52.406780 9.000199 0.000000 1.000002 0.000000 0.000000 0.000000 -1.000002 -1.000000 0.000000 0.000000 2780.dat
0 STEP
1 1 74.000030 -12.406670 -0.999730 -0.000001 -0.000001 1.000002 -1.000002 0.000001 -0.000001 -0.000001 -1.000000 -0.000001 64871.dat
0 STEP
1 71 153.999900 -12.406780 -20.999970 -0.000001 1.000002 -0.000001 -1.000002 -0.000001 0.000001 0.000001 0.000001 1.000000 48989.dat
0 STEP
1 1 74.000030 -12.406670 -40.999880 -0.000001 -0.000001 1.000002 -1.000002 0.000001 -0.000001 -0.000001 -1.000000 -0.000001 64871.dat
0 STEP
1 0 -66.000170 -12.406780 -50.999940 0.000000 0.000000 1.000002 0.000000 -1.000002 0.000000 1.000000 0.000000 0.000000 2780.dat
0 STEP
0 NOFILE
0 FILE SubModel Group 5
0 SubModel Group 5
0 Name:  SubModel Group 5
0 Author:  
0 CustomBrick
0 NumOfBricks:  4
1 1 13.999940 -92.406890 -0.999940 -1.000002 0.000001 0.000001 0.000001 0.000001 1.000002 0.000001 1.000001 -0.000001 32526.dat
0 STEP
1 1 -26.000060 -12.406760 -0.999920 0.000000 1.000002 0.000000 0.000000 0.000000 1.000002 1.000000 0.000000 0.000000 6558.dat
1 1 14.000080 -12.406750 -1.000000 0.000000 1.000002 0.000000 0.000000 0.000000 1.000002 1.000000 0.000000 0.000000 6558.dat
0 STEP
1 0 13.999940 -92.406770 -10.999890 0.000000 -1.000002 0.000000 0.000000 0.000000 -1.000002 1.000000 0.000000 0.000000 2780.dat
0 STEP
0 NOFILE
0 FILE SubModel Group 4
0 SubModel Group 4
0 Name:  SubModel Group 4
0 Author:  
0 CustomBrick
0 NumOfBricks:  4
1 0 4.000370 -8.406910 -1.000020 0.000000 0.000000 -1.000002 0.000000 1.000002 0.000000 1.000000 0.000000 0.000000 32073.dat
1 71 4.000370 -7.906970 -21.000050 -1.000002 0.000000 -0.000001 0.000000 1.000002 0.000000 0.000001 0.000000 -1.000000 3713.dat
0 STEP
1 71 4.000370 -7.906970 -1.000020 -1.000002 0.000000 -0.000001 0.000000 1.000002 0.000000 0.000001 0.000000 -1.000000 3713.dat
1 71 4.000370 -7.906970 19.000000 -1.000002 0.000000 -0.000001 0.000000 1.000002 0.000000 0.000001 0.000000 -1.000000 3713.dat
0 STEP
0 NOFILE
0 FILE SubModel Group 3
0 SubModel Group 3
0 Name:  SubModel Group 3
0 Author:  
0 CustomBrick
0 NumOfBricks:  13
1 1 13.999940 -244.407300 9.000110 -0.000001 -1.000002 -0.000001 -1.000002 0.000001 -0.000001 0.000001 0.000001 -1.000000 32523.dat
0 STEP
1 1 -6.000020 -244.407300 29.000100 -1.000000 0.000000 0.000000 0.000000 0.000000 1.000000 0.000000 1.000000 0.000000 6558.dat
1 1 -5.999990 -244.407400 -10.999570 -1.000000 0.000000 0.000000 0.000000 0.000000 1.000003 0.000000 1.000001 0.000000 6558.dat
0 STEP
1 1 -6.000120 -244.407300 -10.999850 -1.000002 0.000000 0.000000 0.000000 0.000000 -1.000002 0.000000 -1.000000 0.000000 14720.dat
1 1 -6.000120 -244.407300 29.000110 -1.000002 0.000000 0.000000 0.000000 0.000000 -1.000002 0.000000 -1.000000 0.000000 14720.dat
0 STEP
1 0 -6.000020 -284.407300 39.000110 0.000000 0.000000 1.000002 0.000000 1.000002 0.000000 -1.000000 0.000000 0.000000 2780.dat
1 0 -6.000000 -204.407100 39.000120 0.000000 0.000000 1.000002 0.000000 1.000002 0.000000 -1.000000 0.000000 0.000000 2780.dat
0 STEP
1 1 -6.000090 -144.407300 49.000230 1.000002 -0.000001 0.000001 -0.000001 -0.000001 1.000002 -0.000001 -1.000000 -0.000001 64871.dat
0 STEP
1 0 -6.000120 -284.407100 -20.999860 0.000000 0.000000 1.000002 0.000000 1.000002 0.000000 -1.000000 0.000000 0.000000 2780.dat
1 0 -6.000110 -204.407100 -20.999860 0.000000 0.000000 1.000002 0.000000 1.000002 0.000000 -1.000000 0.000000 0.000000 2780.dat
0 STEP
1 1 -6.000200 -144.407300 -30.999770 1.000002 -0.000001 0.000001 -0.000001 -0.000001 1.000002 -0.000001 -1.000000 -0.000001 64871.dat
0 STEP
1 0 -6.000090 -144.407300 -40.999850 0.000000 1.000002 0.000000 0.000000 0.000000 -1.000002 -1.000000 0.000000 0.000000 2780.dat
1 0 -6.000060 -4.406850 -40.999850 0.000000 1.000002 0.000000 0.000000 0.000000 -1.000002 -1.000000 0.000000 0.000000 2780.dat
0 STEP
0 NOFILE
0 FILE SubModel Group 2
0 SubModel Group 2
0 Name:  SubModel Group 2
0 Author:  
0 CustomBrick
0 NumOfBricks:  7
1 1 34.007860 -72.406720 -0.967470 0.000000 -1.000002 0.000000 0.000000 0.000000 1.000002 -1.000000 0.000000 0.000000 43093.dat
1 1 34.007860 -72.406720 -10.967450 -1.000002 0.000001 0.000001 0.000001 0.000001 1.000002 0.000001 1.000000 -0.000001 32140.dat
1 0 34.007880 -52.406720 -0.967470 0.000000 -1.000002 0.000000 0.000000 0.000000 1.000002 -1.000000 0.000000 0.000000 2780.dat
0 STEP
1 0 14.007870 -12.406650 -0.967470 0.000000 -1.000002 0.000000 0.000000 0.000000 1.000002 -1.000000 0.000000 0.000000 2780.dat
1 0 34.007880 -12.406650 -0.967470 0.000000 -1.000002 0.000000 0.000000 0.000000 1.000002 -1.000000 0.000000 0.000000 2780.dat
0 STEP
1 1 -65.992240 -12.406570 9.032590 -0.000001 -0.000001 1.000002 -1.000002 0.000001 -0.000001 -0.000001 -1.000000 -0.000001 64290.dat
0 STEP
1 71 -85.992130 -12.406620 29.032580 0.000001 -1.000002 0.000001 1.000002 0.000001 -0.000001 0.000001 0.000001 1.000000 48989.dat
0 STEP
0 NOFILE
0 FILE SubModel Group 1
0 SubModel Group 1
0 Name:  SubModel Group 1
0 Author:  
0 CustomBrick
0 NumOfBricks:  11
1 1 104.008100 -96.406830 19.000110 0.000000 1.000002 0.000000 0.000000 0.000000 1.000002 1.000000 0.000000 0.000000 43093.dat
1 0 104.008000 -76.406810 19.000110 0.000000 -1.000002 0.000000 0.000000 0.000000 1.000002 -1.000000 0.000000 0.000000 2780.dat
1 1 104.008100 -96.406830 29.000080 -1.000002 0.000001 0.000001 0.000001 0.000001 1.000002 0.000001 1.000000 -0.000001 32140.dat
0 STEP
1 0 84.007970 -36.406650 19.032580 0.000000 -1.000002 0.000000 0.000000 0.000000 1.000002 -1.000000 0.000000 0.000000 2780.dat
1 0 104.008000 -36.406650 19.032580 0.000000 -1.000002 0.000000 0.000000 0.000000 1.000002 -1.000000 0.000000 0.000000 2780.dat
0 STEP
1 1 4.007680 -36.406570 9.032619 -0.000001 -0.000001 1.000002 -1.000002 0.000001 -0.000001 -0.000001 -1.000000 -0.000001 64290.dat
0 STEP
1 0 -95.992190 -36.406620 -10.967440 0.000000 0.000000 -1.000002 0.000000 -1.000002 0.000000 -1.000000 0.000000 0.000000 4519.dat
0 STEP
1 0 -95.992190 -36.406620 -5.967450 0.000000 1.000002 0.000000 1.000002 0.000000 0.000001 0.000001 0.000000 -1.000000 2815.dat
1 14 -95.992190 -36.406620 -5.967450 0.000000 1.000002 0.000000 -1.000002 0.000000 0.000000 0.000000 0.000000 1.000000 4185.dat
0 STEP
1 0 -95.992190 -36.406620 -15.967440 0.000000 1.000002 0.000000 1.000002 0.000000 0.000001 0.000001 0.000000 -1.000000 2815.dat
1 14 -95.992190 -36.406620 -15.967440 0.000000 1.000002 0.000000 -1.000002 0.000000 0.000000 0.000000 0.000000 1.000000 4185.dat
0 STEP
0 NOFILE
