0 Untitled Model
0 Name:  锄头
0 Author:  
0 CustomBrick
0 NumOfBricks:  14
1 1 97.001350 -9.000040 -11.004540 -1.000000 0.000001 0.000001 -0.000001 -0.000001 -1.000000 -0.000001 -1.000000 0.000001 32526.dat
1 0 97.001400 -88.999950 -21.004420 0.000000 0.000000 -1.000000 0.000000 1.000000 0.000000 1.000000 0.000000 0.000000 2780.dat
1 1 77.001420 -88.999980 -11.004420 0.000000 0.000000 1.000000 0.000000 1.000000 0.000000 -1.000000 0.000000 0.000000 6558.dat
0 STEP
1 1 97.001300 -9.000020 -31.004560 -1.000000 0.000001 0.000001 -0.000001 -0.000001 -1.000000 -0.000001 -1.000000 0.000001 32526.dat
0 STEP
1 1 56.999940 -89.000030 8.999990 0.000000 0.000000 -1.000004 0.000000 1.000000 0.000000 1.000004 0.000000 0.000000 6558.dat
0 STEP
1 1 97.000290 -9.000070 8.999929 -1.000000 0.000001 0.000001 -0.000001 -0.000001 -0.999996 -0.000001 -0.999996 0.000001 32140.dat
1 1 97.000060 -69.000080 9.000110 0.000000 0.000000 1.000000 0.000000 1.000000 0.000000 -1.000000 0.000000 0.000000 6558.dat
0 STEP
1 0 97.000240 -29.000100 18.999730 0.000000 -1.000000 0.000000 0.000000 0.000000 1.000000 -1.000000 0.000000 0.000000 2780.dat
1 0 96.999980 -49.000040 18.999730 0.000000 -1.000000 0.000000 0.000000 0.000000 1.000000 -1.000000 0.000000 0.000000 2780.dat
0 STEP
1 1 96.999930 -89.000030 28.999990 0.000000 0.000000 -1.000004 0.000000 1.000000 0.000000 1.000004 0.000000 0.000000 6558.dat
1 15 -42.998540 -89.000110 8.995590 0.000001 0.000001 -1.000000 -1.000000 0.000001 -0.000001 0.000001 1.000000 0.000001 64871.dat
0 STEP
1 1 96.999950 -9.000080 28.999740 -1.000000 0.000001 0.000001 -0.000001 -0.000001 -1.000000 -0.000001 -1.000000 0.000001 32526.dat
0 STEP
1 0 77.000060 -89.000030 38.999870 0.000000 0.000000 -1.000000 0.000000 1.000000 0.000000 1.000000 0.000000 0.000000 2780.dat
0 STEP
1 1 97.000000 -9.000070 49.000000 -1.000000 0.000001 0.000001 -0.000001 -0.000001 -1.000000 -0.000001 -1.000000 0.000001 32526.dat
0 STEP
0 STEP
