0 FILE BLK010石油开采机_Copy.io
0 Untitled Model
0 Name:  BLK010石油开采机_Copy
0 Author:  
0 CustomBrick
0 NumOfBricks:  79
1 0 170.000000 -11.441200 -0.859860 0.000000 0.000000 1.000000 0.000000 1.000000 0.000000 -1.000000 0.000000 0.000000 2780.dat
1 0 210.000100 -11.441190 -0.859860 0.000000 0.000000 1.000000 0.000000 1.000000 0.000000 -1.000000 0.000000 0.000000 2780.dat
1 15 190.000100 -11.441160 9.140150 -0.000001 -0.000001 1.000000 -1.000000 0.000001 -0.000001 -0.000001 -1.000000 -0.000001 32316.dat
0 STEP
1 1 150.000000 -11.441200 29.140170 0.000000 0.000000 -1.000000 0.000000 1.000000 0.000000 1.000000 0.000000 0.000000 6558.dat
1 1 230.000100 -11.441190 29.140130 0.000000 0.000000 -1.000000 0.000000 1.000000 0.000000 1.000000 0.000000 0.000000 6558.dat
0 STEP
1 16 190.000000 0.000000 30.000000 1.000000 0.000000 0.000000 0.000000 1.000000 0.000000 0.000000 0.000000 1.000000 submodel group 3
0 STEP
1 15 190.000100 -11.441160 49.140140 -0.000001 -0.000001 1.000000 -1.000000 0.000001 -0.000001 -0.000001 -1.000000 -0.000001 32316.dat
0 STEP
1 1 110.000100 -11.441270 -10.859800 0.000001 0.000001 -1.000000 1.000000 -0.000001 0.000001 -0.000001 -1.000000 -0.000001 64290.dat
0 STEP
1 16 50.000000 0.000000 20.000000 1.000000 0.000000 0.000000 0.000000 1.000000 0.000000 0.000000 0.000000 1.000000 submodel group 2
0 STEP
1 0 170.000000 -11.441190 59.140140 0.000000 0.000000 1.000000 0.000000 1.000000 0.000000 -1.000000 0.000000 0.000000 2780.dat
1 0 210.000100 -11.441190 59.140140 0.000000 0.000000 1.000000 0.000000 1.000000 0.000000 -1.000000 0.000000 0.000000 2780.dat
0 STEP
1 0 30.000060 -11.441200 59.140270 0.000000 0.000000 1.000000 0.000000 1.000000 0.000000 -1.000000 0.000000 0.000000 2780.dat
1 0 70.000020 -11.441200 59.140280 0.000000 0.000000 1.000000 0.000000 1.000000 0.000000 -1.000000 0.000000 0.000000 2780.dat
0 STEP
1 1 110.000100 -11.441260 69.140190 0.000001 0.000001 -1.000000 1.000000 -0.000001 0.000001 -0.000001 -1.000000 -0.000001 64290.dat
0 STEP
1 0 10.000030 -11.441200 79.140140 0.000000 0.000000 1.000000 0.000000 1.000000 0.000000 -1.000000 0.000000 0.000000 2780.dat
1 0 90.000010 -11.441200 79.140140 0.000000 0.000000 1.000000 0.000000 1.000000 0.000000 -1.000000 0.000000 0.000000 2780.dat
0 STEP
1 0 90.000100 -11.441200 -20.859860 0.000000 0.000000 1.000000 0.000000 1.000000 0.000000 -1.000000 0.000000 0.000000 2780.dat
0 STEP
1 1 -49.999920 -11.441110 -30.859790 -0.000001 -0.000001 1.000000 -1.000000 0.000001 -0.000001 -0.000001 -1.000000 -0.000001 64871.dat
0 STEP
1 0 -69.999840 -11.441210 -40.859860 0.000000 0.000000 1.000000 0.000000 1.000000 0.000000 -1.000000 0.000000 0.000000 2780.dat
1 0 -29.999880 -11.441210 -40.859850 0.000000 0.000000 1.000000 0.000000 1.000000 0.000000 -1.000000 0.000000 0.000000 2780.dat
0 STEP
1 0 -149.999900 -11.441210 -40.859840 0.000000 0.000000 1.000000 0.000000 1.000000 0.000000 -1.000000 0.000000 0.000000 2780.dat
1 0 -189.999900 -11.441210 -40.859860 0.000000 0.000000 1.000000 0.000000 1.000000 0.000000 -1.000000 0.000000 0.000000 2780.dat
0 STEP
1 1 -189.999900 -91.441230 -50.859860 1.000000 -0.000001 -0.000001 0.000001 0.000001 1.000000 -0.000001 -1.000000 0.000001 32526.dat
1 1 -29.999880 -91.441230 -50.859860 -1.000000 0.000001 0.000001 0.000001 0.000001 1.000000 0.000001 1.000000 -0.000001 32526.dat
0 STEP
1 0 -189.999900 -91.441230 -40.859850 0.000000 0.000000 1.000000 0.000000 1.000000 0.000000 -1.000000 0.000000 0.000000 2780.dat
1 0 -29.999880 -91.441210 -40.859840 0.000000 0.000000 1.000000 0.000000 1.000000 0.000000 -1.000000 0.000000 0.000000 2780.dat
0 STEP
1 15 -109.999900 -91.441150 -30.859790 -0.000001 -0.000001 1.000000 -1.000000 0.000001 -0.000001 -0.000001 -1.000000 -0.000001 40490.dat
0 STEP
1 0 -129.999900 -91.441230 -40.859830 0.000000 0.000000 1.000000 0.000000 1.000000 0.000000 -1.000000 0.000000 0.000000 2780.dat
1 0 -169.999900 -91.441230 -40.859830 0.000000 0.000000 1.000000 0.000000 1.000000 0.000000 -1.000000 0.000000 0.000000 2780.dat
0 STEP
1 0 -149.999900 -91.441230 -30.859830 0.000000 0.000000 -1.000000 0.000000 -1.000000 0.000000 -1.000000 0.000000 0.000000 4519.dat
0 STEP
1 71 -149.999900 -91.441210 -10.859820 -1.000000 0.000000 0.000000 0.000000 -1.000000 0.000000 0.000000 0.000000 1.000000 3647.dat
0 STEP
1 1 -169.999900 -11.441210 -20.859870 0.000000 -1.000000 0.000000 0.000000 0.000000 -1.000000 1.000000 0.000000 0.000000 43093.dat
0 STEP
1 71 -169.999900 -11.441180 -0.859860 0.000000 1.000000 0.000000 -1.000000 0.000000 -0.000001 -0.000001 0.000000 1.000000 59443.dat
0 STEP
1 71 -169.999900 -11.441190 29.140130 0.000000 1.000000 0.000000 0.000000 0.000000 -1.000000 -1.000000 0.000000 0.000000 27940.dat
0 STEP
1 71 -169.999900 -11.441160 59.140150 0.000000 1.000000 0.000000 -1.000000 0.000000 -0.000001 -0.000001 0.000000 1.000000 59443.dat
0 STEP
1 1 -169.999900 -11.441170 79.140160 0.000000 -1.000000 0.000000 0.000000 0.000000 1.000000 -1.000000 0.000000 0.000000 43093.dat
0 STEP
1 0 -89.999880 -91.441210 -20.859830 0.000000 0.000000 -1.000000 0.000000 1.000000 0.000000 1.000000 0.000000 0.000000 3705.dat
1 71 -89.999930 -90.941200 -50.859840 1.000000 0.000000 0.000001 0.000000 1.000000 0.000000 -0.000001 0.000000 1.000000 3713.dat
0 STEP
1 71 -89.999900 -91.441200 -10.359840 0.000000 1.000000 0.000000 1.000000 0.000000 0.000000 0.000000 0.000000 -1.000000 3649.dat
0 STEP
1 0 -89.999860 -51.441180 14.140150 -1.000000 -0.000001 0.000001 -0.000001 0.000001 -1.000000 0.000001 -1.000000 -0.000001 11478.dat
1 0 -89.999860 -51.441180 4.140140 -1.000000 -0.000001 0.000001 -0.000001 0.000001 -1.000000 0.000001 -1.000000 -0.000001 11478.dat
0 STEP
1 19 -89.999930 -11.441170 19.140170 -0.000001 1.000000 -0.000001 -0.000001 -0.000001 -1.000000 -1.000000 -0.000001 0.000001 3749.dat
0 STEP
1 1 -50.000020 -11.441110 89.140220 -0.000001 -0.000001 1.000000 -1.000000 0.000001 -0.000001 -0.000001 -1.000000 -0.000001 64871.dat
0 STEP
1 0 149.998500 -111.440700 29.140170 0.000000 -1.000000 0.000000 -1.000000 0.000000 0.000000 0.000000 0.000000 -1.000000 60485.dat
1 0 230.001500 -111.440700 29.140130 0.000000 -1.000000 0.000000 -1.000000 0.000000 0.000000 0.000000 0.000000 -1.000000 60485.dat
0 STEP
1 15 -77.485070 -90.456270 29.140210 -0.987688 0.000000 0.156435 -0.156435 0.000001 -0.987689 -0.000001 -1.000000 -0.000001 40490.dat
0 STEP
1 0 -64.970280 -169.471400 29.140160 0.000000 -0.156435 -0.987688 0.000000 0.987688 -0.156435 1.000000 0.000000 0.000000 32073.dat
0 STEP
1 0 49.711010 -249.772000 29.140160 0.000000 0.000000 -1.000000 0.000000 1.000000 0.000000 1.000000 0.000000 0.000000 32073.dat
0 STEP
1 1 49.711980 -249.772400 49.140080 0.573576 -0.000001 0.819153 0.819153 0.000000 -0.573576 0.000001 1.000000 0.000001 64871.dat
0 STEP
1 71 49.712060 -249.272300 69.140160 1.000000 0.000000 0.000001 0.000000 1.000000 0.000000 -0.000001 0.000000 1.000000 3713.dat
1 71 -65.048520 -168.977500 69.140140 0.987689 -0.156433 0.000001 0.156433 0.987689 0.000000 -0.000001 0.000000 1.000000 3713.dat
0 STEP
1 1 49.710930 -249.772000 9.140079 0.573576 -0.000001 0.819153 0.819153 0.000000 -0.573576 0.000001 1.000000 0.000001 64871.dat
0 STEP
1 71 49.712030 -249.272300 -10.859850 1.000000 0.000000 0.000001 0.000000 1.000000 0.000000 -0.000001 0.000000 1.000000 3713.dat
1 71 -65.048520 -168.977500 -10.859850 0.987689 -0.156436 0.000001 0.156436 0.987689 0.000000 -0.000001 0.000000 1.000000 3713.dat
0 STEP
1 16 180.000000 -180.000000 30.000000 1.000000 0.000000 0.000000 0.000000 1.000000 0.000000 0.000000 0.000000 1.000000 submodel group 1
0 STEP
1 0 164.392300 -330.072600 29.140140 0.000000 0.000000 -1.000000 0.000000 1.000000 0.000000 1.000000 0.000000 0.000000 32073.dat
1 71 164.892300 -330.072600 69.140160 0.000000 1.000000 0.000000 1.000000 0.000000 0.000001 0.000001 0.000000 -1.000000 3713.dat
0 STEP
1 71 163.892200 -330.072600 -10.859860 0.000000 -1.000000 0.000000 1.000000 0.000000 0.000001 -0.000001 0.000000 1.000000 3713.dat
0 STEP
1 15 -148.000000 -91.040970 -43.000000 -1.000000 0.000000 0.000000 0.000000 1.000000 0.000000 0.000000 0.000000 -1.000000 dx0046.dat
0 STEP
1 71 21.000000 -70.000000 -140.000000 1.000000 0.000000 0.000000 0.000000 1.000000 0.000000 0.000000 0.000000 1.000000 58119.dat
0 STEP
0 STEP
0 NOFILE
0 FILE SubModel Group 3
0 SubModel Group 3
0 Name:  SubModel Group 3
0 Author:  
0 CustomBrick
0 NumOfBricks:  3
1 0 0.000120 -11.441170 -0.859860 -1.000000 0.000000 0.000000 0.000000 -1.000000 0.000000 0.000000 0.000000 1.000000 4519.dat
0 STEP
1 71 40.000000 -11.441180 -0.859870 0.000000 0.000000 1.000000 0.000000 1.000000 0.000000 -1.000000 0.000000 0.000000 32014.dat
0 STEP
1 71 -39.999900 -11.441180 -0.859860 0.000000 0.000000 -1.000000 0.000000 1.000000 0.000000 1.000000 0.000000 0.000000 32014.dat
0 STEP
0 NOFILE
0 FILE SubModel Group 2
0 SubModel Group 2
0 Name:  SubModel Group 2
0 Author:  
0 CustomBrick
0 NumOfBricks:  7
1 1 0.000030 -51.441220 -10.859790 -1.000000 0.000000 0.000000 0.000000 0.000000 1.000000 0.000000 1.000000 0.000000 60484.dat
0 STEP
1 0 -19.999940 -11.441200 -20.859770 0.000000 0.000000 1.000000 0.000000 1.000000 0.000000 -1.000000 0.000000 0.000000 2780.dat
1 0 20.000020 -11.441200 -20.859850 0.000000 0.000000 1.000000 0.000000 1.000000 0.000000 -1.000000 0.000000 0.000000 2780.dat
0 STEP
1 1 0.000050 -51.441940 9.140210 0.000000 0.000000 -1.000000 0.000000 1.000000 0.000000 1.000000 0.000000 0.000000 6558.dat
1 1 0.000050 -11.441200 9.140210 0.000000 0.000000 -1.000000 0.000000 1.000000 0.000000 1.000000 0.000000 0.000000 6558.dat
0 STEP
1 1 -0.000030 -131.442000 9.140329 1.000000 -0.000001 0.000001 -0.000001 -0.000001 1.000000 -0.000001 -1.000000 -0.000001 41239.dat
0 STEP
1 1 0.000030 -51.441220 29.140270 -1.000000 0.000000 0.000000 0.000000 0.000000 1.000000 0.000000 1.000000 0.000000 60484.dat
0 STEP
0 NOFILE
0 FILE SubModel Group 1
0 SubModel Group 1
0 Name:  SubModel Group 1
0 Author:  
0 CustomBrick
0 NumOfBricks:  12
1 15 10.001500 -11.440690 -0.859850 -0.000001 -0.000001 1.000000 0.000001 1.000000 0.000001 -1.000000 0.000001 -0.000001 32316.dat
1 1 -9.998400 -21.440690 -0.859910 0.000000 -1.000000 0.000000 -1.000000 0.000000 0.000000 0.000000 0.000000 -1.000000 43093.dat
1 1 30.001500 -21.440690 -0.859880 0.000000 -1.000000 0.000000 -1.000000 0.000000 0.000000 0.000000 0.000000 -1.000000 43093.dat
0 STEP
1 71 9.376599 -31.440600 -0.859910 0.000000 1.000000 0.000000 -1.000000 0.000000 0.000000 0.000000 0.000000 1.000000 32184.dat
0 STEP
1 0 10.001600 -31.440800 -0.859900 0.000000 0.212593 -0.977141 0.000000 0.977141 0.212593 1.000001 0.000000 0.000000 4519.dat
0 STEP
1 0 1.497800 -70.526400 14.140130 -0.977141 -0.000001 0.212594 0.212594 0.000000 0.977141 -0.000001 1.000001 0.000001 11478.dat
1 0 1.497800 -70.526400 24.140150 -0.977141 -0.000001 0.212594 0.212594 0.000000 0.977141 -0.000001 1.000001 0.000001 11478.dat
0 STEP
1 1 1.497800 -70.526400 -0.859990 0.000000 0.212593 0.977141 0.000000 0.977141 -0.212593 -1.000000 0.000000 0.000000 6558.dat
1 0 -7.005910 -109.612000 -0.859910 0.000000 0.212593 -0.977141 0.000000 0.977141 0.212593 1.000000 0.000000 0.000000 4519.dat
0 STEP
1 15 -7.005910 -109.612000 -0.859970 -0.977141 0.000001 -0.212594 0.212594 0.000000 -0.977141 -0.000001 -1.000001 -0.000001 32316.dat
0 STEP
1 0 1.497700 -70.526400 -15.859920 -0.977141 -0.000001 0.212594 0.212593 0.000000 0.977141 -0.000001 1.000001 0.000001 11478.dat
0 STEP
1 0 1.497800 -70.526320 -25.859840 -0.977141 -0.000001 0.212594 0.212594 0.000000 0.977141 -0.000001 1.000000 0.000001 11478.dat
0 STEP
0 NOFILE
