0 FILE 9-鱼竿.io
0 Untitled Model
0 Name:  9-鱼竿
0 Author:  
0 CustomBrick
0 NumOfBricks:  93
1 0 -309.999900 -712.999500 -10.000180 0.000000 0.000000 1.000000 0.000001 1.000000 0.000000 -1.000000 0.000001 0.000000 2780.dat
1 0 -109.999800 -712.999500 -10.000400 0.000000 0.000000 1.000000 0.000001 1.000000 0.000000 -1.000000 0.000001 0.000000 2780.dat
1 15 -210.000000 -712.999500 -20.000430 0.000001 0.000001 -1.000000 -1.000000 0.000000 -0.000001 0.000000 1.000000 0.000001 64871.dat
0 STEP
1 15 -209.999900 -712.999500 -0.000310 0.000001 0.000001 -1.000000 -1.000000 0.000000 -0.000001 0.000000 1.000000 0.000001 64871.dat
0 STEP
1 0 -349.999800 -712.999500 9.999849 0.000000 0.000000 1.000000 0.000001 1.000000 0.000000 -1.000000 0.000001 0.000000 2780.dat
1 19 -329.999900 -712.999500 9.999790 0.000001 0.000001 1.000000 0.000000 -1.000000 0.000001 1.000000 0.000000 -0.000001 3749.dat
0 STEP
1 1 -490.000000 -712.999500 19.999760 0.000000 0.000000 -1.000000 1.000000 0.000001 0.000000 0.000001 -1.000000 0.000000 32009.dat
0 STEP
1 0 -490.000100 -632.999600 -10.000150 0.000000 0.000000 1.000000 0.000001 1.000000 0.000000 -1.000000 0.000001 0.000000 3705.dat
1 0 -410.000100 -712.999500 -10.000210 0.000000 0.000000 1.000000 0.000001 1.000000 0.000000 -1.000000 0.000001 0.000000 3705.dat
0 STEP
1 14 -490.000300 -632.999500 5.009800 0.000000 1.000005 0.000000 -1.000003 0.000000 -0.000001 -0.000001 0.000000 1.000000 32123a.dat
1 71 -409.995700 -712.999800 -10.251250 0.000000 0.999992 0.000000 -0.999996 0.000000 -0.000001 -0.000001 0.000000 1.000000 55982.dat
0 STEP
1 4 -489.999700 -652.999400 -9.980220 0.000000 0.000000 1.000003 -0.000001 -1.000003 0.000000 0.999999 -0.000001 0.000000 42003.dat
1 71 -410.000100 -712.999500 -22.080080 1.000000 0.000000 0.000001 0.000000 -1.000000 0.000001 0.000001 -0.000001 -1.000000 3713.dat
0 STEP
1 0 -349.999800 -712.999500 -30.000090 0.000000 0.000000 1.000000 0.000001 1.000000 0.000000 -1.000000 0.000001 0.000000 2780.dat
1 19 -330.000200 -712.999500 -30.000180 0.000001 0.000001 1.000000 0.000000 1.000000 -0.000001 -1.000000 0.000000 0.000001 3749.dat
1 14 -490.000100 -632.999600 -25.000120 0.000000 1.000000 0.000000 -1.000000 0.000000 -0.000001 -0.000001 0.000000 1.000000 32123a.dat
0 STEP
1 1 -490.000100 -712.999500 -40.000240 0.000000 0.000000 -1.000000 1.000000 0.000001 0.000000 0.000001 -1.000000 0.000000 32009.dat
0 STEP
1 0 -69.999820 -712.999300 9.999570 0.000000 0.000000 1.000000 0.000001 1.000000 0.000000 -1.000000 0.000001 0.000000 2780.dat
1 0 -129.999900 -712.999500 9.999570 0.000000 0.000000 1.000000 0.000001 1.000000 0.000000 -1.000000 0.000001 0.000000 2780.dat
0 STEP
1 1 -29.999800 -722.999500 19.999600 1.000000 0.000000 0.000000 0.000000 1.000000 -0.000001 0.000000 0.000001 1.000000 3895.dat
0 STEP
1 0 10.000140 -712.999500 9.999599 0.000000 0.000000 1.000001 0.000001 1.000000 0.000000 -1.000000 0.000001 0.000000 2780.dat
1 0 70.000270 -712.999300 9.999539 0.000000 0.000000 1.000001 0.000001 1.000000 0.000000 -1.000000 0.000001 0.000000 2780.dat
0 STEP
1 15 150.000300 -712.999300 -0.000430 0.000001 0.000001 -1.000001 -1.000000 0.000000 -0.000001 0.000000 1.000000 0.000001 64871.dat
0 STEP
1 0 50.000360 -712.999300 -10.000370 0.000000 0.000000 1.000001 0.000001 1.000000 0.000000 -1.000000 0.000001 0.000000 2780.dat
1 0 250.000300 -712.999200 -10.000550 0.000000 0.000000 1.000001 0.000001 1.000000 0.000000 -1.000000 0.000001 0.000000 2780.dat
0 STEP
1 15 150.000500 -712.999200 -20.000430 0.000001 0.000001 -1.000000 -1.000000 0.000000 -0.000001 0.000000 1.000000 0.000001 64871.dat
0 STEP
1 0 -29.999920 -712.999500 -9.970340 0.000000 0.000003 1.000000 0.000001 1.000000 -0.000003 -1.000000 0.000001 0.000000 3706.dat
1 0 -69.999720 -712.999300 -30.000400 0.000000 0.000000 1.000000 0.000001 1.000000 0.000000 -1.000000 0.000001 0.000000 2780.dat
1 0 -129.999800 -712.999500 -30.000370 0.000000 0.000000 1.000000 0.000001 1.000000 0.000000 -1.000000 0.000001 0.000000 2780.dat
1 1 70.000370 -712.999300 -40.000460 0.000000 1.000001 0.000000 0.000001 0.000000 -1.000000 -1.000000 0.000000 -0.000001 32556.dat
1 0 10.000220 -712.999300 -30.000430 0.000000 0.000000 1.000001 0.000001 1.000000 0.000000 -1.000000 0.000001 0.000000 2780.dat
0 STEP
1 72 -30.000600 -712.999800 -8.779570 0.000001 0.707111 0.707112 0.000000 0.707110 -0.707108 -0.999996 0.000000 0.000001 32012.dat
1 15 -139.990200 -726.599700 -9.987200 1.000000 0.000000 0.000000 0.000000 1.000000 0.000000 0.000000 0.000000 1.000000 xt0002.dat
0 STEP
1 1 -29.999690 -722.999300 -40.000370 1.000000 0.000000 0.000000 0.000000 1.000000 -0.000001 0.000000 0.000001 1.000000 3895.dat
0 STEP
1 71 -29.999920 -712.999500 40.029600 -0.000001 0.000001 1.000000 1.000000 0.000000 0.000001 0.000000 1.000000 -0.000001 33299.dat
0 STEP
1 4 10.000210 -712.999500 70.029590 0.000000 0.000000 1.000000 0.000001 1.000000 0.000000 -1.000000 0.000001 0.000000 62462.dat
1 71 -29.999920 -712.999500 -59.970280 -1.000000 0.000000 -0.000001 0.000000 1.000000 0.000001 0.000001 0.000001 -1.000000 94925.dat
0 STEP
1 16 30.000000 -696.000000 -60.000000 0.931689 -0.363257 0.000000 0.363257 0.931689 -0.000002 0.000000 0.000002 1.000000 submodel group 3
0 STEP
1 4 -502.000900 -355.360200 -0.000550 0.000001 -1.000000 0.000001 1.000000 0.000001 -0.000001 0.000001 0.000001 1.000000 32054.dat
0 STEP
1 16 -500.000000 -120.000000 0.000000 1.000000 0.000000 0.000000 0.000000 1.000000 0.000000 0.000000 0.000000 1.000000 submodel group 1
0 STEP
1 16 -490.000000 -47.999850 0.000000 1.000000 0.000000 0.000000 0.000000 1.000000 0.000000 0.000000 0.000000 1.000000 submodel group 2
0 STEP
0 NOFILE
0 FILE SubModel Group 3
0 SubModel Group 3
0 Name:  SubModel Group 3
0 Author:  
0 CustomBrick
0 NumOfBricks:  4
1 4 -17.540940 -23.103290 0.000030 -1.000000 0.000000 -0.000001 0.000001 1.000000 0.000000 0.000000 0.000000 -1.000000 32062.dat
1 19 12.458980 -23.103300 9.999869 0.000001 0.000001 0.999999 -0.000001 1.000000 -0.000002 -1.000000 -0.000001 0.000001 3749.dat
1 4 -7.539830 -23.103200 0.001120 0.000001 0.000001 -0.999993 0.000001 -1.000000 0.000001 -0.999994 0.000000 0.000000 32039.dat
0 STEP
1 71 -37.540810 -23.106160 0.000050 0.000001 0.000000 -1.000000 0.000000 1.000000 0.000001 1.000000 0.000000 0.000001 59443.dat
0 STEP
0 NOFILE
0 FILE SubModel Group 1
0 SubModel Group 1
0 Name:  SubModel Group 1
0 Author:  
0 CustomBrick
0 NumOfBricks:  18
1 1 11.998930 -105.359700 -0.000240 0.000000 1.000003 0.000000 0.000000 0.000000 -1.000003 -1.000000 0.000000 0.000000 3709b.dat
1 15 -12.000790 -115.359700 -0.000240 0.000000 1.000003 0.000000 0.000000 0.000000 -1.000003 -1.000000 0.000000 0.000000 32064a.dat
1 15 -12.000730 -95.360030 -0.000240 0.000000 1.000003 0.000000 0.000000 0.000000 -1.000003 -1.000000 0.000000 0.000000 32064a.dat
0 STEP
1 1 -12.000730 -145.360000 -29.999980 0.000000 1.000003 0.000000 1.000003 0.000000 0.000000 0.000000 0.000000 -1.000000 3894.dat
0 STEP
1 0 -2.000950 -165.360200 -0.000240 0.000000 1.000003 0.000000 0.000000 0.000000 1.000003 1.000000 0.000000 0.000000 3705.dat
1 71 -2.000950 -165.360200 -0.000240 -1.000003 0.000000 0.000000 0.000000 1.000003 0.000000 0.000000 0.000000 -1.000000 55982.dat
0 STEP
1 71 -2.000950 -165.360200 10.000240 0.000000 1.000003 0.000000 -1.000004 0.000000 -0.000001 -0.000001 0.000000 1.000000 3713.dat
0 STEP
1 1 -12.006100 -145.359800 29.993590 0.000000 0.999992 0.000000 0.999988 0.000000 0.000000 0.000000 0.000000 -1.000000 3894.dat
0 STEP
1 1 11.998810 -185.360200 29.999940 0.000000 1.000003 0.000000 -1.000003 0.000000 0.000000 0.000000 0.000000 1.000000 3710.dat
1 1 11.998810 -185.360200 -30.000230 0.000000 1.000003 0.000000 -1.000003 0.000000 0.000000 0.000000 0.000000 1.000000 3710.dat
0 STEP
1 1 -12.000920 -215.360200 -0.000500 0.000000 1.000003 0.000000 0.000000 0.000000 1.000003 1.000000 0.000000 0.000000 3701.dat
0 STEP
1 15 -20.000730 -185.360200 29.999940 0.000000 1.000003 0.000000 1.000003 0.000000 0.000000 0.000000 0.000000 -1.000000 2431.dat
1 15 -20.000000 -185.359900 -30.000000 0.000000 1.000000 0.000000 1.000000 0.000000 0.000000 0.000000 0.000000 -1.000000 2431.dat
1 1 -20.000790 -105.360900 -0.000240 0.000000 1.000003 0.000000 0.000000 0.000000 1.000002 0.999999 0.000000 0.000000 3709b.dat
0 STEP
1 71 -2.000950 -95.360030 0.000000 0.000000 0.000000 1.000003 1.000003 0.000000 0.000000 0.000000 1.000000 0.000000 4519.dat
0 STEP
1 4 -2.001800 -55.361910 -0.001690 0.999997 0.000000 0.000000 0.000000 0.000000 -1.000002 0.000000 0.999996 0.000000 32034.dat
0 STEP
1 4 -2.000950 -25.359970 0.000020 0.000000 0.000000 1.000003 1.000003 0.000000 0.000000 0.000000 1.000000 0.000000 32062.dat
0 STEP
1 71 -2.000950 -15.359940 0.000020 0.000001 -0.000001 -1.000003 0.000001 -1.000003 0.000001 -1.000000 -0.000001 -0.000001 33299.dat
0 STEP
0 NOFILE
0 FILE SubModel Group 2
0 SubModel Group 2
0 Name:  SubModel Group 2
0 Author:  
0 CustomBrick
0 NumOfBricks:  33
1 1 39.999820 -29.450180 30.000750 0.000000 0.000000 -1.000000 -1.000000 0.000000 0.000000 0.000000 1.000000 0.000000 6629.dat
1 0 -40.000370 -29.450190 20.000950 0.000000 0.000000 1.000000 0.000000 1.000000 0.000000 -1.000000 0.000000 0.000000 2780.dat
1 0 0.000060 -29.450180 20.000880 0.000000 0.000000 1.000000 0.000000 1.000000 0.000000 -1.000000 0.000000 0.000000 2780.dat
0 STEP
1 1 -20.000430 -39.450380 10.000820 1.000000 0.000000 0.000000 0.000000 1.000000 0.000000 0.000000 0.000000 1.000000 3701.dat
0 STEP
1 0 -20.000430 -29.450200 0.000890 0.000000 0.000000 1.000000 0.000000 1.000000 0.000000 -1.000000 0.000000 0.000000 2780.dat
0 STEP
1 1 -20.000430 -39.450380 -9.999400 1.000000 0.000000 0.000000 0.000000 1.000000 0.000000 0.000000 0.000000 1.000000 3701.dat
0 STEP
1 0 0.000000 -29.450200 -19.999560 0.000000 0.000000 1.000000 0.000000 1.000000 0.000000 -1.000000 0.000000 0.000000 2780.dat
1 0 -40.000300 -29.450180 -19.999500 0.000000 0.000000 1.000000 0.000000 1.000000 0.000000 -1.000000 0.000000 0.000000 2780.dat
0 STEP
1 16 -90.000000 -48.000000 0.000000 0.955638 0.294543 0.000000 -0.294543 0.955638 0.000000 0.000000 0.000000 1.000000 submodel group 5
0 STEP
1 1 39.999820 -49.449920 29.633010 -0.642784 -0.000001 -0.766051 0.766047 -0.000001 -0.642787 0.000000 -1.000000 0.000001 6629.dat
0 STEP
1 16 60.000000 -24.000000 0.000000 1.000000 0.000000 0.000000 0.000000 1.000000 0.000000 0.000000 0.000000 1.000000 submodel group 4
0 STEP
1 0 -36.604920 -113.728600 19.633330 0.000000 0.000000 1.000000 0.000000 1.000000 0.000000 -1.000000 0.000000 0.000000 2780.dat
0 STEP
1 4 -36.604130 -113.728900 -0.366910 0.000000 0.000000 1.000000 0.000000 1.000000 0.000000 -1.000000 0.000000 0.000000 62462.dat
0 STEP
1 0 -36.604130 -113.728900 -20.367230 0.000000 0.000000 1.000000 0.000000 1.000000 0.000000 -1.000000 0.000000 0.000000 2780.dat
0 STEP
1 1 40.000000 -29.450160 -30.000000 0.000000 0.000000 -1.000000 -1.000000 -0.000001 0.000000 -0.000001 1.000000 0.000000 6629.dat
1 1 40.000670 -49.450140 -30.367630 -0.642784 -0.000001 -0.766051 0.766046 0.000000 -0.642787 0.000000 -1.000000 0.000001 6629.dat
0 STEP
1 14 -95.782180 -99.675880 45.020500 0.955640 -0.294541 -0.000001 -0.294542 -0.955639 0.000000 -0.000001 0.000000 -1.000000 32123a.dat
1 14 -95.782290 -99.675860 -45.339860 0.955640 -0.294541 -0.000001 -0.294542 -0.955639 0.000000 -0.000001 0.000000 -1.000000 32123a.dat
0 STEP
1 72 99.999820 -49.450280 14.590790 0.000000 0.000000 -1.000000 -1.000000 0.000000 0.000000 0.000000 1.000000 0.000000 99773.dat
1 72 99.999770 -49.450280 -15.409560 0.000000 0.000000 -1.000000 -1.000000 0.000000 0.000000 0.000000 1.000000 0.000000 99773.dat
0 STEP
0 NOFILE
0 FILE SubModel Group 5
0 SubModel Group 5
0 Name:  SubModel Group 5
0 Author:  
0 CustomBrick
0 NumOfBricks:  5
1 0 9.695760 -11.086380 0.000820 -0.000001 -0.000001 1.000002 0.000000 1.000000 0.000000 -1.000000 0.000000 -0.000001 3705.dat
1 15 9.698460 -31.086020 -0.599460 0.999992 -0.000002 0.000001 -0.000001 -0.000001 0.999992 -0.000001 -1.000000 -0.000001 32523.dat
1 71 9.695149 -51.086530 0.020840 -0.000001 -0.000002 1.000001 0.000000 1.000000 0.000001 -1.000000 0.000000 -0.000001 32073.dat
0 STEP
1 72 9.695849 -31.086290 14.450680 1.000001 0.000001 0.000000 0.000000 -1.000000 0.000000 0.000000 0.000000 -1.000000 6575.dat
1 72 9.694660 -31.086580 -15.607990 1.000006 0.000000 0.000000 0.000000 -0.999991 0.000000 0.000000 0.000000 -1.000000 6575.dat
0 STEP
0 NOFILE
0 FILE SubModel Group 4
0 SubModel Group 4
0 Name:  SubModel Group 4
0 Author:  
0 CustomBrick
0 NumOfBricks:  10
1 0 -19.999510 -5.450180 0.000890 0.000000 0.000000 1.000000 0.000000 1.000000 0.000000 -1.000000 0.000000 0.000000 3705.dat
1 14 -19.999700 -5.450170 14.720980 1.000000 0.000000 0.000000 0.000000 -1.000000 0.000000 0.000000 0.000000 -1.000000 32123a.dat
1 1 39.998900 -25.450570 -0.410950 -0.000001 -0.000001 -0.999998 1.000000 -0.000001 -0.000001 -0.000001 -0.999998 0.000001 32140.dat
1 0 -19.999330 -25.450140 -0.366910 0.000000 0.766050 0.642785 0.000000 0.642796 -0.766048 -1.000000 0.000000 0.000000 3705.dat
1 14 -19.999200 -25.449890 14.742520 0.642785 -0.766050 0.000000 -0.766048 -0.642796 0.000000 0.000000 0.000000 -1.000000 32123a.dat
0 STEP
1 14 -19.999200 -25.450150 -15.367940 0.642785 -0.766050 0.000000 -0.766048 -0.642796 0.000000 0.000000 0.000000 -1.000000 32123a.dat
1 14 -19.999570 -5.450200 -15.359510 1.000000 0.000000 0.000000 0.000000 -1.000000 0.000000 0.000000 0.000000 -1.000000 32123a.dat
0 STEP
1 72 20.000110 -25.450260 9.590970 0.000001 0.000000 1.000000 0.000000 -1.000000 0.000000 1.000000 0.000000 -0.000001 32002.dat
1 72 0.005000 -25.450220 -10.405320 0.000001 0.000000 0.999978 0.000000 1.000000 0.000000 -0.999979 0.000000 0.000001 32002.dat
1 4 39.999820 -25.450200 -0.079010 0.000000 1.000000 0.000000 0.000000 0.000000 1.000000 1.000000 0.000000 0.000000 32062.dat
0 STEP
0 NOFILE
