0 Untitled Model
0 Name:  长方形
0 Author:  
0 CustomBrick
0 NumOfBricks:  12
1 15 -49.999740 -9.999490 -130.000100 -0.000001 -0.000001 1.000000 -0.000001 -1.000000 -0.000001 1.000000 -0.000001 0.000001 64871.dat
1 0 90.000300 -19.999630 -129.999900 0.000000 0.000000 -1.000000 1.000000 0.000000 0.000000 0.000000 -1.000000 0.000000 2780.dat
0 STEP
1 15 90.000220 -29.999720 9.999960 -1.000000 0.000001 -0.000001 -0.000001 -1.000000 -0.000001 -0.000001 -0.000001 1.000000 64871.dat
0 STEP
1 15 90.000010 -10.000000 290.000000 -1.000000 0.000001 -0.000001 -0.000001 -1.000000 -0.000001 -0.000001 -0.000001 1.000000 64871.dat
1 0 90.000110 -19.999890 150.000000 0.000000 0.000000 -1.000000 1.000000 0.000000 0.000000 0.000000 -1.000000 0.000000 2780.dat
0 STEP
1 0 89.999900 -20.000130 430.000000 0.000000 0.000000 -1.000000 1.000000 0.000000 0.000000 0.000000 -1.000000 0.000000 2780.dat
0 STEP
1 15 -50.000180 -30.000010 430.000000 -0.000001 -0.000001 1.000000 -0.000001 -1.000000 -0.000001 1.000000 -0.000001 0.000001 64871.dat
0 STEP
1 15 -190.000100 -9.999740 289.999800 -1.000000 0.000001 -0.000001 -0.000001 -1.000000 -0.000001 -0.000001 -0.000001 1.000000 64871.dat
1 0 -190.000200 -19.999880 429.999800 0.000000 0.000000 -1.000000 1.000000 0.000000 0.000000 0.000000 -1.000000 0.000000 2780.dat
0 STEP
1 0 -189.999900 -19.999630 149.999800 0.000000 0.000000 -1.000000 1.000000 0.000000 0.000000 0.000000 -1.000000 0.000000 2780.dat
1 0 -189.999700 -19.999380 -130.000200 0.000000 0.000000 -1.000000 1.000000 0.000000 0.000000 0.000000 -1.000000 0.000000 2780.dat
0 STEP
1 15 -189.999800 -29.999500 9.999720 -1.000000 0.000001 -0.000001 -0.000001 -1.000000 -0.000001 -0.000001 -0.000001 1.000000 64871.dat
0 STEP
0 STEP
