0 FILE 杆秤.io
0 Untitled Model
0 Name:  杆秤
0 Author:  
0 CustomBrick
0 NumOfBricks:  46
1 15 -328.989900 -49.000000 -62.925860 0.999977 -0.000001 0.000001 -0.000001 -0.000001 1.000000 -0.000001 -0.999978 -0.000001 32523.dat
1 1 -328.989900 -49.000020 -42.926380 0.000000 0.000000 -0.999977 0.000000 1.000000 0.000000 0.999978 0.000000 0.000000 6558.dat
1 1 -328.989900 -29.000020 -42.926380 0.000000 0.000000 -0.999977 0.000000 1.000000 0.000000 0.999978 0.000000 0.000000 6558.dat
0 STEP
1 0 -358.989300 -9.000010 -42.926380 -0.999977 0.000000 0.000000 0.000000 1.000000 0.000000 0.000000 0.000000 -0.999978 3705.dat
1 4 -328.989900 -29.000020 -42.926380 -0.999977 0.000000 0.000000 0.000000 -1.000000 0.000000 0.000000 0.000000 0.999978 42003.dat
0 STEP
1 19 -388.988600 -39.000010 -42.926380 -0.000001 0.999977 -0.000001 1.000000 0.000001 -0.000001 -0.000001 -0.000001 -0.999978 3749.dat
1 4 -388.988600 -29.000010 -42.926380 -0.999977 0.000000 0.000000 0.000000 0.000001 -1.000000 0.000000 -0.999978 -0.000001 32039.dat
0 STEP
1 15 -328.989600 -129.000000 -42.926140 0.999977 -0.000001 0.000001 0.000001 0.000001 -1.000000 0.000001 0.999978 0.000001 32524.dat
1 1 -328.989900 -69.000000 -42.926320 0.000000 0.000000 -0.999977 0.000000 1.000000 0.000000 0.999978 0.000000 0.000000 6558.dat
0 STEP
1 15 -328.989900 -49.000000 -22.926840 0.999977 -0.000001 0.000001 0.000001 0.000001 -1.000000 0.000001 0.999978 0.000001 32523.dat
0 STEP
1 1 -328.989600 -149.000100 -42.926140 0.000000 0.000000 -0.999977 0.000000 1.000000 0.000000 0.999978 0.000000 0.000000 6558.dat
1 1 -328.989600 -169.000100 -42.926140 0.000000 0.000000 -0.999977 0.000000 1.000000 0.000000 0.999978 0.000000 0.000000 6558.dat
0 STEP
1 15 -328.989600 -189.000000 -62.925560 0.999977 -0.000001 0.000001 0.000001 0.000001 -1.000000 0.000001 0.999978 0.000001 32316.dat
1 1 -328.989600 -229.000000 -42.925950 0.000000 0.000000 -0.999977 0.000000 1.000000 0.000000 0.999978 0.000000 0.000000 6558.dat
0 STEP
1 1 -208.992200 -239.000100 -42.925830 0.999977 0.000000 0.000000 0.000000 1.000000 0.000000 0.000000 0.000000 0.999978 3703.dat
0 STEP
1 15 -328.989400 -189.000100 -22.926470 0.999977 -0.000001 0.000001 -0.000001 -0.000001 1.000000 -0.000001 -0.999978 -0.000001 32316.dat
0 STEP
1 72 -228.991800 -229.000000 -28.236040 0.999977 0.000000 0.000000 0.000000 0.000000 -0.999999 0.000000 0.999977 0.000000 99773.dat
1 4 -268.990800 -229.000000 -43.285800 0.000000 0.000000 -0.999977 0.000000 1.000000 0.000000 0.999978 0.000000 0.000000 32062.dat
0 STEP
1 4 -188.992700 -229.000000 -43.235810 0.000000 0.000000 -0.999977 0.000000 1.000000 0.000000 0.999978 0.000000 0.000000 32062.dat
0 STEP
1 14 -228.991800 -269.000100 -18.206480 0.000000 0.999977 0.000000 1.000000 0.000000 0.000000 0.000000 0.000000 -0.999978 32123a.dat
1 71 -228.991800 -269.000100 -42.995780 0.000000 -0.999977 0.000000 0.000000 0.000000 1.000000 -0.999978 0.000000 0.000000 4519.dat
0 STEP
1 0 -227.991800 -280.000100 -42.925830 -0.999977 0.000000 -0.000001 0.000000 1.000000 0.000000 0.000001 0.000000 -0.999978 2815.dat
0 STEP
1 72 -228.991800 -229.000000 -57.725480 0.999977 0.000000 0.000000 0.000000 0.000000 -1.000000 0.000000 0.999978 0.000000 99773.dat
0 STEP
1 14 -228.991900 -269.000100 -67.805260 0.000000 0.999977 0.000000 1.000000 0.000000 0.000000 0.000000 0.000000 -0.999978 32123a.dat
0 STEP
1 15 -338.989300 -263.000100 -42.925950 0.000000 0.000000 0.999977 0.000000 0.999999 0.000000 -0.999977 0.000000 0.000000 3040b.dat
1 15 -308.989900 -263.000100 -42.925830 0.999977 0.000000 0.000000 0.000000 0.999999 0.000000 0.000000 0.000000 0.999977 32064a.dat
0 STEP
1 1 -48.995900 -215.000000 -42.925830 0.999977 0.000000 0.000000 0.000000 1.000000 0.000000 0.000000 0.000000 0.999978 3710.dat
0 STEP
1 1 111.000400 -239.000100 -42.925830 0.999977 0.000000 0.000000 0.000000 1.000000 0.000000 0.000000 0.000000 0.999978 3703.dat
0 STEP
1 1 -48.995900 -247.000100 -42.925830 0.999977 0.000000 0.000000 0.000000 1.000000 0.000000 0.000000 0.000000 0.999978 3710.dat
0 STEP
1 16 70.000000 0.000000 -40.000000 1.000000 0.000000 0.000000 0.000000 1.000000 0.000000 0.000000 0.000000 1.000000 submodel group 1
0 STEP
0 STEP
0 NOFILE
0 FILE SubModel Group 1
0 SubModel Group 1
0 Name:  SubModel Group 1
0 Author:  
0 CustomBrick
0 NumOfBricks:  17
1 0 -13.999910 -25.000070 -32.999000 0.000000 0.000000 -1.000000 1.000000 0.000000 0.000000 0.000000 -1.000000 0.000000 2780.dat
1 0 6.000050 -25.000050 -32.999240 0.000000 0.000000 -1.000000 1.000000 0.000000 0.000000 0.000000 -1.000000 0.000000 2780.dat
1 71 -3.999920 -15.000020 -2.999680 1.000000 0.000000 0.000000 0.000000 0.000000 1.000000 0.000000 -1.000000 0.000000 3649.dat
0 STEP
1 0 -13.999910 -25.000100 27.000180 0.000000 0.000000 -1.000000 1.000000 0.000000 0.000000 0.000000 -1.000000 0.000000 2780.dat
1 0 6.000050 -25.000040 26.999940 0.000000 0.000000 -1.000000 1.000000 0.000000 0.000000 0.000000 -1.000000 0.000000 2780.dat
0 STEP
1 71 -3.999920 -35.000040 -2.999680 1.000000 0.000000 0.000000 0.000000 0.000000 1.000000 0.000000 -1.000000 0.000000 3649.dat
0 STEP
1 0 -3.999920 -85.000070 -2.999980 0.000000 0.000000 1.000000 -1.000001 0.000000 0.000000 0.000000 -1.000001 0.000000 3706.dat
0 STEP
1 72 -3.999920 -55.020050 -2.999980 1.000000 0.000000 0.000000 0.000000 0.000000 1.000000 0.000000 -1.000001 0.000000 3648b.dat
1 72 -3.999920 -74.730080 -2.999980 1.000000 0.000000 0.000000 0.000000 0.000000 1.000000 0.000000 -1.000001 0.000000 3648b.dat
0 STEP
1 71 -3.999920 -92.000060 -2.999980 -1.000000 0.000000 -0.000001 0.000001 0.000000 -1.000000 0.000000 -1.000001 0.000000 3650c.dat
0 STEP
1 19 -3.999920 -114.000200 -2.999980 1.000000 0.000000 0.000000 0.000000 0.000000 1.000000 0.000000 -1.000001 0.000000 32269.dat
0 STEP
1 19 -3.999920 -155.000100 -3.000110 1.000000 0.000000 0.000000 0.000000 1.000000 0.000000 0.000000 0.000000 1.000000 32556.dat
1 0 -3.999920 -155.000200 -2.999980 1.000000 0.000002 0.000002 0.000002 0.000002 -1.000000 -0.000002 1.000000 0.000002 32013.dat
0 STEP
1 1 -23.999880 -175.000000 -13.000000 0.000000 0.000000 -1.000000 -1.000000 0.000000 0.000000 0.000000 1.000000 0.000000 3701.dat
0 STEP
1 19 -3.999920 -195.000100 -3.000110 1.000000 0.000000 0.000000 0.000000 1.000000 0.000000 0.000000 0.000000 1.000000 32556.dat
1 0 -2.998560 -217.938900 -1.995790 0.000001 0.000000 -0.999977 0.000000 1.000000 0.000000 0.999978 0.000000 0.000001 2815.dat
0 STEP
1 1 16.000000 -175.000000 -13.000000 0.000000 0.000000 1.000000 1.000000 0.000000 0.000000 0.000000 1.000000 0.000000 3701.dat
0 STEP
0 NOFILE
