0 FILE 攻城车.io
0 Untitled Model
0 Name:  攻城车
0 Author:  
0 CustomBrick
0 NumOfBricks:  62
1 1 -23.998780 -48.000030 21.994630 0.999998 0.000000 0.000000 0.000000 1.000000 0.000000 0.000000 0.000000 0.999998 3703.dat
1 1 -23.998780 -48.000030 -118.005100 0.999998 0.000000 0.000000 0.000000 1.000000 0.000000 0.000000 0.000000 0.999998 3703.dat
0 STEP
1 1 -123.999800 -56.000030 -48.000100 0.000000 0.000000 1.000000 0.000000 1.000000 0.000000 -1.000000 0.000000 0.000000 3738.dat
1 1 76.001010 -56.000030 -48.005220 0.000000 0.000000 0.999998 0.000000 1.000000 0.000000 -0.999998 0.000000 0.000000 3738.dat
0 STEP
1 1 -24.000670 -80.000040 1.996500 1.000000 0.000000 0.000000 0.000000 1.000000 0.000000 0.000000 0.000000 1.000000 3895.dat
1 1 -24.000000 -80.000040 -98.000000 1.000000 0.000000 0.000000 0.000000 1.000000 0.000000 0.000000 0.000000 1.000000 3895.dat
0 STEP
1 1 -24.000000 -104.000000 -98.000000 1.000000 0.000000 0.000000 0.000000 1.000000 0.000000 0.000000 0.000000 1.000000 3702.dat
1 1 -24.000000 -104.000000 1.999800 1.000000 0.000000 0.000000 0.000000 1.000000 0.000000 0.000000 0.000000 1.000000 3702.dat
0 STEP
1 1 -24.000000 -128.000000 -98.000000 1.000000 0.000000 0.000000 0.000000 1.000000 0.000000 0.000000 0.000000 1.000000 3702.dat
1 1 -24.000000 -128.000000 1.999800 1.000000 0.000000 0.000000 0.000000 1.000000 0.000000 0.000000 0.000000 1.000000 3702.dat
0 STEP
1 16 -30.000000 -60.000000 -50.000000 1.000000 0.000000 0.000000 0.000000 1.000000 0.000000 0.000000 0.000000 1.000000 submodel group 1
0 STEP
1 0 -123.999800 -70.000030 -88.000030 0.000000 0.000000 -1.000000 0.000000 1.000000 0.000000 1.000000 0.000000 0.000000 2780.dat
1 0 -123.999800 -70.000030 -8.000180 0.000000 0.000000 -1.000000 0.000000 1.000000 0.000000 1.000000 0.000000 0.000000 2780.dat
0 STEP
1 1 -184.000700 -160.000000 -48.260360 0.000000 0.000000 1.000000 0.000000 1.000000 0.000000 -1.000000 0.000000 0.000000 3709b.dat
1 1 -143.999800 -160.000000 -48.260360 0.000000 0.000000 1.000000 0.000000 1.000000 0.000000 -1.000000 0.000000 0.000000 3709b.dat
0 STEP
1 1 -164.000700 -184.000000 -78.260280 1.000000 0.000000 0.000000 0.000000 1.000000 0.000000 0.000000 0.000000 1.000000 3701.dat
1 1 -194.000600 -184.000000 -48.260360 0.000000 0.000000 1.000000 0.000000 1.000000 0.000000 -1.000000 0.000000 0.000000 3700.dat
0 STEP
1 1 -163.999800 -184.000000 -18.260420 1.000000 0.000000 0.000000 0.000000 1.000000 0.000000 0.000000 0.000000 1.000000 3701.dat
1 1 -133.999800 -184.000000 -48.260360 0.000000 0.000000 1.000000 0.000000 1.000000 0.000000 -1.000000 0.000000 0.000000 3700.dat
0 STEP
1 1 -133.999800 -192.000000 -48.260360 0.000000 0.000000 1.000000 0.000000 1.000000 0.000000 -1.000000 0.000000 0.000000 3710.dat
1 1 -193.999700 -192.000000 -48.260360 0.000000 0.000000 1.000000 0.000000 1.000000 0.000000 -1.000000 0.000000 0.000000 3710.dat
0 STEP
1 15 -133.999800 -200.000000 -48.260360 0.000000 0.000000 1.000000 0.000000 1.000000 0.000000 -1.000000 0.000000 0.000000 2431.dat
1 15 -193.999700 -200.000000 -48.260360 0.000000 0.000000 1.000000 0.000000 1.000000 0.000000 -1.000000 0.000000 0.000000 2431.dat
0 STEP
1 15 -155.332700 -198.972500 -49.658180 0.351661 -0.866684 -0.353830 0.552267 0.497262 -0.669129 0.755869 0.039897 0.653508 32064a.dat
0 STEP
1 1 -24.000000 -176.000000 -98.000000 1.000000 0.000000 0.000000 0.000000 1.000000 0.000000 0.000000 0.000000 1.000000 3894.dat
1 1 -24.000000 -176.000000 1.999800 1.000000 0.000000 0.000000 0.000000 1.000000 0.000000 0.000000 0.000000 1.000000 3894.dat
0 STEP
1 1 16.000220 -184.000000 -48.000100 0.000000 0.000000 1.000000 0.000000 1.000000 0.000000 -1.000000 0.000000 0.000000 32001.dat
1 1 -24.000000 -184.000000 -48.000100 0.000000 0.000000 1.000000 0.000000 1.000000 0.000000 -1.000000 0.000000 0.000000 32001.dat
0 STEP
1 1 -3.999800 -192.000000 -98.000000 1.000000 0.000000 0.000000 0.000000 1.000000 0.000000 0.000000 0.000000 1.000000 3710.dat
1 1 -3.999800 -192.000000 1.999800 1.000000 0.000000 0.000000 0.000000 1.000000 0.000000 0.000000 0.000000 1.000000 3710.dat
0 STEP
1 0 -163.998500 -38.000030 -148.622000 0.000000 0.999998 0.000000 -1.000000 0.000000 -0.000001 -0.000001 0.000000 0.999998 30391.dat
1 71 -163.998500 -38.000030 -148.365000 0.999998 0.000000 0.000000 0.000000 1.000000 0.000000 0.000000 0.000000 0.999998 55982.dat
1 0 -163.998500 -38.000030 -48.525240 0.000000 0.000000 0.999998 0.000000 1.000000 0.000000 -0.999998 0.000000 0.000000 3708.dat
0 STEP
1 71 -163.998500 -38.000030 -158.525000 0.999998 0.000000 0.000001 0.000000 1.000000 0.000000 -0.000001 0.000000 0.999998 3713.dat
0 STEP
1 0 -163.998300 -38.000030 53.101620 0.000000 -0.999998 0.000000 -1.000000 0.000000 -0.000001 0.000001 0.000000 -0.999998 30391.dat
1 71 -163.998500 -38.000030 52.844660 -1.000000 0.000000 0.000000 0.000000 1.000001 0.000000 0.000000 0.000000 -0.999998 55982.dat
0 STEP
1 71 -163.998500 -38.000030 61.474530 0.999998 0.000000 0.000001 0.000000 1.000000 0.000000 -0.000001 0.000000 0.999998 3713.dat
0 STEP
1 0 116.000900 -38.000030 -148.612100 0.000000 0.999998 0.000000 -1.000000 0.000000 -0.000001 -0.000001 0.000000 0.999998 30391.dat
1 71 116.000900 -38.000030 -148.355000 0.999998 0.000000 0.000000 0.000000 1.000000 0.000000 0.000000 0.000000 0.999998 55982.dat
1 0 116.000900 -38.000030 -47.065300 0.000000 0.000000 0.999998 0.000000 1.000000 0.000000 -0.999998 0.000000 0.000000 3708.dat
0 STEP
1 0 116.002700 -38.000030 53.010560 0.000000 -0.999998 0.000000 -1.000000 0.000000 -0.000001 0.000001 0.000000 -0.999998 30391.dat
1 71 116.000900 -38.000030 52.754580 -1.000002 0.000000 0.000000 0.000000 1.000003 0.000000 0.000000 0.000000 -0.999998 55982.dat
0 STEP
1 71 116.000900 -38.000030 -157.065100 0.999998 0.000000 0.000001 0.000000 1.000000 0.000000 -0.000001 0.000000 0.999998 3713.dat
0 STEP
1 71 116.000900 -38.000030 63.104530 -0.999998 0.000000 -0.000001 0.000000 1.000000 0.000000 0.000001 0.000000 -0.999998 3713.dat
0 STEP
1 15 5.999940 -208.000000 -78.000030 0.000000 0.000000 -1.000000 0.000000 1.000000 0.000000 1.000000 0.000000 0.000000 3040b.dat
1 15 5.999940 -208.000000 -58.000080 0.000000 0.000000 -1.000000 0.000000 1.000000 0.000000 1.000000 0.000000 0.000000 3040b.dat
1 15 6.000240 -208.000000 -18.000160 0.000000 0.000000 -1.000000 0.000000 1.000000 0.000000 1.000000 0.000000 0.000000 3040b.dat
1 15 5.999940 -208.000000 -38.000120 0.000000 0.000000 -1.000000 0.000000 1.000000 0.000000 1.000000 0.000000 0.000000 3040b.dat
0 STEP
0 STEP
0 NOFILE
0 FILE SubModel Group 1
0 SubModel Group 1
0 Name:  SubModel Group 1
0 Author:  
0 CustomBrick
0 NumOfBricks:  15
1 71 6.000000 -82.000040 31.899740 -1.000000 0.000000 -0.000001 0.000000 1.000000 0.000000 0.000001 0.000000 -1.000000 3713.dat
1 0 6.000000 -82.000040 2.939710 0.000000 0.000000 1.000000 0.000000 1.000000 0.000000 -1.000000 0.000000 0.000000 3707.dat
0 STEP
1 1 -33.999980 -92.000030 11.739620 1.000000 0.000000 0.000000 0.000000 1.000000 0.000000 0.000000 0.000000 1.000000 3895.dat
0 STEP
1 0 46.000220 -82.000040 21.739600 0.000000 -1.000000 0.000000 0.000000 0.000000 -1.000000 1.000000 0.000000 0.000000 2780.dat
1 15 -92.998580 -8.971849 33.994700 0.999998 0.000000 0.000000 0.000000 -1.000000 0.000000 0.000000 0.000000 -0.999998 xpj0103.dat
0 STEP
1 1 6.000000 -92.000030 51.999800 1.000000 0.000000 0.000000 0.000000 1.000000 0.000000 0.000000 0.000000 1.000000 3894.dat
0 STEP
1 72 6.000000 -82.000040 72.289680 1.000000 0.000000 0.000000 0.000000 1.000000 0.000000 0.000000 0.000000 1.000000 3648b.dat
0 STEP
1 0 66.000180 -82.000040 1.739650 0.000000 0.000000 -1.000000 0.000000 1.000000 0.000000 1.000000 0.000000 0.000000 2780.dat
1 0 -133.999800 -82.000040 1.739650 0.000000 0.000000 -1.000000 0.000000 1.000000 0.000000 1.000000 0.000000 0.000000 2780.dat
0 STEP
1 1 -33.999980 -92.000030 -8.260340 1.000000 0.000000 0.000000 0.000000 1.000000 0.000000 0.000000 0.000000 1.000000 3895.dat
0 STEP
1 0 46.000220 -82.000040 -18.260320 0.000000 -1.000000 0.000000 0.000000 0.000000 -1.000000 1.000000 0.000000 0.000000 2780.dat
1 15 46.001140 -83.953430 -27.005170 -0.999998 0.000000 0.000000 0.000000 1.000000 0.000000 0.000000 0.000000 -0.999998 xpj0103.dat
0 STEP
1 71 6.000000 -82.000040 -28.410190 -1.000000 0.000000 -0.000001 0.000000 1.000000 0.000000 0.000001 0.000000 -1.000000 3713.dat
0 STEP
1 1 6.000000 -92.000030 -48.000000 1.000000 0.000000 0.000000 0.000000 1.000000 0.000000 0.000000 0.000000 1.000000 3894.dat
0 STEP
1 72 6.000000 -82.000040 -67.061130 -1.000000 0.000000 0.000000 0.000000 1.000000 0.000000 0.000000 0.000000 -1.000000 3648b.dat
0 STEP
0 NOFILE
