0 FILE BLK005电动摇摆机_Copy.io
0 Untitled Model
0 Name:  BLK005电动摇摆机_Copy
0 Author:  
0 CustomBrick
0 NumOfBricks:  92
1 1 9.999969 -10.002990 9.995620 -0.000001 -0.000001 1.000000 -1.000000 0.000001 -0.000001 -0.000001 -1.000000 -0.000001 64871.dat
0 STEP
1 0 -110.000000 -10.003090 19.995540 0.000000 0.000000 1.000000 0.000000 1.000000 0.000000 -1.000000 0.000000 0.000000 2780.dat
1 0 -69.999980 -10.003090 19.995540 0.000000 0.000000 1.000000 0.000000 1.000000 0.000000 -1.000000 0.000000 0.000000 2780.dat
0 STEP
1 1 -110.000100 -90.003090 29.995570 1.000000 -0.000001 -0.000001 0.000001 0.000001 1.000000 -0.000001 -1.000000 0.000001 32526.dat
0 STEP
1 0 -10.000040 -10.003080 19.995570 0.000000 0.000000 1.000000 0.000000 1.000000 0.000000 -1.000000 0.000000 0.000000 2780.dat
1 0 30.000020 -10.003080 19.995540 0.000000 0.000000 1.000000 0.000000 1.000000 0.000000 -1.000000 0.000000 0.000000 2780.dat
0 STEP
1 1 10.000060 -50.003090 29.995540 1.000000 0.000000 0.000000 0.000000 0.000000 1.000000 0.000000 -1.000000 0.000000 60484.dat
0 STEP
1 0 89.999770 -10.003080 19.995540 0.000000 0.000000 1.000000 0.000000 1.000000 0.000000 -1.000000 0.000000 0.000000 2780.dat
1 0 129.999900 -10.003080 19.995540 0.000000 0.000000 1.000000 0.000000 1.000000 0.000000 -1.000000 0.000000 0.000000 2780.dat
0 STEP
1 1 129.999900 -90.003070 29.995550 -1.000000 0.000001 0.000001 0.000001 0.000001 1.000000 0.000001 1.000000 -0.000001 32526.dat
0 STEP
1 1 10.000030 -50.003830 49.995500 0.000000 0.000000 1.000000 0.000000 -1.000000 0.000000 1.000000 0.000000 0.000000 6558.dat
1 1 10.000030 -10.003090 49.995550 0.000000 0.000000 1.000000 0.000000 -1.000000 0.000000 1.000000 0.000000 0.000000 6558.dat
0 STEP
1 1 9.999949 -150.003700 49.995410 1.000000 -0.000001 0.000001 0.000001 0.000001 -1.000000 0.000001 1.000000 0.000001 64871.dat
0 STEP
1 1 10.000060 -50.003100 69.995480 1.000000 0.000000 0.000000 0.000000 0.000000 1.000000 0.000000 -1.000000 0.000000 60484.dat
0 STEP
1 0 -9.999949 -10.003090 79.995500 0.000000 0.000000 1.000000 0.000000 1.000000 0.000000 -1.000000 0.000000 0.000000 2780.dat
1 0 30.000020 -10.003100 79.995500 0.000000 0.000000 1.000000 0.000000 1.000000 0.000000 -1.000000 0.000000 0.000000 2780.dat
0 STEP
1 1 9.999949 -10.003000 89.995570 -0.000001 -0.000001 1.000000 -1.000000 0.000001 -0.000001 -0.000001 -1.000000 -0.000001 64871.dat
0 STEP
1 15 -129.999900 -10.003090 -10.004430 0.000000 0.000000 1.000000 1.000000 0.000000 0.000000 0.000000 1.000000 0.000000 55615.dat
1 15 -130.000000 -10.003110 109.995600 0.000000 0.000000 1.000000 -1.000000 0.000000 0.000000 0.000000 -1.000000 0.000000 55615.dat
0 STEP
1 1 -149.999800 -10.003150 49.995590 0.000001 1.000000 0.000001 1.000000 -0.000001 0.000001 0.000001 0.000001 -1.000000 64290.dat
0 STEP
1 0 -110.000100 -90.003070 19.995570 0.000000 0.000000 1.000000 0.000000 1.000000 0.000000 -1.000000 0.000000 0.000000 2780.dat
1 0 -110.000100 -30.003080 19.995570 0.000000 0.000000 1.000000 0.000000 1.000000 0.000000 -1.000000 0.000000 0.000000 2780.dat
0 STEP
1 15 150.000000 -10.003070 -10.004460 0.000000 0.000000 -1.000000 -1.000000 0.000000 0.000000 0.000000 1.000000 0.000000 55615.dat
1 15 150.000000 -10.003090 109.995500 0.000000 0.000000 -1.000000 1.000000 0.000000 0.000000 0.000000 -1.000000 0.000000 55615.dat
0 STEP
1 0 129.999900 -90.003060 19.995540 0.000000 0.000000 1.000000 0.000000 1.000000 0.000000 -1.000000 0.000000 0.000000 2780.dat
1 0 129.999900 -30.003060 19.995540 0.000000 0.000000 1.000000 0.000000 1.000000 0.000000 -1.000000 0.000000 0.000000 2780.dat
0 STEP
1 1 170.000000 -10.003120 49.995570 0.000001 1.000000 0.000001 1.000000 -0.000001 0.000001 0.000001 0.000001 -1.000000 64290.dat
0 STEP
1 16 10.000000 -24.000000 10.000000 1.000000 0.000000 0.000000 0.000000 1.000000 0.000000 0.000000 0.000000 1.000000 submodel group 6
0 STEP
1 16 10.000000 -96.000000 60.000000 1.000000 0.000000 0.000000 0.000000 1.000000 0.000000 0.000000 0.000000 1.000000 submodel group 5
0 STEP
1 71 10.000000 -110.000000 10.000000 -0.996917 0.078461 0.000000 -0.078461 -0.996917 0.000000 0.000000 0.000000 1.000000 3649.dat
0 STEP
1 0 -50.000050 -110.003100 -6.004460 0.000000 0.000000 -1.000000 0.000000 -1.000000 0.000000 -1.000000 0.000000 0.000000 4519.dat
1 71 -50.000050 -110.003100 9.995600 -1.000000 0.000000 0.000000 0.000000 -1.000000 0.000000 0.000000 0.000000 1.000000 3647.dat
0 STEP
1 1 9.999940 -110.003000 -10.004480 0.000001 0.000001 -1.000000 -1.000000 0.000001 -0.000001 0.000001 1.000000 0.000001 41239.dat
0 STEP
1 0 -70.000080 -110.003100 -20.004420 0.000000 1.000000 0.000000 0.000000 0.000000 -1.000000 -1.000000 0.000000 0.000000 2780.dat
1 0 -30.000110 -110.003100 -20.004440 0.000000 1.000000 0.000000 0.000000 0.000000 -1.000000 -1.000000 0.000000 0.000000 2780.dat
0 STEP
1 15 10.000070 -170.003800 89.995470 -1.000000 0.000001 -0.000001 -0.000001 -0.000001 1.000000 0.000001 1.000000 0.000001 32316.dat
1 16 10.000150 -240.007600 49.999900 -1.000000 0.000000 0.000000 0.000000 -1.000000 0.000000 0.000000 0.000000 1.000000 submodel group 4
0 STEP
1 16 10.000000 -264.000000 40.000000 1.000000 0.000000 0.000000 0.000000 1.000000 0.000000 0.000000 0.000000 1.000000 submodel group 3
0 STEP
1 1 10.000060 -270.004300 69.995500 1.000000 0.000000 0.000000 0.000000 0.000000 -1.000000 0.000000 1.000000 0.000000 60484.dat
0 STEP
1 16 130.000000 -192.000000 30.000000 0.979075 -0.203498 0.000000 0.203498 0.979075 0.000000 0.000000 0.000000 1.000000 submodel group 2
1 16 -110.000000 -192.000000 30.000000 0.979912 0.199431 0.000000 -0.199431 0.979912 0.000000 0.000000 0.000000 1.000000 submodel group 1
0 STEP
1 15 -50.000000 -110.261400 -22.000000 -1.000000 0.000000 0.000000 0.000000 1.000000 0.000000 0.000000 0.000000 -1.000000 dx0044.dat
0 STEP
1 16 -43.000000 -40.363530 -207.000000 0.000000 0.000000 1.000000 0.000000 1.000000 0.000000 -1.000000 0.000000 0.000000 submodel group 9 copy copy copy
0 STEP
0 STEP
0 NOFILE
0 FILE SubModel Group 6
0 SubModel Group 6
0 Name:  SubModel Group 6
0 Author:  
0 CustomBrick
0 NumOfBricks:  5
1 1 -0.000100 -86.003100 19.995460 0.000001 0.000001 -1.000000 -1.000000 0.000001 -0.000001 0.000001 1.000000 0.000001 41239.dat
0 STEP
1 1 -120.000100 -86.003200 -0.004420 0.000000 0.000000 -1.000000 0.000000 -1.000000 0.000000 -1.000000 0.000000 0.000000 6558.dat
1 1 120.000000 -86.003040 -0.004470 0.000000 0.000000 1.000000 0.000000 1.000000 0.000000 -1.000000 0.000000 0.000000 6558.dat
0 STEP
1 15 -120.000100 -46.003070 -0.004410 -1.000000 0.000001 -0.000001 0.000001 0.000001 -1.000000 -0.000001 -1.000000 -0.000001 32316.dat
1 15 120.000000 -46.003070 -0.004430 -1.000000 0.000001 -0.000001 0.000001 0.000001 -1.000000 -0.000001 -1.000000 -0.000001 32316.dat
0 STEP
0 NOFILE
0 FILE SubModel Group 5
0 SubModel Group 5
0 Name:  SubModel Group 5
0 Author:  
0 CustomBrick
0 NumOfBricks:  4
1 0 0.000040 -14.003800 -30.004500 0.000000 0.000000 1.000000 0.000000 1.000000 0.000000 -1.000000 0.000000 0.000000 32073.dat
0 STEP
1 15 0.000030 -14.003800 4.995500 -1.000000 0.000000 0.000000 0.000000 0.000000 -1.000000 0.000000 -1.000000 0.000000 41677.dat
1 15 0.000030 -14.003800 14.995500 -1.000000 0.000000 0.000000 0.000000 0.000000 -1.000000 0.000000 -1.000000 0.000000 41677.dat
0 STEP
1 19 0.000020 -34.003800 19.995480 0.000001 0.000001 1.000000 -0.000001 1.000000 -0.000001 -1.000000 -0.000001 0.000001 3749.dat
0 STEP
0 NOFILE
0 FILE SubModel Group 4
0 SubModel Group 4
0 Name:  SubModel Group 4
0 Author:  
0 CustomBrick
0 NumOfBricks:  14
1 0 0.000090 -10.003690 -20.004420 1.000000 0.000000 0.000000 0.000000 -1.000000 0.000000 0.000000 0.000000 -1.000000 4519.dat
1 71 0.000020 -10.003690 -20.004550 -1.000000 0.000000 0.000000 0.000000 -1.000000 0.000000 0.000000 0.000000 1.000000 63869.dat
0 STEP
1 71 20.000020 -30.003690 -30.004500 0.000000 0.000000 1.000000 0.000000 1.000000 0.000000 -1.000000 0.000000 0.000000 3673.dat
1 71 -19.999950 -30.003690 -30.004500 0.000000 0.000000 1.000000 0.000000 1.000000 0.000000 -1.000000 0.000000 0.000000 3673.dat
0 STEP
1 1 20.000060 -10.003690 -0.004460 -1.000000 0.000000 0.000000 0.000000 0.000000 1.000000 0.000000 1.000000 0.000000 42003.dat
0 STEP
1 1 -19.999910 -10.003690 -0.004460 -1.000000 0.000000 0.000000 0.000000 0.000000 1.000000 0.000000 1.000000 0.000000 42003.dat
0 STEP
1 0 20.000020 -20.003690 -0.004410 0.000000 0.000000 -1.000000 -1.000000 0.000000 0.000000 0.000000 1.000000 0.000000 2780.dat
1 0 -19.999940 -20.003690 -0.004410 0.000000 0.000000 -1.000000 -1.000000 0.000000 0.000000 0.000000 1.000000 0.000000 2780.dat
0 STEP
1 71 20.000020 -40.003690 -0.004370 0.000000 0.000000 1.000000 1.000000 0.000000 0.000000 0.000000 1.000000 0.000000 62462.dat
1 71 -19.999950 -40.003690 -0.004400 0.000000 0.000000 1.000000 1.000000 0.000000 0.000000 0.000000 1.000000 0.000000 62462.dat
0 STEP
1 1 20.000050 -20.003690 19.995540 0.000000 0.000000 -1.000000 -1.000000 0.000000 0.000000 0.000000 1.000000 0.000000 43093.dat
1 1 -19.999910 -20.003690 19.995540 0.000000 0.000000 -1.000000 -1.000000 0.000000 0.000000 0.000000 1.000000 0.000000 43093.dat
0 STEP
1 71 0.625050 -30.003690 19.995540 0.000000 -1.000000 0.000000 -1.000000 0.000000 0.000000 0.000000 0.000000 -1.000000 32184.dat
0 STEP
1 71 0.000030 -30.003800 29.995540 0.000000 0.000000 1.000000 0.000000 1.000000 0.000000 -1.000000 0.000000 0.000000 3673.dat
0 STEP
0 NOFILE
0 FILE SubModel Group 3
0 SubModel Group 3
0 Name:  SubModel Group 3
0 Author:  
0 CustomBrick
0 NumOfBricks:  8
1 1 0.000060 -6.004300 -10.004510 1.000000 0.000000 0.000000 0.000000 0.000000 -1.000000 0.000000 1.000000 0.000000 60484.dat
0 STEP
1 1 0.000040 -26.003910 9.995500 0.000000 0.000000 -1.000000 0.000000 1.000000 0.000000 1.000000 0.000000 0.000000 6558.dat
1 1 0.000040 -6.003600 9.995500 0.000000 0.000000 -1.000000 0.000000 1.000000 0.000000 1.000000 0.000000 0.000000 6558.dat
0 STEP
1 1 20.000020 -46.004400 9.995530 0.000000 0.000000 -1.000000 0.000000 1.000000 0.000000 1.000000 0.000000 0.000000 6558.dat
1 1 -19.999940 -46.004400 9.995500 0.000000 0.000000 -1.000000 0.000000 1.000000 0.000000 1.000000 0.000000 0.000000 6558.dat
0 STEP
1 15 0.000040 -46.004400 9.995440 -0.000001 -0.000001 1.000000 1.000000 -0.000001 0.000001 0.000001 1.000000 0.000001 40490.dat
0 STEP
1 71 80.000060 -46.004300 -0.004520 0.000000 0.000000 1.000000 0.000000 -1.000000 0.000000 1.000000 0.000000 0.000000 3673.dat
1 71 -79.999980 -46.004400 -0.004540 0.000000 0.000000 1.000000 0.000000 -1.000000 0.000000 1.000000 0.000000 0.000000 3673.dat
0 STEP
0 NOFILE
0 FILE SubModel Group 2
0 SubModel Group 2
0 Name:  SubModel Group 2
0 Author:  
0 CustomBrick
0 NumOfBricks:  11
1 1 14.156800 -27.891290 19.995460 0.999992 0.000000 0.004212 0.004212 -0.000001 -0.999992 0.000001 1.000000 -0.000001 32526.dat
0 STEP
1 0 54.480860 -108.512700 9.995490 0.000000 0.979075 -0.203498 0.000000 -0.203498 -0.979075 -1.000000 0.000000 0.000000 2780.dat
1 0 34.493580 -107.806400 9.995490 0.000000 0.979075 -0.203498 0.000000 -0.203498 -0.979075 -1.000000 0.000000 0.000000 2780.dat
0 STEP
1 15 114.443400 -110.632200 -0.004540 0.035323 0.000000 0.999376 0.999376 -0.000001 -0.035323 0.000001 1.000000 0.000001 40490.dat
0 STEP
1 71 14.409420 -87.890750 9.995450 0.000000 0.979075 -0.203498 0.000000 -0.203498 -0.979075 -1.000000 0.000000 0.000000 3673.dat
1 71 14.156810 -27.891290 9.995430 0.000000 0.979075 -0.203498 0.000000 -0.203498 -0.979075 -1.000000 0.000000 0.000000 3673.dat
0 STEP
1 15 -43.779900 -102.519100 -0.004560 0.243806 0.000000 -0.969824 -0.969824 0.000001 -0.243806 0.000001 1.000000 0.000001 32524.dat
1 15 -43.381750 -42.648810 -0.004560 0.243806 0.000000 -0.969824 -0.969824 0.000001 -0.243806 0.000001 1.000000 0.000001 32524.dat
0 STEP
1 71 -101.969400 -117.147400 -10.004540 0.000000 -0.203498 0.979075 0.000000 -0.979075 -0.203498 1.000000 0.000000 0.000000 3673.dat
1 71 -101.571200 -57.277180 -10.004550 0.000000 0.979075 -0.203498 0.000000 -0.203498 -0.979075 -1.000000 0.000000 0.000000 3673.dat
0 STEP
1 15 -101.571300 -57.277260 -20.004490 1.000001 0.000000 0.000000 0.000000 -0.000001 1.000001 -0.000001 -1.000000 -0.000001 32524.dat
0 STEP
0 NOFILE
0 FILE SubModel Group 1
0 SubModel Group 1
0 Name:  SubModel Group 1
0 Author:  
0 CustomBrick
0 NumOfBricks:  11
1 1 -14.867690 -28.724110 19.995480 -0.999913 0.000000 -0.013176 0.013176 -0.000001 -0.999913 -0.000001 -1.000000 0.000001 32526.dat
1 0 -55.918290 -108.721300 9.995310 0.000000 -0.199431 -0.979912 0.000000 0.979912 -0.199431 1.000000 0.000000 0.000000 2780.dat
1 0 -35.920060 -108.453600 9.995420 0.000000 -0.199431 -0.979912 0.000000 0.979912 -0.199431 1.000000 0.000000 0.000000 2780.dat
0 STEP
1 15 -115.912800 -109.524700 -0.004670 0.013389 0.000001 -0.999910 -0.999910 0.000000 -0.013389 0.000001 1.000000 0.000001 40490.dat
0 STEP
1 71 -15.658240 -88.718940 9.995480 0.000000 -0.199431 -0.979912 0.000000 0.979912 -0.199431 1.000000 0.000000 0.000000 3673.dat
1 71 -14.867690 -28.724110 9.995510 0.000000 -0.199431 -0.979912 0.000000 0.979912 -0.199431 1.000000 0.000000 0.000000 3673.dat
0 STEP
1 15 43.322380 -102.827500 -0.004550 0.241456 -0.000001 0.970412 0.970412 0.000000 -0.241456 0.000001 1.000000 0.000001 32524.dat
1 15 43.357010 -43.211490 -0.004550 0.241456 -0.000001 0.970412 0.970412 0.000000 -0.241456 0.000001 1.000000 0.000001 32524.dat
0 STEP
1 71 101.547100 -117.314900 -10.004500 0.000000 -0.127987 -0.991776 0.000000 0.991776 -0.127987 1.000000 0.000000 0.000000 3673.dat
1 71 101.581700 -57.698920 -10.004500 0.000000 0.000001 -1.000000 0.000000 1.000000 0.000001 1.000000 0.000000 0.000000 3673.dat
0 STEP
1 15 101.581800 -57.699000 -20.004520 -1.000000 0.000000 0.000000 0.000000 -0.000001 1.000000 0.000001 1.000000 0.000001 32524.dat
0 STEP
0 NOFILE
0 FILE SubModel Group 9 Copy Copy Copy
0 SubModel Group 9 Copy Copy Copy
0 Name:  SubModel Group 9 Copy Copy Copy
0 Author:  
0 CustomBrick
0 NumOfBricks:  3
1 72 10.000000 -1.128810 -10.000000 1.000000 0.000000 0.000000 0.000000 0.000000 -1.000000 0.000000 1.000000 0.000000 dch003.dat
1 71 -27.466620 -79.717990 29.427020 1.000000 0.000000 0.000000 0.000000 0.000000 -1.000000 0.000000 1.000000 0.000000 dch004.dat
1 25 7.837010 13.484720 -9.965000 1.000000 0.000000 0.000000 0.000000 0.000000 -1.000000 0.000000 1.000000 0.000000 dch005.dat
0 NOFILE
