0 FILE 机械狗_Copy.io
0 Untitled Model
0 Name:  机械狗_Copy
0 Author:  
0 CustomBrick
0 NumOfBricks:  184
1 72 27.466600 -60.412020 -119.326600 1.000000 0.000000 0.000000 0.000000 0.000000 -1.000000 0.000000 1.000000 0.000000 dch003.dat
1 71 -10.000020 -139.001200 -79.899590 1.000000 0.000000 0.000000 0.000000 0.000000 -1.000000 0.000000 1.000000 0.000000 dch004.dat
1 25 25.303600 -45.798480 -119.291600 1.000000 0.000000 0.000000 0.000000 0.000000 -1.000000 0.000000 1.000000 0.000000 dch005.dat
0 STEP
1 0 180.000200 -109.001200 -149.999600 0.000000 1.000000 0.000000 0.000000 0.000000 -1.000000 -1.000000 0.000000 0.000000 2780.dat
1 0 180.000200 -149.001200 -149.999700 0.000000 1.000000 0.000000 0.000000 0.000000 -1.000000 -1.000000 0.000000 0.000000 2780.dat
0 STEP
1 15 180.000200 -149.001200 -159.999700 -1.000000 0.000001 -0.000001 -0.000001 -0.000001 1.000000 0.000001 1.000000 0.000001 64871.dat
0 STEP
1 4 180.000200 -189.001200 -159.999700 -0.000001 1.000002 -0.000001 -0.000001 -0.000001 -1.000000 -1.000003 -0.000001 0.000001 32054.dat
0 STEP
1 71 180.000200 -189.001200 -119.999300 0.000000 0.000000 1.000002 0.000000 1.000000 0.000000 -1.000003 0.000000 0.000000 4519.dat
0 STEP
1 4 179.997300 -189.001000 -79.997960 0.000001 -1.000000 0.000001 -0.000001 -0.000001 -1.000000 1.000000 0.000001 -0.000001 32054.dat
0 STEP
1 16 180.000000 -216.000000 -120.000000 0.996195 -0.087155 0.000000 0.087155 0.996195 0.000000 0.000000 0.000000 1.000000 submodel group 2
0 STEP
1 0 180.000200 -149.001200 -89.999750 0.000000 1.000000 0.000000 0.000000 0.000000 -1.000000 -1.000000 0.000000 0.000000 2780.dat
1 0 180.000200 -109.001200 -89.999550 0.000000 1.000000 0.000000 0.000000 0.000000 -1.000000 -1.000000 0.000000 0.000000 2780.dat
0 STEP
1 15 180.000200 -149.001200 -80.079540 -1.000000 0.000001 -0.000001 -0.000001 -0.000001 1.000000 0.000001 1.000000 0.000001 64871.dat
0 STEP
1 0 180.000200 -129.001100 -120.239500 0.000000 0.716911 0.697162 0.000000 0.697163 -0.716912 -1.000000 0.000000 0.000000 3707.dat
0 STEP
1 71 180.001200 -129.001600 -175.241900 -0.697165 -0.716910 0.000000 0.716914 -0.697163 0.000000 0.000000 0.000000 1.000004 4185.dat
1 71 180.000200 -129.000800 -64.429530 -0.697163 -0.716910 0.000000 0.716911 -0.697163 0.000000 0.000000 0.000000 1.000000 4185.dat
0 STEP
1 71 180.000200 -129.001100 -190.239500 0.697163 0.000000 0.716911 -0.716912 0.000000 0.697164 0.000000 -1.000000 0.000000 33299.dat
1 71 180.000200 -129.001100 -50.239560 -0.697163 0.000000 0.716911 0.716912 0.000000 0.697164 0.000000 1.000000 0.000000 33299.dat
0 STEP
1 1 180.000200 -9.001289 -179.999400 0.000000 1.000000 0.000000 0.000000 0.000000 -1.000000 -1.000000 0.000000 0.000000 32556.dat
1 1 180.000200 -29.001280 -179.999600 0.000000 1.000000 0.000000 0.000000 0.000000 -1.000000 -1.000000 0.000000 0.000000 32556.dat
1 1 180.000100 -9.001220 -60.079420 0.000000 -1.000000 0.000000 0.000000 0.000000 -1.000000 1.000000 0.000000 0.000000 32556.dat
1 1 180.000100 -29.001200 -60.079410 0.000000 -1.000000 0.000000 0.000000 0.000000 -1.000000 1.000000 0.000000 0.000000 32556.dat
0 STEP
1 15 179.999200 -29.001220 -179.998900 -1.000000 0.000001 -0.000001 -0.000001 -0.000001 1.000000 0.000001 1.000000 0.000001 32523.dat
1 15 180.001200 -29.000520 -60.077740 0.999999 -0.000001 0.000001 -0.000001 -0.000001 1.000000 -0.000001 -0.999999 -0.000001 32523.dat
0 STEP
1 0 -19.999660 -109.001100 -89.999740 0.000000 -1.000000 0.000000 0.000000 0.000000 1.000000 -1.000000 0.000000 0.000000 2780.dat
1 0 -19.999780 -149.001100 -89.999740 0.000000 -1.000000 0.000000 0.000000 0.000000 1.000000 -1.000000 0.000000 0.000000 2780.dat
1 0 -20.000020 -149.001800 -149.899700 0.000000 1.000000 0.000000 0.000000 0.000000 1.000006 1.000006 0.000000 0.000000 2780.dat
1 0 -20.000020 -109.001200 -149.899700 0.000000 1.000000 0.000000 0.000000 0.000000 1.000006 1.000006 0.000000 0.000000 2780.dat
0 STEP
1 15 -19.999780 -129.001100 -79.999740 1.000000 -0.000001 0.000001 -0.000001 -0.000001 1.000000 -0.000001 -1.000000 -0.000001 32524.dat
0 STEP
1 4 -19.999780 -189.001100 -79.999740 0.000001 0.000001 1.000000 0.000001 -1.000000 0.000001 1.000000 0.000001 -0.000001 32054.dat
0 STEP
1 71 -19.999780 -189.001100 -119.899700 0.000000 -1.000000 0.000000 0.000000 0.000000 -1.000000 1.000000 0.000000 0.000000 4519.dat
0 STEP
1 4 -19.999780 -189.001100 -159.899700 -0.000001 -0.000001 -1.000000 0.000001 -1.000000 0.000001 -1.000000 -0.000001 0.000001 32054.dat
0 STEP
1 15 -20.000020 -129.001100 -159.899900 -1.000000 0.000001 -0.000001 -0.000001 -0.000001 1.000004 0.000001 1.000004 0.000001 32524.dat
0 STEP
1 0 -20.000020 -69.000800 -70.000110 0.000000 -1.000000 0.000000 0.000000 0.000000 1.000000 -1.000000 0.000000 0.000000 2780.dat
1 0 -19.999660 -89.000800 -69.999840 0.000000 -1.000000 0.000000 0.000000 0.000000 1.000000 -1.000000 0.000000 0.000000 2780.dat
1 0 -20.000150 -69.000600 -169.899800 0.000000 1.000000 0.000000 0.000000 0.000000 1.000015 1.000015 0.000000 0.000000 2780.dat
1 0 -20.000150 -89.000960 -169.899700 0.000000 1.000000 0.000000 0.000000 0.000000 1.000015 1.000015 0.000000 0.000000 2780.dat
0 STEP
1 15 -19.999660 -49.000940 -60.000030 -1.000000 0.000001 -0.000001 -0.000001 -0.000001 1.000000 0.000001 1.000000 0.000001 32316.dat
1 15 -19.994170 -49.000120 -179.892100 1.000000 -0.000001 0.000001 -0.000001 -0.000001 1.000000 -0.000001 -1.000000 -0.000001 32316.dat
0 STEP
1 0 -19.999780 -29.000940 -50.000040 0.000000 1.000000 0.000000 0.000000 0.000000 1.000000 1.000000 0.000000 0.000000 2780.dat
1 0 -19.999780 -9.000939 -50.000040 0.000000 1.000000 0.000000 0.000000 0.000000 1.000000 1.000000 0.000000 0.000000 2780.dat
1 0 -20.000020 -8.999680 -189.900300 0.000000 1.000000 0.000000 0.000000 0.000000 1.000015 1.000015 0.000000 0.000000 2780.dat
1 0 -20.000020 -29.000000 -189.900300 0.000000 1.000000 0.000000 0.000000 0.000000 1.000015 1.000015 0.000000 0.000000 2780.dat
0 STEP
1 1 40.000000 -9.001010 -40.000000 -0.000001 -0.000001 -1.000000 -1.000000 0.000001 0.000001 0.000001 1.000000 -0.000001 32140.dat
1 1 39.999840 -9.000080 -199.900500 -0.000001 -0.000001 -1.000000 -1.000000 0.000001 0.000001 0.000001 1.000000 -0.000001 32140.dat
1 1 240.000300 -9.001349 -199.999500 -0.000001 -0.000001 -1.000000 -1.000000 0.000001 0.000001 0.000001 1.000000 -0.000001 32140.dat
1 1 240.000400 -9.001309 -40.079430 -0.000001 -0.000001 -1.000000 -1.000000 0.000001 0.000001 0.000001 1.000000 -0.000001 32140.dat
0 STEP
1 15 80.000180 -189.001300 -179.999900 -0.000001 -0.000001 1.000000 1.000000 -0.000001 0.000001 0.000001 1.000000 0.000001 64871.dat
0 STEP
1 16 -100.000000 -84.000000 -120.000000 0.834177 -0.551496 0.000000 0.551496 0.834177 0.000000 0.000000 0.000000 1.000000 submodel group 1
0 STEP
1 15 79.997260 -189.001000 -59.998060 -0.000001 -0.000001 1.000000 1.000000 -0.000001 0.000001 0.000001 1.000000 0.000001 64871.dat
0 STEP
1 15 180.000000 -129.865400 -130.000000 1.000000 0.000000 0.000000 0.000000 1.000000 0.000000 0.000000 0.000000 1.000000 xpj0023.dat
1 15 179.989500 -128.996000 -20.000000 1.000000 0.000000 0.000000 0.000000 1.000000 0.000000 0.000000 0.000000 1.000000 xpj0023.dat
0 STEP
1 15 68.680300 -100.136400 -210.239500 0.006987 0.000000 0.999975 0.999975 -0.000001 -0.006987 0.000001 1.000000 0.000000 64871.dat
0 STEP
1 15 68.680300 -100.136300 -30.239540 0.006987 0.000000 0.999976 0.999976 -0.000002 -0.006987 0.000001 1.000000 0.000000 64871.dat
0 STEP
1 14 -70.753540 -100.208400 -224.998700 0.834177 0.551497 0.000000 0.551497 -0.834177 0.000000 0.000000 0.000000 -1.000000 32123a.dat
0 STEP
1 14 -70.751750 -100.207300 -15.430340 0.834177 0.551497 0.000000 0.551497 -0.834177 0.000000 0.000000 0.000000 -1.000000 32123a.dat
0 STEP
1 16 280.000000 -108.000000 -120.000000 0.878019 -0.478626 -0.000001 0.478626 0.878019 0.000000 0.000001 0.000000 1.000000 submodel group 3
0 STEP
1 4 220.000300 -189.001300 -179.999800 0.000000 1.000000 -0.000001 0.000001 0.000001 1.000000 1.000000 0.000000 -0.000001 32054.dat
1 4 200.000200 -189.001300 -179.999800 0.000000 1.000000 -0.000001 0.000001 0.000001 1.000000 1.000000 0.000000 -0.000001 32054.dat
1 4 219.997200 -189.001000 -59.997960 0.000000 -1.000000 0.000001 0.000001 0.000001 1.000000 -1.000000 0.000000 0.000001 32054.dat
1 4 199.997200 -189.001000 -59.997960 0.000000 -1.000000 0.000001 0.000001 0.000001 1.000000 -1.000000 0.000000 0.000001 32054.dat
0 STEP
1 72 180.872700 -258.963300 -175.439700 0.996197 0.087155 0.000000 0.087155 -0.996195 0.000000 0.000000 0.000000 -1.000000 6575.dat
1 72 179.129200 -239.039300 -185.349600 0.996195 -0.087155 0.000000 0.087155 0.996195 0.000000 0.000000 0.000000 1.000000 6575.dat
1 72 180.872300 -258.962900 -64.909640 0.996195 0.087155 0.000000 0.087155 -0.996195 0.000000 0.000000 0.000000 -1.000000 6575.dat
1 72 179.128100 -239.039300 -54.599660 -0.996195 -0.087155 0.000000 -0.087155 0.996195 0.000000 0.000000 0.000000 -1.000000 6575.dat
0 STEP
0 NOFILE
0 FILE SubModel Group 2
0 SubModel Group 2
0 Name:  SubModel Group 2
0 Author:  
0 CustomBrick
0 NumOfBricks:  4
1 71 -2.876030 -32.875670 -1.809800 -1.000000 0.000000 -0.000001 0.000000 -1.000000 0.000000 -0.000001 0.000000 1.000000 3650c.dat
1 0 -2.876040 -32.875670 -5.889610 0.000000 0.000000 1.000000 0.000000 1.000000 0.000000 -1.000000 0.000000 0.000000 3737.dat
1 71 -2.876040 -32.875670 20.320250 -1.000000 0.000000 -0.000001 0.000000 1.000000 0.000000 0.000001 0.000000 -1.000000 3713.dat
1 71 -2.876040 -32.875670 -19.479800 1.000000 0.000000 0.000001 0.000000 1.000000 0.000000 -0.000001 0.000000 1.000000 3713.dat
0 NOFILE
0 FILE SubModel Group 1
0 SubModel Group 1
0 Name:  SubModel Group 1
0 Author:  
0 CustomBrick
0 NumOfBricks:  18
1 4 -144.540200 -109.650100 -29.999900 0.000000 -0.000001 1.000001 0.000000 1.000002 0.000000 -1.000000 0.000000 0.000000 32062.dat
1 1 15.457860 -109.650000 -39.998800 -0.000001 0.000000 0.999997 1.000002 0.000000 0.000000 0.000000 0.999997 0.000000 32009.dat
0 STEP
1 4 -144.540500 -109.649400 -0.000300 -1.000000 0.000000 0.000000 0.000001 -1.000001 0.000000 0.000000 0.000000 1.000000 32034.dat
0 STEP
1 4 -144.540200 -109.650100 29.999860 0.000000 -0.000001 1.000001 0.000000 1.000002 0.000000 -1.000000 0.000000 0.000000 32062.dat
0 STEP
1 71 -24.540130 -109.650200 -39.999900 0.000000 -0.000001 1.000001 0.000000 1.000002 0.000000 -1.000000 0.000000 0.000000 4519.dat
0 STEP
1 4 -24.540070 -109.650100 -0.000500 -1.000001 0.000001 0.000000 0.000000 -1.000002 0.000000 0.000000 0.000000 1.000000 32034.dat
0 STEP
1 19 -34.540880 -109.649200 -0.000300 -1.000001 -0.000002 0.000001 0.000001 0.000001 1.000002 -0.000001 1.000000 -0.000002 3749.dat
0 STEP
1 71 -24.540130 -109.650200 39.999660 0.000000 -0.000001 1.000001 0.000000 1.000002 0.000000 -1.000000 0.000000 0.000000 4519.dat
0 STEP
1 71 -54.540210 -109.652900 -0.000500 0.000001 -0.000001 -1.000001 0.000000 1.000002 0.000000 1.000000 0.000000 0.000001 59443.dat
0 STEP
1 1 15.458950 -109.650300 39.999660 -0.000001 0.000000 1.000001 1.000002 0.000000 0.000000 0.000000 1.000000 0.000000 32009.dat
0 STEP
1 0 -174.539700 -109.650000 -0.000500 1.000001 -0.000001 0.000000 0.000000 1.000002 0.000000 0.000000 0.000000 1.000000 3708.dat
0 STEP
1 15 -294.540200 -109.650000 -0.000300 0.000001 1.000001 0.000000 -1.000002 0.000000 0.000000 0.000000 0.000000 1.000000 3941.dat
0 STEP
1 0 15.457870 -29.649990 -69.998690 0.000000 -0.000001 1.000000 0.000000 1.000001 0.000001 -1.000000 0.000000 0.000000 3705.dat
1 0 15.459970 -29.650060 69.999660 0.000000 -0.000001 1.000001 0.000000 1.000002 0.000000 -1.000000 0.000000 0.000000 3705.dat
0 STEP
1 71 15.459600 -29.649940 -59.999500 1.000001 -0.000001 0.000001 0.000000 1.000002 0.000000 -0.000001 0.000000 1.000000 3713.dat
1 71 15.459970 -29.650060 59.999660 -1.000001 -0.000001 -0.000001 0.000000 1.000002 0.000000 0.000001 0.000000 -1.000000 3713.dat
0 STEP
1 14 15.459700 -29.650000 -75.129600 1.000001 0.000001 0.000000 0.000000 -1.000002 0.000000 0.000000 0.000000 -1.000000 32123a.dat
1 14 15.459970 -29.650060 74.999740 1.000001 0.000001 0.000000 0.000000 -1.000002 0.000000 0.000000 0.000000 -1.000000 32123a.dat
0 STEP
0 NOFILE
0 FILE SubModel Group 3
0 SubModel Group 3
0 Name:  SubModel Group 3
0 Author:  
0 CustomBrick
0 NumOfBricks:  100
1 0 -37.183520 -26.428020 1.169220 0.000001 0.478630 -0.878017 0.000000 0.878022 0.478628 1.000005 0.000000 0.000001 3706.dat
1 14 -37.184320 -26.427490 -53.960980 0.878017 -0.478630 -0.000001 -0.478628 -0.878022 0.000000 -0.000001 0.000000 -1.000005 32123a.dat
0 STEP
1 1 -80.291600 19.849270 -39.010730 -0.478629 0.000000 0.878017 -0.878022 0.000001 -0.478627 -0.000001 -1.000005 0.000001 32140.dat
1 0 -27.611120 -8.867810 -28.830380 -0.000001 0.878017 -0.478630 0.000000 -0.478628 -0.878022 -1.000007 -0.000001 0.000000 2780.dat
0 STEP
1 15 -65.900790 -79.108630 -18.830050 0.878017 0.000000 -0.478628 -0.478627 0.000001 -0.878021 0.000000 1.000005 0.000001 40490.dat
0 STEP
1 72 -37.183520 -26.428020 1.489530 -0.878017 -0.478630 0.000001 0.478628 -0.878022 0.000000 0.000001 0.000000 1.000005 3647.dat
0 STEP
1 72 -65.900810 -79.108620 -28.830760 0.000000 -0.878017 0.478630 0.000001 0.478628 0.878022 -1.000007 0.000001 0.000001 32002.dat
1 72 -75.473580 -96.669460 -28.830360 0.000000 -0.878017 0.478630 0.000001 0.478628 0.878022 -1.000007 0.000001 0.000001 32002.dat
0 STEP
1 72 -65.898890 -79.109240 -33.827960 0.878012 0.000001 -0.478629 -0.478626 0.000000 -0.878021 -0.000001 1.000004 0.000000 99773.dat
0 STEP
1 4 -80.291590 19.849270 -29.010030 -0.000001 -0.878017 0.478630 0.000000 0.478628 0.878022 -1.000005 0.000001 0.000000 32062.dat
1 4 -101.021600 -59.963540 -29.979720 0.000001 0.878017 0.478630 0.000000 -0.478628 0.878022 1.000005 -0.000001 0.000000 32062.dat
0 STEP
1 4 -80.292850 19.850890 0.991170 -0.478628 0.878017 0.000001 -0.878019 -0.478628 0.000000 0.000000 -0.000001 1.000001 32034.dat
1 4 -101.021600 -59.963550 1.339480 -0.478631 -0.878016 -0.000001 -0.878022 0.478629 0.000000 0.000000 0.000001 -1.000005 32034.dat
0 STEP
1 4 -80.292230 19.849860 30.830240 -0.000001 -0.878017 0.478630 0.000000 0.478628 0.878022 -1.000005 0.000001 0.000000 32062.dat
1 4 -101.021600 -59.963560 31.339830 0.000001 0.878017 0.478630 0.000000 -0.478628 0.878022 1.000005 -0.000001 0.000000 32062.dat
0 STEP
1 16 -60.000000 -24.000000 0.000000 0.936085 0.351774 0.000000 -0.351774 0.936085 0.000000 0.000000 0.000000 1.000000 submodel group 11
0 STEP
1 16 -80.000000 -72.000000 0.000000 0.878017 0.478629 0.000000 -0.478629 0.878017 0.000000 0.000000 0.000000 1.000000 submodel group 10
0 STEP
1 15 -65.900920 -79.108920 21.430380 0.878017 0.000000 -0.478630 -0.478627 0.000001 -0.878022 0.000000 1.000005 0.000001 40490.dat
0 STEP
1 0 -27.610500 -8.868830 30.692880 0.000001 0.478630 -0.878017 0.000000 0.878022 0.478629 1.000007 0.000000 0.000000 2780.dat
1 72 -75.483530 -96.664790 30.693910 0.000002 -0.478631 0.878019 -0.000001 -0.878023 -0.478630 1.000007 -0.000001 -0.000002 32002.dat
1 72 -65.900280 -79.109790 30.692180 0.000002 -0.478631 0.878019 -0.000001 -0.878022 -0.478630 1.000007 -0.000001 -0.000002 32002.dat
0 STEP
1 1 -80.292270 19.849780 40.830840 -0.478629 0.000001 0.878017 -0.878022 0.000000 -0.478627 -0.000001 -1.000004 0.000001 32140.dat
0 STEP
1 72 -65.900850 -79.108810 36.190480 0.878017 0.000001 -0.478630 -0.478628 0.000000 -0.878022 -0.000001 1.000005 0.000000 99773.dat
0 STEP
1 14 -37.184180 -26.427420 56.171170 0.878017 -0.478630 -0.000001 -0.478628 -0.878022 0.000000 -0.000001 0.000000 -1.000005 32123a.dat
0 STEP
1 16 30.000000 -24.000000 0.000000 0.878017 0.478630 0.000000 -0.478630 0.878017 0.000001 0.000000 -0.000001 1.000000 submodel group 9
0 STEP
1 15 -38.769200 -71.121200 -39.999680 0.478629 0.000000 -0.878017 0.878017 -0.000001 0.478630 -0.000001 -1.000000 0.000000 40490.dat
0 STEP
1 14 31.473910 -109.410900 54.830890 0.758401 -0.651789 -0.000001 -0.651793 -0.758398 0.000000 -0.000001 0.000000 -1.000000 32123a.dat
1 14 31.472160 -109.409400 -55.128740 0.758401 -0.651789 -0.000001 -0.651793 -0.758398 0.000000 -0.000001 0.000000 -1.000001 32123a.dat
0 STEP
1 71 31.473400 -109.411800 69.870980 -0.758400 0.000001 0.651789 0.651790 0.000000 0.758399 0.000001 1.000000 0.000000 33299.dat
1 71 31.473420 -109.411500 -70.129440 0.758400 -0.000001 0.651789 -0.651789 0.000000 0.758400 -0.000001 -1.000000 -0.000001 33299.dat
0 STEP
1 16 -150.000000 12.000000 0.000000 0.878018 0.478629 0.000001 -0.478629 0.878018 0.000000 -0.000001 0.000000 1.000000 submodel group 5
0 STEP
1 1 4.338820 -117.398200 40.431120 -0.428999 0.000000 -0.903302 0.903301 0.000000 -0.429008 0.000000 -1.000000 0.000001 6629.dat
0 STEP
1 1 4.338420 -117.397700 -39.529120 -0.429010 0.000001 -0.903300 0.903300 0.000000 -0.429010 -0.000001 -1.000000 -0.000001 6629.dat
0 STEP
1 0 -103.695400 -150.994200 0.940820 -0.000001 0.478630 0.878017 0.000000 0.878017 -0.478630 -1.000000 0.000000 -0.000001 3737.dat
0 STEP
1 14 -103.695300 -150.994100 -54.749290 0.878019 -0.478626 -0.000001 -0.478626 -0.878019 0.000000 -0.000001 0.000000 -1.000000 32123a.dat
1 14 -103.695200 -150.994100 55.630820 0.878018 -0.478628 -0.000001 -0.478628 -0.878018 0.000000 -0.000001 0.000000 -1.000000 32123a.dat
0 STEP
1 1 -20.681280 -207.637600 -69.200450 0.878016 0.478621 0.000001 -0.478626 0.878019 0.000000 -0.000001 0.000000 1.000000 3895.dat
0 STEP
1 1 78.606590 -234.423800 0.790830 -0.000001 0.478624 0.878017 0.000000 0.878016 -0.478628 -1.000000 0.000000 -0.000001 3738.dat
0 STEP
1 15 75.898530 -260.283500 20.798540 -0.000001 0.478621 0.878013 0.000000 0.878016 -0.478625 -1.000001 0.000000 -0.000001 32064a.dat
1 15 75.899890 -260.284800 -19.201470 -0.000001 0.478622 0.878015 0.000000 0.878012 -0.478623 -1.000001 0.000000 -0.000001 32064a.dat
0 STEP
1 1 -20.679580 -207.636900 70.790740 0.878019 0.478626 0.000001 -0.478626 0.878019 0.000000 -0.000001 0.000000 1.000000 3895.dat
0 STEP
1 71 -103.695200 -150.994100 90.940820 -0.878017 0.478630 -0.000001 0.478630 0.878017 -0.000001 0.000001 -0.000001 -1.000000 3713.dat
1 71 -103.695400 -150.994200 -89.059190 0.878021 0.478623 0.000000 -0.478623 0.878021 -0.000001 -0.000001 0.000001 1.000000 3713.dat
0 STEP
1 1 10.610520 -233.807400 -69.203140 0.878016 0.478625 0.000001 -0.478626 0.878020 0.000000 -0.000001 0.000000 1.000000 3023.dat
1 1 -59.631500 -195.518000 -69.201900 0.878016 0.478621 0.000001 -0.478627 0.878019 0.000000 -0.000001 0.000000 1.000000 3023.dat
1 1 -59.629300 -195.516500 70.790710 0.878014 0.478621 0.000001 -0.478620 0.878019 0.000000 -0.000001 0.000000 1.000000 3023.dat
1 1 10.612180 -233.806500 70.790680 0.878014 0.478621 0.000001 -0.478620 0.878019 0.000000 -0.000001 0.000000 1.000000 3023.dat
0 STEP
1 1 63.293360 -262.524100 0.790650 -0.000001 0.478626 0.878012 0.000000 0.878016 -0.478626 -1.000000 0.000000 -0.000001 3738.dat
0 STEP
1 19 89.403200 -203.081900 -78.547920 0.000001 0.000001 -1.000000 0.000001 -1.000000 -0.000001 -1.000000 0.000000 -0.000001 3749.dat
1 19 89.404640 -203.080700 81.443020 0.000003 0.000001 1.000000 -0.000001 -1.000005 0.000001 1.000004 0.000000 -0.000003 3749.dat
0 STEP
1 1 89.403850 -203.081700 -88.550220 -1.000000 0.000000 0.000000 0.000000 0.000000 1.000000 0.000000 1.000000 -0.000001 6629.dat
1 1 89.405200 -203.080500 91.445400 -1.000000 0.000002 0.000000 0.000000 -0.000002 1.000000 0.000002 1.000000 0.000001 6629.dat
0 STEP
1 71 -212.848600 -181.530600 -38.660060 0.478628 -0.878018 0.000001 0.878019 0.478629 0.000000 0.000000 0.000001 1.000001 4519.dat
1 71 -212.848100 -181.531000 41.339770 0.478629 -0.878021 0.000001 0.878020 0.478631 0.000000 0.000000 0.000001 1.000001 4519.dat
1 4 -222.420000 -199.091800 -38.660850 -0.000001 -0.878018 0.478627 0.000000 0.478628 0.878019 -1.000001 0.000001 0.000000 32039.dat
1 4 -222.420100 -199.091100 41.339580 -0.000001 -0.878021 0.478628 0.000000 0.478629 0.878020 -1.000001 0.000001 0.000000 32039.dat
1 4 -222.420100 -199.091200 61.340060 -0.000001 -0.878021 0.478628 0.000000 0.478629 0.878020 -1.000001 0.000001 0.000000 32039.dat
1 71 -203.275600 -163.970500 61.339720 0.478629 -0.878021 0.000001 0.878020 0.478631 0.000000 0.000000 0.000001 1.000001 32073.dat
1 16 -210.000000 -120.000000 -60.000000 0.878018 0.478629 0.000001 -0.478629 0.878018 0.000000 -0.000001 0.000000 1.000000 submodel group 4
0 STEP
1 71 -231.996600 -216.650000 61.341260 -0.000001 0.478629 0.878015 0.000000 0.878020 -0.478627 -0.999990 0.000000 -0.000001 4519.dat
1 71 -231.992400 -216.651900 -58.660040 -0.000001 0.478629 0.878018 0.000000 0.878020 -0.478629 -1.000001 0.000000 -0.000001 4519.dat
0 STEP
1 4 -214.432900 -226.223900 -78.660160 -0.000001 0.478627 0.878018 0.000000 0.878019 -0.478628 -1.000001 0.000000 -0.000001 32039.dat
1 4 -214.433800 -226.222600 81.338920 -0.000001 0.478627 0.878017 0.000000 0.878019 -0.478627 -1.000001 0.000000 -0.000001 32039.dat
0 STEP
1 4 -205.650300 -231.011300 -78.659370 -0.878022 0.000001 0.478629 0.478631 0.000000 0.878020 0.000001 1.000005 0.000000 32062.dat
1 4 -205.651000 -231.010900 81.339180 -0.878021 0.000001 0.478629 0.478631 0.000000 0.878020 0.000001 1.000001 0.000000 32062.dat
0 STEP
1 71 -188.091300 -240.583100 -78.659280 -0.478628 -0.000001 0.878017 -0.878019 0.000000 -0.478629 0.000000 -1.000001 -0.000001 56145.dat
1 71 -188.081100 -240.588100 81.337970 -0.478628 -0.000001 0.878021 -0.878019 0.000000 -0.478631 0.000000 -1.000001 -0.000001 56145.dat
0 STEP
0 NOFILE
0 FILE SubModel Group 11
0 SubModel Group 11
0 Name:  SubModel Group 11
0 Author:  
0 CustomBrick
0 NumOfBricks:  2
1 71 16.645510 -33.856930 -1.100770 0.000001 0.000000 -1.000002 0.000000 1.000003 0.000000 1.000005 0.000000 0.000001 32073.dat
1 72 16.646500 -33.856870 0.928930 1.000002 -0.000001 0.000001 0.000000 1.000004 0.000000 -0.000001 0.000000 1.000005 3648b.dat
0 NOFILE
0 FILE SubModel Group 10
0 SubModel Group 10
0 Name:  SubModel Group 10
0 Author:  
0 CustomBrick
0 NumOfBricks:  2
1 0 15.781880 -39.494000 2.279540 0.000001 -0.000001 -0.999999 0.000000 1.000004 0.000000 1.000005 0.000000 0.000001 3705.dat
1 71 15.781870 -39.494000 -0.320160 0.999999 -0.000001 0.000002 0.000000 1.000004 0.000000 -0.000002 0.000000 1.000005 3650c.dat
0 NOFILE
0 FILE SubModel Group 9
0 SubModel Group 9
0 Name:  SubModel Group 9
0 Author:  
0 CustomBrick
0 NumOfBricks:  17
1 0 22.174270 -74.287480 30.310410 0.000001 -0.999999 0.000002 -0.000001 -0.000001 -1.000001 1.000000 0.000001 -0.000001 2780.dat
1 1 82.174220 -74.287400 20.310920 0.000001 -0.000001 -1.000000 -1.000001 0.000000 0.000000 0.000000 1.000000 -0.000001 32140.dat
1 19 22.172220 -94.287280 30.310600 0.000000 0.809015 0.587780 0.000000 -0.587781 0.809027 1.000004 0.000000 0.000000 3749.dat
0 STEP
1 15 -37.825920 -74.287620 40.310690 -0.000001 0.000000 -1.000000 1.000001 0.000000 0.000000 0.000000 -1.000000 0.000000 40490.dat
0 STEP
1 16 81.069110 -65.144450 -0.000100 1.000000 -0.000001 0.000000 0.000001 1.000000 -0.000001 0.000000 0.000001 1.000000 submodel group 8
0 STEP
1 16 34.461340 -63.217220 -0.000090 0.977853 0.209291 0.000000 -0.209291 0.977853 -0.000001 0.000000 0.000001 1.000000 submodel group 6
0 STEP
1 16 -14.853400 -35.431300 -0.000040 1.000000 -0.000001 0.000000 0.000001 1.000000 -0.000001 0.000000 0.000001 1.000000 submodel group 7
0 STEP
1 1 82.173090 -74.287270 -19.870310 0.000001 -0.000001 -1.000000 -1.000001 0.000000 0.000000 0.000000 1.000000 -0.000001 32140.dat
0 STEP
1 0 22.173070 -74.288120 -29.999740 -0.000001 1.000000 0.000002 0.000001 0.000002 -1.000000 -1.000000 -0.000001 -0.000001 2780.dat
1 19 22.171200 -94.287500 -30.179660 0.000000 -0.587775 -0.809016 0.000002 -0.809025 0.587779 -1.000000 -0.000002 0.000002 3749.dat
0 STEP
1 14 82.173150 -74.287410 35.690040 1.000002 0.000002 -0.000001 0.000001 -1.000001 0.000001 -0.000001 -0.000001 -1.000002 32123a.dat
1 14 82.173060 -74.287250 -34.719700 0.999999 0.000002 -0.000001 0.000001 -1.000001 0.000001 -0.000001 -0.000001 -1.000000 32123a.dat
0 STEP
0 NOFILE
0 FILE SubModel Group 8
0 SubModel Group 8
0 Name:  SubModel Group 8
0 Author:  
0 CustomBrick
0 NumOfBricks:  2
1 0 1.103970 -9.142930 0.690500 0.000001 -0.000001 -0.999999 0.000000 1.000001 0.000000 1.000000 0.000000 0.000001 3705.dat
1 71 1.102960 -9.143149 -0.018990 0.999999 -0.000001 0.000002 0.000000 1.000001 0.000000 -0.000002 0.000000 1.000000 3713.dat
0 NOFILE
0 FILE SubModel Group 6
0 SubModel Group 6
0 Name:  SubModel Group 6
0 Author:  
0 CustomBrick
0 NumOfBricks:  2
1 0 9.859019 -9.210899 -0.129370 -0.000001 -0.000001 1.000003 0.000000 1.000000 0.000000 -1.000001 0.000000 -0.000001 3707.dat
1 72 9.859019 -9.210899 0.710740 -0.000001 1.000001 0.000001 -1.000000 0.000000 0.000000 0.000000 -0.000001 1.000000 3647.dat
0 NOFILE
0 FILE SubModel Group 7
0 SubModel Group 7
0 Name:  SubModel Group 7
0 Author:  
0 CustomBrick
0 NumOfBricks:  4
1 71 17.028470 -38.856330 0.759660 -0.000001 -0.000001 0.999999 0.000000 1.000001 0.000000 -1.000000 0.000000 -0.000001 32073.dat
1 71 17.026570 -38.856430 20.384330 -0.999999 -0.000001 -0.000002 0.000000 1.000001 0.000000 0.000002 0.000000 -1.000000 3713.dat
1 71 17.027450 -38.856260 -19.240320 1.000003 -0.000001 0.000002 0.000000 1.000001 0.000000 -0.000002 0.000000 1.000010 3713.dat
1 72 17.028470 -38.856260 0.520860 -1.000003 0.000001 0.000001 0.000000 -1.000001 0.000000 0.000001 0.000000 1.000010 3648b.dat
0 NOFILE
0 FILE SubModel Group 5
0 SubModel Group 5
0 Name:  SubModel Group 5
0 Author:  
0 CustomBrick
0 NumOfBricks:  15
1 1 37.447960 -141.384300 21.338680 -0.000001 -0.999999 0.000000 0.999996 0.000000 0.000000 0.000000 0.000000 0.999997 32556.dat
1 1 37.449060 -141.384100 -18.660460 -0.000001 -0.999999 0.000000 0.999996 0.000000 0.000000 0.000000 0.000000 0.999997 32556.dat
1 1 47.447030 -161.384100 1.339920 0.000000 -0.999999 0.000001 0.000000 0.000000 -0.999996 0.999997 0.000000 0.000000 3702.dat
0 STEP
1 1 47.447990 -141.384100 1.339920 0.000000 -0.999999 0.000001 0.000000 0.000000 -0.999996 0.999997 0.000000 0.000000 3702.dat
0 STEP
1 15 77.469260 -132.716600 1.896140 0.000000 -1.000000 0.000003 0.000000 -0.000003 -1.000000 1.000000 0.000000 0.000000 dx0009.dat
0 STEP
1 0 97.448020 -131.384100 1.339540 0.000001 -0.999999 0.000000 -1.000001 0.000000 0.000000 0.000000 0.000000 -1.000000 2780.dat
1 0 77.447810 -80.663200 1.339540 -0.000001 -0.999999 0.000000 1.000001 0.000000 0.000000 0.000000 0.000000 1.000000 3706.dat
0 STEP
1 4 97.447990 -121.383900 1.339540 0.000000 -0.999999 0.000001 0.000000 0.000000 -1.000001 1.000001 0.000000 0.000000 42003.dat
0 STEP
1 14 77.447880 -105.664500 1.339240 0.000000 0.999999 0.000001 0.000000 0.000000 -1.000001 -1.000000 0.000000 0.000000 32123a.dat
1 71 77.447810 -80.663480 1.341530 0.000000 -0.999999 -0.000001 0.000000 0.000000 0.999995 -0.999996 0.000000 0.000000 4716.dat
1 14 77.447740 -55.513200 1.339440 0.000000 0.999999 0.000001 0.000000 0.000000 -1.000001 -1.000000 0.000000 0.000000 32123a.dat
0 STEP
1 4 58.678000 -121.860600 -20.179970 0.000000 -0.999885 0.015186 0.000000 -0.015185 -0.999884 1.000001 0.000000 0.000000 42003.dat
1 4 57.445930 -121.384000 21.339570 0.000000 -0.999999 0.000001 0.000000 0.000000 -0.999996 0.999997 0.000000 0.000000 42003.dat
0 STEP
1 4 78.675990 -121.556500 -30.179970 0.000002 -0.999885 -0.015186 0.000000 -0.015185 0.999884 -1.000001 -0.000002 0.000000 32062.dat
1 4 78.674900 -121.556100 31.070900 0.000001 -0.999885 -0.015183 0.000000 -0.015182 0.999885 -1.000001 -0.000001 0.000000 32062.dat
0 STEP
0 NOFILE
0 FILE SubModel Group 4
0 SubModel Group 4
0 Name:  SubModel Group 4
0 Author:  
0 CustomBrick
0 NumOfBricks:  2
1 71 26.950100 -35.388280 1.339950 -0.000001 -1.000001 0.000000 1.000002 0.000000 0.000000 0.000000 0.000000 1.000001 32073.dat
1 4 26.950530 -75.388020 1.340060 0.000000 -1.000000 -0.000002 0.000000 -0.000001 1.000001 -1.000001 0.000000 0.000000 32039.dat
0 NOFILE
