0 FILE 摩天轮.io
0 Untitled Model
0 Name:  摩天轮
0 Author:  
0 CustomBrick
0 NumOfBricks:  70
1 16 10.000090 -52.462970 -152.000000 0.000000 -1.000000 0.000000 0.000000 0.000000 -1.000000 1.000000 0.000000 0.000000 submodel group 9 copy copy copy
1 0 39.999980 -22.000020 -200.000000 0.000000 0.000000 -1.000000 0.000000 1.000000 0.000000 1.000000 0.000000 0.000000 2780.dat
1 0 120.000000 -22.000000 -200.000000 0.000000 0.000000 -1.000000 0.000000 1.000000 0.000000 1.000000 0.000000 0.000000 2780.dat
0 STEP
1 1 80.000000 -32.000000 -210.000000 1.000000 0.000000 0.000000 0.000000 1.000000 0.000000 0.000000 0.000000 1.000000 3894.dat
0 STEP
1 0 39.999980 -22.000010 20.000000 0.000000 0.000000 -1.000000 0.000000 1.000000 0.000000 1.000000 0.000000 0.000000 2780.dat
1 0 120.000100 -21.999990 20.000000 0.000000 0.000000 -1.000000 0.000000 1.000000 0.000000 1.000000 0.000000 0.000000 2780.dat
0 STEP
1 1 80.000100 -31.999990 30.000000 1.000000 0.000000 0.000000 0.000000 1.000000 0.000000 0.000000 0.000000 1.000000 3894.dat
0 STEP
1 1 80.000100 -7.999990 40.000020 1.000000 0.000000 0.000000 0.000000 1.000000 0.000000 0.000000 0.000000 1.000000 32001.dat
1 1 80.000000 -8.000000 -220.000000 1.000000 0.000000 0.000000 0.000000 1.000000 0.000000 0.000000 0.000000 1.000000 32001.dat
0 STEP
1 0 40.000090 -62.000010 -200.000000 0.000000 0.000000 -1.000000 0.000000 -1.000000 0.000000 -1.000000 0.000000 0.000000 2780.dat
1 0 120.000100 -61.999990 -200.000100 0.000000 0.000000 -1.000000 0.000000 -1.000000 0.000000 -1.000000 0.000000 0.000000 2780.dat
0 STEP
1 15 80.000000 -62.000010 -210.000000 0.000001 0.000001 -1.000000 -1.000000 0.000001 -0.000001 0.000001 1.000000 0.000001 32316.dat
1 0 80.000000 -61.999940 -220.000500 0.000000 0.000000 1.000000 0.000000 1.000000 0.000000 -1.000000 0.000000 0.000000 2780.dat
1 0 59.999990 -61.999930 -220.000500 0.000000 0.000000 1.000000 0.000000 1.000002 0.000000 -1.000002 0.000000 0.000000 2780.dat
0 STEP
1 1 79.999880 -122.000000 -230.000500 -1.000000 0.000001 0.000001 0.000001 0.000001 1.000000 0.000001 1.000000 -0.000001 32140.dat
1 1 79.999880 -102.000000 -230.000500 0.000000 1.000000 0.000000 0.000000 0.000000 -1.000000 -1.000000 0.000000 0.000000 6558.dat
1 71 79.999880 -122.000000 -230.000400 0.000000 -1.000000 0.000000 0.000000 0.000000 1.000000 -1.000000 0.000000 0.000000 4519.dat
0 STEP
1 1 89.999880 -242.000000 -250.000400 0.000000 -1.000000 0.000000 1.000000 0.000000 0.000000 0.000000 0.000000 1.000000 3703.dat
0 STEP
1 0 79.999880 -222.000000 -260.000300 0.000000 -1.000000 0.000000 0.000000 0.000000 1.000000 -1.000000 0.000000 0.000000 2780.dat
1 0 79.999880 -182.000000 -260.000300 0.000000 -1.000000 0.000000 0.000000 0.000000 1.000000 -1.000000 0.000000 0.000000 2780.dat
0 STEP
1 71 79.999880 -202.000000 -230.000300 1.000000 0.000000 0.000001 0.000000 1.000000 0.000000 -0.000001 0.000000 1.000000 3713.dat
1 71 79.999880 -202.000000 -230.000400 0.000000 0.000000 1.000000 0.000000 1.000000 0.000000 -1.000000 0.000000 0.000000 32073.dat
1 15 80.000580 -201.971000 -260.957000 -1.000000 0.000000 0.000000 0.000000 1.000000 0.000000 0.000000 0.000000 -1.000000 dx0062.dat.dat
0 STEP
1 71 80.000000 -241.999900 -230.000400 0.610143 0.792291 0.000000 -0.792291 0.610143 -0.000001 -0.000001 0.000000 1.000000 3713.dat
1 0 80.000000 -242.000000 -220.000400 0.000000 -0.610143 0.792291 0.000000 0.792291 0.610143 -1.000000 0.000000 0.000000 3705.dat
0 STEP
1 14 80.000000 -381.999900 -265.050300 0.000000 1.000000 0.000000 -1.000000 0.000000 0.000000 0.000000 0.000000 1.000000 32123a.dat
1 0 80.000000 -381.999900 -199.490400 0.000000 0.000000 1.000000 0.000000 1.000000 0.000000 -1.000000 0.000000 0.000000 3707.dat
0 STEP
1 15 81.000100 -252.808500 -221.000000 0.000000 -1.000000 0.000000 1.000000 0.000000 0.000000 0.000000 0.000000 1.000000 xpj0107.dat
1 71 80.000880 -381.999900 -234.573200 0.000000 -0.999999 0.000000 -1.000000 0.000000 0.000000 0.000000 0.000000 -0.999999 4185.dat
1 71 79.999880 -381.999900 -225.570300 0.000000 -1.000000 0.000000 -1.000000 0.000000 0.000000 0.000000 0.000000 -1.000000 4185.dat
0 STEP
1 1 90.000000 -242.000000 -210.000400 0.000000 -1.000000 0.000000 1.000000 0.000000 0.000000 0.000000 0.000000 1.000000 3703.dat
0 STEP
1 71 80.000000 -381.999900 -189.900500 1.000000 0.000001 0.000001 0.000001 -0.000001 -1.000000 -0.000001 1.000000 -0.000001 33299.dat
1 72 79.999880 -202.000000 -190.000400 -1.000000 0.000000 0.000000 0.000000 1.000000 0.000000 0.000000 0.000000 -1.000000 3647.dat
1 72 80.000100 -242.000000 -190.090500 0.610143 -0.792291 0.000000 -0.792291 -0.610143 0.000000 0.000000 0.000000 -1.000000 3648b.dat
0 STEP
1 15 80.000000 -381.999900 -169.900500 -1.000000 0.000001 -0.000001 -0.000001 -0.000001 1.000000 0.000001 1.000000 0.000001 64871.dat
1 0 79.999880 -241.999900 -159.900400 0.000000 0.000000 -1.000000 0.000000 1.000000 0.000000 1.000000 0.000000 0.000000 2780.dat
1 0 80.000100 -522.000000 -159.900600 0.000000 0.000000 -1.000000 0.000000 1.000000 0.000000 1.000000 0.000000 0.000000 2780.dat
0 STEP
1 71 80.000000 -381.999900 -130.180400 0.000001 -0.000001 -1.000000 1.000000 0.000001 0.000001 0.000001 -1.000000 0.000001 33299.dat
1 15 80.000100 -381.999900 -150.070300 0.000001 0.000001 -1.000000 -1.000000 0.000001 -0.000001 0.000001 1.000000 0.000001 64871.dat
0 STEP
1 15 80.001010 -522.000000 -149.902000 0.000001 0.000001 -1.000003 -1.000000 0.000001 -0.000001 0.000001 1.000003 0.000001 32524.dat
1 0 40.000990 -522.000000 -139.901900 0.000000 0.000000 -1.000000 0.000000 1.000000 0.000000 1.000000 0.000000 0.000000 2780.dat
1 0 120.001200 -521.999900 -139.902200 0.000000 0.000000 -1.000000 0.000000 1.000000 0.000000 1.000000 0.000000 0.000000 2780.dat
0 STEP
1 15 80.001010 -522.000000 -129.902100 0.000001 0.000001 -1.000000 -1.000000 0.000001 -0.000001 0.000001 1.000000 0.000001 32316.dat
0 STEP
1 0 20.000490 -520.564100 -140.070500 0.000000 0.000000 -1.000000 0.000000 1.000000 0.000000 1.000000 0.000000 0.000000 2780.dat
1 1 -60.000100 -382.000200 -130.070400 0.000000 -1.000000 0.000000 0.000000 0.000000 -1.000000 1.000000 0.000000 0.000000 6558.dat
1 0 140.001200 -521.999900 -139.902100 0.000000 0.000000 -1.000000 0.000000 1.000000 0.000000 1.000000 0.000000 0.000000 2780.dat
1 1 220.000100 -381.999800 -130.070400 0.000000 -1.000000 0.000000 0.000000 0.000000 -1.000000 1.000000 0.000000 0.000000 6558.dat
0 STEP
1 15 -19.999800 -451.282100 -130.070400 -0.866024 0.000001 0.500002 -0.500003 0.000001 -0.866024 -0.000001 -1.000000 -0.000001 40490.dat
1 15 179.999900 -451.281700 -130.070400 0.866024 -0.000001 -0.500002 -0.500002 0.000001 -0.866024 0.000001 1.000000 0.000000 40490.dat
0 STEP
1 15 80.000000 -241.999900 -149.900300 0.000001 0.000001 -1.000000 -1.000000 0.000001 -0.000001 0.000001 1.000000 0.000001 32524.dat
1 1 140.000200 -243.435600 -130.070200 0.000000 0.000000 -1.000000 0.000000 1.000000 0.000000 1.000000 0.000000 0.000000 6558.dat
1 1 19.999980 -242.000000 -129.900300 0.000000 0.000000 -1.000000 0.000000 1.000000 0.000000 1.000000 0.000000 0.000000 6558.dat
0 STEP
1 15 -20.000020 -312.718200 -110.070200 -0.866026 0.000001 -0.500000 0.500000 0.000001 -0.866025 0.000000 -1.000000 -0.000002 40490.dat
1 15 180.000100 -312.717700 -110.070200 -0.866026 0.000001 0.499999 -0.499999 0.000001 -0.866026 -0.000001 -1.000000 -0.000001 40490.dat
0 STEP
1 19 210.000000 -364.679100 -100.070300 -0.000001 1.000000 -0.000001 0.000001 0.000001 1.000000 1.000000 0.000001 -0.000001 3749.dat
1 19 160.000100 -278.076600 -100.070200 -0.000001 1.000000 -0.000001 0.000001 0.000001 1.000000 1.000000 0.000001 -0.000001 3749.dat
0 STEP
1 1 210.000000 -364.679100 -90.070330 -1.000000 0.000001 0.000001 0.000001 0.000001 1.000000 0.000001 1.000000 -0.000001 32140.dat
1 1 160.000100 -278.076500 -90.070270 -1.000000 0.000001 0.000001 0.000001 0.000001 1.000000 0.000001 1.000000 -0.000001 32140.dat
0 STEP
1 19 10.000380 -503.243500 -120.070500 -0.000001 1.000000 -0.000001 0.000001 0.000001 1.000000 1.000000 0.000001 -0.000001 3749.dat
1 19 -50.000010 -364.679600 -100.070300 -0.000001 1.000000 -0.000001 0.000001 0.000001 1.000000 1.000000 0.000001 -0.000001 3749.dat
1 19 80.001010 -521.999900 -119.902100 -0.000001 1.000000 -0.000001 0.000001 0.000001 1.000000 1.000000 0.000001 -0.000001 3749.dat
1 19 159.999900 -485.922700 -120.070400 -0.000001 1.000000 -0.000001 0.000001 0.000001 1.000000 1.000000 0.000001 -0.000001 3749.dat
1 19 -10.000020 -295.397600 -100.070200 -0.000001 1.000000 -0.000001 0.000001 0.000001 1.000000 1.000000 0.000001 -0.000001 3749.dat
0 STEP
1 1 80.001010 -521.999900 -109.902100 -1.000000 0.000001 0.000001 0.000001 0.000001 1.000000 0.000001 1.000000 -0.000001 32140.dat
1 1 159.999900 -485.922500 -110.070400 -1.000000 0.000001 0.000001 0.000001 0.000001 1.000000 0.000001 1.000000 -0.000001 32140.dat
0 STEP
1 1 10.000380 -503.243500 -110.070400 -1.000000 0.000001 0.000001 0.000001 0.000001 1.000000 0.000001 1.000000 -0.000001 32140.dat
1 1 -50.000120 -364.679600 -90.070270 -1.000000 0.000001 0.000001 0.000001 0.000001 1.000000 0.000001 1.000000 -0.000001 32140.dat
1 1 -10.000020 -295.397600 -90.070270 -1.000000 0.000001 0.000001 0.000001 0.000001 1.000000 0.000001 1.000000 -0.000001 32140.dat
0 STEP
0 STEP
0 NOFILE
0 FILE SubModel Group 9 Copy Copy Copy
0 SubModel Group 9 Copy Copy Copy
0 Name:  SubModel Group 9 Copy Copy Copy
0 Author:  
0 CustomBrick
0 NumOfBricks:  3
1 72 10.000000 -1.128810 -10.000000 1.000000 0.000000 0.000000 0.000000 0.000000 -1.000000 0.000000 1.000000 0.000000 dch003.dat
1 71 -27.466620 -79.717990 29.427020 1.000000 0.000000 0.000000 0.000000 0.000000 -1.000000 0.000000 1.000000 0.000000 dch004.dat
1 25 7.837010 13.484720 -9.965000 1.000000 0.000000 0.000000 0.000000 0.000000 -1.000000 0.000000 1.000000 0.000000 dch005.dat
0 NOFILE
