0 FILE 电子起落桥.io
0 Untitled Model
0 Name:  电子起落桥
0 Author:  
0 CustomBrick
0 NumOfBricks:  79
1 1 -126.558900 -24.000230 6.876340 0.999998 0.000001 0.000000 0.000000 1.000000 0.000000 0.000000 0.000000 1.000000 3701.dat
0 STEP
1 0 -126.559000 -38.000220 16.876360 0.000000 0.000001 -0.999998 0.000000 1.000000 0.000000 1.000000 0.000000 0.000000 2780.dat
1 1 -126.559000 -48.000220 6.876340 0.999998 0.000001 0.000000 0.000000 1.000000 0.000000 0.000000 0.000000 1.000000 3700.dat
0 STEP
1 1 -126.559000 -64.000230 6.876340 0.999998 0.000001 0.000000 0.000000 1.000000 0.000000 0.000000 0.000000 1.000000 3023.dat
1 1 -126.559000 -56.000210 6.876340 0.999998 0.000001 0.000000 0.000000 1.000000 0.000000 0.000000 0.000000 1.000000 3023.dat
0 STEP
1 0 -126.559000 -78.000240 16.876360 0.000000 0.000001 -0.999998 0.000000 1.000000 0.000000 1.000000 0.000000 0.000000 2780.dat
1 1 -126.559000 -88.000240 6.876340 0.999998 0.000001 0.000000 0.000000 1.000000 0.000000 0.000000 0.000000 1.000000 3700.dat
0 STEP
1 72 -126.559500 -278.000200 16.876420 -0.000001 -0.000001 -0.999998 0.000000 -1.000000 0.000000 -1.000000 0.000000 0.000001 32002.dat
1 72 -126.559400 -318.000200 16.876390 -0.000001 -0.000001 -0.999998 0.000000 -1.000000 0.000000 -1.000000 0.000000 0.000001 32002.dat
1 15 -126.559200 -178.000300 26.876490 0.999998 -0.000001 0.000002 -0.000001 -0.000001 1.000000 -0.000001 -1.000000 -0.000001 64871.dat
0 STEP
1 72 -126.559500 -298.000200 11.876370 0.000001 0.000000 0.999998 1.000000 0.000000 0.000000 0.000000 1.000000 0.000000 99773.dat
0 STEP
1 16 -140.000000 -252.000000 -10.000000 1.000000 0.000000 0.000000 0.000000 1.000000 0.000000 0.000000 0.000000 1.000000 submodel group 2
0 STEP
1 0 -106.557100 -298.000200 -9.310309 0.000000 0.409925 0.912117 0.000000 0.912119 -0.409925 -1.000000 0.000000 0.000000 3706.dat
1 14 -106.557100 -298.000200 1.549580 0.409925 0.912117 0.000000 0.912119 -0.409925 0.000000 0.000000 0.000000 -1.000000 32123a.dat
0 STEP
1 72 -106.557100 -298.000200 -13.160350 0.912117 -0.409925 0.000000 -0.409925 -0.912119 0.000000 0.000000 0.000000 -1.000000 3648b.dat
0 STEP
1 14 -126.559500 -258.000200 -28.203600 0.000001 0.999998 0.000000 1.000000 0.000000 0.000000 0.000000 0.000000 -1.000000 32123a.dat
1 14 -126.559600 -338.000300 -28.113540 0.000001 0.999998 0.000000 1.000000 0.000000 0.000000 0.000000 0.000000 -1.000000 32123a.dat
1 14 -106.557100 -298.000200 -27.920300 0.409925 0.912117 0.000000 0.912119 -0.409925 0.000000 0.000000 0.000000 -1.000000 32123a.dat
0 STEP
1 72 -126.557000 -298.000200 -38.120320 0.000001 0.000000 0.999998 1.000000 0.000000 0.000000 0.000000 1.000000 0.000000 99773.dat
0 STEP
1 72 -126.557000 -318.000200 -43.120320 0.000001 -0.000001 0.999998 0.000000 -1.000000 0.000000 1.000000 0.000000 -0.000001 32002.dat
1 72 -126.557000 -278.000200 -43.120420 0.000001 -0.000001 0.999998 0.000000 -1.000000 0.000000 1.000000 0.000000 -0.000001 32002.dat
0 STEP
1 16 -130.000000 0.000000 -40.000000 1.000000 0.000000 0.000000 0.000000 1.000000 0.000000 0.000000 0.000000 1.000000 submodel group 1
0 STEP
1 0 -146.556500 -14.000060 -43.120540 0.000000 0.000001 -0.999998 0.000000 1.000001 0.000000 1.000000 0.000000 0.000000 2780.dat
1 0 -126.557500 -14.000060 -43.122490 0.000000 0.000001 -1.000000 0.000000 1.000001 0.000000 1.000004 0.000000 0.000000 2780.dat
1 0 -106.557500 -13.999870 -43.122430 0.000000 0.000001 -1.000000 0.000000 1.000001 0.000000 1.000004 0.000000 0.000000 2780.dat
0 STEP
1 0 -126.558900 -14.000230 16.876360 0.000000 0.000001 -0.999998 0.000000 1.000000 0.000000 1.000000 0.000000 0.000000 2780.dat
1 0 -146.558900 -14.000080 16.876790 0.000000 0.000001 -0.999998 0.000000 1.000000 0.000000 1.000000 0.000000 0.000000 2780.dat
1 0 -106.559000 -14.000050 16.876790 0.000000 0.000001 -0.999998 0.000000 1.000000 0.000000 1.000000 0.000000 0.000000 2780.dat
0 STEP
1 15 -26.556760 -13.999950 -53.120630 0.000000 0.000001 -1.000000 -1.000001 0.000001 -0.000001 0.000001 1.000000 0.000001 64871.dat
0 STEP
1 0 -6.556810 -13.999940 -43.120750 0.000000 0.000001 -0.999998 0.000000 1.000001 0.000000 1.000000 0.000000 0.000000 2780.dat
1 0 33.440400 -13.999920 -43.124110 0.000000 0.000001 -1.000002 0.000000 1.000001 0.000000 1.000007 0.000000 0.000000 2780.dat
0 STEP
1 16 -55.460720 -51.486660 -23.517790 0.000000 -1.000000 -0.000003 -1.000000 0.000000 -0.000001 0.000001 0.000003 -1.000000 submodel group 9 copy copy copy
0 STEP
1 0 -6.559300 -13.999940 16.876480 0.000000 0.000001 -0.999998 0.000000 1.000000 0.000000 1.000000 0.000000 0.000000 2780.dat
1 0 33.440620 -13.999940 16.876480 0.000000 0.000001 -0.999998 0.000000 1.000000 0.000000 1.000000 0.000000 0.000000 2780.dat
0 STEP
1 15 -26.559160 -13.999980 26.876600 0.000000 0.000001 -0.999998 -1.000000 0.000001 -0.000001 0.000001 1.000000 0.000001 64871.dat
0 STEP
1 0 53.440320 -224.000000 -33.123680 0.000001 -0.999998 0.000000 1.000000 0.000000 0.000000 0.000000 0.000000 1.000000 2780.dat
1 0 53.440330 -224.000000 6.876340 0.000001 -0.999998 0.000000 1.000000 0.000000 0.000000 0.000000 0.000000 1.000000 2780.dat
0 STEP
1 15 53.440320 -234.000000 -13.123680 -0.999998 0.000000 -0.000001 -0.000001 -1.000000 -0.000001 -0.000001 -0.000001 1.000000 32524.dat
0 STEP
1 71 -106.557100 -298.000200 -53.000200 -0.409925 -0.000001 0.912117 -0.912119 -0.000001 -0.409925 0.000001 -1.000000 0.000000 33299.dat
1 71 -106.557100 -298.000200 26.969720 0.409925 0.000001 0.912117 0.912119 0.000001 -0.409925 -0.000001 1.000000 0.000000 33299.dat
0 STEP
1 1 16.331850 -365.722000 -73.000220 0.906306 0.422618 0.000000 -0.422618 0.906308 0.000000 0.000000 0.000000 1.000000 3703.dat
1 1 16.331960 -365.722000 46.969700 0.906306 0.422618 0.000000 -0.422618 0.906308 0.000000 0.000000 0.000000 1.000000 3703.dat
0 STEP
1 1 -21.000000 -374.794300 -3.000000 0.000000 0.422618 0.906308 0.000000 0.906308 -0.422618 -1.000000 0.000000 0.000000 3702.dat
1 1 -75.378520 -349.437700 -3.000310 0.000000 0.422618 0.906306 0.000000 0.906308 -0.422618 -1.000000 0.000000 0.000000 3702.dat
0 STEP
1 0 147.440800 -415.825500 -83.000240 0.000000 0.000001 -0.999998 0.000000 1.000000 0.000000 1.000000 0.000000 0.000000 2780.dat
1 19 111.188500 -398.920700 -83.000490 0.000001 -0.906306 0.422619 0.000001 0.422619 0.906308 -1.000000 -0.000001 0.000001 3749.dat
1 0 147.440800 -415.825600 56.969800 0.000000 0.000001 -0.999998 0.000000 1.000000 0.000000 1.000000 0.000000 0.000000 2780.dat
1 19 111.188700 -398.920700 56.969800 -0.000001 0.422619 -0.906306 0.000000 0.906308 0.422619 1.000000 0.000000 -0.000001 3749.dat
0 STEP
1 1 49.203260 -389.877200 -3.030340 0.000000 0.422618 0.906306 0.000000 0.906308 -0.422618 -1.000000 0.000000 0.000000 3738.dat
1 1 121.707600 -423.686700 -3.030370 0.000000 0.422618 0.906306 0.000000 0.906308 -0.422618 -1.000000 0.000000 0.000000 3738.dat
0 STEP
1 1 253.754500 -377.130400 -93.000230 -0.471473 0.000001 -0.881878 0.881880 0.000001 -0.471475 0.000000 -1.000000 -0.000001 6629.dat
1 1 253.754800 -377.130500 66.970000 -0.471473 0.000001 -0.881878 0.881880 0.000000 -0.471475 0.000000 -1.000000 -0.000001 6629.dat
0 STEP
1 15 -206.559300 -358.000300 -12.943520 0.000001 0.000002 -0.999998 0.000001 1.000000 0.000001 1.000000 -0.000001 0.000001 32524.dat
0 STEP
1 0 -266.559100 -348.000200 -12.943520 0.000001 0.000000 -0.999998 1.000000 0.000000 0.000000 0.000000 -1.000000 0.000000 2780.dat
1 0 -226.559300 -348.000300 -12.943520 0.000001 0.000000 -0.999998 1.000000 0.000000 0.000000 0.000000 -1.000000 0.000000 2780.dat
0 STEP
1 71 -246.559300 -360.910300 -12.943520 -0.000001 -0.999998 0.000000 -1.000000 0.000000 0.000000 0.000000 0.000000 -1.000000 4519.dat
0 STEP
1 71 -146.559400 -373.670100 -13.293650 0.999998 0.000000 -0.000001 0.000000 0.000000 -1.000000 0.000000 1.000000 0.000000 4185.dat
1 71 -246.559300 -373.730300 -12.943520 0.999998 0.000000 -0.000001 0.000000 0.000000 -1.000000 0.000000 1.000000 0.000000 4185.dat
0 STEP
1 15 -246.535500 -346.000200 -13.219490 0.000003 1.000000 0.000000 0.000000 0.000000 1.000000 1.000000 -0.000003 0.000000 xt0017.dat
1 15 -247.000000 -373.420900 -12.000000 1.000000 0.000000 0.000000 0.000000 0.000000 1.000000 0.000000 -1.000000 0.000000 xpj0105.dat
0 STEP
0 STEP
0 NOFILE
0 FILE SubModel Group 2
0 SubModel Group 2
0 Name:  SubModel Group 2
0 Author:  
0 CustomBrick
0 NumOfBricks:  11
1 4 -6.559370 -6.000240 -3.293620 0.000000 -0.999998 0.000001 0.000000 0.000000 1.000000 -1.000000 0.000000 0.000000 42003.dat
0 STEP
1 14 -6.559370 -21.160130 -3.293620 0.999998 0.000000 -0.000001 0.000000 0.000000 -1.000000 0.000000 1.000000 0.000000 32123a.dat
1 0 -6.559400 -76.000160 -3.293620 -0.000001 -0.999998 0.000000 -1.000000 0.000000 0.000000 0.000000 0.000000 -1.000000 3707.dat
0 STEP
1 14 -6.559400 -71.000160 -3.293620 0.999998 0.000000 -0.000001 0.000000 0.000000 -1.000000 0.000000 1.000000 0.000000 32123a.dat
1 71 -6.559390 -45.810150 -3.293620 0.000000 0.999998 -0.000001 0.000000 0.000000 -1.000000 -1.000000 0.000000 0.000000 4716.dat
0 STEP
1 0 -26.559480 -96.000270 -2.943520 0.000001 0.000000 -0.999998 1.000000 0.000000 0.000000 0.000000 -1.000000 0.000000 2780.dat
1 4 -6.559510 -86.000270 -2.943520 0.000000 -0.999998 0.000001 0.000000 0.000000 1.000000 -1.000000 0.000000 0.000000 42003.dat
0 STEP
1 14 13.440430 -86.000270 12.056300 0.000001 0.999998 0.000000 1.000000 0.000000 0.000000 0.000000 0.000000 -1.000000 32123a.dat
1 14 13.440490 -6.000240 11.706410 0.000001 0.999998 0.000000 1.000000 0.000000 0.000000 0.000000 0.000000 -1.000000 32123a.dat
1 71 13.440480 -6.000240 -3.293620 0.000000 -0.999998 0.000001 0.000000 0.000000 1.000000 -1.000000 0.000000 0.000000 4519.dat
1 71 13.440430 -86.000270 -2.943730 0.000000 -0.999998 0.000001 0.000000 0.000000 1.000000 -1.000000 0.000000 0.000000 4519.dat
0 STEP
0 NOFILE
0 FILE SubModel Group 1
0 SubModel Group 1
0 Name:  SubModel Group 1
0 Author:  
0 CustomBrick
0 NumOfBricks:  8
1 1 3.443460 -24.000060 6.879470 0.999998 0.000001 0.000000 0.000000 1.000000 0.000000 0.000000 0.000000 1.000000 3701.dat
0 STEP
1 1 3.443440 -48.000060 6.879470 0.999998 0.000001 0.000000 0.000000 1.000000 0.000000 0.000000 0.000000 1.000000 3700.dat
1 0 3.443460 -38.000060 -3.120540 0.000000 0.000001 -0.999998 0.000000 1.000000 0.000000 1.000000 0.000000 0.000000 2780.dat
0 STEP
1 1 3.443440 -64.000080 6.879470 0.999998 0.000001 0.000000 0.000000 1.000000 0.000000 0.000000 0.000000 1.000000 3023.dat
1 1 3.443440 -56.000060 6.879470 0.999998 0.000001 0.000000 0.000000 1.000000 0.000000 0.000000 0.000000 1.000000 3023.dat
0 STEP
1 1 3.443380 -88.000080 6.879470 0.999998 0.000001 0.000000 0.000000 1.000000 0.000000 0.000000 0.000000 1.000000 3700.dat
1 0 3.443410 -78.000080 -3.120540 0.000000 0.000001 -0.999998 0.000000 1.000000 0.000000 1.000000 0.000000 0.000000 2780.dat
0 STEP
1 15 3.443180 -178.000200 -13.120540 0.999998 -0.000001 0.000002 -0.000001 -0.000001 1.000000 -0.000001 -1.000000 -0.000001 64871.dat
0 STEP
0 NOFILE
0 FILE SubModel Group 9 Copy Copy Copy
0 SubModel Group 9 Copy Copy Copy
0 Name:  SubModel Group 9 Copy Copy Copy
0 Author:  
0 CustomBrick
0 NumOfBricks:  3
1 72 10.000000 -1.128810 -10.000000 1.000000 0.000000 0.000000 0.000000 0.000000 -1.000000 0.000000 1.000000 0.000000 dch003.dat
1 71 -27.466620 -79.717990 29.427020 1.000000 0.000000 0.000000 0.000000 0.000000 -1.000000 0.000000 1.000000 0.000000 dch004.dat
1 25 7.837010 13.484720 -9.965000 1.000000 0.000000 0.000000 0.000000 0.000000 -1.000000 0.000000 1.000000 0.000000 dch005.dat
0 NOFILE
