0 Untitled Model
0 Name:  手术椅
0 Author:  
0 CustomBrick
0 NumOfBricks:  90
1 0 109.000600 -34.149410 -169.000000 -1.000000 0.000000 0.000000 0.000000 1.000000 0.000000 0.000000 0.000000 -1.000000 2780.dat
1 15 119.000100 -94.149550 -169.000000 0.000001 1.000000 0.000001 -0.000001 -0.000001 1.000000 1.000000 -0.000001 0.000001 32524.dat
0 STEP
1 1 99.000000 -164.149600 -129.000000 0.000000 0.000000 1.000000 0.000000 1.000000 0.000000 -1.000000 0.000000 0.000000 3894.dat
1 0 89.000000 -154.149600 -149.000000 -1.000000 0.000000 0.000000 0.000000 1.000000 0.000000 0.000000 0.000000 -1.000000 2780.dat
1 19 99.000000 -154.149600 -169.000000 1.000000 0.000000 0.000000 0.000000 1.000000 0.000000 0.000000 0.000000 1.000000 32556.dat
0 STEP
1 15 99.000690 -34.149480 -88.999580 0.000001 1.000000 0.000001 -1.000000 0.000001 -0.000001 -0.000001 -0.000001 1.000000 40490.dat
1 1 119.000600 -34.149440 -129.000000 1.000000 0.000000 0.000000 0.000000 1.000000 0.000000 0.000000 0.000000 1.000000 6558.dat
0 STEP
1 0 69.000000 -140.007200 -134.857800 -1.000000 0.000000 0.000000 0.000000 1.000000 0.000000 0.000000 0.000000 -1.000000 2780.dat
1 1 79.000000 -182.433800 -177.284200 0.000000 -1.000000 0.000000 0.707106 0.000000 -0.707107 0.707107 0.000000 0.707106 32009.dat
0 STEP
1 1 79.000690 -34.149520 -49.000060 -1.000000 0.000000 0.000000 0.000000 -1.000000 0.000000 0.000000 0.000000 1.000000 6558.dat
0 STEP
1 0 69.000100 -108.544300 -19.055850 -1.000000 0.000000 0.000000 0.000000 1.000000 0.000000 0.000000 0.000000 -1.000000 2780.dat
1 15 79.000100 -71.430660 -33.975160 -0.000001 -1.000000 -0.000001 0.372981 0.000001 -0.927839 0.927839 -0.000001 0.372981 32316.dat
0 STEP
1 15 59.000000 -119.031900 -57.656620 0.000001 1.000000 0.000001 -0.965016 0.000001 0.262192 0.262192 -0.000001 0.965016 40490.dat
0 STEP
1 4 49.000700 -34.149520 -49.000060 -1.000000 0.000000 0.000000 0.000000 1.000000 0.000000 0.000000 0.000000 -1.000000 62462.dat
0 STEP
1 0 49.000100 -98.056580 19.544920 -1.000000 0.000000 0.000000 0.000000 1.000000 0.000000 0.000000 0.000000 -1.000000 2780.dat
1 0 49.000100 -129.519700 -96.257020 -1.000000 0.000000 0.000000 0.000000 1.000000 0.000000 0.000000 0.000000 -1.000000 2780.dat
0 STEP
1 15 39.000090 -119.031900 -57.656380 0.000001 1.000000 0.000001 -0.965015 0.000001 0.262192 0.262192 -0.000001 0.965015 40490.dat
0 STEP
1 0 29.000090 -108.544300 -19.055790 -1.000000 0.000001 -0.000001 0.000001 0.866027 -0.499997 0.000000 -0.499997 -0.866027 2780.dat
1 0 29.000000 -140.007200 -134.857800 -1.000000 0.000000 0.000000 0.000000 1.000000 0.000000 0.000000 0.000000 -1.000000 2780.dat
0 STEP
1 0 69.000000 -83.438770 -276.279600 -1.000000 0.000000 0.000000 0.000000 1.000000 0.000000 0.000000 0.000000 -1.000000 2780.dat
1 0 69.000000 -154.149400 -205.568500 -1.000000 0.000000 0.000000 0.000000 1.000000 0.000000 0.000000 0.000000 -1.000000 2780.dat
0 STEP
1 1 59.000000 -118.794100 -255.065600 0.000000 0.000000 1.000000 0.707106 0.707107 0.000000 -0.707107 0.707106 0.000000 3702.dat
0 STEP
1 0 49.000000 -69.296580 -290.421600 -1.000000 0.000000 0.000000 0.000000 1.000000 0.000000 0.000000 0.000000 -1.000000 2780.dat
1 0 49.000000 -140.007200 -219.710700 -1.000000 0.000000 0.000000 0.000000 1.000000 0.000000 0.000000 0.000000 -1.000000 2780.dat
0 STEP
1 1 39.000000 -118.794000 -255.065600 0.000000 0.000000 1.000000 0.707106 0.707107 0.000000 -0.707107 0.707106 0.000000 3702.dat
0 STEP
1 0 29.000000 -154.149400 -205.568500 -1.000000 0.000000 0.000000 0.000000 1.000000 0.000000 0.000000 0.000000 -1.000000 2780.dat
1 0 29.000000 -83.438610 -276.279600 -1.000000 0.000000 0.000000 0.000000 1.000000 0.000000 0.000000 0.000000 -1.000000 2780.dat
0 STEP
1 15 39.000000 -152.735200 -232.438600 0.000000 0.000000 1.000000 0.707106 0.707107 0.000000 -0.707107 0.707106 0.000000 2431.dat
1 15 59.000000 -152.735200 -232.438600 0.000000 0.000000 1.000000 0.707106 0.707107 0.000000 -0.707107 0.707107 0.000000 2431.dat
0 STEP
1 1 19.000000 -182.433600 -177.284200 0.000000 -1.000000 0.000000 0.707106 0.000000 -0.707108 0.707108 0.000000 0.707106 32009.dat
1 0 9.000000 -154.149400 -149.000000 -1.000000 0.000000 0.000000 0.000000 1.000000 0.000000 0.000000 0.000000 -1.000000 2780.dat
0 STEP
1 1 -1.000000 -164.149400 -129.000000 0.000000 0.000000 1.000000 0.000000 1.000000 0.000000 -1.000000 0.000000 0.000000 3894.dat
1 19 -1.000000 -154.149400 -169.000000 -1.000000 0.000000 0.000000 0.000000 1.000000 0.000000 0.000000 0.000000 -1.000000 32556.dat
0 STEP
1 1 49.000000 -172.149500 -89.000060 1.000000 0.000000 0.000000 0.000000 1.000000 0.000000 0.000000 0.000000 1.000000 32001.dat
1 1 49.000000 -172.149500 -129.000000 1.000000 0.000000 0.000000 0.000000 1.000000 0.000000 0.000000 0.000000 1.000000 32001.dat
1 1 49.000000 -172.149500 -169.000000 1.000000 0.000000 0.000000 0.000000 1.000000 0.000000 0.000000 0.000000 1.000000 32001.dat
0 STEP
1 15 19.000610 -71.263060 -34.080570 -0.000001 -1.000000 -0.000001 0.372981 0.000001 -0.927839 0.927839 -0.000001 0.372981 32316.dat
1 1 19.000700 -34.149520 -49.000060 1.000000 0.000000 0.000000 0.000000 1.000000 0.000000 0.000000 0.000000 1.000000 6558.dat
0 STEP
1 15 -0.999300 -34.149490 -89.000060 0.000001 1.000000 0.000001 -1.000000 0.000001 -0.000001 -0.000001 -0.000001 1.000000 40490.dat
1 0 -10.999880 -34.149400 -168.999900 1.000000 0.000000 0.000000 0.000000 1.000000 0.000000 0.000000 0.000000 1.000000 2780.dat
0 STEP
1 15 -21.000000 -94.149410 -169.000000 0.000001 1.000000 0.000001 -0.000001 -0.000001 1.000000 1.000000 -0.000001 0.000001 32524.dat
0 STEP
1 19 -21.000000 -154.149400 -89.000060 -1.000000 0.000000 0.000000 0.000000 1.000000 0.000000 0.000000 0.000000 -1.000000 32556.dat
1 19 -11.000000 -154.149400 -109.000100 -1.000000 -0.000001 0.000001 0.000001 0.000001 1.000000 -0.000001 1.000000 -0.000001 3749.dat
0 STEP
1 1 -21.000090 -234.149300 11.000180 0.000000 -1.000000 0.000001 -0.600001 0.000000 0.800000 -0.800000 -0.000001 -0.600001 6629.dat
1 0 -31.000060 -154.149400 -69.000060 -1.000000 0.000000 0.000000 0.000000 1.000000 0.000000 0.000000 0.000000 -1.000000 2780.dat
0 STEP
1 1 -41.000000 -214.149400 -89.000060 0.000001 1.000000 -0.000001 0.000001 0.000001 1.000000 1.000000 -0.000001 -0.000001 32140.dat
0 STEP
1 0 -31.000000 -194.149400 -89.000060 -1.000000 0.000000 0.000000 0.000000 1.000000 0.000000 0.000000 0.000000 -1.000000 2780.dat
1 19 -31.000000 -214.149400 -89.000060 -1.000000 -0.000001 0.000001 0.000001 0.000001 1.000000 -0.000001 1.000000 -0.000001 3749.dat
0 STEP
1 1 -21.000000 -214.149400 -149.000000 -0.000001 -1.000000 0.000001 1.000000 -0.000001 -0.000001 0.000001 0.000001 1.000000 32140.dat
0 STEP
1 0 -11.000090 -218.149300 -0.999820 -1.000000 0.000000 0.000000 0.000000 1.000000 0.000000 0.000000 0.000000 -1.000000 2780.dat
1 0 -11.000090 -170.149400 -37.000060 -1.000000 0.000000 0.000000 0.000000 1.000000 0.000000 0.000000 0.000000 -1.000000 2780.dat
0 STEP
1 1 -1.000090 -208.020500 -20.935000 0.000000 0.000000 1.000000 0.803852 0.594828 0.000000 -0.594828 0.803853 0.000000 3894.dat
0 STEP
1 1 18.999820 -234.226300 10.896850 1.000000 0.000000 0.000000 0.000000 1.000000 0.000000 0.000000 0.000000 1.000000 6558.dat
1 1 18.999820 -202.197100 -13.064270 1.000000 0.000000 0.000000 0.000000 1.000000 0.000000 0.000000 0.000000 1.000000 6558.dat
0 STEP
1 1 18.999820 -224.201900 -9.091129 0.000000 0.000000 1.000000 0.800731 0.599024 0.000000 -0.599024 0.800732 0.000000 3701.dat
1 1 38.999820 -224.201900 -9.091129 0.000000 0.000000 1.000000 0.800732 0.599024 0.000000 -0.599024 0.800731 0.000000 3701.dat
0 STEP
1 1 58.999820 -218.211600 -1.083800 1.000000 0.000000 0.000000 0.000000 1.000000 0.000000 0.000000 0.000000 1.000000 6558.dat
0 STEP
1 1 58.999820 -224.201800 -9.091129 0.000000 0.000000 1.000000 0.800731 0.599024 0.000000 -0.599024 0.800732 0.000000 3701.dat
0 STEP
1 1 78.999820 -234.226300 10.896850 1.000000 0.000000 0.000000 0.000000 1.000000 0.000000 0.000000 0.000000 1.000000 6558.dat
1 1 78.999820 -202.197100 -13.064330 1.000000 0.000000 0.000000 0.000000 1.000000 0.000000 0.000000 0.000000 1.000000 6558.dat
0 STEP
1 1 78.999820 -224.201900 -9.091129 0.000000 0.000000 1.000000 0.800732 0.599023 0.000000 -0.599024 0.800732 0.000000 3701.dat
0 STEP
1 1 98.999820 -208.020500 -20.935000 0.000000 0.000000 1.000000 0.803853 0.594828 0.000000 -0.594828 0.803853 0.000000 3894.dat
0 STEP
1 1 48.999910 -233.937100 28.098940 1.000000 0.000000 0.000000 0.000000 0.594828 -0.803853 0.000000 0.803853 0.594828 3702.dat
0 STEP
1 0 108.999800 -218.197000 -1.064100 -1.000000 0.000000 0.000000 0.000000 1.000000 0.000000 0.000000 0.000000 -1.000000 2780.dat
1 0 108.999800 -170.197100 -37.064340 -1.000000 0.000000 0.000000 0.000000 1.000000 0.000000 0.000000 0.000000 -1.000000 2780.dat
1 19 118.999900 -154.197100 -89.064270 1.000000 0.000000 0.000000 0.000000 1.000000 0.000000 0.000000 0.000000 1.000000 32556.dat
1 19 109.000000 -154.149600 -109.000100 1.000000 0.000001 -0.000001 0.000001 0.000001 1.000000 0.000001 -1.000000 0.000001 3749.dat
0 STEP
1 1 118.999800 -234.197000 10.935910 0.000001 -1.000000 0.000001 -0.600001 0.000000 0.799999 -0.799999 -0.000001 -0.600001 6629.dat
0 STEP
1 0 128.999900 -154.197100 -69.064460 -1.000000 0.000000 0.000000 0.000000 1.000000 0.000000 0.000000 0.000000 -1.000000 2780.dat
0 STEP
1 1 139.000000 -214.197100 -89.064270 0.000001 1.000000 -0.000001 0.000001 0.000001 1.000000 1.000000 -0.000001 -0.000001 32140.dat
0 STEP
1 1 68.999810 -244.065900 48.033940 0.000000 0.000000 1.000000 -0.803853 -0.594828 0.000000 0.594828 -0.803853 0.000000 6558.dat
1 1 28.999820 -244.065900 48.033940 0.000000 0.000000 1.000000 -0.803853 -0.594828 0.000000 0.594828 -0.803853 0.000000 6558.dat
0 STEP
1 15 48.999820 -244.065900 48.033940 -0.000001 0.000000 1.000000 0.594828 -0.803853 0.000001 0.803853 0.594828 0.000000 32523.dat
1 15 48.999820 -260.143100 59.930540 -0.000001 0.000000 1.000000 0.594828 -0.803853 0.000000 0.803853 0.594828 0.000000 32523.dat
0 STEP
1 0 129.000000 -194.197100 -89.064270 -1.000000 0.000000 0.000000 0.000000 1.000000 0.000000 0.000000 0.000000 -1.000000 2780.dat
1 19 129.000000 -214.197100 -89.064270 1.000000 0.000001 -0.000001 -0.000001 -0.000001 -1.000000 -0.000001 1.000000 -0.000001 3749.dat
0 STEP
1 1 119.000000 -214.197100 -149.064300 -0.000001 -1.000000 0.000001 1.000000 -0.000001 -0.000001 0.000001 0.000001 1.000000 32140.dat
1 0 129.000000 -214.197100 -129.064300 -1.000000 0.000000 0.000000 0.000000 1.000000 0.000000 0.000000 0.000000 -1.000000 2780.dat
0 STEP
1 15 139.000000 -174.197100 -129.064300 0.000001 1.000000 0.000001 -0.000001 -0.000001 1.000000 1.000000 -0.000001 0.000001 64871.dat
0 STEP
1 0 148.999900 -254.197100 -129.064300 -1.000000 0.000000 0.000000 0.000000 1.000000 0.000000 0.000000 0.000000 -1.000000 2780.dat
0 STEP
1 1 158.999900 -314.197100 -139.064100 0.000000 0.000000 1.000000 1.000000 0.000000 0.000000 0.000000 1.000000 0.000000 3702.dat
0 STEP
1 71 176.739800 -374.197000 -129.064100 0.000001 0.000000 -1.000000 0.000000 1.000000 0.000000 1.000000 0.000000 0.000001 3713.dat
1 0 106.739900 -374.197000 -129.064100 -1.000000 0.000000 0.000000 0.000000 1.000000 0.000000 0.000000 0.000000 -1.000000 3707.dat
0 STEP
1 71 138.999800 -374.197000 -129.064100 0.000001 0.000000 -1.000000 0.000000 1.000000 0.000000 1.000000 0.000000 0.000001 3713.dat
0 STEP
1 71 36.739840 -374.197000 -129.064100 0.000001 0.000000 -1.000000 0.000000 1.000000 0.000000 1.000000 0.000000 0.000001 3713.dat
1 4 56.739840 -354.197100 -129.064100 -1.000000 0.000000 0.000000 0.000000 -0.000001 1.000000 0.000000 1.000000 0.000001 32039.dat
0 STEP
1 71 56.739840 -329.487000 -129.064100 0.000000 -1.000000 0.000000 -1.000000 0.000000 0.000000 0.000000 0.000000 -1.000000 4519.dat
1 19 56.739840 -341.706900 -129.064100 -1.000000 0.000000 -0.000001 -0.000001 0.000000 1.000000 0.000000 1.000000 0.000000 6589.dat
0 STEP
1 71 56.739840 -327.547000 -129.064100 1.000000 0.000000 0.000000 0.000000 0.000000 1.000000 0.000000 -1.000000 0.000000 3650a.dat
1 72 56.739840 -307.746900 -129.064100 1.000000 0.000000 0.000000 0.000000 0.000000 1.000000 0.000000 -1.000000 0.000000 3648b.dat
0 STEP
0 STEP
