0 FILE 儿童车.io
0 Untitled Model
0 Name:  儿童车
0 Author:  
0 CustomBrick
0 NumOfBricks:  80
1 1 -67.999800 -97.999930 -35.996060 1.000000 -0.000001 -0.000001 0.000001 0.000001 0.999994 -0.000001 -0.999994 0.000001 32140.dat
1 1 -67.999800 -38.000050 -36.000110 0.000000 0.000000 -1.000000 0.000000 1.000000 0.000000 1.000000 0.000000 0.000000 6558.dat
1 1 -68.000110 -78.000060 -36.000110 0.000000 0.000000 -1.000000 0.000000 1.000000 0.000000 1.000000 0.000000 0.000000 6558.dat
0 STEP
1 15 -68.000040 -98.000040 -56.000220 1.000000 -0.000001 0.000001 -0.000001 -0.000001 1.000000 -0.000001 -1.000000 -0.000001 32524.dat
0 STEP
1 71 -67.999800 -158.000100 -36.000090 0.000000 0.000000 1.000000 0.000000 1.000000 0.000000 -1.000000 0.000000 0.000000 32073.dat
1 4 -87.999790 -158.000100 -36.000090 0.000000 -1.000000 0.000000 0.000000 0.000000 0.999994 -0.999994 0.000000 0.000000 42003.dat
0 STEP
1 15 -68.000040 -98.000060 -16.000280 1.000000 -0.000001 0.000001 -0.000001 -0.000001 1.000000 -0.000001 -1.000000 -0.000001 32524.dat
0 STEP
1 71 -68.000000 -158.000200 4.000000 1.000000 0.000001 0.000001 -0.000001 0.000001 1.000000 0.000001 -1.000000 0.000001 33299.dat
1 71 -68.000040 -158.000100 -76.000220 -1.000000 -0.000001 -0.000001 -0.000001 0.000001 1.000000 -0.000001 1.000000 -0.000001 33299.dat
0 STEP
1 71 -88.000040 -138.530200 -36.000090 0.000000 -1.000000 0.000000 -0.999994 0.000000 0.000000 0.000000 0.000000 -0.999994 32073.dat
1 4 -108.000200 -138.740100 -36.000090 0.000000 0.000001 -1.000000 0.999994 0.000000 0.000000 0.000000 -0.999994 -0.000001 32039.dat
0 STEP
1 71 -88.000040 -198.529900 -35.840060 0.000000 0.000000 1.000000 0.000000 0.999994 0.000000 -0.999994 0.000000 0.000000 32073.dat
1 0 -88.000040 -198.529800 -36.000090 0.000002 -1.000000 -0.000002 0.000002 0.000002 -0.999994 0.999994 0.000002 0.000002 32013.dat
0 STEP
1 14 -88.000040 -198.529900 -21.270130 0.000000 -1.000000 0.000000 -0.999994 0.000000 0.000000 0.000000 0.000000 -0.999994 32123a.dat
1 14 -88.000040 -198.529900 -51.150080 0.000000 -1.000000 0.000000 -0.999994 0.000000 0.000000 0.000000 0.000000 -0.999994 32123a.dat
0 STEP
1 71 -88.000040 -198.529900 -75.839940 1.000000 0.000000 0.000001 0.000000 0.999994 0.000000 -0.000001 0.000000 0.999994 3713.dat
1 71 -88.000040 -198.529900 4.159720 -1.000000 0.000000 -0.000001 0.000000 0.999994 0.000000 0.000001 0.000000 -0.999994 3713.dat
0 STEP
1 4 -108.000200 -118.100300 -36.000090 0.000000 1.000000 0.000000 0.000000 0.000000 0.999994 0.999994 0.000000 0.000000 42003.dat
0 STEP
1 4 -108.000200 -98.100390 -36.830550 0.000000 -1.000000 0.000000 1.000000 0.000000 0.000000 0.000000 0.000000 1.000000 42003.dat
0 STEP
1 14 -128.000200 -98.100360 -20.840700 0.000000 1.000000 0.000000 0.999994 0.000000 0.000000 0.000000 0.000000 -0.999994 32123a.dat
1 0 -128.000200 -98.100360 -35.650620 0.000000 0.000000 1.000000 0.000000 0.999994 0.000000 -0.999994 0.000000 0.000000 3705.dat
0 STEP
1 14 -128.000200 -118.100300 -20.910280 0.000000 1.000000 0.000000 0.999994 0.000000 0.000000 0.000000 0.000000 -0.999994 32123a.dat
1 0 -128.000200 -118.100300 -36.220180 0.000000 0.000000 1.000000 0.000000 0.999994 0.000000 -0.999994 0.000000 0.000000 3706.dat
0 STEP
1 15 -128.000200 -78.100560 -5.650790 -1.000000 0.000001 -0.000001 -0.000001 -0.000001 0.999994 0.000001 0.999994 0.000001 32316.dat
0 STEP
1 71 -128.000200 -118.100300 14.599520 -1.000000 0.000000 -0.000001 0.000000 0.999994 0.000000 0.000001 0.000000 -0.999994 3713.dat
0 STEP
1 71 -128.000200 -38.100780 14.239230 1.000000 0.000000 0.000001 0.000000 0.999994 0.000000 -0.000001 0.000000 0.999994 3713.dat
1 0 -128.000200 -38.100780 -35.760470 0.000000 0.000000 1.000000 0.000000 0.999995 0.000000 -0.999995 0.000000 0.000000 3706.dat
0 STEP
1 0 -128.000200 -38.100780 -35.113800 0.000000 -1.000000 0.000000 -0.999994 0.000000 -0.000001 0.000001 0.000000 -0.999994 30391.dat
1 71 -128.000200 -38.100780 -35.370580 -1.000000 0.000000 0.000000 0.000000 0.999994 0.000000 0.000000 0.000000 -0.999994 55982.dat
0 STEP
1 14 -128.000200 -118.100300 -51.220220 0.000000 1.000000 0.000000 0.999994 0.000000 0.000000 0.000000 0.000000 -0.999994 32123a.dat
1 14 -128.000200 -98.100410 -51.650560 0.000000 1.000000 0.000000 0.999994 0.000000 0.000000 0.000000 0.000000 -0.999994 32123a.dat
0 STEP
1 15 -128.000200 -78.100560 -66.450100 1.000000 -0.000001 0.000001 -0.000001 -0.000001 0.999994 -0.000001 -0.999994 -0.000001 32316.dat
0 STEP
1 71 -128.000200 -38.100780 -85.760360 1.000000 0.000000 0.000001 0.000000 0.999994 0.000000 -0.000001 0.000000 0.999994 3713.dat
1 71 -128.000200 -118.100300 -86.519870 1.000000 0.000000 0.000001 0.000000 0.999994 0.000000 -0.000001 0.000000 0.999994 3713.dat
0 STEP
1 71 -128.260200 -138.740100 -36.000090 0.000001 0.000000 -1.000000 0.000000 0.999994 0.000000 0.999994 0.000000 0.000001 3713.dat
1 71 -129.890200 -138.740100 -36.000090 -1.000000 0.000000 0.000000 0.000000 0.000000 0.999994 0.000000 0.999994 0.000000 4519.dat
0 STEP
1 19 -148.340100 -138.740100 -36.000090 0.000001 0.000000 -1.000000 0.000000 -0.999994 0.000000 -0.999994 0.000000 -0.000001 6589.dat
1 19 -138.910200 -138.740100 -36.000280 0.000000 0.000000 1.000000 0.000000 -0.999994 0.000000 0.999994 0.000000 0.000000 32198.dat
0 STEP
1 0 -48.000040 -38.000280 -35.626080 0.000000 0.000000 1.000000 0.000000 0.999994 0.000000 -0.999994 0.000000 0.000000 3707.dat
0 STEP
1 71 -48.000040 -38.000280 -15.626210 1.000000 0.000000 0.000001 0.000000 0.999994 0.000000 -0.000001 0.000000 0.999994 3713.dat
1 71 -48.000040 -38.000280 -55.625960 1.000000 0.000000 0.000001 0.000000 0.999994 0.000000 -0.000001 0.000000 0.999994 3713.dat
0 STEP
1 16 80.000000 -24.000000 -40.000000 1.000000 0.000000 0.000000 0.000000 1.000000 0.000000 0.000000 0.000000 1.000000 submodel group 1
0 STEP
1 71 -48.000040 -38.000280 19.883560 -1.000000 0.000000 -0.000001 0.000000 1.000000 -0.000001 0.000001 -0.000001 -1.000000 4185.dat
1 0 -48.000020 -38.000770 19.884130 1.000000 0.000000 0.000001 0.000000 1.000002 0.000000 -0.000001 0.000000 1.000001 2815.dat
0 STEP
1 4 -48.000040 -38.000260 34.373570 1.000000 0.000000 0.000000 0.000000 -0.999994 -0.000001 0.000000 0.000001 -0.999994 32039.dat
0 STEP
1 71 232.000000 -38.000020 -15.566210 1.000000 0.000000 0.000001 0.000000 0.999994 0.000000 -0.000001 0.000000 0.999994 3713.dat
1 0 232.000000 -38.000100 -35.016220 0.000000 0.000000 1.000000 0.000000 0.999994 0.000000 -0.999994 0.000000 0.000000 3707.dat
0 STEP
1 4 232.000000 -38.000080 34.983360 1.000000 0.000000 0.000000 0.000000 -0.999994 -0.000001 0.000000 0.000001 -0.999994 32039.dat
0 STEP
1 0 231.999800 -38.000020 -35.580800 0.000000 1.000000 0.000000 0.999994 0.000000 0.000001 0.000001 0.000000 -0.999994 30391.dat
1 71 232.000000 -38.000020 -35.835920 1.000000 0.000000 0.000000 0.000000 -0.999994 0.000000 0.000000 0.000000 -0.999994 55982.dat
0 STEP
1 14 232.000000 -38.000020 -60.865920 0.000000 1.000000 0.000000 -0.999994 0.000000 0.000000 0.000000 0.000000 0.999994 32123a.dat
0 STEP
1 15 92.000220 -38.000080 -75.415760 0.000001 0.000001 -1.000000 -0.999994 0.000001 -0.000001 0.000001 0.999994 0.000001 64871.dat
0 STEP
1 4 232.000000 -38.000100 -105.015800 -1.000000 0.000000 0.000000 0.000000 -0.999994 -0.000001 0.000000 -0.000001 0.999994 32039.dat
1 4 -48.000040 -38.000280 -105.625700 -1.000000 0.000000 0.000000 0.000000 -0.999994 -0.000001 0.000000 -0.000001 0.999994 32039.dat
1 71 -48.000040 -38.000280 -90.625710 0.000000 1.000000 -0.000001 -1.000000 0.000000 -0.000001 -0.000001 0.000001 1.000000 4185.dat
1 0 -48.000740 -38.000380 -90.626090 0.000000 1.000007 0.000000 1.000007 0.000000 0.000001 0.000001 0.000000 -1.000000 2815.dat
0 STEP
0 STEP
0 NOFILE
0 FILE SubModel Group 1
0 SubModel Group 1
0 Name:  SubModel Group 1
0 Author:  
0 CustomBrick
0 NumOfBricks:  25
1 1 -28.000040 -14.000150 4.584000 0.000001 0.000001 1.000000 -0.999994 0.000001 0.000001 -0.000001 -0.999994 0.000001 32140.dat
1 0 12.000210 -14.000100 14.584060 0.000000 0.000000 -1.000000 0.000000 0.999994 0.000000 0.999994 0.000000 0.000000 2780.dat
1 1 32.000200 -33.999930 4.584000 0.000000 0.000000 1.000000 0.000000 0.999994 0.000000 -0.999994 0.000000 0.000000 6558.dat
0 STEP
1 1 12.000210 -93.999610 24.583890 1.000000 -0.000001 -0.000001 0.000001 0.000001 0.999994 -0.000001 -0.999994 0.000001 32140.dat
1 1 11.999960 -73.999720 4.583880 0.000000 0.000000 1.000000 0.000000 0.999994 0.000000 -0.999994 0.000000 0.000000 6558.dat
0 STEP
1 1 11.999960 -53.999860 4.583760 -1.000000 0.000001 0.000001 -0.000001 -0.000001 -0.999994 -0.000001 -0.999994 0.000001 32140.dat
1 19 11.999960 -53.999800 -5.416050 -0.000001 1.000000 -0.000001 0.000001 0.000001 0.999994 0.999994 0.000001 -0.000001 3749.dat
0 STEP
1 1 12.000210 -93.999610 -15.415990 1.000000 -0.000001 -0.000001 0.000001 0.000001 0.999994 -0.000001 -0.999994 0.000001 32140.dat
0 STEP
1 1 -8.000340 -113.999600 4.583890 0.000000 0.000000 1.000000 0.000000 0.999996 0.000000 -0.999996 0.000000 0.000000 6558.dat
1 1 11.999540 -113.999600 4.583890 0.000000 0.000000 1.000000 0.000000 0.999996 0.000000 -0.999996 0.000000 0.000000 6558.dat
0 STEP
1 15 -8.000470 -113.999600 -15.415990 0.000001 0.000001 -1.000000 -0.999996 0.000001 -0.000001 0.000001 0.999996 0.000001 32523.dat
0 STEP
1 71 -28.000460 -113.999600 4.583890 1.000000 0.000000 0.000001 0.000000 0.999994 0.000000 -0.000001 0.000000 0.999994 3713.dat
1 19 -28.000460 -113.999600 -5.416050 -0.000001 1.000000 -0.000001 0.000001 0.000001 0.999994 0.999994 0.000001 -0.000001 3749.dat
0 STEP
1 15 -8.000470 -113.999600 24.583770 0.000001 0.000001 -1.000000 -0.999996 0.000001 -0.000001 0.000001 0.999996 0.000001 32523.dat
0 STEP
1 15 12.000210 -14.000070 24.584000 0.000001 0.000001 -1.000000 -0.999994 0.000001 -0.000001 0.000001 0.999994 0.000001 40490.dat
0 STEP
1 0 -7.999790 -14.000140 -5.415930 0.000000 0.000000 -1.000000 0.000000 0.999994 0.000000 0.999994 0.000000 0.000000 2780.dat
1 71 -28.000040 -14.000140 3.954000 0.000000 -1.000000 0.000000 0.000000 0.000000 0.999994 -0.999994 0.000000 0.000000 4519.dat
0 STEP
1 1 52.000230 -14.000080 4.583880 0.000000 0.000000 1.000000 0.000000 0.999994 0.000000 -0.999994 0.000000 0.000000 6558.dat
1 1 -48.000030 -14.000160 4.584120 0.000000 0.000000 1.000000 0.000000 0.999994 0.000000 -0.999994 0.000000 0.000000 6558.dat
0 STEP
1 15 12.000210 -14.000100 -15.415870 0.000001 0.000001 -1.000000 -0.999994 0.000001 -0.000001 0.000001 0.999994 0.000001 40490.dat
0 STEP
1 0 72.000230 -14.000040 -25.415820 0.000000 0.000000 -1.000000 0.000000 0.999994 0.000000 0.999994 0.000000 0.000000 2780.dat
1 0 72.000230 -14.000030 34.583940 0.000000 0.000000 -1.000000 0.000000 0.999994 0.000000 0.999994 0.000000 0.000000 2780.dat
1 0 -67.999790 -14.000140 34.584000 0.000000 0.000000 -1.000000 0.000000 0.999994 0.000000 0.999994 0.000000 0.000000 2780.dat
1 0 -67.999790 -14.000160 -25.415820 0.000000 0.000000 -1.000000 0.000000 0.999994 0.000000 0.999994 0.000000 0.000000 2780.dat
0 STEP
1 15 11.999960 -14.000100 44.583760 0.000001 0.000001 -1.000000 -0.999994 0.000001 -0.000001 0.000001 0.999994 0.000001 64871.dat
0 STEP
0 NOFILE
