0 FILE BLK001月球车_Copy.io
0 Untitled Model
0 Name:  BLK001月球车_Copy
0 Author:  
0 CustomBrick
0 NumOfBricks:  124
1 16 -43.013380 -108.039400 -19.482020 1.000000 0.000000 0.000000 0.000000 1.000000 0.000000 0.000000 0.000000 1.000000 submodel group 9 copy copy copy
0 STEP
1 1 -79.988540 -198.221600 -69.983760 0.000000 0.479444 -0.877573 0.000000 -0.877573 -0.479444 -1.000000 0.000000 0.000000 6558.dat
1 1 -79.989040 -158.221600 -69.983700 0.000000 0.479444 -0.877573 0.000000 -0.877573 -0.479444 -1.000000 -0.000005 0.000009 6558.dat
0 STEP
1 1 120.003000 -198.219700 -69.985760 0.000000 0.479458 -0.877565 0.000000 -0.877565 -0.479458 -1.000000 0.000000 0.000000 6558.dat
1 1 120.001800 -158.219700 -69.985660 -0.000019 0.479458 -0.877565 0.000003 -0.877565 -0.479458 -1.000000 -0.000009 0.000016 6558.dat
0 STEP
1 15 -79.988970 -178.221600 -69.983620 1.000000 -0.000001 -0.000020 0.000020 -0.000001 1.000000 -0.000001 -1.000000 -0.000001 32316.dat
1 15 120.002300 -178.219700 -69.985580 1.000000 -0.000012 -0.000031 0.000031 -0.000001 1.000000 -0.000012 -1.000000 -0.000001 32316.dat
0 STEP
1 15 -79.989550 -158.221600 -89.983680 1.000000 -0.000001 -0.000020 0.000020 -0.000001 1.000000 -0.000001 -1.000000 -0.000001 32524.dat
1 15 120.001300 -158.219700 -89.985490 1.000000 -0.000012 -0.000043 0.000043 -0.000001 1.000000 -0.000012 -1.000000 -0.000001 32524.dat
0 STEP
1 1 -79.988750 -198.221600 9.983860 -0.000016 0.000020 1.000000 0.000000 -1.000000 0.000020 1.000000 0.000000 0.000016 6558.dat
1 1 -79.989490 -158.221700 9.983910 -0.000024 0.000020 1.000000 0.000000 -1.000000 0.000020 1.000000 0.000000 0.000024 6558.dat
0 STEP
1 1 120.004200 -198.219800 9.981860 0.000037 0.000000 1.000000 0.000000 -1.000000 0.000000 1.000000 0.000000 -0.000037 6558.dat
1 1 120.004100 -158.219800 9.981950 0.000044 0.000000 1.000000 0.000000 -1.000000 0.000000 1.000000 0.000000 -0.000044 6558.dat
0 STEP
1 15 -79.989170 -178.221700 9.983980 1.000000 0.000020 -0.000023 0.000023 -0.000001 1.000000 0.000019 -1.000000 -0.000001 32316.dat
1 15 120.004100 -178.220000 9.982019 1.000000 -0.000041 0.000001 -0.000001 -0.000001 1.000000 -0.000041 -1.000000 -0.000001 32316.dat
0 STEP
1 16 10.000000 -12.000000 -30.000000 0.915364 -0.402628 0.000000 0.402628 0.915364 0.000000 0.000000 0.000000 1.000000 submodel group 6
0 STEP
1 15 -79.990480 -158.221600 30.016310 1.000000 -0.000012 0.000029 0.000029 0.000001 -1.000000 0.000012 1.000000 0.000001 32524.dat
1 15 120.005000 -158.219900 29.981780 1.000000 0.000031 0.000001 0.000001 0.000001 -1.000000 -0.000031 1.000000 0.000001 32524.dat
0 STEP
1 71 120.006500 -218.220000 39.981770 0.000055 0.000000 1.000000 0.000000 -1.000000 0.000000 1.000000 0.000000 -0.000055 3673.dat
1 71 120.006600 -138.220000 39.982010 0.000046 0.000000 1.000000 0.000000 -1.000000 0.000000 1.000000 0.000000 -0.000046 3673.dat
0 STEP
1 71 -79.989910 -218.221700 40.016300 -0.000034 0.000018 1.000000 0.000000 -1.000000 0.000018 1.000000 0.000000 0.000034 3673.dat
1 71 -79.991970 -138.221700 40.016390 -0.000026 0.000018 1.000000 0.000000 -1.000000 0.000018 1.000000 0.000000 0.000026 3673.dat
0 STEP
1 1 20.008470 -218.222000 50.015360 0.000001 -0.000010 -1.000000 1.000000 -0.000001 0.000001 -0.000001 -1.000000 0.000010 41239.dat
1 1 20.007400 -138.221600 49.983940 0.000001 0.000001 -1.000000 -1.000000 0.000001 -0.000001 0.000001 1.000000 0.000001 64290.dat
0 STEP
1 0 -119.995800 -38.224480 -33.984050 0.000000 -1.000000 -0.000072 0.000000 -0.000072 1.000000 -1.000000 0.000000 0.000000 44294.dat
1 0 -119.996100 -38.224700 -49.983920 1.000000 0.000000 0.000000 0.000000 -1.000000 0.000000 0.000000 0.000000 -1.000000 32270.dat
0 STEP
1 16 150.000000 -24.000000 -30.000000 1.000000 0.000000 0.000000 0.000000 1.000000 0.000000 0.000000 0.000000 1.000000 submodel group 5
0 STEP
1 71 -79.988200 -218.221500 -99.983760 0.000000 0.000000 1.000000 0.000000 1.000000 0.000000 -1.000000 0.000000 0.000000 3673.dat
1 71 -79.989910 -138.221600 -99.983720 0.000000 0.000000 1.000000 0.000000 1.000000 0.000000 -1.000000 0.000000 0.000000 3673.dat
0 STEP
1 71 120.004000 -218.219600 -99.985870 0.000000 0.000000 1.000000 0.000000 1.000000 0.000000 -1.000000 0.000000 0.000000 3673.dat
1 71 120.000500 -138.219600 -99.985630 0.000000 0.000000 1.000000 0.000000 1.000000 0.000000 -1.000000 0.000000 0.000000 3673.dat
0 STEP
1 0 130.007800 -218.220100 -10.001890 -1.000000 0.000000 0.000000 0.000000 1.000000 0.000000 0.000000 0.000000 -1.000000 2780.dat
1 0 130.007400 -218.220000 -50.001900 -1.000000 0.000000 0.000000 0.000000 1.000000 0.000000 0.000000 0.000000 -1.000000 2780.dat
0 STEP
1 15 140.007300 -218.220100 -30.001850 0.000001 1.000000 0.000001 1.000000 -0.000001 0.000001 0.000001 0.000001 -1.000000 32524.dat
0 STEP
1 0 150.007200 -218.220000 29.998110 1.000000 0.000000 0.000000 0.000000 0.000000 -1.000000 0.000000 1.000000 0.000000 2780.dat
1 0 150.007200 -218.220000 -90.001870 1.000000 0.000000 0.000000 0.000000 0.000000 -1.000000 0.000000 1.000000 0.000000 2780.dat
0 STEP
1 1 20.003990 -218.221600 -109.984800 0.000001 -0.000010 -1.000000 1.000000 -0.000001 0.000001 -0.000001 -1.000000 0.000010 41239.dat
1 1 20.000580 -138.221300 -109.983700 0.000001 0.000001 -1.000000 -1.000000 0.000001 -0.000001 0.000001 1.000000 0.000001 64290.dat
0 STEP
1 1 160.007300 -218.220000 -30.001820 -0.000001 -1.000000 -0.000001 -1.000000 0.000001 -0.000001 0.000001 0.000001 -1.000000 64871.dat
0 STEP
1 19 170.003700 -118.219500 -29.985230 1.000000 0.000000 -0.000001 -0.000001 -0.607801 -0.794090 -0.000001 0.794090 -0.607801 3749.dat
1 19 139.995600 -38.217370 20.014460 0.000001 -1.000000 0.000001 -0.000001 -0.000001 -1.000000 1.000000 0.000001 -0.000001 3749.dat
1 19 139.995100 -38.218460 -79.985500 0.000001 -1.000000 0.000001 0.000001 0.000001 1.000000 -1.000000 -0.000001 0.000001 3749.dat
0 STEP
1 0 -119.995900 -38.223580 40.272770 0.000000 1.000000 0.000000 1.000000 0.000000 0.000001 0.000001 0.000000 -1.000000 30391.dat
1 71 -119.995900 -38.223570 40.016020 1.000000 0.000000 0.000000 0.000000 -1.000000 0.000000 0.000000 0.000000 -1.000000 55982.dat
1 71 -119.995800 -38.224300 -99.983970 -1.000000 0.000000 0.000000 0.000000 -1.000000 0.000000 0.000000 0.000000 1.000000 55982.dat
1 0 -119.995900 -38.224310 -99.727260 0.000000 1.000000 0.000000 1.000000 0.000000 0.000001 0.000001 0.000000 -1.000000 30391.dat
0 STEP
1 0 139.995700 -38.217390 40.271200 0.000000 1.000000 0.000000 1.000000 0.000000 0.000001 0.000001 0.000000 -1.000000 30391.dat
1 71 139.995600 -38.217380 40.014480 1.000000 0.000000 0.000000 0.000000 -1.000000 0.000000 0.000000 0.000000 -1.000000 55982.dat
1 71 139.995100 -38.218440 -99.985500 -1.000000 0.000000 0.000000 0.000000 -1.000000 0.000000 0.000000 0.000000 1.000000 55982.dat
1 0 139.995100 -38.218450 -99.728740 0.000000 1.000000 0.000000 1.000000 0.000000 0.000001 0.000001 0.000000 -1.000000 30391.dat
0 STEP
1 14 180.003700 -118.219500 -29.985260 -0.000001 0.000000 1.000000 -0.607801 -0.794090 -0.000001 0.794090 -0.607801 0.000000 3648b.dat
1 71 190.003700 -116.356700 -15.966350 -1.000000 0.000000 -0.000001 0.000001 -0.794090 -0.607801 0.000000 -0.607801 0.794090 3673.dat
0 STEP
1 71 200.003600 -116.356800 -15.966410 -1.000000 -0.000003 0.000000 0.000000 0.006088 0.999982 -0.000003 0.999982 -0.006089 32013.dat
1 0 200.007200 -197.202400 -16.132350 0.000000 0.000000 1.000000 -0.999982 -0.006088 0.000000 0.006088 -0.999982 0.000000 44294.dat
0 STEP
1 71 180.003800 -78.217880 -29.985350 -0.000018 0.000001 1.000000 -0.998579 0.053277 -0.000018 -0.053277 -0.998580 -0.000001 3647.dat
0 STEP
1 14 180.003700 -38.219340 -29.985440 0.000000 0.000000 -1.000000 0.206778 0.978388 0.000000 0.978388 -0.206778 0.000000 3648b.dat
0 STEP
1 16 230.000000 -204.000000 -20.000000 1.000000 0.000001 0.000000 -0.000001 0.999982 0.006069 0.000000 -0.006069 0.999982 submodel group 1
0 STEP
0 STEP
0 NOFILE
0 FILE SubModel Group 9 Copy Copy Copy
0 SubModel Group 9 Copy Copy Copy
0 Name:  SubModel Group 9 Copy Copy Copy
0 Author:  
0 CustomBrick
0 NumOfBricks:  3
1 72 10.000000 -1.128810 -10.000000 1.000000 0.000000 0.000000 0.000000 0.000000 -1.000000 0.000000 1.000000 0.000000 dch003.dat
1 71 -27.466620 -79.717990 29.427020 1.000000 0.000000 0.000000 0.000000 0.000000 -1.000000 0.000000 1.000000 0.000000 dch004.dat
1 25 7.837010 13.484720 -9.965000 1.000000 0.000000 0.000000 0.000000 0.000000 -1.000000 0.000000 1.000000 0.000000 dch005.dat
0 NOFILE
0 FILE SubModel Group 6
0 SubModel Group 6
0 Name:  SubModel Group 6
0 Author:  
0 CustomBrick
0 NumOfBricks:  28
1 0 -83.783240 8.206340 0.016230 -0.915364 0.393926 -0.083255 0.402628 0.895581 -0.189277 0.000000 -0.206778 -0.978388 3705.dat
0 STEP
1 0 -111.244200 20.285180 0.016190 -0.083255 0.393926 0.915364 -0.189277 0.895581 -0.402628 -0.978388 -0.206778 0.000000 32270.dat
0 STEP
1 71 -93.138080 11.774990 0.016190 -0.915364 -0.402628 0.000000 0.402628 -0.915364 0.000000 0.000000 0.000000 1.000000 32034.dat
0 STEP
1 71 -56.322070 -3.872080 0.015900 0.393926 -0.083254 -0.915364 0.895581 -0.189278 0.402628 -0.206778 -0.978388 -0.000001 32039.dat
0 STEP
1 15 -38.014910 -11.924310 0.015760 0.393926 -0.915364 0.083255 0.895581 0.402628 0.189277 -0.206778 0.000000 0.978388 32062.dat
0 STEP
1 15 -43.923560 -25.358200 3.117400 0.083255 -0.393926 0.915364 0.189277 -0.895581 -0.402628 0.978388 0.206778 0.000000 41677.dat
0 STEP
1 15 -19.707550 -19.976760 0.015610 0.393926 -0.915364 0.083255 0.895581 0.402628 0.189277 -0.206778 0.000000 0.978388 32062.dat
1 71 -1.400080 -28.029150 0.015470 -0.393926 -0.083256 0.915364 -0.895581 -0.189277 -0.402628 0.206778 -0.978388 -0.000001 32039.dat
0 STEP
1 0 71.829020 -60.239560 0.015570 -0.915364 0.393926 -0.083255 0.402628 0.895581 -0.189277 0.000000 -0.206778 -0.978388 60485.dat
0 STEP
1 15 -32.106020 1.509380 -3.085920 0.083255 -0.393926 0.915364 0.189277 -0.895581 -0.402628 0.978388 0.206778 0.000000 41677.dat
0 STEP
1 71 89.927710 -68.745440 0.014840 -0.915364 -0.402628 0.000010 0.402628 -0.915364 -0.000004 0.000011 0.000000 1.000000 32034.dat
1 71 108.633300 -75.892520 -0.088680 -0.083256 0.393926 0.915364 -0.189277 0.895581 -0.402628 -0.978388 -0.206778 -0.000001 3713.dat
0 STEP
1 1 90.129220 -68.288060 30.014850 -0.000010 0.402628 0.915364 0.000004 0.915364 -0.402628 -1.000000 0.000000 -0.000011 43093.dat
1 1 -92.936760 12.232660 30.016140 0.000000 0.402628 0.915364 0.000000 0.915364 -0.402628 -1.000000 0.000000 0.000000 43093.dat
0 STEP
1 1 -125.142500 -60.998540 40.016330 -0.915389 0.000001 0.402571 0.402571 0.000001 0.915389 0.000001 1.000000 -0.000001 32526.dat
1 1 57.928640 -141.521500 40.014550 0.915416 -0.000020 0.402508 -0.402509 0.000010 0.915416 -0.000022 -1.000000 0.000001 32526.dat
0 STEP
1 0 -125.142700 -60.998340 50.016360 0.000000 0.402574 -0.915388 0.000000 0.915388 0.402574 1.000000 0.000000 0.000000 2780.dat
1 0 -117.091000 -42.690740 50.016320 0.000000 0.402574 -0.915388 0.000000 0.915388 0.402574 1.000000 0.000000 0.000000 2780.dat
0 STEP
1 0 57.928280 -141.521400 50.014550 0.000000 0.999596 0.028444 0.000000 -0.028444 0.999596 1.000000 0.000000 0.000000 2780.dat
1 0 65.979930 -123.213700 50.014600 0.000040 0.999132 0.041660 -0.000020 -0.041659 0.999133 1.000000 -0.000042 0.000016 2780.dat
0 STEP
1 1 90.128700 -68.287730 -29.985200 0.000010 -0.402628 0.915364 -0.000004 -0.915364 -0.402628 1.000000 0.000000 -0.000011 43093.dat
1 1 -92.936790 12.232670 -29.983780 0.000000 -0.402628 0.915364 0.000000 -0.915364 -0.402628 1.000000 0.000000 0.000000 43093.dat
0 STEP
1 1 -125.141100 -60.999040 -39.983730 -0.915396 0.000001 0.402554 0.402554 0.000001 0.915396 0.000001 1.000000 -0.000001 32526.dat
0 STEP
1 0 -125.141400 -60.998900 -49.983690 0.000000 0.000000 -1.000000 0.000000 1.000000 0.000000 1.000000 0.000000 0.000000 2780.dat
1 0 -117.089700 -42.691190 -49.983780 0.000000 -0.997319 -0.073177 0.000000 0.073177 -0.997319 1.000000 0.000000 0.000000 2780.dat
0 STEP
1 1 57.922940 -141.518600 -39.985580 0.915389 -0.000011 0.402571 -0.402571 0.000006 0.915389 -0.000013 -1.000000 0.000001 32526.dat
0 STEP
1 0 57.922800 -141.518600 -49.985530 0.000010 -0.402579 0.915385 -0.000004 -0.915385 -0.402579 1.000000 0.000000 -0.000011 2780.dat
1 0 65.974380 -123.210900 -49.985500 0.000012 -0.402579 0.915385 -0.000005 -0.915385 -0.402579 1.000000 0.000000 -0.000013 2780.dat
0 STEP
0 NOFILE
0 FILE SubModel Group 5
0 SubModel Group 5
0 Name:  SubModel Group 5
0 Author:  
0 CustomBrick
0 NumOfBricks:  10
1 15 10.003800 -94.219600 0.014710 0.000001 1.000000 0.000001 -0.000001 -0.000001 1.000000 1.000000 -0.000001 0.000001 40490.dat
1 0 0.004500 -74.218620 0.014810 1.000000 0.000000 0.000034 0.000034 0.000000 -1.000000 0.000000 1.000000 0.000000 2780.dat
1 0 0.003200 -34.225240 0.014910 1.000000 0.000000 -0.000132 -0.000132 0.000000 -1.000000 0.000000 1.000000 0.000000 2780.dat
0 STEP
1 0 0.003800 -154.219500 0.014760 1.000000 0.000000 0.000000 0.000000 0.000000 -1.000000 0.000000 1.000000 0.000000 2780.dat
1 0 0.003800 -114.219500 0.014760 1.000000 0.000000 0.000000 0.000000 0.000000 -1.000000 0.000000 1.000000 0.000000 2780.dat
0 STEP
1 1 -9.996200 -154.218800 0.014780 0.000000 1.000000 0.000000 0.000000 0.000000 1.000000 1.000000 0.000000 0.000000 60484.dat
0 STEP
1 0 -19.993000 -114.220100 19.998090 -1.000000 0.000000 0.000010 0.000000 -1.000000 0.000000 0.000010 0.000000 1.000000 2780.dat
1 0 -19.993500 -114.220100 -20.001920 -1.000000 0.000000 0.000010 0.000000 -1.000000 0.000000 0.000010 0.000000 1.000000 2780.dat
0 STEP
1 0 10.003800 -54.217500 0.014590 -1.000000 0.000018 0.000001 0.000018 0.998579 0.053277 0.000001 0.053277 -0.998580 4519.dat
0 STEP
1 15 -2.000000 -54.000000 0.000000 0.000000 0.000000 -1.000000 0.000000 1.000000 0.000000 1.000000 0.000000 0.000000 dx0045.dat
0 STEP
0 NOFILE
0 FILE SubModel Group 1
0 SubModel Group 1
0 Name:  SubModel Group 1
0 Author:  
0 CustomBrick
0 NumOfBricks:  30
1 15 10.007160 -54.766040 3.910150 1.000000 -0.000002 0.000001 0.000002 1.000000 0.000001 -0.000001 -0.000001 1.000000 32524.dat
0 STEP
1 0 10.007360 -74.765940 -56.089780 0.000000 -1.000000 0.000000 1.000000 0.000000 0.000001 -0.000001 0.000000 1.000000 15100.dat
0 STEP
1 71 20.007360 -74.765930 -56.089800 -1.000000 0.000001 0.000000 -0.000001 -1.000000 0.000000 0.000000 0.000000 1.000000 3673.dat
0 STEP
1 0 10.007270 -74.765910 63.910130 0.000000 -1.000000 0.000000 1.000000 0.000000 0.000001 -0.000001 0.000000 1.000000 15100.dat
0 STEP
1 71 20.007260 -74.765910 63.910140 -1.000000 0.000001 0.000000 -0.000001 -1.000000 0.000000 0.000000 0.000000 1.000000 3673.dat
0 STEP
1 71 30.007250 -74.765900 63.910140 0.000001 0.000000 1.000000 -1.000000 0.000000 0.000001 0.000000 -1.000000 0.000000 42610.dat
1 71 30.007350 -74.765930 -56.089820 0.000001 0.000000 1.000000 -1.000000 0.000000 0.000001 0.000000 -1.000000 0.000000 42610.dat
0 STEP
1 16 -10.000000 0.000000 -50.000000 1.000000 0.000000 0.000000 0.000000 1.000000 0.000000 0.000000 0.000000 1.000000 submodel group 4
0 STEP
1 16 -10.000000 0.000000 60.000000 1.000000 0.000000 0.000000 0.000000 1.000000 0.000000 0.000000 0.000000 1.000000 submodel group 3
0 STEP
1 16 -20.000000 0.000000 0.000000 1.000000 0.000000 0.000000 0.000000 1.000000 0.000000 0.000000 0.000000 1.000000 submodel group 2
0 STEP
1 1 -59.992880 -14.766010 89.910270 1.000000 0.000001 0.000000 0.000001 -1.000000 0.000000 0.000000 0.000000 -1.000000 43093.dat
1 71 -29.992780 -14.766070 89.910220 -0.000002 -0.000001 1.000000 0.000003 -1.000000 -0.000001 1.000000 0.000002 0.000002 32013.dat
0 STEP
1 71 -29.992780 -14.768880 143.910200 1.000000 0.000001 0.000001 0.000001 -1.000000 0.000000 0.000001 0.000000 -1.000000 3713.dat
0 STEP
1 1 -59.992880 -13.552210 -110.085900 1.000000 0.000001 0.000000 0.000001 -1.000000 0.000000 0.000000 0.000000 -1.000000 43093.dat
1 71 -29.992780 -14.766080 -110.089800 -0.000002 -0.000001 1.000000 0.000003 -1.000001 -0.000001 1.000001 0.000002 0.000002 32013.dat
0 STEP
1 71 -29.992680 -14.768780 -146.469800 -1.000000 0.000001 -0.000001 -0.000001 -1.000000 0.000000 -0.000001 0.000000 1.000000 3713.dat
0 STEP
0 NOFILE
0 FILE SubModel Group 4
0 SubModel Group 4
0 Name:  SubModel Group 4
0 Author:  
0 CustomBrick
0 NumOfBricks:  5
1 1 -39.992960 -34.766120 -6.089800 0.000001 0.000002 1.000000 0.000000 -1.000000 0.000002 1.000000 0.000000 -0.000001 32140.dat
0 STEP
1 1 20.007230 -34.766050 13.910180 0.000001 0.000000 1.000000 -1.000000 0.000000 0.000001 0.000000 -1.000000 0.000000 6558.dat
0 STEP
1 71 20.007020 -14.766040 13.910140 0.000000 0.000001 1.000000 0.000000 -1.000000 0.000001 1.000000 0.000000 0.000000 18654.dat
0 STEP
1 0 0.007030 -24.766060 -6.089800 0.000001 0.000000 -1.000000 -1.000000 0.000000 -0.000001 0.000000 1.000000 0.000000 2780.dat
1 0 20.007130 -24.766040 -6.089790 0.000001 0.000000 -1.000000 -1.000000 0.000000 -0.000001 0.000000 1.000000 0.000000 2780.dat
0 STEP
0 NOFILE
0 FILE SubModel Group 3
0 SubModel Group 3
0 Name:  SubModel Group 3
0 Author:  
0 CustomBrick
0 NumOfBricks:  5
1 1 -39.992900 -34.766080 3.910220 0.000001 0.000000 1.000000 0.000000 1.000000 0.000000 -1.000000 0.000000 0.000001 32140.dat
0 STEP
1 1 20.007230 -34.766050 -16.089750 0.000001 0.000000 1.000000 -1.000000 0.000000 0.000001 0.000000 -1.000000 0.000000 6558.dat
0 STEP
1 71 20.007210 -14.766000 -16.089780 0.000000 0.000001 1.000000 0.000000 -1.000000 0.000001 1.000000 0.000000 0.000000 18654.dat
0 STEP
1 0 0.007120 -24.766050 3.910200 0.000001 0.000000 -1.000000 -1.000000 0.000000 -0.000001 0.000000 1.000000 0.000000 2780.dat
1 0 20.007220 -24.766030 3.910200 0.000001 0.000000 -1.000000 -1.000000 0.000000 -0.000001 0.000000 1.000000 0.000000 2780.dat
0 STEP
0 NOFILE
0 FILE SubModel Group 2
0 SubModel Group 2
0 Name:  SubModel Group 2
0 Author:  
0 CustomBrick
0 NumOfBricks:  7
1 71 -9.992780 -14.766030 3.910160 0.000000 0.000001 1.000000 0.000000 -1.000000 0.000001 1.000000 0.000000 0.000000 27940.dat
0 STEP
1 71 -9.992780 -14.766040 33.910200 1.000000 0.000001 0.000001 0.000001 -1.000000 0.000000 0.000001 0.000000 -1.000000 59443.dat
1 0 -9.992780 -14.768850 93.910190 0.000000 -0.000001 1.000000 0.000000 1.000000 0.000001 -1.000000 0.000000 0.000000 3706.dat
0 STEP
1 1 10.007210 -14.766060 63.910200 0.000000 1.000000 0.000001 0.000000 0.000001 -1.000000 -1.000000 0.000000 0.000000 42003.dat
0 STEP
1 71 -9.992780 -14.765970 -26.089820 1.000000 0.000001 0.000001 0.000001 -1.000000 0.000000 0.000001 0.000000 -1.000000 59443.dat
1 0 -9.992690 -14.768830 -96.469920 0.000000 -0.000001 1.000000 0.000000 1.000000 0.000001 -1.000000 0.000000 0.000000 3706.dat
0 STEP
1 1 10.007210 -14.765960 -56.089570 0.000000 1.000000 0.000001 0.000000 0.000001 -1.000000 -1.000000 0.000000 0.000000 42003.dat
0 STEP
0 NOFILE
