0 Untitled Model
0 Name:  抽奖机器
0 Author:  
0 CustomBrick
0 NumOfBricks:  17
1 1 3.000000 -80.000000 13.000000 0.000000 0.000000 1.000000 -1.000000 0.000000 0.000000 0.000000 -1.000000 0.000000 3702.dat
1 1 -17.000000 -160.000000 13.000010 0.000000 0.000000 1.000000 -1.000000 0.000000 0.000000 0.000000 -1.000000 0.000000 3703.dat
1 0 -7.000000 -20.000010 3.000020 -1.000000 0.000000 0.000000 0.000000 1.000000 0.000000 0.000000 0.000000 -1.000000 2780.dat
1 1 3.000000 -140.000000 3.000020 1.000000 0.000000 0.000000 0.000000 1.000000 0.000000 0.000000 0.000000 1.000000 6558.dat
0 STEP
1 1 -7.000000 -120.000000 -11.000110 0.000000 0.000000 1.000000 -1.000000 0.000000 0.000000 0.000000 -1.000000 0.000000 3709b.dat
0 STEP
1 1 -7.000000 -120.000000 21.000000 0.000000 0.000000 1.000000 -1.000000 0.000000 0.000000 0.000000 -1.000000 0.000000 3709b.dat
0 STEP
1 0 -27.090090 -200.000000 3.000020 -1.000000 0.000000 0.000000 0.000000 1.000000 0.000000 0.000000 0.000000 -1.000000 3705.dat
1 71 -37.090090 -200.000000 3.000140 0.000000 0.000000 1.000000 0.000000 1.000000 0.000000 -1.000000 0.000000 0.000000 3649.dat
0 STEP
1 71 2.909910 -200.000000 3.000020 0.000001 0.000000 -1.000000 0.000000 1.000000 0.000000 1.000000 0.000000 0.000001 3713.dat
0 STEP
1 71 -57.090100 -200.000000 3.000020 0.000001 -1.000000 0.000001 1.000000 0.000001 0.000001 -0.000001 0.000001 1.000000 33299.dat
1 4 -87.090090 -200.000000 42.999990 -1.000000 0.000000 0.000000 0.000000 1.000000 0.000000 0.000000 0.000000 -1.000000 62462.dat
0 STEP
1 0 -30.620120 -280.000000 3.000020 -1.000000 0.000000 0.000000 0.000000 0.799688 0.600416 0.000000 0.600416 -0.799688 3705.dat
1 72 -37.190190 -280.000100 3.000380 0.000000 0.000000 1.000000 0.600416 0.799688 0.000000 -0.799688 0.600416 0.000000 3648b.dat
0 STEP
1 71 -60.620120 -280.000100 3.000020 0.000000 0.000000 -1.000000 -0.600416 0.799688 0.000000 0.799688 0.600416 0.000000 3713.dat
0 STEP
1 71 1.629880 -280.000000 3.000020 0.000000 0.000000 1.000000 0.600416 0.799688 0.000000 -0.799688 0.600416 0.000000 3649.dat
0 STEP
1 71 23.000000 -200.000000 3.000020 0.000000 0.000000 1.000000 1.000000 0.000000 0.000000 0.000000 1.000000 0.000000 32073.dat
1 0 23.000000 -140.000000 3.000140 -1.000000 -0.000002 -0.000002 -0.000002 -0.000002 1.000000 -0.000002 1.000000 0.000002 32013.dat
0 STEP
0 STEP
