0 FILE 弹力小车_Copy.io
0 Untitled Model
0 Name:  弹力小车_Copy
0 Author:  
0 CustomBrick
0 NumOfBricks:  106
0 STEP
1 72 69.225650 -173.701600 -128.585900 0.000000 -1.000000 0.000000 1.000000 0.000000 0.000000 0.000000 0.000000 1.000000 dch003.dat
1 71 29.798690 -211.168200 -49.996700 0.000000 -1.000000 0.000000 1.000000 0.000000 0.000000 0.000000 0.000000 1.000000 dch004.dat
1 25 69.190640 -175.864600 -143.199400 0.000000 -1.000000 0.000000 1.000000 0.000000 0.000000 0.000000 0.000000 1.000000 dch005.dat
0 STEP
1 15 29.798710 -21.167720 -59.996660 -0.000001 -1.000002 -0.000001 -1.000002 0.000001 -0.000001 0.000001 0.000001 -1.000000 64871.dat
0 STEP
1 4 29.798710 -21.167710 -39.996680 1.000002 0.000001 -0.000001 -0.000001 -0.000001 -1.000003 -0.000001 1.000000 -0.000001 32054.dat
1 4 29.798710 -21.167750 -79.996660 1.000002 0.000001 -0.000001 -0.000001 -0.000001 -1.000002 -0.000001 1.000000 -0.000001 32054.dat
0 STEP
1 19 39.798850 -21.167550 80.003340 1.000002 0.000001 -0.000001 0.000001 0.000001 1.000005 0.000001 -1.000001 0.000001 3749.dat
0 STEP
1 4 69.798930 -21.167540 80.003340 0.000000 0.000000 -1.000002 0.000000 -1.000005 0.000000 -1.000001 0.000000 0.000000 32034.dat
0 STEP
1 19 99.799530 -21.167560 80.003100 -1.000002 -0.000001 0.000001 0.000001 0.000001 1.000002 -0.000001 1.000000 -0.000001 3749.dat
0 STEP
1 4 29.798650 -21.167860 -199.996600 -1.000002 -0.000001 0.000001 0.000001 0.000001 1.000002 -0.000001 1.000000 -0.000001 32054.dat
0 STEP
1 71 69.798740 -21.167940 -199.996500 1.000002 0.000000 0.000000 0.000000 1.000002 0.000000 0.000000 0.000000 1.000000 4519.dat
0 STEP
1 4 109.799300 -21.167860 -199.996700 1.000002 0.000001 -0.000001 -0.000001 -0.000001 -1.000002 -0.000001 1.000000 -0.000001 32054.dat
0 STEP
1 15 109.799400 -21.167710 -59.996840 -0.000001 -1.000002 -0.000001 -1.000002 0.000001 -0.000001 0.000001 0.000001 -1.000000 64871.dat
0 STEP
1 4 109.799300 -21.167690 -39.996800 -1.000002 -0.000001 0.000001 0.000001 0.000001 1.000002 -0.000001 1.000000 -0.000001 32054.dat
1 4 109.799400 -21.167730 -79.996660 -1.000002 -0.000001 0.000001 0.000001 0.000001 1.000002 -0.000001 1.000000 -0.000001 32054.dat
0 STEP
1 1 29.799870 -231.168500 -159.995900 0.000000 0.000000 -1.000002 0.000000 1.000002 0.000000 1.000000 0.000000 0.000000 3703.dat
0 STEP
1 4 29.798650 -221.168200 -39.996680 1.000004 0.000001 -0.000001 -0.000001 -0.000001 -1.000002 -0.000001 1.000002 -0.000001 32054.dat
1 4 29.798650 -221.168200 -79.996470 1.000004 0.000001 -0.000001 -0.000001 -0.000001 -1.000002 -0.000001 1.000002 -0.000001 32054.dat
0 STEP
1 0 19.798590 -221.168200 -219.996900 -1.000004 0.000000 0.000000 0.000000 1.000002 0.000000 0.000000 0.000000 -1.000002 2780.dat
1 0 19.798590 -221.168200 -199.996900 -1.000004 0.000000 0.000000 0.000000 1.000002 0.000000 0.000000 0.000000 -1.000002 2780.dat
1 0 19.798590 -221.168200 -259.997000 -1.000004 0.000000 0.000000 0.000000 1.000002 0.000000 0.000000 0.000000 -1.000002 2780.dat
0 STEP
1 15 9.798510 -161.168000 -199.996900 -0.000001 -1.000003 -0.000001 -0.000001 -0.000001 1.000003 -1.000000 0.000001 -0.000001 64871.dat
0 STEP
1 16 70.000000 -48.000000 -190.000000 1.000000 0.000000 0.000000 0.000000 1.000000 0.000000 0.000000 0.000000 1.000000 submodel group 1
0 STEP
1 14 -4.841900 -61.167700 -199.994800 0.000000 0.000000 -1.000002 0.000000 1.000002 0.000000 1.000000 0.000000 0.000000 32123a.dat
0 STEP
1 19 39.799890 -221.168400 -159.995800 1.000007 0.000001 -0.000001 -0.000001 -0.000001 -1.000002 -0.000001 1.000002 -0.000001 3749.dat
0 STEP
1 4 69.798140 -221.168800 -159.996000 0.000000 0.000000 -1.000002 0.000000 -1.000002 0.000000 -1.000000 0.000000 0.000000 32034.dat
0 STEP
1 19 99.803070 -221.168700 -159.996300 -1.000011 -0.000001 0.000001 0.000001 0.000001 1.000002 -0.000001 1.000005 -0.000001 3749.dat
0 STEP
1 0 57.459920 -221.168400 -239.995900 -1.000010 0.000000 0.000000 0.000000 1.000002 0.000000 0.000000 0.000000 -1.000007 3706.dat
0 STEP
1 71 49.988380 -221.168400 -239.994000 0.000000 0.000000 0.999999 0.000000 -1.000002 0.000000 0.999996 0.000000 0.000000 3649.dat
0 STEP
1 71 70.809970 -221.168400 -299.995900 -1.000002 0.000000 0.000000 0.000000 0.946933 0.321439 0.000000 0.321439 -0.946930 32073.dat
0 STEP
1 72 49.299720 -221.168400 -299.995900 0.000000 0.000000 -1.000003 0.321439 -0.946933 0.000000 -0.946930 -0.321439 0.000000 3647.dat
0 STEP
1 71 70.031180 -221.168900 -299.994300 0.000000 0.000000 -1.000002 0.321439 -0.946933 0.000000 -0.946930 -0.321439 0.000000 3649.dat
0 STEP
1 71 90.120080 -221.168400 -299.995900 -0.000001 0.000000 1.000002 0.321439 0.946933 0.000000 -0.946930 0.321439 -0.000001 3713.dat
0 STEP
1 1 109.803300 -231.168700 -159.996200 0.000000 0.000000 -1.000002 0.000000 1.000002 0.000000 1.000000 0.000000 0.000000 3703.dat
0 STEP
1 0 119.803300 -221.168700 -199.996200 -1.000002 0.000000 0.000000 0.000000 1.000002 0.000000 0.000000 0.000000 -1.000000 2780.dat
1 4 109.803300 -221.168700 -39.996310 -1.000002 -0.000001 0.000001 0.000001 0.000001 1.000002 -0.000001 1.000000 -0.000001 32054.dat
1 4 109.803300 -221.168700 -79.996220 -1.000002 -0.000001 0.000001 0.000001 0.000001 1.000002 -0.000001 1.000000 -0.000001 32054.dat
0 STEP
1 15 129.803500 -161.168500 -199.996300 -0.000001 -1.000002 -0.000001 0.000001 0.000001 -1.000003 1.000000 -0.000001 0.000001 64871.dat
0 STEP
1 14 145.146600 -61.167770 -199.995000 0.000000 0.000000 1.000002 0.000000 -1.000002 0.000000 1.000000 0.000000 0.000000 32123a.dat
0 STEP
1 15 18.001520 -221.237500 -239.999500 0.000000 0.000000 -1.000000 0.000000 1.000000 0.000000 1.000000 0.000000 0.000000 dx0031.dat
0 STEP
1 16 70.000000 0.000000 -430.000000 1.000000 0.000000 0.000000 0.000000 1.000000 0.000000 0.000000 0.000000 1.000000 submodel group 2
0 STEP
0 NOFILE
0 FILE SubModel Group 1
0 SubModel Group 1
0 Name:  SubModel Group 1
0 Author:  
0 CustomBrick
0 NumOfBricks:  21
1 71 -0.068010 -72.655620 37.835600 1.000002 0.000000 0.000000 0.000000 0.130523 -0.991448 0.000000 0.991445 0.130523 4519.dat
1 1 -0.067450 -171.799400 50.889450 1.000002 0.000000 0.000000 0.000000 0.130523 -0.991445 0.000000 0.991445 0.130523 32556.dat
1 1 -0.067200 -226.065900 98.377860 1.000002 0.000000 0.000000 0.000000 0.130523 -0.991445 0.000000 0.991445 0.130523 32556.dat
1 71 -0.067040 -220.845200 138.034900 1.000002 0.000000 0.000000 0.000000 0.130523 -0.991445 0.000000 0.991445 0.130523 4519.dat
1 1 -20.068150 -231.286800 58.720490 0.000000 -1.000002 0.000000 0.130523 0.000000 -0.991444 0.991445 0.000000 0.130523 32009.dat
0 STEP
1 15 -0.067340 -92.483550 40.447200 0.000000 1.000003 0.000001 0.130527 -0.000002 0.991448 0.991445 0.000000 -0.130526 40490.dat
1 1 -0.067040 -220.845200 138.034900 0.000001 1.000002 -0.000001 0.991445 -0.000001 -0.130524 -0.130524 -0.000001 -0.991444 32140.dat
0 STEP
1 1 19.932060 -231.287300 58.719240 0.000000 -1.000002 0.000000 0.130523 0.000000 -0.991448 0.991444 0.000000 0.130523 32009.dat
0 STEP
1 0 0.142680 -13.167680 30.005300 1.000003 0.000000 0.000000 0.000000 1.000004 0.000000 0.000000 0.000000 1.000000 3705.dat
0 STEP
1 14 15.142600 -13.167700 30.005200 0.000000 0.000000 1.000004 0.000000 -1.000004 0.000000 1.000000 0.000000 0.000000 32123a.dat
1 14 -15.267020 -13.167680 30.005100 0.000000 0.000000 1.000003 0.000000 -1.000004 0.000000 1.000000 0.000000 0.000000 32123a.dat
0 STEP
1 15 -29.857210 -13.167840 -109.999900 -0.000001 -0.999996 -0.000001 -0.999998 0.000001 -0.000001 0.000001 0.000001 -0.999998 64871.dat
0 STEP
1 0 -39.851680 -13.167700 -9.994800 1.000006 0.000000 0.000000 0.000000 1.000006 0.000000 0.000000 0.000000 1.000000 3705.dat
0 STEP
1 71 0.143660 -13.170620 -9.994890 0.000001 0.000000 -1.000008 0.000000 1.000008 0.000000 1.000000 0.000000 0.000001 59443.dat
0 STEP
1 0 40.146200 -13.167770 -9.995000 1.000010 0.000000 0.000000 0.000000 1.000008 0.000000 0.000000 0.000000 1.000001 3705.dat
0 STEP
1 1 -29.857570 -13.167780 -109.999700 -1.000003 0.000000 0.000000 0.000000 -1.000004 0.000000 0.000000 0.000000 1.000000 32556.dat
0 STEP
1 4 0.142320 -13.167780 -109.999700 1.000003 0.000000 0.000000 0.000000 1.000004 0.000000 0.000000 0.000000 1.000000 62462.dat
0 STEP
1 1 30.142700 -13.167800 -109.999700 1.000003 0.000000 0.000000 0.000000 1.000004 0.000000 0.000000 0.000000 1.000000 32556.dat
0 STEP
1 15 30.140100 -13.167430 -109.993100 -0.000001 -0.999993 -0.000001 -0.999971 0.000001 -0.000001 0.000001 0.000001 -0.999978 64871.dat
0 STEP
1 14 45.426100 -13.167770 -9.995000 0.000000 0.000000 1.000003 0.000000 -1.000004 0.000000 1.000000 0.000000 0.000000 32123a.dat
1 14 -44.851500 -13.167700 -9.994890 0.000000 0.000000 1.000004 0.000000 -1.000006 0.000000 0.999998 0.000000 0.000000 32123a.dat
0 STEP
0 NOFILE
0 FILE SubModel Group 2
0 SubModel Group 2
0 Name:  SubModel Group 2
0 Author:  
0 CustomBrick
0 NumOfBricks:  46
1 0 -18.588580 -41.167340 10.000880 1.000009 0.000000 0.000000 0.000000 1.000009 0.000000 0.000000 0.000000 1.000000 2780.dat
1 0 -18.588580 -41.167310 -9.999180 1.000009 0.000000 0.000000 0.000000 1.000009 0.000000 0.000000 0.000000 1.000000 2780.dat
1 0 -19.998620 -41.167280 -49.999790 1.000009 0.000000 0.000000 0.000000 1.000009 0.000000 0.000000 0.000000 1.000000 2780.dat
1 0 -19.998620 -41.167310 -89.999690 1.000009 0.000000 0.000000 0.000000 1.000009 0.000000 0.000000 0.000000 1.000000 2780.dat
1 15 -30.299170 -41.167430 -29.999510 0.000001 1.000009 0.000001 -1.000009 0.000001 -0.000001 -0.000001 -0.000001 1.000000 64871.dat
0 STEP
1 1 -9.618199 -101.167900 10.000880 -0.000001 -1.000009 0.000001 0.000001 0.000001 1.000009 -1.000000 0.000001 0.000001 32140.dat
1 1 -9.998380 -51.167360 -70.000110 0.000000 0.000000 1.000009 0.000000 1.000009 0.000000 -1.000000 0.000000 0.000000 3701.dat
0 STEP
1 4 0.381700 -101.167900 10.000880 -1.000009 0.000000 0.000000 0.000000 1.000009 0.000000 0.000000 0.000000 -1.000000 32062.dat
1 0 0.001510 -61.167600 10.000880 1.000009 0.000000 0.000000 0.000000 1.000009 0.000000 0.000000 0.000000 1.000000 2780.dat
1 0 0.001390 -41.167280 -70.000000 1.000009 0.000000 0.000000 0.000000 1.000009 0.000000 0.000000 0.000000 1.000000 2780.dat
0 STEP
1 1 10.001610 -101.167900 10.000880 -0.000001 -1.000009 0.000001 0.000001 0.000001 1.000009 -1.000000 0.000001 0.000001 32140.dat
1 1 10.001550 -51.167360 -70.000110 0.000000 0.000000 1.000009 0.000000 1.000009 0.000000 -1.000000 0.000000 0.000000 3701.dat
0 STEP
1 0 -18.588520 -81.167520 10.000820 1.000009 0.000000 0.000000 0.000000 1.000009 0.000000 0.000000 0.000000 1.000000 2780.dat
0 STEP
1 0 20.001720 -81.167520 10.000820 1.000009 0.000000 0.000000 0.000000 1.000009 0.000000 0.000000 0.000000 1.000000 2780.dat
1 0 20.001550 -41.167340 10.001010 1.000009 0.000000 0.000000 0.000000 1.000009 0.000000 0.000000 0.000000 1.000000 2780.dat
1 0 20.001550 -41.167310 -9.999300 1.000009 0.000000 0.000000 0.000000 1.000009 0.000000 0.000000 0.000000 1.000000 2780.dat
1 0 20.001610 -41.167260 -89.999790 1.000009 0.000000 0.000000 0.000000 1.000009 0.000000 0.000000 0.000000 1.000000 2780.dat
1 0 20.001550 -41.167280 -49.999790 1.000009 0.000000 0.000000 0.000000 1.000009 0.000000 0.000000 0.000000 1.000000 2780.dat
0 STEP
1 15 -29.862520 -81.167300 50.003700 -0.000001 -0.999997 -0.000001 0.999997 -0.000001 0.000001 -0.000001 -0.000001 1.000000 32524.dat
0 STEP
1 0 -39.858390 -81.167460 110.000500 1.000009 0.000000 0.000000 0.000000 1.000009 0.000000 0.000000 0.000000 1.000000 2780.dat
1 0 -40.298940 -41.167500 110.000800 1.000009 0.000000 0.000000 0.000000 1.000009 0.000000 0.000000 0.000000 1.000000 2780.dat
0 STEP
1 15 -49.858680 -61.167520 110.000400 -0.000001 -1.000009 -0.000001 0.000001 0.000001 -1.000009 1.000000 -0.000001 0.000002 32523.dat
0 STEP
1 16 0.000000 -12.000000 70.000000 1.000000 0.000000 0.000000 0.000000 0.996195 0.087156 0.000000 -0.087156 0.996195 submodel group 5
0 STEP
1 16 0.000000 0.000000 -170.000000 1.000000 0.000000 0.000000 0.000000 1.000000 0.000000 0.000000 0.000000 1.000000 submodel group 4
0 STEP
1 15 30.001510 -41.167360 -29.999700 0.000001 1.000009 0.000001 -1.000009 0.000001 -0.000001 -0.000001 -0.000001 1.000000 64871.dat
0 STEP
1 16 0.000000 -60.000000 70.000000 1.000000 0.000000 0.000000 0.000000 0.994522 0.104528 0.000000 -0.104528 0.994522 submodel group 3
0 STEP
1 15 30.000000 -81.167400 50.000000 -0.000001 -1.000000 -0.000001 1.000000 -0.000001 0.000001 -0.000001 -0.000001 1.000000 32524.dat
0 STEP
1 0 40.001510 -81.167380 110.000500 1.000009 0.000000 0.000000 0.000000 1.000009 0.000000 0.000000 0.000000 1.000000 2780.dat
1 0 40.001510 -41.167280 110.000500 1.000009 0.000000 0.000000 0.000000 1.000009 0.000000 0.000000 0.000000 1.000000 2780.dat
0 STEP
1 15 50.003500 -61.167460 110.001200 -0.000001 -1.000009 -0.000001 0.000001 0.000001 -1.000009 1.000000 -0.000001 0.000001 32523.dat
0 STEP
1 71 -79.401170 -41.167570 70.001220 0.000000 0.000000 1.000009 -0.996204 -0.087156 0.000000 0.087156 -0.996194 0.000000 55982.dat
1 0 -79.657890 -41.167300 70.001900 -0.000001 0.000000 1.000009 0.087156 -0.996200 0.000000 0.996194 0.087155 0.000001 30391.dat
1 71 79.393200 -41.167570 70.001100 0.000001 0.000000 -1.000009 -0.996204 0.087156 0.000000 0.087156 0.996194 0.000000 55982.dat
1 0 79.647700 -41.167500 69.999300 0.000001 0.000001 -1.000009 -0.087156 -0.996197 0.000000 -0.996193 0.087156 -0.000001 30391.dat
0 STEP
0 NOFILE
0 FILE SubModel Group 5
0 SubModel Group 5
0 Name:  SubModel Group 5
0 Author:  
0 CustomBrick
0 NumOfBricks:  4
1 0 2.082020 -29.056710 -2.540920 -1.000009 0.000000 0.000000 0.000000 1.000009 0.000000 0.000000 0.000001 -0.999999 3708.dat
1 14 14.870990 -29.056660 -2.541130 0.000000 0.000000 -1.000030 0.000000 -1.000009 0.000000 -1.000021 -0.000001 0.000000 32123a.dat
1 71 -0.147240 -29.056670 -2.551300 0.000000 0.000000 1.000009 0.000000 1.000009 0.000000 -1.000000 0.000001 0.000000 94925.dat
1 14 -15.179320 -29.056660 -2.541130 0.000000 0.000000 -1.000031 0.000000 -1.000009 0.000000 -1.000021 -0.000001 0.000000 32123a.dat
0 NOFILE
0 FILE SubModel Group 4
0 SubModel Group 4
0 Name:  SubModel Group 4
0 Author:  
0 CustomBrick
0 NumOfBricks:  7
1 0 -0.299160 -41.167240 0.000490 -1.000009 0.000000 0.000000 0.000000 1.000009 0.000000 0.000000 0.000000 -1.000000 3705.dat
1 71 4.700840 -41.167240 0.000430 0.000000 0.000000 1.000000 0.000000 -1.000000 0.000000 1.000000 0.000000 0.000000 4185.dat
1 0 4.701350 -41.167240 0.007020 0.000001 0.000000 -1.000012 0.000000 -1.000000 0.000000 -1.000014 0.000000 -0.000001 2815.dat
1 71 -5.539250 -41.167240 0.000490 0.000000 0.000000 1.000000 0.000000 -1.000000 0.000000 1.000000 0.000000 0.000000 4185.dat
1 0 -5.538620 -41.167240 0.003720 0.000001 0.000000 -1.000017 0.000000 -1.000000 0.000000 -1.000019 0.000000 -0.000001 2815.dat
0 STEP
1 14 14.570920 -41.167240 0.000490 0.000000 0.000000 1.000000 0.000000 -1.000000 0.000000 1.000000 0.000000 0.000000 32123a.dat
1 14 -15.299340 -41.167240 0.000490 0.000000 0.000000 1.000000 0.000000 -1.000000 0.000000 1.000000 0.000000 0.000000 32123a.dat
0 STEP
0 NOFILE
0 FILE SubModel Group 3
0 SubModel Group 3
0 Name:  SubModel Group 3
0 Author:  
0 CustomBrick
0 NumOfBricks:  4
1 0 0.001580 -21.051680 -2.212120 -1.000009 0.000000 0.000000 0.000000 0.000003 1.000009 0.000000 0.999999 0.000000 3705.dat
1 14 14.901760 -21.051750 -2.212010 -0.000001 0.000000 -1.000009 1.000009 -0.000003 0.000000 0.000000 -0.999999 0.000000 32123a.dat
1 71 -0.178250 -21.051740 -2.212130 0.000000 0.000000 1.000009 -0.000003 1.000009 0.000000 -0.999999 0.000000 0.000000 94925.dat
1 14 -15.158330 -21.051740 -2.212130 -0.000001 0.000000 -1.000009 1.000009 -0.000003 0.000000 0.000000 -0.999999 0.000000 32123a.dat
0 NOFILE
