0 FILE 扫地机_Copy.io
0 Untitled Model
0 Name:  扫地机_Copy
0 Author:  
0 CustomBrick
1 1 179.999900 -59.904620 -210.000000 0.000000 0.000001 1.000000 0.000000 1.000000 -0.000001 -1.000000 0.000000 0.000000 32001.dat
1 1 169.999800 -83.904540 -210.000000 0.000000 0.000001 1.000000 0.000000 1.000000 -0.000001 -1.000000 0.000000 0.000000 3701.dat
0 STEP
1 1 189.999800 -83.904540 -210.000000 0.000000 0.000001 1.000000 0.000000 1.000000 -0.000001 -1.000000 0.000000 0.000000 3701.dat
0 STEP
1 0 180.659700 -73.904580 -210.000000 1.000000 0.000000 0.000000 0.000000 1.000000 0.000000 0.000000 0.000000 1.000000 3705.dat
0 STEP
1 0 150.659700 -73.904510 -210.000000 0.000000 -0.000001 -1.000000 0.000000 -1.000000 0.000001 -1.000000 0.000000 0.000000 32270.dat
0 STEP
1 0 199.999900 -73.904550 -190.000000 1.000000 0.000001 0.000000 -0.000001 1.000000 0.000000 0.000000 0.000000 1.000000 2780.dat
1 0 199.999900 -73.904550 -230.000000 1.000000 0.000001 0.000000 -0.000001 1.000000 0.000000 0.000000 0.000000 1.000000 2780.dat
0 STEP
1 1 239.999900 -83.904620 -159.689800 1.000000 0.000001 0.000000 -0.000001 1.000000 0.000000 0.000000 0.000000 1.000000 3703.dat
0 STEP
1 15 201.356400 -73.999960 -209.999800 0.000000 0.000002 1.000003 0.000000 0.999992 0.000000 -0.999997 0.000000 0.000000 dx0017.dat
0 STEP
1 0 120.000100 -73.904400 -204.089400 0.000000 0.506173 -0.862432 -0.000001 0.862432 0.506173 1.000000 0.000001 0.000001 3737.dat
0 STEP
1 14 119.999900 -73.904300 -245.489100 0.862433 -0.506171 0.000000 -0.506169 -0.862433 0.000001 -0.000001 -0.000001 -1.000000 32123a.dat
1 19 120.001600 -74.748780 -230.488700 0.862433 -0.506171 0.000000 -0.506171 -0.862433 0.000001 -0.000001 -0.000001 -1.000000 18575.dat
0 STEP
1 1 239.999900 -83.904620 -259.999800 1.000000 0.000001 0.000000 -0.000001 1.000000 0.000000 0.000000 0.000000 1.000000 3703.dat
0 STEP
1 14 120.000000 -73.904540 -144.309200 0.862434 -0.506171 0.000000 -0.506172 -0.862433 0.000001 -0.000001 -0.000001 -1.000000 32123a.dat
1 14 120.000100 -73.904300 -275.139100 0.862434 -0.506171 0.000000 -0.506172 -0.862433 0.000001 -0.000001 -0.000001 -1.000000 32123a.dat
0 STEP
1 1 239.999900 -107.904600 -259.999800 1.000000 0.000001 0.000000 -0.000001 1.000000 0.000000 0.000000 0.000000 1.000000 3703.dat
1 1 239.999900 -107.904600 -159.689800 1.000000 0.000001 0.000000 -0.000001 1.000000 0.000000 0.000000 0.000000 1.000000 3703.dat
0 STEP
1 1 119.999900 -115.904500 -159.689800 1.000000 0.000001 0.000000 -0.000001 1.000000 0.000000 0.000000 0.000000 1.000000 3710.dat
1 1 119.999900 -115.904500 -259.999800 1.000000 0.000001 0.000000 -0.000001 1.000000 0.000000 0.000000 0.000000 1.000000 3710.dat
0 STEP
1 0 379.999600 -97.904720 -250.000000 0.000000 0.000001 -1.000000 0.000000 1.000000 0.000001 1.000000 0.000000 0.000000 2780.dat
1 0 359.999800 -97.904720 -250.000100 0.000000 0.000001 -1.000000 0.000000 1.000000 0.000001 1.000000 0.000000 0.000000 2780.dat
0 STEP
1 0 379.999600 -97.904720 -169.689800 0.000000 0.000001 -1.000000 0.000000 1.000000 0.000001 1.000000 0.000000 0.000000 2780.dat
1 0 359.999800 -97.904720 -169.689800 0.000000 0.000001 -1.000000 0.000000 1.000000 0.000001 1.000000 0.000000 0.000000 2780.dat
0 STEP
1 15 179.999900 -107.904600 -210.000000 0.000000 0.000001 1.000000 0.000000 1.000000 -0.000001 -1.000000 0.000000 0.000000 3001.dat
0 STEP
1 1 179.999800 -115.904600 -209.689900 0.000000 0.000001 1.000000 0.000000 1.000000 -0.000001 -1.000000 0.000000 0.000000 32001.dat
0 STEP
1 15 189.999900 -123.904600 -209.689900 0.000000 0.000001 1.000000 0.000000 1.000000 -0.000001 -1.000000 0.000000 0.000000 2431.dat
1 15 169.999900 -123.904600 -209.689900 0.000000 0.000001 1.000000 0.000000 1.000000 -0.000001 -1.000000 0.000000 0.000000 2431.dat
0 STEP
1 1 319.999700 -115.904700 -159.689800 1.000000 0.000001 0.000000 -0.000001 1.000000 0.000000 0.000000 0.000000 1.000000 3023.dat
1 1 319.999600 -115.904700 -259.999900 1.000000 0.000001 0.000000 -0.000001 1.000000 0.000000 0.000000 0.000000 1.000000 3023.dat
0 STEP
1 1 319.999800 -123.904700 -159.689800 1.000000 0.000001 0.000000 -0.000001 1.000000 0.000000 0.000000 0.000000 1.000000 3023.dat
1 1 319.999800 -123.904700 -259.999900 1.000000 0.000001 0.000000 -0.000001 1.000000 0.000000 0.000000 0.000000 1.000000 3023.dat
0 STEP
1 1 379.999900 -59.904760 -209.689800 0.000000 0.000001 1.000000 0.000000 1.000000 -0.000001 -1.000000 0.000000 0.000000 32001.dat
0 STEP
1 1 319.999700 -131.904700 -209.690000 0.000000 0.000001 1.000000 0.000000 1.000000 -0.000001 -1.000000 0.000000 0.000000 32001.dat
0 STEP
1 0 319.999700 -134.884700 -229.690000 -0.000001 -1.000000 0.000000 -1.000000 0.000001 0.000000 0.000000 0.000000 -1.000000 2780.dat
1 0 319.999600 -135.224700 -189.690000 -0.000001 -1.000000 0.000000 -1.000000 0.000001 0.000000 0.000000 0.000000 -1.000000 2780.dat
0 STEP
1 0 359.999800 -73.904710 -204.580100 0.000000 0.000001 -1.000000 0.000000 1.000000 0.000001 1.000000 0.000000 0.000000 3737.dat
0 STEP
1 14 359.999800 -73.904710 -143.980000 1.000000 -0.000001 0.000000 -0.000001 -1.000000 0.000000 0.000000 0.000000 -1.000000 32123a.dat
1 14 359.999700 -73.904710 -275.029900 1.000000 -0.000001 0.000000 -0.000001 -1.000000 0.000000 0.000000 0.000000 -1.000000 32123a.dat
0 STEP
1 71 359.999800 -73.904710 -115.080100 1.000000 0.000001 0.000000 -0.000001 1.000000 0.000000 0.000000 0.000000 1.000000 56145.dat
1 0 359.999800 -73.904710 -115.080100 -0.000001 -1.000000 0.000000 -1.000000 0.000001 0.000000 0.000000 0.000000 -1.000000 44309.dat
1 71 120.000100 -73.904510 -116.079400 0.506173 -0.862432 0.000001 0.862432 0.506173 0.000000 0.000000 0.000001 1.000000 56145.dat
1 0 119.999500 -73.905140 -116.077200 0.862432 -0.506172 -0.000001 -0.506172 -0.862428 0.000000 -0.000001 0.000000 -1.000000 44309.dat
0 STEP
1 14 359.999800 -73.904710 -104.890000 1.000000 -0.000001 0.000000 -0.000001 -1.000000 0.000000 0.000000 0.000000 -1.000000 32123a.dat
1 14 120.000100 -73.904510 -108.059400 0.862433 -0.506171 0.000000 -0.506171 -0.862433 0.000001 -0.000001 -0.000001 -1.000000 32123a.dat
0 STEP
1 71 359.999800 -73.904710 -299.040000 -1.000000 0.000001 0.000000 0.000001 1.000000 0.000000 0.000000 0.000000 -1.000000 56145.dat
1 71 120.000000 -73.904280 -298.709300 -0.862432 0.506173 -0.000001 0.506173 0.862432 0.000000 0.000001 -0.000001 -1.000000 56145.dat
1 0 120.000300 -73.904660 -298.711500 -0.506172 0.862429 0.000001 -0.862429 -0.506170 0.000000 0.000001 -0.000001 1.000000 44309.dat
1 0 359.999200 -73.904700 -299.041200 -0.000001 0.999994 0.000000 -0.999996 0.000000 0.000000 0.000000 0.000000 1.000000 44309.dat
0 STEP
1 14 120.000000 -73.904330 -309.089300 0.862433 -0.506172 0.000000 -0.506172 -0.862433 0.000001 -0.000001 -0.000001 -1.000000 32123a.dat
1 14 359.999600 -73.904700 -307.250000 1.000000 -0.000001 0.000000 -0.000001 -1.000000 0.000001 0.000000 -0.000001 -1.000000 32123a.dat
0 STEP
1 16 10.000000 -36.000000 -210.000000 1.000000 0.000000 0.000000 0.000000 1.000000 0.000000 0.000000 0.000000 1.000000 submodel group 1
0 STEP
0 NOFILE
0 FILE SubModel Group 1
0 SubModel Group 1
0 Name:  SubModel Group 1
0 Author:  
0 CustomBrick
1 0 109.999100 -165.174400 -19.689700 0.000002 1.000000 0.000001 -0.999975 0.000000 0.000000 0.000000 0.000000 0.999974 2780.dat
1 0 109.998900 -165.174400 20.309690 0.000002 1.000000 0.000001 -0.999975 0.000000 0.000000 0.000000 0.000000 0.999974 2780.dat
1 72 157.465700 -134.601900 -68.278880 1.000000 0.000000 0.000000 0.000000 1.000000 0.000000 0.000000 0.000000 1.000000 dch003.dat
1 71 119.999100 -95.174900 10.310310 1.000000 0.000000 0.000000 0.000000 1.000000 0.000000 0.000000 0.000000 1.000000 dch004.dat
1 25 155.302700 -134.566900 -82.892400 1.000000 0.000000 0.000000 0.000000 1.000000 0.000000 0.000000 0.000000 1.000000 dch005.dat
0 STEP
1 0 110.000200 -145.802900 0.310210 0.000002 0.089706 -0.995968 -1.000003 0.000000 0.000000 0.000000 0.995971 0.089705 3707.dat
1 72 109.999100 -170.174300 0.310100 -0.000001 0.000002 -0.999998 0.000000 -0.999975 0.000000 -0.999970 0.000000 0.000001 99773.dat
0 STEP
1 72 110.010400 -180.174200 0.307800 -0.000001 0.000002 -0.999993 0.000000 -0.999975 0.000000 -0.999968 0.000000 0.000000 99773.dat
0 STEP
1 0 70.000340 -185.174100 0.310010 0.000002 1.000000 0.000001 -0.999975 0.000000 0.000000 0.000000 0.000000 0.999975 2780.dat
0 STEP
1 15 70.000580 -195.173500 0.310210 0.000000 0.000001 1.000000 -0.000001 -1.000008 -0.000001 1.000006 -0.000001 0.000000 64871.dat
1 19 50.000460 -205.173100 0.310300 0.000001 0.996194 -0.087155 -1.000008 -0.000001 0.000001 0.000001 0.087155 0.996201 3749.dat
0 STEP
1 71 110.000500 -215.803400 0.310300 0.995968 -0.089706 -0.000002 0.000000 0.000000 1.000003 -0.089705 -0.995971 0.000000 3649.dat
0 STEP
1 72 50.000220 -215.173500 0.310300 -0.087155 -0.996195 0.000002 0.000000 0.000000 -1.000008 0.996202 -0.087154 0.000000 3647.dat
0 STEP
1 0 10.000460 -214.843200 0.310210 0.000002 -0.139172 -0.990268 -1.000008 0.000000 0.000000 0.000000 0.990276 -0.139173 3705.dat
1 72 10.000460 -214.943300 0.310300 0.990269 0.139172 -0.000002 0.000000 0.000000 1.000008 0.139173 -0.990276 0.000000 3648b.dat
0 STEP
1 14 10.000330 -180.173200 0.310010 0.990268 0.139172 -0.000002 0.000000 0.000001 1.000008 0.139173 -0.990276 0.000001 32123a.dat
0 STEP
1 72 -49.998430 -214.992600 0.309800 0.999999 -0.000001 -0.000002 0.000000 0.000000 1.000003 -0.000001 -1.000002 0.000000 3648b.dat
0 STEP
1 16 -50.000000 -12.000000 0.000000 1.000000 0.000000 0.000000 0.000000 1.000000 0.000000 0.000000 0.000000 1.000000 submodel group 6
0 STEP
1 15 -29.999280 -234.913300 0.310010 0.000002 -0.000001 -1.000000 0.000001 1.000008 0.000001 1.000006 -0.000001 0.000001 32316.dat
0 STEP
1 14 -49.999290 -249.743200 0.310010 1.000000 -0.000001 -0.000002 0.000000 0.000001 1.000008 -0.000001 -1.000006 0.000001 32123a.dat
1 14 10.000460 -249.843100 0.310210 0.990268 0.139172 -0.000002 0.000000 0.000001 1.000008 0.139173 -0.990276 0.000001 32123a.dat
0 STEP
1 14 -49.999780 -19.171840 0.310210 1.000000 -0.000001 -0.000002 0.000000 0.000001 1.000008 -0.000001 -1.000006 0.000001 32123a.dat
0 STEP
1 4 -70.000140 -26.251820 0.310210 0.000002 0.000001 -1.000000 -1.000008 0.000000 0.000000 0.000000 1.000006 0.000001 32062.dat
1 4 -50.000140 -26.171860 20.310810 0.000002 1.000000 0.000001 -1.000008 0.000000 0.000000 0.000000 -0.000001 1.000006 32062.dat
1 4 -29.999770 -26.721860 0.310010 0.000002 -0.000001 1.000002 -1.000010 0.000000 0.000000 0.000000 -1.000006 -0.000001 32062.dat
1 4 -50.000260 -27.011780 -19.690890 0.000002 -1.000000 -0.000001 -1.000008 0.000000 0.000000 0.000000 0.000001 -1.000006 32062.dat
0 STEP
1 4 -89.997210 -16.250960 0.310300 0.000002 0.000002 -0.999998 -1.000006 0.000000 0.000000 0.000000 1.000006 0.000002 32039.dat
1 4 -99.999400 -16.251710 0.310300 -1.000000 0.000001 -0.000002 0.000000 0.000000 1.000008 0.000001 1.000006 0.000000 32062.dat
1 4 -50.010520 -16.173450 40.310580 0.000002 1.000000 0.000002 -1.000007 0.000000 0.000000 0.000000 -0.000002 1.000006 32039.dat
1 4 -50.000020 -16.171860 50.311490 0.000001 1.000000 -0.000002 0.000000 0.000000 1.000008 1.000006 -0.000001 0.000000 32062.dat
1 4 -49.989890 -17.013520 -39.690600 0.000002 -1.000000 -0.000002 -1.000007 0.000000 0.000000 0.000000 0.000002 -1.000006 32039.dat
1 4 -50.000260 -17.011810 -49.691410 -0.000001 -1.000000 -0.000002 0.000000 0.000000 1.000008 -1.000006 0.000001 0.000000 32062.dat
1 16 0.000000 -12.000000 0.000000 1.000000 0.000000 0.000000 0.000000 1.000000 0.000000 0.000000 0.000000 1.000000 submodel group 2
0 STEP
1 4 -50.000260 -17.011300 -79.692600 0.000000 -0.000001 1.000000 -0.000001 1.000008 -0.000001 -1.000007 -0.000001 0.000000 32054.dat
1 4 -129.999200 -16.250720 0.309800 -1.000000 -0.000003 0.000000 -0.000001 1.000002 -0.000001 0.000000 -0.000001 -0.999997 32054.dat
1 4 29.999240 -16.720290 0.310590 1.000002 -0.000001 0.000000 -0.000001 1.000002 -0.000001 0.000000 0.000001 0.999994 32054.dat
1 4 -50.000020 -16.171890 80.311500 0.000000 -0.000001 -1.000000 -0.000001 1.000000 -0.000001 1.000000 0.000001 0.000000 32054.dat
0 STEP
1 1 109.996700 -95.902790 0.308300 0.000000 -0.000002 1.000003 0.000000 1.000008 0.000000 -1.000009 0.000000 0.000000 32001.dat
0 STEP
1 1 110.000000 -87.902710 0.310210 0.000000 -0.000002 1.000000 0.000000 1.000008 0.000000 -1.000006 0.000000 0.000000 32001.dat
0 STEP
1 0 110.000200 -69.472700 0.310300 0.089705 -0.995968 0.000002 0.000000 0.000000 -1.000008 0.995975 0.089705 0.000000 32270.dat
0 STEP
0 NOFILE
0 FILE SubModel Group 6
0 SubModel Group 6
0 Name:  SubModel Group 6
0 Author:  
0 CustomBrick
0 NumOfBricks:  7
1 71 0.000220 -42.552360 0.310010 1.000000 0.000001 0.000003 0.000001 0.000000 -1.000008 -0.000001 1.000006 0.000000 3713.dat
1 71 0.000220 -22.552890 0.300400 1.000000 -0.000001 -0.000002 0.000000 0.000000 0.999975 -0.000001 -0.999973 0.000000 3649.dat
1 0 0.000470 -122.742400 0.310010 0.000002 0.000001 -1.000000 -1.000008 0.000000 0.000000 0.000000 1.000006 0.000001 3708.dat
0 STEP
1 71 0.000340 -102.662200 0.310010 1.000000 0.000001 0.000003 0.000001 0.000000 -1.000008 -0.000001 1.000006 0.000000 3713.dat
1 4 0.000100 -72.472200 0.310010 0.000002 0.000001 -1.000000 -1.000008 0.000000 0.000000 0.000000 1.000006 0.000001 62462.dat
0 STEP
1 4 0.000220 -132.672400 0.310010 0.000002 0.000001 -1.000000 -1.000008 0.000000 0.000000 0.000000 1.000006 0.000001 62462.dat
0 STEP
1 71 0.000470 -162.983000 0.309910 1.000000 0.000001 0.000003 0.000001 0.000000 -1.000008 -0.000001 1.000006 0.000000 3713.dat
0 STEP
0 NOFILE
0 FILE SubModel Group 2
0 SubModel Group 2
0 Name:  SubModel Group 2
0 Author:  
0 CustomBrick
0 NumOfBricks:  2
1 4 -10.006000 -4.721500 0.310300 0.000002 -0.000002 0.999998 -1.000006 0.000000 0.000000 0.000000 -1.000006 -0.000002 32039.dat
1 4 0.000090 -4.721980 0.310300 1.000002 -0.000001 -0.000002 0.000000 0.000000 1.000010 -0.000001 -1.000007 0.000000 32062.dat
0 NOFILE
