0 FILE 起重车.io
0 Untitled Model
0 Name:  起重车
0 Author:  
0 CustomBrick
0 NumOfBricks:  50
1 1 -103.340900 -96.000260 -44.579540 0.000000 0.000000 0.999999 0.000000 1.000000 -0.000003 -1.000000 0.000000 0.000000 3701.dat
1 1 -103.340800 -72.000270 -44.579540 0.000000 0.000000 0.999999 0.000000 1.000000 -0.000003 -1.000000 0.000000 0.000000 3702.dat
0 STEP
1 0 -73.370890 -86.000350 -44.579560 -0.999999 0.000000 0.000000 0.000003 1.000000 0.000000 0.000000 0.000000 -1.000000 3706.dat
1 71 -73.290940 -86.000350 -44.579560 0.000000 0.000000 0.999999 0.000000 1.000000 -0.000003 -1.000000 0.000000 0.000000 4716.dat
0 STEP
1 1 -43.340840 -96.000420 -44.579560 0.000000 0.000000 0.999999 0.000000 1.000000 -0.000003 -1.000000 0.000000 0.000000 3701.dat
1 1 -43.340840 -72.000430 -44.579560 0.000000 0.000000 0.999999 0.000000 1.000000 -0.000003 -1.000000 0.000000 0.000000 3702.dat
0 STEP
1 71 -23.371200 -86.000430 -44.579560 0.000001 0.000000 -0.999999 0.000000 1.000000 0.000003 1.000000 0.000000 0.000001 3713.dat
0 STEP
1 71 -123.070900 -86.000240 -44.579540 0.000001 -0.999999 0.000001 1.000000 0.000003 0.000001 -0.000001 0.000001 1.000000 33299.dat
1 4 -153.070900 -86.000110 -4.579540 -0.999999 0.000000 0.000000 0.000003 1.000000 0.000000 0.000000 0.000000 -1.000000 62462.dat
0 STEP
1 1 -73.340920 -104.000300 -14.579560 0.999999 0.000000 0.000000 -0.000003 1.000000 0.000000 0.000000 0.000000 1.000000 3710.dat
1 1 -73.340920 -104.000300 -74.579560 0.999999 0.000000 0.000000 -0.000003 1.000000 0.000000 0.000000 0.000000 1.000000 3710.dat
0 STEP
1 1 -73.340920 -112.000300 -14.579560 0.999999 0.000000 0.000000 -0.000003 1.000000 0.000000 0.000000 0.000000 1.000000 3023.dat
1 1 -73.340920 -112.000300 -74.579560 0.999999 0.000000 0.000000 -0.000003 1.000000 0.000000 0.000000 0.000000 1.000000 3023.dat
0 STEP
1 16 -70.000000 -96.000000 -50.000000 1.000000 0.000000 0.000000 0.000000 1.000000 0.000000 0.000000 0.000000 1.000000 submodel group 2
0 STEP
1 1 46.658820 -206.000600 -94.769640 -0.799999 0.000000 -0.600000 -0.599999 0.000000 0.800001 0.000000 1.000000 0.000000 6629.dat
0 STEP
1 1 46.658840 -206.000600 6.000380 -0.799999 0.000000 -0.600000 -0.599999 0.000000 0.800001 0.000000 1.000000 0.000000 6629.dat
0 STEP
1 0 34.658830 -190.000500 -84.769640 0.000000 0.000000 -0.999999 0.000000 1.000000 0.000003 1.000000 0.000000 0.000000 2780.dat
1 0 10.658850 -158.000500 -84.769640 0.000000 0.000000 -0.999999 0.000000 1.000000 0.000003 1.000000 0.000000 0.000000 2780.dat
0 STEP
1 0 34.658840 -190.000500 -3.999620 0.000000 0.000000 -0.999999 0.000000 1.000000 0.000003 1.000000 0.000000 0.000000 2780.dat
1 0 10.658860 -158.000500 -3.999620 0.000000 0.000000 -0.999999 0.000000 1.000000 0.000003 1.000000 0.000000 0.000000 2780.dat
0 STEP
1 1 14.618750 -180.080900 -74.769630 0.603207 0.797583 0.000000 -0.797586 0.603206 0.000000 0.000000 0.000000 1.000000 3701.dat
1 1 14.618880 -180.080800 -13.999620 0.603207 0.797583 0.000000 -0.797586 0.603205 0.000000 0.000000 0.000000 1.000000 3701.dat
0 STEP
1 1 -3.825930 -168.954800 -43.999530 0.000000 0.797583 0.603207 0.000000 0.603206 -0.797586 -1.000000 0.000000 0.000000 32001.dat
1 1 50.811240 -227.936000 -43.999540 0.603207 0.797583 0.000000 -0.797586 0.603206 0.000000 0.000000 0.000000 1.000000 3738.dat
0 STEP
1 1 20.302280 -200.858200 -43.999540 0.000000 0.797583 0.603207 0.000000 0.603206 -0.797586 -1.000000 0.000000 0.000000 32001.dat
1 1 44.430560 -232.761600 -43.999610 0.000000 0.797583 0.603207 0.000000 0.603206 -0.797586 -1.000000 0.000000 0.000000 32001.dat
0 STEP
1 1 38.049890 -237.587200 6.000450 0.603207 0.797583 0.000000 -0.797586 0.603206 0.000000 0.000000 0.000000 1.000000 3710.dat
1 1 38.049880 -237.587200 -93.999620 0.603207 0.797583 0.000000 -0.797586 0.603206 0.000000 0.000000 0.000000 1.000000 3710.dat
0 STEP
1 1 -29.000000 -175.456000 -44.000000 0.000000 0.797585 0.603207 0.000000 0.603207 -0.797585 -1.000000 0.000000 0.000000 3894.dat
1 1 -10.903800 -199.383400 -93.999560 0.603207 0.797583 0.000000 -0.797586 0.603206 0.000000 0.000000 0.000000 1.000000 3700.dat
1 1 -10.903850 -199.383500 6.000450 0.603207 0.797583 0.000000 -0.797586 0.603206 0.000000 0.000000 0.000000 1.000000 3700.dat
0 STEP
1 15 0.811590 -228.136700 6.000450 0.000000 0.797583 -0.603207 0.000000 0.603206 0.797586 1.000000 0.000000 0.000000 3040b.dat
1 15 0.811700 -228.136700 -93.999620 0.000000 0.797583 -0.603207 0.000000 0.603206 0.797586 1.000000 0.000000 0.000000 3040b.dat
0 STEP
1 16 -70.000000 0.000000 -40.000000 1.000000 0.000000 0.000000 0.000000 1.000000 0.000000 0.000000 0.000000 1.000000 submodel group 1
0 STEP
0 STEP
0 NOFILE
0 FILE SubModel Group 2
0 SubModel Group 2
0 Name:  SubModel Group 2
0 Author:  
0 CustomBrick
0 NumOfBricks:  6
1 1 -3.340910 -40.000340 35.420440 0.999999 0.000000 0.000000 -0.000003 1.000000 0.000000 0.000000 0.000000 1.000000 3700.dat
1 0 -3.340920 -30.000370 5.320480 0.000000 0.000000 0.999999 0.000000 1.000000 -0.000003 -1.000000 0.000000 0.000000 3706.dat
0 STEP
1 14 -3.340910 -30.000370 20.320480 0.999999 0.000000 0.000000 -0.000003 1.000000 0.000000 0.000000 0.000000 1.000000 32123a.dat
1 72 -3.340920 -30.000370 5.140480 0.999999 0.000000 0.000000 -0.000003 -1.000000 0.000000 0.000000 0.000000 -1.000000 3648b.dat
0 STEP
1 1 -3.340920 -40.000340 -24.579550 0.999999 0.000000 0.000000 -0.000003 1.000000 0.000000 0.000000 0.000000 1.000000 3700.dat
1 14 -3.340920 -30.000370 -9.359520 0.999999 0.000000 0.000000 -0.000003 1.000000 0.000000 0.000000 0.000000 1.000000 32123a.dat
0 STEP
0 NOFILE
0 FILE SubModel Group 1
0 SubModel Group 1
0 Name:  SubModel Group 1
0 Author:  
0 CustomBrick
0 NumOfBricks:  12
1 1 -3.340940 -48.000350 -74.579560 0.999999 0.000000 0.000000 -0.000003 1.000000 0.000000 0.000000 0.000000 1.000000 3895.dat
1 0 96.658950 -38.000600 -5.689530 0.000000 0.000000 0.999999 0.000000 1.000000 -0.000003 -1.000000 0.000000 0.000000 3737.dat
0 STEP
1 0 96.659850 -38.000580 -105.136300 0.000000 -0.999999 0.000000 1.000000 0.000003 0.000001 -0.000001 0.000000 1.000000 30391.dat
1 71 96.658820 -38.000580 -104.879400 -1.000000 0.000000 0.000000 0.000003 -1.000002 0.000000 0.000000 0.000000 1.000000 55982.dat
0 STEP
1 0 -103.340700 -38.000120 -3.759400 0.000000 0.000000 0.999999 0.000000 1.000000 -0.000003 -1.000000 0.000000 0.000000 3737.dat
1 0 -103.342200 -38.000100 -105.336100 0.000000 -0.999999 0.000000 1.000000 0.000003 0.000001 -0.000001 0.000000 1.000000 30391.dat
1 71 -103.340700 -38.000110 -105.079300 -0.999999 0.000000 0.000000 0.000003 -1.000000 0.000000 0.000000 0.000000 1.000000 55982.dat
0 STEP
1 1 -3.340800 -48.000360 65.420460 0.999999 0.000000 0.000000 -0.000003 1.000000 0.000000 0.000000 0.000000 1.000000 3895.dat
0 STEP
1 0 -103.340700 -38.000140 97.297220 0.000000 0.999999 0.000000 1.000000 -0.000003 0.000001 0.000001 0.000000 -1.000000 30391.dat
1 71 -103.340700 -38.000140 97.040500 0.999999 0.000000 0.000000 -0.000003 -1.000000 0.000000 0.000000 0.000000 -1.000000 55982.dat
1 0 96.658790 -38.000610 95.777000 0.000000 0.999999 0.000000 1.000000 -0.000003 0.000001 0.000001 0.000000 -1.000000 30391.dat
1 71 96.658960 -38.000610 95.520370 0.999999 0.000000 0.000000 -0.000003 -1.000000 0.000000 0.000000 0.000000 -1.000000 55982.dat
0 STEP
0 NOFILE
