0 Untitled Model
0 Name:  打蛋器
0 Author:  
0 CustomBrick
0 NumOfBricks:  31
1 0 -460.000000 -14.000000 -100.000000 0.000000 0.000000 -1.000000 0.000000 -1.000000 0.000000 -1.000000 0.000000 0.000000 2780.dat
1 0 -300.000000 -14.000020 -99.999980 0.000000 0.000000 -1.000000 0.000000 -1.000000 0.000000 -1.000000 0.000000 0.000000 2780.dat
1 1 -359.999900 -23.999880 -110.000500 1.000000 0.000000 0.000000 0.000000 1.000003 0.000000 0.000000 0.000000 1.000003 3895.dat
0 STEP
1 1 -360.000000 -24.000020 -89.999980 1.000000 0.000000 0.000000 0.000000 1.000000 0.000000 0.000000 0.000000 1.000000 3895.dat
0 STEP
1 0 -259.999900 -13.999810 -80.860370 0.000000 0.000000 -1.000000 0.000000 -1.000003 0.000000 -1.000003 0.000000 0.000000 2780.dat
1 0 -259.999900 -13.999810 -120.000400 0.000000 0.000000 -1.000000 0.000000 -1.000003 0.000000 -1.000003 0.000000 0.000000 2780.dat
0 STEP
1 1 -119.999800 -23.999770 -130.000400 1.000000 0.000000 0.000000 0.000000 1.000003 0.000000 0.000000 0.000000 1.000003 3703.dat
0 STEP
1 71 -139.999800 -13.999760 -150.630500 0.763795 0.645459 0.000001 0.645460 -0.763798 0.000000 0.000001 0.000000 -1.000003 3713.dat
1 0 -139.999800 -13.999760 -120.490400 0.000000 0.645459 0.763795 0.000000 -0.763798 0.645460 1.000003 0.000000 0.000000 3706.dat
0 STEP
1 71 -139.999800 -13.999760 -170.580500 -0.645458 -0.000001 -0.763796 0.763799 0.000000 -0.645459 0.000001 -1.000003 0.000001 33299.dat
1 4 -170.551800 -39.818170 -200.580600 0.000000 0.645459 0.763795 0.000000 -0.763798 0.645460 1.000003 0.000000 0.000000 62462.dat
0 STEP
1 71 -139.999900 -14.000250 -111.320400 0.763795 -0.645459 0.000000 0.645461 0.763798 0.000000 0.000000 0.000000 1.000003 3649.dat
0 STEP
1 0 -79.999860 -13.999730 -101.160300 0.000000 0.000000 1.000000 0.000000 -1.000003 0.000000 1.000003 0.000000 0.000000 3705.dat
1 72 -79.999860 -13.999730 -111.160400 0.000000 -1.000000 0.000000 1.000003 0.000000 0.000000 0.000000 0.000000 1.000003 3647.dat
0 STEP
1 71 -79.999860 -13.999730 -91.500240 1.000000 0.000000 0.000000 0.000000 1.000003 0.000000 0.000000 0.000000 1.000003 3649.dat
0 STEP
1 71 -19.999700 -14.000070 -109.390400 0.889418 -0.457095 0.000000 -0.457097 -0.889421 0.000000 0.000000 -0.000001 -1.000003 3713.dat
1 0 -19.999820 -14.000200 -59.590210 0.000000 -0.457095 0.889418 0.000000 -0.889421 -0.457097 1.000003 0.000000 0.000000 3737.dat
0 STEP
1 71 -19.999700 -14.000190 -149.510400 0.889418 0.457095 0.000000 -0.457097 0.889421 0.000001 0.000000 -0.000001 1.000003 3713.dat
1 72 -19.999700 -14.000190 -89.260260 0.457095 -0.889418 0.000000 0.889421 0.457097 0.000000 0.000000 0.000000 1.000003 3647.dat
0 STEP
1 1 -119.999800 -23.999770 -70.860160 1.000000 0.000000 0.000000 0.000000 1.000003 0.000000 0.000000 0.000000 1.000003 3703.dat
0 STEP
1 1 -259.999800 0.000230 -100.000300 0.000000 0.000000 1.000000 0.000000 1.000003 0.000000 -1.000003 0.000000 0.000000 3709b.dat
1 1 -259.999900 -31.999850 -100.860400 0.000000 0.000000 1.000000 0.000000 1.000003 0.000000 -1.000003 0.000000 0.000000 3709b.dat
0 STEP
1 1 20.000080 -32.000210 -100.000300 0.000000 0.000000 1.000000 0.000000 1.000003 0.000000 -1.000003 0.000000 0.000000 3709b.dat
1 1 20.000080 -0.000030 -100.000300 0.000000 0.000000 1.000000 0.000000 1.000003 0.000000 -1.000003 0.000000 0.000000 3709b.dat
0 STEP
1 71 -19.999700 -14.000200 -11.010060 0.889418 -0.457095 0.000000 -0.457097 -0.889421 0.000000 0.000000 0.000000 -1.000003 3713.dat
0 STEP
1 71 -19.999820 -14.000200 8.409930 -0.889418 -0.457095 0.000000 0.457097 -0.889421 0.000000 0.000000 0.000000 1.000003 3650c.dat
0 STEP
1 72 -19.999820 -14.000220 30.790060 0.889418 0.457095 0.000000 -0.457097 0.889421 0.000000 0.000000 0.000000 1.000003 3648b.dat
0 STEP
1 1 -6.534880 -9.676950 50.790120 0.000000 0.000000 1.000000 0.000000 -1.000003 0.000000 1.000003 0.000000 0.000000 6558.dat
1 1 -24.323090 -0.534970 50.790120 0.000000 0.000000 1.000000 0.000000 -1.000003 0.000000 1.000003 0.000000 0.000000 6558.dat
0 STEP
1 19 -15.676600 -27.465320 50.790120 0.000000 0.000000 1.000000 0.000000 -1.000003 0.000000 1.000003 0.000000 0.000000 32556.dat
1 19 -33.464940 -18.323330 50.790120 0.000000 0.000000 1.000000 0.000000 -1.000003 0.000000 1.000003 0.000000 0.000000 32556.dat
0 STEP
0 STEP
