0 FILE 电子停车起落架.io
0 Untitled Model
0 Name:  电子停车起落架
0 Author:  
0 CustomBrick
0 NumOfBricks:  60
1 16 -0.000570 -172.406200 -79.999970 -0.000001 -0.999995 0.000000 0.999998 0.000000 0.000000 0.000000 0.000000 1.000000 submodel group 9 copy copy copy
1 0 49.999940 -10.000020 -120.000000 0.000000 0.000000 -1.000002 0.000000 1.000002 0.000000 1.000000 0.000000 0.000000 2780.dat
1 0 90.000030 -9.999980 -120.000000 0.000000 0.000000 -1.000002 0.000000 1.000002 0.000000 1.000000 0.000000 0.000000 2780.dat
0 STEP
1 0 90.000030 -9.999969 -60.000000 0.000000 0.000000 -1.000002 0.000000 1.000002 0.000000 1.000000 0.000000 0.000000 2780.dat
1 0 49.999920 -9.999969 -60.000000 0.000000 0.000000 -1.000002 0.000000 1.000002 0.000000 1.000000 0.000000 0.000000 2780.dat
0 STEP
1 15 9.999810 -9.999929 -50.000000 -0.000001 -0.000001 1.000002 -1.000002 0.000001 -0.000001 -0.000001 -1.000000 -0.000001 64871.dat
1 0 -70.000270 -10.000140 -59.999810 0.000000 0.000000 -1.000002 0.000000 1.000002 0.000000 1.000000 0.000000 0.000000 2780.dat
1 0 -30.000290 -9.999909 -59.999870 0.000000 0.000000 -1.000002 0.000000 1.000002 0.000000 1.000000 0.000000 0.000000 2780.dat
0 STEP
1 16 -50.000000 0.000000 -90.000000 1.000000 0.000000 0.000000 0.000000 1.000000 0.000000 0.000000 0.000000 1.000000 submodel group 1
0 STEP
1 0 -70.000270 -10.000150 -119.999900 0.000000 0.000000 -1.000002 0.000000 1.000002 0.000000 1.000000 0.000000 0.000000 2780.dat
1 0 -30.000290 -10.000110 -119.999900 0.000000 0.000000 -1.000002 0.000000 1.000002 0.000000 1.000000 0.000000 0.000000 2780.dat
1 15 9.999849 -10.000050 -129.999900 0.000001 0.000001 -1.000002 -1.000002 0.000001 -0.000001 0.000001 1.000000 0.000001 64871.dat
0 STEP
1 0 29.999910 -220.000200 -70.000000 0.000000 0.139172 0.990268 -1.000000 0.000000 0.000000 0.000000 -0.990268 0.139172 2780.dat
1 0 110.000000 -220.000200 -70.000110 0.000000 0.139172 0.990268 -1.000000 0.000000 0.000000 0.000000 -0.990268 0.139172 2780.dat
0 STEP
1 0 89.999980 -240.000200 -70.000110 0.000000 0.139173 0.990268 -1.000000 0.000000 0.000000 0.000000 -0.990268 0.139172 2780.dat
1 0 49.999960 -240.000200 -70.000110 0.000000 0.139172 0.990268 -1.000000 0.000000 0.000000 0.000000 -0.990268 0.139172 2780.dat
1 1 69.999980 -230.000200 -60.000120 -1.000000 0.000000 0.000000 0.000000 0.000000 -1.000000 0.000000 -1.000000 0.000000 3894.dat
0 STEP
1 1 69.999980 -250.000200 -60.000120 -1.000000 0.000000 0.000000 0.000000 0.000000 -1.000000 0.000000 -1.000000 0.000000 3894.dat
0 STEP
1 1 69.999980 -240.000200 -52.000120 -1.000000 0.000000 0.000000 0.000000 0.000000 -1.000000 0.000000 -1.000000 0.000000 32001.dat
1 1 69.999980 -240.000200 -44.000120 -1.000000 0.000000 0.000000 0.000000 0.000000 -1.000000 0.000000 -1.000000 0.000000 32001.dat
0 STEP
1 1 90.000000 -180.000200 -36.000120 0.000000 0.000000 -1.000000 1.000000 0.000000 0.000000 0.000000 -1.000000 0.000000 3738.dat
1 1 49.999820 -180.000100 -36.000300 0.000000 0.000000 -1.000000 1.000000 0.000000 0.000000 0.000000 -1.000000 0.000000 3738.dat
0 STEP
1 71 -50.000190 -110.000300 -110.999900 0.990270 -0.139173 0.000001 0.139173 0.990270 0.000000 -0.000001 0.000000 1.000000 3713.dat
1 71 -50.000190 -110.000300 -70.999870 0.000000 -0.139173 0.990270 0.000000 0.990270 0.139173 -1.000000 0.000000 0.000000 32073.dat
0 STEP
1 72 -50.000390 -110.000400 -70.700980 -0.139173 -0.990271 0.000000 0.990270 -0.139173 0.000000 0.000000 0.000000 1.000002 3648b.dat
0 STEP
1 19 -50.000200 -170.000500 -79.999810 -0.000001 -0.000003 -1.000001 0.000001 1.000001 -0.000003 1.000000 -0.000001 -0.000001 3749.dat
1 71 -50.000200 -170.000500 -68.000000 0.000003 -1.000002 0.000000 -1.000002 -0.000002 -0.000003 0.000003 0.000000 -1.000000 3650c.dat
0 STEP
1 0 -50.000100 -250.000700 -99.999870 0.000000 -1.000002 0.000000 0.000000 0.000000 -1.000002 1.000000 0.000000 0.000000 2780.dat
1 0 -50.000020 -290.000700 -99.999630 0.000000 -1.000002 0.000000 0.000000 0.000000 -1.000002 1.000000 0.000000 0.000000 2780.dat
1 19 -50.000100 -210.000600 -79.999810 -0.000001 0.906309 -0.422619 0.000001 0.422619 0.906310 1.000000 0.000001 -0.000001 3749.dat
0 STEP
1 15 -50.000280 -269.791600 -101.999900 -0.999995 0.000000 0.000000 0.000000 0.999998 0.000000 0.000000 0.000000 -1.000000 dx0058.dat.dat
1 71 -50.000100 -270.000500 -90.209830 0.000000 -1.000002 0.000000 0.000000 0.000000 1.000002 -1.000000 0.000000 0.000000 4519.dat
0 STEP
1 72 -50.000100 -210.000600 -69.999810 -0.422618 -0.906310 0.000000 0.906310 -0.422618 0.000001 0.000000 0.000001 1.000000 3647.dat
1 71 -50.000100 -270.000500 -69.649840 1.000002 0.000000 0.000000 0.000000 1.000002 0.000000 0.000000 0.000000 1.000000 3649.dat
0 STEP
1 71 -50.000190 -110.000400 -31.000000 -0.139172 -0.000001 -0.990270 0.990270 0.000001 -0.139172 0.000001 -1.000000 0.000001 33299.dat
1 15 -188.637800 -129.484800 -50.999820 0.139174 0.000001 -0.990270 -0.990270 0.000001 -0.139174 0.000001 1.000000 0.000001 64871.dat
0 STEP
1 71 -327.276400 -148.969200 -60.999820 0.000000 0.000000 -1.000002 0.000000 1.000002 0.000000 1.000000 0.000000 0.000000 3673.dat
1 71 -129.222000 -121.134200 -61.000000 0.000000 0.000000 -1.000002 0.000000 1.000002 0.000000 1.000000 0.000000 0.000000 3673.dat
1 71 -228.248800 -135.051800 -61.000000 0.000000 0.000000 -1.000002 0.000000 1.000002 0.000000 1.000000 0.000000 0.000000 3673.dat
0 STEP
1 1 -137.572400 -61.718060 -70.999870 0.990270 -0.000001 0.139172 0.139172 -0.000001 -0.990270 0.000001 1.000000 -0.000001 32140.dat
1 19 -137.572300 -61.718080 -82.419910 -0.000001 0.990270 -0.139174 0.000001 0.139174 0.990270 1.000000 0.000001 -0.000001 3749.dat
0 STEP
1 1 -335.626700 -89.552940 -70.999810 0.990270 -0.000001 0.139172 0.139172 -0.000001 -0.990270 0.000001 1.000000 -0.000001 32140.dat
1 1 -236.599200 -75.635470 -70.999870 0.990270 -0.000001 0.139172 0.139172 -0.000001 -0.990270 0.000001 1.000000 -0.000001 32140.dat
1 19 -335.626700 -89.552970 -80.999810 -0.000001 0.990270 -0.139174 0.000001 0.139174 0.990270 1.000000 0.000001 -0.000001 3749.dat
1 19 -236.599100 -75.635470 -80.999870 -0.000001 0.990270 -0.139174 0.000001 0.139174 0.990270 1.000000 0.000001 -0.000001 3749.dat
0 STEP
1 15 -236.598900 -75.635420 -90.999980 0.139174 0.000001 -0.990270 -0.990270 0.000001 -0.139174 0.000001 1.000000 0.000001 64871.dat
0 STEP
0 STEP
0 NOFILE
0 FILE SubModel Group 9 Copy Copy Copy
0 SubModel Group 9 Copy Copy Copy
0 Name:  SubModel Group 9 Copy Copy Copy
0 Author:  
0 CustomBrick
0 NumOfBricks:  3
1 72 10.000000 -1.128810 -10.000000 1.000000 0.000000 0.000000 0.000000 0.000000 -1.000000 0.000000 1.000000 0.000000 dch003.dat
1 71 -27.466620 -79.717990 29.427020 1.000000 0.000000 0.000000 0.000000 0.000000 -1.000000 0.000000 1.000000 0.000000 dch004.dat
1 25 7.837010 13.484720 -9.965000 1.000000 0.000000 0.000000 0.000000 0.000000 -1.000000 0.000000 1.000000 0.000000 dch005.dat
0 NOFILE
0 FILE SubModel Group 1
0 SubModel Group 1
0 Name:  SubModel Group 1
0 Author:  
0 CustomBrick
0 NumOfBricks:  13
1 72 -0.000270 -10.000150 -14.999930 1.000002 0.000000 0.000000 0.000000 0.000000 -1.000002 0.000000 1.000000 0.000000 99773.dat
1 14 -40.000260 -10.000140 -24.999860 0.000000 1.000002 0.000000 1.000002 0.000000 0.000000 0.000000 0.000000 -1.000000 32123a.dat
1 14 39.999840 -10.000050 -24.999920 0.000000 1.000002 0.000000 1.000002 0.000000 0.000000 0.000000 0.000000 -1.000000 32123a.dat
1 19 -40.000260 -10.000150 -29.999860 -0.000001 1.000002 -0.000001 0.000001 0.000001 1.000002 1.000000 0.000001 -0.000001 3749.dat
1 19 39.999840 -10.000060 -29.999860 -0.000001 1.000002 -0.000001 0.000001 0.000001 1.000002 1.000000 0.000001 -0.000001 3749.dat
0 STEP
1 15 -0.000210 -150.000500 0.000190 1.000002 -0.000001 0.000001 0.000001 0.000001 -1.000002 0.000001 1.000000 0.000001 64871.dat
1 1 -0.000280 -50.000200 0.000130 0.000000 1.000002 0.000000 0.000000 0.000000 1.000002 1.000000 0.000000 0.000000 6558.dat
1 1 -0.000280 -30.000180 0.000190 0.000000 1.000002 0.000000 0.000000 0.000000 1.000002 1.000000 0.000000 0.000000 6558.dat
0 STEP
1 72 -0.000270 -10.000140 15.000130 -1.000002 0.000000 0.000000 0.000000 0.000000 -1.000002 0.000000 -1.000000 0.000000 99773.dat
0 STEP
1 14 -40.000260 -9.999829 25.000130 0.000000 1.000002 0.000000 1.000002 0.000000 0.000000 0.000000 0.000000 -1.000000 32123a.dat
1 14 39.999850 -9.999909 25.000010 0.000000 1.000002 0.000000 1.000002 0.000000 0.000000 0.000000 0.000000 -1.000000 32123a.dat
1 19 -40.000260 -9.999829 30.000130 0.000001 -1.000002 0.000001 0.000001 0.000001 1.000002 -1.000000 -0.000001 0.000001 3749.dat
1 19 39.999850 -9.999909 30.000000 0.000001 -1.000002 0.000001 0.000001 0.000001 1.000002 -1.000000 -0.000001 0.000001 3749.dat
0 STEP
0 NOFILE
