0 Untitled Model
0 Name:  挤压器
0 Author:  
0 CustomBrick
0 NumOfBricks:  37
1 1 19.999980 -120.000000 20.000010 0.000000 0.000000 -1.000000 1.000000 0.000000 0.000000 0.000000 -1.000000 0.000000 3895.dat
0 STEP
1 1 -10.000020 -9.999960 44.000000 1.000000 0.000000 0.000000 0.000000 0.000000 1.000000 0.000000 -1.000000 0.000000 3701.dat
1 1 9.999980 -30.000010 44.000020 1.000000 0.000000 0.000000 0.000000 0.000000 1.000000 0.000000 -1.000000 0.000000 3700.dat
0 STEP
1 1 -50.000000 -10.000030 20.000010 1.000000 0.000000 0.000000 0.000000 0.000000 1.000000 0.000000 -1.000000 0.000000 3701.dat
0 STEP
1 0 -29.999970 -220.000100 10.499950 1.000000 0.000000 0.000000 0.000000 0.989272 0.146082 0.000000 -0.146082 0.989272 3708.dat
1 72 39.999980 -220.000100 10.499830 0.000000 0.000000 -1.000000 -0.989272 0.146082 0.000000 0.146082 0.989272 0.000000 3648b.dat
0 STEP
1 71 59.999980 -219.505500 10.426950 0.000001 0.000000 -1.000000 0.146082 0.989272 0.000000 0.989272 -0.146082 0.000001 3713.dat
0 STEP
1 1 -0.000020 -120.000000 20.000010 0.000000 0.000000 -1.000000 1.000000 0.000000 0.000000 0.000000 -1.000000 0.000000 3895.dat
1 71 79.999980 -220.250100 10.499950 -0.000001 1.000000 -0.000001 -0.000001 0.000001 1.000000 1.000000 0.000001 0.000001 33299.dat
1 4 110.000000 -180.000000 10.499950 1.000000 0.000000 0.000000 0.000000 1.000000 0.000000 0.000000 0.000000 1.000000 62462.dat
0 STEP
1 0 -49.999970 -140.000100 10.499950 1.000000 0.000000 0.000000 0.000000 1.000000 0.000000 0.000000 0.000000 1.000000 3737.dat
1 71 42.499980 -140.000100 10.499950 0.000000 0.000000 -1.000000 -1.000000 0.000000 0.000000 0.000000 1.000000 0.000000 3649.dat
0 STEP
1 14 -15.000020 -140.000000 10.499950 0.000000 0.000000 1.000000 0.000000 -1.000000 0.000000 1.000000 0.000000 0.000000 32123a.dat
1 14 -15.000030 -220.000000 10.499830 0.000000 0.000000 1.000000 0.146082 -0.989272 0.000000 0.989272 0.146082 0.000000 32123a.dat
0 STEP
1 71 -27.999970 -140.000100 10.499950 0.000000 0.000000 -1.000000 0.000000 -1.000000 0.000000 -1.000000 0.000000 0.000000 55982.dat
1 0 -27.743240 -140.000100 10.499950 0.000001 0.000000 -1.000000 1.000000 0.000000 0.000001 0.000000 -1.000000 0.000000 30391.dat
1 71 -28.000000 -220.000000 10.499830 0.000000 0.000000 -1.000000 -0.989272 0.146082 0.000000 0.146082 0.989272 0.000000 55982.dat
1 0 -27.743260 -220.000000 10.499830 0.000001 0.000000 -1.000000 -0.146082 -0.989272 0.000000 -0.989272 0.146082 -0.000001 30391.dat
0 STEP
1 71 -59.999970 -139.500100 10.499950 0.000001 0.000000 -1.000000 0.000000 1.000000 0.000000 1.000000 0.000000 0.000001 3713.dat
1 71 -57.999980 -219.505500 10.426950 0.000001 0.000000 -1.000000 0.146082 0.989272 0.000000 0.989272 -0.146082 0.000001 3713.dat
0 STEP
1 71 -70.000030 -140.000000 10.499950 0.000000 0.000000 -1.000000 0.000000 -1.000000 0.000000 -1.000000 0.000000 0.000000 55982.dat
1 0 -69.743300 -140.000000 10.499950 0.000001 0.000000 -1.000000 1.000000 0.000000 0.000001 0.000000 -1.000000 0.000000 30391.dat
1 71 -70.000030 -220.000000 10.499830 0.000000 0.000000 -1.000000 -0.146082 -0.989272 0.000000 -0.989272 0.146082 0.000000 55982.dat
1 0 -69.743300 -220.000000 10.499830 0.000001 0.000000 -1.000000 0.989272 -0.146082 0.000001 -0.146082 -0.989272 0.000000 30391.dat
0 STEP
1 1 -120.000000 -120.000000 20.000060 0.000000 0.000000 -1.000000 1.000000 0.000000 0.000000 0.000000 -1.000000 0.000000 3895.dat
1 1 -100.000000 -120.000000 20.000010 0.000000 0.000000 -1.000000 1.000000 0.000000 0.000000 0.000000 -1.000000 0.000000 3895.dat
0 STEP
1 1 -50.000000 -30.000020 20.000010 1.000000 0.000000 0.000000 0.000000 0.000000 1.000000 0.000000 -1.000000 0.000000 3701.dat
1 1 -30.000000 -30.000010 44.000020 1.000000 0.000000 0.000000 0.000000 0.000000 1.000000 0.000000 -1.000000 0.000000 3700.dat
1 1 -90.000000 -29.999940 44.000020 1.000000 0.000000 0.000000 0.000000 0.000000 1.000000 0.000000 -1.000000 0.000000 3701.dat
0 STEP
1 1 -110.000000 -9.999949 44.000040 1.000000 0.000000 0.000000 0.000000 0.000000 1.000000 0.000000 -1.000000 0.000000 3700.dat
1 1 -70.000000 -10.000020 44.000020 1.000000 0.000000 0.000000 0.000000 0.000000 1.000000 0.000000 -1.000000 0.000000 3700.dat
0 STEP
1 71 -140.000000 -139.500100 10.499950 0.000001 0.000000 -1.000000 0.000000 1.000000 0.000000 1.000000 0.000000 0.000001 3713.dat
1 71 -140.000000 -219.505500 10.426950 0.000001 0.000000 -1.000000 0.146082 0.989272 0.000000 0.989272 -0.146082 0.000001 3713.dat
0 STEP
1 15 -90.000000 -20.000040 -4.000040 -1.000000 0.000000 0.000000 0.000000 0.000000 -1.000000 0.000000 -1.000000 0.000000 3001.dat
1 15 -10.000020 -20.000040 -4.000040 -1.000000 0.000000 0.000000 0.000000 0.000000 -1.000000 0.000000 -1.000000 0.000000 3001.dat
0 STEP
1 1 -50.000030 -30.000040 -27.500040 1.000000 0.000000 0.000000 0.000000 0.000000 1.000000 0.000000 -1.000000 0.000000 3703.dat
1 1 -50.000030 -10.000040 -27.500040 1.000000 0.000000 0.000000 0.000000 0.000000 1.000000 0.000000 -1.000000 0.000000 3703.dat
0 STEP
0 STEP
