0 Untitled Model
0 Name:  压路机
0 Author:  
0 CustomBrick
0 NumOfBricks:  64
1 1 -82.000110 -63.155610 -16.170100 1.000000 0.000000 0.000000 0.000000 1.000000 0.000000 0.000000 0.000000 1.000000 3895.dat
1 1 -82.000110 -63.155610 -36.170100 1.000000 0.000000 0.000000 0.000000 1.000000 0.000000 0.000000 0.000000 1.000000 3895.dat
1 1 -82.000000 -63.155610 -76.000000 1.000000 0.000000 0.000000 0.000000 1.000000 0.000000 0.000000 0.000000 1.000000 3895.dat
1 1 -82.000000 -63.155610 -56.000000 1.000000 0.000000 0.000000 0.000000 1.000000 0.000000 0.000000 0.000000 1.000000 3895.dat
0 STEP
1 0 18.000120 -53.155600 -46.540100 0.000000 0.000000 1.000000 0.000000 1.000000 0.000000 -1.000000 0.000000 0.000000 3706.dat
0 STEP
1 0 17.999880 -53.155620 13.718200 0.000000 -1.000000 0.000000 -1.000000 0.000000 -0.000001 0.000001 0.000000 -1.000000 30391.dat
1 71 18.000120 -53.155610 13.459900 -1.000002 0.000000 0.000000 0.000000 1.000002 0.000000 0.000000 0.000000 -1.000000 55982.dat
1 0 18.000000 -53.155590 -105.937000 0.000000 1.000000 0.000000 -1.000000 0.000000 -0.000001 -0.000001 0.000000 1.000000 30391.dat
1 71 18.000000 -53.155610 -105.679900 1.000000 0.000000 0.000000 0.000000 1.000000 0.000000 0.000000 0.000000 1.000000 55982.dat
0 STEP
1 1 -42.000000 -87.155610 -56.000000 1.000000 0.000000 0.000000 0.000000 1.000000 0.000000 0.000000 0.000000 1.000000 3702.dat
1 1 -42.000000 -87.155610 -76.000000 1.000000 0.000000 0.000000 0.000000 1.000000 0.000000 0.000000 0.000000 1.000000 3702.dat
0 STEP
1 1 -42.000000 -87.155610 -16.170230 1.000000 0.000000 0.000000 0.000000 1.000000 0.000000 0.000000 0.000000 1.000000 3702.dat
1 1 -42.000000 -87.155610 -36.170230 1.000000 0.000000 0.000000 0.000000 1.000000 0.000000 0.000000 0.000000 1.000000 3702.dat
0 STEP
1 15 -22.000120 -111.155600 -46.170230 0.000000 0.000000 1.000000 0.000000 1.000000 0.000000 -1.000000 0.000000 0.000000 3001.dat
1 15 18.000000 -111.155600 -46.170230 0.000000 0.000000 1.000000 0.000000 1.000000 0.000000 -1.000000 0.000000 0.000000 3001.dat
0 STEP
1 15 -2.000120 -135.155600 -66.170180 1.000000 0.000000 0.000000 0.000000 1.000000 0.000000 0.000000 0.000000 1.000000 3941.dat
1 15 -2.000120 -135.155600 -26.170230 1.000000 0.000000 0.000000 0.000000 1.000000 0.000000 0.000000 0.000000 1.000000 3941.dat
0 STEP
1 1 7.999880 -159.155600 -26.170350 0.000000 0.000000 1.000000 0.000000 1.000000 0.000000 -1.000000 0.000000 0.000000 3700.dat
1 1 -12.000120 -159.155600 -26.170350 0.000000 0.000000 1.000000 0.000000 1.000000 0.000000 -1.000000 0.000000 0.000000 3700.dat
0 STEP
1 1 7.999880 -159.155600 -66.170410 0.000000 0.000000 1.000000 0.000000 1.000000 0.000000 -1.000000 0.000000 0.000000 3700.dat
1 1 -12.000120 -159.155600 -66.170410 0.000000 0.000000 1.000000 0.000000 1.000000 0.000000 -1.000000 0.000000 0.000000 3700.dat
0 STEP
1 1 7.999880 -167.155600 -46.170350 0.000000 0.000000 1.000000 0.000000 1.000000 0.000000 -1.000000 0.000000 0.000000 3710.dat
1 1 -12.000120 -167.155600 -46.170350 0.000000 0.000000 1.000000 0.000000 1.000000 0.000000 -1.000000 0.000000 0.000000 3710.dat
0 STEP
1 19 -22.000120 -149.155600 -26.170350 -1.000000 -0.000001 0.000001 0.000001 0.000001 1.000000 -0.000001 1.000000 -0.000001 3749.dat
1 19 -22.000120 -149.155600 -66.170410 -1.000000 -0.000001 0.000001 0.000001 0.000001 1.000000 -0.000001 1.000000 -0.000001 3749.dat
0 STEP
1 72 -27.000120 -169.155600 -66.170410 0.000000 0.000000 -1.000000 0.000000 -1.000000 0.000000 -1.000000 0.000000 0.000000 6575.dat
1 72 -27.490110 -169.155600 -26.170350 0.000000 0.000000 -1.000000 0.000000 -1.000000 0.000000 -1.000000 0.000000 0.000000 6575.dat
0 STEP
1 19 -35.000180 -149.155600 -26.170350 0.000001 0.000000 -1.000000 0.000000 -1.000000 0.000000 -1.000000 0.000000 -0.000001 6589.dat
1 19 -35.000180 -149.155600 -66.170410 0.000001 0.000000 -1.000000 0.000000 -1.000000 0.000000 -1.000000 0.000000 -0.000001 6589.dat
0 STEP
1 0 -181.999900 -53.155600 -47.400150 0.000000 0.000000 1.000000 0.000000 1.000000 0.000000 -1.000000 0.000000 0.000000 3706.dat
0 STEP
1 0 -181.999600 -53.155610 -106.176800 0.000000 1.000000 0.000000 -1.000000 0.000000 -0.000001 -0.000001 0.000000 1.000000 30391.dat
1 71 -182.000000 -53.155610 -105.919900 1.000000 0.000000 0.000000 0.000000 1.000000 0.000000 0.000000 0.000000 1.000000 55982.dat
0 STEP
1 0 -181.999800 -53.155680 12.856570 0.000000 -1.000000 0.000000 -1.000000 0.000000 -0.000001 0.000001 0.000000 -1.000000 30391.dat
1 71 -181.999900 -53.155610 12.599850 -1.000004 0.000000 0.000000 0.000000 1.000003 0.000000 0.000000 0.000000 -1.000000 55982.dat
0 STEP
1 1 -182.000000 -87.155610 -56.000000 1.000000 0.000000 0.000000 0.000000 1.000000 0.000000 0.000000 0.000000 1.000000 3894.dat
1 1 -182.000000 -87.155610 -76.000000 1.000000 0.000000 0.000000 0.000000 1.000000 0.000000 0.000000 0.000000 1.000000 3894.dat
0 STEP
1 1 -182.000100 -87.155610 -16.170100 1.000000 0.000000 0.000000 0.000000 1.000000 0.000000 0.000000 0.000000 1.000000 3894.dat
1 1 -182.000100 -87.155610 -36.170100 1.000000 0.000000 0.000000 0.000000 1.000000 0.000000 0.000000 0.000000 1.000000 3894.dat
0 STEP
1 1 -122.000000 -95.155610 -46.000000 0.000000 0.000000 1.000000 0.000000 1.000000 0.000000 -1.000000 0.000000 0.000000 3709b.dat
0 STEP
1 1 -202.000000 -111.155600 -76.000000 -1.000000 0.000000 0.000000 0.000000 1.000000 0.000000 0.000000 0.000000 -1.000000 3701.dat
1 1 -201.999900 -111.155600 -56.000240 -1.000000 0.000000 0.000000 0.000000 1.000000 0.000000 0.000000 0.000000 -1.000000 3701.dat
0 STEP
1 1 -202.000200 -111.155600 -36.169980 -1.000000 0.000000 0.000000 0.000000 1.000000 0.000000 0.000000 0.000000 -1.000000 3701.dat
1 1 -201.999100 -111.155600 -16.170470 -0.999999 0.000000 0.000000 0.000000 1.000000 0.000000 0.000000 0.000000 -0.999999 3701.dat
0 STEP
1 1 -192.000100 -119.155600 -46.000000 0.000000 0.000000 1.000000 0.000000 1.000000 0.000000 -1.000000 0.000000 0.000000 3710.dat
1 1 -172.000100 -119.155600 -46.000000 0.000000 0.000000 1.000000 0.000000 1.000000 0.000000 -1.000000 0.000000 0.000000 3710.dat
0 STEP
1 15 -212.000100 -135.155600 -15.999880 0.000000 0.000000 1.000000 0.000000 1.000000 0.000000 -1.000000 0.000000 0.000000 3040b.dat
1 15 -212.000100 -135.155600 -35.999880 0.000000 0.000000 1.000000 0.000000 1.000000 0.000000 -1.000000 0.000000 0.000000 3040b.dat
1 15 -212.000000 -135.155600 -76.000000 0.000000 0.000000 1.000000 0.000000 1.000000 0.000000 -1.000000 0.000000 0.000000 3040b.dat
1 15 -212.000100 -135.155600 -55.999880 0.000000 0.000000 1.000000 0.000000 1.000000 0.000000 -1.000000 0.000000 0.000000 3040b.dat
0 STEP
1 15 -212.000000 -143.155600 -46.000000 0.000000 0.000000 1.000000 0.000000 1.000000 0.000000 -1.000000 0.000000 0.000000 2431.dat
0 STEP
1 15 -257.085600 -81.946580 -96.259780 -0.480226 0.000001 -0.877146 -0.877146 0.000001 0.480226 0.000001 1.000000 0.000000 40490.dat
1 0 -222.000000 -101.155600 -46.269960 0.000000 0.000000 1.000000 0.000000 1.000000 0.000000 -1.000000 0.000000 0.000000 3707.dat
0 STEP
1 71 -222.000000 -101.155600 -116.270000 1.000000 0.000000 0.000001 0.000000 1.000000 0.000000 -0.000001 0.000000 1.000000 3713.dat
0 STEP
1 0 -327.257400 -43.528470 -46.259830 0.000000 0.480227 0.877145 -0.000001 0.877145 -0.480226 -1.000000 0.000000 0.000000 3707.dat
1 71 -327.257400 -43.528510 -116.259800 0.877145 0.480227 0.000000 -0.480226 0.877145 0.000000 0.000000 0.000000 1.000000 3713.dat
0 STEP
1 14 -327.257400 -43.528470 -81.259780 -0.877145 0.480227 0.000000 0.480226 0.877145 -0.000001 -0.000001 -0.000001 -1.000000 32123a.dat
1 19 -327.257400 -43.528470 -73.329840 0.877146 -0.480227 0.000000 -0.480227 -0.877146 -0.000001 0.000001 0.000000 -1.000000 32198.dat
0 STEP
1 19 -327.257400 -43.528470 -56.259760 -0.480227 -0.877145 0.000000 -0.877145 0.480226 0.000000 0.000000 0.000000 -1.000000 32269.dat
1 19 -327.257400 -43.528450 -35.179750 -0.480227 -0.877145 0.000000 -0.877145 0.480226 0.000000 0.000000 0.000000 -1.000000 32269.dat
0 STEP
1 14 -327.257400 -43.528440 -10.739750 -0.877145 0.480227 0.000000 0.480226 0.877145 -0.000001 -0.000001 -0.000001 -1.000000 32123a.dat
1 19 -327.257400 -43.528430 -18.149960 -0.877145 -0.480227 0.000000 0.480226 -0.877145 0.000001 -0.000001 0.000000 1.000000 32198.dat
0 STEP
1 15 -257.085900 -81.946580 4.120120 -0.480226 0.000001 -0.877145 -0.877145 0.000001 0.480226 0.000001 1.000000 0.000000 40490.dat
0 STEP
1 71 -222.000000 -101.155600 23.730040 -1.000000 0.000000 -0.000001 0.000000 1.000000 0.000000 0.000001 0.000000 -1.000000 3713.dat
1 71 -327.257400 -43.528440 23.740180 -0.480226 -0.877145 0.000000 -0.877145 0.480226 0.000000 0.000000 0.000000 -1.000000 3713.dat
0 STEP
0 STEP
