0 FILE BLK003电动旋转机_Copy.io
0 Untitled Model
0 Name:  BLK003电动旋转机_Copy
0 Author:  
0 CustomBrick
0 NumOfBricks:  90
1 1 130.108800 -12.284020 4.872560 -0.000296 1.000000 0.000457 -0.999917 -0.000302 0.012924 0.012924 -0.000453 0.999916 64871.dat
1 15 110.045000 -14.087530 -135.106800 -0.000296 1.000000 0.000456 -0.999917 -0.000302 0.012925 0.012925 -0.000452 0.999916 55615.dat
0 STEP
1 1 -9.964069 -14.309680 -155.050800 -0.000297 -0.000457 1.000000 -0.999917 -0.012924 -0.000303 0.012924 -0.999917 -0.000453 64871.dat
0 STEP
1 15 -129.954900 -14.015030 -134.998200 0.000296 -1.000000 0.000456 0.999917 0.000302 0.012924 -0.012925 0.000452 0.999917 55615.dat
0 STEP
1 1 -149.891100 -12.199440 4.999060 -0.000296 1.000000 0.000457 -0.999917 -0.000302 0.012924 0.012924 -0.000453 0.999917 64871.dat
0 STEP
1 16 -130.000000 0.000000 110.000000 1.000000 0.000296 0.000002 -0.000296 0.999916 0.012925 0.000002 -0.012925 0.999917 submodel group 3
1 16 110.000000 0.000000 110.000000 1.000000 0.000296 0.000002 -0.000296 0.999916 0.012925 0.000002 -0.012925 0.999917 submodel group 4
0 STEP
1 1 -9.818270 -10.173650 164.922400 -0.000296 0.000457 -1.000000 -0.999917 0.012925 0.000302 0.012925 0.999916 0.000453 64871.dat
0 STEP
1 0 -139.881800 -11.944060 24.992930 1.000000 -0.000456 0.000296 -0.000302 -0.012925 0.999917 -0.000452 -0.999916 -0.012925 2780.dat
1 0 -139.900000 -12.461040 -15.003650 1.000000 -0.000456 0.000296 -0.000302 -0.012925 0.999917 -0.000452 -0.999916 -0.012925 2780.dat
0 STEP
1 1 -129.902800 -52.202230 5.507150 0.000456 1.000000 0.000296 0.012925 -0.000302 0.999917 0.999916 -0.000452 -0.012925 60484.dat
0 STEP
1 0 -139.902800 -52.199930 5.511650 1.000000 -0.000456 0.000296 -0.000302 -0.012925 0.999917 -0.000452 -0.999916 -0.012925 2780.dat
1 0 -139.896800 -32.201330 5.253200 1.000000 -0.000456 0.000296 -0.000302 -0.012925 0.999917 -0.000452 -0.999916 -0.012925 2780.dat
0 STEP
1 1 -149.932400 -152.188200 6.808610 0.000455 -1.000000 -0.000297 0.012925 0.000303 -0.999917 0.999917 0.000452 0.012925 41239.dat
0 STEP
1 0 120.118100 -12.022600 24.875470 -1.000000 0.000456 0.000296 0.000302 0.012925 0.999917 0.000452 0.999916 -0.012925 2780.dat
1 0 120.099800 -12.539580 -15.121110 -1.000000 0.000456 0.000296 0.000302 0.012925 0.999917 0.000452 0.999916 -0.012925 2780.dat
0 STEP
1 1 110.097100 -52.274730 5.398650 -0.000456 -1.000000 0.000296 -0.012925 0.000302 0.999917 -0.999916 0.000452 -0.012925 60484.dat
0 STEP
1 0 120.097100 -52.278470 5.394190 -1.000000 0.000456 0.000296 0.000302 0.012925 0.999917 0.000452 0.999916 -0.012925 2780.dat
1 0 120.103000 -32.279880 5.135650 -1.000000 0.000456 0.000296 0.000302 0.012925 0.999917 0.000452 0.999916 -0.012925 2780.dat
0 STEP
1 1 130.067400 -152.272900 6.682220 -0.000455 1.000000 -0.000296 -0.012924 -0.000301 -0.999917 -0.999916 -0.000452 0.012924 41239.dat
0 STEP
1 0 140.079300 -112.279200 6.160660 -1.000000 0.000296 -0.000456 0.000302 0.999916 -0.012925 0.000452 -0.012925 -0.999917 2780.dat
1 0 140.091200 -72.282600 5.643670 -1.000000 0.000296 -0.000456 0.000302 0.999916 -0.012925 0.000452 -0.012925 -0.999917 2780.dat
0 STEP
1 1 -9.974110 -292.219100 8.554979 -0.000457 0.000296 1.000000 -0.012924 0.999917 -0.000302 -0.999917 -0.012924 -0.000453 64871.dat
0 STEP
1 16 0.000000 -48.000000 10.000000 1.000000 -0.000019 -0.000090 -0.000019 0.916911 -0.399091 0.000090 0.399091 0.916911 submodel group 1
0 STEP
1 15 110.031700 -272.257000 8.242140 -0.000456 -0.000296 -1.000000 -0.012925 -0.999916 0.000302 -0.999916 0.012925 0.000452 55615.dat
1 15 -129.967800 -272.184400 8.350580 0.000456 -0.000296 1.000000 0.012925 -0.999917 -0.000302 0.999917 0.012925 -0.000452 55615.dat
0 STEP
1 71 -49.981250 -312.209300 8.826739 0.004387 0.999990 -0.000292 -0.013208 -0.000234 -0.999913 -0.999903 0.004391 0.013207 94925.dat
0 STEP
1 0 -9.980130 -312.218200 8.813760 -0.000304 0.238598 0.971119 -0.999915 -0.012723 0.002813 0.013027 -0.971035 0.238581 32073.dat
1 71 -9.482289 -272.220100 8.412069 0.238598 0.971119 -0.000296 -0.012720 0.002820 -0.999915 -0.971035 0.238581 0.013025 3713.dat
0 STEP
1 71 -9.977640 -312.218100 8.815969 0.238597 0.971118 -0.000537 -0.012573 0.002536 -0.999918 -0.971037 0.238584 0.012815 94925.dat
0 STEP
1 1 -109.980200 -312.187800 8.859090 -0.000305 1.000000 0.000528 -0.999915 -0.000312 0.013050 0.013050 -0.000523 0.999915 6558.dat
1 71 -109.980100 -312.187800 8.859110 1.000000 0.000305 0.000527 -0.000312 0.999915 0.013051 -0.000523 -0.013051 0.999915 18654.dat
0 STEP
1 1 90.019610 -312.248500 8.768180 -0.000302 1.000000 0.000723 -0.999916 -0.000312 0.013011 0.013011 -0.000719 0.999915 6558.dat
1 71 90.019550 -312.248600 8.768020 1.000000 0.000302 0.000723 -0.000311 0.999915 0.013011 -0.000719 -0.013012 0.999915 18654.dat
0 STEP
1 1 -9.986560 -332.217300 9.073880 -0.000471 0.000299 1.000000 -0.013073 0.999915 -0.000305 -0.999915 -0.013074 -0.000467 64290.dat
0 STEP
1 16 -10.002090 -335.993700 10.951050 0.971119 0.000015 -0.238597 0.003110 0.999914 0.012723 0.238577 -0.013098 0.971035 submodel group 2
0 STEP
1 15 142.000000 -92.657150 6.000000 0.000000 0.000000 1.000000 0.000000 1.000000 0.000000 -1.000000 0.000000 0.000000 dx0011.dat
0 STEP
1 16 213.000000 78.000000 -91.000000 0.000000 0.000000 1.000000 0.000000 1.000000 0.000000 -1.000000 0.000000 0.000000 submodel group 9 copy copy copy
0 STEP
0 STEP
0 NOFILE
0 FILE SubModel Group 3
0 SubModel Group 3
0 Name:  SubModel Group 3
0 Author:  
0 CustomBrick
0 NumOfBricks:  5
1 1 0.180450 -10.847140 44.841140 -0.000454 0.000000 -1.000000 0.000000 -1.000001 0.000000 -1.000000 0.000000 0.000454 43093.dat
0 STEP
1 71 0.166840 -11.347240 14.841080 1.000000 0.000000 -0.000454 0.000000 -1.000001 0.000000 -0.000454 0.000000 -1.000000 32034.dat
0 STEP
1 0 -9.833000 -10.847240 14.845650 1.000000 0.000000 0.000454 0.000000 1.000000 0.000000 -0.000454 0.000000 1.000000 2780.dat
0 STEP
1 72 0.139510 -10.847250 -45.158860 -1.000000 0.000454 0.000000 0.000000 0.000000 1.000001 0.000454 1.000000 0.000000 6553.dat
0 STEP
1 1 -9.860490 -10.847150 -45.154360 1.000000 0.000000 0.000454 0.000000 1.000001 0.000000 -0.000454 0.000000 1.000000 43093.dat
0 STEP
0 NOFILE
0 FILE SubModel Group 4
0 SubModel Group 4
0 Name:  SubModel Group 4
0 Author:  
0 CustomBrick
0 NumOfBricks:  5
1 1 0.180640 -10.918500 44.731720 -0.000454 0.000000 1.000000 0.000001 1.000001 0.000000 -1.000000 0.000000 -0.000454 43093.dat
0 STEP
1 71 0.166960 -10.418390 14.731680 -1.000000 0.000000 -0.000454 0.000000 1.000000 0.000000 0.000454 0.000000 -1.000000 32034.dat
0 STEP
1 0 10.166800 -10.918390 14.727200 -1.000000 0.000000 0.000454 0.000000 -1.000000 0.000000 0.000454 0.000000 1.000000 2780.dat
0 STEP
1 72 0.139720 -10.918370 -45.268310 1.000000 0.000454 0.000000 0.000000 0.000000 -1.000001 -0.000454 1.000000 0.000000 6553.dat
0 STEP
1 1 10.139720 -10.918480 -45.272870 -1.000000 0.000000 0.000454 0.000000 -1.000001 0.000000 0.000454 0.000000 1.000000 43093.dat
0 STEP
0 NOFILE
0 FILE SubModel Group 1
0 SubModel Group 1
0 Name:  SubModel Group 1
0 Author:  
0 CustomBrick
0 NumOfBricks:  25
1 14 -49.942300 -128.778800 52.976480 0.999990 0.004297 0.000272 0.001519 -0.411164 0.911560 0.004030 -0.911551 -0.411167 4185.dat
1 0 -49.951880 -160.683400 67.367360 -0.000272 0.004297 0.999991 -0.911560 -0.411164 0.001519 0.411167 -0.911551 0.004030 3705.dat
0 STEP
1 71 -49.945150 -137.894300 57.088140 -0.004297 0.999990 0.000272 0.411164 0.001519 0.911560 0.911551 0.004030 -0.411167 32123a.dat
0 STEP
1 14 -49.947800 -147.010000 61.199850 0.999990 0.004297 0.000272 0.001519 -0.411164 0.911560 0.004030 -0.911551 -0.411167 4185.dat
0 STEP
1 71 -49.950460 -156.125600 65.311510 -0.004297 0.999990 0.000272 0.411164 0.001519 0.911560 0.911551 0.004030 -0.411167 32123a.dat
0 STEP
1 71 -50.454530 -169.799700 71.477000 -0.004297 -0.999990 -0.000272 0.411165 -0.001519 -0.911560 0.911551 -0.004030 0.411167 3713.dat
0 STEP
1 71 -49.962740 -197.145800 83.814040 -0.004297 -0.999990 -0.000272 0.411165 -0.001519 -0.911560 0.911551 -0.004030 0.411167 59443.dat
0 STEP
1 0 -49.973660 -233.608200 100.260600 -0.000272 0.004297 0.999992 -0.911560 -0.411164 0.001519 0.411167 -0.911551 0.004030 3705.dat
0 STEP
1 71 -29.919620 -32.146020 31.356570 -0.000875 0.000172 1.000000 -0.911622 -0.411029 -0.000727 0.411028 -0.911623 0.000517 32039.dat
1 0 -49.980900 -95.945070 60.118160 -0.000875 -0.000173 -1.000000 -0.911623 0.411029 0.000727 0.411028 0.911623 -0.000517 3707.dat
0 STEP
1 71 -47.910690 -32.172300 -3.621490 -0.000407 0.000053 1.000000 -0.911552 -0.411183 -0.000349 0.411183 -0.911552 0.000216 32039.dat
1 0 -67.939280 -95.974010 25.156970 0.000407 -0.000054 1.000000 0.911552 0.411183 -0.000349 -0.411183 0.911552 0.000216 3707.dat
0 STEP
1 0 22.080300 -32.183840 31.383420 -1.000000 -0.000173 0.000875 0.000727 0.411029 0.911622 -0.000517 0.911622 -0.411028 3706.dat
1 0 2.089270 -32.189740 -3.610660 1.000000 -0.000407 0.000054 -0.000349 -0.911552 -0.411183 0.000216 0.411183 -0.911553 3706.dat
0 STEP
1 71 -12.379160 -64.466460 13.174480 -0.000272 0.004294 0.999990 -0.911560 -0.411164 0.001518 0.411167 -0.911551 0.004027 32039.dat
1 0 -32.398000 -128.306000 41.875580 -0.000272 -0.004295 -0.999991 -0.911560 0.411164 -0.001518 0.411167 0.911551 -0.004027 3707.dat
0 STEP
1 0 37.620410 -64.390560 13.375840 -0.999991 -0.004295 0.000272 -0.001518 0.411164 0.911560 -0.004027 0.911551 -0.411167 3706.dat
0 STEP
1 14 25.081630 -42.197700 13.894360 -0.000217 -0.000349 1.000000 -0.000001 -1.000000 -0.000349 1.000000 -0.000001 0.000216 4185.dat
0 STEP
1 0 90.085720 -42.246100 13.948190 -1.000000 0.000000 0.000907 0.000907 0.000000 1.000000 0.000000 1.000000 0.000000 44294.dat
1 71 35.081430 -42.201200 13.896500 -0.000349 -0.000217 -1.000000 -1.000000 -0.000001 0.000349 -0.000001 1.000000 -0.000216 32123a.dat
0 STEP
1 14 45.081740 -42.204780 13.898530 -0.000217 0.000349 -1.000000 -0.000001 1.000000 0.000349 1.000000 0.000001 -0.000216 4185.dat
0 STEP
1 71 55.081400 -42.208200 13.900810 -0.000349 -0.000217 -1.000000 -1.000000 -0.000001 0.000349 -0.000001 1.000000 -0.000216 32123a.dat
0 STEP
1 71 70.081750 -41.713420 13.904120 0.000216 0.000349 1.000000 0.000001 1.000000 -0.000349 -1.000000 0.000001 0.000216 3713.dat
0 STEP
1 71 110.081500 -42.227350 13.412810 -0.000350 0.000217 1.000000 -1.000000 0.000001 -0.000350 -0.000001 -1.000000 0.000217 3713.dat
1 71 90.081740 -41.720400 13.908420 0.000216 0.000349 1.000000 0.000001 1.000000 -0.000349 -1.000000 0.000001 0.000216 3713.dat
0 STEP
0 NOFILE
0 FILE SubModel Group 2
0 SubModel Group 2
0 Name:  SubModel Group 2
0 Author:  
0 CustomBrick
0 NumOfBricks:  19
1 71 -0.429590 -26.198460 -1.778090 -1.000000 0.000000 -0.000298 0.000298 0.000000 -1.000000 0.000000 -1.000000 0.000000 59443.dat
1 0 -0.456480 -116.198500 -1.778090 0.000297 0.000000 -1.000000 1.000000 0.000000 0.000297 0.000000 -1.000000 0.000000 60485.dat
0 STEP
1 71 -1.069730 -76.198320 -1.777930 0.000000 0.999999 0.000297 0.000000 -0.000297 1.000000 1.000000 0.000000 0.000000 32184.dat
0 STEP
1 71 -1.646960 -219.184400 -1.777950 0.000002 -0.999686 -0.025039 0.000002 0.025039 -0.999687 1.000000 0.000002 0.000002 32013.dat
0 STEP
1 19 19.555380 -76.204460 8.222080 0.000001 -1.000000 0.000299 0.000001 0.000298 1.000001 -1.000000 -0.000001 0.000001 3749.dat
0 STEP
1 19 -1.647000 -219.184300 -1.778100 -0.000001 0.752654 -0.658416 0.000000 0.658417 0.752653 1.000000 0.000000 0.000000 32556.dat
0 STEP
1 15 51.861220 -159.712600 -21.778040 -0.743395 0.000001 -0.668853 0.668854 0.000000 -0.743394 -0.000001 -1.000000 -0.000001 40490.dat
0 STEP
1 0 91.992210 -115.108800 -11.778170 0.000000 0.743396 -0.668853 0.000000 -0.668853 -0.743395 -1.000000 0.000000 0.000000 2780.dat
1 0 105.369400 -100.241100 -11.778000 0.000000 0.743396 -0.668853 0.000000 -0.668853 -0.743395 -1.000000 0.000000 0.000000 2780.dat
0 STEP
1 15 132.123600 -70.505290 -1.778040 -0.743395 0.000001 -0.668853 0.668854 0.000000 -0.743394 -0.000001 -1.000000 -0.000001 40490.dat
0 STEP
1 71 79.158820 -129.565900 8.221849 0.000001 -0.674578 0.738203 0.000000 0.738204 0.674579 -1.000000 0.000000 0.000001 3673.dat
0 STEP
1 15 49.357140 -102.885300 18.221920 0.667017 0.000001 -0.745042 0.745042 -0.000001 0.667018 0.000000 -1.000000 0.000000 32316.dat
0 STEP
1 19 -20.444700 -76.192560 -11.777980 0.000000 -1.000000 -0.000298 -0.000001 0.000297 -1.000000 1.000000 0.000001 -0.000001 3749.dat
0 STEP
1 15 -50.550820 -102.529100 -21.778010 -0.658416 0.000001 -0.752655 0.752654 0.000000 -0.658416 -0.000001 -1.000000 -0.000001 32316.dat
0 STEP
1 71 -80.656740 -128.865800 -11.778180 0.000001 -0.658416 0.752655 0.000000 0.752654 0.658417 -1.000000 0.000000 0.000001 3673.dat
0 STEP
1 15 -133.330400 -68.653540 -1.778050 0.752655 0.000000 -0.658416 0.658417 -0.000001 0.752654 0.000000 -1.000000 -0.000001 40490.dat
0 STEP
1 0 -93.825240 -113.812700 8.221930 0.000000 0.658416 -0.752654 0.000000 -0.752654 -0.658417 -1.000000 0.000000 0.000000 2780.dat
1 0 -106.993600 -98.759670 8.221900 0.000000 0.658416 -0.752654 0.000000 -0.752654 -0.658417 -1.000000 0.000000 0.000000 2780.dat
0 STEP
1 15 -54.320180 -158.971900 18.222120 -0.752655 0.000000 0.658416 -0.658417 0.000001 -0.752654 -0.000001 -1.000000 0.000000 40490.dat
0 STEP
0 NOFILE
0 FILE SubModel Group 9 Copy Copy Copy
0 SubModel Group 9 Copy Copy Copy
0 Name:  SubModel Group 9 Copy Copy Copy
0 Author:  
0 CustomBrick
0 NumOfBricks:  3
1 72 10.000000 -1.128810 -10.000000 1.000000 0.000000 0.000000 0.000000 0.000000 -1.000000 0.000000 1.000000 0.000000 dch003.dat
1 71 -27.466620 -79.717990 29.427020 1.000000 0.000000 0.000000 0.000000 0.000000 -1.000000 0.000000 1.000000 0.000000 dch004.dat
1 25 7.837010 13.484720 -9.965000 1.000000 0.000000 0.000000 0.000000 0.000000 -1.000000 0.000000 1.000000 0.000000 dch005.dat
0 NOFILE
