0 FILE BLK012搅拌器_Copy.io
0 Untitled Model
0 Name:  BLK012搅拌器_Copy
0 Author:  
0 CustomBrick
0 NumOfBricks:  95
1 1 69.139960 -170.004400 -10.859690 1.000000 -0.000001 0.000001 -0.000001 -0.000001 1.000000 -0.000001 -1.000000 -0.000001 64871.dat
0 STEP
1 1 69.140060 -290.004300 -30.859770 0.000000 0.000000 -1.000000 0.000000 -1.000000 0.000000 -1.000000 0.000000 0.000000 6558.dat
1 1 69.140060 -150.004300 -30.859750 0.000000 0.000000 -1.000000 0.000000 -1.000000 0.000000 -1.000000 0.000000 0.000000 6558.dat
0 STEP
1 1 69.140060 -130.004500 -30.859750 0.000000 0.000000 -1.000000 0.000000 -1.000000 0.000000 -1.000000 0.000000 0.000000 6558.dat
1 1 69.140060 -50.004420 -30.859770 0.000000 0.000000 -1.000000 0.000000 -1.000000 0.000000 -1.000000 0.000000 0.000000 6558.dat
0 STEP
1 15 69.140000 -230.004300 -30.859790 1.000000 -0.000001 0.000001 0.000001 0.000001 -1.000000 0.000001 1.000000 0.000001 40490.dat
0 STEP
1 15 69.140010 -70.004600 -30.859710 1.000000 -0.000001 0.000001 -0.000001 -0.000001 1.000000 -0.000001 -1.000000 -0.000001 32524.dat
0 STEP
1 1 69.139960 -170.004400 -50.859670 1.000000 -0.000001 0.000001 -0.000001 -0.000001 1.000000 -0.000001 -1.000000 -0.000001 64871.dat
0 STEP
1 0 69.140060 -10.004530 -30.859790 0.000000 0.000000 1.000000 0.000000 -1.000000 0.000000 1.000000 0.000000 0.000000 4519.dat
1 71 69.140060 -10.504560 -50.859780 -1.000000 0.000000 -0.000001 0.000000 -1.000000 0.000000 -0.000001 0.000000 1.000000 3713.dat
0 STEP
1 71 69.140040 -10.504530 -10.859770 1.000000 0.000000 0.000001 0.000000 -1.000000 0.000000 0.000001 0.000000 -1.000000 3713.dat
0 STEP
1 1 69.140060 -30.004340 9.140240 0.000000 0.000000 -1.000000 0.000000 1.000000 0.000000 1.000000 0.000000 0.000000 6558.dat
0 STEP
1 1 69.139960 -170.004500 9.140320 1.000000 -0.000001 0.000001 -0.000001 -0.000001 1.000000 -0.000001 -1.000000 -0.000001 64871.dat
0 STEP
1 1 69.140060 -310.004300 9.140220 0.000000 0.000000 1.000000 0.000000 1.000000 0.000000 -1.000000 0.000000 0.000000 6558.dat
1 0 69.140060 -210.004300 19.140220 0.000000 -1.000000 0.000000 0.000000 0.000000 1.000001 -1.000000 0.000000 0.000000 2780.dat
0 STEP
1 1 69.140060 -30.004340 -70.859740 0.000000 0.000000 -1.000000 0.000000 1.000000 0.000000 1.000000 0.000000 0.000000 6558.dat
1 1 69.139960 -170.004400 -70.859680 1.000000 -0.000001 0.000001 -0.000001 -0.000001 1.000000 -0.000001 -1.000000 -0.000001 64871.dat
0 STEP
1 1 69.140080 -70.004480 -80.859740 0.000000 0.000000 -1.000001 0.000000 -1.000000 0.000000 -1.000000 0.000000 0.000000 43093.dat
0 STEP
1 16 120.000000 0.000000 10.000000 1.000000 0.000000 0.000000 0.000000 1.000000 0.000000 0.000000 0.000000 1.000000 submodel group 8
0 STEP
1 16 119.039400 -172.413400 -20.482010 0.000000 -1.000000 0.000000 1.000000 0.000000 0.000000 0.000000 0.000000 1.000000 submodel group 9 copy copy copy
0 STEP
1 0 169.140000 -10.004270 -60.827360 0.000000 1.000000 0.000000 0.000000 0.000000 1.000001 1.000000 0.000000 0.000000 2780.dat
1 0 209.140000 -10.004270 -60.827360 0.000000 1.000000 0.000000 0.000000 0.000000 1.000001 1.000000 0.000000 0.000000 2780.dat
0 STEP
1 1 269.139900 -10.004260 -0.859730 0.000000 -1.000000 0.000000 0.000000 0.000000 1.000000 -1.000000 0.000000 0.000000 43093.dat
0 STEP
1 71 269.639900 -10.004260 -30.859760 0.000000 1.000000 0.000000 1.000000 0.000000 0.000000 0.000000 0.000000 -1.000000 32034.dat
0 STEP
1 1 269.140000 -10.004260 -60.859810 0.000000 -1.000000 0.000000 0.000000 0.000000 -1.000000 1.000000 0.000000 0.000000 43093.dat
0 STEP
1 16 100.000000 0.000000 -80.000000 1.000000 0.000000 0.000000 0.000000 1.000000 0.000000 0.000000 0.000000 1.000000 submodel group 7
0 STEP
1 0 69.140060 -210.004300 -80.859760 0.000000 1.000000 0.000000 0.000000 0.000000 1.000001 1.000000 0.000000 0.000000 2780.dat
0 STEP
1 16 70.000000 -324.000000 -30.000000 1.000000 0.000000 0.000000 0.000000 1.000000 0.000000 0.000000 0.000000 1.000000 submodel group 6
0 STEP
1 1 69.140140 -350.004300 29.140150 -1.000000 0.000001 -0.000001 -0.000001 -0.000001 1.000000 0.000001 1.000000 0.000001 64871.dat
0 STEP
1 1 69.140140 -350.004400 -90.859820 -1.000000 0.000001 -0.000001 -0.000001 -0.000001 1.000000 0.000001 1.000000 0.000001 64871.dat
0 STEP
1 1 69.140060 -310.004300 -70.859760 0.000000 0.000000 -1.000000 0.000000 -1.000000 0.000000 -1.000000 0.000000 0.000000 6558.dat
0 STEP
1 0 209.140000 -209.995800 -0.859780 0.000000 0.000000 1.000000 0.000000 1.000000 0.000000 -1.000000 0.000000 0.000000 2780.dat
1 0 169.140000 -209.995800 -0.859750 0.000000 0.000000 1.000000 0.000000 1.000000 0.000000 -1.000000 0.000000 0.000000 2780.dat
0 STEP
1 0 169.140000 -209.995800 -60.827370 0.000000 0.000000 1.000000 0.000000 1.000000 0.000000 -1.000000 0.000000 0.000000 2780.dat
1 0 209.140000 -209.995800 -60.827370 0.000000 0.000000 1.000000 0.000000 1.000000 0.000000 -1.000000 0.000000 0.000000 2780.dat
0 STEP
1 16 210.000000 -204.000000 -10.000000 1.000000 0.000000 0.000000 0.000000 1.000000 0.000000 0.000000 0.000000 1.000000 submodel group 5
1 16 210.000000 -204.000000 -60.000000 1.000000 0.000000 0.000000 0.000000 1.000000 0.000000 0.000000 0.000000 1.000000 submodel group 4
0 STEP
1 16 110.000000 -360.000000 -30.000000 1.000000 0.000000 0.000000 0.000000 1.000000 0.000000 0.000000 0.000000 1.000000 submodel group 3
0 STEP
1 1 89.140030 -409.995800 -90.859760 0.000001 0.000001 1.000000 1.000000 -0.000001 -0.000001 0.000001 1.000000 -0.000001 32526.dat
0 STEP
1 1 89.139930 -409.995800 29.140250 0.000001 0.000001 1.000000 1.000000 -0.000001 -0.000001 0.000001 1.000000 -0.000001 32526.dat
0 STEP
1 16 40.000000 -420.000000 -30.000000 1.000000 0.000000 0.000000 0.000000 1.000000 0.000000 0.000000 0.000000 1.000000 submodel group 2
0 STEP
1 16 -210.000000 -408.000000 -30.000000 1.000000 0.000000 0.000000 0.000000 1.000000 0.000000 0.000000 0.000000 1.000000 submodel group 1
0 STEP
1 15 120.000000 -430.159100 -31.000000 0.000000 0.000000 1.000000 0.000000 1.000000 0.000000 -1.000000 0.000000 0.000000 dx0049.dat
0 STEP
0 STEP
0 NOFILE
0 FILE SubModel Group 8
0 SubModel Group 8
0 Name:  SubModel Group 8
0 Author:  
0 CustomBrick
0 NumOfBricks:  7
1 1 -50.859970 -70.004580 9.140190 0.000000 0.000000 -1.000000 0.000000 1.000000 0.000000 1.000000 0.000000 0.000000 43093.dat
1 1 -50.860000 -70.004310 19.140230 1.000000 -0.000001 -0.000001 0.000001 0.000001 1.000000 -0.000001 -1.000000 0.000001 32140.dat
0 STEP
1 0 -50.859940 -10.004370 9.140240 0.000000 1.000000 0.000000 0.000000 0.000000 1.000001 1.000000 0.000000 0.000000 2780.dat
1 0 -30.859970 -10.004280 9.140240 0.000000 1.000000 0.000000 0.000000 0.000000 1.000001 1.000000 0.000000 0.000000 2780.dat
0 STEP
1 1 49.140120 -10.004210 -0.859810 0.000001 0.000001 -1.000000 -1.000000 0.000001 -0.000001 0.000001 1.000000 0.000001 64290.dat
0 STEP
1 0 49.140000 -10.004270 -10.859740 0.000000 1.000000 0.000000 0.000000 0.000000 1.000001 1.000000 0.000000 0.000000 2780.dat
1 0 89.140000 -10.004270 -10.859740 0.000000 1.000000 0.000000 0.000000 0.000000 1.000001 1.000000 0.000000 0.000000 2780.dat
0 STEP
0 NOFILE
0 FILE SubModel Group 9 Copy Copy Copy
0 SubModel Group 9 Copy Copy Copy
0 Name:  SubModel Group 9 Copy Copy Copy
0 Author:  
0 CustomBrick
0 NumOfBricks:  3
1 72 10.000000 -1.128810 -10.000000 1.000000 0.000000 0.000000 0.000000 0.000000 -1.000000 0.000000 1.000000 0.000000 dch003.dat
1 71 -27.466620 -79.717990 29.427020 1.000000 0.000000 0.000000 0.000000 0.000000 -1.000000 0.000000 1.000000 0.000000 dch004.dat
1 25 7.837010 13.484720 -9.965000 1.000000 0.000000 0.000000 0.000000 0.000000 -1.000000 0.000000 1.000000 0.000000 dch005.dat
0 NOFILE
0 FILE SubModel Group 7
0 SubModel Group 7
0 Name:  SubModel Group 7
0 Author:  
0 CustomBrick
0 NumOfBricks:  4
1 1 69.140120 -10.004200 9.172560 0.000001 0.000001 -1.000000 -1.000000 0.000001 -0.000001 0.000001 1.000000 0.000001 64290.dat
0 STEP
1 0 -30.859940 -10.004270 -0.827400 0.000000 1.000000 0.000000 0.000000 0.000000 1.000001 1.000000 0.000000 0.000000 2780.dat
1 0 -10.859970 -10.004270 -0.827380 0.000000 1.000000 0.000000 0.000000 0.000000 1.000001 1.000000 0.000000 0.000000 2780.dat
0 STEP
1 1 -30.859940 -70.004390 -10.859750 1.000000 -0.000001 -0.000001 0.000001 0.000001 1.000000 -0.000001 -1.000000 0.000001 32140.dat
0 STEP
0 NOFILE
0 FILE SubModel Group 6
0 SubModel Group 6
0 Name:  SubModel Group 6
0 Author:  
0 CustomBrick
0 NumOfBricks:  7
1 71 -0.859990 -16.018800 -0.859780 -1.000000 0.000000 -0.000001 0.000001 0.000000 -1.000000 0.000000 -1.000000 0.000000 59443.dat
0 STEP
1 1 -0.859940 -36.018860 -0.859780 0.000000 0.000000 -1.000000 1.000000 0.000000 0.000000 0.000000 -1.000000 0.000000 43093.dat
0 STEP
1 15 -0.859940 -106.004400 -0.859730 0.000000 -1.000000 0.000000 0.000000 0.000000 1.000000 -1.000000 0.000000 0.000000 64179.dat
0 STEP
1 0 -0.859940 -146.004400 49.140220 0.000000 1.000000 0.000000 0.000000 0.000000 -1.000000 -1.000000 0.000000 0.000000 2780.dat
1 0 -0.859940 -66.004300 49.140220 0.000000 1.000000 0.000000 0.000000 0.000000 -1.000000 -1.000000 0.000000 0.000000 2780.dat
0 STEP
1 0 -0.859940 -146.004400 -50.859750 0.000000 1.000000 0.000000 0.000000 0.000000 -1.000000 -1.000000 0.000000 0.000000 2780.dat
1 0 -0.859940 -66.004300 -50.859750 0.000000 1.000000 0.000000 0.000000 0.000000 -1.000000 -1.000000 0.000000 0.000000 2780.dat
0 STEP
0 NOFILE
0 FILE SubModel Group 5
0 SubModel Group 5
0 Name:  SubModel Group 5
0 Author:  
0 CustomBrick
0 NumOfBricks:  9
1 1 39.140110 -5.995790 9.140230 0.000000 0.000000 1.000000 0.000000 1.000000 0.000000 -1.000000 0.000000 0.000000 43093.dat
1 1 -40.860000 -5.995790 19.140230 0.000001 0.000001 1.000000 -1.000001 0.000001 0.000001 -0.000001 -1.000000 0.000001 32526.dat
0 STEP
1 0 39.140110 -45.995820 9.140240 0.000000 0.000000 1.000000 0.000000 1.000000 0.000000 -1.000000 0.000000 0.000000 2780.dat
0 STEP
1 1 39.640110 -165.995900 -0.859760 -1.000000 0.000000 0.000000 0.000000 0.000000 -1.000000 0.000000 -1.000000 0.000000 32009.dat
0 STEP
1 71 39.140110 -105.995800 -20.859760 -1.000000 -0.000001 0.000001 -0.000001 1.000000 -0.000001 -0.000001 -0.000001 -1.000000 48989.dat
0 STEP
1 1 -20.860000 -165.995800 -20.859770 0.000000 0.000000 1.000000 0.000000 1.000000 0.000000 -1.000000 0.000000 0.000000 6558.dat
0 STEP
1 71 -20.860000 -165.995800 -20.859750 -1.000000 0.000000 0.000000 0.000000 0.000000 -1.000000 0.000000 -1.000000 0.000000 18654.dat
0 STEP
1 72 -40.859880 -165.995800 19.140240 0.000000 1.000000 0.000001 0.000001 0.000001 -1.000000 -1.000000 0.000000 -0.000001 11214.dat
0 STEP
1 71 -40.860000 -165.995800 19.140240 -1.000000 0.000000 0.000000 0.000000 0.000000 -1.000000 0.000000 -1.000000 0.000000 18654.dat
0 STEP
0 NOFILE
0 FILE SubModel Group 4
0 SubModel Group 4
0 Name:  SubModel Group 4
0 Author:  
0 CustomBrick
0 NumOfBricks:  6
1 1 39.640110 -165.996000 9.140220 -1.000000 0.000000 0.000000 0.000000 0.000000 -1.000001 0.000000 -1.000000 0.000000 32009.dat
0 STEP
1 1 39.140110 -5.995900 -0.859830 0.000000 0.000000 -1.000000 0.000000 1.000000 0.000000 1.000000 0.000000 0.000000 43093.dat
1 0 39.140110 -45.995820 -0.827390 0.000000 0.000000 1.000000 0.000000 1.000000 0.000000 -1.000000 0.000000 0.000000 2780.dat
0 STEP
1 1 -40.860000 -5.995790 -10.827380 0.000001 0.000001 1.000000 -1.000001 0.000001 0.000001 -0.000001 -1.000000 0.000001 32526.dat
0 STEP
1 72 -40.859880 -165.995800 -10.859790 0.000000 -1.000000 -0.000001 0.000001 0.000001 -1.000000 1.000000 0.000000 0.000001 11214.dat
0 STEP
1 71 -40.860000 -165.995800 -10.859760 -1.000000 0.000000 0.000000 0.000000 0.000000 -1.000000 0.000000 -1.000000 0.000000 18654.dat
0 STEP
0 NOFILE
0 FILE SubModel Group 3
0 SubModel Group 3
0 Name:  SubModel Group 3
0 Author:  
0 CustomBrick
0 NumOfBricks:  9
1 1 -0.860000 -70.004390 -0.859760 1.000000 0.000000 0.000000 0.000000 -1.000000 0.000000 0.000000 0.000000 -1.000000 14720.dat
0 STEP
1 15 -20.859990 -50.004400 39.140220 0.000000 -1.000000 0.000000 0.000000 0.000000 1.000000 -1.000000 0.000000 0.000000 55615.dat
0 STEP
1 71 -20.859960 -50.004400 49.140240 0.000000 0.000000 -1.000000 0.000000 -1.000000 0.000000 -1.000000 0.000000 0.000000 3673.dat
1 71 19.140000 -50.004400 49.140240 0.000000 0.000000 -1.000000 0.000000 -1.000000 0.000000 -1.000000 0.000000 0.000000 3673.dat
0 STEP
1 0 9.139900 -70.004390 19.140250 1.000000 0.000000 0.000000 0.000000 -1.000000 0.000000 0.000000 0.000000 -1.000000 2780.dat
1 0 9.139900 -70.004390 -20.859760 1.000000 0.000000 0.000000 0.000000 -1.000000 0.000000 0.000000 0.000000 -1.000000 2780.dat
0 STEP
1 15 -20.859990 -50.004400 -40.859760 0.000000 -1.000000 0.000000 0.000000 0.000000 1.000000 -1.000000 0.000000 0.000000 55615.dat
0 STEP
1 71 -20.859960 -50.004400 -50.859740 0.000000 0.000000 -1.000000 0.000000 -1.000000 0.000000 -1.000000 0.000000 0.000000 3673.dat
1 71 19.140000 -50.004400 -50.859680 0.000000 0.000000 -1.000000 0.000000 -1.000000 0.000000 -1.000000 0.000000 0.000000 3673.dat
0 STEP
0 NOFILE
0 FILE SubModel Group 2
0 SubModel Group 2
0 Name:  SubModel Group 2
0 Author:  
0 CustomBrick
0 NumOfBricks:  3
1 1 -10.860130 -10.004400 -0.859750 1.000000 0.000000 0.000000 0.000000 -1.000000 0.000000 0.000000 0.000000 -1.000000 14720.dat
0 STEP
1 15 9.139999 -30.004400 -40.859740 0.000000 1.000000 0.000000 0.000000 0.000000 -1.000000 -1.000001 0.000000 0.000000 55615.dat
1 15 9.139999 -30.004400 39.140250 0.000000 1.000000 0.000000 0.000000 0.000000 -1.000000 -1.000001 0.000000 0.000000 55615.dat
0 STEP
0 NOFILE
0 FILE SubModel Group 1
0 SubModel Group 1
0 Name:  SubModel Group 1
0 Author:  
0 CustomBrick
0 NumOfBricks:  13
1 0 7.140110 -22.004400 -0.859670 0.000000 1.000000 0.000000 0.000000 0.000000 -1.000001 -1.000000 0.000000 0.000000 57585.dat
0 STEP
1 71 -12.859890 -11.996400 16.456340 0.000000 0.000001 -1.000000 0.500000 0.866026 0.000000 0.866026 -0.500000 0.000000 32039.dat
0 STEP
1 71 -12.859890 -42.004460 -0.859650 0.000000 0.000001 -1.000000 -1.000001 0.000000 0.000000 0.000000 1.000000 0.000001 32039.dat
1 71 -12.859890 -12.012510 -18.184920 0.000000 0.000001 -1.000000 -0.500000 0.866026 0.000000 0.866026 0.500000 0.000000 32039.dat
0 STEP
1 0 -42.859900 -11.996400 16.456280 1.000001 0.000000 0.000000 0.000000 0.866026 0.500000 0.000000 -0.500000 0.866026 3705.dat
1 71 -96.859790 -11.996400 16.456480 0.000002 0.000002 -1.000000 -0.866027 0.499998 -0.000001 0.499998 0.866027 0.000003 32013.dat
0 STEP
1 0 -42.859900 -12.012390 -18.184970 1.000001 0.000000 0.000000 0.000000 0.866026 -0.500000 0.000000 0.500000 0.866026 3705.dat
1 71 -96.859790 -12.012600 -18.184880 0.000002 0.000002 -1.000000 -0.866025 -0.500002 -0.000003 -0.500002 0.866024 0.000001 32013.dat
0 STEP
1 0 -42.859900 -42.004400 -0.859640 1.000001 0.000000 0.000000 0.000000 0.000000 -1.000001 0.000000 1.000000 0.000000 3705.dat
1 71 -96.859790 -42.004460 -0.859700 0.000002 0.000002 -1.000000 0.000002 -1.000000 -0.000002 -1.000000 -0.000002 -0.000002 32013.dat
0 STEP
1 0 77.140110 -22.004400 -0.859690 -1.000001 0.000000 0.000000 0.000000 0.000000 -1.000001 0.000000 -1.000000 0.000000 3707.dat
0 STEP
1 71 157.140100 -22.004460 -0.859690 0.000001 0.000000 -1.000000 0.000000 -1.000000 0.000000 -1.000000 0.000000 -0.000001 59443.dat
0 STEP
1 0 259.139900 -22.004400 -0.859750 1.000000 0.000000 0.000000 0.000000 -1.000000 0.000000 0.000000 0.000000 -1.000000 60485.dat
0 STEP
0 NOFILE
