0 FILE 转弯模拟车.io
0 Untitled Model
0 Name:  转弯模拟车
0 Author:  
0 CustomBrick
0 NumOfBricks:  40
1 1 -17.000050 -47.999990 -4.662280 0.999997 0.000000 0.000000 0.000000 0.999996 0.000000 0.000000 0.000000 1.000000 3701.dat
1 1 -17.000050 -47.999990 -24.662280 0.999997 0.000000 0.000000 0.000000 0.999996 0.000000 0.000000 0.000000 1.000000 3701.dat
1 1 -17.000050 -55.999960 -14.662280 -0.999997 0.000000 0.000000 0.000000 0.999996 0.000000 0.000000 0.000000 -1.000000 3709b.dat
0 STEP
1 1 -17.000050 -63.999920 -4.662280 0.999997 0.000000 0.000000 0.000000 0.999996 0.000000 0.000000 0.000000 1.000000 3710.dat
1 1 -17.000050 -63.999920 -24.662280 0.999997 0.000000 0.000000 0.000000 0.999996 0.000000 0.000000 0.000000 1.000000 3710.dat
0 STEP
1 71 -17.000050 -38.000030 -12.982290 0.000000 0.000000 0.999997 0.000000 0.999996 0.000000 -1.000000 0.000000 0.000000 32073.dat
0 STEP
1 71 -17.000050 -38.000030 25.617660 -0.999997 0.000000 0.000000 0.000000 0.999996 0.000000 0.000000 0.000000 -1.000000 55982.dat
1 71 -17.000050 -38.000030 -55.292350 0.999997 0.000000 0.000000 0.000000 0.999996 0.000000 0.000000 0.000000 1.000000 55982.dat
0 STEP
1 0 -16.999980 -38.000030 25.874490 0.000000 -0.999997 0.000000 -0.999996 0.000000 -0.000001 0.000001 0.000000 -1.000000 30391.dat
1 0 -17.000170 -38.000030 -55.548460 0.000000 0.999997 0.000000 -0.999996 0.000000 -0.000001 -0.000001 0.000000 1.000000 30391.dat
0 STEP
1 15 -17.000050 -87.999820 -14.662280 0.999997 0.000000 0.000000 0.000000 0.999996 0.000000 0.000000 0.000000 1.000000 3001.dat
0 STEP
1 1 -37.000000 -111.999700 -4.662280 0.999997 0.000000 0.000000 0.000000 0.999996 0.000000 0.000000 0.000000 1.000000 3894.dat
1 1 -37.000000 -111.999700 -24.662280 0.999997 0.000000 0.000000 0.000000 0.999996 0.000000 0.000000 0.000000 1.000000 3894.dat
0 STEP
1 1 -76.999900 -135.999600 -4.662280 0.999997 0.000000 0.000000 0.000000 0.999996 0.000000 0.000000 0.000000 1.000000 3894.dat
1 1 -76.999900 -135.999600 -24.662280 0.999997 0.000000 0.000000 0.000000 0.999996 0.000000 0.000000 0.000000 1.000000 3894.dat
0 STEP
1 1 13.000060 -135.999600 -14.662100 0.000000 0.000000 0.999998 0.000000 0.999996 0.000000 -1.000001 0.000000 0.000000 3702.dat
1 1 -7.000070 -135.999600 -14.662280 0.000000 0.000000 0.999997 0.000000 0.999996 0.000000 -1.000000 0.000000 0.000000 3702.dat
0 STEP
1 1 -17.000050 -143.999600 -14.662280 -0.999997 0.000000 0.000000 0.000000 0.999996 0.000000 0.000000 0.000000 -1.000000 3709b.dat
1 1 -17.000050 -151.999600 -14.662280 -0.999997 0.000000 0.000000 0.000000 0.999996 0.000000 0.000000 0.000000 -1.000000 3709b.dat
0 STEP
1 15 -7.000070 -175.999500 -24.662280 0.000000 0.000000 -0.999997 0.000000 0.999996 0.000000 1.000000 0.000000 0.000000 3040b.dat
1 15 -7.000070 -175.999500 -4.662280 0.000000 0.000000 -0.999997 0.000000 0.999996 0.000000 1.000000 0.000000 0.000000 3040b.dat
0 STEP
1 15 3.000090 -159.999500 15.337930 0.999997 0.000000 0.000000 0.000000 0.999996 0.000000 0.000000 0.000000 1.000000 32064a.dat
1 15 3.000090 -159.999500 -44.662100 0.999997 0.000000 0.000000 0.000000 0.999996 0.000000 0.000000 0.000000 1.000000 32064a.dat
0 STEP
1 16 -150.000000 0.000000 -20.000000 1.000000 0.000000 0.000000 0.000000 1.000000 0.000000 0.000000 0.000000 1.000000 submodel group 1
0 STEP
1 14 -156.999600 -130.259900 -14.664240 0.999997 0.000000 0.000000 0.000000 0.000000 -0.999996 0.000000 1.000000 0.000000 32123a.dat
1 14 -156.999600 -120.449900 -14.664180 0.999997 0.000000 0.000000 0.000000 0.000000 -0.999996 0.000000 1.000000 0.000000 32123a.dat
0 STEP
1 72 -166.999600 -163.369900 -14.664180 0.000000 -0.999997 0.000000 0.000000 0.000000 0.999996 -1.000000 0.000000 0.000000 6575.dat
1 71 -156.999600 -148.490000 -14.664180 0.999997 0.000000 0.000000 0.000000 0.000000 0.999996 0.000000 -1.000000 0.000000 3649.dat
0 STEP
0 STEP
0 NOFILE
0 FILE SubModel Group 1
0 SubModel Group 1
0 Name:  SubModel Group 1
0 Author:  
0 CustomBrick
0 NumOfBricks:  13
1 1 -6.999590 -51.849940 15.335700 0.999997 0.000000 0.000000 0.000000 0.999996 0.000000 0.000000 0.000000 1.000000 3701.dat
1 1 -6.999590 -51.849940 -4.664300 0.999997 0.000000 0.000000 0.000000 0.999996 0.000000 0.000000 0.000000 1.000000 3701.dat
1 71 -6.999680 -41.850020 6.836560 0.000000 0.000000 0.999997 0.000000 0.999996 0.000000 -1.000000 0.000000 0.000000 32073.dat
0 STEP
1 71 -6.999740 -41.850020 -34.743280 0.000000 -0.999997 0.000000 0.999996 0.000000 0.000000 0.000000 0.000000 1.000000 55982.dat
1 71 -6.999710 -41.850020 44.506450 -0.999997 0.000000 0.000000 0.000000 0.999996 0.000000 0.000000 0.000000 -1.000000 55982.dat
0 STEP
1 0 -7.000000 -41.850160 -35.000000 1.000000 0.000000 0.000001 0.000000 1.000000 0.000000 -0.000001 0.000000 1.000000 30391.dat
1 0 -6.999770 -41.850010 44.763900 0.000000 -0.999997 0.000000 -0.999996 0.000000 -0.000001 0.000001 0.000000 -1.000000 30391.dat
0 STEP
1 15 -6.999620 -75.849840 5.335700 0.999997 0.000000 0.000000 0.000000 0.999996 0.000000 0.000000 0.000000 1.000000 3941.dat
1 0 -6.999620 -110.820000 5.335820 0.000000 0.000000 0.999997 -1.000000 0.000000 0.000000 0.000000 -1.000004 0.000000 3706.dat
0 STEP
1 71 -6.999620 -83.929850 5.335760 0.999997 0.000000 0.000000 0.000000 0.000000 -0.999996 0.000000 1.000000 0.000000 4185.dat
0 STEP
1 1 13.000230 -95.999770 5.337840 -0.999997 0.000000 0.000000 0.000000 0.999996 0.000000 0.000000 0.000000 -1.000000 3709b.dat
1 1 13.000260 -103.999700 5.337840 -0.999997 0.000000 0.000000 0.000000 0.999996 0.000000 0.000000 0.000000 -1.000000 3709b.dat
0 STEP
1 1 13.000350 -111.999700 5.337720 -0.999997 0.000000 0.000000 0.000000 0.999996 0.000000 0.000000 0.000000 -1.000000 3709b.dat
0 STEP
0 NOFILE
