0 Untitled Model
0 Name:  雨刮器
0 Author:  
0 CustomBrick
0 NumOfBricks:  34
1 1 -99.999980 -24.000000 -110.000000 1.000000 0.000000 0.000000 0.000000 1.000000 0.000000 0.000000 0.000000 1.000000 3703.dat
1 1 -99.999980 -24.000000 -89.999980 1.000000 0.000000 0.000000 0.000000 1.000000 0.000000 0.000000 0.000000 1.000000 3703.dat
0 STEP
1 1 -230.000100 -48.000000 -100.000100 0.000000 0.000000 1.000000 0.000000 1.000000 0.000000 -1.000000 0.000000 0.000000 3700.dat
1 1 -250.000100 -48.000000 -100.000100 0.000000 0.000000 1.000000 0.000000 1.000000 0.000000 -1.000000 0.000000 0.000000 3700.dat
0 STEP
1 1 -99.999980 -48.000000 -110.000000 1.000000 0.000000 0.000000 0.000000 1.000000 0.000000 0.000000 0.000000 1.000000 3895.dat
1 1 -99.999980 -48.000000 -89.999980 1.000000 0.000000 0.000000 0.000000 1.000000 0.000000 0.000000 0.000000 1.000000 3895.dat
0 STEP
1 1 29.999980 -24.000000 -20.000090 0.000000 0.000000 1.000000 0.000000 1.000000 0.000000 -1.000000 0.000000 0.000000 3894.dat
1 1 29.999960 -48.000000 -40.000070 0.000000 0.000000 1.000000 0.000000 1.000000 0.000000 -1.000000 0.000000 0.000000 3702.dat
0 STEP
1 1 50.000030 -24.000000 -20.000090 0.000000 0.000000 1.000000 0.000000 1.000000 0.000000 -1.000000 0.000000 0.000000 3894.dat
1 1 49.999960 -48.000000 -40.000070 0.000000 0.000000 1.000000 0.000000 1.000000 0.000000 -1.000000 0.000000 0.000000 3702.dat
0 STEP
1 1 49.999950 -72.000000 -20.000150 0.000000 0.000000 1.000000 0.000000 1.000000 0.000000 -1.000000 0.000000 0.000000 3894.dat
1 1 29.999960 -72.000000 -20.000210 0.000000 0.000000 1.000000 0.000000 1.000000 0.000000 -1.000000 0.000000 0.000000 3894.dat
0 STEP
1 1 19.999980 -72.000000 -89.999980 1.000000 0.000000 0.000000 0.000000 1.000000 0.000000 0.000000 0.000000 1.000000 3701.dat
1 1 19.999980 -72.000000 -110.000000 1.000000 0.000000 0.000000 0.000000 1.000000 0.000000 0.000000 0.000000 1.000000 3701.dat
0 STEP
1 71 -100.000000 -38.000000 -69.879930 -1.000000 0.000000 -0.000001 0.000000 1.000000 0.000000 0.000001 0.000000 -1.000000 3713.dat
1 71 -100.000100 -38.000000 -109.880000 0.000000 0.000000 1.000000 0.000000 1.000000 0.000000 -1.000000 0.000000 0.000000 32073.dat
0 STEP
1 15 -136.234500 -173.229700 -129.469900 0.965926 -0.000001 0.258818 -0.258818 -0.000001 0.965926 -0.000001 -1.000000 -0.000001 64871.dat
0 STEP
1 71 -100.000100 -38.000000 -144.450000 -1.000000 0.000000 0.000000 0.000000 -1.000000 0.000000 0.000000 0.000000 1.000000 4185.dat
1 14 -100.000100 -38.000000 -154.880000 0.000000 1.000000 0.000000 -1.000000 0.000000 0.000000 0.000000 0.000000 1.000000 32123a.dat
0 STEP
1 72 -200.000000 -38.000000 -109.999900 0.000000 0.641449 0.767165 0.000000 -0.767165 0.641449 1.000000 0.000000 0.000000 6587.dat
0 STEP
1 71 -199.999900 -37.999980 -130.001100 -0.641448 -0.000001 -0.767166 0.767166 0.000000 -0.641448 0.000001 -1.000002 0.000001 33299.dat
0 STEP
1 15 -173.261800 -79.617860 -149.310100 -0.272296 0.000001 -0.962214 -0.962214 0.000001 0.272296 0.000001 1.000000 0.000001 32524.dat
0 STEP
1 14 -115.529000 -95.955600 -164.520200 0.000000 1.000000 0.000000 -1.000000 0.000000 0.000000 0.000000 0.000000 1.000000 32123a.dat
1 0 -115.529000 -95.955600 -129.520100 0.000000 0.000000 1.000000 0.000000 1.000000 0.000000 -1.000000 0.000000 0.000000 3705.dat
0 STEP
1 15 -55.529020 -95.955550 -109.400200 0.000001 0.000001 -1.000000 -1.000000 0.000001 -0.000001 0.000001 1.000000 0.000001 32524.dat
1 14 -115.529000 -95.955600 -94.420150 0.000000 1.000000 0.000000 -1.000000 0.000000 0.000000 0.000000 0.000000 1.000000 32123a.dat
0 STEP
1 71 -0.000020 -38.000000 -69.650010 1.000000 0.000000 0.000001 0.000000 1.000000 0.000000 -0.000001 0.000000 1.000000 3713.dat
1 71 -0.000090 -38.000000 -109.650100 0.000000 0.000000 1.000000 0.000000 1.000000 0.000000 -1.000000 0.000000 0.000000 32073.dat
0 STEP
1 71 -15.529080 -95.955680 -89.349880 -1.000000 0.000000 -0.000001 0.000000 1.000000 0.000000 0.000001 0.000000 -1.000000 3713.dat
1 0 -15.529120 -95.955680 -119.349900 0.000000 0.000000 1.000000 0.000000 1.000000 0.000000 -1.000000 0.000000 0.000000 3705.dat
0 STEP
1 15 -36.234400 -173.229800 -129.999800 0.965927 -0.000001 0.258817 -0.258817 -0.000001 0.965926 -0.000001 -1.000000 -0.000001 64871.dat
0 STEP
1 71 -0.000090 -38.000000 -145.150100 -1.000000 0.000000 0.000000 0.000000 -1.000000 0.000000 0.000000 0.000000 1.000000 4185.dat
0 STEP
1 14 -0.000100 -38.000000 -154.650100 0.000000 1.000000 0.000000 -1.000000 0.000000 0.000000 0.000000 0.000000 1.000000 32123a.dat
1 71 -15.529140 -95.955680 -149.349900 1.000000 0.000000 0.000001 0.000000 1.000000 0.000000 -0.000001 0.000000 1.000000 3713.dat
0 STEP
0 STEP
