0 FILE BLK009海盗船_Copy.io
0 Untitled Model
0 Name:  BLK009海盗船_Copy
0 Author:  
0 CustomBrick
0 NumOfBricks:  72
1 1 9.999840 -9.999929 -230.000200 0.000001 0.000001 -1.000000 -1.000000 0.000001 -0.000001 0.000001 1.000000 0.000001 41239.dat
0 STEP
1 15 69.999920 -10.000000 -210.000100 0.000000 1.000000 0.000000 -1.000000 0.000000 0.000000 0.000000 0.000000 1.000000 55615.dat
1 15 -50.000100 -10.000010 -210.000200 0.000000 -1.000000 0.000000 1.000000 0.000000 0.000000 0.000000 0.000000 1.000000 55615.dat
0 STEP
1 16 80.000000 0.000000 0.000000 1.000000 0.000000 0.000000 0.000000 1.000000 0.000000 0.000000 0.000000 1.000000 submodel group 4
1 16 -60.000000 0.000000 0.000000 1.000000 0.000000 0.000000 0.000000 1.000000 0.000000 0.000000 0.000000 1.000000 submodel group 5
0 STEP
1 1 9.999889 -9.999909 90.000060 0.000001 0.000001 -1.000000 -1.000000 0.000001 -0.000001 0.000001 1.000000 0.000001 41239.dat
0 STEP
1 0 -60.000060 -10.000000 -50.000000 -1.000000 0.000000 0.000000 0.000000 1.000000 0.000000 0.000000 0.000000 -1.000000 2780.dat
1 0 -60.000060 -10.000010 -90.000080 -1.000000 0.000000 0.000000 0.000000 1.000000 0.000000 0.000000 0.000000 -1.000000 2780.dat
0 STEP
1 1 -50.000100 -50.000020 -70.000040 0.000000 -1.000000 0.000000 0.000000 0.000000 1.000000 -1.000000 0.000000 0.000000 60484.dat
0 STEP
1 0 -60.000210 -50.000760 -70.000020 1.000000 0.000000 0.000000 0.000000 -1.000000 0.000000 0.000000 0.000000 -1.000000 2780.dat
1 0 -60.000210 -30.000430 -70.000020 1.000000 0.000000 0.000000 0.000000 -1.000000 0.000000 0.000000 0.000000 -1.000000 2780.dat
0 STEP
1 0 79.999920 -9.999980 -50.000000 -1.000000 0.000000 0.000000 0.000000 1.000000 0.000000 0.000000 0.000000 -1.000000 2780.dat
1 0 79.999920 -9.999980 -90.000080 -1.000000 0.000000 0.000000 0.000000 1.000000 0.000000 0.000000 0.000000 -1.000000 2780.dat
0 STEP
1 1 69.999810 -50.000020 -70.000040 0.000000 -1.000000 0.000000 0.000000 0.000000 1.000000 -1.000000 0.000000 0.000000 60484.dat
0 STEP
1 0 79.999810 -50.000760 -70.000070 1.000000 0.000000 0.000000 0.000000 -1.000000 0.000000 0.000000 0.000000 -1.000000 2780.dat
1 0 79.999810 -30.000420 -70.000070 1.000000 0.000000 0.000000 0.000000 -1.000000 0.000000 0.000000 0.000000 -1.000000 2780.dat
0 STEP
1 1 89.999790 -170.000800 -69.999980 0.000001 1.000000 0.000001 0.000001 0.000001 -1.000000 -1.000000 0.000001 -0.000001 64871.dat
0 STEP
1 16 110.000000 -180.000000 -90.000000 1.000000 0.000000 0.000000 0.000000 0.971961 -0.235141 0.000000 0.235141 0.971961 submodel group 3
0 STEP
1 19 79.999900 -130.000800 -70.000060 -1.000000 -0.000001 0.000001 0.000001 0.000001 1.000000 -0.000001 1.000000 -0.000001 3749.dat
1 19 79.999800 -110.000800 -70.000070 -1.000000 -0.000001 0.000001 0.000000 0.390361 0.920662 -0.000001 0.920662 -0.390361 3749.dat
0 STEP
1 0 90.169730 -90.000780 -69.999920 -1.000000 0.000000 0.000000 0.000000 -1.000000 0.000000 0.000000 0.000000 1.000000 4519.dat
1 0 99.999710 -70.000760 -69.999880 -1.000000 0.000000 0.000000 0.000000 1.000000 0.000000 0.000000 0.000000 -1.000000 2780.dat
0 STEP
1 71 70.169720 -90.000770 -69.999920 0.000000 0.000000 1.000000 0.000000 -1.000000 0.000000 1.000000 0.000000 0.000000 3647.dat
0 STEP
1 71 69.999690 -130.000700 -70.000110 0.000000 0.000000 1.000000 1.000000 0.000000 0.000000 0.000000 1.000000 0.000000 3647.dat
1 71 69.999800 -110.000800 -70.000070 0.000000 0.000000 1.000000 0.920662 0.390361 0.000000 -0.390361 0.920662 0.000000 3647.dat
0 STEP
1 71 70.499800 -190.000700 -70.000070 0.000000 0.000000 -1.000000 -0.971961 -0.235141 0.000000 -0.235141 0.971961 0.000000 3649.dat
0 STEP
1 16 10.000000 -72.000000 -110.000000 1.000000 0.000000 0.000000 0.000000 0.954175 0.299249 0.000000 -0.299249 0.954175 submodel group 2
0 STEP
1 1 -70.000220 -170.000800 -69.999940 0.000001 1.000000 0.000001 0.000001 0.000001 -1.000000 -1.000000 0.000001 -0.000001 64871.dat
0 STEP
1 71 -90.000140 -309.523700 -70.149760 0.000001 0.000000 -1.000000 0.299248 0.954175 0.000000 0.954175 -0.299248 0.000001 3713.dat
0 STEP
1 16 -120.000000 -288.000000 -70.000000 1.000000 0.000000 -0.000001 0.000000 0.954175 0.299249 0.000001 -0.299249 0.954175 submodel group 1
0 STEP
1 15 101.999800 -89.996950 -70.140030 0.000000 0.000000 1.000000 0.000000 1.000000 0.000000 -1.000000 0.000000 0.000000 dx0034.dat
0 STEP
1 16 291.000000 -63.000000 -133.000000 0.000000 0.000000 -1.000000 0.000000 1.000000 0.000000 1.000000 0.000000 0.000000 submodel group 9 copy copy copy
0 STEP
0 STEP
0 NOFILE
0 FILE SubModel Group 4
0 SubModel Group 4
0 Name:  SubModel Group 4
0 Author:  
0 CustomBrick
0 NumOfBricks:  2
1 1 9.999909 -9.999880 -70.000070 0.000001 1.000000 0.000001 -1.000000 0.000001 -0.000001 -0.000001 -0.000001 1.000000 64871.dat
0 STEP
1 15 -10.000190 -9.999980 70.000010 0.000000 1.000000 0.000000 1.000000 0.000000 0.000000 0.000000 0.000000 -1.000000 55615.dat
0 STEP
0 NOFILE
0 FILE SubModel Group 5
0 SubModel Group 5
0 Name:  SubModel Group 5
0 Author:  
0 CustomBrick
0 NumOfBricks:  2
1 1 -10.000130 -9.999909 -70.000100 0.000001 1.000000 0.000001 -1.000000 0.000001 -0.000001 -0.000001 -0.000001 1.000000 64871.dat
0 STEP
1 15 10.000000 -10.000000 70.000010 0.000000 -1.000000 0.000000 -1.000000 0.000000 0.000000 0.000000 0.000000 -1.000000 55615.dat
0 STEP
0 NOFILE
0 FILE SubModel Group 3
0 SubModel Group 3
0 Name:  SubModel Group 3
0 Author:  
0 CustomBrick
0 NumOfBricks:  8
1 0 -19.500210 -5.017480 21.790740 1.000000 0.000000 0.000000 0.000000 1.000000 0.000000 0.000000 0.000000 1.000001 4519.dat
0 STEP
1 0 -5.000210 -14.423130 -17.087750 0.000001 1.000000 0.000001 -0.971962 0.000001 0.235140 0.235140 -0.000001 0.971962 6632.dat
1 0 4.999610 -14.423100 -17.087650 0.000001 1.000000 0.000001 -0.971962 0.000001 0.235140 0.235140 -0.000001 0.971962 6632.dat
0 STEP
1 19 9.999790 -14.423100 -17.087650 -1.000000 -0.000001 0.000001 0.000001 0.235142 0.971961 -0.000001 0.971961 -0.235142 3749.dat
0 STEP
1 71 19.999800 -14.423000 -17.087680 1.000000 0.000002 0.000002 0.000000 -0.533224 0.845974 0.000003 -0.845974 -0.533224 32013.dat
0 STEP
1 0 19.999700 -99.020690 36.234480 0.000000 0.000000 1.000000 -0.845974 -0.533224 0.000000 0.533224 -0.845974 0.000000 60485.dat
0 STEP
1 71 20.500000 -121.658700 49.967920 -0.000002 -0.000002 1.000000 -0.857054 -0.515227 -0.000003 0.515227 -0.857054 0.000000 32013.dat
0 STEP
1 0 -18.000230 -121.652900 50.007620 -1.000000 0.000000 0.000000 0.000000 -0.857056 0.515224 0.000000 0.515224 0.857056 4519.dat
0 STEP
0 NOFILE
0 FILE SubModel Group 2
0 SubModel Group 2
0 Name:  SubModel Group 2
0 Author:  
0 CustomBrick
0 NumOfBricks:  27
1 15 19.999860 -31.010700 -30.889220 0.000001 1.000001 0.000001 -1.000001 0.000000 -0.000001 -0.000001 -0.000001 1.000001 40490.dat
0 STEP
1 1 -0.000150 -31.010760 -70.889130 -1.000001 0.000000 0.000000 0.000000 0.000000 1.000001 0.000000 1.000000 0.000000 6558.dat
1 1 -0.000150 -31.010780 -50.889030 -1.000001 0.000000 0.000000 0.000000 0.000000 1.000001 0.000000 1.000000 0.000000 6558.dat
0 STEP
1 1 -0.000150 -31.010780 9.110869 -1.000001 0.000000 0.000000 0.000000 0.000000 1.000001 0.000000 1.000000 0.000000 6558.dat
1 1 -0.000150 -31.010800 -10.889140 -1.000001 0.000000 0.000000 0.000000 0.000000 1.000001 0.000000 1.000000 0.000000 6558.dat
0 STEP
1 1 -0.000150 -31.010790 49.110880 -1.000001 0.000000 0.000000 0.000000 -0.017452 0.999848 0.000000 0.999848 0.017452 6558.dat
1 1 -0.000150 -31.010830 -110.889000 -1.000001 0.000000 0.000000 0.000000 0.000000 1.000001 0.000000 1.000000 0.000000 6558.dat
0 STEP
1 1 -0.000120 -31.010790 49.110880 0.000001 1.000001 -0.000001 -0.933581 0.000000 -0.358368 -0.358368 0.000001 0.933581 32526.dat
1 1 -0.000180 -31.010830 -110.889000 -0.000001 -1.000001 0.000001 -0.927185 0.000000 -0.374606 0.374606 -0.000001 -0.927185 32526.dat
0 STEP
1 1 -0.000250 -97.023490 109.462600 -1.000001 0.000000 0.000000 0.000000 0.192875 0.981224 0.000000 0.981223 -0.192875 6558.dat
1 1 -0.000260 -97.612990 -170.536700 -1.000001 0.000000 0.000000 0.000000 0.000000 1.000001 0.000000 1.000000 0.000000 6558.dat
0 STEP
1 1 19.999690 -97.318130 -30.537000 0.000001 1.000001 0.000001 -0.999999 0.000000 0.002104 0.002105 -0.000001 0.999998 64871.dat
0 STEP
1 1 -0.000190 -31.010850 -30.889060 0.000001 1.000001 0.000001 1.000001 0.000000 0.000001 0.000000 0.000001 -1.000001 32523.dat
0 STEP
1 71 -0.000260 -97.107780 49.462500 0.000001 0.000001 1.000001 1.000000 0.000001 -0.000001 0.000000 1.000000 0.000000 48989.dat
1 71 -0.000190 -97.444560 -110.536800 0.000001 0.000001 1.000000 1.000000 0.000000 -0.000001 0.000000 1.000000 0.000000 48989.dat
0 STEP
1 1 -0.000250 -129.779700 -6.532560 0.000001 1.000000 0.000001 0.156436 0.000001 -0.987689 -0.987689 0.000000 -0.156436 64290.dat
1 1 -0.000260 -130.037600 -56.971780 0.000001 1.000001 0.000001 -0.139173 0.000001 -0.990268 -0.990268 0.000000 0.139173 64290.dat
0 STEP
1 1 -0.000170 -229.064500 -23.054500 -1.000000 0.000000 0.000000 0.000000 1.000000 0.000000 0.000000 0.000000 -1.000001 6558.dat
1 1 -0.000170 -229.064400 -43.054520 -1.000000 0.000000 0.000000 0.000000 1.000000 0.000000 0.000000 0.000000 -1.000001 6558.dat
0 STEP
1 14 19.999830 -239.064400 -33.054600 0.000000 0.000000 -1.000000 0.000000 1.000000 0.000000 1.000000 0.000000 0.000000 3648b.dat
0 STEP
1 0 -0.000190 -239.064400 -33.054580 -1.000001 0.000000 0.000000 0.000000 1.000000 0.000000 0.000000 0.000000 -1.000000 32073.dat
0 STEP
1 71 49.999780 -239.064400 -33.054580 -0.000001 0.000000 1.000000 0.000000 1.000000 0.000000 -1.000000 0.000000 -0.000001 59443.dat
0 STEP
1 14 -20.000250 -239.064400 -33.054600 0.000000 0.000000 -1.000000 0.000000 1.000000 0.000000 1.000000 0.000000 0.000000 3648b.dat
0 STEP
1 15 -20.000220 -31.010790 -30.889250 -0.000001 -1.000001 -0.000001 1.000001 -0.000001 0.000001 0.000000 0.000000 1.000000 40490.dat
0 STEP
1 1 -20.000240 -97.613090 -30.536550 0.000001 1.000001 0.000001 1.000001 0.000000 0.000001 0.000001 0.000001 -1.000001 64871.dat
0 STEP
1 71 -50.000110 -239.064400 -33.054620 0.000001 0.000000 -1.000001 0.000000 -1.000001 0.000000 -1.000000 0.000000 -0.000001 59443.dat
0 STEP
1 0 -90.000060 -239.064400 -33.054630 -1.000001 0.000000 0.000000 0.000000 1.000001 0.000000 0.000000 0.000000 -1.000000 3705.dat
0 STEP
0 NOFILE
0 FILE SubModel Group 1
0 SubModel Group 1
0 Name:  SubModel Group 1
0 Author:  
0 CustomBrick
0 NumOfBricks:  4
1 71 9.999900 -20.992680 -6.583840 0.000000 0.000000 1.000000 1.000000 0.000000 0.000000 0.000000 1.000000 0.000000 32039.dat
0 STEP
1 0 -10.000200 -40.992700 -6.583830 -0.000001 -1.000000 0.000000 0.000000 0.000000 1.000000 -1.000000 0.000001 0.000000 57585.dat
0 STEP
1 1 -10.000080 -35.680210 24.196370 0.000001 0.000000 -1.000000 -0.500000 0.866026 0.000000 0.866025 0.500000 0.000001 42003.dat
0 STEP
1 1 -10.000130 -33.664140 -33.908980 -0.000001 -0.000001 1.000000 -0.500000 0.866026 0.000000 -0.866025 -0.500000 -0.000001 42003.dat
0 STEP
0 NOFILE
0 FILE SubModel Group 9 Copy Copy Copy
0 SubModel Group 9 Copy Copy Copy
0 Name:  SubModel Group 9 Copy Copy Copy
0 Author:  
0 CustomBrick
0 NumOfBricks:  3
1 72 10.000000 -1.128810 -10.000000 1.000000 0.000000 0.000000 0.000000 0.000000 -1.000000 0.000000 1.000000 0.000000 dch003.dat
1 71 -27.466620 -79.717990 29.427020 1.000000 0.000000 0.000000 0.000000 0.000000 -1.000000 0.000000 1.000000 0.000000 dch004.dat
1 25 7.837010 13.484720 -9.965000 1.000000 0.000000 0.000000 0.000000 0.000000 -1.000000 0.000000 1.000000 0.000000 dch005.dat
0 NOFILE
