0 Untitled Model
0 Name:  等边三角形
0 Author:  
0 CustomBrick
0 NumOfBricks:  6
1 15 -39.282080 -10.000010 -30.000020 -1.000000 0.000001 0.000000 -0.000001 -1.000000 0.000000 0.000000 0.000000 1.000000 40490.dat
1 0 -39.282090 -20.000050 -110.000000 0.000000 0.500001 -0.866026 1.000000 0.000000 0.000000 0.000001 -0.866026 -0.500001 2780.dat
0 STEP
1 15 29.999940 -30.000020 -69.999820 0.500001 0.000000 -0.866025 -0.000001 -1.000000 -0.000001 -0.866025 0.000001 -0.500001 40490.dat
0 STEP
1 0 99.281960 -39.999910 -29.999760 0.000000 0.500001 -0.866026 1.000000 0.000000 0.000000 0.000001 -0.866026 -0.500001 2780.dat
1 19 -39.282220 -30.000030 50.000300 0.000000 0.500001 0.866026 -1.000000 0.000000 0.000000 -0.000001 -0.866026 0.500001 32556.dat
0 STEP
1 15 29.999860 -49.999970 10.000350 -0.500000 0.000001 -0.866026 0.000000 -1.000000 -0.000001 -0.866026 -0.000001 0.500000 40490.dat
0 STEP
0 STEP
