0 FILE 推雪车.io
0 Untitled Model
0 Name:  推雪车
0 Author:  
0 CustomBrick
0 NumOfBricks:  70
1 1 -35.999300 -52.635240 165.000000 0.999997 0.000000 0.000000 0.000000 0.999997 0.000000 0.000000 0.000000 1.000000 3703.dat
1 0 -95.999160 -42.635270 155.000000 0.000000 0.000000 -0.999997 0.000000 0.999997 0.000000 1.000000 0.000000 0.000000 2780.dat
1 0 -135.999000 -42.635280 155.000100 0.000000 0.000000 -0.999997 0.000000 0.999997 0.000000 1.000000 0.000000 0.000000 2780.dat
0 STEP
1 71 -115.999100 -42.635270 164.940100 0.000000 -0.999997 0.000000 0.000000 0.000000 0.999997 -1.000000 0.000000 0.000000 4519.dat
0 STEP
1 72 -115.999000 -42.635270 184.940100 0.000000 -0.999997 0.000000 0.999997 0.000000 0.000000 0.000000 0.000000 1.000000 3648b.dat
0 STEP
1 15 -116.000000 -42.608270 154.000000 -1.000000 0.000000 0.000000 0.000000 1.000000 0.000000 0.000000 0.000000 -1.000000 xt0019.dat
0 STEP
1 1 114.000100 -28.635310 54.999800 0.000000 0.000000 0.999997 0.000000 0.999997 0.000000 -1.000000 0.000000 0.000000 3710.dat
1 1 114.000100 -28.635310 135.000000 0.000000 0.000000 0.999997 0.000000 0.999997 0.000000 -1.000000 0.000000 0.000000 3710.dat
1 15 114.000100 -36.635310 94.999970 0.000000 0.000000 1.000000 0.000000 1.000000 0.000000 -1.000000 0.000000 0.000000 2431.dat
0 STEP
1 1 -35.999330 -52.635240 24.999770 0.999997 0.000000 0.000000 0.000000 0.999997 0.000000 0.000000 0.000000 1.000000 3703.dat
0 STEP
1 1 -185.999000 -28.635320 54.999820 0.000000 0.000000 0.999997 0.000000 0.999997 0.000000 -1.000000 0.000000 0.000000 3710.dat
1 1 -185.998900 -28.635320 135.000100 0.000000 0.000000 0.999997 0.000000 0.999997 0.000000 -1.000000 0.000000 0.000000 3710.dat
1 15 -185.998900 -36.635320 95.000000 0.000000 0.000000 1.000000 0.000000 1.000000 0.000000 -1.000000 0.000000 0.000000 2431.dat
0 STEP
1 72 -175.998900 -42.635260 184.921100 0.991442 0.130526 0.000000 -0.130527 0.991442 0.000000 0.000000 0.000000 1.000000 3648b.dat
1 0 -175.998900 -42.635280 95.360000 0.000000 0.130527 -0.991445 0.000000 0.991445 0.130527 1.000000 0.000000 0.000000 3708.dat
0 STEP
1 71 -175.999000 -42.635270 5.099880 0.991442 0.130526 0.000000 -0.130527 0.991442 0.000000 0.000000 0.000000 1.000000 3713.dat
0 STEP
1 1 -175.999000 -60.635210 95.000000 0.000000 0.000000 0.999997 0.000000 0.999997 0.000000 -1.000000 0.000000 0.000000 3738.dat
1 1 84.000190 -60.635210 94.999970 0.000000 0.000000 0.999997 0.000000 0.999997 0.000000 -1.000000 0.000000 0.000000 3738.dat
0 STEP
1 0 -176.001100 -42.635170 215.207100 -0.130527 -0.991445 0.000000 -0.991445 0.130527 -0.000001 0.000001 0.000000 -1.000000 30391.dat
1 71 -175.998900 -42.635270 214.950100 -0.991442 0.130526 0.000000 0.130527 0.991442 0.000000 0.000000 0.000000 -1.000000 55982.dat
0 STEP
1 0 -175.999100 -42.634960 -24.936920 -0.130526 0.991442 0.000000 -0.991446 -0.130527 -0.000001 -0.000001 0.000000 1.000000 30391.dat
1 71 -175.999100 -42.635270 -24.680210 0.991442 0.130526 0.000000 -0.130527 0.991442 0.000000 0.000000 0.000000 1.000000 55982.dat
0 STEP
1 19 104.000100 -42.635260 175.000000 -0.000001 0.999997 -0.000001 0.000001 0.000001 0.999997 1.000000 0.000001 -0.000001 3749.dat
1 19 104.000100 -42.635280 14.999760 -0.000001 0.999997 -0.000001 -0.000001 -0.000001 -0.999997 -1.000000 -0.000001 0.000001 3749.dat
0 STEP
1 0 104.000000 -42.635280 -5.255450 0.000000 0.999997 0.000000 -0.999997 0.000000 -0.000001 -0.000001 0.000000 1.000000 30391.dat
1 71 104.000100 -42.635280 -5.000250 0.999997 0.000000 0.000000 0.000000 0.999997 0.000000 0.000000 0.000000 1.000000 55982.dat
0 STEP
1 0 104.000500 -42.635260 195.258100 0.000000 -0.999997 0.000000 -0.999997 0.000000 -0.000001 0.000001 0.000000 -1.000000 30391.dat
1 71 104.000200 -42.635260 195.000000 -0.999999 0.000000 0.000000 0.000000 0.999998 0.000000 0.000000 0.000000 -1.000000 55982.dat
0 STEP
1 16 -50.000000 -60.000000 90.000000 1.000000 0.000000 0.000000 0.000000 1.000000 0.000000 0.000000 0.000000 1.000000 submodel group 1
0 STEP
1 19 83.999980 -98.635180 115.000000 1.000000 0.000001 -0.000001 0.000001 0.000001 1.000000 0.000001 -1.000000 0.000001 3749.dat
1 19 83.999980 -98.635180 75.000030 1.000000 0.000001 -0.000001 0.000001 0.000001 1.000000 0.000001 -1.000000 0.000001 3749.dat
0 STEP
1 72 88.990060 -98.635180 75.000030 0.000000 0.000000 1.000000 0.000000 1.000000 0.000000 -1.000000 0.000000 0.000000 6575.dat
1 72 89.539970 -98.635180 115.000000 0.000000 0.000000 1.000000 0.000000 1.000000 0.000000 -1.000000 0.000000 0.000000 6575.dat
0 STEP
1 19 96.999970 -98.635150 75.000030 -0.000001 0.000000 1.000000 0.000000 -1.000000 0.000000 1.000000 0.000000 0.000001 6589.dat
1 19 96.999980 -98.635180 115.000000 -0.000001 0.000000 1.000000 0.000000 -1.000000 0.000000 1.000000 0.000000 0.000001 6589.dat
0 STEP
1 15 74.000060 -132.635200 24.999760 -1.000000 0.000000 0.000000 0.000000 1.000000 0.000000 0.000000 0.000000 -1.000000 3040b.dat
1 15 74.000000 -132.635200 165.000000 1.000000 0.000000 0.000000 0.000000 1.000000 0.000000 0.000000 0.000000 1.000000 3040b.dat
0 STEP
1 0 53.998760 -148.635100 74.999000 0.000000 0.000000 1.000000 1.000000 0.000000 0.000000 0.000000 1.000000 0.000000 2780.dat
1 0 53.998760 -148.635100 114.999000 0.000000 0.000000 1.000000 1.000000 0.000000 0.000000 0.000000 1.000000 0.000000 2780.dat
1 19 53.998880 -158.635100 94.998880 0.000000 0.000000 -1.000000 -1.000000 0.000000 0.000000 0.000000 1.000000 0.000000 32556.dat
0 STEP
1 15 53.998880 -158.635100 94.999000 -1.000000 0.000001 -0.000001 -0.000001 -1.000000 -0.000001 -0.000001 -0.000001 1.000000 32316.dat
0 STEP
1 0 53.998940 -168.635100 54.999000 0.000000 0.000000 -1.000000 -1.000000 0.000000 0.000000 0.000000 1.000000 0.000000 2780.dat
1 0 53.998760 -168.635100 134.999100 0.000000 0.000000 -1.000000 -1.000000 0.000000 0.000000 0.000000 1.000000 0.000000 2780.dat
0 STEP
1 19 93.998900 -178.635100 44.998960 0.000001 -1.000000 0.000001 -0.000001 -0.000001 -1.000000 1.000000 0.000001 -0.000001 3749.dat
1 4 73.998920 -178.635100 54.999000 0.000000 -1.000000 0.000000 0.000000 0.000000 1.000000 -1.000000 0.000000 0.000000 42003.dat
0 STEP
1 19 93.998760 -178.635100 144.999000 -0.000001 1.000000 -0.000001 -0.000001 -0.000001 -1.000000 -1.000000 -0.000001 0.000001 3749.dat
1 4 73.998740 -178.635100 134.999100 0.000000 -1.000000 0.000000 0.000000 0.000000 1.000000 -1.000000 0.000000 0.000000 42003.dat
0 STEP
1 15 145.421900 -117.351600 154.998900 0.766044 0.000001 -0.642789 -0.642789 0.000001 -0.766044 0.000000 1.000000 0.000001 40490.dat
1 15 145.421900 -117.351500 34.998900 0.766044 0.000001 -0.642788 -0.642788 0.000001 -0.766044 0.000000 1.000000 0.000001 40490.dat
0 STEP
1 0 196.845000 -56.068060 144.998800 0.000000 1.000000 0.000000 0.000000 0.000000 1.000000 1.000000 0.000000 0.000000 2780.dat
1 0 196.844900 -56.067980 44.998710 0.000000 1.000000 0.000000 0.000000 0.000000 1.000000 1.000000 0.000000 0.000000 2780.dat
0 STEP
1 1 206.844900 -56.067980 54.998720 0.000000 -1.000000 0.000000 1.000000 0.000000 0.000000 0.000000 0.000000 1.000000 3701.dat
1 1 206.845000 -56.068060 134.998800 0.000000 -1.000000 0.000000 1.000000 0.000000 0.000000 0.000000 0.000000 1.000000 3701.dat
0 STEP
1 1 214.845000 -36.068060 104.998700 0.000000 -1.000000 0.000000 0.000000 0.000000 1.000000 -1.000000 0.000000 0.000000 32001.dat
1 1 214.845000 -76.068060 84.998720 0.000000 -1.000000 0.000000 0.000000 0.000000 -1.000000 1.000000 0.000000 0.000000 32001.dat
0 STEP
1 1 206.845000 -56.068070 84.998740 0.000000 -1.000000 0.000000 -1.000000 0.000000 0.000000 0.000000 0.000000 -1.000000 3709b.dat
0 STEP
1 0 -146.001500 -148.635100 114.999000 0.000000 0.000000 -1.000000 1.000000 0.000000 0.000000 0.000000 -1.000000 0.000000 2780.dat
1 19 -146.001500 -158.635100 94.999030 0.000000 0.000000 1.000000 -1.000000 0.000000 0.000000 0.000000 -1.000000 0.000000 32556.dat
0 STEP
1 15 -146.001500 -158.635100 94.999030 -1.000000 0.000001 -0.000001 -0.000001 -1.000000 -0.000001 -0.000001 -0.000001 1.000000 32316.dat
0 STEP
1 15 -46.001510 -178.635000 94.999140 0.000001 0.000001 -1.000000 -0.000001 -1.000000 -0.000001 -1.000000 0.000001 -0.000001 64871.dat
0 STEP
0 STEP
0 NOFILE
0 FILE SubModel Group 1
0 SubModel Group 1
0 Name:  SubModel Group 1
0 Author:  
0 CustomBrick
0 NumOfBricks:  11
1 1 -115.999000 -24.635230 5.000000 0.000000 0.000000 1.000000 0.000000 1.000000 0.000000 -1.000000 0.000000 0.000000 3702.dat
0 STEP
1 0 -106.002000 -38.635220 -35.000180 -1.000003 0.000000 0.000000 0.000000 1.000000 0.000000 0.000000 0.000000 -1.000004 2780.dat
1 0 -106.002000 -38.635210 45.001040 -1.000003 0.000000 0.000000 0.000000 1.000000 0.000000 0.000000 0.000000 -1.000004 2780.dat
1 1 -115.997700 -48.635220 4.995960 0.000000 0.000000 1.000000 0.000000 1.000000 0.000000 -1.000000 0.000000 0.000000 3702.dat
0 STEP
1 16 -59.000000 -48.427020 -65.000000 1.000000 0.000000 0.000000 0.000000 0.000000 1.000000 0.000000 -1.000000 0.000000 submodel group 9 copy copy copy
0 STEP
1 0 113.999200 -38.635240 -34.999900 -1.000003 0.000000 0.000000 0.000000 1.000000 0.000000 0.000000 0.000000 -1.000003 2780.dat
1 0 113.999200 -38.635220 45.000030 -1.000003 0.000000 0.000000 0.000000 1.000000 0.000000 0.000000 0.000000 -1.000003 2780.dat
0 STEP
1 1 124.000000 -48.635220 4.999910 0.000000 0.000000 1.000001 0.000000 1.000000 0.000000 -1.000002 0.000000 0.000000 3702.dat
1 1 124.000100 -24.635210 4.999970 0.000000 0.000000 1.000000 0.000000 1.000000 0.000000 -1.000000 0.000000 0.000000 3702.dat
0 STEP
0 NOFILE
0 FILE SubModel Group 9 Copy Copy Copy
0 SubModel Group 9 Copy Copy Copy
0 Name:  SubModel Group 9 Copy Copy Copy
0 Author:  
0 CustomBrick
0 NumOfBricks:  3
1 72 10.000000 -1.128810 -10.000000 1.000000 0.000000 0.000000 0.000000 0.000000 -1.000000 0.000000 1.000000 0.000000 dch003.dat
1 71 -27.466620 -79.717990 29.427020 1.000000 0.000000 0.000000 0.000000 0.000000 -1.000000 0.000000 1.000000 0.000000 dch004.dat
1 25 7.837010 13.484720 -9.965000 1.000000 0.000000 0.000000 0.000000 0.000000 -1.000000 0.000000 1.000000 0.000000 dch005.dat
0 NOFILE
