0 Untitled Model
0 Name:  电锯（电机
0 Author:  
0 CustomBrick
0 NumOfBricks:  96
1 19 189.987600 -9.996200 -280.000000 0.000001 0.000001 1.000003 -0.000001 1.000004 -0.000001 -1.000003 -0.000001 0.000001 3749.dat
1 0 149.987600 -9.996079 -219.999900 0.000000 -1.000002 0.000000 0.000000 0.000000 -1.000003 1.000003 0.000000 0.000000 2780.dat
1 0 149.987600 -9.996200 -280.000000 0.000000 1.000002 0.000000 0.000000 0.000000 -1.000003 -1.000003 0.000000 0.000000 2780.dat
1 19 189.987600 -9.996079 -219.999800 -0.000001 -0.000001 -1.000003 -0.000002 1.000003 -0.000001 1.000003 0.000001 -0.000001 3749.dat
1 1 29.986420 -9.996059 -209.999800 -0.000001 0.000000 -1.000003 -1.000003 -0.000001 0.000001 -0.000001 1.000003 0.000000 32009.dat
1 1 29.986300 -9.996059 -290.000100 0.000000 0.000000 -1.000003 -1.000003 -0.000001 0.000000 -0.000001 1.000003 0.000000 32009.dat
1 71 170.000000 -110.000000 -250.000100 0.000000 1.000000 0.000000 -1.000000 0.000000 0.000000 0.000000 0.000000 1.000000 58119.dat
0 STEP
1 0 29.986360 -69.996260 -199.999800 0.000000 0.000000 -1.000000 0.000000 1.000000 0.000000 1.000000 0.000000 0.000000 2780.dat
1 0 29.986300 -69.996270 -300.000100 0.000000 0.000000 -1.000000 0.000000 1.000000 0.000000 1.000000 0.000000 0.000000 2780.dat
0 STEP
1 4 29.986360 -69.996260 -179.999800 0.000000 0.000000 1.000000 0.000000 1.000000 0.000000 -1.000000 0.000000 0.000000 62462.dat
1 4 29.986300 -69.996270 -320.000000 0.000000 0.000000 1.000000 0.000000 1.000000 0.000000 -1.000000 0.000000 0.000000 62462.dat
0 STEP
1 0 209.987100 -219.996700 -229.999900 0.000000 0.000000 -1.000002 -1.000003 0.000000 0.000000 0.000000 1.000003 0.000000 2780.dat
1 0 129.986600 -219.996600 -229.999900 0.000000 0.000000 -1.000002 -1.000003 0.000000 0.000000 0.000000 1.000003 0.000000 2780.dat
1 71 229.987800 -229.996200 -229.999900 -0.000001 0.000001 -1.000002 -0.000001 1.000003 0.000001 1.000002 0.000001 -0.000001 60483.dat
1 71 109.986500 -229.996200 -229.999900 0.000001 -0.000002 1.000002 0.000001 -1.000003 -0.000001 1.000002 0.000001 -0.000001 60483.dat
0 STEP
1 1 169.987500 -249.996200 -240.000100 -1.000004 0.000000 0.000000 0.000000 0.000000 1.000003 0.000000 1.000002 0.000000 3702.dat
1 19 229.987800 -239.996200 -229.999900 -0.000001 1.000002 -0.000001 1.000003 0.000001 -0.000001 -0.000001 -0.000001 -1.000002 3749.dat
1 19 109.986500 -239.996200 -229.999900 -0.000001 1.000002 -0.000001 1.000003 0.000001 -0.000001 -0.000001 -0.000001 -1.000002 3749.dat
0 STEP
1 1 189.987700 -249.996200 -263.999900 -1.000004 0.000000 0.000000 0.000000 0.000001 1.000003 0.000000 1.000002 -0.000001 3894.dat
0 STEP
1 1 -30.014130 -249.996000 -264.000000 1.000002 0.000000 0.000000 0.000000 0.000000 -1.000003 0.000000 1.000002 0.000000 3703.dat
0 STEP
1 15 -10.014070 -229.996000 -254.000100 0.000001 0.000001 -1.000000 0.000001 1.000000 0.000001 1.000000 -0.000001 0.000001 32316.dat
1 0 29.985870 -239.996000 -254.000100 0.000000 0.000000 -1.000000 1.000000 0.000000 0.000000 0.000000 -1.000000 0.000000 2780.dat
1 0 -50.014260 -239.996000 -254.000100 0.000000 0.000000 -1.000000 -1.000000 0.000000 0.000000 0.000000 1.000000 0.000000 2780.dat
0 STEP
1 0 -10.014070 -219.996000 -254.000200 0.000000 0.000000 -1.000000 1.000000 0.000000 0.000000 0.000000 -1.000000 0.000000 2780.dat
1 4 -10.014070 -209.996000 -254.000200 0.000000 0.000000 -1.000000 -1.000000 0.000000 0.000000 0.000000 1.000000 0.000000 32034.dat
0 STEP
1 0 210.987300 -219.996700 -270.000000 0.000000 0.000000 -1.000002 -1.000003 0.000000 0.000000 0.000000 1.000003 0.000000 2780.dat
1 0 129.999400 -219.999600 -270.000000 0.000001 0.784767 -0.619795 -1.000003 0.000000 -0.000001 -0.000001 0.619795 0.784767 2780.dat
0 STEP
1 19 109.986200 -239.996000 -278.000200 -0.000001 0.898781 0.438401 1.000003 0.000002 0.000000 -0.000001 0.438401 -0.898782 3749.dat
1 19 229.987800 -239.996200 -277.999900 -0.000001 0.906312 -0.422617 1.000003 0.000000 -0.000001 -0.000001 -0.422617 -0.906312 3749.dat
1 71 109.986100 -229.996000 -278.000000 -0.438402 0.000001 0.898782 0.000000 -1.000003 0.000002 0.898781 0.000001 0.438401 60483.dat
1 71 228.987500 -229.996200 -277.999900 0.422615 0.000002 -0.906313 -0.000001 1.000003 0.000002 0.906313 0.000000 0.422615 60483.dat
0 STEP
1 1 169.987500 -249.996200 -288.000000 -1.000004 0.000000 0.000000 0.000000 0.000000 1.000003 0.000000 1.000002 0.000000 3702.dat
0 STEP
1 1 29.985930 -259.996100 -239.999900 1.000004 0.000000 0.000000 0.000000 0.000000 -1.000003 0.000000 1.000002 0.000000 32001.dat
0 STEP
1 1 169.987500 -249.996300 -312.000000 -1.000004 0.000000 0.000000 0.000000 0.000001 1.000003 0.000000 1.000002 -0.000001 3702.dat
1 1 169.988800 -250.000700 -216.002600 -1.000004 0.000000 0.000000 0.000000 0.000000 0.999999 0.000000 1.000002 0.000000 3702.dat
0 STEP
1 0 129.986900 -259.996300 -302.000000 0.000000 0.000000 1.000004 -1.000003 0.000000 0.000000 0.000000 -1.000002 0.000000 2780.dat
1 0 209.987400 -259.996100 -205.999900 0.000000 0.000000 1.000004 -1.000003 0.000000 0.000000 0.000000 -1.000002 0.000000 2780.dat
1 0 209.987400 -259.996200 -302.000000 0.000000 0.000000 1.000004 -1.000003 0.000000 0.000000 0.000000 -1.000002 0.000000 2780.dat
1 0 129.986800 -259.996100 -205.999900 0.000000 0.000000 1.000004 -1.000003 0.000000 0.000000 0.000000 -1.000002 0.000000 2780.dat
0 STEP
1 71 169.987500 -309.997300 -205.999900 0.000000 0.000000 -1.000004 1.000003 0.000000 0.000000 0.000000 -1.000002 0.000000 64179.dat
1 71 169.987500 -308.997300 -301.999900 0.000000 0.000000 -1.000004 1.000003 0.000000 0.000000 0.000000 -1.000002 0.000000 64179.dat
0 STEP
1 1 79.986290 -319.997100 -264.000000 0.000001 0.000000 1.000003 1.000003 0.000000 0.000000 0.000000 1.000002 0.000000 3894.dat
1 0 89.986530 -339.997000 -254.000100 -1.000004 0.000000 0.000000 0.000000 0.000000 1.000003 0.000000 1.000002 0.000000 2780.dat
1 0 89.986530 -299.996800 -254.000100 -1.000004 0.000000 0.000000 0.000000 0.000000 1.000003 0.000000 1.000002 0.000000 2780.dat
1 1 59.986180 -319.997100 -264.000000 0.000001 0.000000 1.000003 1.000003 0.000000 0.000000 0.000000 1.000002 0.000000 3894.dat
0 STEP
1 71 38.945900 -320.997100 -254.000100 0.000000 0.000000 1.000003 -0.995268 0.097202 0.000000 -0.097202 -0.995267 0.000000 3713.dat
1 71 18.966040 -320.997200 -254.000100 0.000001 0.000000 -1.000002 0.995268 0.097202 0.000000 0.097202 -0.995268 0.000000 3713.dat
1 0 32.985940 -320.997000 -254.000100 -1.000004 0.000000 0.000000 0.000000 0.097202 -0.995268 0.000000 -0.995268 -0.097202 3707.dat
0 STEP
1 71 89.986530 -319.997100 -254.000100 0.000001 0.000000 1.000003 1.000003 0.000000 0.000000 0.000000 1.000002 0.000000 58120.dat
0 STEP
1 1 179.987600 -367.997700 -255.999900 1.000004 0.000000 0.000000 0.000000 -1.000003 0.000000 0.000000 0.000000 -1.000002 3709b.dat
1 1 159.987400 -367.997700 -295.999900 -1.000004 0.000000 0.000000 0.000000 -1.000003 0.000000 0.000000 0.000000 1.000002 32001.dat
1 1 159.987400 -367.997700 -215.999900 -1.000004 0.000000 0.000000 0.000000 -1.000003 0.000000 0.000000 0.000000 1.000002 32001.dat
1 1 209.987600 -359.997700 -256.000000 0.000000 0.000000 1.000004 0.000000 -1.000003 0.000000 1.000002 0.000000 0.000000 3666.dat
1 1 169.987500 -359.997700 -255.999900 0.000000 0.000000 1.000004 0.000000 -1.000003 0.000000 1.000002 0.000000 0.000000 3666.dat
0 STEP
1 1 -40.014440 -319.997200 -264.000000 0.000001 0.000000 1.000004 1.000003 0.000000 0.000000 0.000000 1.000002 0.000000 3894.dat
1 1 -50.014440 -319.997200 -239.999900 0.000001 0.000000 1.000004 1.000003 0.000000 0.000000 0.000000 1.000002 0.000000 3738.dat
1 1 -60.014440 -319.997200 -264.000000 0.000001 0.000000 1.000003 1.000003 0.000000 0.000000 0.000000 1.000002 0.000000 3894.dat
0 STEP
1 19 -70.014400 -319.997200 -254.000000 -1.000000 0.000000 0.000002 -0.000001 0.707111 -0.707103 -0.000002 -0.707103 -0.707111 3749.dat
0 STEP
1 1 29.985930 -379.997000 -239.999800 1.000004 0.000000 0.000000 0.000000 0.000000 -1.000003 0.000000 1.000002 0.000000 32001.dat
1 1 -30.014070 -389.997000 -263.999800 1.000004 0.000000 0.000000 0.000000 0.000000 -1.000003 0.000000 1.000002 0.000000 3703.dat
0 STEP
1 71 -80.184390 -319.997200 -253.999900 0.000000 0.000000 -1.000000 0.707111 -0.707103 0.000000 -0.707103 -0.707111 0.000000 3649.dat
0 STEP
1 1 -50.014190 -319.997300 -271.999900 0.000000 0.000000 -1.000004 -1.000003 0.000000 0.000000 0.000000 1.000002 0.000000 3738.dat
1 1 29.986060 -259.996100 -271.999900 -1.000004 0.000000 0.000000 0.000000 0.000000 1.000003 0.000000 1.000002 0.000000 32001.dat
1 1 29.985930 -379.997000 -271.999800 -1.000004 0.000000 0.000000 0.000000 0.000000 1.000003 0.000000 1.000002 0.000000 32001.dat
0 STEP
1 15 -0.014060 -269.996100 -296.000000 1.000000 0.000000 0.000000 0.000000 0.000000 -1.000000 0.000000 1.000000 0.000000 3040b.dat
1 15 59.986180 -269.996100 -296.000000 1.000000 0.000000 0.000000 0.000000 0.000000 -1.000000 0.000000 1.000000 0.000000 3040b.dat
1 15 -60.014240 -309.997300 -296.000000 1.000000 0.000000 0.000000 0.000000 0.000000 -1.000000 0.000000 1.000000 0.000000 3040b.dat
1 15 -60.014240 -389.997600 -296.000000 1.000000 0.000000 0.000000 0.000000 0.000000 -1.000000 0.000000 1.000000 0.000000 3040b.dat
0 STEP
1 0 -50.014130 -399.996900 -253.999800 0.000000 0.000000 -1.000000 1.000000 0.000000 0.000000 0.000000 -1.000000 0.000000 2780.dat
1 0 29.986180 -399.996900 -253.999800 0.000000 0.000000 -1.000000 1.000000 0.000000 0.000000 0.000000 -1.000000 0.000000 2780.dat
1 15 -10.014140 -409.997000 -253.999800 0.000001 0.000001 -1.000000 0.000001 1.000000 0.000001 1.000000 -0.000001 0.000001 32316.dat
0 STEP
1 0 -10.014140 -419.997000 -253.999800 0.000000 0.000000 -1.000000 1.000000 -0.000001 0.000000 0.000000 -1.000000 0.000000 2780.dat
1 4 -10.014140 -429.997000 -253.999700 0.000000 0.000000 -1.000000 -1.000000 0.000000 0.000000 0.000000 1.000000 0.000000 32034.dat
0 STEP
1 71 -110.014000 -369.997000 -253.999900 0.906311 0.422622 0.000001 0.000001 0.000000 -1.000003 -0.422621 0.906310 0.000000 3713.dat
1 0 -110.014000 -319.997200 -254.000100 0.000000 0.422622 0.906311 1.000003 0.000000 0.000000 0.000000 0.906310 -0.422621 3707.dat
1 71 -110.014000 -268.846000 -254.000100 -0.906311 -0.422622 -0.000001 0.000001 0.000000 -1.000003 0.422621 -0.906310 0.000001 3650c.dat
0 STEP
1 1 -180.014200 -319.997200 -264.000000 0.000001 0.000000 1.000003 1.000003 0.000000 0.000000 0.000000 1.000002 0.000000 3894.dat
1 1 -170.014200 -319.997200 -239.999900 0.000001 0.000000 1.000003 1.000003 0.000000 0.000000 0.000000 1.000002 0.000000 3738.dat
1 1 -160.014100 -319.997200 -264.000000 0.000001 0.000000 1.000003 1.000003 0.000000 0.000000 0.000000 1.000002 0.000000 3894.dat
0 STEP
1 1 -170.014200 -319.997300 -271.999900 0.000000 0.000000 -1.000004 -1.000003 0.000000 0.000000 0.000000 1.000002 0.000000 3738.dat
0 STEP
1 0 -130.014500 -399.996900 -253.999800 0.000000 0.000000 -1.000000 1.000000 0.000000 0.000000 0.000000 -1.000000 0.000000 2780.dat
1 0 -170.014600 -399.996900 -253.999800 0.000000 0.000000 -1.000000 1.000000 0.000000 0.000000 0.000000 -1.000000 0.000000 2780.dat
1 4 -130.014500 -409.996900 -253.999800 0.000000 1.000000 0.000000 -1.000000 0.000000 0.000000 0.000000 0.000000 1.000000 32034.dat
1 4 -170.014600 -409.996900 -253.999800 0.000000 1.000000 0.000000 -1.000000 0.000000 0.000000 0.000000 0.000000 1.000000 32034.dat
0 STEP
1 14 -125.693900 -319.997200 -254.000100 0.000000 0.000000 -1.000004 0.000000 -1.000003 0.000000 -1.000002 0.000000 0.000000 32123a.dat
1 14 -195.394300 -319.997200 -254.000100 0.000000 0.000001 1.000004 -0.000001 1.000003 0.000000 -1.000002 -0.000001 0.000000 32123a.dat
1 0 -219.904500 -319.997200 -254.000100 -1.000004 0.000000 0.000000 0.000000 0.000000 1.000003 0.000000 1.000002 0.000000 3737.dat
1 71 -139.804100 -319.997200 -254.000100 0.000000 0.000000 -1.000004 0.000000 1.000003 0.000000 1.000002 0.000000 0.000000 3649.dat
0 STEP
1 71 -210.444600 -319.997200 -253.999900 0.000000 0.000000 1.000004 1.000003 0.000000 0.000000 0.000000 1.000002 0.000000 3649.dat
1 72 -227.844400 -319.997100 -254.000100 0.000000 0.000000 -1.000004 -0.000001 -1.000003 0.000000 -1.000002 0.000000 0.000000 3648b.dat
1 71 -246.274600 -319.997100 -254.000100 -0.000001 0.000000 1.000004 1.000003 0.000000 0.000001 0.000000 1.000002 0.000000 94925.dat
0 STEP
1 14 -283.654200 -319.997100 -254.000100 0.000000 0.000001 1.000004 -0.000001 1.000003 0.000000 -1.000002 -0.000001 0.000000 32123a.dat
1 14 -294.404400 -319.997300 -254.000100 0.000000 0.000001 1.000004 -0.000001 1.000003 0.000000 -1.000002 -0.000001 0.000000 32123a.dat
1 0 -266.903700 -319.994400 -254.000200 0.000000 0.000000 -1.000004 0.000000 -0.999996 0.000000 -0.999994 0.000000 0.000000 32270.dat
0 STEP
1 71 -319.904700 -319.997100 -254.002900 -0.000001 0.000000 1.000003 1.000003 0.000000 0.000001 0.000000 1.000002 0.000000 59443.dat
1 71 -409.904900 -319.997100 -254.000100 -1.000004 0.000000 0.000000 0.000000 0.000000 1.000003 0.000000 1.000002 0.000000 60485.dat
0 STEP
0 STEP
