0 Untitled Model
0 Name:  夹子2
0 Author:  
0 CustomBrick
0 NumOfBricks:  51
1 1 179.346000 -31.635250 -67.647670 0.017454 0.000000 0.999847 0.000000 1.000000 0.000000 -0.999847 0.000000 0.017454 6558.dat
1 15 39.367500 -31.635360 -70.091250 0.000001 -0.017453 -0.999848 -1.000000 0.000001 -0.000001 0.000001 0.999848 -0.017453 64871.dat
0 STEP
1 1 159.000000 -31.635240 -48.000000 0.000001 -0.017453 0.999848 1.000000 -0.000001 -0.000001 0.000001 0.999848 0.017453 32140.dat
1 1 159.698100 -31.635220 -87.993980 0.000001 -0.017453 0.999848 1.000000 -0.000001 -0.000001 0.000001 0.999848 0.017453 32140.dat
1 1 199.342800 -31.635240 -67.298730 0.017454 0.000000 0.999848 0.000000 1.000000 0.000000 -0.999848 0.000000 0.017454 6558.dat
0 STEP
1 0 99.532900 -31.635300 -79.042690 -0.017453 0.000000 -0.999848 0.000001 1.000000 0.000000 0.999848 -0.000001 -0.017453 2780.dat
1 4 99.707340 -31.635300 -89.041100 0.017453 0.000000 -0.999848 -0.000001 -1.000000 0.000000 -0.999848 0.000001 -0.017453 32034.dat
0 STEP
1 1 -100.611200 -31.635490 -72.534700 -0.017454 0.000000 -0.999848 0.000000 1.000000 0.000000 0.999848 0.000000 -0.017454 6558.dat
1 1 -60.617430 -31.635440 -71.836700 -0.017454 0.000000 -0.999848 0.000000 1.000000 0.000000 0.999848 0.000000 -0.017454 6558.dat
1 15 -200.246900 -31.635580 -94.277690 0.000001 -0.017453 -0.999848 -1.000000 0.000001 -0.000001 0.000001 0.999848 -0.017453 64871.dat
0 STEP
1 15 -260.587100 -31.635660 -75.327480 0.000001 -0.017453 -0.999848 -1.000000 0.000001 -0.000001 0.000001 0.999848 -0.017453 64871.dat
1 1 -160.602000 -31.635560 -73.581900 -0.017454 0.000000 -0.999848 0.000000 1.000000 0.000000 0.999848 0.000000 -0.017454 6558.dat
1 1 -120.608000 -31.635520 -72.883900 -0.017454 0.000000 -0.999848 0.000000 1.000000 0.000000 0.999848 0.000000 -0.017454 6558.dat
0 STEP
1 0 19.195990 -31.635380 -60.441960 -0.017453 0.000000 -0.999848 0.000001 1.000000 0.000000 0.999848 -0.000001 -0.017453 2780.dat
1 15 -200.945100 -31.635620 -54.282740 0.000001 -0.017453 -0.999848 -1.000000 0.000001 -0.000001 0.000001 0.999848 -0.017453 64871.dat
1 4 19.021430 -31.635380 -50.443420 0.017453 0.000000 -0.999848 -0.000001 -1.000000 0.000000 -0.999848 0.000001 -0.017453 32034.dat
0 STEP
1 71 -181.122600 -31.635610 -43.935640 -0.017454 0.000000 -0.999848 0.000000 1.000000 0.000000 0.999848 0.000000 -0.017454 3673.dat
1 71 -237.110800 -11.498660 -74.917430 0.017454 0.335559 0.941855 0.000000 0.941999 -0.335612 -0.999848 0.005858 0.016442 32073.dat
1 1 -237.809000 -11.499020 -34.923920 -0.335560 0.017454 0.941854 -0.942000 0.000000 -0.335612 -0.005858 -0.999848 0.016442 32271.dat
0 STEP
1 4 -138.184100 -70.904960 -71.330310 0.017453 0.001690 -0.999845 0.000000 -0.999999 -0.001690 -0.999848 0.000029 -0.017453 32039.dat
1 71 -118.529300 -70.871500 -51.362610 0.999842 -0.001690 -0.017452 0.001690 0.999999 0.000000 0.017452 -0.000029 0.999848 3713.dat
1 71 -117.824500 -70.871480 -91.727440 0.999842 -0.001690 -0.017452 0.001690 0.999999 0.000000 0.017452 -0.000029 0.999848 3713.dat
1 71 -118.154700 -70.871150 -72.840720 0.017453 -0.001690 0.999842 0.000000 0.999999 0.001690 -0.999848 -0.000029 0.017453 32073.dat
0 STEP
1 71 -180.075300 -31.635550 -103.926400 -0.017454 0.000000 -0.999848 0.000000 1.000000 0.000000 0.999848 0.000000 -0.017454 3673.dat
1 1 -236.413000 -11.498740 -114.911700 -0.335559 0.017454 0.941854 -0.942000 0.000000 -0.335612 -0.005858 -0.999848 0.016442 32271.dat
0 STEP
1 4 -294.970200 -71.169980 -74.066120 -0.001690 -0.017454 0.999846 0.999999 0.000001 0.001690 -0.000030 0.999848 0.017453 32039.dat
1 0 -211.403300 -71.028750 -72.607420 -0.999843 -0.001689 0.017454 -0.001690 0.999998 -0.000057 -0.017453 -0.000086 -0.999849 3707.dat
1 19 -315.237700 -61.636020 -74.990440 -0.000001 0.999817 -0.019186 -1.000000 -0.000001 0.000000 0.000001 0.019186 0.999816 3749.dat
0 STEP
1 1 -315.237800 -31.635970 -114.990700 0.000000 -0.866026 -0.500002 1.000000 -0.000001 0.000000 -0.000001 -0.500001 0.866026 6558.dat
1 1 -315.367800 -31.635920 -36.167910 -0.000001 -0.891276 0.453465 1.000000 -0.000001 0.000000 0.000001 0.453464 0.891275 6558.dat
1 15 -315.236600 -51.636040 -74.992280 -1.000000 0.000001 -0.000001 -0.000001 -1.000000 -0.000001 -0.000001 -0.000001 1.000000 32316.dat
0 STEP
1 15 -315.237900 -11.635950 -74.990660 1.000000 -0.000001 0.000001 -0.000001 -1.000000 0.000000 0.000001 0.000000 -1.000000 32316.dat
1 15 -361.329400 -31.635960 2.400080 0.642802 0.000000 0.766032 -0.000002 -1.000000 0.000001 0.766033 -0.000002 -0.642802 32524.dat
1 15 -359.826500 -31.635980 -155.138400 -0.669130 0.000000 -0.743145 0.000001 1.000000 0.000000 0.743145 -0.000001 -0.669130 32524.dat
0 STEP
1 71 -380.584000 -31.635840 -76.579890 0.017454 -0.999849 0.000000 0.000000 0.000000 1.000000 -0.999848 -0.017454 0.000000 4519.dat
1 1 -420.908100 -31.635840 -58.410920 0.000000 0.999849 -0.017454 -1.000000 0.000000 0.000000 0.000000 0.017454 0.999848 6558.dat
1 1 -408.272200 -31.635820 40.786530 0.000000 0.492426 0.870355 1.000000 0.000000 0.000000 0.000000 0.870354 -0.492426 6558.dat
1 4 -400.910700 -31.635840 -58.061740 0.017454 -0.999849 0.000000 0.000000 0.000000 1.000000 -0.999848 -0.017454 0.000000 42003.dat
0 STEP
1 1 -404.126800 -31.635860 -195.969500 -0.000002 0.030841 -0.999524 1.000000 0.000001 -0.000001 0.000001 -0.999525 -0.030841 6558.dat
1 1 -420.229200 -31.635820 -97.275310 0.000000 -0.999849 0.017454 -1.000000 0.000000 0.000000 0.000000 -0.017454 -0.999848 6558.dat
1 4 -400.232400 -31.635820 -96.925960 0.017454 -0.999849 0.000000 0.000000 0.000000 1.000000 -0.999848 -0.017454 0.000000 42003.dat
0 STEP
1 15 -408.272200 -51.635820 40.786460 -0.991984 0.000001 0.126365 -0.000001 -1.000000 0.000000 0.126367 0.000000 0.991984 64290.dat
1 15 -408.272200 -11.635820 40.786530 -0.991984 0.000001 0.126365 -0.000001 -1.000000 0.000000 0.126366 0.000000 0.991984 64290.dat
0 STEP
1 15 -404.126700 -51.635860 -195.969700 0.986948 0.000001 0.161038 0.000001 -1.000000 0.000000 0.161039 0.000001 -0.986948 64290.dat
1 15 -404.127000 -11.635850 -195.969500 0.986948 0.000001 0.161038 0.000001 -1.000000 0.000000 0.161038 0.000000 -0.986949 64290.dat
0 STEP
1 0 -400.690600 -61.635810 100.305900 0.000000 -0.752420 -0.658683 1.000000 0.000000 0.000000 -0.000001 -0.658681 0.752422 2780.dat
1 0 -395.635400 -61.635820 139.985300 0.000000 -0.752420 -0.658683 1.000000 0.000000 0.000000 -0.000001 -0.658681 0.752422 2780.dat
1 15 -401.755300 -71.635890 100.455400 -0.988227 0.000001 -0.152995 0.000001 1.000000 0.000000 0.152997 -0.000001 -0.988227 32316.dat
0 STEP
1 0 -394.464000 -61.635860 -255.186900 -0.000001 0.746256 -0.665658 1.000000 0.000001 0.000000 0.000001 -0.665658 -0.746257 2780.dat
1 0 -388.022900 -61.635880 -294.664400 -0.000001 0.615657 -0.788015 1.000000 0.000001 0.000000 0.000001 -0.788015 -0.615657 2780.dat
1 15 -394.313800 -71.635890 -255.162000 -0.987556 0.000000 0.157269 0.000001 1.000000 0.000001 -0.157269 0.000001 -0.987556 32316.dat
0 STEP
0 STEP
