0 Untitled Model
0 Name:  小鸡宝宝
0 Author:  
0 CustomBrick
0 NumOfBricks:  34
1 1 -0.000040 -40.000000 -70.000030 1.000000 0.000000 0.000000 0.000000 1.000000 0.000000 0.000000 0.000000 1.000000 3700.dat
1 1 -30.000120 -40.000000 -80.000000 0.000000 0.000000 1.000002 0.000000 1.000000 0.000000 -1.000002 0.000000 0.000000 3700.dat
1 1 0.000010 -40.000000 -90.000000 1.000000 0.000000 0.000000 0.000000 1.000000 0.000000 0.000000 0.000000 1.000000 3700.dat
1 1 30.000040 -40.000000 -79.999580 0.000000 0.000000 1.000000 0.000000 1.000000 0.000000 -1.000000 0.000000 0.000000 3700.dat
1 1 -0.000020 -16.000000 -70.000030 1.000003 0.000000 0.000000 0.000000 1.000000 0.000000 0.000000 0.000000 1.000003 3710.dat
1 1 -0.000020 -16.000000 -90.000000 1.000003 0.000000 0.000000 0.000000 1.000000 0.000000 0.000000 0.000000 1.000003 3710.dat
0 STEP
1 1 0.000000 -8.000000 -80.000000 -1.000000 0.000000 0.000000 0.000000 1.000000 0.000000 0.000000 0.000000 -1.000000 3709b.dat
1 19 -0.000080 -29.999980 -60.000000 -0.000001 1.000000 -0.000001 0.000001 0.000001 1.000000 1.000000 0.000001 -0.000001 3749.dat
1 19 0.000030 -29.999980 -99.999940 0.000001 -1.000000 0.000001 0.000001 0.000001 1.000000 -1.000000 -0.000001 0.000001 3749.dat
0 STEP
1 15 0.000040 -39.999980 -109.999900 -1.000000 0.000000 0.000000 0.000000 1.000000 0.000000 0.000000 0.000000 -1.000000 32064a.dat
1 15 -0.000080 -39.999980 -50.000000 1.000000 0.000000 0.000000 0.000000 1.000000 0.000000 0.000000 0.000000 1.000000 32064a.dat
0 STEP
1 1 30.000040 -48.000000 -79.999580 0.000000 0.000000 1.000000 0.000000 1.000000 0.000000 -1.000000 0.000000 0.000000 3023.dat
0 STEP
1 1 0.000000 -48.000000 -90.000000 -1.000000 0.000000 0.000000 0.000000 1.000000 0.000000 0.000000 0.000000 -1.000000 3023.dat
1 1 -0.000050 -48.000000 -70.000030 -1.000000 0.000000 0.000000 0.000000 1.000000 0.000000 0.000000 0.000000 -1.000000 3023.dat
1 1 -40.000140 -48.000000 -70.000030 1.000003 0.000000 0.000000 0.000000 1.000000 0.000000 0.000000 0.000000 1.000003 3023.dat
1 1 -40.000140 -48.000000 -90.000000 1.000003 0.000000 0.000000 0.000000 1.000000 0.000000 0.000000 0.000000 1.000003 3023.dat
0 STEP
1 15 0.000040 -47.999980 -109.999900 -1.000000 0.000000 0.000000 0.000000 1.000000 0.000000 0.000000 0.000000 -1.000000 2431.dat
1 15 -0.000080 -47.999980 -50.000000 -1.000000 0.000000 0.000000 0.000000 1.000000 0.000000 0.000000 0.000000 -1.000000 2431.dat
0 STEP
1 15 0.000000 -72.000000 -80.000000 1.000000 0.000000 0.000000 0.000000 1.000000 0.000000 0.000000 0.000000 1.000000 3001.dat
0 STEP
1 15 -50.000180 -72.000000 -90.000000 0.000000 0.000000 1.000000 0.000000 1.000000 0.000000 -1.000000 0.000000 0.000000 3040b.dat
1 15 -50.000180 -72.000000 -70.000060 0.000000 0.000000 1.000000 0.000000 1.000000 0.000000 -1.000000 0.000000 0.000000 3040b.dat
0 STEP
1 15 -29.999870 -96.000000 -60.000760 0.000001 0.000000 1.000002 0.000000 1.000000 0.000000 -1.000002 0.000000 0.000001 32064a.dat
1 15 -30.000030 -96.000000 -100.000000 0.000000 0.000000 1.000000 0.000000 1.000000 0.000000 -1.000000 0.000000 0.000000 32064a.dat
1 19 -39.999880 -86.000030 -100.000700 1.000002 0.000001 -0.000001 0.000001 0.000001 1.000000 0.000001 -1.000002 0.000001 3749.dat
1 19 -39.999880 -86.000030 -60.000800 1.000002 0.000001 -0.000001 0.000001 0.000001 1.000000 0.000001 -1.000002 0.000001 3749.dat
0 STEP
1 1 -49.999940 -96.000060 -80.000680 0.000000 0.000000 1.000000 0.000000 1.000000 0.000000 -1.000000 0.000000 0.000000 3701.dat
0 STEP
1 15 0.000000 -96.000000 -80.000000 1.000000 0.000000 0.000000 0.000000 1.000000 0.000000 0.000000 0.000000 1.000000 3941.dat
1 19 -0.000020 -96.000000 -80.000000 0.000001 0.000001 1.000000 1.000000 0.000001 -0.000001 -0.000001 1.000000 -0.000001 3749.dat
0 STEP
1 15 39.999980 -96.000000 -80.000000 1.000000 0.000000 0.000000 0.000000 1.000000 0.000000 0.000000 0.000000 1.000000 3941.dat
0 STEP
1 15 29.999980 -120.000000 -90.000000 0.000000 0.000000 -1.000000 0.000000 1.000000 0.000000 1.000000 0.000000 0.000000 3040b.dat
1 15 29.999980 -120.000000 -70.000000 0.000000 0.000000 -1.000000 0.000000 1.000000 0.000000 1.000000 0.000000 0.000000 3040b.dat
0 STEP
1 1 -29.999880 -112.000000 -80.000610 0.000000 0.000000 1.000000 0.000000 1.000000 0.000000 -1.000000 0.000000 0.000000 3023.dat
1 1 -29.999870 -104.000000 -100.000600 0.000001 0.000000 1.000002 0.000000 1.000000 0.000000 -1.000002 0.000000 0.000001 3023.dat
1 1 -29.999890 -104.000000 -60.000800 0.000001 0.000000 1.000002 0.000000 1.000000 0.000000 -1.000002 0.000000 0.000001 3023.dat
0 STEP
0 STEP
