0 FILE 负重训练.io
0 Untitled Model
0 Name:  负重训练
0 Author:  
0 CustomBrick
0 NumOfBricks:  136
1 1 -99.999610 -94.000030 -149.999400 1.000001 -0.000001 -0.000001 0.000001 0.000001 1.000000 -0.000001 -1.000001 0.000001 32526.dat
1 0 -99.999500 -14.000050 -159.999100 0.000000 0.000000 -0.999997 0.000000 1.000000 0.000000 0.999997 0.000000 0.000000 2780.dat
1 0 -59.999700 -14.000000 -159.999300 0.000000 0.000000 -1.000001 0.000000 1.000000 0.000000 1.000001 0.000000 0.000000 2780.dat
0 STEP
1 15 -99.999690 -194.000000 -129.999300 1.000000 -0.000001 0.000001 -0.000001 -0.000001 1.000000 -0.000001 -1.000000 -0.000001 64871.dat
1 0 -99.999610 -94.000000 -139.999400 0.000000 0.000000 -1.000000 0.000000 1.000000 0.000000 1.000000 0.000000 0.000000 2780.dat
0 STEP
1 4 -99.999610 -54.000040 -129.999300 0.000001 -1.000000 0.000001 0.000001 0.000001 1.000000 -1.000000 -0.000001 0.000001 32054.dat
1 0 -99.999610 -54.000060 -59.829410 0.000000 0.000000 1.000000 0.000000 1.000000 0.000000 -1.000000 0.000000 0.000000 3706.dat
0 STEP
1 1 -19.999910 -24.000000 -169.999500 1.000000 0.000000 0.000000 0.000000 1.000000 0.000000 0.000000 0.000000 1.000000 3703.dat
1 0 120.000200 -14.000000 -159.999600 0.000000 0.000000 -1.000000 0.000000 1.000000 0.000000 1.000000 0.000000 0.000000 2780.dat
1 0 40.000200 -14.000000 -159.999500 0.000000 0.000000 -1.000000 0.000000 1.000000 0.000000 1.000000 0.000000 0.000000 2780.dat
0 STEP
1 0 120.000200 -14.000000 -59.999520 0.000000 0.000000 -1.000000 0.000000 1.000000 0.000000 1.000000 0.000000 0.000000 2780.dat
1 71 80.000220 -14.000000 -109.999500 0.000000 0.000000 1.000000 0.000000 1.000000 0.000000 -1.000000 0.000000 0.000000 64179.dat
1 0 40.000220 -14.000000 -59.999520 0.000000 0.000000 -1.000000 0.000000 1.000000 0.000000 1.000000 0.000000 0.000000 2780.dat
0 STEP
1 71 80.000200 -14.000000 -9.999630 0.000000 0.000000 1.000000 0.000000 1.000000 0.000000 -1.000000 0.000000 0.000000 64179.dat
1 0 120.000200 -14.000000 40.000000 0.000000 0.000000 -1.000002 0.000000 1.000000 0.000000 1.000002 0.000000 0.000000 2780.dat
1 0 39.999980 -14.000000 40.000000 0.000000 0.000000 -1.000002 0.000000 1.000000 0.000000 1.000002 0.000000 0.000000 2780.dat
0 STEP
1 4 -100.000000 -54.000080 9.999820 -0.000001 1.000000 -0.000001 0.000001 0.000001 1.000000 1.000000 0.000001 -0.000001 32054.dat
1 15 -100.000200 -194.000100 10.000000 1.000000 -0.000001 0.000001 -0.000001 -0.000001 1.000000 -0.000001 -1.000000 -0.000001 64871.dat
0 STEP
1 0 -99.999610 -114.000100 -59.999390 0.000000 0.000000 1.000000 0.000000 1.000000 0.000000 -1.000000 0.000000 0.000000 3737.dat
1 71 -99.999610 -114.000100 -149.999400 1.000000 0.000000 0.000001 0.000000 1.000000 0.000000 -0.000001 0.000000 1.000000 3713.dat
0 STEP
1 71 -99.999610 -114.000100 30.000610 1.000000 0.000000 0.000001 0.000000 1.000000 0.000000 -0.000001 0.000000 1.000000 3713.dat
1 0 -100.000100 -94.000060 20.000000 0.000000 0.000000 -1.000000 0.000000 1.000000 0.000000 1.000000 0.000000 0.000000 2780.dat
0 STEP
1 1 -100.000100 -94.000060 30.000000 -1.000000 0.000001 0.000001 0.000001 0.000001 1.000000 0.000001 1.000000 -0.000001 32526.dat
1 0 -140.000000 -14.000000 40.000000 0.000000 0.000000 -1.000000 0.000000 1.000000 0.000000 1.000000 0.000000 0.000000 2780.dat
1 0 -100.000000 -14.000000 39.999880 0.000000 0.000000 -1.000000 0.000000 1.000000 0.000000 1.000000 0.000000 0.000000 2780.dat
0 STEP
1 1 -20.000000 -24.000000 50.000000 1.000000 0.000000 0.000000 0.000000 1.000000 0.000000 0.000000 0.000000 1.000000 3703.dat
0 STEP
1 1 -159.999900 -32.000000 -139.999500 0.000000 0.000000 1.000000 0.000000 1.000000 0.000000 -1.000000 0.000000 0.000000 3738.dat
1 1 -160.000000 -32.000000 19.999880 0.000000 0.000000 1.000000 0.000000 1.000000 0.000000 -1.000000 0.000000 0.000000 3738.dat
1 15 -159.999900 -24.000000 -59.999520 0.000000 0.000000 1.000000 0.000000 1.000000 0.000000 -1.000000 0.000000 0.000000 3001.dat
0 STEP
1 71 -100.000300 -174.000200 -59.709900 0.000000 0.000000 1.000000 0.000000 1.000000 0.000000 -1.000000 0.000000 0.000000 60485.dat
1 14 -100.000300 -174.000200 -144.709900 -1.000000 0.000000 0.000000 0.000000 1.000000 0.000000 0.000000 0.000000 -1.000000 32123a.dat
1 71 -100.000400 -234.000200 -60.079900 0.000000 0.000000 1.000000 0.000000 1.000000 0.000000 -1.000000 0.000000 0.000000 60485.dat
1 14 -100.000400 -234.000200 -145.019900 -1.000000 0.000000 0.000000 0.000000 1.000000 0.000000 0.000000 0.000000 -1.000000 32123a.dat
0 STEP
1 14 -100.000300 -174.000200 24.909980 -1.000000 0.000000 0.000000 0.000000 1.000000 0.000000 0.000000 0.000000 -1.000000 32123a.dat
1 14 -100.000400 -234.000200 25.300110 -1.000000 0.000000 0.000000 0.000000 1.000000 0.000000 0.000000 0.000000 -1.000000 32123a.dat
0 STEP
1 15 -99.999790 -354.000000 -149.999100 1.000000 -0.000001 0.000001 0.000001 0.000001 -1.000000 0.000001 1.000000 0.000001 32524.dat
1 0 -99.999790 -334.000000 -139.999100 0.000000 -1.000000 0.000000 0.000000 0.000000 -1.000000 1.000000 0.000000 0.000000 2780.dat
0 STEP
1 0 -99.999790 -374.000000 -139.999100 0.000000 -1.000000 0.000000 0.000000 0.000000 -1.000000 1.000000 0.000000 0.000000 2780.dat
1 0 -99.999790 -394.000000 -139.999100 0.000000 -1.000000 0.000000 0.000000 0.000000 -1.000000 1.000000 0.000000 0.000000 2780.dat
1 15 -99.999610 -494.000000 -129.999000 1.000000 -0.000001 0.000001 0.000001 0.000001 -1.000000 0.000001 1.000000 0.000001 64871.dat
0 STEP
1 71 -99.999790 -354.000000 -170.179100 1.000000 0.000000 0.000001 0.000000 1.000000 0.000000 -0.000001 0.000000 1.000000 3713.dat
1 0 -99.999790 -294.000000 -59.199100 0.000000 0.000000 1.000000 0.000000 1.000000 0.000000 -1.000000 0.000000 0.000000 3708.dat
1 0 -99.999790 -354.000000 -60.179200 0.000000 0.000000 1.000000 0.000000 1.000000 0.000000 -1.000000 0.000000 0.000000 3708.dat
1 71 -99.999790 -294.000000 -168.199200 1.000000 0.000000 0.000001 0.000000 1.000000 0.000000 -0.000001 0.000000 1.000000 3713.dat
0 STEP
1 4 -99.999790 -414.000100 -129.999000 0.000001 -1.000000 0.000001 0.000001 0.000001 1.000000 -1.000000 -0.000001 0.000001 32054.dat
1 0 -99.999790 -414.000100 -58.619020 0.000000 0.000000 1.000000 0.000000 1.000000 0.000000 -1.000000 0.000000 0.000000 3706.dat
0 STEP
1 4 -100.000300 -414.000100 10.000000 -0.000001 1.000000 -0.000001 0.000001 0.000001 1.000000 1.000000 0.000001 -0.000001 32054.dat
1 15 -100.000200 -494.000100 10.000000 1.000000 -0.000001 0.000001 0.000001 0.000001 -1.000000 0.000001 1.000000 0.000001 64871.dat
0 STEP
1 0 -100.000300 -394.000100 20.000000 0.000000 -1.000000 0.000000 0.000000 0.000000 -1.000000 1.000000 0.000000 0.000000 2780.dat
1 0 -100.000300 -374.000100 19.999700 0.000000 -1.000000 0.000000 0.000000 0.000000 -1.000000 1.000000 0.000000 0.000000 2780.dat
0 STEP
1 0 -100.000300 -334.000100 20.000180 0.000000 0.000000 -1.000000 0.000000 1.000000 0.000000 1.000000 0.000000 0.000000 2780.dat
1 15 -100.000300 -354.000100 30.000180 1.000000 -0.000001 0.000001 0.000001 0.000001 -1.000000 0.000001 1.000000 0.000001 32524.dat
0 STEP
1 71 -99.999790 -354.000000 49.820800 1.000000 0.000000 0.000001 0.000000 1.000000 0.000000 -0.000001 0.000000 1.000000 3713.dat
1 71 -99.999790 -294.000000 49.840880 1.000000 0.000000 0.000001 0.000000 1.000000 0.000000 -0.000001 0.000000 1.000000 3713.dat
0 STEP
1 15 -99.999580 -574.000100 -149.998900 1.000000 -0.000001 0.000001 0.000001 0.000001 -1.000000 0.000001 1.000000 0.000001 64871.dat
1 0 -99.999710 -434.000000 -139.999000 0.000000 0.000000 -1.000000 0.000000 1.000000 0.000000 1.000000 0.000000 0.000000 2780.dat
1 0 -99.999610 -634.000100 -139.998900 0.000000 0.000000 -1.000000 0.000000 1.000000 0.000000 1.000000 0.000000 0.000000 2780.dat
0 STEP
1 15 -100.000200 -574.000200 30.000250 1.000000 -0.000001 0.000001 0.000001 0.000001 -1.000000 0.000001 1.000000 0.000001 64871.dat
1 0 -100.000300 -434.000100 20.000180 0.000000 0.000000 -1.000000 0.000000 1.000000 0.000000 1.000000 0.000000 0.000000 2780.dat
1 0 -100.000100 -634.000100 20.000180 0.000000 0.000000 -1.000000 0.000000 1.000000 0.000000 1.000000 0.000000 0.000000 2780.dat
0 STEP
1 0 -99.999500 -694.000200 -139.998900 0.000000 0.000000 -1.000000 0.000000 1.000000 0.000000 1.000000 0.000000 0.000000 2780.dat
1 71 -99.999320 -714.000100 -139.998900 0.000000 0.000000 -1.000000 0.000000 1.000000 0.000000 1.000000 0.000000 0.000000 3673.dat
1 1 -159.999500 -714.000100 -129.998700 0.000001 0.000001 1.000000 1.000000 -0.000001 -0.000001 0.000001 1.000000 -0.000001 32140.dat
0 STEP
1 0 -100.000100 -694.000200 20.000360 0.000000 0.000000 -1.000000 0.000000 1.000000 0.000000 1.000000 0.000000 0.000000 2780.dat
1 71 -100.000100 -714.000400 20.000370 0.000000 0.000000 -1.000000 0.000000 1.000000 0.000000 1.000000 0.000000 0.000000 3673.dat
1 1 -160.000200 -714.000200 10.000450 0.000001 0.000001 1.000000 1.000000 -0.000001 -0.000001 0.000001 1.000000 -0.000001 32140.dat
0 STEP
1 16 7.515000 -191.969900 -60.274720 -0.868632 -0.495458 0.000000 -0.495458 0.868632 0.000000 0.000000 0.000000 -1.000000 submodel group
0 STEP
0 STEP
0 NOFILE
0 FILE SubModel Group
0 SubModel Group
0 Name:  SubModel Group
0 Author:  
0 CustomBrick
0 NumOfBricks:  70
1 15 97.510830 -174.342500 -1.000000 0.000000 -0.868632 0.495458 0.000000 -0.495458 -0.868632 1.000000 0.000000 0.000000 dx0079.dat.dat
0 STEP
1 71 73.102020 -132.945900 -0.004790 -0.495456 -0.868634 0.000000 0.868630 -0.495459 0.000000 0.000000 0.000000 0.999998 44294.dat
1 14 94.342040 -170.184000 -0.004910 0.000000 -0.868633 0.495457 0.000000 -0.495459 -0.868630 0.999998 0.000000 0.000000 32123a.dat
0 STEP
1 71 76.991340 -139.764600 -0.004910 0.000000 -0.868634 0.495456 0.000000 -0.495459 -0.868630 0.999999 0.000000 0.000000 4716.dat
1 47 92.993400 -131.489300 -0.004910 0.495456 -0.868634 0.000000 -0.868630 -0.495459 0.000000 0.000000 0.000000 -0.999998 6588.dat
0 STEP
1 71 58.332500 -107.052100 -0.004800 0.000001 0.868632 -0.495458 -0.000001 0.495458 0.868632 1.000000 0.000000 0.000001 3713.dat
1 71 48.398600 -89.636040 -0.004800 0.000001 0.868632 -0.495458 -0.000001 0.495458 0.868632 1.000000 0.000000 0.000001 3713.dat
0 STEP
1 16 49.159680 -66.426360 -0.005010 0.868632 -0.495458 0.000000 0.495458 0.868632 0.000000 0.000000 0.000000 1.000000 submodel group 1
0 STEP
1 0 112.103200 -120.589100 0.065040 0.000000 -0.891009 0.453988 0.000000 -0.453991 -0.891006 0.999999 0.000000 0.000000 3705.dat
1 72 112.103200 -120.589100 0.085060 0.453988 0.891009 0.000000 -0.891006 0.453991 0.000000 0.000000 0.000000 0.999998 3648b.dat
0 STEP
1 15 40.751100 -77.580380 -30.005390 -0.328871 0.000001 -0.944376 0.944374 0.000000 -0.328874 0.000000 -0.999999 -0.000001 32316.dat
1 71 2.976150 -90.735610 -20.004900 0.000000 -0.868634 -0.495456 0.000000 -0.495459 0.868630 -0.999998 0.000000 0.000000 3673.dat
1 1 129.923400 -111.509500 -29.935330 0.000000 -0.891009 -0.453988 0.000000 -0.453991 0.891005 -0.999998 0.000000 0.000000 32184.dat
0 STEP
1 71 77.505020 -64.134090 -39.937400 0.000000 -0.868634 -0.495456 0.000000 -0.495459 0.868630 -0.999998 0.000000 0.000000 3673.dat
1 19 147.743300 -102.429600 -39.935330 -0.000001 -0.453988 -0.891008 -0.000001 0.891006 -0.453991 0.999998 0.000000 -0.000001 3749.dat
1 15 77.504970 -64.134140 -49.935080 0.478695 0.000000 -0.877982 0.877982 -0.000001 0.478691 -0.000001 -0.999999 0.000000 40490.dat
0 STEP
1 1 54.372120 16.808190 -29.935560 0.870350 -0.000001 -0.492434 -0.492430 0.000000 -0.870351 0.000001 0.999999 0.000000 32140.dat
1 0 42.385610 -44.986680 -39.935560 0.000000 -0.868634 -0.495456 0.000000 -0.495459 0.868630 -0.999999 0.000000 0.000000 2780.dat
1 0 24.826090 -35.412720 -39.935440 0.000000 -0.868634 -0.495456 0.000000 -0.495459 0.868630 -0.999999 0.000000 0.000000 2780.dat
0 STEP
1 19 76.462880 -138.748700 40.065040 -0.000001 0.453988 -0.891009 0.000000 -0.891006 -0.453991 -0.999999 0.000000 0.000001 3749.dat
1 1 94.283080 -129.668800 30.064920 0.000000 -0.891008 -0.453988 0.000000 -0.453991 0.891005 -0.999998 0.000000 0.000000 32184.dat
0 STEP
1 15 39.741560 -74.977830 29.994730 -0.393943 0.000001 -0.919136 0.919133 0.000000 -0.393946 -0.000001 -0.999999 -0.000001 32316.dat
1 71 2.976140 -90.735580 19.994860 0.000000 -0.868634 -0.495456 0.000000 -0.495459 0.868630 -0.999998 0.000000 0.000000 3673.dat
0 STEP
1 71 76.881980 -58.749980 40.064920 0.000000 -0.868634 -0.495456 0.000000 -0.495459 0.868630 -0.999998 0.000000 0.000000 3673.dat
1 15 76.882100 -58.750060 50.064680 0.999986 0.000000 -0.005240 -0.005236 0.000001 -0.999984 0.000000 0.999999 0.000001 40490.dat
0 STEP
1 1 137.196400 1.248980 30.064800 -0.000004 -0.000002 -1.000001 -0.999999 0.000000 0.000000 0.000000 0.999999 -0.000002 32140.dat
1 0 77.196400 1.248950 40.064800 0.000000 -0.868634 -0.495456 0.000000 -0.495459 0.868630 -0.999998 0.000000 0.000000 2780.dat
1 0 77.196360 -18.751040 40.064930 0.000000 -0.868633 -0.495457 0.000000 -0.495459 0.868630 -0.999998 0.000000 0.000000 2780.dat
0 STEP
1 0 62.430760 -194.970900 -20.004910 0.000000 -0.868634 -0.495456 0.000000 -0.495459 0.868630 -0.999998 0.000000 0.000000 2780.dat
1 1 22.794360 -125.480700 -30.005150 0.000000 0.868634 0.495456 0.000000 0.495459 -0.868630 -0.999998 0.000000 0.000000 6558.dat
0 STEP
1 0 42.612560 -160.225900 -40.005160 0.000000 -0.868634 -0.495456 0.000000 -0.495459 0.868630 -0.999999 0.000000 0.000000 2780.dat
1 15 52.521640 -177.598400 -30.004910 0.868634 0.000000 -0.495456 0.495458 -0.000001 0.868631 -0.000001 -0.999999 -0.000001 32524.dat
0 STEP
1 0 62.430860 -194.971100 19.995700 0.000000 -0.868634 -0.495456 0.000000 -0.495459 0.868630 -0.999998 0.000000 0.000000 2780.dat
1 1 22.794320 -125.480600 29.994610 0.000000 -0.868634 0.495456 0.000000 -0.495459 -0.868630 0.999998 0.000000 -0.000001 6558.dat
0 STEP
1 0 42.612460 -160.225900 39.995210 0.000000 -0.868634 -0.495456 0.000000 -0.495459 0.868630 -0.999999 0.000000 0.000000 2780.dat
1 15 52.521680 -177.598400 29.995090 0.868634 0.000000 -0.495456 0.495458 -0.000001 0.868631 -0.000001 -0.999999 -0.000001 32524.dat
0 STEP
1 14 -16.677620 -154.700200 -59.094510 0.495456 0.000000 0.868633 -0.868630 0.000000 0.495459 0.000000 -0.999999 0.000000 12344.dat
1 14 41.938300 -171.001500 58.984960 -0.868634 0.000000 -0.495456 -0.495459 0.000000 0.868630 0.000000 0.999998 0.000000 12344.dat
0 STEP
1 19 9.764390 -143.860500 49.985080 0.495455 0.744565 -0.447379 -0.868631 0.424690 -0.255180 -0.000001 0.515036 0.857166 3749.dat
1 19 10.220630 -143.651300 -50.014550 0.495455 0.434318 -0.752259 -0.868631 0.247728 -0.429080 -0.000001 0.866024 0.499999 3749.dat
1 71 14.718820 -152.546800 49.984960 -0.447377 -0.495456 -0.744566 -0.255182 0.868630 -0.424690 0.857167 0.000003 -0.515036 60483.dat
1 71 15.175350 -152.337800 -50.014800 0.434318 -0.495455 -0.752259 0.247728 0.868631 -0.429080 0.866024 0.000001 0.499999 60483.dat
0 STEP
1 0 4.782030 -169.726900 39.684300 0.495458 -0.447380 -0.744565 -0.868633 -0.255182 -0.424691 -0.000002 0.857171 -0.515036 2780.dat
1 0 5.084600 -169.605500 -40.015040 0.495456 -0.752258 -0.434318 -0.868630 -0.429080 -0.247729 -0.000001 0.500000 -0.866023 2780.dat
0 STEP
1 16 20.231570 -215.488900 -71.000000 0.495458 0.000000 0.868632 -0.868632 0.000000 0.495458 0.000000 -1.000000 0.000000 submodel group 9 copy copy copy
0 STEP
1 1 73.562660 -234.670900 -50.005400 0.495456 0.868634 0.000000 -0.868630 0.495459 0.000000 0.000000 0.000000 0.999998 3701.dat
1 1 72.339760 -212.343700 -50.005280 0.000000 -0.868634 -0.495456 0.000000 -0.495459 0.868630 -0.999998 0.000000 0.000000 6558.dat
1 1 82.248900 -229.716200 -50.005040 0.000000 -0.868634 -0.495457 0.000000 -0.495459 0.868631 -0.999999 0.000000 0.000000 6558.dat
0 STEP
1 1 141.830500 -172.707100 -70.005040 0.495456 -0.000002 -0.868634 -0.868630 0.000000 -0.495458 0.000001 0.999999 -0.000001 32526.dat
1 0 124.457900 -182.616200 -80.004800 0.000000 -0.868634 -0.495456 0.000000 -0.495459 0.868630 -0.999999 0.000000 0.000000 2780.dat
0 STEP
1 1 146.785000 -181.393300 -90.004670 -0.868634 -0.495456 0.000000 -0.495459 0.868630 0.000000 0.000000 0.000000 -0.999998 3701.dat
1 1 141.830300 -172.707000 -90.004920 0.000000 -0.868634 -0.495456 0.000000 -0.495459 0.868630 -0.999998 0.000000 0.000000 6558.dat
0 STEP
1 0 159.203100 -162.797700 -100.004700 0.000000 -0.868634 -0.495456 0.000000 -0.495459 0.868630 -0.999998 0.000000 0.000000 2780.dat
1 1 268.998900 -211.542100 -110.004600 -0.405035 -0.000001 -0.914302 -0.914302 0.000001 0.405030 0.000001 0.999999 -0.000001 32271.dat
0 STEP
1 1 73.562660 -234.670900 49.994720 0.495456 0.868634 0.000000 -0.868630 0.495459 0.000000 0.000000 0.000000 0.999998 3701.dat
1 1 82.248950 -229.716500 49.994350 0.000000 -0.868634 0.495456 0.000000 -0.495459 -0.868630 0.999998 0.000000 0.000000 6558.dat
1 1 72.339950 -212.343600 49.993740 0.000000 -0.868632 0.495458 0.000000 -0.495458 -0.868632 1.000000 0.000000 0.000000 6558.dat
0 STEP
1 1 141.830500 -172.707200 69.994830 0.495456 -0.000001 -0.868634 -0.868631 0.000000 -0.495458 0.000001 0.999999 -0.000001 32526.dat
1 0 124.457900 -182.616100 79.994830 0.000000 -0.868634 -0.495456 0.000000 -0.495459 0.868630 -0.999999 0.000000 0.000000 2780.dat
0 STEP
1 1 146.785100 -181.393400 89.994960 0.868633 -0.495456 0.000000 0.495459 0.868630 -0.000001 0.000000 0.000000 0.999999 3701.dat
1 0 159.203300 -162.797900 99.994850 0.000000 -0.868634 -0.495456 0.000000 -0.495459 0.868630 -0.999998 0.000000 0.000000 2780.dat
1 1 141.830500 -172.707200 89.994960 0.000000 -0.868634 0.495456 0.000000 -0.495459 -0.868630 0.999998 0.000000 0.000000 6558.dat
0 STEP
1 0 268.999100 -211.542300 -0.004800 -0.000001 -0.405034 0.914303 0.000001 -0.914302 -0.405030 0.999999 0.000000 0.000001 3708.dat
1 1 268.999300 -211.541800 109.995000 -0.405035 -0.000001 -0.914303 -0.914303 0.000001 0.405030 0.000001 0.999999 -0.000001 32271.dat
0 STEP
0 NOFILE
0 FILE SubModel Group 1
0 SubModel Group 1
0 Name:  SubModel Group 1
0 Author:  
0 CustomBrick
0 NumOfBricks:  5
1 1 -42.160590 -98.233360 10.000100 0.000000 -1.000002 0.000000 -0.999997 0.000000 0.000000 0.000000 0.000000 -0.999998 3895.dat
1 0 -52.160780 -18.233600 -0.000140 0.000000 -1.000002 0.000000 0.000000 0.000000 0.999997 -0.999999 0.000000 0.000000 2780.dat
0 STEP
1 0 -52.160640 -178.233100 0.000090 0.000000 -1.000002 0.000000 0.000000 0.000000 0.999997 -0.999998 0.000000 0.000000 2780.dat
1 1 -42.160650 -98.233470 -9.999900 0.000000 -1.000002 0.000000 -0.999997 0.000000 0.000000 0.000000 0.000000 -0.999998 3895.dat
0 STEP
1 1 -34.160520 -58.233460 -0.000140 0.000000 -1.000002 0.000000 -0.999997 0.000000 0.000000 0.000000 0.000000 -0.999998 32001.dat
0 STEP
0 NOFILE
0 FILE SubModel Group 9 Copy Copy Copy
0 SubModel Group 9 Copy Copy Copy
0 Name:  SubModel Group 9 Copy Copy Copy
0 Author:  
0 CustomBrick
0 NumOfBricks:  3
1 72 10.000000 -1.128810 -10.000000 1.000000 0.000000 0.000000 0.000000 0.000000 -1.000000 0.000000 1.000000 0.000000 dch003.dat
1 71 -27.466620 -79.717990 29.427020 1.000000 0.000000 0.000000 0.000000 0.000000 -1.000000 0.000000 1.000000 0.000000 dch004.dat
1 25 7.837010 13.484720 -9.965000 1.000000 0.000000 0.000000 0.000000 0.000000 -1.000000 0.000000 1.000000 0.000000 dch005.dat
0 NOFILE
