0 FILE 火星采矿车.io
0 Untitled Model
0 Name:  火星采矿车
0 Author:  
0 CustomBrick
0 NumOfBricks:  138
1 47 345.999700 -105.828700 -50.620100 1.000000 0.000000 0.000001 0.000000 -1.000000 0.000000 0.000000 0.000000 -1.000000 6588.dat
1 1 345.999800 -145.828800 -50.620100 1.000000 0.000000 0.000000 0.000000 -1.000000 0.000000 0.000000 0.000000 -1.000000 3709b.dat
0 STEP
1 0 345.729700 -123.828800 -50.620100 1.000000 0.000000 0.000000 0.000000 1.000000 0.000000 0.000000 0.000000 1.000000 3707.dat
1 71 345.979700 -123.828800 -50.620100 0.000000 0.000000 1.000000 0.000000 1.000000 0.000000 -1.000000 0.000000 0.000000 4716.dat
0 STEP
1 14 314.479700 -123.828800 -50.620100 0.000000 0.000000 1.000000 1.000000 0.000000 0.000000 0.000000 1.000000 0.000000 32123a.dat
1 14 381.950000 -123.828800 -50.620100 0.000000 0.000000 1.000000 0.000000 1.000000 0.000000 -1.000000 0.000000 0.000000 32123a.dat
0 STEP
1 1 315.999700 -153.828800 -50.620100 0.000000 0.000000 -1.000000 0.000000 -1.000000 0.000000 -1.000000 0.000000 0.000000 3700.dat
1 0 305.999700 -163.828800 -50.620100 -1.000000 0.000000 0.000000 0.000000 1.000000 0.000000 0.000000 0.000000 -1.000000 2780.dat
0 STEP
1 0 285.999700 -143.828800 -50.620100 -1.000000 0.000000 0.000000 0.000000 1.000000 0.000000 0.000000 0.000000 -1.000000 2780.dat
1 15 295.999800 -123.828800 -50.620100 -0.000001 -1.000000 -0.000001 0.000001 0.000001 -1.000000 1.000000 -0.000001 0.000001 32316.dat
1 0 285.999800 -103.828700 -50.620100 -1.000000 0.000000 0.000000 0.000000 1.000000 0.000000 0.000000 0.000000 -1.000000 2780.dat
0 STEP
1 1 225.729700 -93.828750 -50.620110 0.999993 0.000000 0.000000 0.000000 1.000000 0.000000 0.000000 0.000000 0.999993 32001.dat
1 71 285.729700 -123.828800 -50.620100 0.000000 0.000000 -1.000000 0.000000 1.000000 0.000000 1.000000 0.000000 0.000000 58120.dat
0 STEP
1 1 245.729600 -77.828740 -50.620100 -0.999993 0.000000 0.000000 0.000000 1.000000 0.000000 0.000000 0.000000 -0.999993 3709b.dat
1 1 245.729600 -85.828750 -50.620100 -0.999993 0.000000 0.000000 0.000000 1.000000 0.000000 0.000000 0.000000 -0.999993 3709b.dat
0 STEP
1 1 265.729200 -69.828720 -50.000350 0.000000 0.000000 -0.999993 0.000000 1.000000 0.000000 0.999993 0.000000 0.000000 32001.dat
0 STEP
1 0 385.999800 -83.828690 -10.000620 0.000000 0.000000 1.000000 0.000000 1.000000 0.000000 -1.000000 0.000000 0.000000 2780.dat
1 1 395.999800 -69.828730 -50.000340 0.000000 0.000000 -0.999993 0.000000 1.000000 0.000000 0.999993 0.000000 0.000000 3666.dat
1 1 345.999700 -93.828700 -20.000560 1.000000 0.000000 -0.000001 0.000000 1.000000 0.000000 0.000000 0.000000 1.000000 3894.dat
1 0 365.999800 -83.828690 -10.000620 0.000000 0.000000 1.000000 0.000000 1.000000 0.000000 -1.000000 0.000000 0.000000 2780.dat
0 STEP
1 1 345.999700 -93.828720 -80.000140 1.000000 0.000000 -0.000001 0.000000 1.000000 0.000000 0.000000 0.000000 1.000000 3894.dat
1 0 365.999800 -83.828720 -90.000060 0.000000 0.000000 1.000000 0.000000 1.000000 0.000000 -1.000000 0.000000 0.000000 2780.dat
1 0 385.999800 -83.828690 -90.000060 0.000000 0.000000 1.000000 0.000000 1.000000 0.000000 -1.000000 0.000000 0.000000 2780.dat
0 STEP
1 1 245.999800 -93.828700 -0.000700 1.000000 0.000000 -0.000001 0.000000 1.000000 0.000000 0.000000 0.000000 1.000000 3703.dat
1 1 245.999800 -93.828700 -100.000000 1.000000 0.000000 0.000000 0.000000 1.000000 0.000000 0.000000 0.000000 1.000000 3703.dat
1 1 195.999800 -69.828720 -50.000350 0.000000 0.000000 -0.999993 0.000000 1.000000 0.000000 0.999993 0.000000 0.000000 3666.dat
0 STEP
1 72 345.999800 -83.828720 -51.589980 -1.000000 0.000000 0.000000 0.000000 -1.000000 0.000000 0.000000 0.000000 1.000000 3648b.dat
1 0 345.999800 -83.828720 -50.000000 0.000000 0.000000 1.000000 0.000000 1.000000 0.000000 -1.000000 0.000000 0.000000 3708.dat
0 STEP
1 71 345.999800 -83.828700 -120.500600 -0.999993 0.000000 -0.000001 0.000000 1.000000 0.000000 0.000001 0.000000 -0.999993 3713.dat
1 71 345.999800 -83.828700 19.019420 -1.000000 0.000000 -0.000001 0.000000 1.000000 0.000000 0.000001 0.000000 -1.000001 3713.dat
0 STEP
1 71 345.999800 -83.828700 -140.490400 -0.999993 0.000000 -0.000001 0.000000 1.000000 0.000000 0.000001 0.000000 -0.999993 3713.dat
1 71 345.999800 -83.828700 38.970330 -0.999993 0.000000 -0.000001 0.000000 1.000000 0.000000 0.000001 0.000000 -0.999993 3713.dat
0 STEP
1 71 345.999800 -83.828670 -160.000200 0.999993 0.000000 0.000000 0.000000 0.999997 0.000000 0.000000 0.000000 0.999993 57519.dat
1 71 345.999800 -83.828660 60.000220 -0.999993 0.000000 0.000000 0.000000 0.999997 0.000000 0.000000 0.000000 -0.999993 57519.dat
0 STEP
1 71 392.329300 -123.828800 -50.620100 0.000000 0.000000 1.000003 0.000000 1.000000 0.000000 -1.000003 0.000000 0.000000 4185.dat
1 71 402.809800 -123.828800 -50.620100 0.000001 0.000000 1.000000 0.000000 1.000000 0.000000 -1.000000 0.000000 0.000000 4185.dat
1 71 427.729600 -123.831600 -50.620100 -0.000001 0.000000 0.999993 0.000000 1.000000 0.000000 -0.999993 0.000000 -0.000001 59443.dat
0 STEP
1 71 459.729400 -123.828800 -50.620100 -0.999993 0.000000 0.000000 0.000000 0.000000 1.000000 0.000000 0.999993 0.000000 4519.dat
1 4 499.019100 -123.828800 -50.620100 0.000000 0.000000 -0.999993 0.000000 -1.000000 0.000000 -0.999993 0.000000 0.000000 32034.dat
1 71 539.018900 -123.828800 -50.620100 -0.999993 0.000000 0.000000 0.000000 0.000000 1.000000 0.000000 0.999993 0.000000 4519.dat
0 STEP
1 4 579.018600 -123.828700 -50.620100 0.999993 0.000001 -0.000001 0.000001 0.000001 1.000000 0.000001 -0.999993 0.000001 32054.dat
1 19 539.819000 -123.828800 -50.621070 -0.000001 0.000000 0.999993 0.000000 -1.000000 0.000000 0.999993 0.000000 0.000001 6589.dat
1 19 530.858900 -123.828800 -50.620100 0.000000 0.000000 -0.999993 1.000000 0.000000 0.000000 0.000000 -0.999993 0.000000 32198.dat
0 STEP
1 0 105.999800 -83.828720 -10.000640 0.000000 0.000000 1.000000 0.000000 1.000000 0.000000 -1.000000 0.000000 0.000000 2780.dat
1 15 65.999760 -83.828760 -20.000570 0.000001 0.000001 -1.000000 -1.000000 0.000001 -0.000001 0.000001 1.000000 0.000001 32524.dat
1 0 85.999690 -83.828720 -30.000500 0.000000 0.000000 -1.000000 0.000000 1.000000 0.000000 1.000000 0.000000 0.000000 2780.dat
1 1 125.999600 -83.828660 -20.000570 0.000000 0.000000 -1.000000 0.000000 1.000000 0.000000 1.000000 0.000000 0.000000 6558.dat
0 STEP
1 1 85.999810 -163.828700 -40.000430 1.000000 -0.000001 -0.000001 0.000001 0.000001 1.000000 -0.000001 -1.000000 0.000001 32526.dat
1 0 85.999690 -143.828800 -50.001340 0.000000 0.000000 -1.000000 0.000000 1.000001 0.000000 1.000001 0.000000 0.000000 2780.dat
1 0 85.999810 -163.828700 -50.000360 0.000000 0.000000 -1.000000 0.000000 1.000000 0.000000 1.000000 0.000000 0.000000 2780.dat
0 STEP
1 0 125.999800 -83.828720 -90.000080 0.000000 0.000000 1.000000 0.000000 1.000000 0.000000 -1.000000 0.000000 0.000000 2780.dat
1 0 105.999800 -83.828720 -90.000080 0.000000 0.000000 1.000000 0.000000 1.000000 0.000000 -1.000000 0.000000 0.000000 2780.dat
1 15 65.999860 -83.828780 -80.000140 0.000001 0.000001 -1.000000 -1.000000 0.000001 -0.000001 0.000001 1.000000 0.000001 32524.dat
0 STEP
1 0 147.000000 -83.828780 -50.621100 0.000000 0.000000 0.999993 0.000000 1.000000 0.000000 -0.999993 0.000000 0.000000 3708.dat
1 71 147.000000 -83.828760 -120.988500 -0.999986 0.000000 -0.000001 0.000000 1.000000 0.000000 0.000001 0.000000 -0.999986 3713.dat
1 71 147.000000 -83.828780 18.979500 -0.999993 0.000000 -0.000001 0.000000 1.000000 0.000000 0.000001 0.000000 -0.999994 3713.dat
0 STEP
1 71 147.000000 -83.828740 -140.978400 -0.999986 0.000000 -0.000001 0.000000 1.000000 0.000000 0.000001 0.000000 -0.999986 3713.dat
1 71 147.000000 -83.828780 38.960310 -0.999986 0.000000 -0.000001 0.000000 1.000000 0.000000 0.000001 0.000000 -0.999986 3713.dat
0 STEP
1 71 146.999100 -83.828620 -160.620200 0.999993 0.000000 0.000000 0.000000 0.999997 0.000000 0.000000 0.000000 0.999993 57519.dat
1 71 146.999100 -83.828740 59.380210 -0.999993 0.000000 0.000000 0.000000 0.999997 0.000000 0.000000 0.000000 -0.999993 57519.dat
0 STEP
1 0 5.999670 -83.828820 -10.000640 0.000000 0.000000 -1.000000 0.000000 1.000000 0.000000 1.000000 0.000000 0.000000 2780.dat
1 0 45.999700 -83.828790 -10.000640 0.000000 0.000000 -1.000000 0.000000 1.000000 0.000000 1.000000 0.000000 0.000000 2780.dat
1 1 45.999600 -83.828780 -0.000710 -0.000001 -0.000001 -1.000000 1.000000 -0.000001 -0.000001 -0.000001 -1.000000 0.000001 32526.dat
0 STEP
1 1 46.000000 -83.828790 -100.000000 -0.000001 -0.000001 -1.000000 1.000000 -0.000001 -0.000001 -0.000001 -1.000000 0.000001 32526.dat
1 0 5.999780 -83.828800 -90.000080 0.000000 0.000000 -1.000000 0.000000 1.000000 0.000000 1.000000 0.000000 0.000000 2780.dat
1 0 45.999900 -83.828780 -90.000080 0.000000 0.000000 -1.000000 0.000000 1.000000 0.000000 1.000000 0.000000 0.000000 2780.dat
0 STEP
1 19 -34.000120 -63.828860 -33.720440 0.000000 -1.000000 0.000000 -1.000000 0.000000 -0.000001 0.000001 0.000000 -1.000000 6589.dat
1 0 -34.000120 -63.828880 -51.050280 0.000000 0.000000 1.000000 0.000000 1.000000 0.000000 -1.000000 0.000000 0.000000 3708.dat
1 71 -34.000120 -63.828880 -20.350550 1.000000 0.000000 0.000001 0.000000 1.000000 0.000000 -0.000001 0.000000 1.000000 3713.dat
0 STEP
1 15 -34.000120 -63.828860 20.189210 0.000001 0.000001 -1.000000 -1.000000 0.000001 -0.000001 0.000001 1.000000 0.000001 32524.dat
1 19 25.999830 -63.828800 30.189140 -0.000001 1.000000 -0.000001 0.000001 0.000001 1.000000 1.000000 0.000001 -0.000001 3749.dat
1 19 -94.000160 -63.828920 30.189140 -0.000001 1.000000 -0.000001 0.000001 0.000001 1.000000 1.000000 0.000001 -0.000001 3749.dat
0 STEP
1 71 -34.000130 -63.828870 39.760120 1.000000 0.000000 0.000001 0.000000 1.000000 0.000000 -0.000001 0.000000 1.000000 3713.dat
1 14 -34.000130 -63.828870 54.939940 1.000000 0.000000 0.000000 0.000000 1.000000 0.000000 0.000000 0.000000 1.000000 32123a.dat
0 STEP
1 0 25.998540 -63.828840 50.445960 1.000001 0.000000 0.000001 0.000000 -1.000001 0.000000 0.000001 0.000000 -1.000000 30391.dat
1 71 25.999830 -63.828800 50.189000 0.000000 -1.000000 0.000000 -1.000000 0.000000 0.000000 0.000000 0.000000 -1.000000 55982.dat
1 0 -94.000820 -63.828940 50.445960 1.000001 0.000000 0.000001 0.000000 -1.000001 0.000000 0.000001 0.000000 -1.000000 30391.dat
1 71 -94.000270 -63.828910 50.189980 0.000000 -1.000000 0.000000 -1.000000 0.000000 0.000000 0.000000 0.000000 -1.000000 55982.dat
0 STEP
1 15 -34.000120 -63.828880 -120.260900 0.000001 0.000001 -1.000000 -1.000000 0.000001 -0.000001 0.000001 1.000000 0.000001 32524.dat
1 19 25.999840 -63.828830 -130.260700 -0.000001 1.000000 -0.000001 -0.000001 -0.000001 -1.000000 -1.000000 -0.000001 0.000001 3749.dat
1 19 -94.000140 -63.828940 -130.260700 -0.000001 1.000000 -0.000001 -0.000001 -0.000001 -1.000000 -1.000000 -0.000001 0.000001 3749.dat
0 STEP
1 14 -34.000120 -63.828880 -156.050400 1.000000 0.000000 0.000000 0.000000 1.000000 0.000000 0.000000 0.000000 1.000000 32123a.dat
1 71 -33.999990 -63.828880 -140.560600 1.000000 0.000000 0.000001 0.000000 1.000000 0.000000 -0.000001 0.000000 1.000000 3713.dat
0 STEP
1 0 26.000040 -63.828880 -150.516600 -1.000001 0.000000 -0.000001 0.000000 -1.000001 0.000000 -0.000001 0.000000 1.000000 30391.dat
1 71 25.999730 -63.828820 -150.260500 0.000000 1.000000 0.000000 -1.000000 0.000000 0.000000 0.000000 0.000000 1.000000 55982.dat
1 0 -93.999910 -63.828980 -150.516600 -1.000001 0.000000 -0.000001 0.000000 -1.000001 0.000000 -0.000001 0.000000 1.000000 30391.dat
1 71 -94.000140 -63.828960 -150.260500 0.000000 1.000000 0.000000 -1.000000 0.000000 0.000000 0.000000 0.000000 1.000000 55982.dat
0 STEP
1 16 -77.000270 -94.624610 -70.001200 1.000000 0.000000 0.000000 0.000000 1.000000 0.000000 0.000000 0.000000 1.000000 submodel group 9 copy copy copy
0 STEP
1 0 397.109300 -105.080300 63.381170 0.000000 -0.761898 0.647687 0.000000 0.647691 0.761903 -0.999993 0.000000 0.000000 88323.dat
1 0 396.230600 -73.961290 63.379100 0.000000 -0.998678 -0.051282 0.000000 -0.051280 0.998682 -0.999993 0.000000 0.000000 88323.dat
1 0 380.750200 -45.365480 63.379100 0.000000 -0.849916 -0.526903 0.000000 -0.526904 0.849922 -0.999993 0.000000 0.000000 88323.dat
1 0 358.998800 -23.353540 63.379100 0.000000 -0.681886 -0.731448 0.000000 -0.731451 0.681892 -0.999993 0.000000 0.000000 88323.dat
1 0 332.862100 -28.049980 63.379100 0.000000 -0.052193 -0.998630 0.000000 -0.998634 0.052193 -0.999993 0.000000 0.000000 88323.dat
1 0 298.903200 -26.484200 63.379100 0.000000 -0.052193 -0.998630 0.000000 -0.998634 0.052193 -0.999993 0.000000 0.000000 88323.dat
1 0 265.944400 -24.918410 63.379090 0.000000 -0.052193 -0.998630 0.000000 -0.998634 0.052193 -0.999993 0.000000 0.000000 88323.dat
1 0 232.985600 -23.352620 63.379090 0.000000 -0.052193 -0.998630 0.000000 -0.998634 0.052193 -0.999993 0.000000 0.000000 88323.dat
1 0 200.026700 -21.786840 63.379090 0.000000 -0.052193 -0.998630 0.000000 -0.998634 0.052193 -0.999993 0.000000 0.000000 88323.dat
1 0 168.067800 -20.221030 63.379090 0.000000 -0.052193 -0.998630 0.000000 -0.998634 0.052193 -0.999993 0.000000 0.000000 88323.dat
1 0 143.750600 -29.792220 63.379090 0.000000 0.444642 -0.895701 0.000000 -0.895705 -0.444642 -0.999993 0.000000 0.000000 88323.dat
1 0 122.200200 -42.479260 63.379080 0.000000 0.535503 -0.844525 0.000000 -0.844529 -0.535504 -0.999993 0.000000 0.000000 88323.dat
1 0 102.916100 -59.894590 63.379080 0.000000 0.759236 -0.650803 0.000000 -0.650810 -0.759239 -0.999993 0.000000 0.000000 88323.dat
1 0 95.808620 -85.934790 63.380180 0.000000 0.970514 -0.241013 0.000000 -0.241017 -0.970519 -0.999993 0.000000 0.000000 88323.dat
1 0 101.656300 -111.265200 63.380180 0.000000 0.960338 0.278810 0.000000 0.278808 -0.960344 -0.999993 0.000000 0.000000 88323.dat
1 0 124.698100 -133.068100 63.380180 0.000000 0.694523 0.719459 0.000000 0.719462 -0.694529 -0.999993 0.000000 0.000000 88323.dat
1 0 153.346000 -141.296700 63.380180 0.000000 0.258815 0.965919 0.000000 0.965923 -0.258818 -0.999993 0.000000 0.000000 88323.dat
1 0 183.998700 -140.932800 63.380180 0.000000 0.000000 0.999993 0.000000 0.999997 0.000000 -0.999993 0.000000 0.000000 88323.dat
1 0 217.998600 -140.932800 63.380180 0.000000 0.000000 0.999993 0.000000 0.999997 0.000000 -0.999993 0.000000 0.000000 88323.dat
1 0 250.998400 -140.932800 63.380200 0.000000 0.000000 0.999993 0.000000 0.999997 0.000000 -0.999993 0.000000 0.000000 88323.dat
1 0 284.997900 -140.932800 63.380200 0.000000 0.000000 0.999993 0.000000 0.999997 0.000000 -0.999993 0.000000 0.000000 88323.dat
1 0 317.997800 -140.932800 63.380200 0.000000 0.000000 0.999993 0.000000 0.999997 0.000000 -0.999993 0.000000 0.000000 88323.dat
1 0 349.941200 -138.699300 63.380200 0.000000 -0.031278 0.999504 0.000000 0.999508 0.031277 -0.999993 0.000000 0.000000 88323.dat
1 0 377.421300 -127.935200 63.380200 0.000000 -0.418635 0.908148 0.000000 0.908150 0.418635 -0.999993 0.000000 0.000000 88323.dat
0 STEP
1 0 96.889620 -105.080300 -164.001400 0.000000 0.761898 -0.647686 0.000000 0.647691 0.761903 0.999993 0.000000 0.000000 88323.dat
1 0 97.768200 -73.961230 -163.999300 0.000000 0.998678 0.051282 0.000000 -0.051280 0.998682 0.999993 0.000000 0.000000 88323.dat
1 0 113.248600 -45.365420 -163.999300 0.000000 0.849916 0.526903 0.000000 -0.526904 0.849922 0.999993 0.000000 0.000000 88323.dat
1 0 135.000100 -23.353480 -163.999300 0.000000 0.681886 0.731448 0.000000 -0.731451 0.681893 0.999993 0.000000 0.000000 88323.dat
1 0 161.136800 -28.049940 -163.999300 0.000000 0.052193 0.998630 0.000000 -0.998634 0.052193 0.999993 0.000000 0.000000 88323.dat
1 0 196.095700 -26.484150 -163.999300 0.000000 0.052193 0.998630 0.000000 -0.998634 0.052193 0.999993 0.000000 0.000000 88323.dat
1 0 228.054600 -24.918360 -163.999300 0.000000 0.052193 0.998630 0.000000 -0.998634 0.052193 0.999993 0.000000 0.000000 88323.dat
1 0 262.013300 -23.352560 -163.999300 0.000000 0.052193 0.998630 0.000000 -0.998634 0.052193 0.999993 0.000000 0.000000 88323.dat
1 0 294.972200 -21.786780 -163.999300 0.000000 0.052193 0.998630 0.000000 -0.998634 0.052193 0.999993 0.000000 0.000000 88323.dat
1 0 328.931100 -20.220980 -163.999300 0.000000 0.052193 0.998630 0.000000 -0.998634 0.052193 0.999993 0.000000 0.000000 88323.dat
1 0 353.248400 -29.792160 -163.999300 0.000000 -0.444642 0.895701 0.000000 -0.895705 -0.444642 0.999993 0.000000 0.000000 88323.dat
1 0 374.798600 -42.479200 -163.999300 0.000000 -0.535503 0.844525 0.000000 -0.844529 -0.535503 0.999993 0.000000 0.000000 88323.dat
1 0 394.082900 -59.894540 -163.999300 0.000000 -0.759237 0.650804 0.000000 -0.650810 -0.759239 0.999993 0.000000 0.000000 88323.dat
1 0 401.190200 -85.934730 -164.000200 0.000000 -0.970515 0.241013 0.000000 -0.241017 -0.970519 0.999993 0.000000 0.000000 88323.dat
1 0 395.342700 -111.265100 -164.000200 0.000000 -0.960339 -0.278810 0.000000 0.278808 -0.960344 0.999993 0.000000 0.000000 88323.dat
1 0 372.300800 -133.068000 -164.000200 0.000000 -0.694523 -0.719460 0.000000 0.719462 -0.694529 0.999993 0.000000 0.000000 88323.dat
1 0 343.652900 -141.296700 -164.000200 0.000000 -0.258815 -0.965920 0.000000 0.965923 -0.258818 0.999993 0.000000 0.000000 88323.dat
1 0 313.000200 -140.932800 -164.000200 0.000000 0.000000 -0.999993 0.000000 0.999997 0.000000 0.999993 0.000000 0.000000 88323.dat
1 0 278.000200 -140.932800 -164.000200 0.000000 0.000000 -0.999993 0.000000 0.999997 0.000000 0.999993 0.000000 0.000000 88323.dat
1 0 245.000500 -140.932700 -164.000200 0.000000 0.000000 -0.999993 0.000000 0.999997 0.000000 0.999993 0.000000 0.000000 88323.dat
1 0 211.001000 -140.932700 -164.000200 0.000000 0.000000 -0.999993 0.000000 0.999997 0.000000 0.999993 0.000000 0.000000 88323.dat
1 0 177.001200 -140.932800 -164.000200 0.000000 0.000000 -0.999993 0.000000 0.999997 0.000000 0.999993 0.000000 0.000000 88323.dat
1 0 144.057700 -138.699200 -164.000200 0.000000 0.031278 -0.999504 0.000000 0.999508 0.031277 0.999993 0.000000 0.000000 88323.dat
1 0 116.577700 -127.935200 -164.000200 0.000000 0.418635 -0.908148 0.000000 0.908150 0.418635 0.999993 0.000000 0.000000 88323.dat
0 STEP
0 STEP
0 NOFILE
0 FILE SubModel Group 9 Copy Copy Copy
0 SubModel Group 9 Copy Copy Copy
0 Name:  SubModel Group 9 Copy Copy Copy
0 Author:  
0 CustomBrick
0 NumOfBricks:  3
1 72 10.000000 -1.128810 -10.000000 1.000000 0.000000 0.000000 0.000000 0.000000 -1.000000 0.000000 1.000000 0.000000 dch003.dat
1 71 -27.466620 -79.717990 29.427020 1.000000 0.000000 0.000000 0.000000 0.000000 -1.000000 0.000000 1.000000 0.000000 dch004.dat
1 25 7.837010 13.484720 -9.965000 1.000000 0.000000 0.000000 0.000000 0.000000 -1.000000 0.000000 1.000000 0.000000 dch005.dat
0 NOFILE
