0 FILE 扫地车.io
0 Untitled Model
0 Name:  扫地车
0 Author:  
0 CustomBrick
0 NumOfBricks:  103
1 71 18.000480 -85.840050 -45.012820 0.000000 -1.000002 0.000000 -0.000001 0.000000 1.000002 -1.000006 0.000000 -0.000001 3713.dat
1 71 18.000480 -103.050000 -45.012820 0.000000 -1.000002 0.000000 0.000001 0.000000 -1.000002 1.000000 0.000000 0.000001 3650c.dat
1 0 18.000480 -70.009990 -45.012820 0.000000 -1.000002 0.000000 -1.000002 0.000000 0.000000 0.000000 0.000000 -1.000006 15462.dat
1 14 18.000480 -71.390000 -45.012820 0.000000 -1.000002 0.000000 0.000000 0.000000 1.000002 -1.000006 0.000000 0.000000 32123a.dat
0 STEP
1 1 18.000350 -62.350020 -45.009770 0.000000 0.000000 1.000002 0.000000 1.000002 0.000000 -1.000000 0.000000 0.000000 3738.dat
1 71 18.000480 -45.729980 -45.012820 0.000000 -1.000002 0.000000 -0.000001 0.000000 1.000002 -1.000006 0.000000 -0.000001 3713.dat
0 STEP
1 1 18.000480 -27.820030 -45.012820 0.000000 0.000000 -1.000002 0.000000 -1.000002 0.000000 -1.000006 0.000000 0.000000 32001.dat
0 STEP
1 1 18.000480 -18.989990 -45.012820 1.000002 0.000000 -0.000001 0.000000 -1.000002 0.000000 0.000000 0.000000 -1.000006 32001.dat
0 STEP
1 1 18.000230 -86.350130 24.649720 -1.000002 0.000000 0.000000 0.000000 1.000002 0.000000 0.000000 0.000000 -1.000000 3703.dat
1 1 18.000320 -86.350060 -115.009800 -1.000002 0.000000 0.000000 0.000000 1.000002 0.000000 0.000000 0.000000 -1.000000 3703.dat
0 STEP
1 1 -112.001300 -110.350200 -45.009650 0.000000 0.000000 -1.000002 0.000000 1.000002 0.000000 1.000000 0.000000 0.000000 3702.dat
1 1 -112.001300 -134.350000 -45.009650 0.000001 0.000000 -1.000002 0.000000 1.000002 0.000000 1.000000 0.000000 0.000001 3702.dat
0 STEP
1 1 18.000110 -110.350300 -115.009800 -1.000002 0.000000 -0.000001 0.000000 1.000002 0.000000 0.000001 0.000000 -1.000000 3895.dat
1 1 18.000160 -134.350000 -115.009800 -1.000002 0.000000 -0.000001 0.000000 1.000002 0.000000 0.000001 0.000000 -1.000000 3895.dat
0 STEP
1 71 -41.999480 -124.350100 -123.239700 0.000001 1.000002 0.000000 0.000000 0.000000 1.000002 1.000000 -0.000001 0.000000 4519.dat
1 0 -61.999840 -124.350100 -105.009500 -0.000001 0.000000 1.000002 0.000000 1.000002 0.000000 -1.000000 0.000000 -0.000001 2780.dat
1 0 -21.999640 -124.350100 -105.009500 -0.000001 0.000000 1.000002 0.000000 1.000002 0.000000 -1.000000 0.000000 -0.000001 2780.dat
1 71 -41.999480 -124.350100 -136.689700 0.000000 1.000002 -0.000001 1.000002 0.000000 0.000001 0.000001 -0.000001 -1.000000 94925.dat
1 71 -41.999480 -124.350100 -105.009500 1.000002 0.000000 0.000000 0.000000 1.000002 0.000000 0.000000 0.000000 1.000000 58120.dat
0 STEP
1 1 18.000280 -134.350000 24.649590 -1.000002 0.000000 -0.000001 0.000000 1.000002 0.000000 0.000001 0.000000 -1.000000 3895.dat
1 1 18.000290 -110.350300 24.649650 -1.000002 0.000000 -0.000001 0.000000 1.000002 0.000000 0.000001 0.000000 -1.000000 3895.dat
0 STEP
1 1 -102.000900 -62.350040 24.649780 -1.000002 0.000000 0.000000 0.000000 1.000002 0.000000 0.000000 0.000000 -1.000000 3701.dat
1 1 -102.000900 -62.350010 -115.009800 -1.000002 0.000000 0.000000 0.000000 1.000002 0.000000 0.000000 0.000000 -1.000000 3701.dat
1 1 137.999300 -62.350090 24.649720 -1.000002 0.000000 0.000000 0.000000 1.000002 0.000000 0.000000 0.000000 -1.000000 3701.dat
1 1 137.998900 -62.350090 -115.009800 -1.000002 0.000000 0.000000 0.000000 1.000002 0.000000 0.000000 0.000000 -1.000000 3701.dat
0 STEP
1 1 -21.999890 -142.350100 -115.009700 1.000002 0.000000 0.000000 0.000000 1.000002 0.000000 0.000000 0.000000 1.000000 3023.dat
1 1 48.000240 -142.350100 -105.009800 0.000000 0.000000 1.000002 0.000000 1.000002 0.000000 -1.000000 0.000000 0.000000 3023.dat
1 1 48.000340 -142.350100 14.649530 0.000000 0.000000 1.000002 0.000000 1.000002 0.000000 -1.000000 0.000000 0.000000 3023.dat
1 1 -21.999770 -142.350100 24.649650 1.000002 0.000000 0.000000 0.000000 1.000002 0.000000 0.000000 0.000000 1.000000 3023.dat
1 1 18.000280 -142.350100 24.649590 1.000002 0.000000 0.000000 0.000000 1.000002 0.000000 0.000000 0.000000 1.000000 3023.dat
1 1 18.000160 -142.350100 -115.009800 1.000002 0.000000 0.000000 0.000000 1.000002 0.000000 0.000000 0.000000 1.000000 3023.dat
0 STEP
1 1 147.999300 -110.350300 -45.009710 0.000001 0.000000 -1.000002 0.000000 1.000002 0.000000 1.000000 0.000000 0.000001 3702.dat
0 STEP
1 1 77.999660 -142.350000 -45.350100 0.000001 0.000000 -1.000002 0.000000 1.000002 0.000000 1.000000 0.000000 0.000001 3738.dat
1 1 117.999600 -142.350000 -45.350100 0.000001 0.000000 -1.000002 0.000000 1.000002 0.000000 1.000000 0.000000 0.000001 3738.dat
1 1 -102.000800 -142.349900 -45.349860 0.000001 0.000000 -1.000002 0.000000 1.000002 0.000000 1.000000 0.000000 0.000001 3738.dat
0 STEP
1 71 17.999550 -124.351100 4.989740 -0.543894 -0.839159 -0.000001 -0.839163 0.543891 -0.000001 0.000001 0.000001 -1.000000 3713.dat
1 14 17.999550 -124.351100 -28.480040 -0.839159 -0.543894 0.000001 0.543891 -0.839163 0.000000 0.000001 0.000000 1.000000 32123a.dat
1 71 17.999610 -124.351000 44.989560 -0.543894 -0.839159 -0.000001 -0.839163 0.543891 -0.000001 0.000001 0.000001 -1.000000 3713.dat
1 0 18.000250 -124.350000 -45.009770 0.000001 -0.839159 -0.543891 0.000000 0.543891 -0.839159 1.000000 0.000001 0.000000 3737.dat
1 72 17.999520 -124.351000 -135.280000 -0.543894 0.839159 0.000001 -0.839163 -0.543891 0.000000 0.000000 -0.000001 1.000000 3648b.dat
1 71 17.999550 -124.351100 -13.850160 -0.543894 -0.839159 -0.000001 -0.839163 0.543891 -0.000001 0.000001 0.000000 -1.000000 94925.dat
0 STEP
1 0 98.010890 -99.697680 -125.009800 0.000000 0.000000 -1.000002 0.000000 1.000002 0.000000 1.000000 0.000000 0.000000 2780.dat
1 0 118.000200 -100.350300 -125.009800 0.000000 -0.707108 -0.707108 0.000000 0.707108 -0.707108 1.000000 0.000000 0.000000 2780.dat
0 STEP
1 0 78.000380 -100.350300 34.649530 0.000000 0.000000 -1.000002 0.000000 1.000002 0.000000 1.000000 0.000000 0.000000 2780.dat
1 0 98.000430 -100.350300 34.649600 0.000000 0.000000 -1.000002 0.000000 1.000002 0.000000 1.000000 0.000000 0.000000 2780.dat
0 STEP
1 1 186.829500 -198.648800 -135.009700 -0.819154 0.000001 -0.573576 -0.573577 0.000001 0.819154 0.000002 1.000000 0.000000 32271.dat
1 1 166.829600 -198.648800 44.649660 -0.819155 0.000001 -0.573576 -0.573577 0.000001 0.819155 0.000001 1.000000 0.000000 32271.dat
0 STEP
1 0 -82.000040 -52.349980 -50.039900 0.000000 0.000000 -1.000002 0.000000 1.000002 0.000000 1.000000 0.000000 0.000000 3708.dat
1 14 -82.000040 -52.350020 39.959720 0.000000 -1.000002 0.000000 -1.000002 0.000000 0.000000 0.000000 0.000000 -1.000000 32123a.dat
1 14 -82.000040 -52.349980 -129.989700 0.000000 -1.000002 0.000000 -1.000002 0.000000 0.000000 0.000000 0.000000 -1.000000 32123a.dat
0 STEP
1 0 117.999600 -144.610000 -5.350100 0.000000 -1.000002 0.000000 1.000002 0.000000 0.000000 0.000000 0.000000 1.000000 2780.dat
1 0 117.999600 -144.790000 -85.350100 0.000000 0.000000 1.000002 1.000002 0.000000 0.000000 0.000000 1.000000 0.000000 2780.dat
1 0 77.999690 -144.860000 -5.350100 0.000000 0.000000 -1.000000 -1.000000 0.000000 0.000000 0.000000 1.000000 0.000000 2780.dat
1 0 77.999640 -147.290000 -85.350040 0.000000 0.000000 1.000002 1.000002 0.000000 0.000000 0.000000 1.000000 0.000000 2780.dat
0 STEP
1 1 48.000240 -150.350100 -85.009780 0.000000 0.000000 1.000002 0.000000 1.000002 0.000000 -1.000000 0.000000 0.000000 3710.dat
1 1 48.000300 -150.350100 -5.350530 0.000000 0.000000 1.000002 0.000000 1.000002 0.000000 -1.000000 0.000000 0.000000 3710.dat
0 STEP
1 4 78.000320 -124.350100 24.649470 0.000001 -1.000002 0.000001 0.000001 0.000001 1.000002 -1.000000 -0.000001 0.000001 32054.dat
1 4 98.000370 -124.350000 -115.009800 -0.000001 1.000002 -0.000001 0.000001 0.000001 1.000002 1.000000 0.000001 -0.000001 32054.dat
0 STEP
0 STEP
1 0 -122.001400 -124.350000 -45.009650 -1.000002 0.000000 0.000000 0.000000 1.000002 0.000000 0.000000 0.000000 -1.000000 2780.dat
1 4 -132.001400 -124.350000 -45.009640 -1.000002 0.000000 0.000000 0.000000 -1.000002 0.000000 0.000000 0.000000 1.000000 32034.dat
0 STEP
1 1 -112.000800 -174.350000 -25.349980 0.000000 0.000000 1.000002 0.000000 1.000002 0.000000 -1.000000 0.000000 0.000000 3023.dat
1 1 -112.000800 -174.350000 -65.349910 0.000000 0.000000 1.000002 0.000000 1.000002 0.000000 -1.000000 0.000000 0.000000 3023.dat
1 15 -112.000700 -166.350000 -35.349860 0.000000 0.000000 -1.000002 0.000000 1.000002 0.000000 1.000000 0.000000 0.000000 3040b.dat
1 15 -112.000700 -166.350000 -15.349850 0.000000 0.000000 -1.000002 0.000000 1.000002 0.000000 1.000000 0.000000 0.000000 3040b.dat
1 15 -112.002100 -166.350000 -55.349850 0.000000 0.000000 -1.000002 0.000000 1.000002 0.000000 1.000000 0.000000 0.000000 3040b.dat
1 15 -112.000700 -166.350000 -75.349860 0.000000 0.000000 -1.000002 0.000000 1.000002 0.000000 1.000000 0.000000 0.000000 3040b.dat
0 STEP
1 19 -102.000800 -156.350000 34.650140 0.000001 -1.000002 0.000001 0.000001 0.000001 1.000002 -1.000000 -0.000001 0.000001 3749.dat
1 19 -102.000900 -156.350000 -125.349800 -0.000001 1.000002 -0.000001 0.000001 0.000001 1.000002 1.000000 0.000001 -0.000001 3749.dat
1 15 -102.000800 -166.350000 24.650140 1.000002 0.000000 0.000000 0.000000 1.000002 0.000000 0.000000 0.000000 1.000000 32064a.dat
1 15 -102.000900 -166.350000 -115.349800 1.000002 0.000000 0.000000 0.000000 1.000002 0.000000 0.000000 0.000000 1.000000 32064a.dat
0 STEP
0 STEP
1 0 117.999200 -52.350020 -43.219980 0.000000 0.000000 1.000001 0.000000 1.000002 0.000000 -1.000000 0.000000 0.000000 3708.dat
1 71 117.999200 -52.350060 44.519530 1.000002 0.000000 0.000001 0.000000 1.000002 0.000000 -0.000001 0.000000 1.000000 3713.dat
0 STEP
1 72 -82.000000 -52.349960 -143.000000 0.000000 1.000000 0.000000 1.000000 0.000000 0.000000 0.000000 0.000000 -1.000000 3648b.dat
0 STEP
1 71 -82.000100 -52.349980 -161.829900 1.000002 0.000000 0.000000 0.000000 1.000002 0.000000 0.000000 0.000000 1.000000 3649.dat
1 71 117.999200 -52.350020 -153.219900 0.000000 1.000002 0.000000 1.000002 0.000000 0.000000 0.000000 0.000000 -1.000000 3649.dat
0 STEP
1 71 -81.999910 -52.350020 54.959660 0.000000 1.000002 0.000000 1.000002 0.000000 0.000000 0.000000 0.000000 -1.000000 3649.dat
1 71 117.999200 -52.350060 64.679560 0.000000 1.000002 0.000000 1.000002 0.000000 0.000000 0.000000 0.000000 -1.000000 3649.dat
0 STEP
1 15 147.999300 -142.350400 -45.009710 0.000000 0.000000 1.000002 0.000000 1.000002 0.000000 -1.000000 0.000000 0.000000 2431.dat
1 15 147.999300 -134.350300 -25.009700 0.000000 0.000000 1.000002 0.000000 1.000002 0.000000 -1.000000 0.000000 0.000000 32064a.dat
1 15 147.999300 -134.350300 -65.009760 0.000000 0.000000 1.000002 0.000000 1.000002 0.000000 -1.000000 0.000000 0.000000 32064a.dat
0 STEP
1 19 157.999300 -124.350300 -65.009830 -1.000002 -0.000001 0.000001 0.000001 0.000001 1.000002 -0.000001 1.000000 -0.000001 3749.dat
1 19 157.999300 -124.350300 -25.009700 -1.000002 -0.000001 0.000001 0.000001 0.000001 1.000002 -0.000001 1.000000 -0.000001 3749.dat
1 71 167.999200 -124.350300 -5.009770 -0.000001 1.000002 0.000001 1.000002 0.000001 -0.000001 -0.000001 0.000001 -1.000000 60483.dat
1 71 167.999300 -124.350300 -85.009780 0.000001 -1.000002 -0.000001 1.000002 0.000001 -0.000001 0.000001 -0.000001 1.000000 60483.dat
0 STEP
1 0 143.886600 -165.882600 34.649660 0.000000 0.000000 -1.000002 0.000000 1.000002 0.000000 1.000000 0.000000 0.000000 2780.dat
1 0 163.886500 -165.882600 -125.009600 0.000000 0.000000 -1.000002 0.000000 1.000002 0.000000 1.000000 0.000000 0.000000 2780.dat
1 0 175.358000 -182.265700 -125.009600 0.000000 0.000000 -1.000002 0.000000 1.000002 0.000000 1.000000 0.000000 0.000000 2780.dat
1 0 155.358100 -182.265700 34.649660 0.000000 0.000000 -1.000002 0.000000 1.000002 0.000000 1.000000 0.000000 0.000000 2780.dat
0 STEP
1 15 201.244200 -247.798000 24.649410 -0.819153 0.000001 -0.573578 -0.573578 -0.000001 0.819154 0.000000 1.000000 0.000002 64290.dat
1 15 221.244200 -247.798000 -115.009500 0.819153 0.000001 -0.573578 0.573579 -0.000001 0.819153 0.000000 -1.000000 -0.000002 64290.dat
0 STEP
1 0 247.130400 -313.330200 34.649290 0.000000 0.000000 -1.000002 0.000000 1.000002 0.000000 1.000000 0.000000 0.000000 2780.dat
1 0 267.130400 -313.330200 -125.009300 0.000000 0.000000 -1.000002 0.000000 1.000002 0.000000 1.000000 0.000000 0.000000 2780.dat
1 0 278.601900 -329.713200 -125.009300 0.000000 0.000000 -1.000002 0.000000 1.000002 0.000000 1.000000 0.000000 0.000000 2780.dat
1 0 258.601900 -329.713300 34.649170 0.000000 0.000000 -1.000002 0.000000 1.000002 0.000000 1.000000 0.000000 0.000000 2780.dat
0 STEP
1 1 347.431500 -428.011700 -135.009200 0.819154 0.000000 0.573577 0.573577 0.000000 -0.819154 0.000000 1.000000 0.000000 32009.dat
1 1 335.235900 -422.130600 44.649350 0.777146 0.000000 0.629323 0.629323 0.000000 -0.777147 0.000000 1.000000 0.000000 32009.dat
0 STEP
1 4 412.963700 -382.125300 -155.009100 0.000000 0.000000 1.000002 0.000000 -1.000002 0.000000 1.000000 0.000000 0.000000 32034.dat
1 4 397.407500 -371.784700 64.649280 0.000000 0.000000 -1.000002 0.000000 -1.000002 0.000000 -1.000000 0.000000 0.000000 32034.dat
1 19 397.407500 -371.784700 54.649340 0.000001 -0.777146 -0.629323 0.000001 -0.629323 0.777147 -1.000000 -0.000001 0.000000 3749.dat
1 19 412.963700 -382.125300 -145.009100 -0.000001 0.819154 -0.573577 0.000000 0.573577 0.819154 1.000000 0.000001 0.000000 3749.dat
0 STEP
1 16 108.999700 -318.317500 24.650100 0.000000 0.000000 1.000000 0.999999 0.000000 0.000000 0.000000 1.000000 0.000000 submodel group 9 copy copy copy
0 STEP
0 STEP
0 NOFILE
0 FILE SubModel Group 9 Copy Copy Copy
0 SubModel Group 9 Copy Copy Copy
0 Name:  SubModel Group 9 Copy Copy Copy
0 Author:  
0 CustomBrick
0 NumOfBricks:  3
1 72 10.000000 -1.128810 -10.000000 1.000000 0.000000 0.000000 0.000000 0.000000 -1.000000 0.000000 1.000000 0.000000 dch003.dat
1 71 -27.466620 -79.717990 29.427020 1.000000 0.000000 0.000000 0.000000 0.000000 -1.000000 0.000000 1.000000 0.000000 dch004.dat
1 25 7.837010 13.484720 -9.965000 1.000000 0.000000 0.000000 0.000000 0.000000 -1.000000 0.000000 1.000000 0.000000 dch005.dat
0 NOFILE
