0 Untitled Model
0 Name:  蜗轮蜗杆
0 Author:  
0 CustomBrick
0 NumOfBricks:  19
1 15 -19.999780 -12.699950 -27.339900 0.000001 0.000001 -1.000002 -1.000000 0.000001 -0.000001 0.000001 1.000002 0.000001 32316.dat
1 0 -19.999840 -12.699940 -37.339930 0.000000 0.000000 -1.000002 0.000000 1.000000 0.000000 1.000002 0.000000 0.000000 2780.dat
1 0 0.000190 -12.699920 -37.339960 0.000000 0.000000 -1.000002 0.000000 1.000000 0.000000 1.000002 0.000000 0.000000 2780.dat
0 STEP
1 1 -19.999780 -92.699950 -47.339990 1.000002 -0.000001 -0.000001 0.000001 0.000001 1.000000 -0.000001 -1.000002 0.000001 32526.dat
0 STEP
1 71 -59.999920 -12.700040 -47.339940 0.000000 -1.000002 0.000000 0.000000 0.000000 1.000000 -1.000002 0.000000 0.000000 4519.dat
1 19 20.000170 -12.699890 -57.340060 0.000001 -1.000002 0.000001 0.000001 0.000001 1.000000 -1.000002 -0.000001 0.000001 3749.dat
0 STEP
1 71 -59.999920 -12.700040 -48.539890 1.000002 0.000000 0.000001 0.000000 1.000000 0.000000 -0.000001 0.000000 1.000002 3713.dat
0 STEP
1 0 -59.999980 -12.699980 -90.210040 -1.000002 -0.000002 -0.000002 -0.000002 1.000000 0.000002 0.000002 0.000002 -1.000002 32013.dat
0 STEP
1 14 -45.000000 -12.700000 -90.210100 0.000000 0.000000 1.000002 0.000000 1.000000 0.000000 -1.000002 0.000000 0.000000 32123a.dat
1 14 5.060080 -12.700000 -90.210100 0.000000 0.000000 1.000002 0.000000 1.000000 0.000000 -1.000002 0.000000 0.000000 32123a.dat
1 0 20.000170 -12.699980 -90.210100 -1.000002 -0.000002 -0.000002 -0.000002 1.000000 0.000002 0.000002 0.000002 -1.000002 32013.dat
1 71 -19.489890 -12.700000 -90.210040 0.000000 0.000000 1.000002 0.000000 1.000000 0.000000 -1.000002 0.000000 0.000000 4716.dat
1 71 0.000130 -12.700000 -90.210040 -1.000002 0.000000 0.000000 0.000000 1.000000 0.000000 0.000000 0.000000 -1.000002 44294.dat
0 STEP
1 0 -20.000000 -52.699920 -60.000000 0.000000 0.000000 1.000000 0.000000 1.000000 0.000000 -1.000000 0.000000 0.000000 3705.dat
1 72 -20.000020 -52.699920 -84.780170 1.000002 0.000000 0.000000 0.000000 -1.000000 0.000000 0.000000 0.000000 -1.000002 3648b.dat
1 71 -19.999840 -52.699920 -67.390000 1.000002 0.000000 0.000001 0.000000 1.000000 0.000000 -0.000001 0.000000 1.000002 3713.dat
1 71 -19.999960 -52.699920 -30.000000 1.000002 0.000000 0.000001 0.000000 1.000000 0.000000 -0.000001 0.000000 1.000002 3713.dat
0 STEP
1 0 -19.999790 -92.699950 -37.340000 0.000000 0.000000 -1.000000 0.000000 1.000000 0.000000 1.000000 0.000000 0.000000 2780.dat
0 STEP
1 4 -19.999790 -92.699950 -27.339990 0.000000 0.000000 -1.000000 0.000000 -1.000000 0.000000 -1.000000 0.000000 0.000000 32034.dat
0 STEP
0 STEP
