0 Untitled Model
0 Name:  沙袋
0 Author:  
0 CustomBrick
0 NumOfBricks:  39
1 15 49.998550 -9.999710 99.880120 0.000001 0.000001 -1.000000 -1.000000 0.000001 -0.000001 0.000001 1.000000 0.000001 64871.dat
0 STEP
1 0 49.998670 -9.999700 89.880000 0.000000 0.000000 -1.000000 0.000000 1.000000 0.000000 1.000000 0.000000 0.000000 2780.dat
1 19 89.998550 -9.999640 89.880000 0.000001 -1.000000 0.000001 0.000001 0.000001 1.000000 -1.000000 -0.000001 0.000001 3749.dat
1 1 9.998660 -9.999710 79.880000 1.000000 0.000000 0.000000 0.000000 0.000000 1.000000 0.000000 -1.000000 0.000000 32009.dat
0 STEP
1 0 9.998670 -110.000000 69.879940 0.000000 0.000000 1.000000 0.000000 1.000000 0.000000 -1.000000 0.000000 0.000000 2780.dat
1 0 9.998680 -149.999800 69.879940 0.000000 0.000000 1.000000 0.000000 1.000000 0.000000 -1.000000 0.000000 0.000000 2780.dat
1 15 10.000330 -209.999700 59.879680 1.000000 -0.000001 0.000001 0.000001 0.000001 -1.000000 0.000001 1.000000 0.000001 64290.dat
0 STEP
1 14 -89.999370 -9.999990 114.819900 0.000000 1.000000 0.000000 1.000000 0.000000 0.000000 0.000000 0.000000 -1.000000 32123a.dat
1 0 -89.999290 -9.999990 79.999940 0.000000 0.000000 1.000003 0.000000 1.000002 0.000000 -1.000000 0.000000 0.000000 3705.dat
1 4 -89.999980 -10.000010 30.000000 0.000000 -1.000000 0.000000 1.000000 0.000000 0.000000 0.000000 0.000000 1.000000 32034.dat
0 STEP
1 0 -89.997750 -10.000020 -20.000140 0.000000 0.000000 1.000007 0.000000 1.000006 0.000000 -1.000000 0.000000 0.000000 3705.dat
1 0 -89.999290 -10.000010 -120.000100 0.000000 0.000000 1.000003 0.000000 1.000002 0.000000 -1.000000 0.000000 0.000000 3705.dat
1 4 -89.999290 -10.000010 -70.000110 0.000000 -1.000003 0.000000 1.000002 0.000000 0.000000 0.000000 0.000000 1.000000 32034.dat
0 STEP
1 0 190.000700 -9.999680 80.359740 0.000000 0.000000 1.000000 0.000000 1.000006 0.000000 -1.000000 0.000000 0.000000 3705.dat
1 4 190.000700 -9.999690 30.359740 0.000000 -1.000000 0.000000 1.000006 0.000000 0.000000 0.000000 0.000000 1.000000 32034.dat
1 14 190.000700 -9.999670 115.329700 0.000000 1.000000 0.000000 1.000000 0.000000 0.000000 0.000000 0.000000 -1.000000 32123a.dat
0 STEP
1 0 190.000700 -9.999680 -19.640280 0.000000 0.000000 1.000000 0.000000 1.000006 0.000000 -1.000000 0.000000 0.000000 3705.dat
1 0 190.000700 -9.999700 -119.640500 0.000000 0.000000 1.000000 0.000000 1.000006 0.000000 -1.000000 0.000000 0.000000 3705.dat
1 4 190.000700 -9.999660 -69.639390 0.000000 -1.000000 0.000000 1.000000 0.000000 0.000000 0.000000 0.000000 1.000000 32034.dat
0 STEP
1 0 10.000590 -309.999900 -19.110250 0.000000 0.000000 1.000000 0.000000 1.000000 0.000000 -1.000000 0.000000 0.000000 3737.dat
1 14 10.000590 -309.999800 75.359740 0.000000 1.000000 0.000000 1.000000 0.000000 0.000000 0.000000 0.000000 -1.000000 32123a.dat
0 STEP
1 71 10.000650 -309.999900 -39.250280 1.000000 0.000000 0.000001 0.000000 1.000000 0.000000 -0.000001 0.000000 1.000000 3713.dat
1 71 10.000590 -309.999900 -0.250270 -1.000000 0.000000 -0.000001 0.000000 1.000000 0.000000 0.000001 0.000000 -1.000000 3713.dat
1 1 10.000590 -309.999900 -19.750270 0.000000 0.000000 -1.000000 -1.000000 0.000000 0.000000 0.000000 1.000000 0.000000 44809.dat
0 STEP
1 0 29.998570 -114.619800 -19.746170 1.000000 0.000000 0.000000 0.000000 0.000000 0.999995 0.000000 -0.999994 0.000000 44309.dat
1 71 30.000750 -114.619900 -19.750270 0.000000 -1.000000 0.000000 0.000000 0.000000 1.000003 -1.000003 0.000000 0.000000 56145.dat
1 0 30.000580 -217.949900 -19.750270 0.000000 0.000000 1.000000 1.000000 0.000000 0.000000 0.000000 1.000000 0.000000 3708.dat
1 71 30.000650 -327.319900 -19.750270 0.000000 -1.000000 0.000000 -0.000001 0.000000 1.000000 -1.000000 0.000000 -0.000001 3713.dat
1 71 30.000560 -107.949900 -19.750270 0.000000 -1.000000 0.000000 0.000001 0.000000 -1.000000 1.000000 0.000000 0.000001 3713.dat
0 STEP
1 0 10.000870 -109.999800 -109.130100 0.000000 0.000000 -1.000000 0.000000 1.000000 0.000000 1.000000 0.000000 0.000000 2780.dat
1 0 10.000750 -149.999800 -109.130200 0.000000 0.000000 -1.000000 0.000000 1.000000 0.000000 1.000000 0.000000 0.000000 2780.dat
1 15 10.000640 -209.999800 -99.130180 -1.000000 0.000001 -0.000001 0.000001 0.000001 -1.000000 -0.000001 -1.000000 -0.000001 64290.dat
1 14 10.000650 -309.999900 -114.110200 0.000000 1.000000 0.000000 1.000000 0.000000 0.000000 0.000000 0.000000 -1.000000 32123a.dat
0 STEP
1 19 90.000620 -9.999790 -129.130200 -0.000001 1.000000 -0.000001 0.000001 0.000001 1.000000 1.000000 0.000001 -0.000001 3749.dat
1 0 50.000620 -9.999780 -129.130200 0.000000 0.000000 -1.000000 0.000000 1.000000 0.000000 1.000000 0.000000 0.000000 2780.dat
1 1 10.000610 -9.999800 -119.130200 1.000000 0.000000 0.000000 0.000000 0.000000 1.000000 0.000000 -1.000000 0.000000 32009.dat
0 STEP
1 15 50.000620 -9.999840 -139.130200 0.000001 0.000001 -1.000000 -1.000000 0.000001 -0.000001 0.000001 1.000000 0.000001 64871.dat
1 14 190.000700 -9.999700 -154.640500 0.000000 1.000000 0.000000 1.000000 0.000000 0.000000 0.000000 0.000000 -1.000000 32123a.dat
1 14 -89.999290 -10.000010 -155.000100 0.000000 1.000000 0.000000 1.000000 0.000000 0.000000 0.000000 0.000000 -1.000000 32123a.dat
0 STEP
0 STEP
