0 Untitled Model
0 Name:  可折叠手机支架
0 Author:  
0 CustomBrick
0 NumOfBricks:  56
1 0 -136.999900 -63.332300 -38.460190 0.000000 0.000001 -1.000000 0.000000 -1.000000 -0.000001 -1.000000 0.000000 0.000000 2780.dat
1 19 143.000000 -63.331660 -38.459950 -0.000001 1.000000 0.000000 -0.000001 0.000000 -1.000000 -1.000000 -0.000001 0.000001 3749.dat
1 15 3.000130 -63.331930 -28.460070 -0.000002 -0.000001 1.000000 1.000000 -0.000001 0.000002 0.000001 1.000000 0.000001 64871.dat
0 STEP
1 19 83.000000 -63.331740 -18.459960 -0.000001 1.000000 -0.000002 0.000001 0.000002 1.000000 1.000000 0.000001 -0.000001 3749.dat
1 19 83.000000 -63.331740 -15.000000 1.000000 -0.000001 0.000001 0.000001 1.000000 0.000000 -0.000001 0.000000 1.000000 6589.dat
1 19 83.000000 -63.331720 -5.159970 1.000000 -0.000001 0.000001 0.000001 1.000000 0.000000 -0.000001 0.000000 1.000000 6589.dat
0 STEP
1 0 -76.999860 -63.332100 -18.460180 0.000000 0.000001 -1.000000 0.000000 -1.000000 -0.000001 -1.000000 0.000000 0.000000 2780.dat
1 0 -88.471370 -46.949100 -18.460170 0.000000 0.000001 -1.000000 0.000000 -1.000000 -0.000001 -1.000000 0.000000 0.000000 2780.dat
1 1 -39.322310 -12.534560 -8.460179 0.573577 -0.000001 -0.819153 -0.819153 -0.000001 -0.573576 0.000000 1.000000 -0.000001 32140.dat
0 STEP
1 0 3.000130 -63.331940 -18.460060 0.000000 0.000001 -1.000000 0.000000 -1.000000 -0.000001 -1.000000 0.000000 0.000000 2780.dat
1 15 -27.070240 -158.703700 -8.460250 -0.953717 0.000001 0.300703 0.300704 -0.000001 0.953717 0.000001 1.000000 0.000001 64290.dat
0 STEP
1 0 -55.705320 -24.006070 1.539820 0.000000 0.000001 -1.000000 0.000000 -1.000000 -0.000001 -1.000000 0.000000 0.000000 2780.dat
1 0 -21.056260 -139.629300 1.539810 0.000000 0.000001 -1.000000 0.000000 -1.000000 -0.000001 -1.000000 0.000000 0.000000 2780.dat
1 15 -38.363520 -81.445270 11.539820 0.957320 -0.000002 0.289030 0.289031 -0.000001 -0.957320 0.000002 1.000000 -0.000001 32524.dat
0 STEP
1 19 -38.363520 -81.445260 21.539820 -0.000001 1.000000 -0.000002 0.000001 0.000002 1.000000 1.000000 0.000001 -0.000001 3749.dat
1 19 -38.363520 -81.445230 31.539820 -0.000001 1.000000 0.000000 1.000000 0.000001 0.000000 0.000000 0.000000 -1.000000 32269.dat
0 STEP
1 0 -136.999900 -63.332300 -78.460140 0.000000 0.000001 -1.000000 0.000000 -1.000000 -0.000001 -1.000000 0.000000 0.000000 2780.dat
1 4 -136.999900 -63.332300 -58.460180 0.000000 0.000001 -1.000000 0.000000 -1.000000 -0.000001 -1.000000 0.000000 0.000000 62462.dat
0 STEP
1 0 -136.999900 -63.332300 -118.460300 0.000000 0.000001 -1.000000 0.000000 -1.000000 -0.000001 -1.000000 0.000000 0.000000 2780.dat
1 4 -136.999900 -63.332300 -98.460170 0.000000 0.000001 -1.000000 0.000000 -1.000000 -0.000001 -1.000000 0.000000 0.000000 62462.dat
0 STEP
1 4 143.000000 -63.331650 -78.459960 0.000000 0.000001 -1.000000 0.000000 -1.000000 -0.000001 -1.000000 0.000000 0.000000 32062.dat
1 71 143.000000 -63.328770 -58.459940 -1.000000 0.000001 -0.000001 -0.000001 -1.000000 0.000000 -0.000001 0.000000 1.000000 59443.dat
0 STEP
1 19 142.999900 -63.331650 -118.460000 0.000001 -1.000000 0.000002 -0.000001 -0.000002 -1.000000 1.000000 0.000001 -0.000001 3749.dat
1 71 143.000100 -63.328760 -98.459980 -1.000000 0.000001 -0.000001 -0.000001 -1.000000 0.000000 -0.000001 0.000000 1.000000 59443.dat
0 STEP
1 19 83.000100 -63.331780 -138.460000 0.000001 -1.000000 0.000000 0.000001 0.000000 1.000000 -1.000000 -0.000001 0.000001 3749.dat
1 15 3.000100 -63.331920 -128.460100 -0.000002 -0.000001 1.000000 1.000000 -0.000001 0.000002 0.000001 1.000000 0.000001 64871.dat
0 STEP
1 19 83.000080 -63.331740 -151.460000 -1.000000 -0.000001 -0.000001 -0.000001 1.000000 0.000000 0.000001 0.000000 -1.000000 6589.dat
1 19 83.000100 -63.331780 -141.460000 -1.000000 -0.000001 -0.000001 -0.000001 1.000000 0.000000 0.000001 0.000000 -1.000000 6589.dat
1 0 3.000100 -63.332000 -138.460100 0.000000 0.000001 -1.000000 0.000000 -1.000000 -0.000001 -1.000000 0.000000 0.000000 2780.dat
0 STEP
1 0 -57.140660 -254.075600 -28.450240 0.000000 0.000001 -1.000000 0.000000 -1.000000 -0.000001 -1.000000 0.000000 0.000000 3705.dat
1 0 -39.098520 -196.852300 -27.450360 0.000000 -0.000001 1.000000 0.000000 1.000000 0.000001 -1.000000 0.000000 0.000000 3705.dat
1 14 -57.140640 -254.075600 6.369710 1.000000 -0.000001 0.000000 0.000001 1.000000 0.000000 0.000000 0.000000 1.000000 32123a.dat
1 14 -39.098510 -196.852300 6.449660 -0.000001 1.000000 0.000000 1.000000 0.000001 0.000000 0.000000 0.000000 -1.000000 32123a.dat
0 STEP
1 71 -39.098520 -196.852300 -28.550330 1.000000 -0.000001 0.000001 0.000001 1.000000 0.000000 -0.000001 0.000000 1.000000 3713.dat
1 14 -57.140660 -254.075600 -43.340220 1.000000 -0.000001 0.000000 0.000001 1.000000 0.000000 0.000000 0.000000 1.000000 32123a.dat
1 71 -57.140660 -254.075600 -28.230260 -0.000001 -1.000000 0.000000 1.000000 -0.000001 0.000001 -0.000001 0.000000 1.000000 3713.dat
1 14 -39.098520 -196.852300 -43.450320 -0.000001 1.000000 0.000000 1.000000 0.000001 0.000000 0.000000 0.000000 -1.000000 32123a.dat
0 STEP
1 4 -57.140660 -254.075600 -78.450220 -0.000001 1.000000 0.000000 1.000000 0.000001 0.000000 0.000000 0.000000 -1.000000 32034.dat
1 4 -39.098540 -196.852400 -78.370000 -0.000001 -1.000000 0.000000 1.000000 -0.000001 0.000000 0.000000 0.000000 1.000000 32034.dat
0 STEP
1 0 -57.140670 -254.075500 -128.450200 0.000000 0.000001 -1.000000 0.000000 -1.000000 -0.000001 -1.000000 0.000000 0.000000 3705.dat
1 71 -57.140670 -254.075500 -127.970200 1.000000 0.000001 0.000001 0.000001 -1.000000 0.000000 0.000001 0.000000 -1.000000 3713.dat
1 14 -57.140660 -254.075600 -113.210200 -1.000000 -0.000001 0.000000 -0.000001 1.000000 0.000000 0.000000 0.000000 -1.000000 32123a.dat
0 STEP
1 0 -39.098540 -196.852400 -128.450100 0.000000 -0.000001 1.000000 0.000000 1.000000 0.000001 -1.000000 0.000000 0.000000 3705.dat
1 71 -39.098540 -196.852400 -128.480200 -1.000000 -0.000001 -0.000001 -0.000001 1.000000 0.000000 0.000001 0.000000 -1.000000 3713.dat
1 14 -39.098540 -196.852400 -113.550200 -0.000001 1.000000 0.000000 1.000000 0.000001 0.000000 0.000000 0.000000 -1.000000 32123a.dat
0 STEP
1 15 -27.070280 -158.703800 -148.460200 -0.953717 0.000001 0.300703 0.300704 -0.000001 0.953717 0.000002 1.000000 0.000001 64290.dat
1 14 -57.140680 -254.075500 -163.450200 -1.000000 -0.000001 0.000000 -0.000001 1.000000 0.000000 0.000000 0.000000 -1.000000 32123a.dat
1 14 -39.098550 -196.852400 -163.450100 -0.000001 1.000000 0.000000 1.000000 0.000001 0.000000 0.000000 0.000000 -1.000000 32123a.dat
0 STEP
1 1 -39.322040 -12.534620 -148.460100 0.573575 -0.000001 -0.819153 -0.819153 -0.000001 -0.573576 0.000000 1.000000 -0.000001 32140.dat
1 0 -88.471320 -46.949200 -138.460200 0.000000 0.000001 -1.000000 0.000000 -1.000000 -0.000001 -1.000000 0.000000 0.000000 2780.dat
1 0 -76.999900 -63.332140 -138.460200 0.000000 0.000001 -1.000000 0.000000 -1.000000 -0.000001 -1.000000 0.000000 0.000000 2780.dat
0 STEP
1 0 -21.056150 -139.629400 -158.460200 0.000000 -0.300705 -0.953717 0.000000 -0.953717 0.300705 -1.000000 0.000000 0.000000 2780.dat
1 0 -55.705150 -24.006150 -158.460200 0.000000 0.000001 -1.000000 0.000000 -1.000000 -0.000001 -1.000000 0.000000 0.000000 2780.dat
1 15 -38.363380 -81.445380 -168.460200 0.957321 -0.000002 0.289031 0.289031 -0.000001 -0.957321 0.000002 1.000000 -0.000001 32524.dat
0 STEP
1 19 -38.363290 -81.445380 -188.460300 -0.000001 1.000000 0.000000 1.000000 0.000001 0.000000 0.000000 0.000000 -1.000000 32269.dat
1 19 -38.363290 -81.445380 -178.460300 0.000001 -1.000000 0.000000 0.000001 0.000000 1.000000 -1.000000 -0.000001 0.000001 3749.dat
0 STEP
0 STEP
