0 Untitled Model
0 Name:  小绵羊
0 Author:  
0 CustomBrick
0 NumOfBricks:  34
1 15 -49.999980 -24.000000 -89.999820 0.000000 0.000000 -1.000000 0.000000 1.000000 0.000000 1.000000 0.000000 0.000000 3040b.dat
1 15 -50.000000 -24.000000 -69.999970 0.000000 0.000000 -1.000000 0.000000 1.000000 0.000000 1.000000 0.000000 0.000000 3040b.dat
0 STEP
1 1 -20.000000 -40.000000 -79.999970 -1.000000 0.000000 0.000000 0.000000 1.000000 0.000000 0.000000 0.000000 -1.000000 3709b.dat
1 1 -60.000000 -32.000000 -89.999970 1.000000 0.000000 0.000000 0.000000 1.000000 0.000000 0.000000 0.000000 1.000000 3710.dat
1 1 -60.000000 -32.000000 -69.999970 1.000000 0.000000 0.000000 0.000000 1.000000 0.000000 0.000000 0.000000 1.000000 3710.dat
0 STEP
1 15 10.000010 -32.000000 -80.000000 0.000000 0.000000 1.000000 0.000000 1.000000 0.000000 -1.000000 0.000000 0.000000 32064a.dat
0 STEP
1 1 -9.999990 -48.000000 -79.999970 0.000000 0.000000 1.000000 0.000000 1.000000 0.000000 -1.000000 0.000000 0.000000 3023.dat
1 1 10.000010 -48.000000 -80.000000 0.000000 0.000000 1.000000 0.000000 1.000000 0.000000 -1.000000 0.000000 0.000000 3023.dat
0 STEP
1 1 -50.000000 -48.000000 -59.999970 0.000000 0.000000 1.000000 0.000000 1.000000 0.000000 -1.000000 0.000000 0.000000 3023.dat
1 1 -50.000000 -48.000000 -100.000000 0.000000 0.000000 1.000000 0.000000 1.000000 0.000000 -1.000000 0.000000 0.000000 3023.dat
1 1 -30.000000 -48.000000 -60.000000 0.000000 0.000000 1.000000 0.000000 1.000000 0.000000 -1.000000 0.000000 0.000000 3023.dat
1 1 -30.000000 -48.000000 -100.000000 0.000000 0.000000 1.000000 0.000000 1.000000 0.000000 -1.000000 0.000000 0.000000 3023.dat
1 15 -40.000000 -40.000000 -110.000000 1.000000 0.000000 0.000000 0.000000 1.000000 0.000000 0.000000 0.000000 1.000000 32064a.dat
1 15 -40.000000 -40.000000 -50.000000 1.000000 0.000000 0.000000 0.000000 1.000000 0.000000 0.000000 0.000000 1.000000 32064a.dat
0 STEP
1 1 0.000010 -56.000000 -70.000000 1.000000 0.000000 0.000000 0.000000 1.000000 0.000000 0.000000 0.000000 1.000000 3023.dat
1 1 0.000010 -56.000000 -89.999970 1.000000 0.000000 0.000000 0.000000 1.000000 0.000000 0.000000 0.000000 1.000000 3023.dat
0 STEP
1 1 40.000000 -8.000000 -70.000000 1.000000 0.000000 0.000000 0.000000 1.000000 0.000000 0.000000 0.000000 1.000000 3710.dat
1 1 40.000000 -8.000000 -90.000000 1.000000 0.000000 0.000000 0.000000 1.000000 0.000000 0.000000 0.000000 1.000000 3710.dat
0 STEP
1 15 30.000000 -32.000000 -80.000000 0.000000 0.000000 1.000000 0.000000 1.000000 0.000000 -1.000000 0.000000 0.000000 32064a.dat
0 STEP
1 1 10.000010 -80.000000 -79.999970 0.000000 0.000000 1.000000 0.000000 1.000000 0.000000 -1.000000 0.000000 0.000000 3700.dat
0 STEP
1 1 30.000000 -80.000000 -59.999970 0.000000 0.000000 1.000000 0.000000 1.000000 0.000000 -1.000000 0.000000 0.000000 3700.dat
1 1 30.000000 -80.000000 -100.000000 0.000000 0.000000 1.000000 0.000000 1.000000 0.000000 -1.000000 0.000000 0.000000 3700.dat
1 15 10.000010 -104.000000 -89.999970 0.000000 0.000000 -1.000000 0.000000 1.000000 0.000000 1.000000 0.000000 0.000000 3040b.dat
1 15 10.000010 -104.000000 -69.999970 0.000000 0.000000 -1.000000 0.000000 1.000000 0.000000 1.000000 0.000000 0.000000 3040b.dat
0 STEP
1 15 60.000000 -32.000000 -80.000000 1.000000 0.000000 0.000000 0.000000 1.000000 0.000000 0.000000 0.000000 1.000000 3941.dat
1 19 60.000020 -32.000000 -79.999970 -0.000001 1.000000 -0.000001 1.000000 0.000001 -0.000001 -0.000001 -0.000001 -1.000000 3749.dat
0 STEP
1 4 60.000050 -42.000000 -79.999940 0.000000 1.000000 0.000000 -1.000000 0.000000 0.000000 0.000000 0.000000 1.000000 32034.dat
0 STEP
1 19 40.000000 -69.999980 -59.999940 1.000000 0.000001 -0.000001 0.000001 0.000001 1.000000 0.000001 -1.000000 0.000001 3749.dat
1 19 40.000000 -69.999980 -100.000000 1.000000 0.000001 -0.000001 0.000001 0.000001 1.000000 0.000001 -1.000000 0.000001 3749.dat
0 STEP
1 15 -50.000000 -56.000000 -80.000000 0.000000 0.000000 1.000000 0.000000 1.000000 0.000000 -1.000000 0.000000 0.000000 2431.dat
1 15 -29.999990 -56.000000 -80.000000 0.000000 0.000000 1.000000 0.000000 1.000000 0.000000 -1.000000 0.000000 0.000000 2431.dat
0 STEP
1 15 -80.000000 -56.000000 -79.999970 1.000000 0.000000 0.000000 0.000000 1.000000 0.000000 0.000000 0.000000 1.000000 3941.dat
1 19 -79.999980 -56.000000 -79.999940 -0.000001 1.000000 -0.000001 1.000000 0.000001 -0.000001 -0.000001 -0.000001 -1.000000 3749.dat
0 STEP
1 4 -79.999950 -66.000000 -79.999910 0.000000 1.000000 0.000000 -1.000000 0.000000 0.000000 0.000000 0.000000 1.000000 32034.dat
0 STEP
0 STEP
