0 FILE 独轮手推车.io
0 Untitled Model
0 Name:  独轮手推车
0 Author:  
0 CustomBrick
0 NumOfBricks:  43
1 15 -1.000200 -68.999800 -57.000340 0.000001 0.000001 -1.000000 -1.000000 0.000001 -0.000001 0.000001 1.000000 0.000001 32524.dat
1 14 58.999790 -68.999760 -41.470300 1.000000 0.000000 0.000000 0.000000 -1.000000 0.000000 0.000000 0.000000 -1.000000 32123a.dat
1 0 58.999790 -68.999760 -17.000340 0.000000 0.000000 1.000000 0.000000 1.000000 0.000000 -1.000000 0.000000 0.000000 3706.dat
0 STEP
1 71 58.999790 -68.999760 -27.000320 0.000000 -1.000000 0.000000 -1.000000 0.000000 -0.000001 0.000001 0.000000 -1.000000 3713.dat
1 14 58.999790 -68.999760 -72.410300 1.000000 0.000000 0.000000 0.000000 -1.000000 0.000000 0.000000 0.000000 -1.000000 32123a.dat
0 STEP
1 1 -101.000200 -68.999900 -37.000330 0.000001 0.000001 1.000000 -1.000000 0.000001 0.000001 -0.000001 -1.000000 0.000001 32526.dat
1 0 -61.000200 -68.999860 -47.000210 0.000000 0.000000 -1.000000 0.000000 1.000000 0.000000 1.000000 0.000000 0.000000 2780.dat
1 0 -21.000190 -68.999820 -47.000200 0.000000 0.000000 -1.000000 0.000000 1.000000 0.000000 1.000000 0.000000 0.000000 2780.dat
0 STEP
1 1 -101.000200 -68.999880 -17.000100 0.000001 0.000001 1.000000 -1.000000 0.000001 0.000001 -0.000001 -1.000000 0.000001 32526.dat
1 1 -21.000070 -108.999800 -17.000240 0.000000 0.000000 -1.000000 0.000000 1.000000 0.000000 1.000000 0.000000 0.000000 6558.dat
1 1 -41.000320 -68.999860 -16.999980 0.000000 0.000000 -1.000000 0.000000 1.000000 0.000000 1.000000 0.000000 0.000000 6558.dat
0 STEP
1 0 59.002100 -69.002290 -16.150310 -1.000000 0.000000 0.000000 0.000000 0.999994 0.000000 0.000000 0.000000 -0.999994 44309.dat
1 71 58.999660 -68.999760 -16.150430 0.000000 1.000000 0.000000 1.000000 0.000000 0.000000 0.000000 0.000000 -1.000000 56145.dat
1 14 58.999920 -68.999760 8.279670 0.000000 1.000000 0.000000 1.000000 0.000000 0.000000 0.000000 0.000000 -1.000000 32123a.dat
0 STEP
1 1 -101.000200 -68.999940 2.999760 0.000001 0.000001 1.000000 -1.000000 0.000001 0.000001 -0.000001 -1.000000 0.000001 32526.dat
1 0 -61.000200 -68.999880 12.999880 0.000000 0.000000 -1.000000 0.000000 1.000000 0.000000 1.000000 0.000000 0.000000 2780.dat
1 0 -21.000190 -68.999820 12.999880 0.000000 0.000000 -1.000000 0.000000 1.000000 0.000000 1.000000 0.000000 0.000000 2780.dat
0 STEP
1 15 -1.000200 -68.999820 23.309700 0.000001 0.000001 -1.000000 -1.000000 0.000001 -0.000001 0.000001 1.000000 0.000001 32524.dat
1 14 58.999800 -68.999780 37.799700 1.000000 0.000000 0.000000 0.000000 1.000000 0.000000 0.000000 0.000000 1.000000 32123a.dat
0 STEP
1 0 -101.000200 -68.999920 12.999760 0.000000 0.000000 -1.000000 0.000000 1.000000 0.000000 1.000000 0.000000 0.000000 2780.dat
1 0 -81.000220 -68.999900 12.999760 0.000000 0.000000 -1.000000 0.000000 1.000000 0.000000 1.000000 0.000000 0.000000 2780.dat
1 15 -221.000200 -69.000030 23.000010 0.000001 0.000001 -1.000000 -1.000000 0.000001 -0.000001 0.000001 1.000000 0.000001 64871.dat
0 STEP
1 16 -161.000500 -58.999880 -17.001230 1.000000 0.000000 0.000000 0.000000 1.000000 0.000000 0.000000 0.000000 1.000000 submodel group 1
0 STEP
1 15 -221.000200 -69.000020 -57.000220 0.000001 0.000001 -1.000000 -1.000000 0.000001 -0.000001 0.000001 1.000000 0.000001 64871.dat
1 0 -101.000200 -68.999900 -47.000340 0.000000 0.000000 -1.000000 0.000000 1.000000 0.000000 1.000000 0.000000 0.000000 2780.dat
1 0 -81.000220 -68.999880 -47.000340 0.000000 0.000000 -1.000000 0.000000 1.000000 0.000000 1.000000 0.000000 0.000000 2780.dat
0 STEP
1 1 -241.000200 -9.000070 43.000110 1.000000 -0.000001 -0.000001 -0.000001 -0.000001 -1.000000 0.000001 1.000000 -0.000001 32140.dat
1 0 -241.000300 -69.000060 33.000010 0.000000 0.000000 -1.000000 0.000000 1.000000 0.000000 1.000000 0.000000 0.000000 2780.dat
1 0 -221.000200 -69.000040 33.000010 0.000000 0.000000 -1.000000 0.000000 1.000000 0.000000 1.000000 0.000000 0.000000 2780.dat
0 STEP
1 1 -241.000000 -9.000020 -77.000000 1.000000 -0.000001 -0.000001 -0.000001 -0.000001 -1.000000 0.000001 1.000000 -0.000001 32140.dat
1 0 -241.000200 -69.000020 -67.000100 0.000000 0.000000 -1.000000 0.000000 1.000000 0.000000 1.000000 0.000000 0.000000 2780.dat
1 0 -221.000000 -69.000000 -67.000100 0.000000 0.000000 -1.000000 0.000000 1.000000 0.000000 1.000000 0.000000 0.000000 2780.dat
0 STEP
0 STEP
0 NOFILE
0 FILE SubModel Group 1
0 SubModel Group 1
0 Name:  SubModel Group 1
0 Author:  
0 CustomBrick
0 NumOfBricks:  12
1 71 -0.000350 -50.000020 0.001110 0.000001 0.000000 -1.000000 0.000000 1.000000 0.000000 1.000000 0.000000 0.000001 3713.dat
1 71 -0.000350 -50.000020 0.000990 -1.000000 0.000000 0.000000 0.000000 0.000000 1.000000 0.000000 1.000000 0.000000 4519.dat
0 STEP
1 19 -39.999960 -20.000060 -0.003160 -0.000001 -0.000001 -1.000000 -1.000000 -0.000001 0.000001 -0.000001 1.000000 -0.000001 3749.dat
1 0 -39.999960 -50.000070 -0.003160 0.000000 -1.000000 0.000000 0.000000 0.000000 -1.000000 1.000000 0.000000 0.000000 32014.dat
0 STEP
1 0 39.999610 -50.000020 0.000990 0.000000 1.000000 0.000000 0.000000 0.000000 -1.000000 -1.000000 0.000000 0.000000 32014.dat
1 19 39.999610 -20.000020 0.001000 -0.000001 -0.000001 -1.000000 -1.000000 -0.000001 0.000001 -0.000001 1.000000 -0.000001 3749.dat
0 STEP
1 19 -39.999530 -10.000100 30.001300 0.000001 -1.000000 0.000001 0.000001 0.000001 1.000000 -1.000000 -0.000001 0.000001 3749.dat
1 19 -39.999530 -10.000100 -29.998760 -0.000001 1.000000 -0.000001 0.000001 0.000001 1.000000 1.000000 0.000001 -0.000001 3749.dat
1 4 -39.999960 -10.000050 -0.003160 0.000000 -1.000000 0.000000 -1.000000 0.000000 0.000000 0.000000 0.000000 -1.000000 32034.dat
0 STEP
1 4 39.999700 -10.000020 0.001000 0.000000 1.000000 0.000000 1.000000 0.000000 0.000000 0.000000 0.000000 -1.000000 32034.dat
1 19 40.000440 -10.000020 30.000990 0.000001 -1.000000 0.000001 0.000001 0.000001 1.000000 -1.000000 -0.000001 0.000001 3749.dat
1 19 40.000320 -10.000020 -29.999100 -0.000001 1.000000 -0.000001 0.000001 0.000001 1.000000 1.000000 0.000001 -0.000001 3749.dat
0 STEP
0 NOFILE
