0 Untitled Model
0 Name:  手动除草机
0 Author:  
0 CustomBrick
0 NumOfBricks:  57
1 15 -140.000100 -142.909800 -161.440100 0.000001 0.000001 -1.000000 -1.000000 0.000001 -0.000001 0.000001 1.000000 0.000001 64871.dat
0 STEP
1 1 -279.999900 -142.909900 -141.439600 0.000000 0.000000 -1.000000 0.000000 1.000000 0.000000 1.000000 0.000000 0.000000 6558.dat
1 1 -239.999800 -142.909900 -141.439500 0.000000 0.000000 -1.000000 0.000000 1.000000 0.000000 1.000000 0.000000 0.000000 6558.dat
1 15 -259.999900 -142.909900 -141.439600 0.000001 0.000001 -1.000000 -1.000000 0.000001 -0.000001 0.000001 1.000000 0.000001 32523.dat
0 STEP
1 1 -180.000000 -142.909800 -141.439700 0.000000 0.000000 1.000000 0.000000 1.000000 0.000000 -1.000000 0.000000 0.000000 6558.dat
1 1 -139.999900 -142.909800 -141.439700 0.000000 0.000000 1.000000 0.000000 1.000000 0.000000 -1.000000 0.000000 0.000000 6558.dat
1 15 -159.999900 -142.909800 -141.439700 0.000001 0.000001 -1.000000 -1.000000 0.000001 -0.000001 0.000001 1.000000 0.000001 32523.dat
0 STEP
1 15 -139.999900 -142.909800 -121.439700 0.000001 0.000001 -1.000000 -1.000000 0.000001 -0.000001 0.000001 1.000000 0.000001 64871.dat
0 STEP
1 0 -39.999970 -142.909600 -111.439700 0.000000 0.000000 -1.000000 0.000000 1.000000 0.000000 1.000000 0.000000 0.000000 2780.dat
1 0 -0.000070 -142.909600 -111.439700 0.000000 0.000000 -1.000000 0.000000 1.000000 0.000000 1.000000 0.000000 0.000000 2780.dat
1 0 -0.000070 -142.909500 -171.439900 0.000000 0.000000 -1.000000 0.000000 1.000000 0.000000 1.000000 0.000000 0.000000 2780.dat
1 0 -39.999970 -142.909600 -171.439900 0.000000 0.000000 -1.000000 0.000000 1.000000 0.000000 1.000000 0.000000 0.000000 2780.dat
0 STEP
1 15 99.999980 -142.909500 -181.849900 0.000001 0.000001 -1.000000 -1.000000 0.000001 -0.000001 0.000001 1.000000 0.000001 64871.dat
1 15 100.000000 -142.909500 -101.439900 0.000001 0.000001 -1.000000 -1.000000 0.000001 -0.000001 0.000001 1.000000 0.000001 64871.dat
0 STEP
1 72 99.999980 -142.909500 -141.700000 1.000000 0.000000 0.000000 0.000000 1.000000 0.000000 0.000000 0.000000 1.000000 3648b.dat
1 72 99.999920 -142.909500 -161.539900 0.000000 -1.000000 0.000000 -1.000000 0.000000 0.000000 0.000000 0.000000 -1.000000 3647.dat
1 71 99.999980 -142.909500 -122.399800 1.000000 0.000000 0.000001 0.000000 1.000000 0.000000 -0.000001 0.000000 1.000000 3713.dat
1 71 99.999920 -142.909500 -142.880000 0.000000 0.000000 1.000000 0.000000 1.000000 0.000000 -1.000000 0.000000 0.000000 32073.dat
0 STEP
1 72 160.000000 -142.909400 -141.000000 0.819153 0.573575 0.000000 0.573575 -0.819153 0.000000 0.000000 0.000000 -1.000000 3648b.dat
1 71 160.000000 -142.909500 -160.400000 0.819153 -0.573575 0.000000 0.573575 0.819153 0.000000 0.000000 0.000000 1.000000 3713.dat
1 71 160.000000 -142.909500 -121.500000 0.819153 -0.573575 0.000001 0.573575 0.819153 0.000000 -0.000001 0.000000 1.000000 3713.dat
1 71 160.000000 -142.909500 -142.520000 0.000000 -0.573575 0.819153 0.000000 0.819153 0.573575 -1.000000 0.000000 0.000000 32073.dat
0 STEP
1 72 200.000000 -142.909500 -139.180000 0.000000 -1.000000 0.000000 -1.000000 0.000000 0.000000 0.000000 0.000000 -1.000000 3647.dat
1 71 199.999900 -142.909500 -80.439990 1.000000 0.000000 0.000001 0.000000 1.000000 0.000000 -0.000001 0.000000 1.000000 3713.dat
1 71 200.000000 -142.909500 -120.030000 1.000000 0.000000 0.000001 0.000000 1.000000 0.000000 -0.000001 0.000000 1.000000 3713.dat
1 71 199.999900 -142.909500 -160.010100 1.000000 0.000000 0.000001 0.000000 1.000000 0.000000 -0.000001 0.000000 1.000000 3713.dat
1 71 200.000000 -142.909500 -60.260140 1.000000 0.000000 0.000001 0.000000 1.000000 0.000000 -0.000001 0.000000 1.000000 3713.dat
1 0 199.999900 -142.909500 -113.250000 0.000000 0.000000 1.000000 0.000000 1.000000 0.000000 -1.000000 0.000000 0.000000 3707.dat
0 STEP
1 19 240.000100 -142.909300 -111.440000 0.000001 -1.000000 0.000001 0.000001 0.000001 1.000000 -1.000000 -0.000001 0.000001 3749.dat
1 4 240.000100 -142.909300 -141.440100 -1.000000 0.000000 0.000000 0.000000 -1.000000 0.000000 0.000000 0.000000 1.000000 32034.dat
0 STEP
1 71 199.999900 -142.909500 -39.720220 1.000000 0.000000 0.000000 0.000000 -1.000000 0.000000 0.000000 0.000000 -1.000000 3649.dat
0 STEP
1 0 209.999900 -172.909500 -29.720220 0.000000 0.000000 -1.000000 0.000000 1.000000 0.000000 1.000000 0.000000 0.000000 2780.dat
1 0 169.999900 -152.909500 -29.720220 0.000000 0.000000 -1.000000 0.000000 1.000000 0.000000 1.000000 0.000000 0.000000 2780.dat
1 0 189.999900 -112.909400 -29.720220 0.000000 0.000000 -1.000000 0.000000 1.000000 0.000000 1.000000 0.000000 0.000000 2780.dat
1 0 229.999900 -132.909500 -29.720220 0.000000 0.000000 -1.000000 0.000000 1.000000 0.000000 1.000000 0.000000 0.000000 2780.dat
1 19 229.999900 -152.909400 -29.720220 -0.000001 1.000000 -0.000001 0.000001 0.000001 1.000000 1.000000 0.000001 -0.000001 3749.dat
1 19 209.999900 -112.909400 -29.720220 -0.000001 1.000000 -0.000001 0.000001 0.000001 1.000000 1.000000 0.000001 -0.000001 3749.dat
1 19 189.999900 -172.909400 -29.720220 -0.000001 1.000000 -0.000001 0.000001 0.000001 1.000000 1.000000 0.000001 -0.000001 3749.dat
1 19 169.999900 -132.909400 -29.720220 -0.000001 1.000000 -0.000001 0.000001 0.000001 1.000000 1.000000 0.000001 -0.000001 3749.dat
0 STEP
1 1 170.000000 -132.909400 -19.720220 1.000000 -0.000001 -0.000001 -0.000001 -0.000001 -1.000000 0.000001 1.000000 -0.000001 32271.dat
1 1 229.999900 -152.909500 -19.720220 -1.000000 0.000000 0.000000 0.000000 0.000001 1.000000 0.000000 1.000000 -0.000002 32271.dat
1 1 209.999900 -112.909500 -19.720220 -0.000001 -0.000001 -1.000000 -1.000000 0.000001 0.000001 0.000001 1.000000 -0.000001 32271.dat
1 1 189.999900 -172.909400 -19.720220 0.000001 0.000001 1.000000 1.000000 -0.000001 -0.000001 0.000001 1.000000 -0.000001 32271.dat
0 STEP
1 71 59.999820 -142.909700 -141.515000 0.000000 -0.573576 0.819153 0.000000 0.819153 0.573576 -1.000000 0.000000 0.000000 44294.dat
1 72 59.999820 -142.909700 -156.724900 0.819153 -0.573576 0.000000 0.573576 0.819153 0.000000 0.000000 0.000000 1.000000 3648b.dat
1 71 59.999920 -142.909700 -81.439940 0.819153 -0.573576 0.000001 0.573576 0.819153 0.000000 -0.000001 0.000000 1.000000 3713.dat
0 STEP
1 19 82.942860 -175.675800 -212.994800 -0.000001 0.819153 -0.573576 0.000001 0.573576 0.819153 1.000000 0.000000 -0.000001 3749.dat
1 1 71.471320 -159.292800 -202.994800 0.000000 0.573576 -0.819153 0.000000 -0.819153 -0.573576 -1.000000 0.000000 0.000000 32184.dat
0 STEP
1 4 82.942860 -175.675800 -232.994800 0.000000 0.000000 1.000000 0.000000 1.000000 0.000000 -1.000000 0.000000 0.000000 62462.dat
0 STEP
1 0 -99.999820 -142.909700 -111.439800 0.000000 0.000000 -1.000000 0.000000 1.000000 0.000000 1.000000 0.000000 0.000000 2780.dat
1 4 -99.999820 -142.909700 -101.439800 0.000000 0.000000 -1.000000 0.000000 -1.000000 0.000000 -1.000000 0.000000 0.000000 32034.dat
0 STEP
1 0 -100.000000 -142.909700 -171.440100 0.000000 0.000000 -1.000000 0.000000 1.000000 0.000000 1.000000 0.000000 0.000000 2780.dat
1 4 -100.000000 -142.909700 -181.440200 0.000000 0.000000 -1.000000 0.000000 -1.000000 0.000000 -1.000000 0.000000 0.000000 32034.dat
0 STEP
1 0 -259.999800 -142.909900 -111.439600 0.000000 0.000000 -1.000000 0.000000 1.000000 0.000000 1.000000 0.000000 0.000000 2780.dat
1 0 -260.000000 -142.909900 -171.439900 0.000000 0.000000 -1.000000 0.000000 1.000000 0.000000 1.000000 0.000000 0.000000 2780.dat
0 STEP
1 71 -279.999800 -142.909800 -101.439600 0.000001 -0.000001 1.000000 1.000000 0.000001 -0.000001 -0.000001 1.000000 0.000001 60483.dat
1 71 -240.000000 -142.909900 -181.439900 -0.000001 0.000001 -1.000000 -1.000000 -0.000001 0.000001 -0.000001 1.000000 0.000001 60483.dat
0 STEP
0 STEP
