0 FILE 发射器.io
0 Untitled Model
0 Name:  发射器
0 Author:  
0 CustomBrick
0 NumOfBricks:  83
1 16 -91.012320 -8.039800 -69.481850 1.000001 0.000000 0.000000 0.000000 1.000000 0.000000 0.000000 0.000000 1.000001 submodel group 9 copy copy copy
1 0 80.000650 -38.000340 -99.999900 1.000001 0.000000 0.000001 -0.000002 0.000000 1.000000 0.000000 -1.000002 0.000000 2780.dat
1 0 -140.000100 -38.000020 -59.999840 1.000004 0.000000 0.000001 -0.000001 0.000000 1.000000 0.000000 -1.000003 0.000000 2780.dat
1 0 -140.000100 -38.000020 -100.000100 1.000004 0.000000 0.000001 -0.000001 0.000000 1.000000 0.000000 -1.000003 0.000000 2780.dat
1 0 80.000640 -38.000340 -60.000000 1.000004 0.000000 0.000001 -0.000001 0.000000 1.000000 0.000000 -1.000003 0.000000 2780.dat
0 STEP
1 1 90.000670 -48.000360 -79.999850 0.000000 0.000001 1.000002 0.000000 1.000000 -0.000001 -1.000002 0.000000 0.000000 3702.dat
1 1 -150.000100 -48.000000 -80.000000 0.000001 0.000001 1.000004 0.000000 1.000000 -0.000001 -1.000003 0.000000 0.000001 3702.dat
0 STEP
1 1 90.000560 -24.000340 -79.999660 0.000000 0.000001 1.000000 0.000000 1.000000 -0.000001 -1.000000 0.000000 0.000000 3703.dat
1 1 -150.000100 -24.000000 -80.000000 0.000000 0.000001 1.000002 0.000000 1.000000 -0.000001 -1.000002 0.000000 0.000000 3703.dat
0 STEP
1 0 -130.000200 -98.000070 -110.000200 0.000000 -1.000004 0.000001 0.000000 0.000001 1.000000 -1.000003 0.000000 0.000000 2780.dat
1 0 -130.000200 -98.000070 -50.000020 0.000000 -1.000004 0.000001 0.000000 0.000001 1.000000 -1.000003 0.000000 0.000000 2780.dat
1 19 -130.000200 -78.000060 -110.000200 0.000001 -1.000004 0.000002 0.000001 0.000002 1.000001 -1.000003 -0.000001 0.000001 3749.dat
1 19 -130.000200 -78.000060 -50.000020 -0.000001 1.000004 0.000000 0.000001 0.000000 1.000001 1.000003 0.000001 -0.000001 3749.dat
0 STEP
1 1 -130.000200 -78.000060 -39.999970 -1.000004 0.000001 0.000000 0.000000 -0.000001 -1.000000 -0.000001 -1.000003 0.000001 32271.dat
1 1 -130.000200 -78.000060 -120.000100 -1.000004 0.000001 0.000000 0.000000 -0.000001 -1.000000 -0.000001 -1.000003 0.000001 32271.dat
0 STEP
1 72 -130.000100 -138.000400 -20.039690 -0.925215 0.379455 0.000000 -0.379453 -0.925212 0.000000 0.000000 0.000000 1.000003 3647.dat
1 14 -130.000100 -138.000100 -4.769780 -0.379454 0.925215 0.000000 0.925212 0.379453 0.000000 0.000000 0.000000 -1.000003 32123a.dat
1 71 -130.000100 -138.000100 -89.770020 0.000000 -0.379454 0.925215 0.000000 0.925212 0.379453 -1.000003 0.000000 0.000000 60485.dat
0 STEP
1 1 -210.000300 -138.000000 -140.470200 0.000002 0.000001 1.000004 1.000000 -0.000001 -0.000002 0.000001 1.000003 -0.000001 32526.dat
1 0 -130.000200 -118.000000 -130.000100 0.000000 0.000001 -1.000004 0.000000 1.000000 0.000001 1.000003 0.000000 0.000000 2780.dat
0 STEP
1 0 -170.000300 -138.000000 -130.470100 0.000000 0.000001 -1.000004 0.000000 1.000000 0.000001 1.000003 0.000000 0.000000 2780.dat
1 71 -190.000300 -138.000000 -140.470200 0.000000 -1.000004 0.000001 0.000000 0.000001 1.000000 -1.000003 0.000000 0.000000 4519.dat
1 71 -190.000200 -138.000000 -130.470100 -0.000001 1.000004 0.000000 -1.000000 -0.000001 0.000000 0.000000 0.000000 1.000003 58120.dat
1 0 -210.000300 -138.000000 -130.470100 0.000000 0.000001 -1.000004 0.000000 1.000000 0.000001 1.000003 0.000000 0.000000 2780.dat
0 STEP
1 72 -189.999900 -138.000000 -160.470200 -0.000001 -1.000004 0.000000 -1.000000 0.000001 0.000000 0.000000 0.000000 -1.000003 3647.dat
1 71 -130.000100 -138.000100 -159.520300 0.925215 0.379454 0.000000 0.379453 -0.925212 0.000000 0.000000 0.000000 -1.000003 3649.dat
1 14 -130.000200 -138.000100 -174.770800 0.925215 -0.379454 0.000000 0.379453 0.925212 0.000000 0.000000 0.000000 1.000003 32123a.dat
0 STEP
1 0 -146.000300 -210.000000 -49.999750 0.000000 0.000001 -1.000004 0.000000 1.000000 0.000001 1.000003 0.000000 0.000000 2780.dat
1 0 -146.000300 -210.000100 -110.000200 0.000000 0.000001 -1.000004 0.000000 1.000000 0.000001 1.000003 0.000000 0.000000 2780.dat
0 STEP
1 1 -200.856200 -269.083400 -100.000100 0.766051 -0.642786 0.000000 0.642785 0.766047 0.000000 0.000000 0.000000 1.000003 3895.dat
1 1 -200.856300 -269.083300 -59.999780 0.766051 -0.642786 0.000000 0.642785 0.766047 0.000000 0.000000 0.000000 1.000003 3895.dat
0 STEP
1 0 -130.000300 -198.000100 -69.559800 0.000000 0.000001 1.000004 0.000000 1.000000 -0.000001 -1.000003 0.000000 0.000000 3707.dat
1 71 -130.000200 -198.000100 -140.150100 1.000004 0.000001 0.000001 -0.000001 1.000000 0.000000 -0.000001 0.000000 1.000003 3713.dat
1 4 -110.000100 -198.000200 -79.879880 0.000000 1.000004 0.000001 0.000000 -0.000001 1.000000 1.000003 0.000000 0.000000 42003.dat
0 STEP
1 71 -130.000200 -198.000100 0.440300 1.000004 0.000001 0.000001 -0.000001 1.000000 0.000000 -0.000001 0.000000 1.000003 3713.dat
1 71 -130.000200 -198.000100 -19.639810 -0.000001 -1.000004 0.000000 -1.000001 0.000001 0.000000 0.000000 0.000000 -1.000003 3649.dat
0 STEP
1 71 -191.963300 -248.567000 -39.759650 1.000004 0.000001 0.000001 -0.000001 1.000000 0.000000 -0.000001 0.000000 1.000003 3713.dat
1 1 -140.220200 -309.580700 -79.969790 0.762673 -0.000001 -0.646789 0.646788 0.000001 0.762670 0.000000 -1.000003 0.000001 32526.dat
1 71 -191.963200 -248.567000 -119.799800 1.000004 0.000001 0.000001 -0.000001 1.000000 0.000000 -0.000001 0.000000 1.000003 3713.dat
1 71 -191.963300 -248.567000 -79.799670 0.000000 0.000001 1.000004 0.000000 1.000000 -0.000001 -1.000003 0.000000 0.000000 32073.dat
0 STEP
1 0 -207.284100 -261.422900 -110.000200 0.000000 0.000001 -1.000004 0.000000 1.000000 0.000001 1.000003 0.000000 0.000000 2780.dat
1 14 -179.642600 -301.333800 -111.885000 -0.752424 -0.000001 -0.658697 -0.658692 0.000000 0.752415 0.000000 1.000007 0.000000 12344.dat
1 0 -237.926000 -287.134300 -110.000100 -0.000001 0.000000 -1.000004 0.000000 1.000000 0.000000 1.000003 0.000000 -0.000001 2780.dat
0 STEP
1 0 -207.284100 -261.422900 -49.999750 0.000000 0.000001 -1.000004 0.000000 1.000000 0.000001 1.000003 0.000000 0.000000 2780.dat
1 14 -179.642600 -301.333700 -30.885570 -0.752417 0.000000 -0.658692 -0.658690 0.000000 0.752414 0.000000 1.000003 0.000000 12344.dat
1 0 -237.926400 -287.134300 -49.999810 0.000000 0.000001 -1.000004 0.000000 1.000000 0.000001 1.000003 0.000000 0.000000 2780.dat
0 STEP
1 0 -161.000500 -298.918200 -39.999970 0.754714 0.656060 0.000000 0.656058 -0.754711 0.000000 0.000000 0.000000 -1.000003 2780.dat
1 0 -187.000500 -268.463700 -39.999950 0.754714 0.656060 0.000000 0.656058 -0.754711 0.000000 0.000000 0.000000 -1.000003 2780.dat
1 0 -161.000500 -298.918100 -120.999700 0.754721 0.656065 0.000001 0.656060 -0.754710 0.000000 0.000000 0.000000 -1.000007 2780.dat
1 0 -187.000600 -268.463800 -120.999500 0.754721 0.656065 0.000001 0.656060 -0.754710 0.000000 0.000000 0.000000 -1.000007 2780.dat
0 STEP
1 15 -87.847620 -367.828800 -120.999800 0.000000 0.754716 0.656058 0.000001 0.656056 -0.754713 -1.000003 0.000000 -0.000001 64871.dat
1 15 -87.847690 -367.828800 -39.999970 0.000000 0.754716 0.656058 0.000001 0.656056 -0.754713 -1.000003 0.000001 -0.000001 64871.dat
0 STEP
1 71 -181.220500 -290.580600 -140.080100 1.000004 0.000001 0.000001 -0.000001 1.000000 0.000000 -0.000001 0.000000 1.000003 3713.dat
1 71 -181.220500 -290.580600 -20.079760 1.000004 0.000001 0.000001 -0.000001 1.000000 0.000000 -0.000001 0.000000 1.000003 3713.dat
1 71 -181.220500 -290.580600 -80.079880 0.000000 0.000001 1.000004 0.000000 1.000000 -0.000001 -1.000003 0.000000 0.000000 44294.dat
0 STEP
1 1 -246.713300 -338.891200 -59.999760 0.766050 -0.642786 0.000000 0.642785 0.766047 0.000000 0.000000 0.000000 1.000003 3894.dat
1 1 -246.713300 -338.891300 -100.000100 0.766051 -0.642786 0.000000 0.642785 0.766047 0.000000 0.000000 0.000000 1.000003 3894.dat
0 STEP
1 0 -106.542900 -331.079700 -120.999700 -0.754716 -0.656058 0.000000 -0.656056 0.754713 0.000000 0.000000 0.000000 -1.000003 2780.dat
1 0 -93.421710 -346.174000 -120.999800 -0.754716 -0.656058 0.000000 -0.656056 0.754713 0.000000 0.000000 0.000000 -1.000003 2780.dat
1 0 -106.542900 -331.079800 -39.999970 -0.754716 -0.656058 0.000000 -0.656056 0.754713 0.000000 0.000000 0.000000 -1.000003 2780.dat
1 0 -93.421680 -346.174100 -39.999970 -0.754716 -0.656058 0.000000 -0.656056 0.754713 0.000000 0.000000 0.000000 -1.000003 2780.dat
0 STEP
1 15 -98.995860 -324.518900 -80.999580 0.656058 0.754716 0.000000 -0.754711 0.656055 -0.000001 -0.000001 0.000000 1.000003 32524.dat
1 15 -85.874460 -339.613500 -80.999690 0.656058 0.754716 0.000000 -0.754713 0.656056 -0.000001 -0.000001 0.000000 1.000003 32524.dat
0 STEP
1 0 -93.421570 -346.174100 -20.999570 -0.754716 -0.656058 0.000000 -0.656056 0.754713 0.000000 0.000000 0.000000 -1.000003 2780.dat
1 0 -106.542900 -331.079800 -20.999440 -0.754716 -0.656058 0.000000 -0.656056 0.754713 0.000000 0.000000 0.000000 -1.000003 2780.dat
1 19 -95.394830 -374.389400 -39.999970 -0.754716 -0.000002 -0.656058 -0.656056 0.000001 0.754713 -0.000001 1.000003 -0.000002 3749.dat
0 STEP
1 0 -93.421710 -346.174000 -140.999900 -0.754716 -0.656058 0.000000 -0.656056 0.754713 0.000000 0.000000 0.000000 -1.000003 2780.dat
1 0 -106.542900 -331.079700 -140.999800 -0.754716 -0.656058 0.000000 -0.656056 0.754713 0.000000 0.000000 0.000000 -1.000003 2780.dat
1 19 -95.394840 -374.389200 -120.999800 -0.754716 -0.000002 -0.656058 -0.656056 0.000001 0.754713 -0.000001 1.000003 -0.000002 3749.dat
0 STEP
1 71 -159.372800 -377.003600 -140.999900 0.656058 0.000000 0.754716 -0.754713 0.000000 0.656056 0.000000 -1.000003 0.000000 64179.dat
1 71 -159.372700 -377.003800 -20.999680 0.656058 0.000000 0.754716 -0.754713 0.000000 0.656056 0.000000 -1.000003 0.000000 64179.dat
0 STEP
1 14 -178.413300 -446.555500 -35.609690 0.000001 1.000004 0.000000 1.000001 -0.000001 0.000000 0.000000 0.000000 -1.000003 32123a.dat
1 14 -178.413400 -446.555500 -125.839700 0.000001 1.000004 0.000000 1.000000 -0.000001 0.000000 0.000000 0.000000 -1.000003 32123a.dat
1 0 -178.413400 -446.555500 -80.609560 0.000000 0.000001 1.000004 0.000000 1.000000 -0.000001 -1.000003 0.000000 0.000000 3707.dat
0 STEP
1 4 -127.211100 -322.546000 -140.999900 0.754716 0.000001 0.656058 0.656056 -0.000001 -0.754713 0.000000 1.000003 -0.000002 32054.dat
1 4 -127.211000 -322.546100 -20.999560 0.754716 0.000001 0.656058 0.656056 -0.000001 -0.754713 0.000000 1.000003 -0.000002 32054.dat
1 15 -143.529600 -335.463600 -19.999740 0.642789 0.000000 0.766046 -0.766045 0.000000 0.642788 0.000000 -1.000001 0.000000 xpj111.dat.dat
0 STEP
1 15 -241.571100 -345.019600 -59.999760 0.766048 -0.642786 0.000000 0.642785 0.766047 0.000000 0.000000 0.000000 1.000001 2431.dat
1 15 -241.571100 -345.019700 -100.000100 0.766048 -0.642786 0.000000 0.642785 0.766047 0.000000 0.000000 0.000000 1.000001 2431.dat
0 STEP
1 15 -283.783300 -356.942300 -110.000100 0.642786 0.000000 0.766048 -0.766047 0.000000 0.642785 0.000000 -1.000002 0.000000 3040b.dat
1 15 -283.783300 -356.942100 -49.999740 -0.642786 0.000000 0.766048 0.766047 0.000000 0.642785 0.000000 1.000001 0.000000 3040b.dat
0 STEP
0 STEP
0 NOFILE
0 FILE SubModel Group 9 Copy Copy Copy
0 SubModel Group 9 Copy Copy Copy
0 Name:  SubModel Group 9 Copy Copy Copy
0 Author:  
0 CustomBrick
0 NumOfBricks:  3
1 72 10.000000 -1.128810 -10.000000 1.000000 0.000000 0.000000 0.000000 0.000000 -1.000000 0.000000 1.000000 0.000000 dch003.dat
1 71 -27.466620 -79.717990 29.427020 1.000000 0.000000 0.000000 0.000000 0.000000 -1.000000 0.000000 1.000000 0.000000 dch004.dat
1 25 7.837010 13.484720 -9.965000 1.000000 0.000000 0.000000 0.000000 0.000000 -1.000000 0.000000 1.000000 0.000000 dch005.dat
0 NOFILE
