0 FILE 电子钻.io
0 Untitled Model
0 Name:  电子钻
0 Author:  
0 CustomBrick
0 NumOfBricks:  24
1 1 -1.999940 -170.000600 -37.000560 0.000000 -1.000008 0.000000 1.000008 0.000000 0.000000 0.000000 0.000000 1.000000 3703.dat
1 0 -12.000100 -310.002000 -47.000440 0.000000 -1.000008 0.000000 0.000000 0.000000 -1.000008 1.000000 0.000000 0.000000 2780.dat
1 1 -12.000100 -270.001900 -37.001170 0.000000 -1.000008 0.000000 0.000000 0.000000 -1.000008 1.000000 0.000000 0.000000 6558.dat
0 STEP
1 1 -1.999940 -170.000600 -17.000460 0.000000 -1.000008 0.000000 1.000008 0.000000 0.000000 0.000000 0.000000 1.000000 3703.dat
1 1 -12.000070 -110.000200 -17.000030 0.000000 1.000008 0.000000 0.000000 0.000000 1.000008 1.000001 0.000000 0.000000 6558.dat
1 1 -12.000070 -29.999510 -17.000360 0.000000 1.000008 0.000000 0.000000 0.000000 1.000008 1.000000 0.000000 0.000000 6558.dat
0 STEP
1 16 -2.000000 -1.000000 40.000000 0.000000 0.000000 -1.000000 0.000000 1.000000 0.000000 1.000000 0.000000 0.000000 submodel group 9 copy copy copy
0 STEP
1 1 -1.999900 -370.002300 -57.001160 0.000000 -1.000008 0.000000 1.000008 0.000000 0.000000 0.000000 0.000000 1.000000 3895.dat
1 0 -12.000100 -370.002000 -47.000440 0.000000 -1.000008 0.000000 0.000000 0.000000 -1.000008 1.000000 0.000000 0.000000 2780.dat
1 0 -12.000020 -470.003100 -47.000440 0.000000 -1.000008 0.000000 0.000000 0.000000 -1.000008 1.000000 0.000000 0.000000 2780.dat
0 STEP
1 1 -2.000000 -410.001900 -37.000000 0.000000 -1.000000 0.000000 1.000000 0.000000 0.000000 0.000000 0.000000 1.000000 3702.dat
1 0 -12.000020 -410.002500 -27.001000 0.000000 -1.000008 0.000000 0.000000 0.000000 -1.000008 1.000000 0.000000 0.000000 2780.dat
1 0 -12.000090 -450.003000 -27.001000 0.000000 -1.000008 0.000000 0.000000 0.000000 -1.000008 1.000000 0.000000 0.000000 2780.dat
0 STEP
1 15 6.000080 -290.001900 -17.000460 0.000000 -1.000008 0.000000 -1.000008 0.000000 0.000000 0.000000 0.000000 -1.000000 2431.dat
1 15 6.000080 -290.001500 -37.000010 0.000000 -1.000008 0.000000 -1.000008 0.000000 0.000000 0.000000 0.000000 -1.000000 2431.dat
0 STEP
1 0 -12.000120 -430.002700 -105.710800 0.000000 -1.000008 0.000000 0.000000 0.000000 1.000008 -1.000000 0.000000 0.000000 3737.dat
0 STEP
1 71 -12.000120 -430.002800 -96.300880 0.000000 1.000008 0.000000 1.000008 0.000000 0.000001 0.000001 0.000000 -1.000000 3650c.dat
1 19 -12.000120 -430.002700 -110.030700 -1.000008 0.000000 -0.000001 0.000000 1.000008 0.000000 0.000001 0.000000 -1.000000 6589.dat
1 71 -12.000060 -430.002700 -77.850920 1.000008 0.000000 0.000000 0.000000 -1.000008 0.000000 0.000000 0.000000 -1.000000 3649.dat
0 STEP
1 14 -12.000180 -430.002700 -162.240100 1.000008 0.000000 0.000000 0.000000 -1.000008 0.000000 0.000000 0.000000 -1.000000 32123a.dat
1 71 -12.000180 -430.002700 -137.310500 0.000000 -1.000008 0.000000 1.000008 0.000000 0.000000 0.000000 0.000000 1.000000 4716.dat
0 STEP
1 15 -12.000000 -430.119700 -25.000000 1.000000 0.000000 0.000000 0.000000 1.000000 0.000000 0.000000 0.000000 1.000000 dx0071.dat.dat
0 STEP
0 STEP
0 NOFILE
0 FILE SubModel Group 9 Copy Copy Copy
0 SubModel Group 9 Copy Copy Copy
0 Name:  SubModel Group 9 Copy Copy Copy
0 Author:  
0 CustomBrick
0 NumOfBricks:  3
1 72 10.000000 -1.128810 -10.000000 1.000000 0.000000 0.000000 0.000000 0.000000 -1.000000 0.000000 1.000000 0.000000 dch003.dat
1 71 -27.466620 -79.717990 29.427020 1.000000 0.000000 0.000000 0.000000 0.000000 -1.000000 0.000000 1.000000 0.000000 dch004.dat
1 25 7.837010 13.484720 -9.965000 1.000000 0.000000 0.000000 0.000000 0.000000 -1.000000 0.000000 1.000000 0.000000 dch005.dat
0 NOFILE
