0 Untitled Model
0 Name:  万向轮结构6
0 Author:  
0 CustomBrick
0 NumOfBricks:  14
1 71 -17.000000 -38.000000 -63.000000 0.000000 -1.000000 0.000000 1.000000 0.000000 0.000000 0.000000 0.000000 1.000000 56145.dat
1 71 -17.000010 -38.000040 -61.159980 0.000000 0.000000 1.000004 0.000000 1.000005 0.000000 -1.000001 0.000000 0.000000 32073.dat
0 STEP
1 14 -17.000010 -37.999980 -16.879760 0.000000 1.000004 0.000000 -1.000005 0.000000 0.000000 0.000000 0.000000 1.000001 32123a.dat
1 14 -17.000010 -38.000040 -109.010000 0.000000 -1.000000 0.000000 -1.000000 0.000000 0.000000 0.000000 0.000000 -1.000000 32123a.dat
1 72 -77.000260 -37.999960 -98.229980 -0.000001 -0.000001 1.000004 -1.000005 0.000001 -0.000001 -0.000001 -1.000001 -0.000001 32250.dat
1 72 -77.000320 -37.999900 -28.099550 -0.000001 -0.000001 1.000004 -1.000005 0.000001 -0.000001 -0.000001 -1.000001 -0.000001 32250.dat
0 STEP
1 19 -57.000210 -88.000110 -62.839840 0.000001 0.000001 1.000002 -1.000002 -0.000001 0.000001 0.000001 -1.000000 0.000001 3749.dat
1 71 -77.000320 -78.000060 -43.739740 1.000004 0.000000 0.000001 0.000000 1.000005 0.000000 -0.000001 0.000000 1.000001 3713.dat
1 71 -77.000320 -78.000180 -83.100330 1.000004 0.000000 0.000001 0.000000 1.000008 0.000000 -0.000001 0.000000 1.000004 3713.dat
1 0 -77.000320 -78.000180 -62.839780 0.000000 1.000004 0.000000 0.000000 0.000000 1.000008 1.000004 0.000000 0.000000 6536.dat
1 71 -77.000320 -78.000180 -61.329960 0.000000 0.000000 1.000004 0.000000 1.000005 0.000000 -1.000001 0.000000 0.000000 32073.dat
0 STEP
1 14 -77.000320 -78.000110 -17.949650 0.000000 1.000004 0.000000 -1.000005 0.000000 0.000000 0.000000 0.000000 1.000001 32123a.dat
1 14 -77.000320 -78.000240 -108.870000 0.000000 1.000004 0.000000 -1.000005 0.000000 0.000000 0.000000 0.000000 1.000001 32123a.dat
0 STEP
1 19 -57.000210 -98.000170 -62.839840 0.000000 -1.000002 0.000000 0.000000 0.000000 1.000002 -1.000000 0.000000 0.000000 32269.dat
0 STEP
0 STEP
