0 Untitled Model
0 Name:  单摆周期试验
0 Author:  
0 CustomBrick
0 NumOfBricks:  51
1 71 90.000010 -10.000000 30.000020 0.000000 0.000000 1.000000 0.000000 1.000000 0.000000 -1.000000 0.000000 0.000000 64179.dat
0 STEP
1 1 10.000000 -90.000040 49.999880 -0.000001 -1.000000 0.000001 0.000001 0.000001 1.000000 -1.000000 0.000001 0.000001 32526.dat
1 1 10.000000 -9.999980 49.999880 -1.000000 0.000000 0.000000 0.000000 1.000000 0.000000 0.000000 0.000000 -1.000000 6558.dat
1 1 10.000000 -10.000000 9.999900 -1.000000 0.000000 0.000000 0.000000 1.000000 0.000000 0.000000 0.000000 -1.000000 6558.dat
0 STEP
1 0 90.310130 -30.000020 49.999880 -1.000000 0.000000 0.000000 0.000000 1.000000 0.000000 0.000000 0.000000 -1.000000 3737.dat
1 4 39.620120 -30.000020 49.999880 -1.000000 0.000000 0.000000 0.000000 1.000000 0.000000 0.000000 0.000000 -1.000000 62462.dat
1 14 65.170000 -30.000020 49.999880 0.000000 0.000000 -1.000000 0.000000 -1.000000 0.000000 -1.000000 0.000000 0.000000 32123a.dat
1 14 -4.689870 -30.000030 49.999920 0.000000 0.000000 -1.000000 0.000000 -1.000000 0.000000 -1.000000 0.000000 0.000000 32123a.dat
0 STEP
1 4 140.030100 -30.000010 49.999880 -1.000000 0.000000 0.000000 0.000000 1.000000 0.000000 0.000000 0.000000 -1.000000 62462.dat
1 71 90.310130 -30.000020 49.999880 0.000000 0.000000 1.000000 0.000000 1.000000 0.000000 -1.000000 0.000000 0.000000 4716.dat
1 14 115.310200 -30.000020 49.999880 0.000000 0.000000 -1.000000 0.000000 -1.000000 0.000000 -1.000000 0.000000 0.000000 32123a.dat
0 STEP
1 1 170.000000 -90.000040 49.999880 -0.000001 -1.000000 0.000001 0.000001 0.000001 1.000000 -1.000000 0.000001 0.000001 32526.dat
1 1 170.000000 -9.999980 50.000020 1.000000 0.000000 0.000000 0.000000 1.000000 0.000000 0.000000 0.000000 1.000000 6558.dat
1 1 170.000000 -10.000000 10.000020 1.000000 0.000000 0.000000 0.000000 1.000000 0.000000 0.000000 0.000000 1.000000 6558.dat
1 14 185.220000 -30.000010 49.999880 0.000000 0.000000 -1.000000 0.000000 -1.000000 0.000000 -1.000000 0.000000 0.000000 32123a.dat
0 STEP
1 15 -9.999880 -9.999980 29.999900 -0.000001 -1.000000 -0.000001 1.000000 -0.000001 0.000001 -0.000001 -0.000001 1.000000 64290.dat
1 15 190.000000 -9.999980 30.000020 -0.000001 -1.000000 -0.000001 1.000000 -0.000001 0.000001 -0.000001 -0.000001 1.000000 64290.dat
0 STEP
1 0 180.000000 -70.000040 50.000130 -1.000000 0.000000 0.000000 0.000000 0.000000 -1.000000 0.000000 -1.000000 0.000000 2780.dat
1 0 180.000000 -90.000030 49.999880 -1.000000 0.000000 0.000000 0.000000 0.000000 -1.000000 0.000000 -1.000000 0.000000 2780.dat
1 15 190.000100 -110.000000 50.000130 -0.000001 -1.000000 -0.000001 -0.000001 -0.000001 1.000000 -1.000000 0.000001 -0.000001 32316.dat
0 STEP
1 0 0.000010 -70.000110 50.001440 -1.000000 0.000000 0.000000 0.000000 0.000000 -1.000000 0.000000 -1.000000 0.000000 2780.dat
1 0 0.000010 -90.000060 49.999920 -1.000000 0.000000 0.000000 0.000000 0.000000 -1.000000 0.000000 -1.000000 0.000000 2780.dat
1 15 -10.000000 -110.000100 49.999920 -0.000001 -1.000000 -0.000001 -0.000001 -0.000001 1.000000 -1.000000 0.000001 -0.000001 32316.dat
0 STEP
1 0 0.000010 -130.000100 49.999920 -1.000000 0.000000 0.000000 0.000000 0.000000 1.000000 0.000000 1.000000 0.000000 2780.dat
1 0 180.000100 -130.000000 50.000130 -1.000000 0.000000 0.000000 0.000000 0.000000 1.000000 0.000000 1.000000 0.000000 2780.dat
1 0 0.000130 -150.000100 50.000040 -1.000000 0.000000 0.000000 0.000000 0.000000 1.000000 0.000000 1.000000 0.000000 2780.dat
1 0 180.000100 -150.000000 50.000130 -1.000000 0.000000 0.000000 0.000000 0.000000 1.000000 0.000000 1.000000 0.000000 2780.dat
0 STEP
1 15 10.000190 -270.000100 50.000190 -0.000001 -1.000000 -0.000001 -0.000001 -0.000001 1.000000 -1.000000 0.000001 -0.000001 64871.dat
1 15 170.000300 -270.000100 50.000440 -0.000001 -1.000000 -0.000001 -0.000001 -0.000001 1.000000 -1.000000 0.000001 -0.000001 64871.dat
0 STEP
1 0 89.620330 -410.000100 50.000440 -1.000000 -0.000002 -0.000002 0.000002 0.000002 -1.000000 0.000002 -1.000000 -0.000002 32013.dat
1 0 90.560340 -410.000100 50.000440 -1.000000 0.000000 0.000000 0.000000 1.000000 0.000000 0.000000 0.000000 -1.000000 3737.dat
1 14 74.150360 -410.000100 50.000440 0.000000 0.000000 -1.000000 0.000000 -1.000000 0.000000 -1.000000 0.000000 0.000000 32123a.dat
1 14 105.250500 -410.000100 50.000440 0.000000 0.000000 -1.000000 0.000000 -1.000000 0.000000 -1.000000 0.000000 0.000000 32123a.dat
0 STEP
1 14 -4.439570 -410.000100 50.000460 0.000000 0.000000 -1.000000 0.000000 -1.000000 0.000000 -1.000000 0.000000 0.000000 32123a.dat
1 14 185.780300 -410.000100 50.000440 0.000000 0.000000 -1.000000 0.000000 -1.000000 0.000000 -1.000000 0.000000 0.000000 32123a.dat
0 STEP
1 0 89.620510 -360.000200 50.000500 0.000000 0.000000 1.000000 1.000000 0.000000 0.000000 0.000000 1.000000 0.000000 3705.dat
1 15 89.620510 -344.290200 50.000680 1.000000 0.000000 0.000000 0.000000 1.000000 0.000000 0.000000 0.000000 1.000000 3941.dat
0 STEP
1 19 180.000300 -230.000100 50.000440 1.000000 0.000001 -0.000001 0.000001 -1.000000 0.000001 -0.000001 -0.000001 -1.000000 3749.dat
1 19 180.000300 -270.000100 50.000440 1.000004 0.000001 -0.000001 0.000001 -1.000000 0.000001 -0.000001 -0.000001 -1.000004 3749.dat
1 71 200.000300 -270.002900 50.002330 0.000001 0.000000 -1.000000 0.000000 1.000000 0.000000 1.000000 0.000000 0.000001 59443.dat
1 71 200.000300 -230.002900 50.000440 0.000001 0.000000 -1.000000 0.000000 1.000000 0.000000 1.000000 0.000000 0.000001 59443.dat
0 STEP
1 4 220.000500 -270.000100 50.000440 -1.000004 0.000000 0.000000 0.000000 1.000000 0.000000 0.000000 0.000000 -1.000004 32062.dat
1 4 220.000300 -230.000100 50.000440 -1.000000 0.000000 0.000000 0.000000 1.000000 0.000000 0.000000 0.000000 -1.000000 32062.dat
1 1 230.340600 -250.000100 50.000440 -1.000000 0.000000 0.000000 0.000000 -1.000000 0.000000 0.000000 0.000000 1.000000 32184.dat
0 STEP
1 71 -20.389900 -270.002900 50.000160 0.000001 0.000000 -1.000000 0.000000 1.000000 0.000000 1.000000 0.000000 0.000001 59443.dat
1 19 0.000190 -270.000000 50.000220 -1.000000 -0.000001 0.000001 0.000001 -1.000000 0.000001 0.000001 0.000001 1.000000 3749.dat
1 19 0.000130 -230.000000 50.000160 -1.000000 -0.000001 0.000001 0.000001 -1.000000 0.000001 0.000001 0.000001 1.000000 3749.dat
1 71 -19.999820 -230.002900 50.000160 0.000001 0.000000 -1.000000 0.000000 1.000000 0.000000 1.000000 0.000000 0.000001 59443.dat
0 STEP
1 4 -39.999880 -230.000000 50.000160 -1.000000 0.000000 0.000000 0.000000 1.000000 0.000000 0.000000 0.000000 -1.000000 32062.dat
1 4 -40.389900 -270.000000 50.000160 -1.000007 0.000000 0.000000 0.000000 1.000000 0.000000 0.000000 0.000000 -1.000007 32062.dat
1 1 -50.389900 -250.000000 50.000160 -1.000000 0.000000 0.000000 0.000000 -1.000000 0.000000 0.000000 0.000000 1.000000 32184.dat
0 STEP
0 STEP
