0 FILE 双翼直升机.io
0 Untitled Model
0 Name:  双翼直升机
0 Author:  
0 CustomBrick
0 NumOfBricks:  181
1 15 -1.940040 -10.000120 -492.886200 -1.000000 0.000001 -0.000001 -0.000001 -0.999999 -0.000001 -0.000001 -0.000001 1.000000 64290.dat
1 15 -1.940260 -30.000150 -492.886300 1.000000 -0.000001 0.000001 0.000001 0.999999 0.000001 -0.000001 -0.000001 1.000000 32523.dat
1 1 -1.940260 -30.000130 -472.886300 0.000000 -1.000000 0.000000 0.999999 0.000000 0.000000 0.000000 0.000000 1.000000 6558.dat
1 1 -1.940280 -30.000170 -512.886200 0.000000 -1.000000 0.000000 0.999999 0.000000 0.000000 0.000000 0.000000 1.000000 6558.dat
0 STEP
1 15 -1.940260 -50.000140 -492.886300 1.000000 -0.000001 0.000001 0.000001 0.999999 0.000001 -0.000001 -0.000001 1.000000 40490.dat
1 0 -1.940230 -60.000240 -412.886300 0.000000 0.000000 -1.000000 0.999999 -0.000001 0.000000 0.000000 -1.000000 0.000000 2780.dat
0 STEP
1 1 78.059970 -30.000130 -472.886300 0.000000 -1.000000 0.000000 0.999999 0.000000 0.000000 0.000000 0.000000 1.000000 6558.dat
1 1 78.059960 -30.000180 -512.886200 0.000000 -1.000000 0.000000 0.999999 0.000000 0.000000 0.000000 0.000000 1.000000 6558.dat
1 15 78.059970 -30.000150 -492.886200 1.000000 -0.000001 0.000001 0.000001 0.999999 0.000001 -0.000001 -0.000001 1.000000 32523.dat
1 15 78.059720 -10.000210 -492.886200 -1.000000 0.000001 -0.000001 -0.000001 -0.999999 -0.000001 -0.000001 -0.000001 1.000000 64290.dat
0 STEP
1 0 78.059760 -60.000320 -412.886300 0.000000 0.000000 -1.000000 0.999999 0.000000 0.000000 0.000000 -1.000000 0.000000 2780.dat
1 15 78.059970 -50.000140 -492.886200 1.000000 -0.000001 0.000001 0.000001 0.999999 0.000001 -0.000001 -0.000001 1.000000 40490.dat
0 STEP
1 1 -1.940300 -70.000220 -572.886300 0.000000 0.000000 1.000000 0.999999 0.000000 0.000000 0.000000 1.000000 0.000000 6558.dat
1 1 78.059700 -70.000220 -572.886200 0.000000 0.000000 1.000000 0.999999 0.000000 0.000000 0.000000 1.000000 0.000000 6558.dat
1 15 38.059700 -70.000240 -572.886200 0.000001 0.000001 -1.000000 0.000001 0.999999 0.000001 1.000000 -0.000001 0.000001 40490.dat
0 STEP
1 1 -21.940350 -90.000170 -572.886300 0.000000 0.000000 1.000000 0.000000 0.999999 0.000000 -1.000000 0.000000 0.000000 6558.dat
1 71 38.059660 -130.000200 -572.886300 0.000000 0.000000 1.000000 -0.999999 0.000000 0.000000 0.000000 -1.000000 0.000000 64179.dat
1 1 98.059940 -90.000220 -572.886200 0.000000 0.000000 1.000000 0.000000 0.999999 0.000000 -1.000000 0.000000 0.000000 6558.dat
0 STEP
1 15 38.059660 -90.000110 -552.886300 0.000001 0.000001 -1.000000 -0.999999 0.000001 -0.000001 0.000001 1.000000 0.000001 64290.dat
1 15 38.059640 -90.000080 -592.886100 0.000001 0.000001 -1.000000 -0.999999 0.000001 -0.000001 0.000001 1.000000 0.000001 64290.dat
0 STEP
1 4 118.059800 -90.000190 -532.886300 -0.000001 1.000000 -0.000001 -0.000001 -0.000001 -0.999999 -1.000000 -0.000001 0.000001 32054.dat
1 1 58.059660 -90.000190 -532.886300 0.000000 0.000000 1.000000 -0.999999 0.000000 0.000000 0.000000 -1.000000 0.000000 6629.dat
1 4 138.059700 -90.000190 -532.886300 -0.000001 1.000000 -0.000001 -0.000001 -0.000001 -0.999999 -1.000000 -0.000001 0.000000 32054.dat
0 STEP
1 1 18.059660 -90.000220 -532.886300 0.000000 0.000000 -1.000000 -0.999999 0.000000 0.000000 0.000000 1.000000 0.000000 6629.dat
1 4 -61.940350 -90.000190 -532.886300 -0.000001 1.000000 -0.000001 0.000000 -0.000001 -0.999999 -1.000000 -0.000001 0.000000 32054.dat
1 4 -41.940280 -90.000190 -532.886300 -0.000001 1.000000 -0.000001 0.000000 -0.000001 -0.999999 -1.000000 -0.000001 0.000000 32054.dat
0 STEP
1 15 38.059670 -90.000140 -512.886200 0.000001 0.000001 -1.000000 -0.999999 0.000001 -0.000001 0.000001 1.000000 0.000001 32524.dat
1 1 -1.940330 -90.000220 -512.886200 0.000000 0.000000 1.000000 0.000000 0.999999 0.000000 -1.000000 0.000000 0.000000 6558.dat
1 1 78.059720 -90.000220 -512.886200 0.000000 0.000000 1.000000 0.000000 0.999999 0.000000 -1.000000 0.000000 0.000000 6558.dat
0 STEP
1 0 -21.940300 -80.000230 -412.886300 0.000000 0.000000 -1.000000 0.999999 0.000000 0.000000 0.000000 -1.000000 0.000000 2780.dat
1 15 38.059700 -70.000270 -412.886300 0.000001 0.000001 -1.000000 0.000001 0.999999 0.000001 1.000000 -0.000001 0.000001 40490.dat
1 0 98.060020 -80.000220 -412.886300 0.000000 0.000000 -1.000000 0.999999 0.000000 0.000000 0.000000 -1.000000 0.000000 2780.dat
0 STEP
1 71 38.059570 -90.000220 -452.886300 0.000000 0.000000 1.000000 0.000000 0.999999 0.000000 -1.000000 0.000000 0.000000 64179.dat
1 0 78.059760 -90.000220 -402.886300 0.000000 0.000000 -1.000000 0.000000 0.999999 0.000000 1.000000 0.000000 0.000000 2780.dat
1 0 -1.940230 -90.000220 -402.886300 0.000000 0.000000 -1.000000 0.000000 0.999999 0.000000 1.000000 0.000000 0.000000 2780.dat
0 STEP
1 72 18.059700 -100.000200 -412.886300 0.000001 0.000000 1.000000 -0.999999 0.000000 0.000001 0.000000 -1.000000 0.000000 32002.dat
1 72 58.059700 -100.000200 -412.886300 0.000001 0.000000 1.000000 -0.999999 0.000000 0.000001 0.000000 -1.000000 0.000000 32002.dat
1 72 18.059670 -100.000200 -492.886300 0.000001 0.000000 1.000000 -0.999999 0.000000 0.000001 0.000000 -1.000000 0.000000 32002.dat
1 72 58.059680 -100.000200 -492.886300 0.000001 0.000000 1.000000 -0.999999 0.000000 0.000001 0.000000 -1.000000 0.000000 32002.dat
0 STEP
1 1 38.059710 -108.000200 -412.886300 1.000000 0.000000 0.000000 0.000000 1.000000 0.000000 0.000000 0.000000 1.000000 32001.dat
1 1 38.059680 -108.000200 -492.886300 1.000000 0.000000 0.000000 0.000000 1.000000 0.000000 0.000000 0.000000 1.000000 3738.dat
0 STEP
1 71 38.059680 -138.000200 -512.886300 1.000000 0.000000 0.000000 0.000000 1.000000 0.000000 0.000000 0.000000 1.000000 58120.dat
1 14 38.059660 -138.000900 -518.786400 0.000000 0.999995 0.000000 -0.999997 0.000000 0.000000 0.000000 0.000000 1.000000 32123a.dat
1 0 38.059670 -138.000200 -532.886400 0.000000 0.000000 1.000000 0.000000 1.000000 0.000000 -1.000000 0.000000 0.000000 3705.dat
0 STEP
1 71 38.059670 -138.000200 -550.756300 0.000000 0.999995 0.000000 0.999998 0.000000 0.000001 0.000001 0.000000 -1.000000 3650c.dat
1 71 38.059670 -138.000200 -534.016200 0.999995 0.000000 0.000001 0.000000 0.999997 0.000000 -0.000001 0.000000 1.000000 3713.dat
0 STEP
1 0 38.339690 -130.000200 -572.886300 -1.000000 0.000000 0.000000 0.000000 0.839621 0.543172 0.000000 0.543172 -0.839621 3737.dat
1 14 -10.100380 -130.000200 -572.886300 0.000000 0.000000 1.000000 0.543172 0.839621 0.000000 -0.839621 0.543172 0.000000 32123a.dat
1 71 5.499710 -130.000200 -572.886300 -0.000001 0.000000 1.000000 0.839621 -0.543172 0.000001 0.543172 0.839621 0.000000 94925.dat
0 STEP
1 19 121.559800 -130.000300 -572.886200 0.000000 0.000000 -1.000000 0.543172 -0.839621 0.000000 -0.839621 -0.543172 0.000000 32198.dat
1 14 113.519800 -130.000300 -572.886200 0.000000 0.000000 1.000000 0.543172 0.839621 0.000000 -0.839621 0.543172 0.000000 32123a.dat
1 14 -36.580240 -130.000200 -572.886300 0.000000 0.000000 1.000000 0.543172 0.839621 0.000000 -0.839621 0.543172 0.000000 32123a.dat
1 19 -44.230260 -130.000200 -572.886300 0.000000 0.000000 1.000000 -0.543172 -0.839621 0.000000 0.839621 -0.543172 0.000000 32198.dat
0 STEP
1 19 58.059720 -170.000100 -582.886200 0.000001 -1.000000 0.000001 0.000001 0.000001 0.999999 -1.000000 -0.000001 0.000001 3749.dat
1 71 58.059720 -170.000200 -592.886100 -0.000001 0.000001 1.000000 0.999999 0.000001 0.000001 -0.000001 1.000000 -0.000001 33299.dat
1 71 18.059660 -170.000100 -592.886200 0.000001 -0.000001 -1.000000 -0.999999 -0.000001 -0.000001 -0.000001 1.000000 -0.000001 33299.dat
1 19 18.059720 -170.000100 -582.886200 0.000001 -1.000000 0.000001 0.000001 0.000001 0.999999 -1.000000 -0.000001 0.000001 3749.dat
0 STEP
1 4 -117.940300 -138.000200 -542.886300 0.000000 -0.800000 -0.600000 0.000000 0.600000 -0.800000 1.000000 0.000000 0.000000 32062.dat
1 4 -117.940300 -138.000200 -572.886300 -0.600000 0.800000 0.000000 -0.800000 -0.600000 0.000000 0.000000 0.000000 1.000000 32034.dat
1 4 -117.940300 -138.000300 -602.886200 0.000000 0.600000 -0.800000 0.000000 0.800000 0.600000 1.000000 0.000000 0.000000 32062.dat
0 STEP
1 4 -61.940320 -90.000230 -612.886100 -0.000001 1.000000 -0.000001 0.000001 0.000001 0.999999 1.000000 0.000001 -0.000001 32054.dat
1 4 -1.940300 -90.000230 -612.886100 -0.000001 1.000000 -0.000001 0.000001 0.000001 0.999999 1.000000 0.000001 -0.000001 32054.dat
1 1 18.059700 -90.000220 -612.886100 0.000000 0.000000 -1.000000 -0.999999 0.000000 0.000000 0.000000 1.000000 0.000000 6629.dat
0 STEP
1 4 194.059700 -138.000000 -572.886200 -0.600000 0.800000 0.000000 0.800000 0.600000 0.000000 0.000000 0.000000 -1.000000 32034.dat
1 4 194.059700 -138.000200 -542.886300 0.000000 -0.600000 -0.800000 0.000000 0.800000 -0.600000 1.000000 0.000000 0.000000 32062.dat
1 4 194.059700 -138.000000 -602.886100 0.000000 0.800000 -0.600000 0.000000 0.600000 0.800000 1.000000 0.000000 0.000000 32062.dat
0 STEP
1 4 138.059700 -89.999980 -612.886100 -0.000001 1.000000 -0.000001 0.000001 0.000001 0.999999 1.000000 0.000001 -0.000001 32054.dat
1 4 78.059700 -90.000060 -612.886100 -0.000001 1.000000 -0.000001 0.000001 0.000001 0.999999 1.000000 0.000001 -0.000001 32054.dat
1 1 58.059640 -90.000010 -612.886100 0.000000 0.000000 1.000000 -0.999999 0.000000 0.000000 0.000000 -1.000000 0.000000 6629.dat
0 STEP
1 1 38.059680 -100.000300 -652.886100 1.000000 0.000000 0.000000 0.000000 0.999999 0.000000 0.000000 0.000000 1.000000 3702.dat
1 19 -1.940310 -90.000270 -642.886100 -0.000001 1.000000 -0.000001 0.000001 0.000001 0.999999 1.000000 0.000001 -0.000001 3749.dat
1 19 78.059680 -90.000070 -642.886100 -0.000001 1.000000 -0.000001 0.000001 0.000001 0.999999 1.000000 0.000001 -0.000001 3749.dat
0 STEP
1 19 18.059670 -90.000270 -672.886200 0.000000 0.000000 1.000000 0.000000 0.999999 0.000000 -1.000000 0.000000 0.000000 32556.dat
1 15 38.059680 -90.000270 -672.886200 0.000001 0.000001 -1.000000 -0.999999 0.000001 -0.000001 0.000001 1.000000 0.000001 32316.dat
1 19 58.059680 -90.000270 -672.886200 0.000000 0.000000 1.000000 0.000000 0.999999 0.000000 -1.000000 0.000000 0.000000 32556.dat
0 STEP
1 1 38.059680 -100.000300 -692.886200 1.000000 0.000000 0.000000 0.000000 0.999999 0.000000 0.000000 0.000000 1.000000 3894.dat
1 19 -1.940340 -90.000270 -712.886200 0.000000 0.000000 1.000000 0.000000 0.999999 0.000000 -1.000000 0.000000 0.000000 32556.dat
1 19 78.059920 -90.000270 -712.886200 0.000000 0.000000 1.000000 0.000000 0.999999 0.000000 -1.000000 0.000000 0.000000 32556.dat
0 STEP
1 1 38.059660 -100.000300 -732.886200 1.000000 0.000000 0.000000 0.000000 0.999999 0.000000 0.000000 0.000000 1.000000 3894.dat
1 15 38.059670 -90.000330 -712.886200 0.000001 0.000001 -1.000000 -0.999999 0.000001 -0.000001 0.000001 1.000000 0.000001 32316.dat
0 STEP
1 1 -21.940350 -76.000290 -702.886200 0.000000 0.000000 1.000000 0.000000 0.999999 0.000000 -1.000000 0.000000 0.000000 32001.dat
1 1 -31.940330 -100.000300 -682.886200 0.000000 0.000000 1.000000 0.000000 0.999999 0.000000 -1.000000 0.000000 0.000000 3700.dat
1 1 -31.940340 -100.000300 -722.886200 0.000000 0.000000 1.000000 0.000000 0.999999 0.000000 -1.000000 0.000000 0.000000 3700.dat
0 STEP
1 1 98.059970 -76.000290 -702.886200 0.000000 0.000000 1.000000 0.000000 0.999999 0.000000 -1.000000 0.000000 0.000000 32001.dat
1 1 108.060200 -100.000300 -682.885100 0.000000 0.000000 1.000000 0.000000 0.999999 0.000000 -1.000000 0.000000 0.000000 3700.dat
1 1 108.059900 -100.000300 -722.886200 0.000000 0.000000 1.000001 0.000000 0.999999 0.000000 -1.000000 0.000000 0.000000 3700.dat
0 STEP
1 15 38.059650 -90.000240 -752.886200 0.000001 0.000001 -1.000000 -0.999999 0.000001 -0.000001 0.000001 1.000000 0.000001 32524.dat
1 0 18.059650 -90.000270 -742.886200 0.000000 0.000000 -1.000000 0.000000 0.999999 0.000000 1.000000 0.000000 0.000000 2780.dat
1 0 58.059650 -90.000270 -742.886200 0.000000 0.000000 -1.000000 0.000000 0.999999 0.000000 1.000000 0.000000 0.000000 2780.dat
0 STEP
1 15 -31.940330 -124.000200 -682.886200 0.000000 0.000000 1.000000 0.000000 0.999999 0.000000 -1.000000 0.000000 0.000000 32064a.dat
1 15 -31.940320 -148.000300 -672.886200 1.000000 0.000000 0.000000 0.000000 0.999999 0.000000 0.000000 0.000000 1.000000 3040b.dat
1 15 -31.940330 -124.000200 -712.886200 1.000000 0.000000 0.000000 0.000000 0.999999 0.000000 0.000000 0.000000 1.000000 3040b.dat
0 STEP
1 15 108.060200 -148.000300 -672.885100 1.000000 0.000000 0.000000 0.000000 0.999999 0.000000 0.000000 0.000000 1.000000 3040b.dat
1 15 108.060200 -124.000200 -682.885100 0.000000 0.000000 1.000000 0.000000 0.999999 0.000000 -1.000000 0.000000 0.000000 32064a.dat
1 15 108.059900 -124.000200 -712.886200 1.000000 0.000000 0.000000 0.000000 0.999999 0.000000 0.000000 0.000000 1.000000 3040b.dat
0 STEP
1 14 78.059960 -170.000100 -598.446200 0.000000 1.000000 0.000000 0.999999 0.000000 0.000000 0.000000 0.000000 -1.000000 32123a.dat
1 4 78.059960 -170.000100 -595.516100 0.000000 0.000000 -1.000000 0.000000 0.999999 0.000000 1.000000 0.000000 0.000000 32062.dat
1 4 -1.940280 -170.000100 -595.456100 0.000000 0.000000 -1.000000 0.000000 0.999999 0.000000 1.000000 0.000000 0.000000 32062.dat
1 14 -1.940280 -170.000100 -598.456100 0.000000 1.000000 0.000000 0.999999 0.000000 0.000000 0.000000 0.000000 -1.000000 32123a.dat
0 STEP
1 19 88.059940 -170.000100 -633.966100 -1.000000 -0.000001 0.000001 0.000001 0.000001 0.999999 -0.000001 1.000000 -0.000001 3749.dat
1 4 78.059960 -170.000100 -613.966100 -1.000000 0.000000 0.000000 0.000000 -0.999999 -0.000001 0.000000 -0.000001 1.000000 32039.dat
0 STEP
1 1 98.059960 -170.000200 -773.966100 0.000000 1.000000 0.000000 0.999999 0.000000 0.000000 0.000000 0.000000 -1.000000 32009.dat
1 71 78.059640 -89.999950 -774.117100 -1.000000 0.000000 0.000000 0.000000 0.000000 1.000007 0.000000 1.000008 0.000000 4519.dat
1 71 78.059640 -89.999950 -774.117100 0.000001 0.000000 -1.000000 0.000000 0.999999 0.000000 1.000000 0.000000 0.000001 3713.dat
0 STEP
1 4 38.059640 -89.999950 -774.117100 0.000000 0.000000 -1.000000 0.000000 -1.000008 0.000000 -1.000008 0.000000 0.000000 32034.dat
1 71 -1.940360 -90.000110 -774.116100 0.000001 0.000000 -1.000000 0.000000 0.999999 0.000000 1.000000 0.000000 0.000001 3713.dat
1 71 -1.940360 -90.000110 -774.116100 -1.000000 0.000000 0.000000 0.000000 0.000000 0.999999 0.000000 1.000000 0.000000 4519.dat
0 STEP
1 1 -21.940350 -170.000100 -774.116100 0.000000 1.000000 0.000000 0.999999 0.000000 0.000000 0.000000 0.000000 -1.000000 32009.dat
1 4 -1.940280 -170.000100 -614.116100 -1.000000 0.000000 0.000000 0.000000 -0.999999 -0.000001 0.000000 -0.000001 1.000000 32039.dat
1 19 -11.940290 -170.000100 -634.116100 1.000000 0.000001 -0.000001 -0.000001 -0.000001 -0.999999 -0.000001 1.000000 -0.000001 3749.dat
0 STEP
1 0 -1.940330 -180.000100 -572.886300 0.000000 0.000000 -1.000000 0.999999 0.000000 0.000000 0.000000 -1.000000 0.000000 2780.dat
1 15 38.059670 -190.000100 -572.886300 0.000001 0.000001 -1.000000 0.000001 0.999999 0.000001 1.000000 -0.000001 0.000001 64871.dat
1 0 78.059720 -180.000100 -572.886300 0.000000 0.000000 -1.000000 0.999999 0.000000 0.000000 0.000000 -1.000000 0.000000 2780.dat
0 STEP
1 72 -61.940940 -209.140000 -572.886300 0.975917 -0.218141 0.000000 0.000000 0.000000 0.999999 -0.218141 -0.975917 0.000000 3647.dat
1 0 -61.940350 -189.700000 -572.886300 0.000000 0.975915 0.218141 -0.999999 0.000000 0.000000 0.000000 -0.218141 0.975917 3705.dat
0 STEP
1 0 -61.940350 -159.700000 -572.886300 0.218141 0.975915 0.000000 0.000000 0.000000 0.999999 0.975917 -0.218141 0.000000 32270.dat
1 14 -61.940350 -174.790000 -572.886300 0.218141 -0.975915 0.000000 0.000000 0.000000 -0.999999 0.975917 0.218141 0.000000 32123a.dat
0 STEP
1 19 -101.940300 -177.180000 -572.885300 -1.000000 0.000000 -0.000001 -0.000001 0.000000 0.999999 0.000000 1.000000 0.000000 6589.dat
1 72 -101.940300 -209.019900 -572.886300 1.000000 0.000000 0.000000 0.000000 0.000000 1.000000 0.000000 -1.000002 0.000000 3648b.dat
1 71 -101.940300 -199.929900 -572.886300 0.000000 0.000000 -1.000000 1.000000 0.000000 0.000000 0.000000 -1.000002 0.000000 4519.dat
0 STEP
1 72 138.059700 -209.420200 -572.886300 0.975917 -0.218141 0.000000 0.000000 0.000000 0.999999 -0.218141 -0.975917 0.000000 3647.dat
1 0 138.059700 -189.980100 -572.886300 0.000000 0.975917 0.218141 -0.999999 0.000000 0.000000 0.000000 -0.218141 0.975917 3705.dat
0 STEP
1 0 138.059700 -159.980200 -572.886300 0.218141 0.975917 0.000000 0.000000 0.000000 0.999999 0.975917 -0.218141 0.000000 32270.dat
1 14 138.059700 -175.070300 -572.886300 0.218141 -0.975917 0.000000 0.000000 0.000000 -0.999999 0.975917 0.218141 0.000000 32123a.dat
0 STEP
1 19 178.059700 -177.680200 -572.886200 -1.000000 0.000000 -0.000001 -0.000001 0.000000 0.999999 0.000000 1.000000 0.000000 6589.dat
1 72 178.059700 -209.520200 -572.886300 1.000000 0.000000 0.000000 0.000000 0.000000 0.999999 0.000000 -1.000000 0.000000 3648b.dat
1 71 178.059700 -200.430200 -572.886300 0.000000 0.000000 -1.000000 0.999999 0.000000 0.000000 0.000000 -1.000000 0.000000 4519.dat
0 STEP
1 19 206.059700 -153.999900 -572.886200 0.800000 0.000000 -0.600000 0.600000 0.000000 0.800000 0.000000 -1.000000 0.000000 32269.dat
1 72 206.059700 -153.999900 -572.886200 -0.600000 0.000000 -0.800000 0.800000 0.000000 -0.600000 0.000000 -1.000000 0.000000 6587.dat
1 71 224.057400 -178.001700 -572.886200 0.000000 0.800000 0.600000 0.000000 0.600000 -0.800000 -1.000000 0.000000 0.000000 59443.dat
0 STEP
1 4 236.059600 -194.000000 -572.886200 -0.600000 0.000000 -0.800000 0.800000 0.000000 -0.600000 0.000000 -1.000000 0.000000 32062.dat
1 71 237.919800 -196.480000 -572.886200 -0.800000 0.000000 0.600000 -0.600000 0.000000 -0.800000 0.000000 -1.000000 0.000000 4185.dat
1 71 245.179600 -206.160000 -572.886200 -0.800000 0.000000 0.600000 -0.600000 -0.000001 -0.800000 0.000000 -1.000000 0.000000 4185.dat
0 STEP
1 0 247.376100 -209.387700 -592.886000 -0.600000 0.000000 -0.800000 0.800000 0.000000 -0.600000 0.000000 -1.000000 0.000000 2780.dat
1 0 261.519700 -198.780000 -562.886200 -0.600000 0.000001 -0.800000 0.800000 0.000000 -0.600000 -0.000001 -1.000000 0.000000 2780.dat
1 0 261.519700 -198.780000 -582.886100 -0.600000 0.000001 -0.800000 0.800000 0.000000 -0.600000 -0.000001 -1.000000 0.000000 2780.dat
0 STEP
1 0 233.519700 -219.780000 -582.886100 -0.600000 0.000000 -0.800000 0.800000 0.000000 -0.600000 0.000000 -1.000000 0.000000 2780.dat
1 0 233.519700 -219.780000 -562.886300 -0.600000 0.000001 -0.800000 0.800000 0.000000 -0.600000 -0.000001 -1.000000 0.000000 2780.dat
1 0 247.519700 -209.280000 -552.886300 -0.600000 0.000001 -0.800000 0.800000 0.000000 -0.600000 -0.000001 -1.000000 0.000000 2780.dat
0 STEP
1 15 156.525100 -290.026200 -622.886100 -0.400001 -0.600001 -0.692820 -0.300000 0.800000 -0.519616 0.866025 -0.000001 -0.500000 64871.dat
1 15 267.519600 -206.779900 -442.886300 0.800000 -0.600001 -0.000001 0.600001 0.800000 0.000001 0.000000 -0.000001 1.000000 64871.dat
1 15 336.514500 -155.033800 -652.886100 0.399999 -0.600001 -0.692820 0.300001 0.800000 -0.519616 0.866026 -0.000001 0.500000 64871.dat
0 STEP
1 71 -147.938100 -178.001900 -572.886300 0.000000 -0.800000 -0.600000 0.000000 0.600000 -0.800000 1.000000 0.000000 0.000000 59443.dat
1 72 -129.940300 -154.000100 -572.886300 0.600000 0.000000 0.800000 0.800000 0.000000 -0.600000 0.000000 1.000000 0.000000 6587.dat
1 19 -129.940300 -154.000100 -572.886300 -0.800000 0.000000 0.600000 0.600000 0.000000 0.800000 0.000000 1.000000 0.000000 32269.dat
0 STEP
1 71 -162.940300 -198.000200 -572.886300 0.800000 0.000000 -0.600000 -0.600000 0.000000 -0.800000 0.000000 1.000000 0.000000 4185.dat
1 4 -159.940300 -194.000200 -572.886300 0.600000 0.000000 0.800000 0.800000 0.000000 -0.600000 0.000000 1.000000 0.000000 32062.dat
1 71 -169.114300 -206.232200 -572.886300 0.800000 0.000000 -0.600000 -0.600000 0.000000 -0.800000 0.000000 1.000000 0.000000 4185.dat
0 STEP
1 0 -158.540300 -221.300200 -562.886300 0.600000 -0.000001 0.800000 0.800000 0.000000 -0.600000 0.000001 1.000000 0.000000 2780.dat
1 0 -158.540300 -221.300200 -582.886200 0.600000 -0.000001 0.800000 0.800000 0.000000 -0.600000 0.000001 1.000000 0.000000 2780.dat
1 0 -172.540300 -210.800200 -592.886200 0.600000 -0.000001 0.800000 0.800000 0.000000 -0.600000 0.000001 1.000000 0.000000 2780.dat
0 STEP
1 0 -186.540100 -200.300200 -582.886200 0.600000 -0.000001 0.800000 0.800000 0.000000 -0.600000 0.000001 1.000000 0.000000 2780.dat
1 0 -172.540100 -210.800200 -552.886300 0.599998 -0.000003 0.800003 0.800000 0.000001 -0.600000 0.000002 0.999997 0.000000 2780.dat
1 0 -186.539600 -200.300200 -562.885300 0.600000 -0.000001 0.800000 0.800000 0.000000 -0.600000 0.000001 1.000000 0.000000 2780.dat
0 STEP
1 15 -261.679700 -156.446000 -492.887300 0.399997 0.600000 -0.692823 -0.299999 0.800000 0.519616 0.866027 0.000001 0.499997 64871.dat
1 15 -192.539700 -208.300100 -702.885100 -0.800000 0.600000 0.000000 0.600000 0.800000 0.000001 0.000000 0.000001 -1.000000 64871.dat
1 15 -81.545480 -291.546400 -522.886300 -0.400001 0.600000 -0.692820 0.300000 0.800000 0.519616 0.866025 0.000001 -0.500000 64871.dat
0 STEP
1 15 38.059710 -90.000190 -392.886300 0.000001 0.000001 -1.000000 -0.999999 0.000001 -0.000001 0.000001 1.000000 0.000001 32524.dat
1 0 58.059700 -90.000170 -382.886300 0.000000 0.000000 -1.000000 0.000000 1.000000 0.000000 1.000000 0.000000 0.000000 2780.dat
1 0 18.059710 -90.000190 -382.886300 0.000000 0.000000 -1.000000 0.000000 0.999999 0.000000 1.000000 0.000000 0.000000 2780.dat
0 STEP
1 16 48.059940 -59.757600 -209.886600 0.000000 0.000000 1.000005 0.000000 1.000000 0.000000 -1.000005 0.000000 0.000000 submodel group 9 copy copy copy
0 STEP
1 1 38.059880 -150.000100 -92.886390 0.000001 1.000000 -0.000001 0.999999 -0.000001 -0.000001 -0.000001 -0.000001 -1.000000 32526.dat
1 4 18.059800 -150.000200 -172.886400 1.000000 0.000001 -0.000001 -0.000001 -0.000001 -0.999999 -0.000001 1.000000 -0.000001 32054.dat
1 4 18.059790 -110.000200 -172.886400 1.000000 0.000001 -0.000001 -0.000001 -0.000001 -0.999999 -0.000001 1.000000 -0.000001 32054.dat
0 STEP
1 1 38.059880 -150.000200 -92.886390 1.000000 0.000000 0.000000 0.000000 0.999999 0.000000 0.000000 0.000000 1.000000 6558.dat
1 1 38.059810 -150.000200 -132.886400 1.000000 0.000000 0.000000 0.000000 0.999999 0.000000 0.000000 0.000000 1.000000 6558.dat
0 STEP
1 1 58.059770 -160.000200 -32.886420 0.000000 0.000000 1.000000 0.000000 1.000000 0.000000 -1.000000 0.000000 0.000000 3895.dat
1 1 18.059760 -160.000200 -32.886420 0.000001 0.000000 1.000000 0.000000 1.000000 0.000000 -1.000000 0.000000 0.000001 3895.dat
0 STEP
1 1 38.059760 -150.000500 -12.886420 0.000001 1.000000 -0.000001 -1.000001 0.000001 0.000001 0.000001 0.000001 1.000001 32271.dat
1 71 38.059760 -150.000200 -12.886440 -1.000000 0.000000 0.000000 0.000000 0.000000 1.000000 0.000000 1.000000 0.000000 4519.dat
0 STEP
1 71 -1.940210 -150.000500 67.114650 0.000001 0.000000 -1.000000 0.000000 1.000001 0.000000 1.000001 0.000000 0.000001 3713.dat
1 71 38.059720 -150.000500 67.114640 -1.000000 0.000000 0.000000 0.000000 1.000001 0.000000 0.000000 0.000000 -1.000001 32073.dat
1 71 78.059800 -150.000500 67.114620 0.000001 0.000000 -1.000000 0.000000 1.000001 0.000000 1.000001 0.000000 0.000001 3713.dat
0 STEP
1 19 48.059760 -182.000400 131.113700 -1.000000 -0.000001 0.000002 0.000001 0.593518 0.804823 -0.000002 0.804824 -0.593518 3749.dat
1 0 48.059740 -166.000400 119.113700 -1.000000 0.000000 0.000000 0.000000 1.000001 0.000000 0.000000 0.000000 -1.000001 2780.dat
1 15 58.059750 -198.766500 142.057200 0.000000 -1.000000 -0.000001 -0.573576 -0.000001 0.819154 -0.819155 0.000001 -0.573576 32316.dat
0 STEP
1 72 77.999840 -231.532900 165.000300 0.000001 0.000001 -1.000000 0.804824 -0.593518 0.000000 -0.593518 -0.804824 -0.000001 3648b.dat
1 71 96.999850 -231.532800 165.000200 -0.000001 0.000000 -1.000000 0.593518 0.804823 -0.000001 0.804824 -0.593518 -0.000001 3713.dat
1 72 76.999850 -231.532800 165.000100 -1.000000 0.000001 0.000001 0.000000 0.804824 -0.593518 -0.000002 -0.593518 -0.804824 6587.dat
0 STEP
0 STEP
0 NOFILE
0 FILE SubModel Group 9 Copy Copy Copy
0 SubModel Group 9 Copy Copy Copy
0 Name:  SubModel Group 9 Copy Copy Copy
0 Author:  
0 CustomBrick
0 NumOfBricks:  3
1 72 10.000000 -1.128810 -10.000000 1.000000 0.000000 0.000000 0.000000 0.000000 -1.000000 0.000000 1.000000 0.000000 dch003.dat
1 71 -27.466620 -79.717990 29.427020 1.000000 0.000000 0.000000 0.000000 0.000000 -1.000000 0.000000 1.000000 0.000000 dch004.dat
1 25 7.837010 13.484720 -9.965000 1.000000 0.000000 0.000000 0.000000 0.000000 -1.000000 0.000000 1.000000 0.000000 dch005.dat
0 NOFILE
