0 FILE 扁担舞.io
0 Untitled Model
0 Name:  扁担舞
0 Author:  
0 CustomBrick
0 NumOfBricks:  124
1 1 -19.999540 -32.000000 -19.999990 0.000000 0.000000 1.000000 0.000000 1.000000 0.000000 -1.000000 0.000000 0.000000 3738.dat
1 1 20.000330 -32.000000 -20.000120 0.000000 0.000000 1.000000 0.000000 1.000000 0.000000 -1.000000 0.000000 0.000000 3738.dat
1 1 120.000100 -24.000000 50.000120 1.000000 0.000000 0.000000 0.000000 1.000000 0.000000 0.000000 0.000000 1.000000 3703.dat
0 STEP
1 1 259.999900 -32.000000 -19.999990 0.000000 0.000000 1.000000 0.000000 1.000000 0.000000 -1.000000 0.000000 0.000000 3738.dat
1 1 220.000000 -32.000000 -19.999990 0.000000 0.000000 1.000000 0.000000 1.000000 0.000000 -1.000000 0.000000 0.000000 3738.dat
0 STEP
1 1 120.000000 -24.000000 -90.000000 1.000000 0.000000 0.000000 0.000000 1.000000 0.000000 0.000000 0.000000 1.000000 3703.dat
0 STEP
1 1 219.999900 -56.000000 -70.000000 1.000000 0.000000 0.000000 0.000000 1.000000 0.000000 0.000000 0.000000 1.000000 3700.dat
1 1 239.999900 -56.000000 30.000010 1.000000 0.000000 0.000000 0.000000 1.000000 0.000000 0.000000 0.000000 1.000000 3701.dat
1 1 259.999900 -56.000000 -70.000000 1.000000 0.000000 0.000000 0.000000 1.000000 0.000000 0.000000 0.000000 1.000000 3700.dat
1 1 259.999900 -56.000000 -50.000000 1.000000 0.000000 0.000000 0.000000 1.000000 0.000000 0.000000 0.000000 1.000000 3700.dat
1 1 240.000000 -56.000000 -90.000000 1.000000 0.000000 0.000000 0.000000 1.000000 0.000000 0.000000 0.000000 1.000000 3701.dat
1 1 219.999900 -56.000000 -50.000000 1.000000 0.000000 0.000000 0.000000 1.000000 0.000000 0.000000 0.000000 1.000000 3700.dat
1 1 239.999900 -56.000000 50.000000 1.000000 0.000000 0.000000 0.000000 1.000000 0.000000 0.000000 0.000000 1.000000 3701.dat
1 15 259.999900 -56.000000 10.000000 1.000000 0.000000 0.000000 0.000000 1.000000 0.000000 0.000000 0.000000 1.000000 32064a.dat
1 15 239.999900 -56.000000 -19.999990 1.000000 0.000000 0.000000 0.000000 1.000000 0.000000 0.000000 0.000000 1.000000 3001.dat
1 15 220.000000 -56.000000 10.000000 1.000000 0.000000 0.000000 0.000000 1.000000 0.000000 0.000000 0.000000 1.000000 32064a.dat
0 STEP
1 1 0.000340 -56.000000 -90.000110 1.000000 0.000000 0.000000 0.000000 1.000000 0.000000 0.000000 0.000000 1.000000 3701.dat
1 1 0.000460 -56.000000 50.000000 1.000000 0.000000 0.000000 0.000000 1.000000 0.000000 0.000000 0.000000 1.000000 3701.dat
1 1 0.000460 -56.000000 30.000010 1.000000 0.000000 0.000000 0.000000 1.000000 0.000000 0.000000 0.000000 1.000000 3701.dat
1 1 0.000460 -56.000000 -50.000000 1.000000 0.000000 0.000000 0.000000 1.000000 0.000000 0.000000 0.000000 1.000000 3701.dat
1 1 0.000460 -56.000000 -70.000000 1.000000 0.000000 0.000000 0.000000 1.000000 0.000000 0.000000 0.000000 1.000000 3701.dat
1 15 -19.999540 -56.000000 10.000000 1.000000 0.000000 0.000000 0.000000 1.000000 0.000000 0.000000 0.000000 1.000000 32064a.dat
1 15 0.000460 -56.000000 -19.999990 1.000000 0.000000 0.000000 0.000000 1.000000 0.000000 0.000000 0.000000 1.000000 3001.dat
1 15 20.000330 -56.000000 9.999880 1.000000 0.000000 0.000000 0.000000 1.000000 0.000000 0.000000 0.000000 1.000000 32064a.dat
0 STEP
1 0 260.000000 -14.000000 -99.999950 0.000000 0.000000 -1.000000 0.000000 1.000000 0.000000 1.000000 0.000000 0.000000 2780.dat
1 0 -19.999970 -14.000000 -100.000000 0.000000 0.000000 -1.000000 0.000000 1.000000 0.000000 1.000000 0.000000 0.000000 2780.dat
0 STEP
1 15 120.000000 -14.000120 -109.999800 0.000001 0.000001 -1.000000 -1.000000 0.000001 -0.000001 0.000001 1.000000 0.000001 64871.dat
0 STEP
1 15 -9.999539 -80.000000 50.000000 0.000000 0.000000 1.000000 0.000000 1.000000 0.000000 -1.000000 0.000000 0.000000 3040b.dat
1 15 -9.999660 -80.000000 -90.000110 0.000000 0.000000 1.000000 0.000000 1.000000 0.000000 -1.000000 0.000000 0.000000 3040b.dat
0 STEP
1 0 120.000100 -14.000110 -119.999800 0.000000 0.000000 -1.000000 0.000000 1.000000 0.000000 1.000000 0.000000 0.000000 2780.dat
1 4 120.000000 -14.000110 -129.999800 0.000000 0.000000 -1.000000 0.000000 -1.000000 0.000000 -1.000000 0.000000 0.000000 32034.dat
0 STEP
1 19 140.000000 -13.999980 -80.000110 -0.000001 1.000000 -0.000001 0.000001 0.000001 1.000000 1.000000 0.000001 -0.000001 3749.dat
1 0 139.999900 -54.000020 -80.000000 0.000000 0.000000 -1.000000 0.000000 1.000000 0.000000 1.000000 0.000000 0.000000 2780.dat
1 19 139.999900 -94.000030 -81.500110 -0.000001 1.000000 -0.000001 0.000001 0.000001 1.000000 1.000000 0.000001 -0.000001 3749.dat
1 19 100.000200 -13.999980 -80.000000 -0.000001 1.000000 -0.000001 0.000001 0.000001 1.000000 1.000000 0.000001 -0.000001 3749.dat
1 15 139.999900 -114.000000 -91.500110 -1.000000 0.000001 -0.000001 0.000001 0.000001 -1.000000 -0.000001 -1.000000 -0.000001 32524.dat
1 72 140.000000 -14.000000 -75.000000 -1.000000 0.000001 -0.000001 0.000001 0.000001 -1.000000 -0.000001 -1.000000 -0.000001 32250.dat
0 STEP
1 72 140.000000 -53.999970 -65.000120 0.000000 0.000000 -1.000000 1.000000 0.000000 0.000000 0.000000 -1.000000 0.000000 99773.dat
0 STEP
1 19 100.000200 -13.999980 40.000000 0.000001 -1.000000 0.000001 0.000001 0.000001 1.000000 -1.000000 -0.000001 0.000001 3749.dat
1 0 140.000000 -53.999960 39.999880 0.000000 0.000000 -1.000000 0.000000 1.000000 0.000000 1.000000 0.000000 0.000000 2780.dat
1 19 140.000000 -13.999980 40.000120 0.000001 -1.000000 0.000001 0.000001 0.000001 1.000000 -1.000000 -0.000001 0.000001 3749.dat
1 19 139.999900 -93.999980 40.059880 0.000001 -1.000000 0.000001 0.000001 0.000001 1.000000 -1.000000 -0.000001 0.000001 3749.dat
1 72 140.000000 -13.999980 35.000010 -1.000000 0.000001 -0.000001 0.000001 0.000001 -1.000000 -0.000001 -1.000000 -0.000001 32250.dat
0 STEP
1 72 139.999900 -53.999970 23.210030 0.000000 0.000000 -1.000000 1.000000 0.000000 0.000000 0.000000 -1.000000 0.000000 99773.dat
0 STEP
1 0 260.000100 -14.000000 60.000070 0.000000 0.000000 -1.000000 0.000000 1.000000 0.000000 1.000000 0.000000 0.000000 2780.dat
1 0 -19.999850 -14.000000 60.000070 0.000000 0.000000 -1.000000 0.000000 1.000000 0.000000 1.000000 0.000000 0.000000 2780.dat
0 STEP
1 0 120.000000 -14.000020 80.000180 0.000000 0.000000 -1.000000 0.000000 1.000000 0.000000 1.000000 0.000000 0.000000 2780.dat
1 15 120.000000 -14.000020 70.000180 0.000001 0.000001 -1.000000 -1.000000 0.000001 -0.000001 0.000001 1.000000 0.000001 64871.dat
0 STEP
1 4 120.000000 -14.000020 90.000200 0.000000 0.000000 -1.000000 0.000000 -1.000000 0.000000 -1.000000 0.000000 0.000000 32034.dat
0 STEP
1 15 249.999900 -80.000000 49.999940 0.000000 0.000000 -1.000000 0.000000 1.000000 0.000000 1.000000 0.000000 0.000000 3040b.dat
1 15 250.000000 -80.000000 -90.000000 0.000000 0.000000 -1.000000 0.000000 1.000000 0.000000 1.000000 0.000000 0.000000 3040b.dat
0 STEP
1 0 139.999800 -174.000000 -81.500240 0.000000 0.000000 -1.000000 0.000000 1.000000 0.000000 1.000000 0.000000 0.000000 2780.dat
1 0 139.999900 -114.000000 -101.500100 0.000000 0.000000 -1.000000 0.000000 1.000000 0.000000 1.000000 0.000000 0.000000 2780.dat
1 1 139.999800 -154.000000 -91.500240 0.000000 0.000000 -1.000000 0.000000 1.000000 0.000000 1.000000 0.000000 0.000000 6558.dat
0 STEP
1 15 139.999800 -174.000000 -71.500240 1.000000 -0.000001 0.000001 -0.000001 -0.000001 1.000000 -0.000001 -1.000000 -0.000001 32316.dat
1 71 139.999700 -134.000200 -28.080200 0.000000 0.000000 1.000000 0.000000 1.000000 0.000000 -1.000000 0.000000 0.000000 60485.dat
0 STEP
1 15 140.000000 -453.943000 -53.000000 1.000000 0.000000 0.000000 0.000000 1.000000 0.000000 0.000000 0.000000 1.000000 xpj0113.dat.dat
1 71 139.999700 -134.000200 -30.780210 1.000000 0.000000 0.000001 0.000000 1.000000 0.000000 -0.000001 0.000000 1.000000 3713.dat
1 14 139.999700 -134.000200 -55.280200 0.000000 1.000000 0.000000 1.000000 0.000000 0.000000 0.000000 0.000000 -1.000000 32123a.dat
1 14 139.999700 -134.000200 -45.210200 0.000000 -1.000000 0.000000 -1.000000 0.000000 0.000000 0.000000 0.000000 -1.000000 32123a.dat
0 STEP
1 71 139.999700 -134.000200 9.129889 1.000000 0.000000 0.000001 0.000000 1.000000 0.000000 -0.000001 0.000000 1.000000 3713.dat
1 71 139.999700 -134.000200 -11.250230 1.000000 0.000000 0.000001 0.000000 1.000000 0.000000 -0.000001 0.000000 1.000000 3713.dat
0 STEP
1 0 139.999800 -154.000000 40.059880 0.000000 0.000000 -1.000000 0.000000 1.000000 0.000000 1.000000 0.000000 0.000000 2780.dat
1 0 139.999800 -174.000000 40.059880 0.000000 0.000000 -1.000000 0.000000 1.000000 0.000000 1.000000 0.000000 0.000000 2780.dat
1 15 139.999800 -174.000000 30.059760 -1.000000 0.000001 -0.000001 -0.000001 0.000000 1.000000 0.000001 1.000000 0.000001 32316.dat
0 STEP
1 15 139.999800 -114.000000 50.059760 1.000000 -0.000001 0.000001 -0.000001 -0.000001 1.000000 -0.000001 -1.000000 -0.000001 32524.dat
0 STEP
1 71 139.999800 -134.000000 -101.500300 -1.000000 0.000000 0.000000 0.000000 1.000000 0.000000 0.000000 0.000000 -1.000000 58120.dat
0 STEP
1 0 139.999800 -214.000000 -81.500110 0.000000 0.000000 -1.000000 0.000000 1.000000 0.000000 1.000000 0.000000 0.000000 2780.dat
1 0 139.999800 -194.000000 -81.500240 0.000000 0.000000 -1.000000 0.000000 1.000000 0.000000 1.000000 0.000000 0.000000 2780.dat
1 0 139.999800 -214.000000 40.059760 0.000000 0.000000 -1.000000 0.000000 1.000000 0.000000 1.000000 0.000000 0.000000 2780.dat
1 0 139.999800 -194.000000 40.059760 0.000000 0.000000 -1.000000 0.000000 1.000000 0.000000 1.000000 0.000000 0.000000 2780.dat
0 STEP
1 15 139.999700 -294.000000 -91.500240 -1.000000 0.000001 -0.000001 0.000001 0.000001 -1.000000 -0.000001 -1.000000 -0.000001 64290.dat
1 15 139.999800 -294.000000 50.059700 -1.000000 0.000001 -0.000001 0.000001 0.000001 -1.000000 -0.000001 -1.000000 -0.000001 64290.dat
0 STEP
1 0 139.999700 -394.000200 40.059510 0.000000 0.000000 -1.000000 0.000000 1.000000 0.000000 1.000000 0.000000 0.000000 2780.dat
1 0 139.999700 -354.000200 40.059510 0.000000 0.000000 -1.000000 0.000000 1.000000 0.000000 1.000000 0.000000 0.000000 2780.dat
1 0 139.999700 -394.000000 -81.500240 0.000000 0.000000 -1.000000 0.000000 1.000000 0.000000 1.000000 0.000000 0.000000 2780.dat
1 0 139.999700 -354.000000 -81.500240 0.000000 0.000000 -1.000000 0.000000 1.000000 0.000000 1.000000 0.000000 0.000000 2780.dat
0 STEP
1 15 139.999700 -394.000200 -71.500240 1.000000 -0.000001 0.000001 -0.000001 -0.000001 1.000000 -0.000001 -1.000000 -0.000001 32316.dat
1 15 139.999700 -394.000000 30.059520 -1.000000 0.000001 -0.000001 0.000001 0.000001 -1.000000 -0.000001 -1.000000 -0.000001 32316.dat
0 STEP
1 0 139.999800 -294.000000 60.059700 0.000000 0.000000 -1.000000 0.000000 1.000000 0.000000 1.000000 0.000000 0.000000 2780.dat
1 0 139.999700 -274.000000 -101.500200 0.000000 0.000000 -1.000000 0.000000 1.000000 0.000000 1.000000 0.000000 0.000000 2780.dat
0 STEP
1 4 139.999800 -294.000000 70.059640 0.000000 0.000000 -1.000000 0.000000 -1.000000 0.000000 -1.000000 0.000000 0.000000 32034.dat
1 4 139.999700 -274.000000 -111.500200 0.000000 0.000000 -1.000000 0.000000 -1.000000 0.000000 -1.000000 0.000000 0.000000 32034.dat
0 STEP
1 0 139.999700 -414.000200 -81.500110 0.000000 0.000000 -1.000000 0.000000 1.000000 0.000000 1.000000 0.000000 0.000000 2780.dat
1 0 139.999700 -434.000200 -81.500110 0.000000 0.000000 -1.000000 0.000000 1.000000 0.000000 1.000000 0.000000 0.000000 2780.dat
1 0 139.999500 -434.000000 40.059390 0.000000 0.000000 -1.000000 0.000000 1.000000 0.000000 1.000000 0.000000 0.000000 2780.dat
1 0 139.999700 -414.000000 40.059510 0.000000 0.000000 -1.000000 0.000000 1.000000 0.000000 1.000000 0.000000 0.000000 2780.dat
0 STEP
1 15 139.999500 -514.000100 -91.500240 -1.000000 0.000001 -0.000001 0.000001 0.000001 -1.000000 -0.000001 -1.000000 -0.000001 64290.dat
1 15 139.999500 -514.000000 50.059320 -1.000000 0.000001 -0.000001 0.000001 0.000001 -1.000000 -0.000001 -1.000000 -0.000001 64290.dat
0 STEP
1 0 139.999700 -613.999900 -19.390800 0.000000 0.689597 0.724194 0.000000 0.724194 -0.689597 -1.000000 0.000000 0.000000 3737.dat
1 71 139.999600 -614.000100 32.489510 0.724194 0.689597 0.000001 -0.689597 0.724194 0.000000 -0.000001 0.000000 1.000000 3713.dat
1 71 139.999500 -614.000100 -70.020500 0.724194 0.689597 0.000001 -0.689597 0.724194 0.000000 -0.000001 0.000000 1.000000 3713.dat
1 71 139.999500 -614.000100 -112.560500 0.724194 0.689597 0.000001 -0.689597 0.724194 0.000000 -0.000001 0.000000 1.000000 3713.dat
0 STEP
1 0 111.297400 -600.477200 80.879390 0.000000 0.689597 -0.724194 0.000000 0.724194 0.689597 1.000000 0.000000 0.000000 2780.dat
1 0 125.169600 -586.070100 80.879390 0.000000 0.689597 -0.724194 0.000000 0.724194 0.689597 1.000000 0.000000 0.000000 2780.dat
1 71 139.999500 -614.000000 70.879390 0.724194 -0.689597 0.000000 -0.689597 -0.724194 0.000000 0.000000 0.000000 -1.000000 3649.dat
0 STEP
1 1 146.245400 -578.599500 90.879410 0.693617 -0.720344 0.000000 0.720344 0.693617 0.000000 0.000000 0.000000 1.000000 3894.dat
1 71 166.786600 -542.849700 100.879300 0.000000 -0.197689 -0.980265 0.000000 0.980265 -0.197689 1.000000 0.000000 0.000000 3673.dat
0 STEP
1 0 139.999700 -454.000000 -24.830070 0.000000 0.000000 1.000000 0.000000 1.000000 0.000000 -1.000000 0.000000 0.000000 3708.dat
1 71 139.999800 -454.000000 29.409920 1.000000 0.000000 0.000001 0.000000 1.000000 0.000000 -0.000001 0.000000 1.000000 3713.dat
1 71 139.999700 -454.000000 -71.500110 1.000000 0.000000 0.000001 0.000000 1.000000 0.000000 -0.000001 0.000000 1.000000 3713.dat
1 71 139.999700 -454.000000 -54.480220 1.000000 0.000000 0.000000 0.000000 1.000000 0.000000 0.000000 0.000000 1.000000 4185.dat
0 STEP
1 71 139.999700 -454.000000 71.149780 1.000000 0.000000 0.000001 0.000000 1.000000 0.000000 -0.000001 0.000000 1.000000 3713.dat
1 71 139.999800 -454.000000 -132.310100 1.000000 0.000000 0.000001 0.000000 1.000000 0.000000 -0.000001 0.000000 1.000000 3713.dat
1 71 139.999700 -454.000000 -111.600200 1.000000 0.000000 0.000001 0.000000 1.000000 0.000000 -0.000001 0.000000 1.000000 3713.dat
0 STEP
1 71 139.999700 -454.000100 90.939960 0.000000 -1.000000 0.000000 1.000000 0.000000 0.000000 0.000000 0.000000 1.000000 3649.dat
1 71 149.999700 -424.000100 100.939900 0.000000 -0.173648 0.984808 0.000000 0.984808 0.173648 -1.000000 0.000000 0.000000 3673.dat
0 STEP
1 15 158.083200 -483.484300 110.879300 -0.989423 0.000001 -0.145057 -0.145057 0.000001 0.989423 0.000001 1.000000 -0.000001 32524.dat
0 STEP
1 0 154.829300 -641.929800 80.879390 0.000000 0.000000 -1.000000 0.000000 1.000000 0.000000 1.000000 0.000000 0.000000 2780.dat
1 0 168.621300 -627.446000 80.879390 0.000000 0.000000 -1.000000 0.000000 1.000000 0.000000 1.000000 0.000000 0.000000 2780.dat
0 STEP
1 1 175.931800 -634.269200 90.879410 0.682323 -0.731051 0.000000 0.731051 0.682323 0.000000 0.000000 0.000000 1.000000 3702.dat
0 STEP
1 19 195.914200 -598.203900 100.879400 0.000001 0.715285 -0.698833 0.000001 0.698833 0.715285 1.000000 -0.000001 0.000000 3749.dat
1 0 210.332400 -584.343200 100.879500 0.000000 0.000000 -1.000000 0.000000 1.000000 0.000000 1.000000 0.000000 0.000000 2780.dat
1 0 127.300700 -670.943700 100.879600 -0.000001 0.707108 -0.707105 0.000000 0.707105 0.707108 1.000000 0.000001 0.000000 2780.dat
1 19 141.328300 -656.688000 100.879500 -0.000001 0.707106 0.707108 0.000001 -0.707108 0.707106 1.000000 0.000002 0.000000 3749.dat
0 STEP
1 1 343.186900 -589.791700 110.879400 -0.160909 0.000001 -0.986969 -0.986970 0.000000 0.160909 0.000000 1.000000 0.000001 32271.dat
1 1 131.203000 -803.852700 110.879600 0.988775 0.000002 -0.149414 0.149414 -0.000001 0.988775 0.000002 -1.000000 -0.000001 32271.dat
0 STEP
1 4 131.203000 -803.852700 122.329600 0.000000 -0.149414 -0.988775 0.000001 0.988775 -0.149414 1.000000 -0.000001 0.000000 32062.dat
1 4 343.186900 -589.791700 118.149400 0.000001 0.160909 -0.986969 0.000000 0.986969 0.160909 1.000000 0.000000 0.000001 32062.dat
0 STEP
1 72 343.186900 -589.791700 129.959400 0.986969 0.160909 0.000001 -0.160909 0.986969 0.000000 -0.000001 0.000000 1.000000 3648b.dat
1 72 131.203000 -803.852700 139.049600 0.988775 -0.149414 0.000000 0.149414 0.988775 0.000000 0.000000 0.000000 1.000000 3648b.dat
0 STEP
1 16 95.000000 0.000000 -468.000000 0.000000 0.000000 -1.000000 0.000000 1.000000 0.000000 1.000000 0.000000 0.000000 submodel group 9 copy copy copy
0 STEP
0 STEP
0 NOFILE
0 FILE SubModel Group 9 Copy Copy Copy
0 SubModel Group 9 Copy Copy Copy
0 Name:  SubModel Group 9 Copy Copy Copy
0 Author:  
0 CustomBrick
0 NumOfBricks:  3
1 72 10.000000 -1.128810 -10.000000 1.000000 0.000000 0.000000 0.000000 0.000000 -1.000000 0.000000 1.000000 0.000000 dch003.dat
1 71 -27.466620 -79.717990 29.427020 1.000000 0.000000 0.000000 0.000000 0.000000 -1.000000 0.000000 1.000000 0.000000 dch004.dat
1 25 7.837010 13.484720 -9.965000 1.000000 0.000000 0.000000 0.000000 0.000000 -1.000000 0.000000 1.000000 0.000000 dch005.dat
0 NOFILE
