0 FILE 绘图仪.io
0 Untitled Model
0 Name:  绘图仪
0 Author:  
0 CustomBrick
0 NumOfBricks:  139
1 15 -234.000000 -42.000120 -182.999800 0.000001 0.000001 -1.000000 0.000001 1.000000 0.000001 1.000000 -0.000001 0.000001 64871.dat
1 15 -374.000100 -21.999860 -42.999700 1.000000 -0.000001 0.000001 0.000001 1.000000 0.000001 -0.000001 -0.000001 1.000000 64871.dat
1 15 -234.000000 -41.999860 97.000240 0.000001 0.000001 -1.000000 0.000001 1.000000 0.000001 1.000000 -0.000001 0.000001 64871.dat
1 15 -93.999880 -22.000110 -43.000020 1.000000 -0.000001 0.000001 -0.000001 -1.000000 -0.000001 0.000001 0.000001 -1.000000 64871.dat
0 STEP
1 4 -93.999880 -42.000260 -182.999800 -0.000001 1.000000 -0.000001 1.000000 0.000001 -0.000001 -0.000001 -0.000001 -1.000000 32054.dat
1 4 -374.000100 -42.000000 -182.999500 -0.000001 1.000000 -0.000001 1.000000 0.000001 -0.000001 -0.000001 -0.000001 -1.000000 32054.dat
1 4 -373.999900 -41.999720 97.000240 -0.000001 1.000000 -0.000001 1.000000 0.000001 -0.000001 -0.000001 -0.000001 -1.000000 32054.dat
1 4 -93.999880 -42.000000 97.000000 -0.000001 1.000000 -0.000001 1.000000 0.000001 -0.000001 -0.000001 -0.000001 -1.000000 32054.dat
0 STEP
1 0 -174.000000 -52.000180 -182.999800 0.000000 0.000000 -1.000000 1.000000 0.000000 0.000000 0.000000 -1.000000 0.000000 2780.dat
1 0 -193.999900 -52.000180 -182.999500 0.000000 0.000000 -1.000000 1.000000 0.000000 0.000000 0.000000 -1.000000 0.000000 2780.dat
1 1 -234.000000 -62.000220 -182.999800 1.000000 0.000000 0.000000 0.000000 -1.000000 0.000000 0.000000 0.000000 -1.000000 32009.dat
0 STEP
1 0 -233.999900 -52.000230 -42.999700 0.000000 0.000000 -1.000000 1.000000 0.000000 0.000000 0.000000 -1.000000 0.000000 2780.dat
1 0 -233.999900 -52.000220 -82.999740 0.000000 0.000000 -1.000000 1.000000 0.000000 0.000000 0.000000 -1.000000 0.000000 2780.dat
1 15 -233.999900 -42.000280 -2.999700 -1.000000 0.000001 -0.000001 -0.000001 -1.000000 -0.000001 -0.000001 -0.000001 1.000000 40490.dat
0 STEP
1 0 -233.999400 -52.000340 77.000300 0.000000 1.000000 0.000000 1.000000 0.000000 0.000000 0.000000 0.000000 -1.000000 2780.dat
1 0 -234.000100 -52.000340 57.000300 0.000000 1.000002 0.000000 1.000000 0.000000 0.000000 0.000000 0.000000 -1.000000 2780.dat
1 0 -234.000400 -52.000490 97.000000 0.000000 0.000000 -1.000000 1.000000 0.000000 0.000000 0.000000 -1.000000 0.000000 2780.dat
1 0 -213.999900 -51.999880 97.000430 0.000000 0.000000 -1.000000 1.000000 0.000000 0.000000 0.000000 -1.000000 0.000000 2780.dat
1 1 -233.999900 -61.999840 37.000550 1.000000 -0.000001 -0.000001 0.000001 1.000000 -0.000001 0.000001 0.000001 1.000000 32140.dat
0 STEP
1 71 -93.999880 -82.000240 -182.999800 0.000000 1.000000 0.000000 -0.000001 0.000000 1.000000 1.000000 0.000000 0.000001 3713.dat
1 71 -93.999880 -82.000240 -182.999800 0.000000 0.000000 1.000000 1.000000 0.000000 0.000000 0.000000 1.000000 0.000000 4519.dat
1 71 -374.000100 -82.919980 -182.999500 0.000000 1.000000 0.000000 -0.000001 0.000000 1.000000 1.000000 0.000000 0.000001 3713.dat
1 71 -374.000100 -82.919980 -182.999500 0.000000 -0.000001 -1.000000 -1.000000 0.000000 0.000000 0.000000 1.000000 -0.000001 4519.dat
0 STEP
1 4 -93.999880 -122.000300 -182.999900 -0.000001 -0.000001 -1.000000 -1.000000 -0.000001 0.000001 -0.000001 1.000000 -0.000001 32054.dat
1 4 -374.000100 -122.920000 -182.999500 -0.000001 -0.000001 -1.000000 -1.000000 -0.000001 0.000001 -0.000001 1.000000 -0.000001 32054.dat
0 STEP
1 15 -153.999800 -41.999950 77.000110 0.000001 0.000001 -1.000000 0.000001 1.000000 0.000001 1.000000 -0.000001 0.000001 32524.dat
1 4 -93.999880 -42.000020 77.000000 -0.000001 1.000000 -0.000001 1.000000 0.000001 -0.000001 -0.000001 -0.000001 -1.000000 32054.dat
0 STEP
1 0 -93.999810 -32.000170 -103.000000 0.000000 0.000000 -1.000000 1.000000 0.000000 0.000000 0.000000 -1.000000 0.000000 2780.dat
1 0 -93.999770 -32.000210 -143.000000 0.000000 0.000000 -1.000000 -1.000000 0.000000 0.000000 -0.000001 1.000000 0.000000 2780.dat
0 STEP
1 16 -55.999720 -72.000360 -53.564340 0.999999 0.000000 0.000000 0.000000 0.000000 -0.999990 0.000000 0.999991 0.000000 submodel group 9 copy copy copy
0 STEP
1 0 107.000000 -31.270290 -103.000000 0.000000 0.000000 -1.000000 1.000000 0.000000 0.000000 0.000000 -1.000000 0.000000 2780.dat
1 0 107.000000 -31.000000 -143.000000 0.000000 -1.000000 0.000000 -1.000000 0.000000 0.000000 0.000000 0.000000 -1.000000 2780.dat
1 15 107.000000 -21.000020 -123.000000 -1.000000 0.000001 -0.000001 -0.000001 -1.000000 -0.000001 -0.000001 -0.000001 1.000000 32524.dat
0 STEP
1 16 -225.882200 -13.939800 39.201960 1.000000 0.000000 0.000000 0.000000 1.000000 0.000000 0.000000 0.000000 1.000000 submodel group 4
0 STEP
1 71 -213.999900 -23.079810 77.000110 0.000000 1.000000 0.000000 -0.000001 0.000000 1.000000 1.000000 0.000000 0.000001 3713.dat
0 STEP
1 19 -233.999900 -72.000200 -142.999800 -0.000001 1.000000 -0.000001 -1.000000 -0.000001 0.000001 0.000001 0.000001 1.000000 3749.dat
1 4 -254.000000 -83.380200 -142.999800 0.000000 -1.000000 0.000000 1.000000 0.000000 0.000000 0.000000 0.000000 1.000000 42003.dat
0 STEP
1 19 -254.000100 -52.000110 -182.999800 -0.000001 1.000000 -0.000001 -1.000000 -0.000001 0.000001 0.000001 0.000001 1.000000 3749.dat
1 19 -314.000000 -52.000070 -182.999500 -0.000001 1.000000 -0.000001 -1.000000 -0.000001 0.000001 0.000001 0.000001 1.000000 3749.dat
1 19 -294.000000 -52.000060 -182.999700 -0.000001 1.000000 -0.000001 -1.000000 -0.000001 0.000001 0.000001 0.000001 1.000000 3749.dat
0 STEP
1 0 -254.000100 -82.000110 -182.999800 0.000002 -1.000000 -0.000002 0.000002 0.000002 -1.000000 1.000000 0.000002 0.000002 32013.dat
1 0 -314.000000 -82.000040 -182.999500 0.000002 -1.000000 -0.000002 0.000002 0.000002 -1.000000 1.000000 0.000002 0.000002 32013.dat
1 19 -313.999900 -82.000020 -192.999500 0.000001 -1.000000 0.000001 0.000001 0.000001 1.000000 -1.000000 -0.000001 0.000001 3749.dat
1 0 -294.000200 -82.000140 -193.009800 0.000000 0.000000 -1.000000 0.000000 1.000000 0.000000 1.000000 0.000000 0.000000 2780.dat
1 0 -294.000300 -82.000170 -183.009800 0.000002 -1.000000 -0.000002 0.000002 0.000002 -1.000000 1.000000 0.000002 0.000002 32013.dat
0 STEP
1 0 -254.000300 -82.000220 -162.579700 1.000000 0.000000 0.000000 0.000000 -1.000000 0.000000 0.000000 0.000000 -1.000000 32270.dat
1 0 -254.000200 -82.000200 -154.389800 0.000000 0.000000 1.000000 0.000000 1.000000 0.000000 -1.000000 0.000000 0.000000 3707.dat
0 STEP
1 1 -314.000200 -82.000140 -203.009800 0.000001 0.000001 1.000000 1.000000 -0.000001 -0.000001 0.000001 1.000000 -0.000001 32140.dat
1 0 -274.000200 -82.000220 -213.009800 0.000000 0.000000 -1.000000 0.000000 1.000000 0.000000 1.000000 0.000000 0.000000 2780.dat
1 0 -254.000200 -62.000240 -213.009800 0.000000 0.000000 -1.000000 0.000000 1.000000 0.000000 1.000000 0.000000 0.000000 2780.dat
0 STEP
1 15 -109.000000 -43.000000 -291.000000 1.000000 0.000000 0.000000 0.000000 1.000000 0.000000 0.000000 0.000000 1.000000 dj-001.dat
0 STEP
1 15 -233.999900 -122.000400 -183.000200 0.000001 0.000001 -1.000000 -0.000001 -1.000000 -0.000001 -1.000000 0.000001 -0.000001 64871.dat
1 0 -253.991000 -101.170500 -182.992300 0.500004 -0.866013 0.000000 0.000000 0.000000 0.999992 -0.866029 -0.499994 0.000000 32270.dat
1 71 -254.000100 -123.670400 -182.999900 0.000000 -0.500001 -0.866025 -1.000000 0.000000 0.000000 0.000000 0.866025 -0.500001 4519.dat
1 72 -254.000100 -141.480500 -182.999900 0.500001 -0.866025 0.000000 0.000000 0.000000 1.000000 -0.866025 -0.500001 0.000000 3647.dat
0 STEP
1 19 -113.999900 -132.000300 -183.000100 -0.000001 1.000000 -0.000001 -1.000000 -0.000001 0.000001 0.000001 0.000001 1.000000 3749.dat
1 71 -113.999900 -142.000300 -183.000000 0.000001 -0.000001 1.000000 -0.000001 1.000000 0.000001 -1.000000 -0.000001 0.000001 60483.dat
1 19 -313.999900 -132.000500 -183.000400 -0.000001 0.000000 1.000000 -1.000000 -0.000001 -0.000001 0.000001 -1.000000 0.000000 3749.dat
0 STEP
1 19 -283.705900 -150.570600 -192.610200 -0.000002 0.996194 0.087155 -1.000001 -0.000002 0.000000 0.000000 -0.087156 0.996195 3749.dat
1 71 -314.000000 -142.000500 -183.000400 1.000000 0.000001 0.000000 0.000000 -0.000001 1.000000 0.000001 -1.000000 -0.000001 3649.dat
0 STEP
1 71 -173.999900 -142.000300 -182.999800 -0.193931 0.981015 0.000000 -0.000001 0.000000 1.000000 0.981015 0.193931 0.000001 3713.dat
1 71 -173.999900 -162.000400 -182.999800 -0.193931 0.981015 0.000000 -0.000001 0.000000 1.000000 0.981015 0.193931 0.000001 3713.dat
1 71 -173.999900 -142.000400 -183.000100 0.000000 0.981015 0.193931 1.000000 0.000000 0.000000 0.000000 0.193931 -0.981015 32073.dat
1 71 -283.703200 -170.570600 -192.610700 -0.087156 -0.996195 0.000001 0.000000 0.000001 1.000001 -0.996195 0.087157 0.000000 59443.dat
0 STEP
1 4 -283.706100 -190.570600 -192.610100 0.000000 -0.996195 0.087156 1.000001 0.000000 -0.000001 0.000001 0.087157 0.996195 32062.dat
1 4 -174.549500 -182.520200 -183.823900 -0.135414 0.990789 -0.000001 -0.000001 0.000000 1.000000 0.990790 0.135414 0.000001 32039.dat
1 4 -283.797600 -202.520500 -193.656300 -0.087156 -0.996195 -0.000001 0.000001 -0.000001 1.000000 -0.996195 0.087156 0.000001 32039.dat
1 71 -281.091900 -222.523500 -162.724900 -0.996195 0.000001 -0.087157 0.000000 1.000000 0.000001 0.087157 0.000001 -0.996195 59443.dat
1 4 -282.835000 -222.520600 -182.648900 0.087156 0.000001 -0.996195 -0.000001 1.000001 0.000000 0.996195 0.000001 0.087157 32062.dat
0 STEP
1 0 -185.392000 -202.520300 -106.500800 -0.135414 -0.000001 -0.990790 -0.000001 1.000000 0.000000 0.990790 0.000001 -0.135415 3708.dat
1 71 -204.817100 -212.520300 26.039780 0.000000 -0.118102 -0.993001 -1.000000 0.000000 0.000000 0.000001 0.993002 -0.118102 3673.dat
1 0 -204.817200 -202.520300 26.039780 0.000003 0.970198 -0.242313 -1.000000 0.000002 -0.000002 -0.000001 0.242313 0.970198 32013.dat
0 STEP
1 4 -244.617000 -222.520200 26.039880 0.000000 -0.000001 1.000000 -0.000001 -1.000000 -0.000001 1.000000 -0.000001 0.000000 32039.dat
1 4 -234.817100 -222.520300 26.040000 1.000000 0.000000 -0.000001 -0.000001 0.000000 -1.000000 0.000000 1.000000 0.000000 32062.dat
1 0 -204.817100 -222.520300 26.039880 0.000001 0.000000 1.000000 1.000000 0.000000 -0.000001 0.000000 1.000000 0.000000 32013.dat
0 STEP
1 0 -270.218300 -222.521200 -38.438940 0.087156 0.000001 -0.996195 -0.000001 1.000001 0.000000 0.996195 0.000001 0.087156 3708.dat
1 4 -260.742800 -242.521300 69.867470 0.087156 -0.996195 -0.000001 -0.000001 0.000001 -1.000000 0.996195 0.087156 -0.000001 32039.dat
1 4 -262.482400 -242.521500 49.942400 0.087156 -0.996192 -0.000001 -0.000001 0.000001 -0.999996 0.996197 0.087156 -0.000001 32039.dat
0 STEP
1 0 -262.486900 -332.521500 49.943560 0.000000 -0.996196 -0.087156 -1.000001 0.000000 0.000001 -0.000001 0.087156 -0.996195 3737.dat
1 0 -260.743700 -332.521400 69.867450 0.000000 -0.996196 -0.087156 -1.000001 0.000000 0.000001 -0.000001 0.087156 -0.996195 3737.dat
0 STEP
1 16 -213.999600 -127.060100 76.998620 1.000000 0.000000 0.000000 0.000000 1.000000 0.000000 0.000000 0.000000 1.000000 submodel group 3
0 STEP
1 16 -262.841500 -255.315600 90.332590 1.000000 0.000000 0.000000 0.000000 1.000000 0.000000 0.000000 0.000000 1.000000 submodel group 2
0 STEP
1 16 -260.999700 -168.545600 108.000700 1.000000 0.000000 0.000000 0.000000 1.000000 0.000000 0.000000 0.000000 1.000000 submodel group 1
0 STEP
0 STEP
0 NOFILE
0 FILE SubModel Group 9 Copy Copy Copy
0 SubModel Group 9 Copy Copy Copy
0 Name:  SubModel Group 9 Copy Copy Copy
0 Author:  
0 CustomBrick
0 NumOfBricks:  3
1 72 10.000000 -1.128810 -10.000000 1.000000 0.000000 0.000000 0.000000 0.000000 -1.000000 0.000000 1.000000 0.000000 dch003.dat
1 71 -27.466620 -79.717990 29.427020 1.000000 0.000000 0.000000 0.000000 0.000000 -1.000000 0.000000 1.000000 0.000000 dch004.dat
1 25 7.837010 13.484720 -9.965000 1.000000 0.000000 0.000000 0.000000 0.000000 -1.000000 0.000000 1.000000 0.000000 dch005.dat
0 NOFILE
0 FILE SubModel Group 4
0 SubModel Group 4
0 Name:  SubModel Group 4
0 Author:  
0 CustomBrick
0 NumOfBricks:  17
1 0 -28.117840 -68.510060 -72.201980 0.000000 0.000000 -1.000002 0.000000 1.000001 0.000000 1.000000 0.000000 0.000000 3705.dat
1 71 -28.117840 -68.512940 -112.201900 -1.000002 0.000000 -0.000001 0.000000 1.000001 0.000000 0.000001 0.000000 -1.000000 59443.dat
0 STEP
1 71 -28.117740 -68.512940 -32.201980 -1.000002 0.000000 -0.000001 0.000000 1.000001 0.000000 0.000001 0.000000 -1.000000 59443.dat
1 0 -28.117630 -68.510060 47.798340 0.000000 0.000000 -1.000002 0.000000 1.000001 0.000000 1.000000 0.000000 0.000000 3707.dat
0 STEP
1 71 -28.117740 -68.510060 38.198240 1.000002 0.000000 0.000000 0.000000 1.000001 0.000000 0.000000 0.000000 1.000000 4716.dat
1 14 -28.117630 -68.510060 12.828240 0.000000 -1.000002 0.000000 -1.000001 0.000000 0.000000 0.000000 0.000000 -1.000000 32123a.dat
1 4 -28.117630 -68.510060 -2.201720 0.000000 -1.000002 0.000000 1.000002 0.000000 0.000000 0.000000 0.000000 1.000000 42003.dat
0 STEP
1 14 -28.117630 -68.510060 62.798240 0.000000 -1.000002 0.000000 -1.000002 0.000000 0.000000 0.000000 0.000000 -1.000000 32123a.dat
1 4 -28.117520 -68.510060 77.798240 0.000000 -1.000002 0.000000 1.000001 0.000000 0.000000 0.000000 0.000000 1.000000 42003.dat
0 STEP
1 0 -8.117539 -58.510060 -2.201720 0.000000 -1.000002 0.000000 1.000001 0.000000 0.000000 0.000000 0.000000 1.000000 3705.dat
1 0 -8.117539 -56.890060 77.798240 0.000000 -1.000002 0.000000 1.000001 0.000000 0.000000 0.000000 0.000000 1.000000 3705.dat
0 STEP
1 72 -8.117630 -93.400310 37.798280 0.000000 0.000000 1.000002 0.000000 1.000001 0.000000 -1.000000 0.000000 0.000000 99773.dat
1 72 -8.117229 -83.510250 37.798340 0.000000 0.000000 1.000000 0.000000 1.000000 0.000000 -1.000000 0.000000 0.000000 99773.dat
0 STEP
1 72 11.882370 -65.260150 37.798280 1.000002 0.000000 0.000000 0.000000 0.000000 1.000001 0.000000 -1.000000 0.000000 3648b.dat
1 71 11.882460 -47.850080 37.798280 0.000000 1.000002 0.000000 -0.000001 0.000000 1.000001 1.000000 0.000000 0.000001 3713.dat
1 0 11.882370 -60.000060 37.798280 0.000000 1.000002 0.000000 1.000001 0.000000 0.000000 0.000000 0.000000 -1.000000 3706.dat
0 STEP
1 15 11.882370 -101.120300 37.798280 -1.000002 0.000000 0.000000 0.000000 -1.000001 0.000000 0.000000 0.000000 1.000000 3941.dat
0 STEP
0 STEP
0 NOFILE
0 FILE SubModel Group 3
0 SubModel Group 3
0 Name:  SubModel Group 3
0 Author:  
0 CustomBrick
0 NumOfBricks:  19
1 1 99.997340 -12.000000 -0.002780 0.000001 0.000000 -0.999999 0.000000 -1.000000 0.000000 -0.999997 0.000000 -0.000001 3738.dat
1 1 -100.003000 -12.000000 -0.000270 0.000000 0.000000 -1.000000 0.000000 -1.000000 0.000000 -0.999999 0.000000 -0.000001 3738.dat
1 1 -59.983060 -12.000090 -100.021000 0.999946 0.000000 0.000000 0.000000 -1.000000 0.000000 0.000000 0.000000 -0.999942 32001.dat
1 1 60.005340 -12.000090 -100.005500 0.999994 0.000000 0.000000 0.000000 -1.000000 0.000000 0.000000 0.000000 -0.999993 32001.dat
1 1 -60.000980 -12.000090 100.004200 0.999999 0.000000 0.000000 0.000000 -1.000000 0.000000 0.000000 0.000000 -0.999998 32001.dat
1 1 59.999840 -12.000090 100.005000 0.999999 0.000000 0.000000 0.000000 -1.000000 0.000000 0.000000 0.000000 -0.999998 32001.dat
0 STEP
1 1 99.998840 -4.000090 -80.001140 0.000000 0.000000 1.000000 0.000000 -1.000000 0.000000 0.999999 0.000000 0.000001 3709b.dat
1 1 -100.003000 -4.000090 -80.001640 0.000000 0.000000 1.000000 0.000000 -1.000000 0.000000 0.999999 0.000000 0.000001 3709b.dat
1 1 99.998940 -4.000090 80.004490 0.000000 0.000000 1.000000 0.000000 -1.000000 0.000000 0.999999 0.000000 0.000001 3709b.dat
1 1 -100.002700 -4.000000 80.003000 0.000000 0.000000 1.000000 0.000000 -1.000000 0.000000 0.999999 0.000000 0.000001 3709b.dat
0 STEP
1 1 -0.000260 -12.000090 0.001390 -1.000000 0.000000 0.000000 0.000000 -1.000000 0.000000 0.000000 0.000000 1.000000 32001.dat
1 1 -0.000370 -4.000090 -100.000700 0.999999 0.000000 0.000001 0.000000 -1.000000 0.000000 0.000001 0.000000 -0.999999 3709b.dat
1 1 0.000530 -4.000090 100.004800 0.999999 0.000000 0.000001 0.000000 -1.000000 0.000000 0.000001 0.000000 -0.999999 3709b.dat
0 STEP
1 1 60.000030 -4.000090 0.001630 -0.999999 0.000000 0.000000 0.000000 -1.000000 0.000000 0.000000 0.000000 0.999999 32001.dat
1 1 -60.000860 -4.000090 0.000110 -1.000000 0.000000 0.000000 0.000000 -1.000000 0.000000 0.000000 0.000000 1.000000 32001.dat
0 STEP
1 1 -120.002200 -20.000000 -110.000500 -0.999999 0.000000 -0.000001 0.000000 -1.000000 0.000000 -0.000001 0.000000 0.999999 3023.dat
1 1 -110.002700 -20.000090 120.004200 0.000000 0.000000 -0.999999 0.000000 -1.000000 0.000000 -0.999999 0.000000 0.000000 3023.dat
1 1 119.998900 -19.999890 110.004700 -0.999999 0.000000 -0.000001 0.000000 -1.000000 0.000000 -0.000001 0.000000 0.999999 3023.dat
1 1 109.998500 -20.000090 -119.999800 0.000000 0.000000 -0.999999 0.000000 -1.000000 0.000000 -0.999999 0.000000 0.000000 3023.dat
0 STEP
0 STEP
0 NOFILE
0 FILE SubModel Group 2
0 SubModel Group 2
0 Name:  SubModel Group 2
0 Author:  
0 CustomBrick
0 NumOfBricks:  8
1 4 0.354490 -12.645810 -20.389030 -1.000000 0.000000 0.000000 0.000000 0.000000 -1.000000 0.000000 -1.000000 0.000000 42003.dat
1 71 -1.735600 -12.645810 -0.389090 -1.000000 0.000000 0.000000 0.000000 1.000000 0.000000 0.000000 0.000000 -1.000000 32073.dat
0 STEP
1 1 19.704700 -12.645810 -0.389090 0.000001 1.000000 -0.000001 -0.000001 -0.000001 -1.000000 -1.000000 0.000001 0.000001 32140.dat
1 0 0.434480 -72.645720 -0.389330 -1.000000 0.000000 0.000000 0.000000 1.000000 0.000000 0.000000 0.000000 -1.000000 3705.dat
0 STEP
1 71 -0.785610 -72.645720 -0.389220 0.000001 0.000000 -1.000000 0.000000 1.000000 0.000000 1.000000 0.000000 0.000001 3713.dat
1 1 -19.655610 -12.645810 -0.389090 0.000001 1.000000 -0.000001 -0.000001 -0.000001 -1.000000 -1.000000 0.000001 0.000001 32140.dat
0 STEP
1 226 0.841490 -60.002320 10.667410 1.000000 0.000000 0.000000 0.000000 1.000000 0.000000 0.000000 0.000000 1.000000 xpj0123.dat
1 226 0.841490 0.254990 11.667410 1.000000 0.000000 0.000000 0.000000 1.000000 0.000000 0.000000 0.000000 1.000000 xpj0123.dat
0 STEP
0 STEP
0 NOFILE
0 FILE SubModel Group 1
0 SubModel Group 1
0 Name:  SubModel Group 1
0 Author:  
0 CustomBrick
0 NumOfBricks:  14
1 19 0.000090 -260.000400 -0.000410 -0.000001 1.000000 -0.000001 1.000000 0.000001 -0.000001 -0.000001 -0.000001 -1.000000 3749.dat
1 1 -0.000310 -270.000500 -0.000410 0.000000 1.000000 0.000000 0.000000 0.000000 1.000000 1.000000 0.000000 0.000000 32184.dat
0 STEP
1 19 0.000180 -220.000400 -0.000410 -0.000001 -0.000001 -1.000000 -1.000000 -0.000001 0.000001 -0.000001 1.000000 -0.000001 3749.dat
1 71 0.000090 -240.000300 0.002490 1.000000 0.000000 0.000001 -0.000001 0.000000 1.000000 0.000000 -1.000000 0.000000 59443.dat
0 STEP
1 71 0.000180 -180.000400 -0.000410 0.000000 0.000000 -1.000000 -1.000000 0.000000 0.000000 0.000000 1.000000 0.000000 3673.dat
1 4 0.000180 -200.000400 -0.000410 0.000000 0.000000 1.000000 -1.000000 0.000000 0.000000 0.000000 -1.000000 0.000000 62462.dat
0 STEP
1 19 0.000180 -139.999900 -0.000210 -0.000001 1.000000 -0.000001 1.000000 0.000001 -0.000001 -0.000001 -0.000001 -1.000000 3749.dat
1 4 0.000310 -159.999900 -0.000410 0.000000 0.000000 1.000000 -1.000000 0.000000 0.000000 0.000000 -1.000000 0.000000 62462.dat
0 STEP
1 15 0.000180 -96.000000 -0.000410 0.000000 0.000000 1.000000 -1.000000 0.000000 0.000000 0.000000 -1.000000 0.000000 3704.dat
1 71 0.000180 -120.000000 0.002390 1.000000 0.000000 0.000001 -0.000001 0.000000 1.000000 0.000000 -1.000000 0.000000 59443.dat
0 STEP
1 1 -0.000310 -75.999900 -0.000510 1.000000 0.000000 0.000000 0.000000 -1.000000 0.000000 0.000000 0.000000 -1.000000 3062b.dat
1 1 -0.000310 -51.999910 -0.000510 1.000000 0.000000 0.000000 0.000000 -1.000000 0.000000 0.000000 0.000000 -1.000000 3062b.dat
1 4 -0.000310 -27.999910 -0.000510 1.000000 0.000000 0.000000 0.000000 -1.000000 0.000000 0.000000 0.000000 -1.000000 3062b.dat
1 4 -0.000310 -4.000000 -0.000510 1.000000 0.000000 0.000000 0.000000 -1.000000 0.000000 0.000000 0.000000 -1.000000 59900.dat
0 STEP
0 STEP
0 NOFILE
