0 Untitled Model
0 Name:  变速箱3
0 Author:  
0 CustomBrick
0 NumOfBricks:  28
1 71 0.000000 -27.000000 -40.520020 0.000000 0.000000 1.000000 0.000000 1.000000 0.000000 -1.000000 0.000000 0.000000 64179.dat
0 STEP
1 0 60.310000 -27.000000 -40.520020 -1.000000 0.000000 0.000000 0.000000 1.000000 0.000000 0.000000 0.000000 -1.000000 3705.dat
1 0 31.659980 -27.000000 -40.520140 0.000000 0.000000 -1.000000 0.000000 -1.000000 0.000000 -1.000000 0.000000 0.000000 32270.dat
1 14 46.430000 -27.000000 -40.520140 0.000000 0.000000 1.000000 0.000000 1.000000 0.000000 -1.000000 0.000000 0.000000 32123a.dat
0 STEP
1 71 0.000000 -27.000000 0.089970 0.000000 -1.000000 0.000000 0.000000 0.000000 1.000000 -1.000000 0.000000 0.000000 4519.dat
1 19 0.000000 -27.000000 -19.910040 1.000000 0.000000 0.000000 0.000000 1.000000 0.000000 0.000000 0.000000 1.000000 32269.dat
0 STEP
1 0 -61.760010 -27.000000 -40.520020 -1.000000 0.000000 0.000000 0.000000 1.000000 0.000000 0.000000 0.000000 -1.000000 3705.dat
1 0 -29.650080 -27.000000 -40.520140 0.000000 0.000000 1.000000 0.000000 1.000000 0.000000 -1.000000 0.000000 0.000000 32270.dat
1 14 -45.340100 -27.000000 -40.520140 0.000000 0.000000 1.000000 0.000000 1.000000 0.000000 -1.000000 0.000000 0.000000 32123a.dat
0 STEP
1 71 0.000000 -27.000010 -80.000000 0.000000 -1.000000 0.000000 0.000000 0.000000 1.000000 -1.000000 0.000000 0.000000 4519.dat
1 19 0.000000 -27.000000 -61.320020 1.000000 0.000000 0.000000 0.000000 1.000000 0.000000 0.000000 0.000000 1.000000 32269.dat
0 STEP
1 0 60.000000 -37.000000 -0.520020 0.000000 0.000000 -1.000000 1.000000 0.000000 0.000000 0.000000 -1.000000 0.000000 2780.dat
1 0 20.000000 -37.000000 -0.520020 0.000000 0.000000 -1.000000 1.000000 0.000000 0.000000 0.000000 -1.000000 0.000000 2780.dat
0 STEP
1 14 48.910890 -53.794280 9.409969 0.000000 0.000000 -1.000000 -1.000000 0.000000 0.000000 0.000000 1.000000 0.000000 12344.dat
0 STEP
1 4 0.000000 -88.094230 -40.790040 0.000000 -1.000000 0.000000 1.000000 0.000000 0.000000 0.000000 0.000000 1.000000 32034.dat
1 4 0.000000 -88.094200 0.209960 0.000000 0.000000 -1.000000 0.000000 1.000000 0.000000 1.000000 0.000000 0.000000 32062.dat
0 STEP
1 71 0.000000 -68.154200 -40.790100 0.000000 1.000000 0.000000 -0.000001 0.000000 1.000000 1.000000 0.000000 0.000001 3713.dat
1 19 0.000000 -51.234210 -40.790040 1.000000 0.000000 0.000001 -0.000001 0.000000 1.000000 0.000000 -1.000000 0.000000 6589.dat
1 71 0.000000 -101.234200 -40.790040 0.000000 1.000000 0.000000 1.000000 0.000000 0.000000 0.000000 0.000000 -1.000000 32073.dat
0 STEP
1 14 0.000000 -103.894200 -40.790040 1.000000 0.000000 0.000000 0.000000 0.000000 -1.000000 0.000000 1.000000 0.000000 32123a.dat
0 STEP
1 0 -20.000000 -37.000000 -80.520020 0.000000 0.000000 -1.000000 1.000000 0.000000 0.000000 0.000000 -1.000000 0.000000 2780.dat
1 0 -60.000000 -37.000000 -80.520020 0.000000 0.000000 -1.000000 1.000000 0.000000 0.000000 0.000000 -1.000000 0.000000 2780.dat
0 STEP
1 14 -5.794310 -96.910860 -72.640140 -1.000000 0.000000 0.000000 0.000000 0.000000 1.000000 0.000000 1.000000 0.000000 12344.dat
0 STEP
1 4 0.000000 -88.094230 -83.520020 0.000000 0.000000 -1.000000 0.000000 1.000000 0.000000 1.000000 0.000000 0.000000 32062.dat
0 STEP
1 0 -60.000000 -37.000000 -0.520020 0.000000 0.000000 -1.000000 1.000000 0.000000 0.000000 0.000000 -1.000000 0.000000 2780.dat
1 0 60.000000 -37.000000 -80.520020 0.000000 0.000000 -1.000000 1.000000 0.000000 0.000000 0.000000 -1.000000 0.000000 2780.dat
0 STEP
1 4 -60.000000 -47.000000 -0.520020 0.000000 0.000000 -1.000000 -1.000000 0.000000 0.000000 0.000000 1.000000 0.000000 32034.dat
1 4 60.000000 -47.000000 -80.520020 0.000000 0.000000 -1.000000 -1.000000 0.000000 0.000000 0.000000 1.000000 0.000000 32034.dat
0 STEP
0 STEP
