0 FILE 往返小车2.io
0 Untitled Model
0 Name:  往返小车2
0 Author:  
0 CustomBrick
0 NumOfBricks:  118
1 16 -66.030360 -57.521440 -264.999900 0.000000 0.000000 -1.000000 0.000000 1.000000 0.000000 1.000000 0.000000 0.000000 submodel group 9 copy copy copy
0 STEP
1 71 -55.030100 -209.230600 -222.999900 -1.000000 0.000000 0.000000 0.000000 0.560632 0.828065 0.000000 0.828065 -0.560633 4519.dat
1 1 -45.690000 -247.002100 -80.404900 0.000001 1.000000 -0.000001 0.999190 -0.000001 0.040261 0.040261 -0.000001 -0.999189 32271.dat
0 STEP
1 14 -30.380090 -209.230500 -222.999900 0.000000 0.000000 1.000000 -0.560632 0.828065 0.000000 -0.828065 -0.560632 0.000000 32123a.dat
1 14 -80.030120 -209.230500 -222.999900 0.000000 0.000000 -1.000000 -0.560632 -0.828065 0.000000 -0.828065 0.560632 0.000000 32123a.dat
0 STEP
1 15 -16.030020 -107.614700 -302.999900 0.000001 1.000001 0.000001 -0.000001 -0.000001 1.000000 1.000001 -0.000001 0.000001 32316.dat
1 0 -26.030030 -107.614700 -302.999900 -1.000001 0.000000 0.000000 0.000000 1.000000 0.000000 0.000000 0.000000 -1.000001 2780.dat
1 0 -86.030350 -147.614700 -302.999900 -1.000000 0.000000 0.000000 0.000000 1.000000 0.000000 0.000000 0.000000 -1.000000 2780.dat
1 0 -26.030030 -147.614700 -302.999900 -1.000001 0.000000 0.000000 0.000000 1.000000 0.000000 0.000000 0.000000 -1.000001 2780.dat
0 STEP
1 0 -56.410300 -127.614700 -302.999900 -1.000000 0.000000 0.000000 0.000000 1.000000 0.000000 0.000000 0.000000 -1.000000 3737.dat
1 14 -0.800310 -127.614700 -302.999900 0.000000 0.000000 -1.000000 0.000000 -1.000000 0.000000 -1.000000 0.000000 0.000000 32123a.dat
0 STEP
1 15 -15.030000 -106.659700 -101.999900 0.000001 1.000000 0.000001 -0.000001 -0.000001 1.000000 1.000000 -0.000001 0.000001 32316.dat
1 0 -25.030100 -146.659700 -101.999900 -1.000000 0.000000 0.000000 0.000000 1.000000 0.000000 0.000000 0.000000 -1.000000 2780.dat
1 0 -25.030000 -106.659700 -101.999900 -1.000000 0.000000 0.000000 0.000000 1.000000 0.000000 0.000000 0.000000 -1.000000 2780.dat
0 STEP
1 0 -56.650080 -126.966400 -101.999900 -1.000000 0.000000 0.000000 0.000000 1.000000 0.000000 0.000000 0.000000 -1.000000 3737.dat
1 14 0.129910 -126.966400 -102.000000 0.000000 0.000000 -1.000000 0.000000 -1.000000 0.000000 -1.000000 0.000000 0.000000 32123a.dat
0 STEP
1 1 -5.110300 -267.614800 -212.999900 0.000000 0.000000 1.000000 -1.000000 0.000000 0.000000 0.000000 -1.000000 0.000000 3703.dat
1 71 4.889700 -127.614700 -222.999900 -1.000000 0.000000 0.000000 0.000000 1.000000 0.000000 0.000000 0.000000 -1.000000 3673.dat
1 15 14.889790 -127.614800 -202.999900 0.000001 1.000000 0.000001 -1.000000 0.000001 -0.000001 -0.000001 -0.000001 1.000000 64290.dat
0 STEP
1 71 33.349920 -126.966400 -101.999900 0.000001 0.000000 -1.000000 0.000000 1.000000 0.000000 1.000000 0.000000 0.000001 3713.dat
1 71 33.589710 -127.614700 -302.999900 0.000001 0.000000 -1.000000 0.000000 1.000000 0.000000 1.000000 0.000000 0.000001 3713.dat
0 STEP
1 0 -86.030120 -146.966400 -101.999900 -1.000000 0.000000 0.000000 0.000000 1.000000 0.000000 0.000000 0.000000 -1.000000 2780.dat
1 0 -86.030230 -106.966400 -102.000200 -1.000000 0.000000 0.000000 0.000000 1.000000 0.000000 0.000000 0.000000 -1.000000 2780.dat
0 STEP
1 14 -110.510200 -126.966400 -101.999900 0.000000 0.000000 1.000000 1.000000 0.000000 0.000000 0.000000 1.000000 0.000000 32123a.dat
1 15 -96.030120 -106.966400 -101.999900 0.000000 1.000000 0.000001 -0.000001 -0.000001 1.000000 1.000000 -0.000001 0.000001 32316.dat
0 STEP
1 15 -96.030350 -107.614700 -302.999900 0.000001 1.000001 0.000001 -0.000001 -0.000001 1.000000 1.000001 -0.000001 0.000001 32316.dat
1 1 -96.030350 -107.614700 -302.999900 -1.000001 0.000000 0.000000 0.000000 1.000000 0.000000 0.000000 0.000000 -1.000001 6558.dat
1 14 -110.830300 -127.614700 -302.999900 0.000000 0.000000 1.000000 1.000000 0.000000 0.000000 0.000000 1.000000 0.000000 32123a.dat
0 STEP
1 1 -106.140200 -266.966200 -211.999800 0.000000 0.000000 1.000000 -1.000000 0.000000 0.000000 0.000000 -1.000000 0.000000 3703.dat
1 71 -116.140200 -126.966200 -221.999800 -1.000000 0.000000 0.000000 0.000000 1.000000 0.000000 0.000000 0.000000 -1.000000 3673.dat
1 15 -126.140200 -126.966200 -201.999800 0.000001 1.000000 0.000001 -1.000000 0.000001 -0.000001 -0.000001 -0.000001 1.000000 64290.dat
0 STEP
1 71 -146.359900 -126.966400 -101.999200 0.000001 0.000000 -1.000000 0.000000 1.000000 0.000000 1.000000 0.000000 0.000001 3713.dat
1 71 -146.510300 -127.614700 -302.999900 0.000001 0.000000 -1.000000 0.000000 1.000000 0.000000 1.000000 0.000000 0.000001 3713.dat
0 STEP
1 71 -56.300500 -67.617560 -302.999900 -0.000001 0.000000 1.000000 0.297369 0.954763 0.000000 -0.954763 0.297369 -0.000001 59443.dat
1 14 -31.300110 -67.614650 -302.999900 0.000000 0.000000 1.000000 0.297369 0.954763 0.000000 -0.954763 0.297369 0.000000 32123a.dat
1 71 13.699900 -67.614650 -302.999900 -1.000000 0.000000 0.000000 0.000000 0.954763 0.297369 0.000000 0.297369 -0.954763 44294.dat
0 STEP
1 14 -81.090530 -67.614680 -302.999900 0.000000 0.000000 1.000005 0.297371 0.954763 0.000000 -0.954768 0.297369 0.000000 32123a.dat
1 71 -128.150500 -67.614680 -302.999900 -1.000000 0.000000 0.000000 0.000000 0.954763 0.297369 0.000000 0.297369 -0.954763 44294.dat
0 STEP
1 1 -116.030300 -67.614810 -382.999900 0.000001 1.000000 -0.000001 -1.000000 0.000001 0.000001 0.000001 0.000001 1.000000 32526.dat
1 0 -106.030300 -67.614800 -362.999900 -1.000000 0.000000 0.000000 0.000000 1.000000 0.000000 0.000000 0.000000 -1.000000 2780.dat
1 0 -106.030300 -67.614780 -322.999900 -1.000000 0.000000 0.000000 0.000000 1.000000 0.000000 0.000000 0.000000 -1.000000 2780.dat
0 STEP
1 71 -115.280300 -67.614800 -342.999900 -1.000000 0.000000 0.000000 0.000000 0.000000 1.000000 0.000000 1.000000 0.000000 4519.dat
1 71 -106.030300 -67.614800 -342.999900 0.000000 0.000000 1.000000 1.000000 0.000000 0.000000 0.000000 1.000000 0.000000 58120.dat
0 STEP
1 72 -135.480200 -67.614780 -342.999900 0.000000 0.000000 -1.000000 0.000000 -1.000000 0.000000 -1.000000 0.000000 0.000000 3648b.dat
0 STEP
1 72 -136.040500 -67.614680 -302.999900 0.000000 0.000000 -1.000000 -0.954763 -0.297370 0.000000 -0.297369 0.954763 0.000000 3647.dat
1 71 -156.720600 -67.614680 -302.999900 0.000001 0.000000 -1.000000 -0.297369 0.954763 0.000000 0.954763 0.297369 0.000001 3713.dat
0 STEP
1 0 -187.880600 -67.615100 -302.999900 0.000000 0.000000 -1.000000 -0.954763 -0.297369 0.000000 -0.297369 0.954763 0.000000 44309.dat
1 71 -187.880600 -67.614560 -302.999900 0.000000 0.000000 -1.000000 -0.297370 0.954763 0.000000 0.954763 0.297369 0.000000 56145.dat
0 STEP
1 4 14.379890 -67.614680 -302.999900 -1.000000 0.000000 0.000000 0.000000 1.000000 0.000000 0.000000 0.000000 -1.000000 62462.dat
1 71 44.669910 -67.614650 -302.999900 0.000001 0.000000 -1.000000 -0.297369 0.954763 0.000000 0.954763 0.297369 0.000001 3713.dat
0 STEP
1 0 -5.030000 -86.659720 -101.999900 -1.000000 0.000000 0.000000 0.000000 1.000000 0.000000 0.000000 0.000000 -1.000000 2780.dat
1 0 -5.030000 -66.659720 -101.999900 -1.000000 0.000000 0.000000 0.000000 1.000000 0.000000 0.000000 0.000000 -1.000000 2780.dat
0 STEP
1 0 -106.030000 -86.966430 -101.999900 1.000000 0.000000 0.000000 0.000000 0.000000 -1.000000 0.000000 1.000000 0.000000 2780.dat
1 0 -106.030000 -66.966400 -101.999900 1.000000 0.000000 0.000000 0.000000 0.000000 -1.000000 0.000000 1.000000 0.000000 2780.dat
1 1 -116.080100 -66.659720 -41.999980 -0.000001 -1.000000 0.000001 -1.000000 0.000001 0.000001 -0.000001 -0.000001 -1.000000 32140.dat
0 STEP
1 4 -55.000100 -66.659720 -61.999980 0.000000 0.000000 -1.000000 1.000000 0.000000 0.000000 0.000000 -1.000000 0.000000 32034.dat
1 71 -95.000110 -66.659720 -61.999980 0.000001 0.000000 -1.000000 0.000000 1.000000 0.000000 1.000000 0.000000 0.000001 3713.dat
1 71 -115.000100 -66.659720 -61.999980 1.000000 0.000000 0.000000 0.000000 1.000000 0.000000 0.000000 0.000000 1.000000 32073.dat
0 STEP
1 0 -165.600900 -66.659720 -62.000460 0.000000 0.000000 -1.000002 1.000000 0.000000 0.000000 0.000000 -1.000002 0.000000 44309.dat
1 71 -165.600000 -66.659720 -62.000100 0.000000 0.000000 -1.000000 0.000000 -1.000000 0.000000 -1.000000 0.000000 0.000000 56145.dat
1 71 -135.000100 -66.659720 -61.999970 0.000001 0.000000 -1.000000 0.000000 1.000000 0.000000 1.000000 0.000000 0.000001 3713.dat
0 STEP
1 71 -14.930080 -66.659720 -62.000110 0.000001 0.000000 -1.000000 0.000000 1.000000 0.000000 1.000000 0.000000 0.000001 3713.dat
1 71 5.000000 -66.659720 -61.999980 -1.000000 0.000000 0.000000 0.000000 1.000000 0.000000 0.000000 0.000000 -1.000000 32073.dat
0 STEP
1 1 4.970000 -66.659770 -41.999980 -0.000001 -1.000000 0.000001 -1.000000 0.000001 0.000001 -0.000001 -0.000001 -1.000000 32140.dat
1 71 25.000010 -66.659720 -61.999980 0.000001 0.000000 -1.000000 0.000000 1.000000 0.000000 1.000000 0.000000 0.000001 3713.dat
0 STEP
1 0 55.000000 -66.659720 -62.000000 0.000001 0.000000 1.000000 0.000000 1.000000 0.000000 -1.000000 0.000000 0.000001 44309.dat
1 71 55.000020 -66.659720 -61.999990 0.000000 0.000000 1.000000 1.000000 0.000000 0.000000 0.000000 1.000000 0.000000 56145.dat
1 0 74.619980 -67.616920 -302.999900 0.000000 0.000000 1.000000 -0.954763 0.297369 0.000000 -0.297369 -0.954763 0.000000 44309.dat
1 71 74.619880 -67.615020 -303.000900 0.000000 0.000000 1.000000 0.297369 0.954763 0.000000 -0.954763 0.297369 0.000000 56145.dat
0 STEP
1 1 -55.110300 -407.614700 -236.999900 -1.000000 0.000000 0.000000 0.000000 0.000000 -1.000000 0.000000 -1.000000 0.000000 32001.dat
0 STEP
1 1 -55.110300 -417.614700 -212.999900 -1.000000 0.000000 0.000000 0.000000 0.000000 -1.000000 0.000000 -1.000000 0.000000 3701.dat
1 1 -56.140220 -406.966200 -203.999900 -1.000000 0.000000 0.000000 0.000000 0.000000 -1.000000 0.000000 -1.000000 0.000000 32001.dat
0 STEP
1 19 4.889700 -407.614700 -222.999900 1.000000 0.000001 -0.000001 0.000001 0.000001 1.000000 0.000001 -1.000000 0.000001 3749.dat
1 0 4.889700 -367.614800 -222.999900 -1.000000 0.000000 0.000000 0.000000 1.000000 0.000000 0.000000 0.000000 -1.000000 2780.dat
1 1 14.889700 -247.614800 -222.999900 0.000000 -1.000000 0.000000 0.000000 0.000000 1.000000 -1.000000 0.000000 0.000000 32009.dat
0 STEP
1 19 -75.110320 -427.614700 -222.999900 -0.000001 -0.000001 -1.000000 -1.000000 -0.000001 0.000001 -0.000001 1.000000 -0.000001 3749.dat
1 19 -35.110310 -427.614700 -222.999900 -0.000001 -0.000001 -1.000000 -1.000000 -0.000001 0.000001 -0.000001 1.000000 -0.000001 3749.dat
1 0 -35.110310 -437.614700 -222.999900 1.000000 0.000000 0.000000 0.000000 0.000000 1.000000 0.000000 -1.000000 0.000000 32270.dat
1 0 -75.110320 -437.614300 -222.999900 1.000000 0.000000 0.000000 0.000000 0.000000 1.000000 0.000000 -1.000000 0.000000 32270.dat
0 STEP
1 19 -116.140300 -406.966200 -221.999800 -1.000000 -0.000001 0.000001 0.000001 0.000001 1.000000 -0.000001 1.000000 -0.000001 3749.dat
1 0 -116.140300 -386.966200 -221.999800 -1.000000 0.000000 0.000000 0.000000 1.000000 0.000000 0.000000 0.000000 -1.000000 2780.dat
0 STEP
1 1 -126.140300 -246.966200 -181.999700 1.000000 0.000000 0.000000 0.000000 1.000000 0.000000 0.000000 0.000000 1.000000 6558.dat
1 1 -126.140300 -246.966200 -161.999700 1.000000 0.000000 0.000000 0.000000 1.000000 0.000000 0.000000 0.000000 1.000000 6558.dat
1 1 -126.140300 -246.966200 -221.999800 0.000000 1.000000 0.000000 0.000000 0.000000 1.000000 1.000000 0.000000 0.000000 32009.dat
0 STEP
1 71 -116.140200 -246.966000 -1.999670 -1.000000 0.000000 0.000000 0.000000 1.000000 0.000000 0.000000 0.000000 -1.000000 3673.dat
1 71 -116.140200 -246.966000 -21.999660 -1.000000 0.000000 0.000000 0.000000 1.000000 0.000000 0.000000 0.000000 -1.000000 3673.dat
1 15 -106.140200 -246.966100 -41.999670 -0.000001 -1.000000 -0.000001 -1.000000 0.000001 -0.000001 0.000001 0.000001 -1.000000 64871.dat
0 STEP
1 14 -121.260200 -246.966100 -81.999680 0.000000 0.000000 1.000000 1.000000 0.000000 0.000000 0.000000 1.000000 0.000000 32123a.dat
1 71 -45.280340 -246.966100 -81.999680 -1.000000 0.000000 0.000000 0.000000 1.000000 0.000000 0.000000 0.000000 -1.000000 60485.dat
0 STEP
1 0 -96.140090 -246.966000 38.000340 -1.000000 0.000000 0.000000 0.000000 1.000000 0.000000 0.000000 0.000000 -1.000000 2780.dat
1 0 -96.140090 -246.966000 78.000340 -1.000000 0.000000 0.000000 0.000000 1.000000 0.000000 0.000000 0.000000 -1.000000 2780.dat
1 71 -46.140080 -246.966000 78.000340 -1.000000 0.000000 0.000000 0.000000 1.000000 0.000000 0.000000 0.000000 -1.000000 64179.dat
0 STEP
1 0 4.889930 -247.614600 37.000140 -1.000000 0.000000 0.000000 0.000000 1.000000 0.000000 0.000000 0.000000 -1.000000 2780.dat
1 0 4.889930 -247.614600 77.000160 -1.000000 0.000000 0.000000 0.000000 1.000000 0.000000 0.000000 0.000000 -1.000000 2780.dat
1 15 14.889800 -247.614700 -42.999860 -0.000001 -1.000000 -0.000001 -1.000000 0.000001 -0.000001 0.000001 0.000001 -1.000000 64871.dat
0 STEP
1 0 24.889710 -247.614800 -183.000000 -1.000000 0.000000 0.000000 0.000000 1.000000 0.000000 0.000000 0.000000 -1.000000 2780.dat
1 0 24.889710 -247.614800 -163.000000 -1.000000 0.000000 0.000000 0.000000 1.000000 0.000000 0.000000 0.000000 -1.000000 2780.dat
1 14 29.719830 -246.966100 -81.999690 0.000000 0.000000 1.000000 1.000000 0.000000 0.000000 0.000000 1.000000 0.000000 32123a.dat
0 STEP
1 1 -126.140100 -306.966000 -21.999660 0.000001 1.000000 -0.000001 0.000001 0.000001 1.000000 1.000000 -0.000001 -0.000001 32140.dat
1 71 -46.140080 -306.966000 -21.999670 -1.000000 0.000000 0.000000 0.000000 1.000000 0.000000 0.000000 0.000000 -1.000000 60485.dat
0 STEP
1 1 34.889940 -307.614700 -22.999860 0.000001 1.000000 -0.000001 0.000001 0.000001 1.000000 1.000000 -0.000001 -0.000001 32140.dat
1 71 24.889930 -247.614700 -2.999860 -1.000000 0.000000 0.000000 0.000000 1.000000 0.000000 0.000000 0.000000 -1.000000 3673.dat
1 71 24.889930 -247.614700 -22.999860 -1.000000 0.000000 0.000000 0.000000 1.000000 0.000000 0.000000 0.000000 -1.000000 3673.dat
0 STEP
1 15 34.889710 -247.614800 -222.999900 0.000001 1.000000 0.000001 -1.000000 0.000001 -0.000001 -0.000001 -0.000001 1.000000 32524.dat
1 1 14.889690 -247.614800 -282.999900 -1.000000 0.000000 0.000000 0.000000 -1.000000 0.000000 0.000000 0.000000 1.000000 6558.dat
1 1 14.889690 -247.614800 -262.999900 -1.000000 0.000000 0.000000 0.000000 -1.000000 0.000000 0.000000 0.000000 1.000000 6558.dat
0 STEP
1 15 -5.110230 -247.614900 -362.999900 -0.000001 -1.000000 -0.000001 1.000000 -0.000001 0.000001 -0.000001 -0.000001 1.000000 64290.dat
0 STEP
1 0 -15.110120 -247.615000 -462.999900 -1.000000 0.000000 0.000000 0.000000 1.000000 0.000000 0.000000 0.000000 -1.000000 2780.dat
1 0 -15.110110 -247.614900 -422.999900 -1.000000 0.000000 0.000000 0.000000 1.000000 0.000000 0.000000 0.000000 -1.000000 2780.dat
1 71 -65.110140 -247.614900 -462.999900 -1.000000 0.000000 0.000000 0.000000 1.000000 0.000000 0.000000 0.000000 -1.000000 64179.dat
0 STEP
1 15 -125.110100 -247.615000 -402.999900 0.000001 1.000000 0.000001 -1.000000 0.000001 -0.000001 -0.000001 -0.000001 1.000000 32524.dat
1 0 -115.110100 -247.614900 -462.999900 -1.000000 0.000000 0.000000 0.000000 1.000000 0.000000 0.000000 0.000000 -1.000000 2780.dat
1 0 -115.110100 -247.614900 -422.999900 -1.000000 0.000000 0.000000 0.000000 1.000000 0.000000 0.000000 0.000000 -1.000000 2780.dat
0 STEP
1 0 -135.110100 -247.614900 -442.999900 -1.000000 0.000000 0.000000 0.000000 1.000000 0.000000 0.000000 0.000000 -1.000000 2780.dat
1 0 -135.110000 -247.615000 -342.999900 -1.000000 0.000000 0.000000 0.000000 1.000000 0.000000 0.000000 0.000000 -1.000000 2780.dat
1 15 -146.140500 -246.966300 -301.999900 -0.000001 -1.000000 -0.000001 -1.000000 0.000001 -0.000001 0.000001 0.000001 -1.000000 64871.dat
0 STEP
0 STEP
0 NOFILE
0 FILE SubModel Group 9 Copy Copy Copy
0 SubModel Group 9 Copy Copy Copy
0 Name:  SubModel Group 9 Copy Copy Copy
0 Author:  
0 CustomBrick
0 NumOfBricks:  3
1 72 10.000000 -1.128810 -10.000000 1.000000 0.000000 0.000000 0.000000 0.000000 -1.000000 0.000000 1.000000 0.000000 dch003.dat
1 71 -27.466620 -79.717990 29.427020 1.000000 0.000000 0.000000 0.000000 0.000000 -1.000000 0.000000 1.000000 0.000000 dch004.dat
1 25 7.837010 13.484720 -9.965000 1.000000 0.000000 0.000000 0.000000 0.000000 -1.000000 0.000000 1.000000 0.000000 dch005.dat
0 NOFILE
