0 Untitled Model
0 Name:  变速箱
0 Author:  
0 CustomBrick
0 NumOfBricks:  35
1 71 0.000000 -68.820000 -70.000040 0.000000 0.000000 1.000000 0.000000 1.000000 0.000000 -1.000000 0.000000 0.000000 64179.dat
0 STEP
1 71 0.000000 -68.820000 -110.000000 0.000000 -1.000000 0.000000 0.000000 0.000000 1.000000 -1.000000 0.000000 0.000000 4519.dat
1 71 0.000000 -68.820000 -30.000080 0.000000 -1.000000 0.000000 0.000000 0.000000 1.000000 -1.000000 0.000000 0.000000 4519.dat
1 4 0.000000 -68.820010 -68.630050 0.000000 1.000000 0.000000 1.000000 0.000000 0.000000 0.000000 0.000000 -1.000000 32034.dat
0 STEP
1 19 0.000000 -86.210010 -68.630050 1.000000 0.000000 0.000000 0.000000 0.000000 1.000000 0.000000 -1.000000 0.000000 32269.dat
1 71 0.000000 -50.000000 -68.630050 0.000000 0.000000 1.000000 -1.000000 0.000000 0.000000 0.000000 -1.000000 0.000000 32073.dat
0 STEP
1 4 -59.999880 -88.820010 -30.000080 -0.000001 1.000000 -0.000001 1.000000 0.000001 -0.000001 -0.000001 -0.000001 -1.000000 32054.dat
1 4 -59.999880 -88.820000 -110.000000 -0.000001 1.000000 -0.000001 1.000000 0.000001 -0.000001 -0.000001 -0.000001 -1.000000 32054.dat
1 15 -60.000060 -88.819960 -69.999920 1.000000 -0.000001 0.000001 0.000001 1.000000 0.000001 -0.000001 -0.000001 1.000000 32316.dat
0 STEP
1 15 60.000310 -88.819970 -70.000040 1.000000 -0.000001 0.000001 0.000001 1.000000 0.000001 -0.000001 -0.000001 1.000000 32316.dat
1 4 60.000440 -88.820010 -30.000080 -0.000001 1.000000 -0.000001 1.000000 0.000001 -0.000001 -0.000001 -0.000001 -1.000000 32054.dat
1 4 60.000440 -88.820010 -110.000000 -0.000001 1.000000 -0.000001 1.000000 0.000001 -0.000001 -0.000001 -0.000001 -1.000000 32054.dat
0 STEP
1 19 -59.999880 -98.819940 -49.999940 -0.000001 1.000000 -0.000001 -1.000000 -0.000001 0.000001 0.000001 0.000001 1.000000 3749.dat
1 19 -60.000120 -98.819980 -89.999900 -0.000001 1.000000 -0.000001 -1.000000 -0.000001 0.000001 0.000001 0.000001 1.000000 3749.dat
1 1 -60.000120 -110.370000 -69.999920 0.000000 0.000000 -1.000000 1.000000 0.000000 0.000000 0.000000 -1.000000 0.000000 32184.dat
0 STEP
1 19 60.000310 -98.820000 -90.000140 -0.000001 1.000000 -0.000001 -1.000000 -0.000001 0.000001 0.000001 0.000001 1.000000 3749.dat
1 19 60.000440 -98.819950 -50.000180 -0.000001 1.000000 -0.000001 -1.000000 -0.000001 0.000001 0.000001 0.000001 1.000000 3749.dat
1 1 60.000440 -108.819900 -70.000160 0.000000 0.000000 -1.000000 1.000000 0.000000 0.000000 0.000000 -1.000000 0.000000 32184.dat
0 STEP
1 14 -75.950190 -110.370000 -69.999980 0.000000 0.000000 0.999999 0.000000 1.000000 0.000000 -0.999999 0.000000 0.000000 32123a.dat
1 0 -31.640170 -110.370000 -69.999920 0.000000 0.000000 1.000000 0.000000 1.000000 0.000000 -1.000000 0.000000 0.000000 32270.dat
1 14 -45.480430 -110.370000 -69.999920 0.000000 0.000000 1.000000 0.000000 1.000000 0.000000 -1.000000 0.000000 0.000000 32123a.dat
1 71 -73.990180 -110.370000 -69.999920 -1.000000 0.000000 0.000000 0.000000 1.000000 0.000000 0.000000 0.000000 -1.000000 32073.dat
0 STEP
1 0 29.800320 -108.819900 -70.000160 0.000000 0.000000 -1.000000 0.000000 -1.000000 0.000000 -1.000000 0.000000 0.000000 32270.dat
1 14 45.290360 -108.819900 -70.000160 0.000000 0.000000 1.000000 0.000000 -1.000000 0.000000 1.000000 0.000000 0.000000 32123a.dat
1 14 75.130290 -108.819900 -70.000160 0.000000 0.000000 0.999999 0.000000 1.000000 0.000000 -0.999999 0.000000 0.000000 32123a.dat
1 71 68.550280 -108.819900 -70.000160 -1.000000 0.000000 0.000000 0.000000 1.000000 0.000000 0.000000 0.000000 -1.000000 32073.dat
0 STEP
1 19 -60.000060 -118.820000 -110.000000 -0.000001 1.000003 -0.000001 1.000000 0.000001 -0.000001 -0.000001 -0.000001 -1.000003 3749.dat
1 19 -60.000060 -118.820000 -29.999900 -0.000001 1.000002 -0.000001 1.000000 0.000001 -0.000001 -0.000001 -0.000001 -1.000003 3749.dat
1 19 60.001530 -118.820000 -29.999900 -0.000001 1.000003 -0.000001 1.000000 0.000001 -0.000001 -0.000001 -0.000001 -1.000003 3749.dat
1 19 60.001530 -118.820000 -110.000000 -0.000001 1.000002 -0.000001 1.000000 0.000001 -0.000001 -0.000001 -0.000001 -1.000003 3749.dat
0 STEP
1 71 0.000980 -128.820000 -69.999740 0.000000 0.000000 -0.999999 0.000000 -1.000000 0.000000 -0.999999 0.000000 0.000000 64179.dat
0 STEP
1 4 20.001020 -148.820000 -109.999700 -0.000001 0.999999 -0.000001 1.000000 0.000001 -0.000001 -0.000001 -0.000001 -0.999999 32054.dat
1 4 20.000960 -148.820000 -109.999600 0.000000 0.000000 -0.999999 -1.000000 0.000000 0.000000 0.000000 0.999999 0.000000 32034.dat
0 STEP
1 4 -19.999000 -148.820000 -29.999770 -0.000001 0.999999 -0.000001 1.000000 0.000001 -0.000001 -0.000001 -0.000001 -0.999999 32054.dat
1 4 -19.999070 -148.820000 -29.999710 0.000000 0.000000 -0.999999 -1.000000 0.000000 0.000000 0.000000 0.999999 0.000000 32034.dat
0 STEP
0 STEP
