0 Untitled Model
0 Name:  大炮
0 Author:  
0 CustomBrick
0 NumOfBricks:  79
1 1 -34.000810 -88.000030 -67.000020 0.000000 0.000000 1.000005 0.000000 1.000000 0.000000 -1.000005 0.000000 0.000000 3702.dat
1 1 -34.000690 -112.000000 -67.000140 0.000001 0.000000 1.000002 0.000000 1.000000 0.000000 -1.000002 0.000000 0.000001 3702.dat
1 1 5.219720 -88.000030 -66.999400 0.000000 0.000000 1.000002 0.000000 1.000000 0.000000 -1.000002 0.000000 0.000000 3702.dat
1 1 5.999510 -112.000000 -66.999900 0.000000 0.000000 1.000002 0.000000 1.000000 0.000000 -1.000002 0.000000 0.000000 3702.dat
1 1 -34.000810 -64.000020 -26.999740 0.000001 0.000000 1.000005 0.000000 1.000000 0.000000 -1.000005 0.000000 0.000001 3701.dat
1 1 5.218010 -64.000020 -27.000040 0.000001 0.000000 1.000005 0.000000 1.000000 0.000000 -1.000005 0.000000 0.000001 3701.dat
1 1 -34.000690 -120.000000 -87.000300 0.000001 0.000000 1.000002 0.000000 1.000000 0.000000 -1.000002 0.000000 0.000001 3666.dat
1 1 5.999510 -120.000000 -87.000060 0.000001 0.000000 1.000002 0.000000 1.000000 0.000000 -1.000002 0.000000 0.000001 3666.dat
0 STEP
1 1 -14.000280 -102.000100 -6.999760 0.000001 1.000002 0.000000 -0.258812 0.000000 -0.965928 -0.965930 0.000001 0.258813 32140.dat
1 72 -52.021110 -102.000000 -6.999760 0.000000 0.000000 -1.000002 0.258812 0.965928 0.000000 0.965930 -0.258812 0.000000 3648b.dat
1 71 -14.000280 -102.000000 -6.999760 1.000002 0.000000 0.000000 0.000000 -0.258812 0.965928 0.000000 -0.965930 -0.258813 32073.dat
0 STEP
1 1 -14.000410 -159.955700 8.529079 -1.000002 0.000000 0.000001 0.000000 1.000000 0.000000 -0.000001 0.000000 -1.000002 6558.dat
1 4 -14.240280 -165.132100 -10.789560 -1.000002 0.000000 0.000001 0.000000 0.965926 -0.258819 -0.000001 -0.258820 -0.965928 32062.dat
1 72 -29.000440 -165.132100 -10.789560 -0.000001 -1.000002 -0.000002 0.258819 0.000001 -0.965926 0.965928 -0.000001 0.258820 32250.dat
1 71 -14.410560 -242.406200 9.916170 -0.000001 0.000000 -1.000002 0.258819 0.965926 0.000000 0.965928 -0.258820 -0.000001 3713.dat
1 4 -14.000530 -242.406200 9.916170 -1.000002 0.000000 0.000001 0.000000 0.965926 -0.258819 -0.000001 -0.258820 -0.965928 32062.dat
0 STEP
1 72 0.999380 -165.132100 -10.789690 -0.000001 -1.000002 -0.000001 0.258819 0.000001 -0.965926 0.965928 -0.000001 0.258820 32250.dat
0 STEP
1 71 25.999440 -140.637100 3.352680 0.000000 -1.000002 0.000000 0.965928 0.000000 0.258812 -0.258813 0.000000 0.965930 4519.dat
1 4 25.999440 -121.318600 -1.823480 -1.000002 0.000000 0.000000 0.000000 -0.258812 -0.965928 -0.000001 -0.965930 0.258813 32039.dat
1 4 25.999440 -159.955600 8.529200 -1.000002 0.000000 0.000000 0.000000 0.258812 0.965928 0.000000 0.965930 -0.258813 32039.dat
0 STEP
1 14 -49.021220 -102.000000 -107.000200 0.000000 0.000000 1.000002 0.000000 -1.000000 0.000000 1.000002 0.000000 0.000000 32123a.dat
1 19 -44.001200 -102.000000 -107.000200 -1.000002 -0.000001 0.000001 0.000001 0.000001 1.000000 -0.000001 1.000002 -0.000001 3749.dat
0 STEP
1 1 -34.000450 -128.000000 -127.000300 0.000001 0.000000 1.000002 0.000000 1.000000 0.000000 -1.000002 0.000000 0.000001 3710.dat
1 1 5.999510 -128.000000 -127.000300 0.000000 0.000000 1.000002 0.000000 1.000000 0.000000 -1.000002 0.000000 0.000000 3710.dat
0 STEP
1 1 -14.000280 -142.000000 -46.999960 1.000002 0.000000 -0.000001 0.000000 1.000000 0.000000 0.000001 0.000000 1.000002 6558.dat
1 1 -14.000650 -141.999700 -287.000300 1.000002 0.000000 -0.000001 0.000000 1.000000 0.000000 0.000001 0.000000 1.000002 6558.dat
1 1 -34.000450 -152.000000 -187.000300 0.000001 0.000000 1.000002 0.000000 1.000000 0.000000 -1.000002 0.000000 0.000001 3703.dat
1 15 -14.000900 -142.000000 -166.999400 0.000001 1.000002 0.000000 -1.000000 0.000001 -0.000001 -0.000001 0.000000 1.000002 64871.dat
0 STEP
1 1 6.000000 -152.000000 -187.000000 0.000001 0.000000 1.000000 0.000000 1.000000 0.000000 -1.000000 0.000000 0.000001 3703.dat
0 STEP
1 19 15.999410 -142.000000 -107.000200 1.000002 0.000001 -0.000001 0.000001 0.000001 1.000000 0.000001 -1.000002 0.000001 3749.dat
1 14 23.999430 -141.999900 -107.000000 0.000000 0.000000 -1.000002 0.000000 1.000000 0.000000 1.000002 0.000000 0.000000 32123a.dat
0 STEP
1 0 15.999410 -102.000000 -127.000300 -1.000002 0.000000 0.000000 0.000000 1.000000 0.000000 0.000000 0.000000 -1.000002 2780.dat
1 0 -44.001200 -102.000000 -127.000300 -1.000002 0.000000 0.000000 0.000000 1.000000 0.000000 0.000000 0.000000 -1.000002 2780.dat
1 0 -44.000960 -142.000000 -127.000300 -1.000002 0.000000 0.000000 0.000000 1.000000 0.000000 0.000000 0.000000 -1.000002 2780.dat
1 0 15.999290 -142.000000 -127.000300 -1.000002 0.000000 0.000000 0.000000 1.000000 0.000000 0.000000 0.000000 -1.000002 2780.dat
1 1 25.999440 -82.000060 -127.000400 0.000001 1.000002 -0.000001 -0.000001 -0.000001 -1.000000 -1.000002 0.000001 0.000001 32140.dat
1 1 -54.000980 -82.000040 -127.000300 0.000001 1.000002 -0.000001 -0.000001 -0.000001 -1.000000 -1.000002 0.000001 0.000001 32140.dat
0 STEP
1 71 27.399460 -142.000000 -87.000190 -0.000001 0.000000 1.000002 0.000000 -1.000000 0.000000 1.000002 0.000000 0.000001 3713.dat
1 0 -21.050350 -142.000000 -87.000300 -1.000002 0.000000 0.000000 0.000000 1.000000 0.000000 0.000000 0.000000 -1.000002 3706.dat
1 19 -53.841060 -152.000000 -46.999960 -0.000001 -0.707104 -0.707112 -1.000000 0.000000 0.000002 -0.000001 0.707112 -0.707104 3749.dat
1 14 -53.841060 -157.000000 -46.999960 -0.707103 -0.707113 -0.000001 0.000001 0.000000 -1.000000 0.707113 -0.707103 0.000000 32123a.dat
1 4 -53.841060 -142.000000 -66.999900 -1.000002 0.000000 0.000000 0.000000 0.000000 1.000000 0.000000 1.000002 0.000000 42003.dat
0 STEP
1 1 5.999390 -176.000000 -187.000100 0.000000 0.000000 -1.000002 0.000000 1.000000 0.000000 1.000002 0.000000 0.000000 3895.dat
1 1 -34.000450 -176.000000 -187.000300 0.000000 0.000000 -1.000002 0.000000 1.000000 0.000000 1.000002 0.000000 0.000000 3895.dat
0 STEP
1 0 15.999290 -166.000000 -127.000000 -1.000002 0.000000 0.000000 0.000000 1.000000 0.000000 0.000000 0.000000 -1.000002 2780.dat
1 0 15.999410 -166.000000 -87.000190 -1.000002 0.000000 0.000000 0.000000 1.000000 0.000000 0.000000 0.000000 -1.000002 2780.dat
1 14 16.999540 -215.653800 -92.000190 0.000000 -1.000002 0.000000 0.000000 0.000000 1.000000 -1.000002 0.000000 0.000000 12344.dat
0 STEP
1 0 -13.691330 -54.000020 -46.999900 -1.000004 0.000000 0.000000 0.000000 1.000000 0.000000 0.000000 0.000000 -1.000004 3708.dat
1 71 -55.521120 -54.000020 -46.999900 0.000001 0.000000 -1.000004 0.000000 1.000000 0.000000 1.000004 0.000000 0.000001 3713.dat
1 71 23.398720 -54.000020 -46.999900 0.000001 0.000000 -1.000004 0.000000 1.000000 0.000000 1.000004 0.000000 0.000001 3713.dat
0 STEP
1 0 -108.892900 -54.000020 -47.000870 -0.000001 0.000000 0.999999 0.000000 -1.000000 0.000000 0.999999 0.000000 0.000000 44309.dat
1 71 -108.891200 -54.000020 -46.999770 0.000000 0.000001 1.000003 -1.000000 0.000000 0.000000 0.000000 -1.000003 0.000001 56145.dat
1 0 75.310440 -54.000100 -46.999050 0.000000 0.000000 -0.999999 0.000000 1.000000 0.000000 0.999999 0.000000 0.000000 44309.dat
1 71 75.308740 -54.000020 -46.999900 0.000000 0.000000 -1.000001 1.000000 0.000000 0.000000 0.000000 -1.000001 0.000000 56145.dat
0 STEP
1 1 -73.561200 -142.000000 -6.999760 0.000000 -1.000002 0.000000 0.000000 0.000000 1.000000 -1.000002 0.000000 0.000000 32009.dat
0 STEP
1 0 24.999560 -226.800800 -97.000220 0.000000 0.000000 1.000002 0.000000 1.000000 0.000000 -1.000002 0.000000 0.000000 2780.dat
1 19 25.999680 -186.800900 -97.000330 0.000001 -1.000002 0.000001 0.000001 0.000001 1.000000 -1.000002 -0.000001 0.000001 3749.dat
1 1 25.999560 -266.800800 -107.000200 0.000000 0.000000 -1.000002 1.000000 0.000000 0.000000 0.000000 -1.000002 0.000000 32009.dat
0 STEP
1 71 -14.729780 -141.999900 -368.880200 1.000002 0.000000 0.000001 0.000000 1.000000 0.000000 -0.000001 0.000000 1.000002 3713.dat
1 4 -14.729780 -141.999900 -347.000000 -1.000002 0.000000 0.000000 0.000000 1.000000 0.000001 0.000000 0.000001 -1.000002 32039.dat
1 4 -14.729780 -142.000000 -359.000200 0.000000 0.000000 -1.000002 0.000000 1.000000 0.000000 1.000002 0.000000 0.000000 32062.dat
1 71 -12.989790 -142.000000 -327.000000 -1.000002 0.000000 0.000000 0.000000 1.000000 0.000000 0.000000 0.000000 -1.000002 32073.dat
0 STEP
1 71 27.010300 -142.000000 -327.000000 0.000001 0.000000 -1.000002 0.000000 1.000000 0.000000 1.000002 0.000000 0.000001 3713.dat
1 71 -52.989870 -142.000000 -327.000000 0.000001 0.000000 -1.000002 0.000000 1.000000 0.000000 1.000002 0.000000 0.000001 3713.dat
0 STEP
1 0 -44.000460 -166.000000 -247.000400 -1.000002 0.000000 0.000000 0.000000 1.000000 0.000000 0.000000 0.000000 -1.000002 2780.dat
1 0 15.999410 -166.000000 -247.000200 -1.000002 0.000000 0.000000 0.000000 1.000000 0.000000 0.000000 0.000000 -1.000002 2780.dat
1 4 25.999440 -166.000000 -247.000200 1.000002 0.000000 0.000000 0.000000 -1.000000 0.000000 0.000000 0.000000 -1.000002 32034.dat
1 4 -54.000610 -166.000000 -247.000400 -1.000002 0.000000 0.000000 0.000000 -1.000000 0.000000 0.000000 0.000000 1.000002 32034.dat
0 STEP
1 1 5.999390 -200.000000 -247.000200 0.000000 0.000000 1.000002 0.000000 1.000000 0.000000 -1.000002 0.000000 0.000000 3701.dat
1 1 -34.000570 -200.000000 -247.000500 0.000000 0.000000 1.000002 0.000000 1.000000 0.000000 -1.000002 0.000000 0.000000 3701.dat
1 1 -4.000510 -208.000000 -227.000500 -1.000002 0.000000 0.000000 0.000000 1.000000 0.000000 0.000000 0.000000 -1.000002 3709b.dat
1 1 -24.000670 -208.000000 -267.000200 -1.000002 0.000000 0.000000 0.000000 1.000000 0.000000 0.000000 0.000000 -1.000002 3709b.dat
1 1 -14.000650 -184.000000 -297.000200 1.000002 0.000000 -0.000001 0.000000 1.000000 0.000000 0.000001 0.000000 1.000002 3710.dat
0 STEP
1 19 -44.000710 -234.520000 -267.000100 -0.000001 1.000002 -0.000001 1.000000 0.000001 -0.000001 -0.000001 -0.000001 -1.000002 3749.dat
1 15 15.999540 -232.000000 -227.000500 1.000002 0.000000 0.000000 0.000000 1.000000 0.000000 0.000000 0.000000 1.000002 3941.dat
1 19 15.999540 -232.000000 -227.000500 -0.000001 1.000002 -0.000001 1.000000 0.000001 -0.000001 -0.000001 -0.000001 -1.000002 3749.dat
1 15 -44.000710 -232.000000 -267.000200 1.000002 0.000000 0.000000 0.000000 1.000000 0.000000 0.000000 0.000000 1.000002 3941.dat
0 STEP
1 4 15.999540 -252.000000 -227.000500 0.000000 0.000000 1.000002 -1.000000 0.000000 0.000000 0.000000 -1.000002 0.000000 62462.dat
1 4 -44.000710 -254.520000 -267.000100 0.000000 0.000000 1.000002 -1.000000 0.000000 0.000000 0.000000 -1.000002 0.000000 62462.dat
0 STEP
0 STEP
