0 Untitled Model
0 Name:  相框
0 Author:  
0 CustomBrick
0 NumOfBricks:  26
1 1 -52.999910 -111.091400 -156.720600 -1.000000 0.000000 0.000000 0.000000 0.036643 0.999328 0.000000 0.999327 -0.036643 32001.dat
1 1 -53.000220 -71.117560 -158.186000 -1.000000 0.000000 0.000000 0.000000 0.036643 0.999327 0.000000 0.999326 -0.036643 32001.dat
1 1 -3.000000 -71.411440 -166.180800 0.000000 0.000000 -1.000000 -0.999328 0.036643 0.000000 0.036643 0.999327 0.000000 3710.dat
1 1 -102.999700 -71.411360 -166.180800 0.000000 0.000000 -1.000000 -0.999328 0.036643 0.000000 0.036643 0.999327 0.000000 3710.dat
1 1 -52.999910 -31.145160 -159.652000 -1.000000 0.000000 0.000000 0.000000 0.036643 0.999328 0.000000 0.999327 -0.036643 32001.dat
1 1 -52.999910 -21.446930 -168.014300 -0.999999 0.000000 0.000000 0.000000 0.036643 0.999324 0.000000 0.999324 -0.036643 3666.dat
0 STEP
1 1 -52.999910 -191.037700 -153.789200 -1.000000 0.000000 0.000000 0.000000 0.036643 0.999328 0.000000 0.999327 -0.036643 32001.dat
1 1 -52.999910 -151.064800 -155.254800 -1.000000 0.000000 0.000000 0.000000 0.036643 0.999328 0.000000 0.999327 -0.036643 32001.dat
1 1 -3.000000 -151.357900 -163.249500 0.000000 0.000000 -1.000000 -0.999328 0.036643 0.000000 0.036643 0.999327 0.000000 3710.dat
1 1 -102.999800 -151.357900 -163.249400 0.000000 0.000000 -1.000000 -0.999328 0.036643 0.000000 0.036643 0.999327 0.000000 3710.dat
1 1 -52.999820 -201.324200 -161.417400 -1.000000 0.000000 0.000000 0.000000 0.036643 0.999328 0.000000 0.999327 -0.036643 3666.dat
0 STEP
1 1 -102.999800 -130.784800 -147.993100 0.000000 0.000000 -1.000000 -0.999328 0.036643 0.000000 0.036643 0.999327 0.000000 3701.dat
1 19 -92.999790 -130.418400 -137.999900 0.999999 0.000000 -0.000002 -0.000001 0.766042 -0.642784 0.000001 0.642785 0.766042 3749.dat
1 1 -82.999790 -130.418400 -137.999900 0.000000 0.999999 0.000000 -0.642784 0.000000 0.766043 0.766042 0.000000 0.642785 32271.dat
0 STEP
1 19 -13.000000 -130.418200 -138.000000 -1.000000 0.000000 0.000001 -0.000001 0.573579 -0.819151 -0.000001 -0.819151 -0.573579 3749.dat
1 1 -3.000000 -130.784800 -147.993100 0.000000 0.000000 -1.000000 -0.999328 0.036643 0.000000 0.036643 0.999327 0.000000 3701.dat
1 1 -22.999910 -130.418300 -137.999900 -0.000001 1.000000 -0.000002 -0.573579 0.000001 0.819150 0.819151 0.000001 0.573579 32271.dat
0 STEP
1 1 -52.999820 -149.892000 -123.276600 -0.999999 0.000000 0.000000 0.000000 0.036643 0.999324 0.000000 0.999324 -0.036643 32001.dat
0 STEP
1 15 -32.999910 -42.017880 -183.269400 1.000000 0.000000 0.000000 0.000000 0.036643 -0.999327 0.000000 0.999326 0.036643 32064a.dat
1 15 -72.999910 -42.017860 -183.269400 1.000000 0.000000 0.000000 0.000000 0.036643 -0.999327 0.000000 0.999326 0.036643 32064a.dat
0 STEP
1 15 -42.999880 -101.977600 -181.070900 1.000000 0.000000 0.000000 0.000000 0.036643 -0.999327 0.000000 0.999327 0.036643 3040b.dat
1 15 -22.999910 -101.977600 -181.070900 1.000000 0.000000 0.000000 0.000000 0.036643 -0.999327 0.000000 0.999326 0.036643 3040b.dat
1 15 -62.999910 -101.977600 -181.070900 1.000000 0.000000 0.000000 0.000000 0.036643 -0.999327 0.000000 0.999326 0.036643 3040b.dat
1 15 -82.999910 -101.977500 -181.070900 1.000000 0.000000 0.000000 0.000000 0.036643 -0.999327 0.000000 0.999326 0.036643 3040b.dat
0 STEP
1 15 -32.999910 -181.923900 -178.139500 1.000000 0.000000 0.000000 0.000000 0.036643 -0.999327 0.000000 0.999326 0.036643 32064a.dat
1 15 -72.999910 -181.923900 -178.139500 1.000000 0.000000 0.000000 0.000000 0.036643 -0.999327 0.000000 0.999326 0.036643 32064a.dat
0 STEP
0 STEP
