0 Untitled Model
0 Name:  钢叉
0 Author:  
0 CustomBrick
0 NumOfBricks:  27
1 15 -123.000000 -155.599800 -90.000000 0.000001 0.000001 -1.000000 -1.000000 0.000001 -0.000001 0.000001 1.000000 0.000001 32524.dat
1 1 -183.000100 -155.600000 -69.999920 0.000000 0.000000 -1.000000 0.000000 1.000000 0.000000 1.000000 0.000000 0.000000 6558.dat
1 1 -143.000200 -155.600000 -70.000060 0.000000 0.000000 -1.000000 0.000000 1.000000 0.000000 1.000000 0.000000 0.000000 6558.dat
1 1 -103.000200 -155.599900 -69.999980 0.000000 0.000000 -1.000000 0.000000 1.000000 0.000000 1.000000 0.000000 0.000000 6558.dat
1 1 -63.000260 -155.599900 -70.000110 0.000000 0.000000 -1.000000 0.000000 1.000000 0.000000 1.000000 0.000000 0.000000 6558.dat
0 STEP
1 15 -263.000100 -155.600100 -69.999980 0.000001 0.000001 -1.000000 -1.000000 0.000001 -0.000001 0.000001 1.000000 0.000001 64871.dat
1 15 36.999780 -155.599800 -70.000230 0.000001 0.000001 -1.000000 -1.000000 0.000001 -0.000001 0.000001 1.000000 0.000001 64871.dat
0 STEP
1 15 -123.000300 -155.599900 -50.000080 0.000001 0.000001 -1.000000 -1.000000 0.000001 -0.000001 0.000001 1.000000 0.000001 32524.dat
0 STEP
1 1 -402.999500 -155.600100 -69.999740 0.000000 0.000000 -1.000000 0.000000 1.000000 0.000000 1.000000 0.000000 0.000000 6558.dat
1 1 -362.999900 -155.600100 -69.999860 0.000000 0.000000 -1.000000 0.000000 1.000000 0.000000 1.000000 0.000000 0.000000 6558.dat
0 STEP
1 15 -363.000000 -155.600100 -89.999860 0.000001 0.000001 -1.000000 -1.000000 0.000001 -0.000001 0.000001 1.000000 0.000001 32316.dat
1 15 -362.999900 -155.600100 -49.999880 0.000001 0.000001 -1.000000 -1.000000 0.000001 -0.000001 0.000001 1.000000 0.000001 32316.dat
0 STEP
1 1 -323.000000 -155.600100 -30.000010 0.000000 0.000000 -1.000000 1.000000 0.000000 0.000000 0.000000 -1.000000 0.000000 6629.dat
1 0 -343.000000 -155.600100 -39.999950 0.000000 0.000000 -1.000000 0.000000 1.000000 0.000000 1.000000 0.000000 0.000000 2780.dat
1 0 -383.000000 -155.600200 -39.999950 0.000000 0.000000 -1.000000 0.000000 1.000000 0.000000 1.000000 0.000000 0.000000 2780.dat
0 STEP
1 71 -459.000000 -107.600100 -29.999950 0.000000 -0.800000 -0.600000 0.000000 -0.600000 0.800000 -1.000000 0.000000 0.000000 4519.dat
1 4 -471.000000 -91.600070 -9.999920 0.000000 0.800000 -0.600000 0.000000 0.600000 0.800000 1.000000 0.000000 0.000000 32039.dat
0 STEP
1 4 -459.000000 -107.600000 -69.999860 0.600000 -0.000001 -0.800000 -0.800000 -0.000001 -0.600000 0.000000 1.000000 -0.000001 32054.dat
1 4 -459.000000 -107.600000 -69.999920 0.600000 0.800000 0.000000 -0.800000 0.600000 0.000000 0.000000 0.000000 1.000000 32034.dat
0 STEP
1 0 -343.000000 -155.600100 -99.999870 0.000000 0.000000 -1.000000 0.000000 1.000000 0.000000 1.000000 0.000000 0.000000 2780.dat
1 0 -383.000000 -155.600100 -99.999870 0.000000 0.000000 -1.000000 0.000000 1.000000 0.000000 1.000000 0.000000 0.000000 2780.dat
1 71 -459.000000 -107.600100 -109.999900 0.000000 -0.800000 -0.600000 0.000000 -0.600000 0.800000 -1.000000 0.000000 0.000000 4519.dat
0 STEP
1 1 -323.000000 -155.600100 -109.999900 0.000000 0.000000 -1.000000 1.000000 0.000000 0.000000 0.000000 -1.000000 0.000000 6629.dat
1 4 -471.000000 -91.600150 -129.999800 0.000000 0.800000 -0.600000 0.000001 0.600000 0.800000 1.000000 0.000000 0.000000 32039.dat
0 STEP
1 71 -495.000100 -59.600110 -9.999920 0.600001 -0.800000 0.000000 -0.800000 -0.600001 0.000000 0.000000 0.000000 -1.000000 32073.dat
1 71 -495.000000 -59.600160 -129.999800 0.600000 -0.800000 0.000000 -0.800000 -0.600000 0.000000 0.000000 0.000000 -1.000000 32073.dat
1 0 -501.000000 -51.600020 -69.999860 0.600000 -0.800000 0.000000 -0.800000 -0.600000 0.000000 0.000000 0.000000 -1.000000 3706.dat
0 STEP
0 STEP
