0 FILE 跑步机.io
0 Untitled Model
0 Name:  跑步机
0 Author:  
0 CustomBrick
0 NumOfBricks:  112
1 16 96.000110 -29.427050 64.002440 -1.000000 0.000000 0.000000 0.000000 0.000000 0.999983 0.000000 0.999983 0.000000 submodel group 9 copy copy copy
1 0 136.000000 -69.446170 14.000000 0.000000 0.000000 -1.000000 1.000000 0.000000 0.000000 0.000000 -1.000000 0.000000 2780.dat
1 0 136.000000 -69.446170 -26.000000 0.000000 0.000000 -1.000000 1.000000 -0.000001 0.000000 0.000000 -1.000000 0.000000 2780.dat
0 STEP
1 0 -64.000000 -70.206140 14.000000 0.000000 0.000000 -1.000000 1.000000 0.000000 0.000000 0.000000 -1.000000 0.000000 2780.dat
1 0 -64.000000 -69.446140 -26.000000 0.000000 0.000000 -1.000000 1.000000 0.000000 0.000000 0.000000 -1.000000 0.000000 2780.dat
0 STEP
1 1 -64.000000 -87.466140 -6.000000 0.000000 0.000000 1.000000 0.000000 1.000000 0.000000 -1.000000 0.000000 0.000000 32001.dat
1 1 -64.000120 -79.466140 -6.001040 0.000001 0.000000 1.000001 0.000000 1.000000 0.000000 -1.000001 0.000000 0.000001 3738.dat
0 STEP
1 1 -64.000060 -71.466140 -76.001100 1.000000 0.000000 0.000000 0.000000 1.000000 0.000000 0.000000 0.000000 1.000000 3023.dat
1 1 -64.000060 -63.466140 -76.001100 1.000000 0.000000 0.000000 0.000000 1.000000 0.000000 0.000000 0.000000 1.000000 3700.dat
1 1 -64.000180 -71.466140 63.999020 1.000000 0.000000 0.000000 0.000000 1.000000 0.000000 0.000000 0.000000 1.000000 3023.dat
1 1 -64.000180 -63.466140 63.999020 1.000000 0.000000 0.000000 0.000000 1.000000 0.000000 0.000000 0.000000 1.000000 3700.dat
0 STEP
1 1 136.000000 -87.446170 -6.000000 0.000000 0.000000 1.000000 0.000000 1.000000 0.000000 -1.000000 0.000000 0.000000 32001.dat
1 1 136.000000 -79.446170 -6.000000 0.000000 0.000000 1.000000 0.000000 1.000000 0.000000 -1.000000 0.000000 0.000000 3738.dat
0 STEP
1 1 76.000030 -103.446200 -76.000000 1.000000 0.000000 0.000000 0.000000 1.000000 0.000000 0.000000 0.000000 1.000000 3703.dat
1 1 75.999970 -103.446200 64.000000 1.000000 0.000000 0.000000 0.000000 1.000000 0.000000 0.000000 0.000000 1.000000 3703.dat
0 STEP
1 1 56.000000 -111.446200 64.000000 1.000000 0.000000 0.000000 0.000000 1.000000 0.000000 0.000000 0.000000 1.000000 3666.dat
1 1 36.000000 -111.466100 44.000000 1.000000 0.000000 0.000000 0.000000 1.000000 0.000000 0.000000 0.000000 1.000000 3895.dat
1 15 16.000000 -135.466100 54.000000 1.000000 0.000000 0.000000 0.000000 1.000000 0.000000 0.000000 0.000000 1.000000 3941.dat
0 STEP
1 1 36.000000 -111.466100 -56.000000 1.000000 0.000000 0.000000 0.000000 1.000000 0.000000 0.000000 0.000000 1.000000 3895.dat
1 15 16.000000 -135.446200 -66.000000 1.000000 0.000000 0.000000 0.000000 1.000000 0.000000 0.000000 0.000000 1.000000 3941.dat
1 1 56.000030 -111.446200 -76.000000 1.000000 0.000000 0.000000 0.000000 1.000000 0.000000 0.000000 0.000000 1.000000 3666.dat
0 STEP
1 0 -64.000060 -53.466140 -86.001100 0.000000 0.000000 -1.000000 0.000000 1.000000 0.000000 1.000000 0.000000 0.000000 2780.dat
1 15 -64.000060 -153.446200 -96.000110 -1.000000 0.000001 -0.000001 0.000001 0.000001 -1.000000 -0.000001 -1.000000 -0.000001 64290.dat
1 0 -64.000000 -93.446170 -86.000000 0.000000 0.000000 -1.000000 0.000000 1.000000 0.000000 1.000000 0.000000 0.000000 2780.dat
0 STEP
1 0 -64.000000 -93.446170 74.000000 0.000000 0.000000 -1.000000 0.000000 1.000000 0.000000 1.000000 0.000000 0.000000 2780.dat
1 0 -64.000180 -53.466140 73.999020 0.000000 0.000000 -1.000000 0.000000 1.000000 0.000000 1.000000 0.000000 0.000000 2780.dat
1 15 -64.000060 -153.446200 83.999820 -1.000000 0.000001 -0.000001 0.000001 0.000001 -1.000000 -0.000001 -1.000000 -0.000001 64290.dat
0 STEP
1 1 -64.000240 -153.446100 -76.000240 -1.000000 0.000000 0.000000 0.000000 0.000000 -1.000000 0.000000 -1.000000 0.000000 6629.dat
1 0 -64.000240 -253.446100 -86.000310 0.000000 0.000000 -1.000000 0.000000 1.000000 0.000000 1.000000 0.000000 0.000000 2780.dat
1 0 -64.000120 -213.446100 -86.000190 0.000000 0.000000 -1.000000 0.000000 1.000000 0.000000 1.000000 0.000000 0.000000 2780.dat
0 STEP
1 0 -64.000180 -253.446200 73.999640 0.000000 0.000000 -1.000000 0.000000 1.000000 0.000000 1.000000 0.000000 0.000000 2780.dat
1 0 -64.000060 -213.446200 73.999760 0.000000 0.000000 -1.000000 0.000000 1.000000 0.000000 1.000000 0.000000 0.000000 2780.dat
1 1 -64.000180 -153.446200 63.999640 -1.000000 0.000000 0.000000 0.000000 0.000000 -1.000000 0.000000 -1.000000 0.000000 6629.dat
0 STEP
1 15 -106.000200 -297.446100 -16.910340 -0.800000 -0.600000 0.000000 -0.600000 0.800000 0.000000 0.000000 0.000000 -1.000000 32064a.dat
1 0 -112.000200 -289.446100 -6.000430 0.000000 -0.600000 0.800000 0.000000 0.800000 0.600000 -1.000000 0.000000 0.000000 3707.dat
1 15 -106.000200 -297.446200 2.969670 -0.800000 -0.600001 0.000000 -0.600001 0.800000 0.000000 0.000000 0.000000 -1.000000 32064a.dat
0 STEP
1 1 -101.200300 -303.846100 -26.910340 -0.800000 -0.600001 0.000000 -0.600001 0.800000 0.000000 0.000000 0.000000 -1.000000 3709b.dat
1 1 -101.200200 -303.846200 12.969730 -0.800000 -0.600001 0.000000 -0.600001 0.800000 0.000000 0.000000 0.000000 -1.000000 3709b.dat
0 STEP
1 15 -120.400200 -328.246200 -7.030330 0.000000 -0.600000 0.800000 0.000000 0.800000 0.600001 -1.000000 0.000000 0.000000 2431.dat
1 15 -86.800220 -323.046100 -6.910400 0.000000 -0.600001 0.800000 0.000000 0.800000 0.600001 -1.000000 0.000000 0.000000 3001.dat
1 15 -72.400210 -292.246100 -7.030270 0.000000 -0.600001 0.800000 0.000001 0.800000 0.600001 -1.000000 0.000000 0.000000 2431.dat
0 STEP
1 4 136.000000 -119.826200 -6.000000 -1.000000 0.000000 0.000000 0.000000 0.000000 1.000000 0.000000 1.000000 0.000000 32034.dat
1 19 136.000000 -89.826190 -6.000000 -0.000001 1.000000 -0.000001 -1.000000 -0.000001 0.000001 0.000001 0.000001 1.000000 3749.dat
1 71 136.000000 -159.826200 -6.000000 0.000000 0.000000 1.000000 1.000000 0.000000 0.000000 0.000000 1.000000 0.000000 4519.dat
0 STEP
1 16 99.796760 -159.576200 -5.395630 -0.000001 0.199367 -0.979925 0.000000 0.979925 0.199367 1.000000 0.000000 -0.000001 submodel group
0 STEP
0 STEP
0 NOFILE
0 FILE SubModel Group 9 Copy Copy Copy
0 SubModel Group 9 Copy Copy Copy
0 Name:  SubModel Group 9 Copy Copy Copy
0 Author:  
0 CustomBrick
0 NumOfBricks:  3
1 72 10.000000 -1.128810 -10.000000 1.000000 0.000000 0.000000 0.000000 0.000000 -1.000000 0.000000 1.000000 0.000000 dch003.dat
1 71 -27.466620 -79.717990 29.427020 1.000000 0.000000 0.000000 0.000000 0.000000 -1.000000 0.000000 1.000000 0.000000 dch004.dat
1 25 7.837010 13.484720 -9.965000 1.000000 0.000000 0.000000 0.000000 0.000000 -1.000000 0.000000 1.000000 0.000000 dch005.dat
0 NOFILE
0 FILE SubModel Group
0 SubModel Group
0 Name:  SubModel Group
0 Author:  
0 CustomBrick
0 NumOfBricks:  66
1 71 -0.324390 -156.643500 -27.994550 -1.000000 0.000000 0.000000 0.000000 0.199367 -0.979925 0.000000 -0.979925 -0.199367 64179.dat
1 0 39.675650 -95.854290 -25.831860 0.000000 0.000000 -1.000000 0.199367 -0.979925 0.000000 -0.979925 -0.199367 0.000000 2780.dat
1 0 -40.324390 -95.854290 -25.831820 0.000000 0.000000 -1.000000 0.199367 -0.979925 0.000000 -0.979925 -0.199367 0.000000 2780.dat
0 STEP
1 1 39.675640 -133.057600 -43.605790 0.000000 0.000000 1.000000 0.199367 0.979925 0.000000 -0.979925 0.199367 0.000000 6558.dat
1 1 -40.324410 -133.057600 -43.605680 0.000000 0.000000 1.000000 0.199367 0.979925 0.000000 -0.979925 0.199367 0.000000 6558.dat
0 STEP
1 71 -0.324420 -152.656100 -47.593040 -1.000000 0.000000 0.000000 0.000000 -0.199367 0.979925 0.000000 0.979925 0.199367 64179.dat
1 1 39.675610 -211.451700 -59.555080 0.000000 0.000000 1.000000 0.199367 0.979925 0.000000 -0.979925 0.199367 0.000000 6558.dat
1 1 -40.324420 -211.451600 -59.555040 0.000000 0.000000 1.000000 0.199367 0.979925 0.000000 -0.979925 0.199367 0.000000 6558.dat
0 STEP
1 1 -20.324500 -31.077760 -43.267430 0.000000 -1.000000 0.000001 -0.199368 -0.000001 -0.979925 0.979925 -0.000001 -0.199368 32526.dat
1 4 -40.324430 -113.459100 -39.618340 1.000000 0.000001 -0.000001 -0.000001 -0.199368 -0.979925 -0.000002 0.979925 -0.199368 32054.dat
1 4 -40.324390 -117.446400 -20.019900 1.000000 0.000001 -0.000001 -0.000001 -0.199368 -0.979925 -0.000002 0.979925 -0.199368 32054.dat
0 STEP
1 4 39.675620 -117.446400 -20.019940 -1.000000 -0.000001 0.000001 -0.000001 0.199366 -0.979925 0.000001 -0.979925 -0.199366 32054.dat
1 4 39.675580 -113.459100 -39.618440 -1.000000 -0.000001 0.000001 -0.000001 0.199366 -0.979925 0.000001 -0.979925 -0.199366 32054.dat
1 1 19.675530 -31.077760 -43.267520 0.000000 -1.000000 0.000001 -0.199368 -0.000001 -0.979925 0.979925 -0.000001 -0.199368 32526.dat
0 STEP
1 4 -0.604470 -11.479310 -39.280300 -1.000000 0.000000 0.000000 0.000000 -0.199368 0.979925 0.000000 0.979925 0.199368 32039.dat
1 71 -1.354470 -31.077820 -43.267580 -1.000000 0.000000 -0.000001 0.000000 0.979925 0.199367 0.000001 0.199367 -0.979925 32073.dat
0 STEP
1 0 -30.324430 -109.471700 -59.216840 -1.000000 0.000000 0.000000 0.000000 0.979925 0.199367 0.000000 0.199367 -0.979925 2780.dat
1 0 -30.324470 -70.274730 -51.242160 -1.000000 0.000000 0.000000 0.000000 0.979925 0.199367 0.000000 0.199367 -0.979925 2780.dat
1 15 -40.324390 -70.274730 -51.242220 0.000001 1.000000 0.000001 -0.199368 -0.000001 0.979925 0.979925 -0.000001 0.199368 32316.dat
1 71 -50.324360 -50.676240 -47.254880 -1.000000 0.000000 0.000000 0.000000 0.979925 0.199367 0.000000 0.199367 -0.979925 3673.dat
0 STEP
1 15 39.675540 -70.274760 -51.242260 0.000001 1.000000 0.000001 -0.199368 -0.000001 0.979925 0.979925 -0.000001 0.199368 32316.dat
1 71 49.675560 -50.676260 -47.254930 -1.000000 0.000000 0.000000 0.000000 0.979925 0.199367 0.000000 0.199367 -0.979925 3673.dat
1 0 29.675600 -109.471800 -59.216940 -1.000000 0.000000 0.000000 0.000000 0.979925 0.199367 0.000000 0.199367 -0.979925 2780.dat
1 0 29.675560 -70.274760 -51.242260 -1.000000 0.000000 0.000000 0.000000 0.979925 0.199367 0.000000 0.199367 -0.979925 2780.dat
0 STEP
1 1 -40.324340 -129.070300 -63.204180 1.000000 -0.000001 -0.000001 -0.000001 -0.199368 -0.979925 0.000000 0.979925 -0.199368 32526.dat
1 1 39.675580 -207.464300 -79.153590 -1.000000 0.000001 0.000001 0.000001 -0.199366 0.979925 0.000002 0.979925 0.199366 32526.dat
0 STEP
1 0 19.675590 -225.238200 -41.950240 0.000000 1.000000 0.000000 0.979925 0.000000 0.199367 0.199367 0.000000 -0.979925 2780.dat
1 0 49.675600 -191.853100 -55.567740 -1.000000 0.000000 0.000000 0.000000 0.979925 0.199367 0.000000 0.199367 -0.979925 2780.dat
1 0 49.675600 -195.840500 -35.969250 -1.000000 0.000000 0.000000 0.000000 0.979925 0.199367 0.000000 0.199367 -0.979925 2780.dat
0 STEP
1 0 -50.324410 -195.840500 -35.969200 -1.000000 0.000000 0.000000 0.000000 0.979925 0.199367 0.000000 0.199367 -0.979925 2780.dat
1 0 -20.324400 -225.238200 -41.950220 0.000000 1.000000 0.000000 0.979925 0.000000 0.199367 0.199367 0.000000 -0.979925 2780.dat
1 0 -50.324420 -191.853100 -55.567700 -1.000000 0.000000 0.000000 0.000000 0.979925 0.199367 0.000000 0.199367 -0.979925 2780.dat
0 STEP
1 0 -0.324300 -205.639800 -37.962780 0.000000 0.000000 1.000000 0.979925 -0.199367 0.000000 0.199367 0.979925 0.000000 3705.dat
1 71 -0.324410 -225.238300 -41.950180 1.000000 0.000000 0.000000 0.000000 -0.199367 -0.979925 0.000000 0.979925 -0.199367 58120.dat
0 STEP
1 19 -0.324320 -187.579700 -34.288510 -1.000000 0.000001 -0.000001 -0.000001 -0.199367 0.979925 0.000000 0.979925 0.199367 6589.dat
1 71 -0.324300 -198.662700 -36.543290 0.000000 1.000000 0.000000 -0.199368 0.000000 0.979925 0.979925 0.000000 0.199368 3713.dat
0 STEP
1 19 19.605600 -156.643500 -27.994560 0.000000 0.000000 -1.000000 0.199367 -0.979925 0.000000 -0.979925 -0.199367 0.000000 32269.dat
1 71 -0.114420 -156.643500 -27.994550 -1.000000 0.000000 -0.000001 0.000000 0.979925 0.199367 0.000001 0.199367 -0.979925 44294.dat
0 STEP
1 15 59.675600 -54.663600 -27.656500 0.000001 1.000000 0.000001 -0.979925 0.000001 -0.199368 -0.199368 -0.000001 0.979925 32523.dat
1 71 69.675630 -58.650960 -8.058010 -1.000000 0.000000 0.000000 0.000000 0.979925 0.199367 0.000000 0.199367 -0.979925 3673.dat
0 STEP
1 19 69.795600 -160.630800 -8.396090 -1.000000 -0.000001 0.000001 0.000001 -0.199366 0.979925 0.000000 0.979925 0.199366 3749.dat
1 72 54.875600 -156.643500 -27.994580 0.000000 0.000000 1.000000 0.979925 -0.199367 0.000000 0.199367 0.979925 0.000000 6575.dat
1 72 64.795580 -156.643500 -27.994580 0.000000 0.000000 1.000000 0.979925 -0.199367 0.000000 0.199367 0.979925 0.000000 6575.dat
0 STEP
1 0 79.795520 -110.630900 -8.396150 0.000000 0.000000 1.000000 -1.000000 0.000000 0.000000 0.000000 -1.000000 0.000000 3705.dat
1 0 79.795600 -160.630900 -8.396160 1.000000 0.000002 0.000003 0.000003 0.000002 -1.000000 -0.000002 1.000000 0.000002 32013.dat
1 4 79.795520 -58.260920 -8.396160 -1.000000 0.000000 -0.000001 -0.000001 0.000000 1.000000 0.000000 1.000000 0.000000 32034.dat
0 STEP
1 4 79.795500 -28.260920 -8.396170 -0.000001 1.000000 0.000000 1.000000 0.000001 0.000000 0.000000 0.000000 -1.000000 32062.dat
1 4 79.795510 -18.260900 11.603860 -0.000001 0.000001 1.000000 1.000000 0.000000 0.000001 0.000000 1.000000 -0.000001 42003.dat
0 STEP
1 71 -70.324320 -58.650940 -8.057870 -1.000000 0.000000 0.000000 0.000000 0.979925 0.199367 0.000000 0.199367 -0.979925 3673.dat
1 15 -60.324340 -54.663590 -27.656380 0.000001 1.000000 0.000001 -0.979925 0.000001 -0.199368 -0.199368 -0.000001 0.979925 32523.dat
0 STEP
1 72 -65.114400 -156.643500 -27.994520 0.000000 0.000000 -1.000000 0.979925 0.199367 0.000000 0.199367 -0.979925 0.000000 6575.dat
1 72 -55.254420 -156.643500 -27.994520 0.000000 0.000000 -1.000000 0.979925 0.199367 0.000000 0.199367 -0.979925 0.000000 6575.dat
1 19 -70.114400 -152.656200 -47.593020 1.000000 0.000001 -0.000001 0.000001 0.199368 0.979925 0.000001 -0.979925 0.199368 3749.dat
0 STEP
1 0 -80.114390 -106.733900 -27.815680 -0.000001 -1.000000 -0.000001 -0.918446 0.000001 0.395545 -0.395545 0.000001 -0.918446 3705.dat
1 0 -80.114400 -152.656200 -47.593080 1.000000 0.000003 0.000001 0.000002 -0.395544 -0.918447 -0.000002 0.918447 -0.395544 32013.dat
1 4 -80.114340 -58.588940 -7.081200 -1.000000 -0.000001 -0.000001 0.000001 0.395546 -0.918446 0.000001 -0.918447 -0.395546 32034.dat
0 STEP
1 4 -80.114320 -31.035540 4.785140 -0.000001 -1.000000 0.000000 -0.918447 0.000001 0.395546 -0.395546 0.000001 -0.918447 32062.dat
1 4 -80.114300 -29.761980 27.109530 -0.000001 0.000000 -1.000000 -0.918446 -0.395546 0.000001 -0.395546 0.918447 0.000001 42003.dat
0 STEP
1 15 59.675640 -203.815200 3.227730 0.000001 1.000000 0.000001 -0.979925 0.000001 -0.199368 -0.199368 -0.000001 0.979925 32524.dat
1 0 49.675690 -211.789900 42.424730 -1.000000 0.000000 0.000000 0.000000 0.979925 0.199367 0.000000 0.199367 -0.979925 2780.dat
1 0 49.675720 -215.777300 62.023220 -1.000000 0.000000 0.000000 0.000000 0.979925 0.199367 0.000000 0.199367 -0.979925 2780.dat
0 STEP
1 15 -60.324360 -203.815200 3.227790 0.000001 1.000000 0.000001 -0.979925 0.000001 -0.199368 -0.199368 -0.000001 0.979925 32524.dat
1 0 -50.324280 -215.777300 62.023270 -1.000000 0.000000 0.000000 0.000000 0.979925 0.199367 0.000000 0.199367 -0.979925 2780.dat
1 0 -50.324300 -211.789900 42.424780 -1.000000 0.000000 0.000000 0.000000 0.979925 0.199367 0.000000 0.199367 -0.979925 2780.dat
0 STEP
1 1 -40.324360 -274.572800 50.061200 -0.000001 -1.000000 0.000001 0.199368 0.000001 0.979925 -0.979925 0.000002 0.199368 32140.dat
1 1 39.675780 -156.981700 73.985120 0.000000 1.000000 -0.000001 0.199366 -0.000001 -0.979925 -0.979925 0.000000 -0.199366 32140.dat
0 STEP
0 NOFILE
