0 FILE 搅拌器.io
0 Untitled Model
0 Name:  搅拌器
0 Author:  
0 CustomBrick
0 NumOfBricks:  52
1 1 172.000100 -77.260460 -109.999900 1.000003 0.000000 0.000000 0.000000 1.000000 0.000000 0.000000 0.000000 1.000003 3701.dat
1 0 192.000000 -67.260460 -99.999940 0.000000 0.000000 -1.000003 0.000000 1.000000 0.000000 1.000003 0.000000 0.000000 2780.dat
1 0 152.000000 -67.260460 -99.999940 0.000000 0.000000 -1.000003 0.000000 1.000000 0.000000 1.000003 0.000000 0.000000 2780.dat
0 STEP
1 1 132.000200 -77.260460 -89.999940 1.000000 0.000000 0.000000 0.000000 1.000000 0.000000 0.000000 0.000000 1.000000 3702.dat
1 0 92.000240 -67.260460 -99.999940 0.000000 0.000000 -1.000000 0.000000 1.000000 0.000000 1.000000 0.000000 0.000000 2780.dat
1 0 72.000220 -67.260460 -99.999940 0.000000 0.000000 -1.000000 0.000000 1.000000 0.000000 1.000000 0.000000 0.000000 2780.dat
0 STEP
1 1 12.000220 -77.260460 -109.999900 -1.000000 0.000000 0.000000 0.000000 1.000000 0.000000 0.000000 0.000000 -1.000000 3895.dat
1 0 -88.000090 -67.260460 -99.999940 0.000000 0.000000 1.000000 0.000000 1.000000 0.000000 -1.000000 0.000000 0.000000 2780.dat
0 STEP
1 0 172.000100 -67.260460 -119.999900 0.000000 0.000000 -1.000003 0.000000 1.000000 0.000000 1.000003 0.000000 0.000000 2780.dat
1 0 111.999500 -67.260640 -119.999900 0.000000 0.000000 1.000000 0.000000 1.000000 0.000000 -1.000000 0.000000 0.000000 2780.dat
1 1 32.000250 -67.260460 -110.000000 0.000000 0.000000 -1.000000 0.000000 1.000000 0.000000 1.000000 0.000000 0.000000 6558.dat
1 1 -48.000030 -67.260460 -110.000000 0.000000 0.000000 -1.000000 0.000000 1.000000 0.000000 1.000000 0.000000 0.000000 6558.dat
0 STEP
1 1 172.000100 -77.260460 -129.999900 1.000003 0.000000 0.000000 0.000000 1.000000 0.000000 0.000000 0.000000 1.000003 3701.dat
1 1 11.999970 -77.260460 -130.000000 -1.000000 0.000000 0.000000 0.000000 1.000000 0.000000 0.000000 0.000000 -1.000000 3895.dat
0 STEP
1 0 192.000000 -67.260460 -140.000000 0.000000 0.000000 -1.000003 0.000000 1.000000 0.000000 1.000003 0.000000 0.000000 2780.dat
1 0 151.999600 -67.260460 -139.998400 0.000000 0.000000 -1.000000 0.000000 1.000000 0.000000 1.000000 0.000000 0.000000 2780.dat
1 0 91.999970 -67.260460 -140.000000 0.000000 0.000000 -1.000000 0.000000 1.000000 0.000000 1.000000 0.000000 0.000000 2780.dat
1 0 72.000000 -67.260460 -140.000100 0.000000 0.000000 -1.000000 0.000000 1.000000 0.000000 1.000000 0.000000 0.000000 2780.dat
0 STEP
1 1 132.000000 -77.260460 -150.000000 1.000000 0.000000 0.000000 0.000000 1.000000 0.000000 0.000000 0.000000 1.000000 3702.dat
1 0 -88.000090 -67.260460 -139.999900 0.000000 0.000000 1.000000 0.000000 1.000000 0.000000 -1.000000 0.000000 0.000000 2780.dat
0 STEP
1 1 -228.000200 -77.260460 -89.999940 1.000000 0.000000 0.000000 0.000000 1.000000 0.000000 0.000000 0.000000 1.000000 3703.dat
1 0 -228.000200 -67.260460 -80.519960 0.000000 0.000000 -1.000000 0.000000 1.000000 0.000000 1.000000 0.000000 0.000000 2780.dat
1 0 -188.000100 -67.260460 -80.518070 0.000000 0.000000 -0.999999 0.000000 1.000000 0.000000 0.999999 0.000000 0.000000 2780.dat
0 STEP
1 0 -208.000200 -67.260460 -120.520000 0.000000 0.000000 1.000000 0.000000 1.000000 0.000000 -1.000000 0.000000 0.000000 3706.dat
0 STEP
1 71 -208.000200 -67.260460 -110.270000 -1.000000 0.000000 0.000000 0.000000 -1.000000 0.000000 0.000000 0.000000 1.000000 3649.dat
0 STEP
1 71 -328.000200 -67.260440 -69.959960 0.984808 -0.173645 0.000001 0.173645 0.984808 0.000000 -0.000001 0.000000 1.000000 3713.dat
1 0 -328.000300 -67.260460 -159.959800 0.000000 -0.173645 0.984808 0.000000 0.984808 0.173645 -1.000000 0.000000 0.000000 3737.dat
0 STEP
1 71 -328.000200 -67.260440 -109.730000 0.984808 -0.173645 0.000001 0.173645 0.984808 0.000000 -0.000001 0.000000 1.000000 3713.dat
1 72 -328.000300 -67.260460 -129.959900 -0.984808 0.173645 0.000000 -0.173645 -0.984808 0.000000 0.000000 0.000000 1.000000 3647.dat
0 STEP
1 0 -268.000200 -67.260440 -119.979900 0.000000 -0.346932 0.937890 0.000000 0.937890 0.346932 -1.000000 0.000000 0.000000 3705.dat
1 72 -268.000200 -67.260460 -109.979900 -0.937890 -0.346932 0.000000 -0.346932 0.937890 0.000000 0.000000 0.000000 -1.000000 3647.dat
1 71 -268.000200 -67.260440 -129.889800 0.937890 0.346932 0.000000 0.346932 -0.937890 0.000000 0.000000 0.000000 -1.000000 3649.dat
0 STEP
1 1 -228.000100 -77.260460 -149.999900 1.000000 0.000000 0.000000 0.000000 1.000000 0.000000 0.000000 0.000000 1.000000 3703.dat
1 71 -208.000200 -67.260460 -170.519900 1.000000 0.000000 0.000001 0.000000 1.000000 0.000000 -0.000001 0.000000 1.000000 3713.dat
0 STEP
0 STEP
1 1 -368.000100 -53.260480 -119.999900 0.000000 0.000000 1.000000 0.000000 1.000000 0.000000 -1.000000 0.000000 0.000000 3709b.dat
1 1 -88.000090 -53.260480 -119.999900 0.000000 0.000000 1.000000 0.000000 1.000000 0.000000 -1.000000 0.000000 0.000000 3709b.dat
0 STEP
1 1 -88.000030 -85.260440 -120.000000 0.000000 0.000000 1.000000 0.000000 1.000000 0.000000 -1.000000 0.000000 0.000000 3709b.dat
1 1 -368.000100 -85.260440 -120.000000 0.000000 0.000000 1.000000 0.000000 1.000000 0.000000 -1.000000 0.000000 0.000000 3709b.dat
0 STEP
1 0 -328.000400 -67.260440 -339.959800 0.000000 -0.173645 0.984808 0.000000 0.984808 0.173645 -1.000000 0.000000 0.000000 3707.dat
1 71 -327.999800 -67.263260 -259.959800 0.984808 -0.173645 0.000000 0.173645 0.984808 0.000000 0.000000 0.000000 1.000000 59443.dat
0 STEP
1 4 -308.303800 -63.787590 -379.893200 0.000000 0.984818 -0.173646 0.000000 0.173646 0.984808 1.000006 0.000000 0.000000 42003.dat
1 14 -328.000200 -67.260530 -364.653300 0.173645 0.984818 0.000000 -0.984807 0.173646 0.000000 0.000000 0.000000 1.000006 32123a.dat
0 STEP
1 14 -328.000100 -67.260530 -414.732800 0.173645 0.984815 0.000000 -0.984807 0.173645 0.000000 0.000000 0.000000 1.000006 32123a.dat
1 4 -347.696700 -70.733460 -399.653100 0.000000 -0.984818 0.173645 0.000000 -0.173646 -0.984808 1.000006 0.000000 0.000000 42003.dat
0 STEP
1 19 -363.920200 -93.902480 -399.653100 0.173645 0.000000 0.984818 -0.984807 0.000000 0.173646 0.000000 -1.000006 0.000000 32556.dat
1 19 -292.080300 -40.618490 -379.893200 -0.173646 -0.984818 0.000000 0.984808 -0.173646 0.000000 0.000000 0.000000 1.000006 32556.dat
0 STEP
1 4 -308.303900 -63.787600 -379.893200 -0.173644 0.984809 -0.000001 0.984808 0.173644 0.000000 0.000000 -0.000001 -1.000000 32054.dat
1 4 -347.696600 -70.733440 -399.653100 0.173644 0.984809 -0.000001 -0.984808 0.173644 0.000000 0.000000 0.000001 1.000000 32054.dat
0 STEP
1 15 -207.999500 -67.449500 -78.973000 1.000000 0.000000 0.000000 0.000000 1.000000 0.000000 0.000000 0.000000 1.000000 dx0070.dat.dat
0 STEP
1 16 -78.000000 -77.427020 73.000000 0.000000 -1.000000 0.000000 0.000000 0.000000 1.000000 -1.000000 0.000000 0.000000 submodel group 9 copy copy copy
0 STEP
0 STEP
0 NOFILE
0 FILE SubModel Group 9 Copy Copy Copy
0 SubModel Group 9 Copy Copy Copy
0 Name:  SubModel Group 9 Copy Copy Copy
0 Author:  
0 CustomBrick
0 NumOfBricks:  3
1 72 10.000000 -1.128810 -10.000000 1.000000 0.000000 0.000000 0.000000 0.000000 -1.000000 0.000000 1.000000 0.000000 dch003.dat
1 71 -27.466620 -79.717990 29.427020 1.000000 0.000000 0.000000 0.000000 0.000000 -1.000000 0.000000 1.000000 0.000000 dch004.dat
1 25 7.837010 13.484720 -9.965000 1.000000 0.000000 0.000000 0.000000 0.000000 -1.000000 0.000000 1.000000 0.000000 dch005.dat
0 NOFILE
