0 FILE 陀螺发射器.io
0 Untitled Model
0 Name:  陀螺发射器
0 Author:  
0 CustomBrick
0 NumOfBricks:  65
1 1 249.000100 -73.752600 -139.000000 0.000000 0.000000 -1.000000 0.000000 1.000000 0.000000 1.000000 0.000000 0.000000 6558.dat
1 1 289.000000 -73.752590 -139.000200 0.000001 0.000000 1.000000 0.000000 1.000000 0.000000 -1.000000 0.000000 0.000001 6558.dat
1 15 188.999900 -73.752490 -139.000100 -0.000001 -0.000001 1.000000 -1.000000 0.000001 -0.000001 -0.000001 -1.000000 -0.000001 64290.dat
0 STEP
1 14 268.999900 -73.752490 -104.000300 1.000000 0.000000 0.000000 0.000000 -1.000000 0.000000 0.000000 0.000000 -1.000000 32123a.dat
1 15 289.000000 -73.752580 -159.000200 -0.000001 -0.000001 1.000000 -1.000000 0.000001 -0.000001 -0.000001 -1.000000 -0.000001 32316.dat
1 15 289.000000 -73.752580 -119.000300 -0.000001 -0.000001 1.000000 -1.000000 0.000001 -0.000001 -0.000001 -1.000000 -0.000001 32316.dat
1 14 268.999900 -73.752490 -174.270300 1.000000 0.000000 0.000000 0.000000 1.000000 0.000000 0.000000 0.000000 1.000000 32123a.dat
1 71 268.999900 -73.752490 -139.000300 0.000000 0.000000 1.000000 0.000000 1.000000 0.000000 -1.000000 0.000000 0.000000 32073.dat
0 STEP
1 0 348.999900 -53.752600 -109.000100 0.000000 0.000000 -1.000000 0.000000 1.000000 0.000000 1.000000 0.000000 0.000000 2780.dat
1 0 348.999900 -93.752590 -109.000100 0.000000 0.000000 -1.000000 0.000000 1.000000 0.000000 1.000000 0.000000 0.000000 2780.dat
1 0 329.000000 -73.752610 -109.000300 0.000000 0.000000 1.000000 0.000000 1.000000 0.000000 -1.000000 0.000000 0.000000 2780.dat
1 0 309.000000 -73.752590 -109.000200 0.000000 0.000000 1.000000 0.000000 1.000000 0.000000 -1.000000 0.000000 0.000000 2780.dat
1 71 309.000000 -73.752590 -99.000220 0.000000 0.000000 1.000000 -1.000000 0.000000 0.000000 0.000000 -1.000000 0.000000 60484.dat
0 STEP
1 16 512.000700 -3.927770 -149.000300 -1.000001 0.000000 0.000000 0.000000 1.000000 0.000000 0.000000 0.000000 -1.000001 submodel group 9 copy copy copy
0 STEP
1 0 329.000000 -73.752640 -169.000200 0.000000 0.000000 1.000000 0.000000 1.000000 0.000000 -1.000000 0.000000 0.000000 2780.dat
1 0 348.999900 -93.752590 -169.000100 0.000000 0.000000 1.000000 0.000000 1.000000 0.000000 -1.000000 0.000000 0.000000 2780.dat
1 0 348.999900 -53.752600 -169.000100 0.000000 0.000000 1.000000 0.000000 1.000000 0.000000 -1.000000 0.000000 0.000000 2780.dat
1 0 309.000000 -73.752610 -169.000100 0.000000 0.000000 1.000000 0.000000 1.000000 0.000000 -1.000000 0.000000 0.000000 2780.dat
1 71 309.000000 -73.752600 -179.000100 0.000000 0.000000 1.000000 1.000000 0.000000 0.000000 0.000000 1.000000 0.000000 60484.dat
0 STEP
1 1 188.999900 -73.752460 -139.000100 0.000000 0.000000 1.000000 0.000000 1.000000 0.000000 -1.000000 0.000000 0.000000 6558.dat
1 4 188.999900 -73.752460 -159.000200 0.000000 0.000000 -1.000000 0.000000 -1.000000 0.000000 -1.000000 0.000000 0.000000 32034.dat
1 4 188.999900 -73.752460 -119.000100 0.000000 0.000000 -1.000000 0.000000 -1.000000 0.000000 -1.000000 0.000000 0.000000 32034.dat
0 STEP
1 1 109.000000 -73.752380 -139.000000 0.000000 0.000000 1.000000 0.000000 1.000000 0.000000 -1.000000 0.000000 0.000000 6558.dat
0 STEP
1 1 -31.000000 -83.752390 -159.000000 -1.000000 0.000000 0.000000 0.000000 1.000000 0.000000 0.000000 0.000000 -1.000000 3703.dat
1 1 -30.999880 -83.752390 -119.000100 -1.000000 0.000000 0.000000 0.000000 1.000000 0.000000 0.000000 0.000000 -1.000000 3703.dat
1 0 48.999980 -73.752390 -109.000000 0.000000 0.000000 1.000000 0.000000 1.000000 0.000000 -1.000000 0.000000 0.000000 2780.dat
1 1 88.999900 -73.752380 -119.000000 -0.000001 0.000000 -1.000000 0.000000 1.000000 0.000000 1.000000 0.000000 -0.000001 6558.dat
0 STEP
1 71 68.999910 -73.752390 -138.720000 -0.998829 0.048388 -0.000001 0.048388 0.998829 0.000000 0.000001 0.000000 -1.000000 3713.dat
1 71 68.999910 -73.752390 -142.120000 0.000000 0.048388 -0.998829 0.000000 0.998829 0.048388 1.000000 0.000000 0.000000 32073.dat
1 71 68.999970 -73.752380 -109.000000 1.000000 0.000000 0.000000 0.000000 1.000000 0.000000 0.000000 0.000000 1.000000 58120.dat
0 STEP
1 15 119.000000 -107.752400 -159.000000 0.000000 0.000000 1.000000 0.000000 1.000000 0.000000 -1.000000 0.000000 0.000000 3040b.dat
1 15 89.000090 -115.752400 -119.000100 1.000000 0.000000 0.000000 0.000000 1.000000 0.000000 0.000000 0.000000 1.000000 2431.dat
1 15 89.000030 -115.752400 -159.000000 1.000000 0.000000 0.000000 0.000000 1.000000 0.000000 0.000000 0.000000 1.000000 2431.dat
1 15 119.000000 -107.752400 -119.000100 0.000000 0.000000 1.000000 0.000000 1.000000 0.000000 -1.000000 0.000000 0.000000 3040b.dat
1 15 59.000100 -107.752400 -119.000100 0.000000 0.000000 -1.000000 0.000000 1.000000 0.000000 1.000000 0.000000 0.000000 3040b.dat
1 15 59.000040 -107.752400 -158.999900 0.000000 0.000000 -1.000000 0.000000 1.000000 0.000000 1.000000 0.000000 0.000000 3040b.dat
0 STEP
1 71 68.999910 -73.752390 -179.640000 -0.998829 0.048388 0.000000 0.048388 0.998829 0.000000 0.000000 0.000000 -1.000000 3649.dat
0 STEP
1 72 -10.999950 -73.752330 -179.490000 0.234874 0.972026 -0.000002 -0.972026 0.234874 0.000000 0.000000 0.000002 1.000000 3648b.dat
1 19 -10.999950 -73.752360 -169.000000 0.000001 0.234873 -0.972026 0.000001 -0.972026 -0.234873 -1.000000 -0.000001 -0.000001 3749.dat
0 STEP
1 1 -70.999860 -107.752400 -119.000100 1.000000 0.000000 0.000000 0.000000 1.000000 0.000000 0.000000 0.000000 1.000000 3701.dat
1 1 -70.999980 -107.752400 -159.000000 1.000000 0.000000 0.000000 0.000000 1.000000 0.000000 0.000000 0.000000 1.000000 3701.dat
1 1 8.999990 -107.752400 -159.000000 1.000000 0.000000 0.000000 0.000000 1.000000 0.000000 0.000000 0.000000 1.000000 3701.dat
1 1 9.000110 -107.752400 -119.000100 1.000000 0.000000 0.000000 0.000000 1.000000 0.000000 0.000000 0.000000 1.000000 3701.dat
0 STEP
1 72 -51.000000 -73.752390 -179.560000 -0.642787 0.766045 0.000000 0.766045 0.642788 0.000000 0.000000 0.000000 -1.000000 3647.dat
1 71 -51.000000 -73.752380 -140.100100 -0.766045 0.642788 0.000000 -0.642788 -0.766045 0.000000 0.000000 0.000000 1.000000 3649.dat
1 71 -51.000060 -73.752390 -98.939960 -0.766045 -0.642788 0.000000 -0.642788 0.766044 0.000000 0.000000 0.000000 -1.000000 3713.dat
1 71 -51.000000 -73.752400 -201.390000 -0.766045 -0.642788 0.000000 -0.642788 0.766044 0.000000 0.000000 0.000000 -1.000000 3713.dat
1 0 -51.000000 -73.752390 -149.010000 0.000000 -0.642788 -0.766045 0.000000 0.766045 -0.642788 1.000000 0.000000 0.000000 3706.dat
0 STEP
1 1 -30.999880 -131.752400 -119.000100 1.000000 0.000000 0.000000 0.000000 1.000000 0.000000 0.000000 0.000000 1.000000 3701.dat
1 1 -31.000000 -131.752400 -159.000000 1.000000 0.000000 0.000000 0.000000 1.000000 0.000000 0.000000 0.000000 1.000000 3701.dat
0 STEP
1 72 -111.000000 -73.752390 -177.190000 -1.000000 0.000000 0.000000 0.000000 1.000000 0.000000 0.000000 0.000000 -1.000000 3648b.dat
1 72 -111.000000 -73.752390 -139.010100 0.000000 1.000000 0.000000 1.000000 0.000000 0.000000 0.000000 0.000000 -1.000000 3647.dat
1 71 -111.000000 -73.752390 -198.369900 -1.000000 0.000000 -0.000001 0.000000 1.000000 0.000000 0.000001 0.000000 -1.000000 3713.dat
1 71 -111.000000 -73.752390 -97.889980 -1.000000 0.000000 -0.000001 0.000000 1.000000 0.000000 0.000001 0.000000 -1.000000 3713.dat
1 0 -111.000000 -73.752390 -147.890100 0.000000 0.000000 -1.000000 0.000000 1.000000 0.000000 1.000000 0.000000 0.000000 3706.dat
0 STEP
1 71 -151.000000 -73.752390 -139.000000 0.000000 1.000000 0.000000 0.000000 0.000000 1.000000 1.000000 0.000000 0.000000 4519.dat
1 71 -151.000000 -73.752390 -139.000000 -1.000000 0.000000 -0.000001 0.000000 1.000000 0.000000 0.000001 0.000000 -1.000000 3713.dat
0 STEP
1 72 -170.999900 -73.752480 -178.389600 0.987799 0.155732 0.000000 0.155732 -0.987799 0.000000 0.000000 0.000000 -1.000000 3648b.dat
1 71 -170.999900 -73.752360 -216.829500 0.987799 0.155732 0.000000 0.155732 -0.987799 0.000000 0.000000 0.000000 -1.000000 3649.dat
1 71 -170.999900 -73.752480 -238.189700 0.987799 -0.155732 0.000001 0.155732 0.987799 0.000000 -0.000001 0.000000 1.000000 3713.dat
1 71 -171.000000 -73.752380 -216.879500 0.000000 0.155732 0.987799 0.000000 -0.987799 0.155733 1.000000 0.000000 0.000000 44294.dat
1 71 -170.999900 -73.752360 -195.879600 -0.155733 -0.987799 0.000000 0.987799 -0.155733 0.000001 -0.000001 0.000000 1.000000 3713.dat
1 19 -171.000400 -73.749110 -260.831700 0.987799 0.155731 0.000000 0.155732 -0.987792 0.000000 0.000000 0.000000 -0.999992 32269.dat
0 STEP
0 STEP
0 NOFILE
0 FILE SubModel Group 9 Copy Copy Copy
0 SubModel Group 9 Copy Copy Copy
0 Name:  SubModel Group 9 Copy Copy Copy
0 Author:  
0 CustomBrick
0 NumOfBricks:  3
1 72 10.000000 -1.128810 -10.000000 1.000000 0.000000 0.000000 0.000000 0.000000 -1.000000 0.000000 1.000000 0.000000 dch003.dat
1 71 -27.466620 -79.717990 29.427020 1.000000 0.000000 0.000000 0.000000 0.000000 -1.000000 0.000000 1.000000 0.000000 dch004.dat
1 25 7.837010 13.484720 -9.965000 1.000000 0.000000 0.000000 0.000000 0.000000 -1.000000 0.000000 1.000000 0.000000 dch005.dat
0 NOFILE
