0 Untitled Model
0 Name:  雪地摩托
0 Author:  
0 CustomBrick
0 NumOfBricks:  68
1 15 -72.619340 -14.523660 1.999910 0.000001 0.000001 -1.000000 -1.000000 0.000001 -0.000001 0.000001 1.000000 0.000001 40490.dat
1 0 -112.619500 -14.523790 12.000010 0.000000 0.000000 -1.000000 0.000000 1.000000 0.000000 1.000000 0.000000 0.000000 2780.dat
0 STEP
1 0 -12.619360 -14.523600 -8.000100 0.000000 0.000000 -1.000000 0.000000 1.000000 0.000000 1.000000 0.000000 0.000000 2780.dat
1 0 -132.619300 -14.523720 -7.999980 0.000000 0.000000 -1.000000 0.000000 1.000000 0.000000 1.000000 0.000000 0.000000 2780.dat
0 STEP
1 15 -72.619360 -14.523650 -18.000040 0.000001 0.000001 -1.000000 -1.000000 0.000001 -0.000001 0.000001 1.000000 0.000001 40490.dat
1 0 -112.619300 -14.523750 -27.999980 0.000000 0.000000 -1.000000 0.000000 1.000000 0.000000 1.000000 0.000000 0.000000 2780.dat
0 STEP
1 1 -72.619340 -14.523560 -38.000100 0.000000 0.000000 1.000000 -1.000000 0.000000 0.000000 0.000000 -1.000000 0.000000 6629.dat
1 0 7.380680 -14.523560 -28.000100 0.000000 0.000000 1.000000 0.000000 1.000000 0.000000 -1.000000 0.000000 0.000000 2780.dat
1 19 -72.619270 -14.523630 -28.000100 0.000001 -1.000000 0.000001 0.000001 0.000001 1.000000 -1.000000 -0.000001 0.000001 3749.dat
0 STEP
1 1 -252.619300 -14.523730 -38.000040 0.000000 0.000000 -1.000000 -1.000000 0.000000 0.000000 0.000000 1.000000 0.000000 32009.dat
1 0 -212.619300 -14.523740 -28.000040 0.000000 0.000000 -1.000000 0.000000 1.000000 0.000000 1.000000 0.000000 0.000000 2780.dat
1 0 -172.619300 -14.523690 -28.000040 0.000000 0.000000 -1.000000 0.000000 1.000000 0.000000 1.000000 0.000000 0.000000 2780.dat
1 1 -149.975500 -12.360530 -38.000160 0.000000 0.000000 1.000000 0.000000 1.000000 0.000000 -1.000000 0.000000 0.000000 6558.dat
0 STEP
1 15 -192.619400 -14.523730 -18.000040 0.000001 0.000001 -1.000000 -1.000000 0.000001 -0.000001 0.000001 1.000000 0.000001 32523.dat
1 0 -192.619400 -14.523740 -8.000040 0.000000 0.000000 -1.000000 0.000000 1.000000 0.000000 1.000000 0.000000 0.000000 2780.dat
0 STEP
1 15 -192.619400 -14.523740 1.999910 0.000001 0.000001 -1.000000 -1.000000 0.000001 -0.000001 0.000001 1.000000 0.000001 32523.dat
1 0 -212.619400 -14.523780 11.999950 0.000000 0.000000 -1.000000 0.000000 1.000000 0.000000 1.000000 0.000000 0.000000 2780.dat
1 0 -172.619400 -14.523730 11.999950 0.000000 0.000000 -1.000000 0.000000 1.000000 0.000000 1.000000 0.000000 0.000000 2780.dat
0 STEP
1 0 -188.604800 -142.504300 -8.000060 0.000000 0.000000 -1.000000 0.000000 1.000000 0.000000 1.000000 0.000000 0.000000 2780.dat
1 0 -252.619300 -54.523740 -28.000040 0.000000 0.000000 -1.000000 0.000000 1.000000 0.000000 1.000000 0.000000 0.000000 2780.dat
1 19 -252.619200 -94.523750 -28.000040 0.000001 -1.000000 0.000001 0.000001 0.000001 1.000000 -1.000000 -0.000001 0.000001 3749.dat
1 1 -172.619300 -154.523800 -17.999980 0.600001 0.000001 -0.799999 0.800000 0.000000 0.600001 0.000001 -1.000000 -0.000001 6629.dat
0 STEP
1 1 -172.619300 -154.523800 1.999980 0.600001 0.000001 -0.800000 0.800000 0.000000 0.600001 0.000001 -1.000000 -0.000001 6629.dat
1 0 -252.619500 -54.523780 11.999890 0.000000 0.000000 -1.000000 0.000000 1.000000 0.000000 1.000000 0.000000 0.000000 2780.dat
1 19 -252.619500 -94.523780 11.999950 -0.000001 1.000000 -0.000001 0.000001 0.000001 1.000000 1.000000 0.000001 -0.000001 3749.dat
0 STEP
1 1 -252.619500 -14.523760 21.999940 0.000000 0.000000 -1.000000 -1.000000 0.000000 0.000000 0.000000 1.000000 0.000000 32009.dat
1 1 -149.867300 -12.539870 21.999820 0.000000 0.000000 -1.000000 0.000000 1.000000 0.000000 1.000000 0.000000 0.000000 6558.dat
0 STEP
1 1 -72.619360 -14.523650 21.999940 0.000000 0.000000 1.000000 -1.000000 0.000000 0.000000 0.000000 -1.000000 0.000000 6629.dat
1 0 7.380680 -14.523560 11.999880 0.000000 0.000000 -1.000000 0.000000 1.000000 0.000000 1.000000 0.000000 0.000000 2780.dat
1 19 -72.619360 -14.523650 11.999950 -0.000001 1.000000 -0.000001 0.000001 0.000001 1.000000 1.000000 0.000001 -0.000001 3749.dat
0 STEP
1 15 -13.000240 -38.733740 42.000020 -0.297374 0.000001 -0.954761 -0.954761 0.000001 0.297374 0.000001 1.000000 0.000001 40490.dat
1 19 63.380630 -62.523700 31.999940 0.000001 -0.800000 -0.600000 0.000001 -0.600000 0.800000 -1.000000 -0.000001 0.000000 3749.dat
1 19 -89.381050 -14.943780 32.000060 0.000001 -1.000000 0.000000 0.000000 0.000000 1.000000 -1.000000 -0.000001 0.000000 3749.dat
0 STEP
1 0 -32.095420 -32.786240 32.000000 0.000000 0.000000 -1.000000 0.000000 1.000000 0.000000 1.000000 0.000000 0.000000 2780.dat
1 0 -13.000210 -38.733730 32.000000 0.000000 0.000000 -1.000000 0.000000 1.000000 0.000000 1.000000 0.000000 0.000000 2780.dat
0 STEP
1 1 -11.830170 -111.733300 2.000100 0.966821 0.255455 0.000000 -0.255455 0.966821 0.000000 0.000000 0.000000 1.000000 3701.dat
1 19 -28.306280 -95.918190 11.999950 -0.000001 0.965925 0.258822 0.000001 -0.258822 0.965925 1.000000 0.000001 -0.000001 3749.dat
1 1 -28.306250 -95.918170 22.000040 -0.965925 0.000001 0.258822 0.258822 0.000001 0.965925 0.000001 1.000000 -0.000001 32140.dat
0 STEP
1 1 -11.830170 -111.733200 -17.999920 0.966821 0.255455 0.000000 -0.255455 0.966821 0.000000 0.000000 0.000000 1.000000 3701.dat
1 1 -13.873720 -119.467900 -7.999920 0.966821 0.255455 0.000000 -0.255455 0.966821 0.000000 0.000000 0.000000 1.000000 3709b.dat
1 19 -28.612060 -96.955940 -27.999920 -0.000001 0.965925 -0.258822 -0.000001 -0.258822 -0.965925 -1.000000 -0.000001 0.000001 3749.dat
0 STEP
1 1 6.051610 -44.055820 -37.999920 0.966820 -0.000001 -0.255457 -0.255457 -0.000001 -0.966820 0.000000 1.000000 -0.000001 32140.dat
1 0 10.060750 -107.174200 -27.999920 0.000000 -0.177081 -0.984197 0.000000 0.984197 -0.177081 1.000000 0.000000 0.000000 2780.dat
1 19 6.051610 -44.055830 -47.999920 0.000000 -0.255457 0.966821 -0.000001 -0.966821 -0.255457 1.000000 -0.000002 0.000000 3749.dat
0 STEP
1 1 -28.612060 -96.955940 -37.999920 -0.965925 0.000001 0.258822 0.258822 0.000001 0.965925 0.000001 1.000000 -0.000001 32140.dat
1 0 -13.082670 -39.000460 -47.999980 0.000000 0.000000 -1.000000 0.000000 1.000000 0.000000 1.000000 0.000000 0.000000 2780.dat
1 0 -32.198570 -33.119680 -48.000040 0.000000 0.000000 -1.000000 0.000000 1.000000 0.000000 1.000000 0.000000 0.000000 2780.dat
0 STEP
1 15 -13.082670 -39.000450 -57.999980 -0.294039 0.000001 -0.955793 -0.955793 0.000001 0.294039 0.000001 1.000000 0.000001 40490.dat
1 19 -89.546180 -15.477320 -47.999920 -0.000001 1.000000 -0.000001 0.000001 0.000001 1.000000 1.000000 0.000001 -0.000001 3749.dat
1 19 63.380700 -62.523590 -48.000040 0.000000 0.800000 -0.600000 0.000000 0.600000 0.800000 1.000000 0.000001 0.000000 3749.dat
0 STEP
1 1 9.000000 -150.335200 -8.000000 0.000000 0.255455 0.966821 0.000000 0.966821 -0.255455 -1.000000 0.000000 0.000000 3701.dat
1 1 2.869090 -173.538800 -7.999920 0.000000 0.255455 0.966821 0.000000 0.966821 -0.255455 -1.000000 0.000000 0.000000 3700.dat
0 STEP
1 15 -201.243400 -43.531830 41.999880 0.516532 0.000001 -0.856268 -0.856268 0.000001 -0.516532 0.000000 1.000000 0.000001 32524.dat
1 0 -252.619500 -74.523760 31.999940 0.000000 0.000000 -1.000000 0.000000 1.000000 0.000000 1.000000 0.000000 0.000000 2780.dat
0 STEP
1 15 -201.297300 -43.442120 -58.000110 0.518026 0.000001 -0.855364 -0.855364 0.000001 -0.518026 0.000000 1.000000 0.000001 32524.dat
1 0 -252.619300 -74.523720 -48.000100 0.000000 0.000000 -1.000000 0.000000 1.000000 0.000000 1.000000 0.000000 0.000000 2780.dat
0 STEP
1 0 -204.619300 -130.523800 -28.000040 0.000000 0.000000 1.000000 0.000000 1.000000 0.000000 -1.000000 0.000000 0.000000 2780.dat
1 0 -220.633900 -118.543200 -27.999980 0.000000 0.000000 -1.000000 0.000000 1.000000 0.000000 1.000000 0.000000 0.000000 2780.dat
0 STEP
1 1 -236.606600 -106.506900 22.000000 0.600423 0.000001 0.799682 0.799682 -0.000001 -0.600423 0.000000 1.000000 -0.000001 32140.dat
1 0 -220.612900 -118.515400 12.000010 0.000000 0.000000 -1.000000 0.000000 1.000000 0.000000 1.000000 0.000000 0.000000 2780.dat
1 0 -204.619200 -130.523800 12.000010 0.000000 0.000000 -1.000000 0.000000 1.000000 0.000000 1.000000 0.000000 0.000000 2780.dat
0 STEP
1 14 -176.624300 -126.489700 7.349980 -1.000000 0.000000 0.000000 0.000000 -1.000000 0.000000 0.000000 0.000000 1.000000 32123a.dat
1 71 -176.624300 -126.489700 -7.870040 1.000000 0.000000 0.000001 0.000000 1.000000 0.000000 -0.000001 0.000000 1.000000 3713.dat
1 0 -176.624300 -126.489700 -8.040020 0.000000 0.000000 1.000000 0.000000 1.000000 0.000000 -1.000000 0.000000 0.000000 3706.dat
0 STEP
1 1 -236.648500 -106.562700 -37.999980 0.599028 0.000001 0.800728 0.800728 -0.000001 -0.599028 0.000000 1.000000 -0.000001 32140.dat
1 14 -176.624300 -126.489700 -23.040020 -1.000000 0.000000 0.000000 0.000000 -1.000000 0.000000 0.000000 0.000000 1.000000 32123a.dat
0 STEP
1 4 -176.624300 -126.489700 61.959930 -0.000001 1.000000 -0.000001 0.000001 0.000001 1.000000 1.000000 0.000001 -0.000001 32054.dat
1 4 -176.624300 -126.489700 -78.040000 0.000001 -1.000000 0.000001 0.000001 0.000001 1.000000 -1.000000 -0.000001 0.000001 32054.dat
0 STEP
0 STEP
