0 FILE 简易滑滑梯.io
0 Untitled Model
0 Name:  简易滑滑梯
0 Author:  
0 CustomBrick
0 NumOfBricks:  63
1 0 -420.026600 -9.999969 -129.450900 0.000000 0.000000 1.000002 0.000000 1.000008 0.000000 -1.000005 0.000000 0.000000 2780.dat
1 0 -460.026700 -9.999960 -129.450900 0.000000 0.000000 1.000002 0.000000 1.000008 0.000000 -1.000005 0.000000 0.000000 2780.dat
1 71 -440.026700 -9.999960 -79.450680 1.000002 0.000000 0.000000 0.000000 1.000008 0.000000 0.000000 0.000000 1.000005 64179.dat
0 STEP
1 1 -460.026700 -90.000670 -39.450470 1.000002 -0.000001 -0.000001 0.000001 0.000001 1.000008 -0.000001 -1.000005 0.000001 32526.dat
1 0 -460.026700 -9.999960 -29.450440 0.000000 0.000000 1.000002 0.000000 1.000008 0.000000 -1.000005 0.000000 0.000000 2780.dat
1 0 -420.026600 -9.999969 -29.450440 0.000000 0.000000 1.000002 0.000000 1.000008 0.000000 -1.000005 0.000000 0.000000 2780.dat
0 STEP
1 1 -460.026700 -90.000670 -119.450900 1.000002 -0.000001 -0.000001 0.000001 0.000001 1.000008 -0.000001 -1.000005 0.000001 32526.dat
1 0 -460.026900 -50.000350 -129.450900 0.000000 0.000000 1.000002 0.000000 1.000008 0.000000 -1.000005 0.000000 0.000000 2780.dat
1 0 -460.026700 -90.000670 -129.450900 0.000000 0.000000 1.000002 0.000000 1.000008 0.000000 -1.000005 0.000000 0.000000 2780.dat
0 STEP
1 0 -460.026700 -50.000320 -29.450440 0.000000 0.000000 1.000002 0.000000 1.000008 0.000000 -1.000005 0.000000 0.000000 2780.dat
1 0 -460.026700 -90.000640 -29.450440 0.000000 0.000000 1.000002 0.000000 1.000008 0.000000 -1.000005 0.000000 0.000000 2780.dat
1 15 -460.026600 -190.001400 -19.450380 1.000002 -0.000001 0.000001 0.000001 0.000001 -1.000008 0.000001 1.000005 0.000001 64871.dat
0 STEP
1 0 -460.026100 -250.003700 -29.130560 0.000000 0.000000 1.000092 0.000000 1.000008 0.000000 -1.000005 0.000000 0.000000 3705.dat
1 0 -460.026300 -290.002400 -29.130560 0.000000 0.000000 1.000034 0.000000 1.000008 0.000000 -1.000005 0.000000 0.000000 3705.dat
1 71 -460.026300 -290.002400 0.870330 -1.000034 0.000000 -0.000001 0.000000 1.000008 0.000000 0.000001 0.000000 -1.000005 3713.dat
1 71 -460.026100 -250.003700 0.870270 -1.000034 0.000000 -0.000001 0.000000 1.000008 0.000000 0.000001 0.000000 -1.000005 3713.dat
0 STEP
1 1 -460.056300 -270.009700 -79.132140 0.000000 1.000034 0.000000 -1.000008 0.000000 0.000000 0.000000 0.000000 1.000005 6558.dat
1 4 -460.056300 -250.011100 -79.132140 0.000000 1.000034 0.000000 1.000001 0.000000 0.000000 0.000000 0.000000 -1.000005 32034.dat
1 4 -460.028700 -290.002400 -79.130800 0.000000 1.000002 0.000000 1.000008 0.000000 0.000000 0.000000 0.000000 -1.000005 32034.dat
0 STEP
1 0 -460.026100 -250.003700 -129.130300 0.000000 0.000000 1.000092 0.000000 1.000008 0.000000 -1.000005 0.000000 0.000000 3705.dat
1 0 -460.026300 -290.002400 -129.130100 0.000000 0.000000 1.000034 0.000000 1.000008 0.000000 -1.000005 0.000000 0.000000 3705.dat
0 STEP
1 15 -460.026700 -190.001500 -139.451000 1.000002 -0.000001 0.000001 0.000001 0.000001 -1.000008 0.000001 1.000005 0.000001 64871.dat
1 71 -460.026300 -290.002400 -159.130300 1.000034 0.000000 0.000001 0.000000 1.000008 0.000000 -0.000001 0.000000 1.000005 3713.dat
1 71 -460.026100 -250.003700 -159.130500 1.000034 0.000000 0.000001 0.000000 1.000008 0.000000 -0.000001 0.000000 1.000005 3713.dat
0 STEP
1 0 -460.026400 -330.002700 -29.450440 0.000000 0.000000 1.000002 0.000000 1.000008 0.000000 -1.000005 0.000000 0.000000 2780.dat
1 0 -460.026500 -330.002800 -129.450800 0.000000 0.000000 1.000002 0.000000 1.000008 0.000000 -1.000005 0.000000 0.000000 2780.dat
1 15 -320.026200 -330.002600 -119.450900 0.000001 0.000001 -1.000002 -1.000008 0.000001 -0.000001 0.000001 1.000005 0.000001 64871.dat
0 STEP
1 15 -180.025900 -330.002400 -139.451000 0.000001 0.000001 -1.000002 -1.000008 0.000001 -0.000001 0.000001 1.000005 0.000001 32316.dat
1 0 -220.026000 -330.002400 -129.450900 0.000000 0.000000 -1.000002 0.000000 1.000008 0.000000 1.000005 0.000000 0.000000 2780.dat
1 0 -180.025900 -330.002400 -129.450900 0.000000 0.000000 -1.000002 0.000000 1.000008 0.000000 1.000005 0.000000 0.000000 2780.dat
0 STEP
1 0 -220.025900 -330.002400 -29.450620 0.000000 0.000000 -1.000002 0.000000 1.000008 0.000000 1.000005 0.000000 0.000000 2780.dat
1 0 -180.025800 -330.002300 -29.450620 0.000000 0.000000 -1.000002 0.000000 1.000008 0.000000 1.000005 0.000000 0.000000 2780.dat
1 15 -320.026100 -330.002400 -39.450470 0.000001 0.000001 -1.000002 -1.000008 0.000001 -0.000001 0.000001 1.000005 0.000001 64871.dat
1 15 -180.025800 -330.002300 -19.450560 0.000001 0.000001 -1.000002 -1.000008 0.000001 -0.000001 0.000001 1.000005 0.000001 32316.dat
0 STEP
1 0 -160.025800 -330.002300 -29.450440 0.000000 0.000000 -1.000002 0.000000 1.000008 0.000000 1.000005 0.000000 0.000000 2780.dat
1 0 -140.025700 -330.002300 -29.450620 0.000000 0.000000 -1.000002 0.000000 1.000008 0.000000 1.000005 0.000000 0.000000 2780.dat
1 15 -60.025440 -330.002400 -39.450470 0.000001 0.000001 -1.000002 1.000008 -0.000001 0.000001 -0.000001 -1.000005 -0.000001 64290.dat
0 STEP
1 0 -0.025290 -330.002500 -29.450440 0.000000 0.000000 -1.000002 0.000000 1.000008 0.000000 1.000005 0.000000 0.000000 2780.dat
1 0 39.974780 -330.002500 -29.450440 0.000000 0.000000 -1.000002 0.000000 1.000008 0.000000 1.000005 0.000000 0.000000 2780.dat
1 15 59.974820 -330.002500 -19.450380 0.000001 0.000001 -1.000002 -1.000008 0.000001 -0.000001 0.000001 1.000005 0.000001 32524.dat
0 STEP
1 0 -140.025900 -330.002300 -129.451100 0.000000 0.000000 -1.000002 0.000000 1.000008 0.000000 1.000005 0.000000 0.000000 2780.dat
1 0 -160.025800 -330.002400 -129.450900 0.000000 0.000000 -1.000002 0.000000 1.000008 0.000000 1.000005 0.000000 0.000000 2780.dat
1 15 -60.025740 -330.002400 -119.450900 0.000001 0.000001 -1.000002 1.000008 -0.000001 0.000001 -0.000001 -1.000005 -0.000001 64290.dat
0 STEP
1 16 133.690800 -292.001200 -79.180720 1.000000 0.000000 0.000000 0.000000 1.000000 0.000000 0.000000 0.000000 1.000000 submodel group 1
0 STEP
1 0 -0.025290 -330.002500 -129.450900 0.000000 0.000000 -1.000002 0.000000 1.000008 0.000000 1.000005 0.000000 0.000000 2780.dat
1 0 39.974780 -330.002600 -129.450900 0.000000 0.000000 -1.000002 0.000000 1.000008 0.000000 1.000005 0.000000 0.000000 2780.dat
1 15 59.974820 -330.002500 -139.451000 0.000001 0.000001 -1.000002 -1.000008 0.000001 -0.000001 0.000001 1.000005 0.000001 32524.dat
0 STEP
0 STEP
0 NOFILE
0 FILE SubModel Group 1
0 SubModel Group 1
0 Name:  SubModel Group 1
0 Author:  
0 CustomBrick
0 NumOfBricks:  17
1 0 -33.715860 -38.001220 49.730280 0.000000 0.000000 -1.000002 0.000000 1.000008 0.000000 1.000005 0.000000 0.000000 2780.dat
1 19 -73.715980 -38.001250 49.730280 0.000001 -1.000002 0.000001 0.000001 0.000001 1.000008 -1.000005 -0.000001 0.000001 3749.dat
1 1 -73.715980 -38.001380 39.730070 0.000001 0.000001 1.000002 -1.000008 0.000001 0.000001 -0.000001 -1.000005 0.000001 32271.dat
0 STEP
1 4 70.284340 -70.001460 -0.269960 0.804824 -0.593518 0.000000 0.593522 0.804829 0.000001 -0.000001 -0.000001 1.000005 32034.dat
1 4 70.284340 -70.001400 30.290190 0.000001 0.593518 0.804824 0.000000 0.804829 -0.593522 -1.000005 0.000001 0.000001 32062.dat
0 STEP
1 19 78.332320 -64.066160 -0.269960 0.804824 0.593518 0.000000 0.593522 -0.804829 -0.000001 -0.000001 0.000000 -1.000005 3749.dat
1 19 86.380310 -58.130980 -0.269960 0.593518 -0.000001 0.804824 -0.804829 0.000000 0.593522 0.000000 -1.000005 -0.000001 32269.dat
0 STEP
1 14 6.284180 -38.001220 24.399960 0.000000 1.000002 0.000000 -1.000008 0.000000 0.000000 0.000000 0.000000 1.000005 32123a.dat
1 14 6.284180 -38.001220 55.490020 0.000000 1.000002 0.000000 -1.000008 0.000000 0.000000 0.000000 0.000000 1.000005 32123a.dat
1 0 6.284180 -38.001220 0.819820 0.000000 0.000000 1.000002 0.000000 1.000008 0.000000 -1.000005 0.000000 0.000000 3706.dat
0 STEP
1 71 6.309200 -38.000000 1.180730 0.000000 -1.000000 0.000000 1.000000 0.000000 0.000000 0.000000 0.000000 1.000000 56145.dat
1 14 6.284180 -38.001220 -25.300290 0.000000 1.000002 0.000000 -1.000008 0.000000 0.000000 0.000000 0.000000 1.000005 32123a.dat
0 STEP
1 4 70.284340 -70.001460 -30.270110 -0.000001 -0.593518 -0.804824 0.000000 0.804829 -0.593522 1.000005 0.000000 -0.000001 32062.dat
1 1 -73.715980 -38.001380 -40.270360 0.000001 0.000001 1.000002 -1.000008 0.000001 0.000001 -0.000001 -1.000005 0.000001 32271.dat
0 STEP
1 0 -33.715860 -38.001340 -50.270200 0.000000 0.000000 -1.000002 0.000000 1.000008 0.000000 1.000005 0.000000 0.000000 2780.dat
1 19 -73.715980 -38.001380 -50.270200 -0.000001 1.000002 -0.000001 0.000001 0.000001 1.000008 1.000005 0.000001 -0.000001 3749.dat
1 14 6.284180 -38.001220 -54.180390 0.000000 1.000002 0.000000 -1.000008 0.000000 0.000000 0.000000 0.000000 1.000005 32123a.dat
0 STEP
0 NOFILE
