0 FILE 离心伞.io
0 Untitled Model
0 Name:  离心伞
0 Author:  
0 CustomBrick
0 NumOfBricks:  115
1 1 14.000000 -39.621860 -272.000000 1.000000 0.000000 0.000000 0.000000 1.000000 0.000000 0.000000 0.000000 1.000000 3703.dat
0 STEP
1 1 -126.000000 -29.621860 -252.000100 0.000000 0.000000 1.000000 0.000000 1.000000 0.000000 -1.000000 0.000000 0.000000 6558.dat
1 0 -46.000000 -29.621860 -262.000000 0.000000 0.000000 -1.000000 0.000000 1.000000 0.000000 1.000000 0.000000 0.000000 2780.dat
1 1 -86.000000 -39.621860 -252.000000 1.000000 0.000000 0.000000 0.000000 1.000000 0.000000 0.000000 0.000000 1.000000 3894.dat
0 STEP
1 0 -106.000000 -29.621860 -242.000100 0.000000 0.000000 -1.000000 0.000000 1.000000 0.000000 1.000000 0.000000 0.000000 2780.dat
1 4 -126.000000 -29.621860 -232.000100 0.000000 1.000000 0.000000 -1.000000 0.000000 0.000000 0.000000 0.000000 1.000000 42003.dat
0 STEP
1 1 14.000000 -39.621860 -172.000000 1.000000 0.000000 0.000000 0.000000 1.000000 0.000000 0.000000 0.000000 1.000000 3703.dat
1 1 -126.000000 -15.621860 -222.000000 0.000000 0.000000 1.000000 0.000000 1.000000 0.000000 -1.000000 0.000000 0.000000 32001.dat
0 STEP
1 0 -126.000000 -29.621860 -182.000100 0.000000 0.000000 -1.000000 0.000000 1.000000 0.000000 1.000000 0.000000 0.000000 2780.dat
1 4 -126.000000 -29.621860 -192.000100 0.000000 1.000000 0.000000 -1.000000 0.000000 0.000000 0.000000 0.000000 1.000000 42003.dat
1 0 -106.000000 -29.621860 -182.000000 0.000000 0.000000 -1.000000 0.000000 1.000000 0.000000 1.000000 0.000000 0.000000 2780.dat
0 STEP
1 1 154.000000 -15.621860 -222.000000 0.000000 0.000000 1.000000 0.000000 1.000000 0.000000 -1.000000 0.000000 0.000000 32001.dat
1 1 14.000000 -15.621860 -222.000000 0.000000 0.000000 1.000000 0.000000 1.000000 0.000000 -1.000000 0.000000 0.000000 32001.dat
0 STEP
1 19 -146.000000 -39.621860 -232.000100 -0.000001 1.000000 -0.000001 1.000000 0.000001 -0.000001 -0.000001 -0.000001 -1.000000 3749.dat
1 19 -146.000100 -39.621860 -192.000100 -0.000001 1.000000 -0.000001 1.000000 0.000001 -0.000001 -0.000001 -0.000001 -1.000000 3749.dat
0 STEP
1 16 -309.000000 -81.084840 -141.999900 1.000000 0.000000 0.000000 0.000000 0.000000 -1.000000 0.000000 1.000000 0.000000 submodel group 9 copy copy copy
0 STEP
1 1 -357.000000 -70.000000 -211.999900 0.000000 1.000000 0.000000 0.000000 0.000000 -1.000000 -1.000000 0.000000 0.000000 3701.dat
1 1 -347.000000 -50.000000 -191.999900 0.000000 1.000000 0.000000 -1.000000 0.000000 0.000000 0.000000 0.000000 1.000000 6558.dat
1 1 -347.000000 -50.000000 -231.999900 0.000000 1.000000 0.000000 -1.000000 0.000000 0.000000 0.000000 0.000000 1.000000 6558.dat
0 STEP
1 1 -357.000000 -30.000000 -211.999900 0.000000 1.000000 0.000000 0.000000 0.000000 -1.000000 -1.000000 0.000000 0.000000 3894.dat
0 STEP
1 1 -357.000000 -10.000000 -212.000000 0.000000 1.000000 0.000000 0.000000 0.000000 -1.000000 -1.000000 0.000000 0.000000 3894.dat
1 0 -347.000000 -20.000000 -252.000000 0.000000 0.000000 1.000000 1.000000 0.000000 0.000000 0.000000 1.000000 0.000000 2780.dat
1 0 -347.000000 -20.000000 -171.999900 0.000000 0.000000 1.000000 1.000000 0.000000 0.000000 0.000000 1.000000 0.000000 2780.dat
0 STEP
1 1 54.000000 -63.621860 -172.000000 1.000000 0.000000 0.000000 0.000000 1.000000 0.000000 0.000000 0.000000 1.000000 3895.dat
0 STEP
1 1 14.000000 -87.621860 -272.000000 1.000000 0.000000 0.000000 0.000000 1.000000 0.000000 0.000000 0.000000 1.000000 3702.dat
1 1 134.000000 -87.621860 -272.000000 1.000000 0.000000 0.000000 0.000000 1.000000 0.000000 0.000000 0.000000 1.000000 3701.dat
1 1 54.000000 -63.621860 -272.000000 1.000000 0.000000 0.000000 0.000000 1.000000 0.000000 0.000000 0.000000 1.000000 3895.dat
0 STEP
1 1 14.000000 -87.621860 -172.000000 1.000000 0.000000 0.000000 0.000000 1.000000 0.000000 0.000000 0.000000 1.000000 3702.dat
1 1 134.000000 -87.621860 -172.000000 1.000000 0.000000 0.000000 0.000000 1.000000 0.000000 0.000000 0.000000 1.000000 3701.dat
1 1 54.000000 -111.621900 -172.000000 1.000000 0.000000 0.000000 0.000000 1.000000 0.000000 0.000000 0.000000 1.000000 3895.dat
0 STEP
1 71 -6.000000 -77.621860 -211.750000 0.000000 0.000000 1.000000 0.000000 1.000000 0.000000 -1.000000 0.000000 0.000000 60485.dat
1 71 -6.000000 -77.621860 -192.830000 1.000000 0.000000 0.000001 0.000000 1.000000 0.000000 -0.000001 0.000000 1.000000 3713.dat
0 STEP
1 71 -6.000000 -77.621860 -152.009900 0.000000 -1.000000 0.000000 1.000000 0.000000 0.000000 0.000000 0.000000 1.000000 3649.dat
1 71 -6.000000 -77.621860 -131.750100 1.000000 0.000000 0.000001 0.000000 1.000000 0.000000 -0.000001 0.000000 1.000000 3713.dat
0 STEP
1 0 -26.000000 -77.621860 -282.000100 0.000000 0.000000 -1.000000 0.000000 1.000000 0.000000 1.000000 0.000000 0.000000 2780.dat
1 0 14.000000 -77.621860 -282.000100 0.000000 0.000000 -1.000000 0.000000 1.000000 0.000000 1.000000 0.000000 0.000000 2780.dat
1 1 54.000000 -111.621900 -272.000000 1.000000 0.000000 0.000000 0.000000 1.000000 0.000000 0.000000 0.000000 1.000000 3895.dat
0 STEP
1 0 73.999530 -77.621750 -162.618900 0.000000 0.565694 0.824615 0.000000 0.824614 -0.565695 -1.000000 0.000000 0.000000 3705.dat
1 71 73.999530 -77.621780 -192.618700 0.824615 0.565695 0.000000 -0.565695 0.824615 0.000000 0.000000 0.000000 1.000000 3713.dat
0 STEP
1 71 73.999530 -77.621800 -132.748700 0.824615 0.565695 0.000000 -0.565695 0.824615 0.000000 0.000000 0.000000 1.000000 3713.dat
1 72 73.999530 -77.621800 -152.518800 0.824615 0.565695 0.000000 -0.565695 0.824615 0.000000 0.000000 0.000000 1.000000 3648b.dat
0 STEP
1 0 114.000000 -101.621900 -190.860100 -0.213041 -0.977044 0.000000 -0.977043 0.213041 0.000000 0.000000 0.000000 -1.000000 32270.dat
1 71 114.000000 -101.621900 -212.000100 0.000000 0.213041 0.977043 0.000000 0.977043 -0.213041 -1.000000 0.000000 0.000000 60485.dat
0 STEP
1 0 114.000100 -101.621900 -152.000100 -0.213041 -0.977043 0.000000 -0.977043 0.213041 0.000000 0.000000 0.000000 -1.000000 32270.dat
1 71 114.000000 -101.621900 -292.000100 0.977043 0.213041 0.000001 -0.213041 0.977043 0.000000 -0.000001 0.000000 1.000000 3713.dat
1 71 114.000100 -101.621900 -132.000000 0.977043 0.213041 0.000001 -0.213041 0.977043 0.000000 -0.000001 0.000000 1.000000 3713.dat
0 STEP
1 71 -6.000000 -77.621860 -282.000100 -1.000000 0.000000 0.000000 0.000000 1.000000 0.000000 0.000000 0.000000 -1.000000 58120.dat
0 STEP
1 16 114.000000 -108.121800 -221.928600 1.000000 0.000000 0.000000 0.000000 1.000000 0.000000 0.000000 0.000000 1.000000 submodel group 1
0 STEP
1 1 113.999400 -358.141800 -221.999800 1.000000 0.000001 0.000000 0.000000 1.000000 0.000000 0.000000 0.000000 1.000000 6558.dat
1 4 114.000100 -358.141800 -221.998900 -1.000000 0.000000 -0.000001 0.000000 0.000000 -1.000000 0.000000 -1.000000 0.000000 32034.dat
0 STEP
1 0 93.999420 -358.141800 -221.999800 -0.000001 -1.000000 0.000000 -1.000000 0.000000 -0.000001 0.000001 0.000000 -1.000000 15100.dat
1 0 133.999400 -358.141800 -221.999800 -0.000001 -1.000000 0.000000 -1.000000 0.000000 -0.000001 0.000001 0.000000 -1.000000 15100.dat
0 STEP
1 71 113.999400 -398.141800 -221.999800 0.000001 -1.000001 0.000000 1.000000 0.000000 0.000000 0.000000 0.000000 1.000000 4519.dat
1 14 113.999400 -393.621800 -221.999800 1.000000 0.000000 0.000000 0.000000 0.000000 -1.000000 0.000000 1.000000 0.000000 32123a.dat
1 14 113.999400 -403.471800 -221.999800 1.000000 0.000000 0.000000 0.000000 0.000000 -1.000000 0.000000 1.000000 0.000000 32123a.dat
0 STEP
1 4 93.999420 -388.141800 -221.999800 0.000000 -0.154711 0.987960 1.000000 0.000000 0.000000 0.000000 0.987960 0.154711 62462.dat
1 4 133.999400 -388.141800 -221.999800 0.000000 -0.154711 0.987960 1.000000 0.000000 0.000000 0.000000 0.987960 0.154711 62462.dat
0 STEP
1 0 113.999200 -438.971800 -221.999800 0.000000 -1.000001 -0.000003 0.000000 0.000002 -1.000000 1.000000 0.000000 0.000000 32013.dat
1 19 93.999300 -408.141800 -221.999800 -0.000002 1.000000 -0.000001 -1.000000 -0.000001 0.000001 0.000001 0.000001 1.000000 3749.dat
1 19 133.999400 -408.141800 -221.999800 -0.000002 1.000000 -0.000001 -1.000000 -0.000001 0.000001 0.000001 0.000001 1.000000 3749.dat
0 STEP
1 4 93.999210 -418.141800 -221.999800 0.000001 -1.000000 0.000002 0.000000 0.000001 1.000000 -1.000000 -0.000001 0.000000 32039.dat
1 0 94.241090 -438.142800 -222.413900 0.000001 0.000003 1.000000 0.000000 1.000000 -0.000002 -1.000000 0.000000 0.000001 3706.dat
0 STEP
1 71 113.999200 -438.141800 -221.980400 0.000000 0.000000 1.000000 0.000000 1.000000 0.000000 -1.000000 0.000000 0.000000 44294.dat
1 71 113.999200 -438.141800 -241.980400 1.000000 0.000000 0.000001 0.000000 1.000000 0.000000 -0.000001 0.000000 1.000000 3713.dat
1 71 113.999200 -438.141800 -201.980400 1.000000 0.000000 0.000001 0.000000 1.000000 0.000000 -0.000001 0.000000 1.000000 3713.dat
0 STEP
1 0 133.999300 -438.141800 -221.980300 -0.000001 0.000001 1.000000 0.000000 1.000000 0.000000 -1.000000 0.000000 -0.000001 3706.dat
1 4 133.999300 -418.141800 -221.999800 -0.000001 -1.000000 0.000000 0.000000 -0.000001 1.000000 -1.000000 0.000001 0.000000 32039.dat
0 STEP
1 15 201.872200 -315.694800 -201.700300 0.874622 -0.000001 0.484807 -0.484807 0.000001 0.874622 -0.000001 -1.000000 0.000000 64871.dat
1 15 26.127810 -315.694200 -202.047900 -0.874622 0.000001 -0.484807 -0.484807 0.000001 0.874622 0.000001 1.000000 -0.000001 64871.dat
0 STEP
1 71 113.999300 -478.141800 -182.240200 1.000000 0.000000 0.000000 0.000000 0.000000 1.000000 0.000000 -1.000000 0.000000 60484.dat
0 STEP
1 71 113.999200 -438.141800 -161.980400 1.000000 0.000000 0.000001 0.000000 1.000000 0.000000 -0.000001 0.000000 1.000000 3713.dat
1 14 133.999300 -438.141800 -167.080300 0.000000 1.000000 0.000000 -1.000000 0.000000 0.000000 0.000000 0.000000 1.000000 32123a.dat
1 14 94.241090 -438.142900 -167.403900 0.000000 1.000000 0.000000 -1.000000 0.000000 0.000000 0.000000 0.000000 1.000000 32123a.dat
0 STEP
1 15 201.872000 -315.694500 -242.129500 0.874622 -0.000001 0.484807 -0.484806 0.000001 0.874621 -0.000001 -1.000000 0.000001 64871.dat
1 15 26.127810 -315.694200 -242.047900 -0.874621 0.000001 -0.484807 -0.484807 0.000001 0.874621 0.000001 1.000000 -0.000001 64871.dat
0 STEP
1 71 113.999200 -478.141800 -261.980400 1.000000 0.000000 0.000000 0.000000 0.000000 1.000000 0.000000 -1.000000 0.000000 60484.dat
0 STEP
1 71 113.999200 -438.141800 -281.980400 1.000000 0.000000 0.000001 0.000000 1.000000 0.000000 -0.000001 0.000000 1.000000 3713.dat
1 14 133.999200 -438.141800 -276.980300 0.000000 1.000000 0.000000 -1.000000 0.000000 0.000000 0.000000 0.000000 1.000000 32123a.dat
1 14 94.241090 -438.142800 -277.393900 0.000000 1.000000 0.000000 -1.000000 0.000000 0.000000 0.000000 0.000000 1.000000 32123a.dat
0 STEP
1 1 241.207500 -246.026500 -181.700200 0.879650 0.000001 0.475621 -0.475622 0.000001 0.879649 0.000001 -1.000000 0.000001 32140.dat
1 0 269.745000 -193.247600 -252.129300 0.000000 1.000000 0.000001 0.000000 -0.000001 1.000000 1.000000 0.000000 0.000000 2780.dat
1 0 -41.745010 -193.246600 -252.048000 0.000000 1.000000 0.000001 0.000000 -0.000001 1.000000 1.000000 0.000000 0.000000 2780.dat
1 0 -41.745060 -193.246500 -192.047900 0.000000 1.000000 0.000001 0.000000 -0.000001 1.000000 1.000000 0.000000 0.000000 2780.dat
1 0 250.353100 -228.232400 -191.700200 0.000000 1.000000 0.000001 0.000000 -0.000001 1.000000 1.000000 0.000000 0.000000 2780.dat
1 1 241.207800 -246.026500 -262.129200 0.879650 0.000001 0.475622 -0.475622 0.000001 0.879650 0.000001 -1.000000 0.000001 32140.dat
1 0 250.352900 -228.232300 -252.129300 0.000000 1.000000 0.000001 0.000000 -0.000001 1.000000 1.000000 0.000000 0.000000 2780.dat
1 1 -13.207840 -246.025600 -182.047900 -0.879650 -0.000001 -0.475620 -0.475620 0.000001 0.879651 -0.000001 1.000000 -0.000002 32140.dat
1 1 -13.207750 -246.025700 -262.047900 -0.879650 -0.000001 -0.475620 -0.475620 0.000001 0.879651 -0.000001 1.000000 -0.000002 32140.dat
1 0 -22.720160 -228.432700 -252.047900 0.000000 1.000000 0.000001 0.000000 -0.000001 1.000000 1.000000 0.000000 0.000000 2780.dat
1 0 -22.352820 -228.231500 -192.047900 0.000000 1.000000 0.000001 0.000000 -0.000001 1.000000 1.000000 0.000000 0.000000 2780.dat
1 0 269.744700 -193.247600 -191.700100 0.000000 1.000000 0.000001 0.000000 -0.000001 1.000000 1.000000 0.000000 0.000000 2780.dat
0 STEP
0 NOFILE
0 FILE SubModel Group 9 Copy Copy Copy
0 SubModel Group 9 Copy Copy Copy
0 Name:  SubModel Group 9 Copy Copy Copy
0 Author:  
0 CustomBrick
0 NumOfBricks:  3
1 72 10.000000 -1.128810 -10.000000 1.000000 0.000000 0.000000 0.000000 0.000000 -1.000000 0.000000 1.000000 0.000000 dch003.dat
1 71 -27.466620 -79.717990 29.427020 1.000000 0.000000 0.000000 0.000000 0.000000 -1.000000 0.000000 1.000000 0.000000 dch004.dat
1 25 7.837010 13.484720 -9.965000 1.000000 0.000000 0.000000 0.000000 0.000000 -1.000000 0.000000 1.000000 0.000000 dch005.dat
0 NOFILE
0 FILE SubModel Group 1
0 SubModel Group 1
0 Name:  SubModel Group 1
0 Author:  
0 CustomBrick
0 NumOfBricks:  23
1 1 0.000000 -35.500030 -0.071560 0.000000 0.000000 1.000000 0.000000 1.000000 0.000000 -1.000000 0.000000 0.000000 32001.dat
1 1 -40.000000 -35.500030 -0.071440 0.000000 0.000000 1.000000 0.000000 1.000000 0.000000 -1.000000 0.000000 0.000000 32001.dat
0 STEP
1 1 0.000000 -27.500030 49.928560 1.000000 0.000000 0.000000 0.000000 1.000000 0.000000 0.000000 0.000000 1.000000 3894.dat
1 1 40.000000 -35.500030 -0.071560 0.000000 0.000000 1.000000 0.000000 1.000000 0.000000 -1.000000 0.000000 0.000000 32001.dat
1 1 0.000000 -27.500030 -50.071440 1.000000 0.000000 0.000000 0.000000 1.000000 0.000000 0.000000 0.000000 1.000000 3894.dat
0 STEP
1 1 0.000000 -43.500030 -50.071560 1.000000 0.000000 0.000000 0.000000 1.000000 0.000000 0.000000 0.000000 1.000000 3666.dat
1 1 0.000000 -43.500030 49.928500 1.000000 0.000000 0.000000 0.000000 1.000000 0.000000 0.000000 0.000000 1.000000 3666.dat
0 STEP
1 0 0.000090 -120.590000 -0.071560 0.000000 -1.000000 0.000000 1.000000 0.000000 0.000000 0.000000 0.000000 1.000000 3708.dat
1 14 0.000000 -44.100040 -0.071560 -1.000000 0.000000 0.000000 0.000000 0.000000 -1.000000 0.000000 -1.000000 0.000000 32123a.dat
1 14 0.000000 -54.100040 -0.071560 -1.000000 0.000000 0.000000 0.000000 0.000000 -1.000000 0.000000 -1.000000 0.000000 32123a.dat
0 STEP
1 71 -0.000120 -12.000030 -0.071440 -1.000000 0.000000 -0.000001 -0.000001 0.000000 1.000000 0.000000 1.000000 0.000000 3650c.dat
1 14 0.000000 -23.940030 -0.071560 -1.000000 0.000000 0.000000 0.000000 0.000000 -1.000000 0.000000 -1.000000 0.000000 32123a.dat
0 STEP
1 71 -19.999910 -49.440040 -0.071560 0.000000 -1.000000 0.000000 0.000000 0.000000 1.000000 -1.000000 0.000000 0.000000 4519.dat
1 1 0.000090 -49.440040 19.928440 0.000000 1.000000 0.000000 0.000000 0.000000 1.000000 1.000000 0.000000 0.000000 32184.dat
1 71 20.000000 -49.440040 -0.071560 0.000000 -1.000000 0.000000 0.000000 0.000000 1.000000 -1.000000 0.000000 0.000000 4519.dat
0 STEP
1 15 58.785100 -119.409100 -0.070100 -0.874615 0.000001 0.484817 -0.484818 0.000001 -0.874614 -0.000002 -1.000000 -0.000001 40490.dat
1 15 -58.785400 -119.409100 0.748570 0.874615 -0.000001 -0.484818 -0.484818 0.000001 -0.874615 0.000002 1.000000 0.000001 40490.dat
0 STEP
1 1 0.000000 -49.440040 -20.071560 0.000000 1.000000 0.000000 0.000000 0.000000 1.000000 1.000000 0.000000 0.000000 32184.dat
1 19 97.568100 -190.080200 -0.200900 0.000001 -0.500004 0.866023 0.000000 0.866023 0.500004 -1.000000 -0.000001 0.000001 32556.dat
1 19 -97.568300 -190.079900 0.880710 -0.000001 0.500004 -0.866023 0.000000 0.866023 0.500004 1.000000 0.000001 -0.000001 32556.dat
0 STEP
1 0 0.000000 -59.440040 -20.071560 0.000000 -1.000000 0.000000 -1.000000 0.000000 0.000000 0.000000 0.000000 -1.000000 2780.dat
1 15 0.000000 -69.440040 -0.071560 1.000000 -0.000001 0.000001 0.000001 1.000000 0.000001 -0.000001 -0.000001 1.000000 32523.dat
1 0 0.000090 -59.440040 19.928440 0.000000 -1.000000 0.000000 -1.000000 0.000000 0.000000 0.000000 0.000000 -1.000000 2780.dat
0 STEP
0 NOFILE
