0 Untitled Model
0 Name:  齿轮传动
0 Author:  
0 CustomBrick
0 NumOfBricks:  22
1 15 -51.000100 -9.000400 23.999890 0.000001 0.000001 -1.000000 -1.000000 0.000001 -0.000001 0.000001 1.000000 0.000001 64871.dat
1 1 -191.000100 -9.000520 4.000010 0.000000 0.000000 1.000000 0.000000 1.000000 0.000000 -1.000000 0.000000 0.000000 6558.dat
1 1 -171.003400 -9.000530 3.990670 0.000000 0.000000 1.000020 0.000000 1.000000 0.000000 -1.000020 0.000000 0.000000 6558.dat
0 STEP
1 1 69.000340 -9.000120 4.001000 0.000000 0.000000 1.000000 0.000000 1.000000 0.000000 -1.000000 0.000000 0.000000 6558.dat
1 1 88.999940 -9.000120 3.999720 0.000000 0.000000 1.000003 0.000000 1.000000 0.000000 -1.000003 0.000000 0.000000 6558.dat
0 STEP
1 1 -191.000100 -69.000290 4.000010 1.000000 -0.000001 -0.000001 0.000001 0.000001 1.000000 -0.000001 -1.000000 0.000001 32140.dat
1 19 -191.000200 -69.000300 14.000000 0.000001 -1.000000 0.000001 0.000001 0.000001 1.000000 -1.000000 -0.000001 0.000001 3749.dat
0 STEP
1 1 89.000030 -69.000060 3.999780 -1.000000 0.000001 0.000001 0.000001 0.000001 1.000000 0.000001 1.000000 -0.000001 32140.dat
1 19 89.000030 -69.000070 13.999770 0.000001 -1.000000 0.000001 0.000001 0.000001 1.000003 -1.000000 -0.000001 0.000001 3749.dat
0 STEP
1 15 -50.999610 -9.000210 -15.998900 0.000001 0.000001 -1.000000 -1.000000 0.000001 -0.000001 0.000001 1.000000 0.000001 64871.dat
0 STEP
1 15 -51.000000 -69.000180 24.000000 0.000001 0.000001 -1.000000 -1.000000 0.000001 -0.000001 0.000001 1.000000 0.000001 64871.dat
1 19 -11.000110 -69.000160 33.999890 -0.000001 0.902586 -0.430509 0.000001 0.430509 0.902586 1.000000 0.000001 -0.000001 3749.dat
0 STEP
1 0 -51.000020 -69.000160 34.060000 0.000000 0.000000 1.000000 0.000000 1.000000 0.000000 -1.000000 0.000000 0.000000 3705.dat
1 71 -51.000020 -69.000160 4.000020 1.000000 0.000000 0.000000 0.000000 -1.000000 0.000000 0.000000 0.000000 -1.000000 3649.dat
0 STEP
1 72 -11.000020 -69.000140 44.000070 0.430507 0.902586 0.000000 -0.902586 0.430507 0.000001 0.000001 0.000000 1.000000 3647.dat
1 72 -51.000020 -69.000160 44.060000 0.000000 -1.000000 0.000000 -1.000000 0.000000 0.000000 0.000000 0.000000 -1.000000 3648b.dat
0 STEP
1 71 -50.999980 -69.000180 64.060000 -0.000001 0.000001 1.000000 1.000000 0.000001 0.000001 -0.000001 1.000000 -0.000001 33299.dat
1 4 -10.999420 -69.000070 94.059940 0.000000 0.000000 1.000000 0.000000 1.000000 0.000000 -1.000000 0.000000 0.000000 62462.dat
0 STEP
1 19 -130.999900 -69.000220 14.000000 0.000001 -0.992546 0.121870 0.000001 0.121870 0.992546 -1.000000 -0.000001 0.000001 3749.dat
1 72 -130.999900 -69.000220 4.000010 0.992546 -0.121868 0.000000 -0.121868 -0.992546 0.000000 0.000000 0.000000 -1.000000 3648b.dat
0 STEP
1 19 28.999990 -69.000080 13.999890 0.000001 -0.992332 0.123601 0.000001 0.123601 0.992332 -1.000000 -0.000001 0.000001 3749.dat
1 72 28.999990 -69.000080 3.999900 0.992332 -0.123599 0.000000 -0.123599 -0.992332 0.000000 0.000000 0.000000 -1.000000 3648b.dat
0 STEP
0 STEP
