0 Untitled Model
0 Name:  高尔夫小人
0 Author:  
0 CustomBrick
0 NumOfBricks:  59
1 1 89.999950 -94.000030 19.999970 -0.000001 -1.000002 0.000001 0.000001 0.000001 1.000000 -1.000002 0.000001 0.000001 32526.dat
0 STEP
1 1 69.999910 -64.000010 19.999900 0.000000 0.000000 1.000002 0.000000 1.000000 0.000000 -1.000002 0.000000 0.000000 3700.dat
1 0 79.999920 -54.000000 19.999910 -1.000002 0.000000 0.000000 0.000000 1.000000 0.000000 0.000000 0.000000 -1.000002 2780.dat
1 1 19.999800 -72.000010 19.999960 1.000002 0.000000 0.000000 0.000000 1.000000 0.000000 0.000000 0.000000 1.000002 32001.dat
1 1 19.999800 -80.000010 19.999960 1.000002 0.000000 0.000000 0.000000 1.000000 0.000000 0.000000 0.000000 1.000002 32001.dat
1 1 -30.000310 -104.000000 19.999950 0.000000 0.000000 1.000002 0.000000 1.000000 0.000000 -1.000002 0.000000 0.000000 3701.dat
1 1 69.999920 -104.000000 19.999970 0.000000 0.000000 1.000002 0.000000 1.000000 0.000000 -1.000002 0.000000 0.000000 3701.dat
1 0 -40.000330 -94.000010 19.999950 -1.000002 0.000000 0.000000 0.000000 1.000000 0.000000 0.000000 0.000000 -1.000002 2780.dat
1 0 79.999920 -94.000010 19.999970 -1.000002 0.000000 0.000000 0.000000 1.000000 0.000000 0.000000 0.000000 -1.000002 2780.dat
0 STEP
1 1 -30.000310 -64.000010 19.999950 0.000000 0.000000 1.000002 0.000000 1.000000 0.000000 -1.000002 0.000000 0.000000 3700.dat
1 0 -40.000330 -54.000000 19.999950 -1.000002 0.000000 0.000000 0.000000 1.000000 0.000000 0.000000 0.000000 -1.000002 2780.dat
0 STEP
1 1 -50.000360 -94.000030 19.999950 -0.000001 -1.000002 0.000001 0.000001 0.000001 1.000000 -1.000002 0.000001 0.000001 32526.dat
0 STEP
1 1 110.000100 -23.999980 -0.000010 0.000000 0.000000 1.000002 0.000000 1.000000 0.000000 -1.000002 0.000000 0.000000 3894.dat
1 0 100.000000 -13.999980 0.000050 -1.000002 0.000000 0.000000 0.000000 1.000000 0.000000 0.000000 0.000000 -1.000002 2780.dat
1 0 -60.000340 -14.000000 -0.000040 -1.000002 0.000000 0.000000 0.000000 1.000000 0.000000 0.000000 0.000000 -1.000002 2780.dat
1 1 -70.000380 -24.000000 -0.000110 0.000000 0.000000 1.000002 0.000000 1.000000 0.000000 -1.000002 0.000000 0.000000 3894.dat
0 STEP
1 1 19.999870 -47.999980 50.000080 1.000002 0.000000 0.000000 0.000000 1.000000 0.000000 0.000000 0.000000 1.000002 3895.dat
1 0 100.000000 -37.999980 60.000120 0.000000 0.000000 -1.000002 0.000000 1.000000 0.000000 1.000002 0.000000 0.000000 2780.dat
1 0 -60.000300 -37.999980 60.000100 0.000000 0.000000 -1.000002 0.000000 1.000000 0.000000 1.000002 0.000000 0.000000 2780.dat
0 STEP
1 1 100.000000 -47.999980 70.000140 1.000002 0.000000 0.000000 0.000000 1.000000 0.000000 0.000000 0.000000 1.000002 3700.dat
1 1 -60.000300 -47.999980 70.000110 1.000002 0.000000 0.000000 0.000000 1.000000 0.000000 0.000000 0.000000 1.000002 3700.dat
0 STEP
1 1 19.999790 -112.000000 19.999960 1.000002 0.000000 0.000000 0.000000 1.000000 0.000000 0.000000 0.000000 1.000002 32001.dat
1 1 19.999790 -136.000000 29.999980 1.000002 0.000000 0.000000 0.000000 1.000000 0.000000 0.000000 0.000000 1.000002 3701.dat
1 1 19.999790 -136.000000 9.999929 1.000002 0.000000 0.000000 0.000000 1.000000 0.000000 0.000000 0.000000 1.000002 3701.dat
0 STEP
1 1 19.999790 -144.000000 19.999960 1.000002 0.000000 0.000000 0.000000 1.000000 0.000000 0.000000 0.000000 1.000002 32001.dat
0 STEP
1 1 19.999790 -168.000000 9.999929 1.000002 0.000000 0.000000 0.000000 1.000000 0.000000 0.000000 0.000000 1.000002 3701.dat
1 1 69.999910 -168.000000 -20.000110 0.000001 0.000000 1.000002 0.000000 1.000000 0.000000 -1.000002 0.000000 0.000001 3894.dat
1 1 19.999790 -168.000000 29.999980 1.000002 0.000000 0.000000 0.000000 1.000000 0.000000 0.000000 0.000000 1.000002 3701.dat
1 1 -30.000300 -168.000000 -20.000190 0.000001 0.000000 1.000002 0.000000 1.000000 0.000000 -1.000002 0.000000 0.000001 3894.dat
0 STEP
1 0 19.999800 -158.000000 18.939960 0.000000 0.000000 1.000002 0.000000 1.000000 0.000000 -1.000002 0.000000 0.000000 3705.dat
1 19 19.999800 -158.000000 -11.010120 1.000002 0.000000 0.000000 0.000000 1.000000 0.000000 0.000000 0.000000 1.000002 32269.dat
0 STEP
1 1 19.999790 -176.000000 19.999960 1.000002 0.000000 0.000000 0.000000 1.000000 0.000000 0.000000 0.000000 1.000002 32001.dat
0 STEP
1 1 19.999760 -200.000000 19.999960 -1.000002 0.000000 0.000000 0.000000 1.000000 0.000000 0.000000 0.000000 -1.000002 3709b.dat
1 1 19.999780 -184.000000 19.999960 -1.000002 0.000000 0.000000 0.000000 1.000000 0.000000 0.000000 0.000000 -1.000002 3709b.dat
1 1 19.999770 -192.000000 19.999960 -1.000002 0.000000 0.000000 0.000000 1.000000 0.000000 0.000000 0.000000 -1.000002 3709b.dat
1 1 19.999760 -198.740000 19.999960 0.000000 0.000000 1.000002 1.000000 0.000000 0.000000 0.000000 1.000002 0.000000 6558.dat
0 STEP
1 1 19.999760 -218.740000 19.999960 0.000000 1.000002 0.000000 0.000000 0.000000 1.000000 1.000002 0.000000 0.000000 32184.dat
0 STEP
1 71 29.999800 -188.000000 58.940040 0.000000 0.000000 -1.000002 0.000000 1.000000 0.000000 1.000002 0.000000 0.000000 3673.dat
1 71 19.999790 -158.000000 48.940020 1.000002 0.000000 0.000000 0.000000 -1.000000 0.000000 0.000000 0.000000 -1.000002 3649.dat
0 STEP
1 4 29.999800 -188.000000 78.940080 0.000000 0.000000 1.000002 0.000000 1.000000 0.000000 -1.000002 0.000000 0.000000 62462.dat
0 STEP
1 0 79.999900 -158.000000 -0.000070 -1.000002 0.000000 0.000000 0.000000 1.000000 0.000000 0.000000 0.000000 -1.000002 2780.dat
1 0 -40.000320 -158.000000 -0.000160 -1.000002 0.000000 0.000000 0.000000 1.000000 0.000000 0.000000 0.000000 -1.000002 2780.dat
1 4 -50.000340 -158.000000 -0.000170 -1.000002 0.000000 0.000000 0.000000 -1.000000 0.000000 0.000000 0.000000 1.000002 32034.dat
1 4 89.999930 -158.000000 -0.000070 -1.000002 0.000000 0.000000 0.000000 -1.000000 0.000000 0.000000 0.000000 1.000002 32034.dat
0 STEP
1 0 -33.080300 -158.000100 -40.000060 -1.000000 0.000001 0.000001 -0.000001 0.000001 -1.000000 -0.000001 -1.000000 -0.000001 3705.dat
1 14 -15.990250 -158.000200 -40.000400 0.000001 0.000001 1.000002 -1.000000 0.000001 0.000001 -0.000001 -1.000001 0.000001 32123a.dat
1 19 -2.180210 -158.000200 -40.000400 0.000001 -0.000001 -1.000002 -1.000000 -0.000001 -0.000001 -0.000001 1.000001 -0.000001 32269.dat
1 14 -46.080310 -158.000200 -40.000400 0.000001 0.000001 1.000002 -1.000000 0.000001 0.000001 -0.000001 -1.000001 0.000001 32123a.dat
1 4 -63.080320 -157.999900 -70.000330 -0.000001 -0.000001 -1.000002 -0.000001 1.000000 -0.000001 1.000002 0.000001 -0.000001 32062.dat
1 4 -63.080320 -157.999900 -60.000260 -1.000002 -0.000001 0.000001 -0.000001 1.000000 0.000001 -0.000001 0.000001 -1.000002 32039.dat
0 STEP
1 1 -63.080300 -157.999900 -81.380290 1.000002 0.000001 -0.000002 0.000002 0.000001 1.000000 0.000001 -1.000002 0.000001 32271.dat
0 STEP
1 1 -90.000400 -24.000000 -40.000220 0.000000 0.000000 1.000002 0.000000 1.000000 0.000000 -1.000002 0.000000 0.000000 3701.dat
1 1 130.000100 -23.999980 -40.000130 0.000000 0.000000 1.000002 0.000000 1.000000 0.000000 -1.000002 0.000000 0.000000 3701.dat
1 0 -80.000380 -14.000000 -40.000160 -1.000002 0.000000 0.000000 0.000000 1.000000 0.000000 0.000000 0.000000 -1.000002 2780.dat
1 0 120.000100 -13.999980 -40.000060 -1.000002 0.000000 0.000000 0.000000 1.000000 0.000000 0.000000 0.000000 -1.000002 2780.dat
0 STEP
1 15 -80.000380 -47.999990 -10.000180 1.000002 0.000000 0.000000 0.000000 1.000000 0.000000 0.000000 0.000000 1.000002 32064a.dat
1 15 120.000100 -47.999980 -10.000020 1.000002 0.000000 0.000000 0.000000 1.000000 0.000000 0.000000 0.000000 1.000002 32064a.dat
0 STEP
1 19 -31.080490 -13.999910 -93.330200 -0.000001 0.804823 -0.593519 -0.000001 0.593518 0.804821 1.000002 0.000001 0.000000 3749.dat
1 4 -31.080470 -13.999910 -103.330200 0.000000 0.000000 -1.000002 0.000000 -1.000000 0.000000 -1.000002 0.000000 0.000000 32034.dat
0 STEP
0 STEP
