0 Untitled Model
0 Name:  怪兽宝宝
0 Author:  
0 CustomBrick
0 NumOfBricks:  46
1 15 -0.000020 -24.000000 -100.000000 1.000000 0.000000 0.000000 0.000000 1.000000 0.000000 0.000000 0.000000 1.000000 3001.dat
0 STEP
1 1 -20.000020 -32.000000 -160.000000 0.000000 0.000000 1.000000 0.000000 1.000000 0.000000 -1.000000 0.000000 0.000000 32001.dat
1 15 -0.000020 -24.000000 -220.000000 1.000000 0.000000 0.000000 0.000000 1.000000 0.000000 0.000000 0.000000 1.000000 3001.dat
0 STEP
1 1 19.999980 -24.000000 -160.000000 1.000000 0.000000 0.000000 0.000000 1.000000 0.000000 0.000000 0.000000 1.000000 32001.dat
0 STEP
1 1 40.000010 -32.000000 -160.000000 -1.000000 0.000000 0.000000 0.000000 1.000000 0.000000 0.000000 0.000000 -1.000000 3709b.dat
1 1 -0.000010 -40.000000 -160.000000 -1.000000 0.000000 0.000000 0.000000 1.000000 0.000000 0.000000 0.000000 -1.000000 3709b.dat
0 STEP
1 1 29.999990 -64.000000 -160.000100 0.000000 0.000000 1.000000 0.000000 1.000000 0.000000 -1.000000 0.000000 0.000000 3700.dat
1 1 -0.000010 -64.000000 -170.000100 1.000000 0.000000 0.000000 0.000000 1.000000 0.000000 0.000000 0.000000 1.000000 3700.dat
1 1 -0.000010 -64.000000 -150.000000 1.000000 0.000000 0.000000 0.000000 1.000000 0.000000 0.000000 0.000000 1.000000 3700.dat
0 STEP
1 15 -30.000050 -56.000000 -120.000000 0.000000 0.000000 1.000000 0.000000 1.000000 0.000000 -1.000000 0.000000 0.000000 32064a.dat
1 15 -30.000050 -56.000000 -200.000100 0.000000 0.000000 1.000000 0.000000 1.000000 0.000000 -1.000000 0.000000 0.000000 32064a.dat
0 STEP
1 0 -0.000010 -54.000000 -158.950100 0.000000 0.000000 1.000000 0.000000 1.000000 0.000000 -1.000000 0.000000 0.000000 3706.dat
1 19 -0.000010 -54.000000 -137.440000 -1.000000 0.000000 -0.000001 0.000000 -1.000000 0.000000 -0.000001 0.000000 1.000000 6589.dat
1 19 -0.000040 -54.000000 -183.460100 0.000000 1.000000 0.000000 1.000000 0.000000 0.000001 0.000001 0.000000 -1.000000 6589.dat
0 STEP
1 71 -0.000010 -54.000000 -119.830000 1.000000 0.000001 0.000001 0.000001 -0.000001 -1.000000 -0.000001 1.000000 -0.000001 33299.dat
1 71 0.000020 -54.000000 -200.020100 -1.000000 -0.000001 -0.000001 0.000001 -0.000001 -1.000000 0.000001 -1.000000 0.000001 33299.dat
0 STEP
1 14 -0.000010 -54.000000 -104.280100 0.000000 1.000000 0.000000 1.000000 0.000000 0.000000 0.000000 0.000000 -1.000000 32123a.dat
1 14 -0.000010 -54.000000 -214.570100 -1.000000 0.000000 0.000000 0.000000 1.000000 0.000000 0.000000 0.000000 -1.000000 32123a.dat
0 STEP
1 1 29.999990 -88.000000 -160.000100 0.000000 0.000000 1.000000 0.000000 1.000000 0.000000 -1.000000 0.000000 0.000000 3700.dat
1 19 39.999920 -78.000020 -160.000300 1.000000 0.000001 -0.000001 -0.000001 -0.000001 -1.000000 -0.000001 1.000000 -0.000001 3749.dat
0 STEP
1 19 52.559740 -78.000060 -159.999100 0.000000 0.000000 0.999995 -1.000000 0.000000 0.000000 0.000000 -0.999995 0.000000 32269.dat
0 STEP
1 4 19.999960 -94.000000 -220.020000 0.000000 -1.000000 0.000000 -1.000000 0.000000 0.000000 0.000000 0.000000 -1.000000 42003.dat
1 4 -19.999960 -94.000030 -99.830070 -0.000001 1.000000 0.000000 1.000000 0.000001 0.000000 0.000000 0.000000 -1.000000 42003.dat
0 STEP
1 1 29.999990 -120.000000 -160.000200 0.000000 0.000000 1.000000 0.000000 1.000000 0.000000 -1.000000 0.000000 0.000000 3023.dat
1 15 29.999990 -112.000000 -150.000100 -1.000000 0.000000 0.000000 0.000000 1.000000 0.000000 0.000000 0.000000 -1.000000 3040b.dat
1 15 29.999990 -112.000000 -170.000100 1.000000 0.000000 0.000000 0.000000 1.000000 0.000000 0.000000 0.000000 1.000000 3040b.dat
0 STEP
1 1 10.000150 -144.000000 -159.999600 0.000000 0.000000 1.000000 0.000000 1.000000 0.000000 -1.000000 0.000000 0.000000 3701.dat
1 1 29.999990 -144.000000 -160.000200 0.000000 0.000000 1.000002 0.000000 1.000000 0.000000 -1.000002 0.000000 0.000000 3701.dat
1 1 19.999900 -152.000000 -160.000200 0.000000 0.000000 1.000002 0.000000 1.000000 0.000000 -1.000002 0.000000 0.000000 3709b.dat
0 STEP
1 19 -0.000100 -134.000000 -160.000200 -1.000002 -0.000001 0.000001 0.000001 0.000001 1.000000 -0.000001 1.000002 -0.000001 3749.dat
1 19 40.000040 -134.000000 -160.000200 1.000002 0.000000 -0.000001 0.000001 0.611529 0.791223 0.000001 -0.791224 0.611528 3749.dat
0 STEP
1 72 50.000020 -134.000000 -160.000100 0.000000 -0.000001 -1.000002 0.791224 0.611528 -0.000001 0.611527 -0.791225 0.000000 3648b.dat
1 72 -10.000140 -134.000000 -160.000200 0.000000 0.000000 -1.000002 1.000000 0.000000 0.000000 0.000000 -1.000002 0.000000 3648b.dat
0 STEP
1 15 19.999900 -176.000000 -170.000200 1.000002 0.000000 0.000000 0.000000 1.000000 0.000000 0.000000 0.000000 1.000002 32064a.dat
1 15 19.999900 -176.000000 -150.000400 1.000002 0.000000 0.000000 0.000000 1.000000 0.000000 0.000000 0.000000 1.000002 32064a.dat
0 STEP
1 1 19.999900 -160.000000 -190.000300 1.000002 0.000000 0.000000 0.000000 1.000000 0.000000 0.000000 0.000000 1.000002 3023.dat
1 1 19.999900 -160.000000 -130.000400 1.000002 0.000000 0.000000 0.000000 1.000000 0.000000 0.000000 0.000000 1.000002 3023.dat
0 STEP
1 15 19.999900 -200.000000 -160.000200 1.000002 0.000000 0.000000 0.000000 1.000000 0.000000 0.000000 0.000000 1.000002 3941.dat
0 STEP
1 15 -10.000140 -224.000000 -170.000200 0.000000 0.000000 -1.000002 0.000000 1.000000 0.000000 1.000002 0.000000 0.000000 3040b.dat
1 15 -10.000140 -224.000000 -150.000400 0.000000 0.000000 -1.000002 0.000000 1.000000 0.000000 1.000002 0.000000 0.000000 3040b.dat
0 STEP
1 1 -40.000180 -200.000000 -150.000400 1.000002 0.000000 0.000000 0.000000 1.000000 0.000000 0.000000 0.000000 1.000002 3701.dat
1 1 -40.000180 -200.000000 -170.000200 1.000002 0.000000 0.000000 0.000000 1.000000 0.000000 0.000000 0.000000 1.000002 3701.dat
0 STEP
1 0 -60.000180 -190.000000 -158.420200 0.000000 0.000000 1.000002 0.000000 1.000000 0.000000 -1.000002 0.000000 0.000000 3705.dat
0 STEP
1 14 -60.000180 -190.000000 -132.260400 1.000002 0.000000 0.000000 0.000000 1.000000 0.000000 0.000000 0.000000 1.000002 32123a.dat
1 14 -60.000180 -190.000000 -185.650300 1.000002 0.000000 0.000000 0.000000 -1.000000 0.000000 0.000000 0.000000 -1.000002 32123a.dat
0 STEP
1 15 -80.000220 -176.000000 -160.000200 1.000002 0.000000 0.000000 0.000000 1.000000 0.000000 0.000000 0.000000 1.000002 3941.dat
0 STEP
0 STEP
