0 Untitled Model
0 Name:  万向轮结构7
0 Author:  
0 CustomBrick
0 NumOfBricks:  18
1 71 -20.000000 -38.000010 -40.000000 0.000000 0.000000 -1.000000 -1.000000 0.000000 0.000000 0.000000 1.000000 0.000000 56145.dat
1 71 -20.929980 -38.000040 -40.000000 -1.000000 0.000000 0.000000 0.000000 1.000000 0.000000 0.000000 0.000000 -1.000000 32073.dat
0 STEP
1 0 -70.929810 -78.000000 -60.000070 -1.000001 0.000000 0.000000 0.000000 1.000000 0.000000 0.000000 0.000000 -1.000001 2780.dat
1 0 -70.929810 -78.000000 -20.000080 -1.000001 0.000000 0.000000 0.000000 1.000000 0.000000 0.000000 0.000000 -1.000001 2780.dat
1 0 29.070140 -78.000000 -60.000060 -1.000001 0.000000 0.000000 0.000000 1.000000 0.000000 0.000000 0.000000 -1.000001 2780.dat
1 0 29.070140 -78.000000 -20.000070 -1.000001 0.000000 0.000000 0.000000 1.000000 0.000000 0.000000 0.000000 -1.000001 2780.dat
1 71 19.070140 -38.000030 -40.000000 0.000000 1.000001 0.000000 0.000000 0.000000 -1.000000 -1.000001 0.000000 0.000000 60484.dat
1 71 -60.929700 -38.000020 -40.000010 0.000000 1.000001 0.000000 0.000000 0.000000 -1.000000 -1.000001 0.000000 0.000000 60484.dat
0 STEP
1 71 -20.929680 -78.000000 -39.999400 0.000000 0.000000 1.000000 0.000000 1.000000 0.000000 -1.000000 0.000000 0.000000 64179.dat
0 STEP
1 0 -40.929840 -88.000000 -0.000010 0.000000 0.000000 -1.000001 1.000000 0.000000 0.000000 0.000000 -1.000001 0.000000 2780.dat
1 0 -0.929900 -88.000000 -0.000010 0.000000 0.000000 -1.000001 1.000000 0.000000 0.000000 0.000000 -1.000001 0.000000 2780.dat
0 STEP
1 19 -20.929980 -118.000000 -0.000010 0.000000 0.000000 1.000000 -1.000000 0.000000 0.000000 0.000000 -1.000000 0.000000 32556.dat
1 15 -20.930010 -97.999980 -0.000010 0.000001 0.000001 -1.000001 0.000001 1.000000 0.000001 1.000001 -0.000001 0.000001 32523.dat
0 STEP
1 4 -20.929980 -118.000000 -0.000010 0.000000 0.000000 1.000000 -1.000000 0.000000 0.000000 0.000000 -1.000000 0.000000 32034.dat
0 STEP
1 0 39.070320 -88.000010 -79.999400 0.000000 -1.000000 0.000000 -1.000000 0.000000 0.000000 0.000000 0.000000 -1.000000 2780.dat
1 0 -80.929680 -88.000000 -79.999400 0.000000 0.000000 1.000000 1.000000 0.000000 0.000000 0.000000 1.000000 0.000000 2780.dat
0 STEP
1 4 39.070320 -98.000010 -79.999400 0.000000 0.000000 1.000000 -1.000000 0.000000 0.000000 0.000000 -1.000000 0.000000 32034.dat
1 4 -80.929680 -98.000000 -79.999400 0.000000 0.000000 1.000000 -1.000000 0.000000 0.000000 0.000000 -1.000000 0.000000 32034.dat
0 STEP
0 STEP
