0 FILE 悬崖勒马.io
0 Untitled Model
0 Name:  悬崖勒马
0 Author:  
0 CustomBrick
0 NumOfBricks:  61
1 16 18.000000 -124.762000 -63.000000 -0.894934 0.000000 -0.446200 0.446200 0.000000 -0.894934 0.000000 -1.000000 0.000000 submodel group 9 copy copy copy
0 STEP
1 1 38.305640 -169.199100 26.839790 -0.446200 0.000000 0.894931 -0.894934 0.000000 -0.446198 0.000000 -1.000000 0.000000 6558.dat
1 1 38.305680 -169.199200 -13.160220 -0.446200 0.000000 0.894931 -0.894934 0.000000 -0.446198 0.000000 -1.000000 0.000000 6558.dat
1 15 38.305640 -169.199100 6.839790 -0.894930 0.446201 0.000000 0.446199 0.894934 0.000001 0.000001 0.000001 -1.000000 32523.dat
0 STEP
1 19 70.958440 -103.707900 6.839790 0.894930 0.000000 0.446201 -0.446199 0.000000 0.894933 0.000000 -1.000000 0.000000 6589.dat
1 0 51.508660 -142.718100 6.839790 -0.446200 0.000000 -0.894931 -0.894934 0.000000 0.446198 0.000000 1.000000 0.000000 3706.dat
1 71 33.843340 -178.149200 6.840040 -0.894931 0.000000 -0.446200 0.446198 0.000000 -0.894934 0.000000 -1.000000 0.000000 58120.dat
0 STEP
1 0 56.178850 -155.762400 -33.159990 -0.894931 -0.446200 0.000000 0.446198 -0.894934 0.000000 0.000000 0.000000 1.000000 2780.dat
1 0 74.026880 -119.965000 -33.159990 -0.894931 -0.446200 0.000000 0.446198 -0.894934 0.000000 0.000000 0.000000 1.000000 2780.dat
1 0 56.178920 -155.762400 46.839820 -0.894931 -0.446200 0.000000 0.446198 -0.894934 0.000000 0.000000 0.000000 1.000000 2780.dat
1 0 74.026920 -119.965000 46.839820 -0.894931 -0.446200 0.000000 0.446198 -0.894934 0.000000 0.000000 0.000000 1.000000 2780.dat
0 STEP
1 72 78.526790 -144.556700 -33.159990 0.446200 0.894931 0.000000 0.894934 -0.446198 0.000000 0.000000 0.000000 -1.000000 99773.dat
1 72 78.526940 -144.556800 46.839820 -0.446200 0.894931 0.000000 -0.894934 -0.446198 0.000000 0.000000 0.000000 1.000000 99773.dat
1 72 51.729640 -175.892100 46.839820 0.000000 0.894930 0.446201 -0.000001 -0.446199 0.894933 1.000000 -0.000001 0.000001 32250.dat
1 72 51.729620 -175.892000 -33.159990 -0.000001 -0.894931 0.446199 -0.000001 0.446197 0.894934 -1.000000 0.000001 -0.000001 32250.dat
0 STEP
1 4 117.980000 -97.183150 -33.159990 -0.894931 0.446200 0.000000 0.446198 0.894934 0.000000 0.000000 0.000000 -1.000000 42003.dat
1 0 73.258820 -97.233920 -33.159990 -0.894931 0.446200 0.000000 0.446198 0.894934 0.000000 0.000000 0.000000 -1.000000 6536.dat
1 71 91.157340 -106.157900 -33.159990 -0.894931 0.000000 0.446200 0.446198 0.000000 0.894934 0.000000 1.000000 0.000000 4519.dat
0 STEP
1 0 82.182820 -79.335240 8.069890 0.000000 0.446200 0.894931 0.000000 0.894934 -0.446198 -1.000000 0.000000 0.000000 3708.dat
1 19 82.182820 -79.335230 29.229960 -0.446200 -0.894931 0.000000 -0.894934 0.446198 0.000000 0.000000 0.000000 -1.000000 32269.dat
0 STEP
1 1 153.777200 -115.031200 -53.160000 -0.446201 -0.000001 -0.894930 -0.894933 0.000002 0.446199 0.000001 1.000000 -0.000001 32526.dat
1 0 117.980000 -97.183150 -43.159990 0.000000 0.446200 0.894931 0.000000 0.894934 -0.446198 -1.000000 0.000000 0.000000 2780.dat
1 71 82.182820 -79.335280 -71.949990 0.894931 0.446200 0.000001 -0.446198 0.894934 0.000000 -0.000001 0.000000 1.000000 3713.dat
0 STEP
1 0 74.431180 -97.818470 46.839820 -0.894931 0.446200 0.000000 0.446198 0.894934 0.000000 0.000000 0.000000 -1.000000 6536.dat
1 71 92.329680 -106.742400 46.839820 -0.894931 0.000000 0.446200 0.446198 0.000000 0.894934 0.000000 1.000000 0.000000 4519.dat
0 STEP
1 4 119.152300 -97.767700 46.839820 -0.894931 0.446200 0.000000 0.446198 0.894934 0.000000 0.000000 0.000000 -1.000000 42003.dat
0 STEP
1 1 153.777200 -115.031200 65.900040 -0.446201 -0.000001 -0.894930 -0.894933 0.000002 0.446199 0.000001 1.000000 -0.000001 32526.dat
1 0 119.152300 -97.767680 56.839820 0.000000 0.446200 -0.894931 0.000000 0.894934 0.446198 1.000000 0.000000 0.000000 2780.dat
1 71 82.182820 -79.335190 86.539920 0.894931 0.446200 0.000001 -0.446198 0.894934 0.000000 -0.000001 0.000000 1.000000 3713.dat
0 STEP
1 1 135.878600 -106.107200 -33.159990 -0.446199 0.000001 0.894931 -0.894934 0.000000 -0.446197 -0.000001 -1.000000 0.000001 32526.dat
1 0 135.878600 -106.107200 -43.159990 0.000000 0.446200 -0.894931 0.000000 0.894934 0.446198 1.000000 0.000000 0.000000 2780.dat
1 0 153.777200 -115.031200 -43.159990 0.000000 0.446200 -0.894931 0.000000 0.894934 0.446198 1.000000 0.000000 0.000000 2780.dat
0 STEP
1 1 135.878600 -106.107300 45.899820 -0.446199 0.000001 0.894931 -0.894934 0.000000 -0.446197 -0.000001 -1.000000 0.000001 32526.dat
1 0 153.777200 -115.031200 55.899820 0.000000 0.446200 -0.894931 0.000000 0.894934 0.446198 1.000000 0.000000 0.000000 2780.dat
1 0 135.878600 -106.107200 55.899820 0.000000 0.446200 -0.894931 0.000000 0.894934 0.446198 1.000000 0.000000 0.000000 2780.dat
0 STEP
1 0 82.180240 -79.334040 -102.530000 0.894931 -0.446200 0.000000 -0.446198 -0.894934 0.000000 0.000000 0.000000 -1.000000 44309.dat
1 71 82.182820 -79.335280 -102.530000 -0.446200 -0.894931 0.000000 -0.894934 0.446198 0.000000 0.000000 0.000000 -1.000000 56145.dat
1 0 82.182550 -79.334870 117.640000 0.446200 -0.894931 0.000000 0.894934 0.446198 0.000000 0.000000 0.000000 1.000000 44309.dat
1 71 82.182820 -79.335170 117.640000 -0.894931 -0.446200 0.000000 0.446198 -0.894934 0.000000 0.000000 0.000000 1.000000 56145.dat
0 STEP
1 0 -149.655000 -53.136840 4.349910 0.000000 -0.446200 0.894931 0.000000 -0.894934 -0.446198 1.000000 0.000000 0.000000 3737.dat
1 0 -149.655000 -53.136740 46.840040 0.894931 0.000001 -0.446199 -0.446197 0.000000 -0.894934 -0.000001 1.000000 0.000000 15100.dat
1 0 -149.655000 -53.136810 -33.160000 0.894931 0.000001 -0.446199 -0.446197 0.000000 -0.894934 -0.000001 1.000000 0.000000 15100.dat
0 STEP
1 72 -149.654900 -53.136880 -73.650100 0.894931 -0.446200 0.000000 -0.446198 -0.894934 0.000000 0.000000 0.000000 -1.000000 3648b.dat
1 72 -149.655000 -53.136820 86.059760 0.894931 -0.446200 0.000000 -0.446198 -0.894934 0.000000 0.000000 0.000000 -1.000000 3648b.dat
1 71 -149.655000 -53.136820 66.389900 0.894931 -0.446200 0.000001 -0.446198 -0.894934 -0.000001 0.000001 0.000000 -1.000000 3713.dat
1 71 -149.654900 -53.136880 -53.990040 0.894931 -0.446200 0.000001 -0.446198 -0.894934 -0.000001 0.000001 0.000000 -1.000000 3713.dat
0 STEP
1 15 225.321100 -106.005800 -53.159980 -0.894930 0.000001 -0.446201 0.446199 0.000000 -0.894933 -0.000001 -1.000000 -0.000001 32316.dat
1 71 207.473000 -141.803100 -43.159980 0.000000 0.446200 0.894931 0.000000 0.894934 -0.446198 -1.000000 0.000000 0.000000 3673.dat
1 71 207.472900 -141.803000 55.900080 0.000000 0.446200 0.894931 0.000000 0.894934 -0.446198 -1.000000 0.000000 0.000000 3673.dat
1 15 225.321000 -106.005700 65.900050 -0.894930 0.000001 -0.446201 0.446199 0.000000 -0.894933 -0.000001 -1.000000 -0.000001 32316.dat
0 STEP
1 0 243.169300 -70.208360 5.999930 0.000000 0.446200 0.894931 0.000000 0.894934 -0.446198 -1.000000 0.000000 0.000000 3708.dat
1 71 243.169300 -70.208380 -32.900020 -0.894931 0.446200 -0.000001 0.446198 0.894934 0.000000 0.000001 0.000000 -1.000000 3713.dat
1 71 243.169300 -70.208360 44.999960 0.894931 0.446200 0.000001 -0.446198 0.894934 0.000000 -0.000001 0.000000 1.000000 3713.dat
0 STEP
1 71 243.169300 -70.208390 -93.999980 0.446200 0.894931 0.000000 0.894934 -0.446198 0.000000 0.000000 0.000000 -1.000000 3649.dat
1 14 243.169300 -70.208390 -109.340000 0.446200 0.894931 0.000000 0.894934 -0.446198 0.000000 0.000000 0.000000 -1.000000 32123a.dat
1 71 243.169300 -70.208380 -73.550060 -0.894931 0.446200 -0.000001 0.446198 0.894934 0.000000 0.000001 0.000000 -1.000000 3713.dat
0 STEP
1 71 243.169300 -70.208300 105.590100 0.446200 -0.894931 0.000000 0.894934 0.446198 0.000000 0.000000 0.000000 1.000000 3649.dat
1 14 243.169300 -70.208300 120.550000 0.446200 0.894931 0.000000 0.894934 -0.446198 0.000000 0.000000 0.000000 -1.000000 32123a.dat
1 71 243.169300 -70.208340 84.999940 0.894931 0.446200 0.000001 -0.446198 0.894934 0.000000 -0.000001 0.000000 1.000000 3713.dat
0 STEP
0 STEP
0 NOFILE
0 FILE SubModel Group 9 Copy Copy Copy
0 SubModel Group 9 Copy Copy Copy
0 Name:  SubModel Group 9 Copy Copy Copy
0 Author:  
0 CustomBrick
0 NumOfBricks:  3
1 72 10.000000 -1.128810 -10.000000 1.000000 0.000000 0.000000 0.000000 0.000000 -1.000000 0.000000 1.000000 0.000000 dch003.dat
1 71 -27.466620 -79.717990 29.427020 1.000000 0.000000 0.000000 0.000000 0.000000 -1.000000 0.000000 1.000000 0.000000 dch004.dat
1 25 7.837010 13.484720 -9.965000 1.000000 0.000000 0.000000 0.000000 0.000000 -1.000000 0.000000 1.000000 0.000000 dch005.dat
0 NOFILE
