0 FILE 飞龙.io
0 Untitled Model
0 Name:  飞龙
0 Author:  
0 CustomBrick
0 NumOfBricks:  189
1 0 30.000150 -19.999860 -110.000000 0.000000 -1.000000 0.000000 1.000000 0.000000 0.000000 0.000000 0.000000 1.000000 2780.dat
1 0 30.000150 -19.999780 -30.000010 0.000000 -1.000000 0.000000 1.000000 0.000000 0.000000 0.000000 0.000000 1.000000 2780.dat
1 15 30.000150 -9.999860 -110.000000 1.000000 -0.000001 0.000001 0.000001 1.000000 0.000001 -0.000001 -0.000001 1.000000 64871.dat
0 STEP
1 15 -10.000300 -29.999830 -110.000000 -0.000001 -0.000001 1.000000 0.000001 1.000000 0.000001 -1.000000 0.000001 -0.000001 64871.dat
1 15 -10.000300 -29.999790 -30.000180 -0.000001 -0.000001 1.000000 0.000001 1.000000 0.000001 -1.000000 0.000001 -0.000001 64871.dat
0 STEP
1 71 90.000650 -9.999650 -90.000520 -0.999998 0.000000 0.000000 0.000000 1.000000 0.000000 0.000000 0.000000 -0.999998 64179.dat
1 0 50.000140 -19.999720 -30.000220 0.000000 0.000000 -1.000000 -1.000000 0.000000 0.000000 0.000000 1.000000 0.000000 2780.dat
1 0 130.000000 -19.999660 -30.000220 0.000000 0.000000 -1.000000 -1.000000 0.000000 0.000000 0.000000 1.000000 0.000000 2780.dat
1 0 130.000000 -19.999710 -110.000200 0.000000 0.000000 -1.000000 -1.000000 0.000000 0.000000 0.000000 1.000000 0.000000 2780.dat
1 0 50.000140 -19.999800 -110.000100 0.000000 0.000000 -1.000000 -1.000000 0.000000 0.000000 0.000000 1.000000 0.000000 2780.dat
0 STEP
1 0 -50.000700 -19.999810 -30.000140 0.000000 -1.000000 0.000000 1.000000 0.000000 0.000000 0.000000 0.000000 1.000000 2780.dat
1 0 -50.000580 -19.999890 -110.000000 0.000000 -1.000000 0.000000 1.000000 0.000000 0.000000 0.000000 0.000000 1.000000 2780.dat
1 15 -50.000580 -9.999889 -110.000000 1.000000 -0.000001 0.000001 0.000001 1.000000 0.000001 -0.000001 -0.000001 1.000000 64871.dat
0 STEP
1 0 -70.000800 -19.999890 -110.000000 0.000000 0.000000 -1.000000 -1.000000 0.000000 0.000000 0.000000 1.000000 0.000000 2780.dat
1 71 -110.000800 -9.999889 -90.000010 -1.000000 0.000000 0.000000 0.000000 1.000000 0.000000 0.000000 0.000000 -1.000000 64179.dat
1 0 -150.000900 -19.999980 -110.000000 0.000000 0.000000 -1.000000 -1.000000 0.000000 0.000000 0.000000 1.000000 0.000000 2780.dat
1 0 -150.000800 -19.999900 -30.000020 0.000000 0.000000 -1.000000 -1.000000 0.000000 0.000000 0.000000 1.000000 0.000000 2780.dat
1 0 -70.000800 -19.999840 -30.000030 0.000000 0.000000 -1.000000 -1.000000 0.000000 0.000000 0.000000 1.000000 0.000000 2780.dat
0 STEP
1 0 30.000150 -19.999940 -190.000100 0.000000 -1.000000 0.000000 1.000000 0.000000 0.000000 0.000000 0.000000 1.000000 2780.dat
1 0 -50.000580 -19.999920 -150.000200 0.000000 -1.000000 0.000000 1.000000 0.000000 0.000000 0.000000 0.000000 1.000000 2780.dat
1 0 -50.000700 -19.999940 -190.000000 0.000000 -1.000000 0.000000 1.000000 0.000000 0.000000 0.000000 0.000000 1.000000 2780.dat
1 0 30.000150 -19.999890 -150.000200 0.000000 -1.000000 0.000000 1.000000 0.000000 0.000000 0.000000 0.000000 1.000000 2780.dat
0 STEP
1 16 60.000000 -66.379640 -162.000000 0.000000 1.000000 0.000000 -1.000000 0.000000 0.000000 0.000000 0.000000 1.000000 submodel group 9 copy copy copy
0 STEP
1 1 -10.000300 -240.000000 -169.999900 -1.000000 0.000000 0.000000 0.000000 1.000000 0.000000 0.000000 0.000000 -1.000000 3702.dat
1 1 9.999829 -230.000000 -190.000000 0.000000 0.000000 -1.000000 0.000000 1.000000 0.000000 1.000000 0.000000 0.000000 6558.dat
1 1 -30.000440 -230.000000 -190.000100 0.000000 0.000000 -1.000001 0.000000 1.000000 0.000000 1.000001 0.000000 0.000000 6558.dat
0 STEP
1 1 -10.000180 -240.000000 -209.999900 -1.000000 0.000000 0.000000 0.000000 1.000000 0.000000 0.000000 0.000000 -1.000000 3702.dat
0 STEP
0 STEP
1 19 -10.000300 -229.999900 -139.999900 -0.000001 1.000000 -0.000001 0.000001 0.000001 1.000000 1.000000 0.000001 -0.000001 3749.dat
1 71 -10.000300 -230.000000 -130.000100 1.000000 0.000001 -0.000001 -0.000001 0.000001 -1.000000 -0.000001 1.000000 0.000001 60483.dat
1 0 -10.000300 -250.000000 -139.999900 0.000000 0.000000 -1.000000 0.000000 1.000000 0.000000 1.000000 0.000000 0.000000 2780.dat
0 STEP
1 15 -10.000300 -270.000000 -130.000000 -0.000001 -0.000001 1.000000 -1.000000 0.000001 -0.000001 -0.000001 -1.000000 -0.000001 64871.dat
1 0 -30.000280 -270.000000 -139.999900 0.000000 0.000000 -1.000000 0.000000 1.000000 0.000000 1.000000 0.000000 0.000000 2780.dat
1 0 9.999960 -270.000000 -139.999900 0.000000 0.000000 -1.000000 0.000000 1.000000 0.000000 1.000000 0.000000 0.000000 2780.dat
0 STEP
1 1 -210.000700 -270.000000 -150.000100 0.000001 0.000001 1.000000 -1.000000 0.000001 0.000001 -0.000001 -1.000000 0.000001 32526.dat
1 0 -150.000900 -269.999700 -139.999900 0.000000 0.000000 -1.000000 0.000000 1.000000 0.000000 1.000000 0.000000 0.000000 2780.dat
1 0 -130.000800 -309.999800 -139.999900 0.000000 0.000000 -1.000000 0.000000 1.000000 0.000000 1.000000 0.000000 0.000000 2780.dat
1 0 -130.000800 -289.999800 -139.999900 0.000000 0.000000 -1.000000 0.000000 1.000000 0.000000 1.000000 0.000000 0.000000 2780.dat
0 STEP
1 15 -250.000800 -269.999800 -130.000000 -0.000001 -0.000001 1.000000 -1.000000 0.000001 -0.000001 -0.000001 -1.000000 -0.000001 40490.dat
1 0 -210.000700 -270.000000 -139.999900 0.000000 0.000000 -1.000000 0.000000 1.000000 0.000000 1.000000 0.000000 0.000000 2780.dat
1 0 -170.000800 -269.999800 -139.999900 0.000000 0.000000 -1.000000 0.000000 1.000000 0.000000 1.000000 0.000000 0.000000 2780.dat
1 0 -250.000800 -270.000000 -139.999900 0.000000 0.000000 -1.000000 0.000000 1.000000 0.000000 1.000000 0.000000 0.000000 2780.dat
0 STEP
1 1 -230.000700 -330.000200 -150.000400 -1.000000 0.000001 0.000001 0.000001 0.000001 1.000000 0.000001 1.000000 -0.000001 32140.dat
1 0 -230.000700 -289.999900 -139.999900 0.000000 0.000000 -1.000000 0.000000 1.000000 0.000000 1.000000 0.000000 0.000000 2780.dat
1 0 -230.000700 -309.999900 -139.999900 0.000000 0.000000 -1.000000 0.000000 1.000000 0.000000 1.000000 0.000000 0.000000 2780.dat
0 STEP
1 15 -230.000700 -350.000000 -129.999900 1.000000 -0.000001 0.000001 -0.000001 -0.000001 1.000000 -0.000001 -1.000000 -0.000001 32524.dat
1 15 -130.000900 -349.999800 -130.000000 1.000000 -0.000001 0.000001 -0.000001 -0.000001 1.000000 -0.000001 -1.000000 -0.000001 32524.dat
0 STEP
1 1 190.000100 -270.000100 -150.000200 -0.000001 -0.000001 -1.000000 -1.000000 0.000001 0.000001 0.000001 1.000000 -0.000001 32526.dat
1 0 130.000000 -270.000100 -140.000000 0.000000 0.000000 -1.000000 0.000000 1.000000 0.000000 1.000000 0.000000 0.000000 2780.dat
0 STEP
1 0 250.000100 -270.000300 -140.000200 0.000000 0.000000 -1.000000 0.000000 1.000000 0.000000 1.000000 0.000000 0.000000 2780.dat
1 15 229.999800 -270.000100 -130.000200 -0.000001 -0.000001 1.000000 -1.000000 0.000001 -0.000001 -0.000001 -1.000000 -0.000001 40490.dat
1 0 150.000000 -270.000100 -140.000000 0.000000 0.000000 -1.000000 0.000000 1.000000 0.000000 1.000000 0.000000 0.000000 2780.dat
1 0 190.000100 -270.000100 -140.000000 0.000000 0.000000 -1.000000 0.000000 1.000000 0.000000 1.000000 0.000000 0.000000 2780.dat
0 STEP
1 72 209.999600 -270.000300 -145.000300 0.000000 0.000000 1.000000 -1.000000 0.000000 0.000000 0.000000 -1.000000 0.000000 99773.dat
1 72 209.999600 -270.000300 -155.000200 0.000000 0.000000 1.000000 -1.000000 0.000000 0.000000 0.000000 -1.000000 0.000000 99773.dat
0 STEP
1 0 110.000100 -310.000000 -140.000000 0.000000 0.000000 -1.000000 0.000000 1.000000 0.000000 1.000000 0.000000 0.000000 2780.dat
1 0 110.000100 -290.000000 -140.000000 0.000000 0.000000 -1.000000 0.000000 1.000000 0.000000 1.000000 0.000000 0.000000 2780.dat
1 15 109.999800 -350.000100 -130.000000 1.000000 -0.000001 0.000001 -0.000001 -0.000001 1.000000 -0.000001 -1.000000 -0.000001 32524.dat
0 STEP
1 19 209.999600 -310.000100 -140.000200 -0.000001 1.000000 -0.000001 -0.000001 -0.000001 -1.000000 -1.000000 -0.000001 0.000001 3749.dat
1 0 209.999600 -290.000100 -140.000200 0.000000 0.000000 -1.000000 0.000000 1.000000 0.000000 1.000000 0.000000 0.000000 2780.dat
1 15 209.999600 -350.000100 -130.000200 1.000000 -0.000001 0.000001 -0.000001 -0.000001 1.000000 -0.000001 -1.000000 -0.000001 32524.dat
0 STEP
1 71 110.000100 -270.000100 -109.720000 -0.986856 -0.161600 0.000000 0.161600 -0.986856 0.000000 0.000000 0.000000 1.000000 3649.dat
1 0 110.000100 -270.000100 -139.720000 0.000000 0.161600 -0.986856 0.000000 0.986856 0.161600 1.000000 0.000000 0.000000 3705.dat
1 71 209.999600 -270.000300 -150.020300 0.000000 -0.250388 -0.968145 0.000000 0.968145 -0.250388 1.000000 0.000000 0.000000 32073.dat
1 71 209.999800 -270.000100 -110.190200 0.250388 0.968145 -0.000001 -0.968145 0.250388 0.000000 0.000000 0.000000 1.000000 3649.dat
0 STEP
1 71 110.000100 -270.000100 -169.720200 0.986856 0.161600 0.000001 -0.161600 0.986856 0.000000 -0.000001 0.000000 1.000000 3713.dat
1 71 209.999800 -270.000100 -190.020200 0.968145 -0.250388 0.000001 0.250388 0.968145 0.000000 -0.000001 0.000000 1.000000 3713.dat
1 71 209.999800 -270.000100 -170.420200 0.968145 -0.250388 0.000001 0.250388 0.968145 0.000000 -0.000001 0.000000 1.000000 3713.dat
0 STEP
1 19 -50.000820 -269.999700 -119.999500 -0.000001 0.990510 -0.137445 0.000001 0.137445 0.990509 1.000000 0.000001 -0.000001 3749.dat
1 19 30.000150 -270.000000 -120.000000 -0.000001 0.991894 0.127067 0.000001 -0.127067 0.991894 1.000000 0.000001 -0.000001 3749.dat
1 71 -10.000300 -270.000000 -130.950100 0.000000 1.000000 0.000000 0.000000 0.000000 1.000000 1.000000 0.000000 0.000000 4519.dat
0 STEP
1 72 -50.000820 -269.999700 -109.999500 -0.990510 0.137444 0.000000 -0.137444 -0.990510 0.000000 0.000000 0.000000 1.000000 3648b.dat
1 72 -10.000300 -270.000000 -110.950000 0.000000 1.000000 0.000000 -1.000000 0.000000 0.000000 0.000000 0.000000 1.000000 3647.dat
1 72 30.000150 -270.000000 -110.000000 -0.991894 -0.127068 0.000000 0.127068 -0.991894 0.000000 0.000000 0.000000 1.000000 3648b.dat
0 STEP
1 0 -130.000900 -269.999800 -139.999900 0.000000 -0.153212 -0.988193 0.000000 0.988193 -0.153212 1.000000 0.000000 0.000000 3705.dat
1 71 -130.000800 -269.999800 -109.999900 -0.988193 0.153212 0.000000 -0.153212 -0.988193 0.000000 0.000000 0.000000 1.000000 3649.dat
1 71 -130.000800 -269.999800 -169.999900 0.988193 -0.153212 0.000001 0.153212 0.988193 0.000000 -0.000001 0.000000 1.000000 3713.dat
0 STEP
1 71 -230.000700 -269.999700 -110.219900 0.392350 0.919816 0.000000 -0.919815 0.392350 0.000000 0.000000 0.000001 1.000000 3649.dat
1 71 -230.000700 -269.999800 -148.880100 0.000000 -0.392350 -0.919816 0.000000 0.919815 -0.392350 1.000000 0.000000 0.000000 32073.dat
0 STEP
1 71 -230.000700 -269.999800 -168.880100 0.919816 -0.392350 0.000001 0.392350 0.919815 0.000000 -0.000001 0.000000 1.000000 3713.dat
1 71 -230.000700 -269.999700 -188.880100 0.919816 -0.392350 0.000001 0.392350 0.919815 0.000000 -0.000001 0.000000 1.000000 3713.dat
0 STEP
1 16 -219.762400 -236.150700 -93.779120 0.990024 -0.140897 0.000000 0.140897 0.990024 -0.000001 0.000000 0.000001 1.000000 submodel group 2
0 STEP
1 71 -135.286200 -301.177700 -99.999920 0.000000 -0.238756 -0.971079 0.000000 0.971079 -0.238756 1.000000 0.000000 0.000000 3673.dat
1 0 -135.286500 -301.177700 -89.999930 -0.000002 0.999037 -0.043860 -0.000002 0.043860 0.999037 1.000000 0.000002 0.000002 32013.dat
0 STEP
1 19 -130.001100 -409.999700 -119.999900 -0.000001 0.993572 -0.113201 0.000001 0.113201 0.993572 1.000000 0.000001 -0.000001 3749.dat
1 0 -130.499300 -410.212600 -89.999930 0.043860 0.999038 0.000000 -0.999038 0.043860 -0.000002 -0.000002 0.000000 1.000000 32014.dat
0 STEP
1 0 -129.584500 -431.052600 -90.000010 0.043860 0.000001 -0.999037 -0.999037 -0.000002 -0.043860 -0.000002 1.000000 0.000001 3708.dat
1 4 -123.882700 -560.927600 -90.000220 0.043860 0.999038 -0.000001 -0.999038 0.043860 -0.000002 -0.000002 0.000001 1.000000 32054.dat
0 STEP
1 1 -122.923700 -582.905200 -90.000620 -0.999049 -0.043861 0.000000 -0.043860 0.999035 0.000002 0.000000 0.000002 -1.000005 3709b.dat
1 1 -122.565800 -590.898700 -90.000110 -0.999035 -0.043860 -0.000001 -0.043860 0.999037 0.000002 0.000000 0.000002 -1.000000 3709b.dat
1 1 -101.535500 -613.998000 -99.999210 -0.999037 -0.043860 0.000000 -0.043860 0.999036 0.000002 0.000000 0.000002 -1.000009 3701.dat
0 STEP
1 1 -101.532600 -613.998400 -80.000230 -0.999035 -0.043860 0.000000 -0.043860 0.999037 0.000002 0.000000 0.000002 -1.000000 3701.dat
1 0 -101.973500 -604.007400 -89.999520 0.000000 -0.043860 -0.999037 -0.000002 0.999036 -0.043860 1.000009 0.000002 0.000000 2780.dat
0 STEP
1 1 -153.479000 -578.902700 -59.880140 0.583401 0.812185 0.000000 -0.812184 0.583401 0.000000 0.000000 0.000000 1.000000 3894.dat
1 0 -122.021100 -605.556200 -88.500110 0.000000 0.000000 -1.000000 0.000000 1.000000 0.000000 1.000000 0.000000 0.000000 3707.dat
1 1 -153.479000 -578.902600 -119.830200 0.583401 0.812185 -0.000001 -0.812184 0.583401 0.000000 0.000000 0.000000 1.000000 3894.dat
0 STEP
1 71 -81.990390 -603.130900 -70.000230 0.000000 0.000000 -1.000000 0.000000 1.000000 0.000000 1.000000 0.000000 0.000000 3673.dat
1 71 -81.993320 -603.130400 -109.999100 0.000000 0.000000 -1.000000 0.000000 1.000000 0.000000 1.000000 0.000000 0.000000 3673.dat
0 STEP
1 1 -122.021300 -605.556200 -40.280130 1.000000 -0.000001 -0.000001 0.000001 0.000001 1.000000 -0.000001 -1.000000 0.000001 32526.dat
1 1 -122.021100 -605.556200 -140.300100 1.000000 -0.000001 -0.000001 0.000001 0.000001 1.000000 -0.000001 -1.000000 0.000001 32526.dat
0 STEP
1 71 -122.021100 -605.556200 -159.770200 1.000000 0.000000 0.000001 0.000000 1.000000 0.000000 -0.000001 0.000000 1.000000 3713.dat
1 71 -122.021100 -605.556200 -20.190120 1.000000 0.000000 0.000001 0.000000 1.000000 0.000000 -0.000001 0.000000 1.000000 3713.dat
0 STEP
1 16 50.205060 -254.035400 -93.564220 0.969017 0.246993 0.000000 -0.246993 0.969017 -0.000002 0.000000 0.000002 1.000000 submodel group 3
0 STEP
1 15 -65.912660 -566.504300 -60.000240 -0.915664 0.000001 0.401948 0.401948 -0.000001 0.915663 0.000002 1.000000 0.000001 32316.dat
1 15 -65.915340 -566.503800 -119.999200 -0.915664 0.000001 0.401948 0.401948 -0.000001 0.915663 0.000002 1.000000 0.000001 32316.dat
0 STEP
1 1 66.118880 -559.628800 -39.640830 1.000000 -0.000001 -0.000001 0.000001 0.000001 1.000000 -0.000001 -1.000000 0.000001 32140.dat
1 1 66.118960 -559.628800 -139.920500 1.000000 -0.000001 -0.000001 0.000001 0.000001 1.000000 -0.000001 -1.000000 0.000001 32140.dat
1 0 66.118880 -559.628800 -90.430640 0.000000 0.000000 -1.000000 0.000000 1.000000 0.000000 1.000000 0.000000 0.000000 3707.dat
0 STEP
1 71 66.118880 -559.628800 -160.430700 1.000000 0.000000 0.000000 0.000000 1.000000 0.000000 0.000000 0.000000 1.000000 3713.dat
1 71 66.118880 -559.628700 -19.320720 1.000000 0.000000 0.000000 0.000000 1.000000 0.000000 0.000000 0.000000 1.000000 3713.dat
0 STEP
1 71 104.896900 -569.441000 -69.720630 0.000000 0.000000 -1.000000 0.000000 1.000000 0.000000 1.000000 0.000000 0.000000 3673.dat
1 71 104.895900 -569.440600 -109.721000 0.000000 0.000000 -1.000000 0.000000 1.000000 0.000000 1.000000 0.000000 0.000000 3673.dat
0 STEP
1 16 209.857500 -292.239700 -94.019220 0.999848 -0.017444 0.000000 0.017444 0.999848 0.000000 0.000000 0.000000 1.000000 submodel group 1
0 STEP
1 15 139.111500 -590.161800 -59.720640 -0.518024 -0.000001 0.855367 -0.855366 0.000001 -0.518024 0.000000 -1.000000 -0.000001 32316.dat
1 15 139.642600 -590.201100 -120.000000 -0.518024 -0.000001 0.855367 -0.855366 0.000001 -0.518024 0.000000 -1.000000 -0.000001 32316.dat
0 STEP
1 1 273.842700 -629.177900 -120.000700 0.000000 -1.000000 0.000000 -1.000000 0.000000 0.000000 0.000000 0.000000 -1.000000 6558.dat
1 0 273.842700 -609.177900 -120.000700 0.000001 0.000000 -1.000000 -0.000001 1.000000 0.000000 1.000000 0.000001 0.000001 15100.dat
0 STEP
1 1 273.842600 -629.177900 -60.000640 0.000000 -1.000000 0.000000 -1.000000 0.000000 0.000000 0.000000 0.000000 -1.000000 6558.dat
1 0 273.842600 -609.177900 -60.000760 0.000001 0.000000 -1.000000 0.000001 -1.000000 0.000000 -1.000000 -0.000001 -0.000001 15100.dat
0 STEP
1 15 304.012800 -618.652800 -100.000000 0.000000 -0.017444 -0.999848 0.000000 0.999848 -0.017444 1.000000 0.000000 0.000000 3040b.dat
1 15 304.012800 -618.652700 -80.000020 0.000000 -0.017444 -0.999848 0.000000 0.999848 -0.017444 1.000000 0.000000 0.000000 3040b.dat
0 STEP
1 15 284.434400 -642.998000 -80.000020 0.000000 -0.017444 -0.999848 0.000000 0.999848 -0.017444 1.000000 0.000000 0.000000 3040b.dat
1 15 284.434400 -642.998400 -100.000000 0.000000 -0.017444 -0.999848 0.000000 0.999848 -0.017444 1.000000 0.000000 0.000000 3040b.dat
0 STEP
1 19 174.273500 -634.570600 -70.000110 -0.000001 1.000000 -0.000001 0.000001 0.000001 1.000000 1.000000 0.000001 -0.000001 3749.dat
1 19 174.276600 -634.919300 -110.000000 -0.000001 1.000000 -0.000001 -0.000001 -0.000001 -1.000000 -1.000000 -0.000001 0.000001 3749.dat
0 STEP
1 1 174.276600 -634.919300 -120.000200 -1.000000 0.000001 0.000001 -0.000001 -0.000001 -1.000000 -0.000001 -1.000000 0.000001 32271.dat
1 1 174.273400 -634.570600 -60.000020 -1.000000 0.000001 0.000001 -0.000001 -0.000001 -1.000000 -0.000001 -1.000000 0.000001 32271.dat
0 STEP
1 15 -10.000000 -270.148100 -141.000000 -1.000000 0.000000 0.000000 0.000000 1.000000 0.000000 0.000000 0.000000 -1.000000 dx0078.dat.dat
0 STEP
0 STEP
0 NOFILE
0 FILE SubModel Group 9 Copy Copy Copy
0 SubModel Group 9 Copy Copy Copy
0 Name:  SubModel Group 9 Copy Copy Copy
0 Author:  
0 CustomBrick
0 NumOfBricks:  3
1 72 10.000000 -1.128810 -10.000000 1.000000 0.000000 0.000000 0.000000 0.000000 -1.000000 0.000000 1.000000 0.000000 dch003.dat
1 71 -27.466620 -79.717990 29.427020 1.000000 0.000000 0.000000 0.000000 0.000000 -1.000000 0.000000 1.000000 0.000000 dch004.dat
1 25 7.837010 13.484720 -9.965000 1.000000 0.000000 0.000000 0.000000 0.000000 -1.000000 0.000000 1.000000 0.000000 dch005.dat
0 NOFILE
0 FILE SubModel Group 2
0 SubModel Group 2
0 Name:  SubModel Group 2
0 Author:  
0 CustomBrick
0 NumOfBricks:  21
1 1 -52.332290 -286.589200 3.899420 1.000006 0.000000 0.000000 -0.000001 1.000000 0.000001 0.000000 -0.000001 1.000000 3709b.dat
1 1 -72.329200 -294.589500 3.899460 -1.000000 0.000000 0.000000 0.000000 1.000000 -0.000001 0.000000 -0.000001 -1.000000 3738.dat
0 STEP
1 1 -32.329180 -318.589600 13.899500 -1.000000 0.000000 0.000000 0.000000 1.000000 -0.000001 0.000000 -0.000001 -1.000000 3894.dat
1 1 -32.333780 -318.588900 -6.100670 -1.000006 0.000000 0.000000 0.000001 1.000000 -0.000001 0.000000 -0.000001 -1.000001 3894.dat
0 STEP
1 71 -32.334420 -308.798400 3.899260 0.000000 0.999987 0.005237 0.000002 -0.005237 0.999987 1.000000 0.000000 -0.000002 4519.dat
1 0 -72.334040 -308.588900 -16.100680 0.000000 0.081939 -0.996638 0.000001 0.996638 0.081939 1.000000 -0.000001 0.000000 2780.dat
1 72 -32.334520 -308.798400 -21.100760 -0.005237 0.000001 -0.999987 -0.999987 0.000002 0.005237 0.000002 1.000000 0.000001 32250.dat
0 STEP
1 71 -112.333500 -308.379400 3.899310 0.000000 0.999987 0.005237 0.000002 -0.005237 0.999987 1.000000 0.000000 -0.000002 4519.dat
1 14 -112.333500 -308.379400 -11.100690 0.005237 0.999987 0.000000 0.999987 -0.005237 -0.000002 -0.000002 0.000000 -1.000000 32123a.dat
0 STEP
1 14 -112.333500 -308.379300 19.259300 0.005237 0.999987 0.000000 0.999987 -0.005237 -0.000002 -0.000002 0.000000 -1.000000 32123a.dat
1 1 -112.333500 -308.379400 3.899310 -0.005237 -0.000001 -0.999987 -0.999987 0.000002 0.005237 0.000002 1.000000 -0.000001 32271.dat
0 STEP
1 0 -72.334040 -308.588900 23.899320 0.000000 0.081939 -0.996638 0.000001 0.996638 0.081939 1.000000 -0.000001 0.000000 2780.dat
1 72 -32.334520 -308.798200 28.899200 -0.005237 0.000001 -0.999987 -0.999987 0.000002 0.005237 0.000002 1.000000 0.000001 32250.dat
0 STEP
1 71 7.666480 -308.588900 23.899330 0.000000 0.081939 -0.996638 0.000001 0.996638 0.081939 1.000000 -0.000001 0.000000 3673.dat
1 71 7.666490 -308.589000 -16.100680 0.000000 0.081939 -0.996638 0.000001 0.996638 0.081939 1.000000 -0.000001 0.000000 3673.dat
0 STEP
1 0 -32.329510 -135.679600 3.899250 0.000000 0.000000 -0.999999 -0.999999 0.000000 0.000000 0.000001 1.000000 0.000000 3708.dat
1 4 -32.329280 -265.679500 3.899450 0.000000 1.000000 -0.000001 -1.000000 0.000000 0.000001 0.000001 0.000001 1.000000 32054.dat
0 STEP
1 19 -31.813290 -150.871900 -26.220560 -0.000001 0.999048 0.043615 0.000002 -0.043615 0.999047 1.000000 0.000001 -0.000002 3749.dat
1 0 -31.813290 -150.871900 3.779510 -0.043615 0.999049 -0.000001 -0.999049 -0.043615 0.000001 0.000001 0.000001 1.000000 32014.dat
0 STEP
1 4 -32.330350 -25.679640 3.899240 0.000000 0.999999 0.000000 -0.000001 0.000000 -0.999999 -1.000000 0.000000 0.000001 32039.dat
1 19 -32.329910 -5.679660 -6.100830 -0.000001 0.999999 0.000000 0.000002 0.000000 0.999999 1.000000 0.000001 -0.000002 3749.dat
0 STEP
0 NOFILE
0 FILE SubModel Group 3
0 SubModel Group 3
0 Name:  SubModel Group 3
0 Author:  
0 CustomBrick
0 NumOfBricks:  22
1 1 110.899200 -302.124700 -6.156200 -1.000002 0.000000 0.000000 0.000000 1.000000 0.000000 -0.000001 0.000000 -1.000002 3701.dat
1 1 110.900300 -302.124800 13.844220 -1.000000 0.000000 0.000000 0.000000 1.000000 0.000000 -0.000001 0.000000 -1.000000 3701.dat
1 0 110.899200 -292.124700 3.843920 0.000000 0.000000 -1.000002 0.000000 1.000000 0.000000 1.000002 0.000000 -0.000001 2780.dat
0 STEP
1 1 90.901390 -270.125500 3.843040 0.000000 -0.000001 -1.000000 0.000000 1.000000 -0.000001 1.000000 0.000000 -0.000001 3709b.dat
1 1 90.900300 -278.124800 3.844170 0.000000 0.000000 -1.000000 0.000000 1.000000 0.000000 1.000000 0.000000 -0.000001 3709b.dat
0 STEP
1 1 50.900300 -302.124700 -26.155850 -1.000000 0.000000 0.000000 0.000000 1.000000 0.000000 -0.000001 0.000000 -1.000000 3894.dat
0 STEP
1 0 10.900450 -292.055300 -16.155850 0.000000 -0.221554 -0.975148 0.000001 0.975148 -0.221554 1.000000 -0.000001 0.000000 2780.dat
1 1 30.900310 -292.124800 -6.155860 0.000000 0.221554 0.975148 0.000001 -0.975148 0.221554 1.000000 0.000001 0.000000 6558.dat
1 15 10.900440 -292.055300 -6.155830 -0.003483 -0.000001 0.999994 -0.999994 0.000000 -0.003483 0.000000 -1.000000 0.000000 32316.dat
1 71 -29.099300 -291.916000 -16.155830 0.000000 -0.221554 -0.975148 0.000001 0.975148 -0.221554 1.000000 -0.000001 0.000000 3673.dat
0 STEP
1 15 10.900480 -292.055100 13.844140 -0.003483 -0.000001 0.999994 -0.999994 0.000000 -0.003483 0.000000 -1.000000 0.000000 32316.dat
1 1 50.900220 -292.194500 13.844120 0.000000 -0.221554 0.975148 -0.000001 0.975148 0.221554 -1.000000 -0.000001 0.000000 6558.dat
1 71 -29.099260 -291.915800 23.844140 0.000000 -0.221554 -0.975148 0.000001 0.975148 -0.221554 1.000000 -0.000001 0.000000 3673.dat
0 STEP
1 0 10.900470 -292.055100 23.844140 0.000000 -0.221554 -0.975148 0.000001 0.975148 -0.221554 1.000000 -0.000001 0.000000 2780.dat
1 1 50.900150 -302.194400 33.844140 -1.000000 0.000000 0.000000 0.000000 1.000000 0.000000 -0.000001 0.000000 -1.000000 3894.dat
0 STEP
1 1 90.900230 -310.124800 3.844260 0.000000 0.000000 -1.000000 0.000000 1.000000 0.000000 1.000000 0.000000 -0.000001 3709b.dat
0 STEP
1 4 90.900260 -248.124800 3.844170 0.000000 1.000000 -0.000001 -1.000000 0.000000 0.000000 0.000000 0.000002 1.000000 32054.dat
1 0 90.900230 -118.124800 3.844160 0.000000 0.000000 -1.000000 -1.000000 0.000000 0.000000 0.000000 1.000000 -0.000001 3708.dat
0 STEP
1 0 91.524550 -116.983200 3.564490 0.026165 0.999658 0.000000 -0.999658 0.026165 0.000002 0.000002 0.000000 1.000000 32014.dat
1 19 91.524570 -116.983300 -26.435580 -0.000002 0.999658 -0.026166 0.000003 0.026166 0.999658 1.000000 0.000001 -0.000003 3749.dat
0 STEP
1 71 90.899700 11.875520 -6.155860 0.000000 -0.087154 -0.996195 0.000002 0.996195 -0.087154 1.000000 -0.000002 0.000000 3673.dat
1 0 90.900100 11.875550 3.844130 -0.000002 1.000002 -0.000001 0.000000 0.000001 1.000002 1.000000 0.000003 0.000000 32013.dat
0 STEP
0 NOFILE
0 FILE SubModel Group 1
0 SubModel Group 1
0 Name:  SubModel Group 1
0 Author:  
0 CustomBrick
0 NumOfBricks:  20
1 1 18.446610 -304.005900 4.019130 -1.000001 0.000000 0.000000 0.000000 1.000000 0.000000 0.000000 0.000000 -1.000000 3738.dat
1 1 -1.553940 -296.004500 4.019190 -1.000001 0.000000 0.000000 0.000000 1.000000 0.000000 0.000000 0.000000 -1.000000 32001.dat
0 STEP
1 1 -21.553450 -328.006000 14.019120 -1.000001 0.000000 0.000000 0.000000 1.000000 0.000000 0.000000 0.000000 -1.000000 3701.dat
1 1 -21.554240 -328.006000 -5.980970 -1.000001 0.000000 0.000000 0.000000 1.000000 0.000000 0.000000 0.000000 -1.000000 3701.dat
1 71 -41.553420 -318.006000 24.019130 0.000000 0.076716 -0.997054 0.000000 0.997053 0.076716 1.000000 0.000000 0.000000 3673.dat
1 71 -41.554210 -318.006000 -15.980980 0.000000 0.076716 -0.997054 0.000000 0.997053 0.076716 1.000000 0.000000 0.000000 3673.dat
0 STEP
1 1 -21.553540 -352.006900 14.019120 -1.000001 0.000000 0.000000 0.000000 0.999999 0.000000 0.000000 0.000000 -1.000000 3701.dat
1 1 -21.554020 -352.006100 -5.980860 -1.000001 0.000000 0.000000 0.000000 1.000000 0.000000 0.000000 0.000000 -1.000000 3701.dat
0 STEP
1 19 -1.556770 -342.356000 24.018750 -0.000001 0.999848 0.017443 0.000001 -0.017443 0.999848 1.000000 0.000001 -0.000001 3749.dat
1 0 -1.556770 -342.356000 34.018690 0.017444 -0.999848 0.000000 0.999848 0.017444 0.000000 0.000000 0.000000 1.000000 32270.dat
0 STEP
1 19 -1.553800 -342.007000 -15.980820 -0.000001 0.999848 -0.017445 -0.000001 -0.017445 -0.999848 -1.000000 -0.000001 0.000001 3749.dat
1 0 -1.553800 -342.007000 -25.980900 0.017444 -0.999848 0.000000 0.999848 0.017444 0.000000 0.000000 0.000000 1.000000 32270.dat
0 STEP
1 1 58.446640 -328.005900 14.019150 -1.000001 0.000000 0.000000 0.000000 1.000000 0.000000 0.000000 0.000000 -1.000000 3700.dat
1 1 58.446540 -328.006100 -5.981510 -1.000001 0.000000 0.000000 0.000000 1.000000 0.000000 0.000000 0.000000 -1.000000 3700.dat
0 STEP
1 0 -1.553380 -144.005900 4.019190 0.000000 0.000000 -1.000000 -0.999999 0.000000 0.000000 0.000000 1.000000 0.000000 3708.dat
1 4 -1.553380 -274.005900 4.019130 0.000000 1.000001 -0.000001 -1.000000 0.000000 0.000000 0.000000 0.000001 1.000000 32054.dat
0 STEP
1 0 -1.553430 -99.156020 4.019150 0.000000 1.000001 0.000000 -1.000000 0.000000 0.000000 0.000000 0.000000 1.000000 32014.dat
1 19 -1.563360 -97.748160 -25.980860 -0.000001 0.998240 -0.059313 0.000001 0.059313 0.998240 1.000000 0.000001 -0.000001 3749.dat
0 STEP
1 4 -1.840650 -29.268710 3.828960 0.000000 0.999847 0.017456 0.000000 0.017456 -0.999847 -1.000000 0.000000 0.000000 32039.dat
1 19 -2.189750 -9.271790 -6.171030 -0.000001 0.999847 -0.017456 0.000001 0.017456 0.999847 1.000000 0.000001 -0.000001 3749.dat
0 STEP
0 NOFILE
