0 Untitled Model
0 Name:  滑轮转动速度
0 Author:  
0 CustomBrick
0 NumOfBricks:  51
1 71 110.000000 -29.999990 50.000060 0.000000 0.000000 1.000000 0.000000 1.000000 0.000000 -1.000000 0.000000 0.000000 64179.dat
1 71 -89.999940 -30.000200 49.998900 0.000000 0.000000 1.000000 0.000000 1.000000 0.000000 -1.000001 0.000000 0.000000 64179.dat
0 STEP
1 1 110.000000 -110.000000 29.999130 1.000001 -0.000001 -0.000001 0.000001 0.000001 1.000000 -0.000001 -1.000002 0.000001 32526.dat
1 1 -90.000060 -110.000200 29.999310 -1.000000 0.000001 0.000001 0.000001 0.000001 1.000000 0.000001 1.000000 -0.000001 32526.dat
1 0 -89.999940 -30.000220 19.998940 0.000000 0.000000 -1.000000 0.000000 1.000000 0.000000 1.000001 0.000000 0.000000 2780.dat
1 0 -130.000000 -30.000220 19.998880 0.000000 0.000000 -1.000000 0.000000 1.000000 0.000000 1.000000 0.000000 0.000000 2780.dat
1 0 -90.000060 -110.000200 19.999360 0.000000 0.000000 -1.000000 0.000000 1.000000 0.000000 1.000000 0.000000 0.000000 2780.dat
1 0 110.000000 -110.000000 19.999120 0.000000 0.000000 -1.000001 0.000000 1.000000 0.000000 1.000001 0.000000 0.000000 2780.dat
1 0 150.000000 -29.999990 19.999180 0.000000 0.000000 -1.000001 0.000000 1.000000 0.000000 1.000001 0.000000 0.000000 2780.dat
1 0 109.999900 -29.999990 19.999180 0.000000 0.000000 -1.000001 0.000000 1.000000 0.000000 1.000001 0.000000 0.000000 2780.dat
0 STEP
1 15 9.999969 -110.000100 9.999249 0.000001 0.000001 -1.000000 -1.000000 0.000001 -0.000001 0.000001 1.000000 0.000001 64871.dat
0 STEP
1 71 -30.000100 -110.000200 30.089280 1.000000 0.000000 0.000001 0.000000 1.000000 0.000000 -0.000001 0.000000 1.000000 3713.dat
1 71 -30.000040 -110.000200 -18.840720 1.000000 0.000000 0.000000 0.000000 1.000000 0.000000 0.000000 0.000000 1.000000 4185.dat
1 14 -30.000040 -110.000200 -5.700710 0.000000 1.000000 0.000000 1.000000 0.000000 0.000000 0.000000 0.000000 -1.000000 32123a.dat
1 14 -30.000040 -110.000200 -28.740690 1.000000 0.000000 0.000000 0.000000 1.000000 0.000000 0.000000 0.000000 1.000000 32123a.dat
1 71 -30.000040 -110.000200 16.299290 0.000000 0.000000 1.000000 0.000000 1.000000 0.000000 -1.000000 0.000000 0.000000 32073.dat
0 STEP
1 71 49.999850 -110.000100 30.659160 1.000000 0.000000 0.000001 0.000000 1.000000 0.000000 -0.000001 0.000000 1.000000 3713.dat
1 4 29.999910 -110.000200 -34.300800 0.000000 0.000001 -1.000000 0.000000 -1.000000 -0.000001 -1.000000 0.000000 0.000000 32039.dat
1 71 49.999920 -110.000100 -16.330840 1.000000 0.000000 0.000000 0.000000 1.000000 0.000000 0.000000 0.000000 1.000000 4185.dat
1 4 19.999920 -110.000200 -34.300800 -1.000000 0.000000 0.000000 0.000000 1.000000 0.000000 0.000000 0.000000 -1.000000 32062.dat
1 14 49.999850 -110.000100 -5.520840 0.000000 1.000000 0.000000 -1.000000 0.000000 0.000000 0.000000 0.000000 1.000000 32123a.dat
1 14 49.999920 -110.000100 -48.630820 1.000000 0.000000 0.000000 0.000000 1.000000 0.000000 0.000000 0.000000 1.000000 32123a.dat
1 71 49.999920 -110.000100 -3.630820 0.000000 0.000000 1.000000 0.000000 1.000000 0.000000 -1.000000 0.000000 0.000000 32073.dat
0 STEP
1 0 150.000000 -110.000000 19.869120 0.000000 0.000000 1.000000 0.000000 1.000000 0.000000 -1.000000 0.000000 0.000000 3705.dat
1 71 150.000000 -110.000000 29.869120 1.000000 0.000000 0.000001 0.000000 1.000000 0.000000 -0.000001 0.000000 1.000000 3713.dat
1 71 150.000000 -110.000000 -11.000940 1.000000 0.000000 0.000001 0.000000 1.000000 0.000000 -0.000001 0.000000 1.000000 3713.dat
0 STEP
1 19 -30.000040 -150.000200 60.199340 0.000001 -1.000000 0.000001 0.000001 0.000001 1.000000 -1.000000 -0.000001 0.000001 3749.dat
1 19 150.000000 -150.000000 60.559140 0.000001 -1.000000 0.000001 0.000001 0.000001 1.000000 -1.000000 -0.000001 0.000001 3749.dat
1 1 -30.000040 -130.000200 50.199340 0.000000 0.000000 1.000000 0.000000 -1.000000 0.000000 1.000000 0.000000 0.000000 32184.dat
1 1 150.000000 -130.000000 50.559140 0.000000 0.000000 -1.000000 0.000000 -1.000000 0.000000 -1.000000 0.000000 0.000000 32184.dat
0 STEP
1 4 150.000000 -150.000100 80.559140 0.000000 0.000000 1.000000 0.000000 1.000000 0.000000 -1.000000 0.000000 0.000000 62462.dat
1 4 -30.000040 -150.000200 80.199340 0.000000 0.000000 1.000000 0.000000 1.000000 0.000000 -1.000000 0.000000 0.000000 62462.dat
0 STEP
1 15 170.000100 -9.999949 50.000000 -1.000000 0.000001 -0.000001 -0.000001 -1.000000 -0.000001 -0.000001 -0.000001 1.000000 32524.dat
1 0 170.000100 -19.999990 10.000030 0.000000 1.000000 0.000000 1.000000 0.000000 0.000000 0.000000 0.000000 -1.000000 2780.dat
1 0 170.000000 -19.999980 90.000060 0.000000 -1.000000 0.000000 1.000000 0.000000 0.000000 0.000000 0.000000 1.000000 2780.dat
0 STEP
1 0 -149.999900 -20.000220 9.998879 0.000000 1.000000 0.000000 1.000000 0.000000 0.000000 0.000000 0.000000 -1.000000 2780.dat
1 0 -149.999900 -20.000190 89.998950 0.000000 1.000000 0.000000 1.000000 0.000000 0.000000 0.000000 0.000000 -1.000000 2780.dat
1 15 -149.999900 -10.000220 49.998960 1.000000 -0.000001 0.000001 -0.000001 -1.000000 -0.000001 0.000001 0.000001 -1.000000 32524.dat
0 STEP
1 0 -49.999940 -30.000200 99.998890 0.000000 0.000000 -1.000000 0.000000 1.000000 0.000000 1.000000 0.000000 0.000000 2780.dat
1 0 70.000020 -29.999990 100.000100 0.000000 0.000000 -1.000000 0.000000 1.000000 0.000000 1.000000 0.000000 0.000000 2780.dat
1 15 70.000020 -29.999980 110.000100 0.000001 0.000001 -1.000000 -1.000000 0.000001 -0.000001 0.000001 1.000000 0.000001 32316.dat
1 15 -49.999940 -30.000190 109.998900 0.000001 0.000001 -1.000000 -1.000000 0.000001 -0.000001 0.000001 1.000000 0.000001 32316.dat
0 STEP
1 15 70.000020 -29.999980 -9.999960 0.000001 0.000001 -1.000000 -1.000000 0.000001 -0.000001 0.000001 1.000000 0.000001 32316.dat
1 15 -49.999940 -30.000200 -10.001240 0.000001 0.000001 -1.000000 -1.000000 0.000001 -0.000001 0.000001 1.000000 0.000001 32316.dat
1 0 70.000030 -29.999990 -0.000030 0.000000 0.000000 -1.000000 0.000000 1.000000 0.000000 1.000000 0.000000 0.000000 2780.dat
1 0 -49.999940 -30.000220 -0.001240 0.000000 0.000000 -1.000000 0.000000 1.000000 0.000000 1.000000 0.000000 0.000000 2780.dat
0 STEP
1 71 -130.000100 -110.000300 -10.100610 1.000000 0.000000 0.000001 0.000000 1.000000 0.000000 -0.000001 0.000000 1.000000 3713.dat
1 71 -130.000200 -110.000300 29.519390 1.000000 0.000000 0.000001 0.000000 1.000000 0.000000 -0.000001 0.000000 1.000000 3713.dat
1 0 -130.000100 -110.000300 -0.100610 0.000000 0.000000 1.000000 0.000000 1.000000 0.000000 -1.000000 0.000000 0.000000 3705.dat
0 STEP
1 4 -150.000200 -110.000300 -32.470660 0.000000 0.000001 -1.000000 0.000000 -1.000000 -0.000001 -1.000000 0.000000 0.000000 32039.dat
1 4 -162.540200 -110.000400 -32.470660 -1.000000 0.000000 0.000000 0.000000 1.000000 0.000000 0.000000 0.000000 -1.000000 32062.dat
0 STEP
0 STEP
