0 FILE 旋转机器.io
0 Untitled Model
0 Name:  旋转机器
0 Author:  
0 CustomBrick
0 NumOfBricks:  69
1 1 40.000120 -23.999980 -150.000000 1.000000 0.000000 0.000000 0.000000 1.000000 0.000000 0.000000 0.000000 1.000000 3703.dat
1 1 40.000000 -23.999980 -50.000020 1.000000 0.000000 0.000000 0.000000 1.000000 0.000000 0.000000 0.000000 1.000000 3703.dat
1 1 180.000100 -31.999980 -100.000000 0.000000 0.000000 1.000000 0.000000 1.000000 0.000000 -1.000000 0.000000 0.000000 32001.dat
0 STEP
1 1 -100.000100 -31.999980 -100.000100 0.000000 0.000000 1.000000 0.000000 1.000000 0.000000 -1.000000 0.000000 0.000000 32001.dat
1 1 -19.999880 -31.999980 -50.000020 1.000000 0.000000 0.000000 0.000000 1.000000 0.000000 0.000000 0.000000 1.000000 3710.dat
1 1 -19.999880 -31.999980 -150.000000 1.000000 0.000000 0.000000 0.000000 1.000000 0.000000 0.000000 0.000000 1.000000 3710.dat
0 STEP
1 1 80.000110 -55.999960 -50.000020 1.000000 0.000000 0.000000 0.000000 1.000000 0.000000 0.000000 0.000000 1.000000 3895.dat
1 1 -80.000070 -55.999960 -50.000020 1.000000 0.000000 0.000000 0.000000 1.000000 0.000000 0.000000 0.000000 1.000000 3701.dat
0 STEP
1 1 80.000110 -55.999960 -150.000000 1.000000 0.000000 0.000000 0.000000 1.000000 0.000000 0.000000 0.000000 1.000000 3895.dat
1 1 -80.000070 -55.999960 -150.000000 1.000000 0.000000 0.000000 0.000000 1.000000 0.000000 0.000000 0.000000 1.000000 3701.dat
0 STEP
1 16 35.922030 -45.019840 -100.000000 1.000000 0.000000 0.000000 0.000000 1.000000 0.000000 0.000000 0.000000 1.000000 submodel group 1
0 STEP
1 1 -100.000100 -63.999960 -100.000100 0.000000 0.000000 1.000000 0.000000 1.000000 0.000000 -1.000000 0.000000 0.000000 32001.dat
1 14 -100.000000 -72.849970 -100.000100 0.923882 0.382679 0.000000 0.000000 0.000000 -1.000000 -0.382679 0.923881 0.000000 32123a.dat
1 0 -100.000100 -60.889960 -100.000100 0.000000 -0.382679 0.923881 -1.000000 0.000000 0.000000 0.000000 -0.923881 -0.382679 3706.dat
0 STEP
1 71 -100.000000 -110.890000 -100.000100 0.923882 -0.382679 0.000000 0.000000 0.000000 1.000000 -0.382679 -0.923881 0.000000 3649.dat
1 71 -100.000000 -88.109970 -100.000100 -0.382678 -0.923882 0.000000 -0.000001 0.000000 1.000000 -0.923881 0.382678 -0.000001 3713.dat
0 STEP
1 71 -100.000000 -14.279990 -100.000100 0.382678 -0.923882 0.000000 0.000001 0.000000 -1.000000 0.923881 0.382678 0.000001 3713.dat
0 STEP
1 0 -105.412100 -120.890000 -86.934360 0.000000 0.000000 -1.000000 1.000000 0.000000 0.000000 0.000000 -1.000000 0.000000 2780.dat
1 0 -94.587970 -120.890000 -113.065700 0.000000 0.000000 -1.000000 1.000000 0.000000 0.000000 0.000000 -1.000000 0.000000 2780.dat
1 0 -76.110360 -120.890000 -120.719100 0.000000 0.000000 -1.000000 1.000000 -0.000001 0.000000 -0.000001 -1.000000 0.000000 2780.dat
1 0 -123.889700 -120.890000 -79.280880 0.000000 0.000000 -1.000000 1.000000 -0.000001 0.000000 -0.000001 -1.000000 0.000000 2780.dat
0 STEP
1 15 -38.522590 -130.890100 -134.399900 -0.342019 0.000001 -0.939693 -0.000001 -1.000000 0.000000 -0.939693 0.000001 0.342019 32524.dat
1 71 17.859000 -110.989900 -154.920900 1.000000 0.000000 0.000001 -0.000001 0.000000 1.000000 0.000000 -1.000000 0.000000 3713.dat
1 71 17.858940 -130.990100 -154.920900 0.000000 -1.000000 0.000000 -1.000000 0.000000 0.000000 0.000000 0.000000 -1.000000 4519.dat
0 STEP
1 71 17.858940 -155.990100 -154.920900 1.000000 0.000000 0.000000 0.000000 0.000000 -1.000000 0.000000 1.000000 0.000000 4185.dat
1 14 17.859000 -145.810100 -154.920900 0.000000 1.000000 0.000000 0.000000 0.000000 1.000000 1.000000 0.000000 0.000000 32123a.dat
0 STEP
1 15 -161.793700 -130.890100 -66.413310 0.342020 -0.000001 0.939693 -0.000001 -1.000000 0.000000 0.939693 -0.000001 -0.342020 32524.dat
1 71 -218.175400 -130.890000 -45.892220 0.000000 -1.000000 0.000000 -1.000000 0.000000 0.000000 0.000000 0.000000 -1.000000 4519.dat
1 71 -218.175400 -110.889900 -45.892220 1.000000 0.000000 0.000001 -0.000001 0.000000 1.000000 0.000000 -1.000000 0.000000 3713.dat
0 STEP
1 14 -218.175400 -145.800000 -45.892220 0.000000 1.000000 0.000000 0.000000 0.000000 1.000000 1.000000 0.000000 0.000000 32123a.dat
1 71 -218.175400 -155.890000 -45.892220 1.000000 0.000000 0.000000 0.000000 0.000000 -1.000000 0.000000 1.000000 0.000000 4185.dat
0 STEP
1 15 -53.923970 -130.890100 -21.731940 0.906308 -0.000001 -0.422617 -0.000001 -1.000000 0.000000 -0.422617 0.000001 -0.906308 40490.dat
1 0 -86.934390 -120.890000 -94.588000 0.000000 0.000000 -1.000000 1.000000 0.000000 0.000000 0.000000 -1.000000 0.000000 2780.dat
1 0 -79.280900 -120.890000 -76.110400 0.000000 0.000000 -1.000000 1.000000 -0.000002 0.000000 -0.000001 -1.000000 0.000000 2780.dat
0 STEP
1 0 -113.065700 -120.890000 -105.412100 0.000000 0.000000 -1.000000 1.000000 -0.000001 0.000000 0.000000 -1.000000 0.000000 2780.dat
1 0 -120.719300 -120.890000 -123.889700 0.000000 0.000000 -1.000000 1.000000 -0.000001 0.000000 -0.000001 -1.000000 0.000000 2780.dat
1 15 -146.875100 -130.890100 -177.916700 0.906308 -0.000001 -0.422617 -0.000001 -1.000000 0.000000 -0.422617 0.000001 -0.906308 40490.dat
0 STEP
1 0 -20.114390 -140.830000 50.772740 0.000000 1.000000 0.000000 1.000000 0.000000 0.000000 0.000000 0.000000 -1.000000 3705.dat
1 0 -20.114390 -110.829900 50.772740 1.000000 0.000000 0.000000 0.000000 0.000000 1.000000 0.000000 -1.000000 0.000000 32270.dat
0 STEP
1 71 -20.114390 -150.830100 50.772740 0.000000 1.000000 0.000000 -0.000001 0.000000 1.000000 1.000000 0.000000 0.000001 3713.dat
1 4 -20.114390 -170.830100 50.772740 0.000000 -1.000000 -0.000001 0.000000 -0.000001 1.000000 -1.000000 0.000000 0.000000 32039.dat
0 STEP
1 1 -20.114330 -190.830100 115.182600 -1.000000 0.000001 0.000001 -0.000001 -0.000001 -1.000000 -0.000001 -1.000000 0.000001 32140.dat
1 0 -20.114390 -190.830000 45.182700 0.000000 0.000000 1.000000 0.000000 1.000000 0.000000 -1.000000 0.000000 0.000000 3737.dat
1 71 -20.114390 -190.830000 135.182900 1.000000 0.000000 0.000001 0.000000 1.000000 0.000000 -0.000001 0.000000 1.000000 3713.dat
0 STEP
1 1 -20.114390 -190.830000 -24.817330 1.000000 -0.000001 -0.000001 -0.000001 -0.000001 -1.000000 0.000001 1.000000 -0.000001 32140.dat
1 71 -20.114390 -190.830000 -44.817340 1.000000 0.000000 0.000001 0.000000 1.000000 0.000000 -0.000001 0.000000 1.000000 3713.dat
0 STEP
1 0 -180.684400 -140.890100 -250.421400 0.000000 0.000000 1.000000 -1.000000 0.000000 0.000000 0.000000 -1.000000 0.000000 3705.dat
1 0 -180.684400 -110.860000 -250.421400 1.000000 0.000000 0.000000 0.000000 0.000000 1.000000 0.000000 -1.000000 0.000000 32270.dat
0 STEP
1 71 -180.684400 -150.890200 -250.421400 0.000000 -1.000000 0.000000 0.000001 0.000000 -1.000000 1.000000 0.000000 0.000001 3713.dat
1 4 -180.684400 -170.890100 -250.421400 0.000000 -1.000000 -0.000001 0.000000 -0.000001 1.000000 -1.000000 0.000000 0.000000 32039.dat
0 STEP
1 1 -180.684400 -190.890200 -178.381300 -1.000000 0.000001 0.000001 -0.000001 -0.000001 -1.000000 -0.000001 -1.000000 0.000001 32140.dat
1 0 -180.684400 -190.890200 -248.381300 0.000000 0.000000 1.000000 0.000000 1.000000 0.000000 -1.000000 0.000000 0.000000 3737.dat
1 71 -180.684400 -190.890200 -158.381300 1.000000 0.000000 0.000001 0.000000 1.000000 0.000000 -0.000001 0.000000 1.000000 3713.dat
0 STEP
1 1 -180.684200 -190.890100 -318.381400 1.000000 -0.000001 -0.000001 -0.000001 -0.000001 -1.000000 0.000001 1.000000 -0.000001 32140.dat
1 71 -180.684400 -190.890200 -338.381400 1.000000 0.000000 0.000001 0.000000 1.000000 0.000000 -0.000001 0.000000 1.000000 3713.dat
0 STEP
0 STEP
0 NOFILE
0 FILE SubModel Group 1
0 SubModel Group 1
0 Name:  SubModel Group 1
0 Author:  
0 CustomBrick
0 NumOfBricks:  15
1 1 -65.922040 -42.980120 0.000040 0.000000 0.000000 1.000000 0.000000 1.000000 0.000000 -1.000000 0.000000 0.000000 3894.dat
1 1 -55.921920 -18.980120 0.000040 0.000000 0.000000 1.000000 0.000000 1.000000 0.000000 -1.000000 0.000000 0.000000 32001.dat
1 1 -45.921900 -42.980120 0.000040 0.000000 0.000000 1.000000 0.000000 1.000000 0.000000 -1.000000 0.000000 0.000000 3894.dat
0 STEP
1 0 5.147980 -32.980130 0.000040 -1.000000 0.000000 0.000000 0.000000 1.000000 0.000000 0.000000 0.000000 -1.000000 3708.dat
1 71 -83.852020 -32.980140 0.000040 0.000001 0.000000 -1.000000 1.000000 0.000000 0.000001 0.000000 -1.000000 0.000000 3650c.dat
1 71 -105.852000 -32.980130 -0.000080 0.000001 0.000000 -1.000000 0.000000 1.000000 0.000000 1.000000 0.000000 0.000001 3713.dat
0 STEP
1 19 14.497980 -32.980130 0.000160 0.000000 0.000000 -1.000000 0.000000 -1.000000 0.000000 -1.000000 0.000000 0.000000 32269.dat
1 71 -25.971900 -32.980130 0.000040 0.000001 0.000000 -1.000000 0.000000 1.000000 0.000000 1.000000 0.000000 0.000001 3713.dat
1 71 -5.882030 -32.980130 0.000040 0.000001 0.000000 -1.000000 0.000000 1.000000 0.000000 1.000000 0.000000 0.000001 3713.dat
0 STEP
1 71 54.147970 -32.980130 0.000020 0.000001 0.000000 -1.000000 0.000000 1.000000 0.000000 1.000000 0.000000 0.000001 3713.dat
1 71 34.147970 -32.980130 0.000040 0.000001 0.000000 -1.000000 0.000000 1.000000 0.000000 1.000000 0.000000 0.000001 3713.dat
0 STEP
1 1 84.078010 -18.980120 -0.000100 0.000000 0.000000 1.000000 0.000000 1.000000 0.000000 -1.000000 0.000000 0.000000 32001.dat
1 1 74.078000 -42.980120 -0.000100 0.000000 0.000000 1.000000 0.000000 1.000000 0.000000 -1.000000 0.000000 0.000000 3894.dat
1 1 94.078010 -42.980120 -0.000100 0.000000 0.000000 1.000000 0.000000 1.000000 0.000000 -1.000000 0.000000 0.000000 3894.dat
0 STEP
1 0 134.148000 -32.980130 0.000020 0.000000 1.000000 0.000000 0.000000 0.000000 1.000000 1.000000 0.000000 0.000000 32014.dat
0 STEP
0 NOFILE
