0 FILE 挖掘车
0 Untitled Model
0 Name:  挖掘车
0 Author:  
0 CustomBrick
0 NumOfBricks:  170
1 15 -29.999060 -65.157340 -320.861700 0.000002 1.000000 0.000002 1.000000 -0.000001 0.000001 0.000000 0.000001 -1.000000 32523.dat
1 1 -9.999030 -65.157320 -340.861800 1.000000 -0.000001 0.000001 0.000000 -1.000000 0.000000 0.000000 0.000001 -1.000000 6558.dat
1 1 -9.999050 -65.157340 -300.861800 1.000000 -0.000001 0.000001 0.000000 -1.000000 0.000000 0.000000 0.000001 -1.000000 6558.dat
0 STEP
1 0 0.000850 -65.157300 -400.861500 1.000000 0.000001 -0.000001 0.000000 1.000000 0.000000 0.000000 -0.000001 1.000000 2780.dat
1 15 -9.999160 -65.157290 -400.861500 0.000000 1.000000 0.000000 -1.000000 0.000001 -0.000001 -0.000001 -0.000001 1.000000 64290.dat
0 STEP
1 15 10.000940 -65.157380 -420.861500 0.000000 -1.000000 -0.000002 1.000000 -0.000001 0.000001 -0.000002 -0.000001 1.000000 64871.dat
1 0 20.000640 -65.157280 -560.861500 1.000000 0.000001 -0.000001 0.000000 1.000000 0.000000 0.000000 -0.000001 1.000000 2780.dat
0 STEP
1 1 -9.998930 -65.157290 -500.861500 1.000000 0.000001 -0.000001 0.000000 1.000000 0.000000 0.000000 -0.000001 1.000000 6558.dat
1 1 -9.999060 -65.157300 -540.861800 -1.000000 -0.000001 -0.000001 0.000000 -1.000000 0.000000 0.000000 0.000001 1.000000 6558.dat
0 STEP
1 0 42.870920 -65.157540 -520.861600 -1.000000 0.000001 0.000001 0.000000 1.000000 0.000000 0.000000 -0.000001 -1.000000 3708.dat
1 71 -50.169090 -65.157550 -520.861600 -0.000001 0.000001 1.000000 0.000000 1.000000 0.000000 -1.000000 -0.000001 -0.000001 3713.dat
1 15 -29.999060 -65.157340 -500.861800 0.000000 1.000000 0.000000 -1.000000 0.000001 -0.000001 0.000000 -0.000001 1.000000 32316.dat
0 STEP
1 1 30.000800 -65.157120 -320.861400 -0.000001 -1.000000 -0.000001 0.000000 0.000000 -1.000000 1.000000 0.000000 0.000001 60484.dat
1 0 36.000780 -65.157340 -320.861600 -1.000000 0.000001 0.000001 0.000000 1.000000 0.000000 0.000000 -0.000001 -1.000000 3708.dat
1 71 -50.209220 -65.157360 -320.861600 -0.000001 0.000001 1.000000 0.000000 1.000000 0.000000 -1.000000 -0.000001 -0.000001 3713.dat
0 STEP
1 71 40.000160 -105.157400 -340.861400 1.000000 0.000001 -0.000001 0.000000 1.000000 0.000000 0.000000 -0.000001 1.000000 3673.dat
1 71 40.000170 -85.156970 -320.861300 1.000000 0.000001 -0.000001 0.000000 1.000000 0.000000 0.000000 -0.000001 1.000000 3673.dat
1 1 50.000500 -65.157410 -320.861400 -0.000001 -1.000000 -0.000001 0.000000 0.000000 -1.000000 1.000000 0.000000 0.000001 60484.dat
0 STEP
1 1 30.000560 -105.157300 -480.861400 0.000002 1.000000 0.000000 1.000000 -0.000001 -0.000001 -0.000002 -0.000001 -1.000000 32526.dat
1 0 40.001090 -85.157260 -560.861300 1.000000 0.000001 -0.000001 0.000000 1.000000 0.000000 0.000000 -0.000001 1.000000 2780.dat
0 STEP
1 1 50.000260 -105.157300 -480.861400 0.000002 1.000000 0.000000 1.000000 -0.000001 -0.000001 -0.000002 -0.000001 -1.000000 32526.dat
1 0 60.000800 -65.157360 -560.861500 1.000000 0.000001 -0.000001 0.000000 1.000000 0.000000 0.000000 -0.000001 1.000000 2780.dat
0 STEP
1 15 70.000790 -65.157460 -420.861500 0.000000 -1.000000 -0.000002 1.000000 -0.000001 0.000001 -0.000002 -0.000001 1.000000 64871.dat
1 0 80.000400 -65.157380 -400.861500 1.000000 0.000001 -0.000001 0.000000 1.000000 0.000000 0.000000 -0.000001 1.000000 2780.dat
0 STEP
1 1 90.000780 -65.157400 -300.861600 -1.000000 0.000001 0.000001 0.000000 1.000000 0.000000 0.000000 -0.000001 -1.000000 6558.dat
1 1 90.000800 -65.157390 -340.861400 -1.000000 0.000001 0.000001 0.000000 1.000000 0.000000 0.000000 -0.000001 -1.000000 6558.dat
1 15 90.000930 -65.157460 -400.861500 0.000000 1.000000 0.000000 -1.000000 0.000001 -0.000001 -0.000001 -0.000001 1.000000 64290.dat
0 STEP
1 15 110.000800 -65.157410 -320.861600 0.000000 -1.000000 -0.000002 1.000000 -0.000001 0.000001 -0.000002 -0.000001 1.000000 32523.dat
1 71 129.470800 -65.157340 -320.861600 -0.000001 0.000001 1.000000 0.000000 1.000000 0.000000 -1.000000 -0.000001 -0.000001 3713.dat
0 STEP
1 1 90.000910 -65.157350 -500.861500 -1.000000 0.000001 0.000001 0.000000 1.000000 0.000000 0.000000 -0.000001 -1.000000 6558.dat
1 1 90.000930 -65.157340 -540.861500 -1.000000 0.000001 0.000001 0.000000 1.000000 0.000000 0.000000 -0.000001 -1.000000 6558.dat
0 STEP
1 15 110.001000 -65.157380 -500.861500 0.000000 1.000000 0.000000 -1.000000 0.000001 -0.000001 0.000000 -0.000001 1.000000 32316.dat
1 71 129.910900 -65.157520 -520.861600 -0.000001 0.000001 1.000000 0.000000 1.000000 0.000000 -1.000000 -0.000001 -0.000001 3713.dat
0 STEP
1 1 50.000720 -105.157400 -500.861500 -1.000000 0.000001 0.000001 0.000000 1.000000 0.000000 0.000000 -0.000001 -1.000000 6558.dat
1 1 30.000440 -105.157200 -520.861300 1.000000 0.000001 -0.000001 0.000000 1.000000 0.000000 0.000000 -0.000001 1.000000 6558.dat
0 STEP
1 1 70.000760 -105.157300 -460.861400 -0.000002 -1.000000 0.000000 -1.000000 0.000001 -0.000001 0.000002 0.000001 -1.000000 64290.dat
1 0 60.000720 -105.157400 -480.861600 1.000000 0.000001 -0.000001 0.000000 1.000000 0.000000 0.000000 -0.000001 1.000000 2780.dat
1 0 60.000760 -105.157300 -560.861500 1.000000 0.000001 -0.000001 0.000000 1.000000 0.000000 0.000000 -0.000001 1.000000 2780.dat
0 STEP
1 1 90.000600 -114.657300 -540.861500 -0.000001 0.000001 -1.000000 0.000000 1.000000 0.000000 1.000000 -0.000001 0.000000 3894.dat
1 0 80.000430 -105.157300 -520.861500 1.000000 0.000001 -0.000001 0.000000 1.000000 0.000000 0.000000 -0.000001 1.000000 2780.dat
1 0 80.000450 -105.157300 -540.861500 1.000000 0.000001 -0.000001 0.000000 1.000000 0.000000 0.000000 -0.000001 1.000000 2780.dat
0 STEP
1 1 10.000910 -105.157200 -460.861400 -0.000002 -1.000000 0.000000 -1.000000 0.000001 -0.000001 0.000002 0.000001 -1.000000 64290.dat
1 0 20.000560 -105.157300 -480.861400 1.000000 0.000001 -0.000001 0.000000 1.000000 0.000000 0.000000 -0.000001 1.000000 2780.dat
1 0 20.000620 -105.157200 -560.861500 1.000000 0.000001 -0.000001 0.000000 1.000000 0.000000 0.000000 -0.000001 1.000000 2780.dat
0 STEP
1 0 0.000880 -105.157300 -500.861500 1.000000 0.000001 -0.000001 0.000000 1.000000 0.000000 0.000000 -0.000001 1.000000 2780.dat
1 1 -9.999400 -114.657200 -540.861300 -0.000001 0.000001 -1.000000 0.000000 1.000000 0.000000 1.000000 -0.000001 0.000000 3894.dat
1 0 0.000910 -105.157200 -540.861500 1.000000 0.000001 -0.000001 0.000000 1.000000 0.000000 0.000000 -0.000001 1.000000 2780.dat
0 STEP
1 1 70.000300 -105.157400 -300.861500 -1.000000 0.000001 0.000001 0.000000 1.000000 0.000000 0.000000 -0.000001 -1.000000 6558.dat
1 1 70.000320 -105.157400 -320.861600 -1.000000 0.000001 0.000001 0.000000 1.000000 0.000000 0.000000 -0.000001 -1.000000 6558.dat
1 1 70.000620 -105.157100 -340.861400 0.000000 1.000000 -0.000002 -1.000000 0.000001 0.000001 0.000002 0.000001 1.000000 32526.dat
0 STEP
1 1 90.000470 -114.657400 -340.861500 -0.000001 0.000001 -1.000000 0.000000 1.000000 0.000000 1.000000 -0.000001 0.000000 3894.dat
1 0 80.000340 -105.157400 -360.861500 1.000000 0.000001 -0.000001 0.000000 1.000000 0.000000 0.000000 -0.000001 1.000000 2780.dat
1 0 80.000360 -105.157400 -380.861600 1.000000 0.000001 -0.000001 0.000000 1.000000 0.000000 0.000000 -0.000001 1.000000 2780.dat
0 STEP
1 1 10.000610 -105.157100 -300.861500 1.000000 -0.000001 0.000001 0.000000 -1.000000 0.000000 0.000000 0.000001 -1.000000 6558.dat
1 1 10.000620 -105.157100 -320.861600 1.000000 -0.000001 0.000001 0.000000 -1.000000 0.000000 0.000000 0.000001 -1.000000 6558.dat
0 STEP
1 0 40.000580 -105.157100 -260.861600 -1.000000 -0.000001 -0.000001 0.000000 -1.000000 0.000000 0.000000 0.000001 1.000000 3706.dat
1 71 90.000270 -104.657100 -260.861500 0.000000 0.000001 1.000000 0.000000 1.000000 0.000000 -1.000000 -0.000001 -0.000001 3713.dat
0 STEP
1 1 50.000820 -213.645400 -172.372200 -0.000001 -1.000000 -0.000002 0.632066 0.000000 -0.774915 0.774915 -0.000001 0.632067 64871.dat
1 0 39.999900 -167.150500 -210.296000 -1.000000 0.000000 0.000001 0.000000 0.632066 0.774915 0.000000 0.774915 -0.632067 2780.dat
1 15 29.999900 -136.153800 -235.578800 0.000001 1.000000 0.000000 -0.632065 0.000001 -0.774915 -0.774915 0.000000 0.632066 32316.dat
0 STEP
1 71 -9.999720 -104.657100 -260.861500 0.000000 0.000001 1.000000 0.000000 1.000000 0.000000 -1.000000 -0.000001 -0.000001 3713.dat
1 1 10.000780 -105.157100 -340.861400 0.000000 1.000000 -0.000002 -1.000000 0.000001 0.000001 0.000002 0.000001 1.000000 32526.dat
0 STEP
1 1 -9.999539 -114.657100 -340.861500 -0.000001 0.000001 -1.000000 0.000000 1.000000 0.000000 1.000000 -0.000001 0.000000 3894.dat
1 0 0.000790 -105.157100 -360.861500 1.000000 0.000001 -0.000001 0.000000 1.000000 0.000000 0.000000 -0.000001 1.000000 2780.dat
1 0 0.000800 -105.157300 -380.861600 1.000000 0.000001 -0.000001 0.000000 1.000000 0.000000 0.000000 -0.000001 1.000000 2780.dat
0 STEP
1 15 -9.999519 -185.157100 -260.861500 0.000000 1.000000 0.000002 -0.000001 -0.000001 1.000000 1.000000 -0.000001 0.000000 32524.dat
1 0 0.000700 -145.157100 -260.861300 1.000000 0.000001 0.000001 0.000000 0.000000 1.000000 0.000000 -1.000000 -0.000001 2780.dat
1 0 0.000710 -125.157200 -260.861500 1.000000 0.000001 0.000001 0.000000 0.000000 1.000000 0.000000 -1.000000 -0.000001 2780.dat
0 STEP
1 72 -29.999560 -205.157100 -260.861600 0.000000 -0.000001 -1.000000 -0.422618 -0.906308 0.000001 -0.906308 0.422619 0.000000 3647.dat
1 19 -19.999550 -205.157100 -260.861600 -1.000000 -0.000001 0.000002 0.000001 0.422619 0.906307 -0.000001 0.906308 -0.422620 3749.dat
1 19 -19.999480 -165.157100 -260.861600 -1.000000 -0.000002 0.000002 0.000001 0.000001 1.000000 -0.000001 1.000000 -0.000002 3749.dat
1 71 -27.999480 -165.157100 -260.861600 0.000002 0.000001 -1.000000 1.000000 0.000000 0.000001 -0.000001 -1.000000 0.000000 3650c.dat
0 STEP
1 15 -19.999740 -144.670800 -300.861300 1.000000 0.000001 -0.000001 0.000000 1.000000 0.000000 0.000000 -0.000001 1.000000 32062.dat
1 71 -19.999570 -144.657400 -300.861500 0.000001 0.000001 1.000000 0.000000 1.000000 0.000000 -1.000000 -0.000001 0.000000 58120.dat
1 0 -29.999750 -144.670800 -300.861300 0.000001 -0.000001 -1.000000 0.000000 -1.000000 0.000000 -1.000000 0.000001 0.000000 32270.dat
0 STEP
1 0 -9.999760 -245.157000 -260.861500 1.000000 -0.000001 0.000001 0.000000 -1.000000 0.000000 0.000000 0.000001 -1.000000 4519.dat
1 71 7.500170 -245.157000 -260.861500 0.000001 0.000001 1.000000 0.000000 1.000000 0.000000 -1.000000 -0.000001 0.000000 3649.dat
1 72 -29.999760 -245.157000 -260.861400 0.000001 -0.000001 -1.000000 0.000000 -1.000000 0.000000 -1.000000 0.000001 0.000000 3648b.dat
0 STEP
1 15 30.000560 -277.757800 -236.063400 0.000001 1.000000 0.000002 0.933956 -0.000001 0.357389 0.357388 0.000000 -0.933957 32524.dat
1 71 20.000330 -256.314300 -292.100800 1.000000 0.000001 -0.000001 0.000000 1.000000 0.000000 0.000000 -0.000001 1.000000 3673.dat
0 STEP
1 0 30.000000 -260.140300 -134.448100 1.000000 0.000000 -0.000001 0.000000 0.632065 -0.774915 0.000000 0.774915 0.632066 32073.dat
1 71 70.000000 -259.824400 -134.060500 0.000000 0.000000 1.000000 0.774915 0.632066 0.000000 -0.632067 0.774915 0.000000 3713.dat
1 71 50.000220 -298.142100 -180.315000 0.000000 0.000000 -1.000000 -0.362858 0.931845 0.000000 0.931846 0.362856 0.000001 3713.dat
1 0 20.310230 -298.142100 -180.315000 -1.000000 0.000001 0.000000 0.000000 0.931844 0.362858 0.000001 0.362857 -0.931845 3705.dat
0 STEP
1 15 10.000050 -260.412200 -134.225000 0.000000 1.000000 0.000001 -0.771197 0.000000 0.636597 0.636598 -0.000001 0.771197 32524.dat
1 1 30.000160 -260.140300 -134.448100 0.000000 -1.000000 0.000001 0.774916 0.000000 0.632065 -0.632066 0.000001 0.774916 32140.dat
0 STEP
1 71 -9.999920 -259.824400 -134.060500 0.000000 0.000000 1.000000 0.774915 0.632066 0.000000 -0.632067 0.774915 0.000000 3713.dat
1 71 -9.689779 -298.142100 -180.314900 0.000000 0.000001 -1.000000 -0.362857 0.931844 0.000000 0.931845 0.362856 0.000001 3713.dat
0 STEP
1 15 50.000160 -253.213000 -62.670490 0.000001 1.000000 0.000000 -0.632065 0.000001 -0.774916 -0.774916 0.000000 0.632066 32316.dat
1 19 29.999920 -222.216500 -87.953150 -1.000000 0.000000 0.000001 0.000000 0.632065 0.774915 0.000000 0.774915 -0.632066 32556.dat
0 STEP
1 0 40.000000 -322.133500 -83.882700 -1.000000 0.000001 0.000000 0.000000 0.774915 -0.632065 0.000000 -0.632066 -0.774915 3705.dat
1 1 30.000080 -322.133500 -83.882770 0.000000 -1.000000 0.000001 0.774916 0.000000 0.632064 -0.632065 0.000001 0.774916 32140.dat
1 1 70.007480 -322.133400 -83.883000 0.000000 -1.000000 0.000001 0.774916 0.000000 0.632065 -0.632065 0.000001 0.774916 32271.dat
0 STEP
1 0 40.007280 -206.318800 7.478830 -1.000000 0.000001 0.000001 0.000000 0.998722 -0.050544 0.000000 -0.050545 -0.998722 3705.dat
1 0 40.007240 -246.285700 9.106840 -1.000000 0.000001 0.000001 0.000000 0.998722 -0.050544 0.000000 -0.050545 -0.998722 3705.dat
1 0 60.007940 -226.302300 8.292940 1.000000 0.000000 -0.000001 0.000000 0.931252 -0.364375 0.000000 0.364374 0.931253 2780.dat
0 STEP
1 1 49.999760 -246.260500 9.606480 0.000001 -1.000000 0.000001 -0.050545 0.000000 0.998722 -0.998722 0.000000 -0.050546 6629.dat
1 0 39.999880 -186.362500 6.074500 1.000000 0.000000 -0.000001 0.000000 0.931252 -0.364375 0.000000 0.364374 0.931253 2780.dat
1 0 40.000690 -146.413600 4.052670 1.000000 0.000000 -0.000001 0.000000 0.931252 -0.364375 0.000000 0.364374 0.931253 2780.dat
0 STEP
1 1 30.000080 -246.260500 9.606480 0.000001 -1.000000 0.000001 -0.050544 0.000000 0.998722 -0.998722 0.000000 -0.050545 6629.dat
1 0 20.000160 -226.311200 8.096340 1.000000 0.000000 -0.000001 0.000000 0.931252 -0.364375 0.000000 0.364374 0.931253 2780.dat
0 STEP
1 1 10.000000 -322.133500 -83.882770 0.000000 -1.000000 0.000001 0.774916 0.000000 0.632064 -0.632065 0.000001 0.774916 32271.dat
0 STEP
1 71 -10.000000 -283.893600 -37.000000 0.000000 0.000000 1.000000 0.774915 0.632066 0.000000 -0.632066 0.774915 0.000000 3713.dat
1 0 39.999920 -284.209700 -37.387750 -1.000000 0.000000 -0.000001 0.000000 -0.632065 -0.774915 0.000000 -0.774915 0.632066 3706.dat
1 71 89.999980 -283.893600 -37.000360 0.000000 0.000000 1.000000 0.774915 0.632066 0.000000 -0.632066 0.774915 0.000000 3713.dat
0 STEP
1 16 29.621860 -114.657300 -490.630600 1.000000 0.000000 0.000000 0.000000 1.000000 0.000000 0.000000 0.000000 1.000000 submodel group 1
0 STEP
1 71 -70.129090 -65.157550 -520.861600 0.000000 -0.000001 1.000000 -0.000001 -1.000000 0.000000 1.000000 0.000000 0.000000 57519.dat
1 71 -73.999220 -65.157360 -320.861500 0.000000 -0.000001 1.000000 0.000000 -1.000000 0.000000 1.000000 0.000001 0.000000 57519.dat
0 STEP
1 0 -72.176840 -16.395080 -518.864200 1.000008 -0.000001 0.000000 0.000000 -1.000000 0.000001 -0.000001 0.000000 -1.000008 88323.dat
1 0 -73.294080 -16.759330 -416.859300 1.000021 -0.000001 0.000000 0.000000 -1.000000 0.000001 -0.000001 0.000000 -1.000021 88323.dat
1 0 -72.570190 -16.730370 -383.857900 1.000017 -0.000001 0.000000 0.000000 -1.000000 0.000000 -0.000001 0.000001 -1.000017 88323.dat
1 0 -73.438410 -16.366220 -450.862800 0.999999 -0.000001 0.000000 0.000000 -1.000000 0.000000 -0.000001 0.000001 -0.999999 88323.dat
1 0 -72.570240 -16.730370 -350.857600 1.000017 -0.000001 0.000000 0.000000 -1.000000 0.000000 -0.000001 0.000001 -1.000017 88323.dat
1 0 -73.570230 -14.829250 -319.215200 1.000017 -0.000001 0.000000 0.000000 -0.984807 0.173651 -0.000001 -0.173647 -0.984825 88323.dat
1 0 -75.438400 -20.869770 -292.273400 1.000000 -0.000001 0.000001 0.000000 -0.766045 0.642787 0.000000 -0.642786 -0.766047 88323.dat
1 0 -74.438420 -41.292620 -272.673600 1.000000 0.000000 0.000001 0.000000 -0.258820 0.965925 0.000000 -0.965926 -0.258821 88323.dat
1 0 -75.278300 -72.032600 -266.475800 1.000000 0.000001 0.000001 0.000000 0.422615 0.906309 0.000000 -0.906310 0.422615 88323.dat
1 0 -73.278300 -100.209400 -278.212600 1.000000 0.000001 0.000000 -0.000001 0.868629 0.495462 0.000000 -0.495464 0.868630 88323.dat
1 0 -73.278320 -115.355200 -303.124500 1.000000 0.000001 0.000000 -0.000001 0.999194 0.040139 0.000000 -0.040139 0.999195 88323.dat
1 0 -74.278320 -116.183400 -339.860000 1.000000 0.000001 0.000000 -0.000001 0.999194 0.040139 0.000000 -0.040139 0.999195 88323.dat
1 0 -74.278320 -116.183400 -374.859900 1.000000 0.000001 0.000000 -0.000001 0.999194 0.040139 0.000000 -0.040139 0.999195 88323.dat
1 0 -74.278260 -116.183400 -440.861800 1.000000 0.000001 0.000000 -0.000001 0.999194 0.040139 0.000000 -0.040139 0.999195 88323.dat
1 0 -75.130040 -116.183400 -471.863200 1.000011 0.000001 0.000000 -0.000001 0.999194 0.040138 0.000000 -0.040139 0.999205 88323.dat
1 0 -73.130040 -116.183500 -503.863200 1.000011 0.000001 0.000000 -0.000001 0.999204 0.040138 0.000000 -0.040140 0.999205 88323.dat
1 0 -73.130030 -116.253300 -532.419100 1.000011 0.000001 -0.000001 -0.000001 0.841514 -0.540229 0.000000 0.540237 0.841528 88323.dat
1 0 -71.130030 -101.726500 -559.348700 1.000011 0.000000 -0.000001 -0.000001 0.458657 -0.888612 0.000000 0.888624 0.458665 88323.dat
1 0 -71.130000 -75.444160 -574.225200 1.000011 0.000000 -0.000001 -0.000001 -0.133975 -0.990984 0.000000 0.990996 -0.133976 88323.dat
1 0 -72.130000 -44.948930 -567.934400 1.000011 -0.000001 -0.000001 -0.000001 -0.540227 -0.841515 0.000000 0.841530 -0.540235 88323.dat
1 0 -71.129980 -19.525660 -550.864100 1.000011 -0.000001 0.000000 0.000000 -1.000000 0.000001 -0.000001 0.000000 -1.000011 88323.dat
1 0 -74.999870 -117.377800 -408.861300 1.000000 0.000001 0.000000 -0.000001 0.999194 0.040138 0.000000 -0.040139 0.999194 88323.dat
1 0 -72.999750 -17.056760 -486.861300 1.000000 -0.000001 0.000000 0.000000 -1.000000 0.000000 -0.000001 0.000001 -1.000000 88323.dat
0 STEP
1 71 156.140900 -65.157520 -520.861700 0.000000 -0.000001 0.999998 -0.000001 -0.999997 0.000000 0.999998 0.000000 0.000000 57519.dat
1 71 152.270600 -65.157360 -320.862700 0.000000 -0.000001 1.000000 0.000000 -0.999997 0.000000 1.000000 0.000000 0.000000 57519.dat
0 STEP
1 0 153.093000 -16.395220 -518.865200 1.000008 -0.000001 0.000000 0.000000 -0.999997 0.000001 -0.000001 0.000000 -1.000007 88323.dat
1 0 150.975700 -16.759460 -419.860400 1.000021 -0.000001 0.000000 0.000000 -0.999997 0.000001 -0.000001 0.000000 -1.000021 88323.dat
1 0 151.699600 -16.730500 -385.859000 1.000017 -0.000001 0.000000 0.000000 -0.999997 0.000000 -0.000001 0.000000 -1.000017 88323.dat
1 0 150.831400 -16.366340 -452.864000 0.999999 -0.000001 0.000000 0.000000 -0.999997 0.000000 -0.000001 0.000000 -0.999999 88323.dat
1 0 151.699600 -16.730500 -350.858800 1.000017 -0.000001 0.000000 0.000000 -0.999997 0.000000 -0.000001 0.000000 -1.000017 88323.dat
1 0 150.699600 -14.829380 -319.216400 1.000017 -0.000001 0.000000 0.000000 -0.984805 0.173650 -0.000001 -0.173647 -0.984825 88323.dat
1 0 150.831400 -20.869890 -292.274600 1.000000 -0.000001 0.000001 0.000000 -0.766042 0.642784 0.000000 -0.642786 -0.766047 88323.dat
1 0 151.831400 -41.292680 -272.674900 1.000000 0.000000 0.000001 0.000000 -0.258820 0.965922 0.000000 -0.965926 -0.258821 88323.dat
1 0 150.991500 -72.032600 -266.477100 1.000000 0.000001 0.000001 0.000000 0.422614 0.906306 0.000000 -0.906310 0.422615 88323.dat
1 0 152.991500 -100.209300 -278.213900 1.000000 0.000001 0.000000 -0.000001 0.868627 0.495461 0.000000 -0.495463 0.868630 88323.dat
1 0 152.991500 -115.355000 -303.125700 1.000000 0.000001 0.000000 -0.000001 0.999191 0.040138 0.000000 -0.040139 0.999194 88323.dat
1 0 151.991500 -116.183300 -339.861100 1.000000 0.000001 0.000000 -0.000001 0.999191 0.040138 0.000000 -0.040139 0.999194 88323.dat
1 0 151.991500 -116.183300 -374.861100 1.000000 0.000001 0.000000 -0.000001 0.999191 0.040138 0.000000 -0.040139 0.999194 88323.dat
1 0 151.991400 -116.183300 -440.862200 1.000000 0.000001 0.000000 -0.000001 0.999194 0.040138 0.000000 -0.040139 0.999194 88323.dat
1 0 151.139700 -116.183200 -471.864400 1.000011 0.000001 0.000000 -0.000001 0.999191 0.040138 0.000000 -0.040139 0.999205 88323.dat
1 0 151.139800 -116.183300 -503.864300 1.000011 0.000001 0.000000 -0.000001 0.999201 0.040138 0.000000 -0.040139 0.999205 88323.dat
1 0 151.139800 -116.253100 -532.420500 1.000011 0.000001 -0.000001 -0.000001 0.841511 -0.540226 0.000000 0.540237 0.841528 88323.dat
1 0 152.139700 -101.726300 -559.350100 1.000011 0.000000 -0.000001 -0.000001 0.458656 -0.888609 0.000000 0.888624 0.458665 88323.dat
1 0 152.139800 -75.444130 -574.226500 1.000011 0.000000 -0.000001 -0.000001 -0.133975 -0.990981 0.000000 0.990996 -0.133976 88323.dat
1 0 152.139800 -44.948980 -567.935800 1.000011 -0.000001 -0.000001 -0.000001 -0.540224 -0.841512 0.000000 0.841530 -0.540235 88323.dat
1 0 152.139800 -19.525780 -550.865500 1.000011 -0.000001 0.000000 0.000000 -0.999997 0.000001 -0.000001 0.000000 -1.000011 88323.dat
1 0 151.269900 -117.377600 -408.862300 1.000000 0.000001 0.000000 -0.000001 0.999191 0.040138 0.000000 -0.040139 0.999194 88323.dat
1 0 151.270100 -17.056880 -485.862500 1.000000 -0.000001 0.000000 0.000000 -0.999997 0.000000 -0.000001 0.000000 -1.000000 88323.dat
0 STEP
0 STEP
0 NOFILE
0 FILE SubModel Group 1
0 SubModel Group 1
0 Name:  SubModel Group 1
0 Author:  
0 CustomBrick
0 NumOfBricks:  15
1 1 10.378590 -24.000010 139.769100 -1.000000 0.000001 0.000001 0.000000 1.000000 0.000000 0.000000 -0.000001 -1.000000 3666.dat
1 1 10.378600 -16.000010 129.769100 1.000000 0.000001 -0.000001 0.000000 1.000000 0.000000 0.000000 -0.000001 1.000000 32001.dat
1 1 10.378610 -8.000050 129.769100 1.000000 0.000001 -0.000001 0.000000 1.000000 0.000000 0.000000 -0.000001 1.000000 32001.dat
0 STEP
1 1 10.378400 -47.999820 139.769300 1.000000 0.000001 -0.000001 0.000000 1.000000 0.000000 0.000000 -0.000001 1.000000 3894.dat
1 0 -29.621680 -38.499690 129.769300 0.000001 0.000001 1.000000 0.000000 1.000000 0.000000 -1.000000 -0.000001 0.000000 2780.dat
1 0 50.378560 -38.499800 129.769300 0.000001 0.000001 1.000000 0.000000 1.000000 0.000000 -1.000000 -0.000001 0.000000 2780.dat
0 STEP
1 0 -29.621540 -38.499900 -90.230620 0.000001 0.000001 1.000000 0.000000 1.000000 0.000000 -1.000000 -0.000001 0.000000 2780.dat
1 0 50.378580 -37.999920 -90.230560 0.000001 0.000001 1.000000 0.000000 1.000000 0.000000 -1.000000 -0.000001 0.000000 2780.dat
1 16 -59.542900 -68.208560 -42.231050 -0.000001 -1.000003 -0.000001 0.000000 0.000000 -1.000000 1.000003 0.000000 0.000001 submodel group 9 copy copy copy
0 STEP
1 1 10.378550 -47.999980 -100.230700 1.000000 0.000001 -0.000001 0.000000 1.000000 0.000000 0.000000 -0.000001 1.000000 3894.dat
1 1 10.378750 -23.999960 -100.230900 -1.000000 0.000001 0.000001 0.000000 1.000000 0.000000 0.000000 -0.000001 -1.000000 3666.dat
0 STEP
1 1 10.378750 -8.000000 -90.230870 1.000000 0.000001 -0.000001 0.000000 1.000000 0.000000 0.000000 -0.000001 1.000000 32001.dat
1 1 10.378750 -15.999960 -90.230870 1.000000 0.000001 -0.000001 0.000000 1.000000 0.000000 0.000000 -0.000001 1.000000 32001.dat
0 STEP
0 NOFILE
0 FILE SubModel Group 9 Copy Copy Copy
0 SubModel Group 9 Copy Copy Copy
0 Name:  SubModel Group 9 Copy Copy Copy
0 Author:  
0 CustomBrick
0 NumOfBricks:  3
1 72 10.000000 -1.128810 -10.000000 1.000000 0.000000 0.000000 0.000000 0.000000 -1.000000 0.000000 1.000000 0.000000 dch003.dat
1 71 -27.466620 -79.717990 29.427020 1.000000 0.000000 0.000000 0.000000 0.000000 -1.000000 0.000000 1.000000 0.000000 dch004.dat
1 25 7.837010 13.484720 -9.965000 1.000000 0.000000 0.000000 0.000000 0.000000 -1.000000 0.000000 1.000000 0.000000 dch005.dat
0 NOFILE
