0 FILE 电动石磨.io
0 Untitled Model
0 Name:  电动石磨
0 Author:  
0 CustomBrick
0 NumOfBricks:  61
1 1 0.000000 -24.000000 -10.000000 1.000000 0.000000 0.000000 0.000000 1.000000 0.000000 0.000000 0.000000 1.000000 3702.dat
1 1 0.000000 -24.000000 -110.000100 1.000000 0.000000 0.000000 0.000000 1.000000 0.000000 0.000000 0.000000 1.000000 3702.dat
1 1 60.000000 -32.000000 -60.000120 0.000000 0.000000 1.000000 0.000000 1.000000 0.000000 -1.000000 0.000000 0.000000 32001.dat
0 STEP
1 15 69.999910 -24.000000 -90.000110 0.000000 0.000000 -1.000000 0.000000 1.000000 0.000000 1.000000 0.000000 0.000000 3040b.dat
1 15 69.999910 -24.000000 -70.000110 0.000000 0.000000 -1.000000 0.000000 1.000000 0.000000 1.000000 0.000000 0.000000 3040b.dat
1 15 70.001590 -24.000000 -50.001660 0.000000 0.000000 -1.000000 0.000000 1.000000 0.000000 1.000000 0.000000 0.000000 3040b.dat
1 15 69.999910 -24.000000 -30.000240 0.000000 0.000000 -1.000000 0.000000 1.000000 0.000000 1.000000 0.000000 0.000000 3040b.dat
0 STEP
1 1 -60.000000 -32.000000 -60.000120 0.000000 0.000000 -1.000000 0.000000 1.000000 0.000000 1.000000 0.000000 0.000000 32001.dat
1 1 -20.000010 -32.000000 -60.000120 0.000000 0.000000 1.000000 0.000000 1.000000 0.000000 -1.000000 0.000000 0.000000 32001.dat
0 STEP
1 0 -80.000000 -46.000000 -100.000100 -1.000000 0.000000 0.000000 0.000000 1.000000 0.000000 0.000000 0.000000 -1.000000 2780.dat
1 0 -80.000000 -46.000000 -20.000120 -1.000000 0.000000 0.000000 0.000000 1.000000 0.000000 0.000000 0.000000 -1.000000 2780.dat
1 1 -70.000000 -56.000000 -60.000120 0.000000 0.000000 1.000000 0.000000 1.000000 0.000000 -1.000000 0.000000 0.000000 3894.dat
0 STEP
1 1 20.000000 -40.000000 -60.000120 -1.000000 0.000000 0.000000 0.000000 1.000000 0.000000 0.000000 0.000000 -1.000000 3709b.dat
1 0 20.000000 -71.620010 -60.000120 0.000000 0.000000 1.000000 1.000000 0.000000 0.000000 0.000000 1.000000 0.000000 3705.dat
1 71 20.000000 -49.880000 -60.000240 1.000000 0.000000 0.000001 -0.000001 0.000000 1.000000 0.000000 -1.000000 0.000000 3713.dat
0 STEP
1 0 20.000000 -70.180000 -60.000120 1.000000 0.000000 0.000000 0.000000 0.000000 1.000000 0.000000 -1.000000 0.000000 44309.dat
1 71 20.000000 -70.180000 -60.000120 0.000000 -1.000000 0.000000 0.000000 0.000000 1.000000 -1.000000 0.000000 0.000000 56145.dat
1 0 20.000000 -190.200000 -60.000120 0.000000 -0.127064 0.991902 1.000000 0.000000 0.000000 0.000000 0.991901 0.127064 3707.dat
1 4 20.000000 -107.200000 -60.000120 0.000000 0.000000 1.000000 1.000000 0.000000 0.000000 0.000000 1.000000 0.000000 62462.dat
0 STEP
1 0 19.999700 -125.770100 -60.000370 0.991894 0.127063 0.000000 0.000000 0.000000 1.000000 0.127063 -0.991894 0.000000 44309.dat
1 71 20.000000 -125.770000 -60.000240 0.127065 -0.991909 0.000000 0.000000 0.000000 1.000000 -0.991909 -0.127065 0.000000 56145.dat
0 STEP
1 71 20.000000 -166.670000 -60.000240 -0.991895 0.127063 -0.000001 0.000001 0.000000 -1.000000 -0.127063 -0.991895 0.000000 3713.dat
1 14 20.000000 -151.100000 -60.000240 0.991895 -0.127063 0.000000 0.000000 0.000000 -1.000000 0.127063 0.991895 0.000000 32123a.dat
0 STEP
1 16 -32.244110 -6.000000 -60.017640 1.000000 0.000000 0.000000 0.000000 1.000000 0.000000 0.000000 0.000000 1.000000 submodel group 1
0 STEP
1 1 -30.000000 -252.000000 -60.000120 0.000000 0.000000 1.000000 0.000000 1.000000 0.000000 -1.000000 0.000000 0.000000 3894.dat
1 1 20.000000 -228.000000 -60.000120 0.000000 0.000000 1.000000 0.000000 1.000000 0.000000 -1.000000 0.000000 0.000000 32001.dat
1 1 -20.000010 -228.000000 -60.000000 0.000000 0.000000 1.000000 0.000000 1.000000 0.000000 -1.000000 0.000000 0.000000 32001.dat
0 STEP
1 71 20.000000 -247.490000 -60.000120 -0.991895 0.127063 0.000000 0.000000 0.000000 -1.000000 -0.127063 -0.991895 0.000000 3650c.dat
1 14 20.000000 -233.750000 -60.000240 0.991895 -0.127063 0.000000 0.000000 0.000000 -1.000000 0.127063 0.991895 0.000000 32123a.dat
0 STEP
1 1 -30.000000 -276.000000 -60.000120 0.000000 0.000000 1.000000 0.000000 1.000000 0.000000 -1.000000 0.000000 0.000000 3701.dat
1 71 -30.400000 -266.000000 -60.000120 -1.000000 0.000000 0.000000 0.000000 0.000000 1.000000 0.000000 1.000000 0.000000 4519.dat
1 0 -10.099920 -266.000000 -60.000120 0.000000 0.000000 -1.000000 -0.000003 -1.000000 0.000000 -1.000000 0.000003 0.000000 32270.dat
0 STEP
1 0 -40.000000 -266.000000 -40.000000 -1.000000 0.000000 0.000000 0.000000 1.000000 0.000000 0.000000 0.000000 -1.000000 2780.dat
1 0 -40.000000 -266.000000 -80.000110 -1.000000 0.000000 0.000000 0.000000 1.000000 0.000000 0.000000 0.000000 -1.000000 2780.dat
0 STEP
1 71 -40.000000 -266.000000 -60.000000 0.000000 0.000000 -1.000000 0.000000 1.000000 0.000000 1.000000 0.000000 0.000000 58120.dat
1 16 -263.000000 0.000000 -108.000100 0.000000 0.000000 -1.000000 0.000000 1.000000 0.000000 1.000000 0.000000 0.000000 submodel group 9 copy copy copy
0 STEP
0 STEP
0 NOFILE
0 FILE SubModel Group 1
0 SubModel Group 1
0 Name:  SubModel Group 1
0 Author:  
0 CustomBrick
0 NumOfBricks:  24
1 1 -37.751700 -190.000000 0.000780 0.000000 0.000000 1.000033 0.000000 1.000000 0.000000 -1.000033 0.000000 0.000000 3894.dat
1 0 -27.747390 -180.000000 -20.014480 -1.000062 0.000000 0.000000 0.000000 1.000000 0.000000 0.000000 0.000000 -1.000062 2780.dat
0 STEP
1 1 -17.747270 -190.000000 -0.014480 0.000000 0.000000 1.000062 0.000000 1.000000 0.000000 -1.000062 0.000000 0.000000 3894.dat
1 0 -27.747390 -180.000000 19.985710 -1.000062 0.000000 0.000000 0.000000 1.000000 0.000000 0.000000 0.000000 -1.000062 2780.dat
0 STEP
1 1 32.252500 -214.000000 -49.999220 1.000033 0.000000 0.000000 0.000000 1.000000 0.000000 0.000000 0.000000 1.000033 3702.dat
1 1 32.244110 -190.000100 -39.982500 -1.000000 0.000000 0.000000 0.000000 1.000000 0.000000 0.000000 0.000000 -1.000000 3709b.dat
0 STEP
1 1 32.244200 -190.000100 0.016590 -1.000000 0.000000 0.000000 0.000000 1.000000 0.000000 0.000000 0.000000 -1.000000 3709b.dat
1 1 52.244020 -182.000000 0.017380 -1.000000 0.000000 0.000000 0.000000 1.000000 0.000000 0.000000 0.000000 -1.000000 3709b.dat
1 1 92.244110 -190.000100 0.017510 0.000000 0.000000 1.000000 0.000000 1.000000 0.000000 -1.000000 0.000000 0.000000 32001.dat
0 STEP
1 1 32.244020 -190.000100 40.017510 -1.000000 0.000000 0.000000 0.000000 1.000000 0.000000 0.000000 0.000000 -1.000000 3709b.dat
1 1 32.252410 -214.000000 50.000780 -1.000033 0.000000 0.000000 0.000000 1.000000 0.000000 0.000000 0.000000 -1.000033 3702.dat
0 STEP
1 19 92.254520 -204.000000 -59.998790 0.000001 -1.000000 0.000001 0.000001 0.000001 1.000000 -1.000000 -0.000001 0.000001 3749.dat
1 71 92.254520 -204.000000 -69.998790 1.000000 0.000000 0.000001 0.000000 -1.000000 0.000000 0.000001 0.000000 -1.000000 94925.dat
1 71 92.254310 -204.000000 70.000480 1.000000 0.000000 0.000001 0.000000 -1.000000 0.000000 0.000001 0.000000 -1.000000 94925.dat
1 19 92.254310 -204.000000 60.000480 -0.000001 1.000000 -0.000001 0.000001 0.000001 1.000000 1.000000 0.000001 -0.000001 3749.dat
0 STEP
1 0 -47.747700 -180.000000 39.985710 -1.000062 0.000000 0.000000 0.000000 1.000000 0.000000 0.000000 0.000000 -1.000062 2780.dat
1 0 -47.747590 -180.000000 -40.014480 -1.000062 0.000000 0.000000 0.000000 1.000000 0.000000 0.000000 0.000000 -1.000062 2780.dat
0 STEP
1 1 -37.751800 -158.000000 0.002190 0.000000 0.000000 -1.000029 0.000000 1.000000 0.000000 1.000029 0.000000 0.000000 3666.dat
1 1 -37.747590 -166.000000 -0.014420 0.000000 0.000000 -1.000062 0.000000 1.000000 0.000000 1.000062 0.000000 0.000000 3666.dat
0 STEP
1 1 -37.747590 -150.000000 -0.014480 0.000000 0.000000 1.000062 0.000000 1.000000 0.000000 -1.000062 0.000000 0.000000 3894.dat
1 0 -47.747590 -140.000000 -40.014480 -1.000062 0.000000 0.000000 0.000000 1.000000 0.000000 0.000000 0.000000 -1.000062 2780.dat
1 0 -47.747700 -140.000000 39.985710 -1.000062 0.000000 0.000000 0.000000 1.000000 0.000000 0.000000 0.000000 -1.000062 2780.dat
0 STEP
1 1 -57.755780 -120.000000 -49.982500 0.000000 0.000000 1.000000 1.000000 0.000000 0.000000 0.000000 1.000000 0.000000 3895.dat
1 1 -57.755890 -120.000000 50.017500 0.000000 0.000000 -1.000000 1.000000 0.000000 0.000000 0.000000 -1.000000 0.000000 3895.dat
0 STEP
0 NOFILE
0 FILE SubModel Group 9 Copy Copy Copy
0 SubModel Group 9 Copy Copy Copy
0 Name:  SubModel Group 9 Copy Copy Copy
0 Author:  
0 CustomBrick
0 NumOfBricks:  3
1 72 10.000000 -1.128810 -10.000000 1.000000 0.000000 0.000000 0.000000 0.000000 -1.000000 0.000000 1.000000 0.000000 dch003.dat
1 71 -27.466620 -79.717990 29.427020 1.000000 0.000000 0.000000 0.000000 0.000000 -1.000000 0.000000 1.000000 0.000000 dch004.dat
1 25 7.837010 13.484720 -9.965000 1.000000 0.000000 0.000000 0.000000 0.000000 -1.000000 0.000000 1.000000 0.000000 dch005.dat
0 NOFILE
