0 Untitled Model
0 Name:  万向轮结构8
0 Author:  
0 CustomBrick
0 NumOfBricks:  14
1 71 -158.000000 -30.000000 -138.000000 1.000000 0.000000 0.000000 0.000000 -1.000000 0.000000 0.000000 0.000000 -1.000000 4185.dat
1 71 -158.000000 -30.000010 -129.190000 1.000000 0.000000 0.000000 0.000000 -1.000000 0.000000 0.000000 0.000000 -1.000000 4185.dat
1 4 -158.000000 -30.000010 -132.020000 0.000000 0.000000 -1.000000 0.000000 1.000000 0.000000 1.000000 0.000000 0.000000 32062.dat
0 STEP
1 72 -158.000000 -70.000010 -118.920000 1.000000 0.000000 0.000000 0.000000 0.000000 1.000000 0.000000 -1.000000 0.000000 99773.dat
0 STEP
1 71 -138.000000 -70.000020 -132.260000 0.000000 0.000000 1.000000 0.000000 1.000000 0.000000 -1.000000 0.000000 0.000000 32073.dat
1 71 -178.000000 -70.000020 -128.730000 0.000000 0.000000 1.000000 0.000000 1.000000 0.000000 -1.000000 0.000000 0.000000 32073.dat
1 14 -138.000000 -70.000020 -107.250000 1.000000 0.000000 0.000000 0.000000 -1.000000 0.000000 0.000000 0.000000 -1.000000 32123a.dat
1 14 -178.000000 -70.000020 -107.690000 1.000000 0.000000 0.000000 0.000000 -1.000000 0.000000 0.000000 0.000000 -1.000000 32123a.dat
0 STEP
1 1 -158.000000 -70.000010 -132.720000 0.000000 1.000000 0.000000 0.000000 0.000000 1.000000 1.000000 0.000000 0.000000 32184.dat
1 71 -158.000000 -80.000000 -132.720000 0.000000 0.000000 -1.000000 1.000000 0.000000 0.000000 0.000000 -1.000000 0.000000 3673.dat
0 STEP
1 72 -158.000000 -70.000010 -149.960000 1.000000 0.000000 0.000000 0.000000 0.000000 1.000000 0.000000 -1.000000 0.000000 99773.dat
0 STEP
1 14 -178.000000 -70.000020 -160.400000 1.000000 0.000000 0.000000 0.000000 -1.000000 0.000000 0.000000 0.000000 -1.000000 32123a.dat
1 14 -138.000000 -70.000020 -160.180000 1.000000 0.000000 0.000000 0.000000 -1.000000 0.000000 0.000000 0.000000 -1.000000 32123a.dat
0 STEP
1 4 -158.000000 -90.000000 -132.720000 0.000000 0.000000 1.000000 -1.000000 0.000000 0.000000 0.000000 -1.000000 0.000000 32034.dat
0 STEP
0 STEP
