0 Untitled Model
0 Name:  滑轮传动方向
0 Author:  
0 CustomBrick
0 NumOfBricks:  57
1 1 -59.999500 -32.000000 49.999920 1.000003 0.000000 0.000000 0.000000 1.000000 0.000000 0.000000 0.000000 1.000003 3703.dat
1 1 -59.999500 -56.000000 49.999920 1.000003 0.000000 0.000000 0.000000 1.000000 0.000000 0.000000 0.000000 1.000003 3703.dat
0 STEP
1 1 -200.000000 -8.000000 100.000000 0.000000 0.000000 1.000003 0.000000 1.000000 0.000000 -1.000003 0.000000 0.000000 3738.dat
1 1 -180.000000 -16.000000 29.999760 1.000003 0.000000 0.000000 0.000000 1.000000 0.000000 0.000000 0.000000 1.000003 3023.dat
1 1 80.001000 -8.000000 100.000200 0.000001 0.000000 1.000003 0.000000 1.000000 0.000000 -1.000003 0.000000 0.000001 3738.dat
1 1 60.000980 -16.000000 29.999920 1.000003 0.000000 0.000000 0.000000 1.000000 0.000000 0.000000 0.000000 1.000003 3023.dat
1 1 -59.999440 -16.000000 29.999900 1.000003 0.000000 0.000000 0.000000 1.000000 0.000000 0.000000 0.000000 1.000003 3023.dat
1 1 0.000770 -8.000000 29.999910 1.000003 0.000000 0.000000 0.000000 1.000000 0.000000 0.000000 0.000000 1.000003 3666.dat
1 1 -119.999700 -8.000000 29.999770 1.000003 0.000000 0.000000 0.000000 1.000000 0.000000 0.000000 0.000000 1.000003 3666.dat
0 STEP
1 1 -59.999440 -80.000000 170.000200 1.000000 0.000000 0.000000 0.000000 1.000000 0.000000 0.000000 0.000000 1.000000 3703.dat
1 1 -59.999530 -56.000000 170.000400 1.000003 0.000000 0.000000 0.000000 1.000000 0.000000 0.000000 0.000000 1.000003 3703.dat
1 1 -59.999530 -32.000000 170.000400 1.000003 0.000000 0.000000 0.000000 1.000000 0.000000 0.000000 0.000000 1.000003 3703.dat
0 STEP
1 0 -200.000000 -70.000000 160.000400 0.000000 0.000000 -1.000003 0.000000 1.000000 0.000000 1.000003 0.000000 0.000000 2780.dat
1 0 80.000960 -70.000000 160.000400 0.000000 0.000000 -1.000003 0.000000 1.000000 0.000000 1.000003 0.000000 0.000000 2780.dat
0 STEP
1 71 -159.999800 -70.000000 110.000100 0.000000 0.000000 1.000003 0.000000 1.000000 0.000000 -1.000003 0.000000 0.000000 64179.dat
1 71 40.000820 -70.000000 110.000200 0.000000 0.000000 1.000003 0.000000 1.000000 0.000000 -1.000003 0.000000 0.000000 64179.dat
0 STEP
1 1 40.000700 -150.000000 89.999370 1.000005 -0.000001 -0.000001 0.000001 0.000001 1.000000 -0.000001 -1.000005 0.000001 32526.dat
1 0 80.001360 -70.000000 80.000300 0.000000 0.000000 -1.000003 0.000000 1.000000 0.000000 1.000003 0.000000 0.000000 2780.dat
1 0 40.000650 -70.000000 79.999320 0.000000 0.000000 -1.000005 0.000000 1.000000 0.000000 1.000005 0.000000 0.000000 2780.dat
0 STEP
1 1 -159.999800 -150.000000 90.000190 -1.000004 0.000001 0.000001 0.000001 0.000001 1.000000 0.000001 1.000004 -0.000001 32526.dat
1 0 -159.999800 -70.000000 80.000010 0.000000 0.000000 -1.000003 0.000000 1.000000 0.000000 1.000003 0.000000 0.000000 2780.dat
1 0 -200.000000 -70.000000 80.000070 0.000000 0.000000 -1.000003 0.000000 1.000000 0.000000 1.000003 0.000000 0.000000 2780.dat
0 STEP
1 0 -119.999700 -70.000000 59.999940 0.000000 0.000000 -1.000003 0.000000 1.000000 0.000000 1.000003 0.000000 0.000000 2780.dat
1 0 0.000700 -70.000000 59.999960 0.000000 0.000000 -1.000003 0.000000 1.000000 0.000000 1.000003 0.000000 0.000000 2780.dat
1 1 -59.999500 -80.000000 49.999920 1.000003 0.000000 0.000000 0.000000 1.000000 0.000000 0.000000 0.000000 1.000003 3703.dat
0 STEP
1 0 -159.999800 -150.000000 80.000130 0.000000 0.000000 -1.000003 0.000000 1.000000 0.000000 1.000003 0.000000 0.000000 2780.dat
1 0 40.000960 -150.000100 79.999740 0.000000 -1.000003 0.000000 0.000000 0.000000 -1.000000 1.000003 0.000000 0.000000 2780.dat
1 15 -59.999380 -150.000200 69.999880 0.000001 0.000001 -1.000003 -1.000000 0.000001 -0.000001 0.000001 1.000003 0.000001 64871.dat
0 STEP
1 71 -99.999610 -150.000200 90.169890 1.000003 0.000000 0.000001 0.000000 1.000000 0.000000 -0.000001 0.000000 1.000003 3713.dat
1 71 -99.999590 -150.000200 43.709740 1.000003 0.000000 0.000000 0.000000 -1.000000 0.000000 0.000000 0.000000 -1.000003 4185.dat
1 14 -99.999590 -150.000200 53.289780 1.000003 0.000000 0.000000 0.000000 1.000000 0.000000 0.000000 0.000000 1.000003 32123a.dat
1 71 -99.999610 -150.000200 77.849860 0.000000 0.000000 1.000003 0.000000 1.000000 0.000000 -1.000003 0.000000 0.000000 32073.dat
0 STEP
1 71 -199.999900 -150.000400 89.220100 1.000003 0.000000 0.000001 0.000000 1.000000 0.000000 -0.000001 0.000000 1.000003 3713.dat
1 71 -199.999900 -150.000400 44.809960 1.000003 0.000000 0.000000 0.000000 -1.000000 0.000000 0.000000 0.000000 -1.000003 4185.dat
1 14 -200.000000 -150.000400 55.739960 0.000000 1.000003 0.000000 1.000000 0.000000 0.000000 0.000000 0.000000 -1.000004 32123a.dat
1 71 -199.999900 -150.000400 49.179940 0.000000 0.000000 1.000003 0.000000 1.000000 0.000000 -1.000003 0.000000 0.000000 32073.dat
0 STEP
1 14 -99.999580 -150.000200 32.849710 1.000003 0.000000 0.000000 0.000000 1.000000 0.000000 0.000000 0.000000 1.000003 32123a.dat
0 STEP
1 4 -220.000000 -150.000400 26.049840 0.000000 0.000001 -1.000003 0.000000 -1.000000 -0.000001 -1.000004 0.000000 0.000000 32039.dat
1 4 -230.000100 -150.000400 26.049840 -1.000003 0.000000 0.000000 0.000000 1.000000 0.000000 0.000000 0.000000 -1.000003 32062.dat
0 STEP
1 71 -19.999250 -150.000200 90.029880 1.000003 0.000000 0.000001 0.000000 1.000000 0.000000 -0.000001 0.000000 1.000003 3713.dat
1 71 -19.999240 -150.000200 57.809760 0.000000 0.000000 1.000003 0.000000 1.000000 0.000000 -1.000003 0.000000 0.000000 32073.dat
0 STEP
1 4 -39.999360 -150.000200 27.849560 0.000001 0.000001 -1.000003 0.000000 -1.000000 -0.000001 -1.000003 0.000000 -0.000001 32039.dat
1 71 -19.999240 -150.000200 44.809740 1.000003 0.000000 0.000000 0.000000 -1.000000 0.000000 0.000000 0.000000 -1.000003 4185.dat
1 4 -49.999400 -150.000200 27.849560 -1.000003 0.000000 0.000000 0.000000 1.000000 0.000000 0.000000 0.000000 -1.000003 32062.dat
1 14 -19.999240 -150.000200 10.829650 1.000003 0.000000 0.000000 0.000000 1.000000 0.000000 0.000000 0.000000 1.000003 32123a.dat
1 14 -19.999240 -150.000200 54.639770 1.000003 0.000000 0.000000 0.000000 1.000000 0.000000 0.000000 0.000000 1.000003 32123a.dat
0 STEP
1 0 80.001060 -150.000100 78.699810 0.000000 0.000000 1.000004 0.000000 1.000000 0.000000 -1.000004 0.000000 0.000000 3705.dat
1 71 80.001060 -150.000100 90.689880 1.000003 0.000000 0.000001 0.000000 1.000000 0.000000 -0.000001 0.000000 1.000003 3713.dat
1 71 80.001100 -150.000100 44.699700 0.000000 1.000003 0.000000 -1.000000 0.000000 0.000000 0.000000 0.000000 1.000003 4185.dat
1 14 80.001060 -150.000100 54.849750 1.000003 0.000000 0.000000 0.000000 1.000000 0.000000 0.000000 0.000000 1.000003 32123a.dat
0 STEP
1 19 -99.999610 -190.000200 121.650000 0.000001 -1.000003 0.000001 0.000001 0.000001 1.000000 -1.000003 -0.000001 0.000001 3749.dat
1 1 -99.999610 -170.000200 111.649900 0.000000 0.000000 -1.000003 0.000000 1.000000 0.000000 1.000003 0.000000 0.000000 32184.dat
0 STEP
1 19 80.001010 -190.000100 121.700000 0.000001 -1.000003 0.000001 0.000001 0.000001 1.000000 -1.000003 -0.000001 0.000001 3749.dat
1 1 80.001010 -170.000100 111.699900 0.000000 0.000000 1.000003 0.000000 1.000000 0.000000 -1.000003 0.000000 0.000000 32184.dat
0 STEP
1 4 -99.999660 -190.000300 141.650000 0.000000 0.000000 1.000003 0.000000 1.000000 0.000000 -1.000003 0.000000 0.000000 62462.dat
1 4 80.001010 -190.000100 141.700000 0.000000 0.000000 1.000003 0.000000 1.000000 0.000000 -1.000003 0.000000 0.000000 62462.dat
0 STEP
1 15 -60.000000 -116.998000 51.000000 1.000000 0.000000 0.000000 0.000000 1.000000 0.000000 0.000000 0.000000 1.000000 xpj0117.dat.dat
0 STEP
0 STEP
