0 Untitled Model
0 Name:  双面锥齿轮传动_Copy
0 Author:  
0 CustomBrick
0 NumOfBricks:  32
1 0 31.089120 -40.000060 5.891030 0.000000 1.000000 0.000000 1.000003 0.000000 0.000000 0.000000 0.000000 -1.000003 2780.dat
1 0 71.089030 -40.000060 5.891030 0.000000 1.000000 0.000000 1.000003 0.000000 0.000000 0.000000 0.000000 -1.000003 2780.dat
1 0 -48.911200 -40.000060 -74.109580 0.000000 -1.000000 0.000000 -1.000003 0.000000 0.000000 0.000000 0.000000 -1.000003 2780.dat
1 0 -8.910930 -40.000060 -74.109580 0.000000 -1.000000 0.000000 -1.000003 0.000000 0.000000 0.000000 0.000000 -1.000003 2780.dat
1 71 11.089450 -30.000020 -34.108190 0.000000 0.000000 0.999998 0.000000 1.000003 0.000000 -1.000000 0.000000 0.000000 64179.dat
1 14 17.089130 -98.654220 -3.108970 1.000000 0.000000 0.000000 0.000000 0.000000 1.000003 0.000000 -1.000003 0.000000 12344.dat
1 14 -37.911170 -56.361100 -83.109560 0.000000 0.000000 1.000000 -1.000003 0.000000 0.000000 0.000000 -1.000003 0.000000 12344.dat
0 STEP
1 71 11.089140 -30.000020 -74.259600 0.000000 -1.000000 0.000000 0.000000 0.000000 1.000003 -1.000003 0.000000 0.000000 4519.dat
1 19 11.089140 -30.000020 -53.959560 -1.000000 0.000000 0.000000 0.000000 -1.000003 0.000000 0.000000 0.000000 1.000003 32269.dat
1 4 11.089140 -30.000020 -94.259620 -0.999998 0.000000 0.000000 0.000000 -1.000003 -0.000001 0.000000 -0.000001 1.000000 32039.dat
0 STEP
1 19 11.000000 -58.017480 -34.000000 1.000000 0.000000 0.000001 -0.000001 0.000000 1.000000 0.000000 -1.000000 0.000000 6589.dat
1 71 11.089230 -90.000190 -73.109580 0.000000 0.944948 0.327220 0.000000 0.327221 -0.944951 -1.000003 0.000000 0.000000 4519.dat
1 71 12.000000 -71.267600 -33.999980 0.000000 1.000000 0.000000 -0.000001 0.000000 1.000003 1.000003 0.000000 0.000001 3713.dat
1 4 10.999970 -90.757640 -33.999980 0.000000 -1.000000 0.000000 1.000003 0.000000 0.000000 0.000000 0.000000 1.000003 32034.dat
1 71 12.089140 -89.000220 0.891030 0.000000 -1.000000 0.000000 0.000000 0.000000 1.000003 -1.000003 0.000000 0.000000 4519.dat
1 71 11.000000 -103.167700 -33.999980 0.000000 -1.000000 0.000000 -1.000003 0.000000 0.000000 0.000000 0.000000 -1.000003 32073.dat
0 STEP
1 14 57.079020 -30.000020 -34.109170 0.000000 0.000000 -1.000000 -1.000003 0.000000 0.000000 0.000000 1.000003 0.000000 32123a.dat
1 0 78.448970 -30.000020 -34.109110 -1.000000 0.000000 0.000000 0.000000 1.000003 0.000000 0.000000 0.000000 -1.000003 3705.dat
1 0 40.629050 -30.000020 -34.109110 0.000000 0.000000 1.000000 -1.000003 0.000000 0.000000 0.000000 -1.000003 0.000000 32270.dat
0 STEP
1 0 -49.281200 -30.000020 -34.109110 -1.000000 0.000000 0.000000 0.000000 1.000003 0.000000 0.000000 0.000000 -1.000003 3705.dat
1 14 -34.171130 -30.000020 -34.109170 0.000000 0.000000 1.000000 0.000000 1.000003 0.000000 -1.000003 0.000000 0.000000 32123a.dat
1 0 -19.281020 -30.000020 -34.109050 0.000000 0.000000 -1.000000 0.000000 -1.000003 0.000000 -1.000003 0.000000 0.000000 32270.dat
0 STEP
1 71 47.089120 -30.000000 -114.259800 0.000000 0.000000 0.999998 1.000003 0.000000 0.000000 0.000000 1.000000 0.000000 4185.dat
1 71 -23.350720 -30.000000 -114.259800 0.000000 0.000000 -0.999998 0.000000 -1.000003 0.000000 -1.000000 0.000000 0.000000 4185.dat
1 14 56.439140 -30.000000 -114.259800 0.000000 0.000000 -0.999998 -1.000003 0.000000 0.000000 0.000000 1.000000 0.000000 32123a.dat
1 14 -33.910690 -30.000000 -114.259900 0.000000 0.000000 0.999998 0.000000 1.000003 0.000000 -1.000000 0.000000 0.000000 32123a.dat
1 71 11.089170 -30.000000 -114.259800 -0.999998 0.000000 0.000000 0.000000 1.000003 0.000000 0.000000 0.000000 -1.000000 32073.dat
0 STEP
1 0 71.089340 -40.000060 -74.108230 0.000000 0.999998 0.000000 1.000003 0.000000 0.000000 0.000000 0.000000 -1.000000 2780.dat
1 0 -48.910420 -40.000060 5.891820 0.000000 -0.999998 0.000000 -1.000003 0.000000 0.000000 0.000000 0.000000 -1.000000 2780.dat
1 4 -48.910420 -50.000080 5.891820 0.000000 0.000000 -0.999998 1.000003 0.000000 0.000000 0.000000 -1.000000 0.000000 32034.dat
1 4 71.089340 -50.000080 -74.108230 0.000000 -0.999998 0.000000 1.000003 0.000000 0.000000 0.000000 0.000000 1.000000 32034.dat
0 STEP
1 1 11.000000 -143.167800 -33.999980 0.999998 -0.000001 -0.000001 0.000001 1.000003 -0.000001 0.000001 0.000001 1.000000 32140.dat
0 STEP
0 STEP
