0 Untitled Model
0 Name:  自动避障车
0 Author:  
0 CustomBrick
0 NumOfBricks:  88
1 0 -79.750580 -214.000000 40.000490 0.000000 0.000000 -1.000004 0.000000 1.000000 0.000000 1.000004 0.000000 0.000000 2780.dat
1 0 -99.750640 -214.000000 40.000490 0.000000 0.000000 -1.000004 0.000000 1.000000 0.000000 1.000004 0.000000 0.000000 2780.dat
1 0 -119.750800 -224.000000 170.000900 0.000000 1.000004 0.000000 1.000000 0.000000 0.000000 0.000000 0.000000 -1.000004 2780.dat
1 0 -119.750600 -224.000000 -89.999950 0.000000 1.000004 0.000000 1.000000 0.000000 0.000000 0.000000 0.000000 -1.000004 2780.dat
1 0 -39.750520 -224.000000 170.000900 0.000000 1.000004 0.000000 1.000000 0.000000 0.000000 0.000000 0.000000 -1.000004 2780.dat
1 0 -39.750430 -224.000000 -89.999950 0.000000 1.000004 0.000000 1.000000 0.000000 0.000000 0.000000 0.000000 -1.000004 2780.dat
1 0 -59.750480 -214.000000 40.000490 0.000000 0.000000 -1.000004 0.000000 1.000000 0.000000 1.000004 0.000000 0.000000 2780.dat
1 0 -119.750700 -224.000000 50.000510 0.000000 1.000004 0.000000 1.000000 0.000000 0.000000 0.000000 0.000000 -1.000004 2780.dat
1 0 -39.750510 -224.000000 50.000510 0.000000 1.000004 0.000000 1.000000 0.000000 0.000000 0.000000 0.000000 -1.000004 2780.dat
1 15 -119.750500 -234.000100 30.000500 -1.000004 0.000001 -0.000001 0.000001 1.000000 0.000001 0.000001 0.000001 -1.000004 64871.dat
1 15 -39.750510 -234.000000 30.000440 1.000004 -0.000001 0.000001 -0.000001 -1.000000 -0.000001 0.000001 0.000001 -1.000004 64871.dat
1 71 -79.750560 -214.000000 -29.999740 -1.000004 0.000000 0.000000 0.000000 1.000000 0.000000 0.000000 0.000000 -1.000004 64179.dat
1 71 -79.750590 -214.000000 110.000700 -1.000004 0.000000 0.000000 0.000000 1.000000 0.000000 0.000000 0.000000 -1.000004 64179.dat
0 STEP
1 0 -129.750700 -214.000000 150.000800 -1.000004 0.000000 0.000000 0.000000 1.000000 0.000000 0.000000 0.000000 -1.000004 2780.dat
1 0 -129.750700 -214.000000 70.000550 -1.000004 0.000000 0.000000 0.000000 1.000000 0.000000 0.000000 0.000000 -1.000004 2780.dat
1 0 -29.750400 -214.000000 70.000580 -1.000004 0.000000 0.000000 0.000000 1.000000 0.000000 0.000000 0.000000 -1.000004 2780.dat
1 0 -29.750420 -214.000000 150.000800 -1.000004 0.000000 0.000000 0.000000 1.000000 0.000000 0.000000 0.000000 -1.000004 2780.dat
1 15 -19.750220 -214.000100 170.000800 0.000001 1.000004 0.000001 -1.000000 0.000001 -0.000001 -0.000001 -0.000001 1.000004 64290.dat
1 15 -139.750600 -214.000100 170.000800 0.000001 1.000004 0.000001 -1.000000 0.000001 -0.000001 -0.000001 -0.000001 1.000004 64290.dat
0 STEP
1 0 -39.750360 -224.000200 -110.000100 0.000000 0.000000 -1.000004 1.000000 0.000000 0.000000 0.000000 -1.000004 0.000000 2780.dat
1 0 -119.750700 -224.000000 -110.000000 0.000000 0.000000 1.000004 -1.000000 0.000000 0.000000 0.000000 -1.000004 0.000000 2780.dat
1 15 -79.750620 -214.000000 -110.000000 0.000001 0.000001 -1.000004 0.000001 1.000000 0.000001 1.000004 -0.000001 0.000001 32316.dat
0 STEP
1 19 -129.750700 -214.000000 -29.999760 -1.000004 -0.000001 0.000001 0.000001 0.000001 1.000000 -0.000001 1.000004 -0.000001 3749.dat
1 0 -129.750700 -214.000000 -69.999880 -1.000004 0.000000 0.000000 0.000000 1.000000 0.000000 0.000000 0.000000 -1.000004 2780.dat
1 0 -29.750380 -214.000000 -69.999870 -1.000004 0.000000 0.000000 0.000000 1.000000 0.000000 0.000000 0.000000 -1.000004 2780.dat
1 19 -29.750380 -214.000000 -29.999800 1.000004 0.000001 -0.000001 0.000001 0.000001 1.000000 0.000001 -1.000004 0.000001 3749.dat
0 STEP
1 15 -79.750640 -254.000000 10.000360 0.000001 0.000001 -1.000004 0.000001 1.000000 0.000001 1.000004 -0.000001 0.000001 32316.dat
1 15 -119.750400 -254.000200 90.000740 -1.000004 0.000001 -0.000001 0.000001 1.000000 0.000001 0.000001 0.000001 -1.000004 32524.dat
1 0 -39.750510 -244.000100 30.000440 0.000000 0.000000 -1.000004 -1.000000 0.000000 0.000000 0.000000 1.000004 0.000000 2780.dat
1 0 -39.750490 -244.000100 10.000360 0.000000 0.000000 -1.000004 1.000000 0.000000 0.000000 0.000000 -1.000004 0.000000 2780.dat
1 0 -119.750500 -244.000100 10.000400 0.000000 0.000000 -1.000004 1.000000 0.000000 0.000000 0.000000 -1.000004 0.000000 2780.dat
1 0 -119.750400 -244.000200 150.000900 0.000000 0.000000 -1.000004 -1.000000 0.000000 0.000000 0.000000 1.000004 0.000000 2780.dat
1 0 -119.750500 -244.000100 30.000500 0.000000 0.000000 -1.000004 -1.000000 0.000000 0.000000 0.000000 1.000004 0.000000 2780.dat
1 0 -39.750570 -243.999900 150.000800 0.000000 0.000000 -1.000004 -1.000000 0.000000 0.000000 0.000000 1.000004 0.000000 2780.dat
1 15 -39.750450 -253.999800 90.000710 -1.000004 0.000001 -0.000001 -0.000001 -1.000000 -0.000001 -0.000001 -0.000001 1.000004 32524.dat
0 STEP
1 0 -99.750770 -264.000000 10.000360 0.000000 0.000000 -1.000004 1.000000 0.000000 0.000000 0.000000 -1.000004 0.000000 2780.dat
1 0 -59.750540 -264.000000 10.000360 0.000000 1.000004 0.000000 1.000000 0.000000 0.000000 0.000000 0.000000 -1.000004 2780.dat
1 15 -59.750540 -274.000000 10.000420 -1.000004 0.000001 -0.000001 -0.000001 -1.000000 -0.000001 -0.000001 -0.000001 1.000004 64290.dat
1 15 -99.750770 -274.000000 10.000360 -1.000004 0.000001 -0.000001 -0.000001 -1.000000 -0.000001 -0.000001 -0.000001 1.000004 64290.dat
0 STEP
1 19 -59.750620 -284.000200 110.000700 -0.000001 1.000004 -0.000001 -1.000000 -0.000001 0.000001 0.000001 0.000001 1.000004 3749.dat
1 19 -99.750900 -284.000100 110.000600 -0.000001 1.000004 -0.000001 -1.000000 -0.000001 0.000001 0.000001 0.000001 1.000004 3749.dat
1 0 -59.750400 -283.999900 -89.999950 0.000000 0.000000 -1.000004 1.000000 0.000000 0.000000 0.000000 -1.000004 0.000000 2780.dat
1 0 -99.750690 -283.999900 -89.999950 0.000000 0.000000 -1.000004 1.000000 0.000000 0.000000 0.000000 -1.000004 0.000000 2780.dat
1 4 -59.750400 -303.999900 -89.999950 0.000000 -1.000004 0.000000 1.000000 0.000000 0.000000 0.000000 0.000000 1.000004 62462.dat
1 4 -99.750690 -293.999900 -89.999950 0.000000 -1.000004 0.000000 1.000000 0.000000 0.000000 0.000000 0.000000 1.000004 32034.dat
0 STEP
1 4 -99.750900 -294.000200 110.000600 -1.000004 0.000000 0.000000 0.000000 -0.000001 1.000000 0.000000 1.000004 0.000001 32039.dat
1 4 -59.750620 -294.000200 110.000600 -1.000004 0.000000 0.000000 0.000000 -0.000001 1.000000 0.000000 1.000004 0.000001 32039.dat
0 STEP
1 0 -78.680690 -314.000200 110.000600 -1.000004 0.000000 0.000000 0.000000 1.000000 0.000000 0.000000 0.000000 -1.000004 3705.dat
1 4 -79.190700 -314.000200 110.000600 -1.000004 0.000000 0.000000 0.000000 -1.000000 0.000000 0.000000 0.000000 1.000004 32034.dat
0 STEP
1 4 -79.190700 -314.000200 150.000800 0.000000 0.000000 -1.000004 0.000000 -1.000000 0.000000 -1.000004 0.000000 0.000000 32034.dat
1 4 -79.190750 -314.000200 70.000460 0.000000 0.000000 -1.000004 0.000000 -1.000000 0.000000 -1.000004 0.000000 0.000000 32034.dat
1 19 -79.190690 -314.000200 80.000550 -0.000001 1.000004 -0.000001 0.000001 0.000001 1.000000 1.000004 0.000001 -0.000001 3749.dat
1 19 -79.190700 -314.000200 140.000800 0.000001 -1.000004 0.000001 0.000001 0.000001 1.000000 -1.000004 -0.000001 0.000001 3749.dat
0 STEP
1 19 -9.750250 -214.000100 170.000700 1.000004 0.000001 -0.000001 0.000001 0.000001 1.000000 0.000001 -1.000004 0.000001 3749.dat
1 1 -159.750700 -224.000000 90.000560 0.000000 0.000000 1.000004 0.000000 1.000000 0.000000 -1.000004 0.000000 0.000000 3700.dat
1 1 0.249730 -224.000000 90.000590 0.000000 0.000000 1.000004 0.000000 1.000000 0.000000 -1.000004 0.000000 0.000000 3700.dat
1 0 -9.750239 -214.000000 90.000650 -1.000004 0.000000 0.000000 0.000000 1.000000 0.000000 0.000000 0.000000 -1.000004 2780.dat
1 0 -149.750700 -214.000000 90.000620 -1.000004 0.000000 0.000000 0.000000 1.000000 0.000000 0.000000 0.000000 -1.000004 2780.dat
1 15 -159.750600 -224.000100 170.000700 0.000000 0.000000 1.000004 0.000000 1.000000 0.000000 -1.000004 0.000000 0.000000 32064a.dat
1 15 0.489700 -224.000100 170.000700 0.000000 0.000000 1.000004 0.000000 1.000000 0.000000 -1.000004 0.000000 0.000000 32064a.dat
1 19 -149.750600 -214.000100 170.000800 -1.000004 -0.000001 0.000001 0.000001 0.000001 1.000000 -0.000001 1.000004 -0.000001 3749.dat
0 STEP
1 15 -159.750700 -248.000000 60.000420 -1.000004 0.000000 0.000000 0.000000 1.000000 0.000000 0.000000 0.000000 -1.000004 3040b.dat
1 15 0.249670 -256.000000 90.000590 0.000000 0.000000 1.000004 0.000000 1.000000 0.000000 -1.000004 0.000000 0.000000 2431.dat
1 15 -159.750700 -256.000000 90.000510 0.000000 0.000000 1.000004 0.000000 1.000000 0.000000 -1.000004 0.000000 0.000000 2431.dat
1 15 0.249730 -248.000000 60.000420 -1.000004 0.000000 0.000000 0.000000 1.000000 0.000000 0.000000 0.000000 -1.000004 3040b.dat
1 15 0.249730 -248.000000 120.000600 1.000004 0.000000 0.000000 0.000000 1.000000 0.000000 0.000000 0.000000 1.000004 3040b.dat
1 15 -159.750700 -248.000000 120.000600 1.000004 0.000000 0.000000 0.000000 1.000000 0.000000 0.000000 0.000000 1.000004 3040b.dat
0 STEP
1 19 -9.750199 -214.000200 230.001000 1.000004 0.000001 -0.000001 0.000001 0.000001 1.000000 0.000001 -1.000004 0.000001 3749.dat
1 0 -9.750080 -214.000200 270.001100 -1.000004 0.000000 0.000000 0.000000 1.000000 0.000000 0.000000 0.000000 -1.000004 2780.dat
1 0 -149.750500 -214.000200 270.001100 -1.000004 0.000000 0.000000 0.000000 1.000000 0.000000 0.000000 0.000000 -1.000004 2780.dat
1 19 -149.750600 -214.000200 230.001000 -1.000004 -0.000001 0.000001 0.000001 0.000001 1.000000 -0.000001 1.000004 -0.000001 3749.dat
0 STEP
1 1 1.539800 -214.000200 310.001400 0.000000 1.000004 0.000000 0.000000 0.000000 -1.000000 -1.000004 0.000000 0.000000 32009.dat
1 1 -159.750500 -214.000200 310.001500 0.000000 1.000004 0.000000 0.000000 0.000000 -1.000000 -1.000004 0.000000 0.000000 32009.dat
1 1 -139.750600 -214.000000 -110.000000 0.000000 -1.000004 0.000000 0.000000 0.000000 -1.000000 1.000004 0.000000 0.000000 32009.dat
1 1 -19.750310 -214.000000 -110.000000 0.000000 -1.000004 0.000000 0.000000 0.000000 -1.000000 1.000004 0.000000 0.000000 32009.dat
0 STEP
1 71 16.309880 -54.000160 310.001400 0.000000 0.000000 -1.000004 -1.000000 0.000000 0.000000 0.000000 1.000004 0.000000 4185.dat
1 71 -173.390800 -54.000230 310.001500 0.000000 0.000000 1.000004 0.000000 1.000000 0.000000 -1.000004 0.000000 0.000000 4185.dat
1 4 11.539850 -54.000160 310.001400 -1.000004 0.000000 0.000000 0.000000 1.000000 0.000000 0.000000 0.000000 -1.000004 32062.dat
1 14 27.139870 -54.000160 310.001400 0.000000 0.000000 -1.000004 -1.000000 0.000000 0.000000 0.000000 1.000004 0.000000 32123a.dat
1 14 -185.960800 -54.000220 310.001500 0.000000 0.000000 1.000004 -1.000000 0.000000 0.000000 0.000000 -1.000004 0.000000 32123a.dat
1 4 -169.750600 -54.000220 310.001500 -1.000004 0.000000 0.000000 0.000000 1.000000 0.000000 0.000000 0.000000 -1.000004 32062.dat
0 STEP
1 0 21.000000 -54.000020 -110.000000 0.000000 0.000000 1.000000 0.000000 -1.000000 0.000000 1.000000 0.000000 0.000000 44309.dat
1 71 20.999940 -54.000000 -110.000000 0.000000 0.000000 1.000004 -1.000000 0.000000 0.000000 0.000000 -1.000004 0.000000 56145.dat
1 0 -178.940800 -54.000000 -110.000000 0.000000 0.000000 -1.000004 0.000000 -1.000000 0.000000 -1.000004 0.000000 0.000000 44309.dat
1 71 -178.940800 -54.000000 -110.000000 0.000000 0.000000 -1.000004 -1.000000 0.000000 0.000000 0.000000 1.000004 0.000000 56145.dat
1 0 -81.280460 -54.000000 -110.000000 -1.000004 0.000000 0.000000 0.000000 1.000000 0.000000 0.000000 0.000000 -1.000004 3737.dat
1 71 -40.200240 -54.000000 -110.000000 0.000001 0.000000 -1.000004 0.000000 1.000000 0.000000 1.000004 0.000000 0.000001 3713.dat
1 71 -120.610600 -54.000000 -110.000000 0.000001 0.000000 -1.000004 0.000000 1.000000 0.000000 1.000004 0.000000 0.000001 3713.dat
0 STEP
0 STEP
