0 FILE 赛车.io
0 Untitled Model
0 Name:  赛车
0 Author:  
0 CustomBrick
0 NumOfBricks:  184
1 1 112.000000 -74.047450 -118.909400 0.999999 0.000000 0.000000 0.000000 1.000000 0.000000 0.000000 0.000000 0.999999 3703.dat
1 1 251.999900 -50.047460 -118.909400 1.000000 0.000000 0.000000 0.000000 1.000000 0.000000 0.000000 0.000000 1.000000 3710.dat
1 1 191.999900 -82.047450 -118.909400 1.000000 0.000000 0.000000 0.000000 1.000000 0.000000 0.000000 0.000000 1.000000 3710.dat
0 STEP
1 1 351.999900 -74.047450 -118.909400 1.000000 0.000000 0.000000 0.000000 1.000000 0.000000 0.000000 0.000000 1.000000 3702.dat
1 0 251.999800 -64.047450 -128.909400 0.000000 0.000000 -1.000000 0.000000 1.000000 0.000000 1.000000 0.000000 0.000000 2780.dat
1 0 52.000100 -64.047440 -128.909400 0.000000 0.000000 -1.000000 0.000000 1.000000 0.000000 1.000000 0.000000 0.000000 2780.dat
0 STEP
1 16 178.421900 -33.959240 -68.909280 1.000000 0.000000 0.000000 0.000000 1.000000 0.000000 0.000000 0.000000 1.000000 submodel group 2
0 STEP
1 1 351.999900 -74.047450 -18.909480 1.000000 0.000000 0.000000 0.000000 1.000000 0.000000 0.000000 0.000000 1.000000 3702.dat
1 1 251.999800 -50.047460 -18.908570 0.999999 0.000000 0.000000 0.000000 1.000000 0.000000 0.000000 0.000000 0.999999 3710.dat
0 STEP
1 1 112.000000 -74.047450 -18.909970 0.999999 0.000000 0.000000 0.000000 1.000000 0.000000 0.000000 0.000000 0.999999 3703.dat
1 1 191.999900 -82.047450 -18.909970 1.000000 0.000000 0.000000 0.000000 1.000000 0.000000 0.000000 0.000000 1.000000 3710.dat
0 STEP
1 0 371.999900 -64.047450 -73.449400 0.000000 -0.207908 0.978148 0.000000 0.978148 0.207908 -1.000000 0.000000 0.000000 3708.dat
1 14 372.000000 -64.047450 -103.989400 -0.207908 -0.978148 0.000000 0.978148 -0.207908 0.000000 0.000000 0.000000 1.000000 32123a.dat
1 14 372.000000 -64.047450 -33.959410 -0.207908 -0.978148 0.000000 0.978148 -0.207908 0.000000 0.000000 0.000000 1.000000 32123a.dat
1 71 371.999900 -64.047450 -90.349490 -0.978148 0.207908 -0.000001 -0.207908 -0.978148 0.000000 -0.000001 0.000000 1.000000 3650c.dat
0 STEP
1 14 371.999900 -64.047450 -134.279400 -0.207908 -0.978148 0.000000 0.978148 -0.207908 0.000000 0.000000 0.000000 1.000000 32123a.dat
1 14 371.999900 -64.047450 -4.299380 -0.207908 -0.978148 0.000000 0.978148 -0.207908 0.000000 0.000000 0.000000 1.000000 32123a.dat
0 STEP
1 1 271.999900 -82.047450 -68.909360 0.000000 0.000000 1.000000 0.000000 1.000000 0.000000 -1.000000 0.000000 0.000000 32001.dat
1 1 321.999900 -82.047450 -68.909360 0.000000 0.000000 -1.000000 0.000000 1.000000 0.000000 1.000000 0.000000 0.000000 3666.dat
0 STEP
1 1 112.000000 -82.047450 -68.909360 0.000000 0.000000 1.000000 0.000000 1.000000 0.000000 -1.000000 0.000000 0.000000 32001.dat
1 1 32.000100 -82.047440 -68.909360 0.000000 0.000000 1.000000 0.000000 1.000000 0.000000 -1.000000 0.000000 0.000000 32001.dat
0 STEP
1 16 170.230700 -82.047440 -68.910480 1.000000 0.000000 0.000000 0.000000 1.000000 0.000000 0.000000 0.000000 1.000000 submodel group 1
0 STEP
1 1 291.999700 -106.047500 -18.910100 1.000000 0.000000 0.000000 0.000000 1.000000 0.000000 0.000000 0.000000 1.000000 3894.dat
1 0 331.999700 -96.047450 -8.910100 0.000000 0.000000 -1.000000 0.000000 1.000000 0.000000 1.000000 0.000000 0.000000 2780.dat
1 0 311.999700 -96.047450 -8.910160 0.000000 0.000000 -1.000000 0.000000 1.000000 0.000000 1.000000 0.000000 0.000000 2780.dat
0 STEP
1 1 291.999900 -106.047500 -118.909400 1.000000 0.000000 0.000000 0.000000 1.000000 0.000000 0.000000 0.000000 1.000000 3894.dat
1 0 331.999900 -96.047450 -128.909400 0.000000 0.000000 -1.000000 0.000000 1.000000 0.000000 1.000000 0.000000 0.000000 2780.dat
1 0 311.999900 -96.047450 -128.909500 0.000000 0.000000 -1.000000 0.000000 1.000000 0.000000 1.000000 0.000000 0.000000 2780.dat
0 STEP
1 0 391.999900 -196.047500 -98.910160 0.000000 0.000000 -1.000000 0.000000 1.000000 0.000000 1.000000 0.000000 0.000000 2780.dat
1 0 391.999900 -196.047500 -38.910160 0.000000 1.000000 0.000000 0.000000 0.000000 -1.000000 -1.000000 0.000000 0.000000 2780.dat
1 0 391.999900 -156.047400 -38.910160 0.000000 1.000000 0.000000 0.000000 0.000000 -1.000000 -1.000000 0.000000 0.000000 2780.dat
1 0 391.999900 -156.047400 -98.910160 0.000000 0.000000 -1.000000 0.000000 1.000000 0.000000 1.000000 0.000000 0.000000 2780.dat
0 STEP
1 1 392.000000 -136.047400 -28.910100 1.000000 -0.000001 -0.000001 -0.000001 -0.000001 -1.000000 0.000001 1.000000 -0.000001 32271.dat
1 1 391.999900 -136.047400 -108.910200 1.000000 -0.000001 -0.000001 -0.000001 -0.000001 -1.000000 0.000001 1.000000 -0.000001 32271.dat
0 STEP
1 72 391.999900 -176.047400 -123.910400 0.000000 0.000000 1.000000 -1.000000 0.000000 0.000000 0.000000 -1.000000 0.000000 99773.dat
1 4 391.999900 -136.047500 -118.910200 0.000000 0.000000 -1.000000 0.000000 1.000000 0.000000 1.000000 0.000000 0.000000 32062.dat
1 19 391.999900 -216.047400 -118.910400 0.000001 -1.000000 0.000001 0.000001 0.000001 1.000000 -1.000000 -0.000001 0.000001 3749.dat
0 STEP
1 72 391.999900 -176.047400 -13.910280 0.000000 0.000000 1.000000 -1.000000 0.000000 0.000000 0.000000 -1.000000 0.000000 99773.dat
1 19 391.999900 -216.047400 -18.910160 -0.000001 1.000000 -0.000001 0.000001 0.000001 1.000000 1.000000 0.000001 -0.000001 3749.dat
1 4 391.999900 -136.047500 -18.910100 0.000000 0.000000 -1.000000 0.000000 1.000000 0.000000 1.000000 0.000000 0.000000 32062.dat
0 STEP
1 1 311.999900 -96.047530 -137.700100 0.000001 0.000001 1.000000 -1.000000 0.000001 0.000001 -0.000001 -1.000000 0.000001 32526.dat
1 1 311.999700 -96.047500 1.089840 0.000001 0.000001 1.000000 -1.000000 0.000001 0.000001 -0.000001 -1.000000 0.000001 32526.dat
0 STEP
1 0 251.999800 -64.047450 -8.909969 0.000000 0.000000 -1.000000 0.000000 1.000000 0.000000 1.000000 0.000000 0.000000 2780.dat
1 0 52.000100 -64.047440 -8.909969 0.000000 0.000000 -1.000000 0.000000 1.000000 0.000000 1.000000 0.000000 0.000000 2780.dat
0 STEP
1 1 211.999900 -130.047500 -18.909970 1.000000 0.000000 0.000000 0.000000 1.000000 0.000000 0.000000 0.000000 1.000000 3702.dat
1 1 72.000000 -130.047500 -18.909970 1.000000 0.000000 0.000000 0.000000 1.000000 0.000000 0.000000 0.000000 1.000000 3894.dat
0 STEP
1 1 111.999900 -196.047500 1.090030 1.000000 0.000000 0.000000 0.000000 0.000000 -1.000000 0.000000 1.000000 0.000000 32009.dat
1 0 111.999900 -96.047450 -8.909969 0.000000 0.000000 -1.000000 0.000000 1.000000 0.000000 1.000000 0.000000 0.000000 2780.dat
0 STEP
1 1 251.999900 -154.047500 -18.909970 1.000000 0.000000 0.000000 0.000000 1.000000 0.000000 0.000000 0.000000 1.000000 3700.dat
1 0 251.999900 -144.047500 -8.909969 0.000000 0.000000 -1.000000 0.000000 1.000000 0.000000 1.000000 0.000000 0.000000 2780.dat
1 1 72.000000 -154.047500 -18.909970 1.000000 0.000000 0.000000 0.000000 1.000000 0.000000 0.000000 0.000000 1.000000 3894.dat
1 0 52.000020 -144.047500 -8.909969 0.000000 0.000000 -1.000000 0.000000 1.000000 0.000000 1.000000 0.000000 0.000000 2780.dat
0 STEP
1 15 52.000020 -104.047400 1.090030 -1.000000 0.000001 -0.000001 0.000001 0.000001 -1.000000 -0.000001 -1.000000 -0.000001 32316.dat
1 15 252.000000 -104.047500 1.090030 -1.000000 0.000001 -0.000001 0.000001 0.000001 -1.000000 -0.000001 -1.000000 -0.000001 32316.dat
0 STEP
1 1 311.999800 -216.047300 1.179930 0.000001 0.000001 1.000000 1.000000 -0.000001 -0.000001 0.000001 1.000000 -0.000001 32526.dat
1 0 391.999900 -176.047400 -8.910280 0.000000 0.000000 -1.000000 0.000000 1.000000 0.000000 1.000000 0.000000 0.000000 2780.dat
0 STEP
1 0 371.999800 -216.047400 11.179810 0.000000 0.000000 -1.000000 0.000000 1.000000 0.000000 1.000000 0.000000 0.000000 2780.dat
1 0 171.999900 -196.047500 11.090030 0.000000 0.000000 -1.000000 0.000000 1.000000 0.000000 1.000000 0.000000 0.000000 2780.dat
1 15 271.522700 -205.805900 21.089840 -0.097584 0.000001 -0.995228 -0.995227 0.000001 0.097584 0.000001 1.000000 0.000001 64290.dat
0 STEP
1 0 423.999800 -280.047500 -76.230300 0.000000 0.593517 0.804822 0.000002 0.804821 -0.593517 -1.000000 0.000002 -0.000001 3708.dat
1 71 423.999800 -280.047500 -48.240300 0.804821 0.593517 0.000001 -0.593517 0.804821 0.000000 -0.000001 0.000000 1.000000 3713.dat
1 71 423.999800 -280.047400 -88.850280 -0.593517 -0.804821 -0.000001 -0.804821 0.593517 0.000000 0.000000 0.000001 -1.000000 3713.dat
0 STEP
1 14 423.999400 -280.048000 18.964720 -0.593517 0.804822 0.000000 -0.804818 -0.593520 0.000000 0.000000 -0.000001 1.000000 32123a.dat
1 14 423.999600 -280.047800 -171.230500 -0.593517 0.804822 0.000000 -0.804818 -0.593521 0.000000 0.000000 -0.000001 1.000000 32123a.dat
0 STEP
1 71 456.192000 -303.791000 -76.231570 0.804824 0.593517 0.000001 -0.593519 0.804822 0.000000 -0.000001 0.000000 1.000002 59443.dat
1 1 440.096200 -291.918000 33.769590 0.000000 0.804822 0.593517 0.000000 -0.593517 0.804822 1.000000 -0.000001 0.000000 32184.dat
1 0 456.193700 -303.788700 -16.231380 0.000000 0.593517 0.804825 0.000000 0.804822 -0.593519 -1.000002 0.000000 0.000000 3706.dat
0 STEP
1 1 440.096300 -291.917600 -186.230400 0.000000 0.804822 0.593517 0.000000 -0.593517 0.804822 1.000000 -0.000001 0.000000 32184.dat
1 0 456.192800 -303.788000 -136.230400 0.000000 0.593517 0.804822 0.000000 0.804822 -0.593517 -1.000000 0.000000 0.000000 3706.dat
0 STEP
1 1 311.999900 -216.047400 -138.510400 0.000001 0.000001 1.000000 1.000000 -0.000001 -0.000001 0.000001 1.000000 -0.000001 32526.dat
1 0 391.999900 -176.047400 -128.910400 0.000000 0.000000 -1.000000 0.000000 1.000000 0.000000 1.000000 0.000000 0.000000 2780.dat
0 STEP
1 72 2.000090 -112.047400 -68.909360 0.000000 0.000000 -1.000000 0.000000 -1.000000 0.000000 -1.000000 0.000000 0.000000 3648b.dat
1 4 12.000100 -112.047400 -68.909360 -1.000000 0.000000 0.000000 0.000000 1.000000 0.000000 0.000000 0.000000 -1.000000 32062.dat
1 71 12.000100 -112.047400 -68.909360 0.000000 0.000000 1.000000 0.000000 1.000000 0.000000 -1.000000 0.000000 0.000000 58120.dat
0 STEP
1 1 72.000220 -130.047500 -118.909400 1.000000 0.000000 0.000000 0.000000 1.000000 0.000000 0.000000 0.000000 1.000000 3894.dat
1 1 212.000200 -130.047500 -118.909400 1.000000 0.000000 0.000000 0.000000 1.000000 0.000000 0.000000 0.000000 1.000000 3702.dat
0 STEP
1 1 72.000220 -154.047500 -118.909400 1.000000 0.000000 0.000000 0.000000 1.000000 0.000000 0.000000 0.000000 1.000000 3894.dat
1 1 252.000200 -154.047500 -118.909400 1.000000 0.000000 0.000000 0.000000 1.000000 0.000000 0.000000 0.000000 1.000000 3700.dat
1 0 252.000200 -144.047500 -128.909400 0.000000 0.000000 -1.000000 0.000000 1.000000 0.000000 1.000000 0.000000 0.000000 2780.dat
1 0 52.000200 -144.047500 -128.909400 0.000000 0.000000 -1.000000 0.000000 1.000000 0.000000 1.000000 0.000000 0.000000 2780.dat
0 STEP
1 0 112.000200 -96.047450 -128.909300 0.000000 0.000000 -1.000000 0.000000 1.000000 0.000000 1.000000 0.000000 0.000000 2780.dat
1 0 192.000200 -196.047500 -68.909300 0.000000 0.000000 1.000000 0.000000 1.000000 0.000000 -1.000000 0.000000 0.000000 3707.dat
1 1 112.000200 -196.047500 -138.909300 1.000000 0.000000 0.000000 0.000000 0.000000 -1.000000 0.000000 1.000000 0.000000 32009.dat
0 STEP
1 0 371.999900 -216.047400 -148.510400 0.000000 0.000000 -1.000000 0.000000 1.000000 0.000000 1.000000 0.000000 0.000000 2780.dat
1 0 172.954500 -196.530600 -148.510400 0.000000 0.000000 -1.000000 0.000000 1.000000 0.000000 1.000000 0.000000 0.000000 2780.dat
1 15 272.477200 -206.289000 -158.510400 -0.097584 0.000001 -0.995227 -0.995227 0.000001 0.097584 0.000001 1.000000 0.000001 64290.dat
0 STEP
1 15 252.000200 -104.047500 -138.909500 1.000000 -0.000001 0.000001 -0.000001 -0.000001 1.000000 -0.000001 -1.000000 -0.000001 32316.dat
1 15 52.000200 -104.047500 -138.909400 1.000000 -0.000001 0.000001 -0.000001 -0.000001 1.000000 -0.000001 -1.000000 -0.000001 32316.dat
0 STEP
1 0 -27.999790 -64.047440 -68.909300 0.000000 0.000000 1.000000 0.000000 1.000000 0.000000 -1.000000 0.000000 0.000000 3708.dat
1 71 -27.999700 -64.047440 -47.519290 1.000000 0.000000 0.000001 0.000000 -1.000000 0.000000 0.000001 0.000000 -1.000000 3650c.dat
1 14 -27.999700 -64.047440 -33.879270 0.000000 1.000000 0.000000 1.000000 0.000000 0.000000 0.000000 0.000000 -1.000000 32123a.dat
1 14 -27.999790 -64.047440 -103.909400 0.000000 1.000000 0.000000 1.000000 0.000000 0.000000 0.000000 0.000000 -1.000000 32123a.dat
0 STEP
1 14 -27.999790 -64.047440 -134.589300 0.000000 -1.000000 0.000000 1.000000 0.000000 0.000000 0.000000 0.000000 1.000000 32123a.dat
1 14 -27.999790 -64.047440 -3.909300 0.000000 -1.000000 0.000000 1.000000 0.000000 0.000000 0.000000 0.000000 1.000000 32123a.dat
0 STEP
1 1 -47.999790 -98.047440 -18.909970 1.000000 0.000000 0.000000 0.000000 1.000000 0.000000 0.000000 0.000000 1.000000 3701.dat
1 1 -47.999790 -98.047440 -118.909400 1.000000 0.000000 0.000000 0.000000 1.000000 0.000000 0.000000 0.000000 1.000000 3701.dat
0 STEP
1 19 -67.999790 -88.047420 -8.910100 -0.000001 1.000000 -0.000001 0.000001 0.000001 1.000000 1.000000 0.000001 -0.000001 3749.dat
1 19 -67.999690 -88.047420 -128.909400 0.000001 -1.000000 0.000001 0.000001 0.000001 1.000000 -1.000000 -0.000001 0.000001 3749.dat
0 STEP
1 1 -77.999690 -98.047440 -68.910100 0.000000 0.000000 1.000000 0.000000 1.000000 0.000000 -1.000000 0.000000 0.000000 3701.dat
1 1 -77.999690 -106.047400 -68.910100 0.000000 0.000000 1.000000 0.000000 1.000000 0.000000 -1.000000 0.000000 0.000000 3666.dat
0 STEP
1 1 52.000020 -178.047500 -18.909970 1.000000 0.000000 0.000000 0.000000 1.000000 0.000000 0.000000 0.000000 1.000000 3701.dat
1 0 52.000020 -168.047500 -28.909980 0.000000 0.000000 -1.000000 0.000000 1.000000 0.000000 1.000000 0.000000 0.000000 2780.dat
1 0 31.999900 -168.047500 -8.909969 0.000000 0.000000 -1.000000 0.000000 1.000000 0.000000 1.000000 0.000000 0.000000 2780.dat
1 1 71.999910 -168.047500 -18.909970 0.000000 0.000000 1.000000 0.000000 1.000000 0.000000 -1.000000 0.000000 0.000000 6558.dat
0 STEP
1 0 32.000010 -168.047500 -48.909920 0.000000 0.000000 -1.000000 0.000000 1.000000 0.000000 1.000000 0.000000 0.000000 2780.dat
1 0 -8.000100 -168.047600 -48.909920 0.000000 0.000000 -1.000000 0.000000 1.000000 0.000000 1.000000 0.000000 0.000000 2780.dat
1 1 91.999900 -168.047500 -38.909980 -0.000001 -0.000001 -1.000000 1.000000 -0.000001 -0.000001 -0.000001 -1.000000 0.000000 32271.dat
0 STEP
1 0 -28.000090 -168.047400 -69.000000 0.000000 0.000000 1.000000 0.000000 1.000000 0.000000 -1.000000 0.000000 0.000000 3737.dat
1 0 -28.000000 -168.047400 -19.000000 0.000000 0.000000 -1.000000 0.000000 -1.000000 0.000000 -1.000000 0.000000 0.000000 6536.dat
0 STEP
1 0 71.999910 -168.047500 -68.910100 0.000000 0.000000 -1.000000 0.000000 1.000000 0.000000 1.000000 0.000000 0.000000 2780.dat
1 15 31.999900 -168.047500 -58.909980 0.000001 0.000001 -1.000000 -1.000000 0.000001 -0.000001 0.000001 1.000000 0.000001 32524.dat
0 STEP
1 0 31.999900 -168.047500 -88.909980 0.000000 0.000000 -1.000000 0.000000 1.000000 0.000000 1.000000 0.000000 0.000000 2780.dat
1 0 -8.000100 -168.047500 -88.909980 0.000000 0.000000 -1.000000 0.000000 1.000000 0.000000 1.000000 0.000000 0.000000 2780.dat
1 15 31.999900 -168.047500 -78.910100 0.000001 0.000001 -1.000000 -1.000000 0.000001 -0.000001 0.000001 1.000000 0.000001 32524.dat
0 STEP
1 0 -52.000100 -136.047600 -68.909920 -0.000001 -0.593517 0.804821 0.000000 0.804821 0.593517 -1.000000 0.000000 -0.000001 3705.dat
1 14 -51.999700 -136.047000 -54.001770 0.804821 -0.593517 0.000001 0.593517 0.804822 0.000000 -0.000001 0.000000 1.000000 32123a.dat
0 STEP
1 4 -68.096590 -147.918100 -68.999760 -0.000001 0.593517 -0.804821 0.000000 -0.804820 -0.593519 -1.000000 0.000000 0.000001 32039.dat
1 14 -52.000100 -136.047700 -83.909900 0.804821 -0.593517 0.000001 0.593517 0.804821 0.000000 -0.000001 0.000001 1.000000 32123a.dat
0 STEP
1 0 52.000020 -168.047400 -108.910100 0.000000 0.000000 -1.000000 0.000000 1.000000 0.000000 1.000000 0.000000 0.000000 2780.dat
1 1 91.999900 -168.047400 -98.910110 -0.000001 -0.000001 -1.000000 1.000000 -0.000001 -0.000001 -0.000001 -1.000000 0.000001 32271.dat
1 0 -28.000090 -168.047400 -119.000000 0.000000 0.000000 -1.000000 0.000000 -1.000000 0.000000 -1.000000 0.000000 0.000000 6536.dat
0 STEP
1 1 52.000020 -178.047300 -118.910100 1.000000 0.000000 0.000000 0.000000 1.000000 0.000000 0.000000 0.000000 1.000000 3701.dat
1 0 32.000010 -168.047400 -128.910000 0.000000 0.000000 -1.000000 0.000000 1.000000 0.000000 1.000000 0.000000 0.000000 2780.dat
1 1 72.000000 -168.047400 -118.910200 0.000000 0.000000 -1.000000 0.000000 1.000000 0.000000 1.000000 0.000000 0.000000 6558.dat
0 STEP
1 71 -28.000000 -168.047400 21.000000 -1.000000 0.000000 -0.000001 0.000000 1.000000 0.000000 0.000001 0.000000 -1.000000 3713.dat
1 1 -68.000100 -168.047500 1.090030 0.000000 0.000000 -1.000000 1.000000 0.000000 0.000000 0.000000 -1.000000 0.000000 32009.dat
0 STEP
1 71 -28.000000 -168.047400 -159.000000 1.000000 0.000000 0.000001 0.000000 1.000000 0.000000 -0.000001 0.000000 1.000000 3713.dat
1 1 -68.000100 -168.047400 -138.910000 0.000000 0.000000 -1.000000 1.000000 0.000000 0.000000 0.000000 -1.000000 0.000000 32009.dat
0 STEP
1 1 31.999900 -186.047300 -68.910160 0.000000 0.000000 1.000000 0.000000 1.000000 0.000000 -1.000000 0.000000 0.000000 3738.dat
1 1 72.000000 -186.047300 -68.910100 0.000000 0.000000 1.000000 0.000000 1.000000 0.000000 -1.000000 0.000000 0.000000 3738.dat
0 STEP
1 15 51.999900 -210.047300 -48.910160 1.000000 0.000000 0.000000 0.000000 1.000000 0.000000 0.000000 0.000000 1.000000 3001.dat
1 15 41.999900 -210.047300 -18.910160 0.000000 0.000000 1.000001 0.000000 1.000000 0.000000 -1.000001 0.000000 0.000000 3040b.dat
1 15 41.999780 -210.047300 1.089720 0.000000 0.000000 1.000002 0.000000 1.000000 0.000000 -1.000002 0.000000 0.000000 3040b.dat
0 STEP
1 15 41.999900 -210.047300 -138.910200 0.000000 0.000000 1.000002 0.000000 1.000000 0.000000 -1.000002 0.000000 0.000000 3040b.dat
1 15 42.000100 -210.047300 -118.909700 0.000000 0.000000 1.000000 0.000000 1.000000 0.000000 -1.000000 0.000000 0.000000 3040b.dat
1 15 51.999900 -210.047300 -88.910160 1.000000 0.000000 0.000000 0.000000 1.000000 0.000000 0.000000 0.000000 1.000000 3001.dat
0 STEP
1 15 41.999900 -218.047300 -28.910160 0.000000 0.000000 1.000000 0.000000 1.000000 0.000000 -1.000000 0.000000 0.000000 2431.dat
1 15 41.999900 -218.047300 -108.910200 0.000000 0.000000 1.000000 0.000000 1.000000 0.000000 -1.000000 0.000000 0.000000 2431.dat
0 STEP
1 19 -87.999910 -64.047470 -28.910400 -1.000000 -0.000001 0.000001 0.000001 0.000001 1.000000 -0.000001 1.000000 -0.000001 3749.dat
1 1 -77.999690 -74.047440 -68.909920 0.000000 0.000000 1.000000 0.000000 1.000000 0.000000 -1.000000 0.000000 0.000000 3894.dat
1 19 -87.999690 -64.047420 -108.909800 -1.000000 -0.000001 0.000001 0.000001 0.000001 1.000000 -0.000001 1.000000 -0.000001 3749.dat
0 STEP
1 19 -97.999910 -64.047470 -28.910400 0.000000 0.000000 -1.000000 1.000000 0.000000 0.000000 0.000000 -1.000000 0.000000 32269.dat
1 19 -97.999690 -64.047420 -108.909800 0.000000 0.000000 -1.000000 1.000000 0.000000 0.000000 0.000000 -1.000000 0.000000 32269.dat
0 STEP
1 71 -80.563190 -157.111700 -68.999760 -0.593519 0.000001 0.804820 0.804820 0.000000 0.593519 0.000001 1.000000 -0.000001 4185.dat
1 72 -88.217090 -162.756100 -68.999760 0.000001 -0.593519 -0.804821 0.000000 0.804820 -0.593519 1.000000 0.000000 0.000001 6575.dat
1 4 -76.144820 -153.853300 -68.999760 -0.804820 0.000001 -0.593519 -0.593518 0.000000 0.804820 0.000001 1.000000 0.000001 32062.dat
0 STEP
1 19 -38.000000 -188.047300 -19.000000 0.000001 0.000000 -1.000000 -1.000000 0.000000 -0.000001 0.000000 1.000000 0.000000 6589.dat
1 19 -38.000100 -188.047500 -119.000000 0.000001 0.000000 -1.000000 -1.000000 0.000000 -0.000001 0.000000 1.000000 0.000000 6589.dat
1 19 -38.000100 -188.047500 -119.000000 -1.000000 -0.000001 0.000001 0.000001 0.000001 1.000000 -0.000001 1.000000 -0.000001 3749.dat
1 19 -38.000000 -188.047300 -19.000000 -1.000000 -0.000001 0.000001 0.000001 0.000001 1.000000 -0.000001 1.000000 -0.000001 3749.dat
0 STEP
1 14 -53.000000 -188.047300 -18.999880 0.000000 0.000000 1.000000 1.000000 0.000000 0.000000 0.000000 1.000000 0.000000 32123a.dat
1 14 -53.000100 -188.047300 -118.999900 0.000000 0.000000 1.000000 1.000000 0.000000 0.000000 0.000000 1.000000 0.000000 32123a.dat
0 STEP
1 0 371.999000 -64.047710 -180.449400 0.978159 -0.207909 0.000000 0.207910 0.978156 0.000000 0.000000 0.000000 1.000000 44309.dat
1 71 371.999900 -64.047450 -180.449400 -0.207908 -0.978148 0.000000 0.978148 -0.207908 0.000000 0.000000 0.000000 1.000000 56145.dat
1 0 372.000100 -64.047040 40.550300 -0.978160 -0.207910 0.000000 -0.207910 0.978156 0.000000 0.000000 0.000000 -1.000000 44309.dat
1 71 371.999800 -64.047360 40.550600 -0.207909 0.978157 0.000000 0.978157 0.207910 0.000000 0.000000 0.000000 -1.000000 56145.dat
0 STEP
1 0 -27.999300 -64.047280 40.089840 -1.000003 -0.000001 0.000000 0.000000 0.999999 0.000000 0.000000 0.000000 -1.000000 44309.dat
1 71 -27.999700 -64.047540 40.090700 0.000000 1.000000 0.000000 1.000000 0.000000 0.000000 0.000000 0.000000 -1.000000 56145.dat
1 0 -28.000300 -64.047200 -178.908200 1.000003 0.000002 0.000000 -0.000001 0.999999 0.000000 0.000000 0.000000 1.000000 44309.dat
1 71 -27.999700 -64.047440 -178.909300 0.000001 -1.000000 0.000000 1.000000 0.000001 0.000000 0.000000 0.000000 1.000000 56145.dat
0 STEP
0 STEP
0 NOFILE
0 FILE SubModel Group 2
0 SubModel Group 2
0 Name:  SubModel Group 2
0 Author:  
0 CustomBrick
0 NumOfBricks:  11
1 1 -146.421700 -16.088220 -0.000340 0.000000 0.000000 0.999999 0.000000 1.000000 0.000000 -0.999999 0.000000 0.000000 32001.dat
1 1 -156.421700 -40.088200 -0.000210 0.000000 0.000000 1.000000 0.000000 1.000000 0.000000 -1.000000 0.000000 0.000000 3701.dat
0 STEP
1 0 -86.911850 -30.088220 -0.000210 -1.000000 0.000000 0.000000 0.000000 0.562080 -0.827083 0.000000 -0.827083 -0.562080 3737.dat
1 71 -176.911800 -30.088160 -0.000210 -0.000001 0.000000 1.000000 0.562080 0.827083 0.000001 -0.827083 0.562080 -0.000001 94925.dat
0 STEP
1 1 -56.421860 -40.088210 -0.000090 0.000000 0.000000 1.000000 0.000000 1.000000 0.000000 -1.000000 0.000000 0.000000 3701.dat
1 1 -66.421860 -16.088220 -0.000090 0.000000 0.000000 0.999999 0.000000 1.000000 0.000000 -0.999999 0.000000 0.000000 32001.dat
0 STEP
1 71 13.088210 -30.089790 0.002110 -0.000001 0.000000 1.000000 -0.827083 0.562080 -0.000001 -0.562080 -0.827083 0.000000 59443.dat
1 0 93.088230 -30.088210 -0.000340 -1.000000 0.000000 0.000000 0.000000 0.562080 -0.827083 0.000000 -0.827083 -0.562080 3707.dat
0 STEP
1 1 143.578000 -40.088220 -0.000210 0.000000 0.000000 1.000000 0.000000 1.000000 0.000000 -1.000000 0.000000 0.000000 3701.dat
1 1 133.578000 -16.088230 -0.000090 0.000000 0.000000 1.000000 0.000000 1.000000 0.000000 -1.000000 0.000000 0.000000 32001.dat
1 71 163.178200 -30.088190 -0.000340 -0.000001 0.000000 1.000000 0.562080 0.827083 0.000001 -0.827083 0.562080 -0.000001 94925.dat
0 STEP
0 NOFILE
0 FILE SubModel Group 1
0 SubModel Group 1
0 Name:  SubModel Group 1
0 Author:  
0 CustomBrick
0 NumOfBricks:  15
1 16 184.769000 -24.150190 -11.557160 -1.000000 0.000000 0.000000 0.000000 1.000000 0.000000 0.000000 0.000000 -1.000000 submodel group 9 copy copy copy
1 0 21.769150 -74.000020 30.000330 0.000000 0.000000 -1.000000 0.000000 1.000000 0.000000 1.000000 0.000000 0.000000 2780.dat
1 19 21.769090 -93.999980 30.000310 0.000001 -1.000000 0.000001 -0.000001 -0.000001 -1.000000 1.000000 0.000001 -0.000001 3749.dat
0 STEP
1 0 21.769150 -73.999980 -29.999670 0.000000 0.000000 -1.000000 0.000000 1.000000 0.000000 1.000000 0.000000 0.000000 2780.dat
1 19 21.769150 -93.999950 -29.999670 0.000001 -1.000000 0.000001 0.000001 0.000001 1.000000 -1.000000 -0.000001 0.000001 3749.dat
0 STEP
1 19 21.769210 -13.999990 40.000390 0.000001 -1.000000 0.000001 0.000001 0.000001 1.000000 -1.000000 -0.000001 0.000001 3749.dat
1 72 21.769210 -13.999990 35.000390 -1.000000 0.000001 -0.000001 0.000001 0.000001 -1.000000 -0.000001 -1.000000 -0.000001 32250.dat
1 19 -18.230760 -13.999990 40.000390 0.000001 -1.000000 0.000001 0.000001 0.000001 1.000000 -1.000000 -0.000001 0.000001 3749.dat
0 STEP
1 19 -18.230620 -14.000010 -40.002420 0.000001 -1.000000 0.000001 -0.000001 -0.000001 -1.000006 1.000006 0.000001 -0.000001 3749.dat
1 72 21.769210 -13.999950 -34.999610 -1.000000 0.000001 -0.000001 0.000001 0.000001 -1.000000 -0.000001 -1.000000 -0.000001 32250.dat
1 19 21.769330 -14.000050 -40.002420 0.000001 -1.000000 0.000001 -0.000001 -0.000001 -1.000006 1.000006 0.000001 -0.000001 3749.dat
0 STEP
1 1 -58.230820 -24.000010 50.000510 1.000000 0.000000 0.000000 0.000000 1.000000 0.000000 0.000000 0.000000 1.000000 3895.dat
1 1 -58.230530 -24.000010 -49.998880 1.000000 0.000000 0.000000 0.000000 1.000000 0.000000 0.000000 0.000000 1.000000 3895.dat
0 STEP
0 NOFILE
0 FILE SubModel Group 9 Copy Copy Copy
0 SubModel Group 9 Copy Copy Copy
0 Name:  SubModel Group 9 Copy Copy Copy
0 Author:  
0 CustomBrick
0 NumOfBricks:  3
1 72 10.000000 -1.128810 -10.000000 1.000000 0.000000 0.000000 0.000000 0.000000 -1.000000 0.000000 1.000000 0.000000 dch003.dat
1 71 -27.466620 -79.717990 29.427020 1.000000 0.000000 0.000000 0.000000 0.000000 -1.000000 0.000000 1.000000 0.000000 dch004.dat
1 25 7.837010 13.484720 -9.965000 1.000000 0.000000 0.000000 0.000000 0.000000 -1.000000 0.000000 1.000000 0.000000 dch005.dat
0 NOFILE
