0 Untitled Model
0 Name:  小桌子
0 Author:  
0 CustomBrick
0 NumOfBricks:  24
1 1 -7.000120 -115.915900 3.000500 -1.000000 0.000000 0.000000 0.000000 1.000000 0.000000 0.000000 0.000000 -1.000000 3702.dat
0 STEP
1 1 -7.000000 -115.915900 -97.000000 -1.000000 0.000000 0.000000 0.000000 1.000000 0.000000 0.000000 0.000000 -1.000000 3702.dat
1 1 -67.001300 -123.915900 -46.999050 0.000000 0.000000 1.000000 0.000000 1.000000 0.000000 -1.000000 0.000000 0.000000 3738.dat
0 STEP
1 15 -57.001500 -147.916000 23.000890 0.000000 0.000000 0.999986 0.000000 1.000000 0.000000 -0.999986 0.000000 0.000000 3040b.dat
1 15 -77.001160 -147.915900 -46.999290 0.000000 0.000000 0.999986 0.000000 1.000000 0.000000 -0.999986 0.000000 0.000000 32064a.dat
0 STEP
1 1 -27.001120 -123.915900 -46.999050 0.000000 0.000000 1.000000 0.000000 1.000000 0.000000 -1.000000 0.000000 0.000000 3738.dat
1 15 -57.001440 -147.915900 -116.999200 0.000000 0.000000 0.999986 0.000000 1.000000 0.000000 -0.999986 0.000000 0.000000 3040b.dat
0 STEP
1 1 12.991910 -123.915900 -46.993920 0.000000 0.000000 0.999986 0.000000 1.000000 0.000000 -0.999986 0.000000 0.000000 3738.dat
1 15 -7.001340 -147.916000 23.000890 0.999986 0.000000 0.000000 0.000000 1.000000 0.000000 0.000000 0.000000 0.999986 32064a.dat
1 15 -7.001220 -147.915900 -116.999200 0.999986 0.000000 0.000000 0.000000 1.000000 0.000000 0.000000 0.000000 0.999986 32064a.dat
0 STEP
1 0 33.000600 -105.915900 -6.999360 0.000001 0.000000 1.000000 0.000000 1.000000 0.000000 -1.000000 0.000000 0.000001 2780.dat
1 1 -6.234170 -61.892280 3.000100 0.000000 0.350210 0.936671 0.000000 0.936671 -0.350210 -1.000000 0.000000 0.000000 6558.dat
1 15 -7.225030 -61.397260 -16.999220 -0.741980 0.000001 -0.670419 -0.670428 -0.000001 0.741979 0.000000 1.000000 0.000001 32524.dat
0 STEP
1 15 -6.234180 -61.892300 23.000100 0.733732 -0.000001 0.679439 -0.679445 -0.000001 0.733728 0.000000 -1.000000 -0.000002 32524.dat
1 0 -47.001030 -105.915900 13.000360 0.000001 0.000000 1.000000 0.000000 1.000000 0.000000 -1.000000 0.000000 0.000001 2780.dat
0 STEP
1 0 -47.000970 -105.915900 -86.999820 0.000000 0.000000 -1.000000 0.000000 1.000000 0.000000 1.000000 0.000000 0.000000 2780.dat
1 1 -6.991760 -61.187440 -96.999980 0.000000 -0.342020 -0.939693 0.000000 0.939693 -0.342020 1.000000 0.000000 0.000000 6558.dat
1 15 -7.321530 -60.909400 -76.999480 -0.750114 0.000001 0.661311 0.661313 0.000000 0.750110 0.000001 1.000001 -0.000001 32524.dat
0 STEP
1 15 -6.991750 -61.187420 -117.000000 0.745479 -0.000001 -0.666531 0.666532 -0.000001 0.745476 -0.000001 -1.000000 0.000000 32524.dat
1 0 33.000600 -105.915900 -106.999900 0.000000 0.000000 -1.000000 0.000000 1.000000 0.000000 1.000001 0.000000 0.000000 2780.dat
0 STEP
1 1 52.999660 -123.915900 -46.999050 0.000000 0.000000 1.000000 0.000000 1.000000 0.000000 -1.000000 0.000000 0.000000 3738.dat
1 15 42.999610 -147.916000 23.000890 0.000000 0.000000 -0.999986 0.000000 1.000000 0.000000 0.999986 0.000000 0.000000 3040b.dat
1 15 62.999700 -147.915900 -46.999290 0.000000 0.000000 0.999986 0.000000 1.000000 0.000000 -0.999986 0.000000 0.000000 32064a.dat
1 15 42.999610 -147.915900 -116.999200 0.000000 0.000000 -0.999986 0.000000 1.000000 0.000000 0.999986 0.000000 0.000000 3040b.dat
0 STEP
0 STEP
