0 Untitled Model
0 Name:  龙
0 Author:  
0 CustomBrick
0 NumOfBricks:  23
1 1 40.000000 -24.000000 -30.000000 1.000000 0.000000 0.000000 0.000000 1.000000 0.000000 0.000000 0.000000 1.000000 3700.dat
1 1 -0.000010 -24.000060 -29.999940 1.000000 0.000001 0.000000 -0.000001 1.000000 0.000000 0.000000 0.000000 1.000001 3700.dat
1 1 19.999990 -32.000070 -29.999940 1.000000 0.000000 0.000000 0.000000 1.000000 0.000000 0.000000 0.000000 1.000001 3023.dat
1 1 60.000000 -32.000000 -30.000000 1.000000 0.000000 0.000000 0.000000 1.000000 0.000000 0.000000 0.000000 1.000001 3023.dat
0 STEP
1 1 39.999980 -40.000060 -29.999940 1.000000 0.000000 0.000000 0.000000 1.000000 0.000000 0.000000 0.000000 1.000001 3023.dat
1 1 99.999980 -48.000000 -30.000010 1.000000 0.000000 0.000000 0.000000 1.000000 0.000000 0.000000 0.000000 1.000001 3023.dat
1 1 80.000000 -40.000000 -30.000000 1.000000 0.000000 0.000000 0.000000 1.000000 0.000000 0.000000 0.000000 1.000001 3023.dat
0 STEP
1 15 120.000000 -72.000000 -30.000000 -1.000000 0.000000 0.000000 0.000000 1.000000 0.000000 0.000000 0.000000 -1.000001 32064a.dat
0 STEP
1 1 -39.999990 -72.000080 -29.999970 1.000000 0.000000 0.000000 0.000000 1.000000 0.000000 0.000000 0.000000 1.000001 3700.dat
1 1 -19.999990 -48.000100 -29.999970 1.000000 0.000001 0.000000 -0.000001 1.000000 0.000000 0.000000 0.000000 1.000001 3700.dat
0 STEP
1 1 -50.000000 -80.000080 -39.999980 0.000000 0.000000 1.000000 0.000000 1.000000 0.000000 -1.000001 0.000000 0.000000 3023.dat
1 1 -29.999990 -80.000080 -39.999980 0.000000 0.000000 1.000000 0.000000 1.000000 0.000000 -1.000001 0.000000 0.000000 3023.dat
0 STEP
1 1 -59.999970 -88.000070 -49.999980 1.000000 0.000000 0.000000 0.000000 1.000000 0.000000 0.000000 0.000000 1.000001 3710.dat
1 1 -59.999980 -88.000070 -29.999970 1.000000 0.000000 0.000000 0.000000 1.000000 0.000000 0.000000 0.000000 1.000001 3710.dat
0 STEP
1 15 -39.999980 -112.000100 -39.999980 1.000000 0.000000 0.000000 0.000000 1.000000 0.000000 0.000000 0.000000 1.000001 3001.dat
0 STEP
1 15 -29.999990 -136.000100 -40.000000 0.000000 0.000000 1.000000 0.000000 1.000000 0.000000 -1.000001 0.000000 0.000000 32064a.dat
1 15 -49.999980 -136.000100 -40.000000 0.000000 0.000000 1.000000 0.000000 1.000000 0.000000 -1.000001 0.000000 0.000000 32064a.dat
0 STEP
1 15 -39.999980 -160.000100 -40.000000 1.000000 0.000000 0.000000 0.000000 1.000000 0.000000 0.000000 0.000000 1.000001 3941.dat
1 19 -39.999970 -160.000100 -39.999980 -0.000001 1.000000 -0.000001 1.000000 0.000001 -0.000001 -0.000001 -0.000001 -1.000001 3749.dat
0 STEP
1 15 -89.999980 -80.000070 -50.000020 0.000000 0.000000 1.000000 0.000000 1.000000 0.000000 -1.000001 0.000000 0.000000 3040b.dat
1 15 -89.999980 -80.000070 -30.000000 0.000000 0.000000 1.000000 0.000000 1.000000 0.000000 -1.000001 0.000000 0.000000 3040b.dat
0 STEP
1 15 -110.000000 -112.000100 -29.999970 0.000000 0.000000 -1.000000 0.000000 1.000000 0.000000 1.000001 0.000000 0.000000 3040b.dat
1 15 -110.000000 -112.000100 -49.999980 0.000000 0.000000 -1.000000 0.000000 1.000000 0.000000 1.000001 0.000000 0.000000 3040b.dat
0 STEP
0 STEP
