0 FILE 流水线.io
0 Untitled Model
0 Name:  流水线
0 Author:  
0 CustomBrick
0 NumOfBricks:  156
1 16 66.000000 -113.463100 -416.000000 0.000000 1.000000 0.000000 0.000000 0.000000 -1.000000 -1.000000 0.000000 0.000000 submodel group 9 copy copy copy
0 STEP
1 0 -43.999770 -82.968020 -366.999200 0.000000 0.000000 -1.000000 -0.000001 1.000000 0.000000 0.999997 0.000000 0.000000 2780.dat
1 71 -3.999800 -82.968050 -316.999300 0.000000 0.000000 1.000000 0.000001 1.000000 0.000000 -0.999997 0.000000 0.000000 64179.dat
1 0 36.000200 -82.968020 -366.999400 0.000000 0.000000 -1.000000 -0.000001 1.000000 0.000000 0.999997 0.000000 0.000000 2780.dat
0 STEP
1 1 76.000100 -82.968060 -296.999500 1.000000 0.000000 0.000000 0.000000 1.000000 -0.000001 0.000000 0.000000 0.999997 6558.dat
1 1 76.000100 -82.967990 -336.999200 1.000000 0.000000 0.000000 0.000000 1.000000 -0.000001 0.000000 0.000000 0.999997 6558.dat
1 1 -83.999690 -82.968060 -296.999600 -1.000000 0.000000 0.000000 0.000000 1.000000 0.000001 0.000000 0.000000 -0.999997 6558.dat
1 1 -83.999790 -82.968020 -336.999300 -1.000000 0.000000 0.000000 0.000000 1.000000 0.000001 0.000000 0.000000 -0.999997 6558.dat
0 STEP
1 0 86.000110 -162.968200 -296.999500 -1.000000 0.000000 0.000000 0.000000 1.000000 0.000001 0.000000 0.000000 -0.999997 2780.dat
1 1 76.000100 -162.968200 -296.999500 -0.000001 -1.000000 0.000001 0.000002 0.000001 1.000000 -1.000000 0.000001 0.000001 32526.dat
1 0 86.000110 -122.968100 -296.999400 -1.000000 0.000000 0.000000 0.000000 1.000000 0.000001 0.000000 0.000000 -0.999997 2780.dat
0 STEP
1 1 -83.999790 -162.968200 -296.999500 -0.000001 -1.000000 0.000001 0.000002 0.000001 1.000000 -1.000000 0.000001 0.000001 32526.dat
1 1 -83.999790 -162.968200 -296.999500 1.000000 0.000000 0.000000 0.000000 1.000000 -0.000001 0.000000 0.000000 0.999997 6558.dat
1 1 -83.999790 -122.968200 -296.999400 1.000000 0.000000 0.000000 0.000000 1.000000 -0.000001 0.000000 0.000000 0.999997 6558.dat
0 STEP
1 15 -63.999700 -262.968200 -296.999500 0.000001 1.000000 0.000001 0.000002 0.000001 -1.000000 -1.000000 0.000001 -0.000001 64871.dat
1 0 -53.999780 -182.968300 -296.999500 -1.000000 0.000000 0.000000 0.000000 1.000000 0.000001 0.000000 0.000000 -0.999997 2780.dat
1 0 -73.999690 -362.968200 -296.999500 -1.000000 0.000000 0.000000 0.000000 1.000000 0.000001 0.000000 0.000000 -0.999997 2780.dat
0 STEP
1 0 -93.999780 -202.968300 -296.999500 -1.000000 0.000000 0.000000 0.000000 1.000000 0.000001 0.000000 0.000000 -0.999997 3705.dat
1 72 -83.999790 -202.968300 -296.999500 0.000000 0.000000 -1.000000 -1.000000 -0.000001 0.000000 0.000000 0.999997 0.000000 3647.dat
0 STEP
1 15 -103.999900 -202.968300 -296.999400 0.000001 1.000000 0.000001 -0.000002 -0.000001 1.000000 1.000000 -0.000001 0.000001 64290.dat
1 71 -83.999690 -262.968200 -296.999500 0.000000 0.000000 -1.000000 0.076718 -0.997053 0.000000 -0.997050 -0.076716 0.000000 3649.dat
1 0 -93.999780 -262.968200 -296.999500 -1.000000 0.000000 0.000000 0.000000 0.997053 0.076718 0.000000 0.076716 -0.997050 3705.dat
0 STEP
1 72 -123.999800 -262.968200 -296.999500 0.000000 0.000000 -1.000000 -0.997053 -0.076718 0.000000 -0.076716 0.997050 0.000000 3647.dat
1 0 -113.999800 -182.968300 -296.999500 -1.000000 0.000000 0.000000 0.000000 1.000000 0.000001 0.000000 0.000000 -0.999997 2780.dat
1 0 -113.999900 -222.968300 -296.999400 -1.000000 0.000000 0.000000 0.000000 1.000000 0.000001 0.000000 0.000000 -0.999997 2780.dat
0 STEP
1 71 -113.999900 -202.968300 -296.999400 0.000000 0.000000 -1.000000 -0.000001 1.000000 0.000000 0.999997 0.000000 0.000000 58120.dat
0 STEP
1 72 -124.000000 -302.968300 -297.000000 0.000000 0.000000 -1.000000 -0.159881 -0.987136 0.000000 -0.987136 0.159881 0.000000 3648b.dat
1 19 -114.000000 -302.968200 -296.999500 -1.000000 -0.000001 0.000001 0.000001 0.159881 0.987136 -0.000001 0.987133 -0.159882 3749.dat
0 STEP
1 15 -83.999570 -422.968300 -296.999700 0.000001 1.000000 0.000001 0.000002 0.000001 -1.000000 -1.000000 0.000001 -0.000001 32524.dat
1 0 -73.999690 -402.968300 -296.999700 -1.000000 0.000000 0.000000 0.000000 1.000000 0.000001 0.000000 0.000000 -0.999997 2780.dat
1 0 -73.999580 -442.968300 -296.999700 -1.000000 0.000000 0.000000 0.000000 1.000000 0.000001 0.000000 0.000000 -0.999997 2780.dat
0 STEP
1 1 -63.999580 -482.968300 -296.999700 1.000000 0.000000 0.000000 0.000000 1.000000 -0.000001 0.000000 0.000000 0.999997 6558.dat
1 1 -63.999560 -462.968300 -306.999500 0.000000 0.000000 1.000000 1.000000 -0.000001 0.000000 0.000000 0.999997 0.000000 3701.dat
0 STEP
1 0 -43.999700 -82.967860 -586.998800 0.000000 0.000000 1.000000 0.000001 1.000000 0.000000 -0.999997 0.000000 0.000000 2780.dat
1 0 36.000040 -82.967830 -586.998700 0.000000 0.000000 1.000002 0.000001 1.000000 0.000000 -0.999997 0.000000 0.000000 2780.dat
1 71 -4.000120 -82.967780 -636.999600 0.000000 0.000000 -1.000002 -0.000001 1.000000 0.000000 0.999997 0.000000 0.000000 64179.dat
0 STEP
1 1 -84.000170 -82.967820 -616.999600 -1.000002 0.000000 0.000000 0.000000 1.000000 0.000001 0.000000 0.000000 -0.999997 6558.dat
1 1 -84.000400 -82.967790 -656.999600 -1.000002 0.000000 0.000000 0.000000 1.000000 0.000001 0.000000 0.000000 -0.999997 6558.dat
1 1 76.000200 -82.967780 -656.999600 1.000002 0.000000 0.000000 0.000000 1.000000 -0.000001 0.000000 0.000000 0.999997 6558.dat
1 1 76.000160 -82.967760 -616.999600 1.000002 0.000000 0.000000 0.000000 1.000000 -0.000001 0.000000 0.000000 0.999997 6558.dat
0 STEP
1 1 -84.000140 -162.967800 -656.999500 0.000001 1.000002 -0.000001 0.000000 0.000001 1.000000 0.999998 -0.000001 -0.000001 32526.dat
1 1 -84.000140 -162.967900 -656.999500 -1.000002 0.000000 0.000000 0.000000 1.000000 0.000001 0.000000 0.000000 -0.999997 6558.dat
1 1 -84.000140 -122.967800 -656.999500 -1.000002 0.000000 0.000000 0.000000 1.000000 0.000001 0.000000 0.000000 -0.999997 6558.dat
0 STEP
1 1 76.000070 -162.967800 -656.999500 0.000001 1.000002 -0.000001 0.000000 0.000001 1.000000 0.999997 -0.000001 -0.000001 32526.dat
1 1 96.000190 -162.967800 -656.999500 1.000002 0.000000 0.000000 0.000000 1.000000 -0.000001 0.000000 0.000000 0.999997 6558.dat
1 1 96.000190 -122.967800 -656.999500 1.000002 0.000000 0.000000 0.000000 1.000000 -0.000001 0.000000 0.000000 0.999997 6558.dat
0 STEP
1 0 -54.000400 -402.967900 -656.998200 1.000002 0.000000 0.000000 0.000000 1.000000 -0.000001 0.000000 0.000000 0.999997 2780.dat
1 0 -74.000400 -202.967800 -656.998500 1.000002 0.000000 0.000000 0.000000 1.000000 -0.000001 0.000000 0.000000 0.999997 2780.dat
1 15 -64.000400 -262.968000 -656.998300 -0.000001 -1.000002 -0.000001 0.000000 0.000001 -1.000000 0.999997 -0.000001 0.000001 64871.dat
0 STEP
1 0 106.000000 -202.967800 -656.999500 1.000000 0.000000 0.000000 0.000000 1.000000 -0.000001 0.000000 0.000000 0.999997 2780.dat
1 0 85.999980 -402.967900 -656.998200 1.000000 0.000000 0.000000 0.000000 1.000000 -0.000001 0.000000 0.000000 0.999997 2780.dat
1 15 96.000060 -262.967800 -656.999300 -0.000001 -1.000002 -0.000001 0.000000 0.000001 -1.000000 0.999997 -0.000001 0.000001 64871.dat
0 STEP
1 1 115.999900 -202.967800 -596.999300 -0.000001 -1.000000 0.000002 -1.000000 0.000001 0.000002 -0.000001 -0.000002 -1.000000 32140.dat
1 19 104.700000 -202.967900 -596.999300 1.000000 0.000001 -0.000001 0.000001 0.000002 1.000000 0.000001 -1.000000 0.000001 3749.dat
0 STEP
1 1 -83.998210 -204.555700 -596.221100 -0.000001 -1.000000 0.000001 -0.999559 0.000001 0.029683 -0.029681 -0.000001 -0.999556 32140.dat
1 19 -73.998210 -204.555800 -596.221100 -1.000000 -0.000001 0.000001 0.000001 -0.029683 0.999559 -0.000001 0.999556 0.029681 3749.dat
0 STEP
1 16 -53.999740 -183.919900 -481.070200 1.000000 0.000001 0.000000 -0.000001 0.967466 0.252998 0.000000 -0.252998 0.967463 submodel group 3
0 STEP
1 0 86.000110 -182.968200 -296.999500 -1.000000 0.000000 0.000000 0.000000 1.000000 0.000001 0.000000 0.000000 -0.999997 2780.dat
1 16 86.000030 -181.825300 -481.346400 1.000000 0.000000 0.000000 0.000000 0.997564 0.069760 0.000000 -0.069761 0.997561 submodel group 4
0 STEP
1 16 14.559710 -341.967800 -296.999500 1.000000 0.000000 0.000000 0.000000 1.000000 -0.000001 0.000000 0.000000 0.999997 submodel group
0 STEP
1 71 -125.919700 -382.968300 -296.999700 0.000000 0.000000 -1.000000 0.000001 -1.000000 0.000000 -0.999997 0.000000 0.000000 3649.dat
1 71 -103.709700 -382.968300 -296.999700 0.000001 0.000000 -1.000000 -0.000001 1.000000 0.000000 0.999997 0.000000 0.000001 3713.dat
0 STEP
1 71 64.080260 -382.971000 -296.999700 -0.000001 0.000000 1.000000 0.000001 1.000000 0.000000 -0.999997 0.000000 -0.000001 59443.dat
1 71 114.080100 -382.968200 -296.999700 -1.000000 0.000000 0.000000 0.000000 1.000000 0.000001 0.000000 0.000000 -0.999997 32073.dat
0 STEP
1 0 106.000300 -402.968200 -296.999700 -1.000000 0.000000 0.000000 0.000000 1.000000 0.000001 0.000000 0.000000 -0.999997 2780.dat
1 15 96.000110 -262.968100 -296.999500 0.000001 1.000000 0.000001 0.000002 0.000001 -1.000000 -1.000000 0.000001 -0.000001 64871.dat
1 0 106.000200 -362.968100 -296.999500 -1.000000 0.000000 0.000000 0.000000 1.000000 0.000001 0.000000 0.000000 -0.999997 2780.dat
0 STEP
1 0 106.000300 -442.968200 -296.999700 -1.000000 0.000000 0.000000 0.000000 1.000000 0.000001 0.000000 0.000000 -0.999997 2780.dat
1 15 116.000300 -422.968200 -296.999700 0.000001 1.000000 0.000001 0.000002 0.000001 -1.000000 -1.000000 0.000001 -0.000001 32524.dat
1 71 135.480200 -382.968200 -296.999700 0.000001 0.000000 -1.000000 -0.000001 1.000000 0.000000 0.999997 0.000000 0.000001 3713.dat
0 STEP
1 1 96.000300 -462.968100 -306.999700 0.000000 0.000000 1.000000 1.000000 -0.000001 0.000000 0.000000 0.999997 0.000000 3701.dat
1 1 96.000300 -482.968200 -296.999700 -1.000000 0.000000 0.000000 0.000000 1.000000 0.000001 0.000000 0.000000 -0.999997 6558.dat
0 STEP
1 1 -44.000620 -428.598100 -459.076000 0.000001 0.000000 1.000008 -0.216446 -0.976293 0.000000 0.976301 -0.216442 -0.000001 3666.dat
1 1 -44.000020 -410.652200 -576.985900 0.000000 0.000000 -1.000007 0.216445 -0.976293 0.000000 -0.976299 -0.216442 0.000000 3895.dat
1 1 -43.999540 -460.218500 -353.412800 0.000000 0.000000 -1.000000 0.216444 -0.976295 0.000000 -0.976292 -0.216442 0.000000 3895.dat
0 STEP
1 1 75.999370 -428.598500 -459.077100 0.000001 0.000000 1.000007 -0.216446 -0.976295 0.000000 0.976301 -0.216442 -0.000001 3666.dat
1 1 75.999820 -410.652000 -576.988200 0.000000 0.000000 -1.000007 0.216446 -0.976295 0.000000 -0.976301 -0.216442 0.000000 3895.dat
1 1 76.000320 -460.218400 -353.413000 0.000000 0.000000 -1.000000 0.216444 -0.976295 0.000000 -0.976292 -0.216442 0.000000 3895.dat
0 STEP
1 1 75.999970 -500.965100 -280.503000 0.000000 0.000000 -1.000000 0.216443 -0.976295 0.000000 -0.976296 -0.216443 0.000000 3710.dat
1 1 75.999900 -508.775500 -282.234500 0.000000 0.000000 -1.000000 0.216443 -0.976295 0.000000 -0.976296 -0.216443 0.000000 3710.dat
1 1 -44.000000 -500.964900 -280.502700 0.000000 0.000000 -1.000000 0.216443 -0.976295 0.000000 -0.976296 -0.216443 0.000000 3710.dat
1 1 -44.000200 -508.775500 -282.232600 0.000000 0.000000 -1.000000 0.216443 -0.976295 0.000000 -0.976296 -0.216442 0.000000 3710.dat
0 STEP
1 1 75.999740 -542.559000 -166.810700 0.000000 0.000000 -1.000000 0.216443 -0.976295 0.000000 -0.976296 -0.216443 0.000000 3895.dat
1 1 -44.000320 -542.558800 -166.808700 0.000000 0.000000 -1.000000 0.216443 -0.976295 0.000000 -0.976296 -0.216442 0.000000 3895.dat
0 STEP
1 19 -64.000000 -491.625500 -257.946700 -1.000000 0.000000 0.000001 0.000000 1.000000 0.000000 -0.000001 0.000000 -1.000000 32556.dat
1 19 -64.000260 -530.677700 -266.602600 -1.000000 0.000000 0.000001 0.000000 1.000000 0.000000 -0.000001 0.000000 -1.000000 32556.dat
1 15 -64.000220 -511.114700 -262.444500 0.000000 1.000000 0.000001 -0.207912 -0.000001 0.978147 0.978148 -0.000001 0.207912 32523.dat
0 STEP
1 15 95.999900 -511.114800 -262.446300 0.000000 1.000000 0.000001 -0.207912 -0.000001 0.978147 0.978148 -0.000001 0.207912 32523.dat
1 19 95.999810 -530.677700 -266.604600 1.000000 0.000000 0.000000 0.000000 1.000000 0.000000 0.000000 0.000000 1.000000 32556.dat
1 19 95.999870 -491.625600 -257.946900 1.000000 0.000000 -0.000001 0.000000 0.976295 -0.216443 0.000000 0.216443 0.976296 32556.dat
0 STEP
1 15 116.000200 -122.967800 -656.999500 0.000001 1.000000 0.000001 -0.000001 -0.000001 1.000000 1.000000 -0.000001 0.000001 32316.dat
1 15 -104.000500 -122.967900 -656.999500 0.000001 1.000000 0.000001 -0.000001 -0.000001 1.000000 1.000000 -0.000001 0.000001 32316.dat
0 STEP
0 STEP
0 NOFILE
0 FILE SubModel Group 9 Copy Copy Copy
0 SubModel Group 9 Copy Copy Copy
0 Name:  SubModel Group 9 Copy Copy Copy
0 Author:  
0 CustomBrick
0 NumOfBricks:  3
1 72 10.000000 -1.128810 -10.000000 1.000000 0.000000 0.000000 0.000000 0.000000 -1.000000 0.000000 1.000000 0.000000 dch003.dat
1 71 -27.466620 -79.717990 29.427020 1.000000 0.000000 0.000000 0.000000 0.000000 -1.000000 0.000000 1.000000 0.000000 dch004.dat
1 25 7.837010 13.484720 -9.965000 1.000000 0.000000 0.000000 0.000000 0.000000 -1.000000 0.000000 1.000000 0.000000 dch005.dat
0 NOFILE
0 FILE SubModel Group 3
0 SubModel Group 3
0 Name:  SubModel Group 3
0 Author:  
0 CustomBrick
0 NumOfBricks:  22
1 1 10.000210 68.561560 -431.046100 0.000001 -1.000000 0.000000 -0.980957 -0.000001 0.194230 -0.194230 0.000000 -0.980956 32009.dat
0 STEP
1 0 0.000220 41.369380 -293.712300 1.000000 0.000000 0.000000 0.000000 1.000001 0.000000 0.000000 0.000000 1.000000 2780.dat
1 19 0.000220 37.484820 -274.093300 1.000000 0.000001 -0.000001 0.000001 0.000001 1.000001 0.000001 -1.000000 0.000001 3749.dat
1 15 -9.999840 33.600430 -254.475100 0.000000 -1.000000 -0.000001 -0.980956 0.000000 0.194229 -0.194229 0.000001 -0.980956 32316.dat
0 STEP
1 0 0.000350 28.856160 -235.005800 1.000000 -0.000001 0.000000 0.000001 0.988496 -0.151254 0.000000 0.151254 0.988495 2780.dat
1 0 0.000290 25.831080 -215.235900 1.000000 -0.000001 0.000000 0.000001 0.988496 -0.151254 0.000000 0.151254 0.988495 2780.dat
1 15 10.000170 11.837610 -136.464600 -0.000002 -1.000000 -0.000002 0.985412 -0.000002 -0.170186 0.170185 -0.000002 0.985413 64290.dat
0 STEP
1 1 -9.999940 -1.856560 -118.787700 -0.000002 -0.000001 -1.000000 -0.194230 0.980956 -0.000001 0.980956 0.194230 -0.000002 3701.dat
1 71 0.000170 11.837600 -136.464500 1.000000 -0.000001 -0.000001 0.000001 0.793360 -0.608753 0.000001 0.608753 0.793360 3673.dat
1 71 -0.000010 5.030120 -97.047860 1.000003 -0.000001 -0.000001 0.000001 0.793359 -0.608753 0.000001 0.608754 0.793361 3673.dat
0 STEP
1 71 -0.000070 -5.388460 -37.960120 -1.000000 -0.000002 0.000001 -0.000002 0.985412 0.170185 -0.000001 0.170185 -0.985412 3673.dat
1 71 -0.000010 -1.777270 -57.631440 -1.000000 0.000000 0.000001 0.000000 0.978512 0.206189 -0.000001 0.206189 -0.978512 3673.dat
1 15 -10.000000 -8.999700 -18.288860 0.000001 1.000000 0.000000 -0.983564 0.000001 -0.180560 -0.180560 0.000000 0.983564 32316.dat
0 STEP
1 15 10.000010 -38.292420 139.006600 0.000001 1.000000 0.000000 -0.982942 0.000001 -0.183919 -0.183919 0.000000 0.982941 64871.dat
1 71 0.000000 -16.222100 21.053660 -1.000000 0.000000 0.000001 0.000000 0.978512 0.206189 -0.000001 0.206189 -0.978512 3673.dat
1 71 0.000060 -12.610910 1.382400 -1.000000 0.000000 0.000001 0.000000 0.978512 0.206189 -0.000001 0.206189 -0.978512 3673.dat
0 STEP
1 15 -9.999980 -68.542100 296.117500 0.000001 1.000000 0.000000 -0.980277 0.000001 -0.197629 -0.197629 0.000000 0.980277 32524.dat
1 0 0.000020 -56.684360 237.300800 -1.000000 0.000000 0.000001 0.000000 0.993964 0.109707 -0.000001 0.109707 -0.993964 2780.dat
1 0 -0.000040 -64.589540 276.512000 -1.000000 0.000000 0.000001 0.000000 0.993964 0.109707 -0.000001 0.109707 -0.993964 2780.dat
0 STEP
1 1 9.999969 -92.462930 413.708900 0.000001 -1.000000 0.000000 0.201051 0.000000 0.979580 -0.979580 -0.000001 0.201051 32009.dat
1 0 0.000030 -80.399840 354.934100 -1.000000 0.000000 0.000001 0.000000 0.993964 0.109707 -0.000001 0.109707 -0.993964 2780.dat
1 19 0.000020 -76.447280 335.328500 1.000000 0.000000 -0.000001 -0.000001 -0.109709 -0.993964 0.000000 0.993964 -0.109709 3749.dat
0 STEP
0 NOFILE
0 FILE SubModel Group 4
0 SubModel Group 4
0 Name:  SubModel Group 4
0 Author:  
0 CustomBrick
0 NumOfBricks:  22
1 1 -10.000150 -14.000020 -436.182900 0.000000 -1.000006 0.000000 -1.000003 0.000000 0.000000 0.000000 0.000000 -1.000000 32009.dat
0 STEP
1 19 -0.000100 -14.000060 -276.183100 -1.000006 -0.000001 0.000001 0.000001 0.000001 1.000003 -0.000001 1.000000 -0.000001 3749.dat
1 0 -0.000230 -14.000040 -296.183200 1.000006 0.000000 0.000000 0.000000 1.000003 0.000000 0.000000 0.000000 1.000000 2780.dat
1 15 9.999990 -14.000000 -256.183300 -0.000001 -1.000006 -0.000001 -1.000003 0.000001 -0.000001 0.000001 0.000001 -1.000000 32316.dat
0 STEP
1 0 0.000020 -14.000040 -216.183300 1.000006 0.000000 0.000000 0.000000 1.000003 0.000000 0.000000 0.000000 1.000000 2780.dat
1 0 -0.000100 -14.000050 -236.183300 1.000006 0.000000 0.000000 0.000000 1.000003 0.000000 0.000000 0.000000 1.000000 2780.dat
1 15 -10.000000 -13.999960 -136.181400 -0.000001 -1.000000 -0.000001 1.000000 -0.000001 0.000001 -0.000001 -0.000001 1.000000 64290.dat
0 STEP
1 1 9.999929 -24.000000 -116.180200 0.000000 0.000000 -1.000000 0.000000 1.000000 0.000000 1.000000 0.000000 0.000000 3701.dat
1 71 -0.000020 -13.999970 -136.181400 1.000003 0.000000 0.000000 0.000000 1.000000 0.000000 0.000000 0.000000 1.000003 3673.dat
1 71 0.000040 -13.999980 -96.181460 1.000003 0.000000 0.000000 0.000000 1.000000 0.000000 0.000000 0.000000 1.000003 3673.dat
0 STEP
1 71 -0.000140 -13.999810 -56.181400 -1.000000 0.000000 0.000000 0.000000 1.000000 0.000000 0.000000 0.000000 -1.000000 3673.dat
1 71 -0.000140 -13.999810 -36.181400 -1.000000 0.000000 0.000000 0.000000 1.000000 0.000000 0.000000 0.000000 -1.000000 3673.dat
1 15 9.999909 -13.999850 -16.181400 0.000001 1.000000 0.000001 -1.000000 0.000001 -0.000001 -0.000001 -0.000001 1.000000 32316.dat
0 STEP
1 15 -9.999949 -13.999990 143.818600 0.000001 1.000000 0.000001 -1.000000 0.000001 -0.000001 -0.000001 -0.000001 1.000000 64871.dat
1 71 -0.000090 -13.999870 23.818600 -1.000000 0.000000 0.000000 0.000000 1.000000 0.000000 0.000000 0.000000 -1.000000 3673.dat
1 71 -0.000090 -13.999870 3.818600 -1.000000 0.000000 0.000000 0.000000 1.000000 0.000000 0.000000 0.000000 -1.000000 3673.dat
0 STEP
1 15 10.000180 -14.000120 303.818400 0.000001 1.000000 0.000001 -1.000000 0.000001 -0.000001 -0.000001 -0.000001 1.000000 32524.dat
1 0 0.000130 -14.000050 243.818400 -1.000000 0.000000 0.000000 0.000000 1.000000 0.000000 0.000000 0.000000 -1.000000 2780.dat
1 0 0.000160 -14.000090 283.818400 -1.000000 0.000000 0.000000 0.000000 1.000000 0.000000 0.000000 0.000000 -1.000000 2780.dat
0 STEP
1 19 0.000220 -14.000130 343.818500 -1.000000 -0.000001 0.000001 0.000001 0.000001 1.000000 -0.000001 1.000000 -0.000001 3749.dat
1 0 0.000250 -14.000170 363.818600 -1.000000 0.000000 0.000000 0.000000 1.000000 0.000000 0.000000 0.000000 -1.000000 2780.dat
1 1 -9.999750 -14.000180 423.818600 0.000000 -1.000000 0.000000 0.000000 0.000000 1.000000 -1.000000 0.000000 0.000000 32009.dat
0 STEP
0 NOFILE
0 FILE SubModel Group
0 SubModel Group
0 Name:  SubModel Group
0 Author:  
0 CustomBrick
0 NumOfBricks:  21
1 1 19.520450 -31.000120 -0.000120 0.000000 0.000000 -1.000000 0.000000 -1.000000 0.000000 -1.000000 0.000000 0.000000 3703.dat
1 0 29.520450 -41.000030 -139.999900 -1.000000 0.000000 0.000000 0.000000 1.000000 0.000000 0.000000 0.000000 -1.000000 2780.dat
1 0 29.520450 -41.000150 139.999900 -1.000000 0.000000 0.000000 0.000000 1.000000 0.000000 0.000000 0.000000 -1.000000 2780.dat
0 STEP
1 0 9.520450 -41.000090 -20.000060 -1.000000 0.000000 0.000000 0.000000 1.000000 0.000000 0.000000 0.000000 -1.000000 2780.dat
1 0 -0.479550 -41.000120 19.999880 -1.000000 0.000000 0.000000 0.000000 1.000000 0.000000 0.000000 0.000000 -1.000000 2780.dat
1 71 4.520450 -41.000120 -0.000120 0.000000 0.000000 1.000000 1.000000 0.000000 0.000000 0.000000 1.000000 0.000000 4185.dat
0 STEP
1 14 4.520510 -41.000030 -99.999880 0.000000 0.000000 1.000000 1.000000 0.000000 0.000000 0.000000 1.000000 0.000000 32123a.dat
1 14 4.600520 -41.000120 99.999820 0.000000 0.000000 1.000000 1.000000 0.000000 0.000000 0.000000 1.000000 0.000000 32123a.dat
1 71 4.590520 -41.000120 99.999940 -1.000000 0.000000 0.000000 0.000000 1.000000 0.000000 0.000000 0.000000 -1.000000 32073.dat
1 71 5.520510 -41.000030 -99.999880 -1.000000 0.000000 0.000000 0.000000 1.000000 0.000000 0.000000 0.000000 -1.000000 32073.dat
0 STEP
1 1 -10.479550 -31.000090 -0.000120 0.000000 0.000000 -1.000000 0.000000 -1.000000 0.000000 -1.000000 0.000000 0.000000 3703.dat
1 0 -20.479550 -41.000120 140.000000 -1.000000 0.000000 0.000000 0.000000 1.000000 0.000000 0.000000 0.000000 -1.000000 2780.dat
1 0 -20.479550 -41.000030 -140.000000 -1.000000 0.000000 0.000000 0.000000 1.000000 0.000000 0.000000 0.000000 -1.000000 2780.dat
0 STEP
1 1 -30.479560 -41.000150 100.000000 0.000001 1.000000 0.000000 -1.000000 0.000001 0.000000 0.000000 0.000000 1.000000 32271.dat
1 1 39.520320 -41.000150 99.999940 0.000001 1.000000 0.000000 -1.000000 0.000001 0.000000 0.000000 0.000000 1.000000 32271.dat
0 STEP
1 1 -29.379580 -41.000060 -99.999940 0.000001 1.000000 0.000000 1.000000 0.000000 0.000000 0.000000 0.000000 -1.000000 32271.dat
1 1 39.520390 -41.000030 -99.999940 0.000001 1.000000 0.000000 1.000000 0.000000 0.000000 0.000000 0.000000 -1.000000 32271.dat
0 STEP
1 71 -29.860540 -41.000060 0.000000 0.000001 0.000000 -1.000000 0.000000 1.000000 0.000000 1.000000 0.000000 0.000001 3713.dat
1 0 -50.479430 -41.000400 -0.000120 -1.000000 0.000000 0.000000 0.000000 1.000000 0.000000 0.000000 0.000000 -1.000000 3737.dat
0 STEP
1 14 -44.299500 -41.000090 -0.000120 0.000000 0.000000 1.000000 0.000000 1.000000 0.000000 -1.000000 0.000000 0.000000 32123a.dat
1 71 -59.459540 -41.000120 -0.000120 0.000001 0.000000 -1.000000 0.000000 1.000000 0.000000 1.000000 0.000000 0.000001 3713.dat
0 STEP
0 NOFILE
