0 FILE 手杆秤.io
0 Untitled Model
0 Name:  手杆秤
0 Author:  
0 CustomBrick
0 NumOfBricks:  50
1 1 -160.000200 -89.000350 19.960560 1.000000 -0.000001 -0.000001 0.000001 0.000001 1.000003 -0.000001 -1.000003 0.000001 32526.dat
1 0 -120.000300 -9.000060 29.960660 0.000000 0.000000 -1.000000 0.000000 1.000003 0.000000 1.000003 0.000000 0.000000 2780.dat
0 STEP
1 0 -160.000300 -9.000110 29.960660 0.000000 0.000000 -1.000000 0.000000 1.000003 0.000000 1.000003 0.000000 0.000000 2780.dat
1 0 -160.000300 -49.000230 9.960589 0.000000 0.000000 -1.000000 0.000000 1.000003 0.000000 1.000003 0.000000 0.000000 2780.dat
0 STEP
1 1 -160.000200 -89.000350 -0.039470 0.000000 0.000000 1.000000 0.000000 1.000003 0.000000 -1.000003 0.000000 0.000000 6558.dat
1 15 -160.000300 -189.000600 -0.039410 1.000000 -0.000001 0.000001 -0.000001 -0.000001 1.000003 -0.000001 -1.000003 -0.000001 64871.dat
0 STEP
1 1 -160.000200 -69.000330 -20.039620 0.000000 0.000000 -1.000000 0.000000 1.000003 0.000000 1.000003 0.000000 0.000000 6558.dat
1 15 -160.000200 -89.000360 -20.039560 1.000000 -0.000001 0.000001 -0.000001 -0.000001 1.000003 -0.000001 -1.000003 -0.000001 32316.dat
0 STEP
1 0 -160.000200 -89.000380 -50.039730 0.000000 0.000000 -1.000000 0.000000 1.000003 0.000000 1.000003 0.000000 0.000000 2780.dat
1 1 -160.000300 -49.000280 -40.039680 0.000000 0.000000 -1.000000 0.000000 1.000003 0.000000 1.000003 0.000000 0.000000 6558.dat
1 15 -160.000100 -189.000700 -40.039750 -1.000000 0.000001 -0.000001 -0.000001 -0.000001 1.000003 0.000001 1.000003 0.000001 64871.dat
0 STEP
1 1 -160.000200 -89.000380 -60.039760 1.000000 -0.000001 -0.000001 0.000001 0.000001 1.000003 -0.000001 -1.000003 0.000001 32526.dat
1 0 -120.000700 -9.000030 -70.039840 0.000000 0.000000 -1.000000 0.000000 1.000005 0.000000 1.000005 0.000000 0.000000 2780.dat
1 0 -160.000600 -9.000080 -70.039780 0.000000 0.000000 -1.000000 0.000000 1.000005 0.000000 1.000005 0.000000 0.000000 2780.dat
0 STEP
1 15 -140.000600 -9.000050 -80.040210 0.000001 0.000001 -1.000000 -1.000003 0.000001 -0.000001 0.000001 1.000003 0.000001 64871.dat
1 15 -140.000400 -9.000090 39.960670 0.000001 0.000001 -1.000000 -1.000003 0.000001 -0.000001 0.000001 1.000003 0.000001 64871.dat
0 STEP
1 0 -160.000000 -229.000900 -50.039860 0.000000 0.000000 -1.000000 0.000000 1.000003 0.000000 1.000003 0.000000 0.000000 2780.dat
1 0 -160.000400 -229.000800 9.960660 0.000000 0.000000 -1.000000 0.000000 1.000003 0.000000 1.000003 0.000000 0.000000 2780.dat
0 STEP
1 15 -220.000400 -249.000900 -20.039310 0.000001 0.000001 -1.000000 -1.000003 0.000001 -0.000001 0.000001 1.000003 0.000001 32524.dat
1 71 -160.000400 -249.000900 -20.039370 0.000000 0.000000 1.000000 0.000000 1.000003 0.000000 -1.000003 0.000000 0.000000 32073.dat
0 STEP
1 71 -160.000400 -249.000900 -60.039520 -1.000000 -0.000001 0.000001 0.000001 -0.000001 1.000003 -0.000001 1.000003 0.000001 60483.dat
1 71 -160.000400 -249.000900 21.790660 -1.000000 -0.000001 0.000001 0.000001 -0.000001 1.000003 -0.000001 1.000003 0.000001 60483.dat
0 STEP
1 15 -140.000000 -329.001100 -19.999880 0.000001 0.000001 -1.000000 -1.000003 0.000001 -0.000001 0.000001 1.000003 0.000001 64871.dat
1 0 -159.999900 -329.001200 -19.979860 0.000000 0.000000 1.000000 0.000000 1.000003 0.000000 -1.000003 0.000000 0.000000 3705.dat
0 STEP
1 14 -159.999900 -329.001200 14.510180 0.000000 1.000000 0.000000 1.000003 0.000000 0.000000 0.000000 0.000000 -1.000003 32123a.dat
1 14 -159.999900 -329.001200 -54.979920 0.000000 1.000000 0.000000 1.000003 0.000000 0.000000 0.000000 0.000000 -1.000003 32123a.dat
0 STEP
1 1 10.000040 -329.001100 -30.000080 1.000000 0.000000 0.000000 0.000000 0.000000 1.000003 0.000000 -1.000003 0.000000 3666.dat
0 STEP
1 15 160.000100 -329.000900 -20.000190 0.000001 0.000001 -1.000000 -1.000003 0.000001 -0.000001 0.000001 1.000003 0.000001 64871.dat
1 1 10.000040 -329.001100 -10.000040 1.000000 0.000000 0.000000 0.000000 0.000000 -1.000003 0.000000 1.000003 0.000000 3666.dat
0 STEP
1 1 -280.000000 -249.000500 -40.000000 -1.000000 0.000001 0.000001 -0.000001 -0.000001 -1.000000 -0.000001 -1.000000 0.000001 32526.dat
1 19 -279.999900 -329.001300 -19.999820 0.000000 0.000000 -1.000000 0.000000 1.000003 0.000000 1.000003 0.000000 0.000000 32556.dat
1 19 -280.000400 -249.000900 -20.039310 0.000000 0.000000 -1.000000 0.000000 1.000003 0.000000 1.000003 0.000000 0.000000 32556.dat
0 STEP
1 15 -359.999900 -329.001300 -19.999880 0.000001 0.000001 -1.000000 -1.000003 0.000001 -0.000001 0.000001 1.000003 0.000001 32524.dat
1 1 -320.000000 -329.001300 -19.999940 0.000000 0.000000 -1.000000 0.000000 1.000003 0.000000 1.000003 0.000000 0.000000 6558.dat
1 1 -299.999900 -329.001300 -19.999940 0.000000 0.000000 -1.000000 0.000000 1.000003 0.000000 1.000003 0.000000 0.000000 6558.dat
0 STEP
1 1 -419.999900 -329.001300 -19.999880 0.000000 0.000000 -1.000000 0.000000 1.000003 0.000000 1.000003 0.000000 0.000000 6558.dat
1 1 -340.000000 -329.001300 -19.999940 0.000000 0.000000 -1.000000 0.000000 1.000003 0.000000 1.000003 0.000000 0.000000 6558.dat
1 15 -379.999900 -329.001300 -39.999950 0.000001 0.000001 -1.000000 -1.000003 0.000001 -0.000001 0.000001 1.000003 0.000001 32316.dat
0 STEP
1 1 -280.000000 -249.000900 0.000020 -1.000000 0.000001 0.000001 -0.000001 -0.000001 -1.000003 -0.000001 -1.000003 0.000001 32526.dat
1 15 -379.999900 -329.001300 0.000140 0.000001 0.000001 -1.000000 -1.000003 0.000001 -0.000001 0.000001 1.000003 0.000001 32316.dat
0 STEP
1 16 240.000300 -215.999400 -20.039820 1.000000 0.000000 0.000000 0.000000 1.000000 0.000000 0.000000 0.000000 1.000000 submodel group 1
0 STEP
0 STEP
0 NOFILE
0 FILE SubModel Group 1
0 SubModel Group 1
0 Name:  SubModel Group 1
0 Author:  
0 CustomBrick
0 NumOfBricks:  10
1 15 0.000050 -90.472200 -0.000200 1.000018 -0.000001 0.000001 0.000001 1.000021 0.000001 -0.000001 -0.000001 1.000003 32523.dat
1 0 0.000120 -50.470920 0.000650 0.000000 -1.000009 0.000000 -1.000012 0.000000 0.000000 0.000000 0.000000 -1.000003 15462.dat
0 STEP
1 0 0.000050 -100.472400 19.999830 0.000000 -1.000018 0.000000 1.000021 0.000000 0.000000 0.000000 0.000000 1.000003 2780.dat
1 0 0.000050 -100.472500 -20.000220 0.000000 -1.000018 0.000000 1.000021 0.000000 0.000000 0.000000 0.000000 1.000003 2780.dat
0 STEP
1 0 -0.000080 -27.000560 -0.000080 0.000000 1.000018 0.000000 0.000000 0.000000 -1.000021 -1.000003 0.000000 0.000000 44309.dat
1 71 0.000050 -27.000560 -0.000080 1.000018 0.000000 0.000000 0.000000 0.000000 -1.000021 0.000000 1.000003 0.000000 56145.dat
0 STEP
1 4 -0.000580 -120.472000 -19.999610 0.000000 1.000000 0.000000 1.000003 0.000000 0.000000 0.000000 0.000000 -1.000003 62462.dat
1 4 0.000050 -120.472500 19.999950 0.000000 1.000018 0.000000 1.000021 0.000000 0.000000 0.000000 0.000000 -1.000003 62462.dat
0 STEP
1 4 0.000050 -150.473300 -0.000140 -0.000001 -0.000001 -1.000018 1.000021 0.000001 -0.000001 0.000001 -1.000003 0.000001 32054.dat
1 72 0.000050 -150.473300 -0.000080 -1.000018 0.000000 0.000000 0.000000 0.000000 1.000021 0.000000 1.000003 0.000000 48989.dat
0 STEP
0 NOFILE
