0 FILE 抽油机器.io
0 Untitled Model
0 Name:  抽油机器
0 Author:  
0 CustomBrick
0 NumOfBricks:  67
1 1 -79.999900 -32.000000 110.000000 1.000000 0.000000 0.000000 0.000000 1.000000 0.000000 0.000000 0.000000 1.000000 3703.dat
1 0 -179.999900 -22.000000 100.000000 0.000000 0.000000 -1.000000 0.000000 -1.000000 0.000000 -1.000000 0.000000 0.000000 2780.dat
1 0 -139.999900 -22.000000 99.999980 0.000000 0.000000 -1.000000 0.000000 -1.000000 0.000000 -1.000000 0.000000 0.000000 2780.dat
0 STEP
1 0 -219.999900 -22.000000 100.000000 0.000000 0.000000 -1.000000 0.000000 -1.000000 0.000000 -1.000000 0.000000 0.000000 2780.dat
1 0 -199.999900 -22.000000 100.000000 0.000000 0.000000 -1.000000 0.000000 -1.000000 0.000000 -1.000000 0.000000 0.000000 2780.dat
0 STEP
1 1 -239.999800 -102.000100 89.999950 1.000000 -0.000001 -0.000001 0.000001 0.000001 1.000000 -0.000001 -1.000000 0.000001 32526.dat
1 1 -179.999800 -102.000100 89.999940 1.000000 -0.000001 -0.000001 0.000001 0.000001 1.000000 -0.000001 -1.000000 0.000001 32526.dat
0 STEP
1 0 -179.999700 -82.000060 99.999950 0.000000 -1.000000 0.000000 0.000000 0.000000 -1.000000 1.000000 0.000000 0.000000 2780.dat
1 0 -179.999700 -102.000000 99.999950 0.000000 -1.000000 0.000000 0.000000 0.000000 -1.000000 1.000000 0.000000 0.000000 2780.dat
1 15 -179.999500 -182.000100 109.999700 -1.000000 0.000001 -0.000001 -0.000001 -0.000001 1.000000 0.000001 1.000000 0.000001 64290.dat
0 STEP
1 1 -179.999500 -182.000000 109.999700 0.000000 0.000000 1.000000 0.000000 1.000000 0.000000 -1.000000 0.000000 0.000000 6558.dat
1 1 -60.000000 -22.000000 109.999900 0.000000 0.000000 1.000000 0.000000 1.000000 0.000000 -1.000000 0.000000 0.000000 6558.dat
1 15 -119.957300 -102.031700 89.999940 -0.799684 -0.000001 0.600422 0.600422 -0.000001 0.799684 0.000000 1.000000 0.000001 64290.dat
0 STEP
1 1 -79.999900 -32.000000 70.000000 1.000000 0.000000 0.000000 0.000000 1.000000 0.000000 0.000000 0.000000 1.000000 3703.dat
1 1 -40.000010 -8.000000 59.999990 0.000000 0.000000 1.000000 0.000000 1.000000 0.000000 -1.000000 0.000000 0.000000 32001.dat
1 1 -0.000010 -8.000000 59.999980 0.000000 0.000000 1.000000 0.000000 1.000000 0.000000 -1.000000 0.000000 0.000000 32001.dat
1 1 -219.999900 -8.000000 60.000020 0.000000 0.000000 1.000000 0.000000 1.000000 0.000000 -1.000000 0.000000 0.000000 32001.dat
0 STEP
1 1 59.999800 -101.999900 50.001080 -1.000000 0.000001 0.000001 0.000001 0.000001 0.999998 0.000001 0.999998 -0.000001 32526.dat
1 0 60.000120 -21.999840 60.000100 0.000000 0.000000 -1.000000 0.000000 1.000001 0.000000 1.000001 0.000000 0.000000 2780.dat
1 0 20.000230 -21.999840 60.000220 0.000000 0.000000 -1.000000 0.000000 1.000001 0.000000 1.000000 0.000000 0.000000 2780.dat
0 STEP
1 0 59.999940 -101.999900 60.431130 0.000001 0.029661 0.999560 0.000000 0.999556 -0.029661 -1.000000 0.000000 0.000001 3705.dat
1 71 59.999940 -101.999900 30.431120 0.999560 -0.029661 0.000001 -0.029661 -0.999560 0.000000 0.000001 0.000000 -1.000000 3649.dat
0 STEP
1 71 59.997800 -101.999900 70.431200 0.999560 0.029661 0.000000 -0.029661 0.999561 0.000000 0.000000 0.000000 1.000000 3713.dat
1 71 59.999700 -102.000100 90.431130 -0.999560 0.000000 -0.029660 0.029660 0.000001 -0.999556 0.000000 -1.000000 -0.000001 60483.dat
0 STEP
1 1 0.000100 -16.000000 -39.999790 0.000000 0.000000 1.000000 0.000000 1.000000 0.000000 -1.000000 0.000000 0.000000 3738.dat
1 1 -40.000140 -16.000000 -40.000160 0.000000 0.000000 1.000001 0.000000 1.000000 0.000000 -1.000001 0.000000 0.000000 3738.dat
1 1 -19.999910 -8.000000 -109.999800 1.000000 0.000000 0.000000 0.000000 1.000000 0.000000 0.000000 0.000000 1.000000 3710.dat
0 STEP
1 1 -20.000090 -40.000000 9.999980 1.000000 0.000000 0.000000 0.000000 1.000000 0.000000 0.000000 0.000000 1.000000 3701.dat
1 1 -20.000080 -24.000000 29.999990 1.000000 0.000000 0.000000 0.000000 1.000000 0.000000 0.000000 0.000000 1.000000 3710.dat
0 STEP
1 1 -20.000090 -40.000000 -90.000170 1.000000 0.000000 0.000000 0.000000 1.000000 0.000000 0.000000 0.000000 1.000000 3701.dat
1 1 -40.000140 -48.000000 -40.000400 0.000000 0.000000 1.000000 0.000000 1.000000 0.000000 -1.000000 0.000000 0.000000 32001.dat
0 STEP
1 1 -10.000080 -64.000000 -40.000220 0.000000 0.000000 1.000000 0.000000 1.000000 0.000000 -1.000000 0.000000 0.000000 3894.dat
1 1 9.999909 -64.000000 -40.000580 0.000000 0.000000 1.000000 0.000000 1.000000 0.000000 -1.000000 0.000000 0.000000 3894.dat
0 STEP
1 15 0.000000 -93.837160 20.000000 -1.000000 0.000000 0.000000 0.000000 1.000000 0.000000 0.000000 0.000000 -1.000000 dx0056.dat.dat
1 72 -0.000190 -94.000000 29.999580 -1.000000 0.000000 0.000000 0.000000 -1.000000 0.000000 0.000000 0.000000 1.000000 3647.dat
1 4 -0.000200 -94.000000 19.999610 0.000000 0.000000 -1.000000 0.000000 1.000000 0.000000 1.000000 0.000000 0.000000 32062.dat
0 STEP
1 15 -30.000080 -72.000000 -70.000400 0.000000 0.000000 1.000000 0.000000 1.000000 0.000000 -1.000000 0.000000 0.000000 3040b.dat
1 15 -30.000080 -72.000000 -10.000140 0.000000 0.000000 1.000002 0.000000 1.000000 0.000000 -1.000002 0.000000 0.000000 3040b.dat
1 15 -40.000390 -72.000000 -40.000710 1.000000 0.000000 0.000000 0.000000 1.000000 0.000000 0.000000 0.000000 1.000000 3941.dat
0 STEP
1 15 -119.957700 -102.031700 129.999800 -0.799684 -0.000001 0.600422 0.600422 -0.000001 0.799684 0.000000 1.000000 0.000001 64290.dat
0 STEP
1 71 59.561700 -122.036500 99.999130 -0.000001 0.333803 -0.942643 0.000000 0.942643 0.333803 1.000000 0.000000 -0.000001 3673.dat
1 15 29.593320 -196.211100 109.999100 0.927183 -0.000001 0.374606 -0.374605 -0.000001 0.927183 -0.000001 -1.000000 -0.000001 40490.dat
0 STEP
1 19 -179.999500 -282.000000 109.999600 0.000000 0.000000 1.000000 0.000000 1.000000 0.000000 -1.000000 0.000000 0.000000 32556.dat
1 19 -0.375070 -270.385500 109.999200 0.000000 -0.064524 0.997916 0.000000 0.997916 0.064524 -1.000000 0.000000 0.000000 32556.dat
1 15 -140.082800 -279.418900 89.999450 0.064525 0.000001 -0.997916 -0.997916 0.000001 -0.064525 0.000001 1.000000 0.000001 64871.dat
0 STEP
1 1 -219.883900 -285.138300 69.999650 0.050589 -0.000001 -0.998720 -0.998720 0.000001 -0.050589 0.000001 1.000000 -0.000001 32140.dat
1 0 -259.832600 -287.161900 79.999660 0.000000 0.000000 -1.000000 0.000000 1.000000 0.000000 1.000000 0.000000 0.000000 2780.dat
1 0 -239.858300 -286.150100 79.999660 0.000000 0.000000 -1.000000 0.000000 1.000000 0.000000 1.000000 0.000000 0.000000 2780.dat
0 STEP
1 16 -263.480500 -22.146530 107.571200 0.999945 -0.010472 0.000000 0.010472 0.999945 0.000000 0.000000 0.000000 1.000000 submodel group 1
0 STEP
1 15 -140.082800 -279.418900 129.999500 0.064525 0.000001 -0.997916 -0.997916 0.000001 -0.064525 0.000001 1.000000 0.000001 64871.dat
0 STEP
1 0 -259.832800 -287.161900 139.999600 0.000000 0.000000 -1.000000 0.000000 1.000000 0.000000 1.000000 0.000000 0.000000 2780.dat
1 0 -239.874400 -285.871400 139.999600 0.000000 0.000000 -1.000000 0.000000 1.000000 0.000000 1.000000 0.000000 0.000000 2780.dat
1 1 -219.900000 -284.859600 149.999700 0.050589 -0.000001 -0.998720 -0.998720 0.000001 -0.050589 0.000001 1.000000 -0.000001 32140.dat
0 STEP
1 1 -219.999900 -16.000000 0.000010 0.000000 0.000000 1.000000 0.000000 1.000000 0.000000 -1.000000 0.000000 0.000000 3709b.dat
1 1 -219.999900 -8.000000 -60.000020 0.000000 0.000000 1.000000 0.000000 1.000000 0.000000 -1.000000 0.000000 0.000000 32001.dat
0 STEP
1 15 -210.000000 -40.000000 -30.000000 0.000000 0.000000 1.000001 0.000000 1.000000 0.000000 -1.000001 0.000000 0.000000 3040b.dat
1 15 -209.999900 -40.000000 30.000610 0.000000 0.000000 1.000000 0.000000 1.000000 0.000000 -1.000000 0.000000 0.000000 3040b.dat
1 15 -219.999900 -40.000000 0.000010 1.000000 0.000000 0.000000 0.000000 1.000000 0.000000 0.000000 0.000000 1.000000 3941.dat
1 16 200.000000 -9.000000 -221.000000 0.000000 0.000000 -1.000000 0.000000 1.000000 0.000000 1.000000 0.000000 0.000000 submodel group 9 copy copy copy
0 STEP
0 STEP
0 NOFILE
0 FILE SubModel Group 1
0 SubModel Group 1
0 Name:  SubModel Group 1
0 Author:  
0 CustomBrick
0 NumOfBricks:  7
1 71 -18.683730 -190.835900 2.425720 0.000000 0.000000 0.999995 -0.999996 0.000000 0.000000 0.000000 -1.000005 0.000000 32073.dat
1 19 -19.098230 -266.120500 2.428520 0.000000 0.010472 0.999945 0.000000 0.999945 -0.010472 -1.000000 0.000000 0.000000 32556.dat
1 0 -19.098230 -266.120500 2.428520 0.000002 -0.999993 0.003496 0.000000 -0.003496 -0.999993 1.000000 0.000002 0.000000 32013.dat
0 STEP
1 71 -18.684780 -140.835800 2.431660 1.000000 0.000000 0.000001 0.000001 0.000000 0.999998 0.000000 -1.000000 0.000000 59443.dat
1 71 -17.182340 -69.909560 2.428530 0.026181 -0.999657 0.000000 0.999658 0.026181 0.000001 -0.000001 0.000000 1.000000 44294.dat
0 STEP
1 19 22.643240 -80.095040 -7.571220 -0.000001 0.999656 0.026181 0.000001 -0.026181 0.999656 1.000000 0.000001 -0.000001 3749.dat
1 4 2.649780 -79.581460 2.428560 0.000001 -0.999657 0.026181 0.000000 0.026181 0.999657 -1.000000 -0.000001 -0.000001 42003.dat
0 STEP
0 NOFILE
0 FILE SubModel Group 9 Copy Copy Copy
0 SubModel Group 9 Copy Copy Copy
0 Name:  SubModel Group 9 Copy Copy Copy
0 Author:  
0 CustomBrick
0 NumOfBricks:  3
1 72 10.000000 -1.128810 -10.000000 1.000000 0.000000 0.000000 0.000000 0.000000 -1.000000 0.000000 1.000000 0.000000 dch003.dat
1 71 -27.466620 -79.717990 29.427020 1.000000 0.000000 0.000000 0.000000 0.000000 -1.000000 0.000000 1.000000 0.000000 dch004.dat
1 25 7.837010 13.484720 -9.965000 1.000000 0.000000 0.000000 0.000000 0.000000 -1.000000 0.000000 1.000000 0.000000 dch005.dat
0 NOFILE
