0 FILE 钟摆.io
0 Untitled Model
0 Name:  钟摆
0 Author:  
0 CustomBrick
0 NumOfBricks:  37
1 1 -39.998920 -32.000000 -69.999530 1.000000 0.000000 0.000000 0.000000 1.000000 0.000000 0.000000 0.000000 1.000000 3701.dat
1 0 -39.998930 -22.000000 -79.999560 0.000000 0.000000 -1.000000 0.000000 1.000000 0.000000 1.000000 0.000000 0.000000 2780.dat
0 STEP
1 1 -39.998930 -40.000010 -60.000020 -1.000000 0.000000 0.000000 0.000000 1.000000 0.000000 0.000000 0.000000 -1.000000 3709b.dat
1 1 -39.998340 -48.000020 -69.999490 0.999997 0.000000 0.000000 0.000000 1.000000 0.000000 0.000000 0.000000 1.000000 3710.dat
0 STEP
1 1 -39.998930 -72.000010 -69.999490 1.000000 0.000000 0.000000 0.000000 1.000000 0.000000 0.000000 0.000000 1.000000 3700.dat
1 0 -39.998930 -62.000020 -79.999560 0.000000 0.000000 -1.000000 0.000000 1.000000 0.000000 1.000000 0.000000 0.000000 2780.dat
0 STEP
1 15 -39.999050 -162.000000 -89.999560 1.000000 -0.000001 0.000001 -0.000001 -0.000001 1.000000 -0.000001 -1.000000 -0.000001 64871.dat
0 STEP
1 0 -39.999130 -81.999950 -99.999680 0.000000 0.000000 -1.000000 0.000000 1.000000 0.000000 1.000000 0.000000 0.000000 2780.dat
1 0 -40.000620 -222.000000 -100.000000 0.000000 0.000000 -1.000003 0.000000 1.000000 0.000000 1.000003 0.000000 0.000000 2780.dat
0 STEP
1 15 -40.000550 -162.000000 -110.000100 1.000000 -0.000001 0.000001 -0.000001 -0.000001 1.000000 -0.000001 -1.000000 -0.000001 64871.dat
0 STEP
1 16 -40.000420 -8.000000 -126.333400 1.000000 0.000000 0.000000 0.000000 1.000000 0.000000 0.000000 0.000000 1.000000 submodel group 2
0 STEP
1 1 -40.000360 -32.000000 -150.000100 1.000000 0.000000 0.000000 0.000000 1.000000 0.000000 0.000000 0.000000 1.000000 3703.dat
1 1 -40.000400 -32.000000 -50.000000 1.000000 0.000000 0.000000 0.000000 1.000000 0.000000 0.000000 0.000000 1.000000 3703.dat
0 STEP
1 1 -180.000400 -8.000000 -99.999980 0.000001 0.000000 1.000000 0.000000 1.000000 0.000000 -1.000000 0.000000 0.000001 32001.dat
1 1 99.999740 -8.000000 -100.000000 0.000000 0.000000 1.000000 0.000000 1.000000 0.000000 -1.000000 0.000000 0.000000 32001.dat
0 STEP
1 0 -39.999160 -262.000000 -79.999500 0.000000 0.000000 -0.999997 0.000000 1.000000 0.000000 1.000000 0.000000 0.000000 2780.dat
1 0 -39.999200 -302.000000 -79.999370 0.000000 0.000000 -0.999997 0.000000 1.000000 0.000000 1.000000 0.000000 0.000000 2780.dat
0 STEP
1 0 -40.000640 -262.000000 -120.000000 0.000000 0.000000 -0.999997 0.000000 1.000000 0.000000 1.000000 0.000000 0.000000 2780.dat
1 0 -40.000680 -302.000000 -119.999900 0.000000 0.000000 -0.999997 0.000000 1.000000 0.000000 1.000000 0.000000 0.000000 2780.dat
0 STEP
1 1 -49.999120 -362.000000 -69.999370 0.000000 0.999997 0.000000 1.000000 0.000000 0.000000 0.000000 0.000000 -1.000000 3895.dat
0 STEP
1 1 -50.000680 -362.000000 -129.999900 0.000000 0.999997 0.000000 -1.000000 0.000000 0.000000 0.000000 0.000000 1.000000 3895.dat
1 19 -40.000680 -462.000000 -139.999900 0.000001 -0.999997 0.000001 0.000001 0.000001 1.000000 -1.000000 -0.000001 0.000001 3749.dat
0 STEP
1 1 -26.000760 -462.000000 -99.999870 0.000000 0.999997 0.000000 0.000000 0.000000 -1.000000 -1.000000 0.000000 0.000000 3709b.dat
1 1 -57.999090 -462.000000 -99.999370 0.000000 0.999997 0.000000 0.000000 0.000000 -1.000000 -1.000000 0.000000 0.000000 3709b.dat
0 STEP
1 16 -40.000650 -112.000000 -197.749900 1.000000 0.000000 0.000000 0.000000 1.000000 0.000000 0.000000 0.000000 1.000000 submodel group 1
0 STEP
0 STEP
0 NOFILE
0 FILE SubModel Group 2
0 SubModel Group 2
0 Name:  SubModel Group 2
0 Author:  
0 CustomBrick
0 NumOfBricks:  6
1 1 0.000000 -24.000000 -3.666660 1.000000 0.000000 0.000000 0.000000 1.000000 0.000000 0.000000 0.000000 1.000000 3701.dat
1 0 0.000000 -13.999820 6.333350 0.000000 0.000000 -1.000000 0.000000 1.000000 0.000000 1.000000 0.000000 0.000000 2780.dat
0 STEP
1 1 0.000030 -32.000000 -13.666720 -1.000000 0.000000 0.000000 0.000000 1.000000 0.000000 0.000000 0.000000 -1.000000 3709b.dat
1 1 0.000000 -40.000000 -3.666660 1.000000 0.000000 0.000000 0.000000 1.000000 0.000000 0.000000 0.000000 1.000000 3710.dat
0 STEP
1 1 0.000000 -64.000000 -3.666660 1.000000 0.000000 0.000000 0.000000 1.000000 0.000000 0.000000 0.000000 1.000000 3700.dat
1 0 0.000000 -54.000000 6.333350 0.000000 0.000000 -1.000000 0.000000 1.000000 0.000000 1.000000 0.000000 0.000000 2780.dat
0 STEP
0 NOFILE
0 FILE SubModel Group 1
0 SubModel Group 1
0 Name:  SubModel Group 1
0 Author:  
0 CustomBrick
0 NumOfBricks:  8
1 0 0.000010 -40.000000 -12.249970 0.000000 0.000000 0.999997 -1.000000 0.000000 0.000000 0.000000 -1.000000 0.000000 3705.dat
1 0 0.000030 -20.296740 -12.249970 -0.999997 0.000000 -0.000001 -0.000001 0.000000 1.000000 0.000000 1.000000 0.000000 30391.dat
1 71 0.000030 -20.040010 -12.249970 0.000000 0.999997 0.000000 0.000000 0.000000 1.000000 1.000000 0.000000 0.000000 55982.dat
0 STEP
1 4 0.000010 -89.999980 -12.249970 -0.999997 0.000000 0.000000 0.000000 0.000000 1.000000 0.000000 1.000000 0.000000 32034.dat
1 0 0.000000 -220.000000 -12.250030 0.000000 0.000000 0.999997 -1.000000 0.000000 0.000000 0.000000 -1.000000 0.000000 3708.dat
0 STEP
1 4 -0.000030 -349.999900 -2.250030 0.000000 0.000000 -0.999997 0.000000 1.000000 0.000000 1.000000 0.000000 0.000000 32062.dat
1 4 -0.000020 -330.000000 -12.250030 0.000000 0.999997 0.000001 0.000000 -0.000001 1.000000 1.000000 0.000000 0.000000 32039.dat
0 STEP
1 4 -0.000030 -349.999900 27.749980 -0.999997 0.000000 0.000000 0.000000 -1.000000 0.000000 0.000000 0.000000 1.000000 32034.dat
0 STEP
0 NOFILE
