0 Untitled Model
0 Name:  烧烤架
0 Author:  
0 CustomBrick
0 NumOfBricks:  103
1 1 -10.000130 -10.000110 -10.000450 1.000001 0.000001 0.000000 -0.000001 1.000000 0.000000 0.000000 0.000000 1.000001 6558.dat
1 1 -10.000120 -10.000140 29.999530 1.000001 0.000001 0.000000 -0.000001 1.000000 0.000000 0.000000 0.000000 1.000001 6558.dat
1 15 -10.000250 -10.000160 9.999640 0.000000 1.000001 0.000001 -1.000000 0.000000 -0.000001 -0.000001 -0.000001 1.000001 32523.dat
0 STEP
1 71 -90.000080 -10.000040 9.999969 0.000000 0.000001 1.000001 0.000000 1.000000 -0.000001 -1.000001 0.000000 0.000000 64179.dat
1 71 69.999940 -10.000170 9.999519 0.000000 0.000001 1.000001 0.000000 1.000000 -0.000001 -1.000001 0.000000 0.000000 64179.dat
0 STEP
1 0 -130.000300 -10.000020 39.999880 0.000000 0.000001 -1.000001 0.000000 1.000000 0.000001 1.000001 0.000000 0.000000 2780.dat
1 0 -50.000070 -10.000070 39.999990 0.000000 0.000001 -1.000001 0.000000 1.000000 0.000001 1.000001 0.000000 0.000000 2780.dat
1 0 -50.000200 -10.000070 -20.000200 0.000000 0.000001 -1.000001 0.000000 1.000000 0.000001 1.000001 0.000000 0.000000 2780.dat
1 0 -130.000200 -10.000020 -20.000180 0.000000 0.000001 -1.000001 0.000000 1.000000 0.000001 1.000001 0.000000 0.000000 2780.dat
0 STEP
1 1 -50.000190 -10.000170 29.999980 -0.000002 -0.000001 -1.000001 -1.000000 0.000001 0.000002 0.000001 1.000001 -0.000001 32526.dat
1 1 -50.000200 -10.000080 -10.000190 -0.000002 -0.000001 -1.000001 -1.000000 0.000001 0.000002 0.000001 1.000001 -0.000001 32526.dat
0 STEP
1 0 29.999790 -10.000140 39.999540 0.000000 0.000001 -1.000001 0.000000 1.000000 0.000001 1.000001 0.000000 0.000000 2780.dat
1 0 110.000000 -10.000200 39.999520 0.000000 0.000001 -1.000001 0.000000 1.000000 0.000001 1.000001 0.000000 0.000000 2780.dat
1 0 110.000000 -10.000200 -20.000700 0.000000 0.000001 -1.000001 0.000000 1.000000 0.000001 1.000001 0.000000 0.000000 2780.dat
1 0 29.999780 -10.000140 -20.000500 0.000000 0.000001 -1.000001 0.000000 1.000000 0.000001 1.000001 0.000000 0.000000 2780.dat
0 STEP
1 1 29.999900 -10.000220 29.999400 0.000000 0.000001 1.000001 -1.000000 0.000001 0.000000 -0.000001 -1.000001 0.000001 32526.dat
1 1 29.999900 -10.000220 -10.000690 0.000000 0.000001 1.000001 -1.000000 0.000001 0.000000 -0.000001 -1.000001 0.000001 32526.dat
0 STEP
1 1 89.999930 -30.000180 -30.000510 -0.000001 0.000000 1.000001 -1.000000 0.000000 -0.000001 0.000000 -1.000001 0.000000 6558.dat
1 1 -110.000200 -30.000020 -30.000060 -0.000001 0.000000 1.000001 -1.000000 0.000000 -0.000001 0.000000 -1.000001 0.000000 6558.dat
1 1 89.999900 -30.000180 49.999540 -0.000001 0.000000 1.000000 -1.000000 0.000000 -0.000001 0.000000 -1.000000 0.000000 6558.dat
1 1 -110.000100 -30.000020 50.000000 -0.000001 0.000000 1.000001 -1.000000 0.000000 -0.000001 0.000000 -1.000001 0.000000 6558.dat
0 STEP
1 15 -10.000140 -30.000200 49.999440 0.000001 0.000000 -1.000001 -0.000001 -1.000000 0.000000 -1.000001 0.000001 -0.000001 64290.dat
1 15 -10.000160 -50.000200 49.999440 0.000001 0.000000 -1.000001 -0.000001 -1.000000 0.000000 -1.000001 0.000001 -0.000001 64290.dat
0 STEP
1 15 -10.000060 -30.000010 -30.000010 0.000001 0.000000 -1.000001 -0.000001 -1.000000 0.000000 -1.000001 0.000001 -0.000001 64290.dat
1 15 -10.000160 -50.000020 -30.000010 0.000001 0.000000 -1.000001 -0.000001 -1.000000 0.000000 -1.000001 0.000001 -0.000001 64290.dat
0 STEP
1 0 -130.000300 -49.999940 -20.000310 0.000000 0.000001 -1.000001 0.000000 1.000000 0.000001 1.000001 0.000000 0.000000 2780.dat
1 0 -130.000300 -29.999930 -20.000310 0.000000 0.000001 -1.000001 0.000000 1.000000 0.000001 1.000001 0.000000 0.000000 2780.dat
1 0 -130.000300 -50.000040 39.999880 0.000000 0.000001 -1.000001 0.000000 1.000000 0.000001 1.000001 0.000000 0.000000 2780.dat
1 0 -130.000300 -30.000030 39.999750 0.000000 0.000001 -1.000001 0.000000 1.000000 0.000001 1.000001 0.000000 0.000000 2780.dat
1 1 -150.000200 -30.000000 -30.000060 -0.000001 0.000000 1.000001 -1.000000 0.000000 -0.000001 0.000000 -1.000001 0.000000 6558.dat
1 1 -150.000200 -30.000000 50.000020 -0.000001 0.000000 1.000001 -1.000000 0.000000 -0.000001 0.000000 -1.000001 0.000000 6558.dat
0 STEP
1 15 -130.000400 -89.999940 -30.000300 -1.000001 0.000001 -0.000002 0.000002 0.000001 -1.000000 -0.000001 -1.000001 -0.000001 32524.dat
1 15 -150.000200 -29.999960 9.999969 -1.000001 0.000000 -0.000001 0.000000 -1.000000 -0.000001 -0.000001 -0.000001 1.000001 32316.dat
1 15 -130.000400 -90.000030 49.999760 -1.000001 0.000001 -0.000002 0.000002 0.000001 -1.000000 -0.000001 -1.000001 -0.000001 32524.dat
1 15 -150.000200 -49.999960 9.999969 -1.000001 0.000000 -0.000001 0.000000 -1.000000 -0.000001 -0.000001 -0.000001 1.000001 32316.dat
0 STEP
1 0 109.999900 -50.000200 -20.000700 0.000000 0.000001 -1.000001 0.000000 1.000000 0.000001 1.000001 0.000000 0.000000 2780.dat
1 0 109.999900 -30.000200 -20.000700 0.000000 0.000001 -1.000001 0.000000 1.000000 0.000001 1.000001 0.000000 0.000000 2780.dat
1 0 109.999900 -50.000180 39.999400 0.000000 0.000001 -1.000001 0.000000 1.000000 0.000001 1.000001 0.000000 0.000000 2780.dat
1 0 110.000000 -30.000190 39.999400 0.000000 0.000001 -1.000001 0.000000 1.000000 0.000001 1.000001 0.000000 0.000000 2780.dat
0 STEP
1 1 130.000000 -30.000220 -30.000510 -0.000001 0.000000 1.000001 -1.000000 0.000000 -0.000001 0.000000 -1.000001 0.000000 6558.dat
1 15 109.999800 -90.000230 -30.000700 -1.000001 0.000001 -0.000002 0.000002 0.000001 -1.000000 -0.000001 -1.000001 -0.000001 32524.dat
1 15 109.999900 -90.000230 49.999360 -1.000001 0.000001 -0.000002 0.000002 0.000001 -1.000000 -0.000001 -1.000001 -0.000001 32524.dat
1 1 130.000000 -30.000220 49.999540 -0.000001 0.000000 1.000001 -1.000000 0.000000 -0.000001 0.000000 -1.000001 0.000000 6558.dat
0 STEP
1 15 129.999900 -30.000160 9.999929 -1.000001 0.000000 -0.000001 0.000000 -1.000000 -0.000001 -0.000001 -0.000001 1.000001 32316.dat
1 15 130.000000 -50.000180 9.999619 -1.000001 0.000000 -0.000001 0.000000 -1.000000 -0.000001 -0.000001 -0.000001 1.000001 32316.dat
0 STEP
1 0 109.999800 -150.000200 59.999370 0.000000 0.000001 -1.000001 0.000000 1.000000 0.000001 1.000001 0.000000 0.000000 2780.dat
1 0 -130.000500 -150.000000 59.999700 0.000000 0.000001 -1.000001 0.000000 1.000000 0.000001 1.000001 0.000000 0.000000 2780.dat
1 0 -130.000500 -149.999800 -40.000420 0.000000 0.000001 -1.000001 0.000000 1.000000 0.000001 1.000001 0.000000 0.000000 2780.dat
1 0 109.999800 -150.000200 -40.000700 0.000000 0.000001 -1.000001 0.000000 1.000000 0.000001 1.000001 0.000000 0.000000 2780.dat
0 STEP
1 15 -10.000340 -150.000000 69.999460 0.000000 0.000001 -1.000001 -1.000000 0.000001 0.000000 0.000001 1.000001 0.000001 64871.dat
1 15 -10.000360 -150.000200 -50.000710 0.000000 0.000001 -1.000001 -1.000000 0.000001 0.000000 0.000001 1.000001 0.000001 64871.dat
0 STEP
1 0 -70.000450 -150.000200 0.289480 0.000000 0.000001 1.000001 0.000000 1.000000 -0.000001 -1.000001 0.000000 0.000000 3737.dat
1 14 -70.000430 -150.000200 55.009580 -1.000001 0.000001 0.000000 0.000001 1.000000 0.000000 0.000000 0.000000 -1.000001 32123a.dat
1 14 -70.000450 -150.000200 -34.710510 -1.000001 0.000001 0.000000 0.000001 1.000000 0.000000 0.000000 0.000000 -1.000001 32123a.dat
0 STEP
1 72 -70.000460 -150.000200 -69.710580 1.000001 -0.000001 0.000000 -0.000001 -1.000000 0.000000 0.000000 0.000000 -1.000001 3648b.dat
1 71 -70.000460 -150.000200 -89.950500 1.000001 0.000001 0.000001 -0.000001 1.000000 0.000000 -0.000001 0.000000 1.000001 3713.dat
1 71 -70.000430 -150.000200 90.289580 -1.000001 0.000001 -0.000001 0.000001 1.000000 0.000000 0.000001 0.000000 -1.000001 3713.dat
0 STEP
1 14 -30.000410 -150.000300 -34.840700 0.461752 0.887010 0.000000 0.887010 -0.461752 0.000000 0.000000 0.000000 -1.000001 32123a.dat
1 0 -30.000400 -150.000300 0.159420 0.000000 0.461751 0.887010 0.000000 0.887010 -0.461751 -1.000001 0.000000 0.000000 3737.dat
1 14 -30.000400 -150.000300 55.019460 0.461751 0.887010 0.000000 0.887010 -0.461751 0.000000 0.000000 0.000000 -1.000001 32123a.dat
0 STEP
1 72 -30.000410 -150.000300 -69.840660 -0.461751 -0.887010 0.000000 -0.887010 0.461751 0.000000 0.000000 0.000000 -1.000001 3647.dat
1 71 -30.000420 -150.000300 -90.040720 0.887010 0.461751 0.000000 -0.461751 0.887010 0.000000 0.000000 0.000000 1.000001 3713.dat
1 71 -30.000390 -150.000300 90.159500 -0.887010 0.461751 0.000000 0.461751 0.887010 0.000000 0.000000 0.000000 -1.000001 3713.dat
0 STEP
1 14 9.999670 -150.000200 -34.700560 1.000001 0.000001 0.000000 -0.000001 1.000000 0.000000 0.000000 0.000000 1.000001 32123a.dat
1 14 9.999680 -150.000100 54.819440 1.000001 0.000001 0.000000 -0.000001 1.000000 0.000000 0.000000 0.000000 1.000001 32123a.dat
1 71 9.999670 -150.000200 10.299440 0.000000 0.000001 1.000001 0.000000 1.000000 -0.000001 -1.000001 0.000000 0.000000 60485.dat
0 STEP
1 72 9.999660 -150.000200 -69.700640 1.000001 -0.000001 0.000000 -0.000001 -1.000000 0.000000 0.000000 0.000000 -1.000001 3648b.dat
1 71 9.999680 -150.000200 90.299510 1.000001 0.000001 0.000001 -0.000001 1.000000 0.000000 -0.000001 0.000000 1.000001 3713.dat
0 STEP
1 14 49.999600 -150.000200 54.989480 -0.452437 0.891797 0.000000 -0.891797 -0.452437 0.000000 0.000000 0.000000 1.000001 32123a.dat
1 14 49.999500 -150.000200 -35.000700 -0.452437 0.891797 0.000000 -0.891797 -0.452437 0.000000 0.000000 0.000000 1.000001 32123a.dat
1 71 49.999500 -150.000200 -10.000690 0.000000 0.452436 0.891797 0.000000 0.891797 -0.452436 -1.000001 0.000000 0.000000 60485.dat
0 STEP
1 72 49.999500 -150.000200 -70.000760 -0.452436 -0.891797 0.000000 -0.891797 0.452436 0.000000 0.000000 0.000000 -1.000001 3647.dat
1 71 49.999500 -150.000200 -90.000800 0.891797 0.452437 0.000000 -0.452437 0.891797 0.000000 0.000000 0.000000 1.000001 3713.dat
0 STEP
1 72 89.999500 -150.000100 -70.000770 1.000001 -0.000001 0.000000 -0.000001 -1.000000 0.000000 0.000000 0.000000 -1.000001 3648b.dat
1 14 89.999500 -150.000100 -35.000700 0.000001 1.000001 0.000000 1.000000 -0.000001 0.000000 0.000000 0.000000 -1.000001 32123a.dat
1 14 89.999520 -150.000100 55.109220 0.000001 1.000001 0.000000 1.000000 -0.000001 0.000000 0.000000 0.000000 -1.000001 32123a.dat
1 0 89.999520 -150.000100 -0.000700 0.000000 0.000001 1.000001 0.000000 1.000000 -0.000001 -1.000001 0.000000 0.000000 3707.dat
0 STEP
1 72 -110.000800 -150.000500 -70.280520 -0.860742 -0.509043 0.000000 0.509041 -0.860742 0.000000 0.000000 0.000000 1.000001 3647.dat
1 0 -110.000700 -150.000300 -20.280400 0.000000 0.509043 0.860742 0.000000 0.860742 -0.509041 -1.000001 0.000000 0.000000 3708.dat
1 71 -110.000700 -150.000300 -88.950370 0.860742 0.509043 0.000000 -0.509041 0.860742 0.000000 0.000000 0.000000 1.000001 3713.dat
1 71 -110.000500 -150.000400 89.719690 -0.860742 0.509043 -0.000001 0.509041 0.860742 0.000000 0.000001 0.000000 -1.000001 3713.dat
0 STEP
1 71 -110.000700 -150.000300 -109.230500 0.860742 0.509043 0.000000 -0.509041 0.860742 0.000000 0.000000 0.000000 1.000001 3713.dat
1 4 -144.430400 -129.638600 -160.280500 0.000000 0.000001 1.000001 0.000000 1.000000 -0.000001 -1.000001 0.000000 0.000000 62462.dat
1 71 -110.000700 -150.000300 -130.280500 0.509043 0.000000 -0.860742 0.860742 0.000001 0.509041 0.000001 -1.000001 0.000000 33299.dat
0 STEP
1 1 -90.000080 -10.000040 -50.000060 0.000000 0.000000 1.000000 0.000000 1.000000 0.000000 -1.000000 0.000000 0.000000 6558.dat
1 1 70.000320 -10.000090 -50.000360 0.000000 0.000000 1.000006 0.000000 0.999999 0.000000 -1.000004 0.000000 0.000000 6558.dat
0 STEP
1 1 -10.000060 -20.000220 -49.999440 1.000006 0.000000 0.000000 0.000000 0.999999 0.000000 0.000000 0.000000 1.000003 3703.dat
1 1 -10.000150 -20.000210 -69.999920 1.000006 0.000000 0.000000 0.000000 0.999999 0.000000 0.000000 0.000000 1.000004 3703.dat
1 1 -50.000570 -10.000010 -90.000320 0.000000 0.000000 1.000006 0.000000 0.999999 0.000000 -1.000004 0.000000 0.000000 6558.dat
1 1 110.000400 -9.999889 -90.000670 0.000000 0.000000 1.000007 0.000000 0.999999 0.000000 -1.000005 0.000000 0.000000 6558.dat
0 STEP
1 1 -10.000020 -20.000010 -89.999850 1.000006 0.000000 0.000000 0.000000 0.999999 0.000000 0.000000 0.000000 1.000004 3703.dat
1 1 -10.000110 -20.000000 -110.000300 1.000006 0.000000 0.000000 0.000000 0.999999 0.000000 0.000000 0.000000 1.000004 3703.dat
1 1 90.000240 -9.999889 -130.001400 0.000000 0.000000 1.000007 0.000000 0.999999 0.000000 -1.000005 0.000000 0.000000 6558.dat
1 1 -70.000760 -10.000010 -130.000900 0.000000 0.000000 1.000006 0.000000 0.999999 0.000000 -1.000004 0.000000 0.000000 6558.dat
0 STEP
1 1 -10.000180 -19.999980 -130.000400 1.000006 0.000000 0.000000 0.000000 0.999999 0.000000 0.000000 0.000000 1.000004 3703.dat
1 1 -10.000280 -20.000020 -150.000900 1.000006 0.000000 0.000000 0.000000 0.999999 0.000000 0.000000 0.000000 1.000004 3703.dat
0 STEP
1 1 50.000190 -43.999960 -150.000900 1.000006 0.000000 0.000000 0.000000 0.999999 0.000000 0.000000 0.000000 1.000004 3702.dat
1 1 -40.000440 -43.999940 -100.000300 0.000000 0.000000 1.000006 0.000000 0.999999 0.000000 -1.000004 0.000000 0.000000 3894.dat
1 1 140.000800 -43.999940 -100.000600 0.000000 0.000000 1.000006 0.000000 0.999999 0.000000 -1.000004 0.000000 0.000000 3894.dat
1 1 50.000360 -44.000080 -49.999420 1.000006 0.000000 0.000000 0.000000 0.999999 0.000000 0.000000 0.000000 1.000004 3702.dat
0 STEP
1 1 50.000230 -51.999900 -100.000600 0.000000 0.000000 1.000006 0.000000 0.999999 0.000000 -1.000004 0.000000 0.000000 32001.dat
1 1 -0.000180 -51.999900 -100.000600 0.000000 0.000000 -1.000006 0.000000 0.999999 0.000000 1.000004 0.000000 0.000000 3666.dat
1 1 100.000500 -51.999940 -100.000600 0.000000 0.000000 -1.000006 0.000000 0.999999 0.000000 1.000004 0.000000 0.000000 3666.dat
0 STEP
0 STEP
