0 FILE 天平3.io
0 Untitled Model
0 Name:  天平3
0 Author:  
0 CustomBrick
0 NumOfBricks:  63
1 1 0.000080 -32.000000 10.000030 1.000001 0.000000 0.000000 0.000000 1.000000 0.000000 0.000000 0.000000 1.000001 3895.dat
1 1 0.000080 -40.000020 10.000030 1.000001 0.000000 0.000000 0.000000 1.000000 0.000000 0.000000 0.000000 1.000001 3710.dat
0 STEP
1 1 0.000080 -71.999960 10.000030 1.000001 0.000000 0.000000 0.000000 1.000000 0.000000 0.000000 0.000000 1.000001 3701.dat
1 1 0.000080 -48.000020 10.000030 1.000001 0.000000 0.000000 0.000000 1.000000 0.000000 0.000000 0.000000 1.000001 3710.dat
0 STEP
1 1 0.000140 -62.000000 -9.999990 0.000000 0.000000 1.000001 0.000000 1.000000 0.000000 -1.000001 0.000000 0.000000 6558.dat
1 1 0.000140 -22.000000 -9.999990 0.000000 0.000000 1.000001 0.000000 1.000000 0.000000 -1.000001 0.000000 0.000000 6558.dat
1 15 0.000140 -102.000000 -9.999990 -1.000001 0.000001 -0.000001 0.000001 0.000001 -1.000000 -0.000001 -1.000001 -0.000001 40490.dat
0 STEP
1 16 0.000090 -8.000000 -30.000020 1.000000 0.000000 0.000000 0.000000 1.000000 0.000000 0.000000 0.000000 1.000000 submodel group 1
0 STEP
1 1 100.000200 -8.000000 -20.000020 0.000000 0.000000 1.000001 0.000000 1.000000 0.000000 -1.000001 0.000000 0.000000 32001.dat
1 15 100.000200 -32.000000 30.000040 1.000001 0.000000 0.000000 0.000000 1.000000 0.000000 0.000000 0.000000 1.000001 32064a.dat
1 15 100.000200 -32.000000 -60.000060 1.000001 0.000000 0.000000 0.000000 1.000000 0.000000 0.000000 0.000000 1.000001 3941.dat
0 STEP
1 1 110.000300 -56.000000 -20.000020 0.000000 0.000000 1.000001 0.000000 1.000000 0.000000 -1.000001 0.000000 0.000000 3894.dat
1 1 90.000220 -56.000000 -20.000020 0.000000 0.000000 1.000001 0.000000 1.000000 0.000000 -1.000001 0.000000 0.000000 3894.dat
0 STEP
1 15 90.000220 -79.999950 -70.000080 0.000000 0.000000 -1.000001 0.000000 1.000000 0.000000 1.000001 0.000000 0.000000 3040b.dat
1 15 100.000300 -79.999950 -20.000140 0.000000 0.000000 1.000001 0.000000 1.000000 0.000000 -1.000001 0.000000 0.000000 3001.dat
1 15 90.000220 -79.999950 30.000040 0.000000 0.000000 -1.000001 0.000000 1.000000 0.000000 1.000001 0.000000 0.000000 3040b.dat
0 STEP
1 72 131.140400 -45.999980 -60.000060 0.000000 0.000000 1.000001 -1.000000 0.000000 0.000000 0.000000 -1.000001 0.000000 3648b.dat
1 72 130.000300 -45.999980 20.000020 0.000000 0.000000 1.000001 -1.000000 0.000000 0.000000 0.000000 -1.000001 0.000000 3648b.dat
1 19 120.000300 -45.999980 -60.000060 1.000001 0.000001 -0.000001 0.000001 0.000001 1.000000 0.000001 -1.000001 0.000001 3749.dat
1 19 120.000300 -45.999980 20.000020 1.000001 0.000001 -0.000001 0.000001 0.000001 1.000000 0.000001 -1.000001 0.000001 3749.dat
0 STEP
1 1 -100.000100 -8.000000 -20.000000 0.000000 0.000000 1.000001 0.000000 1.000000 0.000000 -1.000001 0.000000 0.000000 32001.dat
1 15 -100.000100 -32.000000 30.000060 1.000001 0.000000 0.000000 0.000000 1.000000 0.000000 0.000000 0.000000 1.000001 32064a.dat
1 15 -100.000100 -32.000000 -60.000060 1.000001 0.000000 0.000000 0.000000 1.000000 0.000000 0.000000 0.000000 1.000001 3941.dat
0 STEP
1 1 -89.999930 -56.000000 -20.000000 0.000000 0.000000 1.000001 0.000000 1.000000 0.000000 -1.000001 0.000000 0.000000 3894.dat
1 1 -110.000000 -56.000000 -20.000000 0.000000 0.000000 1.000001 0.000000 1.000000 0.000000 -1.000001 0.000000 0.000000 3894.dat
0 STEP
1 72 -130.000100 -45.999960 -60.000030 0.000000 0.000000 1.000001 -1.000000 0.000000 0.000000 0.000000 -1.000001 0.000000 3648b.dat
1 19 -120.000100 -45.999980 20.000050 -1.000001 -0.000001 0.000001 0.000001 0.000001 1.000000 -0.000001 1.000001 -0.000001 3749.dat
1 19 -120.000100 -45.999980 -60.000040 -1.000001 -0.000001 0.000001 0.000001 0.000001 1.000000 -0.000001 1.000001 -0.000001 3749.dat
1 72 -131.960100 -45.999960 20.000050 0.000000 0.000000 1.000001 -1.000000 0.000000 0.000000 0.000000 -1.000001 0.000000 3648b.dat
0 STEP
1 15 -89.999930 -79.999950 29.999940 0.000000 0.000000 1.000001 0.000000 1.000000 0.000000 -1.000001 0.000000 0.000000 3040b.dat
1 15 -89.999930 -79.999950 -70.000080 0.000000 0.000000 1.000001 0.000000 1.000000 0.000000 -1.000001 0.000000 0.000000 3040b.dat
1 15 -99.999980 -79.999950 -20.000120 0.000000 0.000000 1.000001 0.000000 1.000000 0.000000 -1.000001 0.000000 0.000000 3001.dat
0 STEP
1 1 -0.001020 -182.000600 -10.003220 0.000000 -1.000001 0.000000 0.000000 0.000000 1.000009 -1.000010 0.000000 0.000000 6558.dat
1 1 -0.003460 -162.000100 -10.002120 0.000000 -1.000001 0.000000 0.000000 0.000000 1.000006 -1.000007 0.000000 0.000000 6558.dat
0 STEP
1 15 -0.001260 -262.000600 -30.003260 1.000001 -0.000001 0.000001 -0.000001 -0.000001 1.000000 -0.000001 -1.000001 -0.000001 64290.dat
1 15 -0.001260 -262.000600 9.997340 1.000001 -0.000001 0.000001 -0.000001 -0.000001 1.000000 -0.000001 -1.000001 -0.000001 64290.dat
0 STEP
1 1 -0.001440 -372.000500 -10.003100 1.000001 0.000000 0.000000 0.000000 1.000000 0.000000 0.000000 0.000000 1.000001 3703.dat
1 71 -0.001440 -362.000500 -10.003100 0.000000 0.000000 1.000001 0.000000 1.000000 0.000000 -1.000001 0.000000 0.000000 32073.dat
0 STEP
1 71 -0.001330 -362.000500 -50.003150 1.000001 0.000000 0.000001 0.000000 1.000000 0.000000 -0.000001 0.000000 1.000001 3713.dat
1 71 -0.001440 -362.000500 29.996910 -1.000001 0.000000 -0.000001 0.000000 1.000000 0.000000 0.000001 0.000000 -1.000001 3713.dat
0 STEP
1 1 139.998700 -362.000500 -10.003120 0.000000 0.000000 1.000001 0.000000 1.000000 0.000000 -1.000001 0.000000 0.000000 6558.dat
1 1 -140.001600 -362.000500 -10.003090 0.000000 0.000000 1.000001 0.000000 1.000000 0.000000 -1.000001 0.000000 0.000000 6558.dat
1 1 -100.001600 -362.000500 -10.003090 0.000000 0.000000 1.000001 0.000000 1.000000 0.000000 -1.000001 0.000000 0.000000 6558.dat
1 1 99.998710 -362.000500 -10.003120 0.000000 0.000000 1.000001 0.000000 1.000000 0.000000 -1.000001 0.000000 0.000000 6558.dat
0 STEP
1 1 159.998700 -372.000500 9.997020 1.000001 0.000000 0.000000 0.000000 1.000000 0.000000 0.000000 0.000000 1.000001 3702.dat
1 71 179.998700 -362.000500 -10.003120 0.000000 -1.000001 0.000000 0.000000 0.000000 1.000000 -1.000001 0.000000 -0.000001 4519.dat
1 71 219.998800 -362.000500 -10.003160 0.000000 -1.000001 0.000000 0.000000 0.000000 1.000000 -1.000001 0.000000 -0.000001 4519.dat
0 STEP
1 1 159.998700 -372.000500 -30.003160 1.000001 0.000000 0.000000 0.000000 1.000000 0.000000 0.000000 0.000000 1.000001 3702.dat
1 1 200.001400 -362.000500 -10.002980 0.000000 1.000001 0.000000 0.000000 0.000000 1.000000 1.000001 0.000000 0.000000 32184.dat
0 STEP
1 1 -160.001600 -372.000500 9.997060 1.000001 0.000000 0.000000 0.000000 1.000000 0.000000 0.000000 0.000000 1.000001 3702.dat
1 71 -180.001600 -362.000500 -9.722990 0.000000 -1.000001 0.000000 0.000000 0.000000 1.000000 -1.000001 0.000000 -0.000001 4519.dat
1 71 -220.001700 -362.000500 -9.283170 0.000000 -1.000001 0.000000 0.000000 0.000000 1.000000 -1.000001 0.000000 -0.000001 4519.dat
0 STEP
1 1 -160.001600 -372.000500 -30.003120 1.000001 0.000000 0.000000 0.000000 1.000000 0.000000 0.000000 0.000000 1.000001 3702.dat
1 1 -200.001800 -362.000500 -9.725550 0.000000 1.000001 0.000000 0.000000 0.000000 1.000000 1.000001 0.000000 -0.000001 32184.dat
0 STEP
1 71 -200.001700 -411.900600 -9.725430 0.000000 -1.000001 0.000000 0.000000 0.000000 -1.000000 1.000001 0.000000 0.000000 56145.dat
1 4 -200.001800 -362.000500 -9.725430 -0.000001 1.000001 -0.000001 1.000000 0.000001 -0.000001 -0.000001 -0.000001 -1.000001 32054.dat
1 4 -200.001700 -392.000600 -9.725430 0.000000 0.000000 -1.000001 -1.000000 0.000000 0.000000 0.000000 1.000001 0.000000 32062.dat
0 STEP
1 71 200.001800 -412.000600 -10.002730 0.000000 -1.000001 0.000000 0.000000 0.000000 -1.000000 1.000001 0.000000 0.000000 56145.dat
1 4 200.001600 -362.000500 -10.002730 -0.000001 1.000001 -0.000001 1.000000 0.000001 -0.000001 -0.000001 -0.000001 -1.000001 32054.dat
1 4 200.001600 -392.000600 -10.002730 0.000000 0.000000 -1.000001 -1.000000 0.000000 0.000000 0.000000 1.000001 0.000000 32062.dat
0 STEP
0 STEP
0 NOFILE
0 FILE SubModel Group 1
0 SubModel Group 1
0 Name:  SubModel Group 1
0 Author:  
0 CustomBrick
0 NumOfBricks:  4
1 1 -0.000010 -24.000000 -0.000010 1.000001 0.000000 0.000000 0.000000 1.000000 0.000000 0.000000 0.000000 1.000001 3895.dat
1 1 -0.000010 -32.000020 -0.000010 1.000001 0.000000 0.000000 0.000000 1.000000 0.000000 0.000000 0.000000 1.000001 3710.dat
0 STEP
1 1 0.000040 -63.999960 0.000020 1.000000 0.000000 0.000000 0.000000 1.000000 0.000000 0.000000 0.000000 1.000000 3701.dat
1 1 -0.000010 -40.000020 -0.000010 1.000001 0.000000 0.000000 0.000000 1.000000 0.000000 0.000000 0.000000 1.000001 3710.dat
0 STEP
0 NOFILE
