0 Untitled Model
0 Name:  防保叉
0 Author:  
0 CustomBrick
0 NumOfBricks:  21
1 15 -29.999780 -9.999810 290.000000 -1.000000 0.000001 -0.000001 -0.000001 -1.000000 -0.000001 -0.000001 -0.000001 1.000000 64871.dat
1 0 -29.999850 -19.999860 349.999900 0.000000 1.000000 0.000000 1.000000 0.000000 0.000000 0.000000 0.000000 -1.000000 2780.dat
1 0 -29.999790 -19.999810 290.000000 0.000000 1.000000 0.000000 1.000000 0.000000 0.000000 0.000000 0.000000 -1.000000 2780.dat
0 STEP
1 15 -29.999780 -29.999800 310.000200 -1.000000 0.000001 -0.000001 -0.000001 -1.000000 -0.000001 -0.000001 -0.000001 1.000000 40490.dat
0 STEP
1 0 -29.999910 -19.999930 429.999900 0.000000 1.000000 0.000000 1.000000 0.000000 0.000000 0.000000 0.000000 -1.000000 2780.dat
1 4 -29.999910 -29.999920 429.999900 1.000000 0.000000 0.000000 0.000000 0.000000 1.000000 0.000000 -1.000000 0.000000 42003.dat
1 0 -29.999910 -19.999920 409.999900 0.000000 1.000000 0.000000 1.000000 0.000000 0.000000 0.000000 0.000000 -1.000000 2780.dat
0 STEP
1 15 -29.999800 -29.999890 69.999970 1.000000 -0.000001 0.000001 0.000001 1.000000 0.000001 -0.000001 -0.000001 1.000000 64871.dat
1 0 -29.999730 -19.999750 210.000000 0.000000 -1.000000 0.000000 -1.000000 0.000000 0.000000 0.000000 0.000000 -1.000000 2780.dat
1 0 -29.999760 -19.999800 150.000000 0.000000 -1.000000 0.000000 -1.000000 0.000000 0.000000 0.000000 0.000000 -1.000000 2780.dat
0 STEP
1 15 -29.999910 -9.999920 50.000000 -1.000000 0.000001 -0.000001 -0.000001 -1.000000 -0.000001 -0.000001 -0.000001 1.000000 40490.dat
1 0 -29.999820 -19.999860 90.000060 0.000000 -1.000000 0.000000 -1.000000 0.000000 0.000000 0.000000 0.000000 -1.000000 2780.dat
1 0 -29.999910 -19.999910 30.000020 0.000000 -1.000000 0.000000 -1.000000 0.000000 0.000000 0.000000 0.000000 -1.000000 2780.dat
0 STEP
1 0 -29.999730 -19.999980 -49.999990 0.000000 -1.000000 0.000000 1.000000 0.000000 0.000000 0.000000 0.000000 1.000000 2780.dat
1 0 -29.999970 -19.999990 -69.999980 0.000000 -1.000000 0.000000 1.000000 0.000000 0.000000 0.000000 0.000000 1.000000 2780.dat
0 STEP
1 72 -29.999980 -4.999990 -90.000000 1.000000 0.000000 0.000000 0.000000 1.000000 0.000000 0.000000 0.000000 1.000000 99773.dat
1 72 -29.999970 -14.999990 -90.000000 1.000000 0.000000 0.000000 0.000000 1.000000 0.000000 0.000000 0.000000 1.000000 99773.dat
0 STEP
1 4 9.999730 -20.189980 -89.999980 0.000000 0.000000 1.000000 1.000000 0.000000 0.000000 0.000000 1.000000 0.000000 32062.dat
1 4 -69.999980 -20.029980 -90.000000 0.000000 0.000000 1.000000 1.000000 0.000000 0.000000 0.000000 1.000000 0.000000 32062.dat
0 STEP
1 1 89.999690 -30.189980 -89.999980 -1.000000 0.000000 0.000000 0.000000 -1.000000 0.000000 0.000000 0.000000 1.000000 32009.dat
1 1 -150.000000 -30.029980 -90.000000 1.000000 0.000000 0.000000 0.000000 1.000000 0.000000 0.000000 0.000000 1.000000 32009.dat
0 STEP
0 STEP
