0 Untitled Model
0 Name:  摇摆玩具
0 Author:  
0 CustomBrick
0 NumOfBricks:  55
1 0 -159.480000 -10.000230 -49.999950 -1.000000 0.000000 0.000000 0.000000 1.000000 0.000000 0.000000 0.000000 -1.000000 2780.dat
1 0 -240.000000 -10.000200 -9.999880 -1.000000 0.000000 0.000000 0.000000 1.000000 0.000000 0.000000 0.000000 -1.000000 2780.dat
1 71 -210.000000 -10.000200 -49.999880 -1.000000 0.000000 0.000000 0.000000 1.000000 0.000000 0.000000 0.000000 -1.000000 64179.dat
1 0 -240.000000 -10.000200 -49.999880 -1.000000 0.000000 0.000000 0.000000 1.000000 0.000000 0.000000 0.000000 -1.000000 2780.dat
1 0 -159.480000 -10.000230 -9.999940 -1.000000 0.000000 0.000000 0.000000 1.000000 0.000000 0.000000 0.000000 -1.000000 2780.dat
0 STEP
1 71 -149.480000 -50.000200 -29.999940 0.000000 -1.000000 0.000000 0.000000 0.000000 1.000000 -1.000000 0.000000 0.000000 60484.dat
1 71 -230.000000 -50.000180 -29.999880 0.000000 1.000000 0.000000 0.000000 0.000000 1.000000 1.000000 0.000000 0.000000 60484.dat
0 STEP
1 15 -110.000100 -10.000120 29.999990 0.000001 0.000001 -1.000000 -1.000000 0.000001 -0.000001 0.000001 1.000000 0.000001 64290.dat
1 0 -210.000100 -10.000230 20.000240 0.000000 0.000000 -1.000000 0.000000 1.000000 0.000000 1.000000 0.000000 0.000000 2780.dat
1 0 -190.000100 -10.000200 20.000120 0.000000 0.000000 -1.000000 0.000000 1.000000 0.000000 1.000000 0.000000 0.000000 2780.dat
0 STEP
1 71 -30.000000 -10.000010 -50.000020 -1.000000 0.000000 0.000000 0.000000 1.000000 0.000000 0.000000 0.000000 -1.000000 64179.dat
1 0 -10.000000 -9.999990 19.999880 0.000000 0.000000 -1.000000 0.000000 1.000000 0.000000 1.000000 0.000000 0.000000 2780.dat
1 0 -30.000110 -10.000010 20.000000 0.000000 0.000000 -1.000000 0.000000 1.000000 0.000000 1.000000 0.000000 0.000000 2780.dat
0 STEP
1 0 -9.999460 -9.999969 -120.000100 0.000000 0.000000 -1.000002 0.000000 1.000000 0.000000 1.000002 0.000000 0.000000 2780.dat
1 15 -109.999700 -10.000070 -129.999900 0.000001 0.000001 -1.000000 -1.000000 0.000001 -0.000001 0.000001 1.000000 0.000001 64290.dat
1 0 -29.999530 -9.999990 -120.000000 0.000000 0.000000 -1.000002 0.000000 1.000000 0.000000 1.000002 0.000000 0.000000 2780.dat
1 0 -210.000000 -10.000200 -119.999900 0.000000 0.000000 -1.000002 0.000000 1.000000 0.000000 1.000002 0.000000 0.000000 2780.dat
1 0 -189.999900 -10.000180 -119.999900 0.000000 0.000000 -1.000002 0.000000 1.000000 0.000000 1.000002 0.000000 0.000000 2780.dat
0 STEP
1 15 -169.479900 -170.000200 -30.000060 0.000001 1.000000 0.000001 0.000001 0.000001 -1.000000 -1.000000 0.000001 -0.000001 64871.dat
1 0 -159.480000 -50.000190 -29.999940 -1.000000 0.000000 0.000000 0.000000 1.000000 0.000000 0.000000 0.000000 -1.000000 2780.dat
1 0 -159.480000 -30.000220 -29.999940 -1.000000 0.000000 0.000000 0.000000 1.000000 0.000000 0.000000 0.000000 -1.000000 2780.dat
0 STEP
1 15 -209.999900 -170.000200 -30.000000 0.000001 1.000000 0.000001 0.000001 0.000001 -1.000000 -1.000000 0.000001 -0.000001 64871.dat
1 0 -220.000000 -50.000180 -29.999880 -1.000000 0.000000 0.000000 0.000000 1.000000 0.000000 0.000000 0.000000 -1.000000 2780.dat
1 0 -220.000000 -30.000210 -29.999880 -1.000000 0.000000 0.000000 0.000000 1.000000 0.000000 0.000000 0.000000 -1.000000 2780.dat
0 STEP
1 71 -189.999900 -230.000200 -30.000000 0.000000 0.000000 -1.000000 0.224948 -0.974371 0.000000 -0.974371 -0.224948 0.000000 3649.dat
1 0 -159.999900 -230.000200 -30.000060 -1.000000 0.000000 0.000000 0.000000 0.974371 0.224948 0.000000 0.224948 -0.974371 3706.dat
0 STEP
1 72 -189.949900 -170.000200 -30.000000 0.000000 0.000000 -1.000000 -1.000000 0.000000 0.000000 0.000000 1.000000 0.000000 3647.dat
1 71 -229.779900 -170.000200 -30.000060 0.000001 0.000000 -1.000000 0.000000 1.000000 0.000000 1.000000 0.000000 0.000001 3713.dat
1 71 -169.189900 -170.000200 -30.000000 -1.000000 0.000000 0.000000 0.000000 1.000000 0.000000 0.000000 0.000000 -1.000000 60485.dat
0 STEP
1 4 -279.189900 -210.000200 -29.999940 -1.000000 0.000000 0.000000 0.000000 1.000000 0.000000 0.000000 0.000000 -1.000000 62462.dat
1 71 -249.189900 -170.000200 -30.000000 0.000001 -1.000000 0.000001 0.000001 -0.000001 -1.000000 1.000000 0.000001 0.000001 33299.dat
0 STEP
1 72 -149.999900 -230.000200 -30.000060 0.000000 0.000000 1.000000 0.224948 0.974371 0.000000 -0.974371 0.224948 0.000000 3648b.dat
1 4 -129.999900 -249.487600 -34.499030 -1.000000 0.000000 0.000000 0.000000 0.224949 -0.974371 0.000000 -0.974371 -0.224949 32039.dat
1 4 -129.999900 -259.231400 -36.748540 0.000000 0.000000 -1.000000 -0.974371 -0.224949 0.000000 -0.224949 0.974371 0.000000 32062.dat
0 STEP
1 71 -99.999870 -230.003000 -30.000680 0.000000 0.000000 1.000000 0.224948 0.974371 0.000000 -0.974371 0.224948 0.000000 59443.dat
1 19 -79.999860 -230.000200 -30.000000 -1.000000 0.000000 0.000001 0.000001 -0.224949 0.974371 0.000000 0.974371 0.224948 3749.dat
0 STEP
1 19 -39.999850 -230.000200 -30.000000 1.000000 0.000001 -0.000001 0.000001 0.000001 1.000000 0.000001 -1.000000 0.000001 3749.dat
1 4 -59.999860 -230.000200 -30.000000 -1.000000 0.000000 0.000000 0.000000 1.000000 0.000000 0.000000 0.000000 -1.000000 62462.dat
0 STEP
1 71 -20.100130 -230.002700 -29.999880 -0.000001 0.000000 1.000000 -0.139174 0.990268 0.000000 -0.990268 -0.139174 -0.000001 59443.dat
1 0 19.999860 -229.999900 -30.000190 -1.000000 0.000000 0.000000 0.000000 0.990268 -0.139174 0.000000 -0.139174 -0.990268 3705.dat
0 STEP
1 4 -69.189940 -170.000200 -30.000000 0.000000 0.000000 -1.000000 0.000000 -1.000000 0.000000 -1.000000 0.000000 0.000000 32034.dat
1 71 -10.030090 -169.999900 -30.000060 -1.000000 0.000000 0.000000 0.000000 1.000000 0.000000 0.000000 0.000000 -1.000000 32073.dat
0 STEP
1 0 20.000010 -49.999970 -29.999940 -1.000000 0.000000 0.000000 0.000000 1.000000 0.000000 0.000000 0.000000 -1.000000 2780.dat
1 0 20.000000 -30.000000 -29.999940 -1.000000 0.000000 0.000000 0.000000 1.000000 0.000000 0.000000 0.000000 -1.000000 2780.dat
1 15 9.999940 -129.999900 -30.000060 0.000001 1.000000 0.000001 -0.000001 -0.000001 1.000000 1.000000 -0.000001 0.000001 64290.dat
0 STEP
1 1 30.000070 -10.000080 -110.000000 0.000001 1.000000 -0.000001 -1.000000 0.000001 0.000001 0.000001 0.000001 1.000000 32526.dat
1 0 20.000000 -10.000010 -90.000010 -1.000000 0.000000 0.000000 0.000000 1.000000 0.000000 0.000000 0.000000 -1.000000 2780.dat
1 0 20.000000 -10.000010 -50.000020 -1.000000 0.000000 0.000000 0.000000 1.000000 0.000000 0.000000 0.000000 -1.000000 2780.dat
0 STEP
1 72 29.969920 -169.999900 -30.000130 0.000000 0.000000 1.000000 0.000000 1.000000 0.000000 -1.000000 0.000000 0.000000 3648b.dat
1 72 29.999880 -229.999900 -30.000250 0.000000 0.000000 1.000000 -0.139174 0.990268 0.000000 -0.990268 -0.139174 0.000000 3648b.dat
0 STEP
1 4 51.129880 -210.194600 -32.783760 -1.000000 0.000000 0.000000 0.000000 0.139174 0.990268 0.000000 0.990268 -0.139174 32039.dat
1 0 51.129880 -139.439900 -42.727720 0.000000 0.000000 1.000000 0.990268 0.139174 0.000000 -0.139174 0.990268 0.000000 3707.dat
0 STEP
1 14 51.129880 -97.115930 -48.676040 1.000000 0.000000 0.000000 0.000000 0.139174 -0.990268 0.000000 0.990268 0.139174 32123a.dat
1 14 51.129880 -65.169880 -53.165720 1.000000 0.000000 0.000000 0.000000 0.139174 -0.990268 0.000000 0.990268 0.139174 32123a.dat
1 4 71.129860 -80.816120 -50.966740 0.000000 1.000000 0.000000 0.990268 0.000000 -0.139174 -0.139174 0.000000 -0.990268 42003.dat
0 STEP
0 STEP
