0 FILE 电子锯.io
0 Untitled Model
0 Name:  电子锯
0 Author:  
0 CustomBrick
0 NumOfBricks:  32
1 16 325.000000 0.000000 -68.000000 -1.000000 0.000000 0.000000 0.000000 1.000000 0.000000 0.000000 0.000000 -1.000000 submodel group 9 copy copy copy
1 0 161.000000 -90.000060 -28.000000 0.000000 0.000000 -1.000000 0.000000 1.000000 0.000000 1.000000 0.000000 0.000000 2780.dat
1 19 161.000000 -50.000040 -28.000000 -0.000001 1.000000 -0.000001 0.000001 0.000001 1.000000 1.000000 0.000001 -0.000001 3749.dat
0 STEP
1 1 161.000000 -130.000000 -18.000000 0.000000 0.000000 1.000000 1.000000 0.000000 0.000000 0.000000 1.000000 0.000000 32009.dat
0 STEP
1 0 121.000000 -130.000000 -28.000010 0.000000 0.000000 -1.000000 0.000000 1.000000 0.000000 1.000000 0.000000 0.000000 2780.dat
1 19 1.000000 -130.000000 -28.000010 -0.000001 1.000000 -0.000001 0.000001 0.000001 1.000000 1.000000 0.000001 -0.000001 3749.dat
0 STEP
1 15 -19.000000 -130.000100 -38.000000 0.000001 0.000001 -1.000000 -1.000000 0.000001 -0.000001 0.000001 1.000000 0.000001 64871.dat
0 STEP
1 0 81.000000 -130.000000 -68.000000 0.000000 0.000000 1.000000 0.000000 1.000000 0.000000 -1.000000 0.000000 0.000000 3706.dat
1 72 81.000000 -130.000000 -58.049980 1.000000 0.000000 0.000000 0.000000 -1.000000 0.000000 0.000000 0.000000 -1.000000 3648b.dat
0 STEP
1 19 -18.999900 -130.000000 -48.000120 0.000001 -1.000000 0.000001 0.000001 0.000001 1.000000 -1.000000 -0.000001 0.000001 3749.dat
1 72 -18.999890 -130.000000 -58.000120 0.000000 -1.000000 0.000000 -1.000000 0.000000 0.000000 0.000000 0.000000 -1.000000 3647.dat
0 STEP
1 19 -98.999910 -130.000100 -47.999880 0.000001 -1.000000 0.000001 0.000001 0.000001 1.000000 -1.000000 -0.000001 0.000001 3749.dat
1 72 -98.999910 -130.000100 -57.999870 0.000000 -1.000000 0.000000 -1.000000 0.000000 0.000000 0.000000 0.000000 -1.000000 3647.dat
0 STEP
1 16 -59.000080 -73.370060 -69.646990 0.996345 0.085416 0.000000 -0.085416 0.996345 0.000000 0.000000 0.000000 1.000000 submodel group 1
0 STEP
1 14 -159.000100 -130.000200 -22.799700 -0.085417 0.996345 0.000000 -0.996345 -0.085417 0.000000 0.000000 0.000000 1.000000 32123a.dat
1 14 -159.000100 -130.000200 -92.569850 -0.085417 0.996345 0.000000 -0.996345 -0.085417 0.000000 0.000000 0.000000 1.000000 32123a.dat
0 STEP
1 0 121.000000 -130.000000 -87.999900 0.000000 0.000000 -1.000000 0.000000 1.000000 0.000000 1.000000 0.000000 0.000000 2780.dat
1 19 1.000000 -130.000000 -87.999900 0.000001 -1.000000 0.000001 0.000001 0.000001 1.000000 -1.000000 -0.000001 0.000001 3749.dat
0 STEP
1 1 161.000000 -130.000000 -98.000010 0.000000 0.000000 1.000000 1.000000 0.000000 0.000000 0.000000 1.000000 0.000000 32009.dat
1 0 161.000000 -90.000060 -88.000010 0.000000 0.000000 -1.000000 0.000000 1.000000 0.000000 1.000000 0.000000 0.000000 2780.dat
1 19 161.000000 -50.000040 -87.999980 0.000001 -1.000000 0.000001 0.000001 0.000001 1.000000 -1.000000 -0.000001 0.000001 3749.dat
0 STEP
1 0 61.000000 -130.000000 -108.000000 0.000000 0.000000 -1.000000 0.000000 1.000000 0.000000 1.000000 0.000000 0.000000 2780.dat
1 0 101.000000 -129.999900 -107.999800 0.000000 0.000000 -1.000000 0.000000 1.000000 0.000000 1.000000 0.000000 0.000000 2780.dat
0 STEP
1 15 81.000000 -130.347700 -109.000000 -1.000000 0.000000 0.000000 0.000000 1.000000 0.000000 0.000000 0.000000 -1.000000 dx0065.dat.dat
0 STEP
0 STEP
0 NOFILE
0 FILE SubModel Group 9 Copy Copy Copy
0 SubModel Group 9 Copy Copy Copy
0 Name:  SubModel Group 9 Copy Copy Copy
0 Author:  
0 CustomBrick
0 NumOfBricks:  3
1 72 10.000000 -1.128810 -10.000000 1.000000 0.000000 0.000000 0.000000 0.000000 -1.000000 0.000000 1.000000 0.000000 dch003.dat
1 71 -27.466620 -79.717990 29.427020 1.000000 0.000000 0.000000 0.000000 0.000000 -1.000000 0.000000 1.000000 0.000000 dch004.dat
1 25 7.837010 13.484720 -9.965000 1.000000 0.000000 0.000000 0.000000 0.000000 -1.000000 0.000000 1.000000 0.000000 dch005.dat
0 NOFILE
0 FILE SubModel Group 1
0 SubModel Group 1
0 Name:  SubModel Group 1
0 Author:  
0 CustomBrick
0 NumOfBricks:  7
1 15 44.691010 -53.006400 -8.352870 0.085417 0.000001 -0.996345 -0.996345 0.000001 -0.085417 0.000001 1.000000 0.000001 64871.dat
1 19 84.544700 -49.589750 1.647110 -0.000001 0.978509 -0.206205 0.000001 0.206205 0.978509 1.000000 0.000001 -0.000001 3749.dat
1 72 84.544700 -49.589750 11.647120 0.978509 0.206204 0.000000 0.206204 -0.978509 0.000000 0.000000 0.000000 -1.000000 3648b.dat
0 STEP
1 19 4.837110 -56.423130 1.647110 -0.000001 0.978867 -0.204498 0.000001 0.204498 0.978867 1.000000 0.000001 -0.000001 3749.dat
1 72 4.837100 -56.423040 11.647120 0.978867 0.204497 0.000000 0.204497 -0.978867 0.000000 0.000000 0.000000 -1.000000 3648b.dat
0 STEP
1 0 -94.797340 -64.964820 12.077160 0.000000 0.000000 1.000000 0.000000 1.000000 0.000000 -1.000000 0.000000 0.000000 3705.dat
1 71 -94.797450 -64.964830 11.687260 1.000000 0.000000 0.000000 0.000000 -1.000000 0.000000 0.000000 0.000000 -1.000000 3649.dat
0 STEP
0 NOFILE
