0 FILE 缝纫机.io
0 Untitled Model
0 Name:  缝纫机
0 Author:  
0 CustomBrick
0 NumOfBricks:  134
1 1 -130.000500 -24.000000 -0.000130 0.000000 0.000000 1.000000 0.000000 1.000000 0.000000 -1.000000 0.000000 0.000000 3701.dat
1 0 -120.000400 -14.000000 -0.000150 -1.000000 0.000000 0.000000 0.000000 1.000000 0.000000 0.000000 0.000000 -1.000000 2780.dat
0 STEP
1 1 -140.000700 -32.000000 -0.000440 0.000000 0.000000 1.000002 0.000000 1.000000 0.000000 -1.000002 0.000000 0.000000 32001.dat
1 1 -130.000600 -40.000000 -0.000440 0.000000 0.000000 1.000000 0.000000 1.000000 0.000000 -1.000000 0.000000 0.000000 3023.dat
0 STEP
1 1 -200.000700 -24.000000 -50.000480 1.000002 0.000000 0.000000 0.000000 1.000000 0.000000 0.000000 0.000000 1.000002 3895.dat
1 1 -200.000500 -24.000000 49.999570 1.000002 0.000000 0.000000 0.000000 1.000000 0.000000 0.000000 0.000000 1.000002 3895.dat
0 STEP
1 1 -130.000700 -64.000000 -0.000500 0.000000 0.000000 1.000000 0.000000 1.000000 0.000000 -1.000000 0.000000 0.000000 3700.dat
1 0 -120.000700 -54.000000 -0.000500 -1.000000 0.000000 0.000000 0.000000 1.000000 0.000000 0.000000 0.000000 -1.000000 2780.dat
0 STEP
1 15 -110.000800 -154.000000 -0.000560 0.000000 1.000000 0.000001 -0.000001 -0.000001 1.000000 1.000000 -0.000001 0.000001 64871.dat
0 STEP
1 0 -100.460800 -133.999900 -0.000560 -1.000000 0.000000 0.000000 0.000000 0.965927 0.258817 0.000000 0.258817 -0.965926 3705.dat
1 71 -130.460900 -134.000000 -0.000380 0.000000 0.000000 -1.000000 0.258817 -0.965927 0.000000 -0.965926 -0.258817 0.000000 3649.dat
0 STEP
1 72 -130.090900 -193.999800 -0.000380 0.000000 0.000000 -1.000000 -1.000000 0.000000 0.000000 0.000000 1.000000 0.000000 3647.dat
1 0 -199.680800 -193.999800 -0.000440 -1.000000 0.000000 0.000000 0.000000 1.000000 0.000000 0.000000 0.000000 -1.000000 3708.dat
0 STEP
1 71 -89.720750 -193.999800 -0.000390 0.000000 0.000000 -1.000000 0.000000 1.000000 0.000000 1.000000 0.000000 0.000000 3713.dat
0 STEP
1 15 -250.000900 -154.000000 -0.000360 0.000001 1.000000 0.000001 -0.000001 -0.000001 1.000000 1.000000 -0.000001 0.000001 64871.dat
0 STEP
1 16 -275.000600 -4.000000 -2.000320 1.000002 0.000000 0.000000 0.000000 1.000000 0.000000 0.000000 0.000000 1.000002 submodel group 2
0 STEP
1 1 -90.000230 -24.000000 -0.000440 0.000000 0.000000 1.000000 0.000000 1.000000 0.000000 -1.000000 0.000000 0.000000 3701.dat
1 1 -90.000220 -32.000000 39.999510 0.000000 0.000000 1.000000 0.000000 1.000000 0.000000 -1.000000 0.000000 0.000000 3710.dat
0 STEP
1 0 -80.000220 -14.000000 -0.000450 -1.000000 0.000000 0.000000 0.000000 1.000000 0.000000 0.000000 0.000000 -1.000000 2780.dat
1 1 -90.000480 -32.000000 -40.000460 0.000000 0.000000 1.000000 0.000000 1.000000 0.000000 -1.000000 0.000000 0.000000 3710.dat
1 1 -90.000480 -40.000000 -0.000500 0.000000 0.000000 1.000000 0.000000 1.000000 0.000000 -1.000000 0.000000 0.000000 3023.dat
0 STEP
1 1 -90.000480 -64.000000 -0.000560 0.000000 0.000000 1.000000 0.000000 1.000000 0.000000 -1.000000 0.000000 0.000000 3700.dat
1 0 -80.000450 -54.000000 -0.000560 -1.000000 0.000000 0.000000 0.000000 1.000000 0.000000 0.000000 0.000000 -1.000000 2780.dat
0 STEP
1 1 -90.000670 -174.000000 -0.000640 1.000000 0.000000 0.000000 0.000000 1.000000 0.000000 0.000000 0.000000 1.000000 6558.dat
1 72 -90.000670 -134.000000 -0.000380 0.000000 0.000000 -1.000000 0.149532 -0.988757 0.000000 -0.988757 -0.149532 0.000000 3648b.dat
0 STEP
1 0 -180.000600 -72.000000 -0.000560 0.000000 0.000000 1.000000 0.000000 1.000000 0.000000 -1.000000 0.000000 0.000000 73090b.dat
0 STEP
1 1 -300.000800 -32.000000 -0.000420 0.000000 0.000000 1.000000 0.000000 1.000000 0.000000 -1.000000 0.000000 0.000000 32001.dat
0 STEP
1 1 -280.000600 -13.999980 69.999650 0.000000 0.000000 1.000002 0.000000 -1.000000 0.000000 1.000002 0.000000 0.000000 6558.dat
1 19 -260.000800 -13.999980 59.999570 -0.000001 1.000002 -0.000001 0.000001 0.000001 1.000000 1.000002 0.000001 -0.000001 3749.dat
0 STEP
1 0 -269.360900 -93.999900 -0.000240 -1.000000 0.000000 0.000000 0.000000 1.000000 0.000000 0.000000 0.000000 -1.000000 3705.dat
1 71 -270.010900 -93.999900 -0.000240 0.000001 0.000000 -1.000000 0.000000 1.000000 0.000000 1.000000 0.000000 0.000001 3713.dat
0 STEP
1 71 -279.000500 -113.999900 -0.000620 0.000001 -1.000000 0.000001 -0.000001 0.000001 1.000000 -1.000000 -0.000001 -0.000001 33299.dat
1 71 -259.340800 -114.000000 -0.000320 -1.000000 0.000000 0.000000 0.000000 0.000000 1.000000 0.000000 1.000000 0.000000 4519.dat
0 STEP
1 14 -234.830900 -93.999900 -0.000320 0.000000 0.000000 1.000000 0.000000 1.000000 0.000000 -1.000000 0.000000 0.000000 32123a.dat
1 14 -234.500900 -114.000000 -0.000380 0.000000 0.000000 1.000000 0.000000 1.000000 0.000000 -1.000000 0.000000 0.000000 32123a.dat
0 STEP
1 71 -299.000600 -113.999900 -0.000730 0.000000 -1.000000 0.000000 0.000000 0.000000 1.000000 -1.000000 0.000000 0.000000 4519.dat
1 4 -299.000500 -93.999900 -0.000730 0.000000 0.000000 -1.000000 0.000000 1.000000 0.000000 1.000000 0.000000 0.000000 42003.dat
0 STEP
1 14 -234.000400 -235.000000 -0.000740 0.000000 0.000000 1.000002 0.000000 1.000000 0.000000 -1.000002 0.000000 0.000000 32123a.dat
1 14 -234.800500 -274.999900 -0.000620 0.000000 0.000000 1.000000 0.000000 1.000000 0.000000 -1.000000 0.000000 0.000000 32123a.dat
1 16 -275.000600 -208.000000 -2.000320 1.000002 0.000000 0.000000 0.000000 1.000000 0.000000 0.000000 0.000000 1.000002 submodel group 1
0 STEP
1 4 -299.000600 -295.000000 -0.000610 0.000000 0.000000 -1.000000 0.000000 1.000000 0.000000 1.000000 0.000000 0.000000 42003.dat
1 71 -299.000600 -315.000000 -0.000610 0.000000 -1.000000 0.000000 0.000000 0.000000 1.000000 -1.000000 0.000000 0.000000 4519.dat
0 STEP
1 15 -439.001200 -314.999500 19.999280 0.000001 0.000001 -1.000002 -1.000000 0.000001 -0.000001 0.000001 1.000002 0.000001 64871.dat
0 STEP
1 14 -340.000800 -315.000000 34.879600 0.000000 1.000000 0.000000 1.000000 0.000000 0.000000 0.000000 0.000000 -1.000000 32123a.dat
1 0 -340.000800 -315.000000 -0.000420 0.000000 0.000000 1.000000 0.000000 1.000000 0.000000 -1.000000 0.000000 0.000000 3706.dat
0 STEP
1 1 -539.001600 -314.999500 -0.001140 0.000001 0.000000 1.000004 0.000000 1.000000 0.000000 -1.000004 0.000000 0.000000 6558.dat
1 1 -519.001500 -314.999500 -0.000710 0.000000 0.000000 1.000003 0.000000 1.000000 0.000000 -1.000003 0.000000 0.000000 6558.dat
0 STEP
1 4 -559.001700 -324.999500 -0.001310 0.000000 0.000000 -1.000003 1.000000 0.000000 0.000000 0.000000 -1.000003 0.000000 32062.dat
1 4 -539.001400 -314.999500 -0.001140 0.000000 1.000002 0.000000 1.000000 0.000000 0.000000 0.000000 0.000000 -1.000002 42003.dat
0 STEP
1 4 -589.002000 -334.999500 -0.001310 -1.000003 0.000000 0.000000 0.000000 1.000000 0.000000 0.000000 0.000000 -1.000003 32062.dat
1 4 -579.001900 -334.999500 -0.001490 0.000000 0.000001 -1.000003 1.000000 0.000000 0.000000 0.000000 -1.000003 -0.000002 32039.dat
0 STEP
1 71 -369.680800 -193.999800 -0.000350 1.000000 0.000000 0.000000 0.000000 1.000000 0.000000 0.000000 0.000000 1.000000 32073.dat
1 71 -319.680800 -194.002600 -0.000360 0.000000 0.000000 1.000000 0.000000 1.000000 0.000000 -1.000000 0.000000 0.000000 59443.dat
0 STEP
1 72 -384.470600 -194.000100 0.001610 0.000000 0.000000 -1.000000 0.000000 1.000000 0.000000 1.000000 0.000000 0.000000 6575.dat
1 72 -394.680800 -193.999800 -0.000350 0.000000 0.000000 -1.000000 0.000000 1.000000 0.000000 1.000000 0.000000 0.000000 6575.dat
1 71 -409.680800 -193.999800 -0.000350 0.000001 0.000000 -1.000000 0.000000 1.000000 0.000000 1.000000 0.000000 0.000001 3713.dat
0 STEP
1 0 -493.680700 -213.999800 -0.000350 -1.000000 0.000000 0.000000 0.000000 1.000000 0.000000 0.000000 0.000000 -1.000000 3708.dat
1 14 -373.870900 -213.999800 -0.000350 0.000000 0.000000 1.000000 0.000000 1.000000 0.000000 -1.000000 0.000000 0.000000 32123a.dat
0 STEP
1 19 -587.392300 -183.289700 -0.901700 -0.000001 0.999999 0.000000 -1.000000 -0.000001 0.000000 0.000000 0.000000 1.000000 3749.dat
1 0 -587.301000 -213.999800 -0.000330 1.000000 0.000000 -0.000001 -0.000001 0.000000 -1.000000 0.000000 1.000000 0.000000 32013.dat
0 STEP
1 14 -611.940900 -213.999800 -0.000320 0.000000 0.000000 1.000002 0.000000 1.000000 0.000000 -1.000002 0.000000 0.000000 32123a.dat
1 14 -601.680800 -213.999800 -0.000320 0.000000 0.000000 1.000000 0.000000 1.000000 0.000000 -1.000000 0.000000 0.000000 32123a.dat
0 STEP
1 4 -619.002000 -334.999500 -0.001310 0.000000 0.000000 -1.000003 -1.000000 0.000000 0.000000 0.000000 1.000003 0.000000 32034.dat
1 72 -619.001500 -321.009500 -0.001250 0.000000 0.289035 0.957321 -1.000000 0.000000 0.000000 0.000000 -0.957320 0.289035 6587.dat
0 STEP
1 71 -619.002900 -291.009200 0.003270 0.957321 0.289034 0.000001 -0.000001 0.000000 0.999996 0.289035 -0.957317 0.000000 59443.dat
1 0 -619.002000 -171.009700 0.000230 0.000000 0.289035 0.957321 -0.999996 0.000000 0.000000 0.000000 -0.957318 0.289036 3708.dat
0 STEP
1 4 -589.000900 -134.000100 -0.000030 -1.000000 0.000000 0.000000 0.000000 1.000000 0.000000 0.000000 0.000000 -1.000000 32062.dat
1 4 -619.001000 -134.000100 -0.000030 0.000000 0.000000 -1.000000 -1.000000 0.000000 0.000000 0.000000 1.000000 0.000000 32034.dat
1 71 -619.002100 -173.289700 0.000290 0.957319 0.289035 0.000000 0.000000 0.000000 1.000000 0.289035 -0.957319 0.000000 3649.dat
0 STEP
1 4 -559.001100 -124.000100 -0.000030 0.000000 0.000000 -1.000000 1.000000 0.000000 0.000000 0.000000 -1.000000 0.000000 32062.dat
1 4 -579.001100 -134.000100 -0.000030 0.000000 0.000001 -1.000000 1.000000 0.000000 0.000000 0.000000 -1.000000 -0.000001 32039.dat
0 STEP
1 4 -539.000900 -114.000100 -0.000040 0.000000 1.000000 0.000000 1.000000 0.000000 0.000000 0.000000 0.000000 -1.000000 42003.dat
0 STEP
1 72 -359.000700 -114.000000 29.999890 0.000001 0.000000 1.000002 0.000000 -1.000000 0.000000 1.000002 0.000000 -0.000001 32002.dat
1 72 -319.000700 -113.999900 29.999700 0.000001 0.000000 1.000002 0.000000 -1.000000 0.000000 1.000002 0.000000 -0.000001 32002.dat
1 15 -439.000700 -114.000000 19.999890 0.000001 0.000001 -1.000000 -1.000000 0.000001 -0.000001 0.000001 1.000000 0.000001 64871.dat
0 STEP
1 1 -539.001100 -114.000100 -0.000330 0.000000 0.000000 -1.000001 0.000000 1.000000 0.000000 1.000001 0.000000 0.000000 6558.dat
1 1 -519.000800 -114.000100 -0.000040 0.000000 0.000000 -1.000000 0.000000 1.000000 0.000000 1.000000 0.000000 0.000000 6558.dat
0 STEP
1 71 -340.000800 -114.000000 0.199590 1.000000 0.000000 0.000001 0.000000 1.000000 0.000000 -0.000001 0.000000 1.000000 3713.dat
1 0 -340.000800 -114.000000 -0.000420 0.000000 0.000000 1.000000 0.000000 1.000000 0.000000 -1.000000 0.000000 0.000000 3707.dat
0 STEP
1 72 -339.000800 -113.999900 34.999720 1.000002 0.000000 0.000000 0.000000 0.000000 1.000000 0.000000 -1.000002 0.000000 99773.dat
1 0 -340.000600 -73.999980 39.999360 0.000000 0.000000 -1.000002 0.000000 1.000000 0.000000 1.000002 0.000000 0.000000 2780.dat
1 0 -340.000600 -94.000010 39.999390 0.000000 1.000002 0.000000 0.000000 0.000000 1.000000 1.000002 0.000000 0.000000 2780.dat
0 STEP
1 15 -340.000800 -194.000000 49.999520 1.000000 -0.000001 0.000001 -0.000001 -0.000001 1.000000 -0.000001 -1.000000 -0.000001 64871.dat
1 19 -340.000800 -174.000000 59.999700 -0.000001 1.000002 -0.000001 0.000001 0.000001 1.000000 1.000002 0.000001 -0.000001 3749.dat
0 STEP
1 0 -300.000700 -13.999980 79.999600 0.000000 0.000000 -1.000002 0.000000 1.000000 0.000000 1.000002 0.000000 0.000000 2780.dat
1 1 -340.000800 -13.999980 69.999650 1.000002 0.000000 0.000000 0.000000 0.000000 1.000000 0.000000 -1.000002 0.000000 32009.dat
0 STEP
1 15 -439.000800 -315.000100 -20.000380 0.000001 0.000001 -1.000002 -1.000000 0.000001 -0.000001 0.000001 1.000002 0.000001 64871.dat
0 STEP
1 72 -319.000600 -113.999900 -30.000660 -0.000001 0.000000 -1.000002 0.000000 -1.000003 0.000000 -1.000005 0.000000 0.000001 32002.dat
1 72 -359.000700 -113.999900 -30.000720 -0.000001 0.000000 -1.000002 0.000000 -1.000003 0.000000 -1.000005 0.000000 0.000001 32002.dat
1 15 -439.000800 -114.000000 -20.000500 0.000001 0.000001 -1.000002 -1.000000 0.000001 -0.000001 0.000001 1.000002 0.000001 64871.dat
0 STEP
1 72 -339.000600 -114.000100 -34.999750 1.000002 0.000000 0.000000 0.000000 0.000000 1.000000 0.000000 -1.000002 0.000000 99773.dat
1 14 -340.000800 -315.000000 -35.000410 0.000000 1.000000 0.000000 1.000000 0.000000 0.000000 0.000000 0.000000 -1.000000 32123a.dat
0 STEP
1 0 -339.000600 -73.999980 -40.002210 0.000000 1.000002 0.000000 0.000000 0.000000 1.000002 1.000004 0.000000 0.000000 2780.dat
1 0 -339.000600 -93.999790 -40.000810 0.000000 1.000002 0.000000 0.000000 0.000000 1.000002 1.000004 0.000000 0.000000 2780.dat
0 STEP
1 15 -340.000800 -194.000000 -50.000560 1.000002 -0.000001 0.000001 -0.000001 -0.000001 1.000000 -0.000001 -1.000001 -0.000001 64871.dat
1 19 -340.000800 -174.000000 -60.000520 0.000001 -1.000002 0.000001 0.000001 0.000001 1.000000 -1.000002 -0.000001 0.000001 3749.dat
0 STEP
1 1 -280.000600 -14.000000 -70.000480 0.000000 0.000000 1.000002 0.000000 1.000000 0.000000 -1.000002 0.000000 0.000000 6558.dat
1 19 -260.000800 -13.999980 -60.000530 0.000001 -1.000002 0.000001 0.000001 0.000001 1.000000 -1.000002 -0.000001 0.000001 3749.dat
0 STEP
1 0 -300.000700 -14.000000 -80.000430 0.000000 0.000000 -1.000002 0.000000 1.000000 0.000000 1.000002 0.000000 0.000000 2780.dat
1 1 -340.000800 -14.000000 -70.000400 1.000002 0.000000 0.000000 0.000000 0.000000 1.000000 0.000000 -1.000001 0.000000 32009.dat
0 STEP
1 0 -560.001200 -13.999990 79.999720 0.000000 -0.983886 -0.178806 0.000000 -0.178807 0.983884 -1.000002 0.000000 0.000000 2780.dat
1 1 -499.000700 -114.000100 40.000000 0.000000 0.000000 -1.000002 0.000000 1.000000 0.000000 1.000002 0.000000 0.000000 6558.dat
1 15 -518.436300 -82.354720 69.999780 0.854436 -0.000001 -0.519561 0.519560 -0.000002 0.854434 -0.000002 -1.000002 -0.000001 40490.dat
0 STEP
1 1 -420.001000 -23.999980 89.999660 1.000002 0.000000 0.000000 0.000000 1.000000 0.000000 0.000000 0.000000 1.000002 3703.dat
0 STEP
1 1 -499.000900 -114.000000 -40.000480 0.000000 0.000000 1.000002 0.000000 1.000000 0.000000 -1.000002 0.000000 0.000000 6558.dat
1 19 -499.000900 -315.000200 -40.000480 0.000000 0.000000 1.000002 0.000000 1.000000 0.000000 -1.000002 0.000000 0.000000 32556.dat
0 STEP
1 15 -499.001000 -174.000100 -40.000350 1.000002 -0.000001 0.000001 -0.000001 -0.000001 1.000000 -0.000001 -1.000002 -0.000001 32524.dat
1 0 -499.000900 -235.000200 -50.000430 0.000000 0.000000 -1.000002 0.000000 1.000000 0.000000 1.000002 0.000000 0.000000 2780.dat
0 STEP
1 15 -499.000900 -255.000200 -60.000500 1.000002 -0.000001 0.000001 -0.000001 -0.000001 1.000000 -0.000001 -1.000002 -0.000001 32524.dat
0 STEP
1 15 -518.436300 -82.354640 -70.000270 0.854435 -0.000001 -0.519561 0.519560 -0.000002 0.854433 -0.000002 -1.000002 -0.000001 40490.dat
1 0 -560.001300 -14.000000 -80.000400 0.000000 0.000000 -1.000002 0.000000 1.000000 0.000000 1.000002 0.000000 0.000000 2780.dat
0 STEP
1 1 -420.000900 -24.000000 -90.000430 1.000002 0.000000 0.000000 0.000000 1.000000 0.000000 0.000000 0.000000 1.000002 3703.dat
0 STEP
1 0 -80.210540 -94.000000 -0.000640 -1.000000 0.000000 0.000000 0.000000 1.000000 0.000000 0.000000 0.000000 -1.000000 3705.dat
1 72 -90.210490 -94.000000 -0.000560 0.000000 0.000000 -1.000000 -1.000000 0.000000 0.000000 0.000000 1.000000 0.000000 3647.dat
0 STEP
1 15 -70.000550 -94.000000 -0.000580 0.000001 1.000000 0.000001 -0.000001 -0.000001 1.000000 1.000000 -0.000001 0.000001 40490.dat
1 0 -60.000560 -114.000000 -0.000580 -1.000000 0.000000 0.000000 0.000000 1.000000 0.000000 0.000000 0.000000 -1.000000 2780.dat
1 0 -60.000500 -74.000000 -0.000580 -1.000000 0.000000 0.000000 0.000000 1.000000 0.000000 0.000000 0.000000 -1.000000 2780.dat
0 STEP
1 16 182.000400 -9.000020 199.000200 -1.000002 0.000000 0.000000 0.000000 1.000000 0.000000 0.000000 0.000000 -1.000002 submodel group 9 copy copy copy
1 15 -59.000120 -93.972870 -0.000330 0.000000 0.000000 1.000002 0.000000 1.000000 0.000000 -1.000002 0.000000 0.000000 dx0056.dat.dat
0 STEP
0 STEP
0 NOFILE
0 FILE SubModel Group 2
0 SubModel Group 2
0 Name:  SubModel Group 2
0 Author:  
0 CustomBrick
0 NumOfBricks:  9
1 1 -15.000080 -20.000000 1.999210 0.000000 0.000000 0.999998 0.000000 1.000000 0.000000 -0.999998 0.000000 0.000000 3701.dat
1 0 -5.000110 -10.000000 21.999330 -0.999999 0.000000 0.000000 0.000000 1.000000 0.000000 0.000000 0.000000 -0.999999 2780.dat
1 0 -5.000110 -10.000000 -18.000490 -0.999999 0.000000 0.000000 0.000000 1.000000 0.000000 0.000000 0.000000 -0.999999 2780.dat
0 STEP
1 1 4.999800 -20.000000 1.999880 0.000000 0.000000 0.999999 0.000000 1.000000 0.000000 -0.999999 0.000000 0.000000 3701.dat
1 0 14.999800 -10.000000 1.999880 0.999998 0.000000 0.000000 0.000000 0.000000 1.000000 0.000000 -0.999998 0.000000 2780.dat
0 STEP
1 1 4.999800 -28.000000 2.000000 0.000000 0.000000 0.999998 0.000000 1.000000 0.000000 -0.999998 0.000000 0.000000 3710.dat
1 1 5.003770 -36.000000 2.002930 0.000000 0.000000 0.999986 0.000000 1.000000 0.000000 -0.999986 0.000000 0.000000 3023.dat
0 STEP
1 1 4.999860 -60.000000 2.000000 0.000000 0.000000 0.999999 0.000000 1.000000 0.000000 -0.999999 0.000000 0.000000 3700.dat
1 0 14.999860 -50.000000 2.000000 -0.999999 0.000000 0.000000 0.000000 1.000000 0.000000 0.000000 0.000000 -0.999999 2780.dat
0 STEP
0 NOFILE
0 FILE SubModel Group 1
0 SubModel Group 1
0 Name:  SubModel Group 1
0 Author:  
0 CustomBrick
0 NumOfBricks:  6
1 15 -3.999860 -46.999970 1.999690 0.000001 0.999998 0.000001 -0.000001 -0.000001 1.000000 0.999998 -0.000001 0.000001 32316.dat
1 0 -13.999890 -86.999970 1.999690 -0.999998 0.000000 0.000000 0.000000 1.000000 0.000000 0.000000 0.000000 -0.999998 2780.dat
0 STEP
1 14 9.840130 -66.999910 1.999690 0.000000 0.000000 1.000000 0.000000 1.000000 0.000000 -1.000000 0.000000 0.000000 32123a.dat
1 0 4.840130 -66.999910 1.999760 -0.999998 0.000000 0.000000 0.000000 1.000000 0.000000 0.000000 0.000000 -0.999998 3705.dat
0 STEP
1 14 10.690060 -27.000020 1.999570 0.000000 0.000000 1.000000 0.000000 1.000000 0.000000 -1.000000 0.000000 0.000000 32123a.dat
1 72 16.000050 -27.000030 1.999630 -1.000000 0.000000 0.000000 0.000000 -1.000000 0.000000 0.000000 0.000000 1.000000 6587.dat
0 STEP
0 NOFILE
0 FILE SubModel Group 9 Copy Copy Copy
0 SubModel Group 9 Copy Copy Copy
0 Name:  SubModel Group 9 Copy Copy Copy
0 Author:  
0 CustomBrick
0 NumOfBricks:  3
1 72 10.000000 -1.128810 -10.000000 1.000000 0.000000 0.000000 0.000000 0.000000 -1.000000 0.000000 1.000000 0.000000 dch003.dat
1 71 -27.466620 -79.717990 29.427020 1.000000 0.000000 0.000000 0.000000 0.000000 -1.000000 0.000000 1.000000 0.000000 dch004.dat
1 25 7.837010 13.484720 -9.965000 1.000000 0.000000 0.000000 0.000000 0.000000 -1.000000 0.000000 1.000000 0.000000 dch005.dat
0 NOFILE
