0 FILE 四驱车说明书.io
0 Untitled Model
0 Name:  四驱车说明书
0 Author:  
0 CustomBrick
0 NumOfBricks:  186
1 0 50.090180 -54.000040 69.999640 1.000000 0.000000 0.000000 0.000000 1.000000 0.000000 0.000000 0.000000 1.000000 3706.dat
1 72 69.520240 -54.000040 69.999620 0.000000 0.000000 1.000000 0.000000 -1.000000 0.000000 1.000000 0.000000 0.000000 3648b.dat
1 14 83.940160 -54.000040 69.999640 0.000000 0.000000 -1.000000 1.000000 0.000000 0.000000 0.000000 -1.000000 0.000000 32123a.dat
0 STEP
1 1 50.000140 -64.000040 -70.000270 0.000000 0.000000 -1.000000 0.000000 1.000000 0.000000 1.000000 0.000000 -0.000001 3703.dat
0 STEP
1 71 20.090240 -54.000040 69.999580 0.000000 0.000000 -1.000000 0.000000 1.000000 0.000000 1.000000 0.000000 0.000000 3713.dat
1 14 35.070340 -54.000040 69.999580 -0.000001 0.000000 1.000000 0.000000 -1.000000 0.000000 1.000000 0.000000 0.000001 32123a.dat
0 STEP
1 71 -9.910550 -54.002880 69.998760 0.000000 0.000000 -0.999999 0.000000 1.000000 0.000000 0.999999 0.000000 0.000000 59443.dat
0 STEP
1 71 -59.909620 -54.000020 69.999680 -1.000000 0.000000 0.000000 0.000000 1.000000 0.000000 0.000000 0.000000 -1.000000 32073.dat
1 14 -34.889660 -54.000030 69.999680 -0.000001 0.000000 1.000000 0.000000 -1.000000 0.000000 1.000000 0.000000 0.000001 32123a.dat
0 STEP
1 1 -49.809650 -63.999990 -70.000260 0.000000 0.000000 -1.000000 0.000000 1.000000 0.000000 1.000000 0.000000 -0.000001 3703.dat
0 STEP
1 71 -69.899620 -54.000020 69.999680 0.000000 0.000000 -1.000000 0.000000 1.000000 0.000000 1.000000 0.000000 0.000000 3713.dat
1 14 -84.909610 -54.000020 69.999680 -0.000001 0.000000 1.000000 0.000000 -1.000000 0.000000 1.000000 0.000000 0.000001 32123a.dat
0 STEP
1 1 0.190280 -40.000030 69.999680 -1.000000 0.000000 0.000000 0.000000 1.000000 0.000000 0.000000 0.000000 -1.000000 32001.dat
1 1 0.190280 -40.000030 29.999670 -1.000000 0.000000 0.000000 0.000000 1.000000 0.000000 0.000000 0.000000 -1.000000 32001.dat
1 1 0.190410 -40.000020 -210.000200 -1.000000 0.000000 0.000000 0.000000 1.000000 0.000000 0.000000 0.000000 -1.000000 32001.dat
0 STEP
1 1 40.000640 -72.000040 29.999780 0.000000 0.000000 -1.000001 0.000000 1.000000 0.000000 1.000001 0.000000 0.000000 32001.dat
1 1 -39.809640 -72.000030 29.999650 0.000000 0.000000 -1.000000 0.000000 1.000000 0.000000 1.000000 0.000000 0.000000 32001.dat
0 STEP
1 1 -39.809710 -80.000020 19.999680 -1.000000 -0.000002 0.000001 -0.000002 1.000000 0.000000 -0.000001 0.000000 -1.000000 3023.dat
1 1 40.000140 -80.000070 19.999640 -1.000000 -0.000002 0.000001 -0.000002 1.000000 0.000000 -0.000001 0.000000 -1.000000 3023.dat
0 STEP
1 16 -80.000000 -36.000000 -80.000000 1.000000 0.000000 0.000000 0.000000 1.000000 0.000000 0.000000 0.000000 1.000000 submodel group 14
0 STEP
1 16 90.000000 -36.000000 -80.000000 1.000000 0.000000 0.000000 0.000000 1.000000 0.000000 0.000000 0.000000 1.000000 submodel group 13
0 STEP
1 1 110.000000 -102.000000 5.999780 0.000000 -1.000000 0.000001 0.600000 -0.000001 -0.800000 0.800000 0.000000 0.600000 32140.dat
1 1 -109.809500 -101.999900 5.998700 0.000000 -1.000000 0.000001 0.600000 -0.000001 -0.800000 0.800000 0.000001 0.600000 32140.dat
0 STEP
1 16 0.000000 -36.000000 -290.000000 1.000000 0.000000 0.000000 0.000000 1.000000 0.000000 0.000000 0.000000 1.000000 submodel group 12
0 STEP
1 16 0.000000 -72.000000 -80.000000 1.000000 0.000000 0.000000 0.000000 1.000000 0.000000 0.000000 0.000000 1.000000 submodel group 11
0 STEP
1 1 0.190540 -96.000030 -240.000200 1.000000 0.000000 0.000000 0.000000 1.000000 0.000000 0.000000 0.000000 1.000000 3710.dat
1 1 0.190540 -104.000000 -240.000200 1.000000 0.000000 0.000000 0.000000 1.000000 0.000000 0.000000 0.000000 1.000000 3710.dat
0 STEP
1 15 0.190540 -112.000000 -260.000200 1.000000 0.000000 0.000000 0.000000 1.000000 0.000000 0.000000 0.000000 1.000000 32064a.dat
0 STEP
1 1 30.190520 -112.000000 -290.000200 0.000000 0.000000 -1.000000 0.000000 1.000000 0.000000 1.000000 0.000000 0.000000 3701.dat
1 1 -29.809450 -112.000000 -290.000200 0.000000 0.000000 -1.000000 0.000000 1.000000 0.000000 1.000000 0.000000 0.000000 3701.dat
0 STEP
1 1 0.190540 -112.000000 -230.000200 1.000000 0.000000 0.000000 0.000000 1.000000 0.000000 0.000000 0.000000 1.000000 3709b.dat
0 STEP
1 0 39.999970 -133.999900 -210.000000 0.000000 0.000000 -1.000000 0.000000 1.000000 0.000000 1.000000 0.000000 0.000000 2780.dat
1 0 -40.000000 -133.999900 -210.000000 0.000000 0.000000 -1.000000 0.000000 1.000000 0.000000 1.000000 0.000000 0.000000 2780.dat
0 STEP
1 15 -0.000080 -133.999900 -220.000000 0.000001 0.000001 -1.000000 1.000000 -0.000001 0.000001 -0.000001 -1.000000 -0.000001 32316.dat
0 STEP
1 16 0.000000 -36.000000 -340.000000 1.000000 0.000000 0.000000 0.000000 1.000000 0.000000 0.000000 0.000000 1.000000 submodel group 4
0 STEP
1 16 35.343260 -72.000040 69.999860 1.000000 0.000000 0.000000 0.000000 1.000000 0.000000 0.000000 0.000000 1.000000 submodel group 2
0 STEP
1 71 -109.909600 -54.000020 69.999650 0.000000 0.000000 -1.000000 0.000000 1.000000 0.000000 1.000000 0.000000 0.000000 56145.dat
1 0 -109.910900 -54.000000 69.999740 0.000000 0.000000 0.999997 -1.000000 0.000000 0.000000 0.000000 -0.999997 0.000000 44309.dat
1 71 -99.809200 -54.000020 -310.000300 0.000000 0.000000 -1.000000 0.000000 1.000000 0.000000 1.000000 0.000000 -0.000001 56145.dat
1 0 -99.810420 -54.000000 -309.999500 0.000000 0.000000 1.000010 -1.000000 0.000000 0.000000 0.000000 -1.000010 0.000001 44309.dat
0 STEP
1 71 110.090200 -54.000040 69.999650 0.000000 0.000000 1.000000 0.000000 1.000000 0.000000 -1.000000 0.000000 0.000000 56145.dat
1 0 110.090200 -54.000030 69.999760 0.000000 0.000000 -1.000008 -1.000000 0.000000 0.000000 0.000000 1.000008 0.000000 44309.dat
1 71 100.190700 -54.000040 -310.000200 0.000000 0.000000 1.000000 0.000000 1.000000 0.000000 -1.000000 0.000000 0.000000 56145.dat
1 0 100.193300 -54.000020 -310.002700 0.000000 0.000000 -1.000016 -1.000000 0.000000 0.000000 0.000000 1.000016 0.000000 44309.dat
0 STEP
1 16 0.000000 -144.000000 -10.000000 1.000000 0.000000 0.000000 0.000000 1.000000 0.000000 0.000000 0.000000 1.000000 submodel group 1
0 STEP
0 STEP
0 NOFILE
0 FILE SubModel Group 14
0 SubModel Group 14
0 Name:  SubModel Group 14
0 Author:  
0 CustomBrick
0 NumOfBricks:  14
1 19 0.190480 -18.000000 -50.000200 -1.000001 -0.000001 0.000001 0.000001 0.000001 1.000000 -0.000001 1.000001 -0.000001 3749.dat
1 1 -9.809600 -17.999970 -50.000900 0.000000 1.000001 0.000000 -1.000000 0.000000 0.000000 0.000000 0.000000 1.000001 6629.dat
1 4 -19.809520 -66.000000 85.998710 -1.000001 0.000000 0.000000 0.000000 0.800000 -0.600000 0.000000 -0.600001 -0.800001 32062.dat
0 STEP
1 1 10.190230 -28.000040 -30.000200 0.000000 0.000000 -1.000001 0.000000 1.000000 0.000000 1.000001 0.000000 0.000000 3894.dat
0 STEP
1 1 10.190350 -17.999980 9.999280 -1.000001 0.000000 0.000000 0.000000 1.000000 0.000000 0.000000 0.000000 -1.000001 32556.dat
1 1 10.190350 -18.000020 -30.000200 -1.000001 0.000000 0.000000 0.000000 1.000000 0.000000 0.000000 0.000000 -1.000001 32556.dat
0 STEP
1 1 0.189880 -36.000020 -30.000090 0.000000 0.000000 -1.000000 0.000000 1.000000 0.000000 1.000000 0.000000 0.000000 32001.dat
0 STEP
1 1 -9.810120 -60.000030 29.999820 0.000000 0.000000 -1.000000 0.000000 1.000000 0.000000 1.000000 0.000000 0.000000 3700.dat
1 0 -19.809570 -50.000040 29.998760 -1.000003 0.000000 0.000000 0.000000 1.000000 0.000000 0.000000 0.000000 -1.000003 2780.dat
0 STEP
1 15 -9.810229 -60.000030 -9.999720 0.000000 0.000000 -1.000001 0.000000 1.000000 0.000000 1.000001 0.000000 0.000000 32064a.dat
0 STEP
1 4 -9.699830 -50.000030 -10.000450 -1.000005 0.000000 0.000000 0.000000 1.000000 0.000000 0.000000 0.000000 -1.000005 32062.dat
1 14 5.470200 -50.000030 -10.000480 0.000000 0.000000 -1.000000 1.000000 0.000000 0.000000 0.000000 -1.000000 0.000000 32123a.dat
0 STEP
1 15 -9.810260 -68.000000 10.000100 0.000000 0.000000 -1.000002 0.000000 1.000000 0.000000 1.000002 0.000000 0.000000 2431.dat
0 STEP
1 72 -24.699800 -50.000040 29.999080 0.000000 -1.000001 0.000000 0.000000 0.000000 1.000000 -1.000001 0.000000 0.000000 99773.dat
0 STEP
0 NOFILE
0 FILE SubModel Group 13
0 SubModel Group 13
0 Name:  SubModel Group 13
0 Author:  
0 CustomBrick
0 NumOfBricks:  14
1 19 -9.999900 -18.000060 -50.000300 1.000001 0.000001 -0.000001 0.000001 0.000001 1.000000 0.000001 -1.000001 0.000001 3749.dat
1 1 -0.000030 -18.000040 -50.000300 0.000000 1.000000 0.000000 -1.000000 0.000000 0.000000 0.000000 0.000000 1.000001 6629.dat
1 4 9.999980 -66.000000 85.999780 -1.000001 0.000000 0.000000 0.000000 0.800000 -0.600000 0.000000 -0.600001 -0.800000 32062.dat
0 STEP
1 1 -19.999900 -28.000060 -30.000200 0.000000 0.000000 -1.000000 0.000000 1.000000 0.000000 1.000000 0.000000 0.000000 3894.dat
0 STEP
1 1 -19.999840 -18.000040 -30.000200 1.000001 0.000000 0.000000 0.000000 1.000000 0.000000 0.000000 0.000000 1.000001 32556.dat
1 1 -19.999900 -18.000050 9.999780 1.000001 0.000000 0.000000 0.000000 1.000000 0.000000 0.000000 0.000000 1.000001 32556.dat
0 STEP
1 1 -10.000570 -36.000060 -30.000100 0.000000 0.000000 -1.000000 0.000000 1.000000 0.000000 1.000000 0.000000 0.000000 32001.dat
0 STEP
1 1 -0.000070 -60.000060 29.999800 0.000000 0.000000 -1.000000 0.000000 1.000000 0.000000 1.000000 0.000000 0.000000 3700.dat
1 0 10.001100 -50.000060 30.001130 -1.000004 0.000000 0.000000 0.000000 1.000000 0.000000 0.000000 0.000000 -1.000004 2780.dat
0 STEP
1 15 -0.000070 -60.000060 -10.000230 0.000000 0.000000 -1.000000 0.000000 1.000000 0.000000 1.000000 0.000000 0.000000 32064a.dat
0 STEP
1 4 0.289840 -50.000060 -10.000230 -1.000001 0.000000 0.000000 0.000000 1.000000 0.000000 0.000000 0.000000 -1.000001 32062.dat
1 14 -14.709980 -50.000060 -10.000200 0.000000 0.000000 -1.000001 1.000000 0.000000 0.000000 0.000000 -1.000001 0.000000 32123a.dat
0 STEP
1 15 -0.000090 -68.000100 9.999840 0.000000 0.000000 -1.000000 0.000000 1.000000 0.000000 1.000000 0.000000 0.000000 2431.dat
0 STEP
1 72 14.969810 -50.000060 29.999820 0.000000 -1.000001 0.000000 0.000000 0.000000 1.000000 -1.000001 0.000000 0.000000 99773.dat
0 STEP
0 NOFILE
0 FILE SubModel Group 12
0 SubModel Group 12
0 Name:  SubModel Group 12
0 Author:  
0 CustomBrick
0 NumOfBricks:  14
1 1 0.190410 -4.000020 -50.000240 1.000000 0.000000 0.000000 0.000000 1.000000 0.000000 0.000000 0.000000 1.000000 3710.dat
1 1 -29.811470 -27.999980 19.999120 0.000000 0.000000 -1.000000 0.000000 1.000000 0.000000 1.000000 0.000000 0.000000 3702.dat
0 STEP
1 71 -49.809280 -18.000020 -20.000310 1.000001 0.000000 0.000000 0.000000 1.000000 0.000000 0.000000 0.000000 1.000001 32073.dat
0 STEP
1 71 0.191990 -18.002880 -19.999390 0.000000 0.000000 0.999999 0.000000 1.000000 0.000000 -0.999999 0.000000 0.000000 59443.dat
0 STEP
1 15 0.193580 -27.999990 -50.000980 1.000000 0.000000 0.000000 0.000000 1.000000 0.000000 0.000000 0.000000 1.000000 32064a.dat
0 STEP
1 1 30.190520 -27.999990 19.999790 0.000000 0.000000 -1.000001 0.000000 1.000000 0.000000 1.000001 0.000000 0.000000 3702.dat
0 STEP
1 71 50.190640 -18.000030 -20.000210 1.000001 0.000000 0.000000 0.000000 1.000000 0.000000 0.000000 0.000000 1.000001 32073.dat
0 STEP
1 15 0.190540 -52.000030 -40.000220 1.000000 0.000000 0.000000 0.000000 1.000000 0.000000 0.000000 0.000000 1.000000 3001.dat
1 15 0.190540 -52.000030 39.999800 1.000000 0.000000 0.000000 0.000000 1.000000 0.000000 0.000000 0.000000 1.000000 3001.dat
0 STEP
1 1 0.000220 -36.000030 79.999680 -1.000000 0.000000 0.000000 0.000000 1.000000 0.000000 0.000000 0.000000 -1.000000 32001.dat
0 STEP
1 1 -39.999770 -44.000060 69.999680 -1.000000 -0.000002 0.000001 -0.000002 1.000000 0.000000 -0.000001 0.000000 -1.000000 3023.dat
1 1 40.000270 -44.000070 69.999680 -1.000000 -0.000002 0.000001 -0.000002 1.000000 0.000000 -0.000001 0.000000 -1.000000 3023.dat
0 STEP
1 4 -59.809280 -18.000020 -20.000310 1.000000 0.000000 0.000000 0.000000 1.000000 0.000000 0.000000 0.000000 1.000000 62462.dat
1 4 58.820700 -18.000030 -20.000210 1.000000 0.000000 0.000000 0.000000 1.000000 0.000000 0.000000 0.000000 1.000000 62462.dat
0 STEP
0 NOFILE
0 FILE SubModel Group 11
0 SubModel Group 11
0 Name:  SubModel Group 11
0 Author:  
0 CustomBrick
0 NumOfBricks:  16
1 72 68.588940 -42.572900 32.532920 0.000000 0.000000 -1.000000 0.000000 -1.000000 0.000000 -1.000000 0.000000 0.000000 dch003.dat
1 71 -10.000250 -81.999900 69.999530 0.000000 0.000000 -1.000000 0.000000 -1.000000 0.000000 -1.000000 0.000000 0.000000 dch004.dat
1 25 83.202460 -42.607900 34.695920 0.000000 0.000000 -1.000000 0.000000 -1.000000 0.000000 -1.000000 0.000000 0.000000 dch005.dat
0 STEP
1 0 -40.000450 -21.999930 89.999720 0.000000 0.000000 -1.000000 0.000000 -1.000000 0.000000 -1.000000 0.000000 0.000000 2780.dat
1 0 40.000080 -21.999980 89.999770 0.000000 0.000000 -1.000000 0.000000 -1.000000 0.000000 -1.000000 0.000000 0.000000 2780.dat
0 STEP
1 1 0.000110 -32.000000 99.999770 -1.000000 0.000000 0.000000 0.000000 1.000000 0.000000 0.000000 0.000000 -1.000000 3894.dat
0 STEP
1 72 19.999920 -71.999900 79.999550 0.000000 -1.000000 0.000000 -1.000000 0.000000 0.000001 -0.000001 0.000000 -1.000000 32002.dat
1 72 -20.000250 -71.999900 79.999530 0.000000 -1.000000 0.000000 -1.000000 0.000000 0.000001 -0.000001 0.000000 -1.000000 32002.dat
0 STEP
1 0 -39.999960 -61.999900 89.999880 0.000000 0.000000 -1.000000 0.000000 1.000000 0.000000 1.000000 0.000000 0.000000 2780.dat
1 0 39.999970 -62.000000 89.999900 0.000000 0.000000 -1.000000 0.000000 1.000000 0.000000 1.000000 0.000000 0.000000 2780.dat
0 STEP
1 15 -0.000020 -61.999900 99.999850 0.000001 0.000001 -1.000000 1.000000 -0.000001 0.000001 -0.000001 -1.000000 -0.000001 32316.dat
0 STEP
1 72 20.000400 -71.999900 -119.999500 0.000000 -1.000000 0.000000 -1.000000 0.000000 0.000001 -0.000001 0.000000 -1.000000 32002.dat
1 72 -20.000010 -71.999900 -119.999700 0.000000 -1.000000 0.000000 -1.000000 0.000000 0.000001 -0.000001 0.000000 -1.000000 32002.dat
0 STEP
1 0 -40.000010 -21.999900 -129.999300 0.000000 0.000000 -1.000000 0.000000 -1.000000 0.000000 -1.000000 0.000000 0.000000 2780.dat
1 0 40.000510 -21.999950 -129.999500 0.000000 0.000000 -1.000000 0.000000 -1.000000 0.000000 -1.000000 0.000000 0.000000 2780.dat
0 STEP
1 1 0.000290 -32.000000 -140.000300 -1.000000 0.000000 0.000000 0.000000 1.000000 0.000000 0.000000 0.000000 -1.000000 3894.dat
0 STEP
0 NOFILE
0 FILE SubModel Group 4
0 SubModel Group 4
0 Name:  SubModel Group 4
0 Author:  
0 CustomBrick
0 NumOfBricks:  54
1 4 0.195550 -18.000070 -20.003390 -1.000002 0.000000 0.000000 0.000000 -1.000000 -0.000001 0.000000 -0.000001 1.000002 32039.dat
1 0 3.239850 -17.999820 -40.000240 -1.000000 0.000000 0.000000 0.000000 -1.000000 0.000000 0.000000 0.000000 1.000000 3737.dat
0 STEP
1 4 -19.653730 -37.999840 -40.001190 -1.000000 0.000000 0.000000 0.000000 -1.000000 0.000000 0.000000 0.000000 1.000000 42003.dat
1 4 20.099850 -37.999820 -40.000240 -1.000000 0.000000 0.000000 0.000000 -1.000000 0.000000 0.000000 0.000000 1.000000 42003.dat
0 STEP
1 4 0.193580 -18.000000 -10.000980 0.000000 0.000000 -1.000000 0.000000 -1.000000 0.000000 -1.000000 0.000000 0.000000 32062.dat
0 STEP
1 19 -19.653760 -57.999720 -50.001590 0.000001 -1.000005 0.000001 0.000001 0.000001 1.000000 -1.000005 -0.000001 0.000001 3749.dat
1 19 20.100100 -57.999840 -50.002260 0.000001 -1.000005 0.000001 0.000001 0.000001 1.000000 -1.000005 -0.000001 0.000001 3749.dat
1 0 20.100040 -37.999880 -50.002260 0.000000 0.000000 1.000005 0.000000 -1.000000 0.000000 1.000005 0.000000 0.000000 2780.dat
1 0 -19.653720 -37.999840 -50.001190 0.000000 0.000000 1.000004 0.000000 -1.000000 0.000000 1.000004 0.000000 0.000000 2780.dat
0 STEP
1 14 -19.653760 -57.999740 -55.001400 -1.000005 0.000000 0.000000 0.000000 -1.000000 0.000000 0.000000 0.000000 1.000005 32123a.dat
1 14 -19.653760 -57.999740 -65.001800 -1.000005 0.000000 0.000000 0.000000 -1.000000 0.000000 0.000000 0.000000 1.000005 32123a.dat
1 14 20.100040 -57.999790 -55.002260 -1.000005 0.000000 0.000000 0.000000 -1.000000 0.000000 0.000000 0.000000 1.000005 32123a.dat
1 14 20.100840 -57.999780 -65.002100 -1.000004 0.000000 0.000000 0.000000 -1.000000 0.000000 0.000000 0.000000 1.000004 32123a.dat
0 STEP
1 16 -60.000000 -12.000000 40.000000 1.000000 0.000000 0.000000 0.000000 1.000000 0.000000 0.000000 0.000000 1.000000 submodel group 9
0 STEP
1 14 -75.020160 -17.999800 -40.000240 0.000000 0.000000 1.000000 0.000000 -1.000000 0.000000 1.000000 0.000000 0.000000 32123a.dat
0 STEP
1 16 70.000000 -12.000000 40.000000 1.000000 0.000000 0.000000 0.000000 1.000000 0.000000 0.000000 0.000000 1.000000 submodel group 7
0 STEP
1 14 78.709870 -17.999840 -40.000240 0.000000 0.000000 1.000000 0.000000 -1.000000 0.000000 1.000000 0.000000 0.000000 32123a.dat
0 STEP
1 15 0.346290 -37.999860 -60.001190 0.000001 0.000001 -1.000000 1.000000 -0.000001 0.000001 -0.000001 -1.000000 -0.000001 40490.dat
0 STEP
1 16 100.000000 0.000000 -70.000000 1.000000 0.000000 0.000000 0.000000 1.000000 0.000000 0.000000 0.000000 1.000000 submodel group 5
1 16 -90.000000 0.000000 -70.000000 1.000000 0.000000 0.000000 0.000000 1.000000 0.000000 0.000000 0.000000 1.000000 submodel group 6
0 STEP
0 NOFILE
0 FILE SubModel Group 9
0 SubModel Group 9
0 Name:  SubModel Group 9
0 Author:  
0 CustomBrick
0 NumOfBricks:  15
1 1 -0.000180 -85.999800 -80.000240 0.000000 1.000000 0.000000 1.000000 0.000000 0.000000 0.000000 0.000000 -1.000000 32009.dat
0 STEP
1 0 9.999800 -85.999800 20.000000 -1.000000 0.000000 0.000000 0.000000 1.000000 0.000000 0.000000 0.000000 -1.000000 2780.dat
1 1 -0.000200 -85.999800 -40.000240 -1.000000 0.000000 0.000000 0.000000 1.000000 0.000000 0.000000 0.000000 -1.000000 32556.dat
0 STEP
1 0 29.999870 -85.999800 40.000090 -1.000000 0.000000 0.000000 0.000000 1.000000 0.000000 0.000000 0.000000 -1.000000 2780.dat
1 1 19.999860 -85.999800 60.000000 0.000000 1.000000 0.000000 1.000000 0.000000 0.000000 0.000000 0.000000 -1.000000 6629.dat
0 STEP
1 4 -10.000200 -85.999800 80.000110 -1.000000 0.000000 0.000000 0.000000 1.000000 0.000000 0.000000 0.000000 -1.000000 32062.dat
0 STEP
1 4 -20.000110 -85.999800 60.000110 1.000000 0.000000 0.000000 0.000000 0.000000 1.000000 0.000000 -1.000000 0.000000 42003.dat
0 STEP
1 4 39.999990 -85.999800 39.999790 1.000000 0.000000 0.000000 0.000000 1.000000 0.000000 0.000000 0.000000 1.000000 32034.dat
0 STEP
1 19 39.999930 -85.999800 70.000000 0.000001 -1.000000 0.000001 0.000001 0.000001 1.000000 -1.000000 -0.000001 0.000001 3749.dat
0 STEP
1 16 -30.000000 -24.000000 -50.000000 1.000000 0.000000 0.000001 0.000000 0.719348 0.694650 -0.000001 -0.694650 0.719348 submodel group 10
0 STEP
0 NOFILE
0 FILE SubModel Group 10
0 SubModel Group 10
0 Name:  SubModel Group 10
0 Author:  
0 CustomBrick
0 NumOfBricks:  6
1 4 0.000700 -11.545770 -35.874580 -1.000000 -0.000001 0.000001 -0.000001 0.999997 0.000004 -0.000001 -0.000001 -1.000000 32062.dat
1 1 -10.000170 -11.545760 -35.874590 0.000001 -1.000000 0.000000 -0.000005 0.000000 -0.999996 1.000000 0.000000 0.000000 32140.dat
0 STEP
1 0 0.000550 -71.545250 -35.874870 -1.000000 0.000000 0.000001 0.000000 0.000004 -0.999996 0.000000 -1.000000 0.000000 2780.dat
1 0 0.000530 -71.545480 -15.874490 -1.000000 0.000000 0.000001 0.000000 0.000004 -0.999996 0.000000 -1.000000 0.000000 2780.dat
0 STEP
1 1 10.000820 -11.544440 -35.873360 0.000001 -1.000000 0.000000 -0.000004 0.000000 -1.000002 1.000000 0.000000 -0.000006 32140.dat
0 STEP
1 0 20.000680 -31.545470 -35.874940 -1.000000 0.000001 0.000000 0.000000 0.694647 -0.719347 -0.000001 -0.719351 -0.694647 2780.dat
0 STEP
0 NOFILE
0 FILE SubModel Group 7
0 SubModel Group 7
0 Name:  SubModel Group 7
0 Author:  
0 CustomBrick
0 NumOfBricks:  15
1 0 -36.309350 -85.999690 40.001190 -1.000002 0.000000 0.000000 0.000000 0.000001 -1.000002 0.000000 -1.000000 -0.000001 2780.dat
1 1 -26.311560 -86.000400 60.000580 0.000000 0.999998 0.000000 0.999999 0.000000 0.000000 0.000000 0.000000 -1.000001 6629.dat
0 STEP
1 4 -46.309300 -85.999690 40.001310 1.000002 0.000000 0.000000 0.000000 1.000002 0.000000 0.000000 0.000000 1.000000 32034.dat
0 STEP
1 19 -46.309160 -85.999800 70.001100 0.000001 -1.000002 0.000001 0.000001 0.000001 1.000002 -1.000000 -0.000001 0.000001 3749.dat
0 STEP
1 0 -16.309420 -85.999800 20.001100 -1.000002 0.000000 0.000000 0.000000 0.000001 -1.000002 0.000000 -1.000000 -0.000001 2780.dat
1 1 -6.309170 -85.999800 -39.999210 1.000002 0.000000 0.000000 0.000000 1.000002 0.000000 0.000000 0.000000 1.000000 32556.dat
0 STEP
1 4 3.690780 -85.999690 80.000900 -1.000002 0.000000 0.000000 0.000000 1.000006 0.000000 0.000000 0.000000 -1.000004 32062.dat
1 1 -6.310080 -85.999800 -80.000240 0.000000 1.000000 0.000000 1.000000 0.000000 0.000000 0.000000 0.000000 -1.000000 32009.dat
0 STEP
1 4 13.690660 -85.999610 60.003120 1.000002 0.000000 0.000000 0.000000 0.000000 1.000002 0.000000 -1.000000 0.000000 42003.dat
0 STEP
1 16 20.000000 -24.000000 -50.000000 1.000000 0.000000 -0.000001 0.000000 0.719352 0.694646 0.000001 -0.694646 0.719352 submodel group 8
0 STEP
0 NOFILE
0 FILE SubModel Group 8
0 SubModel Group 8
0 Name:  SubModel Group 8
0 Author:  
0 CustomBrick
0 NumOfBricks:  6
1 4 3.690440 -11.546820 -35.873480 -1.000002 0.000001 -0.000001 0.000001 1.000001 -0.000001 0.000001 -0.000001 -1.000000 32062.dat
1 1 13.691170 -11.546900 -35.873560 -0.000001 -1.000002 0.000000 0.000001 0.000000 -1.000000 0.999999 0.000000 0.000000 32140.dat
0 STEP
1 0 3.690600 -71.546820 -15.873350 -1.000002 0.000000 -0.000001 0.000000 -0.000001 -1.000000 0.000000 -1.000000 0.000000 2780.dat
1 0 3.690530 -71.546660 -35.873790 -1.000002 0.000000 -0.000001 0.000000 -0.000001 -1.000000 0.000000 -1.000000 0.000000 2780.dat
0 STEP
1 1 -6.309560 -11.546640 -35.873960 -0.000001 -1.000002 0.000000 0.000001 0.000000 -1.000000 1.000001 0.000000 0.000000 32140.dat
0 STEP
1 0 -16.309430 -31.546760 -35.873780 -1.000002 -0.000001 0.000000 0.000000 0.694647 -0.719353 0.000001 -0.719351 -0.694648 2780.dat
0 STEP
0 NOFILE
0 FILE SubModel Group 5
0 SubModel Group 5
0 Name:  SubModel Group 5
0 Author:  
0 CustomBrick
0 NumOfBricks:  4
1 4 -6.760530 -17.999860 -0.000120 0.000000 0.000000 1.000000 0.000000 1.000000 0.000000 -1.000000 0.000000 0.000000 32062.dat
1 4 -6.760100 -17.999810 9.999760 -1.000000 0.000000 0.000000 0.000000 1.000000 0.000001 0.000000 0.000001 -1.000000 32039.dat
0 STEP
1 72 13.239500 -17.999840 -5.290100 0.000000 1.000000 0.000000 1.000000 0.000000 0.000000 0.000000 0.000000 -1.000000 6575.dat
1 14 -6.760520 -17.999840 -15.000120 -1.000000 0.000000 0.000000 0.000000 -1.000000 0.000000 0.000000 0.000000 1.000000 32123a.dat
0 STEP
0 NOFILE
0 FILE SubModel Group 6
0 SubModel Group 6
0 Name:  SubModel Group 6
0 Author:  
0 CustomBrick
0 NumOfBricks:  4
1 4 3.239980 -17.999760 0.002200 0.000000 0.000000 -1.000000 0.000000 1.000000 0.000000 1.000000 0.000000 -0.000001 32062.dat
1 4 3.239900 -17.999790 9.999760 -1.000000 0.000000 0.000000 0.000000 1.000000 0.000001 0.000000 0.000001 -1.000000 32039.dat
0 STEP
1 72 -16.760000 -17.999770 -5.287840 0.000000 -1.000000 0.000000 -1.000000 0.000000 0.000000 0.000000 0.000000 -1.000000 6575.dat
1 14 3.239990 -17.999760 -14.997800 -1.000000 0.000000 0.000000 0.000000 -1.000000 0.000000 0.000000 0.000000 1.000000 32123a.dat
0 STEP
0 NOFILE
0 FILE SubModel Group 2
0 SubModel Group 2
0 Name:  SubModel Group 2
0 Author:  
0 CustomBrick
0 NumOfBricks:  4
1 4 24.176890 -38.000000 -0.000240 1.000005 0.000000 0.000000 0.000000 1.000001 0.000000 0.000000 0.000001 1.000006 32062.dat
1 15 24.988830 -38.729120 0.000490 0.000000 0.000000 -1.000000 0.000000 1.000000 0.000000 1.000000 0.000000 0.000000 dx0010.dat
0 STEP
1 19 34.176920 -38.000000 -0.000240 0.000000 0.000000 1.000000 0.000000 1.000001 0.000000 -1.000001 0.000001 0.000000 32269.dat
1 1 -35.342620 -8.000000 -0.000020 -1.000000 0.000000 0.000000 0.000000 1.000000 0.000000 0.000000 0.000000 -1.000000 32001.dat
0 STEP
0 NOFILE
0 FILE SubModel Group 1
0 SubModel Group 1
0 Name:  SubModel Group 1
0 Author:  
0 CustomBrick
0 NumOfBricks:  32
1 0 3.158190 -40.861230 105.238800 -1.000000 0.000000 0.000000 0.000000 0.923878 0.382691 0.000000 0.382690 -0.923878 3706.dat
1 71 -0.061540 -40.861230 105.238800 0.000001 0.000000 -1.000000 -0.382691 0.923878 0.000000 0.923878 0.382690 0.000001 3713.dat
0 STEP
1 4 19.988260 -33.207320 86.761260 -1.000000 0.000000 0.000000 0.000000 0.923878 0.382692 0.000000 0.382691 -0.923877 32039.dat
1 4 -20.131840 -33.207390 86.761360 -1.000000 0.000000 0.000000 0.000000 0.923878 0.382692 0.000000 0.382691 -0.923877 32039.dat
0 STEP
1 4 -20.131720 -29.380290 77.522560 0.000000 0.000000 1.000000 0.382691 0.923878 0.000000 -0.923878 0.382690 0.000000 32062.dat
1 4 19.988380 -29.380400 77.522600 0.000000 0.000000 1.000000 0.382691 0.923878 0.000000 -0.923878 0.382690 0.000000 32062.dat
0 STEP
1 0 -20.131600 -17.899600 49.806100 -1.000000 0.000000 0.000000 0.000000 0.923878 0.382691 0.000000 0.382690 -0.923877 32016.dat
0 STEP
1 0 19.988380 -17.899700 49.806140 -1.000000 0.000000 0.000000 0.000000 0.923878 0.382691 0.000000 0.382690 -0.923877 32016.dat
0 STEP
1 72 -51.842060 -48.515000 123.716400 0.000000 0.000001 -1.000000 0.923878 0.382691 0.000000 0.382690 -0.923877 -0.000001 6575.dat
1 72 58.198340 -48.515000 123.716500 0.000000 0.000001 -1.000000 0.923878 0.382691 0.000000 0.382691 -0.923877 -0.000001 6575.dat
0 STEP
1 0 3.198100 -56.168700 142.193900 -1.000000 0.000000 0.000000 0.000000 0.923877 0.382690 0.000000 0.382690 -0.923877 3708.dat
1 0 3.388050 -48.514900 123.716400 -1.000000 0.000000 0.000000 0.000000 0.923880 0.382691 0.000000 0.382690 -0.923878 3708.dat
0 STEP
1 71 -106.801800 -56.168700 142.193900 -0.000001 0.000000 1.000000 -0.923877 0.382690 -0.000001 -0.382690 -0.923877 0.000000 3713.dat
1 71 -106.611800 -48.515200 123.716300 0.000000 0.000000 1.000000 -0.923878 0.382690 -0.000001 -0.382689 -0.923878 0.000000 3713.dat
0 STEP
1 71 113.198000 -56.168700 142.193900 0.000001 0.000000 -1.000000 -0.382690 0.923877 0.000000 0.923877 0.382690 0.000001 3713.dat
1 71 113.383200 -48.515000 123.716000 0.000001 0.000000 -1.000000 -0.382691 0.923880 0.000000 0.923877 0.382691 0.000001 3713.dat
0 STEP
1 19 -20.131470 -18.000200 19.999190 0.000000 1.000000 -0.000001 0.000000 0.000001 1.000001 1.000000 0.000000 0.000000 3749.dat
1 19 19.989110 -18.000110 19.999810 0.000000 1.000000 -0.000001 0.000000 0.000001 1.000000 1.000000 0.000000 0.000000 3749.dat
0 STEP
1 1 -0.009780 -28.000000 9.999710 1.000000 0.000000 0.000000 0.000000 1.000000 0.000000 0.000000 0.000000 1.000000 3701.dat
0 STEP
1 1 -0.009410 -28.000120 -80.001700 0.000000 0.000000 -1.000003 0.000000 1.000000 0.000000 1.000003 0.000000 0.000000 3738.dat
1 1 -0.010880 -36.000120 -40.000340 0.000000 0.000000 -1.000000 0.000000 1.000000 0.000000 1.000000 0.000000 0.000000 3738.dat
0 STEP
1 15 -10.009770 -60.000120 -50.001400 -1.000003 0.000000 0.000000 0.000000 1.000000 0.000000 0.000000 0.000000 -1.000003 3040b.dat
1 15 9.990089 -60.000120 -50.001540 -1.000003 0.000000 0.000000 0.000000 1.000000 0.000000 0.000000 0.000000 -1.000003 3040b.dat
0 STEP
1 1 -0.009410 -60.000120 -70.001320 1.000003 0.000000 0.000000 0.000000 1.000000 0.000000 0.000000 0.000000 1.000003 3700.dat
1 1 -0.009410 -60.000120 -90.001590 1.000003 0.000000 0.000000 0.000000 1.000000 0.000000 0.000000 0.000000 1.000003 3700.dat
0 STEP
1 1 -0.009170 -36.000120 -160.002000 0.000000 0.000000 -1.000003 0.000000 1.000000 0.000000 1.000003 0.000000 0.000000 3709b.dat
0 STEP
1 15 -10.009660 -60.000120 -110.001500 1.000003 0.000000 0.000000 0.000000 1.000000 0.000000 0.000000 0.000000 1.000003 3040b.dat
1 15 9.990339 -60.000120 -110.001500 1.000003 0.000000 0.000000 0.000000 1.000000 0.000000 0.000000 0.000000 1.000003 3040b.dat
0 STEP
1 1 -0.008070 -28.000120 -190.001900 1.000003 0.000000 0.000000 0.000000 1.000000 0.000000 0.000000 0.000000 1.000003 3701.dat
0 STEP
1 0 19.990330 -18.000000 -200.002300 0.000000 0.000000 -1.000004 0.000000 -1.000000 0.000000 -1.000003 0.000000 -0.000001 2780.dat
1 0 -20.010010 -18.000000 -200.002400 0.000000 0.000000 -1.000004 0.000000 -1.000000 0.000000 -1.000003 0.000000 -0.000001 2780.dat
0 STEP
1 15 -0.009780 -18.000110 -210.002400 -0.000001 -0.000001 1.000004 1.000000 -0.000001 0.000001 0.000001 1.000004 0.000001 32523.dat
0 STEP
0 NOFILE
