0 FILE 旋转烧烤架.io
0 Untitled Model
0 Name:  旋转烧烤架
0 Author:  
0 CustomBrick
0 NumOfBricks:  67
1 0 -100.000800 -37.999880 19.999910 1.000000 0.000000 0.000000 0.000000 0.258817 0.965925 0.000000 -0.965926 0.258819 2780.dat
1 0 -0.000020 -37.999980 -60.000160 1.000000 0.000000 0.000000 0.000000 0.999999 0.000001 0.000000 0.000001 1.000000 2780.dat
1 0 -100.000500 -37.999980 -60.000200 1.000000 0.000000 0.000000 0.000000 0.999999 0.000001 0.000000 0.000001 1.000000 2780.dat
1 0 -100.000500 -37.999890 19.999910 1.000000 0.000000 0.000000 0.000000 0.999999 0.000001 0.000000 0.000001 1.000000 2780.dat
1 0 -0.000030 -37.999890 19.999900 1.000000 0.000000 0.000000 0.000000 0.999999 0.000001 0.000000 0.000001 1.000000 2780.dat
1 15 -110.000800 -37.999960 -20.000160 -0.000001 -1.000000 -0.000001 -0.999999 0.000001 -0.000002 0.000000 0.000001 -1.000000 64871.dat
1 15 9.999949 -37.999970 -20.000090 -0.000001 -1.000000 -0.000001 -0.999999 0.000001 -0.000002 0.000000 0.000001 -1.000000 64871.dat
1 71 -50.000420 -37.999940 -20.000150 1.000000 0.000000 0.000000 0.000000 0.999999 0.000001 0.000000 0.000001 1.000000 64179.dat
0 STEP
1 0 -120.000700 -38.000140 -120.000200 1.000000 0.000000 0.000000 0.000000 0.999999 0.000001 0.000000 0.000001 1.000000 2780.dat
1 0 -100.000500 -37.999780 79.999980 1.000000 0.000000 0.000000 0.000000 0.999999 0.000001 0.000000 0.000001 1.000000 2780.dat
1 15 -130.000300 -124.602800 -69.999880 0.000000 1.000000 -0.000001 0.500002 0.000001 0.866023 0.866025 -0.000001 -0.500000 64290.dat
1 15 -90.000820 -124.602200 29.999810 0.000003 -1.000000 0.000005 0.499999 0.000006 0.866025 -0.866026 0.000000 0.500002 64290.dat
0 STEP
1 0 -0.000160 -38.000140 -120.000100 1.000000 0.000001 0.000000 -0.000001 0.965925 0.258820 0.000000 -0.258819 0.965926 2780.dat
1 0 20.000060 -37.999770 80.000020 1.000000 0.000000 0.000000 0.000000 0.999999 0.000001 0.000000 0.000001 1.000000 2780.dat
1 15 -8.690920 -124.603100 -70.000500 0.000000 1.000000 -0.000001 0.500002 0.000001 0.866024 0.866025 -0.000001 -0.500000 64290.dat
1 15 29.999570 -124.602200 29.999980 0.000003 -1.000000 0.000005 0.499999 0.000006 0.866025 -0.866026 0.000000 0.500002 64290.dat
0 STEP
1 0 39.999540 -124.602200 30.999980 1.000000 0.000000 0.000000 0.000000 0.999999 0.000001 0.000000 0.000001 1.000000 2780.dat
1 0 39.999780 -88.961130 47.000020 1.000000 0.000000 0.000000 0.000000 0.500001 -0.866024 0.000000 0.866026 0.499999 2780.dat
0 STEP
1 71 31.989680 -107.281900 39.999900 1.000003 0.000000 0.000000 0.000000 -0.866025 0.499999 0.000000 -0.500001 -0.866026 4519.dat
1 72 10.989450 -107.281900 39.999900 0.000000 0.000000 1.000000 -0.866025 0.499999 0.000000 -0.500001 -0.866026 0.000000 3648b.dat
1 71 39.999540 -106.345500 38.166640 0.000000 0.000000 1.000000 0.408329 0.912833 0.000000 -0.912834 0.408331 0.000000 58120.dat
0 STEP
1 72 11.089230 -159.243600 9.999969 0.000000 0.000000 0.999998 0.893470 0.449124 0.000000 -0.449123 0.893470 0.000000 3648b.dat
1 72 47.779320 -159.243400 9.999880 0.000000 0.000000 -1.000000 0.893469 -0.449124 0.000000 -0.449123 -0.893470 0.000000 3647.dat
1 71 23.969310 -159.243400 9.999940 1.000000 0.000000 0.000000 0.000000 -0.449123 0.893469 0.000000 -0.893470 -0.449123 4519.dat
0 STEP
1 71 -110.011600 -211.205000 -19.999920 -0.000001 0.000000 1.000000 -0.034901 0.999390 0.000000 -0.999391 -0.034899 -0.000001 3713.dat
1 71 10.879100 -211.205100 -20.000050 -0.000001 0.000000 1.000000 -0.034901 0.999390 0.000000 -0.999391 -0.034899 -0.000001 3713.dat
1 0 -59.991500 -211.205000 -19.999970 1.000000 -0.000001 0.000001 0.000001 0.999390 -0.034899 -0.000001 0.034901 0.999391 3708.dat
1 71 50.089020 -211.205100 -20.000100 0.000000 0.000001 1.000000 0.999390 0.034901 0.000000 -0.034899 0.999391 -0.000001 3649.dat
0 STEP
1 1 30.000060 -48.000030 -100.000100 -0.000001 0.000000 -1.000000 0.000001 0.999999 0.000000 1.000000 0.000001 -0.000001 3895.dat
1 1 30.000060 -24.000040 -99.999980 0.000001 0.000000 1.000000 -0.000001 0.999999 0.000000 -1.000000 0.000001 0.000001 3895.dat
1 1 -130.000600 -23.999900 60.000020 0.000000 0.000000 -1.000000 0.000001 0.999999 0.000000 1.000000 0.000001 0.000000 3895.dat
1 1 -130.000600 -47.999880 59.999940 -0.000001 0.000000 -1.000000 0.000001 0.999999 0.000000 1.000000 0.000001 -0.000001 3895.dat
1 0 -120.000600 -37.999960 -20.000160 1.000000 0.000000 0.000000 0.000000 0.999999 0.000001 0.000000 0.000001 1.000000 2780.dat
1 0 19.999960 -37.999960 -20.000090 1.000000 0.000000 0.000000 0.000000 0.999999 0.000001 0.000000 0.000001 1.000000 2780.dat
0 STEP
1 15 30.000050 -72.000080 -210.000100 -0.999998 0.000000 0.000000 0.000000 0.999997 -0.000001 0.000000 0.000001 -1.000000 3040b.dat
1 15 -130.000600 -71.999940 -50.000180 -0.999998 0.000000 0.000000 0.000000 0.999997 -0.000001 0.000000 0.000001 -1.000000 3040b.dat
1 15 30.000180 -71.999880 -40.000050 0.000000 0.000000 -0.999998 0.000001 0.999997 0.000000 1.000000 0.000001 0.000000 32064a.dat
1 15 30.000060 -71.999860 10.000020 0.999998 0.000000 0.000000 0.000000 0.999997 0.000001 0.000000 0.000001 1.000000 3040b.dat
1 15 30.000170 -72.000000 -160.000000 0.000000 0.000000 -0.999998 0.000001 0.999997 0.000000 1.000000 0.000001 0.000000 32064a.dat
1 15 -130.000600 -71.999690 170.000000 0.999998 0.000000 0.000000 0.000000 0.999997 0.000001 0.000000 0.000001 1.000000 3040b.dat
1 15 -130.000500 -71.999860 -0.000100 0.000000 0.000000 -0.999998 0.000001 0.999997 0.000000 1.000000 0.000001 0.000000 32064a.dat
1 15 -130.000500 -71.999760 130.000000 0.000000 0.000000 -0.999998 0.000001 0.999997 0.000000 1.000000 0.000001 0.000000 32064a.dat
0 STEP
1 0 40.000150 -38.000140 -200.000100 0.999998 0.000000 0.000000 0.000000 0.999997 0.000001 0.000000 0.000001 1.000000 2780.dat
1 0 -120.000600 -37.999800 160.000000 0.999998 0.000000 0.000000 0.000000 0.999997 0.000001 0.000000 0.000001 1.000000 2780.dat
1 0 20.000060 -14.000130 -180.000000 0.999998 0.000000 0.000000 0.000000 0.999997 0.000001 0.000000 0.000001 1.000000 2780.dat
1 0 -140.000600 -13.999820 160.000100 0.999998 0.000000 0.000000 0.000000 0.999997 0.000001 0.000000 0.000001 1.000000 2780.dat
1 4 50.000140 -38.000140 -200.000100 0.999998 0.000000 0.000000 0.000000 -0.999997 -0.000001 0.000000 -0.000001 -1.000000 32034.dat
1 4 -110.000500 -37.999800 160.000000 0.999998 0.000000 0.000000 0.000000 -0.999997 -0.000001 0.000000 -0.000001 -1.000000 32034.dat
1 4 10.000090 -14.000130 -180.000000 0.999998 0.000000 0.000000 0.000000 -0.999997 -0.000001 0.000000 -0.000001 -1.000000 32034.dat
1 4 -150.000600 -13.999820 160.000100 0.999998 0.000000 0.000000 0.000000 -0.999997 -0.000001 0.000000 -0.000001 -1.000000 32034.dat
0 STEP
1 71 -179.991100 -211.208000 -19.999910 0.000001 0.000000 -1.000000 -0.034899 0.999390 0.000000 0.999391 0.034901 0.000001 59443.dat
1 71 -150.411000 -211.205100 -19.999920 -0.000001 0.000000 1.000000 0.034899 0.999390 0.000000 -0.999391 0.034901 -0.000001 3713.dat
0 STEP
1 71 -234.991100 -211.205100 -19.999740 -0.000001 0.000000 1.000000 0.034899 0.999390 0.000000 -0.999391 0.034901 -0.000001 3713.dat
1 0 -259.991900 -211.205000 -19.999440 0.999998 0.000000 0.000001 0.000000 0.999388 -0.034899 -0.000001 0.034901 0.999391 3707.dat
1 1 -211.991000 -231.192900 -20.697880 -1.000000 0.000000 0.000001 0.000000 -0.999390 -0.034899 0.000001 -0.034901 0.999391 32184.dat
1 0 -324.971700 -211.205100 -19.999800 1.000000 0.000000 -0.000001 0.000000 -0.999390 0.034899 -0.000001 -0.034901 -0.999391 6536.dat
0 STEP
1 71 -211.833900 -230.569900 -41.537000 -0.000001 0.707107 0.707106 -0.034901 -0.706674 0.706675 0.999391 -0.024679 0.024680 4519.dat
1 1 -324.971700 -230.494900 -40.685690 -0.000001 0.999987 0.005240 0.034899 0.005237 -0.999376 -0.999391 0.000182 -0.034900 6558.dat
1 1 -268.368400 -173.135700 -59.356180 0.706676 0.000001 0.707537 -0.707105 0.034901 0.706244 -0.024694 -0.999391 0.024665 32009.dat
1 1 -268.402800 -287.029000 -42.660040 0.707107 0.000000 0.707107 0.706675 -0.034900 -0.706675 0.024679 0.999391 -0.024679 32009.dat
0 STEP
1 19 -367.398000 -188.443500 -29.211040 0.000000 0.999998 -0.000001 -0.034900 0.000001 0.999388 0.999391 0.000000 0.034902 3749.dat
1 19 -296.669600 -201.036400 -70.336680 -0.000001 0.999998 -0.000001 0.034901 -0.000001 -0.999388 -0.999391 -0.000001 -0.034902 3749.dat
1 4 -296.669600 -180.699700 -79.632570 0.000001 0.000000 -0.999999 -0.034901 0.999387 0.000000 0.999391 0.034902 0.000001 42003.dat
1 4 -367.398000 -168.804700 -18.519120 0.000000 0.000000 -0.999998 -0.034900 0.999388 0.000000 0.999391 0.034902 0.000000 42003.dat
0 STEP
1 16 292.000000 -0.000020 -7.321630 0.000000 0.000000 1.000000 0.000000 1.000000 0.000000 -1.000000 0.000000 0.000000 submodel group 9 copy copy copy
0 STEP
0 STEP
0 NOFILE
0 FILE SubModel Group 9 Copy Copy Copy
0 SubModel Group 9 Copy Copy Copy
0 Name:  SubModel Group 9 Copy Copy Copy
0 Author:  
0 CustomBrick
0 NumOfBricks:  3
1 72 10.000000 -1.128810 -10.000000 1.000000 0.000000 0.000000 0.000000 0.000000 -1.000000 0.000000 1.000000 0.000000 dch003.dat
1 71 -27.466620 -79.717990 29.427020 1.000000 0.000000 0.000000 0.000000 0.000000 -1.000000 0.000000 1.000000 0.000000 dch004.dat
1 25 7.837010 13.484720 -9.965000 1.000000 0.000000 0.000000 0.000000 0.000000 -1.000000 0.000000 1.000000 0.000000 dch005.dat
0 NOFILE
