0 Untitled Model
0 Name:  天平
0 Author:  
0 CustomBrick
0 NumOfBricks:  81
1 1 0.999390 -32.000000 -16.509890 1.000000 0.000000 0.000000 0.000000 1.000000 0.000000 0.000000 0.000000 1.000000 3895.dat
1 1 0.999390 -40.000000 -16.509890 1.000000 0.000000 0.000000 0.000000 1.000000 0.000000 0.000000 0.000000 1.000000 3710.dat
0 STEP
1 1 0.999390 -72.000000 -16.509890 1.000000 0.000000 0.000000 0.000000 1.000000 0.000000 0.000000 0.000000 1.000000 3701.dat
1 1 0.999390 -48.000000 -16.509890 1.000000 0.000000 0.000000 0.000000 1.000000 0.000000 0.000000 0.000000 1.000000 3710.dat
0 STEP
1 4 20.999510 -62.000030 -16.509890 -0.000001 1.000000 -0.000001 0.000001 0.000001 1.000000 1.000000 0.000001 -0.000001 32054.dat
1 71 20.999390 -41.999980 3.490110 -1.000000 -0.000001 0.000001 -0.000001 0.000001 -1.000000 0.000001 -1.000000 -0.000001 60483.dat
0 STEP
1 0 0.999390 -62.000000 -26.509890 0.000000 0.000000 -1.000000 0.000000 1.000000 0.000000 1.000000 0.000000 0.000000 2780.dat
1 1 0.999390 -22.000000 -36.510010 0.000000 0.000000 1.000000 0.000000 1.000000 0.000000 -1.000000 0.000000 0.000000 6558.dat
1 15 0.999570 -162.000000 -36.509890 1.000000 -0.000001 0.000001 0.000001 0.000001 -1.000000 0.000001 1.000000 0.000001 64871.dat
0 STEP
1 1 -99.000610 -32.000000 -36.509860 1.000000 0.000000 0.000000 0.000000 1.000000 0.000000 0.000000 0.000000 1.000000 3700.dat
1 1 -99.000610 -22.000000 -36.510100 0.000000 0.000000 1.000000 0.000000 1.000000 0.000000 -1.000000 0.000000 0.000000 6558.dat
0 STEP
1 1 100.999400 -32.000000 -36.509980 1.000000 0.000000 0.000000 0.000000 1.000000 0.000000 0.000000 0.000000 1.000000 3700.dat
1 1 100.999300 -22.000000 -36.509980 0.000000 0.000000 1.000000 0.000000 1.000000 0.000000 -1.000000 0.000000 0.000000 6558.dat
0 STEP
1 1 0.999390 -32.000000 -56.509980 1.000000 0.000000 0.000000 0.000000 1.000000 0.000000 0.000000 0.000000 1.000000 3895.dat
1 1 0.999390 -48.000000 -56.509980 1.000000 0.000000 0.000000 0.000000 1.000000 0.000000 0.000000 0.000000 1.000000 3710.dat
1 1 0.999390 -40.000000 -56.509980 1.000000 0.000000 0.000000 0.000000 1.000000 0.000000 0.000000 0.000000 1.000000 3710.dat
0 STEP
1 1 0.999390 -72.000010 -56.509980 1.000000 0.000000 0.000000 0.000000 1.000000 0.000000 0.000000 0.000000 1.000000 3701.dat
1 4 -19.000610 -62.000040 -56.510010 0.000001 -1.000000 0.000001 0.000001 0.000001 1.000000 -1.000000 -0.000001 0.000001 32054.dat
0 STEP
1 71 -19.000490 -42.000020 -76.509980 -1.000000 -0.000001 0.000001 -0.000001 0.000001 -1.000000 0.000001 -1.000000 -0.000001 60483.dat
0 STEP
1 1 60.999390 -40.000000 -26.509980 0.000000 0.000000 -1.000000 0.000000 1.000000 0.000000 1.000000 0.000000 0.000000 3709b.dat
0 STEP
1 1 100.999400 -8.000000 -26.509980 0.000000 0.000000 1.000000 0.000000 1.000000 0.000000 -1.000000 0.000000 0.000000 3738.dat
1 1 100.999400 -32.000000 43.490020 1.000000 0.000000 0.000000 0.000000 1.000000 0.000000 0.000000 0.000000 1.000000 3700.dat
1 15 100.999400 -32.000000 13.490020 1.000000 0.000000 0.000000 0.000000 1.000000 0.000000 0.000000 0.000000 1.000000 3941.dat
0 STEP
1 1 100.999400 -40.000000 -26.509980 0.000000 0.000000 1.000000 0.000000 1.000000 0.000000 -1.000000 0.000000 0.000000 32001.dat
1 19 100.999400 -21.999980 53.489990 -0.000001 1.000000 -0.000001 0.000001 0.000001 1.000000 1.000000 0.000001 -0.000001 3749.dat
1 0 100.999400 -21.999970 63.489990 1.000000 0.000000 0.000000 0.000000 -1.000000 0.000000 0.000000 0.000000 -1.000000 32270.dat
0 STEP
1 15 90.999390 -32.000000 -76.509980 1.000000 0.000000 0.000000 0.000000 1.000000 0.000000 0.000000 0.000000 1.000000 3040b.dat
1 15 110.999500 -32.000000 -76.509980 1.000000 0.000000 0.000000 0.000000 1.000000 0.000000 0.000000 0.000000 1.000000 3040b.dat
0 STEP
1 1 -99.000610 -8.000000 -26.509860 0.000000 0.000000 1.000000 0.000000 1.000000 0.000000 -1.000000 0.000000 0.000000 3738.dat
1 1 -59.000610 -40.000000 -26.509980 0.000000 0.000000 -1.000000 0.000000 1.000000 0.000000 1.000000 0.000000 0.000000 3709b.dat
1 15 -99.000610 -32.000000 13.490140 1.000000 0.000000 0.000000 0.000000 1.000000 0.000000 0.000000 0.000000 1.000000 3941.dat
0 STEP
1 1 -99.000610 -32.000000 43.490140 1.000000 0.000000 0.000000 0.000000 1.000000 0.000000 0.000000 0.000000 1.000000 3700.dat
1 19 -99.000690 -21.999980 53.490140 -0.000001 1.000000 -0.000001 0.000001 0.000001 1.000000 1.000000 0.000001 -0.000001 3749.dat
1 0 -99.000690 -21.999970 64.660120 1.000000 0.000000 0.000000 0.000000 -1.000000 0.000000 0.000000 0.000000 -1.000000 32270.dat
0 STEP
1 1 -99.000610 -40.000000 -26.509860 0.000000 0.000000 1.000000 0.000000 1.000000 0.000000 -1.000000 0.000000 0.000000 32001.dat
1 15 -89.000610 -32.000000 -76.509860 1.000000 0.000000 0.000000 0.000000 1.000000 0.000000 0.000000 0.000000 1.000000 3040b.dat
1 15 -109.000600 -32.000000 -76.509860 1.000000 0.000000 0.000000 0.000000 1.000000 0.000000 0.000000 0.000000 1.000000 3040b.dat
0 STEP
1 1 0.999880 -302.000100 -36.509770 0.000000 0.000000 1.000002 0.000000 1.000000 0.000000 -1.000002 0.000000 0.000000 6558.dat
1 1 0.999570 -262.000100 -36.508610 0.000000 0.000000 1.000000 0.000000 1.000000 0.000000 -1.000000 0.000000 0.000000 6558.dat
0 STEP
1 15 0.999880 -302.000100 -56.509860 -1.000000 0.000001 -0.000001 -0.000001 -0.000001 1.000000 0.000001 1.000000 0.000001 32316.dat
1 15 0.999880 -302.000100 -16.509770 -1.000000 0.000001 -0.000001 -0.000001 -0.000001 1.000000 0.000001 1.000000 0.000001 32316.dat
0 STEP
1 1 1.000000 -352.000000 -37.000000 1.000000 0.000000 0.000000 0.000000 1.000000 0.000000 0.000000 0.000000 1.000000 3703.dat
1 71 1.000000 -342.000000 -35.719970 0.000000 0.000000 1.000000 0.000000 1.000000 0.000000 -1.000000 0.000000 0.000000 32073.dat
0 STEP
1 71 1.000000 -342.000000 4.280060 -1.000000 0.000000 -0.000001 0.000000 1.000000 0.000000 0.000001 0.000000 -1.000000 3713.dat
1 71 1.000000 -342.000000 -75.719940 1.000000 0.000000 0.000001 0.000000 1.000000 0.000000 -0.000001 0.000000 1.000000 3713.dat
0 STEP
1 1 -98.999970 -342.000000 -36.999970 0.000000 0.000000 -1.000000 0.000000 1.000000 0.000000 1.000000 0.000000 0.000000 6558.dat
1 1 121.000000 -342.000000 -36.999970 0.000000 0.000000 -1.000000 0.000000 1.000000 0.000000 1.000000 0.000000 0.000000 6558.dat
1 1 101.000100 -342.000000 -36.999970 0.000000 0.000000 -1.000000 0.000000 1.000000 0.000000 1.000000 0.000000 0.000000 6558.dat
1 1 -119.000000 -342.000000 -36.999850 0.000000 0.000000 -1.000000 0.000000 1.000000 0.000000 1.000000 0.000000 0.000000 6558.dat
0 STEP
1 1 -119.000000 -352.000000 -56.999790 1.000000 0.000000 0.000000 0.000000 1.000000 0.000000 0.000000 0.000000 1.000000 3701.dat
1 1 121.000000 -352.000000 -56.999970 1.000000 0.000000 0.000000 0.000000 1.000000 0.000000 0.000000 0.000000 1.000000 3701.dat
0 STEP
1 1 -118.999900 -352.000000 -16.999970 1.000000 0.000000 0.000000 0.000000 1.000000 0.000000 0.000000 0.000000 1.000000 3701.dat
1 1 121.000100 -352.000000 -16.999970 1.000000 0.000000 0.000000 0.000000 1.000000 0.000000 0.000000 0.000000 1.000000 3701.dat
0 STEP
1 0 141.000500 -342.000000 23.000030 -1.000000 0.000000 0.000000 0.000000 0.000000 1.000000 0.000000 1.000000 0.000000 32014.dat
1 19 141.000100 -342.000100 -6.999970 -0.000001 1.000000 -0.000001 0.000001 0.000001 1.000000 1.000000 0.000001 -0.000001 3749.dat
0 STEP
1 0 141.000100 -382.000100 23.000030 -0.000002 1.000000 0.000002 -1.000000 -0.000002 -0.000002 -0.000002 -0.000002 1.000000 32013.dat
1 19 141.000100 -372.000100 23.000030 0.000001 -1.000000 0.000001 1.000000 0.000001 -0.000001 0.000001 0.000001 1.000000 3749.dat
1 4 141.000100 -382.000100 -6.999970 0.000000 0.000000 -1.000000 0.000000 1.000000 0.000000 1.000000 0.000000 0.000000 32062.dat
0 STEP
1 4 141.001600 -386.000600 -36.999970 0.000001 -1.000003 0.000001 1.000000 0.000001 -0.000001 0.000001 0.000001 1.000000 32054.dat
1 4 141.000200 -381.999900 -36.999970 0.000000 1.000000 0.000000 1.000000 0.000000 0.000000 0.000000 0.000000 -1.000000 32034.dat
0 STEP
1 19 140.999900 -342.000000 -66.999970 0.000001 -1.000000 0.000001 0.000001 0.000001 1.000000 -1.000000 -0.000001 0.000001 3749.dat
1 4 141.000200 -381.999900 -66.999970 0.000000 0.000000 -1.000000 0.000000 1.000000 0.000000 1.000000 0.000000 0.000000 32062.dat
0 STEP
1 0 141.000100 -382.000000 -96.999970 0.000002 -1.000000 -0.000002 -1.000000 -0.000002 -0.000002 0.000002 0.000002 -1.000000 32013.dat
1 0 141.000300 -341.999400 -96.998870 -1.000000 0.000000 0.000000 0.000000 1.000000 0.000000 0.000000 0.000000 -1.000000 32014.dat
1 19 140.999900 -372.000000 -96.999970 0.000001 -1.000000 0.000001 1.000000 0.000001 -0.000001 0.000001 0.000001 1.000000 3749.dat
0 STEP
1 19 -139.000000 -342.000000 -6.999970 -0.000001 1.000000 -0.000001 0.000001 0.000001 1.000000 1.000000 0.000001 -0.000001 3749.dat
1 0 -139.000000 -342.000000 23.000820 1.000000 0.000000 0.000000 0.000000 1.000000 0.000000 0.000000 0.000000 1.000000 32014.dat
1 19 -139.000000 -342.000000 -66.999790 0.000001 -1.000000 0.000001 0.000001 0.000001 1.000000 -1.000000 -0.000001 0.000001 3749.dat
0 STEP
1 19 -139.000000 -372.000000 23.000030 0.000001 -1.000000 0.000001 1.000000 0.000001 -0.000001 0.000001 0.000001 1.000000 3749.dat
1 0 -139.000000 -382.000000 23.000030 -0.000002 1.000000 0.000002 -1.000000 -0.000002 -0.000002 -0.000002 -0.000002 1.000000 32013.dat
1 4 -139.000000 -381.999900 -6.999970 0.000000 0.000000 -1.000000 0.000000 1.000000 0.000000 1.000000 0.000000 0.000000 32062.dat
0 STEP
1 4 -138.999800 -385.999600 -36.999970 0.000001 -1.000001 0.000001 1.000001 0.000001 -0.000001 0.000001 0.000001 1.000000 32054.dat
1 4 -139.000000 -382.000000 -36.999970 0.000000 1.000000 0.000000 1.000000 0.000000 0.000000 0.000000 0.000000 -1.000000 32034.dat
1 4 -138.999900 -381.999900 -66.999850 0.000000 0.000000 -1.000000 0.000000 1.000000 0.000000 1.000000 0.000000 0.000000 32062.dat
0 STEP
1 0 -138.998000 -381.999900 -96.999790 0.000002 -1.000000 -0.000002 -1.000000 -0.000002 -0.000002 0.000002 0.000002 -1.000000 32013.dat
1 0 -139.000200 -342.000000 -96.999660 1.000000 0.000000 0.000000 0.000000 0.000000 1.000000 0.000000 -1.000000 0.000000 32014.dat
1 19 -138.998000 -371.999900 -96.999790 0.000001 -1.000000 0.000001 1.000000 0.000001 -0.000001 0.000001 0.000001 1.000000 3749.dat
0 STEP
1 71 141.002000 -436.180500 -36.999790 0.000000 -1.000000 0.000000 0.000000 0.000000 -1.000000 1.000000 0.000000 0.000000 56145.dat
1 4 141.002000 -416.000500 -36.999790 0.000000 0.000000 1.000003 1.000000 0.000000 0.000000 0.000000 1.000000 0.000000 32062.dat
0 STEP
1 71 -138.999800 -437.409600 -36.999970 0.000000 -1.000000 0.000000 0.000000 0.000000 -1.000000 1.000000 0.000000 0.000000 56145.dat
1 4 -138.999800 -419.409600 -36.999970 0.000000 0.000000 1.000001 1.000001 0.000000 0.000000 0.000000 1.000000 0.000000 32062.dat
0 STEP
0 STEP
