0 FILE 火车.io
0 Untitled Model
0 Name:  火车
0 Author:  
0 CustomBrick
0 NumOfBricks:  62
1 1 27.999880 -77.097690 -57.800110 1.000000 0.000000 0.000000 0.000000 1.000000 0.000000 0.000000 0.000000 1.000000 3703.dat
0 STEP
1 47 28.000000 -89.097720 -8.000210 -1.000000 0.000000 0.000000 0.000000 -1.000000 0.000000 0.000000 0.000000 1.000000 6588.dat
1 72 27.999880 -67.097720 -8.250000 -1.000000 0.000000 0.000000 0.000000 -1.000000 0.000000 0.000000 0.000000 1.000000 3648b.dat
1 71 27.999880 -67.097720 -37.890200 1.000000 0.000000 0.000001 0.000000 -1.000000 0.000000 0.000001 0.000000 -1.000000 3713.dat
1 71 28.000000 -67.097720 21.969920 1.000000 0.000000 0.000001 0.000000 -1.000000 0.000000 0.000001 0.000000 -1.000000 3713.dat
1 71 28.000000 -67.097720 -8.250210 0.000000 0.000000 -1.000000 0.000000 -1.000000 0.000000 -1.000000 0.000000 0.000000 44294.dat
0 STEP
1 71 36.250000 -107.097700 -8.000210 -1.000000 0.000000 0.000000 0.000000 1.000000 0.000000 0.000000 0.000000 -1.000000 44294.dat
1 71 28.070010 -107.097700 -8.000210 0.000000 0.000000 1.000000 0.000000 1.000000 0.000000 -1.000000 0.000000 0.000000 4716.dat
0 STEP
1 1 27.999880 -77.097690 42.199900 1.000000 0.000000 0.000000 0.000000 1.000000 0.000000 0.000000 0.000000 1.000000 3703.dat
0 STEP
1 19 28.000000 -37.097720 -87.940230 -0.000001 1.000000 -0.000001 0.000001 0.000001 1.000000 1.000000 0.000001 -0.000001 3749.dat
1 72 28.000000 -47.097700 -73.010200 -1.000000 0.000000 0.000000 0.000000 -1.000000 0.000000 0.000000 0.000000 1.000000 6575.dat
1 14 28.000000 -37.097720 -82.940220 1.000000 0.000000 0.000000 0.000000 -1.000000 0.000000 0.000000 0.000000 -1.000000 32123a.dat
0 STEP
1 19 27.999760 -97.097740 73.299800 0.000001 -1.000000 0.000001 0.000001 0.000001 1.000000 -1.000000 -0.000001 0.000001 3749.dat
1 72 27.999880 -87.097720 57.519780 -1.000000 0.000000 0.000000 0.000000 1.000000 0.000000 0.000000 0.000000 -1.000000 6575.dat
1 14 27.999760 -97.097720 68.299820 1.000000 0.000000 0.000000 0.000000 1.000000 0.000000 0.000000 0.000000 1.000000 32123a.dat
0 STEP
1 1 168.000800 -53.097700 -7.803800 0.000001 0.000000 -1.000011 0.000000 1.000000 0.000000 1.000011 0.000000 0.000001 32001.dat
1 1 -32.000120 -53.097700 -7.800100 0.000000 0.000000 -1.000000 0.000000 1.000000 0.000000 1.000000 0.000000 0.000000 32001.dat
1 1 -112.000100 -53.097700 -7.800100 0.000000 0.000000 -1.000000 0.000000 1.000000 0.000000 1.000000 0.000000 0.000000 32001.dat
1 1 87.999880 -53.097700 -7.800100 0.000000 0.000000 -1.000000 0.000000 1.000000 0.000000 1.000000 0.000000 0.000000 32001.dat
0 STEP
1 1 -72.000110 -77.097690 22.199900 1.000000 0.000000 0.000000 0.000000 1.000000 0.000000 0.000000 0.000000 1.000000 3894.dat
1 1 -72.000110 -77.097690 -37.800110 1.000000 0.000000 0.000000 0.000000 1.000000 0.000000 0.000000 0.000000 1.000000 3894.dat
1 1 -22.000220 -77.097690 -7.800100 0.000000 0.000000 1.000000 0.000000 1.000000 0.000000 -1.000000 0.000000 0.000000 3700.dat
0 STEP
1 1 127.999900 -77.097690 22.199900 1.000000 0.000000 0.000000 0.000000 1.000000 0.000000 0.000000 0.000000 1.000000 3894.dat
1 1 128.001000 -77.097690 -37.804200 1.000000 0.000000 0.000000 0.000000 1.000000 0.000000 0.000000 0.000000 1.000000 3894.dat
0 STEP
1 1 78.000000 -77.097690 -7.800100 0.000000 0.000000 1.000000 0.000000 1.000000 0.000000 -1.000000 0.000000 0.000000 3700.dat
1 1 78.000060 -117.097700 -7.800100 0.000000 0.000000 1.000000 0.000000 1.000000 0.000000 -1.000000 0.000000 0.000000 3701.dat
1 1 78.000960 -93.097690 -7.804100 0.000000 0.000000 1.000000 0.000000 1.000000 0.000000 -1.000000 0.000000 0.000000 3710.dat
1 1 78.000980 -85.097690 -7.804200 0.000000 0.000000 1.000001 0.000000 1.000000 0.000000 -1.000001 0.000000 0.000000 3710.dat
0 STEP
1 15 57.999880 -101.097700 -57.800110 0.000000 0.000000 -1.000000 0.000000 1.000000 0.000000 1.000000 0.000000 0.000000 3040b.dat
1 15 57.999880 -101.097700 42.199790 0.000000 0.000000 -1.000000 0.000000 1.000000 0.000000 1.000000 0.000000 0.000000 3040b.dat
1 15 27.999880 -101.097700 42.199900 1.000000 0.000000 0.000000 0.000000 1.000000 0.000000 0.000000 0.000000 1.000000 32064a.dat
1 15 27.999880 -101.097700 -57.800110 1.000000 0.000000 0.000000 0.000000 1.000000 0.000000 0.000000 0.000000 1.000000 32064a.dat
0 STEP
1 15 -42.000120 -101.097700 -57.800240 0.000000 0.000000 1.000000 0.000000 1.000000 0.000000 -1.000000 0.000000 0.000000 3040b.dat
1 15 -12.000120 -101.097700 42.199900 1.000000 0.000000 0.000000 0.000000 1.000000 0.000000 0.000000 0.000000 1.000000 32064a.dat
1 15 -42.000120 -101.097700 42.199900 0.000000 0.000000 1.000000 0.000000 1.000000 0.000000 -1.000000 0.000000 0.000000 3040b.dat
1 15 -12.000120 -101.097700 -57.800110 1.000000 0.000000 0.000000 0.000000 1.000000 0.000000 0.000000 0.000000 1.000000 32064a.dat
0 STEP
1 1 7.999880 -109.097700 42.199900 1.000000 0.000000 0.000000 0.000000 1.000000 0.000000 0.000000 0.000000 1.000000 3666.dat
1 1 7.999880 -109.097700 -57.800240 1.000000 0.000000 0.000000 0.000000 1.000000 0.000000 0.000000 0.000000 1.000000 3666.dat
0 STEP
1 1 107.999900 -85.097690 -7.800100 0.000000 0.000000 1.000000 0.000000 1.000000 0.000000 -1.000000 0.000000 0.000000 32001.dat
1 1 167.999900 -85.097690 -7.800100 0.000000 0.000000 1.000000 0.000000 1.000000 0.000000 -1.000000 0.000000 0.000000 32001.dat
0 STEP
1 1 108.001800 -93.097690 -7.801000 0.000000 0.000000 1.000004 0.000000 1.000000 0.000000 -1.000004 0.000000 0.000000 3709b.dat
1 1 168.001700 -93.097690 -7.801900 0.000000 0.000000 1.000004 0.000000 1.000000 0.000000 -1.000004 0.000000 0.000000 3709b.dat
0 STEP
1 0 167.999800 -67.097690 -8.070100 0.000000 0.342020 0.939693 0.000000 0.939693 -0.342020 -1.000000 0.000000 0.000000 3707.dat
1 0 -112.000100 -67.097700 -8.940200 0.000000 0.342020 0.939693 0.000000 0.939693 -0.342020 -1.000000 0.000000 0.000000 3707.dat
1 71 -112.000100 -67.097700 -77.940220 -0.939693 0.342020 0.000000 0.342020 0.939693 0.000000 0.000000 0.000000 -1.000000 3649.dat
1 71 167.999800 -67.097660 61.929820 0.939693 0.342020 0.000000 -0.342020 0.939693 0.000000 0.000000 0.000000 1.000000 3649.dat
1 71 167.999800 -67.097690 -78.070190 0.939693 0.342020 0.000000 -0.342020 0.939693 0.000000 0.000000 0.000000 1.000000 3649.dat
1 71 -112.000100 -67.097690 60.679940 -0.939693 0.342020 0.000000 0.342020 0.939693 0.000000 0.000000 0.000000 -1.000000 3649.dat
0 STEP
1 71 168.863500 -35.486700 -88.070190 0.000000 0.342020 -0.939693 0.000000 0.939693 0.342020 1.000000 0.000000 0.000000 3673.dat
1 71 -111.136400 -35.486720 -87.940230 0.000000 0.342020 -0.939693 0.000000 0.939693 0.342020 1.000000 0.000000 0.000000 3673.dat
0 STEP
1 15 28.000000 -37.097740 -97.940230 0.000001 0.000001 -1.000000 -1.000000 0.000001 -0.000001 0.000001 1.000000 0.000001 64871.dat
0 STEP
1 71 167.136100 -98.708640 71.929820 0.000000 0.000000 -1.000000 0.000000 1.000000 0.000000 1.000000 0.000000 0.000000 3673.dat
1 71 -112.863700 -98.708660 70.679940 0.000000 0.000000 -1.000000 0.000000 1.000000 0.000000 1.000000 0.000000 0.000000 3673.dat
0 STEP
1 15 27.135990 -98.708780 81.929940 0.000001 0.000001 -1.000000 -1.000000 0.000001 -0.000001 0.000001 1.000000 0.000001 64871.dat
0 STEP
1 0 108.001800 -99.377710 -27.801000 0.000000 0.000000 -1.000000 1.000000 0.000000 0.000000 0.000000 -1.000000 0.000000 2780.dat
1 0 108.001800 -99.647720 12.199100 0.000000 0.000000 -1.000000 1.000000 0.000000 0.000000 0.000000 -1.000000 0.000000 2780.dat
1 16 77.000000 -272.382700 1.000000 0.000000 -1.000000 0.000000 1.000000 0.000000 0.000000 0.000000 0.000000 1.000000 submodel group 9 copy copy copy
0 STEP
1 1 28.000000 -129.097700 -8.000000 -1.000000 0.000000 0.000000 0.000000 -1.000000 0.000000 0.000000 0.000000 1.000000 3709b.dat
1 1 -12.000000 -137.097700 -8.000000 1.000000 0.000000 0.000000 0.000000 -1.000000 0.000000 0.000000 0.000000 -1.000000 3738.dat
1 15 27.000000 -106.954000 -8.000000 0.000000 0.000000 -1.000000 0.000000 -1.000000 0.000000 -1.000000 0.000000 0.000000 dx0085.dat.dat
0 STEP
0 STEP
0 NOFILE
0 FILE SubModel Group 9 Copy Copy Copy
0 SubModel Group 9 Copy Copy Copy
0 Name:  SubModel Group 9 Copy Copy Copy
0 Author:  
0 CustomBrick
0 NumOfBricks:  3
1 72 10.000000 -1.128810 -10.000000 1.000000 0.000000 0.000000 0.000000 0.000000 -1.000000 0.000000 1.000000 0.000000 dch003.dat
1 71 -27.466620 -79.717990 29.427020 1.000000 0.000000 0.000000 0.000000 0.000000 -1.000000 0.000000 1.000000 0.000000 dch004.dat
1 25 7.837010 13.484720 -9.965000 1.000000 0.000000 0.000000 0.000000 0.000000 -1.000000 0.000000 1.000000 0.000000 dch005.dat
0 NOFILE
