0 Untitled Model
0 Name:  行李箱
0 Author:  
0 CustomBrick
0 NumOfBricks:  35
1 1 -9.999909 -124.392900 -42.000120 -1.000001 0.000000 0.000000 0.000000 0.000000 1.000003 0.000000 1.000005 0.000000 32001.dat
1 1 -9.999909 -84.392680 -42.000120 -1.000001 0.000000 0.000000 0.000000 0.000000 1.000003 0.000000 1.000005 0.000000 32001.dat
1 1 -9.999900 -44.392540 -42.000130 -1.000001 0.000000 0.000000 0.000000 0.000000 1.000003 0.000000 1.000005 0.000000 32001.dat
1 1 -9.999909 -164.393000 -42.000120 -1.000001 0.000000 0.000000 0.000000 0.000000 1.000003 0.000000 1.000005 0.000000 32001.dat
0 STEP
1 1 40.000140 -104.392800 -66.000260 0.000000 0.000000 1.000001 1.000003 0.000000 0.000000 0.000000 1.000005 0.000000 3702.dat
1 1 -59.999980 -104.392800 -66.000260 0.000000 0.000000 1.000001 1.000003 0.000000 0.000000 0.000000 1.000005 0.000000 3702.dat
1 1 -9.999909 -174.393000 -66.000260 -1.000001 0.000000 0.000000 0.000000 0.000000 1.000003 0.000000 1.000005 0.000000 3701.dat
1 1 -9.999900 -34.392510 -66.000270 -1.000001 0.000000 0.000000 0.000000 0.000000 1.000003 0.000000 1.000005 0.000000 3701.dat
0 STEP
1 1 40.000140 -104.392800 -90.000330 0.000000 0.000000 1.000001 1.000003 0.000000 0.000000 0.000000 1.000005 0.000000 3702.dat
1 1 -9.999909 -174.393100 -90.000320 -1.000001 0.000000 0.000000 0.000000 0.000000 1.000003 0.000000 1.000005 0.000000 3701.dat
1 1 -59.999980 -104.392800 -90.000350 0.000000 0.000000 1.000001 1.000003 0.000000 0.000000 0.000000 1.000005 0.000000 3702.dat
1 1 -9.999900 -34.392540 -90.000350 -1.000001 0.000000 0.000000 0.000000 0.000000 1.000003 0.000000 1.000005 0.000000 3701.dat
0 STEP
1 4 -30.000060 -194.393000 -56.000260 0.000001 -1.000001 0.000001 1.000003 0.000001 -0.000001 0.000001 0.000001 1.000005 32054.dat
1 4 10.000050 -194.393000 -56.000260 0.000001 -1.000001 0.000001 1.000003 0.000001 -0.000001 0.000001 0.000001 1.000005 32054.dat
0 STEP
1 1 -9.999909 -124.392800 -98.000330 -1.000001 0.000000 0.000000 0.000000 0.000000 1.000003 0.000000 1.000005 0.000000 32001.dat
1 1 -9.999909 -164.393000 -98.000330 -1.000001 0.000000 0.000000 0.000000 0.000000 1.000003 0.000000 1.000005 0.000000 32001.dat
1 1 -9.999909 -84.392700 -98.000330 -1.000001 0.000000 0.000000 0.000000 0.000000 1.000003 0.000000 1.000005 0.000000 32001.dat
1 1 -9.999900 -44.392590 -98.000330 -1.000001 0.000000 0.000000 0.000000 0.000000 1.000003 0.000000 1.000005 0.000000 32001.dat
0 STEP
1 0 50.000200 -44.392580 -56.000240 1.000001 0.000000 0.000000 0.000000 0.000000 -1.000003 0.000000 1.000005 0.000000 2780.dat
1 0 -69.999970 -144.392900 -56.000240 1.000001 0.000000 0.000000 0.000000 0.000000 -1.000004 0.000000 1.000005 0.000000 2780.dat
1 0 -69.999900 -44.392570 -56.000260 1.000001 0.000000 0.000000 0.000000 0.000000 -1.000003 0.000000 1.000005 0.000000 2780.dat
1 0 50.000240 -144.393000 -56.000240 1.000001 0.000000 0.000000 0.000000 0.000000 -1.000003 0.000000 1.000005 0.000000 2780.dat
0 STEP
1 1 60.000240 -164.393000 -56.000100 0.000001 1.000001 -0.000001 0.000001 0.000001 1.000003 1.000005 -0.000001 -0.000001 32271.dat
1 1 -79.999980 -164.393000 -56.000210 0.000001 1.000002 -0.000001 0.000001 0.000001 1.000003 1.000005 -0.000001 -0.000001 32271.dat
0 STEP
1 19 -90.000080 -32.392480 -40.000250 -1.000001 -0.000001 0.000001 0.000001 -1.000003 0.000001 0.000001 0.000001 1.000005 3749.dat
1 19 70.000060 -32.392520 -40.000140 1.000001 0.000001 -0.000001 0.000001 -1.000003 0.000001 -0.000001 -0.000001 -1.000005 3749.dat
0 STEP
1 72 80.000000 -32.392500 -40.000000 0.000000 0.000000 1.000000 0.000000 -1.000000 0.000000 1.000000 0.000000 0.000000 3648b.dat
1 72 -100.000200 -32.392490 -40.000250 0.000000 0.000000 -1.000001 0.000000 -1.000003 0.000000 -1.000005 0.000000 0.000000 3648b.dat
0 STEP
1 4 -30.000130 -224.393300 -56.000320 0.000000 0.000000 -1.000001 -1.000003 0.000000 0.000000 0.000000 1.000005 0.000000 32062.dat
1 4 9.999990 -224.393300 -56.000310 0.000000 0.000000 -1.000001 -1.000003 0.000000 0.000000 0.000000 1.000005 0.000000 32062.dat
1 1 -10.000030 -235.793300 -56.000320 0.000000 -1.000001 0.000000 1.000003 0.000000 0.000000 0.000000 0.000000 1.000005 32184.dat
0 STEP
1 15 20.000120 -134.392800 -122.000300 1.000000 0.000000 0.000000 0.000000 0.000000 -1.000000 0.000000 1.000000 0.000000 3040b.dat
1 15 -39.999940 -134.392800 -122.000300 1.000000 0.000000 0.000000 0.000000 0.000000 -1.000000 0.000000 1.000000 0.000000 3040b.dat
1 15 -59.999960 -174.393000 -122.000300 1.000000 0.000000 0.000000 0.000000 0.000000 -1.000000 0.000000 1.000000 0.000000 3040b.dat
1 15 40.000140 -174.393000 -122.000300 1.000000 0.000000 0.000000 0.000000 0.000000 -1.000000 0.000000 1.000000 0.000000 3040b.dat
0 STEP
0 STEP
