0 FILE 不倒翁.io
0 Untitled Model
0 Name:  不倒翁
0 Author:  
0 CustomBrick
0 NumOfBricks:  92
1 1 110.940100 -270.000200 -70.999800 1.000000 0.000000 0.000000 0.000000 0.000000 -1.000000 0.000000 1.000000 0.000000 6558.dat
1 1 110.940000 -290.000200 -70.999680 1.000000 0.000000 0.000000 0.000000 0.000000 -1.000000 0.000000 1.000000 0.000000 6558.dat
1 15 90.939990 -170.000100 -70.999920 -0.000001 -1.000000 -0.000001 -0.000001 -0.000001 1.000000 -1.000000 0.000001 -0.000001 64871.dat
0 STEP
1 1 110.940000 -170.000100 -70.999920 1.000000 0.000000 0.000000 0.000000 0.000000 -1.000000 0.000000 1.000000 0.000000 6558.dat
1 1 110.940000 -150.000000 -70.999920 1.000000 0.000000 0.000000 0.000000 0.000000 -1.000000 0.000000 1.000000 0.000000 6558.dat
0 STEP
1 0 110.940000 -130.000000 -69.509860 0.000000 -1.000000 0.000000 0.000000 0.000000 -1.000000 1.000000 0.000000 0.000000 3705.dat
1 0 110.940100 -250.000000 -70.279880 0.000000 -1.000000 0.000000 0.000000 0.000000 -1.000000 1.000000 0.000000 0.000000 3705.dat
1 4 110.940100 -270.000200 -70.999800 0.000000 0.000000 1.000000 0.000000 -1.000000 0.000000 1.000000 0.000000 0.000000 42003.dat
1 4 110.940000 -150.000000 -70.999920 0.000000 0.000000 1.000000 0.000000 -1.000000 0.000000 1.000000 0.000000 0.000000 42003.dat
0 STEP
1 14 110.940000 -130.000000 -37.149860 0.000000 -1.000000 0.000000 -1.000000 0.000000 0.000000 0.000000 0.000000 -1.000000 32123a.dat
1 14 110.940100 -250.000000 -39.969750 0.000000 -1.000000 0.000000 -1.000000 0.000000 0.000000 0.000000 0.000000 -1.000000 32123a.dat
1 15 110.940000 -170.000100 -52.119640 -1.000000 0.000001 -0.000001 -0.000001 -0.000001 1.000000 0.000001 1.000000 0.000001 64871.dat
0 STEP
1 14 110.940100 -250.000000 -100.989900 0.000000 -1.000000 0.000000 -1.000000 0.000000 0.000000 0.000000 0.000000 -1.000000 32123a.dat
1 14 110.940000 -130.000000 -101.940000 0.000000 -1.000000 0.000000 -1.000000 0.000000 0.000000 0.000000 0.000000 -1.000000 32123a.dat
1 15 110.940000 -169.999900 -89.350020 -1.000000 0.000001 -0.000001 -0.000001 -0.000001 1.000000 0.000001 1.000000 0.000001 64871.dat
0 STEP
1 15 130.939900 -170.000100 -70.999920 -0.000001 -1.000000 -0.000001 -0.000001 -0.000001 1.000000 -1.000000 0.000001 -0.000001 64871.dat
0 STEP
1 0 80.939760 -90.000170 -70.999960 -1.000000 0.000000 0.000000 0.000000 0.000000 1.000000 0.000000 1.000000 0.000000 2780.dat
1 0 80.939800 -50.000160 -70.999900 -1.000000 0.000000 0.000000 0.000000 0.000000 1.000000 0.000000 1.000000 0.000000 2780.dat
0 STEP
1 0 110.940000 -90.000080 -99.349830 0.000000 -1.000000 0.000000 0.000000 0.000000 1.000000 -1.000000 0.000000 0.000000 2780.dat
1 0 110.939900 -50.000070 -99.349770 0.000000 -1.000000 0.000000 0.000000 0.000000 1.000000 -1.000000 0.000000 0.000000 2780.dat
0 STEP
1 0 140.939800 -90.000170 -70.999910 1.000000 0.000000 0.000000 0.000000 0.000000 1.000000 0.000000 -1.000000 0.000000 2780.dat
1 0 140.939800 -50.000160 -70.999970 1.000000 0.000000 0.000000 0.000000 0.000000 1.000000 0.000000 -1.000000 0.000000 2780.dat
0 STEP
1 0 110.939800 -90.000170 -42.119540 0.000000 1.000000 0.000000 0.000000 0.000000 1.000000 1.000000 0.000000 0.000000 2780.dat
1 0 110.939900 -50.000160 -42.119580 0.000000 1.000000 0.000000 0.000000 0.000000 1.000000 1.000000 0.000000 0.000000 2780.dat
0 STEP
1 0 212.362900 -20.000160 -71.999900 0.000000 -1.000000 0.000000 1.000000 0.000000 0.000000 0.000000 0.000000 1.000000 2780.dat
1 0 171.879700 -20.000160 -71.999910 0.000000 -1.000000 0.000000 1.000000 0.000000 0.000000 0.000000 0.000000 1.000000 2780.dat
1 14 157.795000 -79.400140 -80.578950 1.000000 0.000000 0.000000 0.000000 0.000000 1.000000 0.000000 -1.000000 0.000000 12344.dat
0 STEP
1 0 111.939800 -20.000160 29.303540 0.000000 0.000000 -1.000000 1.000000 0.000000 0.000000 0.000000 -1.000000 0.000000 2780.dat
1 0 111.939800 -20.000160 -11.179710 0.000000 0.000000 -1.000000 1.000000 0.000000 0.000000 0.000000 -1.000000 0.000000 2780.dat
1 14 120.518800 -79.400140 -25.264380 0.000000 1.000000 0.000000 0.000000 0.000000 1.000000 1.000000 0.000000 0.000000 12344.dat
0 STEP
1 0 9.516670 -20.000160 -69.999970 0.000000 1.000000 0.000000 1.000000 0.000000 0.000000 0.000000 0.000000 -1.000000 2780.dat
1 0 49.999940 -20.000160 -69.999960 0.000000 1.000000 0.000000 1.000000 0.000000 0.000000 0.000000 0.000000 -1.000000 2780.dat
1 14 64.084590 -79.400140 -61.420920 -1.000000 0.000000 0.000000 0.000000 0.000000 1.000000 0.000000 1.000000 0.000000 12344.dat
0 STEP
1 14 101.360900 -79.400040 -116.205000 0.000000 -1.000000 0.000000 0.000000 0.000000 1.000000 -1.000000 0.000000 0.000000 12344.dat
1 0 109.940000 -20.000070 -170.772900 0.000000 0.000000 1.000000 1.000000 0.000000 0.000000 0.000000 1.000000 0.000000 2780.dat
1 0 109.940000 -20.000070 -130.289600 0.000000 0.000000 1.000000 1.000000 0.000000 0.000000 0.000000 1.000000 0.000000 2780.dat
0 STEP
1 1 132.362800 -10.000080 -71.999920 0.000001 0.000001 1.000000 -0.000001 -1.000000 0.000001 1.000000 -0.000001 -0.000001 32526.dat
1 1 111.939800 -10.000080 -51.179700 -1.000000 0.000001 0.000001 -0.000001 -1.000000 0.000001 0.000001 0.000001 1.000000 32526.dat
1 1 90.000000 -10.000080 -70.000100 -0.000001 -0.000001 -1.000000 -0.000001 -1.000000 0.000001 -1.000000 0.000001 0.000001 32526.dat
1 1 109.940000 -10.000080 -90.772880 1.000000 -0.000001 -0.000001 -0.000001 -1.000000 0.000001 -0.000001 -0.000001 -1.000000 32526.dat
0 STEP
1 16 111.362800 -114.000200 -66.069940 1.000000 0.000000 0.000000 0.000000 1.000000 0.000000 0.000000 0.000000 1.000000 submodel group 1
0 STEP
0 STEP
0 NOFILE
0 FILE SubModel Group 1
0 SubModel Group 1
0 Name:  SubModel Group 1
0 Author:  
0 CustomBrick
0 NumOfBricks:  52
1 71 -0.001330 -235.699600 -5.499140 0.000000 0.000000 1.000007 1.000000 0.000000 0.000000 0.000000 0.999998 0.000000 32073.dat
1 14 -0.000320 -225.669700 -5.499990 1.000008 0.000000 0.000000 0.000000 0.000000 1.000000 0.000000 -1.000000 0.000000 32123a.dat
1 15 0.000080 -241.020500 -5.503290 0.000001 0.000001 -1.000000 -0.000001 -1.000000 -0.000001 -1.000000 0.000001 -0.000001 32523.dat
0 STEP
1 71 0.000170 -260.939700 -5.500910 1.000008 0.000000 0.000001 0.000001 0.000000 -1.000000 0.000000 1.000000 0.000000 3713.dat
1 0 -20.000370 -251.019800 -5.499990 0.000000 0.000000 -1.000008 -1.000000 0.000000 0.000000 0.000000 1.000000 0.000000 2780.dat
1 0 19.999820 -251.019800 -5.499990 0.000000 0.000000 -1.000008 -1.000000 0.000000 0.000000 0.000000 1.000000 0.000000 2780.dat
0 STEP
1 4 19.999820 -271.019800 -5.499990 0.000000 0.000000 1.000008 1.000000 0.000000 0.000000 0.000000 1.000000 0.000000 62462.dat
1 0 19.999820 -291.020000 -5.500180 0.000000 0.000000 -1.000008 -1.000000 0.000000 0.000000 0.000000 1.000000 0.000000 2780.dat
1 0 -20.000370 -291.020000 -5.500180 0.000000 0.000000 -1.000008 -1.000000 0.000000 0.000000 0.000000 1.000000 0.000000 2780.dat
1 4 -20.000370 -271.019800 -5.500180 0.000000 0.000000 1.000008 1.000000 0.000000 0.000000 0.000000 1.000000 0.000000 62462.dat
0 STEP
1 19 -0.000230 -301.020000 -15.499990 0.000001 -1.000003 0.000001 0.000001 0.000001 1.000000 -0.999994 -0.000001 0.000001 3749.dat
1 72 -0.000170 -301.020000 -5.499990 0.000000 -1.000008 0.000000 -1.000000 0.000000 0.000000 0.000000 0.000000 -1.000000 48989.dat
0 STEP
1 0 80.000580 -301.020100 -15.500160 0.000000 0.000000 -1.000000 0.000000 1.000000 0.000000 1.000000 0.000000 0.000000 2780.dat
1 15 -0.000560 -301.020000 -25.500240 0.000001 0.000001 -1.000000 1.000000 -0.000001 0.000001 -0.000001 -1.000000 -0.000001 64290.dat
0 STEP
1 15 120.000900 -301.020000 -5.500220 0.000001 0.000001 -1.000008 -1.000000 0.000001 -0.000001 0.000001 1.000000 0.000001 32524.dat
1 0 100.000300 -301.020100 4.499800 0.000000 0.000000 -1.000008 0.000000 1.000000 0.000000 1.000000 0.000000 0.000000 2780.dat
1 0 59.999980 -301.020100 4.499800 0.000000 0.000000 -1.000008 0.000000 1.000000 0.000000 1.000000 0.000000 0.000000 2780.dat
0 STEP
1 0 -80.000550 -301.019900 -15.500260 0.000000 0.000000 -1.000000 0.000000 1.000000 0.000000 1.000000 0.000000 0.000000 2780.dat
1 15 -120.000900 -301.019900 -5.500270 0.000001 0.000001 -1.000008 -1.000000 0.000001 -0.000001 0.000001 1.000000 0.000001 32524.dat
0 STEP
1 0 -100.001100 -301.019900 4.499450 0.000000 0.000000 -1.000008 0.000000 1.000000 0.000000 1.000000 0.000000 0.000000 2780.dat
1 0 -60.000220 -301.020000 4.499480 0.000000 0.000000 -1.000008 0.000000 1.000000 0.000000 1.000000 0.000000 0.000000 2780.dat
1 15 -0.000170 -301.020000 14.500030 0.000001 0.000001 -1.000008 1.000000 -0.000001 0.000001 -0.000001 -1.000000 -0.000001 64290.dat
0 STEP
1 0 160.001600 -301.020000 4.499560 0.000000 0.000000 -1.000008 0.000000 1.000000 0.000000 1.000000 0.000000 0.000000 2780.dat
1 0 180.001800 -301.020000 4.499500 0.000000 0.000000 -1.000003 0.000000 1.000000 0.000000 0.999994 0.000000 0.000000 2780.dat
1 1 300.001900 -301.020000 14.499820 0.000000 0.000000 1.000003 1.000000 0.000000 0.000000 0.000000 0.999994 0.000000 32009.dat
0 STEP
1 15 300.002000 -201.019900 -5.500140 -1.000003 0.000001 -0.000001 0.000001 0.000001 -1.000000 -0.000001 -0.999994 -0.000001 32524.dat
1 0 300.001800 -261.019900 4.499820 0.000000 0.000000 -1.000003 0.000000 1.000000 0.000000 0.999994 0.000000 0.000000 2780.dat
1 0 300.001800 -241.019900 4.499820 0.000000 0.000000 -1.000003 0.000000 1.000000 0.000000 0.999994 0.000000 0.000000 2780.dat
0 STEP
1 0 320.001500 -151.019900 -25.500150 0.000000 -1.000003 0.000000 1.000000 0.000000 0.000000 0.000000 0.000000 0.999994 32291.dat
1 0 300.001900 -141.019700 -15.499960 0.000000 0.000000 -1.000002 0.000000 1.000000 0.000000 0.999994 0.000000 0.000000 2780.dat
1 0 300.001900 -161.020000 -15.499960 0.000000 0.000000 -1.000002 0.000000 1.000000 0.000000 0.999994 0.000000 0.000000 2780.dat
0 STEP
1 0 320.001600 -102.309700 -25.499360 1.000003 0.000000 0.000000 0.000000 0.000000 1.000000 0.000000 -0.999994 0.000000 44309.dat
1 71 320.001600 -101.309700 -25.500150 0.000000 -1.000003 0.000000 0.000000 0.000000 1.000000 -0.999994 0.000000 0.000000 56145.dat
1 0 320.001600 -81.809640 -25.500150 0.000000 0.000000 1.000003 -1.000000 0.000000 0.000000 0.000000 -0.999994 0.000000 3707.dat
0 STEP
1 0 320.001500 -47.809540 -25.499850 1.000003 0.000000 0.000000 0.000000 0.000000 1.000000 0.000000 -0.999994 0.000000 44309.dat
1 71 320.001600 -46.809640 -25.499970 0.000000 -1.000003 0.000000 0.000000 0.000000 1.000000 -0.999994 0.000000 0.000000 56145.dat
1 71 320.001600 -13.849880 -25.500150 0.000000 1.000000 0.000000 0.000001 0.000000 -1.000000 -1.000000 0.000000 -0.000001 3713.dat
0 STEP
1 0 -180.001100 -301.020000 4.499510 0.000000 0.000000 -1.000008 0.000000 1.000000 0.000000 1.000000 0.000000 0.000000 2780.dat
1 0 -160.001000 -301.020000 4.499510 0.000000 0.000000 -1.000008 0.000000 1.000000 0.000000 1.000000 0.000000 0.000000 2780.dat
1 1 -300.001200 -301.019900 14.499290 0.000000 0.000000 -1.000003 1.000000 0.000000 0.000000 0.000000 -0.999994 0.000000 32009.dat
0 STEP
1 0 -300.001200 -241.019900 4.499470 0.000000 0.000000 -1.000003 0.000000 1.000000 0.000000 0.999994 0.000000 0.000000 2780.dat
1 0 -300.001200 -261.019900 4.499470 0.000000 0.000000 1.000003 0.000000 1.000000 0.000000 -0.999994 0.000000 0.000000 2780.dat
1 15 -300.001200 -201.020000 -5.500240 -1.000003 0.000001 -0.000001 -0.000001 -0.000001 1.000000 0.000001 0.999994 0.000001 32524.dat
0 STEP
1 0 -320.001200 -151.020000 14.499700 0.000000 1.000000 0.000000 1.000000 0.000000 0.000000 0.000000 0.000000 -1.000000 32291.dat
1 0 -300.001200 -161.020000 4.499710 0.000000 0.000000 -1.000003 0.000000 1.000000 0.000000 0.999994 0.000000 0.000000 2780.dat
1 0 -300.001500 -141.019700 4.499710 0.000000 0.000000 -1.000003 0.000000 1.000000 0.000000 0.999994 0.000000 0.000000 2780.dat
0 STEP
1 0 -319.999000 -107.271100 14.505560 1.000000 0.000000 0.000000 0.000000 0.000000 1.000000 0.000000 -1.000000 0.000000 44309.dat
1 71 -320.004000 -107.270000 14.502380 0.000000 -1.000000 0.000000 0.000000 0.000000 1.000018 -1.000018 0.000000 0.000000 56145.dat
1 0 -319.999000 -80.000040 14.499700 0.000000 0.000000 1.000000 1.000000 0.000000 0.000000 0.000000 1.000000 0.000000 3707.dat
0 STEP
1 0 -320.004000 -52.169940 14.502380 1.000000 0.000000 0.000000 0.000000 0.000000 1.000000 0.000000 -1.000000 0.000000 44309.dat
1 71 -320.004000 -52.169640 14.502380 0.000000 -1.000000 0.000000 0.000000 0.000000 1.000001 -1.000001 0.000000 0.000000 56145.dat
1 71 -319.999000 -13.119970 14.499700 0.000000 0.999997 0.000000 0.000001 0.000000 -1.000000 -1.000006 0.000000 -0.000001 3713.dat
0 STEP
0 NOFILE
