0 FILE 青蛙.io
0 Untitled Model
0 Name:  青蛙
0 Author:  
0 CustomBrick
0 NumOfBricks:  50
1 1 44.999960 -99.000080 -83.389880 1.000000 0.000000 0.000000 0.000000 1.000000 0.000000 0.000000 0.000000 1.000000 3895.dat
1 0 4.999900 -89.000070 -73.390810 0.000000 0.000000 -1.000000 0.000000 1.000000 0.000000 1.000000 0.000000 0.000000 2780.dat
1 0 44.999960 -89.000080 -73.389880 0.000000 0.000000 -1.000000 0.000000 1.000000 0.000000 1.000000 0.000000 0.000000 2780.dat
0 STEP
1 1 145.000000 -123.000100 -83.389850 1.000000 0.000000 0.000000 0.000000 1.000000 0.000000 0.000000 0.000000 1.000000 3894.dat
1 1 24.999960 -123.000100 -83.389880 1.000000 0.000000 0.000000 0.000000 1.000000 0.000000 0.000000 0.000000 1.000000 3894.dat
0 STEP
1 71 25.000080 -89.000070 -73.390010 1.000000 0.000000 0.000000 0.000000 1.000000 0.000000 0.000000 0.000000 1.000000 58120.dat
0 STEP
1 16 31.333290 -75.000060 37.750040 1.000000 0.000000 0.000000 0.000000 1.000000 0.000000 0.000000 0.000000 1.000000 submodel group 2
0 STEP
1 16 187.428700 -75.000060 -12.249950 1.000000 0.000000 0.000000 0.000000 1.000000 0.000000 0.000000 0.000000 1.000000 submodel group 1
0 STEP
1 16 147.000000 -175.463100 -82.000000 -1.000000 0.000000 0.000000 0.000000 0.000000 -1.000000 0.000000 -1.000000 0.000000 submodel group 9 copy copy copy
0 STEP
1 72 24.999950 -89.000080 -103.389900 0.000000 -1.000000 0.000000 -1.000000 0.000000 0.000000 0.000000 0.000000 -1.000000 3647.dat
1 71 24.999950 -89.000070 -83.389880 0.000000 -1.000000 0.000000 0.000000 0.000000 1.000000 -1.000000 0.000000 0.000000 4519.dat
0 STEP
1 0 -14.999900 -89.000060 -12.999980 0.000000 0.140901 0.990024 0.000000 0.990024 -0.140901 -1.000000 0.000000 0.000000 3708.dat
1 14 -14.999910 -89.000070 -68.000000 0.990024 0.140901 0.000000 -0.140901 0.990024 0.000000 0.000000 0.000000 1.000000 32123a.dat
1 14 -15.000020 -89.000030 42.399940 0.990024 0.140901 0.000000 -0.140901 0.990024 0.000000 0.000000 0.000000 1.000000 32123a.dat
0 STEP
1 72 -15.000040 -89.000090 -103.060000 0.990024 -0.140901 0.000000 -0.140901 -0.990024 0.000000 0.000000 0.000000 -1.000000 3648b.dat
1 0 145.000500 -89.000080 -93.389850 0.000000 0.000000 -1.000000 0.000000 1.000000 0.000000 1.000000 0.000000 0.000000 2780.dat
1 0 105.000500 -89.000080 -93.389870 0.000000 0.000000 -1.000000 0.000000 1.000000 0.000000 1.000000 0.000000 0.000000 2780.dat
0 STEP
1 1 -15.000000 -89.000060 -123.000000 0.140901 0.000000 -0.990024 0.990024 -0.000001 0.140901 -0.000001 -1.000000 0.000000 32140.dat
1 1 145.000300 -9.000100 -103.390000 -1.000000 0.000001 0.000001 -0.000001 -0.000001 -1.000000 -0.000001 -1.000000 0.000001 32526.dat
0 STEP
1 0 145.000000 -89.000060 67.749940 0.000000 0.000000 -1.000000 0.000000 1.000000 0.000000 1.000000 0.000000 0.000000 2780.dat
1 0 105.000000 -89.000060 67.749920 0.000000 0.000000 -1.000000 0.000000 1.000000 0.000000 1.000000 0.000000 0.000000 2780.dat
1 72 -14.999900 -89.000040 76.999900 0.990024 0.140901 0.000000 -0.140901 0.990024 0.000000 0.000000 0.000000 1.000000 3648b.dat
0 STEP
1 1 -14.999770 -89.000030 97.000030 0.140901 0.000000 -0.990024 0.990024 -0.000001 0.140901 -0.000001 -1.000000 0.000000 32140.dat
1 1 144.999900 -9.000020 77.749800 -1.000000 0.000001 0.000001 -0.000001 -0.000001 -1.000000 -0.000001 -1.000000 0.000001 32526.dat
0 STEP
1 15 175.000100 -155.000000 -82.249950 0.000000 0.000000 -1.000000 0.000000 1.000000 0.000000 1.000000 0.000000 0.000000 3040b.dat
1 15 174.999900 -155.000000 57.749960 0.000000 0.000000 -1.000000 0.000000 1.000000 0.000000 1.000000 0.000000 0.000000 3040b.dat
0 STEP
1 19 195.000000 -183.680100 27.749840 1.000000 0.000001 -0.000001 0.000001 0.000001 1.000000 0.000001 -1.000000 0.000001 3749.dat
1 19 194.999900 -183.680100 -52.249920 1.000000 0.000001 -0.000001 0.000001 0.000001 1.000000 0.000001 -1.000000 0.000001 3749.dat
1 0 205.000000 -183.680000 27.749840 0.000000 0.000000 1.000000 1.000000 0.000000 0.000000 0.000000 1.000000 0.000000 32270.dat
1 0 204.999900 -183.680100 -52.249920 0.000000 0.000000 1.000000 1.000000 0.000000 0.000000 0.000000 1.000000 0.000000 32270.dat
0 STEP
1 0 185.000000 -193.680100 7.750080 0.000000 1.000000 0.000000 1.000000 0.000000 0.000000 0.000000 0.000000 -1.000000 2780.dat
1 0 185.000000 -193.680100 -32.249920 0.000000 1.000000 0.000000 1.000000 0.000000 0.000000 0.000000 0.000000 -1.000000 2780.dat
1 15 185.000100 -203.680100 -12.249920 -1.000000 0.000001 -0.000001 -0.000001 -1.000000 -0.000001 -0.000001 -0.000001 1.000000 32316.dat
0 STEP
1 0 185.000000 -213.680100 27.750080 0.000000 0.000000 -1.000000 -1.000000 0.000000 0.000000 0.000000 1.000000 0.000000 2780.dat
1 0 185.000100 -213.680000 -52.250160 0.000000 0.000000 -1.000000 -1.000000 0.000000 0.000000 0.000000 1.000000 0.000000 2780.dat
1 15 165.000000 -223.680100 27.750080 0.000001 0.000001 -1.000000 -0.000001 -1.000000 -0.000001 -1.000000 0.000001 -0.000001 32523.dat
1 15 165.000100 -223.680000 -52.250160 0.000001 0.000001 -1.000000 -0.000001 -1.000000 -0.000001 -1.000000 0.000001 -0.000001 32523.dat
0 STEP
0 STEP
0 NOFILE
0 FILE SubModel Group 2
0 SubModel Group 2
0 Name:  SubModel Group 2
0 Author:  
0 CustomBrick
0 NumOfBricks:  6
1 1 13.666680 -24.000010 20.000010 -1.000000 0.000000 0.000000 0.000000 1.000000 0.000000 0.000000 0.000000 -1.000000 3895.dat
0 STEP
1 1 113.666700 -47.999980 20.000040 -1.000000 0.000000 0.000000 0.000000 1.000000 0.000000 0.000000 0.000000 -1.000000 3894.dat
1 1 -6.333320 -47.999980 20.000000 -1.000000 0.000000 0.000000 0.000000 1.000000 0.000000 0.000000 0.000000 -1.000000 3894.dat
0 STEP
1 1 -46.333310 -55.999970 -50.000020 0.000000 0.000000 1.000000 0.000000 1.000000 0.000000 -1.000000 0.000000 0.000000 3738.dat
1 0 -46.333310 -58.679960 -30.000020 0.000000 -1.000000 0.000000 -1.000000 0.000000 0.000000 0.000000 0.000000 -1.000000 2780.dat
1 0 -46.333440 -58.509980 -70.000010 0.000000 -1.000000 0.000000 -1.000000 0.000000 0.000000 0.000000 0.000000 -1.000000 2780.dat
0 STEP
0 NOFILE
0 FILE SubModel Group 1
0 SubModel Group 1
0 Name:  SubModel Group 1
0 Author:  
0 CustomBrick
0 NumOfBricks:  7
1 1 -2.428330 -32.000010 0.000080 0.000000 0.000000 1.000000 0.000000 1.000000 0.000000 -1.000000 0.000000 0.000000 3709b.dat
1 15 17.571670 -24.000010 0.000020 0.000000 0.000000 1.000000 0.000000 1.000000 0.000000 -1.000000 0.000000 0.000000 3001.dat
0 STEP
1 1 -2.428760 -48.000000 -0.000230 0.000000 0.000000 -1.000000 0.000000 1.000000 0.000000 1.000000 0.000000 0.000000 3709b.dat
1 1 -12.428330 -40.000010 0.000070 -0.000001 0.000000 -1.000000 0.000000 1.000000 0.000000 1.000000 0.000000 -0.000001 3710.dat
0 STEP
1 1 -2.428760 -55.999970 0.000020 0.000000 0.000000 1.000000 0.000000 1.000000 0.000000 -1.000000 0.000000 0.000000 3738.dat
1 0 -2.428760 -58.579960 20.000020 0.000000 -1.000000 0.000000 -1.000000 0.000000 0.000000 0.000000 0.000000 -1.000000 2780.dat
1 0 -2.428760 -58.949970 -19.999980 0.000000 -1.000000 0.000000 -1.000000 0.000000 0.000000 0.000000 0.000000 -1.000000 2780.dat
0 STEP
0 NOFILE
0 FILE SubModel Group 9 Copy Copy Copy
0 SubModel Group 9 Copy Copy Copy
0 Name:  SubModel Group 9 Copy Copy Copy
0 Author:  
0 CustomBrick
0 NumOfBricks:  3
1 72 10.000000 -1.128810 -10.000000 1.000000 0.000000 0.000000 0.000000 0.000000 -1.000000 0.000000 1.000000 0.000000 dch003.dat
1 71 -27.466620 -79.717990 29.427020 1.000000 0.000000 0.000000 0.000000 0.000000 -1.000000 0.000000 1.000000 0.000000 dch004.dat
1 25 7.837010 13.484720 -9.965000 1.000000 0.000000 0.000000 0.000000 0.000000 -1.000000 0.000000 1.000000 0.000000 dch005.dat
0 NOFILE
