0 Untitled Model
0 Name:  工具钳
0 Author:  
0 CustomBrick
0 NumOfBricks:  19
1 1 47.352720 -56.430000 34.999960 -0.866025 0.000000 -0.500000 0.500000 -0.000001 -0.866025 -0.000001 -1.000000 0.000001 6629.dat
1 71 17.352690 -108.391500 25.000080 0.000000 0.000000 -1.000000 0.000000 1.000000 0.000000 1.000000 0.000000 0.000000 3673.dat
0 STEP
1 1 17.000000 -52.434000 55.000000 0.258819 0.000000 -0.965926 -0.965926 0.000000 -0.258819 0.000000 1.000000 0.000000 32009.dat
1 0 37.352740 -73.750560 45.000030 0.000000 0.000000 -1.000000 0.000000 1.000000 0.000000 1.000000 0.000000 0.000000 2780.dat
1 0 27.352750 -91.071060 45.000030 0.000000 0.000000 -1.000000 0.000000 1.000000 0.000000 1.000000 0.000000 0.000000 2780.dat
0 STEP
1 1 77.352670 -118.391500 15.000080 1.000000 0.000000 0.000000 0.000000 1.000000 0.000000 0.000000 0.000000 1.000000 3703.dat
1 0 -62.647360 -108.391500 5.000040 0.000000 0.000000 -1.000000 0.000000 1.000000 0.000000 1.000000 0.000000 0.000000 2780.dat
1 0 217.352700 -108.391500 5.000080 0.000000 0.000000 -1.000000 0.000000 1.000000 0.000000 1.000000 0.000000 0.000000 2780.dat
0 STEP
1 1 77.352670 -118.391500 -4.999920 1.000000 0.000000 0.000000 0.000000 1.000000 0.000000 0.000000 0.000000 1.000000 3703.dat
1 71 17.352690 -108.391500 -14.999960 0.000000 0.000000 -1.000000 0.000000 1.000000 0.000000 1.000000 0.000000 0.000000 3673.dat
0 STEP
1 1 -42.883560 -137.830800 14.999950 0.998629 0.052335 0.000000 0.052336 -0.998630 0.000000 0.000000 0.000000 -1.000000 3701.dat
1 1 -21.719720 -146.250900 15.000070 0.000000 -0.052335 0.998630 0.000000 0.998630 0.052336 -1.000000 0.000000 0.000000 6558.dat
0 STEP
1 1 -42.883560 -137.830900 -5.000040 0.998629 0.052335 0.000000 0.052336 -0.998629 0.000000 0.000000 0.000000 -1.000000 3701.dat
1 1 -42.360220 -147.817100 -4.999930 0.000000 0.500000 -0.866025 0.000000 0.866025 0.500000 1.000000 0.000000 0.000000 6558.dat
1 0 -62.216640 -150.209400 5.000040 0.000000 -0.119615 0.992820 0.000000 0.992821 0.119616 -1.000000 0.000000 0.000000 3705.dat
0 STEP
1 1 47.352600 -56.429860 -24.999980 -0.866026 0.000000 -0.500000 0.500000 0.000000 -0.866026 0.000000 -1.000000 0.000000 6629.dat
1 0 27.352610 -91.070930 -34.999970 0.000000 0.000000 -1.000000 0.000000 1.000000 0.000000 1.000000 0.000000 0.000000 2780.dat
1 0 37.352600 -73.750390 -34.999970 0.000000 0.000000 -1.000000 0.000000 1.000000 0.000000 1.000000 0.000000 0.000000 2780.dat
0 STEP
1 1 16.999810 -52.433840 -44.999970 0.258820 0.000000 -0.965926 -0.965926 0.000000 -0.258820 0.000000 1.000000 0.000000 32009.dat
0 STEP
0 STEP
