0 FILE 双向门.io
0 Untitled Model
0 Name:  双向门
0 Author:  
0 CustomBrick
0 NumOfBricks:  56
1 15 -70.000080 -30.000060 -130.000000 1.000000 -0.000001 0.000001 0.000001 1.000000 0.000001 -0.000001 -0.000001 1.000000 64871.dat
1 0 -70.000140 -20.000150 -229.999900 0.000000 -1.000000 0.000000 1.000000 0.000000 0.000000 0.000000 0.000000 1.000000 2780.dat
1 0 -70.000000 -19.999960 -30.000020 0.000000 -1.000000 0.000000 1.000000 0.000000 0.000000 0.000000 0.000000 1.000000 2780.dat
0 STEP
1 15 10.000000 -10.000060 -30.000060 0.000001 0.000001 -1.000000 0.000001 1.000000 0.000001 1.000000 -0.000001 0.000001 40490.dat
1 15 10.000060 -10.000060 -230.000000 0.000001 0.000001 -1.000000 0.000001 1.000000 0.000001 1.000000 -0.000001 0.000001 40490.dat
0 STEP
1 0 90.000030 -20.000130 -30.000120 0.000000 1.000000 0.000000 -1.000000 0.000000 0.000000 0.000000 0.000000 1.000000 2780.dat
1 0 90.000080 -20.000130 -230.000100 0.000000 1.000000 0.000000 -1.000000 0.000000 0.000000 0.000000 0.000000 1.000000 2780.dat
0 STEP
1 15 90.000140 -30.000030 -130.000000 1.000000 -0.000001 0.000001 0.000001 1.000000 0.000001 -0.000001 -0.000001 1.000000 64871.dat
1 19 9.999940 -20.000060 -230.000800 -0.000001 1.000000 -0.000001 -1.000000 -0.000001 0.000001 0.000001 0.000001 1.000000 3749.dat
1 19 10.000000 -20.000040 -30.000060 -0.000001 1.000000 -0.000001 -1.000000 -0.000001 0.000001 0.000001 0.000001 1.000000 3749.dat
0 STEP
1 16 -14.105240 0.000000 -163.928000 1.000000 0.000000 0.000000 0.000000 1.000000 0.000000 0.000000 0.000000 1.000000 submodel group 4
0 STEP
1 16 -9.999849 -78.749920 -129.999900 0.890216 0.000000 0.455539 0.000000 1.000000 0.000000 -0.455539 0.000000 0.890216 submodel group 3
0 STEP
1 16 -1.392710 -142.929900 -84.909930 0.860736 0.000000 -0.509052 0.000000 1.000000 0.000000 0.509052 0.000000 0.860736 submodel group 2
0 STEP
1 16 -1.097660 -142.990000 -174.555300 0.890216 0.000000 0.455539 0.000000 1.000000 0.000000 -0.455539 0.000000 0.890216 submodel group 1
0 STEP
0 STEP
0 NOFILE
0 FILE SubModel Group 4
0 SubModel Group 4
0 Name:  SubModel Group 4
0 Author:  
0 CustomBrick
0 NumOfBricks:  19
1 71 4.105300 -69.170030 153.717900 1.000000 0.000000 0.000001 0.000000 1.000000 0.000000 -0.000001 0.000000 1.000000 3713.dat
1 0 4.105300 -69.170030 103.717900 0.000000 0.000000 1.000000 0.000000 1.000000 0.000000 -1.000000 0.000000 0.000000 3706.dat
0 STEP
1 4 4.105240 -70.000060 133.927900 0.000000 1.000000 0.000000 0.000000 0.000000 -1.000000 -1.000000 0.000000 0.000000 32034.dat
1 4 4.105240 -40.000010 133.927900 0.000000 0.000000 1.000000 1.000000 0.000000 0.000000 0.000000 1.000000 0.000000 32062.dat
0 STEP
1 14 4.105300 -69.170030 118.717800 -1.000000 0.000000 0.000000 0.000000 1.000000 0.000000 0.000000 0.000000 -1.000000 32123a.dat
1 0 4.105300 -69.170030 103.917900 0.000000 -1.000000 0.000000 1.000000 0.000000 0.000000 0.000000 0.000000 1.000000 32270.dat
0 STEP
1 0 4.105270 -69.170030 -36.282080 0.000000 0.000000 1.000000 0.000000 1.000000 0.000000 -1.000000 0.000000 0.000000 3707.dat
1 71 4.105320 -69.172870 43.717880 1.000000 0.000000 0.000001 0.000000 1.000000 0.000000 -0.000001 0.000000 1.000000 59443.dat
0 STEP
1 14 4.105270 -69.170030 -51.112090 -1.000000 0.000000 0.000000 0.000000 1.000000 0.000000 0.000000 0.000000 -1.000000 32123a.dat
1 0 4.105270 -69.170040 -35.552100 0.000000 -1.000000 0.000000 1.000000 0.000000 0.000000 0.000000 0.000000 1.000000 32270.dat
0 STEP
1 71 4.105270 -69.170030 -86.282090 1.000000 0.000000 0.000001 0.000000 1.000000 0.000000 -0.000001 0.000000 1.000000 3713.dat
1 4 4.105270 -69.170040 -66.072070 0.000000 1.000000 0.000000 0.000000 0.000000 -1.000000 -1.000000 0.000000 0.000000 32034.dat
1 4 4.105270 -34.230000 -66.072070 0.000000 0.000000 1.000000 1.000000 0.000000 0.000000 0.000000 1.000000 0.000000 32062.dat
0 STEP
1 71 4.105120 -30.000040 -66.072860 -0.000001 0.000001 1.000000 -0.000001 1.000000 -0.000001 -1.000000 -0.000001 -0.000001 33299.dat
1 71 4.105240 -30.000020 133.927900 -0.000001 0.000001 1.000000 -0.000001 1.000000 -0.000001 -1.000000 -0.000001 -0.000001 33299.dat
0 STEP
1 4 4.105250 -69.170030 -136.282000 0.000000 0.000000 -1.000000 0.000000 1.000000 0.000000 1.000000 0.000000 0.000000 32062.dat
1 71 4.105280 -69.172870 -116.282000 1.000000 0.000000 0.000001 0.000000 1.000000 0.000000 -0.000001 0.000000 1.000000 59443.dat
0 STEP
1 71 4.105260 -69.170040 -146.282000 0.000001 -0.000001 -1.000000 1.000000 0.000001 0.000001 0.000001 -1.000000 0.000001 33299.dat
1 4 -35.894740 -69.170000 -176.282000 0.000000 0.000000 1.000000 0.000000 1.000000 0.000000 -1.000000 0.000000 0.000000 62462.dat
0 STEP
0 NOFILE
0 FILE SubModel Group 3
0 SubModel Group 3
0 Name:  SubModel Group 3
0 Author:  
0 CustomBrick
0 NumOfBricks:  9
1 15 -0.000370 -30.420080 0.000640 0.890217 0.000000 -0.455538 0.000001 1.000000 0.000001 0.455538 -0.000001 0.890216 64871.dat
0 STEP
1 15 18.221580 -64.240040 -35.608580 1.000000 0.000000 0.000000 0.000000 1.000000 0.000000 0.000000 0.000000 1.000000 3941.dat
1 15 -18.221550 -64.179970 35.608160 0.534348 0.000000 -0.845264 0.000000 1.000000 0.000000 0.845264 0.000000 0.534348 3941.dat
1 71 -18.221390 -34.179990 35.608650 0.000000 -0.845264 -0.534348 -1.000000 0.000000 0.000000 0.000000 0.534348 -0.845264 4519.dat
1 71 18.221580 -34.240080 -35.608650 0.000000 0.000000 -1.000000 -1.000000 0.000000 0.000000 0.000000 1.000000 0.000000 4519.dat
0 STEP
1 19 18.221580 -10.240090 -35.608580 1.000000 0.000000 0.000000 0.000000 0.000000 1.000000 0.000000 -1.000000 0.000000 32269.dat
1 19 -18.221360 -10.000010 35.608730 0.534348 0.845264 0.000000 0.000000 0.000000 1.000000 0.845264 -0.534348 0.000000 32269.dat
0 STEP
1 19 -45.553920 -21.250140 89.021430 -0.000001 0.455538 -0.890217 1.000000 0.000001 -0.000001 0.000001 -0.890217 -0.455538 3749.dat
1 19 45.553820 -20.420140 -89.021720 -0.000001 0.455538 -0.890217 1.000000 0.000001 -0.000001 0.000001 -0.890216 -0.455538 3749.dat
0 STEP
0 NOFILE
0 FILE SubModel Group 2
0 SubModel Group 2
0 Name:  SubModel Group 2
0 Author:  
0 CustomBrick
0 NumOfBricks:  9
1 1 -0.000090 -48.000100 -0.000020 0.000000 0.000000 1.000000 0.000000 1.000000 0.000000 -1.000000 0.000000 0.000000 3701.dat
1 1 -0.000070 -24.000000 -0.000100 0.000000 0.000000 1.000000 0.000000 1.000000 0.000000 -1.000000 0.000000 0.000000 3701.dat
0 STEP
1 15 0.000100 -72.000020 -19.999900 0.000000 0.000000 1.000000 0.000000 1.000000 0.000000 -1.000000 0.000000 0.000000 32064a.dat
1 15 0.000020 -72.000030 19.999990 0.000000 0.000000 1.000000 0.000000 1.000000 0.000000 -1.000000 0.000000 0.000000 32064a.dat
0 STEP
1 1 0.000020 -96.000030 19.999990 0.000000 0.000000 1.000000 0.000000 1.000000 0.000000 -1.000000 0.000000 0.000000 3700.dat
1 1 0.000100 -96.000010 -19.999900 0.000000 0.000000 1.000000 0.000000 1.000000 0.000000 -1.000000 0.000000 0.000000 3700.dat
0 STEP
1 1 -0.000020 -128.000100 -0.000140 0.000000 0.000000 1.000000 0.000000 1.000000 0.000000 -1.000000 0.000000 0.000000 3023.dat
1 15 -0.000040 -120.000100 9.999949 -1.000000 0.000000 0.000000 0.000000 1.000000 0.000000 0.000000 0.000000 -1.000000 3040b.dat
1 15 -0.000120 -120.000100 -9.999990 1.000000 0.000000 0.000000 0.000000 1.000000 0.000000 0.000000 0.000000 1.000000 3040b.dat
0 STEP
0 NOFILE
0 FILE SubModel Group 1
0 SubModel Group 1
0 Name:  SubModel Group 1
0 Author:  
0 CustomBrick
0 NumOfBricks:  9
1 1 0.000030 -48.000040 -0.000010 0.000000 0.000000 1.000000 0.000000 1.000000 0.000000 -1.000000 0.000000 0.000000 3701.dat
1 1 0.000030 -24.000000 -0.000010 0.000000 0.000000 1.000000 0.000000 1.000000 0.000000 -1.000000 0.000000 0.000000 3701.dat
0 STEP
1 15 -0.000020 -72.000020 20.000310 0.000001 0.000000 -1.000000 0.000000 1.000000 0.000000 1.000000 0.000000 0.000000 32064a.dat
1 15 0.000030 -72.000060 -20.000010 0.000000 0.000000 -1.000000 0.000000 1.000000 0.000000 1.000000 0.000000 0.000000 32064a.dat
0 STEP
1 1 0.000010 -96.000060 19.999840 0.000000 0.000000 1.000000 0.000000 1.000000 0.000000 -1.000000 0.000000 0.000000 3700.dat
1 1 0.000030 -96.000060 -20.000010 0.000000 0.000000 1.000000 0.000000 1.000000 0.000000 -1.000000 0.000000 0.000000 3700.dat
0 STEP
1 1 -0.000050 -128.000100 -0.000120 0.000000 0.000000 1.000000 0.000000 1.000000 0.000000 -1.000000 0.000000 0.000000 3023.dat
1 15 0.000030 -120.000100 -10.000010 1.000000 0.000000 0.000000 0.000000 1.000000 0.000000 0.000000 0.000000 1.000000 3040b.dat
1 15 -0.000020 -120.000100 9.999829 -1.000000 0.000000 0.000000 0.000000 1.000000 0.000000 0.000000 0.000000 -1.000000 3040b.dat
0 STEP
0 NOFILE
