0 FILE 地月系统.io
0 Untitled Model
0 Name:  地月系统
0 Author:  
0 CustomBrick
0 NumOfBricks:  54
1 1 -104.000000 -45.888960 -76.999910 1.000000 0.000000 0.000000 0.000000 1.000000 0.000000 0.000000 0.000000 1.000000 3703.dat
1 1 -184.000100 -45.888960 -96.999910 1.000000 0.000000 0.000000 0.000000 1.000000 0.000000 0.000000 0.000000 1.000000 3702.dat
1 1 -24.000140 -45.888960 -96.999910 1.000000 0.000000 0.000000 0.000000 1.000000 0.000000 0.000000 0.000000 1.000000 3702.dat
0 STEP
1 1 -184.000100 -69.888940 -96.999940 1.000000 0.000000 0.000000 0.000000 1.000000 0.000000 0.000000 0.000000 1.000000 3702.dat
1 1 -104.000000 -69.888940 -76.999910 1.000000 0.000000 0.000000 0.000000 1.000000 0.000000 0.000000 0.000000 1.000000 3703.dat
1 1 -24.000140 -69.888940 -96.999940 1.000000 0.000000 0.000000 0.000000 1.000000 0.000000 0.000000 0.000000 1.000000 3702.dat
0 STEP
1 0 -124.000200 -59.888960 -106.999900 0.000000 0.000000 1.000000 0.000000 -1.000000 0.000000 1.000000 0.000000 0.000000 2780.dat
1 0 -44.000180 -59.888960 -106.999900 0.000000 0.000000 1.000000 0.000000 -1.000000 0.000000 1.000000 0.000000 0.000000 2780.dat
1 16 -14.000400 -50.463020 -155.973400 0.000000 1.000000 0.000000 0.000000 0.000000 -1.000000 -1.000001 0.000000 0.000000 submodel group 9 copy copy copy
0 STEP
1 16 -96.150630 -61.888920 -111.307400 1.000000 0.000000 0.000000 0.000000 1.000000 0.000000 0.000000 0.000000 1.000000 submodel group 1
0 STEP
1 15 -234.000200 -93.888940 -76.999910 0.000000 0.000000 1.000001 0.000000 1.000000 0.000000 -1.000001 0.000000 0.000000 3040b.dat
1 15 -214.000200 -93.888940 -76.999910 0.000000 0.000000 -1.000001 0.000000 1.000000 0.000000 1.000001 0.000000 0.000000 3040b.dat
0 STEP
1 72 -104.000000 -91.268960 -86.999970 0.989273 0.146083 0.000000 0.000000 0.000000 1.000000 0.146083 -0.989273 0.000000 3648b.dat
1 1 -104.000000 -109.888900 -86.999970 1.000000 0.000000 0.000000 0.000000 1.000000 0.000000 0.000000 0.000000 1.000000 3738.dat
1 0 -104.000000 -170.528900 -87.000000 0.000000 0.146083 -0.989273 1.000000 0.000000 0.000000 0.000000 -0.989273 -0.146083 3737.dat
1 71 -104.000000 -120.828900 -86.999970 0.989272 0.146083 0.000000 0.000000 0.000000 1.000000 0.146083 -0.989273 0.000000 3713.dat
0 STEP
1 15 -174.000400 -125.889000 -107.000100 0.000000 0.000000 1.000001 0.000000 1.000000 0.000000 -1.000001 0.000000 0.000000 2431.dat
1 1 -174.000200 -117.889000 -107.000000 0.000000 0.000000 1.000001 0.000000 1.000000 0.000000 -1.000001 0.000000 0.000000 3710.dat
0 STEP
1 1 -4.000130 -141.418900 -97.000000 1.000000 0.000000 0.000000 0.000000 0.000000 -1.000000 0.000000 1.000000 0.000000 3895.dat
1 1 -4.000130 -161.418900 -97.000000 1.000000 0.000000 0.000000 0.000000 0.000000 -1.000000 0.000000 1.000000 0.000000 3895.dat
0 STEP
1 1 76.000000 -151.418900 -105.000000 -1.000000 0.000000 0.000000 0.000000 0.000000 1.000000 0.000000 1.000000 0.000000 3709b.dat
1 1 -84.000220 -151.418900 -105.000000 -1.000000 0.000000 0.000000 0.000000 0.000000 1.000000 0.000000 1.000000 0.000000 3709b.dat
0 STEP
1 72 -104.000000 -181.198900 -87.000000 0.989272 0.146083 0.000000 0.000000 0.000000 1.000000 0.146083 -0.989273 0.000000 3648b.dat
1 71 -104.000000 -200.529000 -87.000000 0.989272 0.146083 0.000000 0.000000 0.000000 1.000000 0.146083 -0.989273 0.000000 3713.dat
0 STEP
1 71 -104.000000 -240.599100 -87.000000 0.989272 0.146083 0.000000 0.000000 0.000000 1.000000 0.146083 -0.989273 0.000000 3649.dat
1 71 -104.000000 -220.529000 -87.000000 0.989272 0.146083 0.000000 0.000000 0.000000 1.000000 0.146083 -0.989273 0.000000 3713.dat
0 STEP
1 71 -24.000140 -181.418900 -87.000000 1.000000 0.000000 0.000000 0.000000 0.000000 1.000000 0.000000 -1.000000 0.000000 3649.dat
1 19 -24.000140 -171.418900 -87.000000 -0.000001 1.000000 -0.000001 -1.000000 -0.000001 0.000001 0.000001 0.000001 1.000000 3749.dat
0 STEP
1 72 35.999930 -181.419000 -87.000000 -0.417868 -0.908508 0.000000 0.000000 0.000000 1.000000 -0.908508 0.417868 0.000000 3647.dat
1 19 35.999930 -171.419000 -87.000000 -0.000001 0.908509 0.417867 -1.000000 -0.000001 0.000000 0.000001 -0.417867 0.908509 3749.dat
0 STEP
1 14 76.000000 -126.598900 -86.999970 1.000000 0.000000 0.000000 0.000000 0.000000 -1.000000 0.000000 1.000000 0.000000 32123a.dat
1 71 76.000000 -191.673900 -87.000000 0.000000 0.000000 1.000000 -1.000000 0.000000 0.000000 0.000000 -1.000000 0.000000 44294.dat
0 STEP
1 72 76.000000 -181.333900 -87.000000 1.000000 0.000000 0.000000 0.000000 0.000000 1.000000 0.000000 -1.000000 0.000000 3648b.dat
1 1 76.000000 -199.964000 -106.999900 0.000000 0.000000 -1.000000 -1.000000 0.000000 0.000000 0.000000 1.000000 0.000000 32184.dat
0 STEP
1 19 76.000060 -209.964000 -127.000000 -0.000001 1.000000 -0.000001 1.000000 0.000001 -0.000001 -0.000001 -0.000001 -1.000000 3749.dat
1 1 86.000110 -219.964000 -127.000000 0.000000 -1.000000 0.000000 0.000000 0.000000 -1.000000 1.000000 0.000000 0.000000 3894.dat
0 STEP
1 71 76.000000 -254.864100 -87.000000 -1.000000 0.000000 0.000000 0.000000 0.000000 -1.000000 0.000000 -1.000000 0.000000 56145.dat
1 19 76.000000 -229.964000 -166.999800 -0.000001 -0.000001 -1.000000 -1.000000 -0.000001 0.000001 -0.000001 1.000000 -0.000001 3749.dat
0 STEP
1 71 76.000000 -234.964000 -167.000000 1.000000 0.000000 0.000000 0.000000 0.000000 -1.000000 0.000000 1.000000 0.000000 4185.dat
1 14 76.000000 -244.964000 -166.999800 1.000001 0.000000 0.000000 0.000000 0.000000 -1.000000 0.000000 1.000001 0.000000 32123a.dat
0 STEP
0 STEP
0 NOFILE
0 FILE SubModel Group 9 Copy Copy Copy
0 SubModel Group 9 Copy Copy Copy
0 Name:  SubModel Group 9 Copy Copy Copy
0 Author:  
0 CustomBrick
0 NumOfBricks:  3
1 72 10.000000 -1.128810 -10.000000 1.000000 0.000000 0.000000 0.000000 0.000000 -1.000000 0.000000 1.000000 0.000000 dch003.dat
1 71 -27.466620 -79.717990 29.427020 1.000000 0.000000 0.000000 0.000000 0.000000 -1.000000 0.000000 1.000000 0.000000 dch004.dat
1 25 7.837010 13.484720 -9.965000 1.000000 0.000000 0.000000 0.000000 0.000000 -1.000000 0.000000 1.000000 0.000000 dch005.dat
0 NOFILE
0 FILE SubModel Group 1
0 SubModel Group 1
0 Name:  SubModel Group 1
0 Author:  
0 CustomBrick
0 NumOfBricks:  13
1 0 -8.469450 -30.000040 -15.692590 1.000000 0.000000 0.000000 0.000000 0.999999 0.000000 0.000000 0.000000 1.000000 3737.dat
1 1 62.150560 -40.000040 4.307690 0.000000 0.000000 1.000000 0.000000 1.000000 0.000000 -1.000000 0.000000 0.000000 3701.dat
0 STEP
1 71 41.531120 -29.999910 -15.690880 0.000001 0.000000 -1.000000 0.000000 0.999999 0.000000 1.000000 0.000000 0.000001 3713.dat
1 71 21.530500 -30.000040 -15.692590 0.000001 0.000000 -1.000000 0.000000 0.999999 0.000000 1.000000 0.000000 0.000001 3713.dat
1 71 81.530440 -30.000050 -15.692590 0.000001 0.000000 -1.000000 0.000000 0.999999 0.000000 1.000000 0.000000 0.000001 3713.dat
0 STEP
1 71 -8.469450 -30.000230 -15.692770 0.000000 0.000000 1.000000 0.000000 0.999999 0.000000 -1.000000 0.000000 0.000000 4716.dat
1 71 -38.466680 -30.001460 -15.691550 0.000001 0.000000 -0.999995 -0.999994 0.000000 -0.000001 0.000000 1.000000 0.000000 3713.dat
1 71 -58.469580 -29.999660 -15.691800 0.000001 0.000000 -1.000000 -0.999999 0.000000 -0.000001 0.000000 1.000000 0.000000 3713.dat
0 STEP
1 1 -77.849480 -40.000040 4.307440 0.000000 0.000000 1.000000 0.000000 1.000000 0.000000 -1.000000 0.000000 0.000000 3701.dat
1 1 -77.849480 -48.000040 -15.692590 0.000000 0.000000 1.000001 0.000000 1.000000 0.000000 -1.000001 0.000000 0.000000 3023.dat
1 0 -87.849490 -30.000030 4.307440 -1.000000 0.000000 0.000000 0.000000 1.000000 0.000000 0.000000 0.000000 -1.000000 2780.dat
0 STEP
1 1 -7.849380 -16.000020 24.307470 1.000000 0.000000 0.000000 0.000000 1.000000 0.000000 0.000000 0.000000 1.000000 3738.dat
0 STEP
1 71 -88.469550 -30.000010 -15.692650 0.000000 0.000000 -1.000000 0.000000 1.000000 0.000000 1.000000 0.000000 0.000000 58120.dat
0 STEP
0 NOFILE
