0 FILE 天平2.io
0 Untitled Model
0 Name:  天平2
0 Author:  
0 CustomBrick
0 NumOfBricks:  130
1 1 110.000200 -40.000060 49.999880 1.000000 0.000000 0.000000 0.000000 1.000000 0.000000 0.000000 0.000000 1.000000 3895.dat
1 1 110.000200 -30.000060 49.999760 0.000000 0.000000 1.000000 0.000000 1.000000 0.000000 -1.000000 0.000000 0.000000 6558.dat
0 STEP
1 1 110.000200 -48.000060 59.999870 -1.000000 0.000000 0.000000 0.000000 1.000000 0.000000 0.000000 0.000000 -1.000000 3709b.dat
1 1 110.000200 -40.000060 69.999750 1.000000 0.000000 0.000000 0.000000 1.000000 0.000000 0.000000 0.000000 1.000000 3701.dat
0 STEP
1 1 110.000200 -80.000080 49.999880 1.000000 0.000000 0.000000 0.000000 1.000000 0.000000 0.000000 0.000000 1.000000 3700.dat
1 1 110.000200 -56.000060 49.999880 1.000000 0.000000 0.000000 0.000000 1.000000 0.000000 0.000000 0.000000 1.000000 3710.dat
0 STEP
1 0 110.000200 -70.000080 39.999880 0.000000 0.000000 -1.000000 0.000000 1.000000 0.000000 1.000000 0.000000 0.000000 2780.dat
1 15 110.000200 -170.000100 29.999750 -1.000000 0.000001 -0.000001 0.000001 0.000001 -1.000000 -0.000001 -1.000000 -0.000001 64871.dat
0 STEP
1 0 110.000100 -190.000100 19.999620 0.000000 0.000000 -1.000000 0.000000 1.000000 0.000000 1.000000 0.000000 0.000000 2780.dat
1 0 110.000300 -50.000060 19.999870 0.000000 0.000000 -1.000000 0.000000 1.000000 0.000000 1.000000 0.000000 0.000000 2780.dat
1 15 110.000100 -110.000100 9.999750 -1.000000 0.000001 -0.000001 -0.000001 -0.000001 1.000000 0.000001 1.000000 0.000001 40490.dat
0 STEP
1 0 210.000100 -30.000060 39.999890 0.000000 0.000000 -1.000000 0.000000 1.000000 0.000000 1.000000 0.000000 0.000000 2780.dat
1 0 10.000160 -30.000060 39.999870 0.000000 0.000000 -1.000000 0.000000 1.000000 0.000000 1.000000 0.000000 0.000000 2780.dat
1 4 210.000100 -30.000060 20.000000 0.000000 0.000000 1.000000 0.000000 1.000000 0.000000 -1.000000 0.000000 0.000000 62462.dat
1 4 10.000160 -30.000060 19.999860 0.000000 0.000000 1.000000 0.000000 1.000000 0.000000 -1.000000 0.000000 0.000000 62462.dat
0 STEP
1 16 110.000000 -16.000050 -10.000170 1.000000 0.000000 0.000000 0.000000 1.000000 0.000000 0.000000 0.000000 1.000000 submodel group 3
0 STEP
1 1 230.000300 -40.000060 69.999760 1.000000 0.000000 0.000000 0.000000 1.000000 0.000000 0.000000 0.000000 1.000000 3702.dat
1 0 169.998900 -30.000060 60.002200 0.000000 0.000000 -1.000000 0.000000 1.000000 0.000000 1.000000 0.000000 0.000000 2780.dat
1 0 190.000300 -30.000060 59.999760 0.000000 0.000000 -1.000005 0.000000 1.000000 0.000000 1.000005 0.000000 0.000000 2780.dat
0 STEP
1 1 -9.999840 -40.000060 69.999860 1.000000 0.000000 0.000000 0.000000 1.000000 0.000000 0.000000 0.000000 1.000000 3702.dat
1 0 30.000160 -30.000060 59.999860 0.000000 0.000000 -1.000000 0.000000 1.000000 0.000000 1.000000 0.000000 0.000000 2780.dat
1 0 50.000880 -30.000060 59.996940 0.000000 0.000000 -1.000006 0.000000 1.000000 0.000000 1.000006 0.000000 0.000000 2780.dat
0 STEP
1 1 230.000100 -40.000060 -29.999980 1.000000 0.000000 0.000000 0.000000 1.000000 0.000000 0.000000 0.000000 1.000000 3702.dat
1 0 190.000100 -30.000060 -20.000010 0.000000 0.000000 -1.000000 0.000000 1.000000 0.000000 1.000000 0.000000 0.000000 2780.dat
1 0 170.000100 -30.000060 -20.000010 0.000000 0.000000 -1.000000 0.000000 1.000000 0.000000 1.000000 0.000000 0.000000 2780.dat
0 STEP
1 1 -9.999860 -40.000060 -30.000010 1.000000 0.000000 0.000000 0.000000 1.000000 0.000000 0.000000 0.000000 1.000000 3702.dat
1 0 50.000160 -30.000060 -20.000020 0.000000 0.000000 -1.000000 0.000000 1.000000 0.000000 1.000000 0.000000 0.000000 2780.dat
1 0 30.000140 -30.000060 -20.000020 0.000000 0.000000 -1.000000 0.000000 1.000000 0.000000 1.000000 0.000000 0.000000 2780.dat
0 STEP
1 0 110.000100 -310.000100 19.999560 0.000000 0.000000 -1.000000 0.000000 1.000000 0.000000 1.000000 0.000000 0.000000 2780.dat
1 0 110.000100 -210.000100 19.999620 0.000000 0.000000 -1.000000 0.000000 1.000000 0.000000 1.000000 0.000000 0.000000 2780.dat
1 15 110.000100 -350.000200 9.999380 -1.000000 0.000001 -0.000001 0.000001 0.000001 -1.000000 -0.000001 -1.000000 -0.000001 64871.dat
0 STEP
1 4 -70.000060 -30.000090 -30.000020 0.000001 -1.000000 0.000001 0.000001 0.000001 1.000000 -1.000000 -0.000001 0.000001 32054.dat
1 4 -50.001860 -30.000040 -30.000630 0.000001 -0.999992 0.000001 0.000001 0.000001 0.999992 -1.000000 -0.000001 0.000001 32054.dat
1 4 -70.000070 -30.000060 -50.000020 0.000000 1.000000 0.000000 -1.000000 0.000000 0.000000 0.000000 0.000000 1.000000 42003.dat
0 STEP
1 4 -69.999920 -30.000070 69.999860 -0.000001 1.000000 -0.000001 0.000001 0.000001 1.000000 1.000000 0.000001 -0.000001 32054.dat
1 4 -50.000040 -30.000070 69.999980 -0.000001 1.000000 -0.000001 0.000001 0.000001 1.000000 1.000000 0.000001 -0.000001 32054.dat
1 4 -69.999920 -30.000060 89.999860 0.000000 1.000000 0.000000 -1.000000 0.000000 0.000000 0.000000 0.000000 1.000000 42003.dat
0 STEP
1 19 -89.999840 -20.000070 89.999860 -0.000001 1.000000 -0.000001 -1.000000 -0.000001 0.000001 0.000001 0.000001 1.000000 3749.dat
1 1 -69.999840 -10.000040 89.999740 -0.000001 -0.000001 -1.000000 0.000001 1.000000 -0.000001 1.000000 -0.000001 -0.000001 32140.dat
1 15 -59.999830 -64.000070 69.999860 0.000000 0.000000 1.000000 0.000000 1.000000 0.000000 -1.000000 0.000000 0.000000 3040b.dat
0 STEP
1 1 -70.000000 -10.000060 -50.000040 -0.000001 -0.000001 -1.000000 -0.000001 -1.000000 0.000001 -1.000000 0.000001 0.000001 32140.dat
1 15 -59.999940 -64.000070 -30.000020 0.000000 0.000000 1.000000 0.000000 1.000000 0.000000 -1.000000 0.000000 0.000000 3040b.dat
1 19 -90.000070 -20.000050 -50.000020 -0.000001 1.000000 -0.000001 -1.000000 -0.000001 0.000001 0.000001 0.000001 1.000000 3749.dat
0 STEP
1 4 290.000200 -30.000090 -29.999980 0.000001 -1.000000 0.000001 0.000001 0.000001 1.000000 -1.000000 -0.000001 0.000001 32054.dat
1 4 270.000200 -30.000090 -30.000350 0.000001 -1.000000 0.000001 0.000001 0.000001 1.000000 -1.000000 -0.000001 0.000001 32054.dat
1 4 290.000400 -30.000070 -49.999900 0.000000 -1.000000 0.000000 -1.000000 0.000000 0.000000 0.000000 0.000000 -1.000000 42003.dat
0 STEP
1 15 280.000000 -64.000070 -29.999980 0.000000 0.000000 -1.000000 0.000000 1.000000 0.000000 1.000000 0.000000 0.000000 3040b.dat
1 19 310.000400 -20.000070 -49.999900 -0.000001 1.000000 -0.000001 -1.000000 -0.000001 0.000001 0.000001 0.000001 1.000000 3749.dat
1 1 290.000200 -10.000040 -49.999960 0.000001 0.000001 1.000000 0.000001 1.000000 -0.000001 -1.000000 0.000001 0.000001 32140.dat
0 STEP
1 4 290.000500 -30.000070 69.999710 -0.000001 1.000000 -0.000001 0.000001 0.000001 1.000000 1.000000 0.000001 -0.000001 32054.dat
1 4 270.004400 -29.999960 70.001170 -0.000001 0.999993 -0.000001 0.000001 0.000001 0.999992 1.000000 0.000001 -0.000001 32054.dat
1 4 290.000400 -30.000040 89.999740 0.000000 -1.000000 0.000000 -1.000000 0.000000 0.000000 0.000000 0.000000 -1.000000 42003.dat
0 STEP
1 15 280.000200 -64.000070 69.999780 0.000000 0.000000 -1.000000 0.000000 1.000000 0.000000 1.000000 0.000000 0.000000 3040b.dat
1 19 310.000400 -20.000040 89.999740 -0.000001 1.000000 -0.000001 -1.000000 -0.000001 0.000001 0.000001 0.000001 1.000000 3749.dat
1 1 290.000400 -10.000070 89.999740 0.000001 0.000001 1.000000 -0.000001 -1.000000 0.000001 1.000000 -0.000001 -0.000001 32140.dat
0 STEP
1 16 349.999100 0.000060 20.065900 1.000000 0.000000 0.000000 0.000000 1.000000 0.000000 0.000000 0.000000 1.000000 submodel group 2
0 STEP
1 16 -129.999800 0.000040 18.445110 1.000000 0.000000 0.000000 0.000000 1.000000 0.000000 0.000000 0.000000 1.000000 submodel group 1
0 STEP
1 0 110.000100 -330.000100 19.999380 0.000000 0.000000 -1.000000 0.000000 1.000000 0.000000 1.000000 0.000000 0.000000 2780.dat
1 0 110.000000 -450.000200 19.999380 0.000000 0.000000 -1.000000 0.000000 1.000000 0.000000 1.000000 0.000000 0.000000 2780.dat
1 15 109.999900 -410.000300 29.999380 -1.000000 0.000001 -0.000001 -0.000001 -0.000001 1.000000 0.000001 1.000000 0.000001 40490.dat
0 STEP
1 4 109.998600 -490.000400 -10.001050 -0.000001 -0.000001 -1.000000 -0.000001 1.000000 -0.000001 1.000000 0.000001 -0.000001 32054.dat
1 4 109.999700 -469.996700 -9.999949 -0.000001 -0.000001 -0.999993 -0.000001 0.999991 -0.000001 1.000002 0.000001 -0.000001 32054.dat
1 15 109.999900 -510.000300 -10.001900 1.000002 -0.000001 0.000001 0.000001 0.000001 -1.000000 0.000001 1.000002 0.000001 32316.dat
0 STEP
1 1 110.000000 -560.000200 9.998710 -1.000013 0.000000 0.000000 0.000000 1.000000 0.000000 0.000000 0.000000 -1.000013 3701.dat
1 71 110.000000 -550.000300 -0.001660 0.000000 0.000000 -1.000013 0.000000 1.000000 0.000000 1.000013 0.000000 0.000000 3673.dat
0 STEP
1 1 110.000000 -536.000300 19.998950 -1.000013 0.000000 0.000000 0.000000 1.000000 0.000000 0.000000 0.000000 -1.000013 3738.dat
1 1 110.000000 -560.000200 29.999140 -1.000013 0.000000 0.000000 0.000000 1.000000 0.000000 0.000000 0.000000 -1.000013 3701.dat
1 71 110.000100 -550.000300 39.999080 0.000001 0.000000 1.000013 0.000000 1.000000 0.000000 -1.000013 0.000000 0.000000 3673.dat
0 STEP
1 4 109.995000 -469.998700 50.008660 0.000000 -0.000001 -1.000008 0.000001 -1.000006 0.000001 -1.000003 -0.000001 0.000001 32054.dat
1 4 110.000100 -490.000300 49.999260 0.000000 -0.000001 -1.000013 0.000001 -1.000000 0.000001 -1.000013 -0.000001 0.000001 32054.dat
1 15 110.000100 -510.000200 49.999260 1.000013 -0.000001 0.000001 0.000001 0.000001 -1.000000 0.000001 1.000013 0.000001 32316.dat
0 STEP
1 1 -50.002980 -560.000200 29.998940 -1.000013 0.000000 0.000000 0.000000 1.000000 0.000000 0.000000 0.000000 -1.000013 3895.dat
1 1 270.001700 -560.000200 29.999100 -1.000013 0.000000 0.000000 0.000000 1.000000 0.000000 0.000000 0.000000 -1.000013 3895.dat
0 STEP
1 0 170.000800 -550.000300 39.998970 0.000001 0.000000 1.000013 0.000000 1.000000 0.000000 -1.000013 0.000000 0.000000 2780.dat
1 0 -10.003750 -550.000300 39.999120 0.000001 0.000000 1.000013 0.000000 1.000000 0.000000 -1.000013 0.000000 0.000000 2780.dat
1 0 230.001100 -550.000300 39.999160 0.000001 0.000000 1.000013 0.000000 1.000000 0.000000 -1.000013 0.000000 0.000000 2780.dat
1 0 49.998280 -550.000300 39.999140 0.000001 0.000000 1.000013 0.000000 1.000000 0.000000 -1.000013 0.000000 0.000000 2780.dat
0 STEP
1 1 49.998280 -550.000300 49.999560 -0.000001 0.000000 -1.000013 1.000000 -0.000001 -0.000001 -0.000001 -1.000013 0.000000 32526.dat
1 1 170.000700 -550.000200 49.999400 0.000001 0.000000 1.000013 1.000000 -0.000001 -0.000001 0.000001 1.000013 0.000000 32526.dat
1 71 250.001400 -550.000300 59.999400 0.000001 0.000000 1.000013 0.000000 1.000000 0.000000 -1.000013 0.000000 0.000000 3673.dat
1 71 -30.003920 -550.000300 59.999360 0.000001 0.000000 1.000013 0.000000 1.000000 0.000000 -1.000013 0.000000 0.000000 3673.dat
0 STEP
1 1 270.001900 -560.000200 9.998779 -1.000013 0.000000 0.000000 0.000000 1.000000 0.000000 0.000000 0.000000 -1.000013 3895.dat
1 1 -50.003060 -560.000200 9.998750 -1.000013 0.000000 0.000000 0.000000 1.000000 0.000000 0.000000 0.000000 -1.000013 3895.dat
1 1 110.000000 -568.000200 19.998950 -1.000013 0.000000 0.000000 0.000000 1.000000 0.000000 0.000000 0.000000 -1.000013 3738.dat
0 STEP
1 0 170.000700 -550.000300 -0.001660 0.000000 0.000000 -1.000013 0.000000 1.000000 0.000000 1.000013 0.000000 0.000000 2780.dat
1 0 49.998270 -550.000300 -0.001670 0.000000 0.000000 -1.000013 0.000000 1.000000 0.000000 1.000013 0.000000 0.000000 2780.dat
1 0 -10.003760 -550.000300 -0.001740 0.000000 0.000000 -1.000013 0.000000 1.000000 0.000000 1.000013 0.000000 0.000000 2780.dat
1 0 230.001300 -550.000300 -0.001650 0.000000 0.000000 -1.000013 0.000000 1.000000 0.000000 1.000013 0.000000 0.000000 2780.dat
0 STEP
1 1 49.998580 -550.000300 -10.001910 -0.000001 -0.000001 -1.000013 1.000000 -0.000001 -0.000001 -0.000001 -1.000013 0.000002 32526.dat
1 1 170.000700 -550.000200 -10.001720 0.000001 0.000001 1.000013 1.000000 -0.000001 -0.000001 0.000001 1.000013 -0.000002 32526.dat
1 71 250.001400 -550.000300 -20.001530 0.000000 0.000000 -1.000013 0.000000 1.000000 0.000000 1.000013 0.000000 0.000000 3673.dat
1 71 -30.003840 -550.000300 -20.001680 0.000000 0.000000 -1.000013 0.000000 1.000000 0.000000 1.000013 0.000000 0.000000 3673.dat
0 STEP
1 1 329.999700 -568.000200 20.000080 0.000001 0.000000 1.000011 0.000000 1.000000 0.000000 -1.000011 0.000000 0.000000 32001.dat
1 1 290.001300 -568.000200 19.998730 0.000001 0.000000 1.000013 0.000000 1.000000 0.000000 -1.000013 0.000000 0.000000 32001.dat
1 1 370.003000 -568.000200 19.999100 0.000001 0.000000 1.000013 0.000000 1.000000 0.000000 -1.000013 0.000000 0.000000 32001.dat
1 1 329.999600 -592.000400 -30.000580 1.000013 0.000000 0.000000 0.000000 1.000000 0.000000 0.000000 0.000000 1.000013 3894.dat
0 STEP
1 1 330.002000 -592.000400 69.999780 1.000013 0.000000 0.000000 0.000000 1.000000 0.000000 0.000000 0.000000 1.000013 3894.dat
1 1 380.003800 -592.000400 19.998980 0.000001 0.000000 1.000013 0.000000 1.000000 0.000000 -1.000013 0.000000 0.000000 3701.dat
1 1 280.001700 -592.000400 19.998730 0.000001 0.000000 1.000013 0.000000 1.000000 0.000000 -1.000013 0.000000 0.000000 3701.dat
0 STEP
1 1 -110.003800 -592.000400 -30.001920 1.000013 0.000000 0.000000 0.000000 1.000000 0.000000 0.000000 0.000000 1.000013 3894.dat
1 1 -70.002750 -568.000200 19.998690 0.000001 0.000000 1.000013 0.000000 1.000000 0.000000 -1.000013 0.000000 0.000000 32001.dat
1 1 -60.002740 -592.000400 19.998690 0.000001 0.000000 1.000013 0.000000 1.000000 0.000000 -1.000013 0.000000 0.000000 3701.dat
1 1 -110.000400 -568.000300 19.995320 0.000001 0.000000 1.000020 0.000000 1.000000 0.000000 -1.000020 0.000000 0.000000 32001.dat
0 STEP
1 1 -150.003900 -568.000200 19.998680 0.000001 0.000000 1.000013 0.000000 1.000000 0.000000 -1.000013 0.000000 0.000000 32001.dat
1 1 -160.004100 -592.000400 19.998680 0.000001 0.000000 1.000013 0.000000 1.000000 0.000000 -1.000013 0.000000 0.000000 3701.dat
1 1 -110.003800 -592.000400 69.999660 1.000013 0.000000 0.000000 0.000000 1.000000 0.000000 0.000000 0.000000 1.000013 3894.dat
0 STEP
0 STEP
0 NOFILE
0 FILE SubModel Group 3
0 SubModel Group 3
0 Name:  SubModel Group 3
0 Author:  
0 CustomBrick
0 NumOfBricks:  9
1 1 0.000130 -24.000010 0.000160 1.000000 0.000000 0.000000 0.000000 1.000000 0.000000 0.000000 0.000000 1.000000 3895.dat
1 0 100.000000 -14.000000 10.000170 0.000000 0.000000 -1.000000 0.000000 1.000000 0.000000 1.000000 0.000000 0.000000 2780.dat
1 0 -99.999880 -14.000000 10.000150 0.000000 0.000000 -1.000000 0.000000 1.000000 0.000000 1.000000 0.000000 0.000000 2780.dat
0 STEP
1 1 -0.000050 -24.000020 -20.000070 1.000000 0.000000 0.000000 0.000000 1.000000 0.000000 0.000000 0.000000 1.000000 3701.dat
1 1 -0.000050 -14.000020 -0.000080 0.000000 0.000000 1.000000 0.000000 1.000000 0.000000 -1.000000 0.000000 0.000000 6558.dat
0 STEP
1 1 -0.000050 -32.000030 -10.000090 -1.000000 0.000000 0.000000 0.000000 1.000000 0.000000 0.000000 0.000000 -1.000000 3709b.dat
1 1 -0.000050 -40.000030 -0.000080 1.000000 0.000000 0.000000 0.000000 1.000000 0.000000 0.000000 0.000000 1.000000 3710.dat
0 STEP
1 1 -0.000050 -64.000040 -0.000080 1.000000 0.000000 0.000000 0.000000 1.000000 0.000000 0.000000 0.000000 1.000000 3700.dat
1 0 -0.000050 -54.000040 9.999920 0.000000 0.000000 -1.000000 0.000000 1.000000 0.000000 1.000000 0.000000 0.000000 2780.dat
0 STEP
0 NOFILE
0 FILE SubModel Group 2
0 SubModel Group 2
0 Name:  SubModel Group 2
0 Author:  
0 CustomBrick
0 NumOfBricks:  9
1 19 0.001130 -20.000060 89.933610 0.000001 -1.000000 0.000001 -1.000000 -0.000001 0.000001 -0.000001 -0.000001 -1.000000 3749.dat
1 0 0.004120 -50.000080 89.935260 -1.000000 0.000000 0.000000 0.000000 -1.000000 0.000000 0.000000 0.000000 1.000000 32014.dat
0 STEP
1 0 0.004180 -50.000080 39.935220 0.000000 0.000000 1.000000 0.000000 1.000000 0.000000 -1.000000 0.000000 0.000000 3705.dat
1 4 -0.002110 -50.000120 -5.535730 0.000000 1.000000 0.000000 -1.000000 0.000000 0.000000 0.000000 0.000000 1.000000 32034.dat
1 71 -0.002140 -50.000120 -50.065570 0.000000 -1.000000 0.000000 0.000000 0.000000 1.000000 -1.000000 0.000000 0.000000 4519.dat
0 STEP
1 72 -0.002110 -26.780110 -5.535730 1.000000 0.000000 0.000000 0.000000 0.000000 1.000000 0.000000 -1.000000 0.000000 3648b.dat
1 19 -0.002110 -40.000120 -5.535730 0.000001 0.000001 1.000000 1.000000 0.000001 -0.000001 -0.000001 1.000000 -0.000001 3749.dat
0 STEP
1 0 -0.002140 -50.000120 -90.065540 1.000000 0.000000 0.000000 0.000000 -1.000000 0.000000 0.000000 0.000000 -1.000000 32014.dat
1 19 0.001280 -20.000140 -90.065810 0.000001 -1.000007 0.000001 -1.000006 -0.000001 0.000001 -0.000001 -0.000001 -1.000001 3749.dat
0 STEP
0 NOFILE
0 FILE SubModel Group 1
0 SubModel Group 1
0 Name:  SubModel Group 1
0 Author:  
0 CustomBrick
0 NumOfBricks:  9
1 19 0.000090 -20.000140 91.554590 0.000001 -1.000000 0.000001 -1.000000 -0.000001 0.000001 -0.000001 -0.000001 -1.000000 3749.dat
1 71 0.000080 -50.000140 51.554560 0.000000 -1.000000 0.000000 0.000000 0.000000 1.000000 -1.000000 0.000000 0.000000 4519.dat
1 0 0.000090 -50.000140 91.554590 -1.000000 0.000000 0.000000 0.000000 -1.000000 0.000000 0.000000 0.000000 1.000000 32014.dat
0 STEP
1 0 -0.000030 -50.000100 -38.443740 0.000000 0.000000 1.000000 0.000000 1.000000 0.000000 -1.000000 0.000000 0.000000 3705.dat
1 4 -0.000020 -50.000100 11.556260 0.000000 1.000000 0.000000 1.000000 0.000000 0.000000 0.000000 0.000000 -1.000000 32034.dat
0 STEP
1 72 -0.000020 -30.000100 11.556260 1.000000 0.000000 0.000000 0.000000 0.000000 1.000000 0.000000 -1.000000 0.000000 3648b.dat
1 19 -0.000020 -40.000100 11.556260 0.000001 0.000001 1.000000 1.000000 0.000001 -0.000001 -0.000001 1.000000 -0.000001 3749.dat
0 STEP
1 19 -0.000120 -20.000060 -88.445060 0.000001 -1.000000 0.000001 -1.000002 -0.000001 0.000001 -0.000001 -0.000001 -1.000000 3749.dat
1 0 -0.000030 -50.000100 -88.443720 -1.000000 0.000000 0.000000 0.000000 0.000000 -1.000000 0.000000 -1.000000 0.000000 32014.dat
0 STEP
0 NOFILE
