0 FILE 摇摆稻草人(含皮筋电机.io
0 Untitled Model
0 Name:  摇摆稻草人(含皮筋电机
0 Author:  
0 CustomBrick
0 NumOfBricks:  53
1 1 80.000220 -48.000100 10.000790 -1.000008 0.000000 0.000000 0.000000 1.000000 0.000000 0.000000 0.000000 -1.000012 3702.dat
1 1 79.999970 -38.000000 -9.999619 0.000000 -1.000012 0.000000 0.000000 0.000000 1.000000 -1.000011 0.000000 0.000000 6558.dat
1 15 79.999790 -178.000000 -9.999750 -1.000012 0.000001 -0.000001 0.000001 0.000001 -1.000000 -0.000001 -1.000011 -0.000001 64871.dat
0 STEP
1 1 79.999920 -48.000000 -29.999930 -1.000012 0.000000 0.000000 0.000000 1.000000 0.000000 0.000000 0.000000 -1.000012 3702.dat
0 STEP
1 1 10.000030 -24.000000 -19.999990 0.000000 0.000000 1.000000 0.000000 1.000000 0.000000 -1.000000 0.000000 0.000000 3703.dat
1 1 150.000800 -24.000080 -19.999220 0.000000 0.000000 1.000000 0.000000 1.000000 0.000000 -1.000000 0.000000 0.000000 3703.dat
0 STEP
1 1 79.999900 -64.000000 10.000760 -1.000012 0.000000 0.000000 0.000000 1.000000 0.000000 0.000000 0.000000 -1.000011 3710.dat
1 1 79.999900 -56.000020 10.000790 -1.000012 0.000000 0.000000 0.000000 1.000000 0.000000 0.000000 0.000000 -1.000012 3710.dat
1 1 80.005840 -55.999970 -30.001080 1.000000 0.000000 0.000000 0.000000 1.000000 0.000000 0.000000 0.000000 1.000000 3710.dat
1 1 79.999920 -63.999970 -29.999930 -1.000012 0.000000 0.000000 0.000000 1.000000 0.000000 0.000000 0.000000 -1.000012 3710.dat
0 STEP
1 1 79.999900 -88.000030 10.000760 -1.000012 0.000000 0.000000 0.000000 1.000000 0.000000 0.000000 0.000000 -1.000011 3702.dat
1 1 79.999910 -77.999980 -9.999680 0.000000 -1.000012 0.000000 0.000000 0.000000 1.000000 -1.000011 0.000000 0.000000 6558.dat
0 STEP
1 1 79.999920 -87.999980 -29.999960 1.000012 0.000000 0.000000 0.000000 1.000000 0.000000 0.000000 0.000000 1.000012 3702.dat
0 STEP
1 71 79.999720 -138.000000 -10.529460 0.000000 1.000000 0.000000 0.000000 0.000000 1.000000 1.000000 0.000000 0.000000 4519.dat
1 14 79.999780 -138.000000 4.470550 -1.000000 0.000000 0.000000 0.000000 -1.000000 0.000000 0.000000 0.000000 1.000000 32123a.dat
1 0 79.999790 -158.000000 -19.999610 0.000000 0.000000 -1.000000 0.000000 1.000000 0.000000 1.000000 0.000000 0.000000 2780.dat
1 0 79.999850 -118.000000 -19.999580 0.000000 0.000000 -1.000000 0.000000 1.000000 0.000000 1.000000 0.000000 0.000000 2780.dat
1 71 79.999720 -138.000000 -19.999580 -1.000000 0.000000 0.000000 0.000000 1.000000 0.000000 0.000000 0.000000 -1.000000 58120.dat
0 STEP
1 0 79.999660 -298.000000 0.000030 0.000000 0.000000 -1.000000 0.000000 1.000000 0.000000 1.000000 0.000000 0.000000 2780.dat
1 0 79.999660 -318.000000 0.000000 0.000000 0.000000 -1.000000 0.000000 1.000000 0.000000 1.000000 0.000000 0.000000 2780.dat
0 STEP
1 15 79.969000 -237.500200 5.998000 -1.000000 0.000000 0.000000 0.000000 1.000000 0.000000 0.000000 0.000000 -1.000000 xpj0114.dat.dat
1 71 79.999720 -238.000000 -7.049400 0.000000 0.500000 -0.866026 0.000000 0.866026 0.500000 1.000000 0.000000 0.000000 4519.dat
1 71 79.999780 -238.000000 5.980600 -0.500000 0.866026 0.000000 -0.866026 -0.500000 0.000000 0.000000 0.000000 1.000000 4185.dat
0 STEP
1 71 94.478060 -209.799800 -40.000000 0.000000 0.000000 -1.000000 0.000000 1.000000 0.000000 1.000000 0.000000 0.000000 3673.dat
1 71 79.999740 -238.000000 -28.519390 -0.500000 -0.866026 0.000000 -0.866026 0.500000 0.000000 -0.000001 0.000000 -1.000000 3649.dat
0 STEP
1 15 79.999720 -357.999900 9.999969 -1.000000 0.000001 -0.000001 -0.000001 -0.000001 1.000000 0.000001 1.000000 0.000001 32524.dat
1 0 79.999780 -418.000000 -0.000080 0.000000 0.000000 -1.000000 0.000000 1.000000 0.000000 1.000000 0.000000 0.000000 2780.dat
1 0 79.999720 -378.000000 -0.000050 0.000000 0.000000 -1.000000 0.000000 1.000000 0.000000 1.000000 0.000000 0.000000 2780.dat
0 STEP
1 71 79.999720 -458.000000 -20.000050 0.000000 0.000000 -1.000000 0.000000 1.000000 0.000000 1.000000 0.000000 0.000000 3673.dat
1 15 79.999790 -418.000000 -10.000080 1.000000 -0.000001 0.000001 -0.000001 -0.000001 1.000000 -0.000001 -1.000000 -0.000001 32316.dat
0 STEP
1 71 122.261500 -367.369100 -40.000090 0.000000 0.000000 -1.000000 0.000000 1.000000 0.000000 1.000000 0.000000 0.000000 3673.dat
1 15 79.999740 -457.999900 -30.000060 0.906308 -0.000001 -0.422618 -0.422617 0.000001 -0.906308 0.000002 1.000000 0.000000 64290.dat
0 STEP
1 15 108.369900 -288.584500 -50.000060 -0.984808 0.000001 0.173647 -0.173647 0.000001 -0.984808 -0.000001 -1.000000 -0.000001 40490.dat
0 STEP
1 0 63.095070 -494.252300 -40.000010 0.000000 0.000000 -1.000000 0.000000 1.000000 0.000000 1.000000 0.000000 0.000000 2780.dat
1 0 71.547400 -476.126100 -40.000040 0.000000 0.000000 -1.000000 0.000000 1.000000 0.000000 1.000000 0.000000 0.000000 2780.dat
1 19 37.737950 -548.630800 -40.000020 0.000001 -1.000000 0.000001 0.000001 0.000001 1.000000 -1.000000 -0.000001 0.000001 3749.dat
0 STEP
1 72 63.095070 -494.252200 -45.000020 -0.906308 0.000000 0.422619 0.422619 0.000000 0.906308 0.000000 1.000000 0.000000 99773.dat
0 STEP
1 19 99.347400 -511.157000 -50.000000 0.000000 0.906308 0.422619 0.000001 -0.422619 0.906308 1.000000 0.000000 -0.000001 3749.dat
1 19 26.842750 -477.347500 -49.999990 0.000000 0.906308 0.422619 0.000001 -0.422619 0.906308 1.000000 0.000000 -0.000001 3749.dat
0 STEP
1 15 63.095140 -494.252200 -59.999980 -0.422619 0.000000 0.906308 -0.906307 0.000000 -0.422619 0.000000 -1.000000 0.000000 64871.dat
0 STEP
1 0 153.725900 -536.514100 -69.999980 0.000000 0.422619 -0.906308 0.000000 0.906307 0.422619 1.000000 0.000000 0.000000 2780.dat
1 0 -27.535670 -451.990300 -69.999980 0.000000 0.422619 -0.906308 0.000000 0.906307 0.422619 1.000000 0.000000 0.000000 2780.dat
0 STEP
1 4 153.725900 -536.514100 -79.999980 0.000000 0.000000 -1.000000 0.000000 -1.000000 0.000000 -1.000000 0.000000 0.000000 32034.dat
1 4 -27.535660 -451.990300 -79.999980 0.000000 0.000000 -1.000000 0.000000 -1.000000 0.000000 -1.000000 0.000000 0.000000 32034.dat
0 STEP
1 71 37.738010 -548.630800 -50.000020 0.000000 -1.000000 0.000000 1.000000 0.000000 0.000000 0.000000 0.000000 1.000000 3649.dat
0 STEP
1 4 47.738020 -538.630900 -70.000000 -0.000001 1.000000 -0.000001 0.000001 0.000001 1.000000 1.000000 0.000001 -0.000001 32054.dat
0 STEP
1 19 67.738080 -558.630900 -60.000000 -0.000001 1.000000 -0.000001 -0.000001 -0.000001 -1.000000 -1.000000 -0.000001 0.000001 3749.dat
1 19 7.738010 -538.630900 -60.000020 -0.000001 1.000000 -0.000001 -0.000001 -0.000001 -1.000000 -1.000000 -0.000001 0.000001 3749.dat
0 STEP
1 0 67.738080 -558.630900 -70.000000 0.000000 -1.000000 0.000000 1.000000 0.000000 0.000000 0.000000 0.000000 1.000000 32270.dat
1 0 7.738010 -538.630900 -70.000020 0.000000 -1.000000 0.000000 1.000000 0.000000 0.000000 0.000000 0.000000 1.000000 32270.dat
0 STEP
1 16 10.000000 0.000000 -271.000000 1.000000 0.000000 0.000000 0.000000 1.000000 0.000000 0.000000 0.000000 1.000000 submodel group 9 copy copy copy
0 STEP
0 STEP
0 NOFILE
0 FILE SubModel Group 9 Copy Copy Copy
0 SubModel Group 9 Copy Copy Copy
0 Name:  SubModel Group 9 Copy Copy Copy
0 Author:  
0 CustomBrick
0 NumOfBricks:  3
1 72 10.000000 -1.128810 -10.000000 1.000000 0.000000 0.000000 0.000000 0.000000 -1.000000 0.000000 1.000000 0.000000 dch003.dat
1 71 -27.466620 -79.717990 29.427020 1.000000 0.000000 0.000000 0.000000 0.000000 -1.000000 0.000000 1.000000 0.000000 dch004.dat
1 25 7.837010 13.484720 -9.965000 1.000000 0.000000 0.000000 0.000000 0.000000 -1.000000 0.000000 1.000000 0.000000 dch005.dat
0 NOFILE
