0 FILE 平衡轮Copy.io
0 Untitled Model
0 Name:  平衡轮Copy
0 Author:  
0 CustomBrick
0 NumOfBricks:  83
1 71 -10.000000 -9.999570 -70.000020 0.000000 0.000000 1.000000 0.000000 1.000000 0.000000 -1.000000 0.000000 0.000000 64179.dat
0 STEP
1 0 -70.000290 -19.999570 -30.000160 0.000000 0.000000 -1.000001 1.000000 0.000000 0.000000 0.000000 -1.000001 0.000000 2780.dat
1 0 -90.000350 -30.800570 -40.000140 0.000000 0.000000 -1.000001 0.000000 1.000000 0.000000 1.000001 0.000000 0.000000 2780.dat
1 0 -90.000350 -70.800560 -41.000140 0.000000 0.000000 -1.000001 0.000000 1.000000 0.000000 1.000001 0.000000 0.000000 2780.dat
1 0 -30.000300 -19.999580 -30.000160 0.000000 0.000000 -1.000001 1.000000 0.000000 0.000000 0.000000 -1.000001 0.000000 2780.dat
1 15 -90.000480 -170.800500 -51.000140 1.000001 -0.000001 0.000001 -0.000001 -0.000001 1.000000 -0.000001 -1.000001 -0.000001 64871.dat
1 14 -84.000350 -79.653560 -39.000140 1.000001 0.000000 0.000000 0.000000 0.000000 1.000000 0.000000 -1.000001 0.000000 12344.dat
0 STEP
1 0 -79.999980 -9.999570 -70.000020 -1.000000 0.000000 0.000000 0.000000 0.999997 0.000000 0.000000 0.000000 -1.000000 2780.dat
1 1 -89.999980 -9.999570 -70.000020 0.000000 0.000000 -1.000000 0.999997 0.000000 0.000000 0.000000 -1.000000 0.000000 32184.dat
0 STEP
1 0 -91.000350 -29.800580 -100.000100 0.000000 0.000000 -1.000001 0.000000 1.000000 0.000000 1.000001 0.000000 0.000000 2780.dat
1 0 -70.000290 -19.999570 -110.000100 0.000000 0.000000 -1.000001 1.000000 0.000000 0.000000 0.000000 -1.000001 0.000000 2780.dat
1 0 -91.000350 -69.800570 -100.000100 0.000000 0.000000 -1.000001 0.000000 1.000000 0.000000 1.000001 0.000000 0.000000 2780.dat
1 0 -30.000300 -19.999570 -110.000100 0.000000 0.000000 -1.000001 1.000000 0.000000 0.000000 0.000000 -1.000001 0.000000 2780.dat
1 15 -91.000290 -169.800600 -90.000240 -1.000001 0.000001 -0.000001 -0.000001 -0.000001 1.000000 0.000001 1.000001 0.000001 64871.dat
1 14 -85.000350 -78.653490 -119.000500 1.000001 0.000000 0.000000 0.000000 0.000000 0.999997 0.000000 -1.000001 0.000000 12344.dat
0 STEP
1 0 -91.000170 -289.800600 -100.000400 0.000000 0.000000 -1.000001 0.000000 1.000000 0.000000 1.000001 0.000000 0.000000 2780.dat
0 STEP
1 15 69.006900 -311.809800 -66.000000 0.999507 0.031408 0.000000 -0.031408 0.999507 0.000000 0.000000 0.000000 1.000000 xpj0119.dat.dat
1 0 -90.000670 -310.800500 -70.250140 0.000000 0.000000 1.000001 0.000000 1.000000 0.000000 -1.000001 0.000000 0.000000 3705.dat
1 71 -90.000720 -310.800500 -65.560080 0.000000 1.000001 0.000000 1.000000 0.000000 0.000000 0.000000 0.000000 -1.000001 4185.dat
1 14 -90.000670 -310.800500 -35.160070 0.000000 1.000001 0.000000 1.000000 0.000000 0.000000 0.000000 0.000000 -1.000001 32123a.dat
1 14 -90.000720 -310.800500 -75.250140 0.000000 1.000001 0.000000 1.000000 0.000000 0.000000 0.000000 0.000000 -1.000001 32123a.dat
1 14 -90.000670 -310.800600 -104.710100 0.000000 1.000001 0.000000 1.000000 0.000000 0.000000 0.000000 0.000000 -1.000001 32123a.dat
0 STEP
1 0 -50.000050 -9.999570 -120.000000 0.000000 0.000000 -1.000000 0.000000 0.999997 0.000000 1.000000 0.000000 0.000000 2780.dat
1 0 30.000000 -9.999570 -120.000000 0.000000 0.000000 -1.000000 0.000000 0.999997 0.000000 1.000000 0.000000 0.000000 2780.dat
1 4 -50.000110 -9.999570 -130.000000 0.000000 0.000000 -1.000000 0.000000 -0.999997 0.000000 -1.000000 0.000000 0.000000 32034.dat
1 4 29.999940 -9.999570 -130.000200 0.000000 0.000000 -1.000000 0.000000 -0.999997 0.000000 -1.000000 0.000000 0.000000 32034.dat
0 STEP
1 0 60.000000 -9.999570 -70.000020 -1.000000 0.000000 0.000000 0.000000 0.999997 0.000000 0.000000 0.000000 -1.000000 2780.dat
1 1 70.000000 -9.999570 -70.000020 0.000000 0.000000 1.000000 -0.999997 0.000000 0.000000 0.000000 -1.000000 0.000000 32184.dat
0 STEP
1 0 49.999900 -19.999570 -110.000100 0.000000 0.000000 -1.000001 1.000000 0.000000 0.000000 0.000000 -1.000001 0.000000 2780.dat
1 0 9.999940 -19.999570 -110.000100 0.000000 0.000000 -1.000001 1.000000 0.000000 0.000000 0.000000 -1.000001 0.000000 2780.dat
1 14 64.205740 -79.252220 -101.540200 -1.000001 0.000000 0.000000 0.000000 0.000000 1.000000 0.000000 1.000001 0.000000 12344.dat
0 STEP
1 15 -9.999940 -289.800500 -110.000500 0.000001 0.000001 -1.000001 -1.000000 0.000001 -0.000001 0.000001 1.000001 0.000001 40490.dat
0 STEP
1 0 70.999960 -29.800580 -99.000130 0.000000 0.000000 -1.000001 0.000000 1.000000 0.000000 1.000001 0.000000 0.000000 2780.dat
1 0 70.999960 -69.800570 -100.000100 0.000000 0.000000 -1.000001 0.000000 1.000000 0.000000 1.000001 0.000000 0.000000 2780.dat
1 0 70.000240 -289.800600 -100.000400 0.000000 0.000000 -1.000001 0.000000 1.000000 0.000000 1.000001 0.000000 0.000000 2780.dat
1 15 71.000060 -170.800500 -89.000130 -1.000001 0.000001 -0.000001 -0.000001 -0.000001 1.000000 0.000001 1.000001 0.000001 64871.dat
0 STEP
1 71 69.999690 -171.800500 -70.050670 1.000001 0.000000 0.000001 0.000000 1.000000 0.000000 -0.000001 0.000000 1.000001 3713.dat
1 0 71.000080 -190.800700 -99.000240 0.000000 0.000000 -1.000001 0.000000 1.000000 0.000000 1.000001 0.000000 0.000000 2780.dat
1 0 71.000060 -150.800600 -99.000240 0.000000 0.000000 -1.000001 0.000000 1.000000 0.000000 1.000001 0.000000 0.000000 2780.dat
1 71 69.999690 -171.800500 -71.810700 0.000000 0.000000 1.000001 0.000000 1.000000 0.000000 -1.000001 0.000000 0.000000 32073.dat
1 71 71.000080 -170.800600 -99.000240 -1.000001 0.000000 0.000000 0.000000 1.000000 0.000000 0.000000 0.000000 -1.000001 58120.dat
0 STEP
1 14 70.999480 -311.800400 -74.500880 0.722365 -0.691513 0.000000 0.691512 0.722364 0.000000 0.000000 0.000000 1.000001 32123a.dat
1 0 70.999530 -311.800400 -58.780780 0.000000 -0.691513 0.722365 0.000000 0.722364 0.691512 -1.000001 0.000000 0.000000 3705.dat
1 71 70.277060 -312.492000 -65.190820 0.722365 -0.691513 0.000000 0.691512 0.722364 0.000000 0.000000 0.000000 1.000001 4185.dat
0 STEP
1 15 69.999660 -171.800500 -51.000630 -1.000001 0.000001 -0.000001 0.000001 0.000001 -1.000000 -0.000001 -1.000001 -0.000001 64871.dat
0 STEP
1 0 69.999960 -31.800570 -41.000140 0.000000 0.000000 -1.000001 0.000000 1.000000 0.000000 1.000001 0.000000 0.000000 2780.dat
1 0 69.999960 -71.800560 -41.000140 0.000000 0.000000 -1.000001 0.000000 1.000000 0.000000 1.000001 0.000000 0.000000 2780.dat
1 0 49.999900 -19.999570 -30.000160 0.000000 0.000000 -1.000001 1.000000 0.000000 0.000000 0.000000 -1.000001 0.000000 2780.dat
1 0 9.999940 -19.999570 -30.000160 0.000000 0.000000 -1.000001 1.000000 0.000000 0.000000 0.000000 -1.000001 0.000000 2780.dat
1 14 63.999940 -80.653580 -22.000160 -1.000001 0.000000 0.000000 0.000000 0.000000 1.000000 0.000000 1.000001 0.000000 12344.dat
0 STEP
1 0 -49.999990 -9.999570 -20.000040 0.000000 0.000000 -1.000000 0.000000 0.999997 0.000000 1.000000 0.000000 0.000000 2780.dat
1 0 30.000000 -9.999570 -20.000040 0.000000 0.000000 -1.000000 0.000000 0.999997 0.000000 1.000000 0.000000 0.000000 2780.dat
1 4 -49.999990 -9.999570 -10.000040 0.000000 0.000000 -1.000000 0.000000 -0.999997 0.000000 -1.000000 0.000000 0.000000 32034.dat
1 4 30.000000 -9.999570 -10.000040 0.000000 0.000000 -1.000000 0.000000 -0.999997 0.000000 -1.000000 0.000000 0.000000 32034.dat
0 STEP
1 19 69.999640 -231.800600 -42.000760 -0.000001 -0.302408 -0.953180 0.000001 0.953179 -0.302408 1.000001 -0.000001 0.000000 3749.dat
0 STEP
1 72 69.999690 -171.800500 -32.830720 0.000000 -1.000001 0.000000 1.000000 0.000000 0.000000 0.000000 0.000000 1.000001 3647.dat
1 71 69.999600 -231.800600 -30.510660 1.000001 0.000000 0.000000 0.000000 -1.000000 0.000000 0.000000 0.000000 -1.000001 3649.dat
1 72 70.999480 -311.800400 -32.790930 0.722365 0.691513 0.000000 0.691512 -0.722364 0.000000 0.000000 0.000000 -1.000001 3648b.dat
0 STEP
1 16 -10.091720 -72.860900 -68.584260 1.000000 0.000000 0.000000 0.000000 1.000000 0.000000 0.000000 0.000000 1.000000 submodel group 1
0 STEP
1 16 -200.999900 -47.379120 -51.999900 0.000000 1.000000 0.000000 -0.999997 0.000000 0.000000 0.000000 0.000000 1.000000 submodel group 9 copy copy copy
0 STEP
0 STEP
0 NOFILE
0 FILE SubModel Group 1
0 SubModel Group 1
0 Name:  SubModel Group 1
0 Author:  
0 CustomBrick
0 NumOfBricks:  22
1 71 0.087940 -152.759700 -120.106400 0.000000 1.000002 0.000000 -0.000001 0.000000 0.999999 1.000000 0.000000 0.000001 59443.dat
1 4 0.090840 -243.940000 -120.106400 0.000000 -1.000001 -0.000001 0.000000 -0.000001 0.999999 -1.000000 0.000000 0.000000 32039.dat
1 71 0.090840 -203.939500 -120.106400 0.000000 1.000002 0.000000 -0.999999 0.000000 0.000000 0.000000 0.000000 1.000000 32073.dat
1 71 0.090940 -74.779840 -120.106200 0.000000 1.000002 0.000000 -0.999999 0.000000 0.000000 0.000000 0.000000 1.000000 44294.dat
0 STEP
1 0 0.091640 -283.939700 -0.466370 0.000000 0.000000 1.000002 0.000000 1.000000 0.000000 -1.000000 0.000000 0.000000 3708.dat
1 14 0.091450 -283.939700 -84.916430 1.000002 0.000000 0.000000 0.000000 -1.000000 0.000000 0.000000 0.000000 -1.000000 32123a.dat
1 71 0.091570 -283.939700 2.533620 1.000002 0.000000 0.000000 0.000000 -1.000000 0.000000 0.000000 0.000000 -1.000000 4185.dat
1 4 0.091370 -263.939900 -110.106400 0.000000 0.000000 1.000002 0.000000 1.000000 0.000000 -1.000000 0.000000 0.000000 32062.dat
1 14 0.091450 -283.939700 -115.466300 1.000002 0.000000 0.000000 0.000000 -1.000000 0.000000 0.000000 0.000000 -1.000000 32123a.dat
1 71 0.091050 -263.939900 -100.106400 -1.000002 -0.000001 0.000001 -0.000001 0.000001 -0.999999 0.000001 -1.000000 -0.000001 60483.dat
0 STEP
1 14 0.091640 -283.939700 84.873580 1.000002 0.000000 0.000000 0.000000 -1.000000 0.000000 0.000000 0.000000 -1.000000 32123a.dat
1 14 0.091640 -283.939700 114.283600 1.000002 0.000000 0.000000 0.000000 -1.000000 0.000000 0.000000 0.000000 -1.000000 32123a.dat
1 4 0.091450 -263.939900 109.503600 0.000000 0.000000 1.000002 0.000000 1.000000 0.000000 -1.000000 0.000000 0.000000 32062.dat
1 71 0.091450 -263.939900 99.763580 -1.000002 -0.000001 0.000001 -0.000001 0.000001 -1.000000 0.000001 -1.000000 -0.000001 60483.dat
0 STEP
1 71 0.088670 -153.939700 120.123600 0.000000 1.000002 0.000000 -0.000001 0.000000 0.999999 1.000000 0.000000 0.000001 59443.dat
1 71 0.091450 -81.919880 120.123700 0.000000 1.000002 0.000000 -0.999999 0.000000 0.000000 0.000000 0.000000 1.000000 44294.dat
1 4 0.091450 -243.940000 120.123600 0.000000 -1.000002 -0.000001 0.000000 -0.000001 1.000000 -1.000000 0.000000 0.000000 32039.dat
1 71 0.091450 -203.939500 120.123600 0.000000 1.000002 0.000000 -0.999999 0.000000 0.000000 0.000000 0.000000 1.000000 32073.dat
0 STEP
1 0 -0.908630 -32.979880 120.123800 0.000000 -1.000000 0.000000 0.000000 0.000000 -0.999997 1.000000 0.000000 0.000000 44309.dat
1 71 -0.908430 -32.979880 120.123700 -1.000002 0.000000 0.000000 0.000000 0.000000 -0.999999 0.000000 -1.000000 0.000000 56145.dat
1 0 0.087550 -26.999780 -120.106200 0.000000 -0.999995 0.000000 0.000000 0.000000 -0.999992 1.000000 0.000000 0.000000 44309.dat
1 71 0.090940 -26.999860 -120.106200 -1.000003 0.000000 0.000000 0.000000 0.000000 -1.000000 0.000000 -1.000000 0.000000 56145.dat
0 STEP
0 NOFILE
0 FILE SubModel Group 9 Copy Copy Copy
0 SubModel Group 9 Copy Copy Copy
0 Name:  SubModel Group 9 Copy Copy Copy
0 Author:  
0 CustomBrick
0 NumOfBricks:  3
1 72 10.000000 -1.128810 -10.000000 1.000000 0.000000 0.000000 0.000000 0.000000 -1.000000 0.000000 1.000000 0.000000 dch003.dat
1 71 -27.466620 -79.717990 29.427020 1.000000 0.000000 0.000000 0.000000 0.000000 -1.000000 0.000000 1.000000 0.000000 dch004.dat
1 25 7.837010 13.484720 -9.965000 1.000000 0.000000 0.000000 0.000000 0.000000 -1.000000 0.000000 1.000000 0.000000 dch005.dat
0 NOFILE
