0 FILE 螃蟹.io
0 Untitled Model
0 Name:  螃蟹
0 Author:  
0 CustomBrick
0 NumOfBricks:  105
1 16 71.000000 -116.232800 -285.000000 0.000000 0.000000 -1.000000 0.000000 1.000000 0.000000 1.000000 0.000000 0.000000 submodel group 9 copy copy copy
0 STEP
1 15 81.270060 -146.249400 -321.578900 0.000000 -1.000004 -0.000001 -0.000001 -0.000001 1.000000 -1.000004 0.000001 -0.000002 32524.dat
1 1 101.270100 -206.249400 -321.578900 -1.000000 0.000000 0.000000 0.000000 1.000000 0.000000 0.000000 0.000000 -1.000000 6558.dat
1 0 80.000290 -166.249400 -321.578600 1.000000 0.000000 0.000000 0.000000 1.000000 0.000000 0.000000 -0.000001 1.000000 3707.dat
0 STEP
1 71 125.449500 -166.249400 -321.578900 -0.000001 0.000000 1.000003 0.000000 1.000000 0.000000 -1.000003 -0.000001 -0.000001 3713.dat
1 71 36.698910 -166.249400 -321.578900 -0.000001 0.000000 1.000003 0.000000 1.000000 0.000000 -1.000003 -0.000001 -0.000001 3713.dat
0 STEP
1 15 80.789900 -146.249400 -121.578400 -0.000001 -1.000000 -0.000001 0.000001 0.000001 -1.000000 1.000000 -0.000001 0.000002 32524.dat
1 1 101.270000 -206.249400 -121.578300 -1.000000 0.000000 0.000000 0.000000 1.000000 0.000000 0.000000 0.000000 -1.000000 6558.dat
1 0 81.349900 -166.249400 -121.578300 -1.000000 0.000000 0.000000 0.000000 1.000000 0.000000 0.000000 -0.000001 -1.000000 3707.dat
0 STEP
1 71 41.319940 -166.249400 -121.578300 0.000001 0.000000 -1.000000 0.000000 1.000000 0.000000 1.000000 -0.000001 0.000001 3713.dat
1 71 121.849900 -166.249400 -121.578400 0.000001 0.000000 -1.000000 0.000000 1.000000 0.000000 1.000000 -0.000001 0.000001 3713.dat
0 STEP
1 16 22.377040 -22.923200 -219.837800 1.000000 0.000000 0.000000 0.000000 1.000000 0.000000 0.000000 0.000000 1.000000 submodel group 1
0 STEP
1 1 81.269940 -86.249370 -321.579100 1.000002 0.000000 0.000000 0.000000 0.000000 1.000002 0.000000 -1.000000 -0.000001 6558.dat
0 STEP
1 1 61.269890 -86.249370 -321.579100 0.000001 1.000002 -0.000001 1.000002 -0.000001 -0.000001 -0.000002 -0.000001 -1.000000 32526.dat
1 1 101.270900 -86.249640 -321.578900 0.000001 1.000000 -0.000001 1.000000 -0.000001 -0.000001 -0.000002 -0.000001 -1.000000 32526.dat
0 STEP
1 1 80.789900 -86.249390 -121.578600 -1.000001 0.000000 0.000000 0.000000 1.000001 0.000000 0.000000 -0.000001 -1.000000 6558.dat
0 STEP
1 1 60.790340 -86.249290 -121.579600 -0.000001 -1.000000 0.000001 1.000000 -0.000001 -0.000001 0.000000 0.000001 1.000000 32526.dat
1 1 100.789900 -86.249500 -121.578600 -0.000001 -1.000001 0.000001 1.000001 -0.000001 -0.000001 0.000000 0.000001 1.000000 32526.dat
0 STEP
1 72 170.690200 -86.249370 -281.578700 0.000000 0.000000 1.000000 0.238536 0.971134 0.000000 -0.971134 0.238535 0.000000 3648b.dat
1 72 171.120400 -86.249480 -161.578500 0.000000 0.000000 1.000000 0.238536 0.971134 0.000000 -0.971134 0.238535 0.000000 3648b.dat
1 16 141.914800 -36.249400 -225.117300 0.000000 0.000000 1.000000 0.000000 1.000000 0.000000 -1.000000 -0.000001 0.000000 submodel group 3
0 STEP
1 0 161.530300 -118.249400 -121.578800 -1.000000 0.000000 0.000000 0.000000 1.000000 0.000000 0.000000 -0.000001 -1.000000 2780.dat
1 0 161.530300 -118.249400 -321.578800 -1.000000 0.000000 0.000000 0.000000 1.000000 0.000000 0.000000 -0.000001 -1.000000 2780.dat
0 STEP
1 19 181.530300 -152.785300 -301.397900 -1.000000 -0.000001 0.000001 0.000001 -0.863398 0.504523 0.000000 0.504525 0.863398 3749.dat
1 1 171.530500 -152.785300 -301.397900 0.000001 1.000000 0.000001 0.504524 -0.000001 0.863398 0.863398 -0.000001 -0.504525 32271.dat
0 STEP
1 71 180.690200 -98.346080 -274.252700 -1.000000 0.000000 0.000000 0.000000 1.000000 0.000000 0.000000 -0.000001 -1.000000 3673.dat
1 15 190.690200 -116.182100 -283.301200 0.000001 1.000000 0.000000 0.452431 0.000000 -0.891800 -0.891800 0.000001 -0.452430 32316.dat
0 STEP
1 19 181.120200 -147.953900 -148.317700 -1.000000 0.000000 0.000001 0.000001 0.776084 0.630630 -0.000001 0.630629 -0.776084 3749.dat
1 1 171.530500 -147.975100 -148.344100 -0.000002 -1.000000 0.000000 0.669132 -0.000002 0.743143 -0.743143 0.000002 0.669132 32271.dat
0 STEP
1 15 191.120300 -111.701600 -165.222600 0.000000 -1.000000 -0.000003 0.422619 0.000002 -0.906308 0.906308 -0.000001 0.422620 32316.dat
1 71 181.120400 -93.575450 -173.675200 -1.000000 0.000000 0.000000 0.000000 1.000000 0.000000 0.000000 -0.000001 -1.000000 3673.dat
0 STEP
1 19 -0.000010 -166.249400 -201.578500 -1.000000 -0.000001 0.000001 0.000001 0.000001 1.000000 -0.000001 1.000000 -0.000002 3749.dat
1 19 -0.000010 -166.249400 -241.578600 -1.000000 -0.000001 0.000001 0.000001 0.000001 1.000000 -0.000001 1.000000 -0.000002 3749.dat
0 STEP
1 14 -5.000010 -166.249400 -241.578600 0.000000 0.000000 1.000000 1.000000 0.000000 0.000000 -0.000001 1.000000 0.000000 32123a.dat
1 14 -15.000010 -166.249400 -241.578600 0.000000 0.000000 1.000000 1.000000 0.000000 0.000000 -0.000001 1.000000 0.000000 32123a.dat
1 14 -5.000010 -166.249400 -201.578500 0.000000 0.000000 1.000000 1.000000 0.000000 0.000000 -0.000001 1.000000 0.000000 32123a.dat
1 14 -15.000010 -166.249400 -201.578500 0.000000 0.000000 1.000000 1.000000 0.000000 0.000000 -0.000001 1.000000 0.000000 32123a.dat
0 STEP
1 71 -19.519730 -93.575420 -173.675300 -1.000000 0.000000 0.000000 0.000000 1.000000 0.000000 0.000000 -0.000001 -1.000000 3673.dat
1 71 -20.010080 -98.346080 -274.252700 -1.000000 0.000000 0.000000 0.000000 1.000000 0.000000 0.000000 -0.000001 -1.000000 3673.dat
0 STEP
1 0 -0.000010 -142.249400 -101.578400 -1.000000 0.000000 0.000000 0.000000 1.000000 0.000000 0.000000 -0.000001 -1.000000 2780.dat
1 1 -10.000010 -88.078170 -17.522160 -0.000001 -1.000000 0.000000 0.840564 -0.000001 0.541712 -0.541714 0.000000 0.840563 32009.dat
0 STEP
1 1 -30.000020 -163.917900 -135.201000 1.000000 0.000000 0.000000 0.000000 1.000000 0.000000 0.000000 -0.000001 1.000000 6558.dat
1 15 -29.519730 -128.728100 -154.588900 0.000000 -1.000000 -0.000001 -0.477157 -0.000001 0.878817 -0.878817 0.000001 -0.477157 32316.dat
0 STEP
1 0 -0.000010 -142.249400 -341.578800 -1.000000 0.000000 0.000000 0.000000 1.000000 0.000000 0.000000 -0.000001 -1.000000 2780.dat
1 1 -10.000010 -75.077080 -415.659200 0.000001 1.000000 0.000000 0.740802 -0.000001 0.671723 0.671723 0.000000 -0.740802 32009.dat
0 STEP
1 1 -30.000080 -169.118300 -311.946800 1.000000 0.000000 0.000000 0.000000 1.000000 0.000000 0.000000 -0.000001 1.000000 6558.dat
1 15 -30.010020 -133.729300 -292.908200 -0.000001 -1.000000 0.000000 0.466387 -0.000001 0.884581 -0.884581 0.000001 0.466386 32316.dat
0 STEP
1 0 -40.000010 -174.752100 -152.012200 -1.000000 -0.000001 0.000000 -0.000001 0.840564 -0.541713 0.000000 -0.541714 -0.840564 3705.dat
1 0 -90.000030 -174.752100 -152.012200 0.000000 0.000000 -1.000000 0.541713 0.840564 0.000000 0.840564 -0.541714 0.000000 32014.dat
1 71 -50.000020 -175.389400 -151.584200 0.000000 -1.000000 0.000000 0.819154 0.000000 0.573574 -0.573575 0.000000 0.819154 60483.dat
0 STEP
1 1 -90.000030 -208.374700 -130.343700 -1.000000 0.000000 0.000001 0.000000 0.840564 -0.541713 -0.000001 -0.541714 -0.840564 32140.dat
1 72 -90.000030 -224.933800 -119.672000 0.000001 0.000000 -1.000000 0.541713 0.840564 0.000001 0.840564 -0.541714 0.000001 32250.dat
1 71 -90.000030 -208.374700 -130.343700 0.000000 0.000000 -1.000000 -0.840564 0.541713 0.000000 0.541714 0.840564 0.000000 4519.dat
0 STEP
1 72 -130.000000 -229.136600 -116.963300 0.000000 0.000000 1.000000 0.840564 0.541713 0.000000 -0.541714 0.840564 0.000000 32002.dat
1 4 -149.999900 -237.542200 -111.546200 0.000000 1.000000 0.000000 0.541713 0.000000 0.840564 0.840564 0.000000 -0.541714 42003.dat
1 72 -150.000000 -229.136600 -116.963300 0.000000 0.000000 1.000000 0.840564 0.541713 0.000000 -0.541714 0.840564 0.000000 32002.dat
0 STEP
1 0 -40.000070 -182.552700 -297.130700 1.000000 0.000001 0.000000 -0.000001 0.740802 -0.671723 0.000000 0.671723 0.740802 3705.dat
1 71 -50.000070 -183.186100 -297.730800 -0.000001 1.000000 0.000000 0.710805 0.000001 0.703389 0.703389 0.000001 -0.710805 60483.dat
1 0 -90.000030 -182.552700 -297.130700 0.000000 0.000000 -1.000000 -0.671723 0.740802 0.000000 0.740802 0.671723 -0.000001 32014.dat
0 STEP
1 1 -90.000000 -212.184800 -324.000000 -1.000000 0.000000 0.000002 -0.000001 -0.740802 -0.671723 0.000001 -0.671723 0.740802 32140.dat
1 72 -90.000030 -227.208200 -337.622200 0.000000 0.000000 -1.000000 0.671724 -0.740802 0.000000 -0.740802 -0.671724 -0.000001 32250.dat
1 71 -90.000030 -212.184700 -323.999600 0.000000 -1.000000 0.000000 0.740802 0.000000 -0.671723 0.671723 0.000000 0.740802 4519.dat
0 STEP
1 19 -170.000000 -230.912200 -340.980800 0.000000 1.000000 -0.000002 0.740802 0.000002 0.671723 0.671723 -0.000001 -0.740802 3749.dat
1 72 -150.000000 -230.912200 -340.980800 0.000000 0.000000 1.000000 0.740802 -0.671723 0.000000 0.671723 0.740802 0.000000 32002.dat
1 4 -170.000000 -238.320200 -347.698100 0.000000 1.000000 0.000000 -0.671723 0.000000 0.740802 0.740802 0.000000 0.671723 42003.dat
0 STEP
0 STEP
0 NOFILE
0 FILE SubModel Group 9 Copy Copy Copy
0 SubModel Group 9 Copy Copy Copy
0 Name:  SubModel Group 9 Copy Copy Copy
0 Author:  
0 CustomBrick
0 NumOfBricks:  3
1 72 10.000000 -1.128810 -10.000000 1.000000 0.000000 0.000000 0.000000 0.000000 -1.000000 0.000000 1.000000 0.000000 dch003.dat
1 71 -27.466620 -79.717990 29.427020 1.000000 0.000000 0.000000 0.000000 0.000000 -1.000000 0.000000 1.000000 0.000000 dch004.dat
1 25 7.837010 13.484720 -9.965000 1.000000 0.000000 0.000000 0.000000 0.000000 -1.000000 0.000000 1.000000 0.000000 dch005.dat
0 NOFILE
0 FILE SubModel Group 1
0 SubModel Group 1
0 Name:  SubModel Group 1
0 Author:  
0 CustomBrick
0 NumOfBricks:  27
1 1 -12.377070 -73.326190 -1.740810 0.000000 0.000000 -1.000002 0.000000 1.000000 0.000000 1.000002 -0.000001 0.000000 3895.dat
1 0 -2.377130 -63.326200 -41.740890 -1.000002 0.000000 0.000000 0.000000 1.000000 0.000000 0.000000 -0.000001 -1.000002 2780.dat
1 0 -2.377070 -63.326200 38.259360 -1.000002 0.000000 0.000000 0.000000 1.000000 0.000000 0.000000 -0.000001 -1.000002 2780.dat
1 1 -12.377070 -81.326190 -61.740920 0.000000 0.000000 -1.000002 0.000000 1.000000 0.000000 1.000002 -0.000001 0.000000 3666.dat
1 1 -12.377070 -81.326190 58.259370 0.000000 0.000000 -1.000002 0.000000 1.000000 0.000000 1.000002 -0.000001 0.000000 3666.dat
0 STEP
1 1 -12.377070 -129.326200 -61.740890 0.000000 0.000000 -1.000002 0.000000 1.000000 0.000000 1.000002 -0.000001 0.000000 3702.dat
1 1 -12.377070 -105.326200 -1.740780 0.000000 0.000000 -1.000002 0.000000 1.000000 0.000000 1.000002 -0.000001 0.000000 3895.dat
1 1 -12.377070 -129.326200 78.259360 0.000000 0.000000 -1.000002 0.000000 1.000000 0.000000 1.000002 -0.000001 0.000000 3894.dat
0 STEP
1 1 -12.377070 -153.326200 -1.740750 0.000000 0.000000 -1.000002 0.000000 1.000000 0.000000 1.000002 -0.000001 0.000000 3703.dat
1 0 -2.377010 -143.326200 -41.740830 -1.000002 0.000000 0.000000 0.000000 1.000000 0.000000 0.000000 -0.000001 -1.000002 2780.dat
1 0 -2.377070 -143.326200 38.259430 -1.000002 0.000000 0.000000 0.000000 1.000000 0.000000 0.000000 -0.000001 -1.000002 2780.dat
0 STEP
1 0 -2.377010 -63.326200 18.259170 1.000002 0.000000 -0.000001 0.000000 1.000000 0.000000 0.000001 -0.000001 1.000002 2780.dat
1 0 -2.377070 -63.326200 -21.740890 1.000002 0.000000 -0.000001 0.000000 1.000000 0.000000 0.000001 -0.000001 1.000002 2780.dat
1 71 7.622970 -83.326190 -1.740810 0.000000 1.000002 0.000000 0.000000 0.000000 -1.000000 -1.000002 0.000000 0.000001 64179.dat
0 STEP
1 15 -1.019540 -63.593740 -1.804180 0.000000 0.000000 1.000000 0.000000 1.000000 0.000000 -1.000000 0.000000 0.000000 dx0081.dat.dat
0 STEP
1 72 -31.517180 -63.326200 -1.740830 0.000000 0.000000 -1.000002 0.000000 -1.000000 0.000000 -1.000002 0.000001 0.000000 3647.dat
1 71 -11.517090 -63.326200 -1.740830 1.000002 0.000000 0.000000 0.000000 0.000000 1.000000 0.000000 -1.000002 -0.000001 4519.dat
0 STEP
1 1 -12.377110 -177.326200 98.259470 0.000000 0.000000 -1.000000 0.000000 1.000000 0.000000 1.000000 -0.000001 0.000000 3701.dat
1 1 -12.377050 -177.326200 -101.740900 0.000000 0.000000 -1.000000 0.000000 1.000000 0.000000 1.000000 -0.000001 0.000000 3701.dat
0 STEP
1 15 -12.377110 -177.326200 28.259360 -1.000000 0.000000 0.000000 0.000000 1.000000 0.000000 0.000000 -0.000001 -1.000000 3040b.dat
1 15 -12.376990 -177.326200 -31.740800 1.000000 0.000000 0.000000 0.000000 1.000000 0.000000 0.000000 -0.000001 1.000000 3040b.dat
1 15 -12.377110 -201.326200 98.259490 0.000000 0.000000 1.000000 0.000000 1.000000 0.000000 -1.000000 -0.000001 0.000000 32064a.dat
1 15 -12.377050 -201.326200 -101.740900 0.000000 0.000000 1.000000 0.000000 1.000000 0.000000 -1.000000 -0.000001 0.000000 32064a.dat
0 STEP
1 71 -32.387110 -63.326200 -61.740960 0.000000 0.000000 -1.000002 0.971134 0.238536 0.000000 0.238536 -0.971135 0.000000 3649.dat
1 0 57.133030 -63.326200 -61.740890 1.000002 0.000000 0.000000 0.000000 0.971134 -0.238536 0.000000 0.238536 0.971136 3737.dat
1 71 -31.896760 -63.326240 58.259170 0.000000 0.000001 -1.000000 0.971134 0.238535 0.000000 0.238535 -0.971134 -0.000001 3649.dat
1 0 58.103240 -63.326280 58.259300 1.000000 0.000000 0.000000 0.000000 0.971134 -0.238536 0.000000 0.238535 0.971134 3737.dat
0 STEP
0 NOFILE
0 FILE SubModel Group 3
0 SubModel Group 3
0 Name:  SubModel Group 3
0 Author:  
0 CustomBrick
0 NumOfBricks:  13
1 1 -3.538470 -60.000000 9.615479 1.000000 0.000000 0.000000 0.000000 1.000000 0.000000 0.000000 0.000000 1.000000 3895.dat
1 1 -83.538470 -68.000000 9.615479 1.000000 0.000000 0.000000 0.000000 1.000000 0.000000 0.000000 0.000000 1.000000 3710.dat
1 1 -3.538470 -68.000000 9.615479 1.000000 0.000000 0.000000 0.000000 1.000000 0.000000 0.000000 0.000000 1.000000 3710.dat
1 1 76.461540 -68.000000 9.615479 1.000000 0.000000 0.000000 0.000000 1.000000 0.000000 0.000000 0.000000 1.000000 3710.dat
0 STEP
1 1 -3.538470 -91.999980 9.615479 1.000000 0.000000 0.000000 0.000000 1.000000 0.000000 0.000000 0.000000 1.000000 3895.dat
1 0 -43.538480 -50.000000 -0.384520 0.000000 0.000000 -1.000000 0.000000 1.000000 0.000000 1.000000 0.000000 0.000000 2780.dat
1 0 36.461450 -50.000000 -0.384520 0.000000 0.000000 -1.000001 0.000000 1.000000 0.000000 1.000001 0.000000 0.000000 2780.dat
0 STEP
1 1 -3.538470 -140.000000 9.615479 1.000000 0.000000 0.000000 0.000000 1.000000 0.000000 0.000000 0.000000 1.000000 3703.dat
1 1 -63.538480 -116.000000 9.615479 1.000000 0.000000 0.000000 0.000000 1.000000 0.000000 0.000000 0.000000 1.000000 3702.dat
1 1 76.461540 -116.000000 9.615479 1.000000 0.000000 0.000000 0.000000 1.000000 0.000000 0.000000 0.000000 1.000000 3894.dat
0 STEP
1 0 -43.538470 -130.000000 -0.384520 0.000000 0.000000 -1.000000 0.000000 1.000000 0.000000 1.000000 0.000000 0.000000 2780.dat
1 71 -3.538470 -70.000000 -10.384520 -1.000000 0.000000 0.000000 0.000000 0.000000 -1.000000 0.000000 -1.000000 0.000000 64179.dat
1 0 36.461530 -130.000000 -0.384520 0.000000 0.000000 -1.000000 0.000000 1.000000 0.000000 1.000000 0.000000 0.000000 2780.dat
0 STEP
0 NOFILE
