0 Untitled Model
0 Name:  举重小人
0 Author:  
0 CustomBrick
0 NumOfBricks:  58
1 71 -18.999660 -261.999900 -291.190000 0.000000 1.000000 0.000000 0.000000 0.000000 1.000000 1.000000 0.000000 0.000000 64179.dat
0 STEP
1 4 -18.999720 -261.999900 -291.190000 0.000000 1.000000 0.000000 -1.000000 0.000000 0.000000 0.000000 0.000000 1.000000 32034.dat
1 71 -18.999720 -261.999900 -252.670100 0.000000 1.000000 0.000000 0.000000 0.000000 1.000000 1.000000 0.000000 0.000000 4519.dat
1 71 -18.999720 -261.999900 -331.190000 0.000000 1.000000 0.000000 0.000000 0.000000 1.000000 1.000000 0.000000 0.000000 4519.dat
0 STEP
1 71 -18.999720 -221.999900 -291.189700 0.000000 -1.000000 0.000000 -0.000001 0.000000 1.000000 -1.000000 0.000000 -0.000001 3713.dat
1 71 -18.999660 -301.999800 -291.190100 0.000000 1.000000 0.000000 1.000000 0.000000 0.000000 0.000000 0.000000 -1.000000 60485.dat
0 STEP
1 0 -18.999660 -301.999800 -341.190000 0.000000 0.000000 -1.000000 0.000000 1.000000 0.000000 1.000000 0.000000 0.000000 2780.dat
1 0 -18.999660 -301.999900 -241.190200 0.000000 0.000000 -1.000000 0.000000 1.000000 0.000000 1.000000 0.000000 0.000000 2780.dat
1 0 -18.999660 -221.999900 -341.190000 0.000000 0.000000 -1.000000 0.000000 1.000000 0.000000 1.000000 0.000000 0.000000 2780.dat
1 0 -18.999660 -221.999900 -241.190200 0.000000 0.000000 -1.000000 0.000000 1.000000 0.000000 1.000000 0.000000 0.000000 2780.dat
0 STEP
1 19 -18.999720 -381.999800 -291.190100 0.000000 -1.000000 0.000000 0.000000 0.000000 1.000000 -1.000000 0.000000 0.000000 32269.dat
1 71 -18.999660 -367.719800 -291.190100 0.000000 -1.000000 0.000000 -0.000001 0.000000 1.000000 -1.000000 0.000000 -0.000001 3713.dat
0 STEP
1 0 -18.999840 -161.999900 -221.190000 0.000000 0.000000 -1.000000 0.000000 1.000000 0.000000 1.000000 0.000000 0.000000 2780.dat
1 0 -18.999780 -201.999900 -221.190100 0.000000 0.000000 -1.000000 0.000000 1.000000 0.000000 1.000000 0.000000 0.000000 2780.dat
1 0 -18.999590 -201.999900 -361.189800 0.000000 0.000000 -1.000000 0.000000 1.000000 0.000000 1.000000 0.000000 0.000000 2780.dat
1 0 -18.999530 -161.999900 -361.189800 0.000000 0.000000 -1.000000 0.000000 1.000000 0.000000 1.000000 0.000000 0.000000 2780.dat
1 15 -18.999660 -261.999900 -351.189800 -1.000000 0.000001 -0.000001 0.000001 0.000001 -1.000000 -0.000001 -1.000000 -0.000001 64290.dat
1 15 -18.999720 -261.999900 -231.190100 -1.000000 0.000001 -0.000001 -0.000001 -0.000001 1.000000 0.000001 1.000000 0.000001 64290.dat
0 STEP
1 4 -18.999660 -321.999900 -331.190100 1.000000 0.000001 -0.000001 0.000001 0.000001 1.000000 0.000001 -1.000000 0.000001 32054.dat
1 19 -10.089620 -341.999900 -331.190000 1.000000 0.000001 -0.000001 0.000001 0.000001 1.000000 0.000001 -1.000000 0.000001 3749.dat
1 71 1.000330 -341.999900 -331.190000 -0.000001 1.000000 0.000001 0.000001 -0.000001 1.000000 1.000000 0.000001 -0.000001 60483.dat
0 STEP
1 71 1.000210 -241.999800 -331.190000 0.000001 0.000000 -1.000000 0.000000 1.000000 0.000000 1.000000 0.000000 0.000001 3713.dat
1 71 1.000280 -241.999800 -251.190100 0.000001 0.000000 -1.000000 0.000000 1.000000 0.000000 1.000000 0.000000 0.000001 3713.dat
1 19 -8.999720 -241.999800 -331.190000 1.000000 0.000001 -0.000001 0.000001 0.000001 1.000000 0.000001 -1.000000 0.000001 3749.dat
1 19 -8.999720 -241.999800 -251.190100 1.000000 0.000001 -0.000001 0.000001 0.000001 1.000000 0.000001 -1.000000 0.000001 3749.dat
0 STEP
1 15 -38.999710 -261.999900 -251.190200 -0.000001 -1.000000 -0.000001 -0.000001 -0.000001 1.000000 -1.000000 0.000001 -0.000001 32524.dat
1 0 -28.999720 -201.999900 -251.190200 1.000000 0.000000 0.000000 0.000000 1.000000 0.000000 0.000000 0.000000 1.000000 2780.dat
1 0 -28.999720 -201.999900 -331.190100 1.000000 0.000000 0.000000 0.000000 1.000000 0.000000 0.000000 0.000000 1.000000 2780.dat
1 0 -28.999720 -321.999900 -251.190100 1.000000 0.000000 0.000000 0.000000 1.000000 0.000000 0.000000 0.000000 1.000000 2780.dat
1 0 -28.999960 -281.999900 -331.189900 1.000000 0.000000 0.000000 0.000000 1.000000 0.000000 0.000000 0.000000 1.000000 2780.dat
1 15 -38.999830 -241.999800 -331.189900 -0.000001 -1.000000 -0.000001 0.000001 0.000001 -1.000000 1.000000 -0.000001 0.000001 32316.dat
0 STEP
1 1 -18.999840 -62.000020 -211.190100 -1.000000 0.000000 0.000000 0.000000 0.000000 1.000000 0.000000 1.000000 0.000000 32009.dat
1 1 -18.999660 -61.999980 -371.189800 1.000000 0.000000 0.000000 0.000000 0.000000 1.000000 -0.000001 -1.000000 0.000000 32009.dat
0 STEP
1 1 -98.999980 -72.000040 -190.160200 1.000000 0.000000 -0.000001 0.000000 1.000000 0.000000 0.000000 0.000000 1.000000 3700.dat
1 19 -98.999870 -62.000030 -200.160000 0.000001 -1.000000 0.000001 0.000001 0.000001 1.000000 -1.000000 -0.000001 0.000001 3749.dat
1 1 61.000320 -72.000000 -391.189800 -1.000000 0.000000 0.000000 0.000000 1.000000 0.000000 0.000000 0.000000 -1.000000 3700.dat
1 1 -98.999980 -48.000040 -190.160200 -1.000000 0.000000 0.000001 0.000000 1.000000 0.000000 0.000000 0.000000 -1.000000 3700.dat
1 1 61.000320 -48.000000 -391.189800 -1.000000 0.000000 0.000001 0.000000 1.000000 0.000000 0.000000 0.000000 -1.000000 3700.dat
1 19 61.000380 -61.999980 -381.189800 -0.000001 1.000000 -0.000001 0.000001 0.000001 1.000000 1.000000 0.000001 -0.000001 3749.dat
0 STEP
1 0 -18.999840 -122.000000 -201.190100 0.000000 0.000000 -1.000000 0.000000 1.000000 0.000000 1.000000 0.000000 0.000000 2780.dat
1 0 -18.999660 -122.000000 -381.189800 0.000000 0.000000 -1.000000 0.000000 1.000000 0.000000 1.000000 0.000000 0.000000 2780.dat
1 4 -18.999660 -122.000000 -391.189800 0.000000 0.000000 1.000000 0.000000 -1.000000 0.000000 1.000000 0.000000 0.000000 32034.dat
1 4 -18.999840 -122.000000 -191.190200 0.000000 0.000000 1.000000 0.000000 -1.000000 0.000000 1.000000 0.000000 0.000000 32034.dat
0 STEP
1 15 -98.999980 -24.000060 -200.160000 0.000000 0.000000 1.000000 0.000000 1.000000 0.000000 -1.000000 0.000000 0.000000 3001.dat
1 15 61.000320 -24.000010 -381.189800 0.000000 0.000000 1.000000 0.000000 1.000000 0.000000 -1.000000 0.000000 0.000000 3001.dat
1 15 61.000320 -48.000000 -361.189900 1.000000 0.000000 0.000000 0.000000 1.000000 0.000000 0.000000 0.000000 1.000000 3941.dat
1 15 -98.999980 -48.000040 -220.160000 1.000000 0.000000 0.000000 0.000000 1.000000 0.000000 0.000000 0.000000 1.000000 3941.dat
0 STEP
1 19 -18.999720 -321.999800 -361.189800 0.000001 -1.000000 0.000001 0.000001 0.000001 1.000000 -1.000000 -0.000001 0.000001 3749.dat
1 0 -18.999780 -361.999800 -361.189900 0.000000 0.000000 -1.000000 0.000000 1.000000 0.000000 1.000000 0.000000 0.000000 2780.dat
1 0 -18.999590 -361.999800 -221.190200 0.000000 0.000000 -1.000000 0.000000 1.000000 0.000000 1.000000 0.000000 0.000000 2780.dat
1 19 -18.999660 -321.999800 -221.190100 -0.000001 1.000000 -0.000001 0.000001 0.000001 1.000000 1.000000 0.000001 -0.000001 3749.dat
0 STEP
1 1 -18.999660 -321.999800 -211.190100 -1.000000 0.000001 0.000001 -0.000001 -0.000001 -1.000000 -0.000001 -1.000000 0.000001 32271.dat
1 1 -18.999840 -321.999800 -371.189900 -1.000000 0.000001 0.000001 -0.000001 -0.000001 -1.000000 -0.000001 -1.000000 0.000001 32271.dat
0 STEP
1 0 -35.000000 -453.999600 -407.000000 1.000000 0.000000 0.000000 0.000000 -1.000000 0.000000 0.000000 0.000000 -1.000000 44309.dat
1 71 -35.000020 -453.999600 -406.999800 0.000000 -1.000003 0.000000 -1.000000 0.000000 0.000000 0.000000 0.000000 -1.000003 56145.dat
1 0 -35.000750 -453.999700 -172.321000 -1.000000 0.000000 0.000000 0.000000 -0.999999 0.000000 0.000000 0.000000 0.999999 44309.dat
1 71 -34.999830 -453.999600 -172.320300 0.000000 1.000005 0.000000 -1.000000 0.000000 0.000000 0.000000 0.000000 1.000006 56145.dat
1 0 -34.999900 -453.999600 -289.879900 0.000000 0.000000 -1.000000 0.000000 1.000000 0.000000 1.000000 0.000000 0.000000 3708.dat
0 STEP
0 STEP
