0 FILE 举重机器人.io
0 Untitled Model
0 Name:  举重机器人
0 Author:  
0 CustomBrick
0 NumOfBricks:  81
1 71 0.000000 -354.590400 -220.000000 0.000000 -1.000000 0.000000 0.000000 0.000000 1.000000 -1.000000 0.000000 0.000000 4716.dat
1 0 0.000120 -364.870400 -220.000000 0.000000 0.000000 1.000000 1.000000 0.000000 0.000000 0.000000 1.000000 0.000000 3707.dat
1 14 0.000090 -329.150300 -220.000000 1.000000 0.000000 0.000000 0.000000 0.000000 -1.000000 0.000000 1.000000 0.000000 32123a.dat
1 4 0.580230 -314.000300 -220.000100 -1.000000 -0.000001 0.000000 0.000000 0.000000 1.000000 -0.000001 1.000000 0.000000 42003.dat
0 STEP
1 14 0.000120 -379.130500 -220.000000 1.000000 0.000000 0.000000 0.000000 0.000000 -1.000000 0.000000 1.000000 0.000000 32123a.dat
1 4 0.000100 -394.000400 -220.000000 -1.000000 -0.000001 0.000000 0.000000 0.000000 1.000000 -0.000001 1.000000 0.000000 42003.dat
0 STEP
1 71 -0.799750 -314.000300 -240.000200 1.000000 0.000000 0.000000 0.000000 1.000000 0.000000 0.000000 0.000000 1.000000 32073.dat
1 71 -3.129880 -394.000400 -240.000000 1.000000 0.000000 0.000000 0.000000 1.000000 0.000000 0.000000 0.000000 1.000000 32073.dat
0 STEP
1 72 14.460080 -354.000400 -240.000000 0.000000 -0.999999 0.000000 -1.000000 0.000000 0.000000 0.000000 0.000000 -1.000000 99773.dat
1 72 -15.289890 -354.000400 -240.000000 0.000000 -0.999999 0.000000 -1.000000 0.000000 0.000000 0.000000 0.000000 -1.000000 99773.dat
1 71 0.480280 -354.000200 -259.999900 -1.000000 0.000000 0.000000 0.000000 1.000000 0.000000 0.000000 0.000000 -1.000000 44294.dat
1 72 0.490350 -354.000400 -260.000200 0.000000 0.000000 1.000000 0.000000 1.000000 0.000000 -1.000000 0.000000 0.000000 3648b.dat
0 STEP
1 72 24.560000 -314.000300 -240.000000 0.000002 1.000000 0.000001 0.000001 0.000001 -1.000000 -1.000000 0.000002 -0.000001 32250.dat
0 STEP
1 71 46.630280 -354.000200 -260.000200 0.000001 0.000000 -1.000000 0.000000 1.000000 0.000000 1.000000 0.000000 0.000001 3713.dat
1 14 31.570310 -354.000200 -260.000000 0.000000 0.000000 -1.000000 -1.000000 0.000000 0.000000 0.000000 1.000000 0.000000 32123a.dat
0 STEP
1 0 0.580200 -304.000300 -200.000000 0.000000 0.000000 -1.000000 1.000000 0.000000 0.000000 0.000000 -1.000000 0.000000 2780.dat
1 15 0.000000 -303.000000 -220.000000 1.000000 0.000000 0.000000 0.000000 0.000000 1.000000 0.000000 -1.000000 0.000000 dx0087.dat.dat
0 STEP
1 71 -43.849680 -354.000300 -260.000100 0.000001 0.000000 -1.000000 0.000000 1.000000 0.000000 1.000000 0.000000 0.000001 3713.dat
1 14 -28.609690 -354.000300 -259.999900 0.000000 0.000000 1.000000 1.000000 0.000000 0.000000 0.000000 1.000000 0.000000 32123a.dat
1 72 -24.210000 -314.000300 -240.000000 0.000002 1.000000 0.000001 0.000001 0.000001 -1.000000 -1.000000 0.000002 -0.000001 32250.dat
0 STEP
1 71 52.721680 -154.000000 -240.000200 -1.000000 0.000000 0.000001 0.000000 1.000000 0.000000 -0.000001 0.000000 -1.000000 3673.dat
1 71 52.721760 -194.000000 -240.000000 -1.000000 0.000000 0.000001 0.000000 1.000000 0.000000 -0.000001 0.000000 -1.000000 3673.dat
1 15 42.721770 -274.000000 -240.000000 -0.000001 -1.000000 -0.000001 0.000001 0.000001 -1.000000 1.000000 -0.000001 0.000001 64871.dat
0 STEP
1 71 80.410190 -133.999900 -240.000600 0.000000 0.000000 -1.000000 0.000000 1.000000 0.000000 1.000001 0.000000 0.000000 3713.dat
1 15 62.721620 -114.000000 -240.000200 -0.000001 -1.000000 -0.000001 -0.000001 -0.000001 1.000000 -1.000001 0.000001 -0.000001 64290.dat
1 71 -1.489770 -134.000000 -240.000700 1.000000 0.000000 0.000000 0.000000 1.000000 0.000000 0.000000 0.000000 1.000000 60485.dat
0 STEP
1 14 25.760280 -134.000000 -240.000700 0.000000 -0.000001 -1.000000 -1.000000 0.000000 0.000000 0.000000 1.000000 -0.000001 32123a.dat
1 71 10.640360 -134.000000 -240.000700 0.000000 0.000000 -1.000000 0.000000 1.000000 0.000000 1.000001 0.000000 0.000000 3713.dat
0 STEP
1 14 -24.809750 -134.000000 -240.000700 0.000001 0.000000 -1.000000 0.000000 -1.000000 0.000000 -1.000000 0.000000 -0.000001 32123a.dat
1 71 -9.699820 -134.000000 -240.000700 0.000000 0.000000 -1.000000 0.000000 1.000000 0.000000 1.000001 0.000000 0.000000 3713.dat
0 STEP
1 15 -43.129710 -274.000200 -240.000300 -0.000001 -1.000000 -0.000001 0.000001 0.000001 -1.000000 1.000000 -0.000001 0.000001 64871.dat
0 STEP
1 71 -53.129690 -194.000200 -240.000400 -1.000000 0.000000 0.000001 0.000000 1.000000 0.000000 -0.000001 0.000000 -1.000001 3673.dat
1 71 -53.129760 -154.000200 -240.000400 -1.000000 0.000000 0.000001 0.000000 1.000000 0.000000 -0.000001 0.000000 -1.000001 3673.dat
0 STEP
1 71 -81.489680 -134.000000 -240.000600 0.000000 0.000000 -1.000000 0.000000 1.000000 0.000000 1.000001 0.000000 0.000000 3713.dat
1 15 -63.129670 -114.000500 -240.000000 -0.000001 -1.000000 -0.000001 -0.000001 -0.000001 1.000000 -1.000001 0.000001 -0.000001 64290.dat
0 STEP
1 71 -73.129860 -14.000200 -240.000700 -1.000000 0.000000 0.000001 0.000000 1.000000 0.000000 -0.000001 0.000000 -1.000001 3673.dat
1 71 72.720140 -14.000000 -240.000300 -1.000000 0.000000 0.000001 0.000000 1.000000 0.000000 -0.000001 0.000000 -1.000000 3673.dat
0 STEP
1 16 90.470000 0.000000 -240.000300 1.000000 0.000000 0.000000 0.000000 1.000000 0.000000 0.000000 0.000000 1.000000 submodel group 1
0 STEP
1 16 -90.879840 -0.000230 -240.000500 1.000000 0.000000 0.000000 0.000000 1.000000 0.000000 0.000000 0.000000 1.000000 submodel group 2
0 STEP
1 19 76.850280 -314.000300 -260.000200 -1.000000 -0.000001 0.000001 0.000001 -0.258819 0.965926 -0.000001 0.965927 0.258819 3749.dat
1 19 -73.729630 -314.000400 -260.000200 1.000000 0.000001 -0.000001 0.000001 0.000001 1.000000 0.000001 -1.000000 0.000001 3749.dat
1 1 -63.729660 -334.000300 -259.999900 1.000000 0.000000 0.000000 0.000000 -1.000000 0.000000 0.000000 0.000000 -1.000000 32184.dat
1 1 67.150270 -334.000200 -260.000000 1.000000 0.000000 0.000000 0.000000 -1.000000 0.000000 0.000000 0.000000 -1.000000 32184.dat
0 STEP
1 19 52.721600 -414.000100 -240.000000 1.000000 0.000000 -0.000001 0.000001 0.434034 0.900897 0.000001 -0.900897 0.434034 3749.dat
1 19 -53.129800 -414.000300 -240.000200 -1.000000 -0.000001 0.000000 0.000001 -0.422619 0.906308 -0.000001 0.906308 0.422619 3749.dat
0 STEP
1 71 0.000100 -413.110400 -220.000100 1.000000 0.000000 0.000001 0.000001 0.000000 -1.000000 0.000000 1.000000 0.000000 3713.dat
0 STEP
1 19 0.000130 -425.240400 -220.000000 1.000000 0.000000 0.000000 0.000000 0.000000 1.000000 0.000000 -1.000000 0.000000 32269.dat
0 STEP
1 1 -63.129800 -414.000300 -240.000200 -0.000001 -1.000000 0.000001 -0.906307 0.000001 0.422622 -0.422621 -0.000001 -0.906307 32271.dat
1 1 62.721640 -413.999800 -240.000000 -0.000001 -1.000000 0.000000 -0.900897 0.000001 0.434034 -0.434033 0.000000 -0.900898 32271.dat
0 STEP
1 71 -73.129680 -388.643100 -294.378500 -1.000000 0.000000 0.000000 0.000000 1.000000 0.000000 0.000000 0.000000 -1.000000 3673.dat
1 71 72.721680 -387.957700 -294.053700 -1.000000 0.000000 -0.000001 -0.000001 0.811839 0.583882 0.000000 0.583881 -0.811840 3673.dat
0 STEP
1 15 -83.729630 -350.252800 -276.904900 0.000000 1.000000 0.000001 0.422618 0.000001 -0.906308 -0.906309 0.000001 -0.422618 32316.dat
1 15 86.850330 -350.252700 -276.904600 0.000001 1.000000 0.000001 0.422616 0.000001 -0.906309 -0.906310 0.000001 -0.422615 32316.dat
0 STEP
1 0 95.611720 -380.327800 -383.618200 -0.000001 0.000000 1.000000 -0.467456 0.884017 0.000000 -0.884017 -0.467457 0.000000 44309.dat
1 71 95.611720 -380.327600 -383.618200 0.000000 0.000000 1.000000 0.884017 0.467456 0.000000 -0.467457 0.884017 0.000000 56145.dat
1 0 -95.998210 -380.327500 -383.618000 0.000000 0.000000 1.000000 0.467456 -0.884017 0.000000 0.884017 0.467457 0.000000 44309.dat
1 71 -95.998210 -380.327500 -383.618200 0.000000 0.000000 -1.000000 0.884016 -0.467456 0.000000 -0.467457 -0.884017 0.000000 56145.dat
1 0 -0.928240 -380.327700 -383.618200 -1.000000 0.000001 0.000000 0.000001 0.884017 -0.467456 0.000000 -0.467457 -0.884017 3708.dat
0 STEP
1 1 92.720000 0.000000 -240.000300 0.000000 0.000000 1.000000 0.000000 1.000000 0.000000 -1.000000 0.000000 0.000000 32001.dat
1 1 92.720000 8.000000 -240.000300 0.000000 0.000000 1.000000 0.000000 1.000000 0.000000 -1.000000 0.000000 0.000000 3738.dat
0 STEP
1 1 -93.129970 7.999740 -239.999400 0.000000 0.000000 1.000000 0.000000 1.000000 0.000000 -1.000000 0.000000 0.000000 3738.dat
1 1 -93.129990 -0.000260 -239.999400 0.000000 0.000000 1.000000 0.000000 1.000000 0.000000 -1.000000 0.000000 0.000000 32001.dat
0 STEP
1 0 -53.129710 -74.000520 -240.000000 -1.000000 0.000000 0.000001 0.000000 1.000000 0.000000 -0.000001 0.000000 -1.000000 2780.dat
1 0 -53.129740 -34.000510 -240.000100 -1.000000 0.000000 0.000001 0.000000 1.000000 0.000000 -0.000001 0.000000 -1.000000 2780.dat
0 STEP
1 16 -33.000000 15.000000 -203.000000 0.000000 0.000000 -1.000000 0.000000 1.000000 0.000000 1.000000 0.000000 0.000000 submodel group 9 copy copy copy
0 STEP
0 STEP
0 NOFILE
0 FILE SubModel Group 1
0 SubModel Group 1
0 Name:  SubModel Group 1
0 Author:  
0 CustomBrick
0 NumOfBricks:  8
1 0 2.250020 -13.999990 19.999860 -1.000000 0.000000 0.000001 0.000000 1.000000 0.000000 -0.000001 0.000000 -1.000000 2780.dat
1 0 2.250080 -13.999990 -20.000140 -1.000000 0.000000 0.000001 0.000000 1.000000 0.000000 -0.000001 0.000000 -1.000000 2780.dat
1 1 -7.750020 -24.000000 -0.000060 0.000000 0.000000 -1.000000 0.000000 1.000000 0.000000 1.000000 0.000000 0.000000 3894.dat
0 STEP
1 1 12.249900 -24.000000 0.000670 0.000000 0.000000 -0.999998 0.000000 1.000000 0.000000 0.999999 0.000000 0.000000 3894.dat
0 STEP
1 1 -7.750020 -40.000050 -0.000060 0.000000 0.000000 -1.000000 0.000000 1.000000 0.000000 1.000000 0.000000 0.000000 3710.dat
1 1 -7.750020 -31.999990 -0.000060 0.000000 0.000000 -1.000000 0.000000 1.000000 0.000000 1.000000 0.000000 0.000000 3710.dat
0 STEP
1 1 -7.750020 -64.000100 -0.000060 0.000000 0.000000 -1.000000 0.000000 1.000000 0.000000 1.000000 0.000000 0.000000 3701.dat
1 71 -17.749980 -54.000080 -0.000060 -1.000000 0.000000 0.000001 0.000000 1.000000 0.000000 -0.000001 0.000000 -1.000000 3673.dat
0 STEP
0 NOFILE
0 FILE SubModel Group 2
0 SubModel Group 2
0 Name:  SubModel Group 2
0 Author:  
0 CustomBrick
0 NumOfBricks:  8
1 0 -2.249950 -13.999970 19.999830 -1.000000 0.000000 0.000001 0.000000 1.000000 0.000000 -0.000001 0.000000 -1.000001 2780.dat
1 0 -2.249960 -14.000000 -20.000350 -1.000000 0.000000 0.000001 0.000000 1.000000 0.000000 -0.000001 0.000000 -1.000001 2780.dat
1 1 7.750040 -24.000000 -0.000150 0.000000 0.000000 -1.000000 0.000000 1.000000 0.000000 1.000001 0.000000 0.000000 3894.dat
0 STEP
1 1 -12.250160 -24.000030 0.001110 0.000000 0.000000 -1.000000 0.000000 1.000000 0.000000 1.000001 0.000000 0.000000 3894.dat
0 STEP
1 1 7.750040 -39.999960 -0.000150 0.000000 0.000000 -1.000000 0.000000 1.000000 0.000000 1.000001 0.000000 0.000000 3710.dat
1 1 7.750040 -31.999960 -0.000150 0.000000 0.000000 -1.000000 0.000000 1.000000 0.000000 1.000001 0.000000 0.000000 3710.dat
0 STEP
1 1 7.750040 -64.000040 -0.000060 0.000000 0.000000 -1.000000 0.000000 1.000000 0.000000 1.000001 0.000000 0.000000 3701.dat
1 71 17.749980 -54.000030 -0.000060 -1.000000 0.000000 0.000001 0.000000 1.000000 0.000000 -0.000001 0.000000 -1.000001 3673.dat
0 STEP
0 NOFILE
0 FILE SubModel Group 9 Copy Copy Copy
0 SubModel Group 9 Copy Copy Copy
0 Name:  SubModel Group 9 Copy Copy Copy
0 Author:  
0 CustomBrick
0 NumOfBricks:  3
1 72 10.000000 -1.128810 -10.000000 1.000000 0.000000 0.000000 0.000000 0.000000 -1.000000 0.000000 1.000000 0.000000 dch003.dat
1 71 -27.466620 -79.717990 29.427020 1.000000 0.000000 0.000000 0.000000 0.000000 -1.000000 0.000000 1.000000 0.000000 dch004.dat
1 25 7.837010 13.484720 -9.965000 1.000000 0.000000 0.000000 0.000000 0.000000 -1.000000 0.000000 1.000000 0.000000 dch005.dat
0 NOFILE
