0 FILE 龙舟.io
0 Untitled Model
0 Name:  龙舟
0 Author:  
0 CustomBrick
1 1 -120.000000 -74.000240 -19.820010 1.000000 -0.000001 -0.000001 0.000001 0.000001 1.000000 -0.000001 -1.000000 0.000001 32140.dat
1 1 -120.000000 -54.000280 -19.820010 0.000000 0.000000 -1.000000 0.000000 1.000000 0.000000 1.000000 0.000000 0.000000 6558.dat
0 STEP
1 72 -120.000000 -54.000260 -4.819900 0.000000 0.000000 1.000000 1.000000 0.000000 0.000000 0.000000 1.000000 0.000000 99773.dat
0 STEP
1 71 -120.000000 -194.000300 -19.820010 0.000000 0.000000 1.000000 1.000000 0.000000 0.000000 0.000000 1.000000 0.000000 60485.dat
1 4 -120.000000 -114.000200 -19.820010 0.000000 -1.000000 -0.000001 0.000000 0.000001 -1.000000 1.000000 0.000000 0.000000 32039.dat
1 71 -120.000000 -94.000240 -19.820010 0.000000 -1.000000 0.000000 0.000000 0.000000 1.000000 -1.000000 0.000000 0.000000 4519.dat
0 STEP
1 72 -120.000000 -54.000280 -34.820010 0.000000 0.000000 1.000000 -1.000000 0.000000 0.000000 0.000000 -1.000000 0.000000 99773.dat
0 STEP
1 14 -120.000000 -94.000240 5.289990 0.000000 -1.000000 0.000000 -1.000000 0.000000 0.000000 0.000000 0.000000 -1.000000 32123a.dat
1 14 -120.000200 -94.000260 -44.819940 0.000000 -1.000003 0.000000 -1.000003 0.000000 0.000000 0.000000 0.000000 -1.000000 32123a.dat
0 STEP
1 4 -139.998700 -233.190200 -19.821110 0.000000 -1.000000 0.000000 1.000000 0.000000 0.000000 0.000000 0.000000 1.000000 42003.dat
1 4 -139.999200 -253.190400 -19.820010 0.000000 -1.000000 0.000000 1.000002 0.000000 0.000000 0.000000 0.000000 1.000002 42003.dat
1 4 -140.000300 -274.000300 -19.820010 0.000000 -1.000000 0.000000 1.000002 0.000000 0.000000 0.000000 0.000000 1.000002 42003.dat
0 STEP
1 14 -100.000000 -14.000240 -35.330000 1.000000 0.000000 0.000000 0.000000 1.000000 0.000000 0.000000 0.000000 1.000000 32123a.dat
1 71 -100.000000 -14.000240 -19.820010 0.000000 0.000000 1.000000 0.000000 1.000000 0.000000 -1.000000 0.000000 0.000000 44294.dat
1 71 -120.000000 -14.000240 -19.820010 0.000000 0.000000 1.000000 0.000000 1.000000 0.000000 -1.000000 0.000000 0.000000 44294.dat
1 14 -100.000000 -14.000240 -4.819900 -1.000000 0.000000 0.000000 0.000000 1.000000 0.000000 0.000000 0.000000 -1.000000 32123a.dat
0 STEP
1 15 20.000000 -14.000010 -50.000030 0.000001 0.000001 -1.000000 -1.000000 0.000001 -0.000001 0.000001 1.000000 0.000001 64871.dat
1 1 60.000000 -13.999950 -50.000030 0.000000 0.000000 -1.000000 0.000000 1.000000 0.000000 1.000000 0.000000 0.000000 6558.dat
1 1 100.000000 -13.999910 -50.000030 0.000000 0.000000 -1.000000 0.000000 1.000000 0.000000 1.000000 0.000000 0.000000 6558.dat
0 STEP
1 71 -120.000000 -14.000240 -70.410050 1.000000 0.000000 0.000001 0.000000 1.000000 0.000000 -0.000001 0.000000 1.000000 3713.dat
1 71 -100.000000 -14.000240 -70.410050 1.000000 0.000000 0.000001 0.000000 1.000000 0.000000 -0.000001 0.000000 1.000000 3713.dat
0 STEP
1 14 -120.000000 -14.000240 -85.240020 0.000000 1.000000 0.000000 1.000000 0.000000 0.000000 0.000000 0.000000 -1.000000 32123a.dat
1 14 -100.000200 -14.000210 -85.240020 0.000000 1.000000 0.000000 1.000000 0.000000 0.000000 0.000000 0.000000 -1.000000 32123a.dat
0 STEP
1 1 60.000120 -93.999940 -70.000030 1.000000 -0.000001 -0.000001 0.000001 0.000001 1.000000 -0.000001 -1.000000 0.000001 32526.dat
1 71 60.000120 -93.999930 -60.000000 0.000000 0.000000 -1.000000 0.000000 1.000000 0.000000 1.000000 0.000000 0.000000 3673.dat
0 STEP
1 1 140.000000 -24.000000 -30.000000 1.000000 0.000000 0.000000 0.000000 1.000000 0.000000 0.000000 0.000000 1.000000 3895.dat
1 0 40.000000 -14.000000 -40.000000 0.000000 0.000000 -1.000000 0.000000 1.000000 0.000000 1.000000 0.000000 0.000000 2780.dat
1 0 160.000000 -14.000000 -40.000000 0.000000 0.000000 -1.000000 0.000000 1.000000 0.000000 1.000000 0.000000 0.000000 2780.dat
0 STEP
1 1 140.000000 -24.000000 -10.000000 1.000000 0.000000 0.000000 0.000000 1.000000 0.000000 0.000000 0.000000 1.000000 3895.dat
1 0 159.999100 -14.000000 -0.003100 0.000000 0.000000 -1.000005 0.000000 1.000000 0.000000 1.000005 0.000000 0.000000 2780.dat
1 0 39.999960 -14.000000 0.000000 0.000000 0.000000 -1.000000 0.000000 1.000000 0.000000 1.000000 0.000000 0.000000 2780.dat
1 15 19.999940 -14.000010 10.000000 0.000001 0.000001 -1.000000 -1.000000 0.000001 -0.000001 0.000001 1.000000 0.000001 64871.dat
0 STEP
1 1 59.999900 -14.000010 10.000000 0.000000 0.000000 -1.000000 0.000000 -1.000000 0.000000 -1.000000 0.000000 0.000000 6558.dat
1 1 99.999360 -14.000030 9.998000 0.000000 0.000000 -1.000004 0.000000 -1.000000 0.000000 -1.000002 0.000000 0.000000 6558.dat
0 STEP
1 0 199.999900 -14.000010 0.000000 0.000000 0.000000 -1.000000 0.000000 1.000000 0.000000 1.000000 0.000000 0.000000 2780.dat
1 0 239.998600 -14.000010 -0.002000 0.000000 0.000000 -1.000004 0.000000 1.000000 0.000000 1.000004 0.000000 0.000000 2780.dat
0 STEP
1 71 -100.000000 -14.000240 29.960020 -1.000000 0.000000 -0.000001 0.000000 -1.000000 0.000000 -0.000001 0.000000 1.000000 3713.dat
1 71 -120.000100 -14.000240 29.960020 -1.000000 0.000000 -0.000001 0.000000 -1.000000 0.000000 -0.000001 0.000000 1.000000 3713.dat
0 STEP
1 14 -120.000000 -14.000240 45.189900 -1.000000 0.000000 0.000000 0.000000 1.000000 0.000000 0.000000 0.000000 -1.000000 32123a.dat
1 14 -100.000000 -14.000850 45.189900 -1.000000 0.000000 0.000000 0.000000 1.000001 0.000000 0.000000 0.000000 -1.000001 32123a.dat
0 STEP
1 1 300.000000 -24.000000 -50.000030 1.000000 0.000000 0.000000 0.000000 1.000000 0.000000 0.000000 0.000000 1.000000 3895.dat
1 0 200.001000 -14.000010 -39.998000 0.000000 0.000000 -0.999997 0.000000 1.000000 0.000000 0.999997 0.000000 0.000000 2780.dat
1 0 239.999900 -14.000010 -40.000000 0.000000 0.000000 -1.000000 0.000000 1.000000 0.000000 1.000000 0.000000 0.000000 2780.dat
0 STEP
1 1 419.999800 -23.999870 -30.000000 -1.000000 0.000000 0.000000 0.000000 1.000000 0.000000 0.000000 0.000000 -1.000000 3703.dat
1 1 379.999900 -13.999840 -50.000030 0.000000 0.000000 1.000003 0.000000 -1.000000 0.000000 1.000000 0.000000 0.000000 6558.dat
1 1 339.999800 -13.999840 -50.000030 0.000000 0.000000 1.000003 0.000000 -1.000000 0.000000 1.000000 0.000000 0.000000 6558.dat
0 STEP
1 1 300.000100 -24.000000 10.000000 1.000000 0.000000 0.000000 0.000000 1.000000 0.000000 0.000000 0.000000 1.000000 3895.dat
1 1 419.999800 -23.999870 -10.000000 -1.000000 0.000000 0.000000 0.000000 1.000000 0.000000 0.000000 0.000000 -1.000000 3703.dat
1 1 380.000000 -14.000000 10.000000 0.000000 0.000000 1.000000 0.000000 1.000001 0.000000 -1.000000 0.000000 0.000000 6558.dat
1 1 339.999100 -14.000000 9.998990 0.000000 0.000000 1.000004 0.000000 1.000000 0.000000 -1.000004 0.000000 0.000000 6558.dat
0 STEP
1 1 320.000000 -32.000020 -20.000000 0.000000 0.000000 1.000000 0.000000 1.000000 0.000000 -1.000000 0.000000 0.000000 3709b.dat
1 1 319.999900 -40.000020 -20.000000 0.000000 0.000000 1.000000 0.000000 1.000000 0.000000 -1.000000 0.000000 0.000000 3709b.dat
1 1 120.000000 -32.000020 -20.000000 0.000000 0.000000 1.000001 0.000000 1.000000 0.000000 -1.000001 0.000000 0.000000 3709b.dat
1 1 120.000800 -40.000020 -20.001010 0.000000 0.000000 1.000002 0.000000 1.000000 0.000000 -1.000002 0.000000 0.000000 3709b.dat
0 STEP
1 0 319.999900 -42.670020 -40.000000 0.000000 -1.000000 0.000000 1.000000 0.000000 0.000000 0.000000 0.000000 1.000000 2780.dat
1 0 319.999900 -42.960020 0.000000 0.000000 -1.000000 0.000000 1.000000 0.000000 0.000000 0.000000 0.000000 1.000000 2780.dat
1 0 120.000000 -44.000020 0.000000 0.000000 -1.000000 0.000000 1.000000 0.000000 0.000000 0.000000 0.000000 1.000000 2780.dat
1 0 120.000800 -44.110010 -40.000980 0.000000 -1.000000 0.000000 1.000000 0.000000 0.000000 0.000000 0.000000 1.000000 2780.dat
0 STEP
1 16 284.000000 -63.427040 50.000000 -1.000000 0.000000 0.000000 0.000000 0.000000 1.000000 0.000000 1.000000 0.000000 submodel group 9 copy copy copy
0 STEP
1 16 494.333200 -13.247980 -20.000000 1.000000 0.000000 0.000000 0.000000 1.000000 0.000000 0.000000 0.000000 1.000000 submodel group 3
0 STEP
1 16 140.683800 -82.249420 -22.042120 1.000000 0.000000 0.000000 0.000000 1.000000 0.000000 0.000000 0.000000 1.000000 submodel group 2
0 STEP
1 1 60.000000 -93.999980 30.000000 1.000000 -0.000001 -0.000001 0.000001 0.000001 1.000000 -0.000001 -1.000000 0.000001 32526.dat
1 71 60.000000 -94.000000 20.000000 0.000000 0.000000 -1.000000 0.000000 1.000000 0.000000 1.000000 0.000000 0.000000 3673.dat
0 STEP
1 0 84.876840 -310.978900 -9.000000 -0.378649 0.000000 0.925536 0.925540 0.000000 0.378649 0.000000 0.999996 0.000000 2780.dat
1 19 84.877010 -311.741000 -29.000000 0.378647 0.925537 -0.000001 -0.925540 0.378647 0.000001 0.000001 0.000001 0.999996 3749.dat
1 71 88.663520 -320.996400 -29.000000 0.925537 -0.378647 -0.000001 0.378648 0.925540 0.000001 0.000001 -0.000001 0.999996 60483.dat
0 STEP
1 4 125.814400 -305.933600 -9.327000 -0.386681 0.922210 -0.000001 0.922214 0.386679 0.000000 0.000000 -0.000001 -1.000000 32054.dat
1 4 124.749000 -304.842400 -28.699980 -0.386680 0.922210 -0.000001 0.922214 0.386679 0.000000 0.000000 -0.000001 -0.999999 32054.dat
0 STEP
1 0 149.015300 -361.266400 -9.327000 0.922214 0.000002 0.386680 0.386680 0.000001 -0.922214 -0.000002 1.000000 0.000000 32013.dat
1 0 147.949800 -360.175500 -28.699980 0.922215 0.000002 0.386680 0.386682 0.000001 -0.922214 -0.000002 1.000000 0.000000 32013.dat
1 4 136.349300 -332.508800 -28.699980 -0.386680 0.000000 -0.922214 0.922214 0.000000 -0.386680 0.000000 -1.000000 0.000000 32062.dat
1 4 137.414900 -333.600100 -9.327000 -0.386681 0.000000 -0.922214 0.922214 0.000000 -0.386680 0.000000 -1.000000 0.000000 32062.dat
0 STEP
1 0 157.171900 -356.308800 -28.699980 -0.922213 -0.386681 -0.000002 -0.386681 0.922213 0.000000 0.000002 0.000000 -1.000000 2780.dat
1 0 157.171900 -356.308800 -8.700000 -0.922214 -0.386681 -0.000002 -0.386681 0.922214 0.000000 0.000002 0.000000 -1.000000 2780.dat
1 72 162.527200 -343.219900 -18.699980 0.386681 0.000002 -0.922213 -0.922213 0.000000 -0.386681 -0.000001 1.000000 0.000002 3648b.dat
0 STEP
1 1 103.757200 -227.505600 -70.000030 -0.390734 0.920506 0.000000 0.920504 0.390733 0.000000 0.000000 0.000000 -1.000002 3894.dat
1 1 105.147900 -205.188500 -70.000030 0.000000 0.000000 1.000000 0.000000 1.000000 0.000000 -1.000000 0.000000 0.000000 6558.dat
1 1 128.592000 -260.418700 -70.000030 0.000000 0.000000 1.000000 0.000000 1.000000 0.000000 -1.000000 0.000000 0.000000 6558.dat
0 STEP
1 19 112.705100 -223.706900 -90.000030 0.000000 0.000000 1.000000 0.000000 1.000000 0.000000 -1.000000 0.000000 0.000000 32556.dat
1 19 97.333330 -186.778400 -90.000030 0.000000 0.000000 1.000000 0.000000 1.000000 0.000000 -1.000000 0.000000 0.000000 32556.dat
1 1 103.757600 -227.505900 -90.000030 -0.390733 0.920504 0.000000 0.920504 0.390733 0.000000 0.000000 0.000000 -1.000000 3894.dat
0 STEP
1 1 135.762700 -279.099500 -110.000000 0.923211 -0.000001 -0.384295 0.384295 0.000001 0.923211 0.000000 -1.000000 0.000001 32271.dat
1 71 109.967100 -133.859700 -109.800100 -0.000002 -0.857229 0.514935 0.000000 0.514935 0.857229 -1.000000 0.000001 -0.000001 4519.dat
0 STEP
1 0 109.967100 -133.859700 -149.800000 -0.857229 0.000001 -0.514935 0.514935 0.000000 -0.857229 -0.000001 -1.000000 0.000000 32014.dat
1 71 109.967100 -133.859800 -89.800060 0.857229 0.514935 0.000001 -0.514935 0.857229 0.000000 -0.000001 -0.000001 1.000000 3713.dat
0 STEP
1 71 163.937500 -44.013540 -149.800000 0.857229 0.000000 -0.514936 -0.514935 0.000000 -0.857229 0.000000 1.000000 0.000000 4185.dat
1 71 140.863200 -82.425930 -149.800000 -0.514936 -0.857229 0.000000 -0.857229 0.514936 0.000000 0.000000 0.000000 -1.000000 32073.dat
0 STEP
1 1 128.591900 -260.418600 30.000000 0.000000 0.000000 -1.000000 0.000000 1.000000 0.000000 1.000000 0.000000 0.000000 6558.dat
1 1 105.727900 -204.945800 30.000000 0.000000 0.000000 -1.000000 0.000000 1.000000 0.000000 1.000000 0.000000 0.000000 6558.dat
1 1 104.337500 -227.263200 30.000000 -0.390733 0.920504 0.000000 0.920504 0.390733 0.000000 0.000000 0.000000 -1.000000 3894.dat
0 STEP
1 19 113.542600 -223.355900 50.000000 0.000000 0.000000 -1.000000 0.000000 1.000000 0.000000 1.000000 0.000000 0.000000 32556.dat
1 19 97.913150 -186.535700 50.000000 0.000000 0.000000 -1.000000 0.000000 1.000000 0.000000 1.000000 0.000000 0.000000 32556.dat
1 1 103.757500 -227.505800 50.000000 -0.390733 0.920504 0.000000 0.920504 0.390733 0.000000 0.000000 0.000000 -1.000000 3894.dat
0 STEP
1 71 110.547000 -133.617000 70.080000 -0.000002 -0.857229 0.514935 0.000000 0.514935 0.857229 -1.000000 0.000001 -0.000001 4519.dat
1 1 136.342700 -278.856800 70.000000 0.923211 -0.000001 -0.384294 0.384294 0.000001 0.923211 0.000000 -1.000000 0.000001 32271.dat
0 STEP
1 0 110.547000 -133.617000 110.080100 0.857229 0.000000 -0.514935 -0.514935 0.000000 -0.857229 0.000000 1.000000 0.000001 32014.dat
1 71 110.547800 -133.617700 50.078000 0.857229 0.514935 0.000001 -0.514935 0.857229 0.000000 -0.000001 -0.000001 1.000000 3713.dat
0 STEP
1 71 164.646100 -43.556520 110.080000 0.857229 0.000000 -0.514935 -0.514935 0.000001 -0.857229 0.000000 1.000000 0.000001 4185.dat
1 71 141.443100 -82.183200 110.080100 -0.514935 -0.857229 0.000000 -0.857229 0.514935 -0.000001 0.000001 0.000000 -1.000000 32073.dat
0 STEP
1 19 378.668500 -186.221300 -60.000000 0.000001 -0.866028 -0.499996 0.000002 -0.499996 0.866028 -1.000000 -0.000002 0.000001 3749.dat
1 71 370.934800 -167.777000 -40.000000 -0.000001 -0.386681 -0.922217 -0.000001 0.922214 -0.386682 1.000004 0.000000 -0.000001 3673.dat
1 15 378.668500 -186.221300 -50.000030 -0.922217 0.000000 -0.386682 -0.386683 -0.000002 0.922213 0.000000 1.000004 0.000002 64290.dat
0 STEP
1 1 340.000900 -94.000270 -70.000000 0.999996 -0.000001 -0.000001 0.000001 0.000001 0.999998 -0.000001 -0.999998 0.000001 32526.dat
1 71 340.000800 -94.000260 -60.000000 0.000000 0.000000 -1.000000 0.000000 1.000000 0.000000 1.000000 0.000000 0.000000 3673.dat
0 STEP
1 1 417.336800 -278.442700 -50.000030 -0.000001 0.922217 -0.386681 -0.000001 0.386682 0.922214 1.000004 0.000001 0.000000 6558.dat
1 1 401.869500 -241.554200 -50.000030 -0.000001 0.922217 -0.386681 -0.000001 0.386682 0.922214 1.000004 0.000001 0.000000 6558.dat
1 14 393.007300 -235.482700 -37.490010 -0.922217 0.000001 0.386681 -0.386682 0.000001 -0.922214 -0.000001 -1.000004 -0.000001 12344.dat
0 STEP
1 16 401.995800 -82.220180 0.211500 0.862088 -0.506758 -0.000001 0.506758 0.862088 0.000000 0.000001 0.000000 1.000000 submodel group 1
0 STEP
1 1 339.999100 -94.000060 30.000000 1.000000 -0.000001 -0.000001 0.000001 0.000001 1.000000 -0.000001 -1.000000 0.000001 32526.dat
1 71 339.999600 -94.000240 19.998990 0.000000 0.000000 -1.000006 0.000000 1.000000 0.000000 1.000006 0.000000 0.000000 3673.dat
0 STEP
1 1 400.379600 -263.865600 29.998990 0.386681 0.922217 -0.000001 -0.922214 0.386682 -0.000001 -0.000001 0.000001 1.000004 3701.dat
1 1 400.382200 -263.864100 -70.000000 0.386679 0.922212 -0.000001 -0.922209 0.386680 -0.000001 0.000000 0.000001 1.000004 3701.dat
0 STEP
1 0 365.999800 -310.512100 -9.000000 -0.378650 0.000000 0.925540 0.925540 0.000000 0.378650 0.000000 1.000000 0.000000 2780.dat
1 19 365.999900 -311.274200 -29.000000 0.378649 0.925541 -0.000001 -0.925541 0.378649 0.000001 0.000001 0.000001 1.000000 3749.dat
1 71 369.786300 -320.529600 -29.000000 0.925541 -0.378649 -0.000001 0.378649 0.925541 0.000001 0.000001 -0.000001 1.000000 60483.dat
0 STEP
1 4 405.937900 -304.467100 -9.327000 -0.386681 0.922214 -0.000001 0.922214 0.386681 0.000000 0.000000 -0.000001 -1.000000 32054.dat
1 4 418.538300 -333.133500 -9.327000 -0.386681 0.000000 -0.922214 0.922214 0.000000 -0.386681 0.000000 -1.000000 0.000000 32062.dat
1 4 405.872300 -304.375800 -28.699980 -0.386681 0.922214 -0.000001 0.922214 0.386681 0.000000 0.000000 -0.000001 -1.000000 32054.dat
1 4 417.472700 -332.042200 -28.699980 -0.386681 0.000000 -0.922214 0.922214 0.000000 -0.386681 0.000000 -1.000000 0.000000 32062.dat
0 STEP
1 72 443.650700 -342.753000 -18.699980 0.000000 0.386681 -0.922213 0.000000 -0.922213 -0.386681 -1.000000 0.000000 0.000000 3648b.dat
1 19 438.295300 -355.842000 -28.699980 -0.922214 0.000000 -0.386681 -0.386682 0.000001 0.922214 0.000000 1.000000 -0.000001 3749.dat
1 4 421.405200 -341.355600 -9.327000 0.922213 0.000000 -0.386682 0.386682 0.000000 0.922213 0.000000 -1.000000 0.000000 32039.dat
1 4 421.339600 -341.264300 -28.699980 0.922214 0.000000 -0.386681 0.386681 0.000000 0.922214 0.000000 -1.000000 0.000000 32039.dat
1 19 438.295400 -355.842000 -8.700000 -0.922214 -0.000001 -0.386681 -0.386681 0.000001 0.922214 0.000000 1.000000 -0.000001 3749.dat
0 STEP
1 0 499.999800 -93.999840 -19.960010 0.000000 0.000000 -1.000000 0.000000 1.000000 0.000000 1.000000 0.000000 0.000000 3705.dat
1 72 499.999800 -93.999870 -20.100010 -1.000000 0.000000 0.000000 0.000000 -1.000000 0.000000 0.000000 0.000000 1.000000 3648b.dat
0 STEP
1 14 499.999800 -93.999840 5.050000 0.000000 -1.000000 0.000000 -1.000000 0.000000 0.000000 0.000000 0.000000 -1.000000 32123a.dat
1 14 499.999800 -93.999840 -44.410040 0.000000 -1.000000 0.000000 -1.000000 0.000000 0.000000 0.000000 0.000000 -1.000000 32123a.dat
0 STEP
1 72 499.999900 -113.999600 -55.170030 1.000000 0.000000 0.000000 0.000000 1.000000 0.000000 0.000000 0.000000 1.000000 6575.dat
1 1 378.096100 -187.098400 -70.230960 0.506758 0.000001 0.862088 -0.862089 0.000001 0.506758 0.000000 -1.000000 0.000001 32271.dat
0 STEP
1 71 499.999800 -133.999900 -68.819950 0.000000 1.000000 0.000000 0.000000 0.000000 1.000000 1.000000 0.000000 0.000000 4519.dat
1 0 499.999800 -133.999900 -108.820000 0.000000 -1.000000 0.000000 -1.000000 0.000000 0.000000 0.000000 0.000000 -1.000000 32014.dat
0 STEP
1 71 625.199800 -133.999900 -108.820000 0.000000 0.000000 1.000000 0.000000 1.000000 0.000000 -1.000000 0.000000 0.000000 4185.dat
1 0 569.999800 -133.999900 -108.820000 -1.000000 0.000000 0.000000 0.000000 1.000000 0.000000 0.000000 0.000000 -1.000000 3706.dat
0 STEP
1 72 499.999800 -113.999900 15.260000 1.000000 0.000000 0.000000 0.000000 1.000000 0.000000 0.000000 0.000000 1.000000 6575.dat
1 1 378.096000 -187.098600 30.720000 0.506758 0.000001 0.862088 -0.862088 0.000001 0.506758 0.000000 -1.000000 0.000001 32271.dat
0 STEP
1 71 499.999800 -133.999900 29.200000 0.000000 1.000000 0.000000 0.000000 0.000000 1.000000 1.000000 0.000000 0.000000 4519.dat
1 0 499.999800 -133.999900 69.200000 0.000000 0.000000 -1.000000 -1.000000 0.000000 0.000000 0.000000 1.000000 0.000000 32014.dat
0 STEP
1 71 624.959700 -133.999900 69.200000 0.000000 0.000000 1.000000 0.000000 1.000000 0.000000 -1.000000 0.000000 0.000000 4185.dat
1 0 569.999800 -133.999900 69.200000 -1.000000 0.000000 0.000000 0.000000 1.000000 0.000000 0.000000 0.000000 -1.000000 3706.dat
0 STEP
1 0 559.999800 -13.999870 0.000000 0.000000 0.000000 -1.000000 0.000000 1.000000 0.000000 1.000000 0.000000 0.000000 2780.dat
1 0 519.999600 -13.999870 -0.002000 0.000000 0.000000 -1.000002 0.000000 1.000000 0.000000 1.000002 0.000000 0.000000 2780.dat
0 STEP
1 1 619.999900 -23.999870 -50.000030 1.000000 0.000000 0.000000 0.000000 1.000000 0.000000 0.000000 0.000000 1.000000 3895.dat
1 0 559.999800 -13.999870 -40.000000 0.000000 0.000000 -1.000000 0.000000 1.000000 0.000000 1.000000 0.000000 0.000000 2780.dat
1 0 519.999800 -13.999870 -40.000000 0.000000 0.000000 -1.000000 0.000000 1.000000 0.000000 1.000000 0.000000 0.000000 2780.dat
0 STEP
1 0 719.999800 -13.999840 -40.000000 0.000000 0.000000 -1.000000 0.000000 1.000000 0.000000 1.000000 0.000000 0.000000 2780.dat
1 0 699.999900 -13.999860 -40.000000 0.000000 0.000000 -1.000000 0.000000 1.000000 0.000000 1.000000 0.000000 0.000000 2780.dat
1 1 839.999900 -13.999880 -30.000000 0.000000 0.000000 1.000000 -1.000000 0.000000 0.000000 0.000000 -1.000000 0.000000 32009.dat
0 STEP
1 0 759.999900 -13.999870 -20.000000 0.000000 0.000000 -1.000000 0.000000 1.000000 0.000000 1.000000 0.000000 0.000000 2780.dat
1 0 739.999900 -13.999870 -20.000000 0.000000 0.000000 -1.000000 0.000000 1.000000 0.000000 1.000000 0.000000 0.000000 2780.dat
1 1 839.999900 -13.999840 -10.000000 0.000000 0.000000 1.000000 -1.000000 0.000000 0.000000 0.000000 -1.000000 0.000000 32009.dat
0 STEP
1 1 619.999800 -23.999870 10.000000 1.000000 0.000000 0.000000 0.000000 1.000000 0.000000 0.000000 0.000000 1.000000 3895.dat
1 0 719.999900 -13.999870 0.000000 0.000000 0.000000 -1.000000 0.000000 1.000000 0.000000 1.000000 0.000000 0.000000 2780.dat
1 0 699.999900 -13.999870 -0.001010 0.000000 0.000000 -1.000001 0.000000 1.000000 0.000000 1.000001 0.000000 0.000000 2780.dat
0 STEP
1 1 639.999900 -73.999840 -70.000000 1.000000 -0.000001 -0.000001 0.000001 0.000001 1.000000 -0.000001 -1.000000 0.000001 32140.dat
1 0 659.999800 -13.999870 -60.000000 0.000000 0.000000 -1.000000 0.000000 1.000000 0.000000 1.000000 0.000000 0.000000 2780.dat
1 71 639.999900 -13.999870 -60.000000 0.000000 0.000000 -1.000000 0.000000 1.000000 0.000000 1.000000 0.000000 0.000000 3673.dat
0 STEP
1 1 639.999900 -73.999840 30.000000 1.000000 -0.000001 -0.000001 0.000001 0.000001 1.000000 -0.000001 -1.000000 0.000001 32140.dat
1 0 659.999800 -13.999870 20.000000 0.000000 0.000000 -1.000000 0.000000 1.000000 0.000000 1.000000 0.000000 0.000000 2780.dat
1 71 639.999800 -13.999870 20.000000 0.000000 0.000000 -1.000000 0.000000 1.000000 0.000000 1.000000 0.000000 0.000000 3673.dat
0 STEP
1 19 639.999900 -73.999870 20.000000 -0.000001 1.000000 -0.000001 0.000001 0.000001 1.000000 1.000000 0.000001 -0.000001 3749.dat
1 19 639.999900 -73.999800 -60.000000 -0.000001 1.000000 -0.000001 -0.000001 -0.000001 -1.000000 -1.000000 -0.000001 0.000001 3749.dat
0 STEP
1 71 647.070900 -95.213050 -20.000000 0.707109 -0.000001 -0.707104 0.707104 0.000001 0.707109 0.000000 -1.000000 0.000001 3649.dat
1 0 639.999900 -73.999870 10.000000 0.707104 0.000001 -0.707109 -0.707109 0.000000 -0.707105 -0.000001 1.000000 0.000001 15100.dat
1 0 639.999900 -73.999780 -50.000030 0.707104 0.000001 -0.707109 -0.707109 0.000000 -0.707104 -0.000001 1.000000 0.000001 15100.dat
0 STEP
1 19 686.862700 -127.136800 -60.000000 0.000000 0.707108 0.707105 0.000002 -0.707105 0.707108 1.000000 0.000002 -0.000001 3749.dat
1 1 799.999900 -13.999870 -50.000030 0.000000 0.000000 -1.000000 0.000000 1.000000 0.000000 1.000000 0.000000 0.000000 6558.dat
1 15 743.431300 -70.568400 -70.000000 0.707107 -0.000001 0.707107 -0.707107 -0.000001 0.707107 0.000000 -1.000000 -0.000001 40490.dat
0 STEP
1 19 665.649700 -134.207900 -50.000030 -0.707107 0.000000 0.707107 0.707107 0.000002 0.707107 -0.000002 1.000000 -0.000002 3749.dat
1 0 658.578400 -127.136700 -50.000980 0.000000 -0.707106 -0.707108 -0.000001 -0.707107 0.707106 -1.000000 0.000000 -0.000001 32270.dat
1 0 686.862700 -127.136700 -50.000030 0.000001 -0.707106 -0.707107 -0.000001 -0.707107 0.707106 -1.000000 0.000000 -0.000001 6536.dat
0 STEP
1 1 799.999900 -13.999860 10.000000 0.000000 0.000000 -1.000000 0.000000 -1.000000 0.000000 -1.000000 0.000000 0.000000 6558.dat
1 19 686.862700 -127.136700 20.000000 0.000001 -0.707108 -0.707105 0.000002 -0.707105 0.707108 -1.000000 -0.000002 0.000001 3749.dat
1 15 743.431300 -70.568390 30.000000 0.707107 -0.000001 0.707107 -0.707106 -0.000001 0.707106 0.000000 -1.000000 -0.000001 40490.dat
0 STEP
1 19 665.649800 -134.207900 9.998000 -0.707106 0.000000 0.707107 0.707105 0.000002 0.707106 -0.000002 1.000002 -0.000002 3749.dat
1 0 658.578600 -127.136800 9.998000 0.000000 -0.707106 -0.707107 -0.000001 -0.707107 0.707105 -1.000002 0.000000 -0.000001 32270.dat
1 0 686.862700 -127.136700 10.000000 0.000001 -0.707106 -0.707108 -0.000001 -0.707108 0.707106 -1.000000 0.000000 -0.000001 6536.dat
0 STEP
1 0 839.999900 -73.999860 -40.000000 0.000000 -1.000000 0.000000 0.000000 0.000000 1.000000 -1.000000 0.000000 0.000000 2780.dat
1 0 839.999900 -53.999860 0.000000 0.000000 -1.000000 0.000000 0.000000 0.000000 -1.000000 1.000000 0.000000 0.000000 2780.dat
1 0 839.999900 -73.999810 0.000000 0.000000 -1.000000 0.000000 0.000000 0.000000 -1.000000 1.000000 0.000000 0.000000 2780.dat
1 0 839.999900 -53.999790 -40.001960 0.000000 -1.000000 0.000000 0.000000 0.000000 0.999999 -0.999999 0.000000 0.000000 2780.dat
0 STEP
1 19 919.999800 -193.999900 0.000000 -0.000001 1.000000 -0.000001 0.000001 0.000001 1.000000 1.000000 0.000001 -0.000001 3749.dat
1 1 919.999800 -203.999800 -10.000000 1.000000 0.000000 0.000000 0.000000 1.000000 0.000000 0.000000 0.000000 1.000000 3701.dat
1 0 899.999800 -193.999900 0.000000 0.000000 0.000000 -1.000000 0.000000 1.000000 0.000000 1.000000 0.000000 0.000000 2780.dat
1 1 839.999800 -193.999900 10.000000 1.000000 0.000000 0.000000 0.000000 0.000000 -1.000000 0.000000 1.000000 0.000000 32009.dat
0 STEP
1 1 919.999800 -203.999800 -30.000000 1.000000 0.000000 0.000000 0.000000 1.000000 0.000000 0.000000 0.000000 1.000000 3701.dat
1 0 939.999800 -193.999900 -20.000000 0.000000 0.000000 -1.000000 0.000000 1.000000 0.000000 1.000000 0.000000 0.000000 2780.dat
0 STEP
1 1 939.999800 -179.999900 -20.000000 1.000000 0.000000 0.000000 0.000000 1.000000 0.000000 0.000000 0.000000 1.000000 32001.dat
1 0 899.999800 -193.999900 -40.000000 0.000000 0.000000 -1.000000 0.000000 1.000000 0.000000 1.000000 0.000000 0.000000 2780.dat
1 19 919.999500 -193.999900 -40.000000 -0.000001 1.000000 -0.000001 -0.000001 -0.000001 -1.000000 -1.000000 -0.000001 0.000001 3749.dat
0 STEP
1 1 839.999500 -193.999900 -50.000030 1.000000 0.000000 0.000000 0.000000 0.000000 -1.000000 0.000000 1.000000 0.000000 32009.dat
0 STEP
1 1 939.999800 -211.999800 -20.000000 1.000000 0.000000 0.000000 0.000000 1.000000 0.000000 0.000000 0.000000 1.000000 32001.dat
1 1 959.999800 -235.999800 -30.000000 1.000000 0.000000 0.000000 0.000000 1.000000 0.000000 0.000000 0.000000 1.000000 3701.dat
1 1 959.999800 -235.999800 -10.000000 1.000000 0.000000 0.000000 0.000000 1.000000 0.000000 0.000000 0.000000 1.000000 3701.dat
0 STEP
1 0 1020.000000 -225.999800 -20.030000 0.000000 0.000000 1.000000 0.000000 1.000000 0.000000 -1.000000 0.000000 0.000000 3705.dat
1 72 979.999800 -225.999800 0.000000 -0.000001 0.000000 -1.000000 0.000000 1.000000 0.000000 1.000000 0.000000 -0.000001 32002.dat
1 72 939.999500 -225.999800 5.000000 -0.000001 -0.000001 1.000000 -1.000000 0.000001 -0.000001 -0.000001 -1.000000 -0.000001 32250.dat
0 STEP
1 14 1020.000000 -225.999800 -34.689910 1.000000 0.000000 0.000000 0.000000 1.000000 0.000000 0.000000 0.000000 1.000000 32123a.dat
1 0 1020.000000 -225.999800 -19.680100 0.000000 0.000000 1.000000 0.000000 1.000000 0.000000 -1.000000 0.000000 0.000000 32291.dat
1 14 1020.000000 -225.999800 -4.580000 1.000000 0.000000 0.000000 0.000000 1.000000 0.000000 0.000000 0.000000 1.000000 32123a.dat
0 STEP
1 72 979.999800 -225.999800 -39.939910 -0.000001 0.000000 -1.000000 0.000000 -1.000000 0.000000 -1.000000 0.000000 0.000001 32002.dat
1 72 939.999800 -225.999800 -44.939940 -0.000001 -0.000001 1.000000 -1.000000 0.000001 -0.000001 -0.000001 -1.000000 -0.000001 32250.dat
1 71 939.999800 -225.999800 -19.940000 0.000000 0.000000 1.000000 0.000000 1.000000 0.000000 -1.000000 0.000000 0.000000 32073.dat
0 STEP
1 14 1020.000000 -225.999800 15.130000 0.000000 1.000000 0.000000 -1.000000 0.000000 0.000000 0.000000 0.000000 1.000000 32123a.dat
1 14 1020.000000 -225.999800 -54.920030 0.000000 1.000000 0.000000 -1.000000 0.000000 0.000000 0.000000 0.000000 1.000000 32123a.dat
0 STEP
1 71 939.999800 -225.999800 20.060100 0.000000 -1.000000 0.000000 1.000000 0.000000 0.000001 -0.000001 0.000000 1.000000 94925.dat
1 71 939.999800 -225.999800 -59.939940 0.000000 -1.000000 0.000000 1.000000 0.000000 0.000001 -0.000001 0.000000 1.000000 94925.dat
0 STEP
1 1 929.999800 -259.999900 -20.000000 0.000000 0.000000 1.000000 0.000000 1.000000 0.000000 -1.000000 0.000000 0.000000 3700.dat
1 0 919.999900 -249.999800 -20.000000 1.000001 0.000000 0.000000 0.000000 1.000000 0.000000 0.000000 0.000000 1.000001 2780.dat
0 STEP
1 0 909.999900 -301.621700 53.723020 0.000000 0.000000 1.000000 0.573576 0.819152 0.000000 -0.819153 0.573576 0.000000 3707.dat
1 0 909.999900 -249.999800 -20.000000 -1.000000 0.000000 0.000000 0.000000 0.819152 0.573576 0.000000 0.573576 -0.819152 32015.dat
1 0 909.999900 -298.167800 -95.797000 0.000000 0.000000 -1.000000 0.537294 0.843395 0.000000 0.843395 -0.537294 0.000000 3707.dat
0 STEP
1 15 989.996400 -283.999800 -10.001080 0.000000 0.000000 -0.999995 0.000000 1.000000 0.000000 0.999995 0.000000 0.000000 3040b.dat
1 15 989.999900 -283.999800 -30.000120 0.000000 0.000000 -1.000000 0.000000 1.000000 0.000000 1.000000 0.000000 0.000000 3040b.dat
1 15 979.999800 -259.999800 -20.000000 1.000000 0.000000 0.000000 0.000000 1.000000 0.000000 0.000000 0.000000 1.000000 3001.dat
0 STEP
1 15 949.998400 -307.999800 -30.002110 0.000000 0.000000 -1.000000 0.000000 1.000000 0.000000 1.000000 0.000000 0.000000 3040b.dat
1 15 950.000000 -307.999800 -10.000720 0.000000 0.000000 -1.000000 0.000000 1.000000 0.000000 1.000000 0.000000 0.000000 3040b.dat
1 15 969.999900 -283.999800 -20.000860 0.000000 0.000000 1.000000 0.000000 1.000000 0.000000 -1.000000 0.000000 0.000000 32064a.dat
1 15 950.000000 -283.999800 -20.000790 0.000000 0.000000 1.000000 0.000000 1.000000 0.000000 -1.000000 0.000000 0.000000 32064a.dat
0 STEP
0 STEP
0 NOFILE
0 FILE SubModel Group 9 Copy Copy Copy
0 SubModel Group 9 Copy Copy Copy
0 Name:  SubModel Group 9 Copy Copy Copy
0 Author:  
0 CustomBrick
0 NumOfBricks:  3
1 72 10.000000 -1.128810 -10.000000 1.000000 0.000000 0.000000 0.000000 0.000000 -1.000000 0.000000 1.000000 0.000000 dch003.dat
1 71 -27.466620 -79.717990 29.427020 1.000000 0.000000 0.000000 0.000000 0.000000 -1.000000 0.000000 1.000000 0.000000 dch004.dat
1 25 7.837010 13.484720 -9.965000 1.000000 0.000000 0.000000 0.000000 0.000000 -1.000000 0.000000 1.000000 0.000000 dch005.dat
0 NOFILE
0 FILE SubModel Group 3
0 SubModel Group 3
0 Name:  SubModel Group 3
0 Author:  
0 CustomBrick
1 47 5.666630 -58.751840 0.000000 -1.000000 0.000000 0.000000 0.000000 1.000000 0.000000 0.000000 0.000000 -1.000000 6588.dat
1 71 5.666630 -40.751900 0.000000 0.000000 0.000000 -1.000000 0.000000 1.000000 0.000000 1.000000 0.000000 0.000000 4716.dat
1 71 -4.333370 -40.751900 0.000000 1.000000 0.000000 0.000000 0.000000 1.000000 0.000000 0.000000 0.000000 1.000000 32073.dat
0 STEP
1 1 5.666630 -18.751880 0.000000 1.000000 0.000000 0.000000 0.000000 1.000000 0.000000 0.000000 0.000000 1.000000 3709b.dat
1 14 40.666630 -40.751900 0.000000 0.000000 0.000000 -1.000000 0.000000 1.000000 0.000000 1.000000 0.000000 0.000000 32123a.dat
0 STEP
1 15 -35.333130 -117.881100 0.000000 0.000000 0.000000 -1.000000 0.000000 1.000000 0.000000 1.000000 0.000000 0.000000 dx0076.dat.dat
0 STEP
0 NOFILE
0 FILE SubModel Group 2
0 SubModel Group 2
0 Name:  SubModel Group 2
0 Author:  
0 CustomBrick
0 NumOfBricks:  14
1 71 -49.749110 -85.527770 22.040200 0.000000 0.000000 -1.000000 0.000000 1.000000 0.000000 1.000000 0.000000 0.000000 3673.dat
1 15 -42.577160 -104.205300 32.042170 0.924548 -0.000001 0.381066 0.381066 0.000001 -0.924548 0.000001 1.000000 0.000001 64290.dat
0 STEP
1 14 -28.734210 -153.791400 3.926190 -0.922213 0.000001 0.386681 -0.386681 0.000000 -0.922213 -0.000001 -1.000001 0.000000 12344.dat
1 0 -4.470730 -196.660100 22.042170 0.000000 0.000000 -1.000000 0.000000 1.000000 0.000000 1.000000 0.000000 0.000000 2780.dat
1 0 -19.713270 -159.678300 22.042170 0.000000 0.000000 -1.000000 0.000000 1.000000 0.000000 1.000000 0.000000 0.000000 2780.dat
0 STEP
1 71 30.250530 -85.527740 2.552280 0.000000 0.000000 -0.999997 0.000000 1.000000 0.000000 0.999997 0.000000 0.000000 3673.dat
1 71 150.251300 -85.527620 2.552040 0.000000 0.000000 -1.000000 0.000000 1.000000 0.000000 1.000000 0.000000 0.000000 3673.dat
1 15 90.250320 -85.527680 12.039100 0.000001 0.000001 -1.000000 -1.000000 0.000001 -0.000001 0.000001 1.000000 0.000001 64871.dat
0 STEP
1 71 -50.198390 -85.714450 -17.957850 0.000000 0.000000 -1.000000 0.000000 1.000000 0.000000 1.000000 0.000000 0.000000 3673.dat
1 15 90.251010 -85.527680 -7.957850 0.000001 0.000001 -1.000000 -1.000000 0.000001 -0.000001 0.000001 1.000000 0.000001 64871.dat
0 STEP
1 15 -42.577100 -104.205400 -27.957850 0.924548 -0.000001 0.381066 0.381066 0.000001 -0.924548 0.000001 1.000000 0.000001 64290.dat
1 14 -28.799820 -153.700100 -15.446860 -0.922213 0.000001 0.386681 -0.386681 0.000001 -0.922213 -0.000001 -1.000001 0.000000 12344.dat
1 0 -4.470360 -196.660200 -17.957850 0.000000 -0.000001 -0.999996 0.000000 1.000001 -0.000001 1.000000 0.000000 0.000000 2780.dat
1 0 -19.713090 -159.678300 -17.957850 0.000000 0.000000 -1.000000 0.000000 1.000000 0.000000 1.000000 0.000000 0.000000 2780.dat
0 STEP
0 NOFILE
0 FILE SubModel Group 1
0 SubModel Group 1
0 Name:  SubModel Group 1
0 Author:  
0 CustomBrick
0 NumOfBricks:  6
1 19 -73.751780 -78.303000 19.178530 0.000000 1.000000 0.000000 0.000000 0.000000 1.000000 1.000000 0.000000 -0.000001 3749.dat
1 1 -80.853670 -137.295500 9.787530 0.000000 0.990987 -0.133986 0.000001 -0.133987 -0.990984 -1.000004 0.000000 0.000000 6558.dat
1 1 -86.213090 -176.934800 9.787519 0.000000 0.990987 -0.133986 0.000001 -0.133987 -0.990984 -1.000004 0.000000 0.000000 6558.dat
1 15 -72.814440 -77.836700 9.787539 -0.990987 0.000001 0.133985 0.133986 -0.000003 0.990983 0.000001 1.000004 0.000002 64290.dat
0 STEP
1 71 -70.134760 -58.017000 -0.213440 0.000000 0.133986 -0.990987 -0.000001 0.990984 0.133987 1.000004 0.000000 0.000000 3673.dat
1 14 -85.405640 -127.682800 -18.327460 -0.990987 0.000000 -0.133986 0.133987 0.000000 -0.990984 0.000000 -1.000004 0.000000 12344.dat
0 STEP
0 NOFILE
