0 FILE 伸缩门.io
0 Untitled Model
0 Name:  伸缩门
0 Author:  
0 CustomBrick
0 NumOfBricks:  62
1 1 -367.407000 -85.999980 119.998200 -1.000001 0.000000 0.000000 0.000000 1.000000 0.000000 0.000000 0.000000 -1.000001 6558.dat
1 71 -357.407000 -85.999980 139.998200 0.000000 0.000000 1.000000 0.000000 1.000000 0.000000 -1.000000 0.000000 0.000000 58120.dat
1 1 -367.407000 -85.999980 159.998200 -1.000001 0.000000 0.000000 0.000000 1.000000 0.000000 0.000000 0.000000 -1.000001 6558.dat
0 STEP
1 1 -367.407000 -95.999980 139.998200 0.000000 0.000000 -1.000001 0.000000 1.000000 0.000000 1.000001 0.000000 0.000000 3701.dat
1 1 -387.407000 -95.999980 139.998200 0.000000 0.000000 -1.000001 0.000000 1.000000 0.000000 1.000001 0.000000 0.000000 3701.dat
1 71 -408.687000 -85.999980 139.998200 1.000001 0.000000 0.000000 0.000000 1.000000 0.000000 0.000000 0.000000 1.000001 44294.dat
0 STEP
1 1 -377.407000 -71.999980 139.998200 0.000000 0.000000 -1.000001 0.000000 1.000000 0.000000 1.000001 0.000000 0.000000 32001.dat
1 1 -377.407000 -63.999980 139.998200 0.000000 0.000000 -1.000001 0.000000 1.000000 0.000000 1.000001 0.000000 0.000000 32001.dat
0 STEP
1 1 -357.407100 -55.999980 89.998170 1.000000 0.000000 0.000000 0.000000 1.000000 0.000000 0.000000 0.000000 1.000000 3895.dat
1 1 -357.407400 -55.999980 189.998100 1.000002 0.000000 0.000000 0.000000 1.000000 0.000000 0.000000 0.000000 1.000002 3895.dat
0 STEP
1 1 -237.407500 -55.999980 140.000200 -1.000000 0.000000 0.000000 0.000000 1.000000 0.000000 0.000000 0.000000 -1.000000 3709b.dat
1 1 -257.407000 -47.999980 139.999500 0.000000 0.000000 1.000002 0.000000 1.000000 0.000000 -1.000002 0.000000 0.000000 3709b.dat
1 1 -257.407000 -31.999980 139.998200 0.000000 0.000000 1.000002 0.000000 1.000000 0.000000 -1.000002 0.000000 0.000000 32001.dat
1 1 -257.407000 -39.999980 139.998000 0.000000 0.000000 1.000003 0.000000 1.000000 0.000000 -1.000003 0.000000 0.000000 3709b.dat
0 STEP
1 71 -437.567100 -85.999980 139.998100 0.000000 0.000000 1.000000 0.000000 1.000000 0.000000 -1.000000 0.000000 0.000000 4716.dat
1 47 -437.647200 -67.999980 139.998200 1.000001 0.000000 0.000000 0.000000 -1.000000 0.000000 0.000000 0.000000 -1.000001 6588.dat
0 STEP
1 72 -437.647100 -45.999960 139.798200 -0.998027 0.062791 0.000000 -0.062791 -0.998027 0.000000 0.000000 0.000000 1.000000 3648b.dat
1 0 -297.407100 -45.999980 139.598100 0.000000 0.000000 1.000000 0.000000 1.000000 0.000000 -1.000000 0.000000 0.000000 3707.dat
1 0 -437.647200 -45.999960 140.608200 0.000000 -0.062791 0.998028 0.000000 0.998027 0.062791 -1.000001 0.000000 0.000000 3707.dat
0 STEP
1 0 -297.406800 -45.999980 220.554700 -1.000000 0.000000 -0.000001 0.000000 1.000000 0.000000 0.000001 0.000000 -1.000000 30391.dat
1 71 -297.407000 -45.999980 220.298100 0.000000 1.000000 0.000000 1.000000 0.000000 0.000000 0.000000 0.000000 -1.000000 55982.dat
1 0 -437.646900 -45.999930 220.274900 -0.998027 -0.062791 -0.000001 -0.062791 0.998027 0.000000 0.000001 0.000000 -1.000000 30391.dat
1 71 -437.647200 -45.999940 220.018200 -0.062791 0.998027 0.000000 0.998026 0.062791 0.000000 0.000000 0.000000 -1.000000 55982.dat
0 STEP
1 0 -297.407300 -45.999990 59.691480 1.000000 0.000000 0.000001 0.000000 1.000001 0.000000 -0.000001 0.000000 1.000000 30391.dat
1 71 -297.407100 -46.000000 59.948120 0.000000 -1.000000 0.000000 0.999999 0.000000 0.000000 0.000000 0.000000 1.000000 55982.dat
1 0 -437.647100 -45.999980 59.631410 0.998027 -0.062791 0.000001 0.062791 0.998029 0.000000 -0.000001 0.000000 1.000000 30391.dat
1 71 -437.647200 -45.999960 59.888120 -0.062791 -0.998027 0.000000 0.998027 -0.062791 0.000000 0.000000 0.000000 1.000000 55982.dat
0 STEP
1 71 -217.407400 -69.999980 120.000200 0.000000 0.000000 -1.000000 0.000000 1.000000 0.000000 1.000000 0.000000 0.000000 3673.dat
1 1 -217.407400 -79.999980 130.000200 1.000000 0.000000 0.000000 0.000000 1.000000 0.000000 0.000000 0.000000 1.000000 3700.dat
1 1 -217.407400 -79.999980 150.000200 1.000000 0.000000 0.000000 0.000000 1.000000 0.000000 0.000000 0.000000 1.000000 3700.dat
0 STEP
1 71 -181.172900 -205.229600 120.000300 0.000000 0.000000 -1.000000 0.000000 1.000000 0.000000 1.000000 0.000000 0.000000 3673.dat
1 71 -144.938400 -340.459400 120.000400 0.000000 0.000000 -1.000000 0.000000 1.000000 0.000000 1.000000 0.000000 0.000000 3673.dat
1 15 -181.172900 -205.229600 110.000300 0.965926 -0.000001 -0.258818 0.258818 -0.000001 0.965926 -0.000001 -1.000000 -0.000001 64871.dat
0 STEP
1 71 -144.938400 -70.000000 120.000300 0.000000 0.000000 -1.000000 0.000000 1.000000 0.000000 1.000000 0.000000 0.000000 3673.dat
1 15 -181.172900 -205.229700 130.000300 -0.965926 0.000001 0.258818 0.258818 -0.000001 0.965926 0.000001 1.000000 0.000000 64871.dat
0 STEP
1 15 -108.703900 -205.229700 110.000400 0.965926 -0.000001 -0.258818 0.258818 -0.000001 0.965926 -0.000001 -1.000000 -0.000001 64871.dat
1 71 -108.703800 -205.229700 120.000400 0.000000 0.000000 -1.000000 0.000000 1.000000 0.000000 1.000000 0.000000 0.000000 3673.dat
1 71 -72.469400 -340.459400 120.000400 0.000000 0.000000 -1.000000 0.000000 1.000000 0.000000 1.000000 0.000000 0.000000 3673.dat
0 STEP
1 71 -72.469400 -70.000020 120.000400 0.000000 0.000000 -1.000000 0.000000 1.000000 0.000000 1.000000 0.000000 0.000000 3673.dat
1 15 -108.703900 -205.229700 130.000400 -0.965926 0.000001 0.258818 0.258818 -0.000001 0.965926 0.000001 1.000000 0.000000 64871.dat
0 STEP
1 15 -36.234660 -205.229600 110.000100 0.965929 -0.000001 -0.258819 0.258818 -0.000001 0.965926 -0.000001 -1.000002 -0.000001 64871.dat
1 71 -36.234590 -205.229600 120.000100 0.000000 0.000000 -1.000002 0.000000 1.000000 0.000000 1.000002 0.000000 0.000000 3673.dat
0 STEP
1 71 0.000210 -70.000000 120.000100 0.000000 0.000000 -1.000002 0.000000 1.000000 0.000000 1.000002 0.000000 0.000000 3673.dat
1 15 -36.234720 -205.229600 130.000100 -0.965929 0.000001 0.258819 0.258818 -0.000001 0.965926 0.000001 1.000002 0.000000 64871.dat
0 STEP
1 1 0.000510 -56.000000 100.000100 0.000000 0.000000 1.000000 0.000000 1.000000 0.000000 -1.000000 0.000000 0.000000 3709b.dat
1 1 0.000090 -80.000000 90.000000 1.000000 0.000000 0.000000 0.000000 1.000000 0.000000 0.000000 0.000000 1.000000 3700.dat
1 1 0.000090 -80.000000 110.000000 1.000000 0.000000 0.000000 0.000000 1.000000 0.000000 0.000000 0.000000 1.000000 3700.dat
0 STEP
1 1 139.999900 -48.000000 129.999900 1.000000 0.000000 0.000000 0.000000 1.000000 0.000000 0.000000 0.000000 1.000000 3703.dat
1 1 139.999900 -24.000000 129.999900 1.000000 0.000000 0.000000 0.000000 1.000000 0.000000 0.000000 0.000000 1.000000 3703.dat
0 STEP
1 1 140.000000 -48.000000 70.000000 1.000000 0.000000 0.000000 0.000000 1.000000 0.000000 0.000000 0.000000 1.000000 3703.dat
1 1 140.000000 -24.000000 70.000000 1.000000 0.000000 0.000000 0.000000 1.000000 0.000000 0.000000 0.000000 1.000000 3703.dat
0 STEP
1 19 140.000000 -57.100010 100.000000 -0.000001 1.000000 -0.000001 -1.000000 -0.000001 0.000001 0.000001 0.000001 1.000000 3749.dat
1 1 279.999800 -56.000000 100.000000 0.000000 0.000000 1.000000 0.000000 1.000000 0.000000 -1.000000 0.000000 0.000000 3709b.dat
1 1 140.000000 -56.000000 100.000000 0.000000 0.000000 1.000000 0.000000 1.000000 0.000000 -1.000000 0.000000 0.000000 3709b.dat
1 19 279.999800 -57.200000 100.000000 -0.000001 1.000000 -0.000001 -1.000000 -0.000001 0.000001 0.000001 0.000001 1.000000 3749.dat
0 STEP
1 0 279.999800 -87.380020 100.000000 1.000000 0.000000 0.000000 0.000000 0.000000 -1.000000 0.000000 1.000000 0.000000 44309.dat
1 71 279.999800 -87.380000 100.000000 0.000000 -1.000000 0.000000 0.000000 0.000000 -1.000000 1.000000 0.000000 0.000000 56145.dat
1 0 140.000000 -87.400020 100.000000 1.000000 0.000000 0.000000 0.000000 0.000000 -1.000000 0.000000 1.000000 0.000000 44309.dat
1 71 140.000000 -87.400010 100.000000 0.000000 -1.000000 0.000000 0.000000 0.000000 -1.000000 1.000000 0.000000 0.000000 56145.dat
0 STEP
1 16 -328.567100 4.000030 -78.001870 1.000000 0.000000 0.000000 0.000000 1.000000 0.000000 0.000000 0.000000 1.000000 submodel group 9 copy copy copy
0 STEP
0 STEP
0 NOFILE
0 FILE SubModel Group 9 Copy Copy Copy
0 SubModel Group 9 Copy Copy Copy
0 Name:  SubModel Group 9 Copy Copy Copy
0 Author:  
0 CustomBrick
0 NumOfBricks:  3
1 72 10.000000 -1.128810 -10.000000 1.000000 0.000000 0.000000 0.000000 0.000000 -1.000000 0.000000 1.000000 0.000000 dch003.dat
1 71 -27.466620 -79.717990 29.427020 1.000000 0.000000 0.000000 0.000000 0.000000 -1.000000 0.000000 1.000000 0.000000 dch004.dat
1 25 7.837010 13.484720 -9.965000 1.000000 0.000000 0.000000 0.000000 0.000000 -1.000000 0.000000 1.000000 0.000000 dch005.dat
0 NOFILE
