0 Untitled Model
0 Name:  衣架
0 Author:  
0 CustomBrick
0 NumOfBricks:  49
1 1 -80.001550 -32.001980 -9.999940 1.000012 0.000000 0.000000 0.000014 1.000005 0.000000 0.000000 0.000000 1.000000 3703.dat
1 1 -240.003400 -8.004020 -9.999880 1.000000 0.000000 0.000000 0.000000 1.000000 0.000000 0.000000 0.000000 1.000000 3710.dat
0 STEP
1 1 80.000000 -8.000000 -10.000000 1.000000 0.000000 0.000000 0.000000 1.000000 0.000000 0.000000 0.000000 1.000000 3710.dat
1 0 -80.695120 -22.005140 0.001100 0.000000 -0.615669 -0.788005 0.000000 0.788005 -0.615669 1.000000 0.000000 0.000000 2780.dat
0 STEP
1 1 -280.003400 -32.004040 -9.999880 1.000000 0.000000 0.000000 0.000000 1.000000 0.000000 0.000000 0.000000 1.000000 3701.dat
1 1 -80.001380 -40.001980 -9.999940 1.000012 0.000000 0.000000 0.000014 1.000005 0.000000 0.000000 0.000000 1.000000 3023.dat
1 0 -260.003500 -22.004060 0.000060 0.000000 0.788005 -0.615669 0.000000 0.615669 0.788005 1.000000 0.000000 0.000000 2780.dat
0 STEP
1 1 120.000000 -32.000000 -10.000000 1.000000 0.000000 0.000000 0.000000 1.000000 0.000000 0.000000 0.000000 1.000000 3701.dat
1 0 99.999950 -21.999960 0.000060 0.000000 0.788005 -0.615669 0.000000 0.615669 0.788005 1.000000 0.000000 0.000000 2780.dat
0 STEP
1 1 80.000040 -40.000100 -10.000000 1.000000 0.000000 0.000000 0.000000 1.000000 0.000000 0.000000 0.000000 1.000000 3710.dat
1 1 -240.003100 -40.003830 -9.999880 1.000000 0.000000 0.000000 0.000000 1.000000 0.000000 0.000000 0.000000 1.000000 3710.dat
1 1 -80.001280 -48.002130 -9.999940 1.000012 0.000000 0.000000 0.000014 1.000005 0.000000 0.000000 0.000000 1.000000 3023.dat
0 STEP
1 1 -79.996560 -71.999130 -9.998720 1.000000 -0.000005 0.000000 0.000006 1.000000 0.000000 0.000000 0.000000 1.000000 3700.dat
1 0 -79.996680 -61.999080 0.001280 0.000000 -0.615669 -0.788005 0.000000 0.788005 -0.615669 1.000000 0.000000 0.000000 2780.dat
0 STEP
1 15 -79.647460 -81.996040 10.001220 0.999848 0.000000 0.017459 0.017460 0.000001 -0.999848 -0.000001 1.000000 0.000001 32524.dat
1 0 -78.949030 -121.990000 0.001220 0.000000 0.788005 0.615669 0.000000 0.615669 -0.788005 -1.000000 0.000000 0.000000 2780.dat
1 0 -79.343800 -101.993900 0.001160 0.000000 0.788005 0.615669 0.000000 0.615669 -0.788005 -1.000000 0.000000 0.000000 2780.dat
0 STEP
1 1 -79.738330 -81.997800 -9.998839 -0.999805 0.000001 0.019732 -0.019733 -0.000001 -0.999805 -0.000001 -1.000000 0.000001 6629.dat
1 0 -77.765060 -181.978200 -19.999450 0.000000 0.788005 -0.615670 0.000000 0.615670 0.788007 1.000001 0.000000 0.000000 2780.dat
1 0 -78.554320 -141.985900 -19.999450 0.000000 0.788005 -0.615670 0.000000 0.615670 0.788007 1.000001 0.000000 0.000000 2780.dat
0 STEP
1 72 -78.603420 -141.986800 -24.999570 -0.999780 -0.000001 0.020954 -0.020953 0.000000 -0.999782 0.000000 -1.000001 0.000000 99773.dat
1 72 -78.603480 -141.986900 -34.999510 -0.999781 -0.000001 0.020954 -0.020953 0.000000 -0.999782 0.000000 -1.000001 0.000000 99773.dat
0 STEP
1 0 -58.607760 -141.567800 -19.999510 0.000000 0.788005 -0.615670 0.000000 0.615669 0.788007 1.000001 0.000000 0.000000 2780.dat
1 0 -98.598960 -142.405900 -19.999510 0.000000 0.788005 -0.615670 0.000000 0.615670 0.788007 1.000001 0.000000 0.000000 2780.dat
0 STEP
1 15 -233.442000 -104.758700 -9.999570 0.268910 0.000000 0.963166 0.963167 -0.000001 -0.268908 0.000001 1.000001 0.000000 64871.dat
1 0 -368.285200 -67.111550 0.000430 0.000000 0.000000 -1.000000 0.000000 1.000000 0.000000 1.000000 0.000000 0.000000 2780.dat
1 19 -329.648300 -77.464350 0.000430 -0.000001 0.965925 0.258821 0.000001 -0.258820 0.965926 1.000000 0.000001 -0.000001 3749.dat
1 0 -310.495500 -83.246040 0.000430 0.000001 0.910680 -0.413113 0.000001 0.413114 0.910680 1.000000 -0.000001 0.000000 2780.dat
0 STEP
1 15 -284.945500 -52.469700 10.000550 -0.769410 0.000001 -0.638755 0.638755 0.000001 -0.769410 0.000000 -1.000000 -0.000001 32316.dat
1 1 -329.648300 -77.464340 10.000430 -0.258821 -0.000001 -0.965925 -0.965926 0.000001 0.258820 0.000001 1.000000 -0.000001 32140.dat
0 STEP
1 15 76.035850 -103.211800 -9.999579 0.273971 0.000000 -0.961738 -0.961738 0.000002 -0.273971 0.000002 1.000000 0.000000 64871.dat
1 0 210.679200 -64.855900 0.000370 0.000000 -0.273971 -0.961738 0.000002 0.961738 -0.273971 1.000000 -0.000002 0.000000 2780.dat
1 19 172.228700 -75.881450 0.000300 -0.000002 0.961261 -0.275639 0.000001 0.275639 0.961261 1.000000 0.000001 -0.000001 3749.dat
1 0 152.974600 -81.294000 0.000550 0.000000 0.560630 -0.828066 0.000001 0.828066 0.560630 1.000000 -0.000001 0.000000 2780.dat
0 STEP
1 15 126.469500 -51.336520 10.000550 -0.748942 0.000001 0.662635 -0.662635 0.000000 -0.748942 -0.000001 -1.000000 0.000000 32316.dat
1 1 172.228700 -75.881420 10.000310 0.275639 0.000001 0.961261 -0.961261 0.000001 0.275639 -0.000001 -1.000000 0.000001 32140.dat
0 STEP
1 19 -125.045500 -218.918700 -19.998780 0.000000 0.615669 0.788002 0.000002 -0.788006 0.615668 1.000001 0.000001 -0.000001 3749.dat
1 71 -93.525420 -194.292000 -9.998720 0.000000 0.615668 0.788003 0.000000 -0.788006 0.615668 1.000001 0.000000 -0.000001 4519.dat
0 STEP
1 1 -93.525340 -194.292100 -29.998840 0.615667 -0.000001 -0.788004 -0.788007 0.000001 -0.615667 0.000001 1.000001 -0.000001 32140.dat
0 STEP
1 15 -116.177000 -262.754400 -9.996520 -0.788004 0.000000 0.615667 -0.615667 0.000001 -0.788007 0.000000 -1.000001 -0.000001 32524.dat
1 1 -140.805200 -231.231900 -9.998779 0.000000 0.788003 -0.615668 0.000001 0.615668 0.788006 1.000001 -0.000001 0.000000 6558.dat
1 1 -128.491300 -246.993000 -9.997439 0.000000 0.788003 -0.615669 0.000001 0.615668 0.788008 1.000003 -0.000001 0.000000 6558.dat
0 STEP
1 1 -93.525470 -194.292000 10.001280 0.615666 -0.000001 -0.788004 -0.788007 0.000000 -0.615667 0.000001 1.000001 -0.000001 32140.dat
0 STEP
1 1 -31.958010 -273.093400 -29.997620 -0.615669 -0.000001 -0.788002 0.788007 -0.000002 -0.615669 -0.000001 -1.000003 0.000002 32140.dat
1 1 -91.551490 -294.273500 -9.997439 0.000000 0.788003 -0.615669 0.000001 0.615668 0.788008 1.000003 -0.000001 0.000000 6558.dat
1 1 -79.238750 -310.032300 -9.998110 0.000000 0.788003 -0.615668 0.000001 0.615668 0.788006 1.000001 -0.000001 0.000000 6558.dat
0 STEP
1 71 -31.957950 -273.093400 -9.997379 0.788005 -0.615669 0.000001 0.615669 0.788005 0.000000 -0.000001 0.000000 1.000000 3713.dat
1 71 -31.957950 -273.093400 -9.997439 0.000000 0.615668 0.788003 0.000000 -0.788006 0.615668 1.000001 0.000000 -0.000001 4519.dat
0 STEP
1 1 -31.957860 -273.093500 10.002440 -0.615668 -0.000001 -0.788003 0.788006 -0.000002 -0.615668 -0.000001 -1.000001 0.000002 32140.dat
0 STEP
0 STEP
