0 Untitled Model
0 Name:  公园跑步机
0 Author:  
0 CustomBrick
0 NumOfBricks:  73
1 1 -79.999940 -9.000150 -19.999880 0.000000 0.000000 0.999998 0.000000 1.000000 0.000000 -0.999998 0.000000 0.000000 6558.dat
1 1 -40.000100 -9.000219 -20.000120 0.000000 0.000000 1.000000 0.000000 1.000000 0.000000 -1.000000 0.000000 0.000000 6558.dat
1 71 -60.000120 -49.000200 -20.000180 1.000000 0.000000 0.000000 0.000000 0.000000 1.000000 0.000000 -1.000000 0.000000 60484.dat
0 STEP
1 15 -59.999880 -9.000170 0.000490 -0.000001 -0.000001 1.000000 -1.000000 0.000001 -0.000001 -0.000001 -1.000000 -0.000001 64290.dat
0 STEP
1 1 -60.000120 -49.000200 -20.000180 0.000000 0.000000 1.000000 0.000000 1.000000 0.000000 -1.000000 0.000000 0.000000 6558.dat
1 1 -60.000120 -29.000220 -20.000180 0.000000 0.000000 1.000000 0.000000 1.000000 0.000000 -1.000000 0.000000 0.000000 6558.dat
1 15 -60.000300 -69.000170 -0.000310 1.000000 -0.000001 0.000001 0.000001 0.000001 -1.000000 0.000001 1.000000 0.000001 32316.dat
0 STEP
1 1 -60.000120 -89.000190 -20.000310 0.000000 0.000000 -1.000000 0.000000 1.000000 0.000000 1.000000 0.000000 0.000000 6558.dat
1 1 -60.000240 -109.000100 -20.000240 0.000000 0.000000 -1.000000 0.000000 1.000000 0.000000 1.000000 0.000000 0.000000 6558.dat
1 71 -60.000240 -89.000190 -20.000240 1.000000 0.000000 0.000000 0.000000 0.000000 -1.000000 0.000000 1.000000 0.000000 60484.dat
0 STEP
1 15 -60.000120 -69.000180 -40.000240 1.000000 -0.000001 0.000001 -0.000001 -0.000001 1.000000 -0.000001 -1.000000 -0.000001 32316.dat
0 STEP
1 1 -0.000460 -9.000259 -20.000240 0.000000 0.000000 1.000000 0.000000 1.000000 0.000000 -1.000000 0.000000 0.000000 6558.dat
1 1 60.000190 -9.000230 -20.000060 -1.000000 0.000000 0.000000 0.000000 0.000000 1.000000 0.000000 1.000000 0.000000 32009.dat
0 STEP
1 15 -59.999940 -9.000120 -39.999820 0.000001 0.000001 -1.000000 -1.000000 0.000001 -0.000001 0.000001 1.000000 0.000001 64290.dat
0 STEP
1 0 20.000160 -9.000239 9.999949 0.000000 0.000000 0.999998 0.000000 1.000000 0.000000 -0.999998 0.000000 0.000000 2780.dat
1 0 20.000090 -9.000020 -49.999940 0.000000 0.000000 -1.000000 0.000000 1.000000 0.000000 1.000000 0.000000 0.000000 2780.dat
1 71 -19.646770 -9.000020 -21.443660 0.000000 0.000000 -1.000000 0.000000 1.000000 0.000000 1.000000 0.000000 0.000000 44294.dat
0 STEP
1 14 -9.343540 -17.790200 25.994570 0.000000 0.000000 0.999998 0.000000 -1.000000 0.000000 0.999998 0.000000 0.000000 12344.dat
1 14 -8.990570 -0.210020 -67.438180 0.000000 0.000000 1.000000 0.000000 1.000000 0.000000 -1.000000 0.000000 0.000000 12344.dat
0 STEP
1 71 -19.999860 -9.000199 40.000000 -1.000000 0.000000 -0.000001 0.000000 1.000000 0.000000 0.000001 0.000000 -1.000000 3713.dat
1 71 -19.646890 -9.000020 -81.443660 1.000000 0.000000 0.000001 0.000000 1.000000 0.000000 -0.000001 0.000000 1.000000 3713.dat
0 STEP
1 71 60.000190 -169.000300 0.329900 1.000000 0.000000 0.000001 0.000000 1.000000 0.000000 -0.000001 0.000000 1.000000 3713.dat
1 71 60.000190 -169.000300 -38.680120 1.000000 0.000000 0.000001 0.000000 1.000000 0.000000 -0.000001 0.000000 1.000000 3713.dat
1 71 60.000190 -169.000300 -21.270080 0.000000 0.000000 1.000000 0.000000 1.000000 0.000000 -1.000000 0.000000 0.000000 44294.dat
0 STEP
1 71 60.000190 -169.000300 -80.110110 1.000000 0.000000 0.000001 0.000000 1.000000 0.000000 -0.000001 0.000000 1.000000 3713.dat
1 71 60.000320 -169.000300 42.689940 1.000000 0.000000 0.000001 0.000000 1.000000 0.000000 -0.000001 0.000000 1.000000 3713.dat
1 1 91.058490 -53.089100 -59.960270 -0.965926 0.000001 -0.258819 0.258819 -0.000001 -0.965926 -0.000001 -1.000000 0.000001 32271.dat
1 1 91.058490 -53.089080 21.899840 -0.965926 0.000001 -0.258819 0.258819 -0.000001 -0.965926 -0.000001 -1.000000 0.000000 32271.dat
0 STEP
1 19 91.058380 -53.089090 31.899780 0.000001 -0.965926 0.258819 -0.000001 0.258819 0.965926 -1.000000 -0.000001 0.000000 3749.dat
1 19 91.058490 -53.089100 -69.960280 -0.000001 0.965926 0.258819 0.000001 -0.258819 0.965926 1.000000 0.000001 -0.000001 3749.dat
0 STEP
1 15 11.058440 -53.089160 41.899840 0.000001 0.000001 -1.000000 -1.000000 0.000001 -0.000001 0.000001 1.000000 0.000001 40490.dat
1 15 11.058510 -53.089200 -79.960200 0.000001 0.000001 -1.000000 -1.000000 0.000001 -0.000001 0.000001 1.000000 0.000001 40490.dat
0 STEP
1 0 11.058440 -53.089160 51.899840 0.000000 0.000000 -1.000000 0.000000 1.000000 0.000000 1.000000 0.000000 0.000000 2780.dat
1 0 11.058540 -53.089180 -89.960210 0.000000 0.000000 -1.000000 0.000000 1.000000 0.000000 1.000000 0.000000 0.000000 2780.dat
0 STEP
1 4 11.058420 -53.089160 61.899840 0.000000 0.000000 -1.000000 0.000000 -1.000000 0.000000 -1.000000 0.000000 0.000000 32034.dat
1 4 11.058540 -53.089180 -99.960220 0.000000 0.000000 -1.000000 0.000000 -1.000000 0.000000 -1.000000 0.000000 0.000000 32034.dat
0 STEP
1 0 -140.000000 -9.000070 10.000800 0.000000 0.000000 1.000000 0.000000 1.000000 0.000000 -1.000000 0.000000 0.000000 2780.dat
1 0 -99.999940 -9.000160 -49.999820 0.000000 0.000000 -1.000000 0.000000 1.000000 0.000000 1.000000 0.000000 0.000000 2780.dat
1 0 -100.003400 -9.000120 9.997080 0.000000 0.000000 0.999993 0.000000 1.000000 0.000000 -0.999993 0.000000 0.000000 2780.dat
1 0 -139.999800 -9.000219 -49.999820 0.000000 0.000000 -1.000000 0.000000 1.000000 0.000000 1.000000 0.000000 0.000000 2780.dat
0 STEP
1 14 -154.301000 -17.790040 69.240970 0.999998 0.000000 0.000000 0.000000 -1.000000 0.000000 0.000000 0.000000 -0.999998 12344.dat
1 14 -154.300900 -0.210220 -109.240600 1.000000 0.000000 0.000000 0.000000 1.000000 0.000000 0.000000 0.000000 1.000000 12344.dat
0 STEP
1 14 -60.000180 -69.000220 -52.460330 0.000000 1.000000 0.000000 -1.000000 0.000000 0.000000 0.000000 0.000000 1.000000 32123a.dat
1 14 -60.000180 -69.000200 14.879710 0.000000 1.000000 0.000000 -1.000000 0.000000 0.000000 0.000000 0.000000 1.000000 32123a.dat
1 71 -60.000120 -69.000200 -16.960270 0.000000 0.000000 1.000000 0.000000 1.000000 0.000000 -1.000000 0.000000 0.000000 32073.dat
0 STEP
1 71 -60.000120 -69.000200 23.729800 1.000000 0.000000 0.000000 0.000000 -1.000000 0.000000 0.000000 0.000000 -1.000000 4185.dat
1 71 -60.000120 -69.000220 -61.960270 1.000000 0.000000 0.000000 0.000000 -1.000000 0.000000 0.000000 0.000000 -1.000000 4185.dat
0 STEP
1 71 -77.500180 -79.000200 31.729680 0.000000 0.000000 -1.000000 0.000000 1.000000 0.000000 1.000000 0.000000 0.000000 3673.dat
1 71 -77.500110 -79.000220 -69.960280 0.000000 0.000000 -1.000000 0.000000 1.000000 0.000000 1.000000 0.000000 0.000000 3673.dat
0 STEP
1 1 -40.000220 -129.000300 -20.000310 0.000000 0.000000 1.000000 0.000000 1.000000 0.000000 -1.000000 0.000000 0.000000 6558.dat
1 1 -80.000240 -129.000300 -20.000240 0.000000 0.000000 1.000000 0.000000 1.000000 0.000000 -1.000000 0.000000 0.000000 6558.dat
0 STEP
1 19 -60.000220 -129.000200 9.999700 -0.000001 1.000000 -0.000001 0.000001 0.000001 1.000000 1.000000 0.000001 -0.000001 3749.dat
1 1 -100.000200 -129.000200 -0.000240 0.000001 0.000001 1.000000 1.000000 -0.000001 -0.000001 0.000001 1.000000 -0.000001 32140.dat
0 STEP
1 19 -60.000000 -129.000200 -50.000000 0.000001 -1.000000 0.000001 0.000001 0.000001 1.000000 -1.000000 -0.000001 0.000001 3749.dat
1 1 -100.000100 -129.000200 -39.999940 0.000001 0.000001 1.000000 1.000000 -0.000001 -0.000001 0.000001 1.000000 -0.000001 32140.dat
0 STEP
1 4 -60.000220 -129.000200 19.999690 1.000000 0.000000 0.000000 0.000000 -1.000000 -0.000001 0.000000 0.000001 -1.000000 32039.dat
1 71 -60.000220 -129.000200 39.999760 -1.000000 0.000000 0.000000 0.000000 0.000000 1.000000 0.000000 1.000000 0.000000 4519.dat
0 STEP
1 4 -60.000000 -129.000200 -63.300000 -1.000000 0.000000 0.000000 0.000000 -1.000000 -0.000001 0.000000 -0.000001 1.000000 32039.dat
1 71 -60.000030 -129.000200 -83.299930 -1.000000 0.000000 0.000000 0.000000 0.000000 1.000000 0.000000 1.000000 0.000000 4519.dat
0 STEP
1 1 -60.000240 -147.000200 29.999690 1.000000 0.000000 0.000000 0.000000 1.000000 0.000000 0.000000 0.000000 1.000000 3710.dat
1 1 -60.000240 -147.000200 49.999700 1.000000 0.000000 0.000000 0.000000 1.000000 0.000000 0.000000 0.000000 1.000000 3710.dat
1 15 -41.080260 -139.000200 39.999760 0.000000 0.000000 1.000000 0.000000 1.000000 0.000000 -1.000000 0.000000 0.000000 32064a.dat
1 15 -80.000240 -139.000200 39.999700 0.000000 0.000000 1.000000 0.000000 1.000000 0.000000 -1.000000 0.000000 0.000000 32064a.dat
0 STEP
1 1 -60.000060 -147.000200 -93.299990 1.000000 0.000000 0.000000 0.000000 1.000000 0.000000 0.000000 0.000000 1.000000 3710.dat
1 1 -60.000060 -147.000200 -73.299990 1.000000 0.000000 0.000000 0.000000 1.000000 0.000000 0.000000 0.000000 1.000000 3710.dat
1 15 -40.000040 -139.000200 -83.300050 0.000000 0.000000 1.000000 0.000000 1.000000 0.000000 -1.000000 0.000000 0.000000 32064a.dat
1 15 -80.000060 -139.000200 -83.299990 0.000000 0.000000 1.000000 0.000000 1.000000 0.000000 -1.000000 0.000000 0.000000 32064a.dat
0 STEP
1 15 -30.000100 -171.000200 -73.299990 1.000000 0.000000 0.000000 0.000000 1.000000 0.000000 0.000000 0.000000 1.000000 3040b.dat
1 15 -30.000280 -171.000200 29.999690 -1.000000 0.000000 0.000000 0.000000 1.000000 0.000000 0.000000 0.000000 -1.000000 3040b.dat
0 STEP
1 0 80.705720 -91.726130 31.899840 0.000000 0.000000 -1.000000 0.000000 1.000000 0.000000 1.000000 0.000000 0.000000 2780.dat
1 0 80.705690 -91.726120 -69.960200 0.000000 0.000000 -1.000000 0.000000 1.000000 0.000000 1.000000 0.000000 0.000000 2780.dat
0 STEP
1 4 80.705720 -91.726130 41.899840 0.000000 0.000000 -1.000000 0.000000 -1.000000 0.000000 -1.000000 0.000000 0.000000 32034.dat
1 4 80.705660 -91.726120 -79.960280 0.000000 0.000000 -1.000000 0.000000 -1.000000 0.000000 -1.000000 0.000000 0.000000 32034.dat
0 STEP
0 STEP
