0 FILE 摩托.io
0 Untitled Model
0 Name:  摩托
0 Author:  
0 CustomBrick
0 NumOfBricks:  97
1 16 150.000000 -83.992270 19.000000 -1.000000 0.000000 0.000000 0.000000 1.000000 0.000000 0.000000 0.000000 -1.000000 submodel group 9 copy copy copy
1 0 -13.853780 -174.294800 58.500920 0.000001 -0.999999 0.000003 0.000000 -0.000003 -1.000000 1.000000 0.000001 0.000000 2780.dat
1 0 -13.853760 -174.294900 -1.499080 0.000001 -0.999999 0.000003 0.000000 -0.000003 -1.000000 1.000000 0.000001 0.000000 2780.dat
0 STEP
1 15 -13.853890 -154.294700 68.500920 0.999999 0.000000 0.000004 0.000004 0.000001 -1.000000 0.000000 1.000000 0.000001 32316.dat
1 0 -13.853930 -134.294700 78.500920 0.000001 -0.999999 0.000003 0.000000 -0.000003 -1.000000 1.000000 0.000001 0.000000 2780.dat
1 1 -13.853890 -154.294700 68.500740 0.000001 0.999998 -0.000002 0.000000 0.000003 1.000000 1.000000 -0.000001 0.000000 6558.dat
0 STEP
1 15 -13.854000 -154.294900 -11.500070 0.999999 0.000000 0.000004 0.000004 0.000001 -1.000000 0.000000 1.000000 0.000001 32316.dat
1 1 -13.853930 -154.294800 -11.499090 -0.000001 -0.999999 -0.000003 0.000000 -0.000003 1.000000 -1.000000 0.000001 0.000000 6558.dat
1 71 -13.854110 -114.294900 -31.160140 -0.000001 -0.999999 -0.000003 0.000000 -0.000003 1.000000 -1.000000 0.000001 0.000000 4519.dat
0 STEP
1 0 -13.854100 -134.294800 -21.500080 0.000001 -0.999999 0.000003 0.000000 -0.000003 -1.000000 1.000000 0.000001 0.000000 2780.dat
1 1 -110.755700 -225.516000 -31.640020 -0.593518 0.000002 0.804819 0.804821 0.000001 0.593519 0.000001 1.000000 -0.000002 32271.dat
0 STEP
1 19 -133.854100 -114.295200 -61.160050 -0.000002 0.999999 0.000002 -0.000001 0.000002 -1.000000 -1.000000 -0.000002 0.000001 3749.dat
1 19 -93.854140 -114.295100 -61.160060 -0.000002 0.914256 -0.405137 -0.000001 -0.405138 -0.914256 -1.000000 -0.000001 0.000001 3749.dat
1 1 -173.854000 -114.295300 -51.160040 0.000002 0.000001 -0.999998 -1.000000 0.000000 -0.000003 0.000000 1.000000 0.000001 32009.dat
0 STEP
1 0 -33.853930 -114.295000 -41.160090 0.000001 -0.000003 -0.999998 0.000000 1.000000 -0.000003 1.000000 0.000000 0.000001 2780.dat
1 0 -73.854190 -114.295100 -41.160070 0.000001 -0.000003 -0.999999 0.000000 1.000000 -0.000003 1.000000 0.000000 0.000001 2780.dat
0 STEP
1 15 -54.000000 -113.908500 -39.000000 1.000000 0.000000 0.000000 0.000000 1.000000 0.000000 0.000000 0.000000 1.000000 dx0080.dat.dat
1 71 -53.854040 -114.295000 -50.980030 -0.000001 -0.999999 -0.000003 0.000000 -0.000003 1.000000 -1.000000 0.000001 0.000000 4519.dat
0 STEP
1 72 -53.854060 -114.295000 -70.980040 0.999999 0.000003 -0.000001 0.000003 -1.000000 0.000000 -0.000001 0.000000 -1.000000 3648b.dat
1 72 -93.854190 -114.295300 -71.160080 -0.405136 -0.914257 0.000000 -0.914257 0.405136 -0.000001 0.000001 0.000000 -1.000000 3647.dat
1 72 -133.854100 -114.295200 -71.160060 -0.000003 -0.999999 0.000001 1.000000 -0.000003 0.000000 0.000000 0.000001 1.000000 3648b.dat
0 STEP
1 0 -78.562800 -201.775100 -21.640040 0.000001 -0.000003 -0.999998 0.000000 1.000000 -0.000003 1.000000 0.000000 0.000001 2780.dat
1 0 -94.659080 -213.645600 -21.640020 0.000001 -0.000003 -0.999998 0.000000 1.000000 -0.000003 1.000000 0.000000 0.000001 2780.dat
1 1 -62.693020 -189.603100 -11.760030 -0.608590 0.000000 -0.793483 0.793485 -0.000001 -0.608590 -0.000001 -1.000000 0.000001 32271.dat
0 STEP
1 1 -88.198550 -222.227100 8.359980 0.798997 -0.601332 0.000001 0.601334 0.798999 0.000000 -0.000001 0.000000 1.000000 3894.dat
1 0 -126.171800 -238.290500 -1.639990 0.000001 -0.000003 -0.999999 0.000000 1.000000 -0.000003 1.000000 0.000000 0.000001 2780.dat
0 STEP
1 1 -78.231780 -202.210500 28.359980 0.000001 -0.000003 -0.999998 0.000000 1.000000 -0.000003 1.000000 0.000000 0.000001 6558.dat
1 1 -94.211940 -214.237100 28.359980 0.000001 -0.000003 -0.999998 0.000000 1.000000 -0.000003 1.000000 0.000000 0.000001 6558.dat
1 1 -72.218520 -210.200500 28.359980 0.798997 -0.601332 0.000001 0.601334 0.798999 0.000000 -0.000001 0.000000 1.000000 3894.dat
0 STEP
1 1 -157.170200 -257.241500 8.240010 0.000002 0.000000 -0.999996 -1.000000 0.000002 0.000000 0.000001 1.000000 0.000000 32140.dat
1 4 -177.170200 -257.241500 -11.759940 0.000000 0.999999 -0.000004 0.000002 0.000004 1.000000 1.000000 0.000000 -0.000001 32054.dat
0 STEP
1 1 -197.171400 -257.241500 28.239090 0.000001 -0.000003 -1.000003 0.000000 1.000000 -0.000003 1.000003 0.000000 0.000001 6558.dat
1 1 -217.170300 -257.241400 28.240080 0.000001 -0.000003 -0.999998 0.000000 1.000000 -0.000003 1.000000 0.000000 0.000001 6558.dat
1 15 -177.170300 -257.241300 28.240050 0.000004 0.000001 -0.999999 -1.000000 0.000002 -0.000004 0.000001 1.000000 0.000002 32316.dat
0 STEP
1 1 -157.171400 -257.241400 48.238940 0.000002 0.000000 -0.999999 -1.000000 0.000001 -0.000002 0.000001 1.000000 0.000000 32140.dat
0 STEP
1 71 -62.693010 -189.603100 28.709940 -0.000001 -0.608590 0.793484 0.000000 0.793485 0.608592 -1.000000 0.000000 -0.000001 44294.dat
1 1 -88.198550 -222.227100 48.360400 0.798997 -0.601332 0.000001 0.601334 0.798999 0.000000 -0.000001 0.000000 1.000000 3894.dat
0 STEP
1 0 -126.171900 -238.290400 58.360440 0.000001 -0.000003 -0.999999 0.000000 1.000000 -0.000003 1.000000 0.000000 0.000001 2780.dat
1 1 -62.693000 -189.603100 68.710360 -0.608590 0.000000 -0.793483 0.793485 -0.000001 -0.608590 -0.000001 -1.000000 0.000001 32271.dat
0 STEP
1 15 -67.407920 -216.592400 48.360400 -0.798998 -0.601332 -0.000001 -0.601333 0.798999 0.000000 0.000001 0.000000 -1.000000 2431.dat
1 15 -67.407940 -216.592400 8.359970 -0.798998 -0.601332 -0.000001 -0.601333 0.798999 0.000000 0.000001 0.000000 -1.000000 2431.dat
0 STEP
1 0 -78.562720 -201.775100 78.710640 0.000001 -0.000003 -0.999998 0.000000 1.000000 -0.000003 1.000000 0.000000 0.000001 2780.dat
1 0 -94.432510 -213.947000 78.710650 0.000001 -0.000003 -0.999998 0.000000 1.000000 -0.000003 1.000000 0.000000 0.000001 2780.dat
1 4 -177.170300 -257.241400 68.710460 0.000000 -0.999999 -0.000002 0.000000 -0.000002 1.000000 -1.000000 0.000000 0.000001 32054.dat
0 STEP
1 4 -13.530850 -114.296100 96.980830 0.000001 -0.000003 -0.999999 0.000000 1.000000 -0.000003 1.000000 0.000000 0.000001 32062.dat
1 1 -110.432400 -225.517100 88.500980 -0.593518 0.000002 0.804819 0.804821 0.000001 0.593519 0.000001 1.000000 -0.000002 32271.dat
0 STEP
1 19 -173.853900 -154.295300 -71.160040 0.999999 0.000003 -0.000001 0.000003 -1.000000 0.000000 -0.000001 0.000000 -1.000000 32269.dat
1 0 -173.853900 -154.295300 18.840010 -0.000001 -0.000003 0.999998 0.000000 1.000000 0.000003 -1.000000 0.000000 -0.000001 3737.dat
0 STEP
1 71 -173.854000 -154.295300 -31.160020 0.999999 -0.000003 0.000002 0.000003 1.000000 0.000001 -0.000002 0.000000 1.000000 3713.dat
1 71 -173.853900 -154.295300 -11.159990 0.999999 -0.000003 0.000002 0.000003 1.000000 0.000001 -0.000002 0.000000 1.000000 3713.dat
0 STEP
1 0 -173.854500 -154.295200 0.480030 0.999998 0.000002 -0.000001 0.000003 -1.000000 0.000000 -0.000001 0.000000 -1.000000 44309.dat
1 71 -173.854000 -154.295300 0.480030 0.000003 -0.999999 -0.000001 -1.000000 -0.000003 0.000000 0.000000 0.000001 -1.000000 56145.dat
0 STEP
1 71 -173.853900 -154.295200 50.840130 0.999999 -0.000003 0.000002 0.000003 1.000000 0.000001 -0.000002 0.000000 1.000000 3713.dat
1 71 -173.853900 -154.295300 30.840000 0.999999 -0.000003 0.000002 0.000003 1.000000 0.000001 -0.000002 0.000000 1.000000 3713.dat
0 STEP
1 0 -173.853300 -154.295100 60.000420 0.999998 0.000002 -0.000001 0.000003 -1.000000 0.000000 -0.000001 0.000000 -1.000000 44309.dat
1 71 -173.853900 -154.295300 60.000160 0.000003 -1.000000 -0.000001 -1.000000 -0.000003 0.000000 0.000000 0.000001 -1.000000 56145.dat
0 STEP
1 71 -173.853900 -154.295300 88.840370 0.999999 -0.000003 0.000002 0.000003 1.000000 0.000001 -0.000002 0.000000 1.000000 3713.dat
1 1 -173.530900 -114.296400 108.531000 0.000003 0.000000 -0.999999 -1.000000 0.000001 -0.000003 0.000001 1.000000 0.000001 32009.dat
0 STEP
1 4 206.145800 -174.294100 28.490850 0.000001 0.999999 -0.000003 0.000000 0.000003 1.000000 1.000000 -0.000001 0.000000 42003.dat
1 71 186.145700 -174.294300 26.660830 -0.000001 -0.000003 0.999998 0.000000 1.000000 0.000003 -1.000000 0.000000 -0.000001 44294.dat
0 STEP
1 4 206.145700 -154.294100 28.500790 0.000001 0.999999 -0.000003 0.000000 0.000003 1.000000 1.000000 -0.000001 0.000000 42003.dat
1 71 186.145800 -154.294200 28.500790 -0.000001 -0.000003 0.999998 0.000000 1.000000 0.000003 -1.000000 0.000000 -0.000001 32073.dat
0 STEP
1 14 186.145700 -174.294300 -26.929160 0.000002 0.999998 0.000001 -1.000000 0.000003 0.000000 0.000000 -0.000001 1.000000 32123a.dat
1 71 186.145600 -154.294200 -11.719180 -0.999999 -0.000002 0.000004 -0.000004 0.000000 -1.000000 0.000002 -1.000000 -0.000001 60483.dat
0 STEP
1 14 186.145800 -174.294300 83.500610 0.000003 0.999999 0.000001 -1.000000 0.000003 0.000000 0.000000 -0.000001 1.000000 32123a.dat
1 71 186.145700 -154.294200 68.620410 -0.999999 -0.000002 0.000004 -0.000004 0.000000 -1.000000 0.000002 -1.000000 -0.000001 60483.dat
0 STEP
1 71 226.145800 -193.654200 28.490840 0.000001 0.999999 -0.000003 0.000000 0.000003 1.000000 1.000000 -0.000001 0.000001 3713.dat
1 71 226.146000 -213.694200 28.490840 0.000001 0.999999 -0.000003 0.000000 0.000003 1.000000 1.000000 -0.000001 0.000000 3713.dat
1 0 226.145800 -183.294200 28.490830 -0.000003 0.999998 -0.000001 1.000000 0.000003 0.000000 0.000000 -0.000001 -1.000000 3706.dat
0 STEP
1 4 226.145900 -233.294200 28.490850 0.000001 1.000000 -0.000002 0.000000 0.000002 1.000000 1.000000 -0.000001 0.000000 32039.dat
1 0 226.145900 -253.294100 26.870860 -0.000001 -0.000003 0.999999 0.000000 1.000000 0.000003 -1.000000 0.000000 -0.000001 3706.dat
0 STEP
1 14 226.145900 -253.294100 43.590640 0.999999 0.000003 -0.000001 0.000003 -1.000000 0.000000 -0.000001 0.000000 -1.000000 32123a.dat
1 14 226.145900 -253.294200 13.330880 0.999999 0.000003 -0.000001 0.000003 -1.000000 0.000000 -0.000001 0.000000 -1.000000 32123a.dat
0 STEP
1 71 226.146000 -253.294300 -1.949150 0.999999 -0.000003 0.000002 0.000003 1.000000 0.000001 -0.000002 0.000000 1.000000 3713.dat
1 71 226.146000 -253.294100 58.600600 0.999999 -0.000003 0.000002 0.000003 1.000000 0.000001 -0.000002 0.000000 1.000000 3713.dat
0 STEP
1 4 226.146100 -253.294000 99.830630 0.000000 1.000000 -0.000002 0.000001 0.000002 1.000000 1.000000 -0.000001 -0.000001 32054.dat
1 4 226.145900 -253.294100 -43.129220 -0.000001 0.000002 -1.000000 0.000000 -1.000001 -0.000003 -1.000000 0.000000 0.000001 32054.dat
0 STEP
1 4 226.145600 -133.294200 28.490830 0.000001 -0.999999 0.000002 0.000000 -0.000002 -1.000000 1.000000 0.000001 0.000000 32039.dat
1 71 226.145500 -113.294100 28.490820 -0.000001 -0.999998 -0.000002 0.000000 -0.000003 1.000000 -1.000000 0.000001 0.000000 4519.dat
0 STEP
1 0 226.145600 -113.294100 68.490580 0.999999 0.000001 0.000003 0.000003 0.000000 -1.000000 -0.000001 1.000000 0.000000 32014.dat
1 0 226.145500 -113.294100 -11.512160 -0.999999 -0.000001 0.000002 -0.000002 0.000000 -1.000004 0.000001 -1.000004 0.000001 32014.dat
0 STEP
1 16 226.144900 80.709860 30.404080 1.000000 0.000000 0.000000 0.000000 1.000000 0.000000 0.000000 0.000000 1.000000 submodel group 1
0 STEP
0 STEP
0 NOFILE
0 FILE SubModel Group 9 Copy Copy Copy
0 SubModel Group 9 Copy Copy Copy
0 Name:  SubModel Group 9 Copy Copy Copy
0 Author:  
0 CustomBrick
0 NumOfBricks:  3
1 72 10.000000 -1.128810 -10.000000 1.000000 0.000000 0.000000 0.000000 0.000000 -1.000000 0.000000 1.000000 0.000000 dch003.dat
1 71 -27.466620 -79.717990 29.427020 1.000000 0.000000 0.000000 0.000000 0.000000 -1.000000 0.000000 1.000000 0.000000 dch004.dat
1 25 7.837010 13.484720 -9.965000 1.000000 0.000000 0.000000 0.000000 0.000000 -1.000000 0.000000 1.000000 0.000000 dch005.dat
0 NOFILE
0 FILE SubModel Group 1
0 SubModel Group 1
0 Name:  SubModel Group 1
0 Author:  
0 CustomBrick
0 NumOfBricks:  14
1 0 0.000660 -53.999830 -1.355300 0.000002 0.999997 0.000001 -0.999994 0.000003 0.000000 0.000000 -0.000001 1.000004 44309.dat
1 71 0.000600 -53.999840 -1.355300 0.999997 -0.000002 0.000001 0.000003 0.999994 0.000000 -0.000001 0.000000 1.000004 56145.dat
0 STEP
1 14 -0.000580 -54.000410 -24.865250 0.000002 0.999997 0.000001 -0.999994 0.000003 0.000000 0.000000 -0.000001 1.000004 32123a.dat
1 71 0.000380 -53.999840 -1.863290 -0.000001 -0.000003 0.999998 0.000000 1.000000 0.000003 -1.000000 0.000000 -0.000001 32073.dat
0 STEP
1 71 0.000600 -53.999820 8.114180 0.999997 -0.000002 0.000002 0.000003 0.999994 0.000001 -0.000002 0.000000 1.000004 3713.dat
1 14 0.000670 -53.999820 22.644460 -0.999997 0.000002 0.000001 -0.000003 -0.999994 0.000000 0.000001 0.000000 1.000004 32123a.dat
0 STEP
1 0 0.000320 -54.000030 38.086480 -0.000002 0.999999 -0.000001 -0.000002 0.000001 1.000000 1.000000 0.000001 0.000002 32013.dat
1 4 0.000270 -84.000080 38.086460 0.000002 1.000006 0.000001 -1.000002 0.000003 0.000000 0.000000 -0.000001 1.000001 32062.dat
0 STEP
1 0 0.000500 -54.004390 -41.916270 -0.000002 0.999999 -0.000001 -0.000002 0.000001 1.000000 1.000000 0.000001 0.000002 32013.dat
1 4 0.000460 -84.004410 -41.916270 0.000002 1.000002 0.000001 -0.999994 0.000002 0.000000 0.000000 -0.000001 0.999991 32062.dat
0 STEP
1 71 -0.002500 -104.000200 38.086180 -0.000001 1.000006 0.000002 0.000001 0.000003 -1.000002 -1.000001 -0.000001 -0.000001 59443.dat
1 71 -0.002430 -104.003900 -41.916280 -0.000001 1.000002 0.000002 0.000001 0.000002 -0.999994 -0.999992 -0.000001 -0.000001 59443.dat
0 STEP
1 0 0.000610 -144.003900 38.086490 -0.000003 0.999998 -0.000001 1.000000 0.000003 0.000000 0.000000 -0.000001 -1.000000 3705.dat
1 0 0.000640 -144.003500 -41.916260 -0.000002 0.999998 -0.000001 1.000000 0.000003 0.000000 0.000000 -0.000001 -1.000000 3705.dat
0 STEP
0 NOFILE
