0 Untitled Model
0 Name:  手机支架1
0 Author:  
0 CustomBrick
0 NumOfBricks:  49
1 15 99.999820 -31.856230 -41.998900 -0.000001 -0.000001 1.000000 -1.000000 0.000001 -0.000001 -0.000001 -1.000000 -0.000001 32524.dat
0 STEP
1 15 99.999690 -31.856360 -22.000000 -0.000001 -0.000001 0.999999 1.000000 -0.000001 0.000001 0.000001 0.999999 0.000001 32524.dat
1 0 59.999820 -31.856420 -31.999940 0.000000 0.000000 0.999999 0.000000 -1.000000 0.000000 0.999999 0.000000 0.000000 2780.dat
1 0 159.999500 -31.856290 -31.999940 0.000000 0.000000 0.999999 0.000000 -1.000000 0.000000 0.999999 0.000000 0.000000 2780.dat
0 STEP
1 4 39.999820 -31.856350 -1.999940 -0.000001 0.999999 -0.000001 -0.000001 -0.000001 -1.000000 -0.999999 -0.000001 0.000001 32054.dat
1 4 119.999600 -31.856280 -1.999940 -0.000001 0.999999 -0.000001 -0.000001 -0.000001 -1.000000 -0.999999 -0.000001 0.000001 32054.dat
1 15 39.999820 -31.856400 -1.999940 -0.000001 -0.000001 0.999999 1.000000 -0.000001 0.000001 0.000001 0.999999 0.000001 40490.dat
0 STEP
1 0 19.999790 -31.856440 -12.000000 0.000000 0.000000 -1.000000 0.000000 1.000000 0.000000 1.000000 0.000000 0.000000 2780.dat
1 4 19.999790 -31.856450 -31.999990 0.000000 0.000000 1.000000 0.000000 1.000000 0.000000 -1.000000 0.000000 0.000000 62462.dat
0 STEP
1 1 -40.000080 -31.856470 18.000000 -0.000001 0.000000 -1.000000 0.000000 1.000000 0.000000 1.000000 0.000000 -0.000001 6558.dat
1 1 -20.000090 -31.856500 -2.000000 0.000000 0.000000 -1.000000 0.000000 1.000000 0.000000 1.000000 0.000000 0.000000 6558.dat
1 4 -20.000090 -31.856510 -32.000120 0.000000 0.000000 1.000000 0.000000 1.000000 0.000000 -1.000000 0.000000 0.000000 62462.dat
0 STEP
1 1 -0.000080 -31.856510 38.000060 -0.000001 -0.000001 -1.000000 -1.000000 0.000001 0.000001 0.000001 1.000000 -0.000001 32140.dat
1 1 50.531620 -129.242300 17.999990 -0.809017 0.000001 -0.587784 -0.587784 0.000000 0.809018 0.000001 1.000000 0.000000 32271.dat
0 STEP
1 0 -59.997890 -31.552930 -21.999990 -0.007103 -0.999975 0.000000 -0.999975 0.007103 -0.000002 0.000002 0.000000 -1.000000 32013.dat
1 4 -59.997890 -31.552880 8.000060 0.000000 0.007103 -0.999975 0.000000 0.999975 0.007103 1.000000 0.000000 0.000000 32062.dat
0 STEP
1 19 -60.068880 -41.552680 -22.000000 -0.007103 0.999975 -0.000001 -0.999975 -0.007103 0.000002 0.000002 0.000001 1.000000 3749.dat
1 71 -60.139900 -51.552430 -22.000000 -0.999975 0.000000 0.007103 0.007103 0.000002 0.999975 0.000000 1.000000 -0.000002 3713.dat
0 STEP
1 1 -20.000090 -31.856510 -62.000000 0.000001 0.000000 1.000000 0.000000 1.000000 0.000000 -1.000000 0.000000 0.000001 6558.dat
1 0 19.999910 -31.856450 -52.000000 0.000000 0.000000 1.000000 0.000000 1.000000 0.000000 -1.000000 0.000000 0.000000 2780.dat
1 0 0.000000 -31.856520 -32.000300 0.000000 0.000000 1.000000 0.000000 1.000000 0.000000 -1.000000 0.000000 0.000000 3707.dat
0 STEP
1 4 119.999800 -31.856330 -62.000000 -0.000001 1.000000 -0.000001 0.000001 0.000001 1.000000 1.000000 0.000001 -0.000001 32054.dat
1 4 39.999820 -31.856200 -61.999760 -0.000001 1.000000 -0.000001 0.000001 0.000001 1.000000 1.000000 0.000001 -0.000001 32054.dat
1 15 40.000000 -31.856430 -62.000440 0.000001 0.000001 -1.000000 -1.000000 0.000001 -0.000001 0.000001 1.000000 0.000001 40490.dat
0 STEP
1 0 50.177200 -129.070000 -32.228940 0.000000 -0.587784 0.809018 0.000000 0.809018 0.587784 -1.000000 0.000000 0.000000 3707.dat
1 71 50.177200 -129.070000 37.771050 -0.809018 -0.587784 0.000000 -0.587784 0.809018 0.000000 0.000000 0.000000 -1.000000 3713.dat
0 STEP
1 14 50.177200 -129.070000 -15.948860 -0.809018 -0.587784 0.000000 -0.587784 0.809018 0.000000 0.000000 0.000000 -1.000000 32123a.dat
1 1 66.357490 -117.314300 -0.299020 0.000000 0.809018 -0.587784 0.000000 0.587784 0.809018 1.000000 0.000000 0.000000 32184.dat
0 STEP
1 14 50.177200 -129.070000 -46.228940 -0.809018 -0.587784 0.000000 -0.587784 0.809018 0.000000 0.000000 0.000000 -1.000000 32123a.dat
1 1 66.357490 -117.314300 -62.228940 0.000000 0.809018 -0.587784 0.000000 0.587784 0.809018 1.000000 0.000000 0.000000 32184.dat
1 0 50.177200 -129.069900 -30.988950 0.000000 0.809018 -0.587784 0.000000 0.587784 0.809018 1.000000 0.000000 0.000000 32291.dat
0 STEP
1 1 -40.000090 -31.856490 -82.000000 0.000001 0.000000 1.000000 0.000000 1.000000 0.000000 -1.000000 0.000000 0.000001 6558.dat
1 1 50.177200 -129.069900 -81.998900 -0.809017 0.000001 -0.587784 -0.587784 0.000000 0.809018 0.000001 1.000000 0.000000 32271.dat
0 STEP
1 71 50.177140 -129.070000 -101.758900 0.809018 -0.587784 0.000000 0.587784 0.809018 0.000000 0.000000 0.000000 1.000000 3713.dat
1 1 0.000000 -31.856520 -102.000000 -0.000001 -0.000001 -1.000000 -1.000000 0.000001 0.000001 0.000001 1.000000 -0.000001 32140.dat
0 STEP
1 4 -60.352140 -31.380520 -71.998840 0.000000 0.007103 -0.999975 0.000000 0.999975 0.007103 1.000000 0.000000 0.000000 32062.dat
1 0 -60.352140 -31.380580 -41.998830 -0.007103 0.999975 0.000000 -0.999975 -0.007103 -0.000002 -0.000002 0.000000 1.000000 32013.dat
0 STEP
1 19 -60.423160 -41.380320 -41.998830 -0.007103 0.999975 -0.000001 -0.999975 -0.007103 -0.000002 -0.000002 0.000001 1.000000 3749.dat
1 71 -60.494300 -51.380060 -41.998830 -0.999975 0.000000 0.007103 0.007103 -0.000002 0.999975 0.000000 1.000000 0.000002 3713.dat
0 STEP
1 0 72.235420 -125.404500 -62.228940 -0.587784 0.809018 0.000000 0.809018 0.587784 0.000000 0.000000 0.000000 -1.000000 2780.dat
1 0 72.235420 -125.404500 -0.299020 -0.587784 0.809018 0.000000 0.809018 0.587784 0.000000 0.000000 0.000000 -1.000000 2780.dat
1 0 72.235480 -125.404500 -40.988950 -0.587784 0.809018 0.000000 0.809018 0.587784 0.000000 0.000000 0.000000 -1.000000 2780.dat
1 0 72.235480 -125.404500 -20.988960 -0.587784 0.809018 0.000000 0.809018 0.587784 0.000000 0.000000 0.000000 -1.000000 2780.dat
1 15 78.113230 -133.494600 -0.299020 -0.809018 -0.587784 -0.000001 -0.587784 0.809018 -0.000001 0.000001 0.000000 -1.000000 32523.dat
1 15 78.113230 -133.494600 -62.228940 0.809018 -0.587784 0.000001 0.587784 0.809018 0.000001 -0.000001 0.000000 1.000000 32523.dat
0 STEP
1 19 83.991050 -141.584900 -82.228960 0.587784 0.809018 -0.000001 -0.809018 0.587784 0.000000 0.000000 0.000001 1.000000 3749.dat
1 19 83.991050 -141.584700 19.700980 0.587784 0.809018 -0.000001 -0.809018 0.587784 0.000000 0.000000 0.000001 1.000000 3749.dat
1 0 90.785720 -150.937100 -82.228960 0.809018 0.000000 -0.587784 0.587784 0.000000 0.809018 0.000000 -1.000000 0.000000 32270.dat
1 0 89.868790 -149.674900 19.700980 0.809018 0.000000 -0.587784 0.587784 0.000000 0.809018 0.000000 -1.000000 0.000000 32270.dat
0 STEP
0 STEP
