0 Untitled Model
0 Name:  迷你小摩托
0 Author:  
0 CustomBrick
0 NumOfBricks:  77
1 15 30.999990 -30.649900 -44.999770 0.000001 0.000001 -1.000000 -1.000000 0.000001 -0.000001 0.000001 1.000000 0.000001 64290.dat
1 15 30.999800 -30.649880 -2.599270 -0.000001 -0.000001 1.000000 1.000000 -0.000001 0.000001 0.000001 1.000000 0.000001 64290.dat
0 STEP
1 71 131.000000 -30.649800 16.700320 -1.000000 0.000000 -0.000001 0.000000 1.000000 0.000000 0.000001 0.000000 -1.000000 3713.dat
1 71 131.000000 -30.649800 -19.449940 1.000000 0.000000 0.000000 0.000000 1.000000 0.000000 0.000000 0.000000 1.000000 4185.dat
1 71 131.000000 -30.649800 -28.460000 0.000000 1.000000 0.000000 -1.000000 0.000000 0.000000 0.000000 0.000000 1.000000 4185.dat
1 71 130.999900 -30.649800 -62.470020 1.000000 0.000000 0.000001 0.000000 1.000000 0.000000 -0.000001 0.000000 1.000000 3713.dat
1 71 131.000000 -30.649800 -24.449940 0.000000 0.000000 -1.000000 0.000000 1.000000 0.000000 1.000000 0.000000 0.000000 32073.dat
0 STEP
1 1 51.000020 -110.649900 -24.000050 -1.000000 0.000001 0.000001 0.000001 0.000001 1.000000 0.000001 1.000000 -0.000001 32526.dat
1 71 51.000080 -30.649870 -25.000170 0.000000 1.000000 0.000000 0.000000 0.000000 1.000000 1.000000 0.000000 0.000000 4519.dat
0 STEP
1 0 70.999780 -30.649820 7.400720 0.000000 0.000000 -1.000000 0.000000 0.999998 0.000000 0.999999 0.000000 0.000000 2780.dat
1 0 70.999980 -30.649850 -54.999740 0.000000 0.000000 -1.000000 0.000000 0.999998 0.000000 0.999999 0.000000 0.000000 2780.dat
1 4 70.999980 -30.649850 -64.999720 0.000000 0.000000 -1.000000 0.000000 -0.999998 0.000000 -0.999998 0.000000 0.000000 32034.dat
1 4 70.999810 -30.649820 17.400700 0.000000 0.000000 -1.000000 0.000000 -0.999998 0.000000 -0.999998 0.000000 0.000000 32034.dat
0 STEP
1 1 -9.000010 -110.649800 -4.149680 0.000001 0.000001 1.000000 1.000000 -0.000001 -0.000001 0.000001 1.000000 -0.000001 32140.dat
1 1 51.000020 -90.649910 -24.000050 0.000000 -1.000000 0.000000 0.000000 0.000000 1.000000 -1.000000 0.000000 0.000000 6558.dat
1 1 50.999990 -110.649900 -24.000050 0.000000 -1.000000 0.000000 0.000000 0.000000 1.000000 -1.000000 0.000000 0.000000 6558.dat
0 STEP
1 14 10.999990 -30.649940 -60.410270 1.000000 0.000000 0.000000 0.000000 1.000000 0.000000 0.000000 0.000000 1.000000 32123a.dat
1 14 10.999990 -30.649940 -70.960230 1.000000 0.000000 0.000000 0.000000 1.000000 0.000000 0.000000 0.000000 1.000000 32123a.dat
1 14 11.000020 -30.649950 11.600050 -1.000000 0.000000 0.000000 0.000000 1.000000 0.000000 0.000000 0.000000 -1.000000 32123a.dat
1 14 11.000030 -30.649950 21.100040 -1.000000 0.000000 0.000000 0.000000 1.000000 0.000000 0.000000 0.000000 -1.000000 32123a.dat
1 71 10.999990 -30.649940 -23.900200 0.000000 0.000000 -1.000000 0.000000 1.000000 0.000000 1.000000 0.000000 0.000000 32073.dat
0 STEP
1 1 30.999990 -110.649900 -24.000120 0.000000 0.000000 1.000000 0.000000 1.000000 0.000000 -1.000000 0.000000 0.000000 6558.dat
1 15 10.999960 -110.649800 -24.150020 0.000001 0.000001 -1.000000 -1.000000 0.000001 -0.000001 0.000001 1.000000 0.000001 32523.dat
1 71 -9.000010 -110.649800 -24.150020 0.000000 -1.000000 0.000000 0.000000 0.000000 1.000000 -1.000000 0.000000 0.000000 4519.dat
0 STEP
1 1 -9.000000 -110.649800 -44.000000 0.000001 0.000001 1.000000 1.000000 -0.000001 -0.000001 0.000001 1.000000 -0.000001 32140.dat
0 STEP
1 0 11.000020 -110.649900 -54.000000 0.000000 0.000000 -1.000000 0.000000 0.999998 0.000000 0.999999 0.000000 0.000000 2780.dat
1 0 10.999990 -110.649900 5.850240 0.000000 0.000000 -1.000000 0.000000 0.999998 0.000000 0.999999 0.000000 0.000000 2780.dat
0 STEP
1 1 -88.999940 -110.650100 -23.250420 1.000000 -0.000001 -0.000001 0.000001 0.000001 1.000000 -0.000001 -1.000000 0.000001 32526.dat
1 71 -69.000060 -30.650050 18.869880 0.000000 1.000000 0.000000 1.000000 0.000000 0.000001 0.000001 0.000000 -1.000000 3713.dat
1 71 -69.000060 -30.650050 -66.450410 1.000000 0.000000 0.000001 0.000000 1.000000 0.000000 -0.000001 0.000000 1.000000 3713.dat
1 71 -69.000060 -30.650060 -23.080380 0.000000 0.000000 -1.000000 0.000000 1.000000 0.000000 1.000000 0.000000 0.000000 32073.dat
0 STEP
1 1 -89.000000 -30.650040 -23.250420 0.000000 0.000000 1.000000 0.000000 1.000000 0.000000 -1.000000 0.000000 0.000000 6558.dat
1 1 -89.000000 -70.650050 -23.250420 0.000000 0.000000 1.000000 0.000000 1.000000 0.000000 -1.000000 0.000000 0.000000 6558.dat
1 15 -89.000000 -90.650100 -3.250150 -1.000000 0.000001 -0.000001 -0.000001 -0.000001 1.000000 0.000001 1.000000 0.000001 32524.dat
0 STEP
1 15 -88.999820 -90.650020 -43.249160 -1.000000 0.000001 -0.000001 0.000001 0.000001 -0.999998 -0.000001 -0.999998 -0.000001 32524.dat
0 STEP
1 0 -89.000000 -150.650000 -23.560360 0.000000 -1.000000 0.000000 0.000000 0.000000 1.000000 -1.000000 0.000000 0.000000 6536.dat
1 71 -89.000000 -150.650000 -27.600450 0.000000 0.000000 1.000000 0.000000 1.000000 0.000000 -1.000000 0.000000 0.000000 32073.dat
0 STEP
1 19 -89.000060 -110.650100 6.749840 -0.000001 1.000000 -0.000001 0.000001 0.000001 1.000000 1.000000 0.000001 -0.000001 3749.dat
1 19 -88.999940 -110.650000 -53.250370 0.000001 -1.000000 0.000001 0.000001 0.000001 1.000000 -1.000000 -0.000001 0.000001 3749.dat
1 1 -89.000000 -130.650000 16.719860 0.000000 0.000000 1.000000 0.000000 -1.000000 0.000000 1.000000 0.000000 0.000000 32184.dat
1 1 -89.000000 -130.650000 -63.790460 0.000000 0.000000 1.000000 0.000000 -1.000000 0.000000 1.000000 0.000000 0.000000 32184.dat
0 STEP
1 4 -128.999900 -130.160000 -23.560360 0.000000 0.000001 -1.000000 -1.000000 0.000000 0.000000 0.000000 1.000000 0.000001 32039.dat
1 0 -108.999800 -161.100000 -23.560360 0.000000 1.000000 0.000000 1.000000 0.000000 0.000000 0.000000 0.000000 -1.000000 3707.dat
1 71 -108.999800 -168.619900 -23.560360 0.000000 -1.000000 0.000000 -0.000001 0.000000 1.000000 -1.000000 0.000000 -0.000001 3713.dat
1 4 -128.999900 -108.480000 -23.560360 0.000000 -1.000000 0.000000 0.999998 0.000000 0.000000 0.000000 0.000000 0.999998 42003.dat
1 4 -128.999800 -89.999980 -23.560360 0.000000 -1.000000 0.000000 0.999998 0.000000 0.000000 0.000000 0.000000 0.999998 42003.dat
1 71 -148.999900 -130.160000 -23.560300 -1.000000 0.000000 0.000000 0.000000 0.000000 0.999999 0.000000 0.999999 0.000000 4519.dat
0 STEP
1 0 -108.999800 -258.100000 -23.560420 -0.000002 1.000000 0.000002 0.000002 0.000002 -1.000000 -1.000000 -0.000002 -0.000002 32013.dat
0 STEP
1 0 -148.999800 -90.000030 -24.110280 0.000000 0.000000 1.000000 0.000000 1.000001 0.000000 -0.999999 0.000000 0.000000 3705.dat
1 15 -148.999800 -69.999970 -43.910180 1.000000 -0.000001 0.000001 0.000001 0.000001 -0.999998 0.000001 0.999999 0.000001 32316.dat
1 15 -147.999900 -68.480040 -3.350430 1.000000 -0.000001 0.000001 0.000001 0.000001 -0.999999 0.000001 0.999999 0.000001 32316.dat
0 STEP
1 14 -148.999800 -90.000030 -58.880180 0.000000 1.000000 0.000000 1.000001 0.000000 0.000000 0.000000 0.000000 -0.999999 32123a.dat
1 14 -148.999800 -90.000030 12.189650 -1.000000 0.000000 0.000000 0.000000 -0.999998 0.000000 0.000000 0.000000 0.999998 32123a.dat
0 STEP
1 71 -148.999900 -108.480000 26.909600 0.795472 0.605990 0.000000 -0.605989 0.795471 0.000000 0.000000 0.000000 0.999998 3713.dat
1 71 -148.999900 -108.480000 -74.370250 0.795473 0.605990 0.000000 -0.605990 0.795474 0.000000 0.000000 0.000000 0.999999 3713.dat
1 14 -148.999900 -108.480000 -59.120240 0.605989 0.795473 0.000000 0.795474 -0.605990 0.000000 0.000000 0.000000 -0.999999 32123a.dat
1 14 -148.999900 -108.480000 11.769600 0.795472 -0.605990 0.000000 -0.605989 -0.795471 0.000000 0.000000 0.000000 -0.999999 32123a.dat
1 0 -148.999900 -108.480000 -24.220330 0.000000 0.605990 0.795473 0.000000 0.795474 -0.605990 -0.999999 0.000000 0.000000 3706.dat
0 STEP
1 71 -148.999900 -30.000010 27.249630 1.000000 0.000000 0.000001 0.000000 0.999998 0.000000 -0.000001 0.000000 0.999998 3713.dat
1 71 -148.999900 -30.000010 -28.640310 0.000000 1.000000 0.000000 0.999999 0.000000 0.000000 0.000000 0.000000 -0.999999 4185.dat
1 71 -148.999900 -30.000010 -19.440300 1.000000 0.000000 0.000000 0.000000 -0.999998 0.000000 0.000000 0.000000 -0.999998 4185.dat
1 14 -148.999900 -30.000010 -59.360220 0.000000 1.000000 0.000000 1.000001 0.000000 0.000000 0.000000 0.000000 -0.999999 32123a.dat
1 71 -148.999900 -30.000010 -74.990190 1.000000 0.000000 0.000001 0.000000 1.000001 0.000000 -0.000001 0.000000 0.999999 3713.dat
1 14 -148.999900 -30.000000 12.509660 -1.000000 0.000000 0.000000 0.000000 -0.999998 0.000000 0.000000 0.000000 0.999998 32123a.dat
1 0 -148.999900 -30.000010 -23.440300 0.000000 0.000000 1.000000 0.000000 1.000001 0.000000 -0.999999 0.000000 0.000000 3706.dat
0 STEP
1 1 -109.000000 -140.650000 16.719790 0.000000 0.000000 1.000000 0.000000 0.999998 0.000000 -0.999998 0.000000 0.000000 3700.dat
1 1 -109.000000 -140.650000 -63.790510 0.000000 0.000000 1.000000 0.000000 0.999998 0.000000 -0.999998 0.000000 0.000000 3700.dat
1 0 -99.000000 -130.650000 -63.790460 -1.000000 0.000000 0.000000 0.000000 0.999998 0.000000 0.000000 0.000000 -0.999998 2780.dat
1 0 -99.000000 -130.650000 16.719860 -1.000000 0.000000 0.000000 0.000000 0.999998 0.000000 0.000000 0.000000 -0.999998 2780.dat
0 STEP
1 19 -165.129900 -130.160000 -23.560300 0.000000 0.000000 -1.000000 0.999998 0.000000 0.000000 0.000000 -0.999998 0.000000 32269.dat
1 15 -109.000000 -148.650000 -73.790600 0.000000 0.000000 1.000000 0.000000 0.999998 0.000000 -0.999998 0.000000 0.000000 2431.dat
1 15 -109.000000 -148.650000 26.719720 0.000000 0.000000 1.000000 0.000000 0.999998 0.000000 -0.999998 0.000000 0.000000 2431.dat
0 STEP
1 14 -108.999900 -258.099800 -38.570580 0.000000 1.000000 0.000000 0.999999 0.000000 0.000000 0.000000 0.000000 -0.999999 32123a.dat
1 0 -108.999900 -258.099800 -22.570620 0.000000 0.000000 1.000000 0.000000 0.999998 0.000000 -0.999999 0.000000 0.000000 3737.dat
1 71 -108.999900 -258.099800 28.979360 1.000000 0.000000 0.000001 0.000000 0.999998 0.000000 -0.000001 0.000000 0.999998 3713.dat
1 71 -108.999900 -258.099800 -75.660480 1.000000 0.000000 0.000001 0.000000 0.999998 0.000000 -0.000001 0.000000 0.999998 3713.dat
1 14 -108.999900 -258.099800 -8.220600 0.000000 1.000000 0.000000 0.999999 0.000000 0.000000 0.000000 0.000000 -0.999999 32123a.dat
0 STEP
0 STEP
