0 FILE 猪.io
0 Untitled Model
0 Name:  猪
0 Author:  
0 CustomBrick
0 NumOfBricks:  96
1 15 -55.698700 -60.170120 -52.248000 0.000001 0.000001 -1.000003 -1.000000 0.000001 -0.000001 0.000001 0.999999 0.000001 64871.dat
1 71 84.301540 -60.169990 -32.248260 0.000000 -1.000004 0.000000 0.000000 0.000000 1.000000 -1.000000 0.000000 0.000000 4519.dat
0 STEP
1 15 -55.698900 -60.170110 -11.817860 0.000001 0.000001 -1.000004 -1.000000 0.000001 -0.000001 0.000001 1.000000 0.000001 64871.dat
1 4 84.301540 -40.169980 -32.248260 0.000000 0.000000 -1.000004 0.000000 1.000000 0.000000 1.000000 0.000000 0.000000 42003.dat
0 STEP
1 4 122.941600 -40.170210 -32.027980 1.000003 0.000001 -0.000001 0.000001 0.000001 1.000000 0.000001 -0.999999 0.000001 32054.dat
1 71 54.251340 -40.170250 -32.027980 0.000000 0.000000 1.000000 0.000000 1.000000 0.000000 -1.000000 0.000000 0.000000 4716.dat
1 0 32.941330 -40.170250 -32.027980 -1.000003 0.000000 0.000000 0.000000 1.000000 0.000000 0.000000 0.000000 -0.999999 3707.dat
0 STEP
1 71 24.391360 -40.170250 -32.027980 0.000001 0.000000 -1.000002 0.000000 1.000000 0.000000 0.999999 0.000000 0.000001 3713.dat
1 4 4.301560 -40.170090 -31.676780 0.000000 0.000000 -1.000004 0.000000 1.000000 0.000000 1.000000 0.000000 0.000000 42003.dat
0 STEP
1 72 64.301220 -60.170060 -31.148580 0.000000 1.000005 0.000000 -1.000000 0.000000 0.000000 0.000000 0.000000 1.000001 3647.dat
1 71 64.301440 -60.170060 -31.818200 0.000000 0.000000 1.000004 0.000000 1.000000 0.000000 -1.000000 0.000000 0.000000 32073.dat
0 STEP
1 72 64.301220 -60.170060 -71.998660 0.000000 -1.000005 0.000000 1.000000 0.000000 0.000000 0.000000 0.000000 1.000001 3648b.dat
1 72 64.301220 -60.170060 8.501520 0.000000 -1.000005 0.000000 1.000000 0.000000 0.000000 0.000000 0.000000 1.000001 3648b.dat
0 STEP
1 1 4.299910 -60.170420 7.570430 1.000003 0.000000 0.000000 0.000000 0.000000 -1.000000 0.000000 0.999999 0.000000 6629.dat
1 71 4.301410 -60.170080 -32.248080 0.000000 0.000000 1.000003 0.000000 1.000000 0.000000 -0.999999 0.000000 0.000000 32073.dat
0 STEP
1 1 37.683500 -144.368400 27.570420 0.927837 0.372993 0.000000 -0.372992 0.927835 0.000000 0.000000 0.000000 0.999999 3894.dat
1 71 4.299910 -120.170400 17.570430 0.000000 0.000000 -1.000003 0.000000 1.000000 0.000000 0.999999 0.000000 0.000000 3673.dat
0 STEP
1 1 74.301240 -50.170060 28.501510 0.000000 0.000000 -1.000003 0.000000 1.000000 0.000000 0.999999 0.000000 0.000000 6558.dat
1 71 78.663260 -150.074800 38.501250 0.000000 0.000000 -1.000003 0.000000 1.000000 0.000000 0.999999 0.000000 0.000000 3673.dat
1 15 76.918360 -110.112900 48.501250 -0.999051 0.000001 0.043622 -0.043622 0.000001 -0.999048 -0.000001 -0.999999 -0.000001 40490.dat
0 STEP
1 0 73.425780 -30.188980 58.499520 0.000000 0.000000 -1.000017 0.000000 1.000000 0.000000 1.000008 0.000000 0.000000 2780.dat
1 19 75.101000 -70.153900 58.499520 -0.000001 0.999139 -0.041877 -0.000001 0.041877 0.999123 1.000006 0.000001 0.000000 3749.dat
1 1 75.100980 -70.153900 68.499800 0.999138 -0.000001 -0.041877 0.041877 0.000001 0.999123 -0.000001 -1.000006 0.000001 32140.dat
0 STEP
1 0 4.299940 -140.170400 -2.429550 0.000000 0.000000 -1.000003 0.000000 1.000000 0.000000 0.999999 0.000000 0.000000 2780.dat
1 16 -32.698240 -90.091430 -42.428980 -1.000006 0.000000 0.000000 0.000000 1.000000 0.000000 0.000000 0.000000 -1.000002 submodel group 9 copy copy copy
1 0 4.299940 -160.170500 -2.429550 0.000000 0.000000 -1.000002 0.000000 1.000000 0.000000 0.999999 0.000000 0.000000 2780.dat
0 STEP
1 0 4.300090 -140.170500 -62.429500 0.000000 0.000000 1.000003 0.000000 1.000003 0.000000 -1.000002 0.000000 0.000000 2780.dat
1 1 4.301130 -60.170070 -72.428340 1.000003 0.000000 0.000000 0.000000 0.000000 -1.000000 0.000000 0.999999 0.000000 6629.dat
1 0 4.301160 -160.170000 -62.428400 0.000000 0.000000 -1.000003 0.000000 1.000000 0.000000 0.999999 0.000000 0.000000 2780.dat
0 STEP
1 1 37.810760 -144.193300 -92.428310 0.929774 0.368139 0.000000 -0.368138 0.929771 0.000000 0.000000 0.000000 0.999999 3894.dat
1 71 4.301160 -120.170000 -82.428330 0.000000 0.000000 -1.000002 0.000000 1.000000 0.000000 0.999999 0.000000 0.000000 3673.dat
0 STEP
1 71 78.488220 -150.082200 -101.998500 0.000000 0.474096 -0.880476 0.000000 0.880474 0.474094 0.999999 0.000000 0.000000 3673.dat
1 1 74.301240 -50.170060 -91.998630 0.000000 0.000000 1.000003 0.000000 1.000000 0.000000 -0.999999 0.000000 0.000000 6558.dat
1 15 76.813350 -110.117400 -111.998600 0.999131 -0.000001 0.041870 0.041870 0.000001 -0.999123 0.000001 0.999999 0.000001 40490.dat
0 STEP
1 1 75.000000 -70.158120 -132.000000 -0.999263 0.000001 -0.038385 -0.038385 0.000001 0.999263 0.000001 1.000000 -0.000001 32140.dat
1 19 75.138640 -70.152500 -121.998800 0.000001 -1.000007 0.000001 0.000001 0.000001 1.000000 -0.999999 -0.000001 0.000001 3749.dat
1 0 73.463770 -30.187600 -121.999200 0.000000 0.000000 -1.000007 0.000000 1.000000 0.000000 0.999999 0.000000 0.000000 2780.dat
0 STEP
1 4 -55.698840 -40.170260 -32.027980 0.000000 0.000000 -1.000003 -1.000000 0.000000 0.000000 0.000000 0.999999 0.000000 32034.dat
1 71 -15.728810 -40.170260 -32.027980 0.000001 0.000000 -1.000002 0.000000 1.000000 0.000000 0.999999 0.000000 0.000001 3713.dat
0 STEP
1 72 -135.699200 -60.170220 -31.798060 0.000000 1.000004 0.000000 -1.000000 0.000000 0.000000 0.000000 0.000000 1.000000 3647.dat
1 71 -135.699200 -60.170220 -32.268100 0.000000 0.000000 1.000004 0.000000 1.000000 0.000000 -1.000000 0.000000 0.000000 32073.dat
0 STEP
1 72 -135.699200 -60.170220 -72.268120 0.000000 -1.000004 0.000000 1.000000 0.000000 0.000000 0.000000 0.000000 1.000000 3648b.dat
1 72 -135.699200 -60.170220 7.171940 0.000000 -1.000004 0.000000 1.000000 0.000000 0.000000 0.000000 0.000000 1.000000 3648b.dat
0 STEP
1 0 -145.699200 -40.170260 -32.027980 -1.000004 0.000000 0.000000 0.000000 1.000000 0.000000 0.000000 0.000000 -1.000000 3707.dat
1 71 -95.699050 -40.170260 -32.027980 0.000001 0.000000 -1.000002 0.000000 1.000000 0.000000 0.999999 0.000000 0.000001 3713.dat
1 14 -110.639100 -40.170260 -32.028040 0.000000 0.000000 1.000003 0.000000 1.000000 0.000000 -0.999999 0.000000 0.000000 32123a.dat
0 STEP
1 71 -136.379200 -40.170280 -32.027980 0.000000 0.000000 1.000000 0.000000 1.000000 0.000000 -1.000000 0.000000 0.000000 4716.dat
1 71 -175.699200 -40.170260 -32.027980 0.000001 0.000000 -1.000003 0.000000 1.000000 0.000000 0.999999 0.000000 0.000001 3713.dat
1 14 -160.699200 -40.170260 -32.027980 0.000000 0.000000 1.000002 0.000000 1.000000 0.000000 -0.999999 0.000000 0.000000 32123a.dat
0 STEP
1 4 -195.699400 -40.170260 -32.027980 0.000000 0.000000 -1.000004 0.000000 1.000000 0.000000 1.000000 0.000000 0.000000 42003.dat
1 71 -195.700500 -60.170540 -32.429590 0.000000 0.000000 1.000003 0.000000 1.000000 0.000000 -0.999999 0.000000 0.000000 32073.dat
0 STEP
1 0 -205.699400 -20.170290 -32.027990 -1.000004 0.000000 0.000000 0.000000 1.000000 0.000000 0.000000 0.000000 -1.000000 2780.dat
1 71 -205.699500 -40.170260 -32.028040 0.000000 0.000000 -1.000004 0.000000 1.000000 0.000000 1.000000 0.000000 0.000000 58120.dat
0 STEP
1 19 -227.700600 -184.170500 17.570430 -0.000001 1.000003 -0.000001 0.000001 0.000001 1.000000 0.999999 0.000001 -0.000001 3749.dat
1 0 -195.700500 -140.170500 -2.429670 0.000000 0.000000 -1.000003 0.000000 1.000000 0.000000 0.999999 0.000000 0.000000 2780.dat
1 1 -195.700500 -60.170560 7.570370 -1.000003 0.000000 0.000000 0.000000 0.000000 -1.000000 0.000000 -0.999999 0.000000 6629.dat
1 0 -195.700500 -160.170500 -2.429610 0.000000 0.000000 -1.000002 0.000000 1.000000 0.000000 0.999999 0.000000 0.000000 2780.dat
0 STEP
1 0 -195.700500 -80.170540 -2.429610 0.000000 0.000000 -1.000002 0.000000 1.000000 0.000000 0.999999 0.000000 0.000000 2780.dat
1 0 -195.700500 -100.170500 -2.429610 0.000000 0.000000 -1.000002 0.000000 1.000000 0.000000 0.999999 0.000000 0.000000 2780.dat
1 1 -255.700700 -80.170620 -12.429670 0.000001 0.000001 1.000003 -1.000000 0.000001 0.000001 -0.000001 -0.999999 0.000001 32140.dat
0 STEP
1 71 -195.700500 -120.170500 17.570310 0.000000 0.000000 -1.000003 0.000000 1.000000 0.000000 0.999999 0.000000 0.000000 3673.dat
1 1 -170.907600 -153.114800 27.570300 0.777147 0.629323 0.000000 -0.629322 0.777144 0.000000 0.000000 0.000000 0.999999 3894.dat
0 STEP
1 1 -125.699200 -70.170220 27.171920 0.000000 0.000000 -1.000003 0.000000 1.000000 0.000000 0.999999 0.000000 0.000000 6558.dat
1 71 -133.719100 -169.848100 37.171740 0.000000 0.000000 -1.000003 0.000000 1.000000 0.000000 0.999999 0.000000 0.000000 3673.dat
1 15 -130.511200 -129.976900 47.171840 -0.996782 0.000001 -0.080199 0.080199 0.000001 -0.996779 -0.000001 -0.999999 -0.000001 40490.dat
0 STEP
1 1 -127.512300 -90.088370 67.172120 0.996348 -0.000001 0.085414 -0.085413 0.000001 0.996345 -0.000001 -0.999999 0.000001 32140.dat
1 19 -127.303500 -90.105690 57.171960 -0.000001 1.000003 -0.000001 0.000001 0.000001 1.000000 0.999999 0.000001 -0.000001 3749.dat
1 0 -124.095800 -50.234560 57.172130 -0.000001 0.080199 -0.996782 0.000000 0.996779 0.080198 0.999999 0.000000 -0.000001 2780.dat
0 STEP
1 1 -195.700500 -60.170530 -72.429560 -1.000003 0.000000 0.000000 0.000000 0.000000 -1.000000 0.000000 -0.999999 0.000000 6629.dat
1 0 -195.700500 -140.170400 -62.429680 0.000000 0.000000 -1.000003 0.000000 1.000000 0.000000 0.999999 0.000000 0.000000 2780.dat
1 0 -195.700500 -160.170500 -62.429560 0.000000 0.000000 -1.000002 0.000000 1.000000 0.000000 0.999999 0.000000 0.000000 2780.dat
0 STEP
1 1 -255.700700 -80.170600 -52.429700 0.000001 0.000001 1.000003 -1.000000 0.000001 0.000001 -0.000001 -0.999999 0.000001 32140.dat
1 0 -195.700500 -80.170520 -62.429620 0.000000 0.000000 -1.000003 0.000000 1.000000 0.000000 0.999999 0.000000 0.000000 2780.dat
1 0 -195.700500 -100.170500 -62.429500 0.000000 0.000000 -1.000002 0.000000 1.000000 0.000000 0.999999 0.000000 0.000000 2780.dat
0 STEP
1 15 -215.700600 -120.170400 -32.429530 0.000001 1.000003 0.000001 -1.000000 0.000001 -0.000001 -0.000001 -0.000001 0.999999 32523.dat
1 0 -205.700500 -120.170400 -52.429630 -1.000003 0.000000 0.000000 0.000000 1.000000 0.000000 0.000000 0.000000 -0.999999 2780.dat
1 0 -205.700500 -120.170400 -12.429540 -1.000003 0.000000 0.000000 0.000000 1.000000 0.000000 0.000000 0.000000 -0.999999 2780.dat
0 STEP
1 4 -255.700700 -100.170600 -32.429660 0.000000 0.000000 1.000003 0.000000 -1.000000 0.000000 0.999999 0.000000 0.000000 42003.dat
1 71 -255.700700 -80.170560 -32.429660 0.000000 -1.000003 0.000000 0.000000 0.000000 1.000000 -0.999999 0.000000 0.000000 4519.dat
0 STEP
1 72 -265.700700 -120.170600 -32.429660 -1.000003 0.000000 0.000001 0.000000 -1.000000 0.000000 0.000001 0.000000 0.999999 32002.dat
1 72 -265.700700 -100.170600 -32.429660 -1.000003 0.000000 0.000001 0.000000 -1.000000 0.000000 0.000001 0.000000 0.999999 32002.dat
0 STEP
1 71 -195.700500 -120.170500 -82.429530 0.000000 0.000000 -1.000003 0.000000 1.000000 0.000000 0.999999 0.000000 0.000000 3673.dat
1 1 -170.850200 -153.071500 -92.429530 0.778243 0.627967 0.000000 -0.627966 0.778240 0.000000 0.000000 0.000000 0.999999 3894.dat
1 19 -227.700600 -184.170500 -82.429530 0.000001 -1.000003 0.000001 0.000001 0.000001 1.000000 -0.999999 -0.000001 0.000001 3749.dat
0 STEP
1 1 -125.699200 -70.170220 -92.268230 0.000000 0.000000 1.000003 0.000000 1.000000 0.000000 -0.999999 0.000000 0.000000 6558.dat
1 71 -134.066600 -169.819500 -102.268200 0.000000 0.000000 -1.000003 0.000000 1.000000 0.000000 0.999999 0.000000 0.000000 3673.dat
1 15 -130.719700 -129.959800 -112.268100 0.996496 -0.000001 0.083677 -0.083676 -0.000001 0.996493 -0.000001 -0.999999 -0.000001 40490.dat
0 STEP
1 1 -126.817300 -90.142920 -132.268500 -0.997573 0.000001 0.069763 0.069763 0.000001 0.997563 0.000001 1.000001 -0.000002 32140.dat
1 0 -124.026900 -50.240420 -122.268400 0.000000 0.000000 -1.000010 0.000000 1.000000 0.000000 1.000001 0.000000 0.000000 2780.dat
1 19 -126.817200 -90.142890 -122.268500 0.000001 -0.997571 0.069763 -0.000002 0.069762 0.997563 -1.000001 -0.000001 -0.000002 3749.dat
0 STEP
1 0 -227.700700 -184.170600 -102.686300 0.000000 -1.000003 0.000000 1.000000 0.000000 0.000001 -0.000001 0.000000 0.999999 30391.dat
1 71 -227.700600 -184.170500 -102.429500 -1.000003 0.000000 0.000000 0.000000 -1.000000 0.000000 0.000000 0.000000 0.999999 55982.dat
1 0 -227.701000 -184.170600 37.617600 1.000003 0.000000 0.000001 0.000000 -1.000000 0.000000 0.000001 0.000000 -0.999999 30391.dat
1 71 -227.700600 -184.170500 37.360330 0.000000 -1.000003 0.000000 -1.000000 0.000000 0.000000 0.000000 0.000000 -0.999999 55982.dat
0 STEP
0 STEP
0 NOFILE
0 FILE SubModel Group 9 Copy Copy Copy
0 SubModel Group 9 Copy Copy Copy
0 Name:  SubModel Group 9 Copy Copy Copy
0 Author:  
0 CustomBrick
0 NumOfBricks:  3
1 72 10.000000 -1.128810 -10.000000 1.000000 0.000000 0.000000 0.000000 0.000000 -1.000000 0.000000 1.000000 0.000000 dch003.dat
1 71 -27.466620 -79.717990 29.427020 1.000000 0.000000 0.000000 0.000000 0.000000 -1.000000 0.000000 1.000000 0.000000 dch004.dat
1 25 7.837010 13.484720 -9.965000 1.000000 0.000000 0.000000 0.000000 0.000000 -1.000000 0.000000 1.000000 0.000000 dch005.dat
0 NOFILE
