0 Untitled Model
0 Name:  避震三轮车
0 Author:  
0 CustomBrick
0 NumOfBricks:  69
1 1 58.000260 -132.639200 -57.999600 0.000001 0.000000 1.000000 0.000000 1.000001 0.000000 -1.000000 0.000000 0.000001 6558.dat
1 1 37.999990 -132.639200 -57.999910 0.000001 0.000000 1.000000 0.000000 1.000001 0.000000 -1.000001 0.000000 0.000001 6558.dat
1 4 58.000020 -132.639200 -57.999860 0.000000 -1.000000 0.000000 -1.000000 -0.000001 0.000000 0.000000 -0.000001 -1.000000 42003.dat
0 STEP
1 19 -2.000070 -132.639100 -89.799900 -0.000001 1.000000 -0.000001 0.000001 0.000001 0.999999 0.999999 0.000001 -0.000001 3749.dat
1 1 -2.000010 -132.639100 -77.999860 0.000001 0.000001 1.000000 0.999999 -0.000001 -0.000001 0.000001 0.999999 -0.000001 32271.dat
0 STEP
1 19 -2.000010 -132.639100 -28.000080 0.000002 -1.000000 0.000001 0.000001 0.000001 1.000001 -1.000000 -0.000001 0.000001 3749.dat
1 1 -1.998970 -132.639100 -38.001150 0.000001 0.000000 1.000000 0.999999 -0.000001 -0.000001 0.000001 0.999999 0.000000 32271.dat
0 STEP
1 1 -62.000000 -132.639100 -18.000000 0.000001 0.000001 1.000000 1.000000 -0.000001 -0.000001 0.000001 1.000000 -0.000001 32140.dat
1 1 -62.000240 -132.639100 -99.799760 0.000001 0.000001 1.000000 0.999999 -0.000001 -0.000001 0.000001 0.999999 -0.000001 32140.dat
1 0 -2.000070 -112.639200 -79.799770 0.000001 0.000000 -1.000000 0.000001 -0.999999 0.000000 -0.999999 -0.000001 -0.000001 15100.dat
1 0 -1.999890 -112.639200 -38.000110 -0.000001 0.000000 1.000000 0.000001 -1.000000 0.000000 1.000000 0.000001 0.000001 15100.dat
0 STEP
1 0 -42.000020 -132.639100 -28.000020 0.000000 0.000000 -1.000000 0.000000 0.999999 0.000000 0.999999 0.000000 0.000000 2780.dat
1 0 -42.000260 -132.639100 -89.799770 0.000000 0.000000 -1.000000 0.000000 0.999999 0.000000 0.999999 0.000000 0.000000 2780.dat
1 4 -42.000020 -132.639100 -37.999990 0.000000 0.000000 -1.000000 0.000000 -0.999999 0.000000 -0.999999 0.000000 0.000000 32034.dat
1 4 -42.000260 -132.639100 -79.799790 0.000000 0.000000 -1.000000 0.000000 -0.999999 0.000000 -0.999999 0.000000 0.000000 32034.dat
0 STEP
1 19 -72.000030 -132.639100 -38.000050 1.000000 0.000001 -0.000001 0.000001 0.000001 0.999999 0.000001 -0.999999 0.000001 3749.dat
1 19 -73.320340 -132.639100 -79.799790 1.000000 0.000001 -0.000001 0.000001 0.000001 0.999999 0.000001 -0.999999 0.000001 3749.dat
0 STEP
1 1 -83.320400 -142.639200 -79.799850 0.000000 0.000000 1.000000 0.000000 0.999999 0.000000 -0.999999 0.000000 0.000000 3700.dat
1 1 -82.000080 -142.639200 -38.000110 0.000000 0.000000 1.000000 0.000000 0.999999 0.000000 -0.999999 0.000000 0.000000 3700.dat
0 STEP
1 19 -62.000180 -132.639100 -109.799800 -0.000002 1.000000 -0.000001 0.000001 0.000001 1.000000 1.000000 0.000002 -0.000001 3749.dat
1 19 -61.999980 -132.639100 -8.020070 0.000001 -1.000000 0.000001 0.000001 0.000001 1.000000 -1.000000 -0.000002 0.000001 3749.dat
0 STEP
1 4 -62.000190 -132.639100 -129.799800 0.000000 0.000000 1.000000 0.000000 1.000000 0.000000 -1.000000 0.000000 0.000000 62462.dat
1 4 -61.999980 -132.639100 10.980050 0.000000 0.000000 -1.000000 0.000000 1.000000 0.000000 1.000000 0.000000 0.000000 62462.dat
0 STEP
1 19 -61.999980 -132.639100 30.980050 -0.000001 1.000000 -0.000001 0.000001 0.000001 0.999999 0.999999 0.000001 -0.000001 3749.dat
1 19 -62.000240 -132.639100 -152.289700 0.000001 -1.000000 0.000001 0.000001 0.000001 0.999999 -0.999999 -0.000001 0.000001 3749.dat
0 STEP
1 1 -92.000140 -150.639200 -18.000220 0.000000 0.000000 1.000000 0.000000 0.999999 0.000000 -0.999999 0.000000 0.000000 3709b.dat
1 1 -93.320450 -150.639100 -99.799820 0.000000 0.000000 1.000000 0.000000 0.999999 0.000000 -0.999999 0.000000 0.000000 3709b.dat
0 STEP
1 15 -83.320460 -174.639100 -129.799800 0.000000 0.000000 0.999999 0.000000 0.999999 0.000000 -0.999999 0.000000 0.000000 3040b.dat
1 15 -82.000200 -174.639100 11.999670 0.000000 0.000000 0.999999 0.000000 0.999999 0.000000 -0.999999 0.000000 0.000000 3040b.dat
1 15 -83.320460 -174.639100 -69.799860 0.000000 0.000000 1.000000 0.000000 0.999999 0.000000 -0.999999 0.000000 0.000000 3040b.dat
1 15 -82.000140 -174.639100 -48.000240 0.000000 0.000000 1.000000 0.000000 0.999999 0.000000 -0.999999 0.000000 0.000000 3040b.dat
1 15 -93.320450 -174.639100 -99.799820 1.000000 0.000000 0.000000 0.000000 0.999999 0.000000 0.000000 0.000000 0.999999 3941.dat
1 15 -92.000140 -174.639100 -18.000220 1.000000 0.000000 0.000000 0.000000 0.999999 0.000000 0.000000 0.000000 0.999999 3941.dat
1 19 -93.320450 -174.639100 -99.799820 -0.000001 1.000000 -0.000001 0.999999 0.000001 -0.000001 -0.000001 -0.000001 -0.999999 3749.dat
1 19 -92.000200 -174.639200 -18.000160 -0.000001 1.000000 -0.000001 0.999999 0.000001 -0.000001 -0.000001 -0.000001 -0.999999 3749.dat
0 STEP
1 71 77.999980 -151.449200 -57.999860 0.000000 -1.000000 0.000000 1.000000 0.000000 0.000000 0.000000 0.000000 1.000000 4519.dat
1 71 77.999980 -153.009200 -57.999910 1.000000 0.000000 0.000001 -0.000001 0.000000 1.000000 0.000000 -1.000000 0.000000 3713.dat
0 STEP
1 0 77.999920 -173.749200 -57.999860 0.000000 1.000000 0.000000 -0.999999 0.000000 0.000000 0.000000 0.000000 0.999999 32291.dat
1 71 97.999950 -183.749200 -57.169830 0.000000 -1.000000 0.000000 0.000000 0.000000 0.999999 -0.999999 0.000000 0.000000 4519.dat
0 STEP
1 71 97.999930 -183.752000 -87.169770 1.000000 0.000000 0.000001 0.000000 0.999999 0.000000 -0.000001 0.000000 0.999999 59443.dat
1 71 97.999980 -183.752000 -27.169880 1.000000 0.000000 0.000001 0.000000 0.999999 0.000000 -0.000001 0.000000 0.999999 59443.dat
0 STEP
1 0 117.999900 -132.639300 -87.999910 0.000000 0.000000 -1.000000 0.000000 0.999999 0.000000 0.999999 0.000000 0.000000 2780.dat
1 0 118.000100 -132.639300 -28.000080 0.000001 0.000000 1.000000 0.000000 1.000001 0.000000 -1.000001 0.000000 0.000001 2780.dat
1 4 142.000600 -100.639300 -26.001060 -0.000001 0.593517 0.804822 0.000000 0.804822 -0.593517 -1.000001 0.000000 -0.000001 32062.dat
1 4 141.999900 -100.639300 -87.000030 -0.000001 0.593517 0.804821 0.000000 0.804821 -0.593517 -0.999999 0.000000 -0.000001 32062.dat
0 STEP
1 1 153.870800 -84.542850 -15.171120 0.000000 -0.593517 -0.804822 -0.000001 -0.804823 0.593517 -1.000000 0.000001 0.000000 32184.dat
1 1 153.870700 -84.542810 -97.170120 0.000000 -0.593519 -0.804819 -0.000001 -0.804821 0.593517 -0.999999 0.000001 0.000000 32184.dat
0 STEP
1 4 165.741200 -68.446400 -2.521110 0.000001 0.593516 0.804821 0.000000 0.804822 -0.593517 -1.000000 0.000000 0.000000 32062.dat
1 4 165.741200 -68.446430 -107.170200 0.000001 0.593518 0.804820 0.000000 0.804820 -0.593518 -0.999999 0.000000 0.000001 32062.dat
0 STEP
1 72 177.611500 -52.350020 -77.245150 0.000000 -1.000000 0.000000 -0.999999 0.000000 0.000000 0.000000 0.000000 -0.999999 3648b.dat
1 71 177.611500 -52.350020 -13.495280 1.000000 0.000000 0.000001 0.000000 0.999999 0.000000 -0.000001 0.000000 0.999999 3713.dat
1 71 177.611600 -52.350020 -57.245200 0.000000 0.000000 1.000000 0.000000 0.999999 0.000000 -0.999999 0.000000 0.000000 44294.dat
1 71 177.611600 -52.350020 -57.965220 0.000000 -1.000000 0.000000 0.999999 0.000000 0.000000 0.000000 0.000000 0.999999 3649.dat
1 72 167.611600 -42.350020 -39.645250 -1.000000 0.000000 0.000000 0.000000 -0.999999 0.000000 0.000000 0.000000 0.999999 3648b.dat
1 71 177.611600 -52.350020 -97.245120 1.000000 0.000000 0.000001 0.000000 0.999999 0.000000 -0.000001 0.000000 0.999999 3713.dat
0 STEP
1 71 165.741200 -68.446420 7.479000 0.804822 0.000001 0.593517 -0.593517 0.000000 0.804822 0.000001 -1.000000 0.000000 60483.dat
1 71 165.741200 -68.446400 -117.170200 0.804821 0.000001 0.593518 -0.593518 0.000000 0.804820 0.000001 -0.999999 0.000001 60483.dat
0 STEP
1 0 161.919100 -90.477970 -15.171120 -0.804821 0.593517 0.000000 0.593517 0.804821 0.000000 0.000000 0.000000 -0.999999 2780.dat
1 0 161.919000 -90.477970 -97.170120 -0.804821 0.593518 0.000000 0.593518 0.804820 0.000000 0.000000 0.000000 -0.999999 2780.dat
0 STEP
1 4 169.967300 -96.413150 -15.171120 -0.804822 0.000000 -0.593517 0.593517 0.000000 -0.804821 0.000000 -0.999999 0.000000 32034.dat
1 4 169.967200 -96.413200 -97.170120 0.804821 0.000000 -0.593518 -0.593518 0.000000 -0.804820 0.000000 0.999999 0.000000 32034.dat
0 STEP
1 4 152.161800 -120.557800 -15.171120 -0.593517 -0.804820 0.000000 -0.804820 0.593517 0.000000 0.000000 0.000000 -0.999999 32062.dat
1 4 152.161600 -120.557800 -97.170120 -0.593518 -0.804819 0.000000 -0.804819 0.593518 0.000000 0.000000 0.000000 -0.999999 32062.dat
0 STEP
1 71 146.241400 -129.942000 -15.171180 0.000000 -0.804820 -0.593517 0.000000 0.593517 -0.804820 0.999999 0.000000 0.000000 3713.dat
1 71 146.226500 -128.606000 -97.170120 0.000000 -0.804819 -0.593518 0.000000 0.593518 -0.804819 0.999999 0.000000 0.000000 3713.dat
0 STEP
1 0 -62.000360 -132.639100 50.980340 0.000000 -1.000000 0.000000 0.999999 0.000000 0.000000 0.000000 0.000000 1.000000 44309.dat
1 71 -61.999980 -132.639100 50.980030 -1.000000 0.000000 0.000000 0.000000 -0.999999 0.000000 0.000000 0.000000 0.999999 56145.dat
1 0 -61.999200 -132.639100 -172.290100 0.000000 0.999999 0.000000 0.999999 0.000000 0.000000 0.000000 0.000000 -0.999999 44309.dat
1 71 -62.000060 -132.639100 -172.289500 1.000002 0.000000 0.000000 0.000000 -1.000001 0.000000 0.000000 0.000000 -0.999999 56145.dat
0 STEP
0 STEP
