0 FILE 水车.io
0 Untitled Model
0 Name:  水车
0 Author:  
0 CustomBrick
0 NumOfBricks:  129
1 1 -150.000000 -32.000090 -179.999800 0.000000 0.000000 -1.000000 0.000000 1.000000 0.000000 1.000000 0.000000 0.000000 3895.dat
1 1 -80.000360 -8.000000 -280.000000 1.000000 0.000000 0.000000 0.000000 1.000000 0.000000 0.000000 0.000000 1.000000 3738.dat
0 STEP
1 1 -10.000710 -32.000060 -179.999800 0.000000 0.000000 -1.000000 0.000000 1.000000 0.000000 1.000000 0.000000 0.000000 3895.dat
1 1 -80.000290 -8.000080 -79.999900 1.000000 0.000000 0.000000 0.000000 1.000000 0.000000 0.000000 0.000000 1.000000 3738.dat
0 STEP
1 1 -80.000360 -32.000000 -290.000000 1.000000 0.000000 0.000000 0.000000 1.000000 0.000000 0.000000 0.000000 1.000000 3894.dat
1 1 -80.000290 -32.000060 -69.999900 1.000000 0.000000 0.000000 0.000000 1.000000 0.000000 0.000000 0.000000 1.000000 3894.dat
0 STEP
1 19 -120.000400 -22.000000 -300.000000 0.000001 -0.999995 0.000001 0.000001 0.000001 1.000000 -1.000000 -0.000001 0.000001 3749.dat
1 19 -40.000370 -21.999980 -300.000000 0.000001 -0.999995 0.000001 0.000001 0.000001 1.000000 -1.000000 -0.000001 0.000001 3749.dat
1 71 -120.000400 -21.999970 -310.000000 0.000000 -0.999995 0.000000 -1.000000 0.000000 -0.000001 0.000001 0.000000 -1.000000 94925.dat
1 71 -40.000370 -21.999960 -310.000000 0.000000 -0.999995 0.000000 -1.000000 0.000000 -0.000001 0.000001 0.000000 -1.000000 94925.dat
0 STEP
1 0 -0.000880 -22.000020 -280.000000 -1.000000 0.000000 0.000000 0.000000 1.000000 0.000000 0.000000 0.000000 -1.000000 2780.dat
1 0 -160.000000 -22.000060 -280.000000 -1.000000 0.000000 0.000000 0.000000 1.000000 0.000000 0.000000 0.000000 -1.000000 2780.dat
1 0 -0.000760 -22.000080 -239.999800 -1.000000 0.000000 0.000000 0.000000 1.000000 0.000000 0.000000 0.000000 -1.000000 2780.dat
0 STEP
1 0 -160.865900 -23.999060 -207.999400 -1.000000 0.000000 0.000000 0.000000 1.000000 0.000000 0.000000 0.000000 -1.000000 2780.dat
1 0 -160.866000 -23.999060 -167.999500 -1.000000 0.000000 0.000000 0.000000 1.000000 0.000000 0.000000 0.000000 -1.000000 2780.dat
1 0 -159.999900 -22.000090 -239.999700 -1.000000 0.000000 0.000000 0.000000 1.000000 0.000000 0.000000 0.000000 -1.000000 2780.dat
0 STEP
1 1 -80.000360 -40.000080 -79.999900 1.000000 0.000000 0.000000 0.000000 1.000000 0.000000 0.000000 0.000000 1.000000 3738.dat
1 1 -80.000360 -40.000020 -280.000000 1.000000 0.000000 0.000000 0.000000 1.000000 0.000000 0.000000 0.000000 1.000000 3738.dat
0 STEP
1 1 -169.999900 -102.000100 -239.999900 -0.000001 -1.000000 0.000001 0.000001 0.000001 1.000000 -1.000000 0.000001 0.000001 32526.dat
1 1 9.998950 -102.000100 -239.999800 -0.000001 -1.000000 0.000001 0.000001 0.000001 1.000000 -1.000000 0.000001 0.000001 32526.dat
1 0 -0.001300 -102.000100 -239.999800 -1.000000 0.000000 0.000000 0.000000 1.000000 0.000000 0.000000 0.000000 -1.000000 2780.dat
1 0 -0.001000 -62.000080 -239.999700 -1.000000 0.000000 0.000000 0.000000 1.000000 0.000000 0.000000 0.000000 -1.000000 2780.dat
1 0 -160.000000 -102.000100 -239.999800 -1.000000 0.000000 0.000000 0.000000 1.000000 0.000000 0.000000 0.000000 -1.000000 2780.dat
1 0 -159.999900 -62.000100 -239.999800 -1.000000 0.000000 0.000000 0.000000 1.000000 0.000000 0.000000 0.000000 -1.000000 2780.dat
0 STEP
1 1 -10.001020 -202.000200 -229.999800 0.000000 0.000000 -1.000000 1.000000 0.000000 0.000000 0.000000 -1.000000 0.000000 3703.dat
1 1 -150.000000 -202.000100 -249.999800 0.000000 0.000000 1.000000 1.000000 0.000000 0.000000 0.000000 1.000000 0.000000 3703.dat
0 STEP
1 72 9.718800 -341.999900 -239.999800 0.000000 0.000000 -1.000000 1.000000 0.000000 0.000000 0.000000 -1.000000 0.000000 3648b.dat
1 72 -170.280300 -341.999900 -239.999900 0.000000 0.000000 -1.000000 1.000000 0.000000 0.000000 0.000000 -1.000000 0.000000 3648b.dat
1 16 -87.602840 -54.246160 -226.309200 1.000000 0.000000 0.000000 0.000000 1.000000 0.000000 0.000000 0.000000 1.000000 submodel group 1
0 STEP
1 19 -0.001060 -262.000000 -239.999800 1.000000 0.000001 -0.000001 0.000001 0.000001 1.000000 0.000001 -1.000000 0.000001 3749.dat
0 STEP
1 71 9.997849 -262.000900 -239.999900 0.000000 0.000000 -0.999995 1.000000 0.000000 0.000000 0.000000 -1.000000 0.000000 3649.dat
1 72 10.011950 -202.000300 -239.999800 0.000000 0.000000 -1.000000 1.000000 0.000000 0.000000 0.000000 -1.000000 0.000000 3647.dat
1 71 -29.991330 -202.000200 -239.999900 0.000000 0.000000 -1.000000 1.000000 0.000000 0.000000 0.000000 -1.000000 0.000000 3649.dat
1 71 -9.991429 -202.000200 -239.999800 1.000000 0.000000 0.000000 0.000000 0.000000 1.000000 0.000000 -1.000000 0.000000 4519.dat
0 STEP
1 72 -30.001160 -142.000200 -239.999800 0.000000 0.000000 -1.000000 0.000000 -1.000000 0.000000 -1.000000 0.000000 0.000000 3647.dat
1 0 -0.001300 -162.000200 -239.999900 -1.000000 0.000000 0.000000 0.000000 1.000000 0.000000 0.000000 0.000000 -1.000000 2780.dat
1 0 -0.001300 -122.000100 -239.999800 -1.000000 0.000000 0.000000 0.000000 1.000000 0.000000 0.000000 0.000000 -1.000000 2780.dat
1 71 -10.001010 -142.000200 -239.999800 1.000000 0.000000 0.000000 0.000000 0.000000 1.000000 0.000000 -1.000000 0.000000 4519.dat
0 STEP
1 15 1.000000 -142.187600 -240.000000 0.000000 0.000000 1.000000 0.000000 1.000000 0.000000 -1.000000 0.000000 0.000000 dx0056.dat.dat
0 STEP
1 19 -160.000000 -262.000000 -239.999800 -1.000000 -0.000001 -0.000001 0.000001 -1.000000 0.000001 -0.000001 0.000001 1.000000 3749.dat
0 STEP
1 71 -170.340100 -262.000000 -239.999700 0.000000 0.000002 1.000000 -1.000000 0.000001 0.000000 -0.000001 -1.000000 0.000002 3649.dat
0 STEP
1 71 -200.333500 -232.001700 -230.000100 0.000001 0.000000 -1.000000 0.000000 1.000000 0.000000 1.000000 0.000000 0.000001 59443.dat
1 19 -180.340100 -232.000200 -229.999700 -1.000000 -0.000001 0.000001 0.000001 0.000001 1.000000 -0.000001 1.000000 -0.000001 3749.dat
1 4 -220.334000 -231.998700 -230.000100 -1.000000 0.000000 0.000000 0.000000 1.000000 0.000000 0.000000 0.000000 -1.000000 32062.dat
0 STEP
1 71 -240.335900 -232.001600 -229.999900 0.000001 0.000000 -1.000000 0.000000 1.000000 0.000000 1.000000 0.000000 0.000001 59443.dat
0 STEP
1 1 -290.863700 -33.998500 -127.999800 1.000000 0.000000 0.000000 0.000000 1.000000 0.000000 0.000000 0.000000 1.000000 3895.dat
1 1 -390.865200 -9.998760 -117.999800 0.000000 0.000000 1.000000 0.000000 1.000000 0.000000 -1.000000 0.000000 0.000000 3709b.dat
1 1 -190.862900 -9.998690 -117.999800 0.000000 0.000000 1.000000 0.000000 1.000000 0.000000 -1.000000 0.000000 0.000000 3709b.dat
0 STEP
1 0 -370.865500 -23.998720 -117.999500 -0.000001 0.000000 -1.000000 0.000000 1.000000 0.000000 1.000000 0.000000 -0.000001 2780.dat
1 0 -210.863500 -23.998750 -117.999500 -0.000001 0.000000 -1.000000 0.000000 1.000000 0.000000 1.000000 0.000000 -0.000001 2780.dat
1 0 -230.864000 -23.998690 -137.999500 -0.000001 0.000000 -1.000000 0.000000 1.000000 0.000000 1.000000 0.000000 -0.000001 2780.dat
1 0 -190.863800 -23.998480 -137.999700 0.000000 0.000000 -0.999995 0.000000 1.000000 0.000000 1.000000 0.000000 0.000000 2780.dat
0 STEP
1 14 -219.854300 -15.208710 -153.797500 0.000000 0.000000 1.000000 0.000000 1.000000 0.000000 -1.000000 0.000000 0.000000 12344.dat
0 STEP
1 1 -290.863700 -33.998500 -107.999500 -1.000000 0.000000 0.000000 0.000000 1.000000 0.000000 0.000000 0.000000 -1.000000 3895.dat
0 STEP
1 0 -390.865500 -23.998720 -97.999400 0.000000 0.000000 1.000000 0.000000 1.000000 0.000000 -1.000000 0.000000 0.000000 2780.dat
1 0 -190.863200 -23.998750 -97.999290 0.000000 0.000000 1.000000 0.000000 1.000000 0.000000 -1.000000 0.000000 0.000000 2780.dat
0 STEP
1 1 -290.864000 -33.998500 -87.999900 -1.000000 0.000000 0.000000 0.000000 1.000000 0.000000 0.000000 0.000000 -1.000000 3895.dat
0 STEP
1 1 -400.865100 -57.998330 -117.999500 0.000000 0.000000 1.000000 0.000000 1.000000 0.000000 -1.000000 0.000000 0.000000 3701.dat
1 1 -260.863400 -57.998330 -117.999500 0.000000 0.000000 1.000000 0.000000 1.000000 0.000000 -1.000000 0.000000 0.000000 3701.dat
1 0 -390.865300 -47.998560 -137.999500 1.000000 0.000000 0.000000 0.000000 1.000000 0.000000 0.000000 0.000000 1.000000 2780.dat
1 0 -390.865500 -47.998560 -97.999710 1.000000 0.000000 0.000000 0.000000 1.000000 0.000000 0.000000 0.000000 1.000000 2780.dat
1 0 -270.863300 -47.998700 -97.999480 1.000000 0.000000 0.000000 0.000000 1.000000 0.000000 0.000000 0.000000 1.000000 2780.dat
1 0 -270.863500 -47.998630 -137.999500 1.000000 0.000000 0.000000 0.000000 1.000000 0.000000 0.000000 0.000000 1.000000 2780.dat
0 STEP
1 1 -380.865700 -127.998200 -97.991710 0.000000 -1.000000 0.000001 0.000001 0.000000 1.000000 -1.000000 0.000000 0.000002 32526.dat
1 1 -280.863600 -127.998100 -97.999710 -0.000001 -1.000000 0.000001 0.000001 0.000001 1.000000 -1.000000 0.000001 0.000001 32526.dat
1 71 -370.865600 -127.998200 -97.999480 1.000000 0.000000 0.000000 0.000000 1.000000 0.000000 0.000000 0.000000 1.000000 3673.dat
1 71 -290.863500 -127.998300 -97.999480 1.000000 0.000000 0.000000 0.000000 1.000000 0.000000 0.000000 0.000000 1.000000 3673.dat
0 STEP
1 1 -360.865500 -187.998300 -107.999400 0.000000 0.000000 1.000000 1.000000 0.000000 0.000000 0.000000 1.000000 0.000000 3702.dat
1 1 -330.864400 -127.998300 -83.999770 -1.000000 0.000000 0.000000 0.000000 0.000000 1.000000 0.000000 1.000000 0.000000 3709b.dat
1 1 -300.864000 -187.998300 -107.999500 0.000000 0.000000 1.000000 1.000000 0.000000 0.000000 0.000000 1.000000 0.000000 3702.dat
0 STEP
1 1 -330.864000 -267.999600 -83.999480 1.000000 0.000000 0.000000 0.000000 0.000000 -1.000000 0.000000 1.000000 0.000000 3709b.dat
1 1 -330.864500 -277.999700 -107.999500 -1.000000 0.000000 0.000000 0.000000 0.000000 1.000000 0.000000 1.000000 0.000000 3701.dat
1 1 -330.864600 -117.998300 -107.999500 -1.000000 0.000000 0.000000 0.000000 0.000000 1.000000 0.000000 1.000000 0.000000 3700.dat
0 STEP
1 1 -330.864400 -267.999800 -115.999500 -1.000000 0.000000 0.000000 0.000000 0.000000 1.000000 0.000000 1.000000 0.000000 3709b.dat
1 1 -330.864400 -127.998200 -115.999500 -1.000000 0.000000 0.000000 0.000000 0.000000 1.000000 0.000000 1.000000 0.000000 3709b.dat
0 STEP
1 4 -330.864500 -277.999800 -97.999710 -0.000001 1.000000 -0.000001 1.000000 0.000001 -0.000001 -0.000001 -0.000001 -1.000001 32054.dat
1 15 -330.864500 -317.999800 -97.999480 -0.000001 -0.000001 0.999995 -0.000001 -1.000000 -0.000001 1.000000 -0.000001 0.000001 32523.dat
1 19 -330.864500 -307.999800 -97.999480 0.000001 0.000001 0.999995 1.000000 0.000001 -0.000001 -0.000001 1.000000 -0.000001 3749.dat
0 STEP
1 19 -370.865600 -247.998600 -97.999400 -1.000000 -0.000001 0.000001 0.000001 0.000001 1.000000 -0.000001 1.000000 -0.000001 3749.dat
1 19 -290.863900 -247.998700 -97.999210 1.000000 0.000001 -0.000001 0.000001 0.000001 1.000000 0.000001 -1.000000 0.000001 3749.dat
1 0 -310.864600 -337.999800 -97.999480 -0.000001 0.000000 0.999995 1.000000 0.000001 0.000001 -0.000001 1.000000 0.000000 15100.dat
1 0 -350.864400 -337.999800 -97.999480 -0.000001 0.000000 0.999995 1.000000 0.000001 0.000001 -0.000001 1.000000 0.000000 15100.dat
0 STEP
1 1 -380.864100 -247.998200 -98.000370 0.000001 1.000000 -0.000001 1.000000 -0.000001 -0.000001 -0.000001 -0.000001 -1.000000 32271.dat
1 1 -280.863800 -247.998400 -97.999480 0.000001 1.000000 -0.000001 1.000000 -0.000001 -0.000001 -0.000001 -0.000001 -1.000000 32271.dat
0 STEP
1 14 -265.334000 -231.998700 -230.000300 0.000000 0.000000 -1.000000 -1.000000 0.000000 0.000000 0.000000 1.000000 0.000000 32123a.dat
1 14 -395.555400 -231.998700 -230.000100 0.000000 0.000000 1.000000 -1.000000 0.000000 0.000000 0.000000 -1.000000 0.000000 32123a.dat
1 0 -320.334500 -231.999400 -230.000100 1.000000 0.000000 0.000000 0.000000 1.000000 0.000000 0.000000 0.000000 1.000000 3707.dat
0 STEP
1 16 243.000000 -57.000000 -41.000000 -1.000000 0.000000 0.000000 0.000000 1.000000 0.000000 0.000000 0.000000 -1.000000 submodel group 9 copy copy copy
0 STEP
0 STEP
0 NOFILE
0 FILE SubModel Group 1
0 SubModel Group 1
0 Name:  SubModel Group 1
0 Author:  
0 CustomBrick
0 NumOfBricks:  40
1 1 -2.676570 -329.750500 -283.689800 0.000001 1.000000 -0.000001 0.000001 0.000001 0.999995 0.999995 -0.000001 -0.000001 32140.dat
1 1 -2.677800 -269.753400 -263.688800 1.000000 0.000000 0.000000 0.000000 0.000000 -0.999999 0.000000 0.999996 0.000000 6558.dat
1 1 -2.677800 -269.753400 -283.688800 1.000000 0.000000 0.000000 0.000000 0.000000 -0.999999 0.000000 0.999996 0.000000 6558.dat
0 STEP
1 1 -2.678090 -309.753600 -283.688800 1.000000 0.000000 0.000000 0.000000 0.000000 -0.999999 0.000000 0.999996 0.000000 6558.dat
1 1 -2.678090 -289.753600 -283.688800 1.000000 0.000000 0.000000 0.000000 0.000000 -0.999999 0.000000 0.999996 0.000000 6558.dat
1 15 -22.678060 -329.753200 -283.688800 -0.000001 -1.000000 -0.000001 -0.000001 -0.000001 0.999996 -0.999996 0.000001 -0.000001 32316.dat
0 STEP
1 15 18.322590 -269.753800 -143.690800 0.000001 1.000000 0.000001 -0.999996 0.000001 -0.000001 -0.000001 -0.000001 0.999996 64871.dat
1 15 17.322610 -329.753400 -283.688800 -0.000001 -1.000000 -0.000001 0.000001 0.000001 -0.999996 0.999996 -0.000001 0.000001 32316.dat
0 STEP
1 1 -1.677610 -269.753800 -3.690630 1.000000 0.000000 0.000000 0.000000 0.000000 1.000000 0.000000 -1.000000 0.000000 6558.dat
1 1 -1.677800 -269.753800 -23.690610 1.000000 0.000000 0.000000 0.000000 0.000000 1.000000 0.000000 -1.000000 0.000000 6558.dat
1 71 2.309680 -287.254200 -13.692630 0.000000 0.000000 -0.999984 1.000000 0.000000 0.000000 0.000000 -1.000000 0.000000 4185.dat
1 71 -7.677600 -287.253800 -13.690610 0.000000 0.000000 -1.000000 1.000000 0.000000 0.000000 0.000000 -1.000000 0.000000 4185.dat
0 STEP
1 1 -1.677480 -287.253800 6.309170 1.000000 0.000000 0.000000 0.000000 0.000000 1.000000 0.000000 -1.000000 0.000000 6558.dat
1 1 -1.677480 -304.754100 -3.690630 1.000000 0.000000 0.000000 0.000000 0.000000 1.000000 0.000000 -1.000000 0.000000 6558.dat
0 STEP
1 15 -22.678350 -183.510800 66.308580 0.000002 1.000000 -0.000001 -0.499997 0.000002 0.866023 0.866023 -0.000002 0.499997 64871.dat
1 1 -2.677860 -79.588240 126.308400 1.000000 0.000000 -0.000001 0.000001 -0.867762 0.496972 -0.000001 -0.496971 -0.867761 6558.dat
1 1 -2.677860 -62.233640 136.248400 1.000000 0.000000 -0.000001 0.000001 -0.867762 0.496972 -0.000001 -0.496971 -0.867761 6558.dat
1 1 -2.677350 -32.414020 84.182270 0.000001 1.000000 0.000000 -0.867763 0.000001 -0.496971 -0.496971 0.000001 0.867763 32140.dat
0 STEP
1 1 -2.677990 -52.294040 118.892700 1.000000 0.000000 -0.000001 0.000001 -0.867762 0.496972 -0.000001 -0.496971 -0.867761 6558.dat
1 1 -2.678090 -42.354730 101.537300 1.000000 0.000000 -0.000001 0.000001 -0.867762 0.496972 -0.000001 -0.496971 -0.867761 6558.dat
1 15 -22.678160 -32.294160 84.252170 0.000001 1.000000 0.000001 -0.866022 0.000001 -0.499999 -0.499999 -0.000001 0.866022 32316.dat
0 STEP
1 15 18.322590 -183.511400 66.308870 0.000002 1.000000 -0.000001 -0.499997 0.000002 0.866023 0.866023 -0.000002 0.499997 64871.dat
1 15 17.322300 -32.294160 84.251970 0.000001 1.000000 0.000001 -0.866022 0.000001 -0.499998 -0.499998 -0.000001 0.866022 32316.dat
0 STEP
1 1 -1.677480 -287.253800 -33.686520 1.000000 0.000000 0.000000 0.000000 0.000000 0.999996 0.000000 -0.999996 0.000000 6558.dat
1 1 -1.677800 -304.754100 -23.690720 1.000000 0.000000 0.000000 0.000000 0.000000 1.000000 0.000000 -1.000000 0.000000 6558.dat
1 15 -21.677160 -405.741100 40.882280 0.000001 -1.000000 -0.000001 0.532635 0.000001 -0.846340 0.846340 0.000000 0.532635 64871.dat
0 STEP
1 1 -1.679380 -492.578100 166.306600 0.000001 1.000000 -0.000001 0.848959 -0.000001 -0.528452 -0.528452 0.000000 -0.848959 32140.dat
1 1 -1.677480 -524.283600 115.367200 1.000000 0.000000 0.000000 0.000000 0.848953 0.528446 0.000000 -0.528449 0.848946 6558.dat
1 1 -1.677480 -507.303500 104.798200 1.000000 0.000000 0.000000 0.000000 0.848961 0.528451 0.000000 -0.528454 0.848954 6558.dat
0 STEP
1 1 -1.677310 -513.713900 132.346500 1.000000 0.000000 0.000000 0.000000 0.848961 0.528451 0.000000 -0.528454 0.848954 6558.dat
1 1 -1.677000 -503.144800 149.326500 1.000000 0.000000 0.000000 0.000000 0.848961 0.528451 0.000000 -0.528454 0.848954 6558.dat
1 15 -21.676560 -493.144800 166.647200 0.000002 1.000000 0.000000 -0.866022 0.000001 0.499997 0.499997 -0.000001 0.866022 32316.dat
0 STEP
1 15 18.322590 -406.314800 40.225780 0.000001 -1.000000 -0.000001 0.532635 0.000001 -0.846340 0.846340 0.000000 0.532635 64871.dat
1 15 18.322880 -493.713900 166.987400 0.000002 1.000000 0.000000 -0.866023 0.000001 0.499997 0.499997 -0.000001 0.866023 32316.dat
0 STEP
1 0 7.322100 -287.753800 -13.690610 1.000000 0.000000 0.000000 0.000000 1.000000 0.000000 0.000000 0.000000 1.000000 3737.dat
1 71 -42.107760 -287.753800 -13.691320 0.000001 0.000000 -1.000000 0.000000 1.000000 0.000000 1.000000 0.000000 0.000001 3713.dat
1 71 -22.107750 -287.753800 -13.690720 0.000001 0.000000 -1.000000 0.000000 1.000000 0.000000 1.000000 0.000000 0.000001 3713.dat
0 STEP
1 71 36.811820 -287.754000 -13.690610 -0.000001 0.000000 1.000000 0.000000 1.000000 0.000000 -1.000000 0.000000 -0.000001 3713.dat
1 71 56.811720 -287.753800 -13.685910 -0.000001 0.000000 1.000000 0.000000 1.000000 0.000000 -1.000000 0.000000 -0.000001 3713.dat
0 STEP
1 15 -22.677670 -269.753800 -143.689800 0.000001 1.000000 0.000001 -0.999996 0.000001 -0.000001 -0.000001 -0.000001 0.999996 64871.dat
0 STEP
0 NOFILE
0 FILE SubModel Group 9 Copy Copy Copy
0 SubModel Group 9 Copy Copy Copy
0 Name:  SubModel Group 9 Copy Copy Copy
0 Author:  
0 CustomBrick
0 NumOfBricks:  3
1 72 10.000000 -1.128810 -10.000000 1.000000 0.000000 0.000000 0.000000 0.000000 -1.000000 0.000000 1.000000 0.000000 dch003.dat
1 71 -27.466620 -79.717990 29.427020 1.000000 0.000000 0.000000 0.000000 0.000000 -1.000000 0.000000 1.000000 0.000000 dch004.dat
1 25 7.837010 13.484720 -9.965000 1.000000 0.000000 0.000000 0.000000 0.000000 -1.000000 0.000000 1.000000 0.000000 dch005.dat
0 NOFILE
