0 Untitled Model
0 Name:  翅膀
0 Author:  
0 CustomBrick
0 NumOfBricks:  78
1 15 335.000600 -54.000680 60.999660 -0.000002 -0.000001 1.000000 -1.000000 0.000001 -0.000002 -0.000001 -1.000000 -0.000001 64871.dat
0 STEP
1 1 195.000500 -54.000500 60.999780 0.000000 0.000001 -1.000000 0.000000 1.000000 0.000001 1.000000 0.000000 0.000000 6558.dat
1 15 95.000110 -54.000380 40.999500 -0.000002 -0.000001 1.000000 -1.000000 0.000001 -0.000002 -0.000001 -1.000000 -0.000001 64871.dat
0 STEP
1 1 -45.000000 -54.000220 61.000000 0.000002 0.000001 1.000000 1.000000 -0.000001 -0.000002 0.000001 1.000000 -0.000001 32140.dat
1 1 -25.000010 -54.000200 61.000060 0.000000 0.000001 -1.000000 0.000000 1.000000 0.000001 1.000000 0.000000 0.000000 6558.dat
1 1 15.000000 -54.000340 61.000060 0.000000 0.000001 -1.000000 0.000000 1.000000 0.000001 1.000000 0.000000 0.000000 6558.dat
0 STEP
1 15 95.000550 -54.000880 80.999980 -0.000002 -0.000001 1.000000 -1.000000 0.000001 -0.000002 -0.000001 -1.000000 -0.000001 64871.dat
0 STEP
1 71 -45.000000 -54.000200 62.230040 0.000000 0.000001 -1.000000 0.000000 1.000000 0.000001 1.000000 0.000000 0.000000 32073.dat
0 STEP
1 1 475.000500 -54.000920 60.999480 0.000000 0.000001 1.000000 0.000000 0.999998 0.000000 -0.999998 0.000000 0.000000 6558.dat
1 4 475.000500 -54.000920 80.999440 0.000000 -0.000001 -1.000000 0.000000 -0.999998 0.000000 -0.999998 0.000000 0.000000 32034.dat
1 4 475.000500 -54.000920 40.999510 0.000000 -0.000001 -1.000000 0.000000 -0.999998 0.000000 -0.999998 0.000000 0.000000 32034.dat
0 STEP
1 71 -85.000110 -54.000070 0.209330 1.000000 -0.000001 0.000001 0.000000 -1.000000 0.000001 0.000001 0.000000 -1.000000 3713.dat
1 0 -85.000110 -54.000020 12.479580 0.000000 0.000001 1.000000 0.000000 1.000000 0.000000 -1.000000 0.000000 0.000000 3705.dat
1 1 -125.000100 -54.000080 20.169560 1.000000 0.000000 0.000001 0.000000 0.000001 1.000000 0.000000 -1.000000 0.000001 32009.dat
0 STEP
1 72 -85.000190 -54.000020 35.449690 0.000001 1.000000 0.000000 1.000000 0.000000 0.000000 0.000000 0.000000 -1.000000 6575.dat
1 19 -65.000180 -54.000020 50.119890 -0.000001 1.000000 -0.000002 -0.000001 -0.000001 -1.000000 -1.000000 -0.000001 0.000001 3749.dat
1 72 -85.000110 -54.000020 45.119840 0.000001 1.000000 0.000000 1.000000 0.000000 0.000000 0.000000 0.000000 -1.000000 6575.dat
0 STEP
1 15 -65.000180 -114.000100 60.119760 -1.000000 0.000001 0.000000 -0.000001 -0.000001 1.000000 0.000001 1.000000 0.000001 32524.dat
1 0 -65.000260 -134.000200 70.170220 0.000000 -0.000001 -1.000000 0.000000 -1.000000 0.000000 -1.000000 0.000000 0.000000 2780.dat
1 0 -65.000230 -174.000200 70.170160 0.000000 -0.000001 -1.000000 0.000000 -1.000000 0.000000 -1.000000 0.000000 0.000000 2780.dat
0 STEP
1 1 -185.000300 -214.000100 40.169720 0.000002 0.000001 1.000000 1.000000 -0.000001 -0.000002 0.000001 1.000000 -0.000001 32140.dat
1 71 -125.000200 -194.000100 30.169740 0.000000 0.000001 1.000000 0.000000 1.000000 -0.000001 -1.000000 0.000000 0.000000 3673.dat
0 STEP
1 1 -165.000300 -224.000100 60.169990 1.000000 0.000001 0.000000 0.000000 1.000000 0.000000 0.000000 0.000000 1.000000 3703.dat
1 71 -65.000270 -214.000100 70.169980 0.000000 0.000001 -1.000000 0.000000 1.000000 0.000000 1.000000 0.000000 0.000000 3673.dat
1 1 -125.000300 -214.000100 60.169990 0.000000 0.000001 -1.000000 0.000000 1.000000 0.000001 1.000000 0.000000 0.000000 6558.dat
1 1 -165.000300 -214.000100 60.169990 0.000000 0.000001 -1.000000 0.000000 1.000000 0.000001 1.000000 0.000000 0.000000 6558.dat
0 STEP
1 71 -125.000300 -194.000100 90.169940 0.000000 -0.000001 -1.000000 0.000000 -1.000000 0.000000 -1.000000 0.000000 0.000000 3673.dat
1 1 -185.000300 -214.000100 80.169960 0.000002 0.000001 1.000000 1.000000 -0.000001 -0.000001 0.000001 1.000000 -0.000001 32140.dat
0 STEP
1 1 -125.000000 -54.000260 100.469500 1.000000 0.000000 0.000001 0.000000 0.000000 0.999998 0.000000 -0.999998 0.000000 32009.dat
0 STEP
1 71 -85.000010 -54.000220 120.210000 1.000000 -0.000001 0.000001 0.000000 -1.000000 0.000000 0.000001 0.000000 -1.000000 3713.dat
1 71 -85.000000 -54.000220 80.160060 1.000000 -0.000001 0.000001 0.000000 -1.000000 0.000000 0.000001 0.000000 -1.000000 3713.dat
1 0 -85.000010 -54.000220 110.210000 0.000000 -0.000001 1.000000 0.000000 -1.000000 0.000000 1.000000 0.000000 0.000000 3705.dat
0 STEP
1 0 -85.000070 -54.000220 152.100100 -1.000000 -0.000001 0.000000 0.000000 -0.999998 0.000000 0.000000 0.000000 0.999998 44309.dat
1 71 -85.000070 -54.000220 152.100100 -0.000001 1.000000 0.000000 -0.999998 0.000000 0.000000 0.000000 0.000000 0.999998 56145.dat
1 0 -85.000110 -54.000020 -29.410420 -0.000001 -1.000000 0.000000 -0.999998 0.000000 0.000000 0.000000 0.000000 -0.999998 44309.dat
1 71 -85.000110 -54.000020 -29.410420 -1.000000 0.000001 0.000000 0.000000 0.999998 0.000000 0.000000 0.000000 -0.999998 56145.dat
0 STEP
1 15 -65.000230 -174.000200 80.170070 -1.000000 0.000001 0.000000 -0.000001 -0.000001 1.000000 0.000001 1.000000 0.000001 32316.dat
0 STEP
1 1 -25.000220 -214.000100 60.170000 0.000000 -0.000001 1.000000 0.000000 -1.000000 0.000000 1.000000 0.000000 0.000000 6558.dat
1 1 -45.000200 -214.000100 60.170000 0.000000 -0.000001 1.000000 0.000000 -1.000000 0.000000 1.000000 0.000000 0.000000 6558.dat
0 STEP
1 15 34.999790 -214.000000 80.169840 0.000000 0.000001 -1.000000 -0.999998 0.000001 -0.000001 0.000001 0.999998 0.000001 40490.dat
1 15 34.999740 -214.000000 40.169910 0.000000 0.000001 -1.000000 -0.999998 0.000001 -0.000001 0.000001 0.999998 0.000001 40490.dat
0 STEP
1 1 -165.000300 -248.000100 60.169990 1.000000 0.000001 0.000000 0.000000 0.999998 0.000000 0.000000 0.000000 0.999998 3702.dat
0 STEP
1 15 -195.000300 -272.000000 60.169990 1.000000 0.000001 0.000000 0.000000 0.999998 0.000000 0.000000 0.000000 0.999998 3040b.dat
1 15 -135.000300 -272.000000 60.169990 -1.000000 0.000001 0.000000 0.000000 0.999998 0.000000 0.000000 0.000000 -0.999998 3040b.dat
1 15 -235.000300 -272.000000 60.169920 0.000000 0.000001 -1.000000 0.000000 0.999998 0.000000 0.999998 0.000000 0.000000 3040b.dat
1 15 -95.000320 -272.000000 60.170000 0.000000 0.000001 1.000000 0.000000 0.999998 0.000000 -0.999998 0.000000 0.000000 3040b.dat
1 15 -155.000400 -272.000000 50.169940 0.000000 0.000001 1.000000 0.000000 0.999998 0.000000 -0.999998 0.000000 0.000000 32064a.dat
1 15 -175.000400 -272.000000 70.169920 0.000000 0.000001 1.000000 0.000000 0.999998 0.000000 -0.999998 0.000000 0.000000 32064a.dat
0 STEP
1 1 -225.000300 -280.000000 60.169920 1.000000 0.000001 0.000000 0.000000 0.999998 0.000000 0.000000 0.000000 0.999998 3023.dat
1 1 -105.000300 -280.000000 60.170000 1.000000 0.000001 0.000000 0.000000 0.999998 0.000000 0.000000 0.000000 0.999998 3023.dat
1 1 -165.000300 -280.000000 60.169990 1.000000 0.000001 0.000000 0.000000 0.999998 0.000000 0.000000 0.000000 0.999998 3710.dat
0 STEP
1 1 -205.000300 -288.000000 60.169930 1.000000 0.000001 0.000000 0.000000 0.999998 0.000000 0.000000 0.000000 0.999998 3023.dat
1 1 -125.000300 -288.000000 60.170000 1.000000 0.000001 0.000000 0.000000 0.999998 0.000000 0.000000 0.000000 0.999998 3023.dat
0 STEP
1 4 -185.000300 -214.000100 28.819760 0.000000 0.000001 1.000000 0.000000 1.000000 -0.000001 -1.000000 0.000000 0.000000 32062.dat
1 4 -185.000400 -214.000100 90.169930 0.000000 -0.000001 -1.000000 0.000000 -1.000000 0.000000 -1.000000 0.000000 0.000000 32062.dat
0 STEP
1 0 -185.000400 -214.000100 -1.180180 0.000001 -1.000000 -0.000002 -0.999998 -0.000002 -0.000002 0.000002 0.000002 -0.999998 32013.dat
1 0 -185.000500 -214.000000 120.169900 0.000003 -1.000000 -0.000002 1.000000 0.000002 0.000002 -0.000002 -0.000002 1.000000 32013.dat
0 STEP
1 19 -185.000200 -224.000000 120.170300 0.000000 -1.000001 0.000001 -1.000000 -0.000001 -0.000001 0.000001 -0.000001 -0.999998 3749.dat
1 19 -185.000600 -224.000100 -1.180000 -0.000002 1.000000 0.000000 -0.999998 -0.000001 0.000001 0.000001 0.000000 0.999998 3749.dat
0 STEP
1 1 -88.098510 -233.999700 231.390700 0.593517 0.000000 -0.804821 -0.000001 -0.999998 -0.000002 -0.804820 0.000002 -0.593516 32271.dat
1 1 -88.098540 -234.000000 -112.400400 0.593516 0.000002 -0.804822 -0.000002 0.999998 0.000000 0.804821 0.000001 0.593515 32271.dat
0 STEP
1 0 -184.838900 -244.000000 -21.179290 -0.000001 -1.000000 0.000000 -0.999998 0.000000 0.000000 0.000000 0.000000 -0.999998 2780.dat
1 0 -184.838600 -243.999900 140.169500 -0.000001 0.000000 -1.000000 -0.999998 0.000000 0.000000 0.000000 0.999998 0.000000 2780.dat
0 STEP
1 1 -184.838900 -254.000000 -11.179310 1.000000 0.000000 0.000001 0.000000 0.000000 0.999998 0.000000 -0.999998 0.000000 3700.dat
1 1 -184.838600 -253.999900 130.169400 1.000000 0.000000 -0.000001 0.000000 0.000000 -0.999998 0.000000 0.999998 0.000000 3700.dat
0 STEP
1 14 -305.000300 -214.000100 75.210000 1.000000 0.000001 0.000000 0.000000 0.999998 0.000000 0.000000 0.000000 0.999998 32123a.dat
1 14 -305.000300 -214.000100 45.460040 1.000000 -0.000001 0.000000 0.000000 -0.999998 0.000000 0.000000 0.000000 -0.999998 32123a.dat
1 4 -305.000300 -214.000100 60.349980 0.000000 0.000001 -1.000000 0.000000 0.999998 0.000000 0.999998 0.000000 0.000000 32062.dat
0 STEP
1 0 -104.194900 -244.000000 -100.530100 0.000001 0.804822 0.593516 0.999998 0.000000 0.000000 0.000000 0.593515 -0.804821 2780.dat
1 0 -104.195000 -243.999700 219.520400 0.000001 0.000000 -1.000000 0.999998 0.000000 0.000000 0.000000 -0.999998 0.000000 2780.dat
1 15 -104.195000 -253.999700 219.520400 -0.573576 0.000002 -0.819153 0.000001 0.999998 0.000000 0.819151 -0.000001 -0.573575 32523.dat
1 15 -104.195000 -254.000000 -100.530000 0.573577 0.000000 -0.819152 0.000001 0.999998 0.000000 0.819150 -0.000001 0.573576 32523.dat
0 STEP
1 0 114.999800 -214.000000 30.169940 0.000000 0.000001 -1.000000 0.000000 0.999998 0.000000 0.999998 0.000000 0.000000 2780.dat
1 0 114.999800 -214.000000 90.169820 0.000000 0.000001 -1.000000 0.000000 0.999998 0.000000 0.999998 0.000000 0.000000 2780.dat
0 STEP
1 19 144.999800 -214.000000 20.170080 -1.000000 -0.000001 0.000002 0.000001 0.000001 0.999998 -0.000001 0.999998 -0.000001 3749.dat
1 4 114.999800 -214.000000 20.170010 0.000000 -0.000001 -1.000000 0.000000 -0.999998 0.000000 -0.999998 0.000000 0.000000 32034.dat
1 4 114.999800 -214.000000 100.169900 0.000000 -0.000001 -1.000000 0.000000 -0.999998 0.000000 -0.999998 0.000000 0.000000 32034.dat
1 19 144.999800 -214.000000 100.169800 -1.000000 -0.000001 0.000002 0.000001 0.000001 0.999998 -0.000001 0.999998 -0.000001 3749.dat
0 STEP
0 STEP
