0 Untitled Model
0 Name:  直升机
0 Author:  
0 CustomBrick
0 NumOfBricks:  32
1 1 130.001200 -40.000000 20.000130 0.000000 0.000000 1.000007 0.000000 1.000000 0.000000 -1.000007 0.000000 0.000000 3700.dat
1 1 100.001100 -16.000000 10.000070 1.000007 0.000000 0.000000 0.000000 1.000000 0.000000 0.000000 0.000000 1.000007 3710.dat
0 STEP
1 1 110.001000 -40.000000 0.000030 0.000000 0.000000 1.000000 0.000000 1.000000 0.000000 -1.000000 0.000000 0.000000 3700.dat
0 STEP
1 1 50.000820 -48.000000 0.000000 0.000000 0.000000 1.000007 0.000000 1.000000 0.000000 -1.000007 0.000000 0.000000 3023.dat
1 15 40.000790 -40.000000 0.000000 1.000007 0.000000 0.000000 0.000000 1.000000 0.000000 0.000000 0.000000 1.000007 3001.dat
0 STEP
1 1 20.000680 -16.000000 0.000000 -1.000007 0.000000 0.000000 0.000000 1.000000 0.000000 0.000000 0.000000 -1.000007 3709b.dat
0 STEP
1 15 -19.999650 -40.000000 10.000070 1.000007 0.000000 0.000000 0.000000 1.000000 0.000000 0.000000 0.000000 1.000007 32064a.dat
1 15 -19.999650 -40.000000 -10.000050 1.000007 0.000000 0.000000 0.000000 1.000000 0.000000 0.000000 0.000000 1.000007 32064a.dat
0 STEP
1 1 -39.999800 -16.000000 -10.000050 1.000007 0.000000 0.000000 0.000000 1.000000 0.000000 0.000000 0.000000 1.000007 3023.dat
1 1 -39.999800 -16.000000 10.000070 1.000007 0.000000 0.000000 0.000000 1.000000 0.000000 0.000000 0.000000 1.000007 3023.dat
0 STEP
1 19 -19.999620 -30.000020 -20.000130 -0.000001 1.000007 -0.000001 0.000001 0.000001 1.000000 1.000007 0.000001 -0.000001 3749.dat
1 19 -19.999660 -30.000020 20.000130 0.000001 -1.000007 0.000001 0.000001 0.000001 1.000000 -1.000007 -0.000001 0.000001 3749.dat
0 STEP
1 1 -19.999660 -40.000020 30.000220 1.000007 0.000000 0.000000 0.000000 1.000000 0.000000 0.000000 0.000000 1.000007 3700.dat
1 1 -19.999590 -40.000040 -30.000220 1.000007 0.000000 0.000000 0.000000 1.000000 0.000000 0.000000 0.000000 1.000007 3700.dat
0 STEP
1 15 10.000560 -64.000000 10.000040 0.000000 0.000000 -1.000007 0.000000 1.000000 0.000000 1.000007 0.000000 0.000000 3040b.dat
1 15 10.000540 -64.000000 -10.000050 0.000000 0.000000 -1.000007 0.000000 1.000000 0.000000 1.000007 0.000000 0.000000 3040b.dat
0 STEP
1 1 -80.000020 -8.000000 0.000000 -1.000007 0.000000 0.000000 0.000000 1.000000 0.000000 0.000000 0.000000 -1.000007 3709b.dat
1 1 -69.999980 -16.000000 -0.000030 0.000000 0.000000 1.000007 0.000000 1.000000 0.000000 -1.000007 0.000000 0.000000 3023.dat
0 STEP
1 1 -59.999920 -24.000000 10.000040 1.000007 0.000000 0.000000 0.000000 1.000000 0.000000 0.000000 0.000000 1.000007 3023.dat
1 1 -59.999920 -24.000000 -10.000080 1.000007 0.000000 0.000000 0.000000 1.000000 0.000000 0.000000 0.000000 1.000007 3023.dat
0 STEP
1 1 -69.999980 -32.000000 -0.000030 0.000000 0.000000 1.000007 0.000000 1.000000 0.000000 -1.000007 0.000000 0.000000 3023.dat
1 1 -49.999800 -32.000000 -0.000030 0.000000 0.000000 1.000007 0.000000 1.000000 0.000000 -1.000007 0.000000 0.000000 3023.dat
0 STEP
1 15 -59.999920 -56.000000 -0.000030 1.000007 0.000000 0.000000 0.000000 1.000000 0.000000 0.000000 0.000000 1.000007 3941.dat
0 STEP
1 15 -90.000220 -32.000000 0.000000 0.000000 0.000000 1.000007 0.000000 1.000000 0.000000 -1.000007 0.000000 0.000000 32064a.dat
0 STEP
1 15 -110.000200 -32.000000 0.000000 0.000000 0.000000 1.000007 0.000000 1.000000 0.000000 -1.000007 0.000000 0.000000 32064a.dat
1 19 -120.000300 -22.000020 -0.000060 1.000007 0.000001 -0.000001 0.000001 0.000001 1.000000 0.000001 -1.000007 0.000001 3749.dat
0 STEP
1 15 -90.000220 -56.000000 10.000040 0.000000 0.000000 1.000007 0.000000 1.000000 0.000000 -1.000007 0.000000 0.000000 3040b.dat
1 15 -90.000220 -56.000000 -10.000050 0.000000 0.000000 1.000007 0.000000 1.000000 0.000000 -1.000007 0.000000 0.000000 3040b.dat
0 STEP
1 1 -69.999980 -64.000000 40.000190 0.000000 0.000000 1.000007 0.000000 1.000000 0.000000 -1.000007 0.000000 0.000000 3710.dat
1 15 -69.999980 -72.000000 60.000380 0.000000 0.000000 1.000007 0.000000 1.000000 0.000000 -1.000007 0.000000 0.000000 2431.dat
0 STEP
1 1 -49.999800 -64.000000 -40.000290 0.000000 0.000000 1.000007 0.000000 1.000000 0.000000 -1.000007 0.000000 0.000000 3710.dat
1 15 -49.999800 -72.000000 -60.000500 0.000000 0.000000 1.000007 0.000000 1.000000 0.000000 -1.000007 0.000000 0.000000 2431.dat
0 STEP
0 STEP
