0 Untitled Model
0 Name:  扭腰机
0 Author:  
0 CustomBrick
0 NumOfBricks:  38
1 71 -48.660040 -10.000010 4.281730 1.000000 0.000000 0.000001 -0.000001 0.000000 1.000000 0.000000 -1.000000 0.000000 3713.dat
1 0 -48.660260 -100.000000 4.281710 0.000000 0.000000 1.000000 -1.000000 0.000000 0.000000 0.000000 -1.000000 0.000000 3737.dat
0 STEP
1 71 -48.660140 -33.660060 4.281840 1.000000 0.000000 0.000000 0.000000 0.000000 -1.000000 0.000000 1.000000 0.000000 4185.dat
1 71 -48.660140 -24.960050 4.281840 1.000000 0.000000 0.000000 0.000000 0.000000 -1.000000 0.000000 1.000000 0.000000 4185.dat
0 STEP
1 0 -31.160130 -40.960050 14.281860 0.000000 0.000000 -1.000000 1.000000 0.000000 0.000000 0.000000 -1.000000 0.000000 2780.dat
1 0 -48.660140 -40.960060 -15.718200 0.000000 0.000000 -1.000000 1.000000 0.000000 0.000000 0.000000 -1.000000 0.000000 2780.dat
1 0 -31.160130 -40.960060 -5.718170 0.000000 0.000000 -1.000000 1.000000 0.000000 0.000000 0.000000 -1.000000 0.000000 2780.dat
1 0 -48.660140 -40.960040 24.281880 0.000000 0.000000 -1.000000 1.000000 -0.000001 0.000000 0.000000 -1.000000 0.000000 2780.dat
1 0 -66.160080 -40.960060 -5.718160 0.000000 0.000000 -1.000000 1.000000 0.000000 0.000000 0.000000 -1.000000 0.000000 2780.dat
1 0 -66.160090 -40.960040 14.281830 0.000000 0.000000 -1.000000 1.000000 0.000000 0.000000 0.000000 -1.000000 0.000000 2780.dat
0 STEP
1 1 -126.160200 -50.960010 14.281740 0.000001 0.000001 1.000000 0.000001 1.000000 -0.000001 -1.000000 0.000001 0.000001 32140.dat
1 1 -1.160240 -50.960000 66.243350 -0.866026 0.000001 -0.499999 0.000002 1.000000 -0.000001 0.500000 -0.000001 -0.866026 32140.dat
1 1 -18.660100 -50.960030 -67.679710 0.866026 -0.000001 -0.500000 0.000000 1.000000 -0.000001 0.500000 0.000001 0.866026 32140.dat
1 0 -106.160200 -40.960030 14.281730 0.000000 0.000000 -1.000000 1.000000 0.000000 0.000000 0.000000 -1.000000 0.000000 2780.dat
1 0 -28.660100 -40.960040 -50.359220 0.000000 0.000000 -1.000000 1.000000 0.000000 0.000000 0.000000 -1.000000 0.000000 2780.dat
1 0 -11.160270 -40.960010 48.923020 0.000000 0.000000 -1.000000 1.000000 0.000000 0.000000 0.000000 -1.000000 0.000000 2780.dat
1 19 -18.660100 -40.960040 -67.679650 0.000000 0.866026 -0.500000 -1.000000 -0.000001 -0.000001 -0.000002 0.500000 0.866026 3749.dat
1 19 -1.160240 -40.959980 66.243350 -0.000001 0.866026 0.499999 -1.000000 -0.000002 0.000001 0.000001 -0.500000 0.866026 3749.dat
1 19 -126.160200 -40.960000 14.281740 -0.000001 1.000000 -0.000001 -1.000000 -0.000001 0.000001 0.000001 0.000001 1.000000 3749.dat
0 STEP
1 1 0.000000 -30.960040 -80.000000 -0.500000 -0.866026 -0.000001 0.000000 0.000001 -1.000000 0.866026 -0.500000 0.000000 3894.dat
1 15 -146.160300 -30.960020 14.281750 -0.000001 -0.000001 1.000000 0.000001 1.000000 0.000001 -1.000000 0.000001 -0.000001 32316.dat
1 15 8.839749 -30.959930 83.563890 0.866026 -0.000001 0.499999 0.000000 1.000000 0.000001 -0.500000 -0.000001 0.866026 32316.dat
0 STEP
1 71 -186.160000 -10.960020 14.282990 1.000000 0.000000 0.000001 0.000001 0.000000 -1.000000 0.000000 1.000000 0.000000 3713.dat
1 71 28.839540 -11.589810 118.205000 1.000002 0.000000 0.000001 0.000001 0.000000 -1.000001 0.000000 1.000000 0.000000 3713.dat
1 71 11.339580 -11.130060 -119.641000 1.000001 0.000000 0.000001 0.000001 0.000000 -1.000001 0.000000 1.000000 0.000000 3713.dat
1 71 -186.160300 -30.960050 14.281760 0.000000 -1.000000 0.000000 -1.000003 0.000000 0.000000 0.000000 0.000000 -1.000006 4519.dat
1 71 28.839750 -31.589860 118.205000 0.000000 -1.000000 0.000000 -1.000000 0.000000 0.000000 0.000000 0.000000 -1.000000 4519.dat
1 71 11.339790 -31.130080 -119.641000 0.000000 -1.000000 0.000000 -1.000000 0.000000 0.000000 0.000000 0.000000 -1.000000 4519.dat
0 STEP
1 0 -186.160200 -61.216820 14.281760 -1.000000 0.000000 -0.000001 -0.000001 0.000000 1.000000 0.000000 1.000000 0.000000 30391.dat
1 71 -186.160300 -60.960080 14.281760 0.000000 1.000000 0.000000 0.000000 0.000000 1.000000 1.000000 0.000000 0.000000 55982.dat
1 0 28.839750 -61.846600 118.205000 -1.000000 0.000000 -0.000001 -0.000001 0.000000 1.000000 0.000000 1.000000 0.000000 30391.dat
1 71 28.839750 -61.589860 118.205000 0.000000 1.000000 0.000000 0.000000 0.000000 1.000000 1.000000 0.000000 0.000000 55982.dat
1 0 11.339880 -61.386820 -119.641000 -1.000000 0.000000 -0.000001 -0.000001 0.000000 1.000000 0.000000 1.000000 0.000000 30391.dat
1 71 11.339790 -61.130080 -119.641000 0.000000 1.000000 0.000000 0.000000 0.000000 1.000000 1.000000 0.000000 0.000000 55982.dat
0 STEP
1 0 -38.660260 -200.000000 -25.718360 0.000000 0.000000 -1.000000 1.000000 0.000000 0.000000 0.000000 -1.000000 0.000000 2780.dat
1 0 -78.660190 -200.000100 -5.718310 0.000000 0.000000 -1.000000 1.000000 0.000000 0.000000 0.000000 -1.000000 0.000000 2780.dat
1 0 -38.660270 -200.000100 34.281710 0.000000 0.000000 -1.000000 1.000000 0.000000 0.000000 0.000000 -1.000000 0.000000 2780.dat
1 71 -48.660260 -190.000100 4.281680 1.000000 0.000000 0.000000 0.000000 0.000000 1.000000 0.000000 -1.000000 0.000000 3649.dat
0 STEP
0 STEP
