0 FILE 小飞机.io
0 Untitled Model
0 Name:  小飞机
0 Author:  
0 CustomBrick
0 NumOfBricks:  62
1 1 -27.000000 -115.659200 -175.000000 1.000000 0.000000 0.000000 0.000000 1.000000 0.000000 0.000000 0.000000 1.000000 3703.dat
1 1 -26.999120 -115.659200 -155.001500 1.000003 0.000000 0.000000 0.000000 1.000000 0.000000 0.000000 0.000000 1.000003 3703.dat
0 STEP
1 0 113.001300 -105.659200 -165.001500 0.000000 0.000000 1.000003 0.000000 1.000000 0.000000 -1.000003 0.000000 0.000000 3705.dat
1 0 72.999840 -105.659200 -165.599900 0.000000 0.000000 1.000003 0.000000 1.000000 0.000000 -1.000003 0.000000 0.000000 3705.dat
1 4 73.000020 -105.659200 -135.599800 1.000003 0.000000 0.000000 0.000000 -1.000000 -0.000001 0.000000 0.000001 -1.000003 32039.dat
1 4 113.001300 -105.659200 -135.001400 1.000003 0.000000 0.000000 0.000000 -1.000000 -0.000001 0.000000 0.000001 -1.000003 32039.dat
0 STEP
1 4 113.001200 -105.659200 -195.001600 -1.000003 0.000000 0.000000 0.000000 -1.000000 -0.000001 0.000000 -0.000001 1.000003 32039.dat
1 4 72.999840 -105.659200 -195.600000 -1.000003 0.000000 0.000000 0.000000 -1.000000 -0.000001 0.000000 -0.000001 1.000003 32039.dat
0 STEP
1 4 92.999950 -85.659140 -215.600000 1.000003 0.000000 0.000000 0.000000 1.000000 0.000000 0.000000 0.000000 1.000003 42003.dat
1 71 92.999950 -105.659100 -215.600000 -1.000003 0.000000 0.000000 0.000000 0.000000 1.000000 0.000000 1.000003 0.000000 4519.dat
0 STEP
1 4 93.001250 -85.659160 -115.001400 -1.000003 0.000000 0.000000 0.000000 1.000000 0.000000 0.000000 0.000000 -1.000003 42003.dat
1 71 93.001250 -105.659200 -115.001400 -1.000003 0.000000 0.000000 0.000000 0.000000 1.000000 0.000000 1.000003 0.000000 4519.dat
0 STEP
1 19 93.001140 -65.659150 -105.001300 -0.000001 1.000003 -0.000001 0.000001 0.000001 1.000000 1.000003 0.000001 -0.000001 3749.dat
1 72 93.001140 -65.659150 -95.001960 1.000003 0.000000 0.000000 0.000000 1.000000 0.000000 0.000000 0.000000 1.000003 3648b.dat
0 STEP
1 72 92.999950 -65.659100 -235.601200 1.000003 0.000000 0.000000 0.000000 1.000000 0.000000 0.000000 0.000000 1.000003 3648b.dat
1 19 92.999950 -65.659120 -225.600100 0.000001 -1.000003 0.000001 0.000001 0.000001 1.000000 -1.000003 -0.000001 0.000001 3749.dat
0 STEP
1 1 53.000420 -123.659200 -165.001500 -1.000003 0.000000 0.000000 0.000000 1.000000 0.000000 0.000000 0.000000 -1.000003 3709b.dat
0 STEP
1 1 113.001300 -163.852700 -168.668400 0.000000 0.000000 1.000000 1.000000 0.000000 0.000000 0.000000 1.000000 0.000000 3709b.dat
1 1 113.001200 -123.659200 -165.000000 0.000000 0.000000 1.000000 0.000000 1.000000 0.000000 -1.000000 0.000000 0.000000 32001.dat
0 STEP
1 1 -106.999300 -99.659160 -65.001870 0.000001 0.000000 1.000003 0.000000 1.000000 0.000000 -1.000003 0.000000 0.000001 3738.dat
1 1 -106.999300 -91.659180 -165.001500 0.000000 0.000000 1.000003 0.000000 1.000000 0.000000 -1.000003 0.000000 0.000000 32001.dat
1 1 -106.999600 -107.659200 -65.002120 0.000000 0.000000 1.000000 0.000000 1.000000 0.000000 -1.000000 0.000000 0.000000 3709b.dat
0 STEP
1 19 -106.999300 -89.339160 -45.001380 -0.000001 1.000000 -0.000001 1.000000 0.000001 -0.000001 -0.000001 -0.000001 -1.000000 3749.dat
1 4 -106.999300 -79.339160 -25.001080 0.000000 0.000000 -1.000000 -1.000000 0.000000 0.000000 0.000000 1.000000 0.000000 42003.dat
0 STEP
1 1 -106.999300 -107.659200 -265.001600 0.000000 0.000000 1.000000 0.000000 1.000000 0.000000 -1.000000 0.000000 0.000000 3709b.dat
1 1 -106.999300 -99.659190 -265.001300 0.000001 0.000000 1.000003 0.000000 1.000000 0.000000 -1.000003 0.000000 0.000001 3738.dat
0 STEP
1 19 -106.999300 -89.649180 -285.001600 -0.000001 1.000000 -0.000001 1.000000 0.000001 -0.000001 -0.000001 -0.000001 -1.000000 3749.dat
1 4 -106.997600 -79.649180 -305.001700 0.000000 0.000000 1.000000 -1.000000 0.000000 0.000000 0.000000 -1.000000 0.000000 42003.dat
0 STEP
1 16 -206.999300 0.000000 -155.375100 1.000000 0.000000 0.000000 0.000000 1.000000 0.000000 0.000000 0.000000 1.000000 submodel group 1
0 STEP
1 1 -236.998900 -115.659200 -165.000000 0.000000 0.000000 1.000000 0.000000 1.000000 0.000000 -1.000000 0.000000 0.000000 3700.dat
1 1 -196.999300 -115.659200 -165.000000 0.000000 0.000000 1.000000 0.000000 1.000000 0.000000 -1.000000 0.000000 0.000000 3700.dat
0 STEP
1 71 -217.659200 -105.659200 -165.000100 -0.000001 0.000000 1.000000 0.000000 1.000000 0.000000 -1.000000 0.000000 -0.000001 3713.dat
1 71 -257.658700 -105.659200 -165.000000 -0.000001 0.000000 1.000000 0.000000 1.000000 0.000000 -1.000000 0.000000 -0.000001 3713.dat
1 0 -247.658900 -105.659200 -165.000000 -1.000000 0.000000 0.000000 0.000000 1.000000 0.000000 0.000000 0.000000 -1.000000 3706.dat
0 STEP
1 1 -166.999300 -123.659200 -165.000000 1.000000 0.000000 0.000000 0.000000 1.000000 0.000000 0.000000 0.000000 1.000000 3738.dat
1 1 -186.999300 -131.659200 -165.000000 -1.000000 0.000000 0.000000 0.000000 1.000000 0.000000 0.000000 0.000000 -1.000000 3709b.dat
0 STEP
1 1 -107.000500 -131.659200 -164.998200 0.000000 0.000000 0.999992 0.000000 1.000000 0.000000 -0.999993 0.000000 0.000000 3709b.dat
1 1 -106.999300 -123.659200 -195.001400 1.000000 0.000000 0.000000 0.000000 1.000000 0.000000 0.000000 0.000000 1.000000 3700.dat
1 1 -106.999300 -123.659200 -135.001900 1.000000 0.000000 0.000000 0.000000 1.000000 0.000000 0.000000 0.000000 1.000000 3700.dat
0 STEP
1 1 -268.308700 -105.659200 -214.999900 0.000000 1.000000 0.000000 0.000000 0.000000 -1.000000 -1.000000 0.000000 0.000000 3710.dat
1 1 -268.308700 -148.940000 -140.000000 0.000000 1.000000 0.000000 -0.866027 0.000000 0.499999 0.499999 0.000000 0.866028 3710.dat
1 1 -268.308700 -62.378450 -140.000000 -0.000001 1.000000 0.000000 -0.866026 -0.000001 -0.499999 -0.500000 -0.000001 0.866027 3710.dat
1 71 -272.308700 -105.659200 -165.000000 0.000000 0.000000 -1.000000 1.000000 0.000000 0.000000 0.000000 -1.000000 0.000000 4185.dat
0 STEP
1 14 -282.658700 -105.659200 -165.000000 0.000000 0.000000 1.000000 -1.000000 0.000000 0.000000 0.000000 -1.000000 0.000000 32123a.dat
1 71 -297.658600 -105.659200 -165.000000 0.000001 0.000000 -1.000000 0.000000 1.000000 0.000000 1.000000 0.000000 0.000001 3713.dat
0 STEP
0 STEP
0 NOFILE
0 FILE SubModel Group 1
0 SubModel Group 1
0 Name:  SubModel Group 1
0 Author:  
0 CustomBrick
0 NumOfBricks:  18
1 1 -0.000050 -91.659180 -19.624890 1.000000 0.000000 0.000000 0.000000 1.000000 0.000000 0.000000 0.000000 1.000000 3701.dat
1 1 -0.000050 -91.659180 0.374860 1.000000 0.000000 0.000000 0.000000 1.000000 0.000000 0.000000 0.000000 1.000000 3701.dat
1 0 20.000020 -81.659180 -10.164900 0.000000 0.000000 1.000003 0.000000 1.000000 0.000000 -1.000003 0.000000 0.000000 3705.dat
1 0 -20.000030 -81.659180 -10.094770 0.000000 0.000000 1.000003 0.000000 1.000000 0.000000 -1.000003 0.000000 0.000000 3705.dat
0 STEP
1 1 -0.000050 -81.659160 19.835190 0.000000 1.000003 0.000000 0.000000 0.000000 1.000000 1.000003 0.000000 0.000000 32184.dat
1 1 0.000030 -81.659180 -40.094860 0.000000 1.000003 0.000000 0.000000 0.000000 1.000000 1.000003 0.000000 0.000000 32184.dat
0 STEP
1 0 0.000120 -21.659170 19.905500 0.000002 -1.000003 -0.000002 -0.000002 -0.000002 1.000000 -1.000003 -0.000002 -0.000002 32013.dat
1 71 -0.000050 -61.659180 19.835190 -1.000003 0.000000 -0.000001 -0.000001 0.000000 1.000000 0.000000 1.000003 0.000000 3713.dat
1 72 -0.000050 -61.659180 19.835190 0.000000 0.000000 -1.000003 -1.000000 0.000000 0.000000 0.000000 1.000003 0.000000 6587.dat
0 STEP
1 0 -0.000050 -21.659180 -40.095110 0.000002 -1.000003 -0.000002 -0.000002 -0.000002 1.000000 -1.000003 -0.000002 -0.000002 32013.dat
1 71 0.000030 -61.659180 -40.094860 -1.000003 0.000000 -0.000001 -0.000001 0.000000 1.000000 0.000000 1.000003 0.000000 3713.dat
1 72 0.000030 -61.659180 -40.094860 0.000000 0.000000 -1.000003 -1.000000 0.000000 0.000000 0.000000 1.000003 0.000000 6587.dat
0 STEP
1 14 0.000030 -21.659230 5.064640 1.000003 0.000000 0.000000 0.000000 -1.000000 0.000000 0.000000 0.000000 -1.000003 32123a.dat
1 14 0.000030 -21.659230 -24.664950 1.000003 0.000000 0.000000 0.000000 -1.000000 0.000000 0.000000 0.000000 -1.000003 32123a.dat
1 71 0.000030 -21.659210 -9.935410 0.000000 -1.000003 0.000000 -1.000000 0.000000 -0.000001 0.000001 0.000000 -1.000003 94925.dat
1 71 0.000030 -21.659220 -9.935410 0.000000 0.000000 1.000003 0.000000 1.000000 0.000000 -1.000003 0.000000 0.000000 32073.dat
0 STEP
1 14 0.000030 -21.659230 -54.934820 1.000003 0.000000 0.000000 0.000000 -1.000000 0.000000 0.000000 0.000000 -1.000003 32123a.dat
1 14 0.000030 -21.659220 34.884550 1.000003 0.000000 0.000000 0.000000 -1.000000 0.000000 0.000000 0.000000 -1.000003 32123a.dat
0 STEP
0 NOFILE
