0 FILE 稻草人
0 Untitled Model
0 Name:  稻草人
0 Author:  
0 CustomBrick
0 NumOfBricks:  68
1 1 -38.436560 -8.000010 -121.440600 0.000000 0.000000 1.000000 0.000000 1.000000 0.000000 -1.000000 0.000000 0.000000 32001.dat
1 1 -28.436560 -32.000010 -121.440600 0.000000 0.000000 1.000000 0.000000 1.000000 0.000000 -1.000000 0.000000 0.000000 3894.dat
1 1 -48.436570 -32.000010 -121.440300 0.000000 0.000000 1.000000 0.000000 1.000000 0.000000 -1.000000 0.000000 0.000000 3894.dat
0 STEP
1 0 -58.436560 -62.000010 -181.440600 0.000000 0.000000 -1.000000 0.000000 1.000000 0.000000 1.000000 0.000000 0.000000 2780.dat
1 71 -38.436560 -62.000010 -181.440600 1.000000 0.000000 0.000000 0.000000 1.000000 0.000000 0.000000 0.000000 1.000000 58120.dat
1 0 -18.436580 -62.000010 -181.440600 0.000000 0.000000 -1.000000 0.000000 1.000000 0.000000 1.000000 0.000000 0.000000 2780.dat
0 STEP
1 0 -198.436600 -62.000000 -181.440600 0.000000 1.000000 0.000000 0.000000 0.000000 1.000000 1.000000 0.000000 0.000000 2780.dat
1 1 -98.436580 -72.000000 -191.440600 1.000000 0.000000 0.000000 0.000000 1.000000 0.000000 0.000000 0.000000 1.000000 3895.dat
1 71 -38.436560 -62.000010 -191.440600 0.000000 -1.000000 0.000000 0.000000 0.000000 1.000000 -1.000000 0.000000 0.000000 4519.dat
1 0 -118.436600 -62.000010 -181.440600 0.000000 0.000000 -1.000000 0.000000 1.000000 0.000000 1.000000 0.000000 0.000000 2780.dat
0 STEP
1 19 -178.436600 -62.000000 -201.440700 0.000001 -1.000000 0.000001 0.000001 0.000001 1.000000 -1.000000 -0.000001 0.000001 3749.dat
1 19 -98.436550 -62.000000 -201.440700 0.000001 -0.992115 -0.125334 0.000001 -0.125334 0.992115 -1.000000 -0.000001 0.000001 3749.dat
0 STEP
1 1 -98.436580 -95.999980 -191.440600 1.000000 0.000000 0.000000 0.000000 1.000000 0.000000 0.000000 0.000000 1.000000 3895.dat
1 1 -98.436580 -120.000000 -191.440600 1.000000 0.000000 0.000000 0.000000 1.000000 0.000000 0.000000 0.000000 1.000000 3895.dat
1 1 -98.436580 -144.000000 -191.440600 1.000000 0.000000 0.000000 0.000000 1.000000 0.000000 0.000000 0.000000 1.000000 3895.dat
0 STEP
1 72 -38.436560 -62.000010 -211.440600 1.000000 0.000000 0.000000 0.000000 -1.000000 0.000000 0.000000 0.000000 -1.000000 3648b.dat
1 71 -178.436600 -62.000000 -211.440700 1.000000 0.000000 0.000000 0.000000 -1.000000 0.000000 0.000000 0.000000 -1.000000 3649.dat
1 72 -98.436540 -62.000000 -211.440700 0.992114 0.125335 0.000000 0.125335 -0.992114 0.000000 0.000000 0.000000 -1.000000 3648b.dat
0 STEP
1 19 -198.436600 -134.000000 -214.740700 1.000000 0.000000 0.000000 0.000000 -1.000000 0.000000 0.000000 0.000000 -1.000000 32269.dat
1 71 -198.436600 -134.000000 -192.170600 0.000000 -1.000000 0.000000 0.000000 0.000000 1.000000 -1.000000 0.000000 0.000000 4519.dat
0 STEP
1 71 -197.775500 -153.951400 -161.440400 0.000000 0.000000 -1.000000 0.000000 1.000000 0.000000 1.000000 0.000000 0.000000 3673.dat
1 71 -198.436600 -134.000000 -172.170700 -1.000000 -0.000001 0.000001 -0.000001 0.000001 -1.000000 0.000001 -1.000000 -0.000001 60483.dat
0 STEP
1 1 -98.436580 -168.000100 -191.440600 1.000000 0.000000 0.000000 0.000000 1.000000 0.000000 0.000000 0.000000 1.000000 3702.dat
1 15 -188.436600 -168.000100 -191.440700 0.000000 0.000000 1.000000 0.000000 1.000000 0.000000 -1.000000 0.000000 0.000000 3040b.dat
1 15 -8.436580 -168.000100 -191.440600 0.000000 0.000000 -1.000000 0.000000 1.000000 0.000000 1.000000 0.000000 0.000000 3040b.dat
0 STEP
1 15 -158.436600 -176.000100 -191.440600 1.000000 0.000000 0.000000 0.000000 1.000000 0.000000 0.000000 0.000000 1.000000 2431.dat
1 15 -38.436580 -176.000100 -191.440600 1.000000 0.000000 0.000000 0.000000 1.000000 0.000000 0.000000 0.000000 1.000000 2431.dat
0 STEP
1 16 -1.868970 -76.828860 -195.101000 1.000000 0.000000 0.000000 0.000000 1.000000 0.000000 0.000000 0.000000 1.000000 submodel group 1
0 STEP
1 15 -99.066200 -169.966500 -151.440400 -0.160152 0.000001 -0.987093 -0.987093 0.000001 0.160152 0.000001 1.000000 0.000001 64290.dat
1 16 -88.736820 -31.500290 -133.440500 0.000000 1.000000 0.000000 0.000000 0.000000 0.999999 0.999999 0.000000 0.000000 submodel group 9 copy copy copy
0 STEP
0 STEP
0 NOFILE
0 FILE SubModel Group 1
0 SubModel Group 1
0 Name:  SubModel Group 1
0 Author:  
0 CustomBrick
0 NumOfBricks:  37
1 71 3.432410 -9.171140 13.660360 0.000000 0.019204 -0.999816 0.000000 0.999816 0.019204 1.000000 0.000000 0.000000 3673.dat
1 15 0.744020 -149.145400 23.660540 0.999816 -0.000001 -0.019203 -0.019203 0.000001 -0.999816 0.000001 1.000000 0.000001 64871.dat
0 STEP
1 71 1.512100 -109.152700 33.660540 0.000000 0.999816 0.019204 0.000000 -0.019204 0.999816 1.000000 0.000000 0.000000 3673.dat
1 0 1.128030 -129.149100 13.660540 0.000000 -0.999816 -0.019204 0.000000 0.019204 -0.999816 1.000000 0.000000 0.000000 2780.dat
0 STEP
1 0 -0.408200 -209.134300 13.660660 0.000000 -0.999816 -0.019204 0.000000 0.019204 -0.999816 1.000000 0.000000 0.000000 2780.dat
1 0 -0.024130 -189.138000 13.660600 0.000000 -0.999816 -0.019204 0.000000 0.019204 -0.999816 1.000000 0.000000 0.000000 2780.dat
1 0 0.359880 -169.141700 13.660540 0.000000 -0.999816 -0.019204 0.000000 0.019204 -0.999816 1.000000 0.000000 0.000000 2780.dat
1 0 0.744020 -149.145400 13.660540 0.000000 -0.999816 -0.019204 0.000000 0.019204 -0.999816 1.000000 0.000000 0.000000 2780.dat
0 STEP
1 15 0.744020 -149.145400 3.660540 -0.019203 0.000001 -0.999816 -0.999816 0.000001 0.019203 0.000001 1.000000 0.000001 32316.dat
1 15 1.128030 -129.149100 3.660540 -0.019203 0.000001 -0.999816 -0.999816 0.000001 0.019203 0.000001 1.000000 0.000001 32524.dat
0 STEP
1 15 0.360020 -169.141800 3.660420 -0.019203 0.000001 -0.999816 -0.999816 0.000001 0.019203 0.000001 1.000000 0.000001 32316.dat
1 15 -0.024130 -189.138000 3.660600 -0.019203 0.000001 -0.999816 -0.999816 0.000001 0.019203 0.000001 1.000000 0.000001 32316.dat
1 15 -0.408200 -209.134300 3.660660 -0.019203 0.000001 -0.999816 -0.999816 0.000001 0.019203 0.000001 1.000000 0.000001 32523.dat
0 STEP
1 72 -1.176340 -249.127000 8.660660 0.999816 0.000000 -0.019204 -0.019204 0.000000 -0.999816 0.000000 1.000000 0.000000 99773.dat
1 0 -1.560350 -269.123300 13.660660 0.000000 -0.999816 -0.019204 0.000000 0.019204 -0.999816 1.000000 0.000000 0.000000 2780.dat
1 0 -1.176340 -249.127000 13.660660 0.000000 -0.999816 -0.019204 0.000000 0.019204 -0.999816 1.000000 0.000000 0.000000 2780.dat
0 STEP
1 72 38.816130 -249.895300 18.660420 -0.019204 -0.000001 0.999816 -0.999816 0.000001 -0.019204 -0.000001 -1.000000 -0.000001 32250.dat
1 19 38.816260 -249.895100 23.660660 0.000001 -0.999816 0.019205 0.000001 0.019205 0.999816 -1.000000 -0.000001 0.000001 3749.dat
1 19 -41.169020 -248.358900 24.260760 0.000001 -0.999816 0.019205 0.000001 0.019205 0.999816 -1.000000 -0.000001 0.000001 3749.dat
1 72 -41.169010 -248.358800 19.258260 -0.019203 0.000001 -0.999816 -0.999816 0.000001 0.019203 0.000001 1.000000 0.000001 32250.dat
0 STEP
1 0 -1.944500 -289.119600 4.020770 0.000000 0.019204 0.999816 0.000000 0.999816 -0.019204 -1.000000 0.000000 0.000000 3705.dat
1 14 -1.944480 -289.119600 38.900710 -0.019204 0.999816 0.000000 -0.999816 -0.019204 0.000000 0.000000 0.000000 1.000000 32123a.dat
1 14 -1.944480 -289.119600 -1.469280 -0.019204 0.999816 0.000000 -0.999816 -0.019204 0.000000 0.000000 0.000000 1.000000 32123a.dat
0 STEP
1 71 -1.944510 -289.119600 -16.899220 0.019203 -0.999816 0.000000 0.999816 0.019203 0.000000 0.000000 0.000000 1.000000 3649.dat
1 14 -1.944500 -289.119600 -30.979230 0.999816 0.019204 0.000000 -0.019204 0.999816 0.000000 0.000000 0.000000 1.000000 32123a.dat
0 STEP
1 19 -32.131020 -298.541700 -26.899180 -0.000001 1.000000 -0.000001 -0.000001 -0.000001 -1.000000 -1.000000 -0.000001 0.000001 3749.dat
1 19 27.857910 -299.693900 -26.899180 -0.000001 1.000000 -0.000001 -0.000001 -0.000001 -1.000000 -1.000000 -0.000001 0.000001 3749.dat
1 14 -32.131020 -298.541700 -31.899180 1.000000 0.000000 0.000000 0.000000 -1.000000 0.000000 0.000000 0.000000 -1.000000 32123a.dat
1 14 27.857910 -299.693900 -32.089190 1.000000 0.000000 0.000000 0.000000 -1.000000 0.000000 0.000000 0.000000 -1.000000 32123a.dat
0 STEP
1 19 -32.131030 -298.541700 -39.899020 -1.000000 0.000000 -0.000001 0.000000 1.000000 0.000000 0.000001 0.000000 -1.000000 6589.dat
1 19 27.857890 -299.694000 -39.899180 -1.000000 0.000000 -0.000001 0.000000 1.000000 0.000000 0.000001 0.000000 -1.000000 6589.dat
0 STEP
1 19 7.477530 -319.306100 -6.899310 -0.000001 1.000000 -0.000001 0.000001 0.000001 1.000000 1.000000 0.000001 -0.000001 3749.dat
1 19 -12.518790 -318.922000 -6.899250 -0.000001 1.000000 -0.000001 0.000001 0.000001 1.000000 1.000000 0.000001 -0.000001 3749.dat
0 STEP
1 71 -12.522480 -361.116100 3.099080 0.000000 -1.000000 0.000000 -1.000000 0.000000 0.000000 0.000000 0.000000 -1.000000 4519.dat
1 71 7.477620 -361.116200 3.100910 0.000000 -1.000000 0.000000 -1.000000 0.000000 0.000000 0.000000 0.000000 -1.000000 4519.dat
1 4 7.477540 -339.306200 3.100780 0.000000 1.000000 0.000001 0.000000 0.000001 -1.000000 -1.000000 0.000000 0.000000 32039.dat
1 4 -12.518770 -338.922000 3.100780 0.000000 1.000000 0.000001 0.000000 0.000001 -1.000000 -1.000000 0.000000 0.000000 32039.dat
0 STEP
0 NOFILE
0 FILE SubModel Group 9 Copy Copy Copy
0 SubModel Group 9 Copy Copy Copy
0 Name:  SubModel Group 9 Copy Copy Copy
0 Author:  
0 CustomBrick
0 NumOfBricks:  3
1 72 10.000000 -1.128810 -10.000000 1.000000 0.000000 0.000000 0.000000 0.000000 -1.000000 0.000000 1.000000 0.000000 dch003.dat
1 71 -27.466620 -79.717990 29.427020 1.000000 0.000000 0.000000 0.000000 0.000000 -1.000000 0.000000 1.000000 0.000000 dch004.dat
1 25 7.837010 13.484720 -9.965000 1.000000 0.000000 0.000000 0.000000 0.000000 -1.000000 0.000000 1.000000 0.000000 dch005.dat
0 NOFILE
