0 FILE 大巴车.io
0 Untitled Model
0 Name:  大巴车
0 Author:  
0 CustomBrick
0 NumOfBricks:  140
1 1 133.000000 -70.350020 86.999740 -1.000000 0.000000 0.000000 0.000000 1.000000 0.000000 0.000000 0.000000 -1.000000 3709b.dat
1 1 53.000000 -62.350020 96.999740 1.000000 0.000000 0.000000 0.000000 1.000000 0.000000 0.000000 0.000000 1.000000 3703.dat
0 STEP
1 1 13.000000 -70.350020 86.999740 1.000000 0.000000 0.000000 0.000000 1.000000 0.000000 0.000000 0.000000 1.000000 3738.dat
1 1 -87.000000 -70.350020 46.999800 0.000000 0.000000 1.000000 0.000000 1.000000 0.000000 -1.000000 0.000000 0.000000 32001.dat
0 STEP
1 1 53.000000 -62.350010 -3.000210 1.000000 0.000000 0.000000 0.000000 1.000000 0.000000 0.000000 0.000000 1.000000 3703.dat
1 1 133.000000 -70.350020 6.999790 -1.000000 0.000000 0.000000 0.000000 1.000000 0.000000 0.000000 0.000000 -1.000000 3709b.dat
1 1 13.000000 -70.350020 6.999790 1.000000 0.000000 0.000000 0.000000 1.000000 0.000000 0.000000 0.000000 1.000000 3738.dat
0 STEP
1 1 -47.000000 -94.350020 76.999740 1.000000 0.000000 0.000000 0.000000 1.000000 0.000000 0.000000 0.000000 1.000000 3894.dat
1 1 -117.000000 -94.350020 46.999800 0.000000 0.000000 1.000000 0.000000 1.000000 0.000000 -1.000000 0.000000 0.000000 3701.dat
1 1 -47.000000 -94.350020 16.999800 1.000000 0.000000 0.000000 0.000000 1.000000 0.000000 0.000000 0.000000 1.000000 3894.dat
0 STEP
1 1 -87.000000 -110.350100 16.999800 1.000000 0.000000 0.000000 0.000000 1.000000 0.000000 0.000000 0.000000 1.000000 3710.dat
1 1 -87.000000 -102.350000 16.999800 1.000000 0.000000 0.000000 0.000000 1.000000 0.000000 0.000000 0.000000 1.000000 3710.dat
1 1 -87.000000 -102.350000 76.999740 1.000000 0.000000 0.000000 0.000000 1.000000 0.000000 0.000000 0.000000 1.000000 3710.dat
1 1 -87.000000 -110.350200 76.999740 1.000000 0.000000 0.000000 0.000000 1.000000 0.000000 0.000000 0.000000 1.000000 3710.dat
0 STEP
1 1 153.000000 -94.350020 76.999740 1.000000 0.000000 0.000000 0.000000 1.000000 0.000000 0.000000 0.000000 1.000000 3701.dat
1 1 153.000000 -94.350020 16.999800 1.000000 0.000000 0.000000 0.000000 1.000000 0.000000 0.000000 0.000000 1.000000 3701.dat
0 STEP
1 1 -117.000000 -134.350100 46.999740 0.000000 0.000000 1.000000 0.000000 1.000000 0.000000 -1.000000 0.000000 0.000000 3701.dat
1 1 -87.000000 -134.350200 76.999740 1.000000 0.000000 0.000000 0.000000 1.000000 0.000000 0.000000 0.000000 1.000000 3700.dat
1 1 -87.000000 -134.350100 16.999800 1.000000 0.000000 0.000000 0.000000 1.000000 0.000000 0.000000 0.000000 1.000000 3700.dat
0 STEP
1 1 -97.000000 -158.350100 46.999800 0.000000 0.000000 -1.000000 0.000000 1.000000 0.000000 1.000000 0.000000 0.000000 3701.dat
1 1 -96.999500 -182.350100 46.999800 0.000000 0.000000 -1.000000 0.000000 1.000000 0.000000 1.000000 0.000000 0.000000 3701.dat
1 0 -106.999500 -172.350100 66.999800 -1.000000 0.000000 0.000000 0.000000 1.000000 0.000000 0.000000 0.000000 -1.000000 2780.dat
1 0 153.000000 -84.350020 6.999790 0.000000 0.000000 -1.000000 0.000000 1.000000 0.000000 1.000000 0.000000 0.000000 2780.dat
1 0 -106.999500 -172.350100 26.999800 -1.000000 0.000000 0.000000 0.000000 1.000000 0.000000 0.000000 0.000000 -1.000000 2780.dat
1 0 153.000000 -84.350020 86.999740 0.000000 0.000000 -1.000000 0.000000 1.000000 0.000000 1.000000 0.000000 0.000000 2780.dat
0 STEP
1 1 -117.000000 -158.350100 46.999740 0.000000 0.000000 1.000000 0.000000 1.000000 0.000000 -1.000000 0.000000 0.000000 3894.dat
1 0 -127.000000 -148.350100 26.999740 -1.000000 0.000000 0.000000 0.000000 1.000000 0.000000 0.000000 0.000000 -1.000000 2780.dat
1 0 -127.000000 -148.350100 66.999740 -1.000000 0.000000 0.000000 0.000000 1.000000 0.000000 0.000000 0.000000 -1.000000 2780.dat
0 STEP
1 19 -147.000000 -108.350000 46.999740 -1.000000 -0.000001 0.000001 0.000001 0.000001 1.000000 -0.000001 1.000000 -0.000001 3749.dat
1 72 -142.000000 -148.350100 46.999740 0.000000 1.000000 0.000000 0.000000 0.000000 1.000000 1.000000 0.000000 0.000000 99773.dat
1 72 -132.000000 -148.350100 46.999740 0.000000 1.000000 0.000000 0.000000 0.000000 1.000000 1.000000 0.000000 0.000000 99773.dat
1 19 -147.000000 -128.350000 46.999740 -1.000000 -0.000001 0.000001 0.000001 0.000001 1.000000 -0.000001 1.000000 -0.000001 3749.dat
1 15 -116.999500 -172.350000 46.999740 -0.000001 -1.000000 -0.000001 -1.000000 0.000001 -0.000001 0.000001 0.000001 -1.000000 32523.dat
0 STEP
1 19 -87.000000 -84.350020 6.999790 0.000001 -1.000000 0.000001 0.000001 0.000001 1.000000 -1.000000 -0.000001 0.000001 3749.dat
1 0 -87.000000 -124.350100 6.999790 0.000000 0.000000 -1.000000 0.000000 1.000000 0.000000 1.000000 0.000000 0.000000 2780.dat
1 72 -152.000000 -108.350100 46.999740 0.000000 0.000000 -1.000000 0.000000 -1.000000 0.000000 -1.000000 0.000000 0.000000 6575.dat
1 14 -162.000000 -128.350000 46.999740 0.000000 0.000000 -1.000000 -1.000000 0.000000 0.000000 0.000000 1.000000 0.000000 32123a.dat
1 14 -162.000000 -108.350000 46.999740 0.000000 0.000000 -1.000000 -1.000000 0.000000 0.000000 0.000000 1.000000 0.000000 32123a.dat
1 0 -87.000000 -124.350200 86.999620 0.000000 0.000000 -1.000000 0.000000 1.000000 0.000000 1.000000 0.000000 0.000000 2780.dat
1 19 -87.000000 -84.350020 86.999740 -0.000001 1.000000 -0.000001 0.000001 0.000001 1.000000 1.000000 0.000001 -0.000001 3749.dat
0 STEP
1 1 -87.000000 -244.350100 -3.000210 1.000000 0.000000 0.000000 0.000000 0.000000 -1.000000 0.000000 1.000000 0.000000 32009.dat
1 1 -87.000000 -244.350200 96.999740 1.000000 0.000000 0.000000 0.000000 0.000000 -1.000000 0.000000 1.000000 0.000000 32009.dat
0 STEP
1 1 213.000000 -204.350000 76.999620 0.000000 0.000000 1.000000 0.000000 1.000000 0.000000 -1.000000 0.000000 0.000000 6558.dat
1 1 213.000000 -124.350000 76.999740 0.000000 0.000000 1.000000 0.000000 1.000000 0.000000 -1.000000 0.000000 0.000000 6558.dat
1 15 213.000000 -164.350100 76.999480 1.000000 -0.000001 0.000001 -0.000001 -0.000001 1.000000 -0.000001 -1.000000 -0.000001 32316.dat
1 1 213.000000 -84.350020 96.999620 -1.000000 0.000000 0.000000 0.000000 0.000000 1.000000 0.000000 1.000000 0.000000 32009.dat
0 STEP
1 1 227.000000 -164.350000 46.999620 0.000000 1.000000 0.000000 -1.000000 0.000000 0.000000 0.000000 0.000000 1.000000 32001.dat
1 1 203.000000 -164.350000 36.999620 0.000000 1.000000 0.000000 -1.000000 0.000000 0.000000 0.000000 0.000000 1.000000 3894.dat
1 1 203.000000 -164.350000 56.999620 0.000000 1.000000 0.000000 -1.000000 0.000000 0.000000 0.000000 0.000000 1.000000 3894.dat
0 STEP
1 1 213.000000 -204.350000 16.999500 0.000000 0.000000 1.000000 0.000000 1.000000 0.000000 -1.000000 0.000000 0.000000 6558.dat
1 1 213.000000 -124.350000 16.999620 0.000000 0.000000 1.000000 0.000000 1.000000 0.000000 -1.000000 0.000000 0.000000 6558.dat
1 15 213.000000 -164.350000 16.999730 -1.000000 0.000001 -0.000001 -0.000001 -0.000001 1.000000 0.000001 1.000000 0.000001 32316.dat
1 1 213.000000 -84.350020 -3.000400 -1.000000 0.000000 0.000000 0.000000 0.000000 1.000000 0.000000 1.000000 0.000000 32009.dat
0 STEP
1 71 173.000000 -105.140000 46.999760 0.000000 1.000000 0.000000 0.000000 0.000000 -1.000000 -1.000000 0.000000 0.000000 58120.dat
1 72 173.000000 -83.770000 46.999740 0.000000 -1.000000 0.000000 0.000000 0.000000 -1.000000 1.000000 0.000000 0.000000 3647.dat
1 14 173.000000 -99.700000 46.999740 1.000000 0.000000 0.000000 0.000000 0.000000 1.000000 0.000000 -1.000000 0.000000 32123a.dat
1 14 173.000000 -68.819980 46.999740 1.000000 0.000000 0.000000 0.000000 0.000000 1.000000 0.000000 -1.000000 0.000000 32123a.dat
1 71 173.000000 -92.700000 46.999740 0.000000 1.000000 0.000000 -1.000000 0.000000 0.000000 0.000000 0.000000 1.000000 4519.dat
0 STEP
1 71 173.013200 -52.350000 34.606920 0.000000 1.000026 0.000000 -1.000000 0.000000 -0.000001 -0.000001 0.000000 1.000026 3650c.dat
1 0 173.000000 -52.350020 47.000040 0.000000 0.000000 1.000000 0.000000 1.000000 0.000000 -1.000000 0.000000 0.000000 3737.dat
1 71 173.013200 -52.350030 -23.013100 1.000026 0.000000 0.000001 0.000000 1.000000 0.000000 -0.000001 0.000000 1.000026 3713.dat
1 71 173.013200 -52.350020 16.986920 1.000026 0.000000 0.000001 0.000000 1.000000 0.000000 -0.000001 0.000000 1.000026 3713.dat
1 71 173.013200 -52.350000 116.987800 1.000026 0.000000 0.000001 0.000000 1.000000 0.000000 -0.000001 0.000000 1.000026 3713.dat
0 STEP
1 0 -67.000000 -52.350020 45.359660 0.000000 0.000000 1.000000 0.000000 1.000000 0.000000 -1.000000 0.000000 0.000000 3737.dat
1 71 -67.000000 -52.350000 -24.640010 1.000000 0.000000 0.000001 0.000000 1.000000 0.000000 -0.000001 0.000000 1.000000 3713.dat
1 71 -67.000000 -52.350000 116.929700 1.000000 0.000000 0.000001 0.000000 1.000000 0.000000 -0.000001 0.000000 1.000000 3713.dat
0 STEP
1 15 173.636700 -99.067500 -23.000600 -0.754709 0.000001 -0.656058 -0.656058 0.000003 0.754709 0.000003 1.000000 -0.000002 32524.dat
1 0 213.000000 -144.350000 -13.000400 0.000000 0.000000 -1.000000 0.000000 1.000000 0.000000 1.000000 0.000000 0.000000 2780.dat
1 0 133.000000 -52.350030 -13.000210 0.000000 0.000000 -1.000000 0.000000 1.000000 0.000000 1.000000 0.000000 0.000000 2780.dat
1 0 -87.000000 -104.350100 -13.000210 0.000000 0.000000 -1.000000 0.000000 1.000000 0.000000 1.000000 0.000000 0.000000 2780.dat
1 0 -27.000000 -52.350030 -12.999980 0.000000 0.000000 -1.000000 0.000000 1.000000 0.000000 1.000000 0.000000 0.000000 2780.dat
1 15 -56.357900 -78.638660 -23.000210 0.642785 0.000001 -0.766046 -0.766046 0.000001 -0.642785 0.000000 1.000000 0.000001 32316.dat
0 STEP
1 0 133.000000 -52.350020 106.999700 0.000000 0.000000 -1.000000 0.000000 1.000000 0.000000 1.000000 0.000000 0.000000 2780.dat
1 0 213.000000 -144.350000 106.999600 0.000000 0.000000 -1.000000 0.000000 1.000000 0.000000 1.000000 0.000000 0.000000 2780.dat
1 0 -87.000000 -104.350200 106.999700 0.000000 0.000000 -1.000000 0.000000 1.000000 0.000000 1.000000 0.000000 0.000000 2780.dat
1 0 -27.000000 -52.350020 106.999700 0.000000 0.000000 -1.000000 0.000000 1.000000 0.000000 1.000000 0.000000 0.000000 2780.dat
1 15 -56.357900 -78.638800 116.999700 0.642785 0.000001 -0.766047 -0.766047 0.000001 -0.642785 0.000000 1.000000 0.000001 32316.dat
1 15 173.636700 -99.067400 116.999500 -0.754710 0.000001 -0.656059 -0.656059 0.000003 0.754710 0.000003 1.000000 -0.000002 32524.dat
0 STEP
1 71 -67.000000 -52.350030 -44.640320 1.000000 0.000000 0.000000 0.000000 1.000000 0.000000 0.000000 0.000000 1.000000 3649.dat
1 71 173.000000 -52.350030 -43.000000 1.000000 0.000000 0.000000 0.000000 1.000000 0.000000 0.000000 0.000000 1.000000 3649.dat
0 STEP
1 19 -87.000000 -204.350100 -13.000210 0.000001 -1.000000 0.000001 0.000001 0.000001 1.000002 -1.000000 -0.000001 0.000001 3749.dat
1 19 -87.000000 -204.350200 106.999700 -0.000001 1.000000 -0.000001 0.000001 0.000001 1.000000 1.000000 0.000001 -0.000001 3749.dat
1 71 173.000000 -52.350000 136.999900 1.000000 0.000000 0.000000 0.000000 1.000000 0.000000 0.000000 0.000000 1.000000 3649.dat
1 71 -67.000000 -52.350000 137.099600 1.000000 0.000000 0.000000 0.000000 1.000000 0.000000 0.000000 0.000000 1.000000 3649.dat
0 STEP
1 19 -87.000000 -174.350000 -43.000200 -0.000001 1.000000 -0.000001 -1.000003 -0.000001 0.000001 0.000001 0.000001 1.000000 3749.dat
1 0 -86.999000 -204.350100 -43.000300 -1.000000 0.000000 0.000000 0.000000 0.000000 -1.000000 0.000000 -1.000000 0.000000 32014.dat
0 STEP
1 0 -87.000000 -164.350000 -43.000200 0.000000 -1.000000 0.000000 -1.000003 0.000000 0.000000 0.000000 0.000000 -1.000000 32014.dat
1 4 -57.000000 -164.350000 -43.000300 -1.000000 0.000000 0.000000 0.000000 1.000002 0.000000 0.000000 0.000000 -1.000000 32062.dat
0 STEP
1 19 213.000000 -244.350000 -13.000530 -0.000001 1.000000 -0.000001 0.000001 0.000001 1.000000 1.000000 0.000001 -0.000001 3749.dat
1 0 -47.000000 -244.350100 -13.000270 0.000000 0.000000 -1.000000 0.000000 1.000000 0.000000 1.000000 0.000000 0.000000 2780.dat
1 0 213.000000 -164.350000 -13.000530 0.000000 0.000000 -1.000000 0.000000 1.000000 0.000000 1.000000 0.000000 0.000000 2780.dat
1 0 -27.000000 -164.350000 -33.000300 0.000000 0.000000 -1.000000 0.000000 1.000000 0.000000 1.000000 0.000000 0.000000 2780.dat
1 0 -27.000000 -164.350000 -43.000200 -0.000002 -0.000002 1.000000 0.000002 -1.000000 -0.000002 1.000000 0.000002 0.000002 32013.dat
0 STEP
1 0 13.000000 -164.350200 -33.000300 0.000000 0.000000 -1.000000 0.000000 1.000000 0.000000 1.000000 0.000000 0.000000 2780.dat
1 15 73.000000 -164.350100 -23.000300 0.000001 0.000001 -1.000000 -1.000000 0.000001 -0.000001 0.000001 1.000000 0.000001 64871.dat
1 15 73.000000 -244.350100 -23.000300 0.000001 0.000001 -1.000000 -1.000000 0.000001 -0.000001 0.000001 1.000000 0.000001 64871.dat
1 0 -7.000000 -244.350200 -33.000300 0.000000 0.000000 -1.000000 0.000000 1.000000 0.000000 1.000000 0.000000 0.000000 2780.dat
1 0 13.000000 -244.350200 -33.000210 0.000000 0.000000 -1.000000 0.000000 1.000000 0.000000 1.000000 0.000000 0.000000 2780.dat
0 STEP
1 1 13.000000 -164.350200 -43.000300 -1.000000 0.000001 0.000001 -0.000001 -0.000001 -1.000000 -0.000001 -1.000000 0.000001 32526.dat
0 STEP
1 0 -87.000000 -204.350200 136.999700 1.000000 0.000000 0.000000 0.000000 0.000000 -1.000000 0.000000 1.000000 0.000000 32014.dat
1 19 -87.000000 -174.350200 136.999600 -0.000001 1.000000 -0.000001 -1.000000 -0.000001 0.000001 0.000001 0.000001 1.000000 3749.dat
0 STEP
1 4 -57.000000 -164.350200 136.999500 -1.000000 0.000000 0.000000 0.000000 1.000000 0.000000 0.000000 0.000000 -1.000000 32062.dat
1 0 -87.000000 -164.350200 136.999500 0.000000 0.000000 -1.000000 -1.000000 0.000000 0.000000 0.000000 1.000000 0.000000 32014.dat
0 STEP
1 0 -47.000000 -244.350200 106.999700 0.000000 0.000000 -1.000000 0.000000 1.000000 0.000000 1.000000 0.000000 0.000000 2780.dat
1 19 213.000000 -244.350000 107.329600 0.000001 -1.000000 0.000001 0.000001 0.000001 1.000000 -1.000000 -0.000001 0.000001 3749.dat
1 0 213.000000 -164.350000 106.999500 0.000000 0.000000 -1.000000 0.000000 1.000000 0.000000 1.000000 0.000000 0.000000 2780.dat
1 0 -27.000000 -164.350200 126.999500 0.000000 0.000000 -1.000000 0.000000 1.000000 0.000000 1.000000 0.000000 0.000000 2780.dat
1 0 -27.000000 -164.350200 136.999500 -0.000002 -0.000002 1.000000 0.000002 -1.000000 -0.000002 1.000000 0.000002 0.000002 32013.dat
0 STEP
1 15 73.000000 -164.350100 116.999700 0.000001 0.000001 -1.000000 -1.000000 0.000001 -0.000001 0.000001 1.000000 0.000001 64871.dat
0 STEP
1 0 13.000000 -164.350200 126.999800 0.000000 0.000000 -1.000000 0.000000 1.000000 0.000000 1.000000 0.000000 0.000000 2780.dat
1 15 73.000000 -244.350100 117.329700 0.000001 0.000001 -1.000000 -1.000000 0.000001 -0.000001 0.000001 1.000000 0.000001 64871.dat
1 0 -7.000000 -244.350200 128.329800 0.000000 0.000000 -1.000000 0.000000 1.000000 0.000000 1.000000 0.000000 0.000000 2780.dat
1 0 13.000000 -244.350200 128.329800 0.000000 0.000000 -1.000000 0.000000 1.000000 0.000000 1.000000 0.000000 0.000000 2780.dat
0 STEP
1 1 13.000000 -164.350200 137.329700 -1.000000 0.000001 0.000001 -0.000001 -0.000001 -1.000000 -0.000001 -1.000000 0.000001 32526.dat
0 STEP
1 0 153.000000 -244.350000 -13.000400 0.000000 0.000000 1.000000 0.000000 1.000000 0.000000 -1.000000 0.000000 0.000000 2780.dat
1 0 153.000000 -244.350000 108.329700 0.000000 0.000000 -1.000000 0.000000 1.000000 0.000000 1.000000 0.000000 0.000000 2780.dat
1 0 33.000000 -244.350200 -13.000270 0.000000 0.000000 1.000000 0.000000 1.000000 0.000000 -1.000000 0.000000 0.000000 2780.dat
1 0 33.000000 -244.350200 108.329800 0.000000 0.000000 -1.000000 0.000000 1.000000 0.000000 1.000000 0.000000 0.000000 2780.dat
1 1 93.000000 -254.350200 -3.000270 1.000000 0.000000 0.000000 0.000000 1.000000 0.000000 0.000000 0.000000 1.000000 3702.dat
1 1 93.000000 -254.350000 100.329700 1.000000 0.000000 0.000000 0.000000 1.000000 0.000000 0.000000 0.000000 1.000000 3702.dat
0 STEP
1 16 -42.135720 -106.085300 59.035760 0.984808 -0.173648 0.000000 0.173648 0.984808 0.000000 0.000000 0.000000 1.000000 submodel group 9 copy copy copy
1 71 133.000000 -164.350200 46.789660 0.000000 0.000000 1.000000 0.000000 1.000000 0.000000 -1.000000 0.000000 0.000000 60485.dat
0 STEP
1 14 133.000000 -164.350300 -37.890300 1.000000 0.000000 0.000000 0.000000 1.000000 0.000000 0.000000 0.000000 1.000000 32123a.dat
1 14 133.000000 -164.350200 131.959600 1.000000 0.000000 0.000000 0.000000 1.000000 0.000000 0.000000 0.000000 1.000000 32123a.dat
0 STEP
1 1 13.000000 -262.350200 6.999730 1.000000 0.000000 0.000000 0.000000 1.000000 0.000000 0.000000 0.000000 1.000000 32001.dat
1 1 13.000000 -262.350000 90.329700 1.000000 0.000000 0.000000 0.000000 1.000000 0.000000 0.000000 0.000000 1.000000 32001.dat
0 STEP
1 1 183.000000 -254.350200 46.999620 0.000000 0.000000 1.000000 0.000000 1.000000 0.000000 -1.000000 0.000000 0.000000 3894.dat
1 1 173.000000 -262.350200 46.999740 0.000000 0.000000 1.000000 0.000000 1.000000 0.000000 -1.000000 0.000000 0.000000 32001.dat
1 1 123.000000 -262.350000 50.329620 0.000000 0.000000 -1.000000 0.000000 1.000000 0.000000 1.000000 0.000000 0.000000 3666.dat
0 STEP
1 1 -27.000000 -270.350000 50.329700 0.000000 0.000000 1.000000 0.000000 1.000000 0.000000 -1.000000 0.000000 0.000000 3709b.dat
1 1 173.000000 -270.350200 46.999740 0.000000 0.000000 1.000000 0.000000 1.000000 0.000000 -1.000000 0.000000 0.000000 3709b.dat
0 STEP
1 19 173.000000 -276.830200 46.999740 -0.000001 1.000000 -0.000001 -1.000000 -0.000001 0.000001 0.000001 0.000001 1.000000 3749.dat
1 19 -27.000000 -276.320000 50.329700 0.000001 -1.000000 0.000001 -1.000000 -0.000001 0.000001 -0.000001 -0.000001 -1.000000 3749.dat
1 0 72.939940 -306.320000 50.329940 -1.000000 0.000000 0.000000 0.000000 1.000000 0.000000 0.000000 0.000000 -1.000000 3708.dat
1 14 188.600100 -306.320000 50.329820 0.000000 0.000000 -1.000000 0.000000 -1.000000 0.000000 -1.000000 0.000000 0.000000 32123a.dat
1 14 -42.060100 -306.320000 50.329940 0.000000 0.000000 -1.000000 0.000000 -1.000000 0.000000 -1.000000 0.000000 0.000000 32123a.dat
1 0 173.000000 -306.830200 46.999740 1.000000 0.000002 0.000002 0.000002 0.000002 -1.000000 -0.000002 1.000000 0.000002 32013.dat
1 0 -27.000000 -306.320000 50.329820 1.000000 0.000002 0.000002 0.000002 0.000002 -1.000000 -0.000002 1.000000 0.000002 32013.dat
0 STEP
0 STEP
0 NOFILE
0 FILE SubModel Group 9 Copy Copy Copy
0 SubModel Group 9 Copy Copy Copy
0 Name:  SubModel Group 9 Copy Copy Copy
0 Author:  
0 CustomBrick
0 NumOfBricks:  3
1 72 10.000000 -1.128810 -10.000000 1.000000 0.000000 0.000000 0.000000 0.000000 -1.000000 0.000000 1.000000 0.000000 dch003.dat
1 71 -27.466620 -79.717990 29.427020 1.000000 0.000000 0.000000 0.000000 0.000000 -1.000000 0.000000 1.000000 0.000000 dch004.dat
1 25 7.837010 13.484720 -9.965000 1.000000 0.000000 0.000000 0.000000 0.000000 -1.000000 0.000000 1.000000 0.000000 dch005.dat
0 NOFILE
