0 Untitled Model
0 Name:  半框眼镜
0 Author:  
0 CustomBrick
0 NumOfBricks:  49
1 1 -10.000170 -119.000700 -60.003660 -0.999998 0.000000 0.000000 0.000000 1.000000 0.000000 0.000000 0.000000 -0.999999 3895.dat
1 0 -110.000000 -109.000700 -50.000110 0.000000 0.000000 1.000000 0.000000 1.000000 0.000000 -1.000000 0.000000 0.000000 2780.dat
1 0 -70.000100 -109.000700 -50.000110 0.000000 0.000000 1.000000 0.000000 1.000000 0.000000 -1.000000 0.000000 0.000000 2780.dat
1 0 50.000240 -109.000700 -50.000120 0.000000 0.000000 1.000000 0.000000 1.000000 0.000000 -1.000000 0.000000 0.000000 2780.dat
1 0 90.000230 -109.000700 -50.000120 0.000000 0.000000 -1.000000 0.000000 1.000000 0.000000 1.000000 0.000000 0.000000 2780.dat
0 STEP
1 1 -9.999990 -109.000700 -39.999990 0.000000 0.000000 1.000000 1.000000 0.000001 0.000000 0.000000 1.000000 0.000000 32009.dat
1 1 10.000010 -109.000700 -40.000000 0.000000 0.000000 -1.000000 1.000000 0.000000 0.000000 0.000000 -1.000000 0.000000 32009.dat
0 STEP
1 0 -9.999990 -49.000700 -50.000120 0.000000 0.000000 -1.000000 0.000000 1.000000 0.000000 1.000000 0.000000 0.000000 2780.dat
1 0 10.000010 -49.000700 -50.000120 0.000000 0.000000 -1.000000 0.000000 1.000000 0.000000 1.000000 0.000000 0.000000 2780.dat
1 19 10.000010 -69.000660 -50.000120 0.000001 -1.000000 0.000001 0.000001 0.000001 1.000000 -1.000000 -0.000001 0.000001 3749.dat
1 19 -9.999990 -69.000660 -50.000120 0.000001 -1.000000 0.000001 0.000001 0.000001 1.000000 -1.000000 -0.000001 0.000001 3749.dat
0 STEP
1 19 -9.999990 -9.000629 -50.000120 -0.000001 1.000000 -0.000001 0.000001 0.000001 1.000000 1.000000 0.000001 -0.000001 3749.dat
1 0 29.999940 -9.000589 -50.000120 0.000000 0.000000 -1.000000 0.000000 1.000000 0.000000 1.000000 0.000000 0.000000 2780.dat
1 0 -29.999990 -9.000629 -50.000120 0.000000 0.000000 -1.000000 0.000000 1.000000 0.000000 1.000000 0.000000 0.000000 2780.dat
1 19 9.999949 -9.000600 -50.000120 -0.000001 1.000000 -0.000001 0.000001 0.000001 1.000000 1.000000 0.000001 -0.000001 3749.dat
1 1 9.999770 -9.000620 -39.999990 0.000001 0.000001 1.000000 -1.000000 0.000001 0.000001 -0.000001 -1.000000 0.000001 32271.dat
1 1 -9.999320 -9.000629 -39.999930 -0.000001 -0.000001 -1.000000 -1.000000 0.000001 0.000001 0.000001 1.000000 -0.000001 32271.dat
0 STEP
1 1 10.000000 -69.000680 -60.000000 1.000000 -0.000001 -0.000001 0.000001 0.000001 1.000000 -0.000001 -1.000000 0.000001 32140.dat
1 1 -9.998770 -69.000640 -60.001580 -1.000000 0.000001 0.000001 0.000001 0.000001 0.999997 0.000001 0.999997 -0.000001 32140.dat
0 STEP
1 4 170.000000 -109.000600 -30.000110 0.000000 0.000000 -1.000000 0.000000 1.000000 0.000000 1.000000 0.000000 0.000000 32062.dat
1 4 -169.999800 -109.000600 -30.000100 0.000000 0.000000 -1.000000 0.000000 1.000000 0.000000 1.000000 0.000000 0.000000 32062.dat
0 STEP
1 0 -129.999800 -99.000680 -17.969960 0.000000 0.000000 1.000000 0.999997 0.000000 0.000000 0.000000 0.999997 0.000000 2780.dat
1 0 -149.999800 -99.000660 -17.969960 0.000000 0.000000 1.000000 0.999997 0.000000 0.000000 0.000000 0.999997 0.000000 2780.dat
1 0 130.000000 -99.000690 -19.999990 0.000000 0.000000 1.000000 0.999997 0.000000 0.000000 0.000000 0.999997 0.000000 2780.dat
1 0 150.000000 -99.000660 -19.999990 0.000000 0.000000 1.000000 0.999997 0.000000 0.000000 0.000000 0.999997 0.000000 2780.dat
1 4 -149.999800 -109.000600 -17.969960 0.000000 1.000000 0.000000 0.000000 0.000000 0.999997 0.999997 0.000000 0.000000 42003.dat
1 4 150.000000 -109.000600 -19.999990 0.000000 -1.000000 0.000000 0.000000 0.000000 -0.999997 0.999997 0.000000 0.000000 42003.dat
0 STEP
1 1 -169.999700 -89.000740 62.029780 1.000000 -0.000001 -0.000001 -0.000001 -0.999997 0.000001 -0.000001 -0.000001 -0.999997 32526.dat
1 1 170.000000 -89.000620 59.999640 -1.000000 0.000001 0.000001 0.000001 0.999997 -0.000001 -0.000001 -0.000001 -0.999997 32526.dat
0 STEP
1 0 170.000000 -99.000660 -0.000230 0.000000 0.000000 1.000000 0.999997 0.000000 0.000000 0.000000 0.999997 0.000000 2780.dat
1 0 -169.999700 -99.000660 2.029920 0.000000 0.000000 1.000000 0.999997 0.000000 0.000000 0.000000 0.999997 0.000000 2780.dat
0 STEP
1 0 170.000300 -109.000600 -0.000110 0.000002 -1.000000 -0.000002 -0.999997 -0.000002 -0.000002 0.000002 0.000002 -0.999997 32013.dat
1 0 -169.999700 -109.000600 2.029920 0.000002 -1.000000 -0.000002 -0.999997 -0.000002 -0.000002 0.000002 0.000002 -0.999997 32013.dat
0 STEP
1 0 170.000600 -109.000100 129.999400 0.000000 0.000000 -1.000000 0.000000 0.999997 0.000000 0.999997 0.000000 0.000000 3708.dat
1 0 -169.999200 -109.000100 132.029500 0.000000 0.000000 -1.000000 0.000000 0.999997 0.000000 0.999997 0.000000 0.000000 3708.dat
0 STEP
1 14 170.000600 -109.000100 220.399100 1.000000 0.000000 0.000000 0.000000 1.000000 0.000000 0.000000 0.000000 1.000000 32123a.dat
1 14 -169.999200 -109.000100 227.029200 1.000000 0.000000 0.000000 0.000000 1.000000 0.000000 0.000000 0.000000 1.000000 32123a.dat
0 STEP
1 0 -169.999200 -109.000100 262.029100 -1.000000 0.000000 0.000000 0.000000 -0.999997 0.000000 0.000000 0.000000 0.999997 32014.dat
1 0 170.000600 -109.000100 259.999000 -1.000000 0.000000 0.000000 0.000000 -0.999997 0.000000 0.000000 0.000000 0.999997 32014.dat
0 STEP
1 4 170.000600 -79.000180 259.999000 0.000000 0.000000 1.000000 0.999997 0.000000 0.000000 0.000000 0.999997 0.000000 32062.dat
1 4 -169.999200 -79.000180 262.029100 0.000000 0.000000 1.000000 0.999997 0.000000 0.000000 0.000000 0.999997 0.000000 32062.dat
0 STEP
1 71 -169.999200 -66.780220 262.029200 -1.000000 0.000000 -0.000001 -0.000001 0.000000 0.999997 0.000000 0.999997 0.000000 3713.dat
1 71 170.000600 -67.620220 259.999100 -1.000000 0.000000 -0.000001 -0.000001 0.000000 0.999997 0.000000 0.999997 0.000000 3713.dat
0 STEP
1 1 69.999620 -151.000700 -60.003660 1.000000 0.000000 0.000000 0.000000 1.000000 0.000000 0.000000 0.000000 1.000000 3023.dat
1 15 59.999630 -143.000700 -60.003780 0.000000 0.000000 1.000000 0.000000 1.000000 0.000000 -1.000000 0.000000 0.000000 3040b.dat
1 15 79.999620 -143.000700 -60.003660 0.000000 0.000000 -1.000000 0.000000 1.000000 0.000000 1.000000 0.000000 0.000000 3040b.dat
0 STEP
1 1 -89.999980 -151.000700 -60.003720 1.000000 0.000000 0.000000 0.000000 1.000000 0.000000 0.000000 0.000000 1.000000 3023.dat
1 15 -79.999980 -143.000700 -60.003720 0.000000 0.000000 -1.000000 0.000000 1.000000 0.000000 1.000000 0.000000 0.000000 3040b.dat
1 15 -99.999970 -143.000700 -60.003650 0.000000 0.000000 1.000000 0.000000 1.000000 0.000000 -1.000000 0.000000 0.000000 3040b.dat
0 STEP
0 STEP
