0 Untitled Model
0 Name:  履带车
0 Author:  
0 CustomBrick
0 NumOfBricks:  113
1 0 -120.000100 -66.572610 -156.000400 0.000000 0.000000 -0.999999 0.000000 1.000000 0.000000 0.999999 0.000000 0.000000 2780.dat
1 0 40.000570 -66.572280 -155.999900 0.000000 0.000000 -0.999998 0.000000 1.000000 0.000000 0.999999 0.000000 0.000000 2780.dat
1 0 -0.000080 -66.572300 -155.999900 0.000000 0.000000 -1.000000 0.000000 1.000000 0.000000 1.000000 0.000000 0.000000 2780.dat
1 0 -79.999180 -66.572400 -155.999900 0.000000 0.000000 -0.999998 0.000000 1.000000 0.000000 0.999999 0.000000 0.000000 2780.dat
1 15 -39.999270 -66.572350 -165.999900 0.000001 0.000001 -0.999998 -1.000000 0.000001 -0.000001 0.000001 0.999999 0.000001 64871.dat
0 STEP
1 71 20.000000 -66.572280 -86.000000 -1.000000 0.000000 0.000000 0.000000 1.000000 0.000000 0.000000 0.000000 -1.000000 64179.dat
1 0 -0.000080 -66.572280 -15.999820 0.000000 0.000000 -0.999998 0.000000 1.000000 0.000000 0.999999 0.000000 0.000000 2780.dat
1 0 39.999840 -66.572280 -15.999820 0.000000 0.000000 -0.999998 0.000000 1.000000 0.000000 0.999999 0.000000 0.000000 2780.dat
0 STEP
1 0 -20.000160 -76.572270 -146.000200 0.000000 -0.999998 0.000000 -1.000000 0.000000 0.000000 0.000000 0.000000 -0.999999 2780.dat
1 0 60.000410 -76.572270 -105.999700 0.000000 0.999998 0.000000 -1.000000 0.000000 0.000000 0.000000 0.000000 0.999999 2780.dat
1 0 60.000410 -76.572270 -65.999780 0.000000 0.999998 0.000000 -1.000000 0.000000 0.000000 0.000000 0.000000 0.999999 2780.dat
1 0 -20.000160 -76.572270 -25.999810 0.000000 -0.999998 0.000000 -1.000000 0.000000 0.000000 0.000000 0.000000 -0.999999 2780.dat
0 STEP
1 71 -99.999270 -66.572400 -86.000000 -0.999998 0.000000 0.000000 0.000000 1.000000 0.000000 0.000000 0.000000 -0.999999 64179.dat
1 0 -119.999100 -66.572400 -15.999820 0.000000 0.000000 -0.999998 0.000000 1.000000 0.000000 0.999999 0.000000 0.000000 2780.dat
1 0 -79.999180 -66.572400 -15.999820 0.000000 0.000000 -0.999998 0.000000 1.000000 0.000000 0.999999 0.000000 0.000000 2780.dat
0 STEP
1 0 -59.999340 -76.572350 -66.000020 0.000000 -1.000004 0.000000 -1.000005 0.000000 0.000000 0.000000 0.000000 -0.999999 2780.dat
1 0 -59.999340 -76.572390 -145.999900 0.000000 -0.999998 0.000000 -1.000000 0.000000 0.000000 0.000000 0.000000 -0.999999 2780.dat
1 0 -59.999340 -76.572390 -25.999810 0.000000 -0.999998 0.000000 -1.000000 0.000000 0.000000 0.000000 0.000000 -0.999999 2780.dat
1 0 -59.999340 -76.572280 -106.000000 0.000000 -1.000004 0.000000 -1.000005 0.000000 0.000000 0.000000 0.000000 -0.999999 2780.dat
0 STEP
1 15 -139.999400 -86.572530 -86.000000 1.000004 -0.000001 0.000001 0.000001 1.000005 0.000001 -0.000001 -0.000001 0.999999 32316.dat
1 1 -139.999400 -86.572550 -106.000000 0.000000 1.000004 0.000000 1.000005 0.000000 0.000000 0.000000 0.000000 -0.999999 6558.dat
1 1 -139.999700 -86.572490 -66.000020 0.000000 1.000004 0.000000 1.000005 0.000000 0.000000 0.000000 0.000000 -0.999999 6558.dat
0 STEP
1 0 100.000600 -66.572260 -168.480100 0.000000 0.000000 1.000004 0.000000 1.000005 0.000000 -0.999999 0.000000 0.000000 3706.dat
1 71 100.000600 -66.572260 -186.100000 1.000004 0.000000 0.000001 0.000000 1.000005 0.000000 -0.000001 0.000000 0.999999 3713.dat
0 STEP
1 71 99.999590 -66.572290 -18.099920 0.000000 0.000000 1.000004 0.000000 1.000005 0.000000 -0.999999 0.000000 0.000000 44294.dat
1 4 100.000300 -66.572260 -98.480210 -1.000004 0.000000 0.000000 0.000000 -1.000005 0.000000 0.000000 0.000000 0.999999 32034.dat
0 STEP
1 71 -179.999100 -66.572540 -185.999600 1.000004 0.000000 0.000001 0.000000 1.000005 0.000000 -0.000001 0.000000 0.999999 3713.dat
1 0 -179.999100 -66.572540 -164.748900 0.000000 0.000000 1.000004 0.000000 1.000005 0.000000 -0.999999 0.000000 0.000000 3706.dat
0 STEP
1 71 -179.999100 -66.572540 -14.749820 0.000000 0.000000 1.000004 0.000000 1.000005 0.000000 -0.999999 0.000000 0.000000 44294.dat
1 4 -180.000800 -66.572540 -94.746570 -1.000004 0.000000 0.000000 0.000000 -1.000005 0.000000 0.000000 0.000000 0.999999 32034.dat
0 STEP
1 71 99.999590 -66.572290 14.390040 1.000004 0.000000 0.000001 0.000000 1.000005 0.000000 -0.000001 0.000000 0.999999 3713.dat
1 71 -179.999100 -66.572540 14.000150 1.000004 0.000000 0.000001 0.000000 1.000005 0.000000 -0.000001 0.000000 0.999999 3713.dat
1 15 -40.000240 -66.572350 -5.999830 0.000001 0.000001 -0.999998 -1.000000 0.000001 -0.000001 0.000001 0.999999 0.000001 64871.dat
0 STEP
1 15 0.000660 -86.572320 -105.999700 0.000001 0.000001 -0.999998 -0.000001 -1.000000 -0.000001 -0.999999 0.000001 -0.000001 32524.dat
1 15 0.000660 -86.572320 -65.999780 0.000001 0.000001 -0.999998 -0.000001 -1.000000 -0.000001 -0.999999 0.000001 -0.000001 32524.dat
1 15 -39.999270 -86.572360 -25.999810 0.000001 0.000001 -0.999999 -0.000001 -1.000000 -0.000001 -0.999999 0.000001 -0.000001 32523.dat
1 15 -39.999270 -86.572360 -145.999900 0.000001 0.000001 -0.999999 -0.000001 -1.000000 -0.000001 -0.999999 0.000001 -0.000001 32523.dat
0 STEP
1 0 40.000570 -96.572400 -105.999700 0.000000 1.000004 0.000000 -1.000005 0.000000 0.000000 0.000000 0.000000 0.999999 2780.dat
1 0 20.000730 -96.572490 -105.999700 0.000000 -1.000006 0.000000 -1.000007 0.000000 0.000000 0.000000 0.000000 -0.999999 2780.dat
1 19 -19.999430 -86.572520 -106.000000 0.000000 1.000004 0.000000 1.000005 0.000000 0.000000 0.000000 0.000000 -0.999999 32556.dat
1 0 0.000660 -96.572440 -105.999700 0.000000 1.000004 0.000000 -1.000005 0.000000 0.000000 0.000000 0.000000 0.999999 2780.dat
0 STEP
1 0 0.000660 -96.572440 -65.999780 0.000000 1.000004 0.000000 -1.000005 0.000000 0.000000 0.000000 0.000000 0.999999 2780.dat
1 0 20.000490 -96.572410 -65.999780 0.000000 -1.000004 0.000000 -1.000005 0.000000 0.000000 0.000000 0.000000 -0.999999 2780.dat
1 0 40.000570 -96.572400 -65.999780 0.000000 1.000004 0.000000 -1.000005 0.000000 0.000000 0.000000 0.000000 0.999999 2780.dat
1 19 -19.999430 -86.572520 -66.000020 0.000000 1.000004 0.000000 1.000005 0.000000 0.000000 0.000000 0.000000 -0.999999 32556.dat
0 STEP
1 15 -19.999430 -106.572600 -86.000000 -1.000004 0.000001 -0.000001 -0.000001 -1.000005 -0.000001 -0.000001 -0.000001 0.999999 32316.dat
1 15 20.000490 -106.572500 -85.999760 1.000004 -0.000001 0.000001 0.000001 1.000005 0.000001 -0.000001 -0.000001 0.999999 32316.dat
1 15 0.000660 -106.572500 -85.999760 1.000004 -0.000001 0.000001 0.000001 1.000005 0.000001 -0.000001 -0.000001 0.999999 32316.dat
1 15 40.000570 -106.572500 -85.999760 1.000004 -0.000001 0.000001 0.000001 1.000005 0.000001 -0.000001 -0.000001 0.999999 32316.dat
0 STEP
1 0 -39.999390 -96.572450 -105.999700 0.000000 -1.000004 0.000000 1.000005 0.000000 0.000000 0.000000 0.000000 0.999999 2780.dat
1 15 -139.999400 -106.572700 -106.000100 -0.000001 -0.000001 1.000004 -0.000001 -1.000005 -0.000001 0.999999 -0.000001 0.000001 64290.dat
1 0 -39.999270 -96.572450 -65.999780 0.000000 -1.000004 0.000000 1.000005 0.000000 0.000000 0.000000 0.000000 0.999999 2780.dat
1 15 -139.999700 -106.572600 -66.000140 -0.000001 -0.000001 1.000004 -0.000001 -1.000005 -0.000001 0.999999 -0.000001 0.000001 64290.dat
0 STEP
1 71 99.999590 -66.572290 36.900160 -1.000004 0.000000 0.000000 0.000000 -1.000005 0.000000 0.000000 0.000000 0.999999 57519.dat
1 71 -180.001100 -66.572040 37.179210 -1.000004 0.000000 0.000000 0.000000 -1.000005 0.000000 0.000000 0.000000 0.999999 57519.dat
0 STEP
1 0 99.999820 -17.809580 36.855360 0.000000 0.000000 1.000000 0.000000 -1.000005 0.000000 0.999996 0.000000 0.000000 88323.dat
1 0 68.000560 -18.173720 36.740000 0.000000 0.000000 1.000004 0.000000 -1.000005 0.000000 0.999999 0.000000 0.000000 88323.dat
1 0 36.996160 -18.173720 35.732920 0.000000 0.000000 1.000014 0.000000 -1.000005 0.000000 1.000009 0.000000 0.000000 88323.dat
1 0 5.995910 -18.173720 35.732920 0.000000 0.000000 1.000014 0.000000 -1.000005 0.000000 1.000009 0.000000 0.000000 88323.dat
1 0 -25.004580 -18.173720 35.732920 0.000000 0.000000 1.000014 0.000000 -1.000005 0.000000 1.000009 0.000000 0.000000 88323.dat
1 0 -55.999580 -17.780650 35.740000 0.000000 0.000000 1.000004 0.000000 -1.000005 0.000000 0.999999 0.000000 0.000000 88323.dat
1 0 -87.999710 -18.144790 36.615240 0.000000 0.000000 1.000010 0.000000 -1.000005 0.000000 1.000005 0.000000 0.000000 88323.dat
1 0 -119.004500 -18.144790 36.608160 0.000000 0.000000 1.000021 0.000000 -1.000005 0.000000 1.000016 0.000000 0.000000 88323.dat
1 0 -150.004800 -18.144790 36.608160 0.000000 0.000000 1.000021 0.000000 -1.000005 0.000000 1.000016 0.000000 0.000000 88323.dat
1 0 -181.647300 -16.243660 35.608160 0.000000 0.173648 0.984828 0.000000 -0.984813 0.173652 1.000016 0.000000 0.000000 88323.dat
1 0 -208.589100 -22.284210 35.740000 0.000000 0.642789 0.766049 0.000000 -0.766049 0.642790 0.999999 0.000000 0.000000 88323.dat
1 0 -228.189000 -42.707170 36.740000 0.000000 0.965929 0.258822 0.000000 -0.258822 0.965930 0.999999 0.000000 0.000000 88323.dat
1 0 -234.386800 -73.447320 35.900160 0.000000 0.906313 -0.422618 0.000000 0.422618 0.906314 0.999999 0.000000 0.000000 88323.dat
1 0 -222.649900 -101.624300 37.900160 0.000000 0.495465 -0.868633 -0.000001 0.868634 0.495465 0.999999 0.000000 0.000000 88323.dat
1 0 -194.737900 -116.770100 37.900160 0.000000 0.040139 -0.999198 -0.000001 0.999199 0.040139 0.999999 0.000001 0.000000 88323.dat
1 0 -160.002500 -117.598400 36.900160 0.000000 0.040139 -0.999198 -0.000001 0.999199 0.040139 0.999999 0.000001 0.000000 88323.dat
1 0 -126.002600 -117.598400 36.900160 0.000000 0.040139 -0.999198 -0.000001 0.999199 0.040139 0.999999 0.000001 0.000000 88323.dat
1 0 -91.002200 -117.598400 36.900160 0.000000 0.040139 -0.999198 -0.000001 0.999199 0.040139 0.999999 0.000001 0.000000 88323.dat
1 0 -57.000120 -117.598400 36.900160 0.000000 0.040139 -0.999198 -0.000001 0.999199 0.040139 0.999999 0.000001 0.000000 88323.dat
1 0 -24.000610 -117.598400 36.900160 0.000000 0.040139 -0.999198 -0.000001 0.999199 0.040139 0.999999 0.000001 0.000000 88323.dat
1 0 8.999390 -117.598400 36.900160 0.000000 0.040139 -0.999198 -0.000001 0.999199 0.040139 0.999999 0.000001 0.000000 88323.dat
1 0 42.999520 -117.598400 36.900160 0.000000 0.040139 -0.999198 -0.000001 0.999199 0.040139 0.999999 0.000001 0.000000 88323.dat
1 0 76.999520 -117.598400 36.900160 0.000000 0.040139 -0.999198 -0.000001 0.999199 0.040139 0.999999 0.000001 0.000000 88323.dat
1 0 111.554300 -117.668400 36.900160 0.000000 -0.540234 -0.841520 -0.000001 0.841520 -0.540235 0.999999 0.000001 0.000000 88323.dat
1 0 138.483800 -103.141500 35.900160 0.000000 -0.888617 -0.458661 -0.000001 0.458661 -0.888617 0.999999 0.000001 0.000000 88323.dat
1 0 153.360700 -76.859080 35.900160 0.000000 -0.990989 0.133975 -0.000001 -0.133976 -0.990990 0.999999 0.000000 -0.000001 88323.dat
1 0 147.069600 -46.363680 34.900160 0.000000 -0.841522 0.540232 -0.000001 -0.540232 -0.841522 0.999999 0.000000 -0.000001 88323.dat
1 0 129.999600 -20.940220 35.900160 0.000000 0.000000 1.000004 0.000000 -1.000005 0.000000 0.999999 0.000000 0.000000 88323.dat
0 STEP
1 71 100.000600 -66.572260 -205.160000 -1.000004 0.000000 0.000000 0.000000 1.000005 0.000000 0.000000 0.000000 -0.999999 57519.dat
1 71 -179.999100 -66.572540 -205.439100 -1.000004 0.000000 0.000000 0.000000 1.000005 0.000000 0.000000 0.000000 -0.999999 57519.dat
0 STEP
1 0 94.997390 -115.334900 -205.119800 0.000000 0.000000 1.000004 0.000000 1.000005 0.000000 -0.999999 0.000000 0.000000 88323.dat
1 0 60.001420 -114.970800 -204.999900 0.000000 0.000000 1.000004 0.000000 1.000005 0.000000 -0.999999 0.000000 0.000000 88323.dat
1 0 25.997140 -114.970800 -203.992800 0.000000 0.000000 1.000014 0.000000 1.000005 0.000000 -1.000009 0.000000 0.000000 88323.dat
1 0 -8.003230 -114.970800 -203.992800 0.000000 0.000000 1.000014 0.000000 1.000005 0.000000 -1.000009 0.000000 0.000000 88323.dat
1 0 -40.999080 -115.363900 -203.999900 0.000000 0.000000 1.000004 0.000000 1.000005 0.000000 -0.999999 0.000000 0.000000 88323.dat
1 0 -75.998000 -114.999800 -204.875100 0.000000 0.000000 1.000010 0.000000 1.000005 0.000000 -1.000005 0.000000 0.000000 88323.dat
1 0 -110.002300 -114.999800 -204.868000 0.000000 0.000000 1.000021 0.000000 1.000005 0.000000 -1.000016 0.000000 0.000000 88323.dat
1 0 -145.002600 -114.999800 -204.868000 0.000000 0.000000 1.000021 0.000000 1.000005 0.000000 -1.000016 0.000000 0.000000 88323.dat
1 0 -181.645300 -116.900900 -203.868000 0.000000 0.173649 0.984828 0.000000 0.984813 -0.173652 -1.000016 0.000000 0.000000 88323.dat
1 0 -208.586900 -110.860400 -203.999900 0.000000 0.642790 0.766048 0.000000 0.766049 -0.642790 -0.999999 0.000000 0.000000 88323.dat
1 0 -228.187300 -90.437360 -204.999900 0.000000 0.965929 0.258822 0.000000 0.258822 -0.965930 -0.999999 0.000000 0.000000 88323.dat
1 0 -234.385100 -59.697200 -204.160000 0.000000 0.906313 -0.422617 0.000000 -0.422618 -0.906314 -0.999999 0.000000 0.000000 88323.dat
1 0 -222.647900 -31.520220 -206.160000 0.000000 0.495465 -0.868633 0.000001 -0.868634 -0.495465 -0.999999 0.000000 0.000000 88323.dat
1 0 -194.735700 -16.374410 -206.160000 0.000000 0.040139 -0.999198 0.000000 -0.999199 -0.040139 -0.999999 0.000000 0.000000 88323.dat
1 0 -163.000500 -15.546120 -205.160000 0.000000 0.040139 -0.999198 0.000000 -0.999199 -0.040139 -0.999999 0.000000 0.000000 88323.dat
1 0 -132.000400 -15.546120 -205.160000 0.000000 0.040139 -0.999198 0.000000 -0.999199 -0.040139 -0.999999 0.000000 0.000000 88323.dat
1 0 -102.000200 -15.546120 -205.160000 0.000000 0.040139 -0.999198 0.000000 -0.999199 -0.040139 -0.999999 0.000000 0.000000 88323.dat
1 0 -72.000110 -15.546120 -205.160000 0.000000 0.040139 -0.999198 0.000000 -0.999199 -0.040139 -0.999999 0.000000 0.000000 88323.dat
1 0 -41.000000 -15.546120 -205.160000 0.000000 0.040139 -0.999198 0.000000 -0.999199 -0.040139 -0.999999 0.000000 0.000000 88323.dat
1 0 -10.999880 -15.546120 -205.160000 0.000000 0.040139 -0.999198 0.000000 -0.999199 -0.040139 -0.999999 0.000000 0.000000 88323.dat
1 0 19.000240 -15.546120 -205.160000 0.000000 0.040139 -0.999198 0.000000 -0.999199 -0.040139 -0.999999 0.000000 0.000000 88323.dat
1 0 50.000360 -15.546120 -205.160000 0.000000 0.040139 -0.999198 0.000000 -0.999199 -0.040139 -0.999999 0.000000 0.000000 88323.dat
1 0 81.000490 -15.546120 -205.160000 0.000000 0.040139 -0.999198 0.000000 -0.999199 -0.040139 -0.999999 0.000000 0.000000 88323.dat
1 0 111.555400 -15.476170 -205.160000 0.000000 -0.540234 -0.841519 0.000000 -0.841520 0.540235 -0.999999 0.000000 0.000000 88323.dat
1 0 138.484900 -30.003040 -204.160000 0.000000 -0.888616 -0.458661 0.000000 -0.458661 0.888617 -0.999999 0.000000 0.000000 88323.dat
1 0 153.361800 -56.285450 -204.160000 0.000000 -0.990989 0.133975 0.000001 0.133976 0.990990 -0.999999 0.000000 0.000000 88323.dat
1 0 147.070700 -86.780910 -203.160000 0.000000 -0.841521 0.540232 0.000000 0.540233 0.841522 -0.999999 0.000000 0.000000 88323.dat
1 0 128.000700 -112.204300 -204.160000 0.000000 0.000000 1.000004 0.000000 1.000005 0.000000 -0.999999 0.000000 0.000000 88323.dat
0 STEP
0 STEP
