0 FILE 犁地机.io
0 Untitled Model
0 Name:  犁地机
0 Author:  
0 CustomBrick
0 NumOfBricks:  86
1 1 62.999700 -60.000040 -136.428800 1.000000 0.000000 0.000000 0.000000 1.000000 0.000000 0.000000 0.000000 1.000000 3895.dat
1 0 2.999690 -50.000040 -126.428800 0.000000 -1.000000 0.000000 0.000000 0.000000 -1.000000 1.000000 0.000000 0.000000 2780.dat
1 0 -17.000310 -50.000040 -126.428800 0.000000 -1.000000 0.000000 0.000000 0.000000 -1.000000 1.000000 0.000000 0.000000 2780.dat
0 STEP
1 1 -17.000310 -110.000100 -116.428900 1.000000 -0.000001 -0.000001 0.000001 0.000001 1.000000 -0.000001 -1.000000 0.000001 32140.dat
0 STEP
1 71 -37.000250 -50.000040 -116.428800 1.000000 0.000000 0.000001 0.000000 1.000000 0.000000 -0.000001 0.000000 1.000000 3713.dat
1 71 -37.000310 -50.000040 -116.428800 0.000000 0.000000 1.000000 0.000000 1.000000 0.000000 -1.000000 0.000000 0.000000 32073.dat
0 STEP
1 0 -37.000250 -50.000050 -166.685500 0.000000 1.000000 0.000000 -1.000000 0.000000 -0.000001 -0.000001 0.000000 1.000000 30391.dat
1 71 -37.000310 -50.000040 -166.428800 1.000000 0.000000 0.000000 0.000000 1.000000 0.000000 0.000000 0.000000 1.000000 55982.dat
0 STEP
1 15 -117.000300 -50.000110 -96.428710 0.000001 0.000001 -1.000000 -1.000000 0.000001 -0.000001 0.000001 1.000000 0.000001 40490.dat
0 STEP
1 71 -37.000310 -50.000040 -36.428760 0.000000 -1.000000 0.000000 0.000000 0.000000 1.000000 -1.000000 0.000000 0.000000 4519.dat
1 71 -37.000310 -50.002900 -66.428760 1.000000 0.000000 0.000001 0.000000 1.000000 0.000000 -0.000001 0.000000 1.000000 59443.dat
0 STEP
1 1 62.999700 -60.000040 -36.428760 1.000000 0.000000 0.000000 0.000000 1.000000 0.000000 0.000000 0.000000 1.000000 3895.dat
0 STEP
1 1 -17.000310 -110.000100 -56.428880 1.000000 -0.000001 -0.000001 0.000001 0.000001 1.000000 -0.000001 -1.000000 0.000001 32140.dat
1 0 -17.000310 -50.000040 -46.428880 0.000000 0.000000 -1.000000 0.000000 1.000000 0.000000 1.000000 0.000000 0.000000 2780.dat
1 0 3.000240 -49.999850 -46.428150 0.000000 0.000000 -1.000000 0.000000 1.000000 0.000000 1.000000 0.000000 0.000000 2780.dat
0 STEP
1 0 -36.999950 -50.000030 -6.171980 0.000000 -1.000000 0.000000 -1.000000 0.000000 -0.000001 0.000001 0.000000 -1.000000 30391.dat
1 71 -37.000310 -50.000040 -6.428760 -1.000002 0.000000 0.000000 0.000000 1.000002 0.000000 0.000000 0.000000 -1.000000 55982.dat
0 STEP
1 1 162.999800 -36.000050 -86.428760 0.000000 0.000000 1.000000 0.000000 1.000000 0.000000 -1.000000 0.000000 0.000000 32001.dat
1 1 42.999690 -36.000050 -86.428760 0.000000 0.000000 1.000000 0.000000 1.000000 0.000000 -1.000000 0.000000 0.000000 32001.dat
0 STEP
1 1 162.999800 -68.000040 -86.428760 0.000000 0.000000 1.000000 0.000000 1.000000 0.000000 -1.000000 0.000000 0.000000 32001.dat
1 1 42.999620 -68.000040 -86.428880 0.000000 0.000000 1.000000 0.000000 1.000000 0.000000 -1.000000 0.000000 0.000000 32001.dat
0 STEP
1 16 83.000000 -68.000060 -124.000000 1.000000 0.000000 0.000000 0.000000 1.000000 0.000000 0.000000 0.000000 1.000000 submodel group 4
0 STEP
1 16 83.000200 -68.000060 -48.856920 1.000000 0.000000 0.000000 0.000000 1.000000 0.000000 0.000000 0.000000 1.000000 submodel group 3
0 STEP
1 1 -197.000300 -30.000590 -56.428940 0.000000 1.000000 0.000000 1.000000 0.000000 0.000000 0.000000 0.000000 -1.000000 6558.dat
1 4 -197.000300 -50.000580 -56.428880 0.000000 1.000001 0.000000 -1.000001 0.000000 0.000000 0.000000 0.000000 1.000000 32034.dat
1 71 -197.000200 -50.000160 -96.428710 0.000000 0.000000 -1.000000 0.000000 1.000000 0.000000 1.000000 0.000000 0.000000 4519.dat
0 STEP
1 1 -197.000200 -30.000160 -136.428800 0.000000 1.000000 0.000000 1.000000 0.000000 0.000000 0.000000 0.000000 -1.000000 6558.dat
1 4 -197.000200 -50.000150 -136.428800 0.000000 1.000000 0.000000 -1.000000 0.000000 0.000000 0.000000 0.000000 1.000000 32034.dat
0 STEP
1 16 -197.000200 0.000000 -96.428760 1.000000 0.000000 0.000000 0.000000 1.000000 0.000000 0.000000 0.000000 1.000000 submodel group 2
0 STEP
1 0 162.999800 -50.000040 -86.058890 0.000000 0.000000 1.000000 0.000000 1.000000 0.000000 -1.000000 0.000000 0.000000 3707.dat
1 0 163.001500 -49.999980 -166.314400 0.000000 -0.999998 0.000000 0.999998 0.000000 0.000001 -0.000001 0.000000 1.000000 30391.dat
1 71 162.999800 -50.000040 -166.058900 -1.000000 0.000000 0.000000 0.000000 -1.000000 0.000000 0.000000 0.000000 1.000000 55982.dat
0 STEP
1 0 162.999800 -50.000040 -5.801680 -1.000000 0.000000 -0.000001 0.000000 1.000000 0.000000 0.000001 0.000000 -1.000000 30391.dat
1 71 162.999800 -50.000040 -6.058760 0.000000 1.000000 0.000000 1.000000 0.000000 0.000000 0.000000 0.000000 -1.000000 55982.dat
0 STEP
1 1 22.999630 -100.000100 -86.428880 0.000000 0.000000 1.000000 0.000000 1.000000 0.000000 -1.000000 0.000000 0.000000 3709b.dat
1 1 142.999700 -100.000100 -86.428880 0.000000 0.000000 1.000000 0.000000 1.000000 0.000000 -1.000000 0.000000 0.000000 3709b.dat
0 STEP
1 1 82.999690 -108.000100 -106.428900 1.000000 0.000000 0.000000 0.000000 1.000000 0.000000 0.000000 0.000000 1.000000 3738.dat
1 1 82.999690 -108.000100 -66.428880 1.000000 0.000000 0.000000 0.000000 1.000000 0.000000 0.000000 0.000000 1.000000 3738.dat
0 STEP
1 0 -17.000190 -110.000000 -86.408860 0.000000 0.000000 1.000000 0.000000 1.000000 0.000000 -1.000000 0.000000 0.000000 3706.dat
0 STEP
1 4 -17.000190 -130.000000 -36.428820 0.000000 -1.000000 -0.000001 0.000000 0.000001 -1.000000 1.000000 0.000000 0.000000 32039.dat
1 4 -17.000310 -130.000000 -136.408900 0.000000 -1.000000 -0.000001 0.000000 0.000001 -1.000000 1.000000 0.000000 0.000000 32039.dat
0 STEP
1 19 142.999700 -113.790100 -66.428880 -0.000001 -0.000001 -1.000000 -1.000000 -0.000001 0.000001 -0.000001 1.000000 -0.000001 3749.dat
1 19 142.999800 -113.940100 -106.428900 -0.000001 -0.000001 -1.000000 -1.000000 -0.000001 0.000001 -0.000001 1.000000 -0.000001 3749.dat
0 STEP
1 19 142.999800 -143.940100 -116.428800 -0.000001 1.000000 -0.000001 0.000001 0.000001 1.000000 1.000000 0.000001 -0.000001 3749.dat
1 4 142.999800 -123.940100 -106.428900 0.000000 -1.000000 -0.000001 0.000000 -0.000001 1.000000 -1.000000 0.000000 0.000000 32039.dat
0 STEP
1 19 142.999700 -143.790100 -56.428880 -0.000001 1.000000 -0.000001 -0.000001 -0.000001 -1.000000 -1.000000 -0.000001 0.000001 3749.dat
1 4 142.999700 -123.790100 -66.428880 0.000000 -1.000000 -0.000001 0.000000 -0.000001 1.000000 -1.000000 0.000000 0.000000 32039.dat
0 STEP
1 71 22.999630 -110.950100 -66.428880 0.000000 -1.000000 0.000000 1.000000 0.000000 0.000000 0.000000 0.000000 1.000000 3673.dat
1 71 22.999630 -111.580100 -106.428900 0.000000 -1.000000 0.000000 1.000000 0.000000 0.000000 0.000000 0.000000 1.000000 3673.dat
0 STEP
1 15 22.999630 -121.580000 -86.428880 1.000000 -0.000001 0.000001 0.000001 1.000000 0.000001 -0.000001 -0.000001 1.000000 32316.dat
0 STEP
1 4 22.999690 -141.580100 -126.428900 -0.000001 -0.000001 -1.000000 1.000000 0.000001 -0.000001 0.000001 -1.000000 0.000001 32054.dat
1 4 22.999750 -141.580000 -46.428940 -0.000001 -0.000001 -1.000000 1.000000 0.000001 -0.000001 0.000001 -1.000000 0.000001 32054.dat
0 STEP
1 0 -17.000190 -160.000100 -36.428820 0.000000 -1.000000 0.000000 1.000000 0.000000 0.000000 0.000000 0.000000 1.000000 3705.dat
1 0 -17.000310 -160.000100 -136.408800 0.000000 -1.000000 0.000000 1.000000 0.000000 0.000000 0.000000 0.000000 1.000000 3705.dat
0 STEP
1 71 -17.000190 -150.000200 -36.428880 1.000000 0.000000 0.000001 -0.000001 0.000000 1.000003 0.000000 -1.000000 0.000000 3713.dat
1 71 -17.000310 -150.000300 -136.409300 1.000000 0.000000 0.000001 -0.000001 0.000000 1.000003 0.000000 -1.000001 0.000000 3713.dat
0 STEP
1 71 -17.000130 -170.000300 -36.428880 1.000000 0.000000 0.000001 -0.000001 0.000000 1.000003 0.000000 -1.000000 0.000000 3713.dat
1 71 -17.000250 -170.000200 -136.409400 1.000000 0.000000 0.000001 -0.000001 0.000000 1.000003 0.000000 -1.000001 0.000000 3713.dat
0 STEP
1 71 -17.000190 -190.000100 -36.428880 1.000000 0.000000 0.000001 -0.000001 0.000000 1.000000 0.000000 -1.000000 0.000000 3713.dat
1 71 -17.000310 -190.000100 -136.408800 1.000000 0.000000 0.000001 -0.000001 0.000000 1.000000 0.000000 -1.000000 0.000000 3713.dat
0 STEP
1 16 23.178240 -151.580100 -86.405960 0.965926 0.258820 0.000000 -0.258820 0.965926 0.000001 0.000000 -0.000001 1.000000 submodel group 1
0 STEP
1 15 102.464300 -188.176700 -126.428800 0.737277 0.000001 -0.675591 -0.675591 0.000001 -0.737277 0.000000 1.000000 0.000001 32524.dat
0 STEP
1 15 102.464200 -188.026600 -46.428820 0.737277 0.000001 -0.675591 -0.675591 0.000001 -0.737277 0.000000 1.000000 0.000001 32524.dat
0 STEP
0 STEP
0 NOFILE
0 FILE SubModel Group 4
0 SubModel Group 4
0 Name:  SubModel Group 4
0 Author:  
0 CustomBrick
0 NumOfBricks:  7
1 1 -0.000310 -24.000000 -12.428940 1.000000 0.000000 0.000000 0.000000 1.000000 0.000000 0.000000 0.000000 1.000000 3702.dat
1 0 -19.999400 -14.000010 -2.428390 0.000000 0.000000 -1.000000 0.000000 1.000000 0.000000 1.000000 0.000000 0.000000 2780.dat
1 0 -60.000440 -14.000000 -2.428940 0.000000 0.000000 -1.000001 0.000000 1.000000 0.000000 1.000001 0.000000 0.000000 2780.dat
0 STEP
1 0 60.001220 -14.000010 -2.427050 0.000000 0.000000 -1.000000 0.000000 1.000000 0.000000 1.000000 0.000000 0.000000 2780.dat
1 0 19.999630 -14.000010 -2.428940 0.000000 0.000000 -1.000004 0.000000 1.000000 0.000000 1.000004 0.000000 0.000000 2780.dat
0 STEP
1 1 39.999690 -24.000010 7.571120 1.000000 0.000000 0.000000 0.000000 1.000000 0.000000 0.000000 0.000000 1.000000 3701.dat
1 1 -40.000380 -24.000010 7.571120 1.000000 0.000000 0.000000 0.000000 1.000000 0.000000 0.000000 0.000000 1.000000 3701.dat
0 STEP
0 NOFILE
0 FILE SubModel Group 3
0 SubModel Group 3
0 Name:  SubModel Group 3
0 Author:  
0 CustomBrick
0 NumOfBricks:  7
1 1 -0.000390 -24.000000 12.428340 1.000000 0.000000 0.000000 0.000000 1.000000 0.000000 0.000000 0.000000 1.000000 3702.dat
1 0 19.999480 -14.000010 2.428220 0.000000 0.000000 -1.000003 0.000000 1.000000 0.000000 1.000003 0.000000 0.000000 2780.dat
1 0 60.000840 -14.000010 2.429690 0.000000 0.000000 -1.000000 0.000000 1.000000 0.000000 1.000000 0.000000 0.000000 2780.dat
0 STEP
1 0 -60.000460 -14.000000 2.428220 0.000000 0.000000 -1.000002 0.000000 1.000000 0.000000 1.000002 0.000000 0.000000 2780.dat
1 0 -19.998500 -14.000010 2.429200 0.000000 0.000000 -1.000000 0.000000 1.000000 0.000000 1.000000 0.000000 0.000000 2780.dat
0 STEP
1 1 -40.000460 -24.000010 -7.571840 1.000000 0.000000 0.000000 0.000000 1.000000 0.000000 0.000000 0.000000 1.000000 3701.dat
1 1 39.999480 -24.000010 -7.571840 1.000000 0.000000 0.000000 0.000000 1.000000 0.000000 0.000000 0.000000 1.000000 3701.dat
0 STEP
0 NOFILE
0 FILE SubModel Group 2
0 SubModel Group 2
0 Name:  SubModel Group 2
0 Author:  
0 CustomBrick
0 NumOfBricks:  6
1 15 0.000000 -30.000120 0.000000 1.000000 -0.000001 0.000001 0.000001 1.000000 0.000001 -0.000001 -0.000001 1.000000 64871.dat
1 0 0.000000 -20.000120 0.000000 0.000000 -1.000000 0.000000 -1.000000 0.000000 0.000000 0.000000 0.000000 -1.000000 2780.dat
0 STEP
1 0 -0.000180 -20.000250 -140.000000 0.000000 -1.000000 0.000000 -1.000000 0.000000 0.000000 0.000000 0.000000 -1.000000 2780.dat
1 0 -0.000060 -20.000210 -100.000000 0.000000 -1.000000 0.000000 -1.000000 0.000000 0.000000 0.000000 0.000000 -1.000000 2780.dat
0 STEP
1 0 0.000120 -20.000000 140.000000 0.000000 -1.000000 0.000000 -1.000000 0.000000 0.000000 0.000000 0.000000 -1.000000 2780.dat
1 0 0.000120 -20.000030 100.000000 0.000000 -1.000000 0.000000 -1.000000 0.000000 0.000000 0.000000 0.000000 -1.000000 2780.dat
0 STEP
0 NOFILE
0 FILE SubModel Group 1
0 SubModel Group 1
0 Name:  SubModel Group 1
0 Author:  
0 CustomBrick
0 NumOfBricks:  7
1 71 18.357530 -67.351360 -20.022710 -0.017453 0.000001 0.999848 -0.999848 0.000000 -0.017452 0.000000 -1.000000 0.000001 33299.dat
0 STEP
1 71 18.357490 -67.351450 0.137260 0.000001 0.017452 0.999848 0.000001 0.999848 -0.017452 -1.000000 0.000001 0.000001 32073.dat
1 0 17.944980 -67.661040 -40.022960 0.000002 -0.965926 0.258818 0.000002 -0.258818 -0.965926 1.000000 0.000002 0.000001 32013.dat
0 STEP
1 71 18.312520 -67.904560 19.977170 0.000000 0.000001 1.000000 1.000000 0.000000 0.000000 0.000000 1.000000 -0.000001 33299.dat
1 0 17.945030 -67.661000 39.977050 0.000002 -0.965926 0.258818 0.000002 -0.258818 -0.965926 1.000000 0.000002 0.000001 32013.dat
0 STEP
1 71 7.592250 -29.023990 -40.022990 -0.258820 0.000000 -0.965926 0.965926 0.000001 -0.258820 0.000001 -1.000000 -0.000001 4519.dat
1 71 7.592300 -29.023960 39.976950 -0.258820 0.000000 -0.965926 0.965926 0.000001 -0.258820 0.000001 -1.000000 -0.000001 4519.dat
0 STEP
0 NOFILE
