0 Untitled Model
0 Name:  打鼓机
0 Author:  
0 CustomBrick
0 NumOfBricks:  44
1 1 20.000000 -32.000040 30.000350 0.999999 0.000000 0.000000 0.000000 1.000001 0.000000 0.000000 0.000000 1.000000 3703.dat
1 1 -120.000000 -7.999990 -19.999980 0.000000 0.000000 1.000000 0.000000 1.000001 0.000000 -1.000001 0.000000 0.000000 32001.dat
1 1 20.000000 -32.000040 -70.000130 1.000000 0.000000 0.000000 0.000000 1.000001 0.000000 0.000000 0.000000 1.000001 3703.dat
1 1 159.999800 -8.000040 -20.000050 0.000001 0.000000 1.000000 0.000000 1.000001 0.000000 -1.000001 0.000000 0.000001 32001.dat
0 STEP
1 1 -20.000000 -56.000050 30.000040 1.000000 0.000000 0.000000 0.000000 1.000001 0.000000 0.000000 0.000000 1.000001 3895.dat
1 1 -20.000000 -56.000050 -70.000130 1.000000 0.000000 0.000000 0.000000 1.000001 0.000000 0.000000 0.000000 1.000001 3895.dat
1 1 139.999800 -56.000080 30.000040 1.000000 0.000000 0.000000 0.000000 1.000001 0.000000 0.000000 0.000000 1.000001 3701.dat
1 1 139.999800 -56.000080 -70.000010 1.000000 0.000000 0.000000 0.000000 1.000001 0.000000 0.000000 0.000000 1.000001 3701.dat
0 STEP
1 0 10.000000 -271.166700 -18.030440 0.000000 -0.499998 0.866027 0.000000 0.866028 0.499998 -1.000001 0.000000 0.000000 3705.dat
1 15 -49.999970 -167.243600 9.999909 -0.866026 0.000001 -0.500000 -0.500001 -0.000001 0.866026 0.000000 1.000001 0.000001 64871.dat
1 71 -120.000200 -46.000020 -8.840000 1.000000 0.000000 0.000001 0.000000 1.000001 0.000000 -0.000001 0.000000 1.000001 3713.dat
1 71 -120.000000 -46.000020 -28.879990 1.000000 0.000000 0.000001 0.000000 1.000001 0.000000 -0.000001 0.000000 1.000001 3713.dat
1 0 -120.000000 -46.000020 -19.999980 0.000000 0.000000 1.000000 0.000000 1.000001 0.000000 -1.000001 0.000000 0.000000 3706.dat
1 19 0.000120 -253.846200 1.229580 0.000000 -0.499998 0.866027 0.000000 0.866027 0.499998 -1.000001 0.000000 0.000000 3749.dat
1 72 10.000000 -271.166700 -5.470430 -0.866027 -0.499998 0.000000 -0.499998 0.866028 -0.000001 0.000000 -0.000001 -1.000001 6575.dat
1 72 10.000000 -271.166700 -33.030390 0.866027 -0.499998 0.000000 0.499998 0.866028 -0.000001 0.000000 0.000001 1.000001 6575.dat
1 19 0.000060 -253.846200 -38.030390 0.000000 -0.499998 -0.866027 0.000000 0.866028 -0.499998 1.000001 0.000000 0.000000 3749.dat
1 15 -49.999970 -167.243600 -48.880180 -0.866026 0.000001 -0.500000 -0.500001 -0.000001 0.866026 0.000000 1.000001 0.000001 64871.dat
0 STEP
1 71 120.000000 -46.000110 -49.520190 0.996195 0.087157 0.000000 -0.087157 0.996196 0.000000 0.000000 0.000000 1.000002 3713.dat
1 4 118.256700 -65.923980 -21.320240 -0.000001 -0.996195 -0.087158 0.000000 0.087158 -0.996196 1.000002 -0.000001 0.000000 32039.dat
1 14 120.000000 -46.000140 -4.660130 -0.087157 0.996195 -0.000001 -0.996196 -0.087157 0.000000 0.000000 0.000001 1.000002 32123a.dat
1 71 120.000000 -46.000140 10.269870 0.996195 0.087157 0.000000 -0.087157 0.996196 0.000000 0.000000 0.000000 1.000002 3713.dat
1 14 120.000000 -46.000110 -34.310180 -0.087157 0.996195 -0.000001 -0.996196 -0.087157 0.000000 0.000000 0.000001 1.000002 32123a.dat
1 0 119.999900 -46.000100 -18.020070 0.000000 0.087157 0.996195 0.000000 0.996196 -0.087157 -1.000001 0.000000 0.000000 3706.dat
0 STEP
1 71 -39.999990 -46.000030 -91.090030 1.000000 0.000000 0.000001 0.000000 1.000001 0.000000 -0.000001 0.000000 1.000001 3713.dat
1 71 -39.999990 -46.000030 50.690060 1.000000 0.000000 0.000001 0.000000 1.000001 0.000000 -0.000001 0.000000 1.000001 3713.dat
1 0 -40.000060 -46.000030 -19.310100 0.000000 0.000000 1.000000 0.000000 1.000001 0.000000 -1.000001 0.000000 0.000000 3707.dat
0 STEP
1 0 -80.000000 -46.000030 -80.000200 0.000000 0.000000 -1.000000 0.000000 1.000001 0.000000 1.000001 0.000000 0.000000 2780.dat
1 0 -80.000000 -46.000030 40.000120 0.000000 0.000000 -1.000000 0.000000 1.000001 0.000000 1.000000 0.000000 0.000000 2780.dat
1 4 -79.999940 -46.000030 50.000180 0.000000 0.000000 -1.000000 0.000000 -1.000001 0.000000 -1.000000 0.000000 0.000000 32034.dat
1 4 -79.999940 -46.000030 -90.000130 0.000000 0.000000 -1.000000 0.000000 -1.000001 0.000000 -1.000000 0.000000 0.000000 32034.dat
0 STEP
1 0 159.999800 -46.000080 40.000060 0.000000 0.000000 -1.000000 0.000000 1.000001 0.000000 1.000001 0.000000 0.000000 2780.dat
1 0 159.999800 -46.000080 -80.000010 0.000000 0.000000 -1.000000 0.000000 1.000001 0.000000 1.000001 0.000000 0.000000 2780.dat
1 4 159.999800 -46.000080 -90.000010 0.000000 0.000000 -1.000000 0.000000 -1.000001 0.000000 -1.000000 0.000000 0.000000 32034.dat
1 4 159.999800 -46.000080 50.000060 0.000000 0.000000 -1.000000 0.000000 -1.000001 0.000000 -1.000000 0.000000 0.000000 32034.dat
0 STEP
1 19 40.000060 -46.000060 -80.000080 0.000002 -0.766043 -0.642789 0.000001 -0.642789 0.766043 -1.000000 -0.000002 0.000000 3749.dat
1 71 40.000060 -46.000020 44.400080 1.000000 0.000000 0.000000 0.000000 -1.000001 0.000000 0.000000 0.000000 -1.000000 4185.dat
1 71 40.000060 -46.000060 -85.000130 -0.766043 0.642789 -0.000002 -0.642790 -0.766044 -0.000001 -0.000002 0.000001 1.000000 4185.dat
1 19 40.000060 -46.000040 40.000060 -0.000001 1.000000 -0.000001 0.000001 0.000001 1.000001 1.000000 0.000001 -0.000001 3749.dat
0 STEP
1 14 40.000060 -46.000030 56.520080 0.000000 1.000000 0.000000 -1.000001 0.000000 0.000000 0.000000 0.000000 1.000000 32123a.dat
1 14 40.000060 -46.000040 -95.000190 0.642789 0.766043 -0.000002 -0.766044 0.642790 -0.000001 0.000001 0.000002 1.000000 32123a.dat
0 STEP
1 0 107.206800 -192.221600 -21.320240 0.087158 0.996195 0.000000 0.996196 -0.087158 0.000000 0.000000 0.000000 -1.000002 3708.dat
0 STEP
1 0 98.491080 -291.841200 -21.320240 0.996195 0.000000 0.087158 -0.087158 0.000000 0.996196 0.000000 -1.000001 0.000000 44309.dat
1 71 98.491080 -291.841200 -21.320240 0.000000 -0.996195 0.087158 0.000000 0.087158 0.996196 -1.000001 0.000000 0.000000 56145.dat
0 STEP
0 STEP
