0 FILE 机械爪.io
0 Untitled Model
0 Name:  机械爪
0 Author:  
0 CustomBrick
0 NumOfBricks:  70
1 16 -276.463100 -86.321670 68.338240 0.000000 1.000000 0.000000 -1.000000 0.000000 0.000000 0.000000 0.000000 1.000000 submodel group 9 copy copy copy
0 STEP
1 1 -366.463200 -250.000000 38.338440 0.000000 0.000000 -0.999997 0.000000 1.000000 0.000000 0.999997 0.000000 0.000000 6558.dat
1 1 -326.463100 -250.000000 38.338320 0.000000 0.000000 -0.999997 0.000000 1.000000 0.000000 0.999997 0.000000 0.000000 6558.dat
1 15 -266.463100 -249.999900 58.338260 0.000001 0.000001 -1.000000 -1.000000 0.000001 -0.000001 0.000001 1.000000 0.000001 64290.dat
1 15 -346.463200 -250.000000 18.338380 0.000001 0.000001 -0.999997 -1.000000 0.000001 -0.000001 0.000001 0.999997 0.000001 32316.dat
0 STEP
1 0 -386.463200 -260.000000 38.338380 0.000000 0.000000 -0.999997 1.000000 0.000000 0.000000 0.000000 -0.999997 0.000000 2780.dat
1 0 -306.463400 -260.000100 78.338250 0.000000 0.000000 -0.999997 1.000000 0.000000 0.000000 0.000000 -0.999997 0.000000 2780.dat
1 0 -386.463200 -260.000000 78.338240 0.000000 0.000000 -1.000000 1.000000 0.000000 0.000000 0.000000 -1.000000 0.000000 2780.dat
1 0 -306.463400 -260.000100 38.338380 0.000000 0.000000 -0.999997 1.000000 0.000000 0.000000 0.000000 -0.999997 0.000000 2780.dat
0 STEP
1 15 -346.463300 -270.000000 38.338380 0.000001 0.000001 -0.999997 0.000001 1.000000 0.000001 0.999997 -0.000001 0.000001 32524.dat
1 15 -346.463300 -270.000000 78.338190 0.000001 0.000001 -0.999997 0.000001 1.000000 0.000001 0.999997 -0.000001 0.000001 32524.dat
0 STEP
1 1 -186.463500 -249.999800 58.337760 0.000000 0.000000 1.000000 0.000000 1.000000 0.000000 -1.000000 0.000000 0.000000 6558.dat
1 1 -166.463500 -249.999800 58.337640 0.000000 0.000000 1.000000 0.000000 1.000000 0.000000 -1.000000 0.000000 0.000000 6558.dat
0 STEP
1 1 -46.463360 -259.999800 38.337520 1.000000 0.000000 0.000000 0.000000 1.000000 0.000000 0.000000 0.000000 1.000000 3703.dat
1 1 -46.463300 -259.999900 78.337510 1.000000 0.000000 0.000000 0.000000 1.000000 0.000000 0.000000 0.000000 1.000000 3703.dat
0 STEP
1 0 -146.463400 -249.999900 88.337520 0.000000 0.000000 -1.000000 0.000000 1.000000 0.000000 1.000000 0.000000 0.000000 2780.dat
1 0 -106.463500 -249.999900 88.337520 0.000000 0.000000 -1.000000 0.000000 1.000000 0.000000 1.000000 0.000000 0.000000 2780.dat
0 STEP
1 15 -125.000000 -248.931800 61.000000 1.000000 0.000000 0.000000 0.000000 1.000000 0.000000 0.000000 0.000000 1.000000 xpj0118.dat.dat
1 71 -126.463400 -249.999800 17.427620 1.000000 0.000000 0.000001 0.000000 1.000000 0.000000 -0.000001 0.000000 1.000000 3713.dat
1 14 -126.463300 -249.999800 62.207740 1.000000 0.000000 0.000000 0.000000 1.000000 0.000000 0.000000 0.000000 1.000000 32123a.dat
1 71 -126.463300 -249.999800 57.467780 0.000000 0.000000 1.000000 0.000000 1.000000 0.000000 -1.000000 0.000000 0.000000 32073.dat
1 71 -126.463200 -249.999900 88.337520 1.000000 0.000000 0.000000 0.000000 1.000000 0.000000 0.000000 0.000000 1.000000 58120.dat
0 STEP
1 19 93.536750 -249.999800 68.337460 0.000001 -1.000000 0.000001 0.000001 0.000001 1.000000 -1.000000 -0.000001 0.000001 3749.dat
1 71 93.536750 -249.999800 58.337760 1.000000 0.000000 0.000001 0.000000 1.000000 0.000000 -0.000001 0.000000 1.000000 3713.dat
0 STEP
1 0 73.536670 -249.999800 28.337620 0.000000 0.000000 -1.000000 0.000000 1.000000 0.000000 1.000000 0.000000 0.000000 2780.dat
1 0 33.536620 -249.999800 28.337620 0.000000 0.000000 -1.000000 0.000000 1.000000 0.000000 1.000000 0.000000 0.000000 2780.dat
0 STEP
1 1 53.536680 -259.999800 18.337650 1.000000 0.000000 0.000000 0.000000 1.000000 0.000000 0.000000 0.000000 1.000000 3894.dat
1 0 93.536750 -249.999800 8.337570 0.000000 0.000000 -1.000000 0.000000 1.000000 0.000000 1.000000 0.000000 0.000000 2780.dat
1 0 13.536640 -249.999800 8.337570 0.000000 0.000000 -1.000000 0.000000 1.000000 0.000000 1.000000 0.000000 0.000000 2780.dat
0 STEP
1 1 53.536680 -259.999800 -1.662520 1.000000 0.000000 0.000000 0.000000 1.000000 0.000000 0.000000 0.000000 1.000000 3894.dat
0 STEP
1 1 93.536750 -235.999800 -51.672240 0.000000 0.000000 1.000000 0.000000 1.000000 0.000000 -1.000000 0.000000 0.000000 32001.dat
1 1 13.536640 -235.999800 -51.672370 0.000000 0.000000 1.000000 0.000000 1.000000 0.000000 -1.000000 0.000000 0.000000 32001.dat
1 1 53.536820 -227.999800 -11.672380 0.999997 0.000000 0.000000 0.000000 1.000000 0.000000 0.000000 0.000000 0.999997 32001.dat
0 STEP
1 0 53.536750 -249.999800 -11.052390 0.000000 0.000000 1.000000 0.000000 1.000000 0.000000 -1.000000 0.000000 0.000000 3708.dat
1 71 53.536820 -249.999900 99.057720 1.000000 0.000000 0.000001 0.000000 1.000000 0.000000 -0.000001 0.000000 1.000000 3713.dat
1 71 53.536750 -249.999800 63.637680 1.000000 0.000000 0.000000 0.000000 -1.000000 0.000000 0.000000 0.000000 -1.000000 4185.dat
1 71 53.536740 -249.999800 -51.052250 -1.000000 0.000000 0.000000 0.000000 1.000000 0.000000 0.000000 0.000000 -1.000000 4716.dat
1 71 53.536740 -249.999800 -81.052150 1.000000 0.000000 0.000001 0.000000 1.000000 0.000000 -0.000001 0.000000 1.000000 3713.dat
1 71 53.536740 -249.999800 -21.052360 1.000000 0.000000 0.000001 0.000000 1.000000 0.000000 -0.000001 0.000000 1.000000 3713.dat
0 STEP
1 1 53.536750 -259.999800 -101.672100 1.000000 0.000000 0.000000 0.000000 1.000000 0.000000 0.000000 0.000000 1.000000 3894.dat
1 71 53.536750 -249.999800 -121.052000 1.000000 0.000000 0.000001 0.000000 1.000000 0.000000 -0.000001 0.000000 1.000000 3713.dat
0 STEP
1 72 93.536670 -251.139800 -52.672360 1.000000 0.000000 0.000000 0.000000 0.000000 1.000000 0.000000 -1.000000 0.000000 3648b.dat
1 72 13.536640 -249.879800 -51.672370 1.000000 0.000000 0.000000 0.000000 0.000000 1.000000 0.000000 -1.000000 0.000000 3648b.dat
1 71 93.536670 -251.439900 -51.672360 0.000000 0.000000 1.000000 1.000000 0.000000 0.000000 0.000000 1.000000 0.000000 32073.dat
1 71 13.536640 -252.759800 -51.672370 0.000000 -1.000000 0.000000 -1.000000 0.000000 0.000000 0.000000 0.000000 -1.000000 32073.dat
0 STEP
1 1 13.536640 -267.999800 -51.672370 0.000000 0.000000 1.000000 0.000000 1.000000 0.000000 -1.000000 0.000000 0.000000 32001.dat
1 1 93.536670 -267.999800 -51.672360 0.000000 0.000000 1.000000 0.000000 1.000000 0.000000 -1.000000 0.000000 0.000000 32001.dat
0 STEP
1 1 53.536820 -275.999800 -91.672370 0.999997 0.000000 0.000000 0.000000 1.000000 0.000000 0.000000 0.000000 0.999997 32001.dat
1 1 53.536820 -275.999800 -11.672380 0.999997 0.000000 0.000000 0.000000 1.000000 0.000000 0.000000 0.000000 0.999997 32001.dat
0 STEP
1 15 23.536850 -299.999800 -1.672530 0.000000 0.000000 0.999997 0.000000 1.000000 0.000000 -0.999997 0.000000 0.000000 3040b.dat
1 15 43.536840 -299.999800 -1.672410 0.999997 0.000000 0.000000 0.000000 1.000000 0.000000 0.000000 0.000000 0.999997 3040b.dat
1 1 53.536750 -307.999800 -1.672530 0.999997 0.000000 0.000000 0.000000 1.000000 0.000000 0.000000 0.000000 0.999997 3710.dat
1 15 63.536780 -299.999800 -1.672410 0.999997 0.000000 0.000000 0.000000 1.000000 0.000000 0.000000 0.000000 0.999997 3040b.dat
1 15 83.536670 -299.999800 -1.672530 0.000000 0.000000 -0.999997 0.000000 1.000000 0.000000 0.999997 0.000000 0.000000 3040b.dat
0 STEP
1 1 253.537000 -280.339900 -51.672360 0.000000 0.000000 1.000000 0.000000 1.000000 0.000000 -1.000000 0.000000 0.000000 32009.dat
1 1 253.537000 -217.439900 -51.672240 0.000000 0.000000 1.000000 0.000000 1.000000 0.000000 -1.000000 0.000000 0.000000 32009.dat
1 1 -146.463500 -280.989800 -51.672250 0.000000 0.000000 -1.000000 0.000000 -1.000000 0.000000 -1.000000 0.000000 0.000000 32009.dat
1 1 -146.462500 -216.959900 -54.672230 0.000000 0.000000 -0.999997 0.000000 -1.000000 0.000000 -0.999997 0.000000 0.000000 32009.dat
0 STEP
1 0 253.537000 -290.339900 -111.672400 0.000000 0.000000 -0.999997 1.000000 0.000000 0.000000 0.000000 -0.999997 0.000000 2780.dat
1 0 -146.463600 -290.989700 -111.672300 0.000000 0.000000 -0.999997 1.000000 0.000000 0.000000 0.000000 -0.999997 0.000000 2780.dat
1 0 -146.462500 -206.959900 -114.672000 0.000000 0.000000 -0.999997 1.000000 0.000000 0.000000 0.000000 -0.999997 0.000000 2780.dat
1 0 253.537000 -207.439900 -111.672300 0.000000 0.000000 -0.999997 1.000000 0.000000 0.000000 0.000000 -0.999997 0.000000 2780.dat
1 4 -146.463600 -300.989800 -111.672300 0.000000 0.000000 -0.999997 -1.000000 0.000000 0.000000 0.000000 0.999997 0.000000 32034.dat
1 4 253.537000 -197.439900 -111.672300 0.000000 0.000000 -0.999997 -1.000000 0.000000 0.000000 0.000000 0.999997 0.000000 32034.dat
1 4 253.537000 -300.339900 -111.672400 0.000000 0.000000 -0.999997 -1.000000 0.000000 0.000000 0.000000 0.999997 0.000000 32034.dat
1 4 -146.462500 -196.959900 -114.672000 0.000000 0.000000 -0.999997 -1.000000 0.000000 0.000000 0.000000 0.999997 0.000000 32034.dat
0 STEP
1 19 53.536750 -299.999800 -91.672470 -0.000001 0.999997 -0.000001 1.000000 0.000001 -0.000001 -0.000001 -0.000001 -0.999997 3749.dat
1 15 53.536820 -299.999800 -91.672370 0.999997 0.000000 0.000000 0.000000 1.000000 0.000000 0.000000 0.000000 0.999997 3941.dat
0 STEP
0 STEP
0 NOFILE
0 FILE SubModel Group 9 Copy Copy Copy
0 SubModel Group 9 Copy Copy Copy
0 Name:  SubModel Group 9 Copy Copy Copy
0 Author:  
0 CustomBrick
0 NumOfBricks:  3
1 72 10.000000 -1.128810 -10.000000 1.000000 0.000000 0.000000 0.000000 0.000000 -1.000000 0.000000 1.000000 0.000000 dch003.dat
1 71 -27.466620 -79.717990 29.427020 1.000000 0.000000 0.000000 0.000000 0.000000 -1.000000 0.000000 1.000000 0.000000 dch004.dat
1 25 7.837010 13.484720 -9.965000 1.000000 0.000000 0.000000 0.000000 0.000000 -1.000000 0.000000 1.000000 0.000000 dch005.dat
0 NOFILE
