0 Untitled Model
0 Name:  同等齿轮
0 Author:  
0 CustomBrick
0 NumOfBricks:  20
1 15 5.000170 -9.000190 -12.780220 0.000001 0.000001 -1.000000 -1.000000 0.000001 -0.000001 0.000001 1.000000 0.000001 64871.dat
1 1 125.000100 -9.000080 7.219790 0.000000 0.000000 -1.000002 0.000000 1.000000 0.000000 1.000002 0.000000 0.000000 6558.dat
1 1 145.000500 -9.000080 7.218520 0.000000 0.000000 -1.000000 0.000000 1.000000 0.000000 1.000000 0.000000 0.000000 6558.dat
1 1 -135.000100 -9.000319 7.220700 0.000000 0.000000 -1.000001 0.000000 1.000000 0.000000 1.000001 0.000000 0.000000 6558.dat
1 1 -115.000000 -9.000319 7.219900 0.000000 0.000000 -1.000000 0.000000 1.000000 0.000000 1.000000 0.000000 0.000000 6558.dat
0 STEP
1 1 -135.000100 -69.000270 7.220580 1.000000 -0.000001 -0.000001 0.000001 0.000001 1.000000 -0.000001 -1.000000 0.000001 32140.dat
1 1 145.000000 -69.000060 7.219800 -1.000000 0.000001 0.000001 0.000001 0.000001 1.000000 0.000001 1.000000 -0.000001 32140.dat
0 STEP
1 15 5.000050 -9.000180 27.219810 0.000001 0.000001 -1.000000 -1.000000 0.000001 -0.000001 0.000001 1.000000 0.000001 64871.dat
0 STEP
1 15 5.000180 -69.000220 -12.779970 0.000001 0.000001 -1.000000 -1.000000 0.000001 -0.000001 0.000001 1.000000 0.000001 64871.dat
1 19 145.000000 -69.000070 -2.780090 -0.000001 1.000000 -0.000001 0.000001 0.000001 1.000000 1.000000 0.000001 -0.000001 3749.dat
1 19 -135.000100 -69.000300 -2.779430 -0.000001 1.000000 -0.000001 0.000001 0.000001 1.000000 1.000000 0.000001 -0.000001 3749.dat
0 STEP
1 19 65.000170 -69.000160 -2.780100 -0.000001 1.000000 -0.000001 0.000001 0.000001 1.000000 1.000000 0.000001 -0.000001 3749.dat
1 71 65.000170 -69.000160 7.219910 1.000000 0.000000 0.000000 0.000000 1.000000 0.000000 0.000000 0.000000 1.000000 3649.dat
0 STEP
1 0 -34.999950 -69.000340 -22.810000 0.000000 0.000000 1.000000 0.000000 1.000000 0.000000 -1.000000 0.000000 0.000000 3705.dat
1 71 -34.999820 -69.000290 7.409980 0.969872 0.243616 0.000000 -0.243616 0.969872 0.000000 0.000000 0.000000 1.000000 3649.dat
0 STEP
1 19 25.000280 -69.000180 -22.779970 0.000001 -0.993769 0.111466 0.000001 0.111466 0.993769 -1.000000 -0.000001 0.000001 3749.dat
1 72 -34.999950 -69.000340 -31.159980 0.000000 -1.000000 0.000000 1.000000 0.000000 0.000000 0.000000 0.000000 1.000000 3648b.dat
1 72 25.000280 -69.000180 -32.779960 0.993768 -0.111465 0.000000 -0.111465 -0.993769 0.000000 0.000000 0.000000 -1.000000 3648b.dat
0 STEP
1 71 -35.000000 -69.000340 -50.000000 0.000001 -0.000001 -1.000000 1.000000 0.000001 0.000001 0.000001 -1.000000 0.000001 33299.dat
1 4 -75.000000 -69.000270 -79.999950 0.000000 0.000000 1.000000 0.000000 1.000000 0.000000 -1.000000 0.000000 0.000000 62462.dat
0 STEP
0 STEP
