0 Untitled Model
0 Name:  除草机器人
0 Author:  
0 CustomBrick
0 NumOfBricks:  60
1 1 -0.000050 -40.000000 -90.000100 1.000000 0.000000 0.000000 0.000000 1.000000 0.000000 0.000000 0.000000 1.000000 3710.dat
1 1 0.000020 -40.000000 -69.999920 1.000000 0.000000 0.000000 0.000000 1.000000 0.000000 0.000000 0.000000 1.000000 3710.dat
0 STEP
1 1 29.999980 -48.000000 -80.000040 0.000001 0.000000 1.000000 0.000000 1.000000 0.000000 -1.000000 0.000000 0.000001 3023.dat
1 1 -29.999980 -48.000000 -80.000160 0.000001 0.000000 1.000000 0.000000 1.000000 0.000000 -1.000000 0.000000 0.000001 3023.dat
1 15 10.000040 -64.000000 -80.000040 0.000001 0.000000 1.000000 0.000000 1.000000 0.000000 -1.000000 0.000000 0.000001 32064a.dat
1 15 -9.999990 -64.000000 -80.000100 0.000001 0.000000 1.000000 0.000000 1.000000 0.000000 -1.000000 0.000000 0.000001 32064a.dat
0 STEP
1 1 0.000020 -72.000000 -90.000160 1.000000 0.000000 0.000000 0.000000 1.000000 0.000000 0.000000 0.000000 1.000000 3023.dat
1 1 0.000020 -72.000000 -69.999920 1.000000 0.000000 0.000000 0.000000 1.000000 0.000000 0.000000 0.000000 1.000000 3023.dat
0 STEP
1 15 29.999980 -72.000000 -80.000040 0.000001 0.000000 1.000000 0.000000 1.000000 0.000000 -1.000000 0.000000 0.000001 32064a.dat
1 15 -29.999980 -72.000000 -80.000160 0.000001 0.000000 1.000000 0.000000 1.000000 0.000000 -1.000000 0.000000 0.000001 32064a.dat
0 STEP
1 19 -39.999950 -62.000020 -80.000160 1.000000 0.000001 -0.000001 0.000001 0.000001 1.000000 0.000001 -1.000000 0.000001 3749.dat
1 19 39.999990 -62.000020 -80.000040 -1.000000 -0.000001 0.000001 0.000001 0.000001 1.000000 -0.000001 1.000000 -0.000001 3749.dat
0 STEP
1 1 49.999980 -72.000000 -40.000170 0.000000 0.000000 1.000000 0.000000 1.000000 0.000000 -1.000000 0.000000 0.000000 3894.dat
1 1 -50.000060 -72.000000 -40.000140 0.000000 0.000000 1.000000 0.000000 1.000000 0.000000 -1.000000 0.000000 0.000000 3894.dat
0 STEP
1 1 -50.000040 -48.000000 -80.000160 0.000000 0.000000 1.000000 0.000000 1.000000 0.000000 -1.000000 0.000000 0.000000 3710.dat
1 1 49.999980 -48.000000 -80.000160 0.000000 0.000000 1.000000 0.000000 1.000000 0.000000 -1.000000 0.000000 0.000000 3710.dat
0 STEP
1 1 -50.000040 -40.000000 -80.000160 0.000001 0.000000 1.000000 0.000000 1.000000 0.000000 -1.000000 0.000000 0.000001 3023.dat
1 1 50.000000 -40.000000 -80.000160 0.000000 0.000000 1.000000 0.000000 1.000000 0.000000 -1.000000 0.000000 0.000000 3023.dat
0 STEP
1 1 0.000080 -32.000000 -80.000220 1.000000 0.000000 0.000000 0.000000 1.000000 0.000000 0.000000 0.000000 1.000000 32001.dat
1 1 0.000020 -24.000000 -69.999920 1.000000 0.000000 0.000000 0.000000 1.000000 0.000000 0.000000 0.000000 1.000000 3023.dat
1 1 0.000020 -24.000000 -90.000100 1.000000 0.000000 0.000000 0.000000 1.000000 0.000000 0.000000 0.000000 1.000000 3023.dat
0 STEP
1 15 50.000000 -24.000000 -69.999920 -1.000000 0.000000 0.000000 0.000000 1.000000 0.000000 0.000000 0.000000 -1.000000 3040b.dat
1 15 50.000000 -24.000000 -90.000160 1.000000 0.000000 -0.000001 0.000000 1.000000 0.000000 0.000001 0.000000 1.000000 3040b.dat
1 15 -50.000080 -24.000000 -90.000160 1.000000 0.000000 -0.000001 0.000000 1.000000 0.000000 0.000001 0.000000 1.000000 3040b.dat
1 15 -50.000040 -24.000000 -69.999920 -1.000000 0.000000 0.000000 0.000000 1.000000 0.000000 0.000000 0.000000 -1.000000 3040b.dat
0 STEP
1 1 39.999990 -48.000000 -10.000000 -1.000000 0.000000 0.000000 0.000000 1.000000 0.000000 0.000000 0.000000 -1.000000 3701.dat
1 1 -40.000000 -48.000000 -10.000000 1.000000 0.000000 0.000000 0.000000 1.000000 0.000000 0.000000 0.000000 1.000000 3701.dat
1 1 0.000000 -72.000000 -10.000000 -1.000000 0.000000 0.000000 0.000000 1.000000 0.000000 0.000000 0.000000 -1.000000 3701.dat
0 STEP
1 1 0.000000 -24.000000 -10.000000 1.000000 0.000000 0.000000 0.000000 1.000000 0.000000 0.000000 0.000000 1.000000 3701.dat
0 STEP
1 15 20.000000 -96.000000 -39.999990 0.000000 0.000000 -1.000000 0.000000 1.000000 0.000000 1.000000 0.000000 0.000000 3001.dat
1 15 -19.999970 -96.000000 -40.000020 0.000000 0.000000 -1.000000 0.000000 1.000000 0.000000 1.000000 0.000000 0.000000 3001.dat
0 STEP
1 1 19.999970 -96.000000 -90.000160 1.000000 0.000000 0.000000 0.000000 1.000000 0.000000 0.000000 0.000000 1.000000 3700.dat
1 1 -19.999930 -96.000000 -90.000220 1.000000 0.000000 0.000000 0.000000 1.000000 0.000000 0.000000 0.000000 1.000000 3700.dat
0 STEP
1 19 -19.999930 -85.999980 -100.000200 0.000001 -1.000000 0.000001 0.000001 0.000001 1.000000 -1.000000 -0.000001 0.000001 3749.dat
1 19 20.000030 -85.999980 -100.000200 0.000001 -1.000000 0.000001 0.000001 0.000001 1.000000 -1.000000 -0.000001 0.000001 3749.dat
0 STEP
1 14 -19.999930 -85.999970 -105.000200 1.000000 0.000000 0.000000 0.000000 1.000000 0.000000 0.000000 0.000000 1.000000 32123a.dat
1 14 20.000050 -85.999970 -105.000200 1.000000 0.000000 0.000000 0.000000 1.000000 0.000000 0.000000 0.000000 1.000000 32123a.dat
0 STEP
1 1 0.000080 -120.000000 -90.000160 1.000000 0.000000 0.000000 0.000000 1.000000 0.000000 0.000000 0.000000 1.000000 3700.dat
1 19 0.000080 -110.000000 -100.000200 0.000001 -1.000000 0.000001 0.000001 0.000001 1.000000 -1.000000 -0.000001 0.000001 3749.dat
1 14 0.000090 -110.000000 -105.000200 1.000000 0.000000 0.000000 0.000000 1.000000 0.000000 0.000000 0.000000 1.000000 32123a.dat
0 STEP
1 1 0.000030 -120.000000 -69.999920 1.000000 0.000000 0.000000 0.000000 1.000000 0.000000 0.000000 0.000000 1.000000 3700.dat
0 STEP
1 15 0.000030 -144.000000 -79.999860 -1.000000 0.000000 0.000000 0.000000 1.000000 0.000000 0.000000 0.000000 -1.000000 3941.dat
1 19 0.000060 -144.000000 -79.999800 -0.000001 1.000000 -0.000001 1.000000 0.000001 -0.000001 -0.000001 -0.000001 -1.000000 3749.dat
0 STEP
1 1 0.000020 -104.000000 -20.000000 -1.000000 0.000000 0.000000 0.000000 1.000000 0.000000 0.000000 0.000000 -1.000000 3709b.dat
0 STEP
1 1 0.000020 -128.000000 -30.000000 1.000000 0.000000 0.000000 0.000000 1.000000 0.000000 0.000000 0.000000 1.000000 3894.dat
1 1 0.000020 -128.000000 -10.000000 1.000000 0.000000 0.000000 0.000000 1.000000 0.000000 0.000000 0.000000 1.000000 3894.dat
0 STEP
1 71 20.000020 -118.000000 0.000000 0.000000 0.000000 -1.000000 0.000000 1.000000 0.000000 1.000000 0.000000 0.000000 3673.dat
1 71 -19.999990 -118.000000 0.000000 0.000000 0.000000 -1.000000 0.000000 1.000000 0.000000 1.000000 0.000000 0.000000 3673.dat
0 STEP
1 1 -39.999980 -136.000000 -20.000000 0.000000 0.000000 1.000000 0.000000 1.000000 0.000000 -1.000000 0.000000 0.000000 3709b.dat
1 1 40.000020 -136.000000 -20.000000 0.000000 0.000000 1.000000 0.000000 1.000000 0.000000 -1.000000 0.000000 0.000000 3709b.dat
0 STEP
1 1 0.000020 -160.000000 -10.000000 1.000000 0.000000 0.000000 0.000000 1.000000 0.000000 0.000000 0.000000 1.000000 3895.dat
1 15 80.000040 -168.000000 -10.000000 1.000000 0.000000 0.000000 0.000000 1.000000 0.000000 0.000000 0.000000 1.000000 2431.dat
1 15 -79.999980 -168.000000 -10.000000 -1.000000 0.000000 0.000000 0.000000 1.000000 0.000000 0.000000 0.000000 -1.000000 2431.dat
0 STEP
1 1 0.000020 -160.000000 10.000000 1.000000 0.000000 0.000000 0.000000 1.000000 0.000000 0.000000 0.000000 1.000000 3702.dat
0 STEP
1 1 20.000020 -168.000000 40.000010 0.000000 0.000000 1.000000 0.000000 1.000000 0.000000 -1.000000 0.000000 0.000000 3709b.dat
1 1 -19.999990 -168.000000 40.000010 0.000000 0.000000 1.000000 0.000000 1.000000 0.000000 -1.000000 0.000000 0.000000 3709b.dat
0 STEP
1 1 0.000020 -176.000000 20.000000 -1.000000 0.000000 0.000000 0.000000 1.000000 0.000000 0.000000 0.000000 -1.000000 3709b.dat
0 STEP
1 15 0.000020 -200.000000 20.000000 -1.000000 0.000000 0.000000 0.000000 1.000000 0.000000 0.000000 0.000000 -1.000000 3941.dat
1 19 0.000060 -200.000000 20.000020 -0.000001 1.000000 -0.000001 1.000000 0.000001 -0.000001 -0.000001 -0.000001 -1.000000 3749.dat
0 STEP
1 1 0.000020 -192.000000 70.000000 1.000000 0.000000 0.000000 0.000000 1.000000 0.000000 0.000000 0.000000 1.000000 3702.dat
0 STEP
0 STEP
