0 Untitled Model
0 Name:  手钻2
0 Author:  
0 CustomBrick
0 NumOfBricks:  64
1 15 -133.541800 -71.511690 154.980800 0.000001 0.000001 -1.000006 -1.000000 0.000001 -0.000001 0.000001 1.000006 0.000001 64871.dat
0 STEP
1 19 -273.543200 -71.511800 144.980800 0.000001 -1.000006 0.000001 0.000001 0.000001 1.000000 -1.000006 -0.000001 0.000001 3749.dat
1 4 6.458670 -71.511560 154.980700 -0.000001 1.000006 -0.000001 0.000001 0.000001 1.000000 1.000006 0.000001 -0.000001 32054.dat
1 4 -33.541520 -71.511590 154.980700 -0.000001 1.000006 -0.000001 0.000001 0.000001 1.000000 1.000006 0.000001 -0.000001 32054.dat
1 4 6.458670 -71.511580 124.980500 0.000000 0.000000 -1.000006 0.000000 1.000000 0.000000 1.000006 0.000000 0.000000 32062.dat
1 4 -33.541520 -71.511600 124.980500 0.000000 0.000000 -1.000006 0.000000 1.000000 0.000000 1.000006 0.000000 0.000000 32062.dat
0 STEP
1 71 -273.543200 -71.514640 124.980700 1.000006 0.000000 0.000001 0.000000 1.000000 0.000000 -0.000001 0.000000 1.000006 59443.dat
1 19 -273.543100 -71.511810 104.980600 -0.000001 1.000006 -0.000001 0.000001 0.000001 1.000000 1.000006 0.000001 -0.000001 3749.dat
1 4 6.458580 -71.511620 94.980300 0.000001 -1.000006 0.000001 0.000001 0.000001 1.000000 -1.000006 -0.000001 0.000001 32054.dat
1 4 -33.541520 -71.511650 94.980350 0.000001 -1.000006 0.000001 0.000001 0.000001 1.000000 -1.000006 -0.000001 0.000001 32054.dat
0 STEP
1 15 -133.541700 -71.511690 94.980480 0.000001 0.000001 -1.000006 -1.000000 0.000001 -0.000001 0.000001 1.000006 0.000001 64871.dat
0 STEP
1 1 -253.543000 -81.511720 74.980320 1.000006 0.000000 0.000000 0.000000 1.000000 0.000000 0.000000 0.000000 1.000006 3703.dat
1 1 -253.543000 -57.511700 74.980380 1.000006 0.000000 0.000000 0.000000 1.000000 0.000000 0.000000 0.000000 1.000006 3703.dat
1 1 -193.542600 -71.511720 94.980480 0.000000 0.000000 -1.000006 0.000000 1.000000 0.000000 1.000006 0.000000 0.000000 6558.dat
0 STEP
1 1 -253.543000 -57.511800 174.981000 1.000006 0.000000 0.000000 0.000000 1.000000 0.000000 0.000000 0.000000 1.000006 3703.dat
1 1 -153.542400 -71.511740 154.980700 0.000000 0.000000 1.000006 0.000000 1.000000 0.000000 -1.000006 0.000000 0.000000 6558.dat
1 1 -253.543000 -81.511820 174.981000 1.000006 0.000000 0.000000 0.000000 1.000000 0.000000 0.000000 0.000000 1.000006 3703.dat
0 STEP
1 1 -113.541500 -33.511690 54.980300 1.000006 0.000000 0.000000 0.000000 1.000000 0.000000 0.000000 0.000000 1.000006 3894.dat
1 1 -113.541500 -57.511690 54.980240 1.000006 0.000000 0.000000 0.000000 1.000000 0.000000 0.000000 0.000000 1.000006 3894.dat
1 1 -393.542900 -33.511700 54.980240 1.000006 0.000000 0.000000 0.000000 1.000000 0.000000 0.000000 0.000000 1.000006 3894.dat
1 15 -393.542900 -65.511720 54.980240 1.000006 0.000000 0.000000 0.000000 1.000000 0.000000 0.000000 0.000000 1.000006 2431.dat
1 0 -113.541500 -47.511690 64.980280 0.000000 0.000000 -1.000006 0.000000 1.000000 0.000000 1.000006 0.000000 0.000000 2780.dat
1 1 -393.542900 -57.511690 54.980240 1.000006 0.000000 0.000000 0.000000 1.000000 0.000000 0.000000 0.000000 1.000006 3894.dat
1 0 -393.543800 -47.511700 64.980440 0.000000 0.000000 -1.000000 0.000000 1.000000 0.000000 1.000000 0.000000 0.000000 2780.dat
0 STEP
1 1 -113.541800 -57.511800 194.981100 1.000006 0.000000 0.000000 0.000000 1.000000 0.000000 0.000000 0.000000 1.000006 3894.dat
1 1 -393.543200 -57.511800 194.981100 1.000006 0.000000 0.000000 0.000000 1.000000 0.000000 0.000000 0.000000 1.000006 3894.dat
1 1 -113.541800 -33.511790 194.981100 1.000006 0.000000 0.000000 0.000000 1.000000 0.000000 0.000000 0.000000 1.000006 3894.dat
1 15 -393.543200 -65.511820 194.981100 1.000006 0.000000 0.000000 0.000000 1.000000 0.000000 0.000000 0.000000 1.000006 2431.dat
1 0 -113.541800 -47.511790 184.981000 0.000000 0.000000 -1.000006 0.000000 1.000000 0.000000 1.000006 0.000000 0.000000 2780.dat
1 0 -393.543200 -47.511790 184.981000 0.000000 0.000000 -1.000006 0.000000 1.000000 0.000000 1.000006 0.000000 0.000000 2780.dat
1 1 -393.543200 -33.511790 194.981100 1.000006 0.000000 0.000000 0.000000 1.000000 0.000000 0.000000 0.000000 1.000006 3894.dat
0 STEP
1 15 -103.541600 -105.511700 74.980320 0.000000 0.000000 1.000006 0.000000 1.000000 0.000000 -1.000006 0.000000 0.000000 3040b.dat
1 15 -103.541700 -105.511800 174.981000 0.000000 0.000000 1.000006 0.000000 1.000000 0.000000 -1.000006 0.000000 0.000000 3040b.dat
1 1 -133.541800 -113.511800 174.981000 1.000006 0.000000 0.000000 0.000000 1.000000 0.000000 0.000000 0.000000 1.000006 3710.dat
1 1 -133.541800 -113.511700 74.980320 1.000006 0.000000 0.000000 0.000000 1.000000 0.000000 0.000000 0.000000 1.000006 3710.dat
1 15 -163.542600 -105.511800 174.981000 0.000000 0.000000 -1.000006 0.000000 1.000000 0.000000 1.000006 0.000000 0.000000 3040b.dat
1 15 -163.542500 -105.511700 74.980320 0.000000 0.000000 -1.000006 0.000000 1.000000 0.000000 1.000006 0.000000 0.000000 3040b.dat
0 STEP
1 15 66.459200 -71.511520 74.980080 0.000001 0.000001 -1.000006 -1.000000 0.000001 -0.000001 0.000001 1.000006 0.000001 64871.dat
0 STEP
1 4 -50.526570 -161.369900 4.499960 0.000000 0.000000 1.000006 0.000000 1.000000 0.000000 -1.000006 0.000000 0.000000 62462.dat
1 19 -50.526570 -161.369900 24.500050 0.000001 0.980253 0.197782 0.000001 -0.197780 0.980247 1.000006 -0.000001 -0.000001 3749.dat
1 71 66.459080 -71.511500 56.410180 0.906316 -0.422617 0.000001 0.422614 0.906310 0.000000 -0.000001 0.000001 1.000006 3713.dat
1 1 66.459080 -71.511460 34.500060 0.422618 0.000001 -0.906316 -0.906310 0.000000 -0.422615 0.000000 1.000006 0.000001 32271.dat
1 71 66.459110 -71.511490 75.980200 -0.000001 -0.422617 0.906316 0.000000 0.906310 0.422615 -1.000006 0.000001 -0.000001 32073.dat
0 STEP
1 0 66.459230 -71.511500 166.110600 0.000000 -0.866029 0.500008 0.000001 0.500005 0.866023 -1.000006 0.000001 0.000000 3705.dat
1 71 66.459110 -71.511500 154.980700 0.500008 -0.866029 0.000000 0.866023 0.500005 -0.000001 0.000001 0.000001 1.000006 3649.dat
1 71 66.460360 -71.514060 125.980500 0.906316 -0.422617 0.000001 0.422614 0.906310 -0.000001 -0.000001 0.000001 1.000006 59443.dat
0 STEP
1 19 206.460100 -71.511360 84.740200 -0.000001 1.000006 -0.000001 0.000001 0.000001 1.000000 1.000006 0.000001 -0.000001 3749.dat
1 14 206.460100 -71.511360 89.740220 1.000006 0.000000 0.000000 0.000000 1.000000 0.000000 0.000000 0.000000 1.000006 32123a.dat
0 STEP
1 19 206.460000 -71.511310 164.980500 0.000001 -1.000006 0.000001 0.000001 0.000001 1.000000 -1.000006 -0.000001 0.000001 3749.dat
1 4 206.460000 -71.511310 125.000400 -1.000006 0.000000 0.000000 0.000000 -1.000000 0.000000 0.000000 0.000000 1.000006 32034.dat
1 14 206.460000 -71.511310 159.990500 1.000006 0.000000 0.000000 0.000000 1.000000 0.000000 0.000000 0.000000 1.000006 32123a.dat
0 STEP
1 72 146.459400 -71.511530 156.260500 0.906313 -0.422623 0.000000 -0.422620 -0.906307 0.000000 0.000000 0.000000 -1.000006 3647.dat
1 71 146.459400 -71.511520 113.140300 -0.422623 0.906313 0.000000 -0.906307 -0.422620 -0.000001 -0.000001 0.000000 1.000006 3650c.dat
1 71 146.459400 -71.511530 95.000320 0.422623 -0.906313 0.000000 0.906307 0.422620 0.000001 -0.000001 0.000000 1.000006 3713.dat
1 71 146.459400 -71.511530 56.000020 0.906313 0.422623 0.000001 -0.422620 0.906307 0.000000 -0.000001 0.000000 1.000006 3713.dat
1 0 146.459400 -71.511530 122.900400 0.000000 -0.906313 0.422623 0.000000 0.422620 0.906307 -1.000006 0.000000 0.000000 3707.dat
0 STEP
1 15 66.459230 -71.511470 174.980700 0.000001 0.000001 -1.000006 -1.000000 0.000001 -0.000001 0.000001 1.000006 0.000001 64871.dat
0 STEP
1 71 66.459230 -71.511530 196.110900 0.866029 0.500008 0.000001 -0.500005 0.866023 -0.000001 -0.000001 0.000000 1.000006 3713.dat
1 71 146.459400 -71.511520 195.100800 0.906313 0.422623 0.000001 -0.422620 0.906307 0.000000 -0.000001 0.000000 1.000006 3713.dat
0 STEP
1 72 226.000000 -71.511310 125.000000 0.000000 0.000000 -1.000000 0.000000 -1.000000 0.000000 -1.000000 0.000000 0.000000 3648b.dat
1 72 174.879800 -71.511310 125.000400 0.000000 0.000000 1.000006 1.000000 0.000000 0.000000 0.000000 1.000006 0.000000 3647.dat
1 0 284.210400 -71.511310 125.000400 -1.000006 0.000000 0.000000 0.000000 1.000000 0.000000 0.000000 0.000000 -1.000006 3708.dat
1 14 190.479900 -71.511310 125.000500 0.000000 0.000000 -1.000006 0.000000 -1.000000 0.000000 -1.000006 0.000000 0.000000 32123a.dat
1 71 246.090200 -71.511310 125.000300 0.000001 0.000000 -1.000006 0.000000 -1.000000 0.000000 -1.000006 0.000000 -0.000001 94925.dat
0 STEP
0 STEP
