0 FILE 传递排版.io
0 Untitled Model
0 Name:  传递排版
0 Author:  
0 CustomBrick
0 NumOfBricks:  32
1 1 -1.000070 -9.000239 -19.000000 -1.000000 0.000000 0.000000 0.000000 0.000000 1.000000 0.000000 1.000000 0.000000 32009.dat
1 71 -1.000070 -89.000230 -19.000000 0.000000 -1.000000 0.000000 0.000000 0.000000 1.000000 -1.000000 0.000000 0.000000 4519.dat
0 STEP
1 71 -1.000000 -89.000240 1.000000 -0.000001 0.000001 1.000000 1.000000 0.000001 0.000001 -0.000001 1.000000 -0.000001 33299.dat
1 4 39.000000 -89.000190 31.000010 0.000000 0.000000 1.000000 0.000000 1.000000 0.000000 -1.000000 0.000000 0.000000 62462.dat
0 STEP
1 71 -1.000070 -89.000230 -34.120100 1.000000 0.000000 0.000000 0.000000 -1.000000 0.000000 0.000000 0.000000 -1.000000 4185.dat
1 71 -1.000070 -89.000240 -44.410020 1.000000 0.000000 0.000000 0.000000 -1.000000 0.000000 0.000000 0.000000 -1.000000 4185.dat
1 71 -18.500010 -79.000230 -50.120100 0.000000 0.000000 -1.000000 0.000000 1.000000 0.000000 1.000000 0.000000 0.000000 3673.dat
0 STEP
1 0 -41.000060 -9.000259 -28.999960 0.000000 0.000000 -1.000000 0.000000 1.000000 0.000000 1.000000 0.000000 0.000000 2780.dat
1 19 -81.000200 -9.000279 -29.000020 -0.000001 1.000000 -0.000001 0.000001 0.000001 1.000000 1.000000 0.000001 -0.000001 3749.dat
0 STEP
1 15 58.999870 -9.000140 -39.000110 0.000001 0.000001 -1.000000 -1.000000 0.000001 -0.000001 0.000001 1.000000 0.000001 64871.dat
1 0 118.999900 -9.000080 -49.000230 0.000000 0.000000 -1.000000 0.000000 1.000000 0.000000 1.000000 0.000000 0.000000 2780.dat
1 19 58.999870 -9.000110 -49.000110 0.000001 -1.000000 0.000001 0.000001 0.000001 1.000000 -1.000000 -0.000001 0.000001 3749.dat
0 STEP
1 1 58.999810 -9.000140 -59.000290 0.000001 0.000001 1.000000 -1.000000 0.000001 0.000001 -0.000001 -1.000000 0.000001 32140.dat
0 STEP
1 0 158.999900 -9.000050 -29.000270 0.000000 0.000000 -1.000000 0.000000 1.000000 0.000000 1.000000 0.000000 0.000000 2780.dat
1 19 198.999800 -8.999990 -29.000270 -0.000001 1.000000 -0.000001 0.000001 0.000001 1.000000 1.000000 0.000001 -0.000001 3749.dat
0 STEP
1 1 118.999800 -8.999990 -19.000310 1.000000 0.000000 0.000000 0.000000 0.000000 1.000000 0.000000 -1.000000 0.000000 32009.dat
1 19 118.999800 -88.999970 -29.000270 0.000001 -0.954388 -0.298571 0.000001 -0.298571 0.954388 -1.000000 -0.000002 0.000001 3749.dat
0 STEP
1 71 100.498700 -63.354100 -49.320360 0.000000 -0.298572 -0.954387 0.000000 0.954387 -0.298572 1.000000 0.000000 0.000000 3673.dat
1 71 118.999900 -88.999950 -39.320300 0.954387 0.298572 0.000000 0.298572 -0.954387 0.000000 0.000000 0.000000 -1.000000 3649.dat
0 STEP
1 15 41.000240 -71.272520 -60.120160 0.128795 0.000001 -0.991671 -0.991671 0.000001 -0.128795 0.000001 1.000000 0.000001 32524.dat
0 STEP
1 16 144.999900 -19.037770 -49.000110 1.000000 0.000000 0.000000 0.000000 1.000000 0.000000 0.000000 0.000000 1.000000 submodel group
0 STEP
0 STEP
0 NOFILE
0 FILE SubModel Group
0 SubModel Group
0 Name:  SubModel Group
0 Author:  
0 CustomBrick
0 NumOfBricks:  12
1 1 38.166630 -8.000060 9.666719 1.000000 0.000000 0.000000 0.000000 1.000000 0.000000 0.000000 0.000000 1.000000 3023.dat
1 4 48.166620 -28.000070 9.666719 0.000000 -1.000000 0.000000 1.000000 0.000000 0.000000 0.000000 0.000000 1.000000 62462.dat
0 STEP
1 4 48.166690 -57.999920 9.666780 -0.000001 1.000000 -0.000001 1.000000 0.000001 -0.000001 -0.000001 -0.000001 -1.000000 32054.dat
0 STEP
1 15 48.166930 -117.999900 -0.333040 1.000000 0.000000 0.000000 0.000000 0.000000 -1.000000 0.000000 1.000000 0.000000 32064a.dat
1 0 48.166930 -167.999900 9.667020 0.000000 0.000000 1.000000 -1.000000 0.000000 0.000000 0.000000 -1.000000 0.000000 3737.dat
0 STEP
1 15 48.166930 -257.999900 -0.333160 1.000000 0.000000 0.000000 0.000000 0.000000 -1.000000 0.000000 1.000000 0.000000 32064a.dat
0 STEP
1 1 68.166810 -187.999900 -8.334260 0.000000 0.000000 -1.000000 -1.000000 0.000000 0.000000 0.000000 1.000000 0.000000 3738.dat
1 1 28.166870 -188.000000 -8.333159 0.000000 0.000000 -1.000000 -1.000000 0.000000 0.000000 0.000000 1.000000 0.000000 3738.dat
0 STEP
1 1 -21.833190 -8.000000 9.666719 1.000000 0.000000 0.000000 0.000000 1.000000 0.000000 0.000000 0.000000 1.000000 3710.dat
1 71 -1.833440 -15.999980 9.666780 1.000000 0.000000 0.000000 0.000000 1.000000 0.000000 0.000000 0.000000 1.000000 3743.dat
0 STEP
1 1 -101.832700 -8.000010 9.666719 1.000000 0.000000 0.000000 0.000000 1.000000 0.000000 0.000000 0.000000 1.000000 3710.dat
1 71 -81.835200 -16.000080 9.666600 1.000000 0.000000 0.000000 0.000000 1.000000 0.000000 0.000000 0.000000 1.000000 3743.dat
0 STEP
0 NOFILE
