0 FILE 动力摆.io
0 Untitled Model
0 Name:  动力摆
0 Author:  
0 CustomBrick
0 NumOfBricks:  58
1 0 -59.999760 -94.000030 -0.000120 0.000000 0.000000 -1.000000 0.000000 1.000000 0.000000 1.000000 0.000000 0.000000 2780.dat
1 0 -59.999880 -54.000040 0.000000 0.000000 0.000000 -1.000000 0.000000 1.000000 0.000000 1.000000 0.000000 0.000000 2780.dat
1 0 -59.999760 -94.000030 -100.000100 0.000000 0.000000 -1.000000 0.000000 1.000000 0.000000 1.000000 0.000000 0.000000 2780.dat
1 0 -59.999760 -54.000020 -100.000100 0.000000 0.000000 -1.000000 0.000000 1.000000 0.000000 1.000000 0.000000 0.000000 2780.dat
1 71 -59.999760 -94.000030 -50.000120 0.000000 1.000000 0.000000 0.000000 0.000000 1.000000 1.000000 0.000000 0.000000 64179.dat
0 STEP
1 1 -59.999880 -94.000030 9.999880 1.000000 -0.000001 -0.000001 0.000001 0.000001 1.000000 -0.000001 -1.000000 0.000001 32526.dat
1 0 -60.000000 -14.000000 20.000000 0.000000 0.000000 -1.000000 0.000000 1.000000 0.000000 1.000000 0.000000 0.000000 2780.dat
1 0 -20.000000 -14.000000 20.000000 0.000000 0.000000 -1.000000 0.000000 1.000000 0.000000 1.000000 0.000000 0.000000 2780.dat
0 STEP
1 1 -59.999760 -94.000030 -110.000100 1.000000 -0.000001 -0.000001 0.000001 0.000001 1.000000 -0.000001 -1.000000 0.000001 32526.dat
1 0 -19.999880 -14.000000 -120.000000 0.000000 0.000000 -1.000000 0.000000 1.000000 0.000000 1.000000 0.000000 0.000000 2780.dat
1 0 -59.999880 -14.000050 -119.999900 0.000000 0.000000 -1.000000 0.000000 1.000000 0.000000 1.000000 0.000000 0.000000 2780.dat
0 STEP
1 1 40.000000 -24.000000 30.000000 1.000000 0.000000 0.000000 0.000000 1.000000 0.000000 0.000000 0.000000 1.000000 3703.dat
1 0 159.999900 -14.000000 20.000000 0.000000 0.000000 -1.000000 0.000000 1.000000 0.000000 1.000000 0.000000 0.000000 2780.dat
1 0 179.999900 -14.000000 20.000000 0.000000 0.000000 -1.000000 0.000000 1.000000 0.000000 1.000000 0.000000 0.000000 2780.dat
0 STEP
1 0 160.000200 -14.000050 -120.000000 0.000000 0.000000 -1.000000 0.000000 1.000000 0.000000 1.000000 0.000000 0.000000 2780.dat
1 0 140.000200 -14.000050 -120.000000 0.000000 0.000000 -1.000000 0.000000 1.000000 0.000000 1.000000 0.000000 0.000000 2780.dat
1 1 40.000120 -24.000050 -129.999900 1.000000 0.000000 0.000000 0.000000 1.000000 0.000000 0.000000 0.000000 1.000000 3703.dat
0 STEP
1 19 -59.999760 -134.000000 -0.000120 -0.000001 1.000000 -0.000001 0.000001 0.000001 1.000000 1.000000 0.000001 -0.000001 3749.dat
1 19 -59.999760 -134.000000 -100.000100 0.000001 -1.000000 0.000001 0.000001 0.000001 1.000000 -1.000000 -0.000001 0.000001 3749.dat
0 STEP
1 4 -59.999880 -134.000100 29.999880 -0.000001 1.000000 -0.000001 1.000000 0.000001 -0.000001 -0.000001 -0.000001 -1.000000 32054.dat
1 0 -59.999760 -134.000100 29.999880 -0.000002 1.000000 0.000002 -1.000000 -0.000002 -0.000002 -0.000002 -0.000002 1.000000 32013.dat
0 STEP
1 4 -60.000000 -135.710100 -130.000100 -0.000002 1.000000 -0.000001 1.000000 0.000001 -0.000001 -0.000001 -0.000001 -1.000000 32054.dat
1 0 -59.999760 -134.000100 -130.000100 0.000002 -1.000000 -0.000002 -1.000000 -0.000002 -0.000002 0.000002 0.000002 -1.000000 32013.dat
0 STEP
1 16 -59.999780 -144.000000 -50.000020 1.000000 0.000000 0.000000 0.000000 1.000000 0.000000 0.000000 0.000000 1.000000 submodel group 1
0 STEP
1 0 -59.999760 -304.000000 -50.000120 0.000000 0.000000 1.000000 1.000000 0.000000 0.000000 0.000000 1.000000 0.000000 2780.dat
1 1 -39.999790 -314.000000 -50.000120 0.000000 0.000000 1.000000 -1.000000 0.000000 0.000000 0.000000 -1.000000 0.000000 44809.dat
0 STEP
1 0 30.000180 -333.999800 -50.000240 -1.000000 0.000000 0.000000 0.000000 1.000000 0.000000 0.000000 0.000000 -1.000000 3737.dat
1 71 -19.999790 -334.000000 -50.000000 0.000001 0.000000 -1.000000 0.000000 1.000000 0.000000 1.000000 0.000000 0.000001 3713.dat
1 71 -59.999760 -334.000000 -50.000000 0.000001 0.000000 -1.000000 0.000000 1.000000 0.000000 1.000000 0.000000 0.000001 3713.dat
0 STEP
1 0 10.000310 -434.000000 -50.000240 -1.000000 0.000000 0.000000 0.000000 1.000000 0.000000 0.000000 0.000000 -1.000000 2780.dat
1 15 0.000210 -294.000000 -50.000000 0.000001 1.000000 0.000001 0.000001 0.000001 -1.000000 -1.000000 0.000001 -0.000001 64871.dat
0 STEP
1 0 30.140320 -414.000000 -50.000240 -1.000000 0.000000 0.000000 0.000000 1.000000 0.000000 0.000000 0.000000 -1.000000 2780.dat
1 15 20.140200 -274.000000 -50.000120 0.000001 1.000000 0.000001 0.000001 0.000001 -1.000000 -1.000000 0.000001 -0.000001 64871.dat
0 STEP
1 0 49.900220 -393.999900 -50.000000 -1.000000 0.000000 0.000000 0.000000 1.000000 0.000000 0.000000 0.000000 -1.000000 2780.dat
1 15 39.900330 -254.000000 -50.000120 -0.000001 -1.000000 -0.000001 0.000001 0.000001 -1.000000 1.000000 -0.000001 0.000001 64871.dat
0 STEP
1 0 69.900210 -374.000000 -50.000000 -1.000000 0.000000 0.000000 0.000000 1.000000 0.000000 0.000000 0.000000 -1.000000 2780.dat
1 15 60.180300 -233.999900 -50.000240 -0.000001 -1.000000 -0.000001 0.000001 0.000001 -1.000000 1.000000 -0.000001 0.000001 64871.dat
0 STEP
1 15 80.000430 -214.000000 -50.000120 -0.000001 -1.000000 -0.000001 0.000001 0.000001 -1.000000 1.000000 -0.000001 0.000001 64871.dat
1 0 90.000190 -353.999900 -50.000000 -1.000000 0.000000 0.000000 0.000000 1.000000 0.000000 0.000000 0.000000 -1.000000 2780.dat
0 STEP
1 15 100.260400 -193.999800 -50.000240 -0.000001 -1.000000 -0.000001 0.000001 0.000001 -1.000000 1.000000 -0.000001 0.000001 64871.dat
1 14 115.000300 -333.999800 -50.000120 0.000000 0.000000 -1.000000 0.000000 -1.000000 0.000000 -1.000000 0.000000 0.000000 32123a.dat
0 STEP
1 19 180.000000 -34.000010 10.000000 -1.000000 -0.000001 0.000001 0.000001 0.000001 1.000000 -0.000001 1.000000 -0.000001 3749.dat
1 0 150.000200 -34.000050 -110.000000 -1.000000 0.000000 0.000000 0.000000 1.000000 0.000000 0.000000 0.000000 -1.000000 32291.dat
1 0 169.999900 -33.999980 10.000000 -1.000000 0.000000 0.000000 0.000000 1.000000 0.000000 0.000000 0.000000 -1.000000 32291.dat
0 STEP
1 19 160.000200 -34.000070 -110.000100 -1.000000 -0.000001 0.000001 0.000001 0.000001 1.000000 -0.000001 1.000000 -0.000001 3749.dat
1 15 170.000500 -170.575000 -79.221680 0.000002 1.000000 0.000001 -0.219844 0.000002 -0.975535 -0.975535 0.000002 0.219844 64871.dat
0 STEP
1 0 180.000700 -307.149900 -48.443480 -1.000000 0.000000 0.000000 0.000000 1.000000 0.000000 0.000000 0.000000 -1.000000 2780.dat
1 15 189.999800 -170.940800 -19.107180 -0.000001 -1.000000 -0.000001 -0.207910 0.000001 -0.978148 0.978148 -0.000001 -0.207910 64871.dat
0 STEP
0 STEP
0 NOFILE
0 FILE SubModel Group 1
0 SubModel Group 1
0 Name:  SubModel Group 1
0 Author:  
0 CustomBrick
0 NumOfBricks:  11
1 0 0.000020 -50.000120 80.000020 -0.000002 1.000000 0.000002 -1.000000 -0.000002 -0.000002 -0.000002 -0.000002 1.000000 32013.dat
1 19 0.000020 -50.000000 50.000140 -0.000001 1.000000 -0.000001 0.000001 0.000001 1.000000 1.000000 0.000001 -0.000001 3749.dat
0 STEP
1 71 0.000020 -90.000000 0.000010 0.000000 -1.000000 0.000000 0.000000 0.000000 -1.000000 1.000000 0.000000 0.000000 64179.dat
0 STEP
1 19 0.000020 -50.000000 -49.999990 0.000001 -1.000000 0.000001 0.000001 0.000001 1.000000 -1.000000 -0.000001 0.000001 3749.dat
1 0 0.000020 -50.000120 -79.999980 0.000002 -1.000000 -0.000002 -1.000000 -0.000002 -0.000002 0.000002 0.000002 -1.000000 32013.dat
0 STEP
1 0 0.000020 -20.000000 20.000010 0.000000 1.000000 0.000000 1.000000 0.000000 0.000000 0.000000 0.000000 -1.000000 2780.dat
1 0 0.000020 -20.000000 -19.999990 0.000000 1.000000 0.000000 1.000000 0.000000 0.000000 0.000000 0.000000 -1.000000 2780.dat
0 STEP
1 4 0.000020 -50.000120 79.999900 0.000001 -1.000000 0.000001 -1.000000 -0.000001 0.000001 -0.000001 -0.000001 -1.000000 32054.dat
1 4 -0.000100 -20.000110 79.999900 0.000000 0.000000 1.000000 1.000000 0.000000 0.000000 0.000000 1.000000 0.000000 32062.dat
0 STEP
1 4 0.000020 -50.000120 -79.999860 -0.000001 -0.000001 -1.000000 -1.000000 -0.000001 0.000001 -0.000001 1.000000 -0.000001 32054.dat
1 4 -0.000100 -24.000120 -80.000110 0.000000 0.000000 1.000000 1.000000 0.000000 0.000000 0.000000 1.000000 0.000000 32062.dat
0 STEP
0 NOFILE
