0 FILE 割草机.io
0 Untitled Model
0 Name:  割草机
0 Author:  
0 CustomBrick
0 NumOfBricks:  89
1 71 -34.089900 -102.000700 -207.000500 1.000007 0.000001 0.000001 0.000000 -1.000002 -0.000001 0.000001 0.000001 -1.000003 64179.dat
0 STEP
1 72 -9.139990 -102.000700 -207.000600 0.000001 -1.000007 -0.000001 -0.000001 0.000000 1.000002 -1.000003 0.000000 -0.000001 99773.dat
1 19 -4.090040 -102.000700 -167.000500 -1.000007 0.000000 0.000002 -0.000001 -0.000002 -1.000002 0.000001 -1.000004 0.000002 3749.dat
1 19 -4.090000 -102.000700 -247.000500 -1.000007 0.000000 0.000002 -0.000001 -0.000002 -1.000002 0.000001 -1.000004 0.000002 3749.dat
0 STEP
1 19 -64.089760 -102.000700 -167.000500 1.000007 0.000000 0.000000 -0.000001 0.000000 -1.000003 -0.000001 1.000004 -0.000001 3749.dat
1 19 -64.089720 -102.000800 -247.000500 1.000007 0.000000 0.000000 -0.000001 0.000000 -1.000003 -0.000001 1.000004 -0.000001 3749.dat
1 72 -59.089820 -102.000700 -207.000500 0.000001 -1.000007 0.000000 -0.000001 0.000000 1.000002 -1.000003 0.000000 -0.000001 99773.dat
0 STEP
1 14 -34.089830 -102.000600 -172.000500 -0.270862 -0.962626 -0.000001 0.962622 -0.270860 0.000001 -0.000001 0.000000 1.000004 32123a.dat
1 14 -34.089830 -102.000700 -220.820500 -0.270862 -0.962626 -0.000001 0.962622 -0.270860 0.000001 -0.000001 0.000000 1.000003 32123a.dat
1 14 -34.089840 -102.000600 -160.750500 -0.270862 -0.962626 -0.000001 0.962622 -0.270860 0.000001 -0.000001 0.000000 1.000003 32123a.dat
1 71 -34.089820 -102.000700 -237.460500 -0.962626 0.270862 -0.000002 -0.270860 -0.962622 0.000001 -0.000001 0.000001 1.000003 3713.dat
1 71 -34.089830 -102.000700 -197.000500 0.962626 0.270862 0.000001 0.270860 -0.962622 -0.000001 0.000000 0.000001 -1.000003 4716.dat
1 71 -34.089830 -102.000700 -207.000500 0.000001 -0.962626 -0.270862 -0.000001 -0.270860 0.962622 -1.000003 0.000000 -0.000001 60485.dat
0 STEP
1 0 -14.090010 -102.000600 -137.000500 -0.000001 0.000001 1.000007 0.000001 -1.000002 0.000000 1.000003 0.000001 0.000000 2780.dat
1 0 -54.089940 -102.000600 -137.000500 -0.000001 0.000001 1.000007 0.000001 -1.000002 0.000000 1.000003 0.000001 0.000000 2780.dat
0 STEP
1 71 -34.090140 -102.000600 -137.000400 1.000007 0.000000 -0.000001 0.000000 1.000001 0.000001 0.000000 -0.000001 1.000003 58120.dat
0 STEP
1 1 -34.090010 -72.000420 23.000120 0.000001 0.000000 1.000007 0.000000 1.000002 0.000000 -1.000003 0.000000 0.000000 3738.dat
1 1 -34.089940 -72.000500 -97.000400 0.000000 0.000000 1.000007 0.000000 1.000002 0.000000 -1.000003 0.000000 0.000000 3709b.dat
1 1 -34.089910 -64.000480 -77.000170 0.000001 0.000000 1.000007 0.000000 1.000002 0.000000 -1.000003 0.000000 0.000000 32001.dat
0 STEP
1 1 -44.090180 -64.000380 63.000180 0.000000 0.000000 -1.000007 0.000000 1.000002 0.000000 1.000004 0.000000 0.000000 3701.dat
1 1 -24.089520 -64.000430 63.000240 0.000000 0.000000 -1.000007 0.000000 1.000002 0.000000 1.000004 0.000000 0.000000 3701.dat
0 STEP
1 1 -34.089980 -96.000450 13.000120 1.000005 0.000000 0.000000 0.000000 1.000001 0.000000 0.000000 0.000000 1.000003 3701.dat
1 0 -14.089880 -86.000430 23.000120 0.000000 0.000000 -1.000005 0.000000 1.000001 0.000000 1.000003 0.000000 0.000000 2780.dat
1 0 -54.090040 -86.000430 23.000060 0.000000 0.000000 -1.000005 0.000000 1.000001 0.000000 1.000003 0.000000 0.000000 2780.dat
0 STEP
1 16 -104.089500 -124.981700 42.964160 0.000000 -1.000000 0.000000 -1.000000 0.000000 0.000000 0.000000 0.000000 -1.000000 submodel group 9 copy copy copy
0 STEP
1 0 -14.089980 -86.000430 83.000240 0.000000 0.000000 -1.000005 0.000000 1.000001 0.000000 1.000003 0.000000 0.000000 2780.dat
1 0 -54.090140 -86.000450 83.000230 0.000000 0.000000 -1.000005 0.000000 1.000001 0.000000 1.000003 0.000000 0.000000 2780.dat
0 STEP
1 1 -34.090080 -96.000430 93.000320 1.000005 0.000000 0.000000 0.000000 1.000001 0.000000 0.000000 0.000000 1.000003 3701.dat
0 STEP
1 0 5.910030 -92.000670 -267.000400 0.000001 0.000001 1.000007 -1.000002 -0.000001 0.000001 0.000001 -1.000003 0.000000 2780.dat
1 0 -74.089860 -92.000720 -267.000400 0.000001 0.000001 1.000007 -1.000002 -0.000001 0.000001 0.000001 -1.000003 0.000000 2780.dat
1 0 5.909990 -92.000650 -227.000500 0.000001 0.000001 1.000007 -1.000002 -0.000001 0.000001 0.000001 -1.000003 0.000000 2780.dat
1 0 -74.089870 -92.000720 -227.000500 0.000001 0.000001 1.000007 -1.000002 -0.000001 0.000001 0.000001 -1.000003 0.000000 2780.dat
0 STEP
1 0 -31.109840 -54.000420 83.000300 -1.000005 0.000000 0.000000 0.000000 1.000001 0.000000 0.000000 0.000000 -1.000003 3708.dat
0 STEP
1 0 -118.000000 -54.000020 83.000000 0.000000 0.000000 1.000000 0.000000 1.000000 0.000000 -1.000000 0.000000 0.000000 44309.dat
1 71 -118.000300 -54.000420 83.000270 0.000000 0.000000 1.000003 1.000000 0.000000 0.000000 0.000000 1.000003 0.000000 56145.dat
1 0 48.890400 -54.000420 83.000300 0.000000 0.000000 -1.000003 0.000000 1.000000 0.000000 1.000003 0.000000 0.000000 44309.dat
1 71 48.890440 -54.000420 83.000300 0.000000 0.000000 -1.000003 1.000000 0.000000 0.000000 0.000000 -1.000003 0.000000 56145.dat
0 STEP
1 71 -147.400500 -54.000420 83.000220 0.000001 0.000000 -1.000003 0.000000 1.000000 0.000000 1.000003 0.000000 0.000001 3713.dat
1 71 78.890590 -54.000420 83.000300 0.000001 0.000000 -1.000003 0.000000 1.000000 0.000000 1.000003 0.000000 0.000001 3713.dat
0 STEP
1 0 -37.749800 -62.000600 -207.000500 1.000007 -0.000001 -0.000001 0.000001 0.990514 0.137439 0.000000 -0.137438 0.990514 3708.dat
1 14 -19.400020 -62.000780 -207.000600 0.000001 0.000001 1.000007 -0.990514 -0.137439 0.000001 0.137438 -0.990514 0.000000 32123a.dat
1 72 -34.389880 -53.469850 -218.280100 0.000001 -0.000001 -1.000007 -0.990514 0.137439 -0.000001 0.137438 0.990514 -0.000001 3648b.dat
1 14 -48.539920 -62.000780 -207.000600 0.000001 0.000001 1.000007 -0.990514 -0.137439 0.000001 0.137438 -0.990514 0.000000 32123a.dat
0 STEP
1 0 5.910380 -112.000600 -187.000500 0.000000 0.000000 -1.000003 1.000000 0.000000 0.000000 0.000000 -1.000003 0.000000 2780.dat
1 0 -74.090180 -112.000600 -187.000500 0.000000 0.000000 1.000003 1.000000 0.000000 0.000000 0.000000 1.000003 0.000000 2780.dat
1 4 -74.090180 -122.000600 -187.000500 0.000000 1.000003 0.000000 -1.000000 0.000000 0.000000 0.000000 0.000000 1.000003 32034.dat
1 4 5.910380 -122.000600 -187.000500 0.000000 1.000003 0.000000 1.000000 0.000000 0.000000 0.000000 0.000000 -1.000003 32034.dat
0 STEP
1 71 -34.089800 -102.000700 -285.000600 0.962626 0.270862 0.000002 0.270860 -0.962622 -0.000001 0.000001 0.000001 -1.000003 3650c.dat
0 STEP
1 0 5.910090 -92.000750 -307.001200 -0.000001 0.000001 -1.000007 1.000002 -0.000001 0.000000 -0.000001 -1.000003 0.000000 2780.dat
1 0 -74.090680 -92.000870 -307.002000 -0.000001 0.000001 -1.000007 1.000002 -0.000001 -0.000001 0.000000 -1.000003 0.000000 2780.dat
1 15 -74.090740 -82.000850 -327.002100 1.000007 -0.000002 0.000000 0.000001 1.000002 0.000002 -0.000001 -0.000002 1.000004 64290.dat
1 15 5.910030 -82.000760 -327.001300 1.000007 -0.000002 0.000000 0.000001 1.000002 0.000002 -0.000001 -0.000002 1.000004 64290.dat
0 STEP
1 15 -34.089970 -102.000700 -307.001200 0.000000 0.000000 -1.000007 0.000002 1.000002 0.000001 1.000004 -0.000001 0.000001 32316.dat
1 14 -34.089910 -117.820800 -307.001200 0.258822 -0.965933 0.000001 0.000001 0.000000 -1.000002 0.965929 0.258821 0.000000 32123a.dat
1 71 -34.089910 -101.520700 -307.001300 -0.000001 -0.965933 0.258822 1.000002 0.000000 0.000001 -0.000001 0.258822 0.965929 32073.dat
0 STEP
1 71 -32.195360 -52.320660 -338.567400 0.000000 -0.087156 0.996200 -1.000003 -0.000001 0.000000 0.000001 -0.996198 -0.087156 3673.dat
1 71 -34.089940 -62.320680 -307.001200 -0.965930 -0.258822 0.000000 0.000000 -0.000001 -1.000003 0.258822 -0.965929 0.000001 3649.dat
1 71 -34.089850 -132.400800 -307.001300 -0.965933 -0.258822 0.000000 0.000001 -0.000001 -1.000002 0.258821 -0.965929 0.000001 94925.dat
0 STEP
1 15 -34.090230 -62.000880 -427.001500 -0.000001 -0.000001 1.000005 0.000000 -1.000003 -0.000001 1.000003 0.000000 0.000001 32316.dat
1 0 5.910010 -72.000940 -427.001300 0.000000 0.000000 1.000005 -1.000003 -0.000001 0.000000 0.000001 -1.000003 0.000000 2780.dat
1 0 -74.090770 -72.001030 -427.002000 0.000000 0.000000 1.000005 -1.000003 -0.000001 0.000000 0.000001 -1.000003 0.000000 2780.dat
0 STEP
1 0 58.280240 -62.000560 -206.996300 -0.000001 0.000000 -1.000005 0.137438 0.990514 0.000000 0.990514 -0.137438 -0.000001 44309.dat
1 71 58.280120 -61.999980 -207.000400 0.000000 0.000001 -1.000012 0.990514 -0.137440 0.000000 -0.137438 -0.990519 -0.000001 56145.dat
0 STEP
1 0 -136.380700 -62.000700 -207.000700 0.000001 -0.000001 1.000007 -0.137438 0.990514 0.000001 -0.990514 -0.137438 0.000000 44309.dat
1 71 -136.380700 -62.000700 -207.000500 0.000000 -0.000001 1.000007 0.990514 0.137439 0.000001 -0.137438 0.990514 0.000000 56145.dat
0 STEP
1 15 -32.195870 -42.320820 -438.566300 1.000005 -0.000001 0.000001 0.000001 1.000003 0.000001 -0.000001 -0.000001 1.000003 64290.dat
0 STEP
1 1 -54.090320 -42.000800 -427.001500 0.000000 0.000001 -1.000005 1.000003 0.000000 0.000000 0.000000 -1.000003 0.000000 6558.dat
1 1 -14.090160 -42.000840 -427.001500 0.000000 0.000001 -1.000005 1.000003 0.000000 0.000000 0.000000 -1.000003 0.000000 6558.dat
0 STEP
1 15 -34.090230 -22.000760 -427.001500 -0.000001 -0.000001 1.000005 0.000000 -1.000003 -0.000001 1.000003 0.000000 0.000001 32523.dat
0 STEP
1 19 -74.090760 -92.000930 -367.002000 -0.000001 1.000003 -0.000001 -1.000000 -0.000001 0.000001 0.000001 0.000001 1.000003 3749.dat
1 19 5.909970 -92.000820 -367.001400 -0.000001 1.000003 -0.000001 -1.000000 -0.000001 0.000001 0.000001 0.000001 1.000003 3749.dat
0 STEP
1 4 5.909940 -103.890800 -367.001400 -1.000003 0.000000 0.000000 0.000000 -0.000001 1.000000 0.000000 1.000003 0.000001 32039.dat
1 4 -74.090790 -103.740900 -367.002000 -1.000003 0.000000 0.000000 0.000000 -0.000001 1.000000 0.000000 1.000003 0.000001 32039.dat
0 STEP
1 71 -92.910400 -123.890800 -367.001400 0.000001 0.000000 -1.000003 0.000000 1.000000 0.000000 1.000003 0.000000 0.000001 3713.dat
1 71 27.089940 -123.890800 -367.001400 0.000001 0.000000 -1.000003 0.000000 1.000000 0.000000 1.000003 0.000000 0.000001 3713.dat
1 4 -26.170230 -123.890800 -367.001400 -1.000003 0.000000 0.000000 0.000000 -1.000000 0.000000 0.000000 0.000000 1.000003 32034.dat
1 71 -32.910200 -123.890800 -367.001400 -1.000003 0.000000 0.000000 0.000000 1.000000 0.000000 0.000000 0.000000 -1.000003 44294.dat
0 STEP
1 19 -32.195920 -32.320970 -538.566200 0.000001 -1.000005 0.000001 1.000003 0.000001 -0.000001 0.000001 0.000001 1.000003 3749.dat
1 71 -32.195920 -20.320900 -538.566200 1.000005 0.000000 0.000001 0.000001 0.000001 -1.000003 0.000000 1.000003 0.000001 3650c.dat
0 STEP
1 19 -74.089780 -296.000500 33.000190 -0.000001 1.000003 -0.000001 -1.000000 -0.000001 0.000001 0.000001 0.000001 1.000003 3749.dat
1 19 5.910500 -296.000500 73.000330 -0.000001 1.000003 -0.000001 -1.000000 -0.000001 0.000001 0.000001 0.000001 1.000003 3749.dat
0 STEP
1 71 -74.089780 -306.000500 33.000130 1.000003 0.000000 0.000001 0.000001 0.000000 -1.000000 0.000000 1.000003 0.000000 3713.dat
1 71 5.910470 -306.000500 73.000330 1.000003 0.000000 0.000001 0.000001 0.000000 -1.000000 0.000000 1.000003 0.000000 3713.dat
0 STEP
1 0 -74.089740 -296.000500 73.000320 0.000000 0.000000 -1.000003 1.000000 0.000000 0.000000 0.000000 -1.000003 0.000000 2780.dat
1 4 5.910510 -308.420400 33.000200 -1.000003 0.000000 0.000000 0.000000 -0.000001 1.000000 0.000000 1.000003 0.000001 32039.dat
1 4 -74.089740 -306.000500 73.000380 0.000000 0.000000 -1.000003 -1.000000 0.000000 0.000000 0.000000 1.000003 0.000000 32034.dat
1 19 5.910530 -298.420400 33.000210 -0.000001 -0.000001 -1.000000 -1.000000 -0.000001 0.000001 -0.000001 1.000000 -0.000001 3749.dat
0 STEP
0 STEP
0 NOFILE
0 FILE SubModel Group 9 Copy Copy Copy
0 SubModel Group 9 Copy Copy Copy
0 Name:  SubModel Group 9 Copy Copy Copy
0 Author:  
0 CustomBrick
0 NumOfBricks:  3
1 72 10.000000 -1.128810 -10.000000 1.000000 0.000000 0.000000 0.000000 0.000000 -1.000000 0.000000 1.000000 0.000000 dch003.dat
1 71 -27.466620 -79.717990 29.427020 1.000000 0.000000 0.000000 0.000000 0.000000 -1.000000 0.000000 1.000000 0.000000 dch004.dat
1 25 7.837010 13.484720 -9.965000 1.000000 0.000000 0.000000 0.000000 0.000000 -1.000000 0.000000 1.000000 0.000000 dch005.dat
0 NOFILE
