0 FILE 坦克.io
0 Untitled Model
0 Name:  坦克
0 Author:  
0 CustomBrick
0 NumOfBricks:  141
1 0 -232.999900 -206.572500 -151.999800 0.000000 0.000000 -1.000000 0.000000 1.000000 0.000000 1.000000 0.000000 0.000000 2780.dat
1 0 -232.999900 -166.572500 -151.999800 0.000000 0.000000 -1.000000 0.000000 1.000000 0.000000 1.000000 0.000000 0.000000 2780.dat
1 16 -69.999960 -116.499900 -132.999800 -1.000003 0.000000 0.000000 0.000000 1.000000 0.000000 0.000000 0.000000 -1.000003 submodel group 9 copy copy copy
0 STEP
1 15 -233.000000 -146.572500 -81.999760 -1.000000 0.000001 -0.000001 -0.000001 -0.000001 1.000000 0.000001 1.000000 0.000001 40490.dat
1 0 -233.000000 -206.572600 -91.999820 0.000000 0.000000 -1.000000 0.000000 1.000000 0.000000 1.000000 0.000000 0.000000 2780.dat
1 0 -232.999900 -166.572500 -91.999770 0.000000 0.000000 -1.000000 0.000000 1.000000 0.000000 1.000000 0.000000 0.000000 2780.dat
0 STEP
1 0 -232.999800 -186.572500 -171.999800 0.000000 0.000000 -1.000000 0.000000 1.000000 0.000000 1.000000 0.000000 0.000000 2780.dat
1 15 -232.999900 -146.572500 -161.999800 -1.000000 0.000001 -0.000001 -0.000001 -0.000001 1.000000 0.000001 1.000000 0.000001 40490.dat
0 STEP
1 0 -233.000300 -66.572330 -127.239700 0.000000 0.000000 1.000003 0.000000 1.000000 0.000000 -1.000003 0.000000 0.000000 3708.dat
1 71 -232.998900 -66.572330 -62.069640 1.000000 0.000000 0.000001 0.000000 1.000000 0.000000 -0.000001 0.000000 1.000000 3713.dat
1 71 -233.000300 -66.572330 -42.159680 1.000003 0.000000 0.000001 0.000000 1.000000 0.000000 -0.000001 0.000000 1.000003 3713.dat
0 STEP
1 71 -233.000300 -66.572330 -181.819700 1.000003 0.000000 0.000001 0.000000 1.000000 0.000000 -0.000001 0.000000 1.000003 3713.dat
1 71 -233.000300 -66.572330 -202.249800 1.000003 0.000000 0.000001 0.000000 1.000000 0.000000 -0.000001 0.000000 1.000003 3713.dat
0 STEP
1 0 -32.999970 -206.572500 -151.999900 0.000000 0.000000 -1.000000 0.000000 1.000000 0.000000 1.000000 0.000000 0.000000 2780.dat
1 0 -32.999940 -166.572500 -151.999800 0.000000 0.000000 -1.000000 0.000000 1.000000 0.000000 1.000000 0.000000 0.000000 2780.dat
1 0 -22.999970 -146.572500 -141.999800 1.000000 0.000000 0.000000 0.000000 1.000000 0.000000 0.000000 0.000000 1.000000 2780.dat
1 0 -22.999940 -146.572500 -101.999800 1.000000 0.000000 0.000000 0.000000 1.000000 0.000000 0.000000 0.000000 1.000000 2780.dat
0 STEP
1 15 -33.000030 -146.572500 -161.999800 -1.000000 0.000001 -0.000001 -0.000001 -0.000001 1.000000 0.000001 1.000000 0.000001 40490.dat
1 0 -33.000000 -186.572500 -172.000000 0.000000 0.000000 -1.000000 0.000000 1.000000 0.000000 1.000000 0.000000 0.000000 2780.dat
1 0 -33.000090 -66.572560 -171.999800 0.000000 0.000000 -1.000000 0.000000 1.000000 0.000000 1.000000 0.000000 0.000000 2780.dat
0 STEP
1 0 -32.999970 -206.572500 -91.999770 0.000000 0.000000 -1.000000 0.000000 1.000000 0.000000 1.000000 0.000000 0.000000 2780.dat
1 0 -32.999910 -166.572500 -91.999770 0.000000 0.000000 -1.000000 0.000000 1.000000 0.000000 1.000000 0.000000 0.000000 2780.dat
0 STEP
1 15 -33.000030 -146.572500 -81.999760 -1.000000 0.000001 -0.000001 -0.000001 -0.000001 1.000000 0.000001 1.000000 0.000001 40490.dat
1 0 -33.000090 -66.572490 -71.999690 0.000000 0.000000 -1.000000 0.000000 1.000000 0.000000 1.000000 0.000000 0.000000 2780.dat
0 STEP
1 0 -2.999940 -146.572500 -161.999900 -1.000000 0.000000 0.000000 0.000000 1.000000 0.000000 0.000000 0.000000 -1.000000 2780.dat
1 15 -12.999910 -146.572500 -121.999900 0.000001 1.000000 0.000001 -1.000000 0.000001 -0.000001 -0.000001 -0.000001 1.000000 32316.dat
1 0 -2.999880 -146.572600 -81.999880 -1.000000 0.000000 0.000000 0.000000 1.000000 0.000000 0.000000 0.000000 -1.000000 2780.dat
0 STEP
1 0 7.000060 -146.572500 -162.000000 1.000000 0.000002 0.000002 0.000002 0.000002 -1.000000 -0.000002 1.000000 0.000002 32013.dat
1 71 6.999970 -86.572530 -162.000000 0.000000 -1.000000 0.000000 -1.000000 0.000000 0.000000 0.000000 0.000000 -1.000000 32073.dat
1 0 7.000120 -146.572600 -81.999760 1.000000 0.000002 0.000002 0.000002 0.000002 -1.000000 -0.000002 1.000000 0.000002 32013.dat
1 71 7.000030 -86.572610 -81.999760 0.000000 -1.000000 0.000000 -1.000000 0.000000 0.000000 0.000000 0.000000 -1.000000 32073.dat
0 STEP
1 72 7.000060 -111.572600 -121.999900 0.000000 0.000000 1.000000 0.000000 1.000000 0.000000 -1.000000 0.000000 0.000000 99773.dat
1 72 7.000000 -101.492500 -122.000200 0.000000 0.000000 1.000000 0.000000 1.000000 0.000000 -1.000000 0.000000 0.000000 99773.dat
0 STEP
1 71 27.000030 -116.572600 -121.999800 0.000000 -1.000000 0.000000 0.000000 0.000000 -1.000000 1.000000 0.000000 0.000000 58120.dat
1 0 7.000060 -116.572600 -121.999900 0.000000 0.000000 -1.000000 1.000000 0.000000 0.000000 0.000000 -1.000000 0.000000 2780.dat
1 0 47.000060 -116.572600 -121.999900 0.000000 0.000000 -1.000000 1.000000 0.000000 0.000000 0.000000 -1.000000 0.000000 2780.dat
0 STEP
1 19 27.000060 -94.362590 -121.999900 1.000000 0.000000 0.000001 -0.000001 0.000000 1.000000 0.000000 -1.000000 0.000000 6589.dat
1 71 27.000060 -107.342600 -121.999900 0.000000 -1.000000 0.000000 -1.000000 0.000000 0.000000 0.000000 0.000000 -1.000000 4519.dat
0 STEP
1 71 7.000000 -86.572530 -162.000000 0.000000 -1.000000 0.000000 0.000001 0.000000 -1.000000 1.000000 0.000000 0.000001 3713.dat
1 4 27.000000 -66.572520 -162.000000 0.000000 1.000000 0.000000 1.000000 0.000000 0.000000 0.000000 0.000000 -1.000000 42003.dat
1 71 6.999970 -46.572520 -162.000000 0.000000 -1.000000 0.000000 0.000001 0.000000 -1.000000 1.000000 0.000000 0.000001 3713.dat
0 STEP
1 71 7.000030 -86.572610 -81.999760 0.000000 -1.000000 0.000000 0.000001 0.000000 -1.000000 1.000000 0.000000 0.000001 3713.dat
1 71 7.000030 -46.572610 -81.999760 0.000000 -1.000000 0.000000 0.000001 0.000000 -1.000000 1.000000 0.000000 0.000001 3713.dat
1 4 27.000030 -66.572620 -81.999760 0.000000 1.000000 0.000000 1.000000 0.000000 0.000000 0.000000 0.000000 -1.000000 42003.dat
0 STEP
1 0 27.000000 -66.572520 -125.599900 0.000000 0.161606 0.986856 0.000000 0.986856 -0.161606 -1.000000 0.000000 0.000000 3708.dat
1 19 27.000030 -66.572510 -102.669900 -0.161606 -0.986856 0.000000 -0.986856 0.161605 0.000000 0.000000 0.000000 -1.000000 32269.dat
0 STEP
1 71 27.000030 -66.572520 -42.249880 0.986855 0.161606 0.000000 -0.161606 0.986855 0.000000 0.000000 0.000000 1.000000 3713.dat
1 4 46.999880 -66.572510 -61.999760 0.000001 -1.000000 0.000001 0.000001 0.000001 1.000000 -1.000000 -0.000001 0.000001 32054.dat
1 1 66.999910 -66.572490 -61.999760 0.000000 0.000000 -1.000000 -1.000000 0.000000 0.000000 0.000000 1.000000 0.000000 6629.dat
0 STEP
1 71 27.000000 -66.572520 -201.539900 0.986855 0.161606 0.000000 -0.161606 0.986855 0.000000 0.000000 0.000000 1.000000 3713.dat
1 4 47.000060 -66.572550 -182.000000 -0.000001 1.000000 -0.000001 0.000001 0.000001 1.000000 1.000000 0.000001 -0.000001 32054.dat
1 1 67.000030 -66.572520 -182.000000 0.000000 0.000000 -1.000000 -1.000000 0.000000 0.000000 0.000000 1.000000 0.000000 6629.dat
0 STEP
1 71 26.998320 -66.572030 -15.480100 -1.000000 0.000000 0.000000 0.000000 1.000000 0.000000 0.000000 0.000000 -1.000000 57519.dat
1 71 -233.000300 -66.572330 -15.759400 -1.000000 0.000000 0.000000 0.000000 1.000000 0.000000 0.000000 0.000000 -1.000000 57519.dat
0 STEP
1 0 21.995120 -115.334500 -2.440060 0.000000 0.000000 1.000000 0.000000 1.000000 0.000000 -1.000000 0.000000 0.000000 88323.dat
1 0 -12.000700 -114.970400 -2.320190 0.000000 0.000000 1.000000 0.000000 1.000000 0.000000 -1.000000 0.000000 0.000000 88323.dat
1 0 -43.004880 -114.970400 -1.313110 0.000000 0.000000 1.000010 0.000000 1.000000 0.000000 -1.000010 0.000000 0.000000 88323.dat
1 0 -75.005040 -114.970300 -1.313110 0.000000 0.000000 1.000010 0.000000 1.000000 0.000000 -1.000010 0.000000 0.000000 88323.dat
1 0 -107.000700 -115.363400 -1.320190 0.000000 0.000000 1.000000 0.000000 1.000000 0.000000 -1.000000 0.000000 0.000000 88323.dat
1 0 -136.999600 -114.999300 -2.195430 0.000000 0.000000 1.000006 0.000000 1.000000 0.000000 -1.000006 0.000000 0.000000 88323.dat
1 0 -171.003800 -114.999300 -2.188110 0.000000 0.000000 1.000017 0.000000 1.000000 0.000000 -1.000017 0.000000 0.000000 88323.dat
1 0 -203.003900 -114.999400 -2.188110 0.000000 0.000000 1.000017 0.000000 1.000000 0.000000 -1.000017 0.000000 0.000000 88323.dat
1 0 -234.646500 -116.900400 -1.188110 0.000000 0.173648 0.984824 0.000000 0.984808 -0.173651 -1.000017 0.000000 0.000000 88323.dat
1 0 -261.588000 -110.860000 -1.320190 0.000000 0.642787 0.766045 0.000000 0.766045 -0.642787 -1.000000 0.000000 0.000000 88323.dat
1 0 -281.188200 -90.437000 -2.320190 0.000000 0.965925 0.258821 0.000000 0.258821 -0.965925 -1.000000 0.000000 0.000000 88323.dat
1 0 -287.386000 -59.697040 -1.480100 0.000000 0.906309 -0.422615 0.000000 -0.422616 -0.906310 -1.000000 0.000000 0.000000 88323.dat
1 0 -275.648900 -31.520160 -3.480100 0.000000 0.495463 -0.868629 0.000001 -0.868630 -0.495463 -1.000000 0.000000 0.000000 88323.dat
1 0 -247.736800 -16.374390 -3.480100 0.000000 0.040139 -0.999194 0.000000 -0.999194 -0.040139 -1.000000 0.000000 0.000000 88323.dat
1 0 -216.001600 -15.546160 -2.480100 0.000000 0.040139 -0.999194 0.000000 -0.999194 -0.040139 -1.000000 0.000000 0.000000 88323.dat
1 0 -189.001700 -15.546110 -2.480100 0.000000 0.040139 -0.999194 0.000000 -0.999194 -0.040139 -1.000000 0.000000 0.000000 88323.dat
1 0 -160.001700 -15.546140 -2.480100 0.000000 0.040139 -0.999194 0.000000 -0.999194 -0.040139 -1.000000 0.000000 0.000000 88323.dat
1 0 -131.001600 -15.546160 -2.480100 0.000000 0.040139 -0.999194 0.000000 -0.999194 -0.040139 -1.000000 0.000000 0.000000 88323.dat
1 0 -102.001700 -15.546130 -2.480100 0.000000 0.040139 -0.999194 0.000000 -0.999194 -0.040139 -1.000000 0.000000 0.000000 88323.dat
1 0 -71.001740 -15.546140 -2.480100 0.000000 0.040139 -0.999194 0.000000 -0.999194 -0.040139 -1.000000 0.000000 0.000000 88323.dat
1 0 -42.001620 -15.546150 -2.480100 0.000000 0.040139 -0.999194 0.000000 -0.999194 -0.040139 -1.000000 0.000000 0.000000 88323.dat
1 0 -15.001620 -15.546160 -2.480100 0.000000 0.040139 -0.999194 0.000000 -0.999194 -0.040139 -1.000000 0.000000 0.000000 88323.dat
1 0 7.998290 -15.546160 -2.480100 0.000000 0.040139 -0.999194 0.000000 -0.999194 -0.040139 -1.000000 0.000000 0.000000 88323.dat
1 0 38.553100 -15.476230 -2.480100 0.000000 -0.540232 -0.841516 0.000000 -0.841516 0.540232 -1.000000 0.000000 0.000000 88323.dat
1 0 65.482420 -30.002970 -1.480100 0.000000 -0.888612 -0.458659 0.000000 -0.458659 0.888613 -1.000000 0.000000 0.000000 88323.dat
1 0 80.359280 -56.285320 -1.480100 0.000000 -0.990985 0.133975 0.000001 0.133975 0.990985 -1.000000 0.000000 0.000000 88323.dat
1 0 74.068120 -86.780610 -0.480100 0.000000 -0.841518 0.540230 0.000000 0.540230 0.841518 -1.000000 0.000000 0.000000 88323.dat
1 0 54.998290 -112.203900 -1.480100 0.000000 0.000000 1.000000 0.000000 1.000000 0.000000 -1.000000 0.000000 0.000000 88323.dat
0 STEP
1 71 26.997990 -66.572040 -240.200700 -1.000000 0.000000 0.000000 0.000000 1.000000 0.000000 0.000000 0.000000 -1.000000 57519.dat
1 71 -233.000300 -66.572330 -240.480000 -1.000000 0.000000 0.000000 0.000000 1.000000 0.000000 0.000000 0.000000 -1.000000 57519.dat
0 STEP
1 0 21.994840 -115.334500 -240.160700 0.000000 0.000000 1.000000 0.000000 1.000000 0.000000 -1.000000 0.000000 0.000000 88323.dat
1 0 -12.001010 -114.970400 -240.040800 0.000000 0.000000 1.000000 0.000000 1.000000 0.000000 -1.000000 0.000000 0.000000 88323.dat
1 0 -43.005160 -114.970400 -239.033700 0.000000 0.000000 1.000010 0.000000 1.000000 0.000000 -1.000010 0.000000 0.000000 88323.dat
1 0 -75.005340 -114.970400 -239.033700 0.000000 0.000000 1.000010 0.000000 1.000000 0.000000 -1.000010 0.000000 0.000000 88323.dat
1 0 -107.001000 -115.363500 -239.040800 0.000000 0.000000 1.000000 0.000000 1.000000 0.000000 -1.000000 0.000000 0.000000 88323.dat
1 0 -136.999900 -114.999400 -239.916000 0.000000 0.000000 1.000006 0.000000 1.000000 0.000000 -1.000006 0.000000 0.000000 88323.dat
1 0 -171.004000 -114.999400 -239.908700 0.000000 0.000000 1.000017 0.000000 1.000000 0.000000 -1.000017 0.000000 0.000000 88323.dat
1 0 -203.003900 -114.999400 -239.908700 0.000000 0.000000 1.000017 0.000000 1.000000 0.000000 -1.000017 0.000000 0.000000 88323.dat
1 0 -234.646400 -116.900500 -238.908700 0.000000 0.173648 0.984824 0.000000 0.984808 -0.173651 -1.000017 0.000000 0.000000 88323.dat
1 0 -261.588100 -110.860000 -239.040800 0.000000 0.642787 0.766045 0.000000 0.766045 -0.642787 -1.000000 0.000000 0.000000 88323.dat
1 0 -281.188200 -90.437000 -240.040800 0.000000 0.965925 0.258821 0.000000 0.258821 -0.965925 -1.000000 0.000000 0.000000 88323.dat
1 0 -287.385900 -59.697080 -239.200700 0.000000 0.906309 -0.422615 0.000000 -0.422616 -0.906310 -1.000000 0.000000 0.000000 88323.dat
1 0 -275.648900 -31.520200 -241.200700 0.000000 0.495463 -0.868630 0.000001 -0.868630 -0.495463 -1.000000 0.000000 0.000000 88323.dat
1 0 -247.736800 -16.374440 -241.200700 0.000000 0.040139 -0.999194 0.000000 -0.999194 -0.040139 -1.000000 0.000000 0.000000 88323.dat
1 0 -216.001600 -15.546210 -240.200700 0.000000 0.040139 -0.999194 0.000000 -0.999194 -0.040139 -1.000000 0.000000 0.000000 88323.dat
1 0 -189.001800 -15.546170 -240.200700 0.000000 0.040139 -0.999194 0.000000 -0.999194 -0.040139 -1.000000 0.000000 0.000000 88323.dat
1 0 -160.002000 -15.546170 -240.200700 0.000000 0.040139 -0.999194 0.000000 -0.999194 -0.040139 -1.000000 0.000000 0.000000 88323.dat
1 0 -131.001900 -15.546200 -240.200700 0.000000 0.040139 -0.999194 0.000000 -0.999194 -0.040139 -1.000000 0.000000 0.000000 88323.dat
1 0 -102.002000 -15.546170 -240.200700 0.000000 0.040139 -0.999194 0.000000 -0.999194 -0.040139 -1.000000 0.000000 0.000000 88323.dat
1 0 -71.002040 -15.546180 -240.200700 0.000000 0.040139 -0.999194 0.000000 -0.999194 -0.040139 -1.000000 0.000000 0.000000 88323.dat
1 0 -42.001920 -15.546200 -240.200700 0.000000 0.040139 -0.999194 0.000000 -0.999194 -0.040139 -1.000000 0.000000 0.000000 88323.dat
1 0 -15.001920 -15.546200 -240.200700 0.000000 0.040139 -0.999194 0.000000 -0.999194 -0.040139 -1.000000 0.000000 0.000000 88323.dat
1 0 7.998020 -15.546200 -240.200700 0.000000 0.040139 -0.999194 0.000000 -0.999194 -0.040139 -1.000000 0.000000 0.000000 88323.dat
1 0 38.552830 -15.476270 -240.200700 0.000000 -0.540232 -0.841516 0.000000 -0.841516 0.540232 -1.000000 0.000000 0.000000 88323.dat
1 0 65.482180 -30.003010 -239.200700 0.000000 -0.888612 -0.458659 0.000000 -0.458659 0.888613 -1.000000 0.000000 0.000000 88323.dat
1 0 80.359380 -56.285360 -239.200700 0.000000 -0.990985 0.133975 0.000001 0.133975 0.990985 -1.000000 0.000000 0.000000 88323.dat
1 0 74.068240 -86.780600 -238.200700 0.000000 -0.841518 0.540230 0.000000 0.540230 0.841518 -1.000000 0.000000 0.000000 88323.dat
1 0 54.998050 -112.203900 -239.200700 0.000000 0.000000 1.000000 0.000000 1.000000 0.000000 -1.000000 0.000000 0.000000 88323.dat
0 STEP
1 1 7.000000 -220.572500 -182.000000 1.000000 0.000000 0.000000 0.000000 1.000000 0.000000 0.000000 0.000000 1.000000 3895.dat
1 1 -93.000000 -196.572500 -182.000000 1.000000 0.000000 0.000000 0.000000 1.000000 0.000000 0.000000 0.000000 1.000000 3703.dat
0 STEP
1 1 87.000000 -210.572500 -162.000000 0.000000 1.000000 0.000000 0.000000 0.000000 1.000000 1.000000 0.000000 0.000000 6558.dat
1 4 107.000000 -210.572500 -162.000000 0.000000 -1.000000 0.000000 1.000000 0.000000 0.000000 0.000000 0.000000 1.000000 42003.dat
1 1 107.000000 -210.572500 -162.000000 0.000000 1.000000 0.000000 0.000000 0.000000 1.000000 1.000000 0.000000 0.000000 6558.dat
0 STEP
1 1 147.000000 -220.572500 -142.000000 1.000000 0.000000 0.000000 0.000000 1.000000 0.000000 0.000000 0.000000 1.000000 3702.dat
1 1 167.000000 -244.572500 -142.000000 1.000000 0.000000 0.000000 0.000000 1.000000 0.000000 0.000000 0.000000 1.000000 3894.dat
0 STEP
1 1 207.000000 -210.572500 -122.000000 0.000000 0.000000 1.000000 0.000000 -1.000000 0.000000 1.000000 0.000000 0.000000 6558.dat
1 15 267.000000 -210.572400 -122.000000 0.000001 0.000001 -1.000000 -1.000000 0.000001 -0.000001 0.000001 1.000000 0.000001 64871.dat
1 1 127.000000 -210.572500 -122.000000 0.000000 0.000000 1.000000 0.000000 -1.000000 0.000000 1.000000 0.000000 0.000000 6558.dat
0 STEP
1 15 207.000000 -234.572400 -122.000200 0.000001 0.000001 -1.000000 -1.000000 0.000001 -0.000001 0.000001 1.000000 0.000001 64871.dat
1 1 207.000000 -234.572500 -122.000000 0.000000 0.000000 1.000000 0.000000 1.000000 0.000000 -1.000000 0.000000 0.000000 6558.dat
1 1 127.000000 -234.572500 -122.000100 0.000000 0.000000 1.000000 0.000000 1.000000 0.000000 -1.000000 0.000000 0.000000 6558.dat
0 STEP
1 1 147.000000 -220.572500 -102.000000 1.000000 0.000000 0.000000 0.000000 1.000000 0.000000 0.000000 0.000000 1.000000 3702.dat
1 1 167.000000 -244.572500 -102.000000 1.000000 0.000000 0.000000 0.000000 1.000000 0.000000 0.000000 0.000000 1.000000 3894.dat
0 STEP
1 1 87.000000 -210.572500 -82.000000 0.000000 0.000000 -1.000000 0.000000 1.000000 0.000000 1.000000 0.000000 0.000000 6558.dat
1 4 107.000000 -210.572500 -82.000000 0.000000 -1.000000 0.000000 -1.000000 0.000000 0.000000 0.000000 0.000000 -1.000000 42003.dat
1 1 107.000000 -210.572500 -82.000000 0.000000 0.000000 -1.000000 0.000000 1.000000 0.000000 1.000000 0.000000 0.000000 6558.dat
0 STEP
1 1 7.000000 -220.572500 -62.000000 1.000000 0.000000 0.000000 0.000000 1.000000 0.000000 0.000000 0.000000 1.000000 3895.dat
0 STEP
1 1 -93.000000 -196.572500 -62.000000 1.000000 0.000000 0.000000 0.000000 1.000000 0.000000 0.000000 0.000000 1.000000 3703.dat
1 0 -33.000030 -186.572500 -71.999820 0.000000 0.000000 -1.000000 0.000000 1.000000 0.000000 1.000000 0.000000 0.000000 2780.dat
1 0 -232.999900 -186.572500 -71.999820 0.000000 0.000000 -1.000000 0.000000 1.000000 0.000000 1.000000 0.000000 0.000000 2780.dat
0 STEP
0 STEP
1 15 197.000000 -268.572600 -142.000000 0.000000 0.000000 -1.000000 0.000000 1.000000 0.000000 1.000000 0.000000 0.000000 3040b.dat
1 15 197.000000 -268.572600 -102.000000 0.000000 0.000000 -1.000000 0.000000 1.000000 0.000000 1.000000 0.000000 0.000000 3040b.dat
0 STEP
1 0 -213.000000 -186.572500 -52.000000 0.000000 0.000000 -1.000000 0.000000 1.000000 0.000000 1.000000 0.000000 0.000000 2780.dat
1 19 -173.000000 -186.572500 -52.000000 -0.000001 1.000000 -0.000001 0.000001 0.000001 1.000000 1.000000 0.000001 -0.000001 3749.dat
1 1 -253.000000 -186.572600 -42.000000 1.000000 0.000000 0.000000 0.000000 0.000000 1.000000 0.000000 -1.000000 0.000000 32009.dat
0 STEP
0 STEP
0 NOFILE
0 FILE SubModel Group 9 Copy Copy Copy
0 SubModel Group 9 Copy Copy Copy
0 Name:  SubModel Group 9 Copy Copy Copy
0 Author:  
0 CustomBrick
0 NumOfBricks:  3
1 72 10.000000 -1.128810 -10.000000 1.000000 0.000000 0.000000 0.000000 0.000000 -1.000000 0.000000 1.000000 0.000000 dch003.dat
1 71 -27.466620 -79.717990 29.427020 1.000000 0.000000 0.000000 0.000000 0.000000 -1.000000 0.000000 1.000000 0.000000 dch004.dat
1 25 7.837010 13.484720 -9.965000 1.000000 0.000000 0.000000 0.000000 0.000000 -1.000000 0.000000 1.000000 0.000000 dch005.dat
0 NOFILE
