0 FILE 小舟.io
0 Untitled Model
0 Name:  小舟
0 Author:  
0 CustomBrick
0 NumOfBricks:  42
1 1 -20.000000 -14.000040 10.000120 -0.000001 -0.000001 -1.000000 -1.000000 0.000001 0.000001 0.000001 1.000000 -0.000001 32271.dat
0 STEP
1 1 0.000000 -24.000000 30.000000 1.000000 0.000000 0.000000 0.000000 1.000000 0.000000 0.000000 0.000000 1.000000 3895.dat
1 0 -100.000000 -14.000000 20.000000 0.000000 0.000000 -1.000000 0.000000 1.000000 0.000000 1.000000 0.000000 0.000000 2780.dat
1 0 -60.000000 -14.000000 20.000000 0.000000 0.000000 -1.000000 0.000000 1.000000 0.000000 1.000000 0.000000 0.000000 2780.dat
0 STEP
1 0 -80.000000 -13.999980 0.000000 0.000000 0.000000 -1.000000 0.000000 1.000000 0.000000 1.000000 0.000000 0.000000 2780.dat
1 0 -40.000000 -14.000020 0.000120 0.000000 0.000000 -1.000000 0.000000 1.000000 0.000000 1.000000 0.000000 0.000000 2780.dat
1 1 -20.000000 -14.000040 -9.999880 -0.000001 -0.000001 -1.000000 -1.000000 0.000001 0.000001 0.000001 1.000000 -0.000001 32271.dat
0 STEP
1 0 99.999880 -14.000000 20.000000 0.000000 0.000000 -1.000000 0.000000 1.000000 0.000000 1.000000 0.000000 0.000000 2780.dat
1 0 59.999880 -14.000000 20.000000 0.000000 0.000000 -1.000000 0.000000 1.000000 0.000000 1.000000 0.000000 0.000000 2780.dat
1 1 19.999880 -14.000090 9.999880 0.000001 0.000001 1.000000 -1.000000 0.000001 0.000001 -0.000001 -1.000000 0.000001 32271.dat
0 STEP
1 0 80.000000 -14.000030 -0.000120 0.000000 0.000000 -1.000000 0.000000 1.000000 0.000000 1.000000 0.000000 0.000000 2780.dat
1 0 39.999880 -14.000070 -0.000120 0.000000 0.000000 -1.000000 0.000000 1.000000 0.000000 1.000000 0.000000 0.000000 2780.dat
1 1 20.000180 -14.000060 -10.001950 0.000001 0.000001 1.000000 -1.000000 0.000001 0.000001 -0.000001 -1.000000 0.000001 32271.dat
0 STEP
1 1 0.000000 -23.999990 -30.000000 1.000000 0.000000 0.000000 0.000000 1.000000 0.000000 0.000000 0.000000 1.000000 3895.dat
1 0 100.000000 -13.999990 -20.000120 0.000000 0.000000 -1.000000 0.000000 1.000000 0.000000 1.000000 0.000000 0.000000 2780.dat
1 0 -100.000000 -14.000000 -20.000000 0.000000 0.000000 -1.000000 0.000000 1.000000 0.000000 1.000000 0.000000 0.000000 2780.dat
1 0 -60.000000 -14.000000 -20.000000 0.000000 0.000000 -1.000000 0.000000 1.000000 0.000000 1.000000 0.000000 0.000000 2780.dat
1 0 60.000180 -14.000020 -20.001950 0.000000 0.000000 -1.000000 0.000000 1.000000 0.000000 1.000000 0.000000 0.000000 2780.dat
0 STEP
1 16 0.249110 -4.999900 31.909120 1.000000 0.000000 0.000000 0.000000 1.000000 0.000000 0.000000 0.000000 1.000000 submodel group 2
0 STEP
1 16 0.060780 -4.999860 -31.910320 1.000000 0.000000 0.000000 0.000000 1.000000 0.000000 0.000000 0.000000 1.000000 submodel group 1
0 STEP
1 1 0.000000 -48.000000 -30.000000 1.000000 0.000000 0.000000 0.000000 1.000000 0.000000 0.000000 0.000000 1.000000 3703.dat
1 1 0.000000 -48.000000 30.000000 1.000000 0.000000 0.000000 0.000000 1.000000 0.000000 0.000000 0.000000 1.000000 3703.dat
0 STEP
0 STEP
0 NOFILE
0 FILE SubModel Group 2
0 SubModel Group 2
0 Name:  SubModel Group 2
0 Author:  
0 CustomBrick
0 NumOfBricks:  11
1 4 -140.249000 -9.000040 -1.909240 1.000000 0.000000 0.000000 0.000000 -1.000000 -0.000001 0.000000 0.000001 -1.000000 32039.dat
1 19 -140.249000 -9.000050 -11.909240 0.000001 -1.000000 0.000001 -0.000001 -0.000001 -1.000000 1.000000 0.000001 -0.000001 3749.dat
0 STEP
1 0 -119.929100 -9.000050 18.091060 -1.000000 0.000000 0.000000 0.000000 1.000000 0.000000 0.000000 0.000000 -1.000000 3705.dat
1 14 -154.929100 -9.000060 18.091060 0.000000 0.000000 1.000000 0.000000 -1.000000 0.000000 1.000000 0.000000 0.000000 32123a.dat
0 STEP
1 71 -79.929140 -9.002900 18.091000 -0.000001 0.000000 1.000000 0.000000 1.000000 0.000000 -1.000000 0.000000 -0.000001 59443.dat
1 0 0.070900 -9.000040 18.091000 -1.000000 0.000000 0.000000 0.000000 1.000000 0.000000 0.000000 0.000000 -1.000000 3707.dat
0 STEP
1 0 120.070900 -9.000020 18.090880 -1.000000 0.000000 0.000000 0.000000 1.000000 0.000000 0.000000 0.000000 -1.000000 3705.dat
1 71 80.070900 -9.002880 18.090880 -0.000001 0.000000 1.000000 0.000000 1.000000 0.000000 -1.000000 0.000000 -0.000001 59443.dat
0 STEP
1 19 139.750800 -9.000040 -11.909120 -0.000001 1.000000 -0.000001 0.000001 0.000001 1.000000 1.000000 0.000001 -0.000001 3749.dat
1 4 139.750900 -9.000030 -1.909120 1.000000 0.000000 0.000000 0.000000 -1.000000 -0.000001 0.000000 0.000001 -1.000000 32039.dat
1 14 155.571000 -9.000020 18.090880 0.000000 0.000000 1.000000 0.000000 -1.000000 0.000000 1.000000 0.000000 0.000000 32123a.dat
0 STEP
0 NOFILE
0 FILE SubModel Group 1
0 SubModel Group 1
0 Name:  SubModel Group 1
0 Author:  
0 CustomBrick
0 NumOfBricks:  11
1 19 139.939500 -9.000050 11.908430 0.000001 -1.000000 0.000001 0.000001 0.000001 1.000000 -1.000000 -0.000001 0.000001 3749.dat
1 4 139.939500 -9.000040 1.908430 -1.000000 0.000000 0.000000 0.000000 -1.000000 -0.000001 0.000000 -0.000001 1.000000 32039.dat
0 STEP
1 0 120.179500 -9.000000 -18.091570 -1.000000 0.000000 0.000000 0.000000 1.000000 0.000000 0.000000 0.000000 -1.000000 3705.dat
1 14 155.649600 -9.000000 -18.091630 0.000000 0.000000 -1.000000 0.000000 -1.000000 0.000000 -1.000000 0.000000 0.000000 32123a.dat
0 STEP
1 71 80.179520 -9.002860 -18.091570 -0.000001 0.000000 1.000011 0.000000 1.000000 0.000000 -1.000011 0.000000 -0.000001 59443.dat
1 0 0.177750 -9.000020 -18.091450 -1.000000 0.000000 0.000000 0.000000 1.000000 0.000000 0.000000 0.000000 -1.000000 3707.dat
0 STEP
1 0 -120.560800 -9.000000 -18.089800 -1.000000 0.000000 0.000000 0.000000 1.000000 0.000000 0.000000 0.000000 -1.000000 3705.dat
1 71 -79.822280 -9.002880 -18.091450 -0.000001 0.000000 1.000000 0.000000 1.000000 0.000000 -1.000000 0.000000 -0.000001 59443.dat
0 STEP
1 4 -140.060800 -9.000030 1.910200 -1.000000 0.000000 0.000000 0.000000 -1.000000 -0.000001 0.000000 -0.000001 1.000000 32039.dat
1 19 -140.060800 -9.000040 11.910200 0.000001 -1.000000 0.000001 0.000001 0.000001 1.000000 -1.000000 -0.000001 0.000001 3749.dat
1 14 -155.560800 -9.000010 -18.089800 0.000000 0.000000 -1.000000 0.000000 -1.000000 0.000000 -1.000000 0.000000 0.000000 32123a.dat
0 STEP
0 NOFILE
