0 FILE 椭圆机.io
0 Untitled Model
0 Name:  椭圆机
0 Author:  
0 CustomBrick
0 NumOfBricks:  115
1 1 -16.999940 -35.744850 -8.000020 0.000000 0.000000 1.000000 0.000000 1.000000 0.000000 -1.000000 0.000000 0.000000 6558.dat
1 1 243.000000 -35.744600 -8.000270 0.000000 0.000000 1.000000 0.000000 1.000000 0.000000 -1.000000 0.000000 0.000000 6558.dat
1 19 223.000100 -35.744600 1.999740 0.000001 -1.000000 0.000001 0.000001 0.000001 1.000000 -1.000000 -0.000001 0.000001 3749.dat
1 15 103.000000 -35.744720 11.999870 0.000001 0.000001 -1.000000 -1.000000 0.000001 -0.000001 0.000001 1.000000 0.000001 64871.dat
0 STEP
1 1 63.000080 -35.744830 -8.910000 -0.694660 0.000000 -0.719339 0.719339 -0.000001 -0.694660 -0.000001 -1.000000 0.000001 32271.dat
1 71 223.000000 -35.744600 -8.000270 0.000001 -0.000001 1.000000 -1.000000 -0.000001 0.000001 0.000001 -1.000000 -0.000001 60483.dat
1 71 63.000020 -35.744840 -8.300070 0.000000 -0.694659 0.719339 0.000000 0.719340 0.694659 -1.000000 0.000000 0.000000 4519.dat
0 STEP
1 1 3.000070 -35.744910 -8.000020 -0.000001 -0.000001 -1.000000 -1.000000 0.000001 0.000001 0.000001 1.000000 -0.000001 32526.dat
1 1 -76.999900 -75.744830 -8.000140 0.000000 0.000000 1.000000 0.000000 1.000000 0.000000 -1.000001 0.000000 0.000000 6558.dat
0 STEP
1 19 163.000000 -35.744660 -38.000220 0.000001 -1.000000 0.000001 0.000001 0.000001 1.000000 -1.000000 -0.000001 0.000001 3749.dat
1 0 -37.000000 -35.744840 -37.999980 0.000000 0.000000 -1.000000 0.000000 1.000000 0.000000 1.000000 0.000000 0.000000 2780.dat
1 0 202.999900 -35.744600 -38.000290 0.000000 0.000000 -1.000000 0.000000 1.000000 0.000000 1.000000 0.000000 0.000000 2780.dat
1 0 82.999950 -35.744720 -38.000160 0.000000 0.000000 -1.000000 0.000000 1.000000 0.000000 1.000000 0.000000 0.000000 2780.dat
1 15 103.000000 -35.744720 -28.000160 0.000001 0.000001 -1.000000 -1.000000 0.000001 -0.000001 0.000001 1.000000 0.000001 64871.dat
0 STEP
1 1 -17.000000 -45.744860 -48.000000 1.000000 0.000000 0.000000 0.000000 1.000000 0.000000 0.000000 0.000000 1.000000 3895.dat
1 1 274.220600 -132.646500 -47.999870 -0.804822 -0.000001 -0.593516 -0.593516 0.000001 0.804822 0.000000 1.000000 -0.000002 32271.dat
0 STEP
1 0 83.000020 -35.744780 21.999820 0.000000 0.000000 1.000000 0.000000 1.000000 0.000000 -1.000000 0.000000 0.000000 2780.dat
1 0 -37.000060 -35.744910 21.999940 0.000000 0.000000 1.000000 0.000000 1.000000 0.000000 -1.000000 0.000000 0.000000 2780.dat
1 0 203.000000 -35.744660 21.999820 0.000000 0.000000 1.000000 0.000000 1.000000 0.000000 -1.000000 0.000000 0.000000 2780.dat
1 19 163.000000 -35.744660 21.999820 -0.000001 1.000000 -0.000001 0.000001 0.000001 1.000000 1.000000 0.000001 -0.000001 3749.dat
0 STEP
1 16 267.010400 -32.038170 -7.818510 1.000000 0.000000 0.000000 0.000000 1.000000 0.000000 0.000000 0.000000 1.000000 submodel group 1
0 STEP
1 1 -17.000060 -45.744910 31.999940 -1.000000 0.000000 0.000000 0.000000 1.000000 0.000000 0.000000 0.000000 -1.000000 3895.dat
1 1 274.221900 -132.323300 32.000000 -0.804823 -0.000001 -0.593516 -0.593515 0.000001 0.804823 0.000000 1.000000 -0.000002 32271.dat
0 STEP
1 71 -76.999980 -35.744840 -66.339980 1.000000 0.000000 0.000001 0.000000 1.000000 0.000000 -0.000001 0.000000 1.000000 3713.dat
1 71 -76.999960 -35.744850 52.700100 1.000000 0.000000 0.000001 0.000000 1.000000 0.000000 -0.000001 0.000000 1.000000 3713.dat
1 71 -76.999980 -35.744850 -7.299950 0.000000 0.000000 1.000000 0.000000 1.000000 0.000000 -1.000000 0.000000 0.000000 44294.dat
1 15 -107.000000 -69.744850 -48.000050 0.000000 0.000000 1.000000 0.000000 1.000000 0.000000 -1.000001 0.000000 0.000000 3040b.dat
1 15 -107.000000 -69.744920 31.999880 0.000000 0.000000 1.000000 0.000000 1.000000 0.000000 -1.000001 0.000000 0.000000 3040b.dat
0 STEP
1 19 278.514000 -86.824410 64.240200 0.000000 -0.997565 0.069760 -0.000002 0.069760 0.997566 -1.000001 -0.000001 -0.000002 3749.dat
1 19 198.708700 -81.243580 -76.579790 0.000000 0.997565 0.069759 0.000002 -0.069759 0.997565 1.000001 0.000000 -0.000002 3749.dat
1 1 218.659900 -82.638790 -65.959850 0.000001 -0.997565 -0.069760 0.000001 0.069760 -0.997565 1.000001 0.000001 0.000001 32184.dat
1 1 258.562500 -85.429240 54.040180 -0.000001 0.997565 -0.069760 -0.000002 -0.069760 -0.997566 -1.000001 0.000000 0.000002 32184.dat
0 STEP
1 15 278.000000 -124.512000 -8.000000 0.000000 1.000000 0.000000 0.000000 0.000000 -1.000000 -1.000000 0.000000 0.000000 dx0058.dat.dat
1 1 308.610100 -124.037200 -7.924160 0.000000 1.000000 0.000000 -1.000000 0.000000 0.000000 0.000000 0.000000 1.000001 3738.dat
0 STEP
1 71 -15.436220 -244.889600 -38.000290 0.000000 0.000000 -1.000000 0.000000 1.000000 0.000000 1.000001 0.000000 0.000000 3673.dat
1 15 -42.797860 -169.714200 -28.000160 -0.939693 0.000001 -0.342020 -0.342021 -0.000001 0.939693 0.000001 1.000001 0.000001 64290.dat
1 71 -62.813790 -112.757000 -8.909940 0.000000 -0.986017 0.166647 -0.000001 0.166648 0.986017 -1.000001 0.000000 -0.000001 4519.dat
0 STEP
1 1 -8.595759 -263.683500 -8.000330 0.000000 0.000000 -1.000000 0.000000 1.000000 0.000000 1.000001 0.000000 0.000000 6558.dat
1 1 105.555300 -299.709300 -7.910420 0.299160 -0.000001 -0.954203 0.954204 0.000000 0.299160 -0.000001 -1.000001 0.000001 32271.dat
1 71 -22.276640 -226.095700 -8.000270 0.000000 -0.945520 -0.325564 0.000000 -0.325565 0.945521 -1.000001 0.000000 0.000000 4519.dat
0 STEP
1 71 -15.436190 -244.889600 21.999640 0.000000 0.000000 -1.000000 0.000000 1.000000 0.000000 1.000001 0.000000 0.000000 3673.dat
1 15 -42.797760 -169.714200 11.999750 -0.939693 0.000001 -0.342020 -0.342021 -0.000001 0.939693 0.000001 1.000001 0.000001 64290.dat
0 STEP
1 1 19.146800 -68.687080 54.240560 0.000000 0.241923 -0.970297 0.000002 0.970298 0.241923 1.000001 -0.000002 0.000000 6558.dat
1 15 -7.565940 -206.115000 33.240980 0.981629 -0.000002 0.190807 -0.190807 -0.000003 0.981630 -0.000001 -1.000001 -0.000003 64871.dat
1 71 -34.278840 -343.543200 43.241410 0.000000 0.190801 -0.981629 0.000002 0.981629 0.190801 1.000001 -0.000002 0.000000 3673.dat
0 STEP
1 19 198.708700 -81.243660 74.240200 0.000000 0.000000 1.000000 0.000000 1.000000 0.000000 -1.000001 0.000000 0.000000 32556.dat
1 19 178.757400 -79.848290 84.240340 -0.000001 0.997565 0.069757 0.000004 -0.069757 0.997566 1.000001 0.000001 -0.000004 3749.dat
1 71 178.757300 -79.848260 94.780380 -0.069757 0.000001 0.997565 -0.997566 -0.000003 -0.069757 0.000003 -1.000001 0.000001 60483.dat
1 15 158.806000 -78.453220 74.240340 -0.069759 0.000001 -0.997565 -0.997566 0.000003 0.069759 0.000003 1.000001 0.000001 64871.dat
0 STEP
1 15 -25.809910 -206.741800 -48.578720 -0.967710 0.000000 -0.252068 -0.252069 0.000006 0.967710 0.000002 1.000001 -0.000006 64871.dat
1 1 -61.099640 -71.262740 -66.579780 0.000001 0.031412 0.999507 0.000003 0.999507 -0.031412 -1.000000 0.000003 0.000001 6558.dat
1 71 9.479650 -342.221100 -58.577880 0.000000 0.000000 -1.000000 0.000000 1.000000 0.000000 1.000001 0.000000 0.000000 3673.dat
0 STEP
1 19 98.782550 -77.404620 -96.579940 0.000001 -0.998440 0.055821 -0.000002 0.055821 0.998441 -1.000001 -0.000002 -0.000002 3749.dat
1 19 118.751400 -78.521350 -86.579860 0.000000 0.000000 -1.000000 0.000000 1.000000 0.000000 1.000001 0.000000 0.000000 32556.dat
1 71 98.782550 -77.404900 -106.579900 -0.055821 0.000002 0.998440 -0.998441 -0.000004 -0.055821 0.000004 -1.000001 0.000002 60483.dat
1 15 78.797260 -76.637000 -86.579860 -0.038389 0.000001 -0.999263 -0.999264 0.000006 0.038389 0.000006 1.000001 0.000001 64871.dat
0 STEP
1 1 86.471210 -293.726100 -7.910420 0.000000 0.000000 1.000000 0.000000 1.000000 0.000000 -1.000001 0.000000 0.000000 6558.dat
1 1 48.303060 -281.759700 -7.910360 0.000000 0.000000 1.000000 0.000000 1.000000 0.000000 -1.000001 0.000000 0.000000 6558.dat
0 STEP
1 71 79.039760 -249.626400 -27.910440 0.956306 -0.000001 -0.292368 -0.292369 0.000000 -0.956306 0.000001 1.000000 0.000000 60484.dat
1 71 79.039820 -249.626400 12.089650 0.956306 0.000000 -0.292370 -0.292370 -0.000001 -0.956306 0.000000 1.000001 -0.000001 60484.dat
0 STEP
1 71 84.850230 -376.984300 21.378230 0.000000 0.000000 -1.000000 0.000000 1.000000 0.000000 1.000001 0.000000 0.000000 3673.dat
1 15 105.555600 -299.709900 11.378160 0.965926 -0.000001 -0.258818 -0.258817 0.000001 -0.965930 0.000001 1.000004 0.000001 64290.dat
1 71 105.555400 -299.709300 -8.910419 -0.000001 -0.954203 0.299160 0.000000 0.299160 0.954204 -1.000001 0.000001 0.000000 4519.dat
0 STEP
1 1 90.028030 -357.665400 -8.619989 0.000000 0.258821 0.965926 0.000000 0.965935 -0.258820 -1.000000 0.000000 0.000000 6558.dat
1 1 95.202460 -338.346400 -8.620570 0.000001 0.031413 0.999507 0.000003 0.999507 -0.031413 -1.000000 0.000003 0.000001 6558.dat
1 71 96.403270 -411.138200 -8.620049 0.000000 -0.965926 0.258820 0.000000 0.258819 0.965930 -1.000000 0.000000 0.000000 3713.dat
1 71 101.582700 -391.819900 -8.622439 0.000000 -0.965931 0.258821 0.000000 0.258819 0.965930 -1.000000 0.000000 0.000000 3713.dat
1 71 106.759100 -372.501400 -8.622380 0.000000 -0.965931 0.258821 0.000000 0.258819 0.965930 -1.000000 0.000000 0.000000 3713.dat
1 19 90.838700 -431.905700 -8.620049 0.965926 0.000000 0.258820 -0.258819 0.000000 0.965930 0.000000 -1.000000 0.000000 32269.dat
1 0 111.932400 -353.182600 -8.619989 0.258820 -0.965926 0.000000 0.965930 0.258819 0.000000 0.000000 0.000000 1.000000 32291.dat
1 71 101.579700 -391.819700 -8.620060 0.258820 0.000000 0.965926 0.965930 0.000000 -0.258819 0.000000 1.000000 0.000000 32073.dat
0 STEP
1 71 84.849750 -376.983300 -38.620530 0.000000 0.000000 -1.000000 0.000000 1.000000 0.000000 1.000001 0.000000 0.000000 3673.dat
1 15 105.555300 -299.709300 -28.620520 -0.965926 0.000001 -0.258820 0.258820 0.000001 -0.965926 -0.000001 -1.000001 -0.000001 64290.dat
0 STEP
1 15 88.076630 -129.942100 -68.620440 -0.857168 0.000000 0.515038 0.515038 0.000000 0.857168 0.000000 1.000001 0.000000 32524.dat
1 71 57.687440 -181.232100 -58.620480 0.000000 0.515040 -0.857167 0.000002 0.857167 0.515040 1.000001 -0.000001 -0.000001 3673.dat
1 15 91.974090 -201.833600 -48.620350 -0.515039 0.000001 -0.857167 -0.857167 0.000002 0.515039 0.000002 1.000001 0.000000 32316.dat
1 71 126.260800 -222.435200 -38.620470 0.000000 0.000000 1.000000 0.000000 1.000000 0.000000 -1.000001 0.000000 0.000000 3673.dat
0 STEP
1 15 148.932700 -114.143800 52.378020 0.551936 0.000001 -0.833887 -0.833887 0.000001 -0.551936 0.000000 1.000001 0.000001 32524.dat
1 71 98.899520 -147.260000 41.378000 0.000000 0.000000 -1.000000 0.000000 1.000000 0.000000 1.000001 0.000000 0.000000 3673.dat
1 15 112.580300 -184.847700 32.378060 -0.939694 0.000001 -0.342020 -0.342020 0.000001 0.939694 0.000001 1.000001 -0.000001 32316.dat
1 71 126.261100 -222.435500 21.378050 0.000000 0.000000 -1.000000 0.000000 1.000000 0.000000 1.000001 0.000000 0.000000 3673.dat
0 STEP
1 15 55.124470 -350.219000 31.378360 -0.669131 0.000001 -0.743145 -0.743145 0.000005 0.669131 0.000004 1.000001 -0.000003 32316.dat
1 19 25.399030 -323.453600 41.378120 -0.000001 0.601823 0.798629 0.000011 -0.798629 0.601823 1.000001 0.000009 -0.000006 3749.dat
1 1 25.399220 -323.453500 51.378260 -0.601823 0.000003 -0.798629 0.798629 -0.000010 -0.601823 -0.000009 -1.000001 0.000004 32140.dat
0 STEP
1 15 71.169030 -339.395600 -48.620540 -0.939693 0.000001 -0.342021 -0.342021 0.000001 0.939693 0.000001 1.000001 -0.000001 32316.dat
1 19 57.488210 -301.807900 -58.620480 0.000002 0.529922 0.848047 -0.000003 0.848047 -0.529922 -1.000001 -0.000001 0.000003 3749.dat
1 1 57.488270 -301.807900 -68.620560 -0.848047 0.000001 -0.529922 0.529923 -0.000002 -0.848047 -0.000002 -1.000001 0.000001 32140.dat
0 STEP
1 19 6.669140 -127.393800 43.241160 -0.000001 -0.173646 0.984808 0.000002 -0.984808 -0.173646 1.000001 0.000001 0.000001 3749.dat
1 19 -3.749690 -186.482500 43.240800 -0.000001 -0.173646 0.984808 0.000002 -0.984808 -0.173646 1.000001 0.000001 0.000001 3749.dat
1 0 -13.597780 -184.745900 73.241000 -0.984808 0.173647 0.000002 0.173647 0.984808 0.000000 -0.000002 0.000000 -1.000001 2780.dat
1 0 -3.179100 -125.658100 73.242030 -0.984808 0.173648 0.000002 0.173648 0.984808 0.000000 -0.000002 0.000000 -1.000001 2780.dat
1 0 6.669010 -127.394600 73.242100 0.984805 0.173647 -0.000002 -0.173647 0.984806 0.000001 0.000002 0.000000 1.000001 32014.dat
1 15 -19.972900 -163.313300 73.240940 0.000002 -0.984808 0.173647 -0.000001 0.173647 0.984809 -1.000001 -0.000002 -0.000001 32316.dat
1 4 1.459850 -156.937900 73.240940 -0.173647 0.984808 -0.000002 -0.984808 -0.173648 0.000001 0.000000 0.000002 1.000001 32062.dat
1 0 -3.749690 -186.482400 73.241000 -0.984808 -0.173648 -0.000002 0.173648 -0.984808 0.000001 -0.000002 0.000000 1.000001 32014.dat
0 STEP
1 15 -55.346170 -173.244800 -88.578990 0.000000 -0.965926 -0.258820 -0.000001 -0.258820 0.965926 -1.000001 0.000000 -0.000001 32316.dat
1 0 -56.039740 -132.019600 -88.579070 -0.965926 -0.258820 0.000000 -0.258820 0.965926 0.000000 0.000000 0.000000 -1.000001 2780.dat
1 0 -40.510140 -189.976300 -88.580530 -0.965926 -0.258820 0.000000 -0.258820 0.965926 0.000000 0.000000 0.000000 -1.000001 2780.dat
1 0 -30.850860 -187.388100 -88.580530 0.965926 0.258820 0.000000 0.258820 -0.965926 -0.000001 0.000000 0.000001 -1.000001 32014.dat
1 0 -46.380560 -129.431400 -88.579070 -0.965933 -0.258822 0.000000 -0.258822 0.965934 -0.000001 0.000000 -0.000001 -1.000001 32014.dat
1 19 -30.851290 -187.387500 -58.578860 -0.000001 0.258820 -0.965933 0.000000 -0.965934 -0.258821 -1.000001 0.000000 0.000001 3749.dat
1 19 -46.380530 -129.431400 -58.579040 -0.000001 0.258820 -0.965933 0.000000 -0.965934 -0.258821 -1.000001 0.000000 0.000001 3749.dat
1 4 -38.615910 -158.409400 -88.578760 -0.258822 0.965933 0.000000 0.965934 0.258822 -0.000001 -0.000001 0.000000 -1.000001 32062.dat
0 STEP
1 16 375.000000 -102.427100 42.000000 1.000000 0.000000 0.000000 0.000000 0.000000 1.000000 0.000000 -1.000000 0.000000 submodel group 9 copy copy copy
0 STEP
0 STEP
0 NOFILE
0 FILE SubModel Group 1
0 SubModel Group 1
0 Name:  SubModel Group 1
0 Author:  
0 CustomBrick
0 NumOfBricks:  10
1 47 -6.399660 -52.000150 -0.105650 0.000005 0.999997 0.000000 -1.000003 0.000001 0.000000 0.000000 0.000000 1.000008 6588.dat
1 71 -28.399480 -51.995860 1.858410 0.000000 0.997565 -0.069757 -0.000001 -0.069757 -0.997565 -1.000001 0.000000 0.000001 44294.dat
1 72 -28.400450 -51.999360 -0.115110 -0.069758 0.997563 0.000001 -0.997572 -0.069757 0.000001 0.000001 0.000000 1.000008 3648b.dat
1 14 -28.400510 -51.999050 24.764860 -0.069758 -0.997563 -0.000001 -0.997572 0.069757 -0.000001 0.000001 0.000000 -1.000008 32123a.dat
1 14 -28.400450 -51.999410 -25.875080 -0.069758 -0.997563 -0.000001 -0.997572 0.069757 -0.000001 0.000001 0.000000 -1.000008 32123a.dat
1 1 33.599640 -51.999050 -0.105650 -0.000003 1.000000 0.000000 1.000000 0.000003 0.000000 0.000000 0.000000 -1.000001 3709b.dat
0 STEP
1 71 11.600220 -57.000150 -0.105460 0.000003 0.999997 0.000000 -1.000003 0.000000 0.000000 0.000000 0.000000 1.000008 32209.dat
1 71 11.600280 -52.420200 -0.105460 0.000000 0.999997 0.000003 0.000000 0.000000 -1.000003 -1.000008 0.000000 0.000000 4716.dat
1 71 11.600040 -10.000010 -0.105460 0.000000 -1.000000 0.000000 -0.000001 0.000000 1.000000 -1.000001 0.000000 -0.000001 3713.dat
1 14 11.600400 -85.000110 -0.105400 0.999997 0.000000 0.000003 0.000000 0.000000 -1.000003 0.000000 1.000008 0.000000 32123a.dat
0 STEP
0 NOFILE
0 FILE SubModel Group 9 Copy Copy Copy
0 SubModel Group 9 Copy Copy Copy
0 Name:  SubModel Group 9 Copy Copy Copy
0 Author:  
0 CustomBrick
0 NumOfBricks:  3
1 72 10.000000 -1.128810 -10.000000 1.000000 0.000000 0.000000 0.000000 0.000000 -1.000000 0.000000 1.000000 0.000000 dch003.dat
1 71 -27.466620 -79.717990 29.427020 1.000000 0.000000 0.000000 0.000000 0.000000 -1.000000 0.000000 1.000000 0.000000 dch004.dat
1 25 7.837010 13.484720 -9.965000 1.000000 0.000000 0.000000 0.000000 0.000000 -1.000000 0.000000 1.000000 0.000000 dch005.dat
0 NOFILE
