0 FILE 动感单车.io
0 Untitled Model
0 Name:  动感单车
0 Author:  
0 CustomBrick
0 NumOfBricks:  91
1 1 0.000000 -24.000000 -30.000000 1.000000 0.000000 0.000000 0.000000 1.000000 0.000000 0.000000 0.000000 1.000000 3703.dat
1 1 -40.000000 -48.000000 -30.000120 1.000000 0.000000 0.000000 0.000000 1.000000 0.000000 0.000000 0.000000 1.000000 3895.dat
1 1 120.000000 -48.000000 -30.000120 1.000000 0.000000 0.000000 0.000000 1.000000 0.000000 0.000000 0.000000 1.000000 3701.dat
0 STEP
1 1 -80.000000 -72.000000 -30.000120 1.000000 0.000000 0.000000 0.000000 1.000000 0.000000 0.000000 0.000000 1.000000 3702.dat
1 1 100.000000 -72.000000 -30.000120 1.000000 0.000000 0.000000 0.000000 1.000000 0.000000 0.000000 0.000000 1.000000 3894.dat
0 STEP
1 72 -120.000000 -62.000000 -60.580080 0.000000 1.000000 0.000000 1.000000 0.000000 0.000000 0.000000 0.000000 -1.000000 3647.dat
1 14 -120.000000 -62.000000 -45.200200 0.000000 1.000000 0.000000 -1.000000 0.000000 0.000000 0.000000 0.000000 1.000000 32123a.dat
1 14 -120.000000 -62.000000 -76.320190 0.000000 1.000000 0.000000 -1.000000 0.000000 0.000000 0.000000 0.000000 1.000000 32123a.dat
1 71 -120.000000 -62.000000 -70.050110 0.000000 0.000000 1.000000 0.000000 1.000000 0.000000 -1.000000 0.000000 0.000000 32073.dat
0 STEP
1 14 -20.000000 -62.000000 -45.630250 0.766045 -0.642788 0.000000 -0.642788 -0.766045 0.000000 0.000000 0.000000 -1.000000 32123a.dat
1 14 -80.000000 -62.000000 -45.630250 1.000000 0.000000 0.000000 0.000000 -1.000000 0.000000 0.000000 0.000000 -1.000000 32123a.dat
1 71 -80.000000 -62.000020 -61.180120 0.000000 0.000000 1.000000 0.000000 1.000000 0.000000 -1.000000 0.000000 0.000000 32073.dat
1 0 -20.000000 -62.000000 -60.490120 0.000000 0.642788 0.766045 0.000000 0.766045 -0.642788 -1.000000 0.000000 0.000000 3706.dat
0 STEP
1 72 -80.000000 -62.000020 -60.280220 1.000000 0.000000 0.000000 0.000000 1.000000 0.000000 0.000000 0.000000 1.000000 3648b.dat
1 72 -20.000000 -62.000020 -60.750240 0.766045 0.642788 0.000000 -0.642788 0.766045 0.000000 0.000000 0.000000 1.000000 3648b.dat
1 14 -20.000000 -62.000000 -75.400210 0.766045 -0.642788 0.000000 -0.642788 -0.766045 0.000000 0.000000 0.000000 -1.000000 32123a.dat
1 14 -80.000000 -62.000020 -76.180110 1.000000 0.000000 0.000000 0.000000 -1.000000 0.000000 0.000000 0.000000 -1.000000 32123a.dat
0 STEP
1 1 120.000000 -47.999980 -91.050110 1.000000 0.000000 0.000000 0.000000 1.000000 0.000000 0.000000 0.000000 1.000000 3701.dat
1 1 0.000000 -24.000020 -91.050110 1.000000 0.000000 0.000000 0.000000 1.000000 0.000000 0.000000 0.000000 1.000000 3703.dat
1 1 -40.000000 -47.999980 -91.050110 1.000000 0.000000 0.000000 0.000000 1.000000 0.000000 0.000000 0.000000 1.000000 3895.dat
1 1 -80.000000 -72.000000 -91.050110 1.000000 0.000000 0.000000 0.000000 1.000000 0.000000 0.000000 0.000000 1.000000 3702.dat
0 STEP
1 0 -100.000000 -62.000000 -100.840100 0.000000 0.000000 -1.000000 0.000000 1.000000 0.000000 1.000000 0.000000 0.000000 2780.dat
1 0 -140.000000 -62.000000 -100.840200 0.000000 0.000000 1.000000 0.000000 1.000000 0.000000 -1.000000 0.000000 0.000000 2780.dat
1 14 -80.000000 -62.000020 -106.000200 -1.000000 0.000000 0.000000 0.000000 1.000000 0.000000 0.000000 0.000000 -1.000000 32123a.dat
0 STEP
1 15 -120.000000 -62.000000 -102.000000 -1.000000 0.000000 0.000000 0.000000 1.000000 0.000000 0.000000 0.000000 -1.000000 dx0056.dat.dat
0 STEP
1 1 100.000000 -62.000000 -50.000120 0.000000 0.000000 1.000000 0.000000 1.000000 0.000000 -1.000000 0.000000 0.000000 6558.dat
1 1 -35.320890 -49.144220 -111.490300 0.000000 0.766045 0.642788 0.000000 -0.642788 0.766045 1.000000 0.000000 0.000000 32184.dat
0 STEP
1 0 59.999880 -162.000000 -60.840210 0.000000 0.000000 -1.000000 0.000000 1.000000 0.000000 1.000000 0.000000 0.000000 2780.dat
1 1 119.999900 -62.000000 -70.840090 0.000000 0.000000 1.000000 0.000000 1.000000 0.000000 -1.000000 0.000000 0.000000 6558.dat
1 1 59.999880 -62.000360 -50.840100 1.000000 0.000000 0.000000 0.000000 0.000000 1.000010 0.000000 -1.000010 0.000000 32009.dat
0 STEP
1 19 139.999900 -61.999980 -80.840210 -0.000001 1.000000 -0.000001 0.000001 0.000001 1.000000 1.000000 0.000001 -0.000001 3749.dat
1 1 59.999880 -62.000020 -70.840090 1.000000 0.000000 0.000000 0.000000 0.000000 1.000000 0.000000 -1.000000 0.000000 32009.dat
0 STEP
1 1 99.999880 -72.000000 -90.840090 1.000000 0.000000 0.000000 0.000000 1.000000 0.000000 0.000000 0.000000 1.000000 3894.dat
0 STEP
1 1 -40.000090 -96.000000 -90.840210 1.000000 0.000000 0.000000 0.000000 1.000000 0.000000 0.000000 0.000000 1.000000 3895.dat
1 1 -120.000100 -120.000000 -90.840270 1.000000 0.000000 0.000000 0.000000 1.000000 0.000000 0.000000 0.000000 1.000000 3701.dat
0 STEP
1 1 49.999880 -222.001800 -86.840270 0.000000 1.000000 0.000000 -1.000000 0.000000 0.000000 0.000000 0.000000 1.000000 3702.dat
1 0 60.000490 -182.000200 -76.841190 0.000000 0.000000 -1.000003 0.000000 0.999985 0.000000 0.999987 0.000000 0.000000 2780.dat
1 0 59.999880 -202.001800 -76.840280 0.000000 0.000000 -1.000000 0.000000 1.000000 0.000000 1.000000 0.000000 0.000000 2780.dat
0 STEP
1 1 -40.000000 -96.000000 -30.000120 1.000000 0.000000 0.000000 0.000000 1.000000 0.000000 0.000000 0.000000 1.000000 3895.dat
1 1 -120.000000 -120.000000 -30.000240 1.000000 0.000000 0.000000 0.000000 1.000000 0.000000 0.000000 0.000000 1.000000 3701.dat
0 STEP
1 71 59.999880 -162.001800 -96.840530 0.000000 0.000000 1.000000 0.000000 0.999996 0.000000 -1.000007 0.000000 0.000000 3673.dat
1 1 -78.416900 -241.499200 -106.840100 0.054595 0.000001 0.998509 -0.998514 0.000001 0.054596 -0.000001 -1.000000 0.000001 6629.dat
1 19 60.000180 -282.001300 -96.840210 0.000001 -0.707111 -0.707101 0.000001 -0.707095 0.707106 -1.000000 -0.000001 0.000000 3749.dat
1 15 20.219010 -157.820600 -106.840600 -0.104529 0.000001 -0.994522 -0.994522 0.000001 0.104529 0.000001 1.000000 0.000001 32316.dat
0 STEP
1 19 -50.641820 -36.288520 -121.490300 -0.000001 0.766045 0.642788 0.000001 -0.642788 0.766045 1.000000 0.000001 -0.000001 3749.dat
1 15 -35.090940 -95.683860 -126.840700 0.965926 -0.000001 -0.258818 0.258818 -0.000001 0.965926 -0.000001 -1.000000 -0.000001 32524.dat
1 71 -19.561860 -153.639400 -116.840600 0.000000 0.173648 -0.984808 0.000000 0.984808 0.173648 1.000000 0.000000 0.000000 3673.dat
0 STEP
1 1 50.000000 -221.999800 -30.840400 0.000000 1.000003 0.000000 -0.999985 0.000000 0.000000 0.000000 0.000000 0.999987 3702.dat
1 0 59.998480 -182.002400 -40.840270 0.000000 0.000000 -1.000000 0.000000 1.000000 0.000000 1.000000 0.000000 0.000000 2780.dat
1 0 60.000120 -202.002100 -40.840270 0.000000 0.000000 -1.000003 0.000000 1.000000 0.000000 1.000003 0.000000 0.000000 2780.dat
0 STEP
1 19 60.000120 -281.998400 -16.837830 -0.000001 0.766047 -0.642783 0.000001 0.642769 0.766035 0.999985 0.000000 -0.000001 3749.dat
1 71 60.000000 -162.000500 -20.840270 0.000000 0.000000 -1.000000 0.000000 1.000000 0.000000 1.000000 0.000000 0.000000 3673.dat
1 1 -78.416690 -241.499700 -6.837950 0.054595 0.000000 0.998508 -0.998507 0.000000 0.054597 0.000000 -1.000000 0.000000 6629.dat
1 15 26.172120 -183.345000 -10.845520 0.533665 0.000001 -0.845696 -0.845682 0.000001 -0.533659 0.000000 0.999984 0.000001 32316.dat
1 1 -4.679080 -74.855740 -9.890200 0.000000 -0.766044 -0.642788 -0.000001 0.642788 -0.766044 1.000000 0.000000 -0.000001 32184.dat
0 STEP
1 71 -7.655700 -204.691300 -0.845150 0.000001 -0.605341 -0.795966 0.000000 0.795966 -0.605342 1.000000 0.000001 0.000000 3673.dat
1 19 10.644010 -87.711960 0.104680 0.000000 0.766048 -0.642789 0.000001 -0.642789 -0.766038 -1.000009 -0.000001 -0.000001 3749.dat
1 15 1.730100 -145.430000 9.154600 0.987689 -0.000001 0.156433 -0.156433 -0.000001 0.987689 -0.000001 -1.000000 -0.000002 32524.dat
0 STEP
1 1 73.999880 -282.001800 -56.840270 0.000000 1.000000 0.000000 0.000000 0.000000 -1.000000 -1.000000 0.000000 0.000000 3709b.dat
1 1 49.999880 -292.001800 -56.840270 0.000000 1.000000 0.000000 0.000000 0.000000 1.000000 1.000000 0.000000 0.000000 3700.dat
1 1 50.000180 -272.001200 -56.841980 0.000000 1.000000 0.000000 0.000000 0.000000 1.000000 1.000000 0.000000 0.000000 3700.dat
0 STEP
1 1 41.999880 -282.001800 -56.840400 0.000000 1.000000 0.000000 0.000000 0.000000 -1.000000 -1.000000 0.000000 0.000000 3709b.dat
1 71 60.000000 -311.690600 -56.840520 0.000000 1.000000 0.000000 -0.000001 0.000000 1.000000 1.000000 0.000000 0.000001 3713.dat
1 71 60.000000 -252.081500 -56.840400 0.000000 1.000000 0.000000 -0.000001 0.000000 1.000000 1.000000 0.000000 0.000001 3713.dat
1 0 60.000000 -301.951100 -56.840270 0.000000 0.000000 -1.000000 1.000000 0.000000 0.000000 0.000000 -1.000000 0.000000 3706.dat
0 STEP
1 15 50.000000 -332.101100 -56.840270 0.000000 1.000000 0.000000 0.000000 0.000000 -1.000000 -1.000000 0.000000 0.000000 32064a.dat
1 71 60.000000 -357.131000 -56.840270 1.000000 0.000000 0.000000 0.000000 0.000000 -1.000000 0.000000 1.000000 0.000000 4185.dat
1 71 60.000000 -346.951100 -56.840270 0.000000 1.000000 0.000000 0.000000 0.000000 1.000000 1.000000 0.000000 0.000000 4185.dat
0 STEP
1 14 -58.447820 -240.405100 -20.577390 -0.740423 0.672128 0.000000 -0.672125 -0.740425 0.000000 0.000000 0.000000 1.000000 32123a.dat
1 14 -58.450500 -240.408300 -90.057130 -0.740428 0.672126 0.000000 -0.672127 -0.740430 0.000000 0.000000 0.000000 1.000000 32123a.dat
1 4 -71.889010 -225.599500 -60.447020 0.000000 0.740433 -0.672129 0.000000 0.672131 0.740434 1.000000 0.000000 0.000000 32039.dat
1 4 -78.610500 -218.194300 -60.447020 -0.672129 0.740433 0.000000 0.740434 0.672131 0.000000 0.000000 0.000000 -1.000000 32062.dat
1 71 -58.448300 -240.401000 14.952580 0.672129 0.740429 0.000000 -0.740414 0.672122 0.000000 0.000000 0.000000 0.999984 3713.dat
1 71 -58.447820 -240.405100 -125.053700 -0.672128 0.740423 0.000000 0.740425 0.672126 0.000000 0.000000 0.000000 -1.000000 3713.dat
1 0 -58.446500 -240.407900 -54.627320 0.000000 0.740428 0.672126 0.000000 0.672127 -0.740429 -1.000000 0.000000 0.000000 3707.dat
0 STEP
1 19 -91.370010 -189.259700 -60.447020 0.740433 -0.000001 0.672129 0.672131 -0.000003 -0.740434 0.000003 1.000000 -0.000002 3749.dat
1 0 -98.774280 -195.980700 -60.447020 0.740433 0.000002 -0.672129 0.672131 0.000002 0.740434 0.000003 -1.000000 0.000000 32013.dat
1 0 -122.928200 -109.862000 -60.447820 -0.000002 0.740424 -0.672140 -0.000004 0.672140 0.740425 1.000000 0.000004 0.000002 32013.dat
1 0 -69.157200 -169.095600 -60.447020 -0.000001 0.672138 0.740426 -0.000003 -0.740426 0.672138 1.000000 -0.000002 0.000002 32014.dat
1 71 -96.042530 -139.479000 -60.447880 0.672137 0.740419 0.000001 -0.740422 0.672137 -0.000001 -0.000002 0.000000 1.000000 4519.dat
0 STEP
1 1 129.999900 -96.000000 -60.840100 0.000000 0.000000 1.000000 0.000000 1.000000 0.000000 -1.000000 0.000000 0.000000 3701.dat
1 1 150.000000 -96.000000 -60.840100 0.000000 0.000000 1.000000 0.000000 1.000000 0.000000 -1.000000 0.000000 0.000000 3701.dat
0 STEP
1 14 -119.999900 -110.001000 -45.500240 0.000000 1.000000 0.000000 -1.000015 0.000000 0.000000 0.000000 0.000000 1.000016 32123a.dat
1 14 -120.000000 -110.000000 -106.430100 0.000000 1.000000 0.000000 -1.000000 0.000000 0.000000 0.000000 0.000000 1.000000 32123a.dat
1 14 -119.999900 -110.001000 -14.430120 0.000000 1.000000 0.000000 -1.000015 0.000000 0.000000 0.000000 0.000000 1.000015 32123a.dat
1 14 -80.000000 -62.000000 -15.840210 0.000000 1.000000 0.000000 -1.000000 0.000000 0.000000 0.000000 0.000000 1.000000 32123a.dat
1 14 -119.999900 -110.001000 -75.700200 0.000000 1.000000 0.000000 -1.000015 0.000000 0.000000 0.000000 0.000000 1.000016 32123a.dat
1 71 -120.000000 -110.000000 -59.430120 0.000000 0.000000 1.000000 0.000000 1.000000 0.000000 -1.000000 0.000000 0.000000 32073.dat
0 STEP
1 16 79.000000 23.000000 -343.000000 0.000000 0.000000 -1.000000 0.000000 1.000000 0.000000 1.000000 0.000000 0.000000 submodel group 9 copy copy copy
0 STEP
0 STEP
0 NOFILE
0 FILE SubModel Group 9 Copy Copy Copy
0 SubModel Group 9 Copy Copy Copy
0 Name:  SubModel Group 9 Copy Copy Copy
0 Author:  
0 CustomBrick
0 NumOfBricks:  3
1 72 10.000000 -1.128810 -10.000000 1.000000 0.000000 0.000000 0.000000 0.000000 -1.000000 0.000000 1.000000 0.000000 dch003.dat
1 71 -27.466620 -79.717990 29.427020 1.000000 0.000000 0.000000 0.000000 0.000000 -1.000000 0.000000 1.000000 0.000000 dch004.dat
1 25 7.837010 13.484720 -9.965000 1.000000 0.000000 0.000000 0.000000 0.000000 -1.000000 0.000000 1.000000 0.000000 dch005.dat
0 NOFILE
