0 Untitled Model
0 Name:  代步车
0 Author:  
0 CustomBrick
0 NumOfBricks:  40
1 71 44.546240 -74.803890 -146.180700 0.000000 0.000000 0.999998 0.000000 1.000000 0.000000 -1.000002 -0.000001 0.000000 32073.dat
1 0 44.545820 -74.804020 -144.794100 -0.999998 0.000000 -0.000001 0.000000 1.000000 0.000000 0.000001 -0.000001 -1.000002 30391.dat
1 71 44.546240 -74.803890 -145.050700 0.000000 0.999998 0.000000 1.000000 0.000000 0.000000 -0.000001 0.000000 -1.000002 55982.dat
0 STEP
1 1 -35.754680 -189.485000 -176.000800 -0.819149 0.000001 -0.573577 0.573577 0.000000 -0.819150 0.000000 -1.000002 0.000000 32009.dat
1 14 44.546330 -74.803900 -191.340700 -0.000001 0.999998 0.000000 -1.000000 0.000000 0.000000 0.000001 0.000000 1.000002 32123a.dat
0 STEP
1 0 21.539740 -108.397800 -186.000200 0.000000 0.000000 -0.999998 0.000000 1.000000 0.000000 1.000002 -0.000001 0.000000 2780.dat
1 4 21.539730 -108.397800 -196.000200 0.562217 -0.826987 0.000000 0.826988 0.562217 0.000000 -0.000001 0.000000 1.000002 42003.dat
0 STEP
1 71 5.000000 -97.153480 -176.000000 -0.430657 -0.000001 -0.902516 -0.902516 -0.000001 0.430657 -0.000001 1.000000 0.000000 33299.dat
1 19 5.000050 -97.153420 -186.000200 0.000000 0.902514 0.430657 0.000001 -0.430657 0.902515 1.000002 0.000000 -0.000002 3749.dat
0 STEP
1 15 -32.224340 -119.911400 -156.000300 -0.999604 0.000001 0.028084 0.028084 -0.000001 0.999605 0.000001 1.000002 0.000000 32316.dat
1 71 -33.347560 -159.895600 -166.000400 -0.000001 0.819149 0.573577 0.000000 -0.573576 0.819151 1.000002 0.000001 -0.000001 3673.dat
0 STEP
1 0 -31.662620 -99.919300 -146.000200 0.000000 0.028085 -0.999604 0.000000 0.999605 0.028085 1.000001 -0.000001 0.000000 2780.dat
1 0 -33.349340 -139.895600 -146.000700 0.000000 0.000001 -1.000006 0.000000 1.000003 0.000000 1.000010 -0.000001 0.000000 2780.dat
1 15 -32.225430 -119.911400 -136.001500 0.999612 -0.000001 0.028086 -0.028086 -0.000001 0.999605 0.000000 -1.000009 -0.000002 32316.dat
0 STEP
1 0 -101.286600 -143.598900 -145.000200 0.000001 0.573577 0.819151 0.000000 0.819151 -0.573577 -1.000004 0.000000 0.000000 3706.dat
1 71 -33.349430 -159.895800 -126.000400 0.000001 -0.819160 -0.573580 0.000000 -0.573578 0.819158 -1.000012 0.000000 0.000000 3673.dat
0 STEP
1 1 -101.286600 -143.598900 -156.780500 -0.573577 0.000001 0.819150 -0.819151 0.000000 -0.573576 0.000000 -1.000002 0.000000 6629.dat
1 0 -68.520610 -166.542100 -166.000400 -0.000001 0.573577 -0.819149 0.000000 0.819151 0.573576 1.000002 0.000000 -0.000001 2780.dat
0 STEP
1 0 -18.066490 -240.935300 -146.780200 0.000000 0.000000 -0.999999 0.000000 1.000000 -0.000001 1.000004 -0.000001 0.000000 2780.dat
1 0 -35.754660 -189.485100 -146.780400 -0.000001 0.573577 -0.819149 0.000000 0.819151 0.573577 1.000002 0.000000 -0.000001 2780.dat
0 STEP
1 1 -101.286700 -143.598900 -136.600400 -0.573577 0.000001 0.819150 -0.819151 0.000000 -0.573576 0.000000 -1.000002 0.000000 6629.dat
1 0 -68.520600 -166.542100 -126.600300 -0.000001 0.573577 -0.819149 0.000000 0.819151 0.573576 1.000002 0.000000 -0.000001 2780.dat
0 STEP
1 1 -35.754740 -189.485200 -116.530400 -0.819149 0.000001 -0.573577 0.573577 0.000000 -0.819151 0.000000 -1.000002 0.000000 32009.dat
1 14 44.546380 -74.803910 -101.590500 -0.000001 0.999998 0.000000 -0.999999 0.000000 0.000000 0.000001 0.000000 1.000002 32123a.dat
0 STEP
1 71 4.413570 -98.329570 -116.001700 0.460058 0.000001 -0.887886 0.887887 0.000001 0.460058 0.000001 -1.000002 0.000000 33299.dat
1 19 4.413580 -98.329540 -106.001700 0.000000 0.887887 -0.460058 -0.000001 -0.460058 -0.887888 -1.000002 0.000000 0.000001 3749.dat
0 STEP
1 0 21.603060 -107.570000 -106.530300 0.000000 0.000000 -0.999998 0.000000 1.000000 0.000000 1.000001 -0.000001 0.000000 2780.dat
1 4 21.603060 -107.570000 -96.530230 -0.469470 -0.882947 0.000000 -0.882947 0.469470 0.000000 0.000001 0.000000 -1.000002 42003.dat
0 STEP
1 15 -117.669300 -132.127700 -196.001400 -0.573576 0.000001 -0.819150 -0.819152 0.000000 0.573575 0.000001 1.000002 0.000001 32524.dat
1 4 -84.903140 -155.070700 -196.001400 -0.000001 0.819150 0.573576 0.000001 -0.573576 0.819152 1.000002 0.000001 -0.000002 32054.dat
0 STEP
1 71 -166.818500 -97.712940 -215.860300 0.819150 0.573577 0.000000 -0.573576 0.819151 -0.000001 -0.000001 0.000000 1.000002 3713.dat
1 71 -166.818600 -97.712920 -176.170100 0.819151 0.573577 0.000000 -0.573577 0.819151 -0.000001 -0.000001 0.000000 1.000004 3713.dat
1 0 -166.818500 -97.713030 -145.860200 0.000001 0.573577 0.819151 0.000000 0.819151 -0.573577 -1.000004 0.000000 0.000000 3707.dat
0 STEP
1 0 -166.818600 -97.713130 -146.619900 -0.819151 -0.573577 -0.000001 0.573577 -0.819152 0.000000 0.000000 0.000000 1.000004 44309.dat
1 71 -166.818500 -97.713050 -146.620300 -0.573577 0.819151 -0.000001 -0.819151 -0.573577 0.000000 0.000000 0.000000 1.000004 56145.dat
0 STEP
1 71 -166.818600 -97.712970 -116.100300 0.819151 0.573577 0.000000 -0.573577 0.819151 -0.000001 -0.000001 0.000000 1.000004 3713.dat
1 71 -166.818500 -97.712940 -136.350300 0.819151 0.573577 0.000000 -0.573577 0.819151 -0.000001 -0.000001 0.000000 1.000004 3713.dat
0 STEP
1 15 -117.669700 -132.127500 -96.500270 -0.573576 0.000001 -0.819151 -0.819152 0.000000 0.573576 0.000001 1.000004 0.000001 32524.dat
0 STEP
1 71 -166.818600 -97.713000 -75.859920 0.819150 0.573577 0.000000 -0.573576 0.819151 -0.000001 0.000000 0.000000 1.000002 3713.dat
1 4 -84.903450 -155.070600 -96.500430 -0.000001 0.819149 -0.573578 0.000000 -0.573577 -0.819150 -1.000002 -0.000001 0.000001 32054.dat
0 STEP
0 STEP
