0 Untitled Model
0 Name:  钉耙
0 Author:  
0 CustomBrick
0 NumOfBricks:  36
1 15 -130.000000 -9.999940 -150.000000 -1.000001 0.000001 -0.000001 -0.000001 -1.000000 -0.000001 -0.000001 -0.000001 1.000000 32524.dat
1 1 -130.000000 -29.999910 -149.999800 0.000000 -1.000001 0.000000 1.000000 0.000000 0.000000 0.000000 0.000000 1.000000 6558.dat
1 1 -130.000000 -29.999940 -190.000000 0.000000 0.000000 1.000001 1.000000 0.000000 0.000000 0.000000 1.000000 0.000000 6558.dat
1 1 -130.000000 -29.999920 -170.000000 0.000000 0.000000 1.000001 1.000000 0.000000 0.000000 0.000000 1.000000 0.000000 6558.dat
1 1 -130.000000 -29.999880 -109.999800 0.000000 -1.000001 0.000000 1.000000 0.000000 0.000000 0.000000 0.000000 1.000000 6558.dat
1 15 -129.999500 -30.000040 -309.999900 1.000001 -0.000001 0.000001 -0.000001 -1.000000 -0.000001 0.000001 0.000001 -1.000000 64871.dat
1 15 -130.000200 -29.999960 -9.999849 -1.000001 0.000001 -0.000001 -0.000001 -1.000000 -0.000001 -0.000001 -0.000001 1.000000 64871.dat
0 STEP
1 15 -130.000200 -49.999920 -149.999700 1.000001 -0.000001 0.000001 -0.000001 -1.000000 -0.000001 0.000001 0.000001 -1.000000 32524.dat
0 STEP
1 72 -130.000300 -55.000100 150.000200 1.000001 0.000000 0.000000 0.000000 -1.000000 0.000000 0.000000 0.000000 -1.000000 99773.dat
1 72 -130.000300 -45.000080 150.000200 1.000001 0.000000 0.000000 0.000000 -1.000000 0.000000 0.000000 0.000000 -1.000000 99773.dat
1 0 -130.000300 -40.000090 130.000200 0.000000 0.000000 -1.000001 1.000000 0.000000 0.000000 0.000000 -1.000000 0.000000 2780.dat
1 0 -130.000300 -40.000070 110.000100 0.000000 0.000000 -1.000001 1.000000 0.000000 0.000000 0.000000 -1.000000 0.000000 2780.dat
0 STEP
1 0 -110.000300 -40.000090 150.000200 0.000000 0.000000 -1.000001 1.000000 0.000000 0.000000 0.000000 -1.000000 0.000000 2780.dat
1 0 -150.000400 -40.000090 150.000200 0.000000 0.000000 -1.000001 1.000000 0.000000 0.000000 0.000000 -1.000000 0.000000 2780.dat
1 15 -130.000400 -30.000070 150.000200 0.000001 0.000001 -1.000001 0.000001 1.000000 0.000001 1.000000 -0.000001 0.000001 40490.dat
0 STEP
1 0 -190.000500 -40.000020 150.000200 0.000000 0.000000 -1.000001 1.000000 0.000000 0.000000 0.000000 -1.000000 0.000000 2780.dat
1 0 -210.000500 -39.999990 150.000200 0.000000 0.000000 -1.000001 1.000000 0.000000 0.000000 0.000000 -1.000000 0.000000 2780.dat
1 0 -50.000290 -40.000150 150.000100 0.000000 0.000000 -1.000001 1.000000 0.000000 0.000000 0.000000 -1.000000 0.000000 2780.dat
1 0 -70.000300 -40.000130 150.000100 0.000000 0.000000 -1.000001 1.000000 0.000000 0.000000 0.000000 -1.000000 0.000000 2780.dat
1 15 -230.000600 -49.999980 150.000200 0.000001 0.000001 -1.000001 0.000001 1.000000 0.000001 1.000000 -0.000001 0.000001 32316.dat
1 15 -30.000330 -50.000180 150.000100 0.000001 0.000001 -1.000001 0.000001 1.000000 0.000001 1.000000 -0.000001 0.000001 32316.dat
0 STEP
1 1 -30.000320 -30.000160 150.000100 0.000001 0.000001 1.000000 0.000001 1.000000 -0.000001 -1.000000 0.000001 0.000001 32140.dat
1 1 -230.000600 -28.369980 150.000200 -0.000001 -0.000001 -1.000001 -0.000001 -1.000000 0.000001 -1.000000 0.000001 0.000001 32140.dat
1 19 -230.000600 -39.999980 150.000200 -0.000001 1.000001 -0.000001 1.000000 0.000001 -0.000001 -0.000001 -0.000001 -1.000000 3749.dat
1 19 -30.000330 -40.000170 150.000100 -0.000001 1.000001 -0.000001 1.000000 0.000001 -0.000001 -0.000001 -0.000001 -1.000000 3749.dat
1 0 -290.000700 -18.369940 130.000300 0.000000 0.000000 -1.000001 1.000000 0.000000 0.000000 0.000000 -1.000000 0.000000 2780.dat
1 0 29.999740 -20.000200 130.000200 0.000000 0.000000 -1.000001 1.000000 0.000000 0.000000 0.000000 -1.000000 0.000000 2780.dat
1 1 -10.000310 -30.000180 150.000100 0.000000 0.000000 1.000001 1.000000 0.000000 0.000000 0.000000 1.000000 0.000000 6558.dat
1 1 -250.000600 -29.999960 150.000200 0.000000 0.000000 1.000001 1.000000 0.000000 0.000000 0.000000 1.000000 0.000000 6558.dat
0 STEP
1 15 -129.999500 -10.000160 -449.999900 0.000001 0.000001 -1.000001 0.000001 1.000000 0.000001 1.000000 -0.000001 0.000001 32316.dat
1 1 -129.999500 -30.000160 -449.999900 0.000000 0.000000 1.000001 1.000000 0.000000 0.000000 0.000000 1.000000 0.000000 6558.dat
0 STEP
1 0 -89.999490 -20.000200 -449.999900 0.000000 0.000000 -1.000001 1.000000 0.000000 0.000000 0.000000 -1.000000 0.000000 2780.dat
1 0 -149.999600 -20.000140 -449.999900 0.000000 0.000000 -1.000001 1.000000 0.000000 0.000000 0.000000 -1.000000 0.000000 2780.dat
1 15 -169.999600 -30.000120 -449.999800 0.000001 0.000001 -1.000001 0.000001 1.000000 0.000001 1.000000 -0.000001 0.000001 32523.dat
1 15 -89.999490 -30.000200 -449.999900 0.000001 0.000001 -1.000001 0.000001 1.000000 0.000001 1.000000 -0.000001 0.000001 32523.dat
0 STEP
1 15 -129.999500 -50.000160 -449.999600 0.000001 0.000001 -1.000001 0.000001 1.000000 0.000001 1.000000 -0.000001 0.000001 32316.dat
0 STEP
0 STEP
