0 Untitled Model
0 Name:  齿轮连杆
0 Author:  
0 CustomBrick
0 NumOfBricks:  44
1 1 -99.999950 -31.999980 -9.999949 1.000000 0.000000 0.000000 0.000000 1.000000 0.000000 0.000000 0.000000 1.000000 3703.dat
0 STEP
1 1 -200.000000 -102.000100 -29.999950 -1.000000 0.000001 0.000001 0.000001 0.000001 1.000000 0.000001 1.000000 -0.000001 32526.dat
1 1 0.000160 -102.000100 -29.999890 1.000000 -0.000001 -0.000001 0.000001 0.000001 1.000000 -0.000001 -1.000000 0.000001 32526.dat
1 1 0.000100 -21.999980 -29.999890 0.000000 0.000000 1.000000 0.000000 1.000000 0.000000 -1.000000 0.000000 0.000000 6558.dat
1 1 40.000070 -21.999980 -29.999890 0.000000 0.000000 1.000000 0.000000 1.000000 0.000000 -1.000000 0.000000 0.000000 6558.dat
1 1 -240.000100 -21.999980 -30.000010 0.000000 0.000000 1.000000 0.000000 1.000000 0.000000 -1.000000 0.000000 0.000000 6558.dat
1 1 -200.000000 -21.999980 -30.000010 0.000000 0.000000 1.000000 0.000000 1.000000 0.000000 -1.000000 0.000000 0.000000 6558.dat
0 STEP
1 1 -99.999950 -31.999990 -50.000020 1.000000 0.000000 0.000000 0.000000 1.000000 0.000000 0.000000 0.000000 1.000000 3703.dat
0 STEP
1 0 -200.000200 -102.000100 -39.999960 0.000000 0.000000 -1.000000 0.000000 1.000000 0.000000 1.000000 0.000000 0.000000 2780.dat
1 0 0.000190 -102.000100 -39.999960 0.000000 0.000000 -1.000000 0.000000 1.000000 0.000000 1.000000 0.000000 0.000000 2780.dat
0 STEP
1 15 -99.999820 -102.000000 -50.000080 0.000001 0.000001 -1.000000 1.000000 -0.000001 0.000001 -0.000001 -1.000000 -0.000001 64290.dat
0 STEP
1 71 -179.999800 -101.999900 -60.000150 0.000000 0.000000 -1.000000 0.000000 1.000000 0.000000 1.000000 0.000000 0.000000 3673.dat
0 STEP
1 15 -180.000000 -81.999880 -70.000140 1.000000 -0.000001 0.000001 -0.000001 -0.000001 1.000000 -0.000001 -1.000000 -0.000001 32524.dat
0 STEP
1 19 15.152170 -121.086900 0.739850 0.000000 -0.878813 0.477168 -0.000001 0.477165 0.878812 -1.000000 -0.000001 0.000000 3749.dat
1 0 -19.999850 -102.000100 -32.770040 0.000000 -0.477166 -0.878813 0.000000 -0.878813 0.477166 -1.000000 0.000000 0.000000 3705.dat
1 4 15.152170 -121.086900 20.739860 0.000000 0.000000 1.000000 0.000000 1.000000 0.000000 -1.000000 0.000000 0.000000 62462.dat
1 71 -19.999850 -102.000100 -30.030040 0.878813 0.477166 0.000000 -0.477166 0.878813 0.000000 0.000000 0.000000 1.000000 3713.dat
1 1 -2.423520 -111.543400 -9.260019 0.000000 0.878813 -0.477166 0.000000 -0.477166 -0.878813 -1.000000 0.000000 0.000000 32184.dat
0 STEP
1 71 -15.983400 -115.559900 -77.800140 0.000000 0.000000 -1.000000 0.000000 1.000000 0.000000 1.000000 0.000000 0.000000 3673.dat
1 0 -15.983400 -115.559800 -87.800080 -0.000004 0.499998 0.866027 -0.000001 0.866027 -0.499998 -1.000000 -0.000003 -0.000003 32013.dat
1 72 -19.999880 -102.000100 -67.800080 0.878813 0.477166 0.000000 -0.477166 0.878813 0.000000 0.000000 0.000000 1.000000 3648b.dat
0 STEP
1 71 -102.169900 -66.934720 -90.000450 -0.866027 0.499998 -0.000003 0.499998 0.866027 0.000001 0.000003 -0.000001 -1.000000 44294.dat
0 STEP
1 71 -179.999800 -21.999860 -80.000220 0.000000 0.500000 -0.866026 0.000000 0.866026 0.500000 1.000000 0.000000 0.000000 3673.dat
1 0 -179.999800 -21.999850 -90.000270 0.000002 0.499998 -0.866027 -0.000002 0.866027 0.499998 1.000000 0.000001 0.000003 32013.dat
0 STEP
1 0 -180.000000 -81.999870 -80.000080 0.000000 0.000000 -1.000000 0.000000 1.000000 0.000000 1.000000 0.000000 0.000000 2780.dat
1 0 -180.000100 -141.999900 -60.000100 0.000000 0.000000 -1.000000 0.000000 1.000000 0.000000 1.000000 0.000000 0.000000 2780.dat
1 4 -180.000000 -141.999900 -50.000020 0.000000 0.000000 -1.000000 0.000000 -1.000000 0.000000 -1.000000 0.000000 0.000000 32034.dat
1 4 -179.999900 -81.999870 -90.000030 0.000000 0.000000 -1.000000 0.000000 -1.000000 0.000000 -1.000000 0.000000 0.000000 32034.dat
0 STEP
1 1 -260.000000 -8.000000 -20.000010 0.000000 0.000000 1.000000 0.000000 1.000000 0.000000 -1.000000 0.000000 0.000000 32001.dat
1 1 60.000040 -7.999990 -20.000080 0.000000 0.000000 1.000000 0.000000 1.000000 0.000000 -1.000000 0.000000 0.000000 32001.dat
0 STEP
1 19 40.000080 -46.000040 -60.000060 -0.000001 1.000000 -0.000001 0.000001 0.000001 1.000000 1.000000 0.000001 -0.000001 3749.dat
1 15 40.000070 -55.999980 -9.999949 1.000000 0.000000 0.000000 0.000000 1.000000 0.000000 0.000000 0.000000 1.000000 32064a.dat
1 15 40.000070 -55.999980 -50.000030 1.000000 0.000000 0.000000 0.000000 1.000000 0.000000 0.000000 0.000000 1.000000 32064a.dat
1 19 40.000040 -46.000000 -0.000010 0.000001 -1.000000 0.000001 0.000001 0.000001 1.000000 -1.000000 -0.000001 0.000001 3749.dat
0 STEP
1 15 -240.000000 -55.999980 -9.999949 1.000000 0.000000 0.000000 0.000000 1.000000 0.000000 0.000000 0.000000 1.000000 32064a.dat
1 15 -240.000000 -55.999980 -50.000020 1.000000 0.000000 0.000000 0.000000 1.000000 0.000000 0.000000 0.000000 1.000000 32064a.dat
1 19 -240.000000 -46.000000 -0.000010 0.000001 -1.000000 0.000001 0.000001 0.000001 1.000000 -1.000000 -0.000001 0.000001 3749.dat
1 19 -240.000000 -46.000000 -62.690030 -0.000001 1.000000 -0.000001 0.000001 0.000001 1.000000 1.000000 0.000001 -0.000001 3749.dat
0 STEP
1 15 -250.000000 -80.000000 -50.000080 0.000000 0.000000 -1.000000 0.000000 1.000000 0.000000 1.000000 0.000000 0.000000 3040b.dat
1 15 50.000040 -80.000000 -50.000030 0.000000 0.000000 1.000000 0.000000 1.000000 0.000000 -1.000000 0.000000 0.000000 3040b.dat
1 15 50.000020 -80.000000 -10.000010 0.000000 0.000000 1.000000 0.000000 1.000000 0.000000 -1.000000 0.000000 0.000000 3040b.dat
1 15 -250.000000 -79.999980 -10.000010 0.000000 0.000000 -1.000000 0.000000 1.000000 0.000000 1.000000 0.000000 0.000000 3040b.dat
0 STEP
1 1 -260.000000 -87.999980 -40.000080 0.000000 0.000000 1.000000 0.000000 1.000000 0.000000 -1.000000 0.000000 0.000000 3709b.dat
1 1 60.000040 -88.000000 -40.000020 0.000000 0.000000 1.000000 0.000000 1.000000 0.000000 -1.000000 0.000000 0.000000 3709b.dat
0 STEP
0 STEP
