0 FILE 引体向上.io
0 Untitled Model
0 Name:  引体向上
0 Author:  
0 CustomBrick
0 NumOfBricks:  70
1 0 -33.328000 -313.758300 -62.339470 0.000000 0.000001 -1.000000 0.000000 1.000000 0.000001 1.000000 0.000000 0.000000 2780.dat
1 72 -33.328010 -293.758400 -67.339320 -1.000000 0.000001 -0.000002 0.000002 0.000001 -1.000000 -0.000001 -1.000000 -0.000001 32250.dat
0 STEP
1 72 -33.328020 -333.758300 -77.259220 0.000000 0.000000 -1.000000 -0.999999 0.000000 0.000001 0.000000 1.000000 0.000000 99773.dat
0 STEP
1 4 -13.328050 -373.758700 -92.139980 0.000001 0.999997 0.000000 0.000000 -0.000001 0.999996 1.000000 0.000000 0.000000 42003.dat
1 71 -33.328040 -373.758400 -92.139960 -0.000001 0.000000 1.000000 0.000000 1.000000 -0.000001 -1.000000 0.000000 -0.000001 32073.dat
0 STEP
1 4 -13.328050 -293.758400 -92.109650 0.000000 1.000000 0.000001 0.000000 -0.000001 1.000000 1.000000 0.000000 0.000000 42003.dat
1 71 -33.328040 -293.758400 -92.340150 -0.000001 0.000001 1.000000 0.000000 1.000000 -0.000001 -1.000000 0.000000 0.000000 32073.dat
0 STEP
1 72 -33.328050 -333.758400 -106.875100 0.000000 0.000000 -0.999993 -0.999999 0.000000 0.000001 0.000000 0.999993 0.000000 99773.dat
1 0 -33.328060 -313.758300 -122.520800 0.000000 0.000001 -1.000000 0.000000 1.000000 0.000001 1.000000 0.000000 0.000000 2780.dat
1 72 -33.328060 -293.756600 -117.516500 -1.000000 0.000001 -0.000002 0.000002 0.000001 -1.000000 -0.000001 -1.000000 -0.000001 32250.dat
0 STEP
1 19 -33.328080 -393.758500 -142.139800 0.000002 0.087157 0.996196 -0.000001 0.996195 -0.087157 -1.000000 -0.000001 0.000002 3749.dat
1 15 -33.328000 -293.758400 -52.139320 -1.000000 0.000001 -0.000002 0.000002 0.000001 -1.000000 -0.000001 -1.000000 -0.000001 64290.dat
1 15 -33.328070 -293.758500 -132.138100 -1.000000 0.000001 -0.000002 0.000002 0.000001 -1.000000 -0.000001 -1.000000 -0.000001 64290.dat
1 19 -33.327980 -393.758400 -42.139260 -0.000001 -0.992547 -0.121877 -0.000001 0.121877 -0.992546 1.000000 -0.000001 -0.000001 3749.dat
0 STEP
1 72 -53.332050 -333.758400 -91.687720 0.999994 0.000001 0.000001 -0.000001 1.000000 0.000000 0.000000 0.000000 1.000000 3648b.dat
1 71 -53.328020 -333.758300 -91.189670 -0.000001 0.000001 1.000001 0.000000 1.000000 -0.000001 -1.000017 0.000000 0.000000 44294.dat
0 STEP
1 71 -53.328050 -333.758400 -121.400500 1.000001 0.000000 0.000001 -0.000001 0.999999 0.000000 -0.000001 0.000000 1.000000 3713.dat
1 71 -53.328000 -333.758400 -61.519000 1.000002 0.000000 0.000001 -0.000001 0.999999 0.000000 -0.000001 0.000000 1.000018 3713.dat
0 STEP
1 14 -53.325990 -333.758300 -136.289400 -0.999995 -0.000001 0.000000 0.000001 -1.000000 0.000000 0.000000 0.000000 1.000017 32123a.dat
1 14 -53.327980 -333.758300 -46.768980 -1.000001 -0.000001 0.000000 0.000001 -1.000000 0.000000 0.000000 0.000000 1.000017 32123a.dat
0 STEP
1 19 -53.327950 -373.758400 -21.188220 -0.000001 -0.000001 -1.000002 0.000001 -1.000000 0.000002 -1.000001 -0.000001 0.000001 3749.dat
1 19 -53.328090 -373.758400 -161.190100 0.000001 0.000001 1.000001 0.000001 -1.000000 0.000000 1.000001 0.000001 -0.000001 3749.dat
1 1 -53.328080 -353.758300 -151.190400 0.000000 0.000000 1.000001 0.000000 1.000000 -0.000001 -1.000001 0.000000 0.000000 32184.dat
1 1 -53.327960 -353.758400 -31.188190 0.000000 0.000000 1.000001 0.000000 0.999999 -0.000001 -1.000001 0.000000 0.000000 32184.dat
0 STEP
1 71 -38.301120 -452.335700 -162.190100 0.000001 -1.000000 0.000000 0.000000 0.000001 -0.999999 1.000000 0.000001 0.000000 3673.dat
1 1 -33.328090 -393.758800 -152.139600 0.996195 -0.000002 -0.087156 -0.087157 0.000001 -0.996193 0.000002 1.000000 0.000001 32271.dat
1 71 -40.639970 -453.311300 -22.690260 0.000001 -0.999994 0.000000 0.000000 0.000001 -0.999999 0.999994 0.000001 0.000000 3673.dat
1 1 -38.336940 -393.355500 -32.690250 0.999263 -0.000002 -0.038384 -0.038384 0.000001 -0.999263 0.000002 1.000000 0.000001 32271.dat
0 STEP
1 15 -45.814060 -413.047600 -172.191200 0.982204 0.000000 0.187833 0.187833 0.000001 -0.982202 0.000000 1.000001 0.000001 32316.dat
1 0 6.671960 -283.758400 -92.109650 0.000000 -0.999993 -0.000001 -0.999999 0.000001 0.000000 0.000000 0.000001 -0.999993 2780.dat
1 15 -45.814880 -413.046600 -11.187480 0.982194 0.000000 0.187834 0.187835 0.000001 -0.982201 0.000000 0.999994 0.000001 32316.dat
0 STEP
1 15 -13.327910 -284.150000 -92.140070 -0.000001 -0.999999 -0.000001 0.000000 0.000000 0.999996 -1.000002 0.000000 0.000000 dx0086.dat.dat
0 STEP
1 71 -13.328050 -342.998400 -92.139980 -0.258817 -0.965920 0.000000 0.000000 0.000001 0.999999 -0.965920 0.258817 0.000000 4716.dat
1 71 -13.328050 -352.518600 -92.139980 -0.000001 -0.965920 -0.258817 -1.000000 0.000001 0.000000 0.000000 0.258817 -0.965920 60485.dat
1 71 -13.328050 -312.518400 -92.139980 0.965919 -0.258817 0.000001 -0.000002 0.000000 0.999999 -0.258817 -0.965920 -0.000001 3713.dat
0 STEP
1 71 -13.328050 -402.378500 -92.139980 -0.258817 -0.965920 0.000001 0.000000 0.000001 1.000000 -0.965920 0.258817 0.000000 3713.dat
1 14 -13.328050 -417.518400 -92.139980 0.258817 -0.965919 -0.000001 0.000000 0.000001 -1.000000 0.965920 0.258817 0.000000 32123a.dat
1 14 -13.328050 -389.058300 -92.139980 0.258817 -0.965919 -0.000001 0.000000 0.000001 -1.000000 0.965920 0.258817 0.000000 32123a.dat
0 STEP
1 71 -13.328170 -437.518600 -92.139930 0.965926 0.258819 0.000000 0.000000 0.000000 -1.000000 -0.258819 0.965926 0.000000 4185.dat
1 71 -13.328170 -427.458600 -92.139980 0.965926 0.258819 0.000000 0.000000 0.000000 -1.000000 -0.258819 0.965926 0.000000 4185.dat
0 STEP
1 19 -33.327980 -193.758500 -42.139320 0.000002 0.000001 0.999994 0.000001 -0.999999 0.000000 0.999994 0.000001 -0.000002 3749.dat
1 19 -33.328080 -193.758500 -142.139800 0.000000 0.000002 0.999993 -0.000001 1.000000 -0.000002 -0.999994 -0.000001 0.000000 3749.dat
1 1 -144.547800 -96.856760 -32.139330 0.804816 0.000001 0.593513 0.593516 0.000001 -0.804821 -0.000001 0.999994 0.000000 32271.dat
1 1 -144.547900 -96.856880 -152.139500 0.804816 0.000000 0.593513 0.593516 0.000001 -0.804821 -0.000001 0.999994 0.000000 32271.dat
0 STEP
1 4 -14.000040 -540.000100 -87.350830 0.750030 0.661404 0.000000 -0.661403 0.750030 -0.000001 -0.000001 0.000000 1.000000 32034.dat
1 0 -14.000120 -539.999900 -177.350400 -0.000001 0.750023 -0.661402 0.000001 -0.661406 -0.750029 -0.999994 -0.000001 0.000000 3707.dat
1 71 -14.000150 -539.999900 -207.350100 -0.750030 0.661404 -0.000001 0.661404 0.750030 0.000002 0.000002 0.000000 -1.000000 3713.dat
0 STEP
1 71 -11.591840 -538.377000 35.679200 0.783614 0.621248 0.000002 -0.621248 0.783614 -0.000001 -0.000002 -0.000001 1.000000 3713.dat
1 0 -11.591880 -538.377100 5.679530 -0.000001 0.783607 -0.621247 0.000000 -0.621251 -0.783612 -0.999994 -0.000001 0.000001 3707.dat
0 STEP
1 0 -11.592940 -258.377100 45.189640 0.000001 0.000000 -1.000000 0.000000 1.000000 0.000000 1.000000 0.000000 0.000001 2780.dat
1 0 -11.592940 -298.377100 45.189400 0.000001 0.000000 -1.000000 0.000000 1.000000 0.000000 1.000000 0.000000 0.000001 2780.dat
1 15 -11.592920 -398.377000 55.189400 -1.000000 0.000002 -0.000001 -0.000001 -0.000001 1.000000 0.000002 1.000000 0.000001 64871.dat
1 71 -11.591810 -538.377100 75.679020 0.783614 0.621248 0.000002 -0.621248 0.783614 -0.000001 -0.000002 -0.000001 1.000000 3713.dat
0 STEP
1 0 -14.000160 -299.999900 -216.999700 0.000001 0.000000 -1.000000 0.000000 1.000000 0.000000 1.000000 0.000000 0.000001 2780.dat
1 0 -14.000160 -259.999900 -216.999700 0.000001 0.000000 -1.000000 0.000000 1.000000 0.000000 1.000000 0.000000 0.000001 2780.dat
1 15 -14.000170 -399.999900 -226.999800 -1.000000 0.000002 -0.000001 -0.000001 -0.000001 1.000000 0.000002 1.000000 0.000001 64871.dat
1 71 -14.000190 -539.999900 -247.349900 0.750030 0.661404 0.000001 -0.661404 0.750030 -0.000002 -0.000002 0.000000 1.000000 3713.dat
0 STEP
1 0 -11.592950 -18.377070 25.189330 0.000001 0.000000 -1.000000 0.000000 1.000000 0.000000 1.000000 0.000000 0.000001 2780.dat
1 0 -11.592950 -58.377090 25.189330 0.000001 0.000000 -1.000000 0.000000 1.000000 0.000000 1.000000 0.000000 0.000001 2780.dat
1 15 -11.592940 -158.377100 35.189390 1.000000 0.000000 0.000001 0.000001 0.000001 -1.000000 0.000000 1.000000 0.000001 64871.dat
0 STEP
1 0 -14.000140 -20.000000 -197.000100 0.000001 0.000000 -1.000000 0.000000 1.000000 0.000000 1.000000 0.000000 0.000001 2780.dat
1 15 -14.000150 -159.999900 -206.999800 1.000000 0.000000 0.000001 0.000001 0.000001 -1.000000 0.000000 1.000000 0.000001 64871.dat
1 0 -14.000230 -59.999900 -196.999900 0.000001 -0.000001 -1.000000 0.000000 1.000000 -0.000001 1.000000 0.000000 0.000001 2780.dat
0 STEP
1 16 -44.000000 -29.427020 -23.000000 -0.000001 -1.000000 0.000000 0.000000 0.000000 1.000000 -1.000000 0.000000 0.000000 submodel group 9 copy copy copy
0 STEP
1 19 -14.000160 -159.999900 -216.999800 0.000000 -1.000000 0.000001 0.000001 0.000001 1.000000 -1.000000 0.000000 0.000001 3749.dat
1 19 -11.592940 -158.377100 45.189400 0.000000 1.000000 -0.000001 0.000001 0.000001 1.000000 1.000000 0.000000 -0.000001 3749.dat
0 STEP
1 71 -14.000170 -159.999900 -226.999800 0.000000 -1.000000 -0.000001 -1.000000 0.000000 0.000000 0.000000 0.000001 -1.000000 3649.dat
1 71 -11.592920 -158.377100 55.189400 0.000000 -1.000000 -0.000001 -1.000000 0.000000 0.000000 0.000000 0.000001 -1.000000 3649.dat
0 STEP
0 STEP
0 NOFILE
0 FILE SubModel Group 9 Copy Copy Copy
0 SubModel Group 9 Copy Copy Copy
0 Name:  SubModel Group 9 Copy Copy Copy
0 Author:  
0 CustomBrick
0 NumOfBricks:  3
1 72 10.000000 -1.128810 -10.000000 1.000000 0.000000 0.000000 0.000000 0.000000 -1.000000 0.000000 1.000000 0.000000 dch003.dat
1 71 -27.466620 -79.717990 29.427020 1.000000 0.000000 0.000000 0.000000 0.000000 -1.000000 0.000000 1.000000 0.000000 dch004.dat
1 25 7.837010 13.484720 -9.965000 1.000000 0.000000 0.000000 0.000000 0.000000 -1.000000 0.000000 1.000000 0.000000 dch005.dat
0 NOFILE
