0 FILE 简歇运动.io
0 Untitled Model
0 Name:  简歇运动
0 Author:  
0 CustomBrick
0 NumOfBricks:  38
1 71 -39.997300 -120.000000 -149.999600 -1.000000 -0.000001 0.000000 0.000000 0.000000 0.999989 -0.000001 0.999989 0.000000 58120.dat
0 STEP
1 71 -39.999460 -128.760800 -149.999400 0.000000 1.000000 0.000000 -0.999992 0.000000 0.000000 0.000000 0.000000 0.999992 4519.dat
1 72 -39.999460 -147.620500 -149.999400 0.000000 1.000000 0.000000 0.000000 0.000000 0.999992 0.999992 0.000000 0.000000 3647.dat
1 0 -59.999640 -120.000500 -149.999400 0.000000 0.000000 -1.000000 1.000002 0.000000 0.000000 0.000000 -1.000002 0.000000 2780.dat
1 0 -19.999620 -120.000500 -149.999400 0.000000 0.000000 -1.000000 1.000002 0.000000 0.000000 0.000000 -1.000002 0.000000 2780.dat
1 15 0.000520 -130.000500 -149.999400 0.000002 0.000001 -1.000000 -0.000001 -1.000002 -0.000001 -1.000002 0.000001 -0.000002 64290.dat
0 STEP
1 1 -99.999690 -150.000700 -210.000100 1.000000 -0.000001 -0.000002 0.000001 1.000000 -0.000001 0.000002 0.000001 1.000000 32140.dat
1 0 -80.000180 -140.000500 -150.000100 0.000000 0.000001 -1.000001 1.000002 0.000000 0.000000 0.000000 -1.000003 0.000000 2780.dat
1 0 -99.999320 -140.000500 -149.999500 0.000000 0.000000 -1.000000 1.000002 0.000000 0.000000 0.000000 -1.000002 0.000000 2780.dat
0 STEP
1 1 -20.000020 -170.000300 -209.999800 -0.000001 -0.000001 -1.000000 0.000001 0.999994 -0.000001 0.999994 -0.000001 -0.000001 32526.dat
1 0 -99.999920 -160.000500 -169.999900 0.000000 0.000000 -1.000000 1.000000 0.000000 0.000000 0.000000 -1.000000 0.000000 2780.dat
1 19 -99.999920 -160.000500 -209.999900 0.000001 0.000001 1.000001 1.000000 0.000001 -0.000001 -0.000001 1.000000 -0.000001 3749.dat
0 STEP
1 0 -100.000000 -180.000400 -190.000000 0.000000 0.000000 -1.000000 -1.000000 0.000000 0.000000 0.000000 1.000000 0.000000 2780.dat
1 0 -60.000000 -180.000300 -209.999800 0.000000 0.000000 -1.000000 0.999994 0.000000 0.000000 0.000000 -0.999994 0.000000 2780.dat
0 STEP
1 4 -99.999980 -190.000500 -190.000000 0.000000 1.000000 0.000000 -1.000000 0.000000 0.000000 0.000000 0.000000 1.000000 32034.dat
0 STEP
1 15 -59.999970 -190.000200 -209.999800 0.000001 0.000001 -1.000000 0.000001 1.000000 0.000001 1.000000 -0.000001 0.000001 32523.dat
0 STEP
1 0 -9.999519 -169.049700 -159.999300 0.000000 0.000000 1.000000 0.999992 0.000000 0.000000 0.000000 0.999992 0.000000 2780.dat
1 71 20.000490 -159.049800 -149.999300 -1.000000 0.000000 0.000000 0.000000 0.000000 0.999992 0.000000 0.999992 0.000000 3649.dat
1 71 20.000490 -111.410300 -149.999300 -1.000000 0.000000 -0.000001 -0.000001 0.000000 0.999992 0.000000 0.999992 0.000000 3713.dat
1 71 20.000490 -179.819600 -149.999400 -1.000000 0.000000 -0.000001 -0.000001 0.000000 0.999992 0.000000 0.999992 0.000000 3713.dat
1 71 20.000490 -149.999800 -149.999400 0.000000 0.000000 -1.000000 0.999992 0.000000 0.000000 0.000000 -0.999992 0.000000 32073.dat
0 STEP
1 0 20.000490 -201.529400 -149.999300 -1.000000 0.000000 0.000000 0.000000 0.000000 0.999992 0.000000 0.999992 0.000000 32270.dat
0 STEP
1 71 80.000580 -109.640100 -149.999200 -1.000000 0.000000 -0.000001 -0.000001 0.000000 0.999992 0.000000 0.999992 0.000000 3713.dat
1 71 80.000580 -149.099800 -149.999200 -1.000000 0.000000 -0.000001 -0.000001 0.000000 0.999992 0.000000 0.999992 0.000000 3713.dat
1 0 80.000580 -161.529700 -149.999200 0.000000 0.000000 -1.000000 0.999992 0.000000 0.000000 0.000000 -0.999992 0.000000 3706.dat
0 STEP
1 15 67.223060 -170.519800 -208.622700 0.977062 -0.000001 0.212953 0.000001 0.999989 0.000001 -0.212951 -0.000001 0.977052 32524.dat
1 0 54.446820 -180.519600 -267.245600 0.000000 0.000179 -0.999998 0.999989 0.000000 0.000000 0.000000 -0.999988 -0.000179 2780.dat
1 19 67.223000 -180.519600 -208.622500 -0.000001 0.999999 -0.000180 -0.999989 -0.000001 0.000001 0.000001 0.000180 0.999988 3749.dat
0 STEP
1 0 80.000580 -191.529500 -149.999300 1.000000 0.000000 0.000000 0.000000 0.000000 0.999989 0.000000 -0.999989 0.000000 32270.dat
0 STEP
1 4 80.000580 -211.529300 -149.999300 -1.000000 0.000000 0.000000 0.000000 -0.000001 0.999989 0.000000 0.999989 0.000001 32039.dat
0 STEP
1 19 67.223000 -190.519600 -208.622500 0.999998 0.000179 0.000000 0.000000 0.000000 0.999989 0.000179 -0.999988 0.000000 32269.dat
0 STEP
1 15 54.446820 -190.519400 -267.245500 0.000001 0.000001 -1.000000 0.000001 1.000000 0.000001 1.000000 -0.000001 0.000001 32523.dat
0 STEP
1 4 185.150500 -231.529000 -149.999300 -1.000000 0.000000 0.000000 0.000000 -1.000000 0.000000 0.000000 0.000000 1.000000 32034.dat
1 71 142.760500 -231.529000 -149.999300 -1.000000 0.000000 0.000000 0.000000 0.999989 0.000000 0.000000 0.000000 -0.999989 44294.dat
0 STEP
1 71 215.630500 -231.531900 -149.999300 0.000001 0.000000 -1.000000 0.000000 1.000000 0.000000 1.000000 0.000000 0.000001 59443.dat
0 STEP
1 16 -208.000000 0.000000 -108.000000 0.000000 0.000000 -1.000000 0.000000 1.000000 0.000000 1.000000 0.000000 0.000000 submodel group 9 copy copy copy
0 STEP
0 NOFILE
0 FILE SubModel Group 9 Copy Copy Copy
0 SubModel Group 9 Copy Copy Copy
0 Name:  SubModel Group 9 Copy Copy Copy
0 Author:  
0 CustomBrick
0 NumOfBricks:  3
1 72 10.000000 -1.128810 -10.000000 1.000000 0.000000 0.000000 0.000000 0.000000 -1.000000 0.000000 1.000000 0.000000 dch003.dat
1 71 -27.466620 -79.717990 29.427020 1.000000 0.000000 0.000000 0.000000 0.000000 -1.000000 0.000000 1.000000 0.000000 dch004.dat
1 25 7.837010 13.484720 -9.965000 1.000000 0.000000 0.000000 0.000000 0.000000 -1.000000 0.000000 1.000000 0.000000 dch005.dat
0 NOFILE
