0 FILE 敲椰子.io
0 Untitled Model
0 Name:  敲椰子
0 Author:  
0 CustomBrick
0 NumOfBricks:  85
1 16 -34.000000 -47.379640 10.000000 0.000000 -1.000000 0.000000 -1.000000 0.000000 0.000000 0.000000 0.000000 -1.000000 submodel group 9 copy copy copy
0 STEP
1 15 -103.918200 -10.000230 -20.529420 0.000001 0.000001 -1.000000 -1.000000 0.000001 0.000000 0.000001 1.000000 0.000001 64871.dat
1 0 16.081860 -10.000210 -10.529520 0.000000 0.000000 -1.000000 0.000000 1.000000 0.000001 1.000000 0.000000 0.000000 2780.dat
1 0 36.082100 -10.000030 -10.529030 0.000000 0.000000 -1.000000 0.000000 1.000000 0.000001 1.000000 0.000000 0.000000 2780.dat
0 STEP
1 1 -63.918260 -70.000270 -0.529400 -1.000000 0.000001 0.000001 0.000002 0.000001 1.000000 0.000001 1.000000 -0.000001 32140.dat
1 1 -83.918170 -10.000230 -0.529480 0.000000 0.000000 -1.000000 0.000000 1.000000 0.000001 1.000000 0.000000 0.000000 6558.dat
0 STEP
1 15 -163.918200 -10.000250 19.470590 0.000001 0.000001 -1.000000 -1.000000 0.000001 0.000000 0.000001 1.000000 0.000001 64871.dat
1 1 -63.918190 -10.000200 19.470410 0.000000 0.000000 -1.000000 0.000000 1.000000 0.000001 1.000000 0.000000 0.000000 6558.dat
0 STEP
1 0 -63.918200 -30.000260 -10.529420 0.000000 0.000000 -1.000000 0.000000 1.000000 0.000001 1.000000 0.000000 0.000000 2780.dat
1 19 -63.918260 -70.000270 -10.529340 -0.000001 1.000000 -0.000001 0.000001 0.000000 1.000000 1.000000 0.000001 -0.000001 3749.dat
1 15 -63.918110 -170.000300 -20.529220 1.000000 -0.000001 0.000001 0.000000 0.000001 -1.000000 0.000001 1.000000 0.000001 64871.dat
0 STEP
1 0 -63.918000 -250.000300 -30.529160 0.000000 0.000000 -1.000000 0.000000 1.000000 0.000001 1.000000 0.000000 0.000000 2780.dat
1 0 -63.918010 -230.000300 -30.529160 0.000000 0.000000 -1.000000 0.000000 1.000000 0.000001 1.000000 0.000000 0.000000 2780.dat
0 STEP
1 1 -123.918000 -250.000200 -40.529110 0.000001 0.000001 1.000000 1.000000 -0.000001 -0.000002 0.000001 1.000000 -0.000001 32140.dat
1 0 -83.917990 -250.000200 -30.529160 0.000000 0.000000 -1.000000 0.000000 1.000000 0.000001 1.000000 0.000000 0.000000 2780.dat
0 STEP
1 15 -223.917900 -250.000200 -20.528910 0.000001 0.000001 -1.000000 -1.000000 0.000001 0.000000 0.000001 1.000000 0.000001 64871.dat
1 19 -123.918100 -250.000200 -30.529040 0.000001 -1.000000 0.000001 0.000001 0.000002 1.000000 -1.000000 -0.000001 0.000001 3749.dat
0 STEP
1 71 -243.918000 -250.000300 -40.158930 0.996779 -0.080196 0.000001 0.080195 0.996779 0.000000 -0.000001 0.000000 1.000000 3713.dat
1 71 -243.918000 -250.000300 -20.158920 0.000000 -0.996779 -0.080196 0.000000 -0.080195 0.996779 -1.000000 0.000000 0.000000 4519.dat
1 71 -243.918000 -250.000200 -0.288860 0.996779 -0.080196 0.000000 0.080195 0.996779 0.000000 0.000000 0.000000 1.000000 3649.dat
0 STEP
1 0 -323.918000 -250.000200 -30.528790 0.000000 -1.000000 0.000000 0.000000 0.000001 -1.000000 1.000000 0.000000 0.000000 2780.dat
1 0 -283.917900 -250.000200 -30.528850 0.000000 -1.000000 0.000000 0.000000 0.000001 -1.000000 1.000000 0.000000 0.000000 2780.dat
0 STEP
1 71 -303.918000 -250.000200 -20.958850 0.000000 -1.000000 0.000000 0.000000 0.000001 1.000000 -1.000000 0.000000 0.000000 4519.dat
1 72 -303.918000 -250.000200 -0.958840 -1.000000 0.000000 0.000000 0.000001 -1.000000 0.000000 0.000000 0.000000 1.000000 3647.dat
0 STEP
1 15 -304.000000 -249.601700 -32.000000 -1.000000 0.000000 0.000000 0.000000 1.000000 0.000000 0.000000 0.000000 -1.000000 dx0068.dat.dat
0 STEP
1 71 -63.918240 -290.000200 -40.489980 1.000000 0.000000 0.000001 -0.000001 1.000000 0.000000 -0.000001 0.000000 1.000000 3713.dat
1 0 -63.918240 -290.000200 9.880020 0.000000 0.000000 1.000000 0.000000 1.000000 -0.000001 -1.000000 0.000000 0.000000 3706.dat
0 STEP
1 16 -362.242600 -263.802100 9.999960 1.000000 0.000000 0.000000 0.000000 1.000000 0.000000 0.000000 0.000000 1.000000 submodel group 2
0 STEP
1 15 -63.918290 -150.000200 39.470200 -1.000000 0.000001 -0.000001 0.000002 0.000001 -1.000000 -0.000001 -1.000000 -0.000001 64871.dat
1 71 -63.918200 -290.000200 59.480140 1.000000 0.000000 0.000001 -0.000001 1.000000 0.000000 -0.000001 0.000000 1.000000 3713.dat
0 STEP
1 15 -293.059400 -262.166100 19.711250 0.034900 0.000001 -0.999391 -0.999391 0.000001 -0.034899 0.000001 1.000000 0.000001 32316.dat
1 0 -253.083800 -260.770100 9.711140 0.000000 0.000000 -1.000000 0.000000 1.000000 0.000001 1.000000 0.000000 0.000000 2780.dat
1 0 -273.071600 -261.468100 9.711200 0.000000 0.000000 -1.000000 0.000000 1.000000 0.000001 1.000000 0.000000 0.000000 2780.dat
0 STEP
1 15 -423.917900 -250.000300 -0.528380 0.000001 0.000001 -1.000000 -1.000000 0.000001 0.000000 0.000001 1.000000 0.000001 40490.dat
1 0 -363.918000 -250.000200 -10.528850 0.000000 0.000000 -1.000000 0.000000 1.000000 0.000001 1.000000 0.000000 0.000000 2780.dat
1 0 -343.917900 -250.000200 -10.528420 0.000000 0.000000 -1.000000 0.000000 1.000000 0.000001 1.000000 0.000000 0.000000 2780.dat
0 STEP
1 1 -503.917900 -190.000300 19.471690 1.000000 -0.000001 -0.000001 -0.000002 -0.000001 -1.000000 0.000001 1.000000 -0.000001 32140.dat
1 1 -483.918000 -250.000300 -0.528380 0.000000 0.000000 1.000000 0.000000 1.000000 -0.000001 -1.000000 0.000000 0.000000 6558.dat
1 1 -503.918000 -250.000300 -0.528380 0.000000 0.000000 1.000000 0.000000 1.000000 -0.000001 -1.000000 0.000000 0.000000 6558.dat
0 STEP
1 15 -503.918000 -150.000500 -0.528500 1.000000 -0.000001 0.000001 -0.000002 -0.000001 1.000000 -0.000001 -1.000000 -0.000001 40490.dat
1 1 -503.917600 -230.000600 -0.528440 0.000000 1.000000 0.000000 0.000000 -0.000001 -1.000000 -1.000000 0.000000 0.000000 6558.dat
1 1 -503.918100 -210.000500 -0.528440 0.000000 1.000000 0.000000 0.000000 -0.000001 -1.000000 -1.000000 0.000000 0.000000 6558.dat
0 STEP
1 1 -503.917600 -190.000600 -20.528390 1.000000 -0.000001 -0.000001 -0.000002 -0.000001 -1.000000 0.000001 1.000000 -0.000001 32140.dat
0 STEP
1 16 -469.775000 -1.000270 13.614380 1.000000 0.000000 0.000000 0.000000 1.000000 0.000000 0.000000 0.000000 1.000000 submodel group 1
0 STEP
0 STEP
0 NOFILE
0 FILE SubModel Group 9 Copy Copy Copy
0 SubModel Group 9 Copy Copy Copy
0 Name:  SubModel Group 9 Copy Copy Copy
0 Author:  
0 CustomBrick
0 NumOfBricks:  3
1 72 10.000000 -1.128810 -10.000000 1.000000 0.000000 0.000000 0.000000 0.000000 -1.000000 0.000000 1.000000 0.000000 dch003.dat
1 71 -27.466620 -79.717990 29.427020 1.000000 0.000000 0.000000 0.000000 0.000000 -1.000000 0.000000 1.000000 0.000000 dch004.dat
1 25 7.837010 13.484720 -9.965000 1.000000 0.000000 0.000000 0.000000 0.000000 -1.000000 0.000000 1.000000 0.000000 dch005.dat
0 NOFILE
0 FILE SubModel Group 2
0 SubModel Group 2
0 Name:  SubModel Group 2
0 Author:  
0 CustomBrick
0 NumOfBricks:  34
1 1 -26.757300 -82.953460 -9.999760 0.173646 0.984808 0.000000 -0.984806 0.173645 0.000000 0.000000 0.000000 1.000000 3702.dat
0 STEP
1 0 -6.490480 -140.305400 0.000230 0.000000 0.000000 -1.000000 0.000000 1.000000 0.000000 1.000000 0.000000 0.000000 2780.dat
1 0 -27.328120 -22.127230 0.000040 0.000000 0.000000 -1.000000 0.000000 1.000000 0.000000 1.000000 0.000000 0.000000 2780.dat
1 1 -26.757380 -82.952180 10.000040 0.173647 0.984808 0.000000 -0.984808 0.173647 0.000000 0.000000 0.000000 1.000000 3702.dat
0 STEP
1 1 -41.580840 -44.949340 -10.001040 0.173646 0.984808 0.000000 -0.984808 0.173645 0.000000 0.000000 0.000000 1.000000 3710.dat
1 1 -31.156500 -104.034200 -9.999820 0.173642 0.984793 0.000000 -0.984790 0.173644 0.000000 0.000000 0.000000 1.000000 3023.dat
1 1 -24.216980 -143.430900 -9.999760 0.173646 0.984808 0.000000 -0.984806 0.173645 0.000000 0.000000 0.000000 1.000000 3023.dat
0 STEP
1 1 -41.582980 -44.949440 10.000220 0.173646 0.984808 0.000000 -0.984806 0.173645 0.000000 0.000000 0.000000 1.000000 3710.dat
1 1 -31.162780 -104.038800 10.000160 0.173646 0.984808 0.000000 -0.984806 0.173645 0.000000 0.000000 0.000000 1.000000 3023.dat
1 1 -24.216980 -143.430900 10.000160 0.173646 0.984808 0.000000 -0.984806 0.173645 0.000000 0.000000 0.000000 1.000000 3023.dat
0 STEP
1 1 -52.932900 -26.642340 -9.999700 0.173646 0.984808 0.000000 -0.984806 0.173645 0.000000 0.000000 0.000000 1.000000 3023.dat
1 1 -35.568390 -125.124100 -9.999760 0.173646 0.984808 0.000000 -0.984806 0.173645 0.000000 0.000000 0.000000 1.000000 3710.dat
1 1 -45.987030 -66.035250 -9.999760 0.173646 0.984808 0.000000 -0.984806 0.173645 0.000000 0.000000 0.000000 1.000000 3023.dat
0 STEP
1 1 -52.932980 -26.642340 10.000220 0.173646 0.984808 0.000000 -0.984806 0.173645 0.000000 0.000000 0.000000 1.000000 3023.dat
1 1 -35.568390 -125.124100 10.000160 0.173646 0.984808 0.000000 -0.984806 0.173645 0.000000 0.000000 0.000000 1.000000 3710.dat
1 1 -45.983310 -66.032740 10.000050 0.173643 0.984798 0.000000 -0.984795 0.173645 0.000000 0.000000 0.000000 1.000000 3023.dat
0 STEP
1 1 -66.149300 -89.899050 -9.999760 0.173646 0.984808 0.000000 -0.984806 0.173645 0.000000 0.000000 0.000000 1.000000 3702.dat
0 STEP
1 0 -45.882480 -147.250900 0.000160 0.000000 0.000000 -1.000000 0.000000 1.000000 0.000000 1.000000 0.000000 0.000000 2780.dat
1 0 -66.719970 -29.074250 0.000230 0.000000 0.000000 -1.000000 0.000000 1.000000 0.000000 1.000000 0.000000 0.000000 2780.dat
1 1 -66.149300 -89.899050 10.000160 0.173646 0.984808 0.000000 -0.984806 0.173645 0.000000 0.000000 0.000000 1.000000 3702.dat
0 STEP
1 0 -56.349980 -87.886140 -20.000610 0.000000 0.000000 -1.000000 0.000000 1.000000 0.000001 1.000000 0.000000 0.000000 2780.dat
1 0 -16.911040 -81.215400 -20.000800 0.000000 0.000000 -1.000001 0.000000 1.000000 0.000001 1.000002 0.000000 0.000000 2780.dat
0 STEP
1 0 22.577520 -74.819760 -20.000000 0.000000 0.000000 -1.000000 0.000000 1.000000 0.000001 1.000000 0.000000 0.000000 2780.dat
1 0 61.969730 -67.873840 -20.000430 0.000000 0.000000 -1.000001 0.000000 1.000000 0.000001 1.000001 0.000000 0.000000 2780.dat
1 15 2.809910 -77.880040 -30.000500 -0.166770 0.000001 -0.985996 0.985996 -0.000001 -0.166769 -0.000001 -1.000000 -0.000001 32524.dat
0 STEP
1 1 162.187100 -60.357020 -9.999940 0.984808 -0.173650 0.000000 0.173648 0.984808 0.000000 0.000000 0.000000 1.000000 3703.dat
1 0 121.059000 -57.454920 0.000060 0.000000 0.000000 -1.000000 0.000000 1.000000 0.000001 1.000000 0.000000 0.000000 2780.dat
1 0 219.539700 -40.090030 0.000060 0.000000 0.000000 -1.000000 0.000000 1.000000 0.000001 1.000000 0.000000 0.000000 2780.dat
0 STEP
1 1 162.187800 -60.357020 10.000050 0.984808 -0.173650 0.000000 0.173648 0.984808 0.000000 0.000000 0.000000 1.000000 3703.dat
1 0 22.530820 -74.544520 19.999900 0.000000 0.000000 -1.000000 0.000000 1.000000 0.000001 1.000000 0.000000 0.000000 2780.dat
1 0 61.970620 -67.873840 20.000020 0.000000 0.000000 -1.000000 0.000000 1.000000 0.000001 1.000000 0.000000 0.000000 2780.dat
0 STEP
1 0 -56.348920 -87.886050 19.999900 0.000000 0.000000 -1.000000 0.000000 1.000000 0.000001 1.000000 0.000000 0.000000 2780.dat
1 0 -16.909700 -81.215340 20.000020 0.000000 0.000000 -1.000001 0.000000 1.000000 0.000001 1.000001 0.000000 0.000000 2780.dat
1 15 2.810910 -77.879920 29.999960 -0.166770 0.000001 -0.985996 0.985996 -0.000001 -0.166769 -0.000001 -1.000000 -0.000001 32524.dat
0 STEP
0 NOFILE
0 FILE SubModel Group 1
0 SubModel Group 1
0 Name:  SubModel Group 1
0 Author:  
0 CustomBrick
0 NumOfBricks:  7
1 1 25.856960 -9.000150 25.857040 -0.000001 -0.000001 -1.000000 -1.000000 0.000001 0.000002 0.000001 1.000000 -0.000001 32140.dat
1 1 -34.142610 -9.000040 5.857600 0.000000 -1.000000 0.000000 0.000000 0.000001 1.000000 -1.000000 0.000000 0.000000 6558.dat
1 1 -34.143040 -29.000040 5.857000 0.000000 -1.000000 0.000000 0.000000 0.000001 1.000000 -1.000000 0.000000 0.000000 6558.dat
0 STEP
1 0 -34.142940 -69.000220 -4.142940 0.000000 -1.000000 0.000000 0.000000 0.000001 -1.000000 1.000000 0.000000 0.000000 2780.dat
1 0 -34.142820 -169.000000 -4.142940 0.000000 -1.000000 0.000000 0.000000 0.000001 -1.000000 1.000000 0.000000 0.000000 2780.dat
1 15 -34.142820 -89.000060 5.857190 -1.000000 0.000001 -0.000001 0.000002 0.000001 -1.000000 -0.000001 -1.000000 -0.000001 40490.dat
0 STEP
1 1 25.856960 -9.000150 -14.142940 -0.000001 -0.000001 -1.000000 -1.000000 0.000001 0.000002 0.000001 1.000000 -0.000001 32140.dat
0 STEP
0 NOFILE
