0 FILE 旋转陀螺.io
0 Untitled Model
0 Name:  旋转陀螺
0 Author:  
0 CustomBrick
0 NumOfBricks:  58
1 1 -20.000010 -89.999720 -70.002180 0.000000 -1.000005 0.000000 -1.000000 0.000000 0.000000 0.000000 0.000000 -1.000005 3894.dat
1 0 -29.999470 -109.999900 -80.002190 0.000000 0.000000 -1.000005 0.000000 1.000000 0.000000 1.000005 0.000000 0.000000 2780.dat
1 0 -29.999450 -69.999760 -80.002170 0.000000 0.000000 -1.000005 0.000000 1.000000 0.000000 1.000005 0.000000 0.000000 2780.dat
0 STEP
1 0 -30.000080 -129.999700 -60.002080 0.000000 0.000000 -1.000005 0.000000 1.000000 0.000000 1.000005 0.000000 0.000000 2780.dat
1 0 -29.999980 -130.000000 -100.000100 0.000000 0.000000 -1.000000 0.000000 1.000000 0.000000 1.000000 0.000000 0.000000 2780.dat
1 1 -19.999390 -89.999860 -90.002810 0.000000 -1.000008 0.000000 -1.000003 0.000000 0.000000 0.000000 0.000000 -1.000005 3894.dat
0 STEP
1 0 -9.999380 -150.000000 -80.002620 0.000000 1.000000 0.000000 1.000000 0.000000 0.000000 0.000000 0.000000 -1.000000 2780.dat
1 71 10.000620 -150.000000 -80.002680 0.000000 -1.000000 0.000000 0.000000 0.000000 1.000000 -1.000000 0.000000 0.000000 58120.dat
1 71 10.000620 -160.000000 -80.002700 0.000000 0.000000 1.000000 1.000000 0.000000 0.000000 0.000000 1.000000 0.000000 4519.dat
0 STEP
1 15 -9.999350 -160.000000 -80.002700 0.000001 0.000001 -1.000000 -0.000001 -1.000000 -0.000001 -1.000000 0.000001 -0.000001 64290.dat
1 71 10.000620 -180.000000 -80.002700 1.000000 0.000000 0.000000 0.000000 0.000000 1.000000 0.000000 -1.000000 0.000000 3649.dat
0 STEP
1 1 -30.000080 -49.999700 -50.002080 0.000000 0.000000 -1.000005 0.000000 1.000000 0.000000 1.000005 0.000000 0.000000 6558.dat
1 71 -70.000070 -69.999710 -50.002210 -1.000000 0.000000 0.000000 0.000000 0.000000 -1.000000 0.000000 -1.000000 0.000000 64179.dat
0 STEP
1 1 -30.000030 -89.999690 -30.002220 1.000000 -0.000001 -0.000001 0.000001 0.000001 1.000000 -0.000001 -1.000000 0.000001 32526.dat
1 0 -30.000080 -9.999690 -40.002200 0.000000 0.000000 -1.000000 0.000000 1.000000 0.000000 1.000000 0.000000 0.000000 2780.dat
0 STEP
1 0 -110.000000 -89.999710 -40.002210 0.000000 0.000000 -1.000000 0.000000 1.000000 0.000000 1.000000 0.000000 0.000000 2780.dat
1 0 -109.999900 -9.999969 -60.000120 0.000000 0.000000 -1.000000 0.000000 1.000000 0.000000 1.000000 0.000000 0.000000 2780.dat
1 0 -110.000000 -49.999980 -60.000000 0.000000 0.000000 -1.000000 0.000000 1.000000 0.000000 1.000000 0.000000 0.000000 2780.dat
1 0 -110.000000 -129.999700 -40.002210 0.000000 0.000000 -1.000000 0.000000 1.000000 0.000000 1.000000 0.000000 0.000000 2780.dat
0 STEP
1 1 -110.000100 -70.000020 -69.999980 -1.000000 0.000001 0.000001 0.000001 0.000001 1.000000 0.000001 1.000000 -0.000001 32140.dat
1 0 -110.000000 -29.999980 -80.000110 0.000000 0.000000 -1.000000 0.000000 1.000000 0.000000 1.000000 0.000000 0.000000 2780.dat
0 STEP
1 1 -110.000000 -69.999980 -90.000000 -1.000000 0.000001 0.000001 0.000001 0.000001 1.000000 0.000001 1.000000 -0.000001 32140.dat
1 0 -109.999900 -9.999949 -100.000100 0.000000 0.000000 -1.000000 0.000000 1.000000 0.000000 1.000000 0.000000 0.000000 2780.dat
1 0 -110.000000 -49.999960 -100.000000 0.000000 0.000000 -1.000000 0.000000 1.000000 0.000000 1.000000 0.000000 0.000000 2780.dat
0 STEP
1 0 -110.000000 -89.999980 -120.000000 0.000000 0.000000 -1.000000 0.000000 1.000000 0.000000 1.000000 0.000000 0.000000 2780.dat
1 0 -110.000000 -130.000000 -120.000000 0.000000 0.000000 -1.000000 0.000000 1.000000 0.000000 1.000000 0.000000 0.000000 2780.dat
1 1 -29.999440 -49.999700 -110.003200 0.000000 0.000000 1.000005 0.000000 1.000000 0.000000 -1.000005 0.000000 0.000000 6558.dat
1 71 -70.000000 -70.000000 -110.000000 -1.000000 0.000000 0.000000 0.000000 0.000000 -1.000000 0.000000 -1.000000 0.000000 64179.dat
0 STEP
1 1 -29.999400 -89.999710 -130.003500 1.000000 -0.000001 -0.000001 0.000001 0.000001 1.000000 -0.000001 -1.000000 0.000001 32526.dat
1 0 -29.999990 -9.999980 -120.000100 0.000000 0.000000 -1.000000 0.000000 1.000000 0.000000 1.000000 0.000000 0.000000 2780.dat
0 STEP
1 1 -110.000000 -69.999980 -130.000000 -1.000000 0.000001 0.000001 -0.000001 -0.000001 -1.000000 -0.000001 -1.000000 0.000001 32271.dat
1 16 -125.512800 -60.999680 -74.198640 0.965926 -0.258820 0.000000 0.258820 0.965926 0.000001 0.000000 -0.000001 1.000000 submodel group 2
0 STEP
1 16 70.002020 -155.409900 -80.006450 0.920508 0.000000 -0.390725 0.000000 1.000000 0.000000 0.390725 0.000000 0.920508 submodel group 1
0 STEP
0 STEP
1 16 153.000000 0.000000 -160.000000 0.000000 0.000000 -1.000000 0.000000 1.000000 0.000000 1.000000 0.000000 0.000000 submodel group 9 copy copy copy
0 STEP
0 STEP
0 NOFILE
0 FILE SubModel Group 2
0 SubModel Group 2
0 Name:  SubModel Group 2
0 Author:  
0 CustomBrick
0 NumOfBricks:  18
1 0 -18.403580 -128.619500 34.196420 0.000000 0.258820 -0.965926 -0.000001 0.965926 0.258820 1.000000 0.000001 0.000000 2780.dat
1 19 -13.227240 -109.300900 34.196560 -0.000001 0.965926 -0.258821 0.000000 -0.258821 -0.965926 -1.000000 -0.000001 0.000000 3749.dat
1 1 12.654670 -12.708370 44.196420 -0.965926 0.000001 -0.258819 0.258819 0.000000 -0.965926 -0.000001 -1.000000 0.000000 32271.dat
0 STEP
1 72 -23.579960 -147.938300 29.088660 0.258820 0.000000 -0.965926 0.965926 0.000001 0.258820 0.000001 -1.000000 0.000000 99773.dat
1 14 -13.227240 -109.300900 19.196570 0.258820 0.965926 0.000000 0.965926 -0.258820 0.000001 0.000001 0.000000 -1.000000 32123a.dat
0 STEP
1 14 -33.932740 -186.575300 39.258600 0.258820 0.965926 0.000000 0.965926 -0.258820 0.000001 0.000001 0.000000 -1.000000 32123a.dat
1 71 -33.932730 -186.575300 -5.911360 0.000000 0.258820 0.965926 0.000001 0.965926 -0.258820 -1.000000 0.000001 0.000000 32073.dat
1 15 6.067250 -186.575700 14.088640 -0.000010 0.000001 -1.000000 -1.000000 0.000000 0.000010 0.000000 1.000000 0.000001 64871.dat
0 STEP
1 1 -93.933100 -186.574300 -5.601120 0.000000 -0.000001 -1.000000 -1.000000 0.000000 0.000000 0.000000 1.000000 -0.000001 32526.dat
1 1 -133.932800 -186.574300 -5.601260 0.000000 0.258819 0.965924 0.000001 0.965926 -0.258820 -1.000002 0.000001 0.000000 6558.dat
1 1 -93.932910 -186.574800 -5.601310 0.000000 0.258819 0.965924 0.000001 0.965926 -0.258820 -1.000002 0.000001 0.000000 6558.dat
0 STEP
1 71 -33.932740 -186.575300 -5.741370 0.258820 0.965926 0.000001 0.965926 -0.258820 0.000002 0.000002 0.000001 -1.000000 3713.dat
1 15 6.067230 -186.575700 -25.601370 -0.000010 0.000001 -1.000000 -1.000000 0.000000 0.000010 0.000000 1.000000 0.000001 64871.dat
0 STEP
1 72 -23.579960 -147.938200 -40.801350 -0.258820 0.000000 -0.965926 -0.965926 -0.000001 0.258820 -0.000001 1.000000 0.000000 99773.dat
1 14 -33.932740 -186.575200 -50.961360 0.258820 0.965926 0.000000 0.965926 -0.258820 0.000001 0.000001 0.000000 -1.000000 32123a.dat
0 STEP
1 0 -18.403560 -128.619700 -45.801380 0.000000 0.258820 -0.965926 -0.000001 0.965926 0.258820 1.000000 0.000001 0.000000 2780.dat
1 19 -13.227200 -109.301200 -45.801360 -0.000001 0.965926 0.258819 -0.000001 -0.258819 0.965926 1.000000 0.000001 0.000001 3749.dat
1 14 -13.227230 -109.301200 -30.801360 0.258820 0.965926 0.000000 0.965926 -0.258820 0.000001 0.000001 0.000000 -1.000000 32123a.dat
0 STEP
0 NOFILE
0 FILE SubModel Group 1
0 SubModel Group 1
0 Name:  SubModel Group 1
0 Author:  
0 CustomBrick
0 NumOfBricks:  6
1 0 0.000000 -97.999590 -0.000830 1.000002 0.000000 0.000000 0.000000 0.000000 -1.000001 0.000000 1.000001 0.000000 44309.dat
1 71 0.000000 -97.999590 -0.000830 0.000000 -1.000002 0.000000 0.000000 0.000000 -1.000001 1.000001 0.000000 0.000000 56145.dat
0 STEP
1 72 0.000010 -66.769600 -0.000830 0.000000 -1.000002 0.000000 0.000000 0.000000 -1.000001 1.000001 0.000000 0.000000 3648b.dat
1 0 0.000210 -50.000000 0.003990 0.000000 0.000000 -1.000001 -1.000000 0.000000 0.000000 0.000000 1.000001 0.000000 15462.dat
0 STEP
1 72 -0.000150 -23.079100 -0.000760 -1.000001 0.000000 0.000000 0.000000 0.000000 -1.000001 0.000000 -1.000001 0.000000 3647.dat
1 71 -0.000150 -43.079610 -0.000760 1.000001 0.000000 0.000001 0.000001 0.000000 -1.000001 0.000000 1.000001 0.000000 3713.dat
0 STEP
0 NOFILE
0 FILE SubModel Group 9 Copy Copy Copy
0 SubModel Group 9 Copy Copy Copy
0 Name:  SubModel Group 9 Copy Copy Copy
0 Author:  
0 CustomBrick
0 NumOfBricks:  3
1 72 10.000000 -1.128810 -10.000000 1.000000 0.000000 0.000000 0.000000 0.000000 -1.000000 0.000000 1.000000 0.000000 dch003.dat
1 71 -27.466620 -79.717990 29.427020 1.000000 0.000000 0.000000 0.000000 0.000000 -1.000000 0.000000 1.000000 0.000000 dch004.dat
1 25 7.837010 13.484720 -9.965000 1.000000 0.000000 0.000000 0.000000 0.000000 -1.000000 0.000000 1.000000 0.000000 dch005.dat
0 NOFILE
