0 FILE 探测车.io
0 Untitled Model
0 Name:  探测车
0 Author:  
0 CustomBrick
0 NumOfBricks:  118
1 16 228.999300 -280.445500 -248.999500 0.000000 0.999995 0.000000 0.999998 0.000000 0.000000 0.000000 0.000000 -1.000003 submodel group 9 copy copy copy
0 STEP
1 4 159.000400 -118.146800 -279.001100 -0.000001 1.000003 -0.000001 0.000001 0.000001 1.000005 1.000002 0.000001 -0.000001 32054.dat
1 19 159.000400 -118.146800 -309.001200 -0.000001 1.000001 -0.000001 0.000001 0.000001 1.000004 1.000002 0.000001 -0.000001 3749.dat
1 71 159.000300 -118.146800 -239.001000 0.000000 0.000000 1.000003 0.000000 1.000005 0.000000 -1.000003 0.000000 0.000000 64179.dat
0 STEP
1 4 158.999900 -118.146800 -199.000300 0.000001 -1.000002 0.000001 0.000001 0.000001 1.000005 -1.000002 -0.000001 0.000001 32054.dat
1 19 158.999900 -118.146800 -169.000200 -0.000001 1.000001 -0.000001 -0.000001 -0.000001 -1.000004 -1.000002 -0.000001 0.000001 3749.dat
0 STEP
1 0 199.000000 -327.672600 -259.000000 0.000000 -1.000000 0.000000 -1.000000 0.000000 0.000000 0.000000 0.000000 -1.000000 2780.dat
1 71 239.000000 -337.672600 -239.000000 0.000000 0.000000 -1.000000 0.000000 1.000000 0.000000 1.000000 0.000000 0.000000 60484.dat
1 0 198.999600 -327.672600 -219.000100 0.000000 1.000001 0.000000 -1.000000 0.000000 0.000000 0.000000 0.000000 1.000001 2780.dat
0 STEP
1 1 199.000400 -118.146700 -179.001000 0.000000 0.000000 -1.000002 0.000001 1.000005 0.000000 1.000002 0.000000 0.000000 6558.dat
1 1 219.000200 -58.146400 -179.001100 -1.000002 0.000001 0.000001 -0.000001 -0.000001 -1.000005 -0.000001 -1.000002 0.000001 32140.dat
1 0 219.000400 -118.146700 -169.001100 0.000000 0.000000 -1.000001 0.000000 1.000004 0.000000 1.000002 0.000000 0.000000 2780.dat
0 STEP
1 1 119.000100 -118.146700 -179.000800 0.000000 0.000000 -1.000002 0.000001 1.000005 0.000000 1.000002 0.000000 0.000000 6558.dat
1 1 99.000000 -58.146430 -179.000800 1.000002 -0.000001 -0.000001 -0.000001 -0.000001 -1.000005 0.000001 1.000002 -0.000001 32140.dat
1 0 98.999880 -118.146700 -169.000800 0.000000 0.000000 -1.000001 0.000000 1.000004 0.000000 1.000002 0.000000 0.000000 2780.dat
0 STEP
1 15 159.000100 -58.146420 -159.461000 0.000001 0.000001 -1.000000 -1.000002 0.000001 -0.000001 0.000001 1.000002 0.000001 32524.dat
1 19 99.000000 -58.146400 -169.000700 -0.000001 1.000001 -0.000001 -0.000001 -0.000001 -1.000004 -1.000002 -0.000001 0.000001 3749.dat
1 19 219.000300 -58.146400 -169.000900 -0.000001 1.000001 -0.000001 -0.000001 -0.000001 -1.000004 -1.000003 -0.000001 0.000001 3749.dat
0 STEP
1 0 99.000060 -118.146800 -309.001200 0.000000 0.000000 -1.000001 0.000000 1.000004 0.000000 1.000003 0.000000 0.000000 2780.dat
1 1 119.000100 -118.146800 -299.001200 0.000000 0.000000 -1.000002 0.000000 -1.000005 0.000000 -1.000002 0.000000 0.000000 6558.dat
1 1 99.000000 -58.146450 -299.001200 1.000002 -0.000001 -0.000001 -0.000001 -0.000001 -1.000005 0.000001 1.000003 -0.000001 32140.dat
0 STEP
1 1 199.000300 -118.146800 -299.001200 0.000000 0.000000 -1.000002 0.000000 -1.000005 0.000000 -1.000002 0.000000 0.000000 6558.dat
1 1 219.000200 -58.146460 -299.001300 -1.000002 0.000001 0.000001 -0.000001 -0.000001 -1.000005 -0.000001 -1.000002 0.000001 32140.dat
1 0 219.000300 -118.146800 -309.001200 0.000000 0.000000 -1.000001 0.000000 1.000004 0.000000 1.000002 0.000000 0.000000 2780.dat
0 STEP
1 15 159.000100 -58.146440 -319.001300 0.000001 0.000001 -1.000000 -1.000002 0.000001 -0.000001 0.000001 1.000002 0.000001 32524.dat
1 19 219.000200 -58.146460 -309.001300 -0.000001 1.000001 -0.000001 0.000001 0.000001 1.000004 1.000002 0.000001 -0.000001 3749.dat
1 19 99.000060 -58.146480 -309.001200 -0.000001 1.000001 -0.000001 0.000001 0.000001 1.000004 1.000002 0.000001 -0.000001 3749.dat
0 STEP
1 71 199.000400 -58.146380 -127.390900 1.000000 0.000000 0.000000 0.000000 -1.000002 -0.000001 0.000000 0.000000 -1.000002 57520.dat
1 0 199.000300 -58.146420 -239.391100 0.000000 0.000000 1.000000 0.000000 1.000002 0.000000 -1.000002 0.000000 0.000000 3708.dat
1 14 199.000400 -58.146380 -143.030900 0.000000 1.000000 0.000000 1.000002 0.000000 0.000000 0.000000 0.000000 -1.000002 32123a.dat
0 STEP
1 71 199.000200 -58.146520 -349.001400 1.000001 0.000000 0.000000 0.000000 1.000004 0.000000 0.000000 0.000000 1.000003 57520.dat
1 14 199.000200 -58.146440 -334.391400 0.000000 1.000000 0.000000 1.000002 0.000000 0.000000 0.000000 0.000000 -1.000002 32123a.dat
0 STEP
1 71 119.000100 -58.146440 -127.750300 1.000000 0.000000 0.000000 0.000000 -1.000002 -0.000001 0.000000 0.000000 -1.000003 57520.dat
1 0 119.000100 -58.146480 -239.751000 0.000000 0.000000 1.000000 0.000000 1.000002 0.000000 -1.000002 0.000000 0.000000 3708.dat
1 14 119.000100 -58.146440 -143.390300 0.000000 1.000000 0.000000 1.000002 0.000000 0.000000 0.000000 0.000000 -1.000003 32123a.dat
0 STEP
1 71 119.000100 -58.146600 -349.362100 1.000001 0.000000 0.000000 0.000000 1.000004 0.000000 0.000000 0.000000 1.000003 57520.dat
1 14 118.999300 -58.146600 -334.750600 0.000000 1.000000 0.000000 1.000002 0.000000 0.000000 0.000000 0.000000 -1.000003 32123a.dat
0 STEP
1 15 159.000200 -118.146700 -319.001300 0.000001 0.000001 -1.000001 -1.000004 0.000001 -0.000001 0.000001 1.000002 0.000001 64871.dat
1 15 159.000000 -118.146700 -159.000900 0.000001 0.000001 -1.000001 -1.000004 0.000001 -0.000001 0.000001 1.000002 0.000001 64871.dat
0 STEP
1 14 58.999960 -118.146700 -144.030700 0.000000 1.000000 0.000000 1.000000 0.000000 0.000000 0.000000 0.000000 -1.000000 32123a.dat
1 72 58.999950 -118.146700 -140.560700 0.000000 0.000000 -1.000000 0.000000 -1.000000 0.000000 -1.000000 0.000000 0.000000 6587.dat
1 71 58.999700 -118.146800 -129.890800 0.000000 -1.000000 0.000000 -1.000002 0.000000 0.000000 0.000000 0.000000 -1.000003 57519.dat
0 STEP
1 0 38.999890 -118.146900 -309.001100 0.000000 0.000000 -1.000001 0.000000 1.000004 0.000000 1.000003 0.000000 0.000000 2780.dat
1 71 58.999880 -118.146800 -309.001100 1.000001 0.000000 0.000000 0.000000 1.000004 0.000000 0.000000 0.000000 1.000002 58120.dat
1 0 78.999950 -118.146800 -309.001100 0.000000 0.000000 -1.000001 0.000000 1.000004 0.000000 1.000002 0.000000 0.000000 2780.dat
0 STEP
1 0 58.999760 -118.146900 -328.341200 0.000000 0.000000 1.000001 0.000000 1.000004 0.000000 -1.000003 0.000000 0.000000 3705.dat
1 71 58.999820 -118.146800 -347.231100 0.000000 -1.000000 0.000000 -1.000002 0.000000 0.000000 0.000000 0.000000 -1.000002 57519.dat
0 STEP
1 0 259.000200 -118.146600 -238.641100 0.000000 0.000000 1.000001 0.000000 1.000004 0.000000 -1.000002 0.000000 0.000000 3708.dat
1 71 259.000200 -118.146700 -347.861400 0.000000 1.000001 0.000000 -1.000004 0.000000 0.000000 0.000000 0.000000 1.000002 57519.dat
1 71 259.000200 -118.146600 -130.461000 0.000000 -1.000001 0.000000 -1.000004 0.000000 0.000000 0.000000 0.000000 -1.000002 57519.dat
0 STEP
1 0 74.996240 -170.937100 -359.228500 0.000000 0.010935 0.999942 0.000000 0.999939 -0.010935 -0.999999 0.000000 0.000000 88323.dat
1 0 104.994800 -171.265300 -359.231000 0.000000 0.010935 0.999940 0.000000 0.999942 -0.010935 -1.000002 0.000000 0.000000 88323.dat
1 0 134.992800 -171.593300 -359.231000 0.000000 0.010935 0.999940 0.000000 0.999942 -0.010935 -1.000002 0.000000 0.000000 88323.dat
1 0 164.991200 -171.921400 -359.231000 0.000000 0.010935 0.999940 0.000000 0.999942 -0.010935 -1.000002 0.000000 0.000000 88323.dat
1 0 194.989400 -172.249400 -359.231200 0.000000 0.010935 0.999940 0.000000 0.999942 -0.010935 -1.000002 0.000000 0.000000 88323.dat
1 0 224.987600 -172.577400 -359.231200 0.000000 0.010935 0.999940 0.000000 0.999942 -0.010935 -1.000002 0.000000 0.000000 88323.dat
1 0 254.985800 -170.905400 -359.230900 0.000000 -0.118489 0.992955 0.000000 0.992957 0.118490 -1.000002 0.000000 0.000000 88323.dat
1 0 283.911100 -159.450400 -359.231000 0.000000 -0.394086 0.919074 0.000000 0.919076 0.394088 -1.000002 0.000000 0.000000 88323.dat
1 0 306.952900 -139.311200 -359.230900 0.000000 -0.721907 0.691990 0.000000 0.691991 0.721908 -1.000002 0.000000 0.000000 88323.dat
1 0 309.989900 -109.440300 -359.231100 0.000000 -0.998478 0.055159 0.000000 0.055159 0.998480 -1.000002 0.000000 0.000000 88323.dat
1 0 306.318100 -80.779170 -359.231200 0.000000 -0.982175 -0.187972 0.000000 -0.187973 0.982177 -1.000002 0.000000 0.000000 88323.dat
1 0 286.116100 -69.411060 -359.231200 0.000000 -0.545614 -0.838035 0.000000 -0.838038 0.545616 -1.000002 0.000000 0.000000 88323.dat
1 0 260.974900 -53.042560 -359.231100 0.000000 -0.545614 -0.838035 0.000000 -0.838038 0.545616 -1.000002 0.000000 0.000000 88323.dat
1 0 235.833800 -36.674060 -359.231100 0.000000 -0.545614 -0.838035 0.000000 -0.838038 0.545616 -1.000002 0.000000 0.000000 88323.dat
1 0 211.993400 -19.163900 -359.231000 0.000000 -0.571689 -0.820470 0.000000 -0.820473 0.571691 -1.000002 0.000000 0.000000 88323.dat
1 0 45.142770 -171.431300 -359.231100 0.000000 0.352274 0.935897 0.000000 0.935899 -0.352274 -1.000002 0.000000 0.000000 88323.dat
1 0 17.716300 -160.674800 -359.231200 0.000000 0.841674 0.539986 0.000000 0.539987 -0.841677 -1.000002 0.000000 0.000000 88323.dat
1 0 0.738030 -133.718200 -359.231000 0.000000 0.999968 0.007926 0.000000 0.007926 -0.999971 -1.000002 0.000000 0.000000 88323.dat
1 0 2.510550 -102.368800 -359.230900 0.000000 0.872080 -0.489364 0.000000 -0.489365 -0.872083 -1.000002 0.000000 0.000000 88323.dat
1 0 17.541990 -76.303750 -359.230900 0.000000 0.588272 -0.808663 0.000000 -0.808666 -0.588273 -1.000002 0.000000 0.000000 88323.dat
1 0 42.141180 -57.974660 -359.231100 0.000000 0.456528 -0.889709 0.000000 -0.889712 -0.456529 -1.000002 0.000000 0.000000 88323.dat
1 0 70.130940 -44.571160 -359.231100 0.000000 0.498464 -0.866910 0.000000 -0.866913 -0.498465 -1.000002 0.000000 0.000000 88323.dat
1 0 97.695850 -30.080820 -359.231000 0.000000 0.329602 -0.944120 0.000000 -0.944123 -0.329602 -1.000002 0.000000 0.000000 88323.dat
1 0 150.381200 -16.487470 -359.231000 0.000000 0.064871 -0.997894 0.000000 -0.997896 -0.064871 -1.000002 0.000000 0.000000 88323.dat
1 0 181.136600 -15.164090 -359.231200 0.000000 -0.171382 -0.985205 0.000000 -0.985208 0.171382 -1.000002 0.000000 0.000000 88323.dat
1 0 126.999800 -20.164880 -360.190800 0.000000 0.064871 -0.997894 0.000000 -0.997896 -0.064871 -1.000002 0.000000 0.000000 88323.dat
0 STEP
1 0 74.996420 -170.937100 -129.890100 0.000000 0.010935 0.999941 0.000000 0.999941 -0.010935 -1.000001 0.000000 0.000000 88323.dat
1 0 104.994500 -171.265200 -129.890700 0.000000 0.010935 0.999940 0.000000 0.999942 -0.010935 -1.000003 0.000000 0.000000 88323.dat
1 0 134.992700 -171.593200 -129.890700 0.000000 0.010935 0.999940 0.000000 0.999942 -0.010935 -1.000003 0.000000 0.000000 88323.dat
1 0 164.991000 -171.921300 -129.890700 0.000000 0.010935 0.999940 0.000000 0.999942 -0.010935 -1.000003 0.000000 0.000000 88323.dat
1 0 194.989200 -172.249300 -129.890700 0.000000 0.010935 0.999940 0.000000 0.999942 -0.010935 -1.000003 0.000000 0.000000 88323.dat
1 0 224.987400 -172.577300 -129.890700 0.000000 0.010935 0.999940 0.000000 0.999942 -0.010935 -1.000003 0.000000 0.000000 88323.dat
1 0 254.985600 -170.905400 -129.890700 0.000000 -0.118489 0.992955 0.000000 0.992958 0.118489 -1.000003 0.000000 0.000000 88323.dat
1 0 283.910700 -159.450300 -129.890800 0.000000 -0.394086 0.919074 0.000000 0.919076 0.394088 -1.000003 0.000000 0.000000 88323.dat
1 0 306.952700 -139.311100 -129.890800 0.000000 -0.721907 0.691990 0.000000 0.691991 0.721908 -1.000003 0.000000 0.000000 88323.dat
1 0 309.989800 -109.440300 -129.890800 0.000000 -0.998478 0.055160 0.000000 0.055160 0.998480 -1.000003 0.000000 0.000000 88323.dat
1 0 306.318000 -80.779170 -129.890800 0.000000 -0.982175 -0.187972 0.000000 -0.187973 0.982177 -1.000003 0.000000 0.000000 88323.dat
1 0 286.115800 -69.411060 -129.890800 0.000000 -0.545615 -0.838035 0.000000 -0.838038 0.545616 -1.000003 0.000000 0.000000 88323.dat
1 0 260.974700 -53.042550 -129.890800 0.000000 -0.545615 -0.838035 0.000000 -0.838038 0.545616 -1.000003 0.000000 0.000000 88323.dat
1 0 235.833600 -36.674030 -129.890800 0.000000 -0.545615 -0.838035 0.000000 -0.838038 0.545616 -1.000003 0.000000 0.000000 88323.dat
1 0 211.993100 -19.163890 -129.890800 0.000000 -0.571690 -0.820470 0.000000 -0.820473 0.571691 -1.000003 0.000000 0.000000 88323.dat
1 0 45.142720 -171.431200 -129.890700 0.000000 0.352274 0.935897 0.000000 0.935899 -0.352275 -1.000003 0.000000 0.000000 88323.dat
1 0 17.716060 -160.674700 -129.890700 0.000000 0.841674 0.539986 0.000000 0.539987 -0.841676 -1.000003 0.000000 0.000000 88323.dat
1 0 0.740350 -133.718100 -129.890700 0.000000 0.999969 0.007925 0.000000 0.007926 -0.999971 -1.000003 0.000000 0.000000 88323.dat
1 0 2.510070 -102.368700 -129.890700 0.000000 0.872080 -0.489364 0.000000 -0.489365 -0.872082 -1.000003 0.000000 0.000000 88323.dat
1 0 17.541680 -76.303660 -129.890700 0.000000 0.588272 -0.808663 0.000000 -0.808666 -0.588273 -1.000003 0.000000 0.000000 88323.dat
1 0 42.141120 -57.974580 -129.890700 0.000000 0.456527 -0.889709 0.000000 -0.889712 -0.456529 -1.000003 0.000000 0.000000 88323.dat
1 0 70.130820 -44.571100 -129.890700 0.000000 0.498464 -0.866911 0.000000 -0.866913 -0.498465 -1.000003 0.000000 0.000000 88323.dat
1 0 97.695680 -30.080780 -129.890700 0.000000 0.329601 -0.944121 0.000000 -0.944123 -0.329602 -1.000003 0.000000 0.000000 88323.dat
1 0 150.381100 -16.487440 -129.890700 0.000000 0.064870 -0.997894 0.000000 -0.997896 -0.064871 -1.000003 0.000000 0.000000 88323.dat
1 0 181.136400 -15.164040 -129.890800 0.000000 -0.171382 -0.985205 0.000000 -0.985208 0.171382 -1.000003 0.000000 0.000000 88323.dat
1 0 126.999600 -20.164810 -130.850600 0.000000 0.064870 -0.997894 0.000000 -0.997896 -0.064871 -1.000003 0.000000 0.000000 88323.dat
0 STEP
1 1 179.000100 -318.147500 -279.001000 0.000000 0.000000 1.000000 0.000000 1.000002 0.000000 -1.000002 0.000000 0.000000 6558.dat
1 15 218.999700 -318.147600 -279.001000 0.000001 0.000001 -1.000000 -1.000000 0.000001 -0.000001 0.000001 1.000000 0.000001 64290.dat
1 1 138.999700 -318.147700 -279.001000 0.000000 0.000000 1.000001 0.000000 1.000003 0.000000 -1.000002 0.000000 0.000000 6558.dat
0 STEP
1 1 179.000100 -318.147500 -199.000900 0.000000 0.000000 -1.000000 0.000000 1.000002 0.000000 1.000002 0.000000 0.000000 6558.dat
1 1 139.000100 -318.147500 -199.000800 0.000000 0.000000 -1.000000 0.000000 1.000002 0.000000 1.000002 0.000000 0.000000 6558.dat
1 15 219.000100 -318.147400 -199.000900 0.000001 0.000001 -1.000000 -1.000000 0.000001 -0.000001 0.000001 1.000000 0.000001 64290.dat
0 STEP
1 1 139.000200 -398.147600 -179.001000 1.000000 -0.000001 -0.000001 0.000001 0.000001 1.000000 -0.000001 -1.000000 0.000001 32526.dat
1 1 138.999800 -398.147700 -299.001100 1.000000 -0.000001 -0.000001 0.000001 0.000001 1.000000 -0.000001 -1.000000 0.000001 32526.dat
0 STEP
1 0 138.999800 -398.147900 -289.000600 0.000000 0.000000 1.000000 0.000000 1.000001 0.000000 -1.000001 0.000000 0.000000 2780.dat
1 0 138.999800 -358.147900 -289.000600 0.000000 0.000000 1.000000 0.000000 1.000001 0.000000 -1.000001 0.000000 0.000000 2780.dat
1 1 218.999900 -398.147700 -279.001100 -0.000001 -0.000001 -1.000000 1.000001 -0.000001 -0.000001 -0.000001 -1.000001 0.000001 32526.dat
0 STEP
1 1 219.000000 -398.147600 -199.000000 -0.000001 -0.000001 -1.000000 1.000003 -0.000001 -0.000001 -0.000001 -1.000002 0.000001 32526.dat
1 0 139.000100 -398.148100 -189.000000 0.000000 0.000000 1.000000 0.000000 1.000003 0.000000 -1.000003 0.000000 0.000000 2780.dat
1 0 139.000100 -358.148100 -188.999800 0.000000 0.000000 1.000000 0.000000 1.000003 0.000000 -1.000003 0.000000 0.000000 2780.dat
0 STEP
0 STEP
0 NOFILE
0 FILE SubModel Group 9 Copy Copy Copy
0 SubModel Group 9 Copy Copy Copy
0 Name:  SubModel Group 9 Copy Copy Copy
0 Author:  
0 CustomBrick
0 NumOfBricks:  3
1 72 10.000000 -1.128810 -10.000000 1.000000 0.000000 0.000000 0.000000 0.000000 -1.000000 0.000000 1.000000 0.000000 dch003.dat
1 71 -27.466620 -79.717990 29.427020 1.000000 0.000000 0.000000 0.000000 0.000000 -1.000000 0.000000 1.000000 0.000000 dch004.dat
1 25 7.837010 13.484720 -9.965000 1.000000 0.000000 0.000000 0.000000 0.000000 -1.000000 0.000000 1.000000 0.000000 dch005.dat
0 NOFILE
