0 FILE 往返小车.io
0 Untitled Model
0 Name:  往返小车
0 Author:  
0 CustomBrick
0 NumOfBricks:  93
1 16 108.005100 -101.534800 70.096370 -1.000005 0.000000 0.000000 0.000000 1.000000 0.000000 0.000000 0.000000 -1.000005 submodel group 9 copy copy copy
1 0 145.998000 -193.998700 111.099600 0.000000 0.000000 0.999996 0.000000 0.999994 0.000000 -1.000000 0.000000 0.000000 2780.dat
1 0 145.998000 -153.998900 111.099600 0.000000 0.000000 0.999996 0.000000 0.999994 0.000000 -1.000000 0.000000 0.000000 2780.dat
1 1 145.998000 -53.999490 121.099500 -0.999996 0.000000 0.000000 0.000000 0.000000 0.999994 0.000000 1.000000 0.000000 32009.dat
0 STEP
1 0 -54.001020 -153.998900 111.099500 0.000000 0.000000 0.999996 0.000000 0.999994 0.000000 -1.000000 0.000000 0.000000 2780.dat
1 0 -54.001020 -193.998700 111.099500 0.000000 0.000000 0.999996 0.000000 0.999994 0.000000 -1.000000 0.000000 0.000000 2780.dat
1 1 -54.001020 -53.999500 121.099500 0.999996 0.000000 0.000000 0.000000 0.000000 0.999994 0.000000 -1.000000 0.000000 32009.dat
0 STEP
1 0 145.998000 -153.998900 51.099490 0.000000 0.000000 0.999996 0.000000 0.999994 0.000000 -1.000000 0.000000 0.000000 2780.dat
1 0 145.998000 -193.998700 51.099490 0.000000 0.000000 0.999996 0.000000 0.999994 0.000000 -1.000000 0.000000 0.000000 2780.dat
1 1 145.998200 -53.999440 41.099490 -0.999996 0.000000 0.000000 0.000000 0.000000 0.999994 0.000000 1.000000 0.000000 32009.dat
0 STEP
1 0 -54.001020 -193.998700 51.099490 0.000000 0.000000 0.999996 0.000000 0.999994 0.000000 -1.000000 0.000000 0.000000 2780.dat
1 0 -54.001020 -153.998900 51.099490 0.000000 0.000000 0.999996 0.000000 0.999994 0.000000 -1.000000 0.000000 0.000000 2780.dat
1 1 -54.001020 -53.999490 41.099610 0.999996 0.000000 0.000000 0.000000 0.000000 0.999994 0.000000 -1.000000 0.000000 32009.dat
0 STEP
1 1 45.998580 -63.999440 141.099500 -0.999996 0.000000 0.000000 0.000000 0.999994 0.000000 0.000000 0.000000 -1.000000 3703.dat
1 0 -14.001180 -53.999490 131.099500 0.000000 0.000000 -0.999996 0.000000 0.999994 0.000000 1.000000 0.000000 0.000000 2780.dat
1 0 105.998200 -53.999490 131.099500 0.000000 0.000000 -0.999996 0.000000 0.999994 0.000000 1.000000 0.000000 0.000000 2780.dat
0 STEP
1 1 -94.001350 -63.999440 121.099600 -0.999996 0.000000 0.000000 0.000000 0.999994 0.000000 0.000000 0.000000 -1.000000 3701.dat
1 1 -74.001380 -53.999480 121.099500 0.000000 0.000000 -0.999996 0.000000 0.999994 0.000000 1.000000 0.000000 0.000000 6558.dat
0 STEP
1 1 -94.001350 -63.999420 101.099500 -0.999996 0.000000 0.000000 0.000000 0.999994 0.000000 0.000000 0.000000 -1.000000 3701.dat
1 0 -114.001300 -53.999480 111.099600 0.000000 0.000000 0.999996 0.000000 0.999994 0.000000 -1.000000 0.000000 0.000000 2780.dat
0 STEP
1 1 185.998300 -63.999440 121.097700 -0.999994 0.000000 0.000000 0.000000 0.999994 0.000000 0.000000 0.000000 -0.999998 3701.dat
1 1 165.998200 -53.999480 121.099500 0.000000 0.000000 -0.999999 0.000000 0.999994 0.000000 1.000003 0.000000 0.000000 6558.dat
0 STEP
1 1 185.998300 -63.999450 101.099300 0.999999 0.000000 0.000000 0.000000 0.999994 0.000000 0.000000 0.000000 1.000003 3701.dat
1 0 205.998200 -53.999480 111.099000 0.000000 0.000000 -0.999999 0.000000 0.999994 0.000000 1.000003 0.000000 0.000000 2780.dat
0 STEP
1 16 45.998520 -39.999550 44.834260 1.000000 0.000000 0.000000 0.000000 1.000000 0.000000 0.000000 0.000000 1.000000 submodel group 1
0 STEP
1 0 185.998000 -53.999480 78.079780 0.000000 0.000000 -0.999994 0.000000 0.999994 0.000000 0.999998 0.000000 0.000000 3708.dat
1 71 185.998000 -53.999490 161.369600 -0.999994 0.000000 -0.000001 0.000000 0.999994 0.000000 0.000001 0.000000 -0.999998 3713.dat
1 71 185.998100 -53.999460 0.989810 -0.999996 0.000000 -0.000001 0.000000 0.999994 0.000000 0.000001 0.000000 -1.000000 3713.dat
1 71 185.998000 -53.999460 80.859790 -0.999996 0.000000 -0.000001 0.000000 0.999994 0.000000 0.000001 0.000000 -1.000000 3713.dat
0 STEP
1 71 -94.000960 -93.999210 1.099670 0.000000 -0.999996 0.000000 0.000000 0.000000 0.999994 -1.000000 0.000000 0.000000 4519.dat
1 71 -94.000960 -93.999210 11.099670 0.999996 0.000000 0.000000 0.000000 0.999994 0.000000 0.000000 0.000000 1.000000 58120.dat
0 STEP
1 0 -54.001120 -53.999460 11.099670 0.000000 0.000000 -0.999996 0.000000 0.999994 0.000000 1.000000 0.000000 0.000000 2780.dat
1 0 -94.000960 -73.999340 11.099670 0.000000 0.000000 -0.999996 0.000000 0.999994 0.000000 1.000000 0.000000 0.000000 2780.dat
1 0 -94.000960 -113.999100 11.099670 0.000000 0.000000 -0.999996 0.000000 0.999994 0.000000 1.000000 0.000000 0.000000 2780.dat
0 STEP
1 1 -94.000960 -133.999000 1.099670 0.999996 -0.000001 -0.000001 0.000001 0.000001 0.999994 -0.000001 -1.000000 0.000001 32526.dat
1 72 -94.000960 -93.999210 -19.030340 0.000000 -0.999996 0.000000 0.999994 0.000000 0.000000 0.000000 0.000000 1.000000 3647.dat
0 STEP
1 72 -94.000960 -53.999460 -17.210020 0.999996 0.000000 0.000000 0.000000 0.999994 0.000000 0.000000 0.000000 1.000000 3648b.dat
1 0 -94.000960 -53.999460 61.099670 0.000000 0.000000 -0.999994 0.000000 0.999994 0.000000 0.999998 0.000000 0.000000 3708.dat
1 71 -94.000960 -53.999460 81.099910 -0.999996 0.000000 -0.000001 0.000000 0.999994 0.000000 0.000001 0.000000 -1.000000 3713.dat
1 14 -94.000960 -53.999490 156.049800 -0.999994 0.000000 0.000000 0.000000 -0.999994 0.000000 0.000000 0.000000 0.999998 32123a.dat
0 STEP
1 0 -94.000000 -53.999480 -58.000000 -1.000000 0.000000 0.000000 0.000000 1.000000 0.000000 0.000000 0.000000 -1.000000 44309.dat
1 71 -94.000960 -53.999460 -58.000000 0.000000 0.999996 0.000000 0.999994 0.000000 0.000000 0.000000 0.000000 -1.000000 56145.dat
1 0 185.996500 -53.999400 -30.498420 0.999996 0.000000 0.000000 0.000000 -0.999994 0.000000 0.000000 0.000000 -1.000000 44309.dat
1 71 185.998000 -53.999460 -30.500000 0.000000 -0.999996 0.000000 -0.999994 0.000000 0.000000 0.000000 0.000000 -1.000000 56145.dat
0 STEP
1 0 -94.004940 -54.000000 181.422700 -1.000035 0.000000 0.000000 0.000000 -1.000033 0.000000 0.000000 0.000000 1.000000 44309.dat
1 71 -94.000960 -53.999490 181.409400 0.000000 0.999996 0.000000 -0.999994 0.000000 0.000000 0.000000 0.000000 1.000000 56145.dat
1 0 185.995100 -53.999400 192.318600 0.000000 -0.999992 0.000000 0.999994 0.000000 0.000000 0.000000 0.000000 0.999996 44309.dat
1 71 185.998100 -53.999490 192.319500 -1.000003 0.000000 0.000000 0.000000 -1.000001 0.000000 0.000000 0.000000 1.000000 56145.dat
0 STEP
1 1 66.004600 -253.998500 71.096440 0.000000 0.000000 -1.000000 0.000000 1.000000 0.000000 1.000000 0.000000 0.000000 6558.dat
1 15 66.004600 -253.998500 51.096500 0.000001 0.000001 -1.000002 -0.999994 0.000001 -0.000001 0.000001 1.000006 0.000001 32523.dat
1 15 65.998620 -253.998300 91.099490 0.000001 0.000001 -0.999996 -0.999994 0.000001 -0.000001 0.000001 1.000000 0.000001 32523.dat
0 STEP
1 71 45.998700 -253.998300 101.099500 0.000000 0.000000 -0.999996 0.000000 0.999994 0.000000 1.000000 0.000000 0.000000 3673.dat
1 71 85.998540 -253.998300 101.099500 0.000000 0.000000 -0.999996 0.000000 0.999994 0.000000 1.000000 0.000000 0.000000 3673.dat
1 15 65.998620 -253.998300 111.099600 0.000001 0.000001 -0.999996 -0.999994 0.000001 -0.000001 0.000001 1.000000 0.000001 64871.dat
0 STEP
1 71 86.004640 -253.998400 41.095640 0.000000 0.000000 -1.000002 0.000000 0.999994 0.000000 1.000006 0.000000 0.000000 3673.dat
1 71 46.004880 -253.998500 41.095640 0.000000 0.000000 -1.000002 0.000000 0.999994 0.000000 1.000006 0.000000 0.000000 3673.dat
1 15 66.004780 -253.998400 31.095400 0.000001 0.000001 -1.000002 -0.999994 0.000001 -0.000001 0.000001 1.000006 0.000001 64871.dat
0 STEP
1 0 205.998100 -253.998100 121.099400 0.000000 0.000000 0.999996 0.000000 0.999994 0.000000 -1.000000 0.000000 0.000000 2780.dat
1 0 165.998200 -253.998200 121.099400 0.000000 0.000000 0.999996 0.000000 0.999994 0.000000 -1.000000 0.000000 0.000000 2780.dat
1 15 265.997900 -253.998300 131.099400 0.000001 0.000001 -0.999996 0.999994 -0.000001 0.000001 -0.000001 -1.000000 -0.000001 64290.dat
0 STEP
1 0 166.004600 -253.998300 21.095280 0.000000 0.000000 -0.999996 0.000000 0.999994 0.000000 1.000000 0.000000 0.000000 2780.dat
1 0 206.004500 -253.998300 21.095280 0.000000 0.000000 -1.000003 0.000000 0.999994 0.000000 1.000007 0.000000 0.000000 2780.dat
1 15 266.004300 -253.998200 11.095220 0.000001 0.000001 -0.999996 -0.999994 0.000001 -0.000001 0.000001 1.000000 0.000001 64290.dat
0 STEP
1 15 386.003500 -253.998100 31.094970 0.000001 0.000001 -0.999996 -0.999994 0.000001 -0.000001 0.000001 1.000000 0.000001 32316.dat
1 0 366.003500 -253.998100 21.095090 0.000000 0.000000 -0.999996 0.000000 0.999994 0.000000 1.000000 0.000000 0.000000 2780.dat
1 0 346.003600 -253.998100 21.095220 0.000000 0.000000 -0.999996 0.000000 0.999994 0.000000 1.000000 0.000000 0.000000 2780.dat
0 STEP
1 0 365.997400 -253.998400 121.099600 0.000000 0.000000 -0.999996 0.000000 0.999994 0.000000 1.000000 0.000000 0.000000 2780.dat
1 0 345.997500 -253.998400 121.099600 0.000000 0.000000 -0.999996 0.000000 0.999994 0.000000 1.000000 0.000000 0.000000 2780.dat
1 15 385.997300 -253.998400 111.099400 0.000001 0.000001 -0.999996 -0.999994 0.000001 -0.000001 0.000001 1.000000 0.000001 32316.dat
0 STEP
1 0 -34.000980 -253.998400 121.099600 0.000000 0.000000 0.999996 0.000000 0.999994 0.000000 -1.000000 0.000000 0.000000 2780.dat
1 0 -74.000820 -253.998400 121.099700 0.000000 0.000000 0.999996 0.000000 0.999994 0.000000 -1.000000 0.000000 0.000000 2780.dat
1 15 -134.000600 -253.998300 131.099400 0.000001 0.000001 -0.999996 0.999994 -0.000001 0.000001 -0.000001 -1.000000 -0.000001 64290.dat
0 STEP
1 0 -73.995440 -253.998600 21.095400 0.000000 0.000000 -1.000003 0.000000 0.999994 0.000000 1.000007 0.000000 0.000000 2780.dat
1 0 -33.995120 -253.998500 21.094180 0.000000 0.000000 -0.999996 0.000000 0.999994 0.000000 1.000000 0.000000 0.000000 2780.dat
1 15 -133.995200 -253.998600 11.095460 0.000001 0.000001 -0.999996 -0.999994 0.000001 -0.000001 0.000001 1.000000 0.000001 64290.dat
0 STEP
1 0 -234.000200 -253.998100 121.099200 0.000000 0.000000 -0.999996 0.000000 0.999994 0.000000 1.000000 0.000000 0.000000 2780.dat
1 0 -214.000200 -253.998200 121.099400 0.000000 0.000000 -0.999996 0.000000 0.999994 0.000000 1.000000 0.000000 0.000000 2780.dat
1 15 -254.000100 -253.998200 111.099500 0.000001 0.000001 -0.999996 -0.999994 0.000001 -0.000001 0.000001 1.000000 0.000001 32316.dat
0 STEP
1 15 -253.994900 -253.998700 31.095580 0.000001 0.000001 -0.999996 -0.999994 0.000001 -0.000001 0.000001 1.000000 0.000001 32316.dat
1 0 -213.995200 -253.998700 21.095580 0.000000 0.000000 -0.999996 0.000000 0.999994 0.000000 1.000000 0.000000 0.000000 2780.dat
1 0 -233.995100 -253.998700 21.095580 0.000000 0.000000 -0.999996 0.000000 0.999994 0.000000 1.000000 0.000000 0.000000 2780.dat
0 STEP
0 STEP
0 NOFILE
0 FILE SubModel Group 9 Copy Copy Copy
0 SubModel Group 9 Copy Copy Copy
0 Name:  SubModel Group 9 Copy Copy Copy
0 Author:  
0 CustomBrick
0 NumOfBricks:  3
1 72 10.000000 -1.128810 -10.000000 1.000000 0.000000 0.000000 0.000000 0.000000 -1.000000 0.000000 1.000000 0.000000 dch003.dat
1 71 -27.466620 -79.717990 29.427020 1.000000 0.000000 0.000000 0.000000 0.000000 -1.000000 0.000000 1.000000 0.000000 dch004.dat
1 25 7.837010 13.484720 -9.965000 1.000000 0.000000 0.000000 0.000000 0.000000 -1.000000 0.000000 1.000000 0.000000 dch005.dat
0 NOFILE
0 FILE SubModel Group 1
0 SubModel Group 1
0 Name:  SubModel Group 1
0 Author:  
0 CustomBrick
0 NumOfBricks:  11
1 0 -59.999710 -13.999930 -13.734650 0.000000 0.000000 -0.999996 0.000000 0.999994 0.000000 1.000000 0.000000 0.000000 2780.dat
1 0 59.999820 -13.999870 -13.734890 0.000000 0.000000 -0.999996 0.000000 0.999994 0.000000 1.000000 0.000000 0.000000 2780.dat
1 1 -0.000060 -23.999860 -23.734580 0.999996 0.000000 0.000000 0.000000 0.999994 0.000000 0.000000 0.000000 1.000000 3703.dat
0 STEP
1 1 -139.999600 -23.999860 -3.734340 0.999996 0.000000 0.000000 0.000000 0.999994 0.000000 0.000000 0.000000 1.000000 3701.dat
1 1 -119.999600 -13.999920 -3.734580 0.000000 0.000000 0.999996 0.000000 0.999994 0.000000 -1.000000 0.000000 0.000000 6558.dat
0 STEP
1 1 -139.999500 -23.999860 16.265420 0.999996 0.000000 0.000000 0.000000 0.999994 0.000000 0.000000 0.000000 1.000000 3701.dat
1 0 -159.999500 -13.999920 6.265660 0.000000 0.000000 0.999996 0.000000 0.999994 0.000000 -1.000000 0.000000 0.000000 2780.dat
0 STEP
1 1 139.999600 -23.999860 -3.964570 0.999996 0.000000 0.000000 0.000000 0.999994 0.000000 0.000000 0.000000 1.000000 3701.dat
1 1 119.999700 -13.999920 -3.964570 0.000000 0.000000 0.999996 0.000000 0.999994 0.000000 -1.000000 0.000000 0.000000 6558.dat
0 STEP
1 1 139.999500 -23.999860 16.035560 0.999996 0.000000 0.000000 0.000000 0.999994 0.000000 0.000000 0.000000 1.000000 3701.dat
1 0 159.999300 -13.999920 6.035560 0.000000 0.000000 0.999996 0.000000 0.999994 0.000000 -1.000000 0.000000 0.000000 2780.dat
0 STEP
0 STEP
0 NOFILE
