0 FILE 电子烧烤架.io
0 Untitled Model
0 Name:  电子烧烤架
0 Author:  
0 CustomBrick
0 NumOfBricks:  56
1 1 91.000560 -24.000180 -139.999500 0.000000 0.000000 1.000004 0.000000 1.000000 0.000000 -1.000004 0.000000 0.000000 3703.dat
1 14 74.890350 -14.000000 -59.999840 0.000000 0.000000 -1.000004 -1.000000 0.000000 0.000000 0.000000 1.000004 0.000000 32123a.dat
1 0 89.890460 -14.000000 -59.999900 -1.000004 0.000000 0.000000 0.000000 1.000000 0.000000 0.000000 0.000000 -1.000004 3705.dat
0 STEP
1 14 75.630450 -14.000020 -220.000500 0.000000 0.000001 1.000004 -1.000000 0.000000 0.000000 0.000000 -1.000004 0.000001 32123a.dat
1 0 90.290550 -14.000020 -220.000500 -1.000004 0.000000 0.000000 0.000000 1.000000 0.000000 0.000000 0.000000 -1.000004 3705.dat
0 STEP
1 71 112.020600 -14.000000 -59.999840 0.000000 0.000000 -1.000004 0.000000 1.000000 0.000000 1.000004 0.000000 0.000000 3713.dat
1 71 111.000600 -14.000020 -220.000400 0.000000 0.000000 1.000004 0.000000 1.000000 0.000000 -1.000004 0.000000 0.000000 3713.dat
0 STEP
1 4 40.290270 -14.000020 -220.000500 -0.000001 0.000000 1.000004 0.000000 -1.000000 0.000000 1.000004 0.000000 0.000001 32034.dat
1 4 39.890210 -14.000000 -59.999900 -0.000001 0.000000 1.000004 0.000000 -1.000000 0.000000 1.000004 0.000000 0.000001 32034.dat
0 STEP
1 0 80.999100 -14.000180 -19.998530 1.000010 0.000000 0.000000 0.000000 1.000000 0.000000 0.000000 0.000000 1.000010 2780.dat
1 0 81.000420 -14.000180 0.000880 1.000004 0.000000 0.000000 0.000000 1.000000 0.000000 0.000000 0.000000 1.000004 2780.dat
0 STEP
1 1 70.998950 -74.000200 0.001490 -0.000001 -1.000004 0.000001 0.000001 0.000001 1.000000 -1.000004 0.000001 0.000001 32140.dat
1 19 80.999040 -74.000170 0.001430 -1.000004 -0.000001 0.000001 -0.000001 -0.000001 -1.000000 0.000001 -1.000004 0.000001 3749.dat
0 STEP
1 0 81.000490 -14.000190 -280.000200 1.000004 0.000000 0.000000 0.000000 1.000000 0.000000 0.000000 0.000000 1.000004 2780.dat
1 0 81.000490 -14.000180 -260.000400 1.000004 0.000000 0.000000 0.000000 1.000000 0.000000 0.000000 0.000000 1.000004 2780.dat
0 STEP
1 1 71.000400 -74.000180 -280.000100 0.000001 1.000004 -0.000001 0.000001 0.000001 1.000000 1.000004 -0.000001 -0.000001 32140.dat
1 19 81.000550 -74.000180 -280.000100 -1.000004 -0.000001 0.000001 -0.000001 -0.000001 -1.000000 0.000001 -1.000004 0.000001 3749.dat
0 STEP
1 14 4.590120 -14.000010 -59.999900 0.000000 0.000000 -1.000004 -1.000000 0.000000 0.000000 0.000000 1.000004 0.000000 32123a.dat
1 71 -0.109890 -14.000000 -59.999900 -1.000004 0.000000 0.000000 0.000000 0.000000 1.000000 0.000000 1.000004 0.000000 4519.dat
0 STEP
1 14 5.520140 -14.000020 -220.000600 0.000000 0.000001 1.000004 -1.000000 0.000000 0.000000 0.000000 -1.000004 0.000001 32123a.dat
1 71 0.290140 -14.000000 -220.000600 -1.000004 0.000000 0.000000 0.000000 0.000000 1.000000 0.000000 1.000004 0.000000 4519.dat
0 STEP
1 1 -9.999949 -24.000000 -140.000000 0.000000 0.000000 1.000000 0.000000 1.000000 0.000000 -1.000000 0.000000 0.000000 3703.dat
0 STEP
1 1 10.000010 -74.000000 0.000270 -0.000001 -1.000004 0.000001 0.000001 0.000001 1.000000 -1.000004 0.000001 0.000001 32140.dat
1 0 0.000070 -14.000030 -19.999750 1.000004 0.000000 0.000000 0.000000 1.000000 0.000000 0.000000 0.000000 1.000004 2780.dat
1 0 0.000000 -14.000030 0.000330 1.000004 0.000000 0.000000 0.000000 1.000000 0.000000 0.000000 0.000000 1.000004 2780.dat
0 STEP
1 1 10.000170 -74.000020 -280.000700 0.000001 1.000004 -0.000001 0.000001 0.000001 1.000000 1.000004 -0.000001 -0.000001 32140.dat
1 0 0.000130 -14.000030 -260.000700 1.000004 0.000000 0.000000 0.000000 1.000000 0.000000 0.000000 0.000000 1.000004 2780.dat
1 0 0.000520 -13.999830 -280.000600 1.000004 0.000000 0.000000 0.000000 1.000000 0.000000 0.000000 0.000000 1.000004 2780.dat
0 STEP
1 19 0.000160 -74.000000 -280.000700 1.000004 0.000001 -0.000001 -0.000001 -0.000001 -1.000000 -0.000001 1.000004 -0.000001 3749.dat
1 19 -0.000030 -74.000020 0.000210 1.000004 0.000001 -0.000001 0.000001 0.000001 1.000000 0.000001 -1.000004 0.000001 3749.dat
0 STEP
1 15 -9.999840 -74.000270 -139.999500 0.000001 1.000004 0.000001 -1.000000 0.000001 -0.000001 -0.000001 -0.000001 1.000004 64871.dat
0 STEP
1 0 -9.039850 -74.000180 -260.000200 -1.000004 0.000000 0.000000 0.000000 1.000000 0.000000 0.000000 0.000000 -1.000004 3705.dat
1 71 -28.519910 -74.000200 -260.000200 0.000001 0.000000 -1.000004 0.000000 1.000000 0.000000 1.000004 0.000000 0.000001 3650c.dat
0 STEP
1 14 4.780180 -74.000180 -260.000200 0.000000 0.000001 1.000004 -1.000000 0.000000 0.000000 0.000000 -1.000004 0.000001 32123a.dat
1 4 39.960300 -74.000180 -260.000200 -0.000001 0.000000 1.000004 0.000000 -1.000000 0.000000 1.000004 0.000000 0.000001 32034.dat
0 STEP
1 14 74.960420 -74.000180 -260.000200 0.000000 0.000001 1.000004 -1.000000 0.000000 0.000000 0.000000 -1.000004 0.000001 32123a.dat
1 0 91.960550 -74.000180 -260.000100 -1.000004 0.000000 0.000000 0.000000 1.000000 0.000000 0.000000 0.000000 -1.000004 3705.dat
0 STEP
1 0 40.200460 -74.000400 -39.999220 -1.000004 0.000000 0.000000 0.000000 1.000000 0.000000 0.000000 0.000000 -1.000004 3707.dat
1 72 -29.799760 -74.000400 -39.999220 0.000000 0.000000 -1.000004 -1.000000 0.000000 0.000000 0.000000 1.000004 0.000000 3647.dat
0 STEP
1 0 40.000380 -74.000380 -79.999400 -1.000004 0.000000 0.000000 0.000000 0.990267 -0.139178 0.000000 -0.139179 -0.990271 3737.dat
1 71 -28.999860 -74.000380 -79.999400 0.000001 0.000000 -1.000004 0.139178 0.990267 0.000000 0.990271 -0.139179 0.000001 3650c.dat
0 STEP
1 0 48.450550 -74.000430 -139.999300 -1.000004 0.000000 0.000000 0.000000 1.000000 0.000000 0.000000 0.000000 -1.000004 3737.dat
1 72 -30.209940 -74.000300 -139.999600 0.000000 -0.000001 1.000004 1.000000 0.000000 0.000000 0.000000 1.000004 0.000001 3648b.dat
0 STEP
1 0 39.990270 -74.000240 -199.999800 -1.000004 0.000000 0.000000 0.000000 0.991216 0.132254 0.000000 0.132255 -0.991220 3707.dat
1 72 -30.009810 -74.000240 -199.999900 0.000000 0.000000 -1.000004 0.132254 -0.991216 0.000000 -0.991220 -0.132255 0.000000 3648b.dat
0 STEP
1 15 91.000670 -74.000300 -139.999600 0.000001 1.000004 0.000001 -1.000000 0.000001 -0.000001 -0.000001 -0.000001 1.000004 64871.dat
0 STEP
1 0 101.001000 -74.000420 -19.999080 1.000004 0.000000 0.000000 0.000000 1.000000 0.000000 0.000000 0.000000 1.000004 2780.dat
1 0 101.000900 -74.000380 -59.999160 1.000004 0.000000 0.000000 0.000000 1.000000 0.000000 0.000000 0.000000 1.000004 2780.dat
0 STEP
1 71 109.990600 -74.000240 -199.999700 0.000000 0.000000 -1.000004 -0.132254 0.991216 0.000000 0.991220 0.132255 0.000000 3713.dat
1 71 111.050800 -74.000430 -139.999200 0.000000 0.000000 -1.000004 0.000000 1.000000 0.000000 1.000004 0.000000 0.000000 3713.dat
1 71 110.000700 -74.000380 -79.999340 0.000000 0.000000 -1.000004 0.139178 0.990267 0.000000 0.990271 -0.139179 0.000000 3713.dat
1 71 110.980600 -74.000180 -260.000100 0.000000 0.000000 -1.000004 0.000000 1.000000 0.000000 1.000004 0.000000 0.000000 3713.dat
0 STEP
1 16 343.000000 12.000000 160.000000 -1.000000 0.000000 0.000000 0.000000 1.000000 0.000000 0.000000 0.000000 -1.000000 submodel group 9 copy copy copy
1 15 102.000500 -73.815210 -39.999760 0.000000 0.000000 1.000004 0.000000 1.000000 0.000000 -1.000004 0.000000 0.000000 dx0056.dat.dat
0 STEP
0 STEP
0 NOFILE
0 FILE SubModel Group 9 Copy Copy Copy
0 SubModel Group 9 Copy Copy Copy
0 Name:  SubModel Group 9 Copy Copy Copy
0 Author:  
0 CustomBrick
0 NumOfBricks:  3
1 72 10.000000 -1.128810 -10.000000 1.000000 0.000000 0.000000 0.000000 0.000000 -1.000000 0.000000 1.000000 0.000000 dch003.dat
1 71 -27.466620 -79.717990 29.427020 1.000000 0.000000 0.000000 0.000000 0.000000 -1.000000 0.000000 1.000000 0.000000 dch004.dat
1 25 7.837010 13.484720 -9.965000 1.000000 0.000000 0.000000 0.000000 0.000000 -1.000000 0.000000 1.000000 0.000000 dch005.dat
0 NOFILE
