0 Untitled Model
0 Name:  万向轮结构10
0 Author:  
0 CustomBrick
0 NumOfBricks:  16
1 1 20.000000 -20.000010 -40.000000 0.000000 0.000000 -1.000000 0.000000 -1.000000 0.000000 -1.000000 0.000000 0.000000 3700.dat
1 1 -79.999980 -20.000000 -40.000080 0.000000 0.000000 -1.000000 0.000000 -1.000000 0.000000 -1.000000 0.000000 0.000000 3700.dat
1 0 -27.539990 -30.000000 -40.000070 -1.000000 0.000000 0.000000 0.000000 1.000000 0.000000 0.000000 0.000000 -1.000000 3707.dat
0 STEP
1 1 -30.000010 -43.999940 -40.000010 -1.000000 0.000000 0.000000 0.000000 -1.000000 0.000000 0.000000 0.000000 1.000000 32001.dat
1 1 -30.000040 -52.000020 -40.000010 -1.000000 0.000000 0.000000 0.000000 -1.000000 0.000000 0.000000 0.000000 1.000000 32001.dat
0 STEP
1 71 37.460020 -30.000000 -40.000060 0.000000 0.000000 1.000000 0.000000 1.000000 0.000000 -1.000000 0.000000 0.000001 4185.dat
1 71 -95.349990 -30.000000 -40.000080 0.000000 0.000000 1.000000 0.000000 1.000000 0.000000 -1.000000 0.000000 0.000001 4185.dat
0 STEP
1 0 -50.000040 -63.910020 -40.000020 0.000000 0.000000 -1.000000 1.000000 0.000000 0.000000 0.000000 -1.000000 0.000000 2780.dat
1 0 -10.000030 -62.590020 -40.000010 0.000000 0.000000 -1.000000 1.000000 0.000000 0.000000 0.000000 -1.000000 0.000000 2780.dat
0 STEP
1 15 -30.000040 -72.590000 -40.000010 0.000001 0.000001 -1.000000 0.000001 1.000000 0.000001 1.000000 -0.000001 0.000001 32523.dat
0 STEP
1 71 -30.000010 -82.590000 -40.000010 0.000000 0.000000 -1.000000 1.000000 0.000000 0.000000 0.000000 -1.000000 0.000000 3673.dat
0 STEP
1 15 -30.000010 -92.590000 -40.000010 1.000000 -0.000001 0.000001 -0.000001 -1.000000 -0.000001 0.000001 0.000001 -1.000000 32523.dat
0 STEP
1 0 -30.000020 -102.590000 -20.000010 0.000000 0.000000 -1.000000 1.000000 0.000000 0.000000 0.000000 -1.000000 0.000000 2780.dat
1 0 -29.999980 -102.590000 -60.000020 0.000000 0.000000 -1.000000 1.000000 0.000000 0.000000 0.000000 -1.000000 0.000000 2780.dat
0 STEP
1 4 -30.000020 -112.590000 -20.000020 0.000000 0.000000 -1.000000 -1.000000 0.000000 0.000000 0.000000 1.000000 0.000000 32034.dat
1 4 -29.999980 -112.590000 -60.000030 0.000000 0.000000 -1.000000 -1.000000 0.000000 0.000000 0.000000 1.000000 0.000000 32034.dat
0 STEP
0 STEP
