0 Untitled Model
0 Name:  潜水艇
0 Author:  
0 CustomBrick
0 NumOfBricks:  54
1 1 80.000000 -8.000000 -20.000000 1.000000 0.000000 0.000000 0.000000 1.000000 0.000000 0.000000 0.000000 1.000000 32001.dat
0 STEP
1 1 -20.000000 -8.000000 -20.000000 -1.000000 0.000000 0.000000 0.000000 1.000000 0.000000 0.000000 0.000000 -1.000000 3709b.dat
1 1 0.000000 -16.000000 -20.000000 -1.000000 0.000000 0.000000 0.000000 1.000000 0.000000 0.000000 0.000000 -1.000000 3709b.dat
0 STEP
1 1 100.000000 -32.000000 -10.000000 1.000000 0.000000 0.000000 0.000000 1.000000 0.000000 0.000000 0.000000 1.000000 3894.dat
1 1 -0.000030 -24.000000 -20.000000 -1.000000 0.000000 0.000000 0.000000 1.000000 0.000000 0.000000 0.000000 -1.000000 3709b.dat
0 STEP
1 1 100.000000 -32.000000 -30.000000 1.000000 0.000000 0.000000 0.000000 1.000000 0.000000 0.000000 0.000000 1.000000 3894.dat
1 0 59.999540 -22.000190 -19.999880 0.000000 0.000000 -1.000000 0.000000 1.000000 0.000000 1.000000 0.000000 0.000000 2780.dat
1 0 140.000000 -22.000000 -20.000000 0.000000 0.000000 -1.000000 0.000000 1.000000 0.000000 1.000000 0.000000 0.000000 2780.dat
0 STEP
1 1 9.999949 -32.000000 -20.000000 0.000000 0.000000 1.000000 0.000000 1.000000 0.000000 -1.000000 0.000000 0.000000 3710.dat
1 1 -10.000030 -32.000000 -20.000000 0.000000 0.000000 1.000000 0.000000 1.000000 0.000000 -1.000000 0.000000 0.000000 3710.dat
0 STEP
1 1 -50.000440 -32.000010 -19.999880 0.000001 0.000000 0.999998 0.000000 1.000000 0.000000 -0.999998 0.000000 0.000001 3700.dat
1 1 9.999969 -40.000000 -20.000000 0.000000 0.000000 1.000000 0.000000 1.000000 0.000000 -1.000000 0.000000 0.000000 3023.dat
0 STEP
1 15 -70.000460 -31.999960 -19.999880 0.000000 0.000000 1.000000 0.000000 1.000000 0.000000 -1.000000 0.000000 0.000000 32064a.dat
1 19 -60.000460 -21.999980 -19.999880 -1.000000 -0.000001 0.000001 0.000001 0.000001 1.000000 -0.000001 1.000000 -0.000001 3749.dat
0 STEP
1 1 -40.000440 -56.000000 -9.999880 1.000000 0.000000 0.000000 0.000000 1.000000 0.000000 0.000000 0.000000 1.000000 3700.dat
1 1 -40.000440 -56.000000 -29.999760 1.000000 0.000000 0.000000 0.000000 1.000000 0.000000 0.000000 0.000000 1.000000 3700.dat
1 71 -40.000430 -46.000000 -19.999880 0.000000 0.000000 1.000000 0.000000 1.000000 0.000000 -1.000000 0.000000 0.000000 32073.dat
0 STEP
1 15 -71.310420 -56.000000 -9.999880 0.000000 0.000000 1.000000 0.000000 1.000000 0.000000 -1.000000 0.000000 0.000000 3040b.dat
1 15 -71.310410 -56.000000 -29.999880 0.000000 0.000000 1.000000 0.000000 1.000000 0.000000 -1.000000 0.000000 0.000000 3040b.dat
0 STEP
1 1 -60.000460 -56.000000 10.490240 1.000000 0.000000 0.000000 0.000000 1.000000 0.000000 0.000000 0.000000 1.000000 3701.dat
1 1 -60.000460 -56.000000 -50.429810 1.000000 0.000000 0.000000 0.000000 1.000000 0.000000 0.000000 0.000000 1.000000 3701.dat
0 STEP
1 14 -40.000410 -46.000000 24.010130 0.000000 1.000000 0.000000 -1.000000 0.000000 0.000000 0.000000 0.000000 1.000000 32123a.dat
1 14 -40.000430 -46.000000 -63.699960 1.000000 0.000000 0.000000 0.000000 -1.000000 0.000000 0.000000 0.000000 -1.000000 32123a.dat
0 STEP
1 1 29.999940 -48.000000 -20.000000 0.000000 0.000000 1.000000 0.000000 1.000000 0.000000 -1.000000 0.000000 0.000000 3701.dat
1 1 -0.000050 -48.000000 10.000120 1.000000 0.000000 0.000000 0.000000 1.000000 0.000000 0.000000 0.000000 1.000000 3023.dat
1 1 -0.000050 -40.000000 10.000120 1.000000 0.000000 0.000000 0.000000 1.000000 0.000000 0.000000 0.000000 1.000000 3023.dat
0 STEP
1 1 -0.000030 -48.000000 -49.999880 1.000000 0.000000 0.000000 0.000000 1.000000 0.000000 0.000000 0.000000 1.000000 3023.dat
1 1 -0.000030 -40.000000 -49.999880 1.000000 0.000000 0.000000 0.000000 1.000000 0.000000 0.000000 0.000000 1.000000 3023.dat
0 STEP
1 15 39.999970 -72.000000 -20.000000 1.000000 0.000000 0.000000 0.000000 1.000000 0.000000 0.000000 0.000000 1.000000 3941.dat
1 15 9.999969 -64.000000 -20.000000 0.000000 0.000000 1.000000 0.000000 1.000000 0.000000 -1.000000 0.000000 0.000000 32064a.dat
0 STEP
1 1 19.999940 -56.000000 10.000120 1.000000 0.000000 0.000000 0.000000 1.000000 0.000000 0.000000 0.000000 1.000000 3710.dat
1 1 -40.000460 -64.000000 -20.429810 0.000000 0.000000 1.000000 0.000000 1.000000 0.000000 -1.000000 0.000000 0.000000 3709b.dat
1 1 19.999970 -56.000000 -49.999880 1.000000 0.000000 0.000000 0.000000 1.000000 0.000000 0.000000 0.000000 1.000000 3710.dat
0 STEP
1 1 140.003500 -48.000000 -19.999270 0.000000 0.000000 1.000009 0.000000 1.000000 0.000000 -1.000009 0.000000 0.000000 3709b.dat
1 1 140.000000 -40.000000 -20.000000 0.000000 0.000000 1.000002 0.000000 1.000000 0.000000 -1.000002 0.000000 0.000000 3709b.dat
0 STEP
1 1 150.004100 -72.000000 -19.999270 0.000000 0.000000 1.000012 0.000000 1.000000 0.000000 -1.000012 0.000000 0.000000 3701.dat
1 19 160.004200 -61.999980 -19.999270 1.000012 0.000001 -0.000001 0.000001 0.000001 1.000000 0.000001 -1.000012 0.000001 3749.dat
0 STEP
1 72 175.004100 -61.999970 -19.999270 0.000000 0.000000 1.000012 1.000000 0.000000 0.000000 0.000000 1.000012 0.000000 6575.dat
1 14 165.094300 -61.999980 -19.999390 0.000000 0.000000 1.000012 0.000000 1.000000 0.000000 -1.000012 0.000000 0.000000 32123a.dat
0 STEP
1 1 -10.000030 -88.000040 -20.000120 0.000000 0.000000 1.000000 0.000000 1.000000 0.000000 -1.000000 0.000000 0.000000 3700.dat
1 15 9.999969 -88.000000 -20.000120 0.000000 0.000000 1.000000 0.000000 1.000000 0.000000 -1.000000 0.000000 0.000000 32064a.dat
1 19 -0.000030 -78.000020 -20.000120 1.000000 0.000001 -0.000001 0.000001 0.000001 1.000000 0.000001 -1.000000 0.000001 3749.dat
0 STEP
1 15 -30.000460 -88.000000 -30.429810 0.000000 0.000000 1.000000 0.000000 1.000000 0.000000 -1.000000 0.000000 0.000000 3040b.dat
1 15 -30.000460 -88.000000 -10.429810 0.000000 0.000000 1.000002 0.000000 1.000000 0.000000 -1.000002 0.000000 0.000000 3040b.dat
0 STEP
1 1 -0.000270 -96.000080 -10.000120 -1.000000 0.000000 0.000000 0.000000 1.000000 0.000000 0.000000 0.000000 -1.000000 3023.dat
1 1 -0.000030 -96.000060 -30.000120 -1.000000 0.000000 0.000000 0.000000 1.000000 0.000000 0.000000 0.000000 -1.000000 3023.dat
1 15 -0.000030 -120.000000 -20.000120 1.000000 0.000000 0.000000 0.000000 1.000000 0.000000 0.000000 0.000000 1.000000 3941.dat
0 STEP
1 1 -30.000520 -120.000000 -20.429810 0.000000 0.000000 1.000002 0.000000 1.000000 0.000000 -1.000002 0.000000 0.000000 3023.dat
1 15 -30.000460 -112.000000 -20.429810 0.000000 0.000000 1.000002 0.000000 1.000000 0.000000 -1.000002 0.000000 0.000000 32064a.dat
1 19 -40.000720 -102.000000 -20.429930 1.000004 0.000001 -0.000001 0.000001 0.000001 1.000000 0.000001 -1.000005 0.000001 3749.dat
0 STEP
1 1 -59.230730 -142.000000 -20.429930 0.000000 1.000000 0.000000 -0.999994 0.000000 0.000000 0.000000 0.000000 1.000002 32001.dat
1 1 -51.230760 -142.000000 -20.429930 0.000000 1.000004 0.000000 -1.000000 0.000000 0.000000 0.000000 0.000000 1.000005 32001.dat
0 STEP
1 15 -67.230640 -162.000200 -10.430050 0.000000 1.000005 0.000000 -1.000003 0.000000 0.000000 0.000000 0.000000 1.000003 2431.dat
1 15 -67.230670 -162.000200 -30.429930 0.000000 1.000005 0.000000 1.000003 0.000000 0.000000 0.000000 0.000000 -1.000003 2431.dat
0 STEP
0 STEP
