0 Untitled Model
0 Name:  夹子3
0 Author:  
0 CustomBrick
0 NumOfBricks:  27
1 71 -66.531720 -20.000010 -78.700840 0.000000 -0.999999 0.000001 1.000000 0.000001 -0.000001 0.000001 0.000001 1.000000 3673.dat
1 15 -66.529380 -29.999990 -78.702800 0.000000 0.000000 -1.000000 0.000000 -1.000000 0.000000 -1.000001 0.000000 0.000000 64290.dat
1 15 -66.531720 -10.000010 -78.700820 1.000000 -0.000002 0.000000 -0.000002 -1.000000 0.000000 0.000000 0.000000 -1.000000 64290.dat
0 STEP
1 0 -66.531520 -20.000000 21.299140 0.000000 -0.000001 -0.999999 1.000000 0.000001 0.000001 0.000001 -1.000000 0.000001 2780.dat
1 19 -66.531720 -20.000000 1.298950 0.000000 0.000000 1.000001 -1.000000 0.000000 0.000000 0.000000 -1.000001 0.000001 3749.dat
1 1 30.370400 -30.000070 112.520100 0.593516 -0.000001 -0.804822 -0.000001 -1.000000 0.000000 -0.804823 0.000000 -0.593517 32271.dat
0 STEP
1 0 -34.015410 -20.000030 65.038720 0.000000 0.999999 0.000001 -1.000000 -0.000001 -0.000001 -0.000001 -0.000001 1.000000 2780.dat
1 19 30.370400 -20.000080 112.520100 0.000001 -0.804822 0.593516 -1.000000 0.000000 0.000002 -0.000002 -0.593517 -0.804822 3749.dat
1 15 -1.783720 -10.000030 88.727210 -0.594822 0.000001 -0.803857 0.000002 1.000000 0.000001 0.803858 0.000001 -0.594823 32316.dat
0 STEP
1 19 13.467930 -20.000020 -78.700740 0.000000 -0.000002 -1.000000 1.000000 0.000002 0.000000 0.000002 -1.000001 0.000002 3749.dat
1 0 33.467900 -20.000010 -78.700980 0.000000 -0.999999 0.000001 1.000000 0.000001 -0.000001 0.000001 0.000001 1.000000 2780.dat
1 1 126.518300 -10.000020 16.281780 -0.793352 0.000000 -0.608762 0.000000 1.000000 0.000000 0.608762 0.000000 -0.793354 32271.dat
0 STEP
1 0 77.817360 -20.000010 -47.186510 0.000000 0.999999 0.000001 -1.000000 -0.000001 -0.000001 -0.000001 -0.000001 1.000000 2780.dat
1 19 126.518500 -20.000020 16.281920 0.000001 -0.793352 0.608762 1.000000 0.000001 0.000000 0.000000 0.608762 0.793354 3749.dat
1 15 102.167700 -30.000060 -15.452300 -0.793352 0.000001 -0.608762 0.000001 1.000000 0.000001 0.608762 0.000001 -0.793354 32316.dat
0 STEP
1 0 -166.531900 -20.000000 -78.700990 0.000000 0.999999 0.000001 -1.000000 -0.000001 -0.000001 -0.000001 -0.000001 1.000000 2780.dat
1 0 -146.531600 -20.000000 -78.701050 0.000000 -0.999999 0.000001 1.000000 0.000001 -0.000001 0.000001 0.000001 1.000000 2780.dat
1 15 -246.532200 -9.999810 -78.701100 0.000001 -0.000002 1.000000 -0.000002 -1.000000 -0.000002 1.000001 -0.000003 0.000000 64290.dat
0 STEP
1 0 -346.532200 -19.999600 -78.701080 0.000000 0.608762 0.793352 1.000000 -0.000001 0.000000 0.000001 0.793354 -0.608762 2780.dat
1 0 -186.532100 -19.999930 -78.701120 0.000000 -0.793354 0.608761 1.000000 0.000000 -0.000001 0.000001 0.608761 0.793355 2780.dat
1 15 -266.532200 -29.999930 -78.701020 -0.000001 0.000000 -1.000000 0.000002 -1.000000 0.000000 -1.000001 -0.000002 0.000000 40490.dat
0 STEP
1 0 -66.531920 -20.000000 -178.701000 0.000000 -0.999999 0.000001 1.000000 0.000001 -0.000001 0.000001 0.000001 1.000000 2780.dat
1 0 -66.531830 -20.000000 -158.701100 0.000000 -0.999999 0.000001 1.000000 0.000001 -0.000001 0.000001 0.000001 1.000000 2780.dat
1 15 -66.531800 -30.000020 -258.701300 1.000000 -0.000002 -0.000001 -0.000002 -1.000000 0.000000 0.000000 0.000000 -1.000001 64290.dat
0 STEP
1 0 -66.531860 -20.000000 -198.701200 0.000000 0.608762 0.793352 1.000000 -0.000001 0.000000 0.000001 0.793354 -0.608762 2780.dat
1 0 -66.532200 -20.000020 -358.701700 0.000000 0.608762 0.793352 1.000000 -0.000001 0.000000 0.000001 0.793354 -0.608762 2780.dat
1 15 -66.531920 -10.000040 -278.701500 1.000001 0.000001 0.000001 -0.000001 1.000000 0.000000 -0.000001 0.000000 1.000002 40490.dat
0 STEP
0 STEP
