0 FILE 电动碎石机.io
0 Untitled Model
0 Name:  电动碎石机
0 Author:  
0 CustomBrick
0 NumOfBricks:  36
1 16 200.000000 -173.851400 -181.000000 0.000000 1.000000 0.000000 1.000000 0.000000 0.000000 0.000000 0.000000 -1.000000 submodel group 9 copy copy copy
0 STEP
1 15 49.999850 -210.000500 -170.579100 -0.000001 -0.000001 1.000000 -1.000004 0.000001 -0.000001 -0.000001 -1.000000 -0.000001 64290.dat
1 71 149.999900 -210.000400 -131.049100 -1.000000 0.000000 -0.000001 0.000000 1.000004 0.000000 0.000001 0.000000 -1.000000 3713.dat
1 71 109.999900 -210.000400 -130.119200 -1.000000 0.000000 -0.000001 0.000000 1.000004 0.000000 0.000001 0.000000 -1.000000 3713.dat
1 71 109.999900 -210.000400 -168.179200 0.000000 0.000000 -1.000000 0.000000 1.000004 0.000000 1.000000 0.000000 0.000000 32073.dat
1 71 149.999900 -210.000400 -167.669100 0.000000 0.000000 -1.000000 0.000000 1.000004 0.000000 1.000000 0.000000 0.000000 32073.dat
0 STEP
1 71 149.999900 -210.000400 -207.669100 -1.000000 0.000000 -0.000001 0.000000 1.000004 0.000000 0.000001 0.000000 -1.000000 3713.dat
1 71 109.999900 -210.000400 -208.179200 -1.000000 0.000000 -0.000001 0.000000 1.000004 0.000000 0.000001 0.000000 -1.000000 3713.dat
0 STEP
1 1 29.999810 -210.000400 -170.579100 0.000000 0.000000 1.000000 0.000000 1.000000 0.000000 -1.000000 0.000000 0.000000 6558.dat
1 4 29.999810 -210.000400 -190.579100 0.000000 0.000000 -1.000000 0.000000 -1.000000 0.000000 -1.000000 0.000000 0.000000 32034.dat
1 4 30.000060 -207.225300 -150.000000 0.000000 0.000000 -1.000000 0.000000 -1.000000 0.000000 -1.000000 0.000000 0.000000 32034.dat
0 STEP
1 0 -110.000200 -210.000300 -160.578700 0.000000 0.000000 -1.000000 0.000000 1.000000 0.000000 1.000000 0.000000 0.000000 2780.dat
1 0 -70.000160 -210.000400 -160.578800 0.000000 0.000000 -1.000000 0.000000 1.000000 0.000000 1.000000 0.000000 0.000000 2780.dat
1 1 -50.000190 -210.000400 -150.579000 0.000000 0.000000 -1.000000 0.000000 1.000004 0.000000 1.000000 0.000000 0.000000 6558.dat
1 1 -30.000190 -210.000400 -150.579000 0.000000 0.000000 -1.000000 0.000000 1.000004 0.000000 1.000000 0.000000 0.000000 6558.dat
1 15 -70.000160 -210.000300 -150.578900 -0.000001 -0.000001 1.000000 -1.000004 0.000001 -0.000001 -0.000001 -1.000000 -0.000001 32316.dat
0 STEP
1 15 -70.000160 -210.000500 -130.578900 -0.000001 -0.000001 1.000000 -1.000004 0.000001 -0.000001 -0.000001 -1.000000 -0.000001 32316.dat
1 0 -70.000160 -210.000300 -120.579000 0.000000 0.000000 1.000000 0.000000 1.000004 0.000000 -1.000000 0.000000 0.000000 2780.dat
1 0 -110.000200 -210.000300 -120.578900 0.000000 0.000000 1.000000 0.000000 1.000004 0.000000 -1.000000 0.000000 0.000000 2780.dat
0 STEP
1 71 -90.000170 -210.000300 -120.579000 1.000000 0.000000 0.000000 0.000000 1.000004 0.000000 0.000000 0.000000 1.000000 58120.dat
0 STEP
1 15 -170.000100 -210.000200 -170.578700 0.000001 0.000001 -1.000000 1.000000 -0.000001 0.000001 -0.000001 -1.000000 -0.000001 64290.dat
0 STEP
1 19 -90.000170 -210.000300 -180.578600 0.000001 -1.000000 0.000001 0.000001 0.000001 1.000000 -1.000000 -0.000001 0.000001 3749.dat
0 STEP
1 71 -90.000170 -190.000300 -200.578700 0.000000 0.258819 -0.965926 0.000000 0.965926 0.258819 1.000000 0.000000 0.000000 3673.dat
1 71 -90.000080 -210.000300 -190.578600 -1.000000 -0.000001 0.000001 0.000001 -0.000001 1.000000 -0.000001 1.000000 0.000001 60483.dat
0 STEP
1 71 -167.080800 -210.000200 -200.579200 0.000000 -0.642790 -0.766049 0.000000 0.766044 -0.642788 1.000004 0.000000 0.000000 3673.dat
1 4 -167.080200 -210.000200 -190.578700 0.000000 0.000000 -1.000000 0.000000 -1.000000 0.000000 -1.000000 0.000000 0.000000 32034.dat
0 STEP
1 0 -250.000200 -210.000200 -190.578800 0.000001 -1.000000 0.000000 0.000001 0.000000 -1.000000 1.000000 0.000001 0.000001 15100.dat
1 0 -270.000200 -210.000100 -190.578800 0.000000 -1.000000 0.000000 0.000001 0.000000 -1.000000 1.000000 0.000000 0.000001 15100.dat
1 0 -257.080200 -210.000200 -190.578700 -1.000000 0.000000 0.000000 0.000000 1.000000 0.000000 0.000000 0.000000 -1.000000 3707.dat
0 STEP
1 15 -128.706100 -200.092300 -210.578600 0.252298 0.000001 -0.967649 -0.967649 0.000000 -0.252298 0.000000 1.000000 0.000001 32316.dat
0 STEP
1 71 -128.706100 -200.092300 -220.578600 0.000000 0.000000 -1.000000 0.000000 1.000000 0.000000 1.000000 0.000000 0.000000 3673.dat
1 4 -128.706300 -200.092300 -230.578900 0.000000 0.000000 -1.000003 0.000000 -1.000000 0.000000 -1.000003 0.000000 0.000000 32034.dat
0 STEP
1 15 -327.220300 -244.000200 -180.578700 1.000000 0.000000 0.000000 0.000000 1.000000 0.000000 0.000000 0.000000 1.000000 3040b.dat
1 15 -327.220200 -220.000200 -190.578700 0.000000 0.000000 1.000000 0.000000 1.000000 0.000000 -1.000000 0.000000 0.000000 32064a.dat
0 STEP
0 STEP
0 NOFILE
0 FILE SubModel Group 9 Copy Copy Copy
0 SubModel Group 9 Copy Copy Copy
0 Name:  SubModel Group 9 Copy Copy Copy
0 Author:  
0 CustomBrick
0 NumOfBricks:  3
1 72 10.000000 -1.128810 -10.000000 1.000000 0.000000 0.000000 0.000000 0.000000 -1.000000 0.000000 1.000000 0.000000 dch003.dat
1 71 -27.466620 -79.717990 29.427020 1.000000 0.000000 0.000000 0.000000 0.000000 -1.000000 0.000000 1.000000 0.000000 dch004.dat
1 25 7.837010 13.484720 -9.965000 1.000000 0.000000 0.000000 0.000000 0.000000 -1.000000 0.000000 1.000000 0.000000 dch005.dat
0 NOFILE
