0 FILE 吊机.io
0 Untitled Model
0 Name:  吊机
0 Author:  
0 CustomBrick
0 NumOfBricks:  192
1 1 -119.500500 -179.000300 10.001490 0.000000 1.000004 0.000000 -1.000002 0.000000 0.000000 0.000000 0.000000 1.000002 3703.dat
1 1 -127.500500 -79.000390 10.001500 0.000000 1.000004 0.000000 -1.000002 0.000000 0.000000 0.000000 0.000000 1.000002 3666.dat
0 STEP
1 1 -159.500200 -59.000260 10.001370 0.000000 1.000002 0.000000 -1.000000 0.000000 0.000000 0.000000 0.000000 1.000002 3701.dat
1 1 -135.500600 -59.000340 10.001500 0.000000 1.000004 0.000000 -1.000002 0.000000 0.000000 0.000000 0.000000 1.000002 3710.dat
0 STEP
1 0 -109.500500 -79.000340 20.001510 0.000000 0.000000 -1.000002 0.000000 1.000000 0.000000 1.000002 0.000000 0.000000 2780.dat
1 14 -115.324400 -87.826150 39.489560 -1.000008 0.000000 0.000000 0.000000 0.000000 1.000000 0.000000 1.000008 0.000000 12344.dat
0 STEP
1 1 -109.500100 -39.000250 10.001500 0.000000 0.000000 -1.000002 0.000000 1.000000 0.000000 1.000002 0.000000 0.000000 6558.dat
1 1 -149.500200 -39.000250 10.001490 0.000000 0.000000 -1.000002 0.000000 1.000000 0.000000 1.000002 0.000000 0.000000 6558.dat
0 STEP
1 15 -110.000200 -18.000080 30.000000 0.000001 0.000001 -1.000002 -0.000001 -1.000000 -0.000001 -1.000002 0.000001 -0.000001 64290.dat
1 0 -129.500000 -28.000140 30.000000 0.000000 0.000000 1.000008 1.000000 0.000000 0.000000 0.000000 1.000008 0.000000 2780.dat
1 0 -170.000400 -28.000140 29.999940 0.000000 0.000000 -1.000008 1.000000 0.000000 0.000000 0.000000 -1.000008 0.000000 2780.dat
0 STEP
1 1 -69.499960 -39.000250 -29.998580 0.000000 1.000002 0.000000 0.000000 0.000000 -1.000000 -1.000002 0.000000 0.000000 6558.dat
1 1 -109.500100 -49.000260 -9.998540 1.000002 0.000000 0.000000 0.000000 1.000000 0.000000 0.000000 0.000000 1.000002 3894.dat
0 STEP
1 0 -129.500100 -39.000250 -19.998550 0.000000 0.000000 -1.000002 0.000000 1.000000 0.000000 1.000002 0.000000 0.000000 2780.dat
1 1 -109.500000 -49.000260 -29.998580 1.000002 0.000000 0.000000 0.000000 1.000000 0.000000 0.000000 0.000000 1.000002 3894.dat
0 STEP
1 1 -109.500000 -49.000260 -49.998620 1.000002 0.000000 0.000000 0.000000 1.000000 0.000000 0.000000 0.000000 1.000002 3894.dat
1 0 -129.500100 -39.000250 -59.998680 0.000000 0.000000 -1.000002 0.000000 1.000000 0.000000 1.000002 0.000000 0.000000 2780.dat
1 1 -89.500030 -39.000250 -49.998740 0.000000 0.000000 -1.000002 0.000000 1.000000 0.000000 1.000002 0.000000 0.000000 6558.dat
0 STEP
1 1 -109.500000 -49.000260 -69.998700 1.000002 0.000000 0.000000 0.000000 1.000000 0.000000 0.000000 0.000000 1.000002 3894.dat
0 STEP
1 15 -170.000000 -80.180530 -41.000000 0.000000 0.000000 1.000000 0.000000 1.000000 0.000000 -1.000000 0.000000 0.000000 dx0077.dat.dat
0 STEP
1 72 -109.500500 -159.000300 -4.998520 -1.000004 0.000000 0.000000 0.000000 0.000000 -1.000002 0.000000 -1.000002 0.000000 99773.dat
1 0 -109.500500 -199.000400 0.001480 0.000000 1.000004 0.000000 0.000000 0.000000 1.000002 1.000002 0.000000 0.000000 2780.dat
0 STEP
1 0 -109.500300 -159.000200 17.461530 0.000000 1.000004 0.000000 0.000000 0.000000 -1.000002 -1.000002 0.000000 0.000000 15462.dat
1 71 -109.500400 -159.000300 -18.538530 -1.000005 0.000000 -0.000001 0.000000 1.000002 0.000000 0.000001 0.000000 -1.000003 3650c.dat
0 STEP
1 72 -109.500300 -159.000200 27.451540 -1.000002 0.000000 0.000000 0.000000 -1.000000 0.000000 0.000000 0.000000 1.000002 3647.dat
1 14 -109.500300 -159.000200 42.461600 0.000000 1.000002 0.000000 1.000000 0.000000 0.000000 0.000000 0.000000 -1.000002 32123a.dat
0 STEP
1 71 -109.500500 -219.000500 30.001650 0.650775 -0.759273 0.000001 0.759271 0.650774 0.000001 -0.000001 0.000000 1.000002 3649.dat
1 19 -109.500400 -219.000500 20.001510 0.000001 -0.759274 -0.650774 -0.000001 0.650773 -0.759272 1.000002 0.000001 0.000000 3749.dat
0 STEP
1 0 -109.500800 -299.000800 0.001480 0.000000 1.000002 0.000000 0.000000 0.000000 1.000000 1.000002 0.000000 0.000000 2780.dat
1 0 -109.500500 -319.000800 0.001480 0.000000 1.000002 0.000000 0.000000 0.000000 1.000000 1.000002 0.000000 0.000000 2780.dat
0 STEP
1 16 -129.786300 -19.000000 -86.107370 1.000000 0.000000 0.000000 0.000000 1.000000 0.000000 0.000000 0.000000 1.000000 submodel group 5
0 STEP
1 71 -69.500480 -159.000600 -80.068850 0.000000 1.000002 0.000000 0.000000 0.000000 1.000000 1.000002 0.000000 0.000000 4519.dat
1 14 -69.500460 -159.000600 -84.988870 0.000000 -1.000002 0.000000 -1.000000 0.000000 0.000000 0.000000 0.000000 -1.000002 32123a.dat
1 0 -59.500450 -159.000600 -120.069400 -1.000002 0.000000 0.000000 0.000000 1.000001 0.000000 0.000000 0.000000 -1.000003 2780.dat
1 0 -69.500480 -159.000600 -120.068900 -1.000002 0.000000 0.000000 0.000000 0.000000 -1.000000 0.000000 -1.000002 0.000000 32014.dat
0 STEP
1 71 -69.500300 -159.000300 0.371490 0.000000 1.000002 0.000000 0.000000 0.000000 1.000000 1.000002 0.000000 0.000000 4519.dat
1 14 -69.500320 -159.000300 5.041480 0.000000 1.000002 0.000000 1.000000 0.000000 0.000000 0.000000 0.000000 -1.000002 32123a.dat
1 0 -59.500280 -159.000300 40.371600 -1.000002 0.000000 0.000000 0.000000 1.000000 0.000000 0.000000 0.000000 -1.000002 2780.dat
1 0 -69.500300 -159.000300 40.371600 1.000002 0.000000 0.000000 0.000000 0.000000 -1.000000 0.000000 1.000002 0.000000 32014.dat
0 STEP
1 16 -99.759380 -122.049800 -39.919880 1.000000 0.000000 0.000000 0.000000 0.862518 -0.506026 0.000000 0.506026 0.862518 submodel group 4
0 STEP
1 0 -159.500700 -159.000500 40.101560 -1.000002 0.000000 0.000000 0.000000 1.000000 0.000000 0.000000 0.000000 -1.000002 2780.dat
1 0 -149.500700 -159.000500 40.101560 -1.000002 -0.000002 -0.000002 0.000002 -1.000000 -0.000002 -0.000002 -0.000002 1.000002 32013.dat
1 14 -149.500700 -159.000300 5.051420 0.000000 1.000002 0.000000 1.000000 0.000000 0.000000 0.000000 0.000000 -1.000002 32123a.dat
1 71 -149.500700 -159.000300 1.481400 0.000000 1.000002 0.000000 0.000000 0.000000 1.000000 1.000002 0.000000 0.000000 4519.dat
0 STEP
1 0 -159.501000 -159.000600 -119.979100 -1.000002 0.000000 0.000000 0.000000 1.000000 0.000000 0.000000 0.000000 -1.000002 2780.dat
1 0 -149.501000 -159.000600 -119.979100 1.000002 0.000002 0.000002 0.000002 -1.000000 -0.000002 0.000002 0.000002 -1.000002 32013.dat
1 14 -149.501000 -159.000500 -85.018870 0.000000 1.000002 0.000000 1.000000 0.000000 0.000000 0.000000 0.000000 -1.000002 32123a.dat
1 71 -149.501100 -159.000500 -79.978980 0.000000 1.000002 0.000000 0.000000 0.000000 1.000000 1.000002 0.000000 0.000000 4519.dat
0 STEP
1 0 -109.500800 -79.000430 -99.998760 0.000000 0.000000 -1.000002 0.000000 1.000000 0.000000 1.000002 0.000000 0.000000 2780.dat
1 14 -115.324500 -87.826270 -101.509100 -1.000002 0.000000 0.000000 0.000000 0.000000 1.000000 0.000000 1.000002 0.000000 12344.dat
0 STEP
1 0 -129.500100 -28.000250 -110.998700 0.000000 0.000000 1.000002 1.000000 0.000000 0.000000 0.000000 1.000002 0.000000 2780.dat
1 0 -170.000100 -28.000250 -110.998800 0.000000 0.000000 -1.000002 1.000000 0.000000 0.000000 0.000000 -1.000002 0.000000 2780.dat
1 15 -109.500000 -18.000220 -110.998600 0.000001 0.000001 -1.000002 -0.000001 -1.000000 -0.000001 -1.000002 0.000001 -0.000001 64290.dat
0 STEP
1 1 -40.000060 -8.000000 -40.000010 0.000000 0.000000 -1.000002 0.000000 1.000000 0.000000 1.000002 0.000000 0.000000 3738.dat
1 1 -199.500200 -8.000310 -40.998750 0.000000 0.000000 1.000002 0.000000 1.000000 0.000000 -1.000002 0.000000 0.000000 3738.dat
0 STEP
1 0 -9.499829 -28.000130 -110.998600 0.000000 1.000002 0.000000 1.000000 0.000000 0.000000 0.000000 0.000000 -1.000002 2780.dat
1 0 -10.000020 -27.999980 30.000260 0.000000 1.000002 0.000000 1.000000 0.000000 0.000000 0.000000 0.000000 -1.000002 2780.dat
1 15 -10.000060 -37.999930 -29.999960 -1.000002 0.000001 -0.000001 0.000001 1.000000 0.000001 0.000001 0.000001 -1.000002 40490.dat
0 STEP
1 16 153.000000 -28.427040 40.000000 -1.000000 0.000000 0.000000 0.000000 0.000000 1.000000 0.000000 1.000000 0.000000 submodel group 9 copy copy copy
1 4 -10.000080 -57.999910 -49.999880 0.000001 0.000001 1.000002 1.000000 0.000001 -0.000001 -0.000001 1.000002 -0.000001 32054.dat
1 4 -10.000050 -57.999950 -9.999920 0.000001 0.000001 1.000002 1.000000 0.000001 -0.000001 -0.000001 1.000002 -0.000001 32054.dat
0 STEP
1 14 -184.630800 -159.000500 -39.898520 0.000000 0.000000 1.000002 0.862517 -0.506027 0.000000 0.506028 0.862519 0.000000 32123a.dat
1 15 -169.500800 -159.000300 -39.898700 0.000001 1.000002 0.000001 -1.000000 0.000001 -0.000001 -0.000001 -0.000001 1.000002 64290.dat
0 STEP
1 71 -129.500400 -159.000200 67.461640 0.000000 0.000000 -1.000002 0.000000 1.000000 0.000000 1.000002 0.000000 0.000000 3673.dat
1 71 -109.500300 -159.000200 57.461640 -0.000001 0.000001 -1.000002 -1.000000 -0.000001 0.000001 -0.000001 1.000002 0.000001 60483.dat
0 STEP
1 1 -129.500400 -199.000300 77.461670 -1.000002 0.000001 0.000001 0.000001 0.000001 1.000000 0.000001 1.000002 -0.000001 32271.dat
0 STEP
1 71 -89.500670 -159.000700 -147.398900 0.000000 0.000000 -1.000002 0.000000 1.000000 0.000000 1.000002 0.000000 0.000000 3673.dat
1 71 -109.500700 -159.000700 -137.398900 0.000001 -0.000001 1.000002 1.000000 0.000001 -0.000001 -0.000001 1.000002 0.000001 60483.dat
0 STEP
1 1 -89.500690 -199.000900 -157.399000 -1.000002 0.000001 0.000001 0.000001 0.000001 1.000000 0.000001 1.000002 -0.000001 32271.dat
0 STEP
1 0 -169.500200 -79.000260 -59.998830 -1.000002 0.000000 0.000000 0.000000 1.000000 0.000000 0.000000 0.000000 -1.000002 2780.dat
1 0 -169.500200 -79.000260 -19.998670 -1.000002 0.000000 0.000000 0.000000 1.000000 0.000000 0.000000 0.000000 -1.000002 2780.dat
1 71 -179.500200 -119.000200 -39.998740 0.000000 -1.000003 0.000000 0.000000 0.000000 1.000000 -1.000003 0.000000 0.000000 60484.dat
0 STEP
1 0 -188.650200 -79.000260 -39.998740 -1.000002 0.000000 0.000000 0.000000 1.000000 0.000000 0.000000 0.000000 -1.000002 3705.dat
1 0 -189.500200 -99.000240 -39.998740 -1.000002 0.000000 0.000000 0.000000 1.000000 0.000000 0.000000 0.000000 -1.000002 2780.dat
1 0 -189.500200 -119.000200 -39.998740 -1.000002 0.000000 0.000000 0.000000 1.000000 0.000000 0.000000 0.000000 -1.000002 2780.dat
0 STEP
1 15 -199.290800 -179.000500 -39.898340 -0.000001 -1.000002 -0.000001 -0.000001 -0.000001 1.000000 -1.000002 0.000001 -0.000001 64871.dat
0 STEP
1 72 -218.710300 -79.000260 -39.998740 0.000000 0.000000 -1.000002 1.000000 0.000000 0.000000 0.000000 -1.000002 0.000000 3648b.dat
1 71 -219.840900 -159.000500 -39.898340 0.000000 0.000000 -1.000002 0.862518 0.506027 0.000000 0.506028 -0.862520 0.000000 3649.dat
0 STEP
1 19 -209.290700 -239.000500 -39.898340 -1.000002 -0.000001 0.000001 0.000001 0.000001 1.000000 -0.000001 1.000002 -0.000001 3749.dat
1 72 -219.290700 -239.000500 -39.898340 0.000000 0.000000 -1.000002 0.000000 -1.000000 0.000000 -1.000002 0.000000 0.000000 3648b.dat
0 STEP
1 71 -219.400700 -319.000600 -39.898340 -1.000002 0.000000 0.000000 0.000000 0.648244 -0.761432 0.000000 -0.761434 -0.648245 32073.dat
1 15 -240.220800 -239.000500 -39.898340 -0.000001 -1.000002 -0.000001 -0.000001 -0.000001 1.000000 -1.000002 0.000001 -0.000001 40490.dat
1 71 -220.410700 -319.000700 -39.898340 0.000000 0.000000 -1.000002 -0.761432 -0.648244 0.000000 -0.648245 0.761434 0.000000 3649.dat
0 STEP
1 71 -179.410800 -319.000700 -39.898340 0.000001 0.000000 -1.000002 0.761432 0.648244 0.000001 0.648245 -0.761434 0.000001 3713.dat
1 71 -260.050800 -319.000700 -39.898340 0.000000 -1.000002 -0.000001 0.761432 0.000001 -0.648244 0.648245 -0.000001 0.761434 60483.dat
0 STEP
1 16 -264.187000 -40.970330 -39.844270 1.000000 0.000000 0.000000 0.000000 1.000000 0.000000 0.000000 0.000000 1.000000 submodel group 3
0 STEP
1 15 -280.050800 -292.415500 -30.651360 0.000001 1.000002 0.000001 0.149542 -0.000001 0.988755 0.988757 -0.000001 -0.149542 32524.dat
1 71 -270.050900 -331.965600 -24.669650 -1.000002 0.000000 0.000000 0.000000 0.588671 -0.808372 0.000000 -0.808374 -0.588672 3673.dat
0 STEP
1 16 -233.169200 -259.001300 -40.475940 0.866027 0.000000 -0.499998 0.000000 1.000000 0.000000 0.499998 0.000000 0.866027 submodel group 2
1 72 -109.500500 -279.000700 30.021300 -1.000002 0.000000 0.000000 0.000000 1.000000 0.000000 0.000000 0.000000 -1.000002 3647.dat
1 71 -109.500400 -279.000700 50.341380 -1.000002 0.000000 -0.000001 0.000000 1.000000 0.000000 0.000001 0.000000 -1.000002 3713.dat
1 71 -109.500500 -279.000700 -29.658790 0.000000 0.000000 1.000002 0.000000 1.000000 0.000000 -1.000002 0.000000 0.000000 60485.dat
1 71 -109.500500 -279.000700 -109.659000 1.000002 0.000000 0.000001 0.000000 1.000000 0.000000 -0.000001 0.000000 1.000002 3713.dat
0 STEP
1 1 -127.500800 -339.001600 -1.088550 0.000000 1.000002 0.000000 1.000000 0.000000 0.000000 0.000000 0.000000 -1.000002 32001.dat
1 1 -127.500800 -339.001600 -79.998750 0.000000 1.000002 0.000000 1.000000 0.000000 0.000000 0.000000 0.000000 -1.000002 32001.dat
0 STEP
1 16 -602.524300 -200.362000 -41.584230 1.000000 0.000000 0.000000 0.000000 1.000000 0.000000 0.000000 0.000000 1.000000 submodel group 1
1 15 -587.000000 -271.838300 -42.000000 0.000000 1.000000 0.000000 -1.000000 0.000000 0.000000 0.000000 0.000000 1.000000 xt0022.dat.dat
0 STEP
0 STEP
0 NOFILE
0 FILE SubModel Group 5
0 SubModel Group 5
0 Name:  SubModel Group 5
0 Author:  
0 CustomBrick
0 NumOfBricks:  14
1 1 10.285390 -160.000600 -3.891460 0.000000 1.000007 0.000000 -1.000004 0.000000 0.000000 0.000000 0.000000 1.000002 3703.dat
1 0 20.285620 -180.000600 6.108530 0.000000 1.000007 0.000000 0.000000 0.000000 1.000005 1.000002 0.000000 0.000000 2780.dat
0 STEP
1 72 20.285620 -140.000500 11.108550 -1.000007 0.000000 0.000000 0.000000 0.000000 -1.000004 0.000000 -1.000002 0.000000 99773.dat
1 71 20.285620 -140.000600 25.018600 0.000000 -1.000007 0.000000 1.000004 0.000000 0.000001 -0.000001 0.000000 1.000002 3650c.dat
1 0 20.285620 -140.000700 -10.981480 0.000000 1.000007 0.000000 0.000000 0.000000 1.000004 1.000002 0.000000 0.000000 15462.dat
0 STEP
1 71 20.285630 -140.000700 -31.581420 1.000002 0.000000 0.000001 0.000000 1.000000 0.000000 -0.000001 0.000000 1.000002 3713.dat
1 14 20.285620 -140.000700 -16.541490 0.000000 1.000002 0.000000 1.000000 0.000000 0.000000 0.000000 0.000000 -1.000002 32123a.dat
0 STEP
1 0 20.285550 -300.001500 6.108650 0.000000 1.000002 0.000000 0.000000 0.000000 1.000000 1.000002 0.000000 0.000000 2780.dat
1 0 20.285550 -280.001500 6.108650 0.000000 1.000002 0.000000 0.000000 0.000000 1.000000 1.000002 0.000000 0.000000 2780.dat
0 STEP
1 1 -29.713880 -40.000250 -3.891430 0.000000 1.000002 0.000000 -1.000000 0.000000 0.000000 0.000000 0.000000 1.000002 3701.dat
1 1 -5.714490 -40.000370 -3.891410 0.000000 1.000007 0.000000 -1.000004 0.000000 0.000000 0.000000 0.000000 1.000002 3710.dat
1 1 2.285620 -60.000440 -3.891410 0.000000 1.000007 0.000000 -1.000004 0.000000 0.000000 0.000000 0.000000 1.000002 3666.dat
0 STEP
1 1 -19.713870 -20.000250 -3.891430 0.000000 1.000002 0.000000 0.000000 0.000000 -1.000000 -1.000002 0.000000 0.000000 6558.dat
1 1 20.286340 -20.000250 -3.891520 0.000000 0.000000 1.000002 0.000000 1.000000 0.000000 -1.000002 0.000000 0.000000 6558.dat
0 STEP
0 NOFILE
0 FILE SubModel Group 4
0 SubModel Group 4
0 Name:  SubModel Group 4
0 Author:  
0 CustomBrick
0 NumOfBricks:  8
1 0 -33.871320 -31.859900 18.716310 -1.000002 0.000000 0.000000 0.000000 1.000001 0.000000 0.000000 0.000001 -1.000002 3708.dat
1 4 -9.181310 -31.859810 18.716460 -1.000002 0.000000 0.000000 0.000000 0.862518 -0.506027 0.000000 -0.506026 -0.862520 62462.dat
0 STEP
1 14 -54.541440 -31.859810 18.716460 0.000000 0.000000 1.000002 1.000000 0.000000 0.000000 0.000002 1.000001 0.000000 32123a.dat
1 71 -39.301310 -31.859810 18.716460 0.000001 0.000000 -1.000002 0.000000 1.000000 0.000001 1.000001 0.000002 0.000001 3713.dat
0 STEP
1 14 35.698740 -31.859810 18.716240 0.000000 0.000000 1.000002 0.000000 1.000000 0.000000 -1.000001 0.000002 0.000000 32123a.dat
1 71 20.808730 -31.859820 18.716460 -0.000001 0.000000 1.000002 1.000001 0.000000 0.000001 0.000001 1.000001 0.000000 94925.dat
0 STEP
1 19 70.128810 -31.859810 18.716480 0.000000 0.000000 -1.000002 0.000000 -1.000000 0.000000 -1.000001 -0.000002 0.000000 32269.dat
1 15 50.259010 -31.946360 18.569310 0.000001 1.000002 0.000001 -0.862519 0.000000 0.506026 0.506025 -0.000001 0.862520 64290.dat
0 STEP
0 NOFILE
0 FILE SubModel Group 9 Copy Copy Copy
0 SubModel Group 9 Copy Copy Copy
0 Name:  SubModel Group 9 Copy Copy Copy
0 Author:  
0 CustomBrick
0 NumOfBricks:  3
1 72 10.000000 -1.128810 -10.000000 1.000000 0.000000 0.000000 0.000000 0.000000 -1.000000 0.000000 1.000000 0.000000 dch003.dat
1 71 -27.466620 -79.717990 29.427020 1.000000 0.000000 0.000000 0.000000 0.000000 -1.000000 0.000000 1.000000 0.000000 dch004.dat
1 25 7.837010 13.484720 -9.965000 1.000000 0.000000 0.000000 0.000000 0.000000 -1.000000 0.000000 1.000000 0.000000 dch005.dat
0 NOFILE
0 FILE SubModel Group 3
0 SubModel Group 3
0 Name:  SubModel Group 3
0 Author:  
0 CustomBrick
0 NumOfBricks:  5
1 4 3.965910 -30.000020 -0.054070 0.000001 -1.000002 0.000001 1.000000 0.000001 -0.000001 0.000001 0.000001 1.000002 32054.dat
1 71 3.965910 -110.000200 -0.054070 0.000000 0.000000 1.000002 1.000000 0.000000 0.000000 0.000000 1.000002 0.000000 44294.dat
0 STEP
1 71 -5.863830 -192.119700 0.220230 -1.000002 0.000000 0.000000 0.000000 1.000000 0.000000 0.000000 0.000000 -1.000002 3673.dat
1 4 3.965910 -191.319200 -0.058030 -1.000002 0.000000 0.000000 0.000000 0.000001 -1.000000 0.000000 -1.000002 -0.000001 32034.dat
1 0 3.966000 -138.030200 -0.054070 1.000002 0.000001 0.000001 0.000001 -1.000000 0.000000 0.000001 0.000000 -1.000002 15100.dat
0 STEP
0 NOFILE
0 FILE SubModel Group 2
0 SubModel Group 2
0 Name:  SubModel Group 2
0 Author:  
0 CustomBrick
0 NumOfBricks:  56
1 1 153.559200 -160.000300 -89.364520 -0.499999 0.866028 0.000000 0.000000 0.000000 -1.000000 -0.866028 -0.499999 0.000000 32001.dat
1 1 132.774600 -150.000200 -77.364560 -0.499999 0.866028 0.000000 0.000000 0.000000 -1.000000 -0.866028 -0.499999 0.000000 3701.dat
0 STEP
1 14 141.979900 -135.180400 -81.420350 0.000000 1.000002 0.000000 0.000000 0.000000 -1.000000 -1.000002 0.000000 0.000000 32123a.dat
1 71 141.979900 -179.250400 -81.420350 -1.000002 0.000000 0.000000 0.000000 0.000000 -1.000000 0.000000 -1.000002 0.000000 4716.dat
1 71 141.979800 -220.180400 -81.420460 0.000000 0.000000 -1.000002 1.000000 0.000000 0.000000 0.000000 -1.000002 0.000000 60485.dat
0 STEP
1 1 133.319500 -210.000400 -76.420460 -0.499999 0.866028 0.000000 0.000000 0.000000 -1.000000 -0.866028 -0.499999 0.000000 3701.dat
1 1 153.559200 -200.000400 -89.364520 -0.499999 0.866028 0.000000 0.000000 0.000000 -1.000000 -0.866028 -0.499999 0.000000 32001.dat
0 STEP
1 1 108.319600 -180.000400 -119.721900 0.000000 0.866028 0.499999 -1.000000 0.000000 0.000000 0.000000 -0.499999 0.866028 3701.dat
1 1 157.774600 -180.000400 -34.063070 0.000000 0.866028 0.499999 -1.000000 0.000000 0.000000 0.000000 -0.499999 0.866028 3701.dat
0 STEP
1 4 141.979800 -260.370400 -81.420480 0.000000 0.866028 -0.499999 1.000000 0.000000 0.000000 0.000000 -0.499999 -0.866028 62462.dat
1 71 141.979900 -230.270400 -81.420360 1.000002 0.000000 0.000000 -0.000001 0.000000 1.000000 0.000000 -1.000002 0.000000 3713.dat
0 STEP
1 0 141.979900 -290.180500 -81.420380 0.000000 -1.000002 0.000000 0.000000 0.000000 1.000000 -1.000002 0.000000 0.000000 44309.dat
1 71 141.979900 -290.180500 -81.420380 -1.000002 0.000000 0.000000 0.000000 0.000000 1.000000 0.000000 1.000002 0.000000 56145.dat
0 STEP
1 1 106.391300 -180.000400 -107.061600 0.000000 0.866028 -0.499999 1.000000 0.000000 0.000000 0.000000 -0.499999 -0.866028 3709b.dat
1 1 145.846300 -180.000400 -38.723340 0.000000 0.866034 -0.499999 1.000003 0.000000 0.000000 0.000000 -0.500002 -0.866028 3709b.dat
0 STEP
1 16 97.224680 -0.000090 -57.975200 0.866027 0.000000 0.499998 0.000000 1.000000 0.000000 -0.499998 0.000000 0.866027 submodel group 6
0 STEP
1 71 126.793400 -220.000300 -27.723020 0.499999 0.866028 0.000000 0.000000 0.000000 1.000001 0.866028 -0.499999 0.000000 3673.dat
1 15 21.204480 -277.390000 44.785180 -0.355007 -0.499998 -0.789921 0.912119 -0.000001 -0.409925 0.204960 -0.866029 0.456057 64871.dat
0 STEP
1 71 73.599590 -252.794400 26.082020 0.499999 0.789920 -0.355008 0.000001 0.409926 0.912119 0.866028 -0.456059 0.204962 3673.dat
1 15 92.965220 -216.396200 26.448840 -0.788051 0.500000 0.359136 0.414693 -0.000001 0.909961 0.454980 0.866028 -0.207346 32316.dat
0 STEP
1 0 -94.384410 -334.779600 99.972950 0.499999 0.000000 -0.866028 0.000000 1.000000 0.000000 0.866028 0.000000 0.499999 2780.dat
1 0 -62.787620 -318.382500 81.730670 0.499999 0.000000 -0.866028 0.000000 1.000000 0.000000 0.866028 0.000000 0.499999 2780.dat
1 15 -178.126800 -376.407600 136.774300 -0.360512 -0.499998 -0.787425 0.909236 -0.000001 -0.416282 0.208140 -0.866029 0.454616 64871.dat
0 STEP
1 71 33.336410 -260.993300 -7.171810 0.866028 0.000000 -0.499999 0.000000 -1.000000 0.000000 -0.499999 0.000000 -0.866028 4185.dat
1 71 62.936420 -260.993100 44.097200 -0.000001 0.866028 0.499999 -1.000000 0.000000 -0.000001 -0.000001 -0.499999 0.866028 3713.dat
1 0 27.936480 -260.993000 -16.524860 -0.499999 0.866028 0.000000 0.000000 0.000000 -1.000000 -0.866028 -0.499999 0.000000 3707.dat
0 STEP
1 71 23.396500 -260.993100 -24.388360 0.866028 0.000000 -0.499999 0.000000 -1.000000 0.000000 -0.499999 0.000000 -0.866028 4185.dat
1 14 28.326490 -260.993100 -15.849340 0.866028 0.000000 -0.499999 0.000000 -1.000000 0.000000 -0.499999 0.000000 -0.866028 32123a.dat
0 STEP
1 71 -251.048200 -409.329800 156.300900 0.365999 0.784888 0.499999 -0.906308 0.422618 0.000001 -0.211308 -0.453153 0.866028 3713.dat
1 71 -256.092800 -409.330200 147.562500 -0.499999 0.784888 0.365999 -0.000001 0.422618 -0.906308 -0.866028 -0.453153 -0.211308 32073.dat
0 STEP
1 71 -261.043000 -409.330200 138.988900 0.365999 0.784887 0.499999 -0.906307 0.422617 0.000001 -0.211307 -0.453152 0.866028 3713.dat
1 72 -233.867900 -409.330000 186.057600 -0.366001 -0.499998 -0.784888 0.906308 -0.000002 -0.422619 0.211307 -0.866029 0.453153 32250.dat
0 STEP
1 71 -298.376100 -434.687300 183.082900 0.866028 0.000000 -0.499999 0.000000 -1.000000 0.000000 -0.499999 0.000000 -0.866028 4185.dat
1 0 -303.461100 -434.687300 174.275400 -0.499999 0.866028 0.000000 0.000000 0.000000 -1.000000 -0.866028 -0.499999 0.000000 3706.dat
0 STEP
1 71 -308.516100 -434.687300 165.519900 0.866028 0.000000 -0.499999 0.000000 -1.000000 0.000000 -0.499999 0.000000 -0.866028 4185.dat
1 14 -303.431100 -434.687300 174.327400 0.000000 0.866028 0.499999 -1.000000 0.000000 0.000000 0.000000 -0.499999 0.866028 32123a.dat
0 STEP
1 72 -278.607700 -409.330200 108.565300 -0.366001 -0.499998 -0.784887 0.906308 -0.000001 -0.422619 0.211307 -0.866029 0.453152 32250.dat
1 15 -207.581700 -376.407700 85.756760 -0.360512 -0.499998 -0.787424 0.909236 -0.000001 -0.416282 0.208140 -0.866029 0.454615 64871.dat
0 STEP
1 0 -102.242600 -318.382500 13.392570 0.499999 0.000000 -0.866028 0.000000 1.000000 0.000000 0.866028 0.000000 0.499999 2780.dat
1 0 -133.839400 -334.779600 31.634800 0.499999 0.000000 -0.866028 0.000000 1.000000 0.000000 0.866028 0.000000 0.499999 2780.dat
0 STEP
1 71 14.144870 -252.794400 -76.897210 0.499999 0.866028 0.000000 0.000000 0.000000 1.000001 0.866028 -0.499999 0.000000 3673.dat
1 15 -28.250340 -277.390000 -40.873580 -0.355007 -0.499998 -0.789922 0.912120 -0.000001 -0.409926 0.204960 -0.866029 0.456058 64871.dat
0 STEP
1 71 -6.673460 -260.993200 -76.471370 -0.000001 0.866028 0.499999 -1.000000 0.000000 -0.000001 -0.000001 -0.499999 0.866028 3713.dat
1 15 23.331890 -216.398800 -93.748460 -0.788052 0.500000 0.359137 0.414693 -0.000001 0.909962 0.454981 0.866028 -0.207347 32316.dat
0 STEP
0 NOFILE
0 FILE SubModel Group 6
0 SubModel Group 6
0 Name:  SubModel Group 6
0 Author:  
0 CustomBrick
0 NumOfBricks:  13
1 1 24.481740 -140.000200 40.983350 0.000000 1.000002 0.000000 -1.000000 0.000000 0.000000 0.000000 0.000000 1.000002 3738.dat
1 1 0.481330 -120.000300 30.983460 0.000000 1.000002 0.000000 -1.000001 0.000000 0.000000 0.000000 0.000000 1.000002 3895.dat
0 STEP
1 14 10.481370 -180.000200 16.163420 1.000002 0.000000 0.000000 0.000000 1.000001 0.000000 0.000000 0.000000 1.000002 32123a.dat
1 0 10.481360 -180.000300 2.073390 0.000000 1.000002 0.000000 0.000000 0.000000 -1.000001 -1.000002 0.000000 0.000000 3706.dat
0 STEP
1 19 -29.518750 -180.000300 62.073540 -0.000001 -0.000002 -1.000002 0.000001 -1.000001 0.000001 -1.000002 -0.000001 0.000001 3749.dat
1 1 -9.518760 -180.000300 52.073440 0.000000 -1.000003 0.000000 0.000000 0.000000 -1.000001 1.000002 0.000000 0.000000 32184.dat
0 STEP
1 72 10.481350 -180.000300 1.903400 1.000002 0.000000 0.000000 0.000000 1.000001 0.000000 0.000000 0.000000 1.000002 3648b.dat
1 14 10.481340 -180.000300 -12.636710 1.000002 0.000000 0.000000 0.000000 1.000001 0.000000 0.000000 0.000000 1.000002 32123a.dat
0 STEP
1 1 24.481720 -140.000200 -37.926890 0.000000 1.000002 0.000000 -1.000000 0.000000 0.000000 0.000000 0.000000 1.000002 3738.dat
1 1 0.481650 -120.000100 -27.926790 0.000000 1.000002 0.000000 -1.000001 0.000000 0.000000 0.000000 0.000000 1.000002 3895.dat
0 STEP
1 71 10.481350 -220.000100 -37.926730 0.000000 1.000002 0.000000 0.000000 0.000000 1.000001 1.000002 0.000000 0.000000 3673.dat
1 19 -29.518700 -180.000200 -57.926820 0.000001 0.000001 1.000002 0.000001 -1.000001 0.000001 1.000002 0.000001 -0.000001 3749.dat
1 1 -9.518680 -180.000200 -47.926830 0.000000 -1.000002 0.000000 0.000000 0.000000 -1.000001 1.000002 0.000000 0.000000 32184.dat
0 STEP
0 NOFILE
0 FILE SubModel Group 1
0 SubModel Group 1
0 Name:  SubModel Group 1
0 Author:  
0 CustomBrick
0 NumOfBricks:  15
1 1 4.023500 -80.001400 31.586300 0.000000 1.000002 0.000000 1.000001 0.000000 0.000000 0.000000 0.000000 -1.000003 3894.dat
0 STEP
1 71 14.020570 -80.001400 1.586050 0.000000 1.000002 0.000000 1.000001 0.000000 0.000001 0.000001 0.000000 -1.000003 59443.dat
1 4 14.023500 -80.001400 21.586300 0.000000 1.000002 0.000000 0.000000 0.000000 -1.000001 -1.000003 0.000000 0.000000 32062.dat
0 STEP
1 1 4.023500 -80.001400 -28.414410 0.000000 1.000002 0.000000 1.000001 0.000000 0.000000 0.000000 0.000000 -1.000003 3894.dat
1 4 14.023500 -80.001400 -18.414330 0.000000 1.000002 0.000000 0.000000 0.000000 -1.000001 -1.000003 0.000000 0.000000 32062.dat
0 STEP
1 1 28.023500 -40.001380 1.586050 0.000000 1.000002 0.000000 0.000000 0.000000 1.000001 1.000003 0.000000 0.000000 3709b.dat
1 1 28.023620 -120.001600 1.586050 0.000000 1.000002 0.000000 0.000000 0.000000 1.000001 1.000003 0.000000 0.000000 3709b.dat
0 STEP
1 1 4.023500 -30.001530 1.586060 0.000000 1.000002 0.000000 0.000000 0.000000 1.000001 1.000003 0.000000 0.000000 3700.dat
1 1 4.023500 -130.001700 1.586060 0.000000 1.000002 0.000000 0.000000 0.000000 1.000001 1.000003 0.000000 0.000000 3700.dat
1 4 14.023500 -29.999940 1.585740 0.000001 0.000001 0.999998 0.999997 0.000001 -0.000001 -0.000001 0.999999 -0.000001 32054.dat
0 STEP
1 14 24.675110 -16.000150 -7.203450 0.000000 0.000000 0.999998 -0.999997 0.000000 0.000000 0.000000 -0.999999 0.000000 12344.dat
0 STEP
1 1 -3.976500 -30.001440 1.586060 0.000000 1.000002 0.000000 0.000000 0.000000 1.000001 1.000003 0.000000 0.000000 3710.dat
1 1 -3.976500 -130.001400 1.585570 0.000000 1.000002 0.000000 0.000000 0.000000 1.000000 1.000002 0.000000 0.000000 3710.dat
0 STEP
1 15 -19.976500 -90.001300 31.586300 0.000000 1.000002 0.000000 0.000000 0.000000 -1.000000 -1.000002 0.000000 0.000000 3040b.dat
1 15 -19.976500 -90.001300 -28.414410 0.000000 1.000002 0.000000 0.000000 0.000000 -1.000000 -1.000002 0.000000 0.000000 3040b.dat
0 STEP
0 NOFILE
