0 Untitled Model
0 Name:  模拟飞行器
0 Author:  
0 CustomBrick
0 NumOfBricks:  49
1 1 30.000000 -8.000000 -39.999990 0.000000 0.000000 1.000000 0.000000 1.000000 0.000000 -1.000000 0.000000 0.000000 3710.dat
1 1 10.000000 -8.000000 -39.999990 0.000000 0.000000 1.000000 0.000000 1.000000 0.000000 -1.000000 0.000000 0.000000 3710.dat
0 STEP
1 1 30.000010 -32.000000 -40.000020 0.000000 0.000000 1.000000 0.000000 1.000000 0.000000 -1.000000 0.000000 0.000000 3700.dat
1 15 9.999980 -32.000000 -30.000020 0.000000 0.000000 1.000000 0.000000 1.000000 0.000000 -1.000000 0.000000 0.000000 3040b.dat
1 15 10.000000 -32.000000 -50.000040 0.000000 0.000000 1.000000 0.000000 1.000000 0.000000 -1.000000 0.000000 0.000000 3040b.dat
0 STEP
1 1 -20.000000 -8.000000 -50.000040 1.000000 0.000000 0.000000 0.000000 1.000000 0.000000 0.000000 0.000000 1.000000 3023.dat
1 1 -20.000010 -8.000000 -30.000020 1.000000 0.000000 0.000000 0.000000 1.000000 0.000000 0.000000 0.000000 1.000000 3023.dat
0 STEP
1 1 19.999990 -40.000000 -30.000020 1.000000 0.000000 0.000000 0.000000 1.000000 0.000000 0.000000 0.000000 1.000000 3023.dat
1 1 20.000010 -40.000000 -50.000040 1.000000 0.000000 0.000000 0.000000 1.000000 0.000000 0.000000 0.000000 1.000000 3023.dat
0 STEP
1 71 40.000000 -22.000040 -39.999960 1.000000 0.000000 0.000000 0.000000 1.000000 0.000000 0.000000 0.000000 1.000000 3673.dat
1 4 50.000000 -22.000040 -39.999960 1.000000 0.000000 0.000000 0.000000 1.000000 0.000000 0.000000 0.000000 1.000000 32034.dat
0 STEP
1 15 -40.000020 -32.000000 -30.000020 1.000000 0.000000 0.000000 0.000000 1.000000 0.000000 0.000000 0.000000 1.000000 32064a.dat
1 15 -40.000000 -32.000000 -50.000040 1.000000 0.000000 0.000000 0.000000 1.000000 0.000000 0.000000 0.000000 1.000000 32064a.dat
0 STEP
1 15 -80.000000 -56.000000 -40.000020 1.000000 0.000000 0.000000 0.000000 1.000000 0.000000 0.000000 0.000000 1.000000 3001.dat
0 STEP
1 15 -99.999980 -80.000000 -50.000040 1.000000 0.000000 0.000000 0.000000 1.000000 0.000000 0.000000 0.000000 1.000000 32064a.dat
1 15 -99.999980 -80.000000 -30.000020 1.000000 0.000000 0.000000 0.000000 1.000000 0.000000 0.000000 0.000000 1.000000 32064a.dat
0 STEP
1 1 20.000010 -48.000000 -40.000020 -1.000000 0.000000 0.000000 0.000000 1.000000 0.000000 0.000000 0.000000 -1.000000 3709b.dat
0 STEP
1 1 80.000020 -56.000000 -50.000040 1.000000 0.000000 0.000000 0.000000 1.000000 0.000000 0.000000 0.000000 1.000000 3710.dat
1 1 80.000020 -56.000000 -30.000020 -1.000000 0.000000 0.000000 0.000000 1.000000 0.000000 0.000000 0.000000 -1.000000 3710.dat
0 STEP
1 15 100.000000 -80.000000 -40.000020 1.000000 0.000000 0.000000 0.000000 1.000000 0.000000 0.000000 0.000000 1.000000 3941.dat
1 19 100.000000 -80.000000 -39.999990 -0.000001 1.000000 -0.000001 1.000000 0.000001 -0.000001 -0.000001 -0.000001 -1.000000 3749.dat
0 STEP
1 1 20.000010 -56.000000 -80.000040 0.000000 0.000000 1.000000 0.000000 1.000000 0.000000 -1.000000 0.000000 0.000000 3709b.dat
1 1 20.000010 -56.000000 0.000020 0.000000 0.000000 1.000000 0.000000 1.000000 0.000000 -1.000000 0.000000 0.000000 3709b.dat
0 STEP
1 15 20.000010 -80.000000 -40.000020 1.000000 0.000000 0.000000 0.000000 1.000000 0.000000 0.000000 0.000000 1.000000 3941.dat
0 STEP
1 1 20.000000 -104.000000 -50.000100 1.000000 0.000000 0.000000 0.000000 1.000000 0.000000 0.000000 0.000000 1.000000 3701.dat
1 1 20.000010 -104.000000 -30.000020 1.000000 0.000000 0.000000 0.000000 1.000000 0.000000 0.000000 0.000000 1.000000 3701.dat
0 STEP
1 1 49.999990 -128.000000 -40.000060 0.000000 0.000000 1.000000 0.000000 1.000000 0.000000 -1.000000 0.000000 0.000000 3700.dat
1 15 0.000000 -112.000000 -30.000020 -1.000000 0.000000 0.000000 0.000000 1.000000 0.000000 0.000000 0.000000 -1.000000 2431.dat
1 15 0.000000 -112.000000 -50.000040 -1.000000 0.000000 0.000000 0.000000 1.000000 0.000000 0.000000 0.000000 -1.000000 2431.dat
0 STEP
1 1 -120.000000 -104.000000 -30.000020 1.000000 0.000000 0.000000 0.000000 1.000000 0.000000 0.000000 0.000000 1.000000 3700.dat
1 1 -120.000000 -104.000000 -50.000040 1.000000 0.000000 0.000000 0.000000 1.000000 0.000000 0.000000 0.000000 1.000000 3700.dat
0 STEP
1 19 -120.000000 -93.999980 -60.000040 0.000001 -1.000000 0.000001 0.000001 0.000001 1.000000 -1.000000 -0.000001 0.000001 3749.dat
1 19 -120.000000 -93.999980 -19.999990 -0.000001 1.000000 -0.000001 0.000001 0.000001 1.000000 1.000000 0.000001 -0.000001 3749.dat
0 STEP
1 0 -120.000000 -94.000060 10.000000 -0.000002 1.000000 0.000002 -1.000000 -0.000002 -0.000002 -0.000002 -0.000002 1.000000 32013.dat
1 0 -120.000000 -94.000040 -89.999970 0.000002 -1.000000 -0.000002 -1.000000 -0.000002 -0.000002 0.000002 0.000002 -1.000000 32013.dat
0 STEP
1 19 -120.000100 -104.000000 -90.000030 -0.000001 1.000000 -0.000001 -1.000000 -0.000001 0.000001 0.000001 0.000001 1.000000 3749.dat
1 19 -119.999900 -104.000100 9.999969 0.000001 -1.000000 0.000001 -1.000000 -0.000001 0.000001 -0.000001 -0.000001 -1.000000 3749.dat
0 STEP
1 1 -130.000000 -112.000000 -40.000020 0.000000 0.000000 1.000000 0.000000 1.000000 0.000000 -1.000000 0.000000 0.000000 3023.dat
0 STEP
1 1 -140.000000 -120.000000 -30.000020 1.000000 0.000000 0.000000 0.000000 1.000000 0.000000 0.000000 0.000000 1.000000 3023.dat
1 1 -140.000000 -120.000000 -50.000040 1.000000 0.000000 0.000000 0.000000 1.000000 0.000000 0.000000 0.000000 1.000000 3023.dat
0 STEP
1 1 -150.000000 -152.000000 -40.000060 0.000000 0.000000 1.000000 0.000000 1.000000 0.000000 -1.000000 0.000000 0.000000 3023.dat
1 15 -150.000000 -144.000000 -50.000070 0.000000 0.000000 1.000000 0.000000 1.000000 0.000000 -1.000000 0.000000 0.000000 3040b.dat
1 15 -150.000000 -144.000000 -30.000060 0.000000 0.000000 1.000000 0.000000 1.000000 0.000000 -1.000000 0.000000 0.000000 3040b.dat
0 STEP
1 4 -140.000100 -114.000000 -90.000030 0.000000 -1.000000 0.000000 1.000000 0.000000 0.000000 0.000000 0.000000 1.000000 42003.dat
1 4 -99.999900 -114.000000 9.999969 0.000000 1.000000 0.000000 1.000000 0.000000 0.000000 0.000000 0.000000 -1.000000 42003.dat
0 STEP
1 19 -79.999920 -114.000000 19.999960 -0.000001 1.000000 -0.000001 0.000001 0.000001 1.000000 1.000000 0.000001 -0.000001 3749.dat
1 19 -160.000000 -114.000000 -100.000100 0.000001 -1.000000 0.000001 0.000001 0.000001 1.000000 -1.000000 -0.000001 0.000001 3749.dat
0 STEP
1 71 -79.999900 -114.002900 39.999960 1.000000 0.000000 0.000001 0.000000 1.000000 0.000000 -0.000001 0.000000 1.000000 59443.dat
1 71 -160.000000 -114.002900 -122.010100 1.000000 0.000000 0.000001 0.000000 1.000000 0.000000 -0.000001 0.000000 1.000000 59443.dat
0 STEP
0 STEP
