0 FILE 收割机.io
0 Untitled Model
0 Name:  收割机
0 Author:  
0 CustomBrick
0 NumOfBricks:  86
1 1 110.980200 -64.000980 -73.995520 0.000001 0.000000 1.000001 0.000000 1.000000 0.000000 -1.000000 0.000000 0.000001 3703.dat
1 1 100.980300 -72.000980 -133.995900 0.000001 0.000000 1.000001 0.000000 1.000000 0.000000 -1.000000 0.000000 0.000001 3709b.dat
1 1 100.980300 -72.000970 -13.996120 0.000001 0.000000 1.000001 0.000000 1.000000 0.000000 -1.000000 0.000000 0.000001 3709b.dat
0 STEP
1 1 40.979960 -64.000980 16.003750 1.000001 0.000000 -0.000001 0.000000 1.000000 0.000000 0.000001 0.000000 1.000000 3894.dat
1 1 40.980270 -64.000980 -163.996100 1.000001 0.000000 -0.000001 0.000000 1.000000 0.000000 0.000001 0.000000 1.000000 3894.dat
0 STEP
1 1 0.980270 -72.000980 -163.996100 1.000000 0.000000 -0.000001 0.000000 1.000000 0.000000 0.000001 0.000000 1.000000 3710.dat
0 STEP
1 1 40.979960 -96.000980 16.003940 1.000001 0.000000 -0.000001 0.000000 1.000000 0.000000 0.000001 0.000000 1.000000 3702.dat
1 1 0.980090 -72.000970 16.003750 1.000001 0.000000 -0.000001 0.000000 1.000000 0.000000 0.000001 0.000000 1.000000 3710.dat
0 STEP
1 1 -29.019450 -64.000980 -73.995820 0.000001 0.000000 1.000001 0.000000 1.000000 0.000000 -1.000000 0.000000 0.000001 3703.dat
0 STEP
1 72 20.980160 -54.000980 -181.556000 -0.996196 -0.087155 0.000001 -0.087155 0.996195 0.000000 -0.000001 0.000000 -1.000001 3647.dat
1 71 20.980220 -54.001020 -165.016000 0.000001 -0.087155 0.996195 0.000000 0.996194 0.087155 -1.000000 0.000000 0.000001 4519.dat
1 0 0.980160 -54.001020 -153.996000 -0.000001 0.000000 -1.000001 0.000000 1.000000 0.000000 1.000000 0.000000 -0.000001 2780.dat
1 0 40.980270 -54.001020 -153.996000 -0.000001 0.000000 -1.000001 0.000000 1.000000 0.000000 1.000000 0.000000 -0.000001 2780.dat
1 71 20.980160 -54.001020 -153.996000 1.000001 0.000000 -0.000001 0.000000 1.000000 0.000000 0.000001 0.000000 1.000000 58120.dat
0 STEP
1 72 60.980270 -54.000780 37.143820 0.573582 -0.819150 0.000000 -0.819149 -0.573582 0.000000 0.000000 0.000000 -1.000001 3648b.dat
1 0 60.980030 -54.000960 -72.855620 0.000000 -0.819150 0.573582 0.000000 -0.573582 -0.819149 1.000001 0.000000 0.000000 3708.dat
1 72 60.980030 -54.000940 -182.856100 0.573582 0.819149 0.000000 -0.819148 0.573582 0.000000 0.000000 0.000000 1.000001 3648b.dat
0 STEP
1 71 11.370070 -54.000970 66.003230 -0.000001 0.000000 1.000000 -0.395374 0.918520 0.000000 -0.918520 -0.395374 -0.000001 3713.dat
1 71 -9.109940 -54.000980 66.003230 -0.000001 0.000000 1.000000 -0.395374 0.918520 0.000000 -0.918520 -0.395374 -0.000001 3713.dat
1 0 37.910060 -54.000980 66.003220 1.000000 0.000000 0.000000 0.000000 0.918520 0.395374 0.000000 -0.395374 0.918520 3708.dat
1 71 29.160140 -54.000900 66.003350 -0.000002 0.000000 1.000001 0.395374 -0.918520 0.000001 0.918520 0.395374 0.000002 3650c.dat
0 STEP
1 0 -79.000000 -54.004280 66.001100 0.000000 0.000000 -1.000000 0.918520 -0.395374 0.000000 -0.395374 -0.918520 0.000000 44309.dat
1 71 -79.000000 -54.000860 66.003500 0.000000 0.000000 -1.000000 -0.395375 -0.918520 0.000000 -0.918523 0.395374 0.000000 56145.dat
1 71 -49.250100 -54.000900 66.003350 -0.000001 0.000000 1.000001 -0.395374 0.918520 0.000000 -0.918521 -0.395374 -0.000001 3713.dat
0 STEP
1 0 163.650900 -53.999980 66.003140 0.000000 0.000000 1.000000 0.918520 0.395374 0.000000 -0.395374 0.918520 0.000000 44309.dat
1 71 163.650100 -54.000850 66.003490 0.000000 0.000000 1.000000 0.395374 -0.918520 0.000000 0.918520 0.395374 0.000000 56145.dat
1 71 132.180400 -54.000860 66.003500 -0.000001 0.000000 1.000001 -0.395374 0.918520 0.000000 -0.918521 -0.395374 -0.000001 3713.dat
0 STEP
1 1 40.980270 -96.000980 -163.996100 -1.000000 0.000000 0.000000 0.000000 1.000000 0.000000 0.000000 0.000000 -1.000000 3702.dat
0 STEP
1 1 70.980180 -120.001000 -53.995720 0.000000 0.000000 -1.000000 0.000000 1.000000 0.000000 1.000000 0.000000 0.000000 3895.dat
1 0 60.981120 -110.001000 -33.994040 1.000003 0.000000 0.000000 0.000000 1.000000 0.000000 0.000000 0.000000 1.000003 2780.dat
1 0 60.980180 -110.001000 -93.995720 1.000000 0.000000 0.000000 0.000000 1.000000 0.000000 0.000000 0.000000 1.000000 2780.dat
0 STEP
1 16 41.980180 -147.854900 -142.995700 0.000000 0.000000 1.000000 -1.000000 0.000000 0.000000 0.000000 -1.000000 0.000000 submodel group 9 copy copy copy
0 STEP
1 1 -9.019690 -120.000900 -53.992600 0.000000 0.000000 -1.000003 0.000000 1.000000 0.000000 1.000003 0.000000 0.000000 3895.dat
1 0 0.980640 -110.000900 -33.993060 1.000003 0.000000 0.000000 0.000000 1.000000 0.000000 0.000000 0.000000 1.000003 2780.dat
1 0 0.980640 -110.000900 -73.993500 -1.000003 0.000000 0.000000 0.000000 1.000000 0.000000 0.000000 0.000000 -1.000003 2780.dat
0 STEP
1 1 -9.019750 -128.000900 46.007720 0.000000 0.000000 1.000003 0.000000 0.999999 0.000000 -1.000002 0.000000 0.000000 3023.dat
1 1 70.980180 -128.001000 46.004180 0.000000 0.000000 1.000003 0.000000 0.999999 0.000000 -1.000002 0.000000 0.000000 3023.dat
0 STEP
1 0 80.980270 -110.001000 -53.995720 -1.000003 0.000000 0.000000 0.000000 0.999999 0.000000 0.000000 0.000000 -1.000002 2780.dat
1 0 -19.019600 -110.000900 -53.992600 1.000003 0.000000 0.000000 0.000000 0.999999 0.000000 0.000000 0.000000 1.000002 2780.dat
0 STEP
1 4 90.980350 -110.001000 -53.995720 -1.000003 0.000000 0.000000 0.000000 -0.999999 0.000000 0.000000 0.000000 1.000002 32034.dat
1 4 -29.017370 -110.000900 -53.996440 -0.999997 0.000000 0.000000 0.000000 -0.999999 0.000000 0.000000 0.000000 0.999996 32034.dat
0 STEP
1 0 -39.019970 -54.001020 -193.996100 -1.000001 0.000000 0.000000 0.000000 1.000000 0.000000 0.000000 0.000000 -1.000000 2780.dat
1 0 120.980300 -54.001020 -193.996100 -1.000001 0.000000 0.000000 0.000000 1.000000 0.000000 0.000000 0.000000 -1.000000 2780.dat
0 STEP
1 1 -49.019820 -64.001010 -273.996300 0.000001 0.000000 1.000001 0.000000 1.000000 0.000000 -1.000000 0.000000 0.000001 3895.dat
1 1 130.980200 -64.001010 -273.996300 0.000000 0.000000 1.000001 0.000000 1.000000 0.000000 -1.000000 0.000000 0.000000 3895.dat
0 STEP
1 15 130.980200 -88.000980 -173.996200 0.000000 0.000000 -1.000003 0.000000 0.999999 0.000000 1.000002 0.000000 0.000000 32064a.dat
1 15 -49.019910 -88.001010 -173.996300 0.000000 0.000000 -1.000000 0.000000 1.000000 0.000000 1.000000 0.000000 0.000000 32064a.dat
0 STEP
1 15 -71.000000 -52.983000 -214.000000 0.000000 0.000000 1.000000 0.000000 1.000000 0.000000 -1.000000 0.000000 0.000000 xpj0116.dat.dat
1 71 37.060400 -54.003860 -213.996200 -0.000001 0.000000 1.000001 0.000000 1.000000 0.000000 -1.000001 0.000000 -0.000001 59443.dat
1 71 -69.759940 -54.001020 -213.996200 0.000001 0.000000 -1.000001 0.000000 1.000000 0.000000 1.000000 0.000000 0.000001 3713.dat
1 0 -42.939840 -54.001030 -213.996200 -1.000000 0.000000 0.000000 0.000000 1.000000 0.000000 0.000000 0.000000 -1.000000 3707.dat
0 STEP
1 0 -111.188600 -54.001030 -213.994100 0.000000 0.000000 -0.999997 0.000000 -1.000000 0.000000 -0.999997 0.000000 0.000000 44309.dat
1 71 -111.189600 -54.001030 -213.996200 0.000000 0.000000 -1.000004 -1.000000 0.000000 0.000000 0.000000 1.000004 0.000000 56145.dat
1 14 -85.329980 -54.001020 -213.996200 0.000000 0.000000 -1.000001 0.000000 -1.000000 0.000000 -1.000000 0.000000 0.000000 32123a.dat
0 STEP
1 71 92.990250 -54.001020 -213.996200 0.000001 0.000000 -1.000001 0.000000 1.000000 0.000000 1.000001 0.000000 0.000001 3650c.dat
1 0 114.400300 -54.000980 -213.996200 -1.000000 0.000000 0.000000 0.000000 1.000000 0.000000 0.000000 0.000000 -1.000000 3706.dat
0 STEP
1 14 144.900300 -54.001000 -213.996200 0.000001 0.000000 1.000001 0.000000 1.000000 0.000000 -1.000000 0.000000 0.000001 32123a.dat
1 0 170.548000 -54.001040 -213.998100 0.000000 0.000000 1.000001 0.000000 -1.000000 0.000000 1.000000 0.000000 0.000000 44309.dat
1 71 170.550500 -54.000980 -213.996200 0.000000 0.000000 1.000005 -1.000000 0.000000 0.000000 0.000000 -1.000004 0.000000 56145.dat
0 STEP
1 0 41.910270 -54.001030 -373.996500 1.000000 0.000000 0.000000 0.000000 1.000000 0.000000 0.000000 0.000000 1.000000 3708.dat
1 0 60.130300 -54.001030 -373.995400 1.000000 0.000000 0.000000 0.000000 1.000000 0.000000 0.000000 0.000000 1.000000 6536.dat
1 71 104.440400 -54.001020 -373.995400 -0.000001 0.000000 1.000000 -1.000000 0.000000 -0.000001 0.000000 -1.000000 0.000000 94925.dat
1 4 80.230340 -74.001010 -373.996500 1.000000 0.000000 0.000000 0.000000 -1.000000 0.000000 0.000000 0.000000 -1.000000 42003.dat
0 STEP
1 71 -25.999840 -54.001020 -373.995400 -0.000001 0.000000 1.000000 -1.000000 0.000000 -0.000001 0.000000 -1.000000 0.000000 94925.dat
1 4 0.490170 -74.001010 -373.996500 1.000000 0.000000 0.000000 0.000000 -1.000000 0.000000 0.000000 0.000000 -1.000000 42003.dat
1 0 21.160210 -54.001030 -373.995400 1.000000 0.000000 0.000000 0.000000 1.000000 0.000000 0.000000 0.000000 1.000000 6536.dat
0 STEP
1 71 150.980300 -54.001030 -373.995400 -0.000001 0.000000 1.000000 0.000000 1.000000 0.000000 -1.000000 0.000000 -0.000001 3713.dat
1 71 -70.339760 -54.001030 -373.995400 -0.000001 0.000000 1.000001 0.000000 1.000000 0.000000 -1.000000 0.000000 -0.000001 3713.dat
0 STEP
1 1 39.500350 -74.001010 -353.026300 -1.000000 0.000000 0.000000 0.000000 0.000000 -1.000000 0.000000 -1.000000 0.000000 32001.dat
1 0 79.500420 -74.001010 -363.996500 0.000000 0.000000 1.000000 0.000000 1.000000 0.000000 -1.000000 0.000000 0.000000 2780.dat
1 0 0.490290 -74.001010 -363.996500 0.000000 0.000000 1.000000 0.000000 1.000000 0.000000 -1.000000 0.000000 0.000000 2780.dat
0 STEP
1 0 21.160460 -34.001040 -383.995400 0.000000 0.000000 1.000000 0.000000 1.000000 0.000000 -1.000000 0.000000 0.000000 2780.dat
1 0 60.130420 -34.001040 -383.995400 0.000000 0.000000 1.000000 0.000000 1.000000 0.000000 -1.000000 0.000000 0.000000 2780.dat
0 STEP
1 1 40.130360 -34.001040 -395.295500 -1.000000 0.000000 0.000000 0.000000 0.000000 1.000000 0.000000 1.000000 0.000000 32001.dat
0 STEP
1 1 -49.019820 -88.001010 -333.995300 0.000000 0.000000 -1.000000 0.000000 1.000000 0.000000 1.000000 0.000000 0.000000 3701.dat
1 15 130.980200 -112.001000 -363.995500 -1.000003 0.000000 0.000000 0.000000 0.999999 0.000000 0.000000 0.000000 -1.000002 3040b.dat
1 1 130.980200 -88.001010 -333.995300 0.000000 0.000000 -1.000000 0.000000 1.000000 0.000000 1.000000 0.000000 0.000000 3701.dat
1 15 -49.019820 -112.001000 -363.995400 -1.000003 0.000000 0.000000 0.000000 0.999999 0.000000 0.000000 0.000000 -1.000002 3040b.dat
1 15 -49.019820 -112.001000 -303.995200 1.000003 0.000000 0.000000 0.000000 0.999999 0.000000 0.000000 0.000000 1.000002 3040b.dat
1 15 130.980200 -112.001000 -303.995200 1.000003 0.000000 0.000000 0.000000 0.999999 0.000000 0.000000 0.000000 1.000002 3040b.dat
0 STEP
1 1 -49.019820 -120.001000 -333.995400 0.000000 0.000000 1.000003 0.000000 0.999999 0.000000 -1.000002 0.000000 0.000000 3710.dat
1 1 130.980200 -120.001000 -333.995300 0.000000 0.000000 1.000003 0.000000 0.999999 0.000000 -1.000002 0.000000 0.000000 3710.dat
0 STEP
1 15 130.980200 -144.000900 -333.995400 0.000000 0.000000 -1.000003 0.000000 0.999999 0.000000 1.000002 0.000000 0.000000 32064a.dat
1 15 -49.019940 -144.000900 -333.995500 0.000000 0.000000 -1.000003 0.000000 0.999999 0.000000 1.000002 0.000000 0.000000 32064a.dat
0 STEP
0 STEP
0 NOFILE
0 FILE SubModel Group 9 Copy Copy Copy
0 SubModel Group 9 Copy Copy Copy
0 Name:  SubModel Group 9 Copy Copy Copy
0 Author:  
0 CustomBrick
0 NumOfBricks:  3
1 72 10.000000 -1.128810 -10.000000 1.000000 0.000000 0.000000 0.000000 0.000000 -1.000000 0.000000 1.000000 0.000000 dch003.dat
1 71 -27.466620 -79.717990 29.427020 1.000000 0.000000 0.000000 0.000000 0.000000 -1.000000 0.000000 1.000000 0.000000 dch004.dat
1 25 7.837010 13.484720 -9.965000 1.000000 0.000000 0.000000 0.000000 0.000000 -1.000000 0.000000 1.000000 0.000000 dch005.dat
0 NOFILE
