0 Untitled Model
0 Name:  跷跷板
0 Author:  
0 CustomBrick
0 NumOfBricks:  44
1 1 -39.999880 -23.999970 10.000980 1.000000 0.000000 0.000000 0.000000 1.000000 0.000000 0.000000 0.000000 1.000000 3703.dat
1 0 -120.000200 -13.999970 0.000980 0.000000 0.000000 -1.000003 0.000000 1.000000 0.000000 1.000003 0.000000 0.000000 2780.dat
1 0 40.000370 -13.999820 0.000850 0.000000 0.000000 -1.000003 0.000000 1.000000 0.000000 1.000003 0.000000 0.000000 2780.dat
0 STEP
1 4 40.000300 -13.999820 -19.999630 0.000000 0.000000 1.000003 0.000000 1.000000 0.000000 -1.000003 0.000000 0.000000 62462.dat
1 4 -120.000200 -13.999950 -19.998900 0.000000 0.000000 1.000000 0.000000 1.000000 0.000000 -1.000000 0.000000 0.000000 62462.dat
0 STEP
1 1 -40.000000 -24.000000 -50.000000 1.000000 0.000000 0.000000 0.000000 1.000000 0.000000 0.000000 0.000000 1.000000 3703.dat
1 0 40.000300 -13.999810 -40.000120 0.000000 0.000000 -1.000003 0.000000 1.000000 0.000000 1.000003 0.000000 0.000000 2780.dat
1 0 -120.000300 -13.999970 -40.000000 0.000000 0.000000 -1.000003 0.000000 1.000000 0.000000 1.000003 0.000000 0.000000 2780.dat
0 STEP
1 1 -140.000000 -32.000000 -20.000000 0.000000 0.000000 1.000000 0.000000 1.000000 0.000000 -1.000000 0.000000 0.000000 3709b.dat
1 1 -180.000000 -32.000000 -20.000000 0.000000 0.000000 1.000000 0.000000 1.000000 0.000000 -1.000000 0.000000 0.000000 3709b.dat
1 15 -160.000000 -56.000000 -20.000000 1.000000 0.000000 0.000000 0.000000 1.000000 0.000000 0.000000 0.000000 1.000000 3941.dat
0 STEP
1 1 60.000000 -32.000000 -20.000000 0.000000 0.000000 1.000000 0.000000 1.000000 0.000000 -1.000000 0.000000 0.000000 3709b.dat
1 1 100.000000 -32.000000 -20.000000 0.000000 0.000000 1.000000 0.000000 1.000000 0.000000 -1.000000 0.000000 0.000000 3709b.dat
1 15 80.000000 -56.000000 -20.000000 1.000000 0.000000 0.000000 0.000000 1.000000 0.000000 0.000000 0.000000 1.000000 3941.dat
0 STEP
1 0 -59.999880 -13.999960 -59.998900 0.000000 0.000000 -1.000000 0.000000 1.000000 0.000000 1.000000 0.000000 0.000000 2780.dat
1 0 -39.999880 -13.999960 -59.998900 0.000000 0.000000 -1.000000 0.000000 1.000000 0.000000 1.000000 0.000000 0.000000 2780.dat
0 STEP
1 1 -40.000000 -74.000000 30.000820 -1.000003 0.000001 0.000001 0.000001 0.000001 1.000000 0.000001 1.000003 -0.000001 32140.dat
1 0 -59.999880 -13.999960 20.000980 0.000000 0.000000 -1.000003 0.000000 1.000000 0.000000 1.000003 0.000000 0.000000 2780.dat
1 0 -40.000000 -13.999960 20.000980 0.000000 0.000000 -1.000003 0.000000 1.000000 0.000000 1.000003 0.000000 0.000000 2780.dat
0 STEP
1 15 -40.000000 -93.999980 10.000980 1.000003 -0.000001 0.000001 -0.000001 -0.000001 1.000000 -0.000001 -1.000003 -0.000001 32524.dat
1 0 -40.000000 -54.000000 20.000980 0.000000 0.000000 -1.000003 0.000000 1.000000 0.000000 1.000003 0.000000 0.000000 2780.dat
1 19 -40.000000 -74.000010 20.000980 -0.000001 1.000003 -0.000001 0.000001 0.000001 1.000000 1.000003 0.000001 -0.000001 3749.dat
0 STEP
1 15 -40.000520 -134.000000 -9.999120 0.000001 0.000001 -0.999999 -1.000000 0.000001 -0.000001 0.000001 0.999999 0.000001 64871.dat
1 71 -40.000280 -134.000000 0.001800 0.000000 0.000000 -1.000002 0.000000 1.000000 0.000000 1.000001 0.000000 0.000000 3673.dat
0 STEP
1 0 -180.000600 -134.000200 0.000950 0.000000 0.000000 -0.999999 0.000000 1.000000 0.000000 0.999999 0.000000 0.000000 2780.dat
1 0 99.999610 -133.999900 0.000700 0.000000 0.000000 -0.999999 0.000000 1.000000 0.000000 0.999999 0.000000 0.000000 2780.dat
1 19 -140.000700 -134.000100 0.000950 -0.000001 0.999999 -0.000001 0.000001 0.000001 1.000000 0.999999 0.000001 -0.000001 3749.dat
1 19 59.999240 -133.999900 0.000820 -0.000001 0.999999 -0.000001 0.000001 0.000001 1.000000 0.999999 0.000001 -0.000001 3749.dat
0 STEP
1 1 59.999300 -133.999900 10.000700 0.000001 0.000001 0.999999 -1.000000 0.000001 0.000001 -0.000001 -0.999999 0.000001 32140.dat
1 1 -140.000800 -134.000200 10.000950 -0.000001 -0.000001 -0.999999 -1.000000 0.000001 0.000001 0.000001 0.999999 -0.000001 32140.dat
0 STEP
1 0 -120.000400 -134.000200 -19.999430 0.000000 0.000000 -1.000000 0.000000 1.000000 0.000000 1.000000 0.000000 0.000000 2780.dat
1 0 39.999480 -133.999900 -19.999140 0.000000 0.000000 -1.000000 0.000000 1.000000 0.000000 1.000000 0.000000 0.000000 2780.dat
1 15 -40.000460 -134.000100 -29.999510 0.000001 0.000001 -0.999999 -1.000000 0.000001 -0.000001 0.000001 0.999999 0.000001 64871.dat
0 STEP
1 71 -40.000060 -134.000000 -39.998720 0.000000 0.000000 -1.000000 0.000000 1.000000 0.000000 1.000000 0.000000 0.000000 3673.dat
1 0 -180.000500 -134.000200 -39.999390 0.000000 0.000000 -0.999999 0.000000 1.000000 0.000000 0.999999 0.000000 0.000000 2780.dat
1 0 99.999660 -133.999900 -39.999510 0.000000 0.000000 -0.999999 0.000000 1.000000 0.000000 0.999999 0.000000 0.000000 2780.dat
1 19 -140.000600 -134.000200 -39.999330 -0.000001 0.999999 -0.000001 -0.000001 -0.000001 -1.000000 -0.999999 -0.000001 0.000001 3749.dat
1 19 59.999360 -133.999900 -39.999390 -0.000001 0.999999 -0.000001 -0.000001 -0.000001 -1.000000 -0.999999 -0.000001 0.000001 3749.dat
0 STEP
1 15 -40.000000 -94.000030 -49.998780 1.000000 -0.000001 0.000001 -0.000001 -0.000001 1.000000 -0.000001 -1.000000 -0.000001 32524.dat
1 0 -39.999940 -54.000000 -59.998900 0.000000 0.000000 -1.000000 0.000000 1.000000 0.000000 1.000000 0.000000 0.000000 2780.dat
1 19 -40.000000 -74.000030 -59.998900 0.000001 -1.000000 0.000001 0.000001 0.000001 1.000000 -1.000000 -0.000001 0.000001 3749.dat
0 STEP
1 1 -39.999940 -74.000000 -69.998900 -1.000000 0.000001 0.000001 0.000001 0.000001 1.000000 0.000001 1.000000 -0.000001 32140.dat
0 STEP
1 1 -140.000600 -134.000200 -49.999280 -0.000001 -0.000001 -0.999999 -1.000000 0.000001 0.000001 0.000001 0.999999 -0.000001 32140.dat
1 1 59.999360 -133.999900 -49.999450 0.000001 0.000001 0.999999 -1.000000 0.000001 0.000001 -0.000001 -0.999999 0.000001 32140.dat
0 STEP
0 STEP
