0 Untitled Model
0 Name:  脚踏车
0 Author:  
0 CustomBrick
0 NumOfBricks:  23
1 1 107.922600 -160.857800 -94.549760 0.000000 -0.866022 0.500006 0.000000 0.500006 0.866021 -1.000000 0.000000 0.000001 6558.dat
1 1 159.884000 -190.858300 -94.549750 -0.866022 0.000000 -0.500006 0.500006 -0.000001 -0.866022 0.000000 -1.000000 0.000000 32009.dat
1 71 90.602180 -150.857600 -95.649810 0.000000 0.500006 -0.866022 0.000001 0.866021 0.500006 1.000000 0.000000 0.000000 4519.dat
0 STEP
1 1 50.961580 -139.517500 -74.549740 -0.866022 0.500007 0.000000 0.500007 0.866021 0.000000 0.000001 0.000000 -1.000000 3702.dat
1 1 55.961330 -130.857400 -94.549640 0.000000 -0.866022 0.500006 -0.000001 0.500006 0.866021 -1.000000 0.000000 0.000000 6558.dat
0 STEP
1 1 50.961330 -139.517600 -114.549800 -0.866022 0.500006 0.000000 0.500006 0.866021 -0.000001 0.000000 0.000000 -1.000000 3702.dat
1 1 50.961580 -139.517500 -94.549640 -0.866022 0.500006 0.000000 0.500006 0.866021 -0.000001 0.000000 0.000000 -1.000000 3700.dat
0 STEP
1 71 4.000010 -100.856900 -94.649990 -0.866022 -0.500006 0.000000 0.500006 -0.866021 0.000000 0.000000 0.000000 1.000000 4185.dat
1 71 4.000030 -100.856900 -53.999750 -0.866022 -0.000001 0.500007 0.500007 0.000000 0.866021 -0.000001 1.000000 0.000001 60483.dat
1 71 4.000000 -100.856900 -134.000000 0.866022 0.000002 -0.500007 -0.500007 0.000001 -0.866021 -0.000002 1.000000 0.000001 60483.dat
1 71 4.000010 -100.856900 -93.999900 0.000000 -0.866022 -0.500006 0.000001 0.500006 -0.866021 1.000000 0.000000 0.000000 32073.dat
0 STEP
1 19 -6.000000 -118.177200 -144.000000 0.000000 -0.500007 -0.866021 0.000001 -0.866021 0.500007 -1.000000 -0.000001 0.000001 3749.dat
1 19 13.999720 -83.536570 -43.998460 0.000001 -0.866023 -0.500006 -0.000001 0.500005 -0.866024 1.000003 0.000001 -0.000001 3749.dat
0 STEP
1 4 179.884200 -156.217400 -135.190000 0.000001 -1.000000 0.000000 0.000000 0.000001 1.000000 -1.000001 -0.000001 0.000001 32054.dat
1 4 179.884300 -156.217300 -53.919660 -0.000001 1.000000 -0.000002 0.000002 0.000001 1.000000 1.000001 0.000001 -0.000001 32054.dat
1 71 179.884300 -156.217400 -94.189890 0.000000 -1.000000 -0.000001 -0.000001 0.000000 1.000000 -1.000001 0.000000 0.000000 4519.dat
0 STEP
1 71 229.884900 -69.615180 -49.329500 -0.000001 1.000000 0.000000 1.000000 0.000000 -0.000001 0.000000 0.000000 -1.000001 4185.dat
1 71 229.884700 -69.615200 -64.179530 -1.000000 -0.000001 -0.000001 0.000000 1.000000 -0.000001 0.000001 0.000000 -1.000001 3713.dat
1 14 229.884900 -69.615190 -79.749440 -0.000001 1.000000 0.000000 1.000000 0.000000 -0.000001 0.000000 0.000000 -1.000001 32123a.dat
1 71 229.884700 -69.615220 -94.709670 0.000000 -0.000001 1.000000 -0.000001 1.000000 0.000000 -1.000001 0.000000 0.000000 32073.dat
0 STEP
1 71 229.884800 -69.615250 -139.709800 -0.000001 1.000000 0.000000 1.000000 0.000000 -0.000001 0.000000 0.000000 -1.000001 4185.dat
1 71 229.884700 -69.615240 -124.679700 1.000000 -0.000001 0.000001 0.000000 1.000000 0.000001 -0.000001 0.000000 1.000001 3713.dat
1 14 229.884900 -69.615240 -109.999500 -0.000001 1.000000 0.000000 1.000000 0.000000 -0.000001 0.000000 0.000000 -1.000001 32123a.dat
0 STEP
0 STEP
