0 Untitled Model
0 Name:  小狗脚踏板车
0 Author:  
0 CustomBrick
0 NumOfBricks:  47
1 1 10.000300 -40.000110 -17.000000 0.000000 0.000000 1.000000 0.000000 1.000000 0.000000 -1.000000 0.000000 0.000000 3700.dat
1 1 40.000340 -16.000110 -16.999940 -1.000000 0.000000 0.000000 0.000000 1.000000 0.000000 0.000000 0.000000 -1.000000 3709b.dat
0 STEP
1 1 60.000340 -24.000100 -16.999940 -0.999999 0.000000 0.000000 0.000000 1.000000 0.000000 0.000000 0.000000 -0.999999 3709b.dat
1 1 90.000190 -16.000110 -17.000000 0.000000 0.000000 0.999999 0.000000 1.000000 0.000000 -0.999999 0.000000 0.000000 3023.dat
0 STEP
1 1 119.999900 -48.000110 -6.999970 1.000000 0.000000 0.000000 0.000000 1.000000 0.000000 0.000000 0.000000 1.000000 3701.dat
1 1 120.000000 -48.000110 -27.000000 1.000000 0.000000 0.000000 0.000000 1.000000 0.000000 0.000000 0.000000 1.000000 3701.dat
0 STEP
1 71 140.000000 -38.000110 -47.000060 0.999999 0.000000 0.000001 0.000000 1.000000 0.000000 -0.000001 0.000000 0.999999 3713.dat
1 0 140.000000 -38.000110 -15.000130 0.000000 0.000000 0.999998 0.000000 1.000000 0.000000 -0.999998 0.000000 0.000000 3707.dat
1 0 140.000000 -38.000110 -77.000000 -0.999999 0.000000 0.000000 0.000000 -1.000000 0.000000 0.000000 0.000000 0.999999 30391.dat
1 71 140.000000 -38.000110 -77.000000 0.000000 0.999999 0.000000 -1.000000 0.000000 0.000000 0.000000 0.000000 0.999999 55982.dat
0 STEP
1 71 140.000000 -38.000110 12.999780 0.999999 0.000000 0.000001 0.000000 1.000000 0.000000 -0.000001 0.000000 0.999999 3713.dat
1 0 140.000900 -38.000250 42.999320 0.000000 0.999999 0.000000 1.000000 0.000000 0.000001 0.000001 0.000000 -0.999999 30391.dat
1 71 140.000000 -38.000120 42.999740 1.000000 0.000000 0.000000 0.000000 -1.000002 0.000001 0.000000 -0.000001 -0.999999 55982.dat
0 STEP
1 1 60.000220 -56.000100 -17.000000 -1.000000 0.000000 0.000000 0.000000 1.000000 0.000000 0.000000 0.000000 -1.000000 3709b.dat
1 1 20.001140 -48.000110 -26.999150 0.999998 0.000000 0.000000 0.000000 1.000000 0.000000 0.000000 0.000000 0.999998 3023.dat
1 1 20.000290 -48.000110 -7.000040 1.000000 0.000000 0.000000 0.000000 1.000000 0.000000 0.000000 0.000000 1.000000 3023.dat
0 STEP
1 1 10.000300 -72.000100 -17.000000 0.000000 0.000000 0.999999 0.000000 1.000000 0.000000 -0.999999 0.000000 0.000000 3700.dat
1 15 60.000220 -64.000100 -6.999970 -1.000000 0.000000 0.000000 0.000000 1.000000 0.000000 0.000000 0.000000 -1.000000 2431.dat
1 15 60.000220 -64.000100 -27.000000 -1.000000 0.000000 0.000000 0.000000 1.000000 0.000000 0.000000 0.000000 -1.000000 2431.dat
0 STEP
1 1 -9.999579 -40.000110 -16.999820 0.000000 0.000000 0.999999 0.000000 1.000000 0.000000 -0.999999 0.000000 0.000000 3700.dat
1 0 0.000420 -30.000110 -16.999820 -0.999999 0.000000 0.000000 0.000000 1.000000 0.000000 0.000000 0.000000 -0.999999 2780.dat
0 STEP
1 1 -39.999520 -16.000110 -16.999820 -0.999999 0.000000 0.000000 0.000000 1.000000 0.000000 0.000000 0.000000 -0.999999 3709b.dat
1 1 -59.999480 -24.000110 -16.999820 -0.999999 0.000000 0.000000 0.000000 1.000000 0.000000 0.000000 0.000000 -0.999999 3709b.dat
0 STEP
1 1 -59.999480 -48.000110 -6.999850 0.999999 0.000000 0.000000 0.000000 1.000000 0.000000 0.000000 0.000000 0.999999 3701.dat
1 1 -59.999480 -48.000110 -26.999820 0.999999 0.000000 0.000000 0.000000 1.000000 0.000000 0.000000 0.000000 0.999999 3701.dat
0 STEP
1 71 -79.999560 -38.000100 -62.039860 0.000000 0.999998 0.000000 1.000005 0.000000 0.000001 0.000001 0.000000 -0.999999 4185.dat
1 71 -79.999440 -38.000110 -46.999760 0.999999 0.000000 0.000001 0.000000 1.000000 0.000000 -0.000001 0.000000 0.999999 3713.dat
1 0 -79.999560 -38.000110 -16.999880 0.000000 0.000000 0.999999 0.000000 1.000000 0.000000 -0.999999 0.000000 0.000000 3706.dat
1 0 -80.000720 -38.000100 -62.035830 0.000000 0.999999 0.000000 -1.000000 0.000000 -0.000001 -0.000001 0.000000 0.999999 2815.dat
0 STEP
1 71 -79.999560 -38.000100 28.000010 0.000000 0.999999 0.000000 1.000000 0.000000 0.000001 0.000001 0.000000 -0.999999 4185.dat
1 71 -79.999440 -38.000110 13.000080 0.999999 0.000000 0.000001 0.000000 1.000000 0.000000 -0.000001 0.000000 0.999999 3713.dat
1 0 -79.997120 -38.000020 28.000440 0.000000 0.999999 0.000000 -1.000000 0.000000 -0.000001 -0.000001 0.000000 0.999999 2815.dat
0 STEP
1 15 -9.999579 -64.000100 -26.999820 0.999999 0.000000 0.000000 0.000000 1.000000 0.000000 0.000000 0.000000 0.999999 3040b.dat
1 15 -9.999579 -64.000100 -6.999850 -0.999999 0.000000 0.000000 0.000000 1.000000 0.000000 0.000000 0.000000 -0.999999 3040b.dat
0 STEP
1 1 -9.999770 -96.000110 -16.999940 0.000000 0.000000 0.999999 0.000000 1.000000 0.000000 -0.999999 0.000000 0.000000 3700.dat
1 1 -9.999770 -72.000100 -16.999820 0.000000 0.000000 0.999999 0.000000 1.000000 0.000000 -0.999999 0.000000 0.000000 3023.dat
0 STEP
1 15 -29.999700 -96.000140 -17.000060 0.000000 0.000000 0.999999 0.000000 1.000000 0.000000 -0.999999 0.000000 0.000000 32064a.dat
1 19 -19.999700 -86.000110 -17.000060 -0.999999 -0.000001 0.000001 -0.000001 -0.000001 -1.000000 0.000001 -0.999999 0.000001 3749.dat
0 STEP
1 15 -9.999770 -120.000100 -37.000000 0.000000 0.000000 0.999999 0.000000 1.000000 0.000000 -0.999999 0.000000 0.000000 32064a.dat
1 15 -9.999770 -120.000100 3.000150 0.000001 0.000000 0.999999 0.000000 1.000000 0.000000 -0.999999 0.000000 0.000001 32064a.dat
1 19 -19.999700 -110.000100 -37.000000 0.999999 0.000001 -0.000001 0.000001 0.000001 1.000000 0.000001 -0.999999 0.000001 3749.dat
1 19 -21.879640 -110.000100 3.000150 0.999999 0.000001 -0.000001 0.000001 0.000001 1.000000 0.000001 -0.999999 0.000001 3749.dat
0 STEP
1 15 -9.999770 -144.000100 -6.999850 -0.999999 0.000000 0.000001 0.000000 1.000000 0.000000 -0.000001 0.000000 -0.999999 3040b.dat
1 15 -9.999770 -144.000100 -27.000060 0.999999 0.000000 0.000000 0.000000 1.000000 0.000000 0.000000 0.000000 0.999999 3040b.dat
0 STEP
1 1 -9.999770 -152.000100 22.999960 0.000000 0.000000 0.999999 0.000000 1.000000 0.000000 -0.999999 0.000000 0.000000 3710.dat
1 1 -9.999770 -152.000100 -57.000000 0.000000 0.000000 0.999999 0.000000 1.000000 0.000000 -0.999999 0.000000 0.000000 3710.dat
1 15 -9.999579 -176.000100 -17.000060 0.000001 0.000000 0.999999 0.000000 1.000000 0.000000 -0.999999 0.000000 0.000001 32064a.dat
0 STEP
0 STEP
