0 Untitled Model
0 Name:  尖头车
0 Author:  
0 CustomBrick
0 NumOfBricks:  86
1 1 -65.999910 -48.000040 31.000240 1.000002 0.000000 0.000000 0.000000 1.000000 0.000000 0.000000 0.000000 1.000002 3703.dat
1 1 -206.000000 -24.000040 -19.000000 0.000000 0.000000 1.000000 0.000000 1.000000 0.000000 -1.000000 0.000000 0.000000 32001.dat
0 STEP
1 1 -66.000400 -48.000040 -69.000080 1.000002 0.000000 0.000000 0.000000 1.000000 0.000000 0.000000 0.000000 1.000002 3703.dat
1 0 -146.001800 -38.000050 -59.000040 0.000000 0.000000 -1.000005 0.000000 1.000000 0.000000 1.000005 0.000000 0.000000 2780.dat
1 0 -166.000700 -38.000050 -58.999980 0.000000 0.000000 -1.000002 0.000000 1.000000 0.000000 1.000002 0.000000 0.000000 2780.dat
0 STEP
1 1 -166.001900 -98.000040 -49.000100 1.000002 -0.000001 -0.000001 0.000001 0.000001 1.000000 -0.000001 -1.000003 0.000001 32140.dat
1 0 -166.001900 -58.000000 -59.000160 0.000000 -1.000002 0.000000 0.000000 0.000000 1.000000 -1.000003 0.000000 0.000000 2780.dat
1 0 -166.001900 -78.000060 -59.000100 0.000000 -1.000002 0.000000 0.000000 0.000000 1.000000 -1.000003 0.000000 0.000000 2780.dat
0 STEP
1 0 -146.000100 -38.000050 21.000200 0.000000 0.000000 -1.000003 0.000000 1.000000 0.000000 1.000003 0.000000 0.000000 2780.dat
1 0 -166.000300 -38.000050 21.000200 0.000000 0.000000 -1.000003 0.000000 1.000000 0.000000 1.000003 0.000000 0.000000 2780.dat
0 STEP
1 1 -166.000200 -98.000060 10.999940 1.000002 -0.000001 -0.000001 0.000001 0.000001 1.000000 -0.000001 -1.000003 0.000001 32140.dat
1 0 -166.000200 -78.000040 21.000140 0.000000 -1.000002 0.000000 0.000000 0.000000 1.000000 -1.000003 0.000000 0.000000 2780.dat
1 0 -166.000200 -58.000000 21.000100 0.000000 -1.000002 0.000000 0.000000 0.000000 1.000000 -1.000003 0.000000 0.000000 2780.dat
0 STEP
1 1 -206.000900 -56.000040 -19.000090 0.000000 0.000000 1.000002 0.000000 1.000000 0.000000 -1.000003 0.000000 0.000000 32001.dat
0 STEP
1 0 33.998610 -38.000050 -59.000720 0.000000 0.000000 -1.000005 0.000000 1.000000 0.000000 1.000005 0.000000 0.000000 2780.dat
1 0 13.999760 -38.000050 -59.000040 0.000000 0.000000 -1.000002 0.000000 1.000000 0.000000 1.000002 0.000000 0.000000 2780.dat
1 0 14.000250 -38.000050 21.000200 0.000000 0.000000 -1.000002 0.000000 1.000000 0.000000 1.000002 0.000000 0.000000 2780.dat
1 0 33.999340 -37.999860 21.000290 0.000000 0.000000 -1.000004 0.000000 1.000000 0.000000 1.000004 0.000000 0.000000 2780.dat
0 STEP
1 1 33.999220 -97.999840 11.000140 -1.000002 0.000001 0.000001 0.000001 0.000001 1.000000 0.000001 1.000003 -0.000001 32140.dat
1 0 33.999400 -57.999870 21.000220 0.000000 -1.000002 0.000000 0.000000 0.000000 1.000000 -1.000003 0.000000 0.000000 2780.dat
1 0 33.999220 -77.999860 21.000260 0.000000 -1.000002 0.000000 0.000000 0.000000 1.000000 -1.000003 0.000000 0.000000 2780.dat
0 STEP
1 1 33.999770 -98.000060 -48.999980 -1.000002 0.000001 0.000001 0.000001 0.000001 1.000000 0.000001 1.000002 -0.000001 32140.dat
1 0 33.999770 -78.000040 -58.999980 0.000000 -1.000002 0.000000 0.000000 0.000000 1.000000 -1.000003 0.000000 0.000000 2780.dat
1 0 33.999770 -58.000040 -59.001080 0.000000 -1.000002 0.000000 0.000000 0.000000 1.000000 -1.000003 0.000000 0.000000 2780.dat
0 STEP
1 1 73.999920 -56.000040 -19.000030 0.000000 0.000000 1.000002 0.000000 1.000000 0.000000 -1.000002 0.000000 0.000000 32001.dat
1 1 74.000400 -24.000040 -19.000030 0.000000 0.000000 1.000002 0.000000 1.000000 0.000000 -1.000002 0.000000 0.000000 32001.dat
0 STEP
1 71 74.000140 -38.000050 -89.000430 1.000002 0.000000 0.000001 0.000000 1.000000 0.000000 -0.000001 0.000000 1.000003 3713.dat
1 71 74.000170 -38.000050 50.999960 -1.000002 0.000000 -0.000001 0.000000 1.000000 0.000000 0.000001 0.000000 -1.000003 3713.dat
1 0 74.000140 -38.000050 -19.000400 0.000000 0.000000 1.000003 0.000000 1.000000 0.000000 -1.000003 0.000000 0.000000 3737.dat
0 STEP
1 0 74.000140 -38.000040 -119.257200 0.000000 1.000002 0.000000 -1.000000 0.000000 -0.000001 -0.000001 0.000000 1.000003 30391.dat
1 71 74.000140 -38.000050 -119.000500 1.000002 0.000000 0.000000 0.000000 1.000000 0.000000 0.000000 0.000000 1.000003 55982.dat
1 0 74.000770 -38.000020 81.256830 0.000000 -1.000002 0.000000 -1.000000 0.000000 -0.000001 0.000001 0.000000 -1.000003 30391.dat
1 71 74.000170 -38.000040 80.999980 -1.000006 0.000000 0.000000 0.000000 1.000003 0.000000 0.000000 0.000000 -1.000003 55982.dat
0 STEP
1 71 -206.000700 -38.000050 50.880320 -1.000002 0.000000 -0.000001 0.000000 1.000000 0.000000 0.000001 0.000000 -1.000003 3713.dat
1 71 -206.000700 -38.000050 -89.190080 1.000002 0.000000 0.000001 0.000000 1.000000 0.000000 -0.000001 0.000000 1.000003 3713.dat
1 0 -206.000700 -38.000040 -20.390050 0.000000 0.000000 1.000002 0.000000 1.000000 0.000000 -1.000003 0.000000 0.000000 3737.dat
0 STEP
1 0 -206.000700 -38.000040 -120.646800 0.000000 1.000002 0.000000 -1.000000 0.000000 -0.000001 -0.000001 0.000000 1.000003 30391.dat
1 71 -206.000700 -38.000040 -120.390100 1.000002 0.000000 0.000000 0.000000 1.000000 0.000000 0.000000 0.000000 1.000003 55982.dat
1 0 -205.999200 -38.000020 80.797040 0.000000 -1.000002 0.000000 -1.000000 0.000000 -0.000001 0.000001 0.000000 -1.000003 30391.dat
1 71 -206.000700 -38.000050 80.540360 -1.000006 0.000000 0.000000 0.000000 1.000003 0.000000 0.000000 0.000000 -1.000003 55982.dat
0 STEP
1 1 33.999640 -218.000100 -69.001360 0.000000 0.000000 1.000002 0.000000 1.000000 0.000000 -1.000003 0.000000 0.000000 6558.dat
1 15 33.999710 -138.000000 -69.001170 -1.000002 0.000001 -0.000001 0.000001 0.000001 -1.000000 -0.000001 -1.000002 -0.000001 40490.dat
0 STEP
1 15 -166.002000 -138.000100 -69.000220 -1.000003 0.000001 -0.000001 0.000001 0.000001 -1.000000 -0.000001 -1.000003 -0.000001 40490.dat
1 1 -166.002000 -218.000100 -69.000270 0.000000 0.000000 1.000002 0.000000 1.000000 0.000000 -1.000002 0.000000 0.000000 6558.dat
0 STEP
1 15 33.999580 -158.000000 -89.001360 0.000001 0.000001 -1.000002 -1.000000 0.000001 -0.000001 0.000001 1.000003 0.000001 32523.dat
1 0 13.999520 -158.000000 -79.001380 0.000000 0.000000 -1.000002 0.000000 1.000000 0.000000 1.000003 0.000000 0.000000 2780.dat
1 0 33.999580 -158.000000 -79.001240 0.000000 0.000000 -1.000002 0.000000 1.000000 0.000000 1.000003 0.000000 0.000000 2780.dat
0 STEP
1 1 13.999580 -218.000200 -69.001300 -1.000003 0.000000 0.000000 0.000000 0.000000 -1.000000 0.000000 -1.000003 0.000000 32009.dat
0 STEP
1 0 -26.000000 -218.000100 -79.000820 0.000000 0.000000 -1.000002 0.000000 1.000000 0.000000 1.000002 0.000000 0.000000 2780.dat
1 19 -66.000590 -218.000200 -79.001240 -0.000001 1.000002 -0.000001 0.000001 0.000001 1.000000 1.000003 0.000001 -0.000001 3749.dat
0 STEP
1 15 -66.000590 -218.000200 -89.001250 0.000001 0.000001 -1.000002 -1.000000 0.000001 -0.000001 0.000001 1.000003 0.000001 64871.dat
0 STEP
1 1 -156.002000 -198.000100 -49.000220 0.000000 -1.000002 0.000000 -1.000000 0.000000 0.000000 0.000000 0.000000 -1.000003 3701.dat
1 1 43.999680 -198.000000 -49.001320 0.000000 -1.000002 0.000000 -1.000000 0.000000 0.000000 0.000000 0.000000 -1.000003 3701.dat
1 1 -166.002000 -178.000100 -49.000280 0.000000 0.000000 -1.000002 0.000000 1.000000 0.000000 1.000003 0.000000 0.000000 6558.dat
1 1 33.999640 -178.000000 -49.001380 0.000000 0.000000 -1.000002 0.000000 1.000000 0.000000 1.000003 0.000000 0.000000 6558.dat
0 STEP
1 0 94.000240 -178.000000 -19.000160 0.000000 0.000000 -1.000000 0.000000 1.000000 0.000000 1.000000 0.000000 0.000000 2780.dat
1 0 -146.000200 -178.000000 -19.000590 0.000000 0.000000 -1.000002 0.000000 1.000000 0.000000 1.000002 0.000000 0.000000 2780.dat
1 1 -26.001710 -188.000100 -29.000240 1.000002 0.000000 0.000000 0.000000 1.000000 0.000000 0.000000 0.000000 1.000003 3703.dat
0 STEP
1 1 -26.000060 -188.000000 -9.000190 1.000002 0.000000 0.000000 0.000000 1.000000 0.000000 0.000000 0.000000 1.000003 3703.dat
0 STEP
1 1 -155.999900 -197.999800 10.999970 0.000000 -0.999998 0.000000 -0.999995 0.000000 0.000000 0.000000 0.000000 -1.000003 3701.dat
1 1 -166.000400 -178.000100 10.999850 0.000000 0.000000 1.000002 0.000000 1.000000 0.000000 -1.000003 0.000000 0.000000 6558.dat
1 1 43.999120 -197.999800 10.999940 0.000000 -1.000002 0.000000 -1.000000 0.000000 0.000000 0.000000 0.000000 -1.000003 3701.dat
1 1 33.999040 -177.999900 10.999940 0.000000 0.000000 1.000002 0.000000 1.000000 0.000000 -1.000003 0.000000 0.000000 6558.dat
0 STEP
1 15 -166.000300 -138.000100 31.000110 -1.000002 0.000001 -0.000001 0.000001 0.000001 -1.000000 -0.000001 -1.000002 -0.000001 40490.dat
1 15 33.999160 -137.999900 31.000240 -1.000002 0.000001 -0.000001 0.000001 0.000001 -1.000000 -0.000001 -1.000003 -0.000001 40490.dat
0 STEP
1 1 -166.000400 -218.000100 31.000020 0.000000 0.000000 1.000002 0.000000 1.000000 0.000000 -1.000003 0.000000 0.000000 6558.dat
0 STEP
1 0 33.999040 -157.999800 41.000250 0.000000 0.000000 -1.000003 0.000000 1.000000 0.000000 1.000003 0.000000 0.000000 2780.dat
1 1 33.999100 -217.999900 31.000140 0.000000 0.000000 1.000002 0.000000 1.000000 0.000000 -1.000002 0.000000 0.000000 6558.dat
0 STEP
1 15 33.999040 -157.999800 51.000260 0.000001 0.000001 -1.000002 -1.000000 0.000001 -0.000001 0.000001 1.000003 0.000001 32523.dat
1 1 13.998970 -218.000000 31.000180 -1.000002 0.000000 0.000000 0.000000 0.000000 -1.000000 0.000000 -1.000002 0.000000 32009.dat
1 0 13.998910 -157.999800 41.000220 0.000000 0.000000 -1.000003 0.000000 1.000000 0.000000 1.000003 0.000000 0.000000 2780.dat
0 STEP
1 0 -26.001410 -217.999900 41.000160 0.000000 0.000000 -1.000003 0.000000 1.000000 0.000000 1.000003 0.000000 0.000000 2780.dat
1 19 -66.001200 -218.000000 41.000250 0.000001 -1.000002 0.000001 0.000001 0.000001 1.000000 -1.000003 -0.000001 0.000001 3749.dat
0 STEP
1 15 -66.001140 -218.000000 51.000260 0.000001 0.000001 -1.000002 -1.000000 0.000001 -0.000001 0.000001 1.000003 0.000001 64871.dat
0 STEP
1 1 153.999200 -188.000100 -29.000360 -1.000003 0.000000 0.000000 0.000000 1.000000 0.000000 0.000000 0.000000 -1.000003 3700.dat
1 1 153.998800 -188.000100 -9.000070 -1.000002 0.000000 0.000000 0.000000 1.000000 0.000000 0.000000 0.000000 -1.000003 3700.dat
1 1 133.998700 -164.000000 -19.000210 1.000002 0.000000 0.000000 0.000000 1.000000 0.000000 0.000000 0.000000 1.000003 3738.dat
0 STEP
1 15 183.998700 -188.000100 -19.000210 0.000000 0.000000 1.000002 0.000000 1.000000 0.000000 -1.000003 0.000000 0.000000 32064a.dat
1 15 203.998800 -188.000100 -19.000150 0.000000 0.000000 1.000002 0.000000 1.000000 0.000000 -1.000003 0.000000 0.000000 32064a.dat
0 STEP
1 1 133.998800 -196.000100 -19.000090 1.000002 0.000000 0.000000 0.000000 1.000000 0.000000 0.000000 0.000000 1.000003 3738.dat
0 STEP
1 0 253.999100 -178.000100 -19.000210 -1.000002 0.000000 0.000000 0.000000 1.000000 0.000000 0.000000 0.000000 -1.000003 3707.dat
1 71 223.058700 -178.000100 -19.000210 -0.000001 0.000000 1.000002 0.000000 -1.000000 0.000000 1.000002 0.000000 0.000001 3650c.dat
0 STEP
1 19 243.999100 -178.000100 -19.000150 0.000000 0.000000 -1.000002 0.000000 -1.000000 0.000000 -1.000002 0.000000 0.000000 32269.dat
1 71 263.999100 -178.000100 -19.000210 -0.000001 0.000000 1.000002 1.000000 0.000000 0.000001 0.000000 1.000003 0.000000 94925.dat
0 STEP
1 72 303.999500 -178.000100 -19.000210 0.000000 0.000000 -1.000003 -1.000000 0.000000 0.000000 0.000000 1.000003 0.000000 3647.dat
1 0 283.999300 -178.000100 -19.000150 0.000000 0.000000 -1.000002 0.000000 -1.000000 0.000000 -1.000002 0.000000 0.000000 32270.dat
0 STEP
0 STEP
