0 Untitled Model
0 Name:  安全梯子
0 Author:  
0 CustomBrick
0 NumOfBricks:  80
1 19 -109.430200 -175.419900 -314.000200 -1.000000 -0.000001 0.000001 0.000001 0.000001 1.000000 -0.000001 1.000000 -0.000001 3749.dat
1 15 -99.430190 -155.419800 -314.000300 0.000001 1.000000 0.000001 -0.000001 -0.000001 1.000000 1.000000 -0.000001 0.000001 64871.dat
0 STEP
1 71 -129.430200 -175.422700 -314.000100 0.000001 0.000000 -1.000000 0.000000 1.000000 0.000000 1.000000 0.000000 0.000001 59443.dat
1 0 -169.430200 -175.419900 -314.000100 1.000000 0.000000 0.000000 0.000000 1.000000 0.000000 0.000000 0.000000 1.000000 3705.dat
1 71 -119.430100 -95.419640 -314.000200 -0.000001 0.000000 1.000000 0.000000 1.000000 0.000000 -1.000000 0.000000 -0.000001 3713.dat
1 0 -169.430100 -95.419700 -314.000200 1.000000 0.000000 0.000000 0.000000 1.000000 0.000000 0.000000 0.000000 1.000000 3707.dat
0 STEP
1 0 -109.430300 -295.419600 -314.000400 1.000000 0.000000 0.000000 0.000000 1.000000 0.000000 0.000000 0.000000 1.000000 2780.dat
1 4 -119.430300 -255.419800 -314.000400 1.000000 0.000001 -0.000001 0.000001 0.000001 1.000000 0.000001 -1.000000 0.000001 32054.dat
1 0 -169.430300 -255.419800 -314.000400 1.000000 0.000000 0.000000 0.000000 1.000000 0.000000 0.000000 0.000000 1.000000 3705.dat
1 15 -119.430300 -335.419600 -314.000400 -0.000001 -1.000000 -0.000001 -0.000001 -0.000001 1.000000 -1.000000 0.000001 -0.000001 40490.dat
0 STEP
1 4 -119.430100 -415.419500 -314.000300 1.000000 0.000001 -0.000001 0.000001 0.000001 1.000000 0.000001 -1.000000 0.000001 32054.dat
1 0 -169.430200 -415.419500 -314.000300 1.000000 0.000000 0.000000 0.000000 1.000000 0.000000 0.000000 0.000000 1.000000 3705.dat
0 STEP
1 19 -229.430300 -175.419900 -314.000200 1.000000 0.000001 -0.000001 0.000001 0.000001 1.000000 0.000001 -1.000000 0.000001 3749.dat
1 71 -219.430100 -95.419700 -314.000200 -0.000001 0.000000 1.000000 0.000000 1.000000 0.000000 -1.000000 0.000000 -0.000001 3713.dat
1 71 -209.430200 -175.422700 -314.000200 0.000001 0.000000 -1.000000 0.000000 1.000000 0.000000 1.000000 0.000000 0.000001 59443.dat
0 STEP
1 4 -219.430200 -415.419500 -314.000200 -1.000000 -0.000001 0.000001 0.000001 0.000001 1.000000 -0.000001 1.000000 -0.000001 32054.dat
1 4 -219.430200 -255.420100 -313.999900 -1.000000 -0.000001 0.000001 0.000001 0.000001 0.999995 -0.000001 0.999995 -0.000001 32054.dat
1 0 -229.430100 -295.419600 -314.000300 1.000000 0.000000 0.000000 0.000000 1.000000 0.000000 0.000000 0.000000 1.000000 2780.dat
1 15 -220.430100 -335.419500 -314.000300 -0.000001 -1.000000 -0.000001 0.000001 0.000001 -1.000000 1.000000 -0.000001 0.000001 40490.dat
0 STEP
1 15 -239.430500 -155.419700 -313.999600 0.000001 1.000000 0.000001 0.000001 0.000001 -1.000000 -1.000000 0.000001 -0.000001 64871.dat
0 STEP
1 0 -109.430300 -375.419500 -314.000400 1.000000 0.000000 0.000000 0.000000 1.000000 0.000000 0.000000 0.000000 1.000000 2780.dat
1 0 -229.430200 -375.419600 -314.000200 1.000000 0.000000 0.000000 0.000000 1.000000 0.000000 0.000000 0.000000 1.000000 2780.dat
0 STEP
1 19 -109.430100 -575.419500 -314.000100 -1.000000 -0.000001 0.000001 0.000001 0.000001 1.000000 -0.000001 1.000000 -0.000001 3749.dat
1 19 -109.430100 -595.419400 -314.000200 -1.000000 -0.000001 0.000001 0.000001 0.000001 1.000000 -0.000001 1.000000 -0.000001 3749.dat
1 15 -100.430100 -515.419500 -314.000200 -0.000001 -1.000000 -0.000001 -0.000001 -0.000001 1.000000 -1.000000 0.000001 -0.000001 64871.dat
1 19 -109.430200 -495.419400 -314.000200 -1.000000 -0.000001 0.000001 0.000001 0.000001 1.000000 -0.000001 1.000000 -0.000001 3749.dat
0 STEP
1 0 -174.000000 -655.419400 -314.000000 1.000000 0.000000 0.000000 0.000000 1.000000 0.000000 0.000000 0.000000 1.000000 3705.dat
1 1 -121.430100 -595.419400 -314.000100 0.000001 1.000000 -0.000001 -0.000001 -0.000001 -1.000000 -1.000000 0.000001 0.000001 32140.dat
1 71 -129.710100 -575.422300 -314.000100 0.000001 0.000000 -1.000000 0.000000 1.000000 0.000000 1.000000 0.000000 0.000001 59443.dat
1 0 -171.960000 -575.419500 -314.000100 1.000000 0.000000 0.000000 0.000000 1.000000 0.000000 0.000000 0.000000 1.000000 3705.dat
1 4 -122.430100 -655.419400 -314.000100 1.000000 0.000001 -0.000001 0.000001 0.000001 1.000000 0.000001 -1.000000 0.000001 32054.dat
1 0 -169.570200 -495.419400 -314.000200 1.000000 0.000000 0.000000 0.000000 1.000000 0.000000 0.000000 0.000000 1.000000 3705.dat
1 71 -129.570200 -495.422300 -314.000200 0.000001 0.000000 -1.000000 0.000000 1.000000 0.000000 1.000000 0.000000 0.000001 59443.dat
0 STEP
1 1 -223.000100 -595.419400 -314.000100 0.000001 1.000000 -0.000001 -0.000001 -0.000001 -1.000000 -1.000000 0.000001 0.000001 32140.dat
1 71 -214.430100 -575.422300 -314.000100 0.000001 0.000000 -1.000000 0.000000 1.000000 0.000000 1.000000 0.000000 0.000001 59443.dat
1 19 -233.000300 -495.419400 -314.000200 1.000000 0.000001 -0.000001 0.000001 0.000001 1.000000 0.000001 -1.000000 0.000001 3749.dat
1 4 -223.000200 -655.419300 -314.000000 -1.000000 -0.000001 0.000001 0.000001 -0.325095 0.945682 -0.000001 0.945682 0.325095 32054.dat
1 19 -234.000300 -575.419400 -314.000100 1.000000 0.000001 -0.000001 0.000001 0.000001 1.000000 0.000001 -1.000000 0.000001 3749.dat
1 71 -212.570200 -495.422300 -314.000100 0.000001 0.000000 -1.000000 0.000000 1.000000 0.000000 1.000000 0.000000 0.000001 59443.dat
0 STEP
1 15 -243.000400 -515.419400 -314.000200 -0.000001 -1.000000 -0.000001 -0.000001 -0.000001 1.000000 -1.000000 0.000001 -0.000001 64871.dat
0 STEP
1 0 -111.359900 -654.819500 -331.860200 -1.000000 0.000000 0.000000 0.000000 0.707104 0.707104 0.000000 0.707104 -0.707104 2780.dat
1 15 -102.360000 -519.715900 -368.559500 0.000001 1.000000 -0.000001 0.262139 0.000000 0.965026 0.965026 -0.000002 -0.262139 64871.dat
0 STEP
1 0 -112.360100 -384.612300 -405.259000 -1.000000 0.000000 0.000000 0.000000 0.999995 0.000000 0.000000 0.000000 -0.999996 2780.dat
1 4 -122.359900 -423.213400 -394.773300 1.000000 0.000001 -0.000001 0.000001 0.342019 0.939688 0.000001 -0.939688 0.342018 32054.dat
1 0 -172.120000 -423.213400 -394.773300 -1.000000 0.000000 0.000000 0.000000 0.939688 0.342019 0.000000 0.342019 -0.939688 3705.dat
1 15 -122.360000 -346.709600 -418.163700 0.000000 1.000000 0.000001 -0.292381 0.000000 -0.956297 -0.956297 0.000000 0.292381 40490.dat
0 STEP
1 4 -122.360000 -270.205800 -441.554200 1.000000 0.000000 -0.000001 0.000001 0.342019 0.939688 0.000001 -0.939688 0.342019 32054.dat
1 0 -174.360100 -270.205800 -441.554200 -1.000000 0.000000 0.000000 0.000000 0.939688 0.342019 0.000000 0.342019 -0.939688 3705.dat
0 STEP
1 4 -223.000000 -270.330200 -441.953900 -1.000000 -0.000001 0.000001 0.000002 -0.342018 0.939689 -0.000001 0.939689 0.342018 32054.dat
1 4 -222.999900 -423.213400 -394.773300 -1.000000 -0.000001 0.000001 0.000002 -0.342018 0.939689 -0.000001 0.939689 0.342018 32054.dat
1 15 -223.000000 -346.709600 -418.163800 0.000000 1.000000 0.000001 -0.292381 0.000000 -0.956297 -0.956298 0.000000 0.292381 40490.dat
0 STEP
1 0 -233.000000 -384.961400 -406.469000 -1.000000 0.000001 0.000000 0.000000 0.766041 -0.642785 0.000000 -0.642785 -0.766041 2780.dat
1 0 -233.000200 -655.419400 -334.000100 -1.000000 0.000000 0.000000 0.000000 0.974370 0.224950 0.000000 0.224950 -0.974370 2780.dat
0 STEP
1 15 -243.000100 -520.190400 -370.234500 0.000001 1.000000 0.000001 0.258818 -0.000001 0.965922 0.965922 -0.000001 -0.258818 64871.dat
0 STEP
1 19 -70.430210 -420.916500 -344.820900 -1.000000 0.000001 0.000001 0.000002 0.637422 0.770509 0.000000 0.770509 -0.637423 3749.dat
1 19 -70.430240 -386.275500 -364.820700 -1.000000 0.000001 0.000001 0.000001 0.502974 0.864297 0.000001 0.864297 -0.502974 3749.dat
1 15 -60.430280 -403.596000 -354.820800 0.000001 1.000000 0.000000 -0.499998 0.000001 -0.866022 -0.866022 0.000001 0.499998 32523.dat
1 71 -80.430300 -420.916400 -344.820800 0.000000 -1.000000 0.000001 0.770509 0.000001 0.637422 -0.637423 0.000001 0.770509 33299.dat
1 71 -80.430270 -386.275500 -364.820700 0.000001 -1.000000 -0.000001 -0.864297 0.000000 -0.502974 0.502974 0.000002 -0.864297 33299.dat
0 STEP
1 19 -273.000000 -393.927200 -362.655600 1.000000 0.000001 -0.000001 0.000001 -0.258816 0.965922 0.000001 -0.965922 -0.258816 3749.dat
1 15 -284.999900 -413.490100 -358.497300 0.000001 1.000000 -0.000002 0.207912 0.000001 0.978143 0.978143 -0.000001 -0.207912 32523.dat
1 19 -273.000400 -431.933100 -353.847800 1.000000 0.000001 -0.000001 0.000001 0.087157 0.996190 0.000001 -0.996190 0.087157 3749.dat
1 71 -263.000500 -431.933100 -353.847800 -0.000001 1.000000 -0.000001 -0.996190 -0.000001 -0.087156 -0.087156 0.000001 0.996190 33299.dat
1 71 -263.000000 -393.927200 -362.655700 -0.000001 1.000000 -0.000001 0.965922 0.000001 -0.258816 -0.258816 -0.000001 -0.965922 33299.dat
0 STEP
1 15 -243.000100 -175.011800 -472.190800 0.000000 1.000000 0.000001 -0.302370 0.000001 -0.953186 -0.953186 0.000000 0.302370 64871.dat
1 0 -233.000000 -308.457700 -429.859000 -1.000000 0.000000 0.000000 0.000000 0.939688 0.342019 0.000000 0.342019 -0.939688 2780.dat
1 0 -112.360000 -308.457700 -429.858900 -1.000000 0.000000 0.000000 0.000000 0.999996 0.000000 0.000000 0.000000 -0.999996 2780.dat
1 15 -102.359900 -173.229000 -466.093400 0.000001 1.000000 0.000001 0.258818 -0.000001 0.965922 0.965921 -0.000001 -0.258818 64871.dat
0 STEP
1 1 -62.359980 -47.999890 -502.328000 0.000000 0.000000 1.000000 0.000000 0.999996 0.000000 -0.999995 0.000000 0.000000 3701.dat
1 1 -82.359900 -47.999890 -502.327900 0.000000 0.000000 1.000000 0.000000 0.999996 0.000000 -0.999996 0.000000 0.000000 3701.dat
1 1 -283.000400 -51.565670 -514.522500 0.000000 0.000000 1.000000 0.000000 0.999996 0.000000 -0.999996 0.000000 0.000000 3701.dat
1 1 -263.000300 -51.565670 -514.522500 0.000000 0.000000 1.000000 0.000000 0.999996 0.000000 -0.999996 0.000000 0.000000 3701.dat
1 0 -253.000200 -41.565720 -514.522500 -1.000000 0.000000 0.000000 0.000000 0.999996 0.000000 0.000000 0.000000 -0.999996 2780.dat
1 0 -92.359870 -37.999940 -502.327900 -1.000000 0.000000 0.000000 0.000000 0.999996 0.000000 0.000000 0.000000 -0.999996 2780.dat
0 STEP
1 1 -62.359980 -23.999990 -502.328000 0.000000 0.000000 1.000000 0.000000 0.999996 0.000000 -0.999996 0.000000 0.000000 3701.dat
1 1 -82.359920 -23.999990 -502.327900 0.000000 0.000000 1.000000 0.000000 0.999996 0.000000 -0.999996 0.000000 0.000000 3701.dat
1 1 -263.000300 -27.565770 -514.522500 0.000000 0.000000 1.000000 0.000000 0.999996 0.000000 -0.999996 0.000000 0.000000 3701.dat
1 1 -283.000300 -27.565770 -514.522500 0.000000 0.000000 1.000000 0.000000 0.999996 0.000000 -0.999996 0.000000 0.000000 3701.dat
1 0 -273.000300 -17.565820 -514.522500 -1.000000 0.000000 0.000000 0.000000 0.999996 0.000000 0.000000 0.000000 -0.999996 2780.dat
1 0 -72.359920 -14.000040 -502.327900 -1.000000 0.000000 0.000000 0.000000 0.999996 0.000000 0.000000 0.000000 -0.999996 2780.dat
0 STEP
0 STEP
