0 Untitled Model
0 Name:  观光车
0 Author:  
0 CustomBrick
0 NumOfBricks:  42
1 1 70.000000 -24.000000 -80.000000 0.000000 0.000000 -1.000000 0.000000 1.000000 0.000000 1.000000 0.000000 0.000000 3700.dat
1 1 39.999890 -32.000000 -90.000030 1.000003 0.000000 -0.000001 0.000000 1.000000 0.000000 0.000001 0.000000 1.000003 3710.dat
1 1 39.999890 -32.000000 -70.000110 1.000003 0.000000 -0.000001 0.000000 1.000000 0.000000 0.000001 0.000000 1.000003 3710.dat
1 15 19.999820 -24.000000 -80.000000 0.000000 0.000000 -1.000003 0.000000 1.000000 0.000000 1.000003 0.000000 0.000000 32064a.dat
0 STEP
1 15 29.999920 -56.000000 -89.999100 0.000000 0.000000 -1.000000 0.000000 1.000000 0.000000 1.000000 0.000000 0.000000 3040b.dat
1 15 29.999870 -56.000000 -70.000110 -0.000001 0.000000 -1.000003 0.000000 1.000000 0.000000 1.000003 0.000000 -0.000001 3040b.dat
0 STEP
1 1 -0.000270 -40.000000 -80.000060 0.000000 0.000000 1.000003 0.000000 1.000000 0.000000 -1.000003 0.000000 0.000000 3709b.dat
1 1 -0.000210 -32.000000 -50.000110 1.000003 0.000000 -0.000001 0.000000 1.000000 0.000000 0.000001 0.000000 1.000003 3023.dat
1 1 -0.000210 -32.000000 -110.000200 1.000003 0.000000 -0.000001 0.000000 1.000000 0.000000 0.000001 0.000000 1.000003 3023.dat
0 STEP
1 15 -20.000320 -32.000000 -80.000060 0.000000 0.000000 -1.000003 0.000000 1.000000 0.000000 1.000003 0.000000 0.000000 3941.dat
0 STEP
1 15 9.999820 -64.000000 -80.000000 0.000000 0.000000 -1.000003 0.000000 1.000000 0.000000 1.000003 0.000000 0.000000 32064a.dat
0 STEP
1 1 -40.000380 -40.000000 -80.000060 0.000000 0.000000 1.000003 0.000000 1.000000 0.000000 -1.000003 0.000000 0.000000 3709b.dat
0 STEP
1 15 -20.000330 -64.000000 -70.000180 1.000003 0.000000 -0.000001 0.000000 1.000000 0.000000 0.000001 0.000000 1.000003 32064a.dat
1 15 -20.000320 -64.000000 -90.000030 1.000003 0.000000 -0.000001 0.000000 1.000000 0.000000 0.000001 0.000000 1.000003 32064a.dat
0 STEP
1 1 -40.000310 -32.000000 -110.000200 1.000003 0.000000 -0.000001 0.000000 1.000000 0.000000 0.000001 0.000000 1.000003 3023.dat
1 1 -40.000320 -32.000000 -50.000180 1.000003 0.000000 -0.000001 0.000000 1.000000 0.000000 0.000001 0.000000 1.000003 3023.dat
0 STEP
1 15 -50.000360 -64.000000 -90.000030 0.000000 0.000000 1.000003 0.000000 1.000000 0.000000 -1.000003 0.000000 0.000000 3040b.dat
1 15 -50.000420 -64.000000 -70.000180 0.000000 0.000000 1.000003 0.000000 1.000000 0.000000 -1.000003 0.000000 0.000000 3040b.dat
0 STEP
1 1 -80.000380 -40.000000 -90.000030 1.000000 0.000000 0.000000 0.000000 1.000000 0.000000 0.000000 0.000000 1.000000 3023.dat
1 1 -80.000460 -40.000000 -70.000180 1.000000 0.000000 0.000000 0.000000 1.000000 0.000000 0.000000 0.000000 1.000000 3023.dat
0 STEP
1 1 -90.000380 -32.000000 -80.000000 0.000000 0.000000 1.000000 0.000000 1.000000 0.000000 -1.000000 0.000000 0.000000 3700.dat
1 1 -90.000400 -8.000000 -80.000110 0.000000 0.000000 1.000000 0.000000 1.000000 0.000000 -1.000000 0.000000 0.000000 3023.dat
0 STEP
1 19 -20.000300 -54.000020 -101.970000 -0.000001 1.000000 -0.000001 0.000001 0.000001 1.000000 1.000000 0.000001 -0.000001 3749.dat
1 19 -20.000340 -54.000020 -60.000230 0.000001 -1.000000 0.000001 0.000001 0.000001 1.000000 -1.000000 -0.000001 0.000001 3749.dat
0 STEP
1 1 -20.000180 -72.000000 -80.000000 -1.000000 0.000000 0.000000 0.000000 1.000000 0.000000 0.000000 0.000000 -1.000000 3709b.dat
0 STEP
1 1 80.000000 -40.000000 -80.000000 0.000000 0.000000 1.000000 0.000000 1.000000 0.000000 -1.000000 0.000000 0.000000 3709b.dat
0 STEP
1 15 70.000000 -48.000000 -80.000000 0.000000 0.000000 1.000000 0.000000 1.000000 0.000000 -1.000000 0.000000 0.000000 2431.dat
1 15 89.999980 -48.000000 -80.000000 0.000000 0.000000 1.000000 0.000000 1.000000 0.000000 -1.000000 0.000000 0.000000 2431.dat
0 STEP
1 1 39.999820 -80.000000 -70.000000 1.000000 0.000000 0.000000 0.000000 1.000000 0.000000 0.000000 0.000000 1.000000 3710.dat
1 1 39.999820 -80.000000 -90.000030 1.000000 0.000000 0.000000 0.000000 1.000000 0.000000 0.000000 0.000000 1.000000 3710.dat
0 STEP
1 1 59.999830 -88.000000 -80.000000 0.000000 0.000000 1.000000 0.000000 1.000000 0.000000 -1.000000 0.000000 0.000000 3709b.dat
0 STEP
1 15 -20.000180 -96.000000 -80.000000 1.000000 0.000000 0.000000 0.000000 1.000000 0.000000 0.000000 0.000000 1.000000 3941.dat
1 19 -20.000160 -96.000000 -80.000000 -0.000001 1.000000 -0.000001 1.000000 0.000001 -0.000001 -0.000001 -0.000001 -1.000000 3749.dat
0 STEP
1 1 -0.000170 -104.000000 -80.000000 -1.000000 0.000000 0.000000 0.000000 1.000000 0.000000 0.000000 0.000000 -1.000000 3709b.dat
0 STEP
1 15 59.999820 -112.000000 -80.000000 0.000000 0.000000 1.000000 0.000000 1.000000 0.000000 -1.000000 0.000000 0.000000 3001.dat
0 STEP
1 1 29.999820 -112.000000 -80.000000 0.000000 0.000000 1.000000 0.000000 1.000000 0.000000 -1.000000 0.000000 0.000000 3023.dat
0 STEP
1 1 69.999820 -136.000000 -80.000100 0.000000 0.000000 1.000000 0.000000 1.000000 0.000000 -1.000000 0.000000 0.000000 3701.dat
1 1 49.999820 -136.000000 -80.000010 0.000000 0.000000 1.000000 0.000000 1.000000 0.000000 -1.000000 0.000000 0.000000 3700.dat
0 STEP
1 1 69.999840 -160.000000 -80.000110 0.000000 0.000000 1.000000 0.000000 1.000000 0.000000 -1.000000 0.000000 0.000000 3700.dat
0 STEP
1 1 -90.000380 -64.000000 -80.000060 0.000000 0.000000 1.000000 0.000000 1.000000 0.000000 -1.000000 0.000000 0.000000 3701.dat
1 19 -100.000400 -53.999980 -80.000110 -1.000000 -0.000001 0.000001 0.000001 0.000001 1.000000 -0.000001 1.000000 -0.000001 3749.dat
0 STEP
1 4 -110.000400 -53.999970 -80.000110 0.000000 -0.000001 1.000000 0.000000 -1.000000 -0.000001 1.000000 0.000000 0.000001 32039.dat
0 STEP
0 STEP
