0 Untitled Model
0 Name:  双人挤压机
0 Author:  
0 CustomBrick
0 NumOfBricks:  54
1 15 -22.000060 -10.000010 -224.102300 -0.000001 -0.000001 1.000000 -1.000000 0.000001 -0.000001 -0.000001 -1.000000 -0.000001 64290.dat
1 0 -102.000100 -9.999940 -214.102200 0.000000 0.000000 -1.000000 0.000000 1.000000 0.000000 1.000000 0.000000 0.000000 2780.dat
1 0 -62.000100 -9.999929 -214.102200 0.000000 0.000000 -1.000000 0.000000 1.000000 0.000000 1.000000 0.000000 0.000000 2780.dat
0 STEP
1 1 -2.000190 -90.000060 -204.102300 -1.000000 0.000001 0.000001 0.000001 0.000001 1.000000 0.000001 1.000000 -0.000001 32526.dat
1 0 -22.000360 -10.000000 -214.103000 0.000000 0.000000 -1.000001 0.000000 1.000000 0.000000 1.000001 0.000000 0.000000 2780.dat
1 0 -42.000100 -10.000000 -214.100800 0.000000 0.000000 -1.000000 0.000000 1.000000 0.000000 1.000000 0.000000 0.000000 2780.dat
0 STEP
1 14 70.999940 -0.198950 -155.102100 -1.000000 0.000000 0.000000 0.000000 1.000000 0.000000 0.000000 0.000000 -1.000000 12344.dat
1 0 16.999950 -9.559580 -215.102200 0.000000 0.000000 -1.000000 0.000000 1.000000 0.000000 1.000000 0.000000 0.000000 2780.dat
1 0 56.999940 -9.262210 -214.102200 0.000000 0.000000 -1.000000 0.000000 1.000000 0.000000 1.000000 0.000000 0.000000 2780.dat
0 STEP
1 0 -2.000180 -50.000050 -194.102300 0.000000 -1.000000 0.000000 0.000000 0.000000 -1.000000 1.000000 0.000000 0.000000 2780.dat
1 0 -2.000180 -10.000050 -194.102400 0.000000 -1.000000 0.000000 0.000000 0.000000 -1.000000 1.000000 0.000000 0.000000 2780.dat
1 15 -2.000070 -150.000100 -184.102300 1.000000 -0.000001 0.000001 0.000001 0.000001 -1.000000 0.000001 1.000000 0.000001 64871.dat
0 STEP
1 15 97.000060 -9.290420 -84.102100 -0.000001 -1.000000 -0.000001 1.000000 -0.000001 0.000001 -0.000001 -0.000001 1.000000 64290.dat
1 0 87.000140 -9.290540 -184.102200 -1.000000 0.000000 0.000000 0.000000 1.000000 0.000000 0.000000 0.000000 -1.000000 2780.dat
1 0 87.000140 -9.290510 -144.102100 -1.000000 0.000000 0.000000 0.000000 1.000000 0.000000 0.000000 0.000000 -1.000000 2780.dat
0 STEP
1 0 -131.999900 -9.000140 -184.102200 -1.000000 0.000000 0.000000 0.000000 1.000000 0.000000 0.000000 0.000000 -1.000000 2780.dat
1 0 -131.999900 -9.000120 -144.102100 -1.000000 0.000000 0.000000 0.000000 1.000000 0.000000 0.000000 0.000000 -1.000000 2780.dat
1 14 -116.201300 -18.789580 -155.106200 1.000000 0.000000 0.000000 0.000000 -1.000000 0.000000 0.000000 0.000000 -1.000000 12344.dat
0 STEP
1 15 -141.999900 -9.000120 -84.101990 -0.000001 -1.000000 -0.000001 1.000000 -0.000001 0.000001 -0.000001 -0.000001 1.000000 64290.dat
1 0 -132.000000 -9.000020 -44.102120 -1.000000 0.000000 0.000000 0.000000 1.000000 0.000000 0.000000 0.000000 -1.000000 2780.dat
1 0 -132.000000 -9.000020 -4.102110 -1.000000 0.000000 0.000000 0.000000 1.000000 0.000000 0.000000 0.000000 -1.000000 2780.dat
0 STEP
1 14 72.000040 -18.778000 -33.102100 -1.000000 0.000000 0.000000 0.000000 -1.000000 -0.000001 0.000000 -0.000001 1.000000 12344.dat
1 0 87.000060 -9.290390 -44.102120 -1.000000 0.000000 0.000000 0.000000 1.000000 0.000000 0.000000 0.000000 -1.000000 2780.dat
1 0 87.000060 -9.266640 -4.102110 -1.000000 0.000000 0.000000 0.000000 1.000000 0.000000 0.000000 0.000000 -1.000000 2780.dat
0 STEP
1 0 -62.000220 -9.199080 25.898110 0.000000 0.000000 1.000000 0.000000 1.000000 0.000000 -1.000000 0.000000 0.000000 2780.dat
1 0 -102.000200 -9.199030 25.898040 0.000000 0.000000 1.000000 0.000000 1.000000 0.000000 -1.000000 0.000000 0.000000 2780.dat
1 14 -116.000000 -0.199040 -33.102100 1.000000 0.000000 0.000000 0.000000 1.000000 0.000000 0.000000 0.000000 1.000000 12344.dat
0 STEP
1 0 -2.000290 -169.199200 -75.282040 0.000000 0.000000 -1.000000 0.000000 1.000000 0.000000 1.000000 0.000000 0.000000 3708.dat
1 0 -2.000190 -169.199200 -142.883300 0.000000 1.000000 0.000000 -1.000000 0.000000 0.000000 0.000000 0.000000 1.000000 44309.dat
1 71 -2.000190 -169.199200 -142.882000 1.000000 0.000000 0.000000 0.000000 1.000000 0.000000 0.000000 0.000000 1.000000 56145.dat
0 STEP
1 0 -2.000190 -169.199300 -44.741340 0.000000 -1.000000 0.000000 -1.000000 0.000000 0.000000 0.000000 0.000000 -1.000000 44309.dat
1 71 -2.000190 -169.199200 -44.741880 -1.000000 0.000000 0.000000 0.000000 1.000000 0.000000 0.000000 0.000000 -1.000000 56145.dat
0 STEP
1 4 -2.000080 -249.199200 -234.021900 0.000000 0.000000 1.000000 0.000000 1.000000 0.000000 -1.000000 0.000000 0.000000 62462.dat
1 0 -2.000210 -289.199200 -93.001830 0.000000 0.000000 -1.000000 0.000000 1.000000 0.000000 1.000000 0.000000 0.000000 3708.dat
1 71 -2.000210 -289.199200 -204.022000 1.000000 0.000001 0.000001 -0.000001 0.000001 1.000000 0.000001 -1.000000 0.000001 33299.dat
0 STEP
1 0 -2.000000 -289.199400 -44.000000 0.000000 -1.000000 0.000000 -1.000000 0.000000 0.000000 0.000000 0.000000 -1.000000 44309.dat
1 71 -2.000090 -289.199400 -44.001900 -1.000000 0.000000 0.000000 0.000000 1.000000 0.000000 0.000000 0.000000 -1.000000 56145.dat
1 0 -2.000090 -289.199200 -144.003800 0.000000 1.000000 0.000000 -1.000000 0.000000 0.000000 0.000000 0.000000 1.000000 44309.dat
1 71 -2.000090 -289.199200 -144.001900 1.000000 0.000000 0.000000 0.000000 1.000000 0.000000 0.000000 0.000000 1.000000 56145.dat
0 STEP
1 0 -2.000270 -49.199160 5.898010 0.000000 0.000000 -1.000000 0.000000 1.000000 0.000000 1.000000 0.000000 0.000000 2780.dat
1 0 -2.000180 -9.199170 5.898010 0.000000 0.000000 -1.000000 0.000000 1.000000 0.000000 1.000000 0.000000 0.000000 2780.dat
1 15 -2.000190 -149.199300 -4.101990 1.000000 -0.000001 0.000001 0.000001 0.000001 -1.000000 0.000001 1.000000 0.000001 64871.dat
0 STEP
1 72 -2.000210 -289.199200 16.598120 0.000000 -1.000000 0.000000 -1.000000 0.000000 0.000000 0.000000 0.000000 -1.000000 3648b.dat
1 19 -2.000200 -229.199300 5.898080 -0.000001 0.917060 -0.398749 0.000001 0.398749 0.917060 1.000000 0.000001 -0.000001 3749.dat
0 STEP
1 72 -2.000290 -169.199200 14.798010 0.000000 -1.000000 0.000000 -1.000000 0.000000 0.000000 0.000000 0.000000 -1.000000 3648b.dat
1 71 -2.000200 -229.199300 13.898230 -0.917061 0.398747 -0.000001 -0.398747 -0.917061 0.000000 -0.000001 0.000000 1.000000 3650c.dat
0 STEP
1 4 -2.000370 -129.199100 65.218060 0.000000 0.000000 1.000000 0.000000 1.000000 0.000000 -1.000000 0.000000 0.000000 62462.dat
1 71 -2.000290 -169.199200 35.218060 -1.000000 -0.000001 -0.000001 -0.000001 0.000001 1.000000 -0.000001 1.000000 -0.000001 33299.dat
0 STEP
1 1 -2.000280 -89.199180 15.898040 -1.000000 0.000001 0.000001 0.000001 0.000001 1.000000 0.000001 1.000000 -0.000001 32526.dat
1 0 -22.000180 -9.199140 25.898040 0.000000 0.000000 1.000000 0.000000 1.000000 0.000000 -1.000000 0.000000 0.000000 2780.dat
1 0 -42.000220 -9.199140 25.898040 0.000000 0.000000 1.000000 0.000000 1.000000 0.000000 -1.000000 0.000000 0.000000 2780.dat
0 STEP
1 0 57.999720 -9.199240 25.897920 0.000000 0.000000 1.000000 0.000000 1.000000 0.000000 -1.000000 0.000000 0.000000 2780.dat
1 15 -21.999960 -9.199140 35.897930 -0.000001 -0.000001 1.000000 -1.000000 0.000001 -0.000001 -0.000001 -1.000000 -0.000001 64290.dat
1 0 17.999740 -9.199190 25.897800 0.000000 0.000000 1.000000 0.000000 1.000000 0.000000 -1.000000 0.000000 0.000000 2780.dat
0 STEP
0 STEP
