0 Untitled Model
0 Name:  梯子
0 Author:  
0 CustomBrick
0 NumOfBricks:  57
1 1 -174.863400 -28.245660 -30.998110 -0.421034 0.907044 0.000001 0.907046 0.421034 -0.000001 -0.000001 0.000000 -1.000000 3700.dat
1 1 -165.793000 -24.035400 -30.997990 0.000000 0.907044 0.421034 0.000000 0.421034 -0.907046 -1.000000 0.000000 0.000001 6558.dat
1 4 -165.793200 -24.035320 -0.998030 0.000000 0.907044 -0.421034 0.000000 0.421034 0.907046 1.000000 0.000000 -0.000001 62462.dat
0 STEP
1 1 -174.863600 -28.245620 29.002050 -0.421034 0.907044 0.000001 0.907046 0.421034 0.000000 -0.000001 0.000000 -1.000000 3700.dat
1 1 -165.793100 -24.035370 29.001990 0.000000 0.907044 -0.421034 0.000000 0.421034 0.907046 1.000000 0.000000 -0.000001 6558.dat
0 STEP
1 1 -97.778000 -146.811300 49.002640 -0.421034 -0.907045 -0.000001 0.907047 -0.421034 0.000000 -0.000001 0.000000 1.000000 3703.dat
0 STEP
1 71 -140.531400 -78.457910 29.002260 0.421034 0.907044 0.000000 -0.907046 0.421034 -0.000001 0.000000 0.000000 1.000000 3713.dat
1 71 -140.531400 -78.457910 29.002260 0.000000 0.421034 0.907044 0.000000 -0.907046 0.421034 1.000000 0.000001 0.000000 4519.dat
0 STEP
1 19 -140.531300 -78.458060 -40.997980 0.000000 0.421035 0.907044 0.000002 -0.907046 0.421035 1.000000 0.000002 -0.000001 3749.dat
1 4 -140.531300 -78.458060 -10.997940 -0.421034 -0.907044 0.000000 0.907046 -0.421034 0.000000 -0.000001 0.000000 1.000000 32034.dat
0 STEP
1 71 -106.848500 -151.021700 28.952740 0.421034 0.907044 0.000000 -0.907046 0.421034 -0.000001 0.000000 0.000000 1.000000 3713.dat
1 0 -106.848500 -151.021600 -0.937830 0.000000 0.907044 -0.421034 0.000000 0.421034 0.907046 1.000000 0.000000 -0.000001 3706.dat
0 STEP
1 15 -70.566840 -134.180200 -11.177940 0.421033 -0.000001 0.907044 -0.907046 0.000000 0.421033 0.000000 -1.000000 -0.000001 32316.dat
1 71 -106.848500 -151.021600 8.952189 0.421034 0.907044 0.000000 -0.907046 0.421034 -0.000001 0.000000 0.000000 1.000000 3713.dat
0 STEP
1 14 -106.848300 -151.021900 -25.938030 -0.907044 -0.421034 0.000001 -0.421034 0.907045 0.000000 0.000000 -0.000001 -1.000000 32123a.dat
1 14 -106.848600 -151.021500 -35.907900 -0.907045 -0.421034 0.000001 -0.421034 0.907046 0.000000 0.000000 -0.000001 -1.000000 32123a.dat
0 STEP
1 0 -56.324390 -259.867500 38.432620 -0.000001 0.907047 -0.421032 0.000000 0.421030 0.907047 1.000000 0.000000 -0.000001 2780.dat
1 0 -47.903720 -278.008300 38.432380 -0.000001 0.907047 -0.421031 0.000000 0.421030 0.907047 1.000000 0.000000 -0.000001 2780.dat
1 1 -64.745000 -241.726500 28.432420 0.907044 -0.000001 0.421033 0.421033 -0.000001 -0.907046 0.000001 1.000000 -0.000001 32140.dat
0 STEP
1 14 -21.342270 -287.728500 43.682320 -0.907044 0.421034 0.000000 -0.421034 -0.907046 0.000000 0.000000 0.000001 1.000000 32123a.dat
1 71 -21.342250 -287.728400 -1.167720 0.000000 0.907044 -0.421034 0.000000 0.421034 0.907045 1.000000 0.000000 -0.000001 32073.dat
0 STEP
1 1 14.602990 -235.690400 9.002080 -0.960295 0.000000 -0.278986 0.278986 -0.000002 -0.960295 0.000000 -1.000000 0.000002 32140.dat
1 4 14.602990 -235.690400 -0.997930 0.000000 0.278986 -0.960295 0.000002 0.960295 0.278986 1.000000 -0.000002 0.000000 32062.dat
0 STEP
1 1 -64.745000 -241.726400 -30.997850 0.907044 -0.000001 0.421032 0.421033 -0.000001 -0.907046 0.000002 1.000000 0.000000 32140.dat
1 1 14.602880 -235.690600 -11.067520 -0.960295 0.000000 -0.278986 0.278986 -0.000001 -0.960295 0.000000 -1.000000 0.000002 32140.dat
0 STEP
1 14 -21.342280 -287.728400 -46.157760 -0.421034 0.907044 0.000000 0.907045 0.421034 -0.000001 -0.000001 0.000000 -1.000000 32123a.dat
1 0 -56.324360 -259.867500 -40.997870 0.000000 0.907044 -0.421034 0.000000 0.421034 0.907045 1.000000 0.000000 -0.000001 2780.dat
1 0 -47.903660 -278.008000 -40.997840 0.000000 0.907044 -0.421034 0.000000 0.421034 0.907045 1.000000 0.000000 -0.000001 2780.dat
0 STEP
1 1 -97.777910 -146.812000 -50.998120 0.421033 -0.907044 0.000000 -0.907045 -0.421034 0.000000 0.000001 0.000000 -0.999999 3703.dat
0 STEP
1 0 9.023320 -254.896600 -21.067900 -0.000001 0.960295 -0.278987 -0.000001 -0.278987 -0.960295 -1.000000 -0.000001 0.000001 2780.dat
1 0 3.443550 -274.102600 -21.067680 -0.000001 0.960295 -0.278987 -0.000001 -0.278987 -0.960295 -1.000000 -0.000001 0.000001 2780.dat
1 0 9.023120 -254.896900 19.000010 -0.000001 0.960295 -0.278987 -0.000001 -0.278987 -0.960295 -1.000000 -0.000001 0.000001 2780.dat
1 0 3.443630 -274.102400 19.002350 -0.000001 0.960295 -0.278988 -0.000001 -0.278987 -0.960300 -1.000005 -0.000001 0.000001 2780.dat
0 STEP
1 15 4.089780 -128.502400 8.930540 0.278988 0.000000 -0.960295 0.960295 -0.000002 0.278988 -0.000002 -1.000000 0.000000 32316.dat
1 71 -34.322100 -117.342600 -1.069470 -0.000001 -0.960295 0.278987 0.000000 0.278987 0.960296 -1.000000 0.000001 0.000000 3673.dat
0 STEP
1 1 5.000000 -232.901300 29.000000 0.278987 0.960295 -0.000001 0.960295 -0.278987 0.000000 -0.000001 -0.000001 -1.000000 3894.dat
1 0 20.182600 -216.485300 39.000090 -0.000001 -0.960295 0.278987 0.000000 0.278987 0.960296 -1.000000 0.000001 0.000000 2780.dat
1 0 25.762340 -197.279300 38.999910 -0.000001 -0.960295 0.278987 0.000000 0.278987 0.960296 -1.000000 0.000001 0.000000 2780.dat
0 STEP
1 14 42.501520 -139.661700 24.050570 -0.278987 0.960296 0.000000 -0.960296 -0.278987 0.000001 0.000001 0.000001 1.000000 32123a.dat
1 14 42.501540 -139.661700 33.930600 -0.278987 0.960295 0.000000 -0.960296 -0.278987 0.000001 0.000001 0.000001 1.000000 32123a.dat
1 0 42.501520 -139.661700 -1.069440 0.000001 -0.960295 -0.278987 0.000001 0.278987 -0.960296 1.000000 0.000001 0.000001 3706.dat
0 STEP
1 1 38.478230 -117.665800 48.999980 -0.278987 0.960295 0.000001 -0.960295 -0.278987 0.000000 0.000001 -0.000001 1.000000 3895.dat
0 STEP
1 1 66.376850 -21.636470 28.999970 0.278987 0.960295 -0.000001 0.960295 -0.278986 0.000000 -0.000001 -0.000001 -1.000000 3700.dat
1 4 75.979880 -24.426240 28.999970 -0.000001 0.278986 -0.960295 0.000000 0.960295 0.278986 1.000000 0.000001 0.000000 32054.dat
0 STEP
1 4 75.979840 -24.426470 -1.069430 -0.000001 -0.960295 0.278987 0.000000 0.278987 0.960296 -1.000000 0.000001 0.000000 32062.dat
0 STEP
1 71 42.501520 -139.661700 -11.069450 -0.278987 -0.960295 -0.000001 -0.960295 0.278987 -0.000001 0.000001 0.000001 -1.000000 3713.dat
1 71 42.501480 -139.661800 -31.069540 -0.278987 -0.960295 -0.000001 -0.960295 0.278987 -0.000001 0.000001 0.000001 -1.000000 3713.dat
0 STEP
1 71 59.240440 -82.043940 29.000000 -0.278987 -0.960295 -0.000001 -0.960295 0.278987 -0.000001 0.000001 0.000001 -1.000000 3713.dat
1 71 59.240460 -82.044080 29.000000 0.000001 0.278987 -0.960295 0.000000 0.960296 0.278987 1.000000 -0.000001 0.000001 4519.dat
0 STEP
1 19 59.240460 -82.044170 -41.069530 -0.000001 0.278986 -0.960295 0.000000 0.960295 0.278986 1.000000 0.000001 0.000000 3749.dat
1 4 59.240480 -82.044160 -11.069420 0.278987 0.960295 -0.000001 0.960295 -0.278987 0.000000 0.000000 -0.000001 -1.000000 32034.dat
0 STEP
1 1 66.376900 -21.636620 -31.069540 0.278987 0.960295 -0.000001 0.960295 -0.278986 0.000000 -0.000001 -0.000001 -1.000000 3700.dat
1 4 75.979830 -24.426350 -31.069540 -0.000001 -0.278988 -0.960295 0.000001 -0.960295 0.278988 -1.000000 0.000000 0.000001 32054.dat
0 STEP
1 1 4.999830 -232.901300 -31.067730 -0.278987 0.960290 0.000001 -0.960298 -0.278988 0.000000 0.000001 0.000000 1.000000 3894.dat
1 0 20.182510 -216.485300 -41.069470 -0.000001 -0.960295 0.278987 0.000000 0.278987 0.960295 -1.000000 0.000001 0.000000 2780.dat
1 0 25.762440 -197.279000 -41.067880 -0.000001 -0.960295 0.278988 0.000000 0.278987 0.960299 -1.000004 0.000001 0.000000 2780.dat
0 STEP
1 1 38.478200 -117.665900 -51.069500 -0.278987 0.960295 0.000001 -0.960295 -0.278987 0.000000 0.000001 -0.000001 1.000000 3895.dat
0 STEP
0 STEP
