0 FILE 仰卧起坐.io
0 Untitled Model
0 Name:  仰卧起坐
0 Author:  
0 CustomBrick
0 NumOfBricks:  78
1 1 -120.000000 -63.999980 -130.000000 1.000000 0.000000 0.000000 0.000000 1.000000 0.000000 0.000000 0.000000 1.000000 3895.dat
1 1 -220.000100 -39.999980 -180.000000 0.000000 0.000000 -1.000000 0.000000 1.000000 0.000000 1.000000 0.000000 0.000000 32001.dat
0 STEP
1 1 -120.000000 -64.000000 -230.000000 1.000000 0.000000 0.000000 0.000000 1.000000 0.000000 0.000000 0.000000 1.000000 3895.dat
1 1 -20.000000 -39.999980 -180.000000 0.000000 0.000000 -1.000000 0.000000 1.000000 0.000000 1.000000 0.000000 0.000000 32001.dat
0 STEP
1 19 -80.000140 -53.999980 -120.000000 -0.000001 1.000000 -0.000001 0.000001 0.000001 1.000000 1.000000 0.000001 -0.000001 3749.dat
1 19 -120.000200 -53.999980 -120.000000 -0.000001 1.000000 -0.000001 0.000001 0.000001 1.000000 1.000000 0.000001 -0.000001 3749.dat
1 1 -100.000200 -53.999980 -110.000000 0.000000 1.000000 0.000000 0.000000 0.000000 1.000000 1.000000 0.000000 0.000000 32184.dat
0 STEP
1 19 -120.000000 -53.999980 -240.000000 0.000001 -1.000000 0.000001 0.000001 0.000001 1.000000 -1.000000 -0.000001 0.000001 3749.dat
1 19 -80.000020 -53.999980 -240.000000 0.000001 -1.000000 0.000001 0.000001 0.000001 1.000000 -1.000000 -0.000001 0.000001 3749.dat
1 1 -100.000000 -53.999950 -250.000100 0.000000 1.000000 0.000000 0.000000 0.000000 1.000000 1.000000 0.000000 0.000000 32184.dat
0 STEP
1 1 -230.000100 -31.999980 -180.000000 0.000000 0.000000 1.000000 0.000000 1.000000 0.000000 -1.000000 0.000000 0.000000 3701.dat
1 1 -210.000200 -31.999980 -180.000100 0.000000 0.000000 1.000000 0.000000 1.000000 0.000000 -1.000000 0.000000 0.000000 3701.dat
0 STEP
1 1 -30.000010 -31.999980 -180.000100 0.000000 0.000000 1.000000 0.000000 1.000000 0.000000 -1.000000 0.000000 0.000000 3701.dat
1 1 -10.000000 -31.999980 -180.000100 0.000000 0.000000 1.000000 0.000000 1.000000 0.000000 -1.000000 0.000000 0.000000 3701.dat
0 STEP
1 1 -19.999640 -71.999980 -180.000000 0.000000 0.000000 -1.000005 0.000000 1.000000 0.000000 1.000005 0.000000 0.000000 32001.dat
1 1 -60.001360 -72.000000 -179.997700 0.000000 0.000000 -1.000000 0.000000 1.000000 0.000000 1.000000 0.000000 0.000000 32001.dat
0 STEP
1 1 -240.000100 -87.999980 -230.000000 1.000000 0.000000 0.000000 0.000000 1.000000 0.000000 0.000000 0.000000 1.000000 3702.dat
1 1 -99.999660 -71.999980 -180.000000 0.000000 0.000000 -1.000005 0.000000 1.000000 0.000000 1.000005 0.000000 0.000000 32001.dat
1 1 -139.999900 -71.999980 -180.000000 0.000000 0.000000 -1.000005 0.000000 1.000000 0.000000 1.000005 0.000000 0.000000 32001.dat
0 STEP
1 16 -276.243400 -16.000000 -198.383400 1.000000 0.000000 0.000000 0.000000 1.000000 0.000000 0.000000 0.000000 1.000000 submodel group 2
0 STEP
1 15 -340.000000 -38.000000 -200.000000 0.000000 0.000000 -1.000000 0.000000 1.000000 0.000000 1.000000 0.000000 0.000000 dx0056.dat.dat
0 STEP
1 1 -280.000100 -15.999980 -200.000000 -1.000000 0.000000 0.000000 0.000000 1.000000 0.000000 0.000000 0.000000 -1.000000 3709b.dat
1 1 -380.000100 -8.000000 -200.000000 1.000000 0.000000 0.000000 0.000000 1.000000 0.000000 0.000000 0.000000 1.000000 3738.dat
1 1 -240.000100 -7.999980 -190.000000 -1.000000 0.000000 0.000000 0.000000 1.000000 0.000000 0.000000 0.000000 -1.000000 3666.dat
1 1 -240.000100 -7.999980 -210.000000 -1.000000 0.000000 0.000000 0.000000 1.000000 0.000000 0.000000 0.000000 -1.000000 3666.dat
0 STEP
1 71 -280.000100 -77.999980 -167.960100 1.000000 0.000000 0.000000 0.000000 -1.000000 0.000000 0.000000 0.000000 -1.000000 3649.dat
1 71 -290.000000 -47.999960 -158.960100 0.000000 0.000000 -1.000000 0.000000 1.000000 0.000000 1.000000 0.000000 0.000000 3673.dat
0 STEP
1 1 -39.999700 -95.999980 -129.999800 1.000000 0.000000 0.000000 0.000000 1.000000 0.000000 0.000000 0.000000 1.000000 3701.dat
1 1 -39.999700 -95.999980 -230.000300 1.000000 0.000000 0.000000 0.000000 1.000000 0.000000 0.000000 0.000000 1.000000 3701.dat
1 1 -120.001400 -95.999980 -229.847600 1.000000 0.000000 0.000000 0.000000 1.000000 0.000000 0.000000 0.000000 1.000000 3701.dat
1 1 -120.001400 -95.999980 -129.617500 1.000000 0.000000 0.000000 0.000000 1.000000 0.000000 0.000000 0.000000 1.000000 3701.dat
0 STEP
1 1 -120.001400 -85.999980 -149.697600 0.000001 0.000001 1.000000 1.000000 -0.000001 -0.000001 0.000001 1.000000 -0.000001 32271.dat
1 1 -120.001400 -85.999980 -209.508000 0.000001 0.000001 1.000000 1.000000 -0.000001 -0.000001 0.000001 1.000000 -0.000001 32271.dat
1 0 -120.001400 -85.999980 -180.697600 0.000000 0.000000 1.000000 0.000000 1.000000 0.000000 -1.000000 0.000000 0.000000 3706.dat
1 16 -178.107900 -73.295610 -179.387700 0.748954 0.662622 0.000000 -0.662622 0.748954 0.000000 0.000000 0.000000 1.000000 submodel group 1
0 STEP
1 16 -19.999680 -96.000000 -179.759000 1.000000 0.000000 0.000000 0.000000 1.000000 0.000000 0.000000 0.000000 1.000000 submodel group 3
0 STEP
1 15 -29.999700 -144.000000 -230.000300 0.000000 0.000000 -1.000000 0.000000 1.000000 0.000000 1.000000 0.000000 0.000000 3040b.dat
1 15 -29.999700 -144.000000 -129.999800 0.000000 0.000000 -1.000000 0.000000 1.000000 0.000000 1.000000 0.000000 0.000000 3040b.dat
0 STEP
1 1 -156.990900 -106.682400 -179.387800 0.000000 -0.748954 0.662622 0.000000 0.662622 0.748954 -1.000000 0.000000 0.000000 3709b.dat
1 1 -183.495900 -136.640600 -180.387800 0.000000 -0.748954 0.662622 0.000000 0.662622 0.748954 -1.000000 0.000000 -0.000001 3709b.dat
1 1 -196.113800 -138.829200 -169.387800 0.662622 -0.748954 0.000000 0.748954 0.662622 0.000000 0.000000 0.000000 1.000000 3700.dat
1 71 -203.605700 -132.213700 -159.403500 0.000000 -0.233453 0.972370 0.000000 0.972354 0.233450 -1.000000 0.000000 0.000000 3673.dat
0 STEP
1 0 -199.515300 -175.875400 -139.387800 0.000000 -0.748954 -0.662622 0.000000 0.662622 -0.748954 1.000000 0.000000 0.000000 2780.dat
1 0 -199.515500 -175.875400 -219.388000 0.000000 -0.233443 -0.972370 0.000000 0.972370 -0.233443 1.000000 0.000000 0.000000 2780.dat
1 19 -212.767900 -190.854500 -179.388000 -0.662622 -0.000001 -0.748954 -0.748954 0.000001 0.662622 0.000001 1.000000 -0.000001 3749.dat
0 STEP
1 1 -204.184200 -156.427900 -229.388000 -0.972370 0.000001 0.233444 -0.233444 -0.000001 -0.972370 -0.000001 -1.000000 0.000001 32526.dat
1 1 -204.184300 -156.427900 -129.387800 -0.972370 0.000001 0.233444 -0.233444 -0.000001 -0.972370 -0.000001 -1.000000 0.000001 32526.dat
1 0 -232.646600 -213.322900 -179.388100 -0.748954 -0.000001 -0.662622 0.662622 0.000000 -0.748955 0.000002 -1.000000 0.000000 32013.dat
0 STEP
1 1 -186.035400 -187.803700 -179.388100 -0.000001 -0.748951 0.662620 0.000000 0.662622 0.748954 -1.000000 0.000000 -0.000001 3709b.dat
1 1 -159.529300 -157.844500 -179.387800 -0.000001 -0.748954 0.662622 0.000000 0.662622 0.748954 -1.000000 0.000000 -0.000001 3709b.dat
0 STEP
1 71 -221.831800 -222.891200 -179.388000 0.662622 0.000001 0.748954 0.748955 -0.000001 -0.662622 0.000000 1.000000 -0.000002 4185.dat
1 71 -245.843200 -201.647600 -179.388000 0.662622 0.000001 0.748954 0.748955 -0.000001 -0.662622 0.000000 1.000000 -0.000002 4185.dat
1 4 -231.950000 -213.939100 -179.388000 -0.748954 0.662622 -0.000001 0.662622 0.748955 0.000001 0.000002 0.000000 -1.000000 32062.dat
0 STEP
1 15 -247.573700 -90.426410 -148.959900 -0.707108 0.000001 -0.707106 -0.707106 0.000001 0.707108 0.000001 1.000000 0.000000 32524.dat
0 STEP
1 16 -581.000000 47.704460 -400.000000 1.000000 0.000000 0.000000 0.000000 1.000000 0.000000 0.000000 0.000000 1.000000 submodel group 9 copy copy copy
0 STEP
0 STEP
0 NOFILE
0 FILE SubModel Group 2
0 SubModel Group 2
0 Name:  SubModel Group 2
0 Author:  
0 CustomBrick
0 NumOfBricks:  6
1 47 -3.756710 -40.000000 -1.616650 1.000000 0.000000 0.000000 0.000000 1.000000 0.000000 0.000000 0.000000 1.000000 6588.dat
0 STEP
1 71 -4.086610 -22.000000 -1.616650 0.000000 0.000000 1.000000 0.000000 1.000000 0.000000 -1.000000 0.000000 0.000000 4716.dat
1 14 28.953380 -22.000000 -1.616650 0.000000 0.000000 1.000000 0.000000 -1.000000 0.000000 1.000000 0.000000 0.000000 32123a.dat
1 0 -25.596620 -22.000000 -1.616650 -1.000000 0.000000 0.000000 0.000000 1.000000 0.000000 0.000000 0.000000 -1.000000 3706.dat
0 STEP
1 72 -3.756710 -62.000000 -0.956650 1.000000 0.000000 0.000000 0.000000 -1.000000 0.000000 0.000000 0.000000 -1.000000 3648b.dat
1 0 -3.756710 -62.000000 1.423250 0.000000 0.000000 1.000000 0.000000 1.000000 0.000000 -1.000000 0.000000 0.000000 3705.dat
0 STEP
0 NOFILE
0 FILE SubModel Group 1
0 SubModel Group 1
0 Name:  SubModel Group 1
0 Author:  
0 CustomBrick
0 NumOfBricks:  9
1 0 51.938260 8.987390 -0.000170 0.000001 -1.000000 0.000001 0.000001 -0.000001 -1.000000 1.000000 0.000001 0.000001 2780.dat
1 15 51.938380 -11.012390 -9.999269 1.000000 0.000000 0.000001 0.000001 0.000001 -1.000000 0.000000 1.000000 0.000002 32316.dat
1 15 51.937110 -11.012320 10.000140 1.000000 0.000000 0.000001 0.000001 0.000001 -1.000000 0.000000 1.000000 0.000002 32316.dat
0 STEP
1 71 51.938380 -11.012390 -20.000260 0.000001 -1.000000 0.000001 0.000001 -0.000001 -1.000000 1.000000 0.000001 0.000001 3673.dat
1 71 51.938510 -11.012540 20.000140 0.000001 -1.000000 0.000001 0.000001 -0.000001 -1.000000 1.000000 0.000001 0.000001 3673.dat
0 STEP
1 1 61.938320 -51.012580 29.999940 0.000000 -1.000000 0.000000 1.000000 0.000000 0.000000 0.000000 0.000000 1.000000 3894.dat
1 1 61.938320 -51.012580 -30.000260 0.000000 -1.000000 0.000000 1.000000 0.000000 0.000000 0.000000 0.000000 1.000000 3894.dat
0 STEP
1 1 61.938100 -101.012600 -0.000060 -0.000001 -1.000000 0.000000 0.000001 0.000000 -1.000000 1.000000 0.000000 0.000001 3700.dat
1 1 37.938200 -91.012490 -0.000150 0.000001 -1.000000 0.000000 -0.000001 0.000000 1.000000 -1.000000 0.000000 -0.000001 3709b.dat
0 STEP
0 NOFILE
0 FILE SubModel Group 3
0 SubModel Group 3
0 Name:  SubModel Group 3
0 Author:  
0 CustomBrick
0 NumOfBricks:  9
1 1 -0.000020 -24.000000 49.759170 1.000000 0.000000 0.000000 0.000000 1.000000 0.000000 0.000000 0.000000 1.000000 3700.dat
0 STEP
1 0 -0.000020 -14.000000 39.759170 0.000000 0.000000 1.000000 0.000000 1.000000 0.000000 -1.000000 0.000000 0.000000 3705.dat
1 71 0.000040 -14.000000 70.698660 1.000000 0.000000 0.000001 0.000000 1.000000 0.000000 -0.000001 0.000000 1.000000 3713.dat
0 STEP
1 71 -0.000020 -14.002800 -0.240830 1.000000 0.000000 0.000001 0.000000 1.000000 0.000000 -0.000001 0.000000 1.000000 59443.dat
1 71 0.000040 -14.000000 29.759170 1.000000 0.000000 0.000001 0.000000 1.000000 0.000000 -0.000001 0.000000 1.000000 3713.dat
0 STEP
1 0 -0.000020 -14.000000 -39.831330 0.000000 0.000000 1.000000 0.000000 1.000000 0.000000 -1.000000 0.000000 0.000000 3705.dat
1 71 -0.000020 -14.000000 -29.831330 -1.000000 0.000000 -0.000001 0.000000 1.000000 0.000000 0.000001 0.000000 -1.000000 3713.dat
0 STEP
1 1 -0.000020 -24.000000 -50.241350 1.000000 0.000000 0.000000 0.000000 1.000000 0.000000 0.000000 0.000000 1.000000 3700.dat
1 71 -0.000020 -14.000000 -69.831420 1.000000 0.000000 0.000001 0.000000 1.000000 0.000000 -0.000001 0.000000 1.000000 3713.dat
0 STEP
0 NOFILE
0 FILE SubModel Group 9 Copy Copy Copy
0 SubModel Group 9 Copy Copy Copy
0 Name:  SubModel Group 9 Copy Copy Copy
0 Author:  
0 CustomBrick
0 NumOfBricks:  3
1 72 10.000000 -1.128810 -10.000000 1.000000 0.000000 0.000000 0.000000 0.000000 -1.000000 0.000000 1.000000 0.000000 dch003.dat
1 71 -27.466620 -79.717990 29.427020 1.000000 0.000000 0.000000 0.000000 0.000000 -1.000000 0.000000 1.000000 0.000000 dch004.dat
1 25 7.837010 13.484720 -9.965000 1.000000 0.000000 0.000000 0.000000 0.000000 -1.000000 0.000000 1.000000 0.000000 dch005.dat
0 NOFILE
