0 Untitled Model
0 Name:  拖车
0 Author:  
0 CustomBrick
0 NumOfBricks:  81
1 71 -10.176320 -125.343600 -327.701800 -0.999990 0.000000 0.000000 0.000000 0.996196 -0.087159 0.000000 -0.087160 -0.996182 32073.dat
1 4 -10.256310 -123.600500 -307.778000 -0.999990 0.000000 0.000000 0.000000 0.087159 0.996196 0.000000 0.996182 -0.087160 42003.dat
0 STEP
1 1 -10.256340 -141.781200 -286.111300 -0.000001 0.000000 0.999990 -0.996196 -0.087159 0.000000 0.087160 -0.996182 0.000000 6558.dat
1 4 -10.256310 -140.038000 -266.187600 0.999990 0.000000 0.000000 0.000000 -0.087158 0.996196 0.000000 -0.996182 -0.087160 42003.dat
0 STEP
1 71 -10.426260 -165.191500 -324.214300 -0.999988 0.000000 0.000000 0.000000 0.996194 -0.087159 0.000000 -0.087160 -0.996182 32073.dat
1 4 -10.256340 -163.448500 -304.291800 -0.999990 0.000000 0.000000 0.000000 0.087159 0.996196 0.000000 0.996182 -0.087160 42003.dat
0 STEP
1 1 -30.026090 -165.191500 -324.214300 -0.000001 -0.999990 0.000001 -0.087157 0.000001 0.996196 -0.996182 0.000001 -0.087159 32140.dat
0 STEP
1 71 -50.175830 -125.343600 -327.701900 -0.000001 0.999988 -0.000001 0.996195 0.000001 -0.087158 -0.087159 -0.000001 -0.996183 33299.dat
1 0 -40.025840 -105.419700 -329.443900 -0.999988 0.000000 0.000000 0.000000 0.996194 -0.087159 0.000000 -0.087160 -0.996182 2780.dat
0 STEP
1 15 -30.176090 -88.982120 -371.035200 0.000001 0.999988 0.000001 -0.087158 0.000001 -0.996195 -0.996182 0.000001 0.087159 32316.dat
1 0 -40.175960 -108.906100 -369.292300 -0.999988 0.000000 0.000000 0.000000 0.996194 -0.087159 0.000000 -0.087160 -0.996182 2780.dat
0 STEP
1 15 -50.025820 -110.649300 -389.214800 0.000001 0.999988 0.000001 -0.996195 0.000001 0.087158 0.087159 -0.000001 0.996183 32524.dat
0 STEP
1 71 -10.006740 -49.134410 -374.520600 0.000001 0.000000 -0.999988 0.087159 0.996194 0.000000 0.996182 -0.087160 0.000001 3713.dat
1 0 -11.326090 -49.134530 -374.521800 -0.999988 0.000000 0.000000 0.000000 0.996194 -0.087159 0.000000 -0.087160 -0.996182 3706.dat
0 STEP
1 0 19.883530 -108.906200 -369.292200 -0.999988 0.000000 0.000000 0.000000 0.996194 -0.087159 0.000000 -0.087160 -0.996182 2780.dat
1 15 9.883610 -88.982250 -371.035200 0.000001 0.999988 0.000001 -0.087157 0.000001 -0.996195 -0.996183 0.000001 0.087158 32316.dat
0 STEP
1 1 9.703440 -165.191700 -324.215500 -0.000001 -0.999990 0.000002 -0.087158 0.000001 0.996196 -0.996182 0.000001 -0.087159 32140.dat
1 0 19.703440 -105.419800 -329.444900 -0.999988 0.000000 0.000000 0.000000 0.996194 -0.087159 0.000000 -0.087160 -0.996182 2780.dat
0 STEP
1 71 29.883460 -125.343700 -327.701700 0.000000 -0.999990 0.000001 -0.996196 -0.000001 -0.087159 0.087160 -0.000001 -0.996182 33299.dat
1 15 29.883430 -110.649400 -389.216100 0.000001 0.999988 0.000001 -0.996195 0.000001 0.087158 0.087159 -0.000001 0.996183 32524.dat
0 STEP
1 1 -50.425760 -165.191500 -324.214300 0.000000 0.999988 0.000000 0.996194 0.000000 -0.087159 -0.087160 0.000000 -0.996182 6629.dat
0 STEP
1 4 -10.426200 -129.227800 -463.879200 0.000000 0.000000 -0.999988 -0.744660 0.667443 0.000000 0.667437 0.744650 0.000000 32034.dat
1 4 -40.425890 -129.227800 -463.879200 -0.999988 0.000000 0.000000 0.000000 0.744660 -0.667443 0.000000 -0.667437 -0.744650 32062.dat
0 STEP
1 71 -10.426200 -129.093800 -463.999100 0.000000 -0.999988 0.000000 -0.744660 0.000000 -0.667443 0.667437 0.000000 -0.744650 4519.dat
1 19 -10.426200 -143.986900 -450.650000 0.999988 0.000000 0.000000 0.000000 0.667444 -0.744660 0.000000 0.744650 0.667437 32269.dat
0 STEP
1 71 -10.426200 -114.200500 -477.347900 0.999988 0.000000 0.000001 -0.000001 -0.667444 0.744660 0.000000 -0.744650 -0.667437 3713.dat
1 4 19.573450 -129.227800 -463.879200 -0.999988 0.000000 0.000000 0.000000 0.744660 -0.667443 0.000000 -0.667437 -0.744650 32062.dat
0 STEP
1 1 29.573290 -165.191500 -324.214400 0.000000 0.999988 0.000000 0.996194 0.000000 -0.087159 -0.087160 0.000000 -0.996182 6629.dat
0 STEP
1 0 39.750560 -49.134500 -374.521700 0.000001 0.000000 -1.000000 -0.996194 0.087160 -0.000001 0.087160 0.996194 0.000000 30391.dat
1 71 39.493290 -49.134530 -374.521800 0.000000 0.000000 -0.999988 0.087159 0.996194 0.000000 0.996182 -0.087160 0.000000 55982.dat
1 0 -60.392460 -49.134520 -374.521900 -0.000001 0.000001 1.000000 -0.996194 -0.087160 -0.000001 0.087160 -0.996194 0.000001 30391.dat
1 71 -60.135510 -49.134520 -374.521700 0.000001 0.000000 0.999988 -0.087159 0.996194 0.000000 -0.996183 -0.087160 0.000001 55982.dat
0 STEP
1 71 -10.256370 -138.294900 -246.264100 -0.999988 0.000000 0.000000 0.000000 0.087159 0.996195 0.000000 0.996182 -0.087160 4519.dat
1 1 -30.256130 -58.599340 -253.236600 0.000000 -0.999988 0.000000 -0.996194 0.000000 -0.087159 0.087160 0.000000 -0.996182 32009.dat
0 STEP
1 71 -10.256440 -44.653880 -93.847270 0.000001 0.000000 -0.999988 0.087159 0.996194 0.000000 0.996182 -0.087160 0.000001 3713.dat
1 71 -10.256440 -44.653880 -93.847270 -0.999988 0.000000 0.000000 0.000000 0.087159 0.996195 0.000000 0.996182 -0.087160 4519.dat
0 STEP
1 1 9.743380 -58.599340 -253.236600 0.000000 -0.999988 0.000000 -0.996195 0.000000 -0.087159 0.087160 0.000000 -0.996183 32009.dat
0 STEP
1 0 19.743270 -55.112980 -213.389400 -0.999988 0.000000 0.000000 0.000000 0.996194 -0.087159 0.000000 -0.087160 -0.996182 2780.dat
1 0 -40.256040 -55.112980 -213.389300 -0.999988 0.000000 0.000000 0.000000 0.996194 -0.087159 0.000000 -0.087160 -0.996182 2780.dat
1 0 -40.256070 -49.883450 -153.618300 -0.999988 0.000000 0.000000 0.000000 0.996194 -0.087159 0.000000 -0.087160 -0.996182 2780.dat
1 0 19.743260 -49.883460 -153.618300 -0.999988 0.000000 0.000000 0.000000 0.996194 -0.087159 0.000000 -0.087160 -0.996182 2780.dat
0 STEP
1 1 -50.255940 -58.102200 -132.823200 0.000000 0.000000 0.999988 -0.087159 0.996194 0.000000 -0.996182 -0.087160 0.000000 3703.dat
1 1 29.743150 -58.102210 -132.823200 0.000000 0.000000 0.999988 -0.087159 0.996194 0.000000 -0.996182 -0.087160 0.000000 3703.dat
0 STEP
1 19 -60.255840 -41.167560 -53.999820 -0.999988 -0.000001 0.000001 0.000001 0.087160 0.996194 -0.000001 0.996182 -0.087161 3749.dat
1 19 -60.255810 -48.140240 -133.694800 -0.999988 -0.000001 0.000001 0.000001 0.087160 0.996194 -0.000001 0.996182 -0.087161 3749.dat
0 STEP
1 71 -65.425760 -48.140250 -133.694800 0.000001 -0.000001 -0.999988 -0.087159 -0.996194 0.000000 -0.996182 0.087160 -0.000001 4185.dat
1 0 -65.426120 -48.140110 -133.695000 -0.000001 0.000000 0.999990 0.087159 -0.996195 0.000000 0.996184 0.087160 0.000001 2815.dat
1 0 -80.512210 -41.167480 -53.998960 -0.000001 0.000000 0.999988 -0.996194 -0.087159 -0.000001 0.087160 -0.996182 0.000000 30391.dat
1 71 -80.255680 -41.167570 -54.000000 0.000000 0.000000 0.999990 -0.087159 0.996194 0.000000 -0.996185 -0.087160 0.000000 55982.dat
0 STEP
1 19 39.743000 -48.140260 -133.694800 0.999988 0.000001 -0.000001 0.000001 -0.087157 0.996195 0.000001 -0.996183 -0.087158 3749.dat
1 19 39.743060 -41.167530 -53.999400 0.999988 0.000001 -0.000001 0.000001 -0.087157 0.996197 0.000001 -0.996185 -0.087159 3749.dat
0 STEP
1 71 44.742960 -48.140320 -133.695900 0.000001 -0.000001 -0.999988 -0.996195 0.087159 -0.000001 0.087160 0.996182 -0.000001 4185.dat
1 0 44.742980 -48.140270 -133.694900 -0.000001 0.000000 0.999988 0.996195 0.087159 0.000001 -0.087160 0.996182 0.000000 2815.dat
1 0 60.000000 -41.167570 -54.000000 0.000001 0.000000 -1.000000 -0.996194 0.087160 -0.000001 0.087160 0.996194 0.000000 30391.dat
1 71 59.742790 -41.167520 -53.999520 0.000000 0.000000 -0.999988 0.087159 0.996194 0.000000 0.996182 -0.087160 0.000000 55982.dat
0 STEP
1 1 -50.255980 -76.781320 -70.960280 0.000000 0.000000 0.999988 -0.087159 0.996194 0.000000 -0.996182 -0.087160 0.000000 3894.dat
1 1 -50.255880 -92.469970 -250.273500 0.000000 0.000000 0.999988 -0.087159 0.996194 0.000000 -0.996182 -0.087160 0.000000 3701.dat
0 STEP
1 1 29.743090 -76.781480 -70.960440 0.000000 0.000000 0.999988 -0.087159 0.996194 0.000000 -0.996182 -0.087160 0.000000 3894.dat
1 1 29.743220 -92.469980 -250.273500 0.000000 0.000000 0.999988 -0.087159 0.996194 0.000000 -0.996182 -0.087160 0.000000 3701.dat
0 STEP
1 1 29.743200 -105.919400 -128.638000 0.000000 0.000000 1.000000 -0.087160 0.996194 0.000000 -0.996194 -0.087160 0.000000 3703.dat
1 1 -50.255950 -105.919500 -128.639700 0.000000 0.000000 1.000000 -0.087160 0.996194 0.000000 -0.996194 -0.087160 0.000000 3703.dat
0 STEP
1 0 39.743220 -99.443900 -169.357400 -1.000000 0.000000 0.000000 0.000000 0.996194 -0.087160 0.000000 -0.087160 -0.996195 2780.dat
1 0 -60.255940 -99.443970 -169.359100 -1.000000 0.000000 0.000000 0.000000 0.996194 -0.087160 0.000000 -0.087160 -0.996195 2780.dat
1 0 39.743190 -88.984740 -49.814060 -1.000000 0.000000 0.000000 0.000000 0.996194 -0.087160 0.000000 -0.087160 -0.996195 2780.dat
1 0 -60.255980 -88.984790 -49.815780 -1.000000 0.000000 0.000000 0.000000 0.996194 -0.087160 0.000000 -0.087160 -0.996195 2780.dat
0 STEP
1 15 49.743300 -88.984840 -49.814040 0.000001 1.000000 0.000001 -0.996194 0.000001 0.087159 0.087159 -0.000001 0.996194 64871.dat
1 15 -70.255840 -88.984910 -49.815770 0.000001 1.000000 0.000001 -0.996194 0.000001 0.087159 0.087159 -0.000001 0.996194 64871.dat
0 STEP
1 0 -60.255740 -76.782680 89.651460 -1.000000 0.000000 0.000000 0.000000 1.000000 0.000001 0.000000 0.000001 -1.000000 2780.dat
1 0 39.743400 -76.782660 89.653200 -1.000005 0.000000 0.000000 0.000000 0.999997 0.000000 0.000000 0.000001 -1.000000 2780.dat
1 19 -60.255780 -80.269060 49.803710 1.000000 -0.000001 -0.000001 -0.000001 0.074980 -0.997185 0.000001 0.997185 0.074980 3749.dat
1 19 39.743370 -80.268970 49.805260 -1.000005 -0.000001 0.000001 0.000001 0.000001 0.999997 -0.000001 1.000000 0.000000 3749.dat
0 STEP
1 1 -50.255700 -79.781880 49.764070 0.000001 1.000000 -0.000001 -0.997185 0.000001 0.074980 0.074980 0.000001 0.997185 32140.dat
1 1 29.743370 -79.781810 49.765900 0.000001 1.000005 -0.000001 -0.997182 0.000001 0.074980 0.074979 0.000001 0.997185 32140.dat
0 STEP
1 1 -60.255980 -103.429900 -8.399139 0.000000 0.000000 1.000000 -0.087160 0.996194 0.000000 -0.996194 -0.087160 0.000000 3709b.dat
1 1 -60.255920 -113.889100 -127.942500 0.000000 0.000000 1.000000 -0.087160 0.996194 0.000000 -0.996194 -0.087160 0.000000 3738.dat
0 STEP
1 1 -70.255990 -127.338600 -6.307300 0.000000 0.000000 1.000000 -0.087160 0.996194 0.000000 -0.996194 -0.087160 0.000000 3702.dat
1 1 -50.255900 -134.311400 -86.002870 0.000000 0.000000 1.000000 -0.087160 0.996194 0.000000 -0.996194 -0.087160 0.000000 3895.dat
0 STEP
1 1 39.743180 -113.889000 -127.940800 0.000000 0.000000 1.000000 -0.087160 0.996194 0.000000 -0.996195 -0.087160 0.000000 3738.dat
1 1 39.743190 -103.429700 -8.398000 -0.000001 0.000000 1.000000 -0.087160 0.996193 0.000000 -0.996194 -0.087160 -0.000001 3709b.dat
0 STEP
1 1 49.743080 -127.338600 -6.306110 -0.000001 0.000000 1.000000 -0.087160 0.996196 0.000000 -0.996194 -0.087160 -0.000001 3702.dat
1 1 29.743160 -134.311200 -86.001710 0.000000 0.000000 1.000000 -0.087160 0.996194 0.000000 -0.996194 -0.087160 0.000000 3895.dat
0 STEP
0 STEP
