0 Untitled Model
0 Name:  伸缩夹
0 Author:  
0 CustomBrick
0 NumOfBricks:  51
1 15 110.000100 -9.999960 -190.000000 -1.000000 0.000001 -0.000001 -0.000001 -1.000000 -0.000001 -0.000001 -0.000001 1.000000 32316.dat
1 0 110.000000 -19.999930 -230.000000 0.000000 0.000000 -1.000000 -1.000000 0.000000 0.000000 0.000000 1.000000 0.000000 2780.dat
1 0 110.000100 -20.000010 -150.000000 0.000000 0.000000 -1.000000 -1.000000 0.000000 0.000000 0.000000 1.000000 0.000000 2780.dat
1 15 110.000100 -30.000080 -90.000000 -1.000000 0.000001 -0.000001 0.000001 1.000000 0.000001 0.000001 0.000001 -1.000000 64871.dat
0 STEP
1 71 110.000200 -40.000150 -10.000010 0.000000 0.000000 1.000000 1.000000 0.000000 0.000000 0.000000 1.000000 0.000000 3673.dat
0 STEP
1 15 -69.999900 -30.000390 -9.999760 0.000000 -0.000001 1.000000 0.000000 -1.000000 -0.000001 1.000000 0.000000 0.000000 32316.dat
1 0 -29.999880 -40.000410 -9.999760 0.000000 0.000000 -1.000000 1.000000 0.000000 0.000000 0.000000 -1.000000 0.000000 2780.dat
1 15 30.000250 -50.000230 -9.999889 -0.000001 -0.000001 1.000000 0.000001 1.000000 0.000001 -1.000000 0.000001 -0.000001 64871.dat
0 STEP
1 71 110.000200 -40.000210 50.000120 0.000000 0.000000 1.000000 1.000000 0.000000 0.000000 0.000000 1.000000 0.000000 3673.dat
1 71 170.000200 -40.000090 -10.000010 0.000000 0.000000 1.000000 1.000000 0.000000 0.000000 0.000000 1.000000 0.000000 3673.dat
0 STEP
1 71 170.000400 -40.000150 50.000120 0.000000 0.000000 1.000000 1.000000 0.000000 0.000000 0.000000 1.000000 0.000000 3673.dat
1 15 170.000400 -30.000160 50.000120 -1.000000 0.000001 -0.000001 0.000001 1.000000 0.000001 0.000001 0.000001 -1.000000 32524.dat
0 STEP
1 15 170.000500 -50.000160 49.999820 -0.000001 -0.000001 1.000000 0.000001 1.000000 0.000001 -1.000000 0.000001 -0.000001 32524.dat
0 STEP
1 71 170.000500 -40.000210 110.000100 0.000000 0.000000 1.000000 1.000000 0.000000 0.000000 0.000000 1.000000 0.000000 3673.dat
1 71 230.000200 -40.000090 50.000000 0.000000 0.000000 1.000000 1.000000 0.000000 0.000000 0.000000 1.000000 0.000000 3673.dat
0 STEP
1 71 230.000400 -40.000150 110.000000 0.000000 0.000000 1.000000 1.000000 0.000000 0.000000 0.000000 1.000000 0.000000 3673.dat
1 15 230.000400 -30.000160 110.000000 -1.000000 0.000001 -0.000001 0.000001 1.000000 0.000001 0.000001 0.000001 -1.000000 32524.dat
0 STEP
1 15 230.000500 -50.000160 110.000100 0.000001 0.000001 -1.000000 -0.000001 -1.000000 -0.000001 -1.000000 0.000001 -0.000001 32524.dat
0 STEP
1 19 230.000500 -40.000210 170.000000 0.000001 -1.000000 0.000001 -1.000000 -0.000001 0.000001 -0.000001 -0.000001 -1.000000 3749.dat
1 19 290.000500 -40.000110 110.000100 -0.000001 -0.000001 -1.000000 1.000000 0.000001 -0.000001 0.000001 -1.000000 0.000001 3749.dat
0 STEP
1 71 290.000200 -40.000170 170.000200 0.000000 -1.000000 0.000000 1.000000 0.000000 0.000000 0.000000 0.000000 1.000000 3673.dat
1 1 290.000500 -30.000110 110.000100 1.000000 -0.000001 -0.000001 0.000001 1.000000 -0.000001 0.000001 0.000001 1.000000 32271.dat
0 STEP
1 1 230.000500 -50.000200 170.000000 0.000001 0.000001 1.000000 -0.000001 -1.000000 0.000001 1.000000 -0.000001 -0.000001 32271.dat
0 STEP
1 0 290.000400 -40.000270 190.000100 0.000000 0.000000 -1.000000 1.000000 0.000000 0.000000 0.000000 -1.000000 0.000000 2780.dat
1 0 350.000500 -60.000100 169.999900 0.000000 0.000000 -1.000000 1.000000 0.000000 0.000000 0.000000 -1.000000 0.000000 2780.dat
1 0 310.000500 -60.000050 169.999800 0.000000 0.000000 -1.000000 -1.000000 0.000000 0.000000 0.000000 1.000000 0.000000 2780.dat
1 0 290.000400 -40.000230 230.000100 0.000000 0.593517 -0.804821 1.000000 0.000000 0.000000 0.000000 -0.804822 -0.593517 2780.dat
0 STEP
1 15 330.000500 -70.000080 169.999800 0.000001 0.000001 -1.000000 0.000001 1.000000 0.000001 1.000000 -0.000001 0.000001 32523.dat
1 15 290.000400 -50.000260 210.000100 1.000000 -0.000001 0.000001 0.000001 1.000000 0.000001 -0.000001 -0.000001 1.000000 32523.dat
0 STEP
1 19 150.000400 -60.000160 49.999760 -0.000001 1.000000 -0.000001 -1.000000 -0.000001 0.000001 0.000001 0.000001 1.000000 3749.dat
1 19 270.000500 -60.000120 110.000100 -0.000001 1.000000 -0.000001 -1.000000 -0.000001 0.000001 0.000001 0.000001 1.000000 3749.dat
1 19 210.000600 -60.000110 49.999760 -0.000001 1.000000 -0.000001 -1.000000 -0.000001 0.000001 0.000001 0.000001 1.000000 3749.dat
1 19 150.000200 -60.000110 -10.000070 -0.000001 0.955350 0.295476 -1.000000 0.000000 -0.000002 -0.000002 -0.295476 0.955350 3749.dat
1 19 110.000200 -40.000190 29.999920 0.000000 0.000000 -1.000000 -1.000000 -0.000002 0.000000 -0.000002 1.000000 0.000000 3749.dat
1 19 70.000320 -60.000190 -9.999949 -0.000001 1.000000 -0.000001 -1.000000 -0.000001 0.000001 0.000001 0.000001 1.000000 3749.dat
1 19 210.000500 -60.000180 110.000100 -0.000001 1.000000 -0.000001 -1.000000 -0.000001 0.000001 0.000001 0.000001 1.000000 3749.dat
1 19 270.000500 -60.000180 169.999900 0.000001 0.000001 1.000000 -1.000000 -0.000001 0.000001 0.000001 -1.000000 0.000001 3749.dat
1 19 110.000100 -40.000060 -110.000000 0.000001 0.000001 1.000000 -1.000000 -0.000001 0.000001 0.000001 -1.000000 0.000001 3749.dat
1 19 110.000100 -40.000120 -50.000020 0.000001 0.000001 1.000000 -1.000000 -0.000001 0.000001 0.000001 -1.000000 0.000001 3749.dat
1 19 10.000240 -60.000260 -9.999949 0.000001 0.000001 1.000000 -1.000000 -0.000001 0.000001 0.000001 -1.000000 0.000001 3749.dat
0 STEP
1 14 10.000240 -65.000240 -10.000010 1.000000 0.000000 0.000000 0.000000 0.000000 1.000000 0.000000 -1.000000 0.000000 32123a.dat
1 14 110.000100 -45.480110 -50.000080 1.000000 0.000000 0.000000 0.000000 0.000000 1.000000 0.000000 -1.000000 0.000000 32123a.dat
1 14 110.000100 -45.000060 -110.000000 1.000000 0.000000 0.000000 0.000000 0.000000 1.000000 0.000000 -1.000000 0.000000 32123a.dat
1 14 270.000500 -66.330170 169.999900 1.000000 0.000000 0.000000 0.000000 0.000000 1.000000 0.000000 -1.000000 0.000000 32123a.dat
1 14 210.000500 -66.600190 110.000100 1.000000 0.000000 0.000000 0.000000 0.000000 -1.000000 0.000000 1.000000 0.000000 32123a.dat
1 14 110.000200 -45.000190 29.999920 1.000000 0.000000 0.000000 0.000000 0.000000 -1.000000 0.000000 1.000000 0.000000 32123a.dat
1 14 150.000400 -66.550180 49.999760 1.000000 0.000000 0.000000 0.000000 0.000000 -1.000000 0.000000 1.000000 0.000000 32123a.dat
1 14 270.000500 -66.590120 110.000100 1.000000 0.000000 0.000000 0.000000 0.000000 -1.000000 0.000000 1.000000 0.000000 32123a.dat
1 14 70.000320 -65.000180 -9.999949 1.000000 0.000000 0.000000 0.000000 0.000000 -1.000000 0.000000 1.000000 0.000000 32123a.dat
1 14 150.000200 -67.400100 -10.000070 0.955350 0.295476 0.000000 0.000000 0.000000 -1.000000 -0.295476 0.955350 0.000000 32123a.dat
1 14 210.000600 -66.270120 49.999760 1.000000 0.000000 0.000000 0.000000 0.000000 -1.000000 0.000000 1.000000 0.000000 32123a.dat
0 STEP
0 STEP
