0 Untitled Model
0 Name:  桁架结构2
0 Author:  
0 CustomBrick
0 NumOfBricks:  27
1 0 130.000200 -19.999710 150.000000 0.000000 -1.000000 0.000000 1.000000 0.000000 0.000000 0.000000 0.000000 1.000000 2780.dat
1 15 130.000300 -29.999630 49.999940 -1.000000 0.000001 -0.000001 -0.000001 -1.000000 -0.000001 -0.000001 -0.000001 1.000000 64290.dat
1 15 -10.000000 -9.999869 150.000200 -0.000001 -0.000001 1.000000 0.000001 1.000000 0.000001 -1.000000 0.000001 -0.000001 64871.dat
0 STEP
1 0 130.000200 -19.999700 -49.999600 0.000000 -1.000000 0.000000 1.000000 0.000000 0.000000 0.000000 0.000000 1.000000 2780.dat
1 15 -9.999430 -9.999829 -49.998840 0.000001 0.000001 -0.999998 -0.000001 -1.000000 -0.000001 -0.999998 0.000001 -0.000001 64871.dat
0 STEP
1 0 -149.999800 -19.999980 150.000400 0.000000 -1.000000 0.000000 1.000000 0.000000 0.000000 0.000000 0.000000 1.000000 2780.dat
1 0 -149.999900 -19.999940 -49.999850 0.000000 -1.000000 0.000000 1.000000 0.000000 0.000000 0.000000 0.000000 1.000000 2780.dat
0 STEP
1 15 -149.997700 -29.999940 49.998280 -1.000000 0.000001 -0.000001 -0.000001 -1.000000 -0.000001 -0.000001 -0.000001 1.000000 64290.dat
0 STEP
1 0 130.000300 -39.999640 49.999940 0.000000 0.000000 -0.999998 1.000000 0.000000 0.000000 0.000000 -0.999998 0.000000 2780.dat
1 0 -149.997700 -39.999950 49.998280 0.000000 0.000000 -0.999998 1.000000 0.000000 0.000000 0.000000 -0.999998 0.000000 2780.dat
1 4 -149.997700 -49.999950 49.998280 0.000000 0.999999 0.000000 -1.000000 0.000000 0.000000 0.000000 0.000000 0.999998 32034.dat
1 4 130.000300 -49.999640 49.999880 0.000000 0.999999 0.000000 -1.000000 0.000000 0.000000 0.000000 0.000000 0.999998 32034.dat
0 STEP
1 0 30.000500 -19.999790 -49.998780 0.000000 0.000000 -0.999998 1.000000 0.000000 0.000000 0.000000 -0.999998 0.000000 2780.dat
1 0 -49.999370 -19.999860 -49.998890 0.000000 0.000000 -0.999998 1.000000 0.000000 0.000000 0.000000 -0.999998 0.000000 2780.dat
0 STEP
1 15 -9.999360 -29.999890 -49.998950 0.000001 0.000000 -0.999998 0.000000 1.000000 0.000000 0.999999 0.000000 0.000001 32316.dat
0 STEP
1 71 -130.000000 -19.999970 150.000300 0.000000 0.000000 -0.999998 1.000000 0.000000 0.000000 0.000000 -0.999998 0.000000 3673.dat
1 71 110.000000 -19.999740 150.000200 0.000000 0.000000 -0.999998 1.000000 0.000000 0.000000 0.000000 -0.999998 0.000000 3673.dat
0 STEP
1 0 -130.000000 -29.999970 150.000300 0.000002 -0.939691 -0.342019 1.000000 0.000002 0.000001 0.000000 -0.342019 0.939692 32013.dat
1 0 109.999900 -29.999740 150.000000 0.000003 -0.866028 0.500001 1.000000 0.000002 -0.000001 0.000000 0.500001 0.866028 32013.dat
1 0 64.999660 -29.999610 72.057240 -0.499999 0.000001 0.866024 0.000001 1.000000 0.000000 -0.866024 0.000001 -0.499999 3707.dat
1 0 -99.218200 -30.000020 65.428040 0.342019 0.000000 0.939691 -0.000001 1.000000 0.000000 -0.939691 -0.000001 0.342019 3707.dat
0 STEP
1 19 19.999670 -41.529500 -5.885020 -0.000001 0.866024 -0.499999 1.000000 0.000000 -0.000001 -0.000001 -0.499999 -0.866024 3749.dat
1 19 -68.436520 -40.000090 -19.144140 -0.000001 0.939692 0.342019 1.000000 0.000001 0.000000 -0.000001 0.342019 -0.939692 3749.dat
1 4 -75.276840 -30.000060 -0.350290 0.000000 -0.939691 -0.342019 1.000000 -0.000001 0.000001 -0.000001 -0.342019 0.939691 32039.dat
1 4 29.999720 -29.999510 11.435510 0.000001 -0.866024 0.499999 1.000000 0.000000 -0.000001 0.000001 0.499999 0.866024 32039.dat
0 STEP
1 15 19.999670 -51.529510 -5.885020 0.000001 0.000001 -0.999999 0.000001 1.000000 0.000001 0.999999 -0.000001 0.000001 32523.dat
1 15 -68.436520 -50.000100 -19.144200 0.000001 -0.000001 -0.999999 0.000001 1.000000 -0.000001 0.999999 -0.000001 0.000001 32523.dat
0 STEP
0 STEP
