0 FILE 信号塔.io
0 Untitled Model
0 Name:  信号塔
0 Author:  
0 CustomBrick
0 NumOfBricks:  57
1 15 160.000100 -13.999990 30.000370 0.000001 0.000001 -1.000000 -1.000000 0.000001 -0.000001 0.000001 1.000000 0.000001 64871.dat
1 19 140.000100 -14.000020 50.000360 0.000000 0.000000 -1.000000 0.000000 1.000000 0.000000 1.000000 0.000000 0.000000 32556.dat
1 19 100.000100 -14.000020 50.000360 0.000000 0.000000 -1.000000 0.000000 1.000000 0.000000 1.000000 0.000000 0.000000 32556.dat
0 STEP
1 1 120.000100 -24.000020 50.000360 1.000000 0.000000 0.000000 0.000000 1.000000 0.000000 0.000000 0.000000 1.000000 3701.dat
1 15 160.000100 -13.999990 70.000300 0.000001 0.000001 -1.000000 -1.000000 0.000001 -0.000001 0.000001 1.000000 0.000001 64871.dat
0 STEP
1 1 120.000100 -48.000030 50.000360 1.000000 0.000000 0.000000 0.000000 1.000000 0.000000 0.000000 0.000000 1.000000 3700.dat
1 0 120.000100 -38.000030 40.000370 0.000000 -1.000000 0.000000 0.000000 0.000000 1.000000 -1.000000 0.000000 0.000000 2780.dat
0 STEP
1 1 120.000100 -64.000030 50.000360 1.000000 0.000000 0.000000 0.000000 1.000000 0.000000 0.000000 0.000000 1.000000 3023.dat
1 1 120.000100 -56.000030 50.000360 1.000000 0.000000 0.000000 0.000000 1.000000 0.000000 0.000000 0.000000 1.000000 3023.dat
0 STEP
1 1 120.000100 -88.000030 50.000360 1.000000 0.000000 0.000000 0.000000 1.000000 0.000000 0.000000 0.000000 1.000000 3700.dat
1 0 120.000100 -78.000040 40.000370 0.000000 -1.000000 0.000000 0.000000 0.000000 1.000000 -1.000000 0.000000 0.000000 2780.dat
0 STEP
1 15 120.000000 -178.000000 30.000490 1.000000 -0.000001 0.000001 -0.000001 -0.000001 1.000000 -0.000001 -1.000000 -0.000001 64871.dat
1 19 120.000100 -14.000000 20.000370 0.000001 -1.000000 0.000001 0.000001 0.000001 1.000000 -1.000000 -0.000001 0.000001 3749.dat
0 STEP
1 19 120.000000 -14.000000 -39.999880 -0.000001 1.000000 -0.000001 0.000001 0.000001 1.000002 1.000000 0.000001 -0.000001 3749.dat
1 4 120.000000 -13.999980 -9.999880 -1.000000 0.000000 0.000000 0.000000 -1.000002 0.000000 0.000000 0.000000 1.000000 32034.dat
0 STEP
1 15 160.000000 -13.999980 -50.000000 0.000001 0.000001 -1.000000 -1.000000 0.000001 -0.000001 0.000001 1.000000 0.000001 64871.dat
1 19 100.000000 -14.000010 -70.000000 0.000000 0.000000 1.000000 0.000000 1.000000 0.000000 -1.000000 0.000000 0.000000 32556.dat
1 19 140.000000 -14.000010 -70.000000 0.000000 0.000000 1.000000 0.000000 1.000000 0.000000 -1.000000 0.000000 0.000000 32556.dat
0 STEP
1 19 119.999900 -278.000000 20.000550 0.000001 -1.000000 0.000001 0.000001 0.000001 1.000000 -1.000000 -0.000001 0.000001 3749.dat
1 19 119.999900 -298.000000 20.000490 0.000001 -1.000000 0.000001 0.000001 0.000001 1.000000 -1.000000 -0.000001 0.000001 3749.dat
0 STEP
1 4 119.999900 -298.000000 -9.999510 0.000000 1.000000 0.000000 -1.000000 0.000000 0.000000 0.000000 0.000000 1.000000 32034.dat
1 4 119.999800 -278.000000 -9.999510 0.000000 1.000000 0.000000 -1.000000 0.000000 0.000000 0.000000 0.000000 1.000000 32034.dat
0 STEP
1 71 119.999900 -317.940000 -9.999390 -1.000000 0.000000 -0.000001 -0.000001 0.000000 1.000000 0.000000 1.000000 0.000000 3713.dat
1 0 119.999800 -364.530000 -9.999510 0.000000 1.000000 0.000000 1.000000 0.000000 0.000000 0.000000 0.000000 -1.000000 3708.dat
0 STEP
1 0 119.999900 -257.200000 -9.999510 1.000000 0.000000 0.000000 0.000000 0.000000 1.000000 0.000000 -1.000000 0.000000 32270.dat
0 STEP
1 0 119.999900 -198.000000 40.000490 0.000000 -1.000000 0.000000 0.000000 0.000000 1.000000 -1.000000 0.000000 0.000000 2780.dat
1 0 119.999900 -158.000000 40.000430 0.000000 -1.000000 0.000000 0.000000 0.000000 1.000000 -1.000000 0.000000 0.000000 2780.dat
1 0 120.000100 -178.000000 -18.760130 0.000000 0.000000 1.000000 0.000000 1.000000 0.000000 -1.000000 0.000000 0.000000 3707.dat
0 STEP
1 71 120.000100 -238.000000 49.629760 0.925210 -0.379455 0.000001 0.379455 0.925210 0.000000 -0.000001 0.000000 1.000000 3713.dat
1 0 120.000000 -238.000000 -20.370120 0.000000 -0.379455 0.925210 0.000000 0.925210 0.379455 -1.000000 0.000000 0.000000 3707.dat
0 STEP
1 19 120.000200 -298.000000 -40.000240 -0.000001 1.000000 -0.000001 0.000001 0.000001 1.000000 1.000000 0.000001 -0.000001 3749.dat
1 19 120.000200 -278.000000 -40.000120 -0.000001 1.000000 -0.000001 0.000001 0.000001 1.000000 1.000000 0.000001 -0.000001 3749.dat
1 0 120.000000 -238.000000 -30.370240 -0.379455 -0.925210 0.000000 0.925210 -0.379455 0.000000 0.000000 0.000000 1.000000 32270.dat
0 STEP
1 15 120.000100 -178.000000 -50.000120 -1.000000 0.000001 -0.000001 -0.000001 -0.000001 1.000000 0.000001 1.000000 0.000001 64871.dat
1 0 120.000000 -38.000020 -60.000000 0.000000 -1.000000 0.000000 0.000000 0.000000 -1.000000 1.000000 0.000000 0.000000 2780.dat
0 STEP
1 1 120.000000 -24.000000 -70.000000 1.000000 0.000000 0.000000 0.000000 1.000000 0.000000 0.000000 0.000000 1.000000 3701.dat
1 1 120.000000 -48.000020 -70.000000 1.000000 0.000000 0.000000 0.000000 1.000000 0.000000 0.000000 0.000000 1.000000 3700.dat
0 STEP
1 1 120.000000 -56.000020 -70.000000 1.000000 0.000000 0.000000 0.000000 1.000000 0.000000 0.000000 0.000000 1.000000 3023.dat
1 1 120.000000 -64.000020 -70.000000 1.000000 0.000000 0.000000 0.000000 1.000000 0.000000 0.000000 0.000000 1.000000 3023.dat
0 STEP
1 1 120.000000 -88.000030 -70.000000 1.000000 0.000000 0.000000 0.000000 1.000000 0.000000 0.000000 0.000000 1.000000 3700.dat
1 0 120.000000 -78.000020 -60.000000 0.000000 -1.000000 0.000000 0.000000 0.000000 -1.000000 1.000000 0.000000 0.000000 2780.dat
0 STEP
1 15 160.000000 -13.999980 -90.000000 0.000001 0.000001 -1.000000 -1.000000 0.000001 -0.000001 0.000001 1.000000 0.000001 64871.dat
0 STEP
1 71 120.000000 -178.000000 -88.760120 1.000000 0.000000 0.000001 0.000000 1.000000 0.000000 -0.000001 0.000000 1.000000 3713.dat
1 72 120.000100 -178.000000 -68.760140 -1.000000 0.000000 0.000000 0.000000 -1.000000 0.000000 0.000000 0.000000 1.000000 3647.dat
0 STEP
1 71 120.000000 -238.000000 -90.370120 0.925210 -0.379455 0.000000 0.379455 0.925210 0.000000 0.000000 0.000000 1.000000 3713.dat
1 71 120.000000 -238.000000 -70.370120 -0.379456 -0.925210 0.000000 0.925210 -0.379456 0.000000 0.000000 0.000000 1.000000 3649.dat
0 STEP
1 71 119.999900 -337.450100 -9.999510 -1.000000 0.000000 -0.000001 -0.000001 0.000000 1.000000 0.000000 1.000000 0.000000 3713.dat
1 71 119.999800 -357.530100 -9.999510 1.000000 0.000000 0.000000 0.000000 0.000000 1.000000 0.000000 -1.000000 0.000000 3649.dat
0 STEP
1 71 119.999800 -392.710100 -9.999510 1.000000 0.000000 0.000000 0.000000 0.000000 -1.000000 0.000000 1.000000 0.000000 4185.dat
1 71 119.999800 -377.800000 -9.999510 1.000000 0.000000 0.000001 -0.000001 0.000000 1.000000 0.000000 -1.000000 0.000000 3713.dat
0 STEP
1 72 102.499800 -396.710100 -19.999510 0.000001 0.000000 1.000000 1.000000 0.000000 -0.000001 0.000000 1.000000 0.000000 32002.dat
1 72 119.999800 -396.710100 10.000490 0.000001 0.000000 1.000000 1.000000 0.000000 -0.000001 0.000000 1.000000 0.000000 32002.dat
1 72 137.300000 -426.710100 -19.999510 0.000000 1.000000 0.000000 1.000000 0.000000 0.000000 0.000000 0.000000 -1.000000 6587.dat
0 STEP
1 16 -79.982060 -92.539370 282.013400 0.000000 0.000000 1.000000 0.000000 1.000000 0.000000 -1.000000 0.000000 0.000000 submodel group 9 copy copy copy
1 15 119.999500 -178.000000 41.000000 1.000000 0.000000 0.000000 0.000000 1.000000 0.000000 0.000000 0.000000 1.000000 dx0056.dat.dat
0 STEP
0 STEP
0 NOFILE
0 FILE SubModel Group 9 Copy Copy Copy
0 SubModel Group 9 Copy Copy Copy
0 Name:  SubModel Group 9 Copy Copy Copy
0 Author:  
0 CustomBrick
0 NumOfBricks:  3
1 72 10.000000 -1.128810 -10.000000 1.000000 0.000000 0.000000 0.000000 0.000000 -1.000000 0.000000 1.000000 0.000000 dch003.dat
1 71 -27.466620 -79.717990 29.427020 1.000000 0.000000 0.000000 0.000000 0.000000 -1.000000 0.000000 1.000000 0.000000 dch004.dat
1 25 7.837010 13.484720 -9.965000 1.000000 0.000000 0.000000 0.000000 0.000000 -1.000000 0.000000 1.000000 0.000000 dch005.dat
0 NOFILE
