0 FILE 游标卡尺.io
0 Untitled Model
0 Name:  游标卡尺
0 Author:  
0 CustomBrick
0 NumOfBricks:  55
1 0 26.586410 -155.091200 -71.977290 0.000000 0.000000 -1.000000 0.000000 1.000000 0.000000 1.000000 0.000000 0.000000 2780.dat
1 0 -193.413300 -155.091400 -71.977100 0.000000 0.000000 -1.000000 0.000000 1.000000 0.000000 1.000000 0.000000 0.000000 2780.dat
1 15 -113.413500 -155.091300 -61.977180 0.000001 0.000001 -1.000000 -1.000000 0.000001 -0.000001 0.000001 1.000000 0.000001 64871.dat
0 STEP
1 0 -253.413300 -155.091400 -71.977120 0.000000 0.000000 -1.000000 0.000000 1.000000 0.000000 1.000000 0.000000 0.000000 2780.dat
1 0 -213.413300 -155.091400 -71.977100 0.000000 0.000000 -1.000000 0.000000 1.000000 0.000000 1.000000 0.000000 0.000000 2780.dat
1 15 -273.413300 -155.091400 -81.977000 0.000001 0.000001 -1.000000 -1.000000 0.000001 -0.000001 0.000001 1.000000 0.000001 32524.dat
0 STEP
1 0 86.586420 -155.091100 -71.977340 0.000000 0.000000 -1.000000 0.000000 1.000000 0.000000 1.000000 0.000000 0.000000 2780.dat
1 0 46.586440 -155.091100 -71.977350 0.000000 0.000000 -1.000000 0.000000 1.000000 0.000000 1.000000 0.000000 0.000000 2780.dat
1 15 -53.413320 -155.091200 -81.976700 0.000001 0.000001 -1.000000 -1.000000 0.000001 -0.000001 0.000001 1.000000 0.000001 64871.dat
0 STEP
1 15 126.586400 -155.091100 -61.977460 0.000001 0.000001 -1.000000 -1.000000 0.000001 -0.000001 0.000001 1.000000 0.000001 40490.dat
1 0 146.586500 -155.091000 -71.977580 0.000000 0.000000 -1.000000 0.000000 1.000000 0.000000 1.000000 0.000000 0.000000 2780.dat
1 0 106.586500 -155.091100 -71.977460 0.000000 0.000000 -1.000000 0.000000 1.000000 0.000000 1.000000 0.000000 0.000000 2780.dat
0 STEP
1 15 186.586500 -155.091000 -81.977580 0.000001 0.000001 -1.000000 -1.000000 0.000001 -0.000001 0.000001 1.000000 0.000001 40490.dat
1 0 266.586500 -155.090900 -71.977640 0.000000 0.000000 -1.000000 0.000000 1.000000 0.000000 1.000000 0.000000 0.000000 2780.dat
1 0 226.586500 -155.090900 -71.977640 0.000000 0.000000 -1.000000 0.000000 1.000000 0.000000 1.000000 0.000000 0.000000 2780.dat
0 STEP
1 15 246.586500 -155.091100 -61.977740 0.000001 0.000001 -1.000000 -1.000000 0.000001 -0.000001 0.000001 1.000000 0.000001 32523.dat
1 15 -313.413400 -155.091500 -61.977000 0.000001 0.000001 -1.000000 -1.000000 0.000001 -0.000001 0.000001 1.000000 0.000001 32523.dat
1 0 -293.413300 -155.091500 -71.977000 0.000000 0.000000 -1.000000 0.000000 1.000000 0.000000 1.000000 0.000000 0.000000 2780.dat
1 1 -333.413400 -155.091500 -61.977000 0.000000 0.000000 -1.000000 0.000000 1.000000 0.000000 1.000000 0.000000 0.000000 6558.dat
0 STEP
1 19 -273.413300 -155.091400 -71.977000 -0.000001 0.897262 -0.441497 0.000001 0.441497 0.897262 1.000000 0.000000 -0.000001 3749.dat
1 1 -254.612100 -12.100300 -61.977120 0.891555 0.000000 -0.452911 -0.452911 0.000001 -0.891555 0.000001 1.000000 0.000001 6629.dat
0 STEP
1 1 -300.024200 -101.377700 -41.976880 0.638762 -0.000001 -0.769404 -0.769404 -0.000001 -0.638763 0.000000 1.000000 -0.000002 32140.dat
1 19 -299.903300 -101.255800 -51.977000 -0.000001 0.809018 -0.587784 0.000001 0.587784 0.809018 1.000000 0.000000 -0.000001 3749.dat
0 STEP
1 16 -180.000000 -1.797840 -80.000080 1.000000 0.000000 0.000000 0.000000 1.000000 0.000000 0.000000 0.000000 1.000000 submodel group 1
0 STEP
0 STEP
0 NOFILE
0 FILE SubModel Group 1
0 SubModel Group 1
0 Name:  SubModel Group 1
0 Author:  
0 CustomBrick
0 NumOfBricks:  32
1 71 -2.413390 -105.293400 3.233040 1.000000 0.000000 0.000001 0.000000 1.000000 0.000000 -0.000001 0.000000 1.000000 4185.dat
1 71 -2.413390 -105.293400 13.203070 1.000000 0.000000 0.000001 0.000000 1.000000 0.000000 -0.000001 0.000000 1.000000 4185.dat
1 71 -2.413390 -105.293400 8.232980 0.000000 0.000000 1.000000 0.000000 1.000000 0.000000 -1.000000 0.000000 0.000000 32073.dat
1 0 -2.413360 -105.293400 3.233160 -1.000000 0.000000 -0.000001 0.000000 1.000000 0.000000 0.000001 0.000000 -1.000000 2815.dat
1 0 -2.413360 -105.293900 13.202340 -1.000000 0.000000 -0.000001 0.000000 1.000002 0.000000 0.000001 0.000000 -1.000002 2815.dat
0 STEP
1 14 -2.413390 -105.293400 23.232980 0.000000 1.000000 0.000000 -1.000000 0.000000 0.000000 0.000000 0.000000 1.000000 32123a.dat
1 14 -2.413390 -105.293400 -6.827020 0.000000 1.000000 0.000000 -1.000000 0.000000 0.000000 0.000000 0.000000 1.000000 32123a.dat
0 STEP
1 1 -2.413390 -115.293400 -21.976860 1.000000 0.000000 0.000000 0.000000 1.000000 0.000000 0.000000 0.000000 1.000000 3701.dat
1 1 -2.413390 -115.293400 38.022960 1.000000 0.000000 0.000000 0.000000 1.000000 0.000000 0.000000 0.000000 1.000000 3701.dat
1 14 -2.413390 -105.293400 53.262950 1.000000 0.000000 0.000000 0.000000 1.000000 0.000000 0.000000 0.000000 1.000000 32123a.dat
1 14 -2.413380 -105.293400 -37.306810 1.000000 0.000000 0.000000 0.000000 1.000000 0.000000 0.000000 0.000000 1.000000 32123a.dat
0 STEP
1 1 -2.413390 -139.293400 -21.976860 1.000000 0.000000 0.000000 0.000000 1.000000 0.000000 0.000000 0.000000 1.000000 3701.dat
1 1 -2.413390 -139.293400 38.022960 1.000000 0.000000 0.000000 0.000000 1.000000 0.000000 0.000000 0.000000 1.000000 3701.dat
0 STEP
1 0 17.586610 -129.293400 -31.976250 0.000000 0.000000 -1.000000 0.000000 1.000000 0.000000 1.000000 0.000000 0.000000 2780.dat
1 0 -2.413390 -129.293400 -31.976860 0.000000 0.000000 -1.000000 0.000000 1.000000 0.000000 1.000000 0.000000 0.000000 2780.dat
1 15 -22.413860 -129.293400 -41.975220 0.000001 0.000001 -0.999997 -1.000000 0.000001 -0.000001 0.000001 0.999997 0.000001 32316.dat
0 STEP
1 0 -62.413300 -129.293500 -31.976610 0.000000 0.000000 -1.000000 0.000000 1.000000 0.000000 1.000000 0.000000 0.000000 2780.dat
1 15 -57.184100 -69.521780 -21.976740 0.996194 -0.000001 0.087154 -0.087154 -0.000001 0.996194 -0.000001 -1.000000 -0.000001 32524.dat
0 STEP
1 19 -22.413360 -105.293400 -31.976860 0.000001 -0.919135 0.393943 0.000001 0.393943 0.919135 -1.000000 -0.000001 0.000001 3749.dat
1 71 -22.413340 -105.293400 -41.976810 -0.393941 -0.000001 -0.919136 -0.919136 -0.000001 0.393941 -0.000001 1.000000 0.000000 33299.dat
0 STEP
1 1 -2.413390 -163.293400 38.022960 1.000000 0.000000 0.000000 0.000000 1.000000 0.000000 0.000000 0.000000 1.000000 3894.dat
1 1 -2.413390 -163.293400 -21.976860 1.000000 0.000000 0.000000 0.000000 1.000000 0.000000 0.000000 0.000000 1.000000 3894.dat
0 STEP
1 16 17.586560 -163.293400 8.023060 1.000000 0.000000 0.000000 0.000000 1.000000 0.000000 0.000000 0.000000 1.000000 submodel group 2
0 STEP
0 NOFILE
0 FILE SubModel Group 2
0 SubModel Group 2
0 Name:  SubModel Group 2
0 Author:  
0 CustomBrick
0 NumOfBricks:  10
1 1 0.000020 -24.000000 9.999949 1.000000 0.000000 0.000000 0.000000 1.000000 0.000000 0.000000 0.000000 1.000000 3894.dat
1 0 -19.999860 -14.000000 0.000190 0.000000 0.000000 -1.000000 0.000000 1.000000 0.000000 1.000000 0.000000 0.000000 2780.dat
1 0 20.000020 -14.000000 -0.000040 0.000000 0.000000 -1.000000 0.000000 1.000000 0.000000 1.000000 0.000000 0.000000 2780.dat
0 STEP
1 1 0.000020 -24.000000 -9.999990 1.000000 0.000000 0.000000 0.000000 1.000000 0.000000 0.000000 0.000000 1.000000 3894.dat
0 STEP
1 0 39.999930 -14.000000 -19.999980 0.000000 0.000000 -1.000000 0.000000 1.000000 0.000000 1.000000 0.000000 0.000000 2780.dat
1 0 -40.000010 -14.000000 19.999890 0.000000 0.000000 -1.000000 0.000000 1.000000 0.000000 1.000000 0.000000 0.000000 2780.dat
1 0 -40.000070 -14.000000 -19.999990 0.000000 0.000000 -1.000000 0.000000 1.000000 0.000000 1.000000 0.000000 0.000000 2780.dat
1 0 39.999930 -14.000000 19.999890 0.000000 0.000000 -1.000000 0.000000 1.000000 0.000000 1.000000 0.000000 0.000000 2780.dat
0 STEP
1 1 0.000020 -24.000000 29.999890 1.000000 0.000000 0.000000 0.000000 1.000000 0.000000 0.000000 0.000000 1.000000 3702.dat
1 1 0.000020 -24.000000 -29.999810 1.000000 0.000000 0.000000 0.000000 1.000000 0.000000 0.000000 0.000000 1.000000 3702.dat
0 STEP
0 NOFILE
