0 FILE 俯卧撑.io
0 Untitled Model
0 Name:  俯卧撑
0 Author:  
0 CustomBrick
0 NumOfBricks:  110
1 1 46.998800 -48.000180 125.431700 1.000000 0.000000 0.000000 0.000000 1.000000 0.000000 0.000000 0.000000 1.000000 3703.dat
1 19 -93.001270 -38.000140 135.431600 -0.000001 1.000000 -0.000001 0.000001 0.000001 1.000000 1.000000 0.000001 -0.000001 3749.dat
1 0 -13.001190 -38.000160 135.431700 0.000000 0.000000 -1.000000 0.000000 1.000000 0.000000 1.000000 0.000000 0.000000 2780.dat
0 STEP
1 19 186.998700 -38.000150 135.431600 -0.000001 1.000000 -0.000001 0.000001 0.000001 1.000000 1.000000 0.000001 -0.000001 3749.dat
1 0 6.998800 -38.000160 135.431700 0.000000 0.000000 -1.000000 0.000000 1.000000 0.000000 1.000000 0.000000 0.000000 2780.dat
0 STEP
1 71 -93.001270 -38.000140 155.431600 -1.000000 0.000000 0.000000 0.000000 1.000000 0.000000 0.000000 0.000000 -1.000000 55982.dat
1 0 186.998700 -38.000060 155.688300 0.000000 -1.000000 0.000000 -1.000000 0.000000 -0.000001 0.000001 0.000000 -1.000000 30391.dat
1 71 186.998700 -38.000150 155.431600 -1.000000 0.000000 0.000000 0.000000 1.000000 0.000000 0.000000 0.000000 -1.000000 55982.dat
1 0 -93.001270 -38.000020 155.688400 0.000000 -1.000000 0.000000 -1.000000 0.000000 -0.000001 0.000001 0.000000 -1.000000 30391.dat
0 STEP
1 1 -13.001110 -24.000170 55.431690 0.000000 0.000000 -1.000000 0.000000 1.000000 0.000000 1.000000 0.000000 -0.000001 3738.dat
1 1 -93.000000 -24.000230 55.430220 0.000000 0.000000 1.000003 0.000000 1.000000 0.000000 -1.000003 0.000000 0.000000 3738.dat
0 STEP
1 1 106.998900 -24.000180 55.431680 0.000000 0.000000 -1.000000 0.000000 1.000000 0.000000 1.000000 0.000000 -0.000001 3738.dat
1 1 187.000100 -24.000240 55.429900 0.000000 0.000000 1.000000 0.000000 1.000000 0.000000 -1.000000 0.000000 0.000000 3738.dat
0 STEP
1 1 47.000020 -48.000240 -14.569970 1.000000 0.000000 0.000000 0.000000 1.000000 0.000000 0.000000 0.000000 1.000000 3703.dat
1 1 7.000020 -48.000240 5.430040 1.000000 0.000000 0.000000 0.000000 1.000000 0.000000 0.000000 0.000000 1.000000 3895.dat
0 STEP
1 19 -92.999880 -38.000220 -24.569960 0.000001 -1.000000 0.000001 0.000001 0.000001 1.000000 -1.000000 -0.000001 0.000001 3749.dat
1 19 187.000100 -38.000230 -24.569970 0.000001 -1.000000 0.000001 0.000001 0.000001 1.000000 -1.000000 -0.000001 0.000001 3749.dat
1 0 -92.999880 -38.000270 -44.826610 0.000000 1.000000 0.000000 -1.000000 0.000000 -0.000001 -0.000001 0.000000 1.000000 30391.dat
1 71 -92.999880 -38.000220 -44.569960 1.000000 0.000000 0.000000 0.000000 1.000000 0.000000 0.000000 0.000000 1.000000 55982.dat
1 0 187.000100 -38.000110 -44.826680 0.000000 -1.000000 0.000000 1.000000 0.000000 0.000001 -0.000001 0.000000 1.000000 30391.dat
1 71 187.000100 -38.000230 -44.569970 -1.000000 0.000000 0.000000 0.000000 -1.000000 0.000000 0.000000 0.000000 1.000000 55982.dat
0 STEP
1 0 -32.999980 -38.000250 35.090140 0.000000 0.000000 1.000000 0.000000 1.000000 0.000000 -1.000000 0.000000 0.000000 3708.dat
1 71 -32.999980 -38.000260 -35.319960 1.000000 0.000000 0.000001 0.000000 1.000000 0.000000 -0.000001 0.000000 1.000000 3713.dat
0 STEP
1 0 87.000000 -38.000240 -24.569970 0.000000 0.000000 -1.000000 0.000000 1.000000 0.000000 1.000000 0.000000 0.000000 2780.dat
1 0 7.000020 -38.000230 -24.569960 0.000000 0.000000 -1.000000 0.000000 1.000000 0.000000 1.000000 0.000000 0.000000 2780.dat
1 1 27.000080 -38.000240 -34.570090 0.000000 0.000000 1.000000 0.000000 1.000000 0.000000 -1.000000 0.000000 0.000000 6558.dat
0 STEP
1 16 49.097720 -29.000240 4.643250 1.000000 0.000000 0.000000 0.000000 1.000000 0.000000 0.000000 0.000000 1.000000 submodel group 2
0 STEP
1 1 -33.000000 -38.000280 -55.000000 0.000001 0.000001 1.000000 -1.000000 0.000001 0.000001 -0.000001 -1.000000 0.000001 32140.dat
1 0 -12.999980 -38.000260 -65.000000 0.000000 0.000000 -1.000000 0.000000 1.000000 0.000000 1.000000 0.000000 0.000000 2780.dat
1 0 7.000020 -38.000240 -65.000000 0.000000 0.000000 -1.000000 0.000000 1.000000 0.000000 1.000000 0.000000 0.000000 2780.dat
0 STEP
1 1 47.000080 -38.000280 -74.909860 -1.000000 0.000000 0.000000 0.000000 0.000000 1.000000 0.000000 1.000000 0.000000 32009.dat
0 STEP
1 16 78.969300 -119.940300 41.030150 1.000000 0.000000 0.000000 0.000000 1.000000 0.000000 0.000000 0.000000 1.000000 submodel group 1
0 STEP
1 1 47.000030 -38.000260 144.890100 -1.000000 0.000000 0.000000 0.000000 0.000000 1.000000 0.000000 1.000000 0.000000 32009.dat
0 STEP
1 15 98.000000 -78.242030 5.000000 0.000000 0.000000 1.000000 1.000000 0.000000 0.000000 0.000000 1.000000 0.000000 dx0084.dat.dat
1 16 308.000000 0.000000 10.000000 0.000000 0.000000 -1.000000 0.000000 1.000000 0.000000 1.000000 0.000000 0.000000 submodel group 9 copy copy copy
0 STEP
0 STEP
0 NOFILE
0 FILE SubModel Group 2
0 SubModel Group 2
0 Name:  SubModel Group 2
0 Author:  
0 CustomBrick
0 NumOfBricks:  26
1 1 -42.097700 -49.000000 0.396530 0.000000 0.000000 1.000000 0.000000 -1.000000 0.000000 1.000000 0.000000 0.000000 32184.dat
1 14 -26.677840 -48.999980 0.396530 0.000000 0.000000 -1.000000 0.000000 -1.000000 0.000000 -1.000000 0.000000 0.000000 32123a.dat
1 71 -2.917700 -48.999980 0.396530 -1.000000 0.000000 0.000000 0.000000 1.000000 0.000000 0.000000 0.000000 -1.000000 44294.dat
0 STEP
1 71 -2.317800 -48.999980 0.396530 0.000000 0.000000 1.000000 0.000000 1.000000 0.000000 -1.000000 0.000000 0.000000 4716.dat
1 71 -62.687730 -49.000000 0.396530 0.000001 0.000000 -1.000000 0.000000 1.000000 0.000000 1.000000 0.000000 0.000001 3713.dat
0 STEP
1 1 37.902280 -49.000020 0.036540 0.000000 0.000000 -1.000000 0.000000 -1.000000 0.000000 -1.000000 0.000000 0.000000 32184.dat
1 14 22.652280 -48.999980 0.396530 0.000000 0.000000 -1.000000 0.000000 -1.000000 0.000000 -1.000000 0.000000 0.000000 32123a.dat
0 STEP
1 72 -2.097700 -68.999980 -14.493550 1.000000 0.000000 0.000000 0.000000 0.000000 -1.000000 0.000000 1.000000 0.000000 99773.dat
1 71 37.902340 -69.000000 -9.963520 0.000000 -1.000000 0.000000 0.000000 0.000000 1.000000 -1.000000 0.000000 0.000000 4519.dat
1 71 -42.097700 -68.999980 -9.603530 0.000000 -1.000000 0.000000 0.000000 0.000000 1.000000 -1.000000 0.000000 0.000000 4519.dat
0 STEP
1 71 37.902350 -69.000000 -29.963520 -1.000000 0.000000 -0.000001 0.000000 1.000000 0.000000 0.000001 0.000000 -1.000000 3713.dat
1 71 -42.097690 -68.999980 -29.883530 -1.000000 0.000000 -0.000001 0.000000 1.000000 0.000000 0.000001 0.000000 -1.000000 3713.dat
0 STEP
1 72 -2.097640 -88.999950 0.086960 1.000000 0.000000 0.000000 0.000000 1.000000 0.000000 0.000000 0.000000 1.000000 3648b.dat
1 71 -2.097700 -89.000060 -29.913520 1.000000 0.000000 0.000001 0.000000 1.000000 0.000000 -0.000001 0.000000 1.000000 3713.dat
1 71 -2.097640 -89.000060 10.086470 0.000000 0.000000 1.000000 0.000000 1.000000 0.000000 -1.000000 0.000000 0.000000 32073.dat
0 STEP
1 72 -2.097640 -68.999980 14.926380 1.000000 0.000000 0.000000 0.000000 0.000000 -1.000000 0.000000 1.000000 0.000000 99773.dat
1 14 -2.097640 -89.000060 25.086480 1.000000 0.000000 0.000000 0.000000 -1.000000 0.000000 0.000000 0.000000 -1.000000 32123a.dat
0 STEP
1 72 -2.097640 -68.999980 45.376400 -1.000000 0.000000 0.000000 0.000000 -1.000000 0.000000 0.000000 0.000000 1.000000 6575.dat
1 72 -2.097640 -68.999980 35.156480 -1.000000 0.000000 0.000000 0.000000 -1.000000 0.000000 0.000000 0.000000 1.000000 6575.dat
1 14 -2.097640 -89.000060 55.966480 0.000000 1.000000 0.000000 -1.000000 0.000000 0.000000 0.000000 0.000000 1.000000 32123a.dat
0 STEP
1 0 37.902280 -29.000000 -9.213340 0.000000 0.000000 1.000000 0.000000 1.000000 0.000000 -1.000000 0.000000 0.000000 3705.dat
1 71 -42.097700 -29.000020 -39.213330 -1.000000 -0.000001 0.000001 0.000001 -0.000001 1.000000 -0.000001 1.000000 0.000001 60483.dat
1 71 37.902280 -29.000020 -39.213340 -1.000000 -0.000001 0.000001 0.000001 -0.000001 1.000000 -0.000001 1.000000 0.000001 60483.dat
1 71 -42.097700 -29.000000 -19.213340 0.000000 -1.000000 0.000000 0.000000 0.000000 1.000000 -1.000000 0.000000 -0.000001 4519.dat
0 STEP
1 0 47.902280 -49.000000 20.786540 -1.000000 0.000000 0.000000 0.000000 1.000000 0.000000 0.000000 0.000000 -1.000000 2780.dat
1 0 37.902280 -29.000000 20.786540 0.000000 0.000000 -1.000000 0.000000 -1.000000 0.000000 -1.000000 0.000000 0.000000 6536.dat
0 STEP
0 NOFILE
0 FILE SubModel Group 1
0 SubModel Group 1
0 Name:  SubModel Group 1
0 Author:  
0 CustomBrick
0 NumOfBricks:  49
1 1 28.029410 -115.391800 4.124810 0.000000 0.000000 1.000007 0.000000 1.000002 0.000000 -1.000000 0.000000 0.000000 32001.dat
1 1 8.029360 -107.391800 4.124810 0.000000 0.000000 1.000007 0.000000 1.000002 0.000000 -1.000000 0.000000 0.000000 3709b.dat
0 STEP
1 1 -31.970630 -115.391700 -35.875190 1.000007 0.000000 0.000000 0.000000 1.000002 0.000000 0.000000 0.000000 1.000000 3709b.dat
1 1 -71.972030 -107.391800 4.124570 0.000000 0.000000 1.000007 0.000000 1.000002 0.000000 -1.000000 0.000000 0.000000 3709b.dat
0 STEP
1 1 -91.978410 -115.391600 4.124570 0.000000 0.000000 1.000007 0.000000 1.000002 0.000000 -1.000000 0.000000 0.000000 32001.dat
1 1 -31.970500 -115.391600 44.124570 1.000007 0.000000 0.000000 0.000000 1.000002 0.000000 0.000000 0.000000 1.000000 3709b.dat
0 STEP
1 1 -31.966720 -139.391700 -45.875310 1.000007 0.000000 0.000000 0.000000 1.000002 0.000000 0.000000 0.000000 1.000000 3702.dat
1 1 38.029200 -139.391900 4.124810 0.000000 0.000000 1.000007 0.000000 1.000002 0.000000 -1.000000 0.000000 0.000000 3701.dat
0 STEP
1 1 -31.970500 -139.392100 54.124460 1.000007 0.000000 0.000000 0.000000 1.000002 0.000000 0.000000 0.000000 1.000000 3702.dat
1 1 -101.978400 -139.391900 4.124570 0.000000 0.000000 1.000007 0.000000 1.000002 0.000000 -1.000000 0.000000 0.000000 3701.dat
0 STEP
1 71 -61.000000 -155.419900 84.000000 0.000000 0.000000 -1.000000 0.000000 1.000000 0.000000 1.000000 0.000000 0.000000 3673.dat
1 71 -91.970920 -129.392100 64.124480 0.000000 -0.000001 -1.000000 0.000000 1.000000 -0.000001 1.000000 0.000000 0.000000 3673.dat
1 71 -61.502080 -155.315000 74.124910 0.648123 0.000000 -0.761536 0.761536 0.000000 0.648122 0.000000 -1.000000 0.000000 60484.dat
0 STEP
1 4 -49.853640 -138.733200 83.419830 0.000001 0.572151 -0.820148 -0.000001 0.820148 0.572151 1.000000 0.000000 0.000001 32062.dat
1 71 -49.853920 -138.733500 93.920320 -0.820147 -0.000001 -0.572155 0.572152 0.000002 -0.820151 0.000001 -1.000000 0.000000 60483.dat
1 1 -49.853660 -138.733200 73.969850 -0.820147 0.000001 0.572153 0.572153 -0.000001 0.820147 0.000001 1.000000 0.000000 32140.dat
0 STEP
1 14 -31.969300 -78.059700 88.969850 0.000000 1.000000 0.000000 -1.000000 0.000000 0.000000 0.000000 0.000000 1.000000 32123a.dat
1 71 -31.969280 -78.060020 63.860050 0.000000 0.000000 1.000000 0.000000 1.000000 0.000000 -1.000000 0.000000 0.000000 32073.dat
0 STEP
1 14 -31.969280 -78.060020 58.860080 0.000000 -1.000000 0.000000 1.000000 0.000000 0.000000 0.000000 0.000000 1.000000 32123a.dat
1 4 -31.969220 -78.060020 4.060050 0.000000 -1.000000 0.000000 1.000000 0.000000 0.000000 0.000000 0.000000 1.000000 32034.dat
0 STEP
1 71 -31.969280 -70.000000 4.059990 0.000000 1.000000 0.000000 1.000000 0.000000 0.000000 0.000000 0.000000 -1.000000 44294.dat
1 71 -31.970680 -134.077400 4.055350 1.000007 0.000000 0.000000 0.000000 0.000000 1.000002 0.000000 -1.000000 0.000000 4185.dat
1 0 -31.969280 -20.000000 4.059990 1.000000 0.000000 0.000000 0.000000 0.000000 1.000000 0.000000 -1.000000 0.000000 32270.dat
0 STEP
1 4 -101.978900 -129.392000 4.124450 1.000007 0.000001 -0.000001 0.000001 0.000001 1.000002 0.000001 -1.000000 0.000001 32054.dat
1 4 -131.978800 -129.392100 4.124570 -1.000007 0.000000 0.000000 0.000000 1.000002 0.000000 0.000000 0.000000 -1.000000 32062.dat
1 19 -141.978700 -129.392100 4.124570 0.000000 0.000000 -1.000007 0.000000 -1.000002 0.000000 -1.000000 0.000000 0.000000 32269.dat
0 STEP
1 1 28.029410 -147.390200 4.124810 0.000000 0.000000 1.000007 0.000000 1.000002 0.000000 -1.000000 0.000000 0.000000 32001.dat
1 1 -91.978290 -147.390000 4.124570 0.000000 0.000000 1.000007 0.000000 1.000002 0.000000 -1.000000 0.000000 0.000000 32001.dat
1 1 -51.970640 -147.389900 4.124570 0.000000 0.000000 1.000007 0.000000 1.000002 0.000000 -1.000000 0.000000 0.000000 32001.dat
1 1 -11.970640 -147.390100 4.124570 0.000000 0.000000 1.000007 0.000000 1.000002 0.000000 -1.000000 0.000000 0.000000 32001.dat
0 STEP
1 71 -91.978900 -129.392000 -55.875190 0.000000 0.000000 -1.000007 0.000000 1.000002 0.000000 1.000000 0.000000 0.000000 3673.dat
1 71 -60.372940 -153.908600 -65.875180 0.612914 0.000000 -0.790150 0.790150 0.000000 0.612914 0.000000 -1.000000 0.000000 60484.dat
0 STEP
1 0 -31.969220 -78.060020 -65.939950 0.000000 0.000000 1.000000 0.000000 1.000000 0.000000 -1.000000 0.000000 0.000000 3706.dat
1 14 -31.969220 -78.060020 -51.889970 0.000000 -1.000000 0.000000 1.000000 0.000000 0.000000 0.000000 0.000000 1.000000 32123a.dat
0 STEP
1 14 -31.969160 -78.060020 -82.709910 0.000000 -1.000000 0.000000 -1.000000 0.000000 0.000000 0.000000 0.000000 -1.000000 32123a.dat
1 1 -49.577520 -138.804900 -67.640010 -0.823132 0.000001 0.567849 0.567849 -0.000002 0.823132 0.000001 1.000000 0.000001 32140.dat
0 STEP
1 71 -60.934030 -155.267100 -77.639970 0.000000 0.000000 -1.000000 0.000000 1.000000 0.000000 1.000000 0.000000 0.000000 3673.dat
1 4 -49.577220 -138.804400 -77.639940 0.000001 0.567841 -0.823136 -0.000001 0.823139 0.567840 1.000000 0.000000 0.000001 32062.dat
1 71 -49.577180 -138.804300 -87.639970 -0.823136 -0.000001 -0.567841 0.567841 0.000001 -0.823136 0.000002 -1.000000 0.000000 60483.dat
0 STEP
1 19 48.028610 -129.391900 -15.875310 1.000007 0.000001 -0.000001 0.000001 0.000001 1.000002 0.000001 -1.000000 0.000001 3749.dat
1 19 48.028100 -129.391800 24.124570 1.000007 0.000001 -0.000001 0.000001 0.000001 1.000002 0.000001 -1.000000 0.000001 3749.dat
0 STEP
1 4 78.029300 -129.391700 24.124690 1.000007 0.000001 -0.000001 0.000001 0.000001 1.000002 0.000001 -1.000000 0.000001 32054.dat
1 4 78.029500 -129.391800 -15.875200 1.000007 0.000001 -0.000001 0.000001 0.000001 1.000002 0.000001 -1.000000 0.000001 32054.dat
0 STEP
1 19 128.029300 -129.391900 24.124690 1.000007 0.000001 -0.000001 0.000001 0.000001 1.000002 0.000001 -1.000000 0.000001 3749.dat
1 4 108.029000 -129.391800 -15.875200 -1.000007 0.000000 0.000000 0.000000 1.000002 0.000000 0.000000 0.000000 -1.000000 62462.dat
1 4 108.029200 -129.391800 24.124750 -1.000007 0.000000 0.000000 0.000000 1.000002 0.000000 0.000000 0.000000 -1.000000 62462.dat
1 19 128.029200 -129.391900 -15.875440 1.000007 0.000001 -0.000001 0.000001 0.000001 1.000002 0.000001 -1.000000 0.000001 3749.dat
0 STEP
1 0 158.029600 -129.392000 -15.875320 0.000000 1.000007 0.000000 0.000000 0.000000 -1.000002 -1.000000 0.000000 0.000000 32014.dat
1 0 158.029800 -129.391900 24.124880 0.000000 1.000007 0.000000 0.000000 0.000000 -1.000002 -1.000000 0.000000 0.000000 32014.dat
0 STEP
0 NOFILE
0 FILE SubModel Group 9 Copy Copy Copy
0 SubModel Group 9 Copy Copy Copy
0 Name:  SubModel Group 9 Copy Copy Copy
0 Author:  
0 CustomBrick
0 NumOfBricks:  3
1 72 10.000000 -1.128810 -10.000000 1.000000 0.000000 0.000000 0.000000 0.000000 -1.000000 0.000000 1.000000 0.000000 dch003.dat
1 71 -27.466620 -79.717990 29.427020 1.000000 0.000000 0.000000 0.000000 0.000000 -1.000000 0.000000 1.000000 0.000000 dch004.dat
1 25 7.837010 13.484720 -9.965000 1.000000 0.000000 0.000000 0.000000 0.000000 -1.000000 0.000000 1.000000 0.000000 dch005.dat
0 NOFILE
