0 FILE 小桥.io
0 Untitled Model
0 Name:  小桥
0 Author:  
0 CustomBrick
0 NumOfBricks:  59
1 1 -92.000000 -40.000070 -14.000000 0.000000 0.000000 1.000000 0.000000 1.000000 0.000000 -1.000000 0.000000 0.000000 3701.dat
0 STEP
1 1 58.000000 -40.000070 36.000000 1.000000 0.000000 0.000000 0.000000 1.000000 0.000000 0.000000 0.000000 1.000000 3703.dat
1 1 -82.000000 -16.000070 -14.000000 0.000000 0.000000 1.000000 0.000000 1.000000 0.000000 -1.000000 0.000000 0.000000 3738.dat
0 STEP
1 1 198.000100 -16.000070 -14.000000 0.000000 0.000000 1.000000 0.000000 1.000000 0.000000 -1.000000 0.000000 0.000000 3738.dat
1 1 -82.000100 -48.000070 -14.000000 0.000000 0.000000 1.000000 0.000000 1.000000 0.000000 -1.000000 0.000000 0.000000 32001.dat
1 1 58.000000 -40.000070 -64.000000 1.000000 0.000000 0.000000 0.000000 1.000000 0.000000 0.000000 0.000000 1.000000 3703.dat
0 STEP
1 1 198.000000 -48.000070 -14.000000 0.000000 0.000000 1.000000 0.000000 1.000000 0.000000 -1.000000 0.000000 0.000000 32001.dat
1 1 208.000100 -40.000070 -14.000000 0.000000 0.000000 1.000000 0.000000 1.000000 0.000000 -1.000000 0.000000 0.000000 3701.dat
0 STEP
1 16 -123.555500 0.000000 -13.918740 1.000000 0.000000 0.000000 0.000000 1.000000 0.000000 0.000000 0.000000 1.000000 submodel group 2
0 STEP
1 16 239.555700 -0.000080 -13.972110 1.000000 0.000000 0.000000 0.000000 1.000000 0.000000 0.000000 0.000000 1.000000 submodel group 1
0 STEP
1 1 58.000000 -64.000070 -64.000000 1.000000 0.000000 0.000000 0.000000 1.000000 0.000000 0.000000 0.000000 1.000000 3895.dat
1 15 188.000100 -72.000070 -64.000000 0.000000 0.000000 -1.000000 0.000000 1.000000 0.000000 1.000000 0.000000 0.000000 3040b.dat
1 15 -72.000000 -72.000070 -64.000000 0.000000 0.000000 1.000000 0.000000 1.000000 0.000000 -1.000000 0.000000 0.000000 3040b.dat
0 STEP
1 1 58.000000 -64.000070 36.000000 1.000000 0.000000 0.000000 0.000000 1.000000 0.000000 0.000000 0.000000 1.000000 3895.dat
1 15 188.000900 -72.000070 35.998600 0.000000 0.000000 -1.000002 0.000000 1.000000 0.000000 1.000002 0.000000 0.000000 3040b.dat
1 15 -72.003140 -72.000080 35.999450 0.000000 0.000000 0.999999 0.000000 1.000000 0.000000 -0.999999 0.000000 0.000000 3040b.dat
0 STEP
1 1 58.000000 -88.000070 36.000000 1.000000 0.000000 0.000000 0.000000 1.000000 0.000000 0.000000 0.000000 1.000000 3702.dat
1 1 58.000000 -88.000070 -64.000000 1.000000 0.000000 0.000000 0.000000 1.000000 0.000000 0.000000 0.000000 1.000000 3702.dat
1 1 158.000000 -72.000070 -14.000000 0.000000 0.000000 1.000000 0.000000 1.000000 0.000000 -1.000000 0.000000 0.000000 32001.dat
1 1 -42.000100 -72.000070 -14.000000 0.000000 0.000000 1.000000 0.000000 1.000000 0.000000 -1.000000 0.000000 0.000000 32001.dat
0 STEP
1 1 58.000000 -112.000100 -64.000000 1.000000 0.000000 0.000000 0.000000 1.000000 0.000000 0.000000 0.000000 1.000000 3894.dat
1 1 58.000000 -112.000100 36.000000 1.000000 0.000000 0.000000 0.000000 1.000000 0.000000 0.000000 0.000000 1.000000 3894.dat
1 1 -12.000000 -96.000060 -14.000000 0.000000 0.000000 -1.000000 0.000000 1.000000 0.000000 1.000000 0.000000 0.000000 3666.dat
1 1 127.999900 -96.000060 -14.000000 0.000000 0.000000 -1.000000 0.000000 1.000000 0.000000 1.000000 0.000000 0.000000 3666.dat
0 STEP
1 19 98.000110 -54.000040 46.000000 -0.000001 1.000000 -0.000001 0.000001 0.000001 1.000000 1.000000 0.000001 -0.000001 3749.dat
1 19 18.000000 -54.000040 46.000000 -0.000001 1.000000 -0.000001 0.000001 0.000001 1.000000 1.000000 0.000001 -0.000001 3749.dat
1 14 18.000000 -54.000040 61.000000 1.000000 0.000000 0.000000 0.000000 1.000000 0.000000 0.000000 0.000000 1.000000 32123a.dat
1 14 98.000110 -54.000020 61.000000 1.000000 0.000000 0.000000 0.000000 1.000000 0.000000 0.000000 0.000000 1.000000 32123a.dat
1 72 98.000000 -54.000000 51.000000 0.000001 0.000001 -1.000000 -1.000000 0.000001 -0.000001 0.000001 1.000000 0.000001 32250.dat
0 STEP
1 19 98.000000 -54.000040 -74.000000 0.000001 -1.000000 0.000001 0.000001 0.000001 1.000000 -1.000000 -0.000001 0.000001 3749.dat
1 19 18.000000 -54.000040 -74.000000 0.000001 -1.000000 0.000001 0.000001 0.000001 1.000000 -1.000000 -0.000001 0.000001 3749.dat
1 14 98.000000 -54.000040 -89.000000 1.000000 0.000000 0.000000 0.000000 -1.000000 0.000000 0.000000 0.000000 -1.000000 32123a.dat
1 14 18.000000 -54.000040 -89.000000 1.000000 0.000000 0.000000 0.000000 -1.000000 0.000000 0.000000 0.000000 -1.000000 32123a.dat
1 72 98.000000 -53.999960 -79.000000 0.000001 0.000001 -1.000000 -1.000000 0.000001 -0.000001 0.000001 1.000000 0.000001 32250.dat
0 STEP
1 1 98.000000 -120.000100 -14.000000 0.000000 0.000000 1.000000 0.000000 1.000000 0.000000 -1.000000 0.000000 0.000000 32001.dat
1 1 18.000000 -120.000100 -14.000000 0.000000 0.000000 1.000000 0.000000 1.000000 0.000000 -1.000000 0.000000 0.000000 32001.dat
0 STEP
1 1 58.000120 -144.000100 -14.000120 0.000000 0.000000 -1.000000 0.000000 1.000000 0.000000 1.000000 0.000000 0.000000 3738.dat
1 1 58.000000 -136.000100 36.000000 1.000000 0.000000 0.000000 0.000000 1.000000 0.000000 0.000000 0.000000 1.000000 3700.dat
1 1 58.000000 -136.000100 -64.000000 1.000000 0.000000 0.000000 0.000000 1.000000 0.000000 0.000000 0.000000 1.000000 3700.dat
0 STEP
1 1 68.000120 -152.000100 25.999640 0.000000 0.000000 1.000005 0.000000 1.000000 0.000000 -1.000005 0.000000 0.000000 3710.dat
1 1 47.999520 -152.000300 26.004270 0.000000 0.000000 1.000000 0.000000 1.000000 0.000000 -1.000000 0.000000 0.000000 3710.dat
1 1 68.002320 -152.000100 -54.001160 0.000000 0.000000 1.000004 0.000000 1.000000 0.000000 -1.000004 0.000000 0.000000 3710.dat
1 1 48.000120 -152.000100 -54.000120 0.000000 0.000000 1.000000 0.000000 1.000000 0.000000 -1.000000 0.000000 0.000000 3710.dat
0 STEP
0 STEP
0 NOFILE
0 FILE SubModel Group 2
0 SubModel Group 2
0 Name:  SubModel Group 2
0 Author:  
0 CustomBrick
0 NumOfBricks:  9
1 4 -8.444469 -30.000000 19.918860 0.000000 -0.000001 1.000000 0.000000 1.000000 0.000001 -1.000000 0.000000 0.000000 32039.dat
1 4 1.555650 -29.999990 19.918980 -1.000000 0.000000 0.000000 0.000000 1.000000 0.000000 0.000000 0.000000 -1.000000 32062.dat
0 STEP
1 71 -28.444480 -30.000000 5.438880 1.000000 0.000000 0.000000 0.000000 -1.000000 0.000000 0.000000 0.000000 -1.000000 4185.dat
1 71 -28.444480 -30.000010 -4.871120 1.000000 0.000000 0.000000 0.000000 -1.000000 0.000000 0.000000 0.000000 -1.000000 4185.dat
1 71 -28.444480 -30.000000 -0.081140 0.000000 -1.000000 0.000000 0.000000 0.000000 1.000000 -1.000000 0.000000 0.000000 4519.dat
0 STEP
1 4 -8.444469 -29.999990 -20.081140 0.000000 -0.000001 1.000000 0.000000 1.000000 0.000001 -1.000000 0.000000 0.000000 32039.dat
1 4 1.555530 -29.999990 -20.081020 -1.000000 0.000000 0.000000 0.000000 1.000000 0.000000 0.000000 0.000000 -1.000000 32062.dat
0 STEP
1 4 31.555650 -30.000040 19.918860 1.000000 0.000001 -0.000001 -0.000001 -0.000001 -1.000000 -0.000001 1.000000 -0.000001 32054.dat
1 4 31.555530 -30.000030 -20.081140 1.000000 0.000001 -0.000001 -0.000001 -0.000001 -1.000000 -0.000001 1.000000 -0.000001 32054.dat
0 STEP
0 NOFILE
0 FILE SubModel Group 1
0 SubModel Group 1
0 Name:  SubModel Group 1
0 Author:  
0 CustomBrick
0 NumOfBricks:  9
1 4 8.444550 -30.000030 19.972360 0.000000 0.000001 -1.000000 0.000000 -1.000000 -0.000001 -1.000000 0.000000 0.000000 32039.dat
1 4 -1.555570 -30.000040 19.972240 -1.000000 0.000000 0.000000 0.000000 1.000000 0.000000 0.000000 0.000000 -1.000000 32062.dat
0 STEP
1 71 28.444430 -30.000000 5.222240 1.000000 0.000000 0.000000 0.000000 -1.000000 0.000000 0.000000 0.000000 -1.000000 4185.dat
1 71 28.444430 -30.000010 -5.027760 1.000000 0.000000 0.000000 0.000000 -1.000000 0.000000 0.000000 0.000000 -1.000000 4185.dat
1 71 28.444430 -30.000000 -0.027760 0.000000 -1.000000 0.000000 0.000000 0.000000 1.000000 -1.000000 0.000000 0.000000 4519.dat
0 STEP
1 4 8.444429 -30.000030 -20.027760 0.000000 0.000001 -1.000000 0.000000 -1.000000 -0.000001 -1.000000 0.000000 0.000000 32039.dat
1 4 -1.555570 -30.000040 -20.027760 -1.000000 0.000000 0.000000 0.000000 1.000000 0.000000 0.000000 0.000000 -1.000000 32062.dat
0 STEP
1 4 -31.555570 -30.000030 -20.027890 -1.000000 -0.000001 0.000001 0.000001 0.000001 1.000000 -0.000001 1.000000 -0.000001 32054.dat
1 4 -31.555570 -30.000030 19.972120 -1.000000 -0.000001 0.000001 0.000001 0.000001 1.000000 -0.000001 1.000000 -0.000001 32054.dat
0 STEP
0 NOFILE
