0 Untitled Model
0 Name:  双面机甲
0 Author:  
0 CustomBrick
0 NumOfBricks:  45
1 1 -20.000010 -8.000000 0.000000 0.000000 0.000000 -1.000000 0.000000 1.000000 0.000000 1.000000 0.000000 0.000000 3709b.dat
1 1 20.000030 -8.000000 0.000080 0.000000 0.000000 -1.000000 0.000000 1.000000 0.000000 1.000000 0.000000 0.000000 3709b.dat
0 STEP
1 15 30.000030 -32.000000 -9.999920 -1.000000 0.000000 0.000001 0.000000 1.000000 0.000000 -0.000001 0.000000 -1.000000 3040b.dat
1 15 -29.999960 -32.000000 -10.000060 -1.000000 0.000000 0.000001 0.000000 1.000000 0.000000 -0.000001 0.000000 -1.000000 3040b.dat
1 15 10.000040 -32.000000 -9.999810 -1.000000 0.000000 0.000001 0.000000 1.000000 0.000000 -0.000001 0.000000 -1.000000 3040b.dat
1 15 -9.999980 -32.000000 -9.999929 -1.000000 0.000000 0.000001 0.000000 1.000000 0.000000 -0.000001 0.000000 -1.000000 3040b.dat
0 STEP
1 15 20.000040 -32.000000 -30.000010 -1.000000 0.000000 0.000001 0.000000 1.000000 0.000000 -0.000001 0.000000 -1.000000 32064a.dat
1 15 -20.000000 -32.000000 -30.000100 -1.000000 0.000000 0.000001 0.000000 1.000000 0.000000 -0.000001 0.000000 -1.000000 32064a.dat
0 STEP
1 1 -20.000000 -40.000000 -30.000100 1.000000 0.000000 -0.000001 0.000000 1.000000 0.000000 0.000001 0.000000 1.000000 3023.dat
1 1 -20.000080 -40.000000 -9.999570 -1.000000 0.000000 0.000001 0.000000 1.000000 0.000000 -0.000001 0.000000 -1.000000 3023.dat
0 STEP
1 1 20.000040 -40.000000 -9.999920 -1.000000 0.000000 0.000001 0.000000 1.000000 0.000000 -0.000001 0.000000 -1.000000 3023.dat
1 1 20.000040 -40.000000 -30.000010 -1.000000 0.000000 0.000001 0.000000 1.000000 0.000000 -0.000001 0.000000 -1.000000 3023.dat
0 STEP
1 15 0.000030 -64.000000 -30.000080 -1.000000 0.000000 0.000001 0.000000 1.000000 0.000000 -0.000001 0.000000 -1.000000 32064a.dat
1 15 -0.000040 -64.000000 -9.999559 -1.000000 0.000000 0.000001 0.000000 1.000000 0.000000 -0.000001 0.000000 -1.000000 32064a.dat
0 STEP
1 1 30.000030 -48.000000 -19.999920 0.000001 0.000000 1.000000 0.000000 1.000000 0.000000 -1.000000 0.000000 0.000001 3023.dat
1 1 -30.000020 -48.000000 -19.999570 0.000001 0.000000 1.000000 0.000000 1.000000 0.000000 -1.000000 0.000000 0.000001 3023.dat
0 STEP
1 19 20.000110 -22.000020 -40.000020 -0.000002 1.000000 -0.000001 0.000001 0.000001 1.000000 1.000000 0.000002 -0.000001 3749.dat
1 19 -19.999940 -22.000020 -40.000100 -0.000002 1.000000 -0.000001 0.000001 0.000001 1.000000 1.000000 0.000002 -0.000001 3749.dat
0 STEP
1 1 0.000090 -32.000020 -49.999800 -1.000000 0.000000 0.000001 0.000000 1.000000 0.000000 -0.000001 0.000000 -1.000000 3701.dat
0 STEP
1 19 0.000090 -22.000000 -59.999820 0.000001 -1.000000 0.000001 0.000001 0.000001 1.000000 -1.000000 -0.000001 0.000001 3749.dat
1 71 0.000100 -21.999980 -69.999820 -1.000000 0.000000 -0.000001 0.000000 1.000000 0.000000 0.000001 0.000000 -1.000000 3713.dat
0 STEP
1 1 -39.999920 -8.000020 -99.999820 0.000000 0.000000 1.000000 0.000000 1.000000 0.000000 -1.000000 0.000000 0.000000 32001.dat
1 1 0.000070 -16.000020 -139.999800 -1.000000 0.000000 0.000000 0.000000 1.000000 0.000000 0.000000 0.000000 -1.000000 3709b.dat
1 1 40.000070 -8.000020 -99.999780 0.000000 0.000000 -1.000000 0.000000 1.000000 0.000000 1.000000 0.000000 0.000000 32001.dat
1 1 0.000070 -8.000020 -99.999810 0.000000 0.000000 -1.000000 0.000000 1.000000 0.000000 1.000000 0.000000 0.000000 32001.dat
0 STEP
1 15 -29.999950 -56.000000 -39.999680 0.000001 0.000000 1.000000 0.000000 1.000000 0.000000 -1.000000 0.000000 0.000001 2431.dat
1 1 -39.999920 -48.000000 -69.999690 1.000000 0.000000 -0.000001 0.000000 1.000000 0.000000 0.000001 0.000000 1.000000 3023.dat
0 STEP
1 15 30.000040 -56.000000 -40.000010 0.000000 0.000000 -1.000000 0.000000 1.000000 0.000000 1.000000 0.000000 0.000000 2431.dat
1 1 40.000050 -48.000000 -69.999820 1.000000 0.000000 -0.000001 0.000000 1.000000 0.000000 0.000001 0.000000 1.000000 3023.dat
0 STEP
1 19 -0.000100 -54.000020 0.000500 0.000002 -1.000000 0.000001 0.000001 0.000001 1.000000 -1.000000 -0.000002 0.000001 3749.dat
1 4 -0.000110 -54.000020 10.000560 0.000001 0.000000 -1.000000 0.000000 -1.000000 0.000000 -1.000000 0.000000 -0.000001 32034.dat
0 STEP
1 1 0.000040 -88.000000 -30.000080 -1.000000 0.000000 0.000001 0.000000 1.000000 0.000000 -0.000001 0.000000 -1.000000 3701.dat
1 19 -20.000080 -77.999980 -19.999940 -0.000002 1.000000 -0.000001 0.000001 0.000001 1.000000 1.000000 0.000002 -0.000001 3749.dat
1 19 19.999980 -77.999980 -19.999920 -0.000002 1.000000 -0.000001 0.000001 0.000001 1.000000 1.000000 0.000002 -0.000001 3749.dat
0 STEP
1 71 -20.000080 -77.999980 -9.999940 -1.000000 0.000000 0.000000 0.000000 1.000000 0.000000 0.000000 0.000000 -1.000000 3713.dat
1 71 19.999980 -77.999980 -9.999860 -1.000000 0.000000 0.000000 0.000000 1.000000 0.000000 0.000000 0.000000 -1.000000 3713.dat
0 STEP
1 1 0.000040 -88.000000 -79.999940 0.000000 0.000000 -1.000000 0.000000 1.000000 0.000000 1.000000 0.000000 0.000000 3709b.dat
1 19 0.000040 -88.000000 -79.999920 0.000001 0.000001 1.000001 1.000000 0.000001 -0.000001 -0.000001 1.000000 -0.000001 3749.dat
1 71 0.000040 -73.480000 -79.999950 0.000000 1.000000 0.000000 -0.000001 0.000000 1.000000 1.000000 0.000000 0.000001 3713.dat
0 STEP
1 15 0.000030 -112.000000 -40.000080 -1.000000 0.000000 0.000001 0.000000 1.000000 0.000000 -0.000001 0.000000 -1.000000 3941.dat
1 19 0.000030 -113.150000 -40.000140 0.000001 -1.000001 0.000001 1.000000 0.000001 -0.000001 0.000001 0.000001 1.000001 3749.dat
0 STEP
1 71 0.000030 -121.150000 -60.000160 -1.000000 0.000001 0.000000 0.000000 0.000000 -1.000000 -0.000001 -1.000000 0.000000 4185.dat
0 STEP
1 71 0.000000 -102.000000 -140.000000 1.000001 0.000001 0.000001 -0.000001 1.000000 -0.000001 -0.000001 0.000001 1.000001 33299.dat
0 STEP
1 19 0.000000 -112.000000 -140.000100 -0.000001 -0.000001 -1.000001 1.000000 0.000001 -0.000001 0.000001 -1.000001 0.000001 3749.dat
1 1 0.000060 -122.000000 -130.000100 1.000000 0.000001 0.000000 0.000000 0.000000 1.000000 0.000001 -1.000000 0.000000 3700.dat
0 STEP
0 STEP
