0 Untitled Model
0 Name:  万向轮结构9
0 Author:  
0 CustomBrick
0 NumOfBricks:  8
1 71 0.000000 -29.999980 -40.000000 -1.000000 0.000000 0.000000 0.000000 0.000000 1.000000 0.000000 1.000000 0.000000 4519.dat
0 STEP
1 0 0.000000 -29.999980 -40.000040 -1.000000 -0.000002 -0.000002 -0.000002 -0.000002 1.000001 -0.000002 1.000001 0.000002 32013.dat
1 19 0.000050 -60.000020 -40.000040 -0.000001 1.000000 -0.000001 1.000001 0.000001 -0.000001 -0.000001 -0.000001 -1.000001 3749.dat
0 STEP
1 71 -14.350000 -30.000000 -40.000040 0.000000 0.000000 -1.000000 0.000000 -1.000001 0.000000 -1.000001 0.000000 0.000000 4185.dat
1 71 15.000010 -30.000010 -40.000100 0.000000 0.000000 -1.000000 0.000000 -1.000001 0.000000 -1.000001 0.000000 0.000000 4185.dat
0 STEP
1 4 0.000050 -80.000060 -40.000040 0.000000 0.000000 1.000000 1.000001 0.000000 0.000000 0.000000 1.000001 0.000000 62462.dat
0 STEP
1 71 0.000030 -100.000000 -40.000040 0.000000 0.000000 -1.000000 1.000001 0.000000 0.000000 0.000000 -1.000001 0.000000 3673.dat
0 STEP
1 15 0.000050 -110.000100 -40.000040 0.000001 0.000001 -1.000000 0.000001 1.000001 0.000001 1.000001 -0.000001 0.000001 32523.dat
0 STEP
0 STEP
