0 FILE 缝纫机2.io
0 Untitled Model
0 Name:  缝纫机2
0 Author:  
0 CustomBrick
0 NumOfBricks:  87
1 1 15.999480 -359.999800 -40.000230 0.000000 -1.000000 0.000000 1.000000 0.000000 0.000000 0.000000 0.000000 1.000000 3702.dat
1 1 15.999020 -359.999800 -20.000230 0.000000 -1.000000 0.000000 1.000000 0.000000 0.000000 0.000000 0.000000 1.000000 3702.dat
1 0 5.999020 -379.999800 -30.000220 0.000000 -1.000000 0.000000 0.000000 0.000000 -1.000000 1.000000 0.000000 0.000000 2780.dat
1 0 5.999020 -319.999800 -30.000220 0.000000 -1.000000 0.000000 0.000000 0.000000 -1.000000 1.000000 0.000000 0.000000 2780.dat
0 STEP
1 1 -8.000520 -299.999800 -30.000220 0.000000 -1.000000 0.000000 0.000000 0.000000 1.000000 -1.000000 0.000000 0.000000 3709b.dat
0 STEP
1 1 15.999690 -159.999800 -60.000110 0.000001 -1.000000 -0.000001 1.000000 0.000001 0.000000 0.000000 -0.000001 1.000000 3703.dat
1 71 5.999690 -199.999800 -39.180100 0.422618 -0.906309 0.000001 -0.906308 -0.422619 0.000000 0.000001 0.000000 -1.000000 3649.dat
1 71 5.999470 -199.999800 -17.900080 -0.906309 -0.422617 0.000000 -0.422618 0.906308 0.000000 0.000000 0.000000 -1.000000 3713.dat
1 0 5.999470 -199.999800 -27.900080 0.000000 0.422618 -0.906309 0.000000 -0.906308 -0.422619 -1.000000 0.000000 0.000000 3705.dat
0 STEP
1 1 -8.000410 -9.999960 50.000130 -0.000001 -1.000000 -0.000001 0.000000 0.000001 -1.000000 1.000000 -0.000001 0.000000 3895.dat
0 STEP
1 1 15.999780 -10.000020 -29.999860 -0.000001 -1.000000 -0.000001 0.000000 0.000001 -1.000000 1.000000 -0.000001 0.000000 3700.dat
0 STEP
1 72 5.999690 -139.999800 -38.310230 0.000001 -1.000000 -0.000001 1.000000 0.000001 0.000000 0.000000 -0.000001 1.000000 3647.dat
1 71 5.999470 -139.999800 -20.000110 -1.000000 0.000001 0.000000 0.000001 1.000000 0.000000 0.000000 0.000000 -1.000000 3713.dat
1 71 5.999690 -139.999800 -40.000230 0.000001 0.000001 1.000000 0.000000 1.000000 -0.000001 -1.000000 0.000000 0.000000 32073.dat
0 STEP
1 72 5.999480 -99.999870 -40.300100 0.906307 0.422620 -0.000001 -0.422619 0.906308 0.000000 0.000001 0.000000 1.000000 3648b.dat
1 71 5.999470 -99.999870 -21.180100 -0.906307 0.422620 0.000000 0.422619 0.906308 0.000000 0.000000 0.000000 -1.000000 3713.dat
1 71 5.999690 -99.999940 -80.290210 -0.906307 0.422620 0.000000 0.422619 0.906308 0.000000 0.000000 0.000000 -1.000000 3713.dat
1 0 5.999470 -99.999870 -30.289960 0.000001 0.422620 0.906308 0.000000 0.906308 -0.422620 -1.000000 0.000000 0.000000 3706.dat
0 STEP
1 1 15.999690 -159.999900 -0.000120 0.000001 -1.000000 0.000000 1.000000 0.000001 0.000000 0.000000 0.000000 1.000000 3703.dat
0 STEP
1 0 5.999690 -119.999800 -70.000110 0.000001 0.000001 1.000000 0.000000 1.000000 -0.000001 -1.000000 0.000000 0.000001 2780.dat
1 0 5.999600 -159.999800 -70.000110 0.000001 0.000001 1.000000 0.000000 1.000000 -0.000001 -1.000000 0.000000 0.000001 2780.dat
0 STEP
1 71 5.999690 -139.999700 -70.000230 -1.000000 0.000001 0.000001 0.000001 1.000000 0.000000 -0.000001 0.000000 -1.000000 58120.dat
0 STEP
1 1 15.999770 -9.999990 70.000010 -0.000001 -1.000000 -0.000002 0.000000 0.000002 -1.000000 1.000000 -0.000001 0.000000 3894.dat
0 STEP
1 72 5.999470 -99.999870 20.469800 0.906307 0.422620 -0.000001 -0.422619 0.906308 0.000000 0.000001 0.000000 1.000000 3648b.dat
1 71 1.162590 -86.710590 30.469920 0.000001 0.707108 0.707106 0.000000 0.707107 -0.707108 -1.000000 0.000000 0.000000 3673.dat
0 STEP
1 0 1.162590 -86.710590 40.469920 -0.000002 0.422618 0.906308 -0.000001 0.906309 -0.422618 -1.000000 -0.000002 -0.000001 32013.dat
1 4 -26.026650 -74.032100 40.469790 -0.906308 0.422618 -0.000001 0.422618 0.906309 0.000002 0.000001 0.000001 -1.000000 32062.dat
0 STEP
1 14 5.999680 -39.999900 13.380010 1.000000 0.000001 -0.000001 -0.000001 1.000000 0.000000 0.000001 0.000000 1.000000 32123a.dat
1 71 5.999590 -39.999950 72.319900 0.000001 0.000001 1.000000 0.000000 1.000000 -0.000001 -1.000000 0.000000 0.000000 60485.dat
0 STEP
1 72 5.999480 -259.999900 -41.900070 0.000001 -1.000000 -0.000001 1.000000 0.000001 0.000000 0.000000 -0.000001 1.000000 3647.dat
1 71 5.999480 -259.999900 -61.900070 0.000001 -1.000000 0.000001 0.000000 0.000001 1.000000 -1.000000 -0.000001 0.000000 4519.dat
1 71 5.999480 -259.999900 -79.900070 -1.000000 0.000001 0.000000 0.000001 1.000000 0.000000 0.000000 0.000000 -1.000000 3650c.dat
0 STEP
1 1 23.999540 -299.999900 -30.000100 0.000000 -1.000000 0.000000 0.000000 0.000000 1.000000 -1.000000 0.000000 0.000000 3709b.dat
0 STEP
1 72 5.999470 -299.999900 29.229930 -0.965926 -0.258820 0.000000 0.258820 -0.965926 0.000000 0.000000 0.000000 1.000000 3648b.dat
1 14 5.999470 -299.999900 14.769780 -0.965926 0.258820 0.000000 0.258820 0.965926 0.000000 0.000000 0.000000 -1.000000 32123a.dat
1 71 5.999480 -299.999900 -30.770060 0.000000 -0.965926 0.258820 0.000000 0.258820 0.965926 -1.000000 0.000000 0.000000 44294.dat
0 STEP
1 72 5.999480 -299.999900 -80.239970 -0.258820 -0.965926 0.000000 -0.965926 0.258820 0.000000 0.000000 0.000000 -1.000000 3647.dat
1 14 5.999480 -299.999900 -95.770080 0.258820 0.965926 0.000000 0.965926 -0.258820 0.000000 0.000000 0.000000 -1.000000 32123a.dat
0 STEP
1 15 23.999540 -359.999800 -40.000230 0.000000 -1.000000 0.000000 1.000000 0.000000 0.000000 0.000000 0.000000 1.000000 2431.dat
1 15 23.999020 -359.999800 -20.000230 0.000000 -1.000000 0.000000 1.000000 0.000000 0.000000 0.000000 0.000000 1.000000 2431.dat
0 STEP
1 1 23.928490 -419.992500 9.229930 0.000000 -1.000000 0.000000 0.000000 0.000000 1.000000 -1.000000 0.000000 0.000000 32001.dat
0 STEP
1 1 15.928490 -419.992500 49.229930 0.000000 -1.000000 0.000000 0.000000 0.000000 1.000000 -1.000000 0.000000 0.000000 32001.dat
0 STEP
1 1 7.928490 -429.992500 49.229930 0.000000 -1.000000 0.000000 -0.000001 0.000000 1.000000 -1.000000 0.000000 -0.000001 3894.dat
1 1 7.928490 -409.592500 49.229930 0.000000 -1.000000 0.000000 0.000000 0.000000 1.000000 -1.000000 0.000000 0.000000 3894.dat
0 STEP
1 71 -1.071510 -287.752500 39.229930 0.000000 0.000000 -1.000000 0.000000 1.000000 0.000000 1.000000 0.000000 0.000000 3673.dat
1 15 -1.071510 -267.752500 49.229930 1.000000 -0.000001 0.000001 -0.000001 -0.000001 1.000000 -0.000001 -1.000000 -0.000001 32523.dat
0 STEP
1 71 -1.071510 -247.752500 59.229930 0.000000 0.000000 -1.000000 0.000000 1.000000 0.000000 1.000000 0.000000 0.000000 3673.dat
1 4 -1.071510 -247.752500 69.229930 0.000000 1.000000 0.000000 0.000000 0.000000 1.000000 1.000000 0.000000 0.000000 32034.dat
1 0 -1.071510 -377.752500 69.229930 0.000000 0.000000 1.000000 -1.000000 0.000000 0.000000 0.000000 -1.000000 0.000000 3708.dat
0 STEP
1 19 39.928400 -419.992500 89.229990 -1.000000 -0.000001 0.000001 0.000001 0.000001 1.000000 -0.000001 1.000000 -0.000001 3749.dat
1 15 39.928400 -419.992400 89.229930 0.000000 -1.000000 0.000000 1.000000 0.000000 0.000000 0.000000 0.000000 1.000000 3941.dat
0 STEP
1 71 -1.071510 -165.142500 69.229930 0.000000 0.000000 1.000000 -1.000000 0.000000 0.000000 0.000000 -1.000000 0.000000 44294.dat
0 STEP
1 1 -15.071520 -175.142500 49.229930 0.000000 -1.000000 0.000000 0.000000 0.000000 1.000000 -1.000000 0.000000 0.000000 32001.dat
1 1 8.928480 -185.142500 69.229930 0.000000 -1.000000 0.000000 0.000000 0.000000 1.000000 -1.000000 0.000000 0.000000 3701.dat
1 1 8.928480 -165.142400 69.229930 0.000000 -1.000000 0.000000 0.000000 0.000000 1.000000 -1.000000 0.000000 0.000000 3701.dat
0 STEP
1 71 -1.071510 -145.142500 69.229930 0.000000 1.000000 0.000000 -0.000001 0.000000 1.000000 1.000000 0.000000 0.000001 3713.dat
0 STEP
1 4 -36.111520 -68.943020 41.509890 0.000001 0.447171 0.894449 0.000000 0.894449 -0.447171 -1.000000 0.000000 0.000001 32039.dat
0 STEP
1 71 -54.000440 -59.999750 87.509830 -0.000001 -0.894449 -0.447171 0.000000 0.447171 -0.894450 1.000000 -0.000001 -0.000001 32209.dat
1 71 -54.000440 -59.999750 69.089790 -0.447171 -0.894449 0.000001 -0.894449 0.447171 -0.000001 0.000001 -0.000001 -1.000000 3713.dat
0 STEP
1 1 5.999460 -39.999960 108.969900 -0.000002 -0.000002 -1.000000 -1.000000 0.000001 0.000002 0.000001 1.000000 -0.000002 32140.dat
1 1 5.999590 -39.999940 89.549930 -0.000002 -0.000002 -1.000000 -1.000000 0.000001 0.000002 0.000001 1.000000 -0.000002 32140.dat
0 STEP
1 71 -54.000440 -59.999700 129.009800 -0.447171 -0.894449 0.000001 -0.894449 0.447171 -0.000001 0.000001 -0.000001 -1.000000 3713.dat
0 STEP
1 14 5.999680 -39.999940 124.369800 1.000000 0.000001 -0.000001 -0.000001 1.000000 0.000000 0.000001 0.000000 1.000000 32123a.dat
0 STEP
1 1 -32.000320 -9.999869 109.999900 -0.000001 -1.000000 -0.000001 0.000000 0.000001 -1.000000 1.000000 -0.000001 0.000000 3666.dat
1 1 -32.000180 -9.999960 -9.999869 -0.000001 -1.000000 -0.000001 0.000000 0.000001 -1.000000 1.000000 -0.000001 0.000000 3666.dat
0 STEP
1 1 -40.000320 -10.000650 49.999090 -0.000001 -1.000001 -0.000002 0.000000 0.000000 -0.999999 0.999998 -0.000001 0.000000 3895.dat
0 STEP
1 1 15.999680 -59.999880 139.999900 0.000001 -1.000000 0.000000 1.000000 0.000001 0.000000 0.000000 0.000000 1.000000 3894.dat
1 0 5.999460 -99.999910 150.000000 0.000001 0.000001 1.000000 0.000000 1.000000 -0.000001 -1.000000 0.000000 0.000001 2780.dat
1 0 5.999670 -19.999910 150.000000 0.000001 0.000001 1.000000 0.000000 1.000000 -0.000001 -1.000000 0.000000 0.000001 2780.dat
0 STEP
1 1 15.999680 -59.999880 159.999800 0.000001 -1.000000 0.000000 1.000000 0.000001 0.000000 0.000000 0.000000 1.000000 3894.dat
0 STEP
1 1 39.999870 -10.000020 50.000020 -0.000001 -1.000000 -0.000002 0.000000 0.000002 -1.000000 1.000000 -0.000001 0.000000 3895.dat
0 STEP
1 0 29.999780 -19.999970 -29.999860 0.000001 0.000001 -1.000000 1.000000 0.000000 0.000001 0.000000 -1.000000 -0.000001 2780.dat
1 15 -10.000310 -29.999900 -29.999980 -0.000002 -0.000002 1.000000 -0.000001 -1.000000 -0.000002 1.000000 -0.000001 0.000002 32316.dat
1 0 -50.000180 -19.999900 -29.999860 0.000001 1.000000 0.000001 1.000000 -0.000001 0.000000 0.000000 0.000001 -1.000000 2780.dat
0 STEP
1 15 39.999700 -189.999800 -60.000110 0.000000 -1.000000 0.000000 0.000000 0.000000 -1.000000 1.000000 0.000000 0.000000 3040b.dat
1 15 39.999700 -189.999900 -0.000120 0.000000 -1.000000 0.000000 0.000000 0.000000 -1.000000 1.000000 0.000000 0.000000 3040b.dat
0 STEP
1 15 39.999680 -69.999880 159.999800 0.000000 -1.000000 0.000000 1.000000 0.000000 0.000000 0.000000 0.000000 1.000000 3040b.dat
1 15 39.999680 -109.999900 139.999800 0.000000 -1.000000 0.000000 -1.000000 0.000000 0.000000 0.000000 0.000000 -1.000000 3040b.dat
0 STEP
1 1 71.999740 -10.000020 130.000000 0.000000 -1.000000 0.000000 0.000000 0.000000 1.000000 -1.000000 0.000000 0.000000 3710.dat
1 1 71.999980 -10.000020 -29.999980 0.000000 -1.000000 0.000000 0.000000 0.000000 1.000000 -1.000000 0.000000 0.000000 3710.dat
1 15 64.000000 -10.000020 -49.999980 0.000000 -1.000000 0.000000 0.000000 0.000000 1.000000 -1.000000 0.000000 0.000000 32064a.dat
1 15 63.999740 -10.000020 150.000000 0.000000 -1.000000 0.000000 0.000000 0.000000 1.000000 -1.000000 0.000000 0.000000 32064a.dat
1 15 63.999880 -10.000020 -9.999990 0.000000 -1.000000 0.000000 0.000000 0.000000 1.000000 -1.000000 0.000000 0.000000 32064a.dat
1 15 63.999870 -10.000020 110.000000 0.000000 -1.000000 0.000000 0.000000 0.000000 -1.000000 1.000000 0.000000 0.000000 32064a.dat
0 STEP
1 16 -100.000000 0.000000 -283.000000 1.000000 0.000000 0.000000 0.000000 1.000000 0.000000 0.000000 0.000000 1.000000 submodel group 9 copy copy copy
0 STEP
0 STEP
0 NOFILE
0 FILE SubModel Group 9 Copy Copy Copy
0 SubModel Group 9 Copy Copy Copy
0 Name:  SubModel Group 9 Copy Copy Copy
0 Author:  
0 CustomBrick
0 NumOfBricks:  3
1 72 10.000000 -1.128810 -10.000000 1.000000 0.000000 0.000000 0.000000 0.000000 -1.000000 0.000000 1.000000 0.000000 dch003.dat
1 71 -27.466620 -79.717990 29.427020 1.000000 0.000000 0.000000 0.000000 0.000000 -1.000000 0.000000 1.000000 0.000000 dch004.dat
1 25 7.837010 13.484720 -9.965000 1.000000 0.000000 0.000000 0.000000 0.000000 -1.000000 0.000000 1.000000 0.000000 dch005.dat
0 NOFILE
