0 FILE 展示车.io
0 Untitled Model
0 Name:  展示车
0 Author:  
0 CustomBrick
0 NumOfBricks:  32
1 1 -138.765900 -38.000710 -67.220010 -0.000001 0.000000 1.000000 -1.000000 0.000000 0.000000 0.000000 -1.000000 0.000000 6629.dat
1 71 -38.765840 -38.000720 -66.400000 0.000000 -1.000000 0.000001 0.000000 0.000000 1.000000 -1.000000 0.000000 0.000000 4519.dat
0 STEP
1 71 -38.765840 -38.000720 -51.810040 -0.000001 1.000000 -0.000001 -1.000000 0.000000 -0.000001 -0.000001 0.000001 1.000000 4185.dat
1 71 -38.765840 -38.000720 -82.400000 1.000000 0.000001 0.000001 0.000000 1.000000 0.000000 -0.000001 0.000001 1.000000 4185.dat
1 0 -38.765840 -38.000900 -82.400430 -1.000000 0.000001 -0.000001 0.000000 1.000000 0.000000 0.000001 0.000000 -1.000000 2815.dat
1 0 -38.770600 -38.000040 -51.809900 0.000001 1.000018 0.000000 1.000017 0.000000 0.000001 0.000001 0.000000 -1.000001 2815.dat
0 STEP
1 19 -38.765840 -38.000720 -89.400000 0.000001 1.000000 0.000001 1.000000 0.000000 0.000001 0.000001 0.000001 -1.000000 6589.dat
1 19 -38.765840 -38.000720 -43.440020 0.000001 -1.000000 0.000000 1.000000 0.000000 0.000001 -0.000001 0.000000 1.000000 6589.dat
0 STEP
1 71 -118.765900 -38.000700 -47.700060 1.000000 0.000001 0.000001 0.000000 1.000000 0.000000 -0.000001 0.000000 1.000000 3713.dat
1 71 -118.765900 -38.000710 -87.520060 1.000000 0.000001 0.000001 0.000000 1.000000 0.000000 -0.000001 0.000000 1.000000 3713.dat
1 71 -118.765900 -38.000700 -66.250040 0.000000 0.000001 1.000000 0.000000 1.000000 0.000000 -1.000000 0.000000 0.000000 32073.dat
0 STEP
1 0 -118.764500 -38.000840 -117.457900 -0.000001 1.000000 0.000000 -1.000000 0.000000 -0.000001 -0.000001 0.000000 1.000000 30391.dat
1 71 -118.765900 -38.000710 -117.199900 1.000004 0.000001 0.000000 0.000000 1.000004 0.000000 0.000000 0.000000 1.000000 55982.dat
1 0 -118.766100 -38.000900 -17.563450 -0.000001 -0.999999 0.000001 -0.999999 0.000000 -0.000001 0.000001 -0.000001 -1.000000 30391.dat
1 71 -118.765800 -38.000700 -17.820080 -1.000005 0.000001 0.000001 0.000000 1.000009 0.000000 -0.000001 0.000000 -1.000000 55982.dat
0 STEP
1 14 -2.765900 -86.000720 -52.270050 0.600000 0.800000 0.000000 -0.800000 0.600000 0.000000 0.000000 0.000000 1.000000 32123a.dat
1 14 -2.765930 -86.000720 -82.450050 0.600000 0.800000 0.000000 -0.800000 0.600000 0.000000 0.000000 0.000000 1.000000 32123a.dat
1 0 -2.765900 -86.000720 -68.000040 0.000000 -0.600000 0.800000 0.000000 0.800000 0.600000 -1.000000 0.000000 0.000000 3705.dat
0 STEP
1 16 -5.258310 -29.744730 -16.590030 0.800000 -0.600000 -0.000001 0.600000 0.800000 0.000000 0.000001 0.000000 1.000000 submodel group 2
0 STEP
1 16 -4.911920 -30.608740 -118.000000 0.800000 -0.600000 0.000000 0.600000 0.800000 0.000000 0.000000 0.000000 1.000000 submodel group 1
0 STEP
1 15 36.366130 -138.176700 -16.590280 0.800000 -0.600000 0.000001 0.600000 0.800000 -0.000003 0.000001 0.000003 1.000000 3941.dat
1 15 34.200040 -135.288700 -118.000000 0.800000 -0.600000 0.000000 0.600000 0.800000 0.000001 0.000000 -0.000001 1.000000 3941.dat
0 STEP
1 1 41.166140 -144.576700 -16.590310 0.800000 -0.600000 0.000001 0.600000 0.800000 -0.000003 0.000001 0.000003 1.000000 3709b.dat
1 15 45.966140 -150.976700 -6.590350 -0.800000 -0.600000 -0.000001 -0.600000 0.800000 0.000003 -0.000001 0.000003 -1.000000 2431.dat
0 STEP
1 1 39.000000 -141.688800 -118.000000 0.000000 -0.600000 0.800000 -0.000001 0.800000 0.600000 -1.000000 -0.000001 -0.000001 3709b.dat
1 15 35.800040 -154.088700 -118.000000 0.000000 -0.600001 0.800000 -0.000001 0.800000 0.600001 -1.000000 -0.000001 -0.000001 2431.dat
0 STEP
0 STEP
0 NOFILE
0 FILE SubModel Group 2
0 SubModel Group 2
0 Name:  SubModel Group 2
0 Author:  
0 CustomBrick
0 NumOfBricks:  4
1 0 -31.759630 -57.840370 -0.000050 0.000000 0.000000 1.000000 1.000000 -0.000003 0.000000 0.000003 1.000000 0.000000 3706.dat
1 0 -31.759650 -46.500340 -0.000020 0.000000 1.000000 0.000001 -1.000000 0.000000 -0.000003 -0.000003 -0.000001 1.000000 32013.dat
0 STEP
1 71 -31.759620 -25.280330 0.000050 0.000000 -1.000000 0.000000 -0.000003 0.000000 -1.000000 1.000000 0.000000 -0.000003 3713.dat
1 19 -31.759620 -6.430370 0.000080 1.000000 0.000000 0.000000 0.000000 0.000003 1.000000 0.000000 -1.000000 0.000003 32269.dat
0 STEP
0 NOFILE
0 FILE SubModel Group 1
0 SubModel Group 1
0 Name:  SubModel Group 1
0 Author:  
0 CustomBrick
0 NumOfBricks:  4
1 0 -31.518460 -56.611240 0.000040 0.000000 -1.000000 0.000000 -1.000000 0.000000 -0.000001 0.000001 0.000000 -1.000000 3706.dat
1 0 -31.518420 -45.601220 -0.000020 0.000000 -1.000000 0.000000 -1.000000 0.000000 -0.000001 0.000001 0.000000 -1.000000 32013.dat
0 STEP
1 71 -31.518450 -25.941220 -0.000020 0.000000 1.000000 0.000000 0.000001 0.000000 1.000000 1.000000 0.000000 -0.000001 3713.dat
1 19 -31.518420 -6.611240 -0.000020 1.000000 -0.000001 0.000000 0.000000 -0.000001 1.000000 0.000000 -1.000000 -0.000001 32269.dat
0 STEP
0 NOFILE
