0 FILE 马车.io
0 Untitled Model
0 Name:  马车
0 Author:  
0 CustomBrick
0 NumOfBricks:  88
1 0 183.420400 -107.258500 20.000090 -1.000000 -0.000001 0.000000 0.000001 -1.000001 0.000002 0.000000 0.000000 1.000001 2780.dat
1 0 183.420400 -107.258400 60.000120 -1.000000 -0.000001 0.000000 0.000001 -1.000001 0.000002 0.000000 0.000000 1.000001 2780.dat
1 71 187.420400 -107.258400 40.000100 0.000000 0.000001 1.000000 -0.000002 1.000001 -0.000001 -1.000001 0.000000 0.000000 58120.dat
0 STEP
1 1 173.420400 -117.258500 40.000110 0.000000 0.000000 -1.000000 0.000001 1.000000 0.000001 1.000001 0.000000 0.000000 3894.dat
1 1 173.420500 -93.258430 40.000100 0.000000 0.000001 -1.000000 0.000002 1.000001 0.000001 1.000001 0.000000 0.000000 3710.dat
0 STEP
1 1 303.420700 -117.258600 90.000030 -1.000000 0.000000 0.000000 0.000001 1.000000 -0.000001 0.000000 0.000000 -1.000001 3895.dat
1 1 303.420800 -117.258700 -10.000140 -1.000000 0.000000 0.000000 0.000001 1.000000 -0.000001 0.000000 0.000000 -1.000001 3895.dat
1 1 203.420700 -93.258600 -10.000140 1.000000 0.000001 0.000000 -0.000001 1.000001 0.000002 0.000000 0.000000 1.000001 3710.dat
1 1 203.420600 -93.258460 90.000030 1.000000 0.000001 0.000000 -0.000001 1.000001 0.000002 0.000000 0.000000 1.000001 3710.dat
0 STEP
1 1 303.420700 -93.258590 89.999950 1.000000 0.000001 0.000000 -0.000001 1.000001 0.000002 0.000000 0.000000 1.000001 3894.dat
1 1 303.420900 -93.258780 -10.000140 1.000000 0.000001 0.000000 -0.000001 1.000001 0.000002 0.000000 0.000000 1.000001 3894.dat
0 STEP
1 1 173.420400 -141.258500 40.000120 0.000000 0.000000 -1.000000 0.000001 1.000000 0.000001 1.000001 0.000000 0.000000 3701.dat
1 1 203.420900 -141.258700 -10.001150 -1.000000 0.000001 0.000000 0.000001 1.000000 -0.000001 0.000000 0.000000 -1.000001 3701.dat
1 1 203.420500 -141.258400 90.000170 -1.000000 0.000000 0.000000 0.000001 1.000000 -0.000001 0.000000 0.000000 -1.000001 3701.dat
0 STEP
1 1 223.420500 -149.258500 39.999990 0.000000 0.000000 -1.000000 0.000001 1.000000 0.000001 1.000001 0.000000 0.000000 32001.dat
1 1 183.420500 -149.258500 40.000000 0.000000 0.000000 -1.000000 0.000001 1.000000 0.000001 1.000001 0.000000 0.000000 32001.dat
0 STEP
1 1 213.420500 -173.258400 39.999950 0.000000 0.000000 1.000001 -0.000001 0.999997 0.000000 -1.000001 0.000000 0.000000 3701.dat
0 STEP
1 16 202.420900 -199.952100 110.000000 0.000000 0.000000 -1.000003 -1.000003 0.000000 0.000000 0.000000 1.000000 0.000000 submodel group 9 copy copy copy
1 1 193.420500 -163.258500 19.999920 1.000000 0.000000 0.000000 -0.000001 1.000000 0.000001 0.000000 0.000000 1.000001 6558.dat
1 1 193.420500 -163.258400 59.999960 1.000000 0.000000 0.000000 -0.000001 1.000000 0.000001 0.000000 0.000000 1.000001 6558.dat
0 STEP
1 0 343.420700 -107.258700 45.929970 0.000000 0.000000 1.000001 -0.000001 0.999997 0.000000 -1.000001 0.000000 0.000000 3708.dat
1 14 343.420700 -107.258800 -25.370110 1.000001 0.000000 0.000000 0.000000 -0.999997 -0.000001 0.000000 0.000000 -1.000001 32123a.dat
1 14 343.420700 -107.258600 105.510200 1.000001 0.000000 0.000000 0.000000 -0.999997 -0.000001 0.000000 0.000000 -1.000001 32123a.dat
0 STEP
1 0 343.420700 -107.258600 131.460000 0.000000 1.000001 0.000000 -0.999998 0.000000 0.000001 0.000000 0.000000 1.000001 44309.dat
1 71 343.420700 -107.258600 131.460000 1.000001 0.000000 0.000000 0.000000 0.999997 0.000001 0.000000 0.000000 1.000001 56145.dat
0 STEP
1 1 383.420700 -125.258800 -0.000370 -1.000001 0.000000 0.000000 0.000000 0.999997 -0.000001 0.000000 0.000000 -1.000001 3709b.dat
1 1 383.420800 -125.258700 79.999950 -1.000001 0.000000 0.000000 0.000000 0.999997 -0.000001 0.000000 0.000000 -1.000001 3709b.dat
1 1 383.420800 -125.258800 39.999910 -1.000001 0.000000 0.000000 0.000000 0.999997 -0.000001 0.000000 0.000000 -1.000001 3709b.dat
1 1 353.420700 -133.258800 39.999920 0.000000 0.000000 -1.000001 0.000001 0.999997 0.000000 1.000001 0.000000 0.000000 3666.dat
0 STEP
1 0 343.420700 -107.258800 -50.479500 0.000000 -1.000001 0.000000 0.999997 0.000000 0.000001 0.000000 0.000000 1.000001 44309.dat
1 71 343.420700 -107.258800 -50.480110 -1.000001 0.000000 0.000000 0.000000 -0.999997 0.000001 0.000000 0.000000 1.000001 56145.dat
0 STEP
1 71 97.590210 -107.258800 39.999800 0.000000 0.000001 -1.000000 -0.364153 0.931339 0.000001 0.931339 0.364153 0.000001 3713.dat
1 71 114.320200 -107.258600 39.999980 -1.000000 -0.000001 0.000000 0.000001 -0.931339 -0.364153 0.000001 -0.364153 0.931340 60485.dat
0 STEP
1 1 -33.599830 -117.258300 89.999980 -1.000000 0.000001 0.000000 0.000001 0.999999 -0.000001 0.000000 0.000000 -1.000001 3895.dat
1 1 66.400140 -93.258430 40.000110 0.000000 0.000001 -1.000000 0.000001 0.999999 0.000001 1.000001 0.000000 0.000000 32001.dat
1 1 56.400160 -117.258400 40.000300 0.000000 0.000001 -1.000000 0.000001 0.999999 0.000001 1.000001 0.000000 0.000000 3701.dat
1 1 76.400040 -117.258400 40.000120 0.000000 0.000001 -1.000000 0.000001 0.999999 0.000001 1.000001 0.000000 0.000000 3701.dat
0 STEP
1 72 37.000000 -107.258700 40.000000 0.000001 0.000001 -1.000000 -0.364153 0.931339 0.000001 0.931339 0.364153 0.000001 3648b.dat
0 STEP
1 1 -123.600200 -117.258400 40.000010 0.000000 0.000001 -1.000000 0.000001 0.999999 0.000001 1.000001 0.000000 0.000000 3701.dat
1 1 -143.600400 -117.258300 40.000130 0.000000 0.000001 -1.000000 0.000001 0.999999 0.000001 1.000001 0.000000 0.000000 3701.dat
1 1 -133.600300 -93.258260 40.000120 0.000000 0.000001 -1.000000 0.000001 0.999999 0.000001 1.000001 0.000000 0.000000 32001.dat
0 STEP
1 1 -33.600100 -117.258400 -10.000050 -1.000000 0.000001 0.000000 0.000001 0.999999 -0.000001 0.000000 0.000000 -1.000001 3895.dat
0 STEP
1 1 66.400040 -125.258300 40.000120 0.000000 0.000001 -1.000000 0.000001 0.999999 0.000001 1.000001 0.000000 0.000000 32001.dat
1 1 -133.600200 -125.258300 40.000010 0.000000 0.000001 -1.000000 0.000001 0.999999 0.000001 1.000001 0.000000 0.000000 32001.dat
0 STEP
1 71 6.400140 -107.258400 10.779930 1.000000 0.000001 0.000001 -0.000001 0.999999 0.000001 -0.000001 0.000000 1.000001 3650c.dat
1 0 5.400150 -107.258400 40.359980 0.000000 0.000001 -1.000000 0.000001 0.999999 0.000001 1.000001 0.000000 0.000000 3707.dat
0 STEP
1 71 -12.099880 -97.258510 -39.180220 0.000000 0.342020 -0.939693 0.000001 0.939692 0.342020 1.000001 0.000000 0.000000 3673.dat
1 71 5.400130 -107.258500 -24.220180 -1.000000 -0.000001 0.000000 0.000001 -0.999999 0.000001 0.000000 0.000000 1.000001 4185.dat
1 71 5.400130 -107.258500 -34.180220 -1.000000 -0.000001 0.000000 0.000001 -0.999999 0.000001 0.000000 0.000000 1.000001 4185.dat
0 STEP
1 71 22.900170 -97.258270 121.809800 0.000002 0.978148 -0.207912 -0.000002 -0.207912 -0.978147 -1.000001 0.000002 0.000001 3673.dat
1 71 6.400170 -107.258500 104.579900 -1.000000 -0.000001 0.000000 0.000001 -0.999999 0.000001 0.000000 0.000000 1.000001 4185.dat
1 71 5.400050 -107.258400 113.809900 -1.000000 -0.000001 0.000000 0.000001 -0.999999 0.000001 0.000000 0.000000 1.000001 4185.dat
0 STEP
1 71 -93.600120 -107.258400 -19.999880 0.000000 0.069757 0.997564 -0.000001 0.997563 -0.069757 -1.000001 0.000000 0.000000 3673.dat
1 15 -93.599990 -107.258300 -29.999470 -0.961263 0.000001 0.275636 -0.275635 -0.000001 -0.961262 -0.000001 -1.000001 0.000000 64290.dat
0 STEP
1 0 -71.549090 -184.159300 -19.999430 0.000000 -0.000001 -1.000000 0.000001 1.000000 0.000000 1.000001 0.000000 0.000000 2780.dat
1 4 -71.549080 -184.159300 -9.999410 0.000000 0.000001 -1.000000 -0.000001 -1.000000 0.000000 -1.000001 0.000000 0.000000 32034.dat
0 STEP
1 71 -66.578430 -204.179300 -39.180170 0.000000 0.660001 0.751264 -0.000001 0.751263 -0.660001 -1.000001 0.000000 0.000000 3673.dat
0 STEP
1 15 -21.180620 -115.078300 -49.179600 0.891007 0.000000 -0.453991 -0.453989 0.000002 -0.891004 0.000001 1.000001 0.000001 64290.dat
0 STEP
1 71 -46.613300 -195.073500 121.810200 -0.000001 -0.611425 0.791304 -0.000001 0.791303 0.611424 -1.000001 0.000000 -0.000001 3673.dat
1 71 -93.086460 -106.528300 101.810400 0.000000 -0.258816 0.965927 -0.000001 0.965926 0.258817 -1.000001 0.000000 0.000000 3673.dat
1 15 -93.086640 -106.528200 111.810200 -0.885455 0.000001 0.464729 -0.464729 -0.000001 -0.885454 -0.000001 -1.000001 0.000001 64290.dat
0 STEP
1 0 -55.908370 -177.364500 101.810200 0.000000 -0.000001 -1.000000 0.000001 1.000000 0.000000 1.000001 0.000000 0.000000 2780.dat
1 4 -55.908370 -177.364500 91.810260 0.000000 0.000001 -1.000000 -0.000001 -1.000000 0.000000 -1.000001 0.000000 0.000000 32034.dat
0 STEP
1 15 11.314490 -113.560900 131.809900 0.815128 0.000000 -0.579281 -0.579282 0.000003 -0.815127 0.000001 1.000001 0.000002 64290.dat
0 STEP
1 0 -103.600100 -107.258300 40.000000 0.000000 -0.000001 1.000000 0.000001 -0.999999 -0.000001 1.000001 0.000000 0.000000 32270.dat
1 71 -143.600300 -107.258300 40.000120 -1.000000 -0.000001 0.000000 0.000001 -0.999999 0.000001 0.000000 0.000000 1.000001 32073.dat
0 STEP
1 71 -163.990300 -107.258300 40.000010 0.000000 0.000001 -1.000000 0.000001 0.999999 0.000001 1.000001 0.000000 0.000000 3649.dat
1 71 -183.740400 -107.258300 40.000130 -0.000002 0.000000 1.000000 -0.999999 -0.000001 -0.000001 0.000000 -1.000001 0.000000 94925.dat
0 STEP
1 0 183.420400 -363.257900 40.000020 -1.000000 -0.000001 0.000000 0.000000 1.000000 -0.000001 0.000000 0.000000 -1.000001 2780.dat
1 0 243.420500 -363.257800 40.000020 -1.000000 -0.000001 0.000000 0.000000 1.000000 -0.000001 0.000000 0.000000 -1.000001 2780.dat
0 STEP
1 4 253.420500 -363.257800 40.000020 -1.000000 0.000001 0.000000 0.000000 -1.000000 0.000001 0.000000 0.000000 1.000001 32034.dat
1 4 173.420400 -363.257900 40.000020 -1.000000 0.000001 0.000000 0.000000 -1.000000 0.000001 0.000000 0.000000 1.000001 32034.dat
0 STEP
1 19 233.420500 -373.257900 80.000060 0.000000 1.000000 -0.000001 -1.000000 -0.000001 0.000002 0.000001 0.000001 1.000001 3749.dat
1 19 193.420400 -373.258000 0.000040 0.000000 1.000000 -0.000001 -1.000000 -0.000001 0.000002 0.000001 0.000001 1.000001 3749.dat
1 19 233.420500 -373.258000 -0.000050 -0.000001 1.000000 -0.000001 -1.000000 -0.000001 0.000002 0.000002 0.000001 1.000000 3749.dat
1 19 193.420500 -373.257900 80.000070 0.000000 1.000000 -0.000001 -1.000000 -0.000001 0.000002 0.000001 0.000001 1.000001 3749.dat
0 STEP
1 4 233.420500 -383.258000 -0.000010 0.000000 1.000000 0.000000 0.000001 -0.000001 1.000000 1.000001 0.000000 0.000000 32039.dat
1 4 193.420500 -383.258000 0.000230 0.000000 1.000000 0.000000 0.000001 -0.000001 1.000000 1.000001 0.000000 0.000000 32039.dat
1 4 233.420500 -383.257900 80.000070 0.000000 1.000000 0.000000 0.000001 -0.000001 1.000000 1.000001 0.000000 0.000000 32039.dat
1 4 193.420500 -383.257900 80.000070 0.000000 1.000000 0.000000 0.000001 -0.000001 1.000000 1.000001 0.000000 0.000000 32039.dat
0 STEP
1 14 233.420600 -403.257800 95.485080 0.000001 1.000000 0.000000 -1.000000 0.000000 0.000001 0.000000 0.000000 1.000001 32123a.dat
1 14 233.420500 -403.257900 -15.055090 0.000001 1.000000 0.000000 -1.000000 0.000000 0.000001 0.000000 0.000000 1.000001 32123a.dat
1 71 233.420500 -403.257900 38.925020 0.000000 -0.000001 1.000000 -0.000001 1.000000 0.000000 -1.000001 0.000000 0.000000 44294.dat
1 14 193.420500 -403.257900 -15.059960 0.000001 1.000000 0.000000 -1.000000 0.000000 0.000001 0.000000 0.000000 1.000001 32123a.dat
1 14 193.420500 -403.257800 94.750160 0.000001 1.000000 0.000000 -1.000000 0.000000 0.000001 0.000000 0.000000 1.000001 32123a.dat
1 71 193.420500 -403.257900 38.720190 0.000000 -0.000001 1.000000 -0.000001 1.000000 0.000000 -1.000001 0.000000 0.000000 44294.dat
0 STEP
0 STEP
0 NOFILE
0 FILE SubModel Group 9 Copy Copy Copy
0 SubModel Group 9 Copy Copy Copy
0 Name:  SubModel Group 9 Copy Copy Copy
0 Author:  
0 CustomBrick
0 NumOfBricks:  3
1 72 10.000000 -1.128810 -10.000000 1.000000 0.000000 0.000000 0.000000 0.000000 -1.000000 0.000000 1.000000 0.000000 dch003.dat
1 71 -27.466620 -79.717990 29.427020 1.000000 0.000000 0.000000 0.000000 0.000000 -1.000000 0.000000 1.000000 0.000000 dch004.dat
1 25 7.837010 13.484720 -9.965000 1.000000 0.000000 0.000000 0.000000 0.000000 -1.000000 0.000000 1.000000 0.000000 dch005.dat
0 NOFILE
