0 FILE 电磁炮车.io
0 Untitled Model
0 Name:  电磁炮车
0 Author:  
0 CustomBrick
0 NumOfBricks:  136
1 16 117.000400 -118.661400 -119.000600 1.000003 0.000000 0.000000 0.000000 1.000000 0.000000 0.000000 0.000000 1.000003 submodel group 9 copy copy copy
0 STEP
1 1 80.000200 -168.726200 -89.000060 0.000000 0.000000 1.000000 0.000000 -1.000000 0.000000 1.000000 0.000000 0.000000 6558.dat
1 1 80.000170 -208.726200 -89.000110 0.000000 0.000000 1.000000 0.000000 -1.000000 0.000000 1.000000 0.000000 0.000000 6558.dat
1 15 80.000100 -168.726200 -89.000060 -1.000000 0.000001 -0.000001 -0.000001 -0.000001 1.000000 0.000001 1.000000 0.000001 32524.dat
0 STEP
1 1 20.000090 -128.726200 -109.000000 0.000001 0.000001 1.000000 1.000000 -0.000001 -0.000001 0.000001 1.000000 -0.000001 32140.dat
1 0 80.000100 -108.726200 -99.000000 0.000000 0.000000 -1.000000 0.000000 1.000000 0.000000 1.000000 0.000000 0.000000 2780.dat
1 0 80.000100 -128.726200 -99.000000 0.000000 0.000000 -1.000000 0.000000 1.000000 0.000000 1.000000 0.000000 0.000000 2780.dat
0 STEP
1 1 280.000200 -168.726200 -169.000200 0.000000 0.000000 1.000000 0.000000 1.000000 0.000000 -1.000000 0.000000 0.000000 6558.dat
1 1 280.000200 -208.726200 -169.000200 0.000000 0.000000 1.000000 0.000000 1.000000 0.000000 -1.000000 0.000000 0.000000 6558.dat
1 15 280.000100 -188.726200 -169.000100 1.000000 -0.000001 0.000001 0.000001 0.000001 -1.000000 0.000001 1.000000 0.000001 32316.dat
0 STEP
1 15 280.000100 -188.726200 -89.000190 1.000000 -0.000001 0.000001 0.000001 0.000001 -1.000000 0.000001 1.000000 0.000001 32316.dat
1 1 280.000200 -168.726200 -89.000190 0.000000 0.000000 1.000000 0.000000 -1.000000 0.000000 1.000000 0.000000 0.000000 6558.dat
1 1 280.000200 -208.726200 -89.000060 0.000000 0.000000 1.000000 0.000000 -1.000000 0.000000 1.000000 0.000000 0.000000 6558.dat
0 STEP
1 15 80.000200 -148.726200 -69.000300 1.000000 -0.000001 0.000001 -0.000001 -0.000001 1.000000 -0.000001 -1.000000 -0.000001 40490.dat
1 15 280.000200 -148.726200 -69.000180 1.000000 -0.000001 0.000001 -0.000001 -0.000001 1.000000 -0.000001 -1.000000 -0.000001 40490.dat
0 STEP
1 15 200.000300 -68.726090 -49.000360 0.000001 0.000001 -1.000000 -1.000000 0.000001 -0.000001 0.000001 1.000000 0.000001 64871.dat
1 0 280.000300 -68.726220 -59.000300 0.000000 0.000000 -1.000000 0.000000 1.000000 0.000000 1.000000 0.000000 0.000000 2780.dat
1 0 80.000290 -68.726220 -59.000300 0.000000 0.000000 -1.000000 0.000000 1.000000 0.000000 1.000000 0.000000 0.000000 2780.dat
0 STEP
1 0 320.000400 -68.725920 -27.390500 0.000000 0.000000 1.000000 0.000000 1.000000 0.000000 -1.000000 0.000000 0.000000 3705.dat
1 71 320.000300 -68.725930 -29.290530 1.000000 0.000000 0.000001 0.000000 1.000000 0.000000 -0.000001 0.000000 1.000000 3713.dat
0 STEP
1 14 320.000300 -68.725920 -64.390500 0.000000 1.000000 0.000000 -1.000000 0.000000 0.000000 0.000000 0.000000 1.000000 32123a.dat
1 71 319.999500 -68.725860 -6.100520 0.000002 1.000000 0.000000 -1.000000 -0.000001 0.000000 0.000000 0.000000 1.000000 57519.dat
0 STEP
1 0 60.000180 -68.726250 -59.970330 0.000000 0.000000 1.000000 0.000000 1.000000 0.000000 -1.000000 0.000000 0.000000 3706.dat
1 71 60.000280 -68.726250 -28.900330 1.000000 0.000000 0.000001 0.000000 1.000000 0.000000 -0.000001 0.000000 1.000000 3713.dat
0 STEP
1 71 59.999820 -68.725880 -7.570370 0.000002 0.999994 0.000000 -0.999993 -0.000001 0.000000 0.000000 0.000000 1.000000 57519.dat
0 STEP
1 15 80.000100 -168.726300 -169.000100 -1.000000 0.000001 -0.000001 -0.000001 -0.000001 1.000000 0.000001 1.000000 0.000001 32524.dat
1 1 80.000200 -168.726200 -169.000200 0.000000 0.000000 1.000000 0.000000 1.000000 0.000000 -1.000000 0.000000 0.000000 6558.dat
1 1 80.000100 -208.726200 -169.000200 0.000000 0.000000 1.000000 0.000000 1.000000 0.000000 -1.000000 0.000000 0.000000 6558.dat
0 STEP
1 0 79.999970 -128.726200 -159.000100 0.000000 0.000000 -1.000000 0.000000 1.000000 0.000000 1.000000 0.000000 0.000000 2780.dat
1 0 79.999970 -108.726200 -159.000100 0.000000 0.000000 -1.000000 0.000000 1.000000 0.000000 1.000000 0.000000 0.000000 2780.dat
1 1 20.000090 -128.726200 -149.000100 0.000001 0.000001 1.000000 1.000000 -0.000001 -0.000001 0.000001 1.000000 -0.000001 32140.dat
0 STEP
1 15 80.000200 -148.726200 -189.000200 1.000000 -0.000001 0.000001 -0.000001 -0.000001 1.000000 -0.000001 -1.000000 -0.000001 40490.dat
1 0 80.000290 -68.726220 -199.000300 0.000000 0.000000 -1.000000 0.000000 1.000000 0.000000 1.000000 0.000000 0.000000 2780.dat
1 15 280.000200 -148.726200 -189.000400 1.000000 -0.000001 0.000001 -0.000001 -0.000001 1.000000 -0.000001 -1.000000 -0.000001 40490.dat
1 0 280.000300 -68.726220 -199.000400 0.000000 0.000000 -1.000000 0.000000 1.000000 0.000000 1.000000 0.000000 0.000000 2780.dat
0 STEP
1 15 200.000300 -68.726090 -209.000400 0.000001 0.000001 -1.000000 -1.000000 0.000001 -0.000001 0.000001 1.000000 0.000001 64871.dat
1 0 300.000300 -68.726020 -199.000500 0.000000 0.000000 -1.000000 0.000000 1.000000 0.000000 1.000000 0.000000 0.000000 2780.dat
1 0 340.000300 -68.725970 -199.000500 0.000000 0.000000 -1.000000 0.000000 1.000000 0.000000 1.000000 0.000000 0.000000 2780.dat
0 STEP
1 0 320.000300 -68.726020 -217.530500 0.000000 0.000000 1.000000 0.000000 1.000000 0.000000 -1.000000 0.000000 0.000000 3705.dat
1 71 320.000300 -68.725970 -199.000500 1.000000 0.000000 0.000000 0.000000 1.000000 0.000000 0.000000 0.000000 1.000000 58120.dat
0 STEP
1 71 320.000300 -68.726020 -228.860400 1.000000 0.000000 0.000001 0.000000 1.000000 0.000000 -0.000001 0.000000 1.000000 3713.dat
1 71 320.001600 -68.726090 -249.610500 0.000000 1.000007 0.000000 -1.000007 0.000000 0.000000 0.000000 0.000000 1.000000 57519.dat
0 STEP
1 4 60.000290 -68.726240 -130.240300 0.000000 -1.000000 0.000000 1.000000 0.000000 0.000000 0.000000 0.000000 1.000000 32034.dat
1 0 60.000300 -68.726250 -200.240200 0.000000 0.000000 1.000000 0.000000 1.000000 0.000000 -1.000000 0.000000 0.000000 3706.dat
1 71 60.000280 -68.726250 -227.770300 1.000000 0.000000 0.000001 0.000000 1.000000 0.000000 -0.000001 0.000000 1.000000 3713.dat
0 STEP
1 71 60.000290 -68.726250 -249.080300 0.000000 1.000000 0.000000 -1.000000 0.000000 0.000000 0.000000 0.000000 1.000000 57519.dat
0 STEP
1 19 80.000140 -188.726200 -199.000100 -0.000001 1.000000 -0.000001 -0.000001 -0.000001 -1.000000 -1.000000 -0.000001 0.000001 3749.dat
1 0 80.000100 -228.726200 -59.000240 0.000000 0.000000 -1.000000 0.000000 1.000000 0.000000 1.000000 0.000000 0.000000 2780.dat
1 0 80.000110 -228.726200 -199.000200 0.000000 0.000000 -1.000000 0.000000 1.000000 0.000000 1.000000 0.000000 0.000000 2780.dat
1 19 80.000140 -188.726200 -59.000240 -0.000001 1.000000 -0.000001 0.000000 0.000001 1.000000 1.000000 0.000001 0.000000 3749.dat
0 STEP
1 1 80.000110 -268.726200 -209.000200 0.000000 0.000000 -1.000000 1.000000 0.000000 0.000000 0.000000 -1.000000 0.000000 32009.dat
1 1 80.000100 -268.726200 -49.000180 0.000000 0.000000 -1.000000 1.000000 0.000000 0.000000 0.000000 -1.000000 0.000000 32009.dat
0 STEP
1 19 20.000090 -128.726200 -159.000100 -0.000001 1.000000 -0.000001 0.000001 0.000001 1.000000 1.000000 0.000001 -0.000001 3749.dat
1 19 20.000000 -128.726200 -99.000000 0.000001 -1.000000 0.000001 0.000001 0.000001 1.000000 -1.000000 -0.000001 0.000001 3749.dat
1 0 39.999980 -128.726200 -99.000000 0.000000 0.000000 -1.000000 0.000000 1.000000 0.000000 1.000000 0.000000 0.000000 2780.dat
1 0 40.000090 -128.726200 -159.000100 0.000000 0.000000 -1.000000 0.000000 1.000000 0.000000 1.000000 0.000000 0.000000 2780.dat
0 STEP
1 1 0.000000 -138.726200 -89.000000 1.000000 0.000000 0.000000 0.000000 1.000000 0.000000 0.000000 0.000000 1.000000 3894.dat
1 1 0.000000 -162.726200 -89.000000 1.000000 0.000000 0.000000 0.000000 1.000000 0.000000 0.000000 0.000000 1.000000 3894.dat
0 STEP
1 1 -80.000040 -162.726200 -109.000000 1.000000 0.000000 0.000000 0.000000 1.000000 0.000000 0.000000 0.000000 1.000000 3895.dat
1 0 -40.000000 -152.726200 -99.000000 0.000000 0.000000 -1.000000 0.000000 1.000000 0.000000 1.000000 0.000000 0.000000 2780.dat
1 0 20.000000 -152.726200 -99.000000 0.000000 0.000000 -1.000000 0.000000 1.000000 0.000000 1.000000 0.000000 0.000000 2780.dat
0 STEP
1 15 -159.999900 -152.726200 -129.000200 0.000001 0.000001 -1.000000 -1.000000 0.000001 -0.000001 0.000001 1.000000 0.000001 64871.dat
1 19 -179.999900 -152.726200 -129.000200 0.000000 0.000000 1.000000 0.000000 1.000000 0.000000 -1.000000 0.000000 0.000000 32556.dat
1 19 -99.999910 -152.726200 -129.000100 0.000000 0.000000 1.000000 0.000000 1.000000 0.000000 -1.000000 0.000000 0.000000 32556.dat
0 STEP
1 1 -79.999910 -162.726200 -149.000100 1.000000 0.000000 0.000000 0.000000 1.000000 0.000000 0.000000 0.000000 1.000000 3895.dat
1 0 20.000090 -152.726200 -159.000100 0.000000 0.000000 -1.000000 0.000000 1.000000 0.000000 1.000000 0.000000 0.000000 2780.dat
1 0 -39.999910 -152.726200 -159.000100 0.000000 0.000000 -1.000000 0.000000 1.000000 0.000000 1.000000 0.000000 0.000000 2780.dat
0 STEP
1 1 -39.999910 -186.726200 -149.000100 1.000000 0.000000 0.000000 0.000000 1.000000 0.000000 0.000000 0.000000 1.000000 3702.dat
1 1 -40.000030 -186.726200 -109.000000 1.000000 0.000000 0.000000 0.000000 1.000000 0.000000 0.000000 0.000000 1.000000 3702.dat
0 STEP
1 1 0.000000 -210.726200 -109.000000 1.000000 0.000000 0.000000 0.000000 1.000000 0.000000 0.000000 0.000000 1.000000 3701.dat
1 19 20.000090 -200.726200 -129.000200 0.000000 0.000000 1.000000 0.000000 1.000000 0.000000 -1.000000 0.000000 0.000000 32556.dat
1 19 -19.999910 -200.726200 -129.000100 0.000000 0.000000 1.000000 0.000000 1.000000 0.000000 -1.000000 0.000000 0.000000 32556.dat
0 STEP
1 1 0.000090 -210.726200 -149.000100 1.000000 0.000000 0.000000 0.000000 1.000000 0.000000 0.000000 0.000000 1.000000 3701.dat
1 15 -99.999910 -200.726300 -129.000100 0.000001 0.000001 -1.000000 -1.000000 0.000001 -0.000001 0.000001 1.000000 0.000001 64871.dat
0 STEP
1 1 0.000090 -138.726200 -169.000100 1.000000 0.000000 0.000000 0.000000 1.000000 0.000000 0.000000 0.000000 1.000000 3894.dat
1 1 0.000090 -162.726200 -169.000100 1.000000 0.000000 0.000000 0.000000 1.000000 0.000000 0.000000 0.000000 1.000000 3894.dat
0 STEP
1 1 -39.999910 -114.726200 -139.000100 0.000000 0.000000 1.000000 0.000000 1.000000 0.000000 -1.000000 0.000000 0.000000 32001.dat
1 15 -29.999910 -138.726200 -189.000200 0.000000 0.000000 1.000000 0.000000 1.000000 0.000000 -1.000000 0.000000 0.000000 3040b.dat
0 STEP
1 0 346.290800 -23.229480 -8.100520 0.000000 -0.763816 -0.645432 0.000000 -0.645432 0.763817 -1.000000 0.000000 0.000000 88323.dat
1 0 319.230600 -22.046640 -8.100520 0.000000 -0.118711 -0.992931 0.000000 -0.992929 0.118713 -1.000000 0.000000 0.000000 88323.dat
1 0 336.419800 -120.725200 -8.100520 0.000000 -0.062148 0.998069 0.000000 0.998067 0.062146 -1.000000 0.000000 0.000000 88323.dat
1 0 274.999700 -121.254400 -8.100590 0.000000 -0.000002 1.000000 0.000000 1.000000 -0.000001 -1.000000 0.000000 0.000000 88323.dat
1 0 244.999700 -121.254400 -8.100590 0.000000 -0.000002 1.000000 0.000000 1.000000 -0.000001 -1.000000 0.000000 0.000000 88323.dat
1 0 214.999700 -121.254300 -8.100590 0.000000 -0.000002 1.000000 0.000000 1.000000 -0.000001 -1.000000 0.000000 0.000000 88323.dat
1 0 184.999600 -121.254300 -8.100590 0.000000 -0.000002 1.000000 0.000000 1.000000 -0.000001 -1.000000 0.000000 0.000000 88323.dat
1 0 154.999300 -121.254300 -8.100520 0.000000 -0.000002 1.000000 0.000000 1.000000 -0.000001 -1.000000 0.000000 0.000000 88323.dat
1 0 124.999400 -121.254300 -8.100520 0.000000 -0.000002 1.000000 0.000000 1.000000 -0.000001 -1.000000 0.000000 0.000000 88323.dat
1 0 94.999450 -121.254300 -8.100520 0.000000 -0.000002 1.000000 0.000000 1.000000 -0.000001 -1.000000 0.000000 0.000000 88323.dat
1 0 304.999700 -121.254400 -8.100590 0.000000 -0.000002 1.000000 0.000000 1.000000 -0.000001 -1.000000 0.000000 0.000000 88323.dat
1 0 363.327900 -107.318900 -8.100520 0.000000 -0.508451 0.861096 0.000000 0.861092 0.508449 -1.000000 0.000000 0.000000 88323.dat
1 0 374.350200 -77.413240 -8.100520 0.000000 -0.942224 0.334992 0.000000 0.334992 0.942222 -1.000000 0.000000 0.000000 88323.dat
1 0 365.647100 -48.114640 -8.100590 0.000000 -0.950195 -0.311640 0.000000 -0.311641 0.950203 -1.000000 0.000000 0.000000 88323.dat
1 0 169.451100 -17.050290 -8.100590 0.000000 -0.011955 -0.999931 0.000000 -0.999929 0.011958 -1.000000 0.000000 0.000000 88323.dat
1 0 139.453200 -16.691580 -8.100590 0.000000 -0.011955 -0.999931 0.000000 -0.999929 0.011958 -1.000000 0.000000 0.000000 88323.dat
1 0 109.455400 -16.332820 -8.100520 0.000000 -0.011955 -0.999931 0.000000 -0.999929 0.011958 -1.000000 0.000000 0.000000 88323.dat
1 0 79.457280 -15.974080 -8.100520 0.000000 -0.011955 -0.999931 0.000000 -0.999929 0.011958 -1.000000 0.000000 0.000000 88323.dat
1 0 47.646780 -18.515700 -8.100520 0.000000 0.118948 -0.992903 0.000000 -0.992901 -0.118945 -1.000000 0.000000 0.000000 88323.dat
1 0 20.164340 -33.768580 -8.100460 0.000000 0.471966 -0.881622 0.000000 -0.881619 -0.471964 -1.000000 0.000000 0.000000 88323.dat
1 0 3.579410 -57.518160 -8.100520 0.000000 0.805171 -0.593047 0.000000 -0.593047 -0.805169 -1.000000 0.000000 0.000000 88323.dat
1 0 9.773990 -87.764690 -8.100520 0.000000 0.987334 0.158670 0.000000 0.158667 -0.987332 -1.000000 0.000000 0.000000 88323.dat
1 0 30.466830 -111.098000 -8.100520 0.000000 0.771942 0.635691 0.000000 0.635691 -0.771943 -1.000000 0.000000 0.000000 88323.dat
1 0 60.996060 -122.318900 -8.100520 0.000000 0.330681 0.943745 0.000000 0.943743 -0.330682 -1.000000 0.000000 0.000000 88323.dat
1 0 289.442700 -18.485180 -8.100520 0.000000 -0.011955 -0.999931 0.000000 -0.999929 0.011958 -1.000000 0.000000 0.000000 88323.dat
1 0 259.444900 -18.126510 -8.100590 0.000000 -0.011955 -0.999931 0.000000 -0.999929 0.011958 -1.000000 0.000000 0.000000 88323.dat
1 0 229.447000 -17.767760 -8.100590 0.000000 -0.011955 -0.999931 0.000000 -0.999929 0.011958 -1.000000 0.000000 0.000000 88323.dat
1 0 199.449100 -17.409030 -8.100590 0.000000 -0.011955 -0.999931 0.000000 -0.999929 0.011958 -1.000000 0.000000 0.000000 88323.dat
0 STEP
1 0 336.421800 -120.725800 -249.610500 0.000000 -0.062147 0.998075 0.000000 0.998075 0.062147 -1.000000 0.000000 0.000000 88323.dat
1 0 305.001500 -121.255000 -249.610500 0.000000 0.000000 1.000007 0.000000 1.000007 0.000000 -1.000000 0.000000 0.000000 88323.dat
1 0 275.001400 -121.255000 -249.610500 0.000000 0.000000 1.000007 0.000000 1.000007 0.000000 -1.000000 0.000000 0.000000 88323.dat
1 0 245.001200 -121.255000 -249.610500 0.000000 0.000000 1.000007 0.000000 1.000007 0.000000 -1.000000 0.000000 0.000000 88323.dat
1 0 215.001000 -121.255000 -249.610500 0.000000 0.000000 1.000007 0.000000 1.000007 0.000000 -1.000000 0.000000 0.000000 88323.dat
1 0 185.000700 -121.255000 -249.610500 0.000000 0.000000 1.000007 0.000000 1.000007 0.000000 -1.000000 0.000000 0.000000 88323.dat
1 0 155.000400 -121.255000 -249.610500 0.000000 0.000000 1.000007 0.000000 1.000007 0.000000 -1.000000 0.000000 0.000000 88323.dat
1 0 125.000200 -121.255000 -249.610500 0.000000 0.000000 1.000007 0.000000 1.000007 0.000000 -1.000000 0.000000 0.000000 88323.dat
1 0 95.000080 -121.255000 -249.610500 0.000000 0.000000 1.000007 0.000000 1.000007 0.000000 -1.000000 0.000000 0.000000 88323.dat
1 0 363.330100 -107.319400 -249.610500 0.000000 -0.508453 0.861099 0.000000 0.861099 0.508453 -1.000000 0.000000 0.000000 88323.dat
1 0 374.352300 -77.413470 -249.610500 0.000000 -0.942229 0.334994 0.000000 0.334994 0.942229 -1.000000 0.000000 0.000000 88323.dat
1 0 365.649800 -48.114740 -249.610500 0.000000 -0.950207 -0.311643 0.000000 -0.311643 0.950207 -1.000000 0.000000 0.000000 88323.dat
1 0 346.293000 -23.229360 -249.610500 0.000000 -0.763824 -0.645438 0.000000 -0.645438 0.763824 -1.000000 0.000000 0.000000 88323.dat
1 0 319.232700 -22.046520 -249.610500 0.000000 -0.118713 -0.992936 0.000000 -0.992936 0.118713 -1.000000 0.000000 0.000000 88323.dat
1 0 289.444700 -18.485080 -249.610500 0.000000 -0.011957 -0.999936 0.000000 -0.999936 0.011957 -1.000000 0.000000 0.000000 88323.dat
1 0 259.446700 -18.126370 -249.610500 0.000000 -0.011957 -0.999936 0.000000 -0.999936 0.011957 -1.000000 0.000000 0.000000 88323.dat
1 0 229.448700 -17.767670 -249.610500 0.000000 -0.011957 -0.999936 0.000000 -0.999936 0.011957 -1.000000 0.000000 0.000000 88323.dat
1 0 199.450500 -17.408940 -249.610500 0.000000 -0.011957 -0.999936 0.000000 -0.999936 0.011957 -1.000000 0.000000 0.000000 88323.dat
1 0 169.452400 -17.050250 -249.610500 0.000000 -0.011957 -0.999936 0.000000 -0.999936 0.011957 -1.000000 0.000000 0.000000 88323.dat
1 0 139.454300 -16.691530 -249.610500 0.000000 -0.011957 -0.999936 0.000000 -0.999936 0.011957 -1.000000 0.000000 0.000000 88323.dat
1 0 109.456200 -16.332800 -249.610500 0.000000 -0.011957 -0.999936 0.000000 -0.999936 0.011957 -1.000000 0.000000 0.000000 88323.dat
1 0 79.457950 -15.974080 -249.610500 0.000000 -0.011957 -0.999936 0.000000 -0.999936 0.011957 -1.000000 0.000000 0.000000 88323.dat
1 0 47.647260 -18.515720 -249.610500 0.000000 0.118947 -0.992908 0.000000 -0.992908 -0.118947 -1.000000 0.000000 0.000000 88323.dat
1 0 20.164400 -33.768740 -249.610500 0.000000 0.471968 -0.881625 0.000000 -0.881625 -0.471968 -1.000000 0.000000 0.000000 88323.dat
1 0 3.579250 -57.518460 -249.610500 0.000000 0.805175 -0.593051 0.000000 -0.593051 -0.805175 -1.000000 0.000000 0.000000 88323.dat
1 0 9.773829 -87.765220 -249.610500 0.000000 0.987339 0.158669 0.000000 0.158669 -0.987339 -1.000000 0.000000 0.000000 88323.dat
1 0 30.467030 -111.098700 -249.610500 0.000000 0.771949 0.635697 0.000000 0.635697 -0.771949 -1.000000 0.000000 0.000000 88323.dat
1 0 60.996400 -122.319600 -249.610500 0.000000 0.330685 0.943750 0.000000 0.943750 -0.330685 -1.000000 0.000000 0.000000 88323.dat
0 STEP
0 STEP
0 NOFILE
0 FILE SubModel Group 9 Copy Copy Copy
0 SubModel Group 9 Copy Copy Copy
0 Name:  SubModel Group 9 Copy Copy Copy
0 Author:  
0 CustomBrick
0 NumOfBricks:  3
1 72 10.000000 -1.128810 -10.000000 1.000000 0.000000 0.000000 0.000000 0.000000 -1.000000 0.000000 1.000000 0.000000 dch003.dat
1 71 -27.466620 -79.717990 29.427020 1.000000 0.000000 0.000000 0.000000 0.000000 -1.000000 0.000000 1.000000 0.000000 dch004.dat
1 25 7.837010 13.484720 -9.965000 1.000000 0.000000 0.000000 0.000000 0.000000 -1.000000 0.000000 1.000000 0.000000 dch005.dat
0 NOFILE
