0 Untitled Model
0 Name:  桁架结构
0 Author:  
0 CustomBrick
0 NumOfBricks:  23
1 0 89.999820 -20.000110 -109.999800 0.000000 0.000000 -0.999999 1.000000 0.000000 0.000000 0.000000 -0.999999 0.000000 2780.dat
1 15 -9.999880 -29.999900 -109.999800 0.000001 0.000001 -0.999999 -0.000001 -1.000000 -0.000001 -1.000000 0.000001 -0.000001 64290.dat
1 15 89.998950 -9.999980 29.999200 1.000000 -0.000001 0.000001 0.000001 1.000000 0.000001 -0.000001 -0.000001 0.999999 64871.dat
0 STEP
1 0 -110.000100 -20.000000 -109.999900 0.000000 0.000000 -1.000000 1.000000 0.000000 0.000000 0.000000 -0.999999 0.000000 2780.dat
0 STEP
1 15 -109.999900 -9.999869 30.000020 1.000000 -0.000001 0.000001 0.000001 1.000000 0.000001 -0.000001 -0.000001 0.999999 64871.dat
0 STEP
1 15 -8.994269 -30.000060 31.004610 0.707109 -0.000001 0.707105 0.000000 1.000000 0.000001 -0.707105 -0.000001 0.707109 64871.dat
1 0 90.000060 -19.999880 129.998800 0.000000 0.000000 -0.999999 1.000000 0.000000 0.000000 0.000000 -0.999999 0.000000 2780.dat
0 STEP
1 19 -37.278460 -40.000120 2.720280 -0.000001 1.000000 -0.000001 -1.000000 -0.000001 0.000001 0.000001 0.000001 0.999999 3749.dat
0 STEP
1 0 -39.188430 -70.000110 2.720280 -1.000000 0.000000 -0.000001 0.000000 1.000000 0.000000 0.000001 0.000000 -0.999999 3705.dat
1 4 -37.278460 -50.000120 2.720280 -1.000000 0.000000 0.000000 0.000000 -0.000001 1.000000 0.000000 0.999999 0.000001 32039.dat
1 14 -21.838520 -70.000110 2.720220 0.000000 0.000000 1.000000 0.000000 1.000000 0.000000 -0.999999 0.000000 0.000000 32123a.dat
1 14 -53.078460 -70.000110 2.720290 0.000000 0.000000 1.000000 0.000000 1.000000 0.000000 -0.999999 0.000000 0.000000 32123a.dat
0 STEP
1 4 -69.188440 -70.000110 2.720300 0.000000 -0.000001 1.000000 0.000000 -1.000000 -0.000001 0.999999 0.000000 -0.000001 32039.dat
1 4 -5.318440 -70.000110 2.720270 -0.000001 0.000001 -1.000000 0.000000 -1.000000 -0.000001 -0.999999 0.000000 0.000000 32039.dat
1 19 -89.188460 -70.000110 -7.279680 -0.000001 1.000000 -0.000001 0.000001 0.000001 1.000000 1.000000 0.000001 -0.000001 3749.dat
1 19 14.681560 -70.000110 -8.649730 -0.000001 1.000000 -0.000001 0.000001 0.000001 1.000000 1.000000 0.000001 -0.000001 3749.dat
0 STEP
1 0 89.999140 -19.999840 169.999100 0.000000 0.000000 -1.000000 1.000000 0.000000 0.000000 0.000000 -0.999999 0.000000 2780.dat
1 0 -109.999700 -19.999730 169.999900 0.000000 0.000000 -1.000000 1.000000 0.000000 0.000000 0.000000 -0.999999 0.000000 2780.dat
0 STEP
1 15 -9.999690 -29.999840 170.000000 -0.000001 -0.000001 1.000000 -0.000001 -1.000000 -0.000001 1.000000 -0.000001 0.000001 64290.dat
0 STEP
1 0 -9.999690 -39.999840 170.000000 0.000000 0.000000 -1.000000 1.000000 0.000000 0.000000 0.000000 -0.999999 0.000000 2780.dat
1 0 -29.999890 -39.999920 -109.999900 0.000000 0.000000 -1.000000 1.000000 0.000000 0.000000 0.000000 -0.999999 0.000000 2780.dat
0 STEP
1 4 -29.999890 -49.999920 -109.999900 0.000000 0.000000 -1.000000 -1.000000 0.000000 0.000000 0.000000 0.999999 0.000000 32034.dat
1 4 -9.999690 -49.999840 170.000000 0.000000 0.000000 -1.000000 -1.000000 0.000000 0.000000 0.000000 0.999999 0.000000 32034.dat
0 STEP
0 STEP
