0 Untitled Model
0 Name:  公园漫步机
0 Author:  
0 CustomBrick
0 NumOfBricks:  41
1 71 29.999880 -29.999960 -50.000060 0.000000 0.000000 -1.000000 0.000000 1.000000 0.000000 1.000000 0.000000 0.000000 64179.dat
0 STEP
1 15 30.000000 -9.999949 -9.999929 0.000001 0.000001 -1.000000 -0.000001 -1.000000 -0.000001 -1.000000 0.000001 -0.000001 32524.dat
1 15 29.999860 -9.999900 -89.999950 0.000001 0.000001 -1.000000 -0.000001 -1.000000 -0.000001 -1.000000 0.000001 -0.000001 32524.dat
1 0 9.999860 -19.999960 -90.000080 0.000000 0.000000 -1.000000 1.000000 0.000000 0.000000 0.000000 -1.000000 0.000000 2780.dat
1 0 49.999880 -19.999960 -90.000080 0.000000 0.000000 -1.000000 1.000000 0.000000 0.000000 0.000000 -1.000000 0.000000 2780.dat
1 0 9.999869 -19.999960 -10.000060 0.000000 0.000000 -1.000000 -1.000000 0.000000 0.000000 0.000000 1.000000 0.000000 2780.dat
1 0 49.999880 -19.999960 -10.000050 0.000000 0.000000 -1.000000 -1.000000 0.000000 0.000000 0.000000 1.000000 0.000000 2780.dat
0 STEP
1 0 -39.999960 -29.999960 -29.999950 1.000002 0.000000 0.000000 0.000000 1.000000 0.000000 0.000000 0.000000 1.000002 2780.dat
1 0 100.000100 -29.999960 -29.999920 1.000002 0.000000 0.000000 0.000000 1.000000 0.000000 0.000000 0.000000 1.000002 2780.dat
1 0 -39.999960 -29.999960 -69.999970 1.000002 0.000000 0.000000 0.000000 1.000000 0.000000 0.000000 0.000000 1.000002 2780.dat
1 0 100.000100 -29.999960 -69.999940 1.000002 0.000000 0.000000 0.000000 1.000000 0.000000 0.000000 0.000000 1.000002 2780.dat
0 STEP
1 71 -49.999960 -69.999960 -49.999950 0.000000 1.000002 0.000000 0.000000 0.000000 1.000000 1.000002 0.000000 0.000000 60484.dat
1 71 110.000100 -69.999960 -49.999920 0.000000 1.000003 0.000000 0.000000 0.000000 1.000000 1.000003 0.000000 0.000000 60484.dat
0 STEP
1 19 -39.999940 -50.000000 -49.999980 1.000002 0.000001 -0.000001 0.000001 0.000001 1.000000 0.000001 -1.000002 0.000001 3749.dat
1 0 -39.999960 -69.999960 -49.999950 1.000002 0.000000 0.000000 0.000000 1.000000 0.000000 0.000000 0.000000 1.000002 2780.dat
1 0 100.000100 -69.999960 -49.999920 1.000002 0.000000 0.000000 0.000000 1.000000 0.000000 0.000000 0.000000 1.000002 2780.dat
1 19 100.000100 -49.999940 -49.999920 -1.000002 -0.000001 0.000001 0.000001 0.000001 1.000000 -0.000001 1.000002 -0.000001 3749.dat
0 STEP
1 19 80.000070 -170.000000 -49.999940 -1.000002 -0.000001 0.000001 0.000001 0.000001 1.000000 -0.000001 1.000002 -0.000001 3749.dat
1 19 -19.999950 -170.000000 -49.999950 1.000002 0.000001 -0.000001 0.000001 0.000001 1.000000 0.000001 -1.000002 0.000001 3749.dat
1 1 90.000070 -210.000000 -49.999940 0.000000 -1.000003 0.000000 0.000000 0.000000 -1.000000 1.000003 0.000000 0.000000 32009.dat
1 1 -29.999960 -210.000000 -49.999950 0.000000 -1.000002 0.000000 0.000000 0.000000 -1.000000 1.000002 -0.000001 0.000000 32009.dat
0 STEP
1 0 9.999980 -170.000000 -49.999940 0.000000 0.000000 1.000000 0.000000 -1.000000 0.000000 1.000000 0.000000 0.000000 32014.dat
1 0 50.000060 -170.000000 -49.999940 0.000000 -1.000000 0.000000 0.000000 0.000000 -1.000000 1.000000 0.000000 0.000000 32014.dat
0 STEP
1 4 9.999980 -69.999960 -69.999960 0.000000 0.000000 -1.000000 1.000000 0.000000 0.000000 0.000000 -1.000000 0.000000 42003.dat
1 4 50.000060 -69.999970 -69.999960 0.000000 0.000000 1.000000 -1.000000 0.000000 0.000000 0.000000 -1.000000 0.000000 42003.dat
1 71 9.999980 -110.000000 -49.999940 0.000000 0.000000 1.000000 1.000000 0.000000 0.000000 0.000000 1.000000 0.000000 32073.dat
1 71 50.000060 -110.000000 -49.999940 0.000000 0.000000 1.000000 1.000000 0.000000 0.000000 0.000000 1.000000 0.000000 32073.dat
0 STEP
1 71 29.549800 -210.000200 30.000120 0.000001 0.000000 -1.000000 0.000000 1.000000 0.000000 1.000000 0.000000 0.000001 3713.dat
1 4 -0.330210 -210.000200 30.000110 -1.000000 0.000000 0.000000 0.000000 1.000000 0.000000 0.000000 0.000000 -1.000000 62462.dat
1 4 59.629760 -210.000200 30.000120 -1.000000 0.000000 0.000000 0.000000 1.000000 0.000000 0.000000 0.000000 -1.000000 62462.dat
1 0 28.379760 -210.000200 30.000120 -1.000000 0.000000 0.000000 0.000000 1.000000 0.000000 0.000000 0.000000 -1.000000 3707.dat
0 STEP
1 0 -10.000200 -29.999960 -0.000070 0.000000 0.000000 -1.000000 0.000000 1.000000 0.000000 1.000000 0.000000 0.000000 2780.dat
1 0 69.999880 -29.999960 -100.000100 0.000000 0.000000 -1.000000 0.000000 1.000000 0.000000 1.000000 0.000000 0.000000 2780.dat
1 4 -10.000250 -29.999960 9.999940 0.000000 0.000000 -1.000000 0.000000 -1.000000 0.000000 -1.000000 0.000000 0.000000 32034.dat
1 4 69.999880 -29.999960 -110.000100 0.000000 0.000000 -1.000000 0.000000 -1.000000 0.000000 -1.000000 0.000000 0.000000 32034.dat
0 STEP
1 0 -39.999900 -130.000000 -49.999950 -1.000000 0.000000 0.000000 0.000000 1.000000 0.000000 0.000000 0.000000 -1.000000 2780.dat
1 0 100.000100 -130.000000 -49.999920 -1.000000 0.000000 0.000000 0.000000 1.000000 0.000000 0.000000 0.000000 -1.000000 2780.dat
0 STEP
1 4 110.000100 -130.000000 -49.999920 -1.000000 0.000000 0.000000 0.000000 -1.000000 0.000000 0.000000 0.000000 1.000000 32034.dat
1 4 -49.999900 -130.000000 -49.999960 -1.000000 0.000000 0.000000 0.000000 -1.000000 0.000000 0.000000 0.000000 1.000000 32034.dat
0 STEP
1 14 -46.620250 -210.000200 30.000100 0.000000 0.000000 1.000000 0.000000 1.000000 0.000000 -1.000000 0.000000 0.000000 32123a.dat
1 14 105.699700 -210.000200 30.000130 0.000000 0.000000 1.000000 0.000000 1.000000 0.000000 -1.000000 0.000000 0.000000 32123a.dat
0 STEP
0 STEP
