0 Untitled Model
0 Name:  晾衣架
0 Author:  
0 CustomBrick
0 NumOfBricks:  33
1 1 -30.843620 -37.103520 -30.003020 1.000000 0.000001 0.000000 -0.000001 1.000000 0.000000 0.000000 0.000000 1.000000 3703.dat
0 STEP
1 1 169.156400 -37.103680 -30.003000 0.999998 0.000000 0.000000 0.000000 0.999999 0.000000 0.000000 0.000000 1.000000 3701.dat
1 1 -230.843600 -37.103370 -30.003020 1.000000 0.000000 0.000000 0.000000 1.000000 0.000000 0.000000 0.000000 1.000000 3701.dat
1 1 129.156400 -45.103640 -30.003000 0.999998 0.000000 0.000000 0.000000 0.999999 0.000000 0.000000 0.000000 1.000000 3710.dat
1 1 -190.843600 -45.103370 -30.003020 1.000000 0.000000 0.000000 0.000000 1.000000 0.000000 0.000000 0.000000 1.000000 3710.dat
1 1 -190.843600 -13.103370 -30.003020 1.000000 0.000000 0.000000 0.000000 1.000000 0.000000 0.000000 0.000000 1.000000 3710.dat
1 1 129.156500 -13.103680 -30.003060 0.999998 0.000000 0.000000 0.000000 0.999999 0.000000 0.000000 0.000000 1.000000 3710.dat
0 STEP
1 0 182.965400 -99.608280 -40.002220 0.000000 0.000001 -1.000000 0.000000 1.000000 0.000001 1.000000 0.000000 0.000000 2780.dat
1 0 -264.374000 -86.554810 -40.002940 0.000000 0.390737 -0.920502 0.000004 0.920503 0.390737 1.000000 -0.000004 -0.000001 2780.dat
1 0 -210.843600 -27.103370 -40.003020 0.000000 -0.996195 0.087156 0.000000 -0.087156 -0.996195 1.000000 0.000000 0.000000 2780.dat
1 0 149.156400 -27.103680 -40.003020 0.000000 0.000000 -0.999998 0.000000 0.999999 0.000000 1.000000 0.000000 0.000000 2780.dat
1 15 107.789900 -126.969700 -30.003000 0.342021 0.000001 -0.939693 -0.939695 0.000001 -0.342020 0.000001 1.000000 0.000001 64871.dat
1 15 166.061200 -63.355920 -50.002960 -0.906305 0.000001 -0.422618 -0.422618 0.000001 0.906307 0.000001 1.000000 0.000000 32316.dat
1 15 -191.663100 -117.909300 -30.002050 -0.406739 0.000002 -0.913545 -0.913545 0.000005 0.406738 0.000005 1.000000 0.000000 64871.dat
1 15 -237.608800 -56.829100 -50.002980 0.743145 0.000001 -0.669131 -0.669131 0.000001 -0.743145 0.000000 1.000000 0.000001 32316.dat
0 STEP
1 71 -43.766800 -194.852700 -50.002000 0.000000 -1.000000 0.000001 0.000000 0.000001 1.000000 -1.000000 0.000000 0.000000 4519.dat
1 72 -43.766860 -174.852800 -55.001860 1.000000 0.000000 -0.000001 -0.000001 0.000000 -1.000000 0.000000 1.000000 0.000000 99773.dat
1 72 -43.766860 -174.852800 -45.001930 1.000000 0.000000 -0.000001 -0.000001 0.000000 -1.000000 0.000000 1.000000 0.000000 99773.dat
1 0 -63.766860 -174.852700 -40.001990 0.000000 -0.422617 -0.906308 0.000000 0.906308 -0.422618 1.000000 0.000000 0.000000 2780.dat
1 0 -23.766840 -174.852800 -40.001930 0.000000 0.000001 -1.000000 0.000000 1.000000 0.000001 1.000000 0.000000 0.000000 2780.dat
1 0 -43.766920 -214.852800 -40.001930 0.000000 0.000001 -1.000000 0.000000 1.000000 0.000001 1.000000 0.000000 0.000000 2780.dat
1 1 -43.766860 -194.852800 -30.001960 1.000000 -0.000001 -0.000002 -0.000002 -0.000001 -1.000002 0.000001 1.000000 -0.000001 32140.dat
0 STEP
1 71 -43.766800 -194.852700 -70.002040 1.000000 0.000001 0.000001 -0.000001 1.000000 0.000000 -0.000001 0.000000 1.000000 3713.dat
0 STEP
1 1 -43.766730 -64.852700 -10.001740 1.000000 0.000001 0.000000 -0.000001 1.000000 0.000000 0.000000 0.000000 1.000000 3700.dat
1 1 -43.766730 -84.852690 -50.001760 1.000000 0.000001 0.000000 -0.000001 1.000000 0.000000 0.000000 0.000000 1.000000 3700.dat
1 0 -43.766800 -54.852680 -20.001730 0.000000 -0.258818 -0.965926 0.000000 0.965927 -0.258819 1.000000 0.000000 0.000000 2780.dat
1 0 -43.766800 -74.852670 -40.001800 0.000000 0.000001 -1.000000 0.000000 1.000000 0.000001 1.000000 0.000000 0.000000 2780.dat
1 0 -43.766860 -174.852800 -40.001930 0.000000 0.000001 -1.000000 0.000000 1.000000 0.000001 1.000000 0.000000 0.000000 2780.dat
1 15 -43.766800 -114.852700 -30.001960 1.000000 -0.000001 0.000002 -0.000002 -0.000001 1.000000 -0.000001 -1.000000 -0.000001 32524.dat
0 STEP
1 19 -23.766960 -254.852900 -20.002070 -0.000001 1.000000 0.000000 0.000001 0.000000 1.000000 1.000000 0.000001 -0.000001 3749.dat
1 19 -43.766980 -254.852900 -40.002040 0.000001 -1.000000 0.000002 0.000001 0.000002 1.000000 -1.000000 -0.000001 0.000001 3749.dat
1 15 -43.766980 -264.852800 -50.002040 1.000000 0.000001 0.000000 -0.000001 1.000000 0.000000 0.000000 0.000000 1.000000 32064a.dat
1 15 -23.766960 -264.852800 -10.002070 1.000000 0.000001 0.000000 -0.000001 1.000000 0.000000 0.000000 0.000000 1.000000 32064a.dat
0 STEP
0 STEP
