0 Untitled Model
0 Name:  等臂杠杆
0 Author:  
0 CustomBrick
0 NumOfBricks:  49
1 0 -327.344000 -11.627580 39.999880 0.000000 0.000000 1.000000 0.000000 1.000000 0.000000 -1.000000 0.000000 0.000000 2780.dat
1 15 -227.344000 -11.627720 50.000000 0.000001 0.000001 -1.000000 1.000000 -0.000001 0.000001 -0.000001 -1.000000 -0.000001 64290.dat
0 STEP
1 0 -287.344000 -11.627620 39.999880 0.000000 0.000000 1.000000 0.000000 1.000000 0.000000 -1.000000 0.000000 0.000000 2780.dat
1 1 -127.344000 -11.627820 30.000120 0.000000 0.000000 1.000000 0.000000 1.000000 0.000000 -1.000000 0.000000 0.000000 6558.dat
1 15 -207.344000 -11.627900 30.000120 0.000001 0.000001 -1.000000 -1.000000 0.000001 -0.000001 0.000001 1.000000 0.000001 40490.dat
0 STEP
1 15 -277.172100 -142.328700 29.999880 0.933579 -0.000001 0.358371 0.358371 0.000001 -0.933579 0.000001 1.000000 0.000001 64871.dat
1 15 -177.515400 -142.329100 10.000180 0.933581 -0.000001 -0.358367 -0.358367 0.000001 -0.933581 0.000002 1.000000 0.000001 64871.dat
0 STEP
1 0 -227.000000 -273.030000 -40.000000 0.000000 0.000000 1.000000 0.000000 1.000000 0.000000 -1.000000 0.000000 0.000000 3737.dat
1 71 -226.999900 -273.030000 50.080080 1.000000 0.000000 0.000001 0.000000 1.000000 0.000000 -0.000001 0.000000 1.000000 3713.dat
0 STEP
1 15 -227.000000 -273.030000 -29.999880 0.000001 0.000001 -1.000000 -1.000000 0.000001 -0.000001 0.000001 1.000000 0.000001 64871.dat
1 71 -226.999900 -273.030000 -9.999880 1.000000 0.000000 0.000001 0.000000 1.000000 0.000000 -0.000001 0.000000 1.000000 3713.dat
0 STEP
1 15 -227.000000 -273.030000 -50.000000 0.000001 0.000001 -1.000000 -1.000000 0.000001 -0.000001 0.000001 1.000000 0.000001 64871.dat
1 0 -367.000000 -273.030200 -39.999880 0.000000 0.000000 1.000000 0.000000 1.000000 0.000000 -1.000000 0.000000 0.000000 2780.dat
1 0 -87.000110 -273.029800 -40.000120 0.000000 0.000000 1.000000 0.000000 1.000000 0.000000 -1.000000 0.000000 0.000000 2780.dat
0 STEP
1 4 -207.343900 -11.627900 30.000120 -0.000001 1.000000 -0.000001 0.000001 0.000001 1.000000 1.000000 0.000001 -0.000001 32054.dat
1 4 -207.343700 -11.627980 -110.000000 0.000001 -1.000000 0.000001 0.000001 0.000001 1.000000 -1.000000 -0.000001 0.000001 32054.dat
1 0 -207.343800 -11.627990 -40.000000 0.000000 0.000000 1.000000 0.000000 1.000000 0.000000 -1.000000 0.000000 0.000000 3706.dat
0 STEP
1 4 -247.343900 -11.627930 30.000120 -0.000001 1.000000 -0.000001 0.000001 0.000001 1.000000 1.000000 0.000001 -0.000001 32054.dat
1 4 -247.343700 -11.628020 -110.000000 0.000001 -1.000000 0.000001 0.000001 0.000001 1.000000 -1.000000 -0.000001 0.000001 32054.dat
1 0 -247.343800 -11.628050 -40.000000 0.000000 0.000000 1.000000 0.000000 1.000000 0.000000 -1.000000 0.000000 0.000000 3706.dat
0 STEP
1 71 -227.000000 -273.030000 -70.000000 1.000000 0.000000 0.000001 0.000000 1.000000 0.000000 -0.000001 0.000000 1.000000 3713.dat
1 15 -177.516000 -142.329200 -90.000800 0.933581 -0.000001 -0.358367 -0.358367 0.000001 -0.933581 0.000002 1.000000 0.000001 64871.dat
0 STEP
1 0 -287.344700 -11.628080 -120.000400 0.000000 0.000000 -1.000000 0.000000 1.000000 0.000000 1.000000 0.000000 0.000000 2780.dat
1 1 -127.344700 -11.627900 -110.000900 0.000000 0.000000 -1.000000 0.000000 1.000000 0.000000 1.000000 0.000000 0.000000 6558.dat
1 15 -207.343800 -11.627960 -110.000000 0.000001 0.000001 -1.000000 -1.000000 0.000001 -0.000001 0.000001 1.000000 0.000001 40490.dat
0 STEP
1 0 -327.344700 -11.628110 -120.000400 0.000000 0.000000 -1.000000 0.000000 1.000000 0.000000 1.000000 0.000000 0.000000 2780.dat
1 71 -227.000000 -273.030000 -130.000000 -1.000000 0.000000 -0.000001 0.000000 1.000000 0.000000 0.000001 0.000000 -1.000000 3713.dat
1 15 -277.172700 -142.329100 -110.000400 0.933579 -0.000001 0.358371 0.358371 0.000001 -0.933579 0.000001 1.000000 0.000001 64871.dat
0 STEP
1 15 -227.341400 -11.627960 -130.000000 0.000001 0.000001 -1.000000 -1.000000 0.000001 -0.000001 0.000001 1.000000 0.000001 64290.dat
0 STEP
1 1 -407.000000 -283.030100 -69.999820 1.000000 0.000000 0.000000 0.000000 1.000000 0.000000 0.000000 0.000000 1.000000 3895.dat
1 0 -307.000000 -273.030100 -59.999880 0.000000 0.000000 -1.000000 0.000000 1.000000 0.000000 1.000000 0.000000 0.000000 2780.dat
1 0 -347.000000 -273.030100 -59.999820 0.000000 0.000000 -1.000000 0.000000 1.000000 0.000000 1.000000 0.000000 0.000000 2780.dat
0 STEP
1 0 -507.000000 -273.032100 -38.033020 0.000000 -1.000000 0.000000 -1.000007 0.000000 -0.000001 0.000001 0.000000 -1.000007 30391.dat
1 71 -507.000000 -273.030200 -38.289680 -1.000000 0.000000 0.000000 0.000000 1.000000 0.000000 0.000000 0.000000 -1.000000 55982.dat
1 0 -507.000000 -273.030100 -29.999820 0.000000 0.000000 1.000000 0.000000 1.000000 0.000000 -1.000000 0.000000 0.000000 15462.dat
0 STEP
1 1 -407.000000 -283.030100 -9.999820 1.000000 0.000000 0.000000 0.000000 1.000000 0.000000 0.000000 0.000000 1.000000 3895.dat
1 0 -347.000000 -273.030100 -19.999820 0.000000 0.000000 -1.000000 0.000000 1.000000 0.000000 1.000000 0.000000 0.000000 2780.dat
1 0 -307.000000 -273.030100 -19.999820 0.000000 0.000000 -1.000000 0.000000 1.000000 0.000000 1.000000 0.000000 0.000000 2780.dat
1 71 -507.000000 -273.030100 10.000180 -1.000000 0.000000 -0.000001 0.000000 1.000000 0.000000 0.000001 0.000000 -1.000000 3713.dat
0 STEP
1 1 -47.000000 -283.029800 -70.000000 1.000000 0.000000 0.000000 0.000000 1.000000 0.000000 0.000000 0.000000 1.000000 3895.dat
1 0 -147.000000 -273.029800 -60.000000 0.000000 0.000000 -1.000000 0.000000 1.000000 0.000000 1.000000 0.000000 0.000000 2780.dat
1 0 -106.999900 -273.029800 -60.000000 0.000000 0.000000 -1.000000 0.000000 1.000000 0.000000 1.000000 0.000000 0.000000 2780.dat
0 STEP
1 0 52.999940 -273.034800 -38.173160 0.000000 -1.000000 0.000000 -1.000012 0.000000 -0.000001 0.000001 0.000000 -1.000012 30391.dat
1 71 52.999940 -273.030000 -38.429990 -1.000000 0.000000 0.000000 0.000000 1.000000 0.000000 0.000000 0.000000 -1.000000 55982.dat
1 0 52.999940 -273.029800 -30.000000 0.000000 0.000000 1.000000 0.000000 1.000000 0.000000 -1.000000 0.000000 0.000000 15462.dat
0 STEP
1 1 -47.000000 -283.029800 -9.999880 1.000000 0.000000 0.000000 0.000000 1.000000 0.000000 0.000000 0.000000 1.000000 3895.dat
1 0 -106.999900 -273.029800 -20.000000 0.000000 0.000000 -1.000000 0.000000 1.000000 0.000000 1.000000 0.000000 0.000000 2780.dat
1 0 -147.000000 -273.029800 -19.999880 0.000000 0.000000 -1.000000 0.000000 1.000000 0.000000 1.000000 0.000000 0.000000 2780.dat
1 71 52.999940 -273.029800 10.000000 -1.000000 0.000000 -0.000001 0.000000 1.000000 0.000000 0.000001 0.000000 -1.000000 3713.dat
0 STEP
0 STEP
