0 Untitled Model
0 Name:  长颈鹿
0 Author:  
0 CustomBrick
0 NumOfBricks:  42
1 1 -39.999820 -47.999980 -8.839149 0.999998 0.000000 0.000000 0.000000 1.000000 0.000000 0.000000 0.000000 0.999998 3702.dat
1 1 0.000110 -23.999990 -8.839149 0.999998 0.000000 0.000000 0.000000 1.000000 0.000000 0.000000 0.000000 0.999998 3895.dat
0 STEP
1 1 0.000110 -95.999980 -8.839149 0.999998 0.000000 0.000000 0.000000 1.000000 0.000000 0.000000 0.000000 0.999998 3702.dat
1 1 0.000110 -71.999980 -8.839149 0.999998 0.000000 0.000000 0.000000 1.000000 0.000000 0.000000 0.000000 0.999998 3701.dat
1 15 -59.999780 -71.999980 -8.839149 0.999998 0.000000 0.000000 0.000000 1.000000 0.000000 0.000000 0.000000 0.999998 32064a.dat
0 STEP
1 0 -59.999760 -85.999980 -59.529000 0.000000 0.000000 0.999998 0.000000 1.000000 0.000000 -0.999998 0.000000 0.000000 3707.dat
1 71 -59.999760 -85.999980 10.470780 0.999998 0.000000 0.000001 0.000000 1.000000 0.000000 -0.000001 0.000000 0.999998 3713.dat
0 STEP
1 1 -69.999780 -226.000000 -49.089020 0.000000 0.999998 0.000000 -1.000000 0.000000 0.000000 0.000000 0.000000 0.999998 3703.dat
1 1 -69.999750 -85.999980 -29.529080 0.000000 0.999998 0.000000 -1.000000 0.000000 0.000000 0.000000 0.000000 0.999998 3700.dat
0 STEP
1 1 -70.000230 -226.000200 -69.088930 0.000000 1.000004 0.000000 -1.000005 0.000000 0.000000 0.000000 0.000000 0.999998 3703.dat
1 1 -69.999780 -85.999980 -89.278960 0.000000 0.999998 0.000000 -1.000000 0.000000 0.000000 0.000000 0.000000 0.999998 3700.dat
0 STEP
1 1 60.000030 -71.999980 -58.839060 0.000000 0.000000 0.999998 0.000000 1.000000 0.000000 -0.999998 0.000000 0.000000 32001.dat
1 72 -59.999780 -86.000030 -129.528800 0.000000 -0.999998 0.000000 1.000000 0.000000 0.000000 0.000000 0.000000 0.999998 3648b.dat
1 1 0.000200 -95.999980 -110.000000 1.000000 0.000000 0.000000 0.000000 1.000000 0.000000 0.000000 0.000000 1.000000 3702.dat
0 STEP
1 1 0.000200 -71.999980 -110.000000 1.000000 0.000000 0.000000 0.000000 1.000000 0.000000 0.000000 0.000000 1.000000 3701.dat
1 15 -59.999810 -71.999980 -110.000000 1.000000 0.000000 0.000000 0.000000 1.000000 0.000000 0.000000 0.000000 1.000000 32064a.dat
0 STEP
1 1 -39.999900 -47.999980 -110.000000 0.999998 0.000000 0.000000 0.000000 1.000000 0.000000 0.000000 0.000000 0.999998 3702.dat
1 1 0.000200 -23.999990 -110.000000 1.000000 0.000000 0.000000 0.000000 1.000000 0.000000 0.000000 0.000000 1.000000 3895.dat
0 STEP
1 1 -45.999790 -85.999110 -59.089120 0.000000 1.000004 0.000000 0.000000 0.000000 -1.000005 -0.999998 0.000000 0.000000 3709b.dat
1 1 -77.999740 -85.999980 -59.089000 0.000000 0.999998 0.000000 0.000000 0.000000 -1.000000 -0.999998 0.000000 0.000000 3709b.dat
0 STEP
1 1 70.000020 -95.999980 -58.839120 0.000000 0.000000 0.999998 0.000000 1.000000 0.000000 -0.999998 0.000000 0.000000 3700.dat
1 71 89.999950 -45.999940 -58.839180 0.000001 -0.999999 0.000001 0.000001 -0.000001 -1.000000 0.999999 0.000001 0.000001 33299.dat
0 STEP
1 1 60.000180 -104.000000 -60.000120 0.000000 0.000000 0.999998 0.000000 1.000000 0.000000 -0.999998 0.000000 0.000000 32001.dat
1 1 20.000100 -104.000000 -59.999330 0.000000 0.000000 0.999997 0.000000 1.000000 0.000000 -0.999997 0.000000 0.000000 32001.dat
0 STEP
1 15 40.000040 -128.000000 -19.999450 0.999997 0.000000 0.000000 0.000000 1.000000 0.000000 0.000000 0.000000 0.999997 3001.dat
1 15 40.000050 -128.000000 -99.999210 0.999997 0.000000 0.000000 0.000000 1.000000 0.000000 0.000000 0.000000 0.999997 3001.dat
0 STEP
1 72 -19.999810 -85.999980 -130.120000 0.469470 -0.882947 0.000000 -0.882948 -0.469471 0.000000 0.000000 0.000000 -0.999998 3647.dat
1 0 -19.999800 -85.999980 -78.760100 0.000000 -0.469470 0.882947 0.000000 0.882948 0.469471 -0.999998 0.000000 0.000000 3707.dat
0 STEP
1 4 -55.317660 -104.778800 -180.149900 0.000000 0.000000 0.999998 0.000000 1.000000 0.000000 -0.999998 0.000000 0.000000 62462.dat
1 71 -19.999810 -85.999980 -150.149900 -0.469470 -0.000001 -0.882947 0.882948 0.000001 -0.469471 0.000001 -0.999998 0.000000 33299.dat
0 STEP
1 1 -46.000160 -366.000900 -59.088940 0.000000 0.999998 0.000000 -1.000000 0.000000 0.000000 0.000000 0.000000 0.999998 3709b.dat
1 72 -60.000230 -366.000900 -79.088890 -0.000001 0.000000 -0.999998 0.000000 -1.000000 0.000000 -0.999998 0.000000 0.000001 32002.dat
1 72 -59.999780 -365.999900 -39.089120 0.000001 0.000000 0.999998 0.000000 -1.000000 0.000000 0.999998 0.000000 -0.000001 32002.dat
0 STEP
1 19 -60.000110 -406.001000 -39.089000 -0.000001 0.999998 -0.000001 1.000000 0.000001 -0.000001 -0.000001 -0.000001 -0.999998 3749.dat
1 15 -70.000110 -396.000900 -39.089000 0.000000 0.999998 0.000000 0.000000 0.000000 1.000000 0.999998 0.000000 0.000000 32064a.dat
1 15 -70.000110 -396.000900 -79.088890 0.000000 0.999998 0.000000 0.000000 0.000000 1.000000 0.999998 0.000000 0.000000 32064a.dat
1 19 -60.000110 -406.001000 -79.088890 -0.000001 0.999998 -0.000001 1.000000 0.000001 -0.000001 -0.000001 -0.000001 -0.999998 3749.dat
0 STEP
1 1 -94.000080 -396.000900 -59.089000 0.000000 0.999998 0.000000 0.000000 0.000000 1.000000 0.999998 0.000000 0.000000 3700.dat
1 15 -93.999770 -375.999900 -49.089020 0.000000 0.999998 0.000000 0.000000 0.000000 -1.000000 -0.999998 0.000000 0.000000 3040b.dat
1 15 -94.000220 -376.001000 -69.088870 0.000000 0.999998 0.000000 0.000000 0.000000 -1.000000 -0.999998 0.000000 0.000000 3040b.dat
0 STEP
1 15 -118.000000 -376.000900 -49.089020 0.000000 0.999998 0.000000 0.000000 0.000000 1.000000 0.999998 0.000000 0.000000 3040b.dat
1 15 -118.000000 -376.000900 -69.088990 0.000000 0.999998 0.000000 0.000000 0.000000 1.000000 0.999998 0.000000 0.000000 3040b.dat
0 STEP
0 STEP
