0 Untitled Model
0 Name:  打击球
0 Author:  
0 CustomBrick
0 NumOfBricks:  15
1 15 -155.869500 -229.001000 46.995910 -0.000001 -1.000000 -0.000001 -0.000001 -0.000001 1.000005 -1.000005 0.000001 -0.000001 64871.dat
0 STEP
1 15 -135.869700 -249.000700 46.995790 0.000001 1.000000 0.000001 -0.000001 -0.000001 1.000000 1.000000 -0.000001 0.000001 32524.dat
1 0 -145.869900 -309.000900 46.995790 -1.000000 0.000000 0.000000 0.000000 1.000000 0.000000 0.000000 0.000000 -1.000000 2780.dat
1 0 -145.869500 -189.000700 46.995910 -1.000000 0.000000 0.000000 0.000000 1.000000 0.000000 0.000000 0.000000 -1.000000 2780.dat
0 STEP
1 1 -135.869500 -329.001800 46.996280 -0.000001 -1.000000 0.000001 -0.000001 -0.000001 -1.000000 1.000000 -0.000001 -0.000001 32140.dat
1 0 -145.869600 -369.001700 46.996160 -1.000000 0.000000 0.000000 0.000000 1.000000 0.000000 0.000000 0.000000 -1.000000 2780.dat
1 19 -145.869600 -329.001500 46.996100 1.000000 0.000001 -0.000001 0.000001 0.000001 1.000000 0.000001 -1.000000 0.000001 3749.dat
0 STEP
1 1 -135.999900 -9.000000 47.000000 0.000000 -1.000000 0.000000 0.000000 0.000000 1.000000 -1.000000 0.000000 0.000000 32009.dat
1 0 -145.869500 -129.000400 46.995910 -1.000000 0.000000 0.000000 0.000000 1.000000 0.000000 0.000000 0.000000 -1.000000 2780.dat
1 4 -145.999900 -169.000100 47.000000 -1.000000 0.000000 0.000000 0.000000 1.000000 0.000000 0.000000 0.000000 -1.000000 32062.dat
0 STEP
1 15 -116.000000 -9.000040 -13.000000 0.000001 1.000000 0.000001 -1.000000 0.000001 -0.000001 -0.000001 -0.000001 1.000000 32523.dat
1 0 -125.999900 -9.000010 7.000000 -1.000000 0.000000 0.000000 0.000000 1.000000 0.000000 0.000000 0.000000 -1.000000 2780.dat
1 19 -125.999900 -9.000030 -33.000000 -1.000000 -0.000001 0.000001 0.000001 0.000001 1.000000 -0.000001 1.000000 -0.000001 3749.dat
0 STEP
1 0 41.400190 -20.256770 0.000000 -1.000000 0.000000 -0.000001 -0.000001 0.000000 1.000000 0.000000 1.000000 0.000000 30391.dat
1 71 41.400190 -20.000040 0.000000 0.000000 1.000000 0.000000 0.000000 0.000000 1.000000 1.000000 0.000000 0.000000 55982.dat
0 STEP
0 STEP
