0 FILE 手电钻.io
0 Untitled Model
0 Name:  手电钻
0 Author:  
0 CustomBrick
0 NumOfBricks:  80
1 0 7.000410 -10.384220 -29.544680 0.000000 0.000000 0.999999 0.000000 1.000000 0.000000 -1.000000 0.000000 0.000000 2780.dat
1 19 47.000340 -10.384210 -29.544670 0.000001 -0.999999 0.000001 -0.000001 -0.000001 -1.000000 1.000000 0.000001 -0.000001 3749.dat
1 16 97.000000 -47.379680 -49.000000 0.000000 1.000000 0.000000 -1.000000 0.000000 0.000000 0.000000 0.000000 1.000000 submodel group 9 copy copy copy
0 STEP
1 0 7.000410 -10.384220 -89.544620 0.000000 0.000000 0.999999 0.000000 1.000000 0.000000 -1.000000 0.000000 0.000000 2780.dat
1 19 47.000440 -10.384220 -89.544620 0.000001 -0.999999 0.000001 0.000001 0.000001 1.000000 -1.000000 -0.000001 0.000001 3749.dat
0 STEP
1 1 -112.999500 -10.384240 -99.544620 -0.000001 0.000000 -0.999999 -1.000000 0.000000 0.000001 0.000000 1.000000 0.000000 32009.dat
1 1 -112.999500 -10.383260 -19.544710 -0.000001 0.000000 -0.999999 -1.000000 0.000000 0.000001 0.000000 1.000000 0.000000 32009.dat
0 STEP
1 0 67.000380 -220.384200 -79.544480 0.000000 0.000000 0.999999 1.000000 0.000000 0.000000 0.000000 1.000000 0.000000 2780.dat
1 71 86.696460 -230.384000 -35.017430 -0.173649 0.000001 -0.984807 -0.000001 1.000000 0.000001 0.984808 0.000001 -0.173649 60483.dat
1 71 86.696570 -230.384100 -83.017380 0.173647 0.000001 -0.984807 -0.000001 1.000000 0.000001 0.984808 0.000001 0.173647 60483.dat
1 0 67.000320 -220.384100 -38.490450 0.000000 0.000000 0.999999 1.000000 0.000000 0.000000 0.000000 1.000000 0.000000 2780.dat
0 STEP
1 71 -33.303420 -230.384100 -35.017440 0.173648 -0.000001 0.984807 0.000001 -1.000000 -0.000001 0.984808 0.000001 -0.173648 60483.dat
1 71 -33.303330 -230.384100 -83.017380 -0.173647 -0.000001 0.984807 0.000001 -1.000000 -0.000001 0.984808 0.000001 0.173647 60483.dat
1 0 -12.999510 -220.384200 -79.544480 0.000000 0.000000 0.999999 1.000000 0.000000 0.000000 0.000000 1.000000 0.000000 2780.dat
1 0 -12.999420 -220.384200 -39.544540 0.000000 0.000000 0.999999 1.000000 0.000000 0.000000 0.000000 1.000000 0.000000 2780.dat
0 STEP
1 1 26.696520 -250.383800 -45.017540 0.999999 0.000000 0.000000 0.000000 0.000000 -1.000000 0.000000 1.000000 0.000000 3702.dat
1 1 46.696500 -250.383800 -69.017380 0.999999 0.000000 0.000000 0.000000 0.000000 -1.000000 0.000000 1.000000 0.000000 3894.dat
1 19 86.696460 -240.383800 -35.017430 0.000001 -0.984807 -0.173647 1.000000 0.000001 -0.000001 0.000001 -0.173647 0.984808 3749.dat
1 19 -33.303420 -240.383900 -35.017440 0.000001 -0.984807 0.173649 1.000000 0.000001 -0.000001 0.000001 0.173649 0.984808 3749.dat
0 STEP
1 1 -173.304300 -250.383900 -69.017400 1.000007 0.000000 0.000000 0.000000 0.000000 -1.000007 0.000000 1.000000 0.000000 3703.dat
1 1 -113.304000 -260.383700 -45.017520 1.000007 0.000000 0.000000 0.000000 0.000000 -1.000007 0.000000 1.000000 0.000000 32001.dat
0 STEP
1 1 26.696520 -250.383800 -93.017380 0.999999 0.000000 0.000000 0.000000 0.000000 -1.000000 0.000000 1.000000 0.000000 3702.dat
1 19 86.696570 -240.383800 -83.017380 0.000001 -0.984807 0.173649 1.000000 0.000001 -0.000001 0.000001 0.173649 0.984808 3749.dat
1 19 -33.303330 -240.383900 -83.017380 0.000001 -0.984807 -0.173647 1.000000 0.000001 -0.000001 0.000001 -0.173647 0.984808 3749.dat
0 STEP
1 1 26.696520 -250.383700 -117.017400 0.999999 0.000000 0.000000 0.000000 0.000000 -1.000000 0.000000 1.000000 0.000000 3702.dat
1 0 66.696490 -260.383700 -107.017400 0.000000 0.000000 -0.999999 -1.000000 0.000000 0.000000 0.000000 1.000000 0.000000 2780.dat
1 0 -13.303400 -260.383700 -107.017400 0.000000 0.000000 -0.999999 -1.000000 0.000000 0.000000 0.000000 1.000000 0.000000 2780.dat
0 STEP
1 1 26.696540 -250.383800 -21.017480 0.999999 0.000000 0.000000 0.000000 0.000000 -1.000000 0.000000 1.000000 0.000000 3702.dat
1 0 66.696490 -260.383700 -11.017480 0.000000 0.000000 -0.999999 -1.000000 0.000000 0.000000 0.000000 1.000000 0.000000 2780.dat
1 0 -13.303390 -260.383700 -11.017480 0.000000 0.000000 -0.999999 -1.000000 0.000000 0.000000 0.000000 1.000000 0.000000 2780.dat
0 STEP
1 71 26.696540 -310.383500 -107.017400 0.000000 0.000000 0.999999 1.000000 0.000000 0.000000 0.000000 1.000000 0.000000 64179.dat
1 71 26.696540 -310.383600 -11.017480 0.000000 0.000000 0.999999 1.000000 0.000000 0.000000 0.000000 1.000000 0.000000 64179.dat
0 STEP
1 1 -63.303650 -320.383900 -69.017380 0.000000 0.000000 1.000007 1.000007 0.000000 0.000000 0.000000 1.000000 0.000000 3894.dat
1 1 -83.301820 -320.384700 -69.017360 0.000000 0.000000 0.999999 1.000000 0.000000 0.000000 0.000000 1.000000 0.000000 3894.dat
0 STEP
1 1 -113.304000 -380.384300 -45.017400 1.000007 0.000000 0.000000 0.000000 0.000000 -1.000007 0.000000 1.000000 0.000000 32001.dat
1 1 -173.304200 -390.384600 -69.017360 1.000007 0.000000 0.000000 0.000000 0.000000 -1.000007 0.000000 1.000000 0.000000 3703.dat
0 STEP
1 0 -53.303630 -300.383700 -59.017410 -1.000007 0.000000 0.000000 0.000000 0.000000 1.000007 0.000000 1.000000 0.000000 2780.dat
1 0 -53.303620 -340.383900 -59.017380 -1.000007 0.000000 0.000000 0.000000 0.000000 1.000007 0.000000 1.000000 0.000000 2780.dat
0 STEP
1 0 -73.303920 -320.384000 -59.017400 -1.000007 0.000000 0.000000 0.000000 0.000000 1.000007 0.000000 1.000000 0.000000 3705.dat
1 71 -53.303710 -320.383900 -59.017380 0.000000 0.000000 1.000007 1.000007 0.000000 0.000000 0.000000 1.000000 0.000000 58120.dat
0 STEP
1 1 26.696550 -360.383400 -57.017360 0.000000 0.000000 -0.999999 0.000000 -1.000000 0.000000 -1.000000 0.000000 0.000000 3666.dat
1 1 66.696510 -360.383400 -57.017400 0.000000 0.000000 -0.999999 0.000000 -1.000000 0.000000 -1.000000 0.000000 0.000000 3666.dat
0 STEP
1 1 36.696550 -368.383400 -57.017360 -0.999999 0.000000 0.000000 0.000000 -1.000000 0.000000 0.000000 0.000000 1.000000 3709b.dat
1 1 16.696580 -368.383400 -97.017380 0.999999 0.000000 0.000000 0.000000 -1.000000 0.000000 0.000000 0.000000 -1.000000 32001.dat
1 1 16.696580 -368.383400 -17.017460 0.999999 0.000000 0.000000 0.000000 -1.000000 0.000000 0.000000 0.000000 -1.000000 32001.dat
0 STEP
1 15 16.696600 -376.383400 -57.017320 0.000000 0.000000 -1.000003 0.000000 -1.000003 0.000000 -1.000000 0.000000 0.000000 3001.dat
1 15 56.696510 -376.383400 -57.017360 0.000000 0.000000 -1.000003 0.000000 -1.000003 0.000000 -1.000000 0.000000 0.000000 3001.dat
0 STEP
1 15 6.696390 -400.385300 -47.018780 0.000000 0.000000 1.000003 0.000000 -1.000003 0.000000 1.000000 0.000000 0.000000 3040b.dat
1 15 6.696570 -400.383900 -67.017290 0.000000 0.000000 1.000003 0.000000 -1.000003 0.000000 1.000000 0.000000 0.000000 3040b.dat
0 STEP
1 71 -113.234100 -320.384100 -59.020310 0.000000 0.000000 1.000007 0.996646 0.081941 0.000000 -0.081940 0.996637 0.000000 59443.dat
1 71 -143.234200 -320.383900 -59.017380 0.000000 0.000000 -1.000007 -0.996646 0.081941 0.000000 0.081940 0.996637 0.000000 3713.dat
1 0 -173.234300 -320.383900 -59.017380 -1.000007 0.000000 0.000000 0.000000 0.081941 0.996646 0.000000 0.996637 -0.081940 3706.dat
0 STEP
1 1 -183.304400 -320.383900 -69.017360 0.000000 0.000000 1.000007 1.000007 0.000000 0.000000 0.000000 1.000000 0.000000 3894.dat
1 1 -203.303200 -320.384100 -69.017360 0.000000 0.000000 1.000000 1.000000 0.000000 0.000000 0.000000 1.000000 0.000000 3894.dat
0 STEP
1 1 -193.304600 -320.383900 -45.017400 0.000000 0.000000 1.000007 1.000007 0.000000 0.000000 0.000000 1.000000 0.000000 3738.dat
1 71 -223.375000 -320.383900 -59.017380 0.000000 0.000000 -1.000007 0.996646 -0.081941 0.000000 -0.081940 -0.996637 0.000000 3649.dat
0 STEP
1 71 -253.305300 -268.383700 -59.017380 -1.000007 0.000000 -0.000001 0.000001 0.000000 -1.000007 0.000000 -1.000000 0.000000 3650c.dat
1 71 -253.305200 -370.384200 -59.017380 -1.000007 0.000000 -0.000001 -0.000001 0.000000 1.000007 0.000000 1.000000 0.000000 3713.dat
1 0 -253.305200 -320.383900 -59.017380 0.000000 0.000000 1.000007 1.000007 0.000000 0.000000 0.000000 1.000000 0.000000 3707.dat
0 STEP
1 1 -113.301900 -380.384800 -77.017360 0.999999 0.000000 0.000000 0.000000 0.000000 -1.000000 0.000000 1.000000 0.000000 32001.dat
1 1 -113.304400 -260.383700 -77.017380 0.999999 0.000000 0.000000 0.000000 0.000000 -1.000000 0.000000 1.000000 0.000000 32001.dat
0 STEP
1 16 -323.314400 -240.383500 -60.874540 1.000007 0.000000 0.000000 0.000000 0.835810 0.549032 0.000000 -0.549028 0.835803 submodel group 1
0 STEP
1 1 -193.304500 -320.383500 -77.017360 0.000000 0.000000 0.999999 1.000000 0.000000 0.000000 0.000000 1.000000 0.000000 3738.dat
1 1 -313.305300 -320.383500 -77.017360 0.000000 0.000000 0.999999 1.000000 0.000000 0.000000 0.000000 1.000000 0.000000 3738.dat
0 STEP
1 71 -353.725600 -320.383900 -59.017400 0.000000 0.000000 -1.000007 0.835811 -0.549033 0.000000 -0.549028 -0.835804 0.000000 3649.dat
1 71 -372.316000 -320.383600 -59.017400 0.000001 0.000000 -1.000007 0.835811 -0.549033 0.000001 -0.549028 -0.835804 -0.000001 3650c.dat
1 71 -394.346400 -320.383900 -59.017400 -0.000001 0.000000 1.000007 0.549032 -0.835811 0.000000 0.835804 0.549028 0.000001 94925.dat
0 STEP
1 14 -429.996300 -320.383600 -59.017400 0.000000 0.000000 1.000007 0.835811 0.549033 0.000000 -0.549028 0.835804 0.000000 32123a.dat
1 0 -414.956400 -320.383900 -59.017400 0.000000 0.000000 -1.000007 0.835811 -0.549033 0.000000 -0.549028 -0.835804 0.000000 32270.dat
1 14 -439.926500 -320.383900 -59.017400 0.000000 0.000000 1.000007 0.835811 0.549033 0.000000 -0.549028 0.835804 0.000000 32123a.dat
0 STEP
1 71 -464.946700 -320.385300 -59.019840 0.000000 0.000000 1.000007 0.835811 0.549033 0.000000 -0.549028 0.835804 0.000000 59443.dat
1 71 -554.947100 -320.383900 -59.017400 1.000007 0.000000 0.000000 0.000000 0.549033 -0.835811 0.000000 0.835804 0.549028 60485.dat
0 STEP
0 STEP
0 NOFILE
0 FILE SubModel Group 9 Copy Copy Copy
0 SubModel Group 9 Copy Copy Copy
0 Name:  SubModel Group 9 Copy Copy Copy
0 Author:  
0 CustomBrick
0 NumOfBricks:  3
1 72 10.000000 -1.128810 -10.000000 1.000000 0.000000 0.000000 0.000000 0.000000 -1.000000 0.000000 1.000000 0.000000 dch003.dat
1 71 -27.466620 -79.717990 29.427020 1.000000 0.000000 0.000000 0.000000 0.000000 -1.000000 0.000000 1.000000 0.000000 dch004.dat
1 25 7.837010 13.484720 -9.965000 1.000000 0.000000 0.000000 0.000000 0.000000 -1.000000 0.000000 1.000000 0.000000 dch005.dat
0 NOFILE
0 FILE SubModel Group 1
0 SubModel Group 1
0 Name:  SubModel Group 1
0 Author:  
0 CustomBrick
0 NumOfBricks:  7
1 1 10.008860 -75.570330 -30.668800 0.000000 0.000000 1.000000 0.835804 -0.549029 0.000000 0.549029 0.835804 0.000000 3738.dat
1 1 20.007400 -62.392640 -50.727400 0.000000 0.000000 1.000008 0.835810 -0.549029 0.000000 0.549033 0.835804 0.000000 3894.dat
1 1 0.008830 -62.393660 -50.728060 0.000000 0.000000 1.000000 0.835804 -0.549029 0.000000 0.549029 0.835804 0.000000 3894.dat
0 STEP
1 71 40.138650 -67.883740 -42.369910 0.000000 0.000000 -1.000000 1.000001 0.000000 0.000000 0.000001 -1.000000 0.000000 3649.dat
1 0 -40.291160 -67.883940 -42.370040 -1.000000 0.000000 0.000000 0.000000 -0.000001 1.000001 0.000000 1.000000 0.000001 3737.dat
0 STEP
1 14 55.138800 -67.883940 -42.370040 0.000000 0.000000 1.000000 1.000001 0.000000 0.000000 0.000001 1.000000 0.000000 32123a.dat
1 14 -15.011130 -67.883740 -42.369910 0.000000 0.000000 1.000000 1.000001 0.000000 0.000000 0.000001 1.000000 0.000000 32123a.dat
0 STEP
0 NOFILE
