0 FILE 梁式抽油机.io
0 Untitled Model
0 Name:  梁式抽油机
0 Author:  
0 CustomBrick
0 NumOfBricks:  71
1 1 -56.998980 -56.206000 -95.998590 0.000001 0.000000 1.000000 0.000000 1.000000 0.000000 -1.000001 0.000000 0.000001 3709b.dat
1 1 63.001040 -56.206000 -95.998470 0.000001 0.000000 1.000001 0.000000 1.000000 0.000000 -1.000002 0.000000 0.000001 3709b.dat
1 1 3.000000 -48.206000 -76.000000 -1.000000 0.000000 0.000001 0.000000 1.000000 0.000000 -0.000001 0.000000 -1.000001 32001.dat
0 STEP
1 1 73.001040 -48.206000 -95.998600 -0.000001 0.000000 -1.000001 0.000000 1.000000 0.000000 1.000002 0.000000 -0.000001 3895.dat
1 1 -66.998980 -48.206000 -95.998580 -0.000001 0.000000 -1.000001 0.000000 1.000000 0.000000 1.000002 0.000000 -0.000001 3895.dat
0 STEP
1 1 73.000940 -56.206000 -15.998580 -0.000001 0.000000 -1.000001 0.000000 1.000000 0.000000 1.000002 0.000000 -0.000001 3710.dat
1 1 -66.998980 -56.206000 -15.998560 -0.000001 0.000000 -1.000001 0.000000 1.000000 0.000000 1.000002 0.000000 -0.000001 3710.dat
0 STEP
1 1 73.001240 -80.206000 -55.997960 0.000001 0.000000 1.000000 0.000000 1.000000 0.000000 -1.000001 0.000000 0.000001 3702.dat
1 1 -66.998980 -80.206000 -35.998530 0.000001 0.000000 1.000001 0.000000 1.000000 0.000000 -1.000002 0.000000 0.000001 3894.dat
0 STEP
1 0 1.451050 -70.206000 -35.998420 1.000000 0.000000 0.000000 0.000000 1.000000 0.000000 0.000000 0.000000 1.000001 3737.dat
1 71 2.611090 -70.206000 -35.998290 0.000000 0.000000 -1.000000 0.000000 1.000000 0.000000 1.000001 0.000000 0.000000 4716.dat
1 71 -28.549020 -70.206000 -35.998420 0.000000 0.000000 1.000000 0.000000 1.000000 0.000000 -1.000001 0.000000 0.000000 3713.dat
1 71 -48.549020 -70.206000 -35.998530 0.000000 0.000000 1.000000 0.000000 1.000000 0.000000 -1.000001 0.000000 0.000000 3713.dat
1 71 53.401080 -70.206000 -35.998420 0.000000 0.000000 1.000000 0.000000 1.000000 0.000000 -1.000001 0.000000 0.000000 3713.dat
1 71 33.170840 -70.206000 -35.998420 0.000000 0.000000 1.000000 0.000000 1.000000 0.000000 -1.000001 0.000000 0.000000 3713.dat
0 STEP
1 0 83.001060 -70.206000 -15.998400 -1.000001 0.000000 0.000000 0.000000 1.000000 0.000000 0.000000 0.000000 -1.000002 2780.dat
1 0 83.001060 -70.206000 -55.998460 -1.000001 0.000000 0.000000 0.000000 1.000000 0.000000 0.000000 0.000000 -1.000002 2780.dat
0 STEP
1 1 -86.999000 -38.206000 -195.998800 -1.000000 0.000000 0.000000 0.000000 1.000000 0.000000 0.000000 0.000000 -1.000001 6558.dat
0 STEP
1 14 3.000000 -71.106000 -76.000000 0.085720 0.996320 0.000000 0.000000 0.000000 -1.000000 -0.996321 0.085720 0.000000 32123a.dat
1 14 3.000000 -37.576000 -76.000000 0.085720 0.996320 0.000000 0.000000 0.000000 -1.000000 -0.996321 0.085720 0.000000 32123a.dat
1 72 3.000000 -57.126000 -76.000000 0.085720 -0.996320 0.000000 0.000000 0.000000 1.000000 -0.996321 -0.085720 0.000000 3648b.dat
1 71 3.000000 -76.116000 -76.000060 0.000000 0.996319 0.085720 1.000000 0.000000 0.000000 0.000000 0.085720 -0.996320 32073.dat
0 STEP
1 1 3.001040 -88.206000 -75.998600 1.000000 0.000000 0.000000 0.000000 1.000000 0.000000 0.000000 0.000000 1.000001 3738.dat
0 STEP
1 71 3.000000 -97.245990 -76.000000 0.085719 -0.996319 0.000000 -0.000001 0.000000 1.000000 -0.996320 -0.085719 -0.000001 3713.dat
0 STEP
1 1 -56.998980 -64.206000 -175.998900 0.000001 0.000000 1.000001 0.000000 1.000000 0.000000 -1.000002 0.000000 0.000001 3709b.dat
1 1 -56.998980 -56.206000 -175.998900 0.000001 0.000000 1.000001 0.000000 1.000000 0.000000 -1.000002 0.000000 0.000001 3709b.dat
0 STEP
1 1 -66.999000 -88.206000 -175.999000 0.000000 0.000000 1.000000 0.000000 1.000000 0.000000 -1.000001 0.000000 0.000000 3701.dat
1 1 -86.999000 -78.206000 -195.998900 -1.000000 0.000000 0.000000 0.000000 1.000000 0.000000 0.000000 0.000000 -1.000001 6558.dat
0 STEP
1 1 3.001040 -88.206000 4.001630 1.000000 0.000000 0.000000 0.000000 1.000000 0.000000 0.000000 0.000000 1.000001 3738.dat
0 STEP
1 1 -46.998980 -136.206000 -35.998590 0.000000 0.000000 -1.000000 0.000000 1.000000 0.000000 1.000001 0.000000 0.000000 3894.dat
1 1 -46.998980 -112.206000 -35.998590 0.000000 0.000000 -1.000000 0.000000 1.000000 0.000000 1.000001 0.000000 0.000000 3894.dat
0 STEP
1 1 -46.998980 -160.206000 -55.998620 0.000000 0.000000 -1.000000 0.000000 1.000000 0.000000 1.000001 0.000000 0.000000 3701.dat
0 STEP
1 15 -86.999000 -98.206010 -195.998900 0.000001 1.000000 0.000001 -0.000001 -0.000001 1.000000 1.000001 -0.000001 0.000001 32524.dat
0 STEP
1 1 -107.000000 -48.206000 -195.999000 0.000000 0.000000 1.000000 0.000000 1.000000 0.000000 -1.000001 0.000000 0.000000 3894.dat
1 1 -117.999000 -64.206000 -175.999000 0.000000 0.000000 1.000000 0.000000 1.000000 0.000000 -1.000001 0.000000 0.000000 3709b.dat
1 1 -116.999000 -56.206000 -175.999000 0.000000 0.000000 1.000000 0.000000 1.000000 0.000000 -1.000001 0.000000 0.000000 3709b.dat
1 1 -106.999000 -88.206000 -175.999000 0.000000 0.000000 1.000000 0.000000 1.000000 0.000000 -1.000001 0.000000 0.000000 3701.dat
0 STEP
1 71 -63.149010 -150.206000 -75.998700 -1.000000 0.000000 0.000000 0.000000 -0.173649 0.984808 0.000000 0.984809 0.173649 4519.dat
1 71 -65.779010 -150.206000 -75.998700 0.000000 0.000000 1.000000 -0.984807 0.173649 0.000000 -0.173649 -0.984808 0.000000 3649.dat
0 STEP
1 71 -75.779010 -145.567400 -44.717830 -1.000000 0.000000 0.000000 0.000000 0.766044 0.642788 0.000000 0.642788 -0.766045 3673.dat
0 STEP
1 0 -86.779010 -145.567400 -44.717820 -1.000000 -0.000002 -0.000002 -0.000002 -0.207913 0.978147 -0.000002 0.978149 0.207914 32013.dat
0 STEP
1 0 -86.779140 -296.946300 -76.894500 -1.000000 -0.000002 -0.000002 0.000001 0.207913 -0.978148 0.000003 -0.978147 -0.207913 32013.dat
1 0 -86.779000 -219.330300 -60.396640 -0.000002 0.000000 1.000000 -0.978147 0.207913 -0.000002 -0.207913 -0.978148 0.000000 3706.dat
1 0 -86.538970 -298.206100 -75.999110 -1.000000 0.000000 0.000000 0.000000 1.000000 0.000000 0.000000 0.000000 -1.000000 3705.dat
0 STEP
1 15 -66.998980 -298.206000 -115.999200 0.000001 1.000000 0.000001 -1.000000 0.000001 -0.000001 -0.000001 -0.000001 1.000001 32316.dat
0 STEP
1 1 -86.999000 -298.206100 -95.999190 1.000000 0.000000 0.000000 0.000000 1.000000 0.000000 0.000000 0.000000 1.000001 6558.dat
1 1 -86.999000 -298.206000 -115.999200 1.000000 0.000000 0.000000 0.000000 1.000000 0.000000 0.000000 0.000000 1.000001 6558.dat
1 15 -86.999000 -298.205900 -235.999300 0.000001 1.000000 0.000001 -1.000000 0.000001 -0.000001 -0.000001 -0.000001 1.000001 64871.dat
0 STEP
1 15 -106.999000 -298.206000 -115.999200 0.000001 1.000000 0.000001 -1.000000 0.000001 -0.000001 -0.000001 -0.000001 1.000001 32316.dat
0 STEP
1 19 -86.999000 -298.206000 -195.999100 -1.000000 0.000000 0.000000 0.000000 1.000000 0.000000 0.000000 0.000000 -1.000001 32556.dat
0 STEP
1 1 -86.999000 -158.206000 -195.999100 1.000000 0.000000 0.000000 0.000000 1.000000 0.000000 0.000000 0.000000 1.000001 6558.dat
1 1 -86.999000 -138.206100 -195.999100 1.000000 0.000000 0.000000 0.000000 1.000000 0.000000 0.000000 0.000000 1.000001 6558.dat
0 STEP
1 15 -66.999000 -218.206000 -195.999100 0.000001 1.000000 0.000001 0.000001 0.000001 -1.000000 -1.000001 0.000001 -0.000001 64290.dat
0 STEP
1 15 -106.999000 -218.206000 -195.999200 -0.000001 -1.000000 -0.000001 -0.000001 -0.000001 1.000000 -1.000001 0.000001 -0.000001 64290.dat
0 STEP
1 72 3.000000 -115.026000 -76.000000 0.085719 -0.996319 0.000000 0.000000 0.000000 1.000000 -0.996319 -0.085719 0.000000 3648b.dat
0 STEP
1 71 -84.469950 -38.206060 -235.999200 -0.000001 -0.000001 1.000000 -0.984808 0.173649 -0.000001 -0.173649 -0.984809 -0.000001 3650c.dat
1 14 -121.139900 -38.206030 -235.999200 -0.000001 0.000000 1.000000 0.173649 0.984808 0.000000 -0.984809 0.173649 -0.000001 32123a.dat
1 71 -84.569930 -38.206060 -235.999200 -1.000000 0.000001 -0.000001 0.000001 0.984808 0.173649 0.000001 0.173649 -0.984809 44294.dat
0 STEP
1 14 -52.128960 -298.206100 -75.999110 0.000000 0.000000 -1.000000 0.000000 -1.000000 0.000000 -1.000000 0.000000 0.000000 32123a.dat
1 14 -121.539000 -298.206100 -75.999110 0.000000 0.000000 -1.000000 0.000000 -1.000000 0.000000 -1.000000 0.000000 0.000000 32123a.dat
0 STEP
1 1 -86.999010 -298.205800 -375.999400 1.000000 0.000000 0.000000 0.000000 1.000000 0.000000 0.000000 0.000000 1.000001 6558.dat
1 1 -86.999000 -298.205800 -355.999400 1.000000 0.000000 0.000000 0.000000 1.000000 0.000000 0.000000 0.000000 1.000001 6558.dat
1 4 -66.999000 -298.205800 -375.999400 0.000000 0.000000 -1.000000 -1.000000 0.000000 0.000000 0.000000 1.000001 0.000000 42003.dat
0 STEP
1 4 -106.999000 -298.205800 -375.999400 0.000000 0.000000 -1.000000 -1.000000 0.000000 0.000000 0.000000 1.000001 0.000000 42003.dat
0 STEP
1 19 -106.999000 -308.205800 -395.999800 0.000001 0.000001 1.000000 1.000000 0.000001 -0.000001 -0.000001 1.000001 -0.000001 3749.dat
1 19 -66.998950 -308.205800 -395.999800 0.000001 0.000001 1.000000 1.000000 0.000001 -0.000001 -0.000001 1.000001 -0.000001 3749.dat
0 STEP
1 15 -86.998970 -318.205800 -395.999800 0.000001 0.000001 -1.000000 0.000001 1.000000 0.000001 1.000001 -0.000001 0.000001 32523.dat
0 STEP
1 16 294.000000 -0.000020 -182.000000 0.000000 0.000000 -1.000000 0.000000 1.000000 0.000000 1.000000 0.000000 0.000000 submodel group 9 copy copy copy
1 71 83.001080 -70.206000 -35.998400 0.000001 0.000000 1.000000 0.000000 1.000000 0.000000 -1.000000 0.000000 0.000001 58120.dat
0 STEP
0 STEP
0 NOFILE
0 FILE SubModel Group 9 Copy Copy Copy
0 SubModel Group 9 Copy Copy Copy
0 Name:  SubModel Group 9 Copy Copy Copy
0 Author:  
0 CustomBrick
0 NumOfBricks:  3
1 72 10.000000 -1.128810 -10.000000 1.000000 0.000000 0.000000 0.000000 0.000000 -1.000000 0.000000 1.000000 0.000000 dch003.dat
1 71 -27.466620 -79.717990 29.427020 1.000000 0.000000 0.000000 0.000000 0.000000 -1.000000 0.000000 1.000000 0.000000 dch004.dat
1 25 7.837010 13.484720 -9.965000 1.000000 0.000000 0.000000 0.000000 0.000000 -1.000000 0.000000 1.000000 0.000000 dch005.dat
0 NOFILE
