0 FILE 游泳.io
0 Untitled Model
0 Name:  游泳
0 Author:  
0 CustomBrick
0 NumOfBricks:  108
1 1 121.000100 -24.000000 -13.999480 1.000001 0.000000 0.000000 0.000000 1.000000 0.000000 0.000000 0.000000 1.000001 3703.dat
0 STEP
1 15 141.000000 -154.000000 -33.999340 1.000001 -0.000001 0.000001 -0.000001 -0.000001 1.000000 -0.000001 -1.000001 -0.000001 64871.dat
1 15 101.000000 -154.000000 -33.999340 1.000001 -0.000001 0.000001 -0.000001 -0.000001 1.000000 -0.000001 -1.000001 -0.000001 64871.dat
1 1 141.000100 -13.999990 -33.999580 0.000000 0.000000 1.000001 0.000000 1.000000 0.000000 -1.000001 0.000000 0.000000 6558.dat
1 1 101.000100 -13.999990 -33.999580 0.000000 0.000000 1.000001 0.000000 1.000000 0.000000 -1.000001 0.000000 0.000000 6558.dat
0 STEP
1 71 -19.000020 -13.999990 -23.999490 0.000000 0.000000 -1.000001 0.000000 1.000000 0.000000 1.000001 0.000000 0.000000 3673.dat
1 71 261.000200 -13.999990 -23.999490 0.000000 0.000000 -1.000001 0.000000 1.000000 0.000000 1.000001 0.000000 0.000000 3673.dat
1 71 21.000010 -13.999990 -23.999490 0.000000 0.000000 -1.000001 0.000000 1.000000 0.000000 1.000001 0.000000 0.000000 3673.dat
1 71 221.000200 -13.999990 -23.999490 0.000000 0.000000 -1.000001 0.000000 1.000000 0.000000 1.000001 0.000000 0.000000 3673.dat
0 STEP
1 1 121.000100 -64.000010 -53.999600 1.000001 0.000000 0.000000 0.000000 1.000000 0.000000 0.000000 0.000000 1.000001 3701.dat
1 1 121.000100 -24.000000 -53.999600 1.000001 0.000000 0.000000 0.000000 1.000000 0.000000 0.000000 0.000000 1.000001 3894.dat
1 1 121.000100 -40.000030 -53.999600 1.000001 0.000000 0.000000 0.000000 1.000000 0.000000 0.000000 0.000000 1.000001 3710.dat
1 1 121.000100 -32.000010 -53.999600 1.000001 0.000000 0.000000 0.000000 1.000000 0.000000 0.000000 0.000000 1.000001 3710.dat
0 STEP
1 71 100.999900 -254.000000 -43.999260 0.000000 0.000000 -1.000001 0.000000 1.000000 0.000000 1.000001 0.000000 0.000000 3673.dat
0 STEP
1 1 140.999900 -254.000100 -53.999360 0.000000 0.000000 1.000001 0.000000 1.000000 0.000000 -1.000001 0.000000 0.000000 6558.dat
1 15 40.999760 -253.999800 -53.999600 0.000001 0.000001 -1.000001 1.000000 -0.000001 0.000001 -0.000001 -1.000001 -0.000001 64290.dat
0 STEP
1 71 -59.000340 -253.999800 -63.999700 0.000000 0.000000 -1.000001 0.000000 1.000000 0.000000 1.000001 0.000000 0.000000 3673.dat
0 STEP
1 15 -119.000400 -253.999800 -73.999600 0.000001 0.000001 -1.000001 -1.000000 0.000001 -0.000001 0.000001 1.000001 0.000001 64290.dat
0 STEP
1 0 160.999900 -254.000100 -63.999600 0.000000 0.000000 -1.000001 0.000000 1.000000 0.000000 1.000001 0.000000 0.000000 2780.dat
1 1 201.000000 -253.999800 -73.999520 -0.000001 -0.000001 -1.000001 1.000000 -0.000001 -0.000001 -0.000001 -1.000001 0.000001 32526.dat
1 15 221.000000 -253.999800 -53.999600 0.000001 0.000001 -1.000001 -1.000000 0.000001 -0.000001 0.000001 1.000001 0.000001 32524.dat
0 STEP
1 71 120.999800 -254.000100 -93.999660 0.000000 0.000000 1.000001 0.000000 1.000000 0.000000 -1.000003 0.000000 0.000000 32073.dat
1 72 120.999800 -254.000100 -93.999660 1.000001 0.000000 0.000000 0.000000 1.000000 0.000000 0.000000 0.000000 1.000001 3648b.dat
0 STEP
1 15 301.000000 -253.999800 -73.999690 0.000001 0.000001 -1.000001 -1.000000 0.000001 -0.000001 0.000001 1.000001 0.000001 32316.dat
1 0 261.000000 -253.999800 -63.999680 0.000000 0.000000 -1.000001 0.000000 1.000000 0.000000 1.000001 0.000000 0.000000 2780.dat
0 STEP
1 0 200.999800 -254.000100 -93.809860 0.000000 0.000000 1.000001 0.000000 1.000000 0.000000 -1.000001 0.000000 0.000000 3706.dat
1 71 200.999800 -253.999800 -94.449860 1.000001 0.000000 0.000000 0.000000 1.000000 0.000000 0.000000 0.000000 1.000001 3649.dat
1 14 200.999800 -254.000100 -38.689580 1.000001 0.000000 0.000000 0.000000 1.000000 0.000000 0.000000 0.000000 1.000001 32123a.dat
0 STEP
1 0 280.999800 -253.999800 -93.709750 0.000000 0.000000 1.000001 0.000000 1.000000 0.000000 -1.000001 0.000000 0.000000 3737.dat
1 72 280.999900 -253.999800 -93.179870 1.000001 0.000000 0.000000 0.000000 -1.000000 0.000000 0.000000 0.000000 -1.000001 3648b.dat
1 71 280.999900 -253.999800 -33.519540 1.000001 0.000000 0.000001 0.000000 1.000000 0.000000 -0.000001 0.000000 1.000001 3713.dat
1 14 280.999900 -253.999800 -19.479720 1.000001 0.000000 0.000000 0.000000 1.000000 0.000000 0.000000 0.000000 1.000001 32123a.dat
1 1 280.999900 -253.999800 -5.129670 1.000001 -0.000001 -0.000001 -0.000001 -0.000001 -1.000000 0.000001 1.000001 -0.000001 32271.dat
0 STEP
1 1 341.000100 -253.999800 -94.000060 0.000000 0.000000 1.000001 0.000000 1.000000 0.000000 -1.000001 0.000000 0.000000 6558.dat
1 0 341.000200 -253.999800 -94.000060 1.000001 0.000001 0.000001 0.000001 0.000000 -1.000000 -0.000001 1.000001 0.000000 15100.dat
0 STEP
1 0 260.999900 -253.999800 -124.000000 0.000000 0.000000 -1.000001 0.000000 1.000000 0.000000 1.000001 0.000000 0.000000 2780.dat
1 15 300.999900 -253.999800 -114.000000 0.000001 0.000001 -1.000001 -1.000000 0.000001 -0.000001 0.000001 1.000001 0.000001 32316.dat
0 STEP
1 1 200.999800 -253.999800 -113.999900 -0.000001 -0.000001 -1.000001 1.000000 -0.000001 -0.000001 -0.000001 -1.000001 0.000001 32526.dat
0 STEP
1 0 160.999700 -254.000100 -123.999900 0.000000 0.000000 -1.000001 0.000000 1.000000 0.000000 1.000001 0.000000 0.000000 2780.dat
0 STEP
1 15 220.999900 -253.999800 -134.000000 0.000001 0.000001 -1.000001 -1.000000 0.000001 -0.000001 0.000001 1.000001 0.000001 32524.dat
1 14 200.999800 -253.999800 -148.810000 1.000001 0.000000 0.000000 0.000000 -1.000000 0.000000 0.000000 0.000000 -1.000001 32123a.dat
0 STEP
1 0 0.999700 -254.000300 -93.139480 0.000000 0.000000 1.000001 0.000000 1.000000 0.000000 -1.000001 0.000000 0.000000 3706.dat
1 71 0.999510 -254.000300 -93.699260 1.000001 0.000000 0.000000 0.000000 -1.000000 0.000000 0.000000 0.000000 -1.000001 3649.dat
1 0 10.999520 -284.000300 -83.699220 0.000000 0.000000 -1.000001 0.000000 1.000000 0.000000 1.000001 0.000000 0.000000 2780.dat
1 0 -9.000500 -264.000300 -103.699300 0.000000 0.000000 -1.000001 0.000000 1.000000 0.000000 1.000001 0.000000 0.000000 2780.dat
1 14 0.999510 -254.000300 -40.949300 1.000001 0.000000 0.000000 0.000000 1.000000 0.000000 0.000000 0.000000 1.000001 32123a.dat
0 STEP
1 71 80.999740 -254.000200 -32.829350 1.000001 0.000000 0.000001 0.000000 1.000000 0.000000 -0.000001 0.000000 1.000001 3713.dat
1 71 60.999740 -254.000200 -33.999280 1.000001 0.000000 0.000001 0.000000 1.000000 0.000000 -0.000001 0.000000 1.000001 3713.dat
1 16 60.999710 -241.570200 -93.841180 1.000000 0.000000 0.000000 0.000000 1.000000 0.000000 0.000000 0.000000 1.000000 submodel group 1
1 16 80.999760 -241.570200 -93.027930 1.000000 0.000000 0.000000 0.000000 1.000000 0.000000 0.000000 0.000000 1.000000 submodel group 2
0 STEP
1 71 280.999900 -253.999800 -154.240100 1.000001 0.000000 0.000001 0.000000 1.000000 0.000000 -0.000001 0.000000 1.000001 3713.dat
1 14 280.999900 -253.999800 -169.780100 1.000001 0.000000 0.000000 0.000000 1.000000 0.000000 0.000000 0.000000 1.000001 32123a.dat
0 STEP
1 15 40.999710 -254.000200 -133.999700 0.000001 0.000001 -1.000001 -1.000000 0.000001 -0.000001 0.000001 1.000001 0.000001 64290.dat
0 STEP
1 71 -59.000420 -254.000300 -123.999600 0.000000 0.000000 -1.000001 0.000000 1.000000 0.000000 1.000001 0.000000 0.000000 3673.dat
0 STEP
1 15 -119.000400 -254.000400 -113.999400 0.000001 0.000001 -1.000001 -1.000000 0.000001 -0.000001 0.000001 1.000001 0.000001 64290.dat
0 STEP
1 1 140.999700 -254.000100 -133.999800 -0.000001 0.000000 -1.000001 0.000000 1.000000 0.000000 1.000001 0.000000 -0.000001 6558.dat
1 71 100.999900 -254.000100 -143.999800 0.000000 0.000000 -1.000001 0.000000 1.000000 0.000000 1.000001 0.000000 0.000000 3673.dat
1 0 40.999710 -254.000200 -143.999800 0.000000 0.000000 -1.000001 0.000000 1.000000 0.000000 1.000001 0.000000 0.000000 2780.dat
0 STEP
1 14 0.999700 -254.000300 -146.379700 1.000001 0.000000 0.000000 0.000000 1.000000 0.000000 0.000000 0.000000 1.000001 32123a.dat
0 STEP
1 4 371.000200 -253.999700 -94.000060 -1.000001 0.000000 0.000000 0.000000 1.000000 0.000000 0.000000 0.000000 -1.000001 62462.dat
1 19 391.000300 -253.999700 -94.000060 1.000001 0.000001 -0.000001 0.000001 0.000001 1.000000 0.000001 -1.000001 0.000001 3749.dat
0 STEP
0 STEP
1 15 140.999900 -154.000000 -153.999800 1.000001 -0.000001 0.000001 -0.000001 -0.000001 1.000000 -0.000001 -1.000001 -0.000001 64871.dat
1 15 101.000000 -154.000000 -153.999800 1.000001 -0.000001 0.000001 -0.000001 -0.000001 1.000000 -0.000001 -1.000001 -0.000001 64871.dat
0 STEP
1 1 141.000000 -13.999990 -154.000000 0.000000 0.000000 -1.000001 0.000000 1.000000 0.000000 1.000001 0.000000 0.000000 6558.dat
1 1 101.000100 -13.999990 -153.999900 0.000000 0.000000 -1.000001 0.000000 1.000000 0.000000 1.000001 0.000000 0.000000 6558.dat
0 STEP
1 1 121.000000 -32.000010 -134.000000 1.000001 0.000000 0.000000 0.000000 1.000000 0.000000 0.000000 0.000000 1.000001 3710.dat
1 1 121.000000 -24.000000 -134.000000 1.000001 0.000000 0.000000 0.000000 1.000000 0.000000 0.000000 0.000000 1.000001 3894.dat
0 STEP
1 1 121.000000 -64.000010 -134.000000 1.000001 0.000000 0.000000 0.000000 1.000000 0.000000 0.000000 0.000000 1.000001 3701.dat
1 1 121.000000 -40.000030 -134.000000 1.000001 0.000000 0.000000 0.000000 1.000000 0.000000 0.000000 0.000000 1.000001 3710.dat
0 STEP
1 1 280.999800 -254.000000 -185.439800 -0.000001 -0.000001 -1.000001 -1.000000 0.000001 0.000001 0.000001 1.000001 -0.000001 32271.dat
0 STEP
0 STEP
1 71 241.000300 -13.999990 -93.999770 -1.000001 0.000000 0.000000 0.000000 1.000000 0.000000 0.000000 0.000000 -1.000001 64179.dat
1 71 1.000000 -13.999990 -93.999770 1.000001 0.000000 0.000000 0.000000 1.000000 0.000000 0.000000 0.000000 1.000001 64179.dat
0 STEP
1 71 261.000200 -13.999990 -163.999900 0.000000 0.000000 -1.000001 0.000000 1.000000 0.000000 1.000001 0.000000 0.000000 3673.dat
1 71 21.000010 -13.999990 -164.000100 0.000000 0.000000 -1.000001 0.000000 1.000000 0.000000 1.000001 0.000000 0.000000 3673.dat
1 71 221.000200 -13.999990 -163.999900 0.000000 0.000000 -1.000001 0.000000 1.000000 0.000000 1.000001 0.000000 0.000000 3673.dat
1 71 -19.000020 -13.999990 -164.000100 0.000000 0.000000 -1.000001 0.000000 1.000000 0.000000 1.000001 0.000000 0.000000 3673.dat
0 STEP
1 1 121.000100 -24.000000 -173.999900 1.000001 0.000000 0.000000 0.000000 1.000000 0.000000 0.000000 0.000000 1.000001 3703.dat
0 STEP
1 0 -19.000330 -254.000300 -143.999700 0.000000 0.000000 -1.000001 0.000000 1.000000 0.000000 1.000001 0.000000 0.000000 2780.dat
1 0 -39.000340 -254.000300 -143.999700 0.000000 0.000000 -1.000001 0.000000 1.000000 0.000000 1.000001 0.000000 0.000000 2780.dat
1 0 -39.000290 -253.999800 -43.999600 0.000000 0.000000 -1.000001 0.000000 1.000000 0.000000 1.000001 0.000000 0.000000 2780.dat
1 0 -19.000260 -253.999800 -43.999600 0.000000 0.000000 -1.000001 0.000000 1.000000 0.000000 1.000001 0.000000 0.000000 2780.dat
0 STEP
1 1 -39.000290 -314.000200 -153.999800 1.000001 -0.000001 -0.000001 0.000001 0.000001 1.000000 -0.000001 -1.000001 0.000001 32140.dat
1 1 -39.000530 -274.000400 -133.999800 0.000000 0.000000 -1.000001 0.000000 1.000000 0.000000 1.000001 0.000000 0.000000 6558.dat
1 1 -39.000150 -314.000000 -33.999640 1.000001 -0.000001 -0.000001 0.000001 0.000001 1.000000 -0.000001 -1.000001 0.000001 32140.dat
1 1 -39.000290 -274.000000 -53.999600 0.000000 0.000000 1.000001 0.000000 1.000000 0.000000 -1.000001 0.000000 0.000000 6558.dat
1 71 403.000200 -253.999700 -94.000060 0.000001 0.000000 -1.000001 0.000000 -1.000000 0.000000 -1.000001 0.000000 -0.000001 3650c.dat
0 STEP
1 0 -219.000600 -254.000400 -123.999400 0.000000 0.000000 -1.000001 0.000000 1.000000 0.000000 1.000001 0.000000 0.000000 2780.dat
1 0 -199.000500 -254.000400 -123.999500 0.000000 0.000000 -1.000001 0.000000 1.000000 0.000000 1.000001 0.000000 0.000000 2780.dat
1 0 -219.000400 -253.999800 -63.999480 0.000000 0.000000 -1.000001 0.000000 1.000000 0.000000 1.000001 0.000000 0.000000 2780.dat
1 0 -199.000400 -253.999800 -63.999600 0.000000 0.000000 -1.000001 0.000000 1.000000 0.000000 1.000001 0.000000 0.000000 2780.dat
0 STEP
1 1 -239.000400 -268.000100 -53.999480 -1.000001 0.000000 0.000000 0.000000 -1.000000 0.000000 0.000000 0.000000 1.000001 3894.dat
1 1 -219.000400 -243.999800 -53.999480 -1.000001 0.000000 0.000000 0.000000 -1.000000 0.000000 0.000000 0.000000 1.000001 3701.dat
0 STEP
1 1 -219.000600 -244.000400 -133.999400 1.000001 0.000000 0.000000 0.000000 -1.000000 0.000000 0.000000 0.000000 -1.000001 3701.dat
1 1 -239.000600 -268.000600 -133.999400 -1.000001 0.000000 0.000000 0.000000 -1.000000 0.000000 0.000000 0.000000 1.000001 3894.dat
0 STEP
1 15 61.000060 -254.000000 -144.999900 -1.000001 0.000000 0.000000 0.000000 1.000000 0.000000 0.000000 0.000000 -1.000001 dx0056.dat.dat
1 16 260.000000 -169.000000 -387.000000 0.000000 0.000000 -1.000000 0.000000 1.000000 0.000000 1.000000 0.000000 0.000000 submodel group 9 copy copy copy
0 STEP
0 STEP
0 NOFILE
0 FILE SubModel Group 1
0 SubModel Group 1
0 Name:  SubModel Group 1
0 Author:  
0 CustomBrick
0 NumOfBricks:  6
1 71 0.000030 -12.430010 -0.158380 0.000000 0.000000 1.000001 0.000000 1.000000 0.000000 -1.000001 0.000000 0.000000 44294.dat
1 14 -0.000070 -12.430010 25.521880 0.000000 1.000001 0.000000 1.000000 0.000000 0.000000 0.000000 0.000000 -1.000001 32123a.dat
0 STEP
1 14 0.000030 -12.430010 14.841860 0.000000 1.000001 0.000000 1.000000 0.000000 0.000000 0.000000 0.000000 -1.000001 32123a.dat
1 72 0.000030 -12.430010 -0.158380 1.000001 0.000000 0.000000 0.000000 -1.000000 0.000000 0.000000 0.000000 -1.000001 3647.dat
0 STEP
1 14 -0.000070 -12.430010 -25.158490 0.000000 1.000001 0.000000 1.000000 0.000000 0.000000 0.000000 0.000000 -1.000001 32123a.dat
1 14 0.000030 -12.430010 -14.888490 0.000000 1.000001 0.000000 -1.000000 0.000000 0.000000 0.000000 0.000000 1.000001 32123a.dat
0 STEP
0 NOFILE
0 FILE SubModel Group 2
0 SubModel Group 2
0 Name:  SubModel Group 2
0 Author:  
0 CustomBrick
0 NumOfBricks:  6
1 71 -0.000020 -12.430010 0.198250 0.000000 0.000000 1.000001 0.000000 1.000000 0.000000 -1.000001 0.000000 0.000000 44294.dat
1 14 -0.000020 -12.430010 25.758510 1.000001 0.000000 0.000000 0.000000 1.000000 0.000000 0.000000 0.000000 1.000001 32123a.dat
0 STEP
1 14 -0.000020 -12.430010 15.198500 1.000001 0.000000 0.000000 0.000000 1.000000 0.000000 0.000000 0.000000 1.000001 32123a.dat
1 72 0.000110 -12.430010 0.198360 0.000000 -1.000001 0.000000 -1.000000 0.000000 0.000000 0.000000 0.000000 -1.000001 3647.dat
0 STEP
1 14 -0.000020 -12.430010 -15.321850 1.000001 0.000000 0.000000 0.000000 1.000000 0.000000 0.000000 0.000000 1.000001 32123a.dat
1 14 -0.000020 -12.430010 -26.031760 1.000001 0.000000 0.000000 0.000000 1.000000 0.000000 0.000000 0.000000 1.000001 32123a.dat
0 STEP
0 NOFILE
0 FILE SubModel Group 9 Copy Copy Copy
0 SubModel Group 9 Copy Copy Copy
0 Name:  SubModel Group 9 Copy Copy Copy
0 Author:  
0 CustomBrick
0 NumOfBricks:  3
1 72 10.000000 -1.128810 -10.000000 1.000000 0.000000 0.000000 0.000000 0.000000 -1.000000 0.000000 1.000000 0.000000 dch003.dat
1 71 -27.466620 -79.717990 29.427020 1.000000 0.000000 0.000000 0.000000 0.000000 -1.000000 0.000000 1.000000 0.000000 dch004.dat
1 25 7.837010 13.484720 -9.965000 1.000000 0.000000 0.000000 0.000000 0.000000 -1.000000 0.000000 1.000000 0.000000 dch005.dat
0 NOFILE
