0 FILE 舂米机.io
0 Untitled Model
0 Name:  舂米机
0 Author:  
0 CustomBrick
0 NumOfBricks:  99
1 1 -406.000500 -55.000390 -13.998880 1.000000 0.000000 0.000000 0.000000 1.000000 0.000000 0.000000 0.000000 1.000000 3702.dat
1 0 -466.000500 -45.000390 -3.998870 0.000000 0.000000 -1.000000 0.000000 1.000000 0.000000 1.000000 0.000000 0.000000 2780.dat
1 0 -406.000300 -45.000320 -3.998870 0.000000 0.000000 -1.000000 0.000000 1.000000 0.000000 1.000000 0.000000 0.000000 2780.dat
0 STEP
1 0 -286.000300 -45.000190 -3.999120 0.000000 0.000000 -1.000000 0.000000 1.000000 0.000000 1.000000 0.000000 0.000000 2780.dat
1 15 -366.000400 -45.000280 6.001010 0.000001 0.000001 -1.000000 -1.000000 0.000001 -0.000001 0.000001 1.000000 0.000001 64290.dat
0 STEP
1 1 -406.000500 -55.000400 -33.998820 1.000000 0.000000 0.000000 0.000000 1.000000 0.000000 0.000000 0.000000 1.000000 3702.dat
1 0 -446.000500 -45.000390 -23.998820 0.000000 0.000000 -1.000000 0.000000 1.000000 0.000000 1.000000 0.000000 0.000000 2780.dat
1 0 -386.000400 -45.000390 -23.998880 0.000000 0.000000 -1.000000 0.000000 1.000000 0.000000 1.000000 0.000000 0.000000 2780.dat
0 STEP
1 1 -425.999000 -55.000340 -53.998600 1.000000 0.000000 0.000000 0.000000 1.000000 0.000000 0.000000 0.000000 1.000000 3894.dat
1 1 -426.000500 -45.000400 -53.998840 0.000000 0.000000 1.000000 0.000000 1.000000 0.000000 -1.000000 0.000000 0.000000 6558.dat
1 1 -406.000500 -45.000400 -53.998840 0.000000 0.000000 1.000000 0.000000 1.000000 0.000000 -1.000000 0.000000 0.000000 6558.dat
0 STEP
1 1 -405.999100 -55.000340 -73.998620 1.000000 0.000000 0.000000 0.000000 1.000000 0.000000 0.000000 0.000000 1.000000 3702.dat
1 0 -445.999100 -45.000340 -83.998610 0.000000 0.000000 -1.000000 0.000000 1.000000 0.000000 1.000000 0.000000 0.000000 2780.dat
1 0 -385.999000 -45.000340 -83.998610 0.000000 0.000000 -1.000000 0.000000 1.000000 0.000000 1.000000 0.000000 0.000000 2780.dat
0 STEP
1 1 -405.999000 -55.000340 -93.998600 1.000000 0.000000 0.000000 0.000000 1.000000 0.000000 0.000000 0.000000 1.000000 3702.dat
1 0 -406.000200 -45.000360 -103.998800 0.000000 0.000000 -1.000000 0.000000 1.000000 0.000000 1.000000 0.000000 0.000000 2780.dat
1 0 -465.999000 -45.000340 -103.998600 0.000000 0.000000 -1.000000 0.000000 1.000000 0.000000 1.000000 0.000000 0.000000 2780.dat
0 STEP
1 0 -206.000400 -45.000190 -3.999300 0.000000 0.000000 -1.000001 0.000000 1.000000 0.000000 1.000001 0.000000 0.000000 2780.dat
1 0 -286.000200 -45.000200 -103.999000 0.000000 0.000000 -1.000000 0.000000 1.000000 0.000000 1.000000 0.000000 0.000000 2780.dat
1 71 -246.000200 -45.000200 -53.999020 0.000000 0.000000 0.999999 0.000000 1.000000 0.000000 -0.999999 0.000000 0.000000 64179.dat
1 0 -245.999900 -45.000230 -3.998870 0.000000 0.000000 -1.000000 0.000000 1.000000 0.000000 1.000000 0.000000 0.000000 2780.dat
0 STEP
1 15 -366.000200 -45.000300 -113.998900 0.000001 0.000001 -1.000000 -1.000000 0.000001 -0.000001 0.000001 1.000000 0.000001 64290.dat
1 0 -246.000300 -45.000200 -103.999800 0.000000 0.000000 -1.000001 0.000000 1.000000 0.000000 1.000001 0.000000 0.000000 2780.dat
1 0 -206.000400 -45.000200 -103.999800 0.000000 0.000000 -1.000001 0.000000 1.000000 0.000000 1.000001 0.000000 0.000000 2780.dat
0 STEP
1 1 -475.999000 -79.000340 -53.998820 0.000000 0.000000 1.000000 0.000000 1.000000 0.000000 -1.000000 0.000000 0.000000 3894.dat
1 1 -375.999000 -79.000340 -53.998580 0.000000 0.000000 1.000000 0.000000 1.000000 0.000000 -1.000000 0.000000 0.000000 3894.dat
0 STEP
1 1 -426.000500 -79.000380 -13.998870 1.000000 0.000000 0.000000 0.000000 1.000000 0.000000 0.000000 0.000000 1.000000 3701.dat
1 1 -425.999000 -79.000340 -93.998600 1.000000 0.000000 0.000000 0.000000 1.000000 0.000000 0.000000 0.000000 1.000000 3701.dat
0 STEP
1 16 -344.260300 -35.000180 -55.584380 1.000000 0.000000 0.000000 0.000000 1.000000 0.000000 0.000000 0.000000 1.000000 submodel group 1
0 STEP
1 15 -105.999900 -45.000110 6.001010 0.000001 0.000001 -1.000000 -1.000000 0.000001 -0.000001 0.000001 1.000000 0.000001 64871.dat
1 0 -6.000290 -44.999960 -3.999910 0.000000 0.000000 -1.000001 0.000000 1.000000 0.000000 1.000001 0.000000 0.000000 2780.dat
1 0 33.999940 -44.999960 -3.999600 0.000000 0.000000 -1.000003 0.000000 1.000000 0.000000 1.000003 0.000000 0.000000 2780.dat
0 STEP
1 15 -245.999800 -45.000230 26.001200 0.000001 0.000001 -1.000000 -1.000000 0.000001 -0.000001 0.000001 1.000000 0.000001 32523.dat
1 0 -225.999900 -45.000220 16.001200 0.000000 0.000000 -1.000000 0.000000 1.000000 0.000000 1.000000 0.000000 0.000000 2780.dat
1 0 -266.000400 -45.000160 16.000890 0.000000 0.000000 -1.000000 0.000000 1.000000 0.000000 1.000000 0.000000 0.000000 2780.dat
0 STEP
1 1 33.999940 -44.999980 -114.000000 0.000000 0.000000 1.000003 0.000000 1.000000 0.000000 -1.000003 0.000000 0.000000 6558.dat
1 71 -6.000170 -44.999960 -53.999690 0.000000 0.000000 1.000003 0.000000 1.000000 0.000000 -1.000003 0.000000 0.000000 64179.dat
1 1 -6.000170 -44.999980 -114.000000 0.000000 0.000000 1.000003 0.000000 1.000000 0.000000 -1.000003 0.000000 0.000000 6558.dat
0 STEP
1 0 -226.000200 -45.000180 -123.999900 0.000000 0.000000 -1.000000 0.000000 1.000000 0.000000 1.000000 0.000000 0.000000 2780.dat
1 15 -106.000000 -45.000060 -113.999800 0.000001 0.000001 -1.000001 -1.000000 0.000001 -0.000001 0.000001 1.000001 0.000001 64871.dat
1 0 -266.000200 -45.000180 -123.999200 0.000000 0.000000 -1.000000 0.000000 1.000000 0.000000 1.000000 0.000000 0.000000 2780.dat
0 STEP
1 15 -246.000300 -45.000180 -133.999800 0.000001 0.000001 -1.000000 -1.000000 0.000001 -0.000001 0.000001 1.000000 0.000001 32523.dat
1 1 33.999820 -125.000000 -133.999800 -1.000001 0.000001 0.000001 0.000001 0.000001 1.000000 0.000001 1.000001 -0.000001 32526.dat
0 STEP
1 1 -106.000400 -125.000200 26.000720 -1.000001 0.000001 0.000001 0.000001 0.000001 1.000000 0.000001 1.000001 -0.000001 32526.dat
1 0 -146.000300 -45.000140 16.000650 0.000000 0.000000 -1.000001 0.000000 1.000000 0.000000 1.000001 0.000000 0.000000 2780.dat
1 0 -106.000200 -45.000120 16.000650 0.000000 0.000000 -1.000001 0.000000 1.000000 0.000000 1.000001 0.000000 0.000000 2780.dat
0 STEP
1 0 -106.000400 -125.000200 16.000720 0.000000 0.000000 -1.000001 0.000000 1.000000 0.000000 1.000001 0.000000 0.000000 2780.dat
1 19 -106.000200 -85.000220 16.000660 -0.000001 1.000001 -0.000001 -0.000001 -0.000001 -1.000000 -1.000001 -0.000001 0.000001 3749.dat
1 1 -106.000400 -85.000160 6.000650 -1.000000 0.000001 0.000001 -0.000001 -0.000001 -1.000000 -0.000001 -1.000000 0.000001 32271.dat
0 STEP
1 1 -106.000200 -205.000400 -54.139260 -0.965926 0.000001 -0.258820 0.258820 0.000000 -0.965926 -0.000001 -1.000000 0.000000 32140.dat
1 71 -106.000200 -205.000300 -13.999270 -0.965927 0.258819 -0.000001 0.258820 0.965926 0.000000 0.000001 0.000000 -1.000000 3713.dat
1 71 -106.000200 -205.000400 -53.999180 0.000000 0.258820 0.965927 0.000000 0.965926 -0.258820 -1.000000 0.000000 0.000000 44294.dat
0 STEP
1 71 -106.000200 -205.000300 -98.259310 0.965927 -0.258819 0.000000 -0.258820 -0.965926 0.000000 0.000000 0.000000 -1.000000 4185.dat
1 15 -45.000100 -227.636800 -162.999900 1.000000 0.000000 0.000000 0.000000 1.000000 0.000000 0.000000 0.000000 1.000000 xpj110.dat.dat
0 STEP
1 0 -105.998200 -125.000100 -124.000800 0.000000 0.000000 -1.000001 0.000000 1.000000 0.000000 1.000001 0.000000 0.000000 2780.dat
1 19 -105.998100 -85.000110 -124.001000 -0.000001 1.000001 -0.000001 0.000001 0.000001 1.000000 1.000001 0.000001 -0.000001 3749.dat
1 1 -105.998200 -85.000110 -114.001100 -1.000000 0.000001 0.000001 -0.000001 -0.000001 -1.000000 -0.000001 -1.000000 0.000001 32271.dat
0 STEP
1 0 -106.000000 -45.000060 -123.999900 0.000000 0.000000 -1.000001 0.000000 1.000000 0.000000 1.000001 0.000000 0.000000 2780.dat
1 0 -145.998100 -45.000080 -124.001000 0.000000 0.000000 -1.000000 0.000000 1.000000 0.000000 1.000000 0.000000 0.000000 2780.dat
1 1 -105.998200 -125.000100 -134.000700 -1.000001 0.000001 0.000001 0.000001 0.000001 1.000000 0.000001 1.000001 -0.000001 32526.dat
0 STEP
1 0 33.999820 -64.999980 -144.000000 0.000000 0.000000 -1.000001 0.000000 1.000000 0.000000 1.000001 0.000000 0.000000 2780.dat
1 0 33.999820 -105.000000 -143.999800 0.000000 0.000000 -1.000001 0.000000 1.000000 0.000000 1.000001 0.000000 0.000000 2780.dat
0 STEP
1 0 33.999820 -85.000030 -124.509900 0.000000 0.000000 1.000000 0.000000 1.000000 0.000000 -1.000000 0.000000 0.000000 3705.dat
1 71 33.999740 -85.000030 -114.509900 1.000000 0.000000 0.000001 0.000000 1.000000 0.000000 -0.000001 0.000000 1.000000 3713.dat
1 14 33.999820 -85.000030 -99.509910 0.000000 1.000000 0.000000 -1.000000 0.000000 0.000000 0.000000 0.000000 1.000000 32123a.dat
0 STEP
1 15 33.999940 -84.999980 -143.999800 -1.000000 0.000000 0.000000 0.000000 1.000000 0.000000 0.000000 0.000000 -1.000000 dx0056.dat.dat
0 STEP
1 1 33.999820 -55.000000 -204.000000 0.000000 0.000000 1.000001 0.000000 1.000000 0.000000 -1.000001 0.000000 0.000000 32001.dat
1 1 33.999820 -47.000000 -204.000000 0.000000 0.000000 1.000001 0.000000 1.000000 0.000000 -1.000001 0.000000 0.000000 32001.dat
0 STEP
1 16 234.000000 -0.000030 -385.000000 0.000000 0.000000 -1.000000 0.000000 1.000000 0.000000 1.000000 0.000000 0.000000 submodel group 9 copy copy copy
0 STEP
0 STEP
0 NOFILE
0 FILE SubModel Group 1
0 SubModel Group 1
0 Name:  SubModel Group 1
0 Author:  
0 CustomBrick
0 NumOfBricks:  29
1 0 98.260100 -30.000010 31.585270 -0.000002 1.000000 0.000000 0.000000 0.000000 -1.000000 -1.000000 -0.000002 0.000000 2780.dat
1 15 98.259980 -90.581160 21.584360 1.000000 -0.000001 0.000001 -0.000001 -0.000001 1.000000 -0.000001 -1.000000 -0.000001 32524.dat
1 0 98.259980 -70.581140 31.584360 -0.000002 1.000000 0.000000 0.000000 0.000000 -1.000000 -1.000000 -0.000002 0.000000 2780.dat
0 STEP
1 0 38.260160 -20.000010 41.585390 0.000000 0.000000 -1.000000 -1.000000 -0.000001 0.000000 0.000000 1.000000 0.000000 2780.dat
1 0 78.260150 -20.000020 41.585390 0.000000 0.000000 -1.000000 -1.000000 -0.000001 0.000000 -0.000001 1.000000 0.000000 2780.dat
1 14 48.991400 -35.798670 32.760620 0.000000 0.000000 1.000000 -1.000000 0.000000 0.000000 0.000000 -1.000000 0.000000 12344.dat
0 STEP
1 71 97.759980 -150.018700 1.435680 0.000000 0.000000 1.000000 0.000000 1.000000 0.000000 -1.000000 0.000000 0.000000 32073.dat
1 71 97.759980 -150.018700 41.435690 1.000000 0.000000 0.000001 0.000000 1.000000 0.000000 -0.000001 0.000000 1.000000 3713.dat
0 STEP
1 15 57.759920 -150.018700 1.665720 0.000001 0.000001 -1.000000 -1.000000 0.000001 -0.000001 0.000001 1.000000 0.000001 64871.dat
1 15 97.760100 -90.018660 -18.414460 1.000000 -0.000001 0.000001 -0.000001 -0.000001 1.000000 -0.000001 -1.000000 -0.000001 32524.dat
0 STEP
1 0 97.760100 -30.018660 -28.414520 -0.000002 1.000000 0.000000 0.000000 0.000000 -1.000000 -1.000000 -0.000002 0.000000 2780.dat
1 71 97.759980 -150.018700 -38.564340 1.000000 0.000000 0.000001 0.000000 1.000000 0.000000 -0.000001 0.000000 1.000000 3713.dat
1 0 97.760100 -70.599780 -28.415420 -0.000002 1.000000 0.000000 0.000000 0.000000 -1.000000 -1.000000 -0.000002 0.000000 2780.dat
0 STEP
1 0 38.260160 -20.000020 -38.414530 0.000000 0.000000 -1.000000 -1.000000 0.000000 0.000000 0.000000 1.000000 0.000000 2780.dat
1 0 78.260150 -20.000020 -38.414530 0.000000 0.000000 -1.000000 -1.000000 -0.000001 0.000000 -0.000001 1.000000 0.000000 2780.dat
1 14 48.991400 -35.798700 -47.239420 0.000000 0.000000 1.000000 -1.000000 0.000000 0.000000 0.000000 -1.000000 0.000000 12344.dat
0 STEP
1 1 -82.239990 -160.018800 21.665860 1.000000 0.000000 0.000000 0.000000 1.000000 0.000000 0.000000 0.000000 1.000000 3894.dat
1 1 -42.239990 -150.018800 1.665840 0.000000 0.000000 1.000001 0.000000 -1.000000 0.000000 1.000001 0.000000 0.000000 6558.dat
1 1 -82.240230 -150.018800 1.666210 0.000000 0.000000 1.000000 0.000000 -1.000000 0.000000 1.000000 0.000000 0.000000 6558.dat
0 STEP
1 1 -122.239900 -90.018790 1.665890 1.000000 -0.000001 -0.000001 -0.000001 -0.000001 -1.000000 0.000001 1.000000 -0.000001 32140.dat
1 1 -102.243100 -150.018800 1.663830 0.000000 0.000000 1.000008 0.000000 1.000000 0.000000 -1.000004 0.000000 0.000000 6558.dat
1 1 -122.240000 -150.018800 1.665840 0.000000 0.000000 1.000000 0.000000 1.000000 0.000000 -1.000000 0.000000 0.000000 6558.dat
0 STEP
1 1 -82.239990 -160.018800 -18.334180 1.000000 0.000000 0.000000 0.000000 1.000000 0.000000 0.000000 0.000000 1.000000 3894.dat
1 19 -62.240080 -150.018800 -28.334170 0.000001 -1.000000 0.000001 0.000001 0.000001 1.000000 -1.000001 -0.000001 0.000001 3749.dat
1 19 -62.240020 -150.018800 31.665920 0.000001 -1.000000 0.000001 -0.000001 -0.000001 -1.000000 1.000000 0.000001 -0.000001 3749.dat
0 STEP
1 0 -62.240640 -150.018800 51.922700 -1.000001 0.000000 -0.000001 0.000000 1.000000 0.000000 0.000001 0.000000 -1.000001 30391.dat
1 71 -62.240020 -150.018800 51.665920 0.000000 1.000001 0.000000 1.000000 0.000000 0.000000 0.000000 0.000000 -1.000001 55982.dat
1 0 -62.239540 -150.018700 -48.590820 1.000001 0.000000 0.000001 0.000000 1.000000 0.000000 -0.000001 0.000000 1.000001 30391.dat
1 71 -62.240080 -150.018800 -48.334180 0.000000 -1.000000 0.000000 1.000001 0.000000 0.000000 0.000000 0.000000 1.000000 55982.dat
0 STEP
0 NOFILE
0 FILE SubModel Group 9 Copy Copy Copy
0 SubModel Group 9 Copy Copy Copy
0 Name:  SubModel Group 9 Copy Copy Copy
0 Author:  
0 CustomBrick
0 NumOfBricks:  3
1 72 10.000000 -1.128810 -10.000000 1.000000 0.000000 0.000000 0.000000 0.000000 -1.000000 0.000000 1.000000 0.000000 dch003.dat
1 71 -27.466620 -79.717990 29.427020 1.000000 0.000000 0.000000 0.000000 0.000000 -1.000000 0.000000 1.000000 0.000000 dch004.dat
1 25 7.837010 13.484720 -9.965000 1.000000 0.000000 0.000000 0.000000 0.000000 -1.000000 0.000000 1.000000 0.000000 dch005.dat
0 NOFILE
