0 FILE 烤鱼机.io
0 Untitled Model
0 Name:  烤鱼机
0 Author:  
0 CustomBrick
0 NumOfBricks:  50
1 16 29.445300 -200.740400 -120.475400 0.000000 1.000000 0.000000 1.000000 0.000000 0.000000 0.000000 0.000000 -1.000000 submodel group 9 copy copy copy
0 STEP
1 1 -39.997380 -48.000020 -109.996600 1.000001 0.000000 -0.000001 0.000000 1.000005 0.000000 0.000001 0.000000 1.000000 3702.dat
1 1 -59.997400 -37.999970 -129.996600 0.000000 0.000000 1.000000 0.000000 1.000000 0.000000 -1.000000 0.000000 0.000000 6558.dat
1 1 -19.997390 -37.999980 -129.996600 0.000000 0.000000 1.000001 0.000000 1.000005 0.000000 -1.000000 0.000000 0.000000 6558.dat
0 STEP
1 1 -39.997380 -48.000020 -149.996600 1.000001 0.000000 -0.000001 0.000000 1.000005 0.000000 0.000001 0.000000 1.000000 3702.dat
0 STEP
1 1 29.999950 -24.000000 -0.000020 0.000000 0.000000 -1.000000 0.000000 1.000000 0.000000 1.000000 0.000000 0.000000 3703.dat
1 1 -89.997390 -24.000000 0.002610 0.000000 0.000000 0.999995 0.000000 1.000000 0.000000 -0.999995 0.000000 0.000000 3703.dat
0 STEP
1 1 -89.997390 -48.000020 40.002430 0.000001 0.000000 0.999995 0.000000 1.000000 0.000000 -0.999995 0.000000 0.000001 3895.dat
1 0 -79.998000 -38.000000 0.002000 -0.999996 0.000000 0.000000 0.000000 1.000000 0.000000 0.000000 0.000000 -0.999996 2780.dat
1 0 -79.998000 -38.000010 80.001640 -0.999996 0.000000 0.000000 0.000000 1.000000 0.000000 0.000000 0.000000 -0.999996 2780.dat
0 STEP
1 71 -29.998230 -38.000000 40.001820 -0.999995 0.000000 0.000000 0.000000 1.000000 0.000000 0.000000 0.000000 -0.999995 64179.dat
0 STEP
1 0 -99.997880 -38.000000 -59.997700 -0.999996 0.000000 0.000000 0.000000 1.000000 0.000000 0.000000 0.000000 -0.999996 2780.dat
1 15 -109.997800 -120.903900 -4.078510 0.000001 0.999995 0.000001 -0.559193 0.000001 -0.829038 -0.829034 0.000001 0.559190 64290.dat
0 STEP
1 0 -91.757880 -87.742350 -26.446130 -0.999995 0.000000 0.000000 0.000000 1.000000 0.000000 0.000000 0.000000 -0.999995 3705.dat
1 71 -119.997800 -87.742370 -26.446190 0.000000 0.000000 -0.999995 0.000000 1.000000 0.000000 0.999995 0.000000 0.000000 58120.dat
0 STEP
1 72 -92.477920 -87.742350 -26.446190 0.000000 0.000000 -0.999995 0.000000 -1.000000 0.000000 -0.999995 0.000000 0.000000 3648b.dat
0 STEP
1 71 -109.847700 -137.484700 7.105270 -0.999995 0.000000 0.000000 0.000000 0.000000 1.000000 0.000000 0.999995 0.000000 4519.dat
1 72 -129.847500 -137.484700 7.105270 0.000000 0.000000 -0.999995 -1.000000 0.000000 0.000000 0.000000 0.999995 0.000000 3647.dat
1 72 -92.117740 -137.484700 7.105270 0.000000 0.000000 0.999995 0.000000 1.000000 0.000000 -0.999995 0.000000 0.000000 3648b.dat
0 STEP
1 0 -38.368350 -187.226600 39.347460 -0.999995 0.000000 0.000000 0.000000 0.999391 -0.034900 0.000000 -0.034900 -0.999386 3708.dat
1 71 -90.557910 -187.227000 40.656540 0.000000 0.000000 -0.999995 0.034900 0.999391 0.000000 0.999386 -0.034900 0.000000 3713.dat
0 STEP
1 0 -79.997440 -38.000040 140.002000 0.999995 0.000000 0.000000 0.000000 1.000000 0.000000 0.000000 0.000000 0.999995 2780.dat
0 STEP
1 15 -69.997570 -120.903900 84.083000 -0.000001 -0.999995 0.000000 -0.559192 0.000001 -0.829038 0.829034 -0.000001 -0.559190 64290.dat
0 STEP
1 71 -37.988220 -187.227000 40.656540 0.000000 0.000000 -0.999995 0.034900 0.999391 0.000000 0.999386 -0.034900 0.000000 3713.dat
1 14 -22.568300 -187.227000 40.656420 0.000000 0.000000 -0.999995 -0.034900 -0.999391 0.000000 -0.999386 0.034900 0.000000 32123a.dat
1 71 -10.398430 -187.227000 40.656360 0.000000 0.000000 -0.999995 0.034900 0.999391 0.000000 0.999386 -0.034900 0.000000 3713.dat
1 14 -53.518140 -187.227000 40.656420 0.000000 0.000000 -0.999995 -0.034900 -0.999391 0.000000 -0.999386 0.034900 0.000000 32123a.dat
0 STEP
1 71 -139.268000 -187.226600 39.347460 0.000000 0.000000 0.999995 0.034897 -0.999391 0.000000 0.999386 0.034897 0.000000 3649.dat
1 71 -159.727700 -187.226600 39.347460 0.000000 0.000000 -0.999995 0.034900 0.999391 0.000000 0.999386 -0.034900 0.000000 3713.dat
0 STEP
1 0 20.001530 -38.000000 -59.997760 -0.999996 0.000000 0.000000 0.000000 1.000000 0.000000 0.000000 0.000000 -0.999996 2780.dat
1 15 10.001710 -120.903800 -4.078630 0.000001 0.999995 0.000001 -0.559192 0.000001 -0.829038 -0.829034 0.000001 0.559190 64290.dat
0 STEP
1 0 20.001530 -38.000010 80.001520 -0.999996 0.000000 0.000000 0.000000 1.000000 0.000000 0.000000 0.000000 -0.999996 2780.dat
1 0 20.001530 -38.000000 0.001880 -0.999996 0.000000 0.000000 0.000000 1.000000 0.000000 0.000000 0.000000 -0.999996 2780.dat
0 STEP
1 1 30.001540 -48.000020 40.002310 0.000000 0.000000 0.999995 0.000000 1.000000 0.000000 -0.999995 0.000000 0.000000 3895.dat
0 STEP
1 71 30.111460 -187.226900 40.656480 0.000000 0.000000 -0.999995 0.034900 0.999391 0.000000 0.999386 -0.034900 0.000000 3713.dat
0 STEP
1 0 40.001410 -38.000000 140.001900 -0.999996 0.000000 0.000000 0.000000 1.000000 0.000000 0.000000 0.000000 -0.999996 2780.dat
1 15 50.001300 -120.903800 84.082880 -0.000001 -0.999995 0.000000 -0.559192 0.000001 -0.829038 0.829034 -0.000001 -0.559190 64290.dat
0 STEP
1 71 81.631120 -187.229400 39.347400 0.000000 0.000000 0.999995 -0.034900 0.999391 0.000000 -0.999386 -0.034900 0.000000 59443.dat
0 STEP
1 71 154.810800 -187.226600 39.347220 -0.999995 0.000000 0.000000 0.000000 0.999391 -0.034900 0.000000 -0.034900 -0.999386 44294.dat
1 0 156.510900 -187.226700 39.347120 -1.000000 -0.000001 0.000000 0.000000 -0.999391 0.034900 0.000000 0.034900 0.999393 6536.dat
0 STEP
1 0 156.511000 -207.563500 30.051220 -0.000001 -0.695699 0.718333 -0.034900 0.717896 0.695275 -0.999393 -0.025070 -0.024281 3705.dat
1 71 156.511600 -206.515600 60.032770 0.718335 -0.695701 0.000001 0.695275 0.717896 0.034900 -0.024281 -0.025070 0.999395 3713.dat
0 STEP
1 71 175.840600 -187.226600 39.347220 0.000000 0.000000 -0.999995 0.034900 0.999391 0.000000 0.999386 -0.034900 0.000000 3713.dat
1 71 216.190600 -187.226600 39.347220 0.000000 0.000000 -1.000000 0.034900 0.999391 0.000000 0.999391 -0.034900 0.000000 3713.dat
1 1 196.010700 -187.226600 19.347220 0.000000 0.000000 -1.000000 0.000000 1.000000 0.000000 1.000000 0.000000 0.000000 44809.dat
0 STEP
1 0 269.633700 -210.071100 10.126470 0.000000 0.000001 -1.000000 0.034900 0.999391 0.000000 0.999393 -0.034900 0.000000 2780.dat
1 1 212.167000 -265.344000 22.062650 -0.695699 -0.000001 -0.718333 0.717896 -0.034901 -0.695275 -0.025070 -0.999393 0.024280 32009.dat
0 STEP
1 1 213.977700 -152.988600 -1.873080 -0.718333 0.000000 -0.695699 -0.695274 0.034900 0.717897 0.024280 0.999391 -0.025070 32009.dat
0 STEP
0 STEP
0 NOFILE
0 FILE SubModel Group 9 Copy Copy Copy
0 SubModel Group 9 Copy Copy Copy
0 Name:  SubModel Group 9 Copy Copy Copy
0 Author:  
0 CustomBrick
0 NumOfBricks:  3
1 72 10.000000 -1.128810 -10.000000 1.000000 0.000000 0.000000 0.000000 0.000000 -1.000000 0.000000 1.000000 0.000000 dch003.dat
1 71 -27.466620 -79.717990 29.427020 1.000000 0.000000 0.000000 0.000000 0.000000 -1.000000 0.000000 1.000000 0.000000 dch004.dat
1 25 7.837010 13.484720 -9.965000 1.000000 0.000000 0.000000 0.000000 0.000000 -1.000000 0.000000 1.000000 0.000000 dch005.dat
0 NOFILE
