0 FILE 棘轮结构.io
0 Untitled Model
0 Name:  棘轮结构
0 Author:  
0 CustomBrick
0 NumOfBricks:  27
1 1 -50.000080 -32.000000 20.000220 0.000000 0.000000 1.000000 0.000000 1.000000 0.000000 -1.000000 0.000000 0.000000 3895.dat
1 1 50.000100 -32.000000 20.000240 0.000000 0.000000 1.000003 0.000000 1.000000 0.000000 -1.000003 0.000000 0.000000 3895.dat
1 1 0.000010 -8.000000 -80.000020 1.000002 0.000000 0.000000 0.000000 1.000000 0.000000 0.000000 0.000000 1.000002 32001.dat
0 STEP
1 1 0.000010 -8.000000 120.000500 1.000002 0.000000 0.000000 0.000000 1.000000 0.000000 0.000000 0.000000 1.000002 32001.dat
0 STEP
1 1 0.000010 -40.000000 120.000500 1.000002 0.000000 0.000000 0.000000 1.000000 0.000000 0.000000 0.000000 1.000002 32001.dat
1 1 0.000010 -40.000000 -80.000020 1.000002 0.000000 0.000000 0.000000 1.000000 0.000000 0.000000 0.000000 1.000002 32001.dat
0 STEP
1 1 0.000010 -64.000000 -90.000030 1.000002 0.000000 0.000000 0.000000 1.000000 0.000000 0.000000 0.000000 1.000002 3894.dat
1 1 0.000010 -64.000000 130.000500 1.000002 0.000000 0.000000 0.000000 1.000000 0.000000 0.000000 0.000000 1.000002 3894.dat
0 STEP
1 0 -60.000140 -22.000000 100.000400 -1.000002 0.000000 0.000000 0.000000 1.000000 0.000000 0.000000 0.000000 -1.000002 2780.dat
1 0 -60.000140 -22.000000 -59.999960 -1.000002 0.000000 0.000000 0.000000 1.000000 0.000000 0.000000 0.000000 -1.000002 2780.dat
1 4 -70.000140 -22.000000 -59.999960 -1.000002 0.000000 0.000000 0.000000 -1.000000 0.000000 0.000000 0.000000 1.000002 32034.dat
1 4 -70.000140 -22.000000 100.000400 -1.000002 0.000000 0.000000 0.000000 -1.000000 0.000000 0.000000 0.000000 1.000002 32034.dat
0 STEP
1 1 70.000270 -102.000000 -19.999790 0.000001 1.000002 -0.000001 0.000001 0.000001 1.000000 1.000002 -0.000001 -0.000001 32526.dat
1 0 60.000160 -22.000000 20.000240 -1.000002 0.000000 0.000000 0.000000 1.000000 0.000000 0.000000 0.000000 -1.000002 2780.dat
1 0 60.000160 -22.000000 -19.999850 -1.000002 0.000000 0.000000 0.000000 1.000000 0.000000 0.000000 0.000000 -1.000002 2780.dat
0 STEP
1 0 60.000220 -102.000000 -19.999790 -1.000003 0.000000 0.000000 0.000000 1.000000 0.000000 0.000000 0.000000 -1.000003 2780.dat
1 0 60.000220 -62.000000 -19.999790 -1.000003 0.000000 0.000000 0.000000 1.000000 0.000000 0.000000 0.000000 -1.000003 2780.dat
1 71 60.002480 -82.000000 -19.997040 0.000000 0.000000 -0.999998 0.000000 1.000000 0.000000 0.999998 0.000000 0.000000 58120.dat
0 STEP
1 71 71.360270 -82.000040 -19.999730 -1.000002 0.000000 0.000000 0.000000 0.000000 1.000000 0.000000 1.000002 0.000000 4519.dat
0 STEP
1 71 89.760310 -82.000040 -19.999730 0.000000 0.000000 -1.000002 1.000000 0.000000 0.000000 0.000000 -1.000002 0.000000 3649.dat
0 STEP
1 1 70.000160 -59.069600 101.949200 -0.000001 0.000000 -1.000002 0.766043 0.642790 0.000000 0.642791 -0.766045 -0.000001 3894.dat
1 1 50.000040 -22.000000 120.000500 -1.000003 0.000000 0.000000 0.000000 0.906308 0.422618 0.000000 0.422619 -0.906311 6558.dat
1 0 80.000170 -83.283400 68.577160 -1.000002 0.000000 0.000000 0.000000 1.000000 0.000000 0.000000 0.000000 -1.000002 2780.dat
1 4 90.000190 -83.283480 68.577220 -1.000002 0.000000 0.000000 0.000000 -1.000000 0.000000 0.000000 0.000000 1.000002 32034.dat
0 STEP
1 16 -211.000000 8.000000 -61.000000 0.000000 0.000000 -1.000000 0.000000 1.000000 0.000000 1.000000 0.000000 0.000000 submodel group 9 copy copy copy
0 STEP
0 NOFILE
0 FILE SubModel Group 9 Copy Copy Copy
0 SubModel Group 9 Copy Copy Copy
0 Name:  SubModel Group 9 Copy Copy Copy
0 Author:  
0 CustomBrick
0 NumOfBricks:  3
1 72 10.000000 -1.128810 -10.000000 1.000000 0.000000 0.000000 0.000000 0.000000 -1.000000 0.000000 1.000000 0.000000 dch003.dat
1 71 -27.466620 -79.717990 29.427020 1.000000 0.000000 0.000000 0.000000 0.000000 -1.000000 0.000000 1.000000 0.000000 dch004.dat
1 25 7.837010 13.484720 -9.965000 1.000000 0.000000 0.000000 0.000000 0.000000 -1.000000 0.000000 1.000000 0.000000 dch005.dat
0 NOFILE
