0 FILE 招财猫.io
0 Untitled Model
0 Name:  招财猫
0 Author:  
0 CustomBrick
0 NumOfBricks:  224
1 0 200.000200 -126.000000 0.000050 0.000000 0.000000 -1.000000 0.000000 1.000000 0.000000 1.000000 0.000000 0.000000 2780.dat
1 16 209.000300 -16.466060 -172.000300 0.000000 0.000000 -1.000002 0.000000 1.000000 0.000000 1.000002 0.000000 0.000000 submodel group 9 copy copy copy
1 0 240.000200 -126.000000 0.000050 0.000000 0.000000 -1.000000 0.000000 1.000000 0.000000 1.000000 0.000000 0.000000 2780.dat
0 STEP
1 1 180.000200 -56.000000 9.999929 1.000000 0.000000 0.000000 0.000000 1.000000 0.000000 0.000000 0.000000 1.000000 3702.dat
1 0 240.000200 -46.000000 -0.000070 0.000000 0.000000 -1.000000 0.000000 1.000000 0.000000 1.000000 0.000000 0.000000 2780.dat
1 0 199.999500 -46.000000 -0.001470 0.000000 0.000000 -1.000002 0.000000 1.000000 0.000000 1.000002 0.000000 0.000000 2780.dat
0 STEP
1 15 270.000200 -56.000000 10.000040 0.000000 0.000000 -1.000000 0.000000 1.000000 0.000000 1.000000 0.000000 0.000000 3040b.dat
1 1 240.000300 -64.000000 10.000040 1.000000 0.000000 0.000000 0.000000 1.000000 0.000000 0.000000 0.000000 1.000000 3710.dat
0 STEP
1 1 130.000200 -86.000000 -10.000180 0.000000 1.000000 0.000000 1.000000 0.000000 0.000000 0.000000 0.000000 -1.000000 3894.dat
1 1 140.000100 -46.000000 -10.000180 0.000000 0.000000 1.000000 0.000000 1.000000 0.000000 -1.000000 0.000000 0.000000 6558.dat
0 STEP
1 1 140.000100 -126.000000 -10.000180 0.000000 0.000000 1.000000 0.000000 1.000000 0.000000 -1.000000 0.000000 0.000000 6558.dat
1 15 140.000200 -186.000000 -29.999950 1.000000 -0.000001 0.000001 0.000001 0.000001 -1.000000 0.000001 1.000000 0.000001 64871.dat
0 STEP
1 72 140.000300 -226.000000 -69.919980 0.000000 -1.000000 0.000000 -1.000000 0.000000 0.000000 0.000000 0.000000 -1.000000 3648b.dat
1 0 140.000200 -226.000000 -39.799940 0.000000 0.000000 1.000000 0.000000 1.000000 0.000000 -1.000000 0.000000 0.000000 3705.dat
1 1 200.000200 -226.000000 -50.239890 -0.000001 -0.000001 -1.000000 1.000000 -0.000001 -0.000001 -0.000001 -1.000000 0.000001 32140.dat
0 STEP
1 0 180.000200 -226.000000 -40.239880 0.000000 0.000000 -1.000000 0.000000 1.000000 0.000000 1.000000 0.000000 0.000000 2780.dat
1 1 200.000200 -236.000000 -30.239950 1.000000 0.000000 0.000000 0.000000 1.000000 0.000000 0.000000 0.000000 1.000000 3701.dat
0 STEP
1 72 140.000300 -226.000100 -5.339960 -1.000000 0.000000 0.000000 0.000000 -1.000000 0.000000 0.000000 0.000000 1.000000 6575.dat
1 72 140.000300 -226.000000 -14.729980 -1.000000 0.000000 0.000000 0.000000 -1.000000 0.000000 0.000000 0.000000 1.000000 6575.dat
0 STEP
1 1 80.000660 -165.999900 -50.239570 0.000001 0.000001 1.000000 1.000000 -0.000001 -0.000001 0.000001 1.000000 -0.000001 32140.dat
1 0 139.999800 -145.999900 -40.237440 0.000000 0.000000 -1.000000 0.000000 1.000000 0.000000 1.000000 0.000000 0.000000 2780.dat
1 19 80.000560 -165.999900 -40.239680 0.000001 -1.000000 0.000001 0.000001 0.000001 1.000000 -1.000000 -0.000001 0.000001 3749.dat
0 STEP
1 15 120.000500 -265.999900 -50.239700 0.000001 0.000001 -1.000000 -1.000000 0.000001 -0.000001 0.000001 1.000000 0.000001 32524.dat
1 4 140.000600 -265.999900 -50.239700 -0.000001 1.000000 -0.000001 0.000001 0.000001 1.000000 1.000000 0.000001 -0.000001 32054.dat
0 STEP
1 4 140.000500 -265.999900 -109.999900 0.000000 -1.000000 0.000000 1.000000 0.000000 0.000000 0.000000 0.000000 1.000000 32034.dat
1 4 140.000500 -265.999900 -80.239700 0.000000 0.000000 -1.000000 0.000000 1.000000 0.000000 1.000000 0.000000 0.000000 32062.dat
0 STEP
1 4 140.000400 -266.000000 -169.999800 -0.000001 1.000000 -0.000001 -0.000001 -0.000001 -1.000000 -1.000000 -0.000001 0.000001 32054.dat
1 4 140.000500 -265.999900 -139.999900 0.000000 0.000000 -1.000000 0.000000 1.000000 0.000000 1.000000 0.000000 0.000000 32062.dat
0 STEP
1 4 140.000500 -285.999900 -109.999900 0.000001 0.000001 1.000000 1.000000 0.000001 -0.000001 -0.000001 1.000000 -0.000001 32054.dat
1 4 140.000400 -315.999900 -109.999900 0.000000 -1.000000 0.000000 -1.000000 0.000000 0.000000 0.000000 0.000000 -1.000000 32062.dat
0 STEP
1 71 200.000200 -226.000000 -110.240100 0.000000 -1.000000 0.000000 0.000000 0.000000 1.000000 -1.000000 0.000000 0.000000 4519.dat
1 71 200.000200 -226.000000 -50.240070 0.000000 -1.000000 0.000000 0.000000 0.000000 1.000000 -1.000000 0.000000 0.000000 4519.dat
1 71 200.000200 -226.002900 -80.240070 1.000000 0.000000 0.000001 0.000000 1.000000 0.000000 -0.000001 0.000000 1.000000 59443.dat
0 STEP
1 71 200.000400 -226.000000 -169.999800 0.000000 1.000000 0.000000 0.000000 0.000000 1.000000 1.000000 0.000000 0.000000 4519.dat
1 71 200.000500 -226.002800 -139.999800 1.000000 0.000000 0.000001 0.000000 1.000000 0.000000 -0.000001 0.000000 1.000000 59443.dat
0 STEP
1 0 140.000400 -226.000000 -179.999600 0.000000 0.000000 1.000000 0.000000 1.000000 0.000000 -1.000000 0.000000 0.000000 3705.dat
1 1 200.000400 -226.000000 -169.999900 -0.000001 -0.000001 -1.000000 1.000000 -0.000001 -0.000001 -0.000001 -1.000000 0.000001 32140.dat
1 72 140.000400 -226.000000 -149.999700 0.000000 -1.000000 0.000000 -1.000000 0.000000 0.000000 0.000000 0.000000 -1.000000 3648b.dat
0 STEP
1 15 140.000500 -186.000000 -189.999600 -1.000000 0.000001 -0.000001 0.000001 0.000001 -1.000000 -0.000001 -1.000000 -0.000001 64871.dat
1 15 120.000600 -265.999900 -169.999400 0.000001 0.000001 -1.000000 -1.000000 0.000001 -0.000001 0.000001 1.000000 0.000001 32524.dat
0 STEP
1 1 60.000620 -206.000000 -189.999300 1.000000 -0.000001 -0.000001 -0.000001 -0.000001 -1.000000 0.000001 1.000000 -0.000001 32140.dat
1 0 60.000540 -265.999900 -179.999600 0.000000 0.000000 -1.000000 0.000000 1.000000 0.000000 1.000000 0.000000 0.000000 2780.dat
1 0 80.000550 -266.000000 -179.999300 0.000000 0.000000 -1.000000 0.000000 1.000000 0.000000 1.000000 0.000000 0.000000 2780.dat
0 STEP
1 1 80.000550 -165.999900 -169.999300 0.000001 0.000001 1.000000 1.000000 -0.000001 -0.000001 0.000001 1.000000 -0.000001 32140.dat
1 0 140.000600 -146.000000 -179.999600 0.000000 0.000000 -1.000000 0.000000 1.000000 0.000000 1.000000 0.000000 0.000000 2780.dat
0 STEP
1 1 140.000600 -46.000000 -209.999600 0.000000 0.000000 -0.999998 0.000000 1.000000 0.000000 0.999998 0.000000 0.000000 6558.dat
1 1 140.000600 -126.000000 -209.999600 0.000000 0.000000 -1.000000 0.000000 1.000000 0.000000 1.000000 0.000000 0.000000 6558.dat
1 1 130.000700 -86.000000 -209.999600 0.000000 1.000000 0.000000 -1.000000 0.000000 0.000000 0.000000 0.000000 1.000000 3894.dat
0 STEP
1 1 180.000500 -56.000000 -229.999600 0.999998 0.000000 0.000000 0.000000 1.000000 0.000000 0.000000 0.000000 0.999998 3702.dat
1 0 240.000400 -46.000000 -219.999600 0.000000 0.000000 -0.999998 0.000000 1.000000 0.000000 0.999998 0.000000 0.000000 2780.dat
1 0 200.000500 -46.000000 -219.999600 0.000000 0.000000 -0.999998 0.000000 1.000000 0.000000 0.999998 0.000000 0.000000 2780.dat
0 STEP
1 15 270.000200 -56.000000 -229.999400 0.000000 0.000000 -0.999998 0.000000 1.000000 0.000000 0.999998 0.000000 0.000000 3040b.dat
1 1 240.000300 -64.000000 -229.999600 1.000000 0.000000 0.000000 0.000000 1.000000 0.000000 0.000000 0.000000 1.000000 3710.dat
0 STEP
1 1 140.000100 -32.000000 -250.000000 1.000000 0.000000 0.000000 0.000000 1.000000 0.000000 0.000000 0.000000 1.000000 3703.dat
1 15 60.000080 -56.000000 -240.000000 0.999998 0.000000 0.000000 0.000000 1.000000 0.000000 0.000000 0.000000 0.999998 3001.dat
1 1 140.000600 -32.000000 -229.999600 0.999998 0.000000 0.000000 0.000000 1.000000 0.000000 0.000000 0.000000 0.999998 3703.dat
0 STEP
1 1 139.999600 -32.000000 29.999340 1.000002 0.000000 0.000000 0.000000 1.000000 0.000000 0.000000 0.000000 1.000002 3703.dat
1 1 140.000200 -32.000000 10.000060 1.000000 0.000000 0.000000 0.000000 1.000000 0.000000 0.000000 0.000000 1.000000 3703.dat
1 15 59.999460 -56.000000 19.999460 1.000000 0.000000 0.000000 0.000000 1.000000 0.000000 0.000000 0.000000 1.000000 3001.dat
0 STEP
1 1 -0.000820 -8.000000 -20.000840 0.000000 0.000000 1.000002 0.000000 1.000000 0.000000 -1.000002 0.000000 0.000000 32001.dat
0 STEP
1 19 -33.000790 -21.999990 -20.000970 0.000001 0.000000 -1.000000 -1.000000 0.000000 -0.000001 0.000000 1.000000 0.000000 6589.dat
1 4 -20.000720 -22.000010 -20.000960 -1.000000 0.000000 0.000000 0.000000 1.000000 0.000000 0.000000 0.000000 -1.000000 32062.dat
1 15 -10.000800 -32.000000 -20.000960 0.000000 0.000000 1.000000 0.000000 1.000000 0.000000 -1.000000 0.000000 0.000000 32064a.dat
1 14 -28.250720 -22.000000 -20.000960 0.000000 0.000000 1.000000 1.000000 0.000000 0.000000 0.000000 1.000000 0.000000 32123a.dat
0 STEP
1 15 -10.000820 -32.000000 -60.001030 0.000000 0.000000 1.000000 0.000000 1.000000 0.000000 -1.000000 0.000000 0.000000 32064a.dat
1 4 -20.000740 -22.000010 -60.001030 -1.000000 0.000000 0.000000 0.000000 1.000000 0.000000 0.000000 0.000000 -1.000000 32062.dat
1 14 -24.330750 -22.000000 -60.001030 0.000000 0.000000 1.000000 1.000000 0.000000 0.000000 0.000000 1.000000 0.000000 32123a.dat
1 19 -33.000720 -21.999990 -60.001030 0.000001 0.000000 -1.000000 -1.000000 0.000000 -0.000001 0.000000 1.000000 0.000000 6589.dat
0 STEP
1 1 -0.000820 -40.000000 -20.001020 0.000000 0.000000 1.000000 0.000000 1.000000 0.000000 -1.000000 0.000000 0.000000 32001.dat
0 STEP
1 1 0.000010 -8.000000 -200.000000 0.000000 0.000000 1.000000 0.000000 1.000000 0.000000 -1.000000 0.000000 0.000000 32001.dat
0 STEP
1 15 -9.999980 -32.000000 -200.000100 0.000001 0.000000 1.000000 0.000000 1.000000 0.000000 -1.000000 0.000000 0.000001 32064a.dat
1 4 -19.999950 -22.000010 -200.000100 -0.999998 0.000000 0.000000 0.000000 1.000000 0.000000 0.000000 0.000000 -0.999998 32062.dat
1 14 -26.689890 -22.000000 -200.000100 0.000000 0.000000 1.000000 1.000000 0.000000 0.000000 0.000000 1.000000 0.000000 32123a.dat
1 19 -32.999900 -21.999990 -200.000100 0.000001 0.000000 -1.000000 -1.000000 0.000000 -0.000001 0.000000 1.000000 0.000000 6589.dat
0 STEP
1 15 -9.999960 -32.000000 -160.000300 0.000001 0.000000 1.000000 0.000000 1.000000 0.000000 -1.000000 0.000000 0.000001 32064a.dat
1 4 -19.999950 -22.000010 -160.000300 -0.999998 0.000000 0.000000 0.000000 1.000000 0.000000 0.000000 0.000000 -0.999998 32062.dat
1 14 -26.679890 -22.000000 -160.000300 0.000000 0.000000 1.000000 1.000000 0.000000 0.000000 0.000000 1.000000 0.000000 32123a.dat
1 19 -32.999900 -21.999990 -160.000300 0.000001 0.000000 -1.000000 -1.000000 0.000000 -0.000001 0.000000 1.000000 0.000000 6589.dat
0 STEP
1 1 -0.000110 -48.000000 -170.000100 1.000000 0.000000 0.000000 0.000000 1.000000 0.000000 0.000000 0.000000 1.000000 3023.dat
1 1 -0.000110 -40.000000 -200.000000 0.000000 0.000000 0.999998 0.000000 1.000000 0.000000 -0.999998 0.000000 0.000000 32001.dat
0 STEP
1 1 -0.000830 -48.000000 -100.001000 0.000000 0.000000 1.000000 0.000000 1.000000 0.000000 -1.000000 0.000000 0.000000 32001.dat
1 15 -0.000840 -72.000000 -160.001100 1.000000 0.000000 0.000000 0.000000 1.000000 0.000000 0.000000 0.000000 1.000000 3941.dat
1 15 -0.000830 -72.000000 -60.001040 1.000000 0.000000 0.000000 0.000000 1.000000 0.000000 0.000000 0.000000 1.000000 3941.dat
0 STEP
1 15 60.000550 -165.999900 -169.999600 1.000000 -0.000001 0.000001 0.000001 0.000001 -1.000000 0.000001 1.000000 0.000001 40490.dat
1 0 60.000620 -245.999900 -179.999600 0.000000 0.000000 -1.000000 0.000000 1.000000 0.000000 1.000000 0.000000 0.000000 2780.dat
1 19 60.000620 -205.999900 -179.999400 0.000001 -1.000000 0.000001 0.000001 0.000001 1.000000 -1.000000 -0.000001 0.000001 3749.dat
0 STEP
1 72 100.000900 -166.000200 -70.469600 -0.972774 -0.231755 0.000000 0.231755 -0.972774 0.000000 0.000000 0.000000 1.000000 3647.dat
1 0 100.000800 -166.000200 -119.629600 0.000000 0.231755 0.972774 0.000000 0.972774 -0.231755 -1.000000 0.000000 0.000000 3708.dat
1 72 100.000900 -166.000200 -150.039600 -0.972774 -0.231755 0.000000 0.231755 -0.972774 0.000000 0.000000 0.000000 1.000000 3647.dat
0 STEP
1 0 60.000550 -105.999900 -159.999600 0.000000 0.000000 -1.000000 0.000000 1.000000 0.000000 1.000000 0.000000 0.000000 2780.dat
1 71 60.000550 -126.000000 -159.999600 1.000000 0.000000 0.000000 0.000000 1.000000 0.000000 0.000000 0.000000 1.000000 58120.dat
1 0 60.000550 -146.000000 -159.999600 0.000000 0.000000 -1.000000 0.000000 1.000000 0.000000 1.000000 0.000000 0.000000 2780.dat
0 STEP
1 0 60.000540 -126.000000 -180.109600 0.000000 0.000000 1.000000 0.000000 1.000000 0.000000 -1.000000 0.000000 0.000000 3705.dat
1 72 60.000540 -126.000000 -210.109500 -1.000000 0.000000 0.000000 0.000000 -1.000000 0.000000 0.000000 0.000000 1.000000 3647.dat
1 71 60.000540 -126.000000 -189.519500 1.000000 0.000000 0.000001 0.000000 1.000000 0.000000 -0.000001 0.000000 1.000000 3713.dat
0 STEP
1 71 100.000800 -166.000200 -9.999570 0.972774 0.231755 0.000000 -0.231755 0.972774 0.000000 0.000000 0.000000 1.000000 3713.dat
1 0 60.000560 -185.999900 -20.239680 0.000000 0.000000 -1.000000 0.000000 1.000000 0.000000 1.000000 0.000000 0.000000 2780.dat
1 1 120.000600 -166.000000 -30.239570 -0.000001 -0.000001 -1.000000 -1.000000 0.000001 0.000001 0.000001 1.000000 -0.000001 32140.dat
0 STEP
1 1 60.000560 -205.999900 -30.239690 1.000000 -0.000001 -0.000001 -0.000001 -0.000001 -1.000000 0.000001 1.000000 -0.000001 32140.dat
1 0 60.000440 -265.999900 -40.239680 0.000000 0.000000 -1.000000 0.000000 1.000000 0.000000 1.000000 0.000000 0.000000 2780.dat
1 0 80.000430 -265.999900 -40.239680 0.000000 0.000000 -1.000000 0.000000 1.000000 0.000000 1.000000 0.000000 0.000000 2780.dat
0 STEP
1 0 60.000560 -245.999900 -20.239680 0.000000 0.000000 -1.000000 0.000000 1.000000 0.000000 1.000000 0.000000 0.000000 2780.dat
1 15 60.000440 -165.999900 -10.239670 1.000000 -0.000001 0.000001 0.000001 0.000001 -1.000000 0.000001 1.000000 0.000001 40490.dat
1 19 60.000560 -205.999900 -20.239680 0.000001 -1.000000 0.000001 0.000001 0.000001 1.000000 -1.000000 -0.000001 0.000001 3749.dat
0 STEP
1 0 60.000550 -86.000040 -89.829720 0.000000 0.000000 1.000000 0.000000 1.000000 0.000000 -1.000000 0.000000 0.000000 3737.dat
1 14 60.000660 -86.000060 4.680250 0.000000 1.000000 0.000000 1.000000 0.000000 0.000000 0.000000 0.000000 -1.000000 32123a.dat
1 14 60.000540 -86.000040 -184.619800 0.000000 1.000000 0.000000 1.000000 0.000000 0.000000 0.000000 0.000000 -1.000000 32123a.dat
0 STEP
1 0 60.000640 -166.000000 -120.419500 0.000000 -0.133985 0.990983 0.000000 0.990983 0.133985 -1.000000 0.000000 0.000000 3708.dat
0 STEP
1 1 200.000100 -136.000000 9.999810 1.000000 0.000000 0.000000 0.000000 1.000000 0.000000 0.000000 0.000000 1.000000 3702.dat
1 15 250.000100 -160.000000 9.999790 0.000000 0.000000 -1.000000 0.000000 1.000000 0.000000 1.000000 0.000000 0.000000 3040b.dat
0 STEP
1 0 200.000200 -126.000000 -219.999800 0.000000 0.000000 -1.000000 0.000000 1.000000 0.000000 1.000000 0.000000 0.000000 2780.dat
1 0 240.000100 -126.000000 -219.999600 0.000000 0.000000 -1.000000 0.000000 1.000000 0.000000 1.000000 0.000000 0.000000 2780.dat
0 STEP
1 1 200.000200 -136.000000 -229.999600 1.000000 0.000000 0.000000 0.000000 1.000000 0.000000 0.000000 0.000000 1.000000 3702.dat
1 15 250.000200 -160.000000 -229.999600 0.000000 0.000000 -1.000000 0.000000 1.000000 0.000000 1.000000 0.000000 0.000000 3040b.dat
0 STEP
1 1 200.000400 -236.000000 -189.999800 1.000000 0.000000 0.000000 0.000000 1.000000 0.000000 0.000000 0.000000 1.000000 3701.dat
1 0 180.000500 -226.000000 -179.999800 0.000000 0.000000 -1.000000 0.000000 1.000000 0.000000 1.000000 0.000000 0.000000 2780.dat
0 STEP
1 72 140.000400 -226.000000 -205.609700 -1.000000 0.000000 0.000000 0.000000 -1.000000 0.000000 0.000000 0.000000 1.000000 6575.dat
1 72 140.000500 -226.000000 -214.999800 -1.000000 0.000000 0.000000 0.000000 -1.000000 0.000000 0.000000 0.000000 1.000000 6575.dat
0 STEP
1 1 120.000600 -166.000000 -189.999300 -0.000001 -0.000001 -1.000000 -1.000000 0.000001 0.000001 0.000001 1.000000 -0.000001 32140.dat
1 19 80.000550 -166.000000 -179.999600 -0.000001 1.000000 -0.000001 0.000001 0.000001 1.000000 1.000000 0.000001 -0.000001 3749.dat
1 0 60.000540 -185.999900 -179.999600 0.000000 0.000000 -1.000000 0.000000 1.000000 0.000000 1.000000 0.000000 0.000000 2780.dat
0 STEP
1 72 60.000760 -166.000000 -209.769500 -0.133985 -0.990983 0.000000 0.990983 -0.133985 0.000000 0.000000 0.000000 1.000000 3648b.dat
1 71 100.000800 -166.000200 -210.159600 0.972774 0.231755 0.000000 -0.231755 0.972774 0.000000 0.000000 0.000000 1.000000 3713.dat
0 STEP
1 0 60.000620 -166.000000 -230.419400 -0.133985 -0.990984 0.000000 0.990984 -0.133985 0.000000 0.000000 0.000000 1.000000 32270.dat
1 19 100.000700 -166.000200 -229.629600 0.231755 -0.972774 0.000000 0.972775 0.231755 0.000000 0.000000 0.000000 1.000000 32269.dat
0 STEP
1 0 140.000600 -165.999900 -139.329700 0.000000 -0.579011 0.815320 0.000000 0.815320 0.579011 -1.000000 0.000000 0.000000 3708.dat
1 71 140.000600 -165.999900 -151.789700 -0.579011 -0.815320 -0.000001 0.815320 -0.579011 0.000001 -0.000001 0.000000 1.000000 3650c.dat
1 71 140.000600 -165.999900 -81.949780 -0.579011 0.815320 0.000000 0.815320 0.579011 0.000001 0.000001 0.000000 -1.000000 3650c.dat
0 STEP
1 4 140.000600 -165.999900 -279.329400 0.000001 0.034900 -0.999391 0.000000 0.999391 0.034900 1.000000 0.000000 0.000001 32062.dat
1 71 140.000400 -166.002800 -259.329700 0.999391 0.034900 0.000001 -0.034900 0.999391 0.000000 -0.000001 0.000000 1.000000 59443.dat
0 STEP
1 4 100.024900 -164.603900 -319.329500 0.000000 0.000000 1.000000 0.000000 1.000000 0.000000 -1.000000 0.000000 0.000000 62462.dat
1 71 140.000600 -165.999900 -289.329400 0.034900 -0.000001 -0.999391 0.999391 0.000001 0.034900 0.000001 -1.000000 0.000001 33299.dat
0 STEP
1 15 101.627800 -294.706300 -209.999800 -0.282342 0.000001 -0.959313 -0.959313 0.000001 0.282342 0.000001 1.000000 0.000001 40490.dat
1 71 140.000300 -306.000000 -199.999900 0.000000 0.000000 -1.000000 0.000000 1.000000 0.000000 1.000000 0.000000 0.000000 3673.dat
0 STEP
1 19 140.000500 -246.000000 -219.999600 0.000000 1.000000 0.000000 0.000001 0.000000 1.000000 1.000000 0.000000 -0.000002 3749.dat
1 15 159.348000 -282.107600 -230.000000 0.879649 -0.000001 -0.475622 0.475622 -0.000001 0.879649 -0.000001 -1.000000 -0.000001 32316.dat
1 71 178.373100 -317.293700 -219.999900 0.000000 0.282343 -0.959313 0.000000 0.959313 0.282343 1.000000 0.000000 0.000000 3673.dat
0 STEP
1 0 24.882820 -272.118900 -219.999800 0.000000 0.000000 -1.000000 0.000000 1.000000 0.000000 1.000000 0.000000 0.000000 2780.dat
1 0 63.255360 -283.412600 -219.999800 0.000000 0.000000 -1.000000 0.000000 1.000000 0.000000 1.000000 0.000000 0.000000 2780.dat
1 1 82.431750 -289.092900 -229.999800 0.284017 0.000000 -0.958819 0.958819 0.000000 0.284017 0.000000 -1.000000 0.000000 6629.dat
0 STEP
1 4 -53.084190 -211.404900 -249.659700 0.000000 -0.348078 -0.937466 0.000000 0.937466 -0.348078 1.000000 0.000000 0.000000 32039.dat
1 72 -34.334860 -204.443300 -231.659700 0.000000 -0.348078 0.937466 0.000000 0.937466 0.348078 -1.000000 0.000000 0.000000 6587.dat
1 4 -62.458880 -214.885700 -249.659700 0.937466 -0.348078 0.000000 0.348078 0.937466 0.000000 0.000000 0.000000 1.000000 32062.dat
0 STEP
1 4 -53.084190 -211.404900 -210.289900 0.000000 -0.348078 -0.937466 0.000000 0.937466 -0.348078 1.000000 0.000000 0.000000 32039.dat
1 4 -62.458940 -214.885300 -210.290000 0.937466 -0.348078 0.000000 0.348078 0.937466 0.000000 0.000000 0.000000 1.000001 32062.dat
0 STEP
1 71 140.000300 -306.000000 -19.999880 0.000000 0.000000 -1.000000 0.000000 1.000000 0.000000 1.000000 0.000000 0.000000 3673.dat
1 15 101.627800 -294.706300 -9.999750 -0.282343 0.000001 -0.959314 -0.959314 0.000001 0.282343 0.000001 1.000000 0.000001 40490.dat
0 STEP
1 19 140.000300 -246.000000 -0.729980 0.000001 -1.000000 0.000001 0.000001 0.000001 1.000000 -1.000000 -0.000001 0.000001 3749.dat
1 71 178.372900 -317.293700 0.000120 0.000000 0.282343 -0.959313 0.000000 0.959313 0.282343 1.000000 0.000000 0.000000 3673.dat
1 15 159.348000 -282.107700 10.000120 0.879650 -0.000001 -0.475622 0.475622 -0.000001 0.879650 -0.000001 -1.000000 0.000000 32316.dat
0 STEP
1 0 24.882640 -272.118900 0.000380 0.000000 0.000000 -1.000000 0.000000 1.000000 0.000000 1.000000 0.000000 0.000000 2780.dat
1 0 63.255180 -283.412600 0.000380 0.000000 0.000000 -1.000000 0.000000 1.000000 0.000000 1.000000 0.000000 0.000000 2780.dat
1 1 82.431560 -289.092900 10.000360 0.284017 0.000000 -0.958819 0.958820 0.000000 0.284017 0.000000 -1.000000 0.000000 6629.dat
0 STEP
1 4 -41.295830 -185.693600 29.980800 0.000000 0.937464 -0.348076 0.000000 0.348077 0.937465 0.999997 0.000000 0.000000 32039.dat
1 4 -44.776660 -176.318900 29.980800 0.348076 -0.937466 0.000000 -0.937466 -0.348076 0.000000 0.000000 0.000000 -1.000000 32062.dat
1 72 -34.335020 -204.443300 12.240260 0.000000 0.348077 0.937466 0.000000 -0.937466 0.348077 1.000000 0.000000 0.000000 6587.dat
0 STEP
1 4 -41.296620 -185.694000 -9.899750 0.000000 0.937466 -0.348077 0.000000 0.348077 0.937466 1.000000 0.000000 0.000000 32039.dat
1 4 -44.777460 -176.319300 -9.899750 0.348076 -0.937466 0.000000 -0.937466 -0.348076 0.000000 0.000000 0.000000 -1.000000 32062.dat
0 STEP
1 16 122.406000 -296.999900 -110.108100 1.000000 0.000000 0.000000 0.000000 1.000000 0.000000 0.000000 0.000000 1.000000 submodel group 1
0 STEP
0 STEP
0 NOFILE
0 FILE SubModel Group 9 Copy Copy Copy
0 SubModel Group 9 Copy Copy Copy
0 Name:  SubModel Group 9 Copy Copy Copy
0 Author:  
0 CustomBrick
0 NumOfBricks:  3
1 72 10.000000 -1.128810 -10.000000 1.000000 0.000000 0.000000 0.000000 0.000000 -1.000000 0.000000 1.000000 0.000000 dch003.dat
1 71 -27.466620 -79.717990 29.427020 1.000000 0.000000 0.000000 0.000000 0.000000 -1.000000 0.000000 1.000000 0.000000 dch004.dat
1 25 7.837010 13.484720 -9.965000 1.000000 0.000000 0.000000 0.000000 0.000000 -1.000000 0.000000 1.000000 0.000000 dch005.dat
0 NOFILE
0 FILE SubModel Group 1
0 SubModel Group 1
0 Name:  SubModel Group 1
0 Author:  
0 CustomBrick
0 NumOfBricks:  64
1 72 31.234600 -49.000100 0.108320 0.000000 -1.000001 0.000000 0.000000 0.000000 1.000002 -1.000001 0.000000 0.000000 99773.dat
0 STEP
1 4 17.594450 -29.000030 0.108080 -1.000002 0.000000 0.000000 0.000000 -0.000001 1.000002 0.000000 1.000002 0.000001 32039.dat
1 71 41.304670 -49.000100 0.108320 0.000000 0.000000 -1.000001 0.000000 1.000002 0.000000 1.000001 -0.000001 0.000000 4185.dat
1 71 18.594470 -49.000100 0.108330 1.000001 0.000000 0.000000 0.000000 1.000002 0.000001 0.000000 -0.000001 1.000000 32073.dat
0 STEP
1 71 25.614490 -49.000100 -39.891940 -1.000001 0.000000 0.000000 0.000000 0.000000 1.000002 0.000000 1.000001 -0.000001 4519.dat
1 71 26.014620 -49.000100 40.108340 -1.000001 0.000000 0.000000 0.000000 0.000000 1.000002 0.000000 1.000001 -0.000001 4519.dat
1 71 6.234590 -49.000100 -19.891940 1.000001 0.000000 0.000000 0.000000 0.000000 1.000002 0.000000 -1.000001 -0.000001 4519.dat
1 71 5.084450 -49.000100 20.108340 1.000001 0.000000 0.000000 0.000000 0.000000 1.000002 0.000000 -1.000001 -0.000001 4519.dat
0 STEP
1 1 16.034650 -49.000120 100.108400 0.000000 -1.000001 0.000000 0.000000 0.000000 1.000002 -1.000001 0.000000 -0.000001 32009.dat
1 0 6.034650 -129.000200 100.108400 -1.000001 0.000000 0.000000 0.000000 1.000002 0.000000 0.000000 -0.000001 -1.000001 2780.dat
1 0 6.034650 -109.000200 100.108400 -1.000001 0.000000 0.000000 0.000000 1.000002 0.000000 0.000000 -0.000001 -1.000001 2780.dat
0 STEP
1 0 5.864730 -109.000200 -99.891940 -1.000001 0.000000 0.000000 0.000000 1.000002 0.000000 0.000000 -0.000001 -1.000001 2780.dat
1 1 15.864490 -49.000100 -99.891970 0.000000 1.000001 0.000000 0.000000 -0.000001 1.000002 1.000001 0.000000 -0.000001 32009.dat
1 0 5.864360 -129.000200 -99.891960 -1.000001 0.000000 0.000000 0.000000 1.000002 0.000000 0.000000 -0.000001 -1.000001 2780.dat
0 STEP
1 72 1.004370 -49.000100 0.108330 0.000000 -1.000001 0.000000 0.000000 0.000000 1.000002 -1.000001 0.000000 0.000000 99773.dat
0 STEP
1 71 -14.915590 -49.000100 20.108330 0.000001 0.000000 -1.000000 0.000000 1.000000 0.000000 1.000000 0.000000 0.000001 3713.dat
1 71 -13.765440 -49.000100 -19.891940 0.000001 0.000000 -1.000000 0.000000 1.000000 0.000000 1.000000 0.000000 0.000001 3713.dat
0 STEP
1 1 35.954580 -219.000400 0.108320 0.000000 0.000000 -1.000001 0.000000 1.000002 0.000000 1.000001 -0.000001 0.000000 3895.dat
1 71 55.884750 -209.000400 100.108400 0.000001 0.000000 -1.000001 0.000000 1.000002 0.000001 1.000001 -0.000001 0.000001 3713.dat
1 72 34.034650 -209.000400 100.108400 -1.000001 0.000000 0.000000 0.000000 -1.000002 0.000000 0.000000 0.000001 1.000001 6587.dat
0 STEP
1 72 33.864500 -209.000400 -99.892000 -1.000001 0.000000 0.000000 0.000000 -1.000002 0.000000 0.000000 0.000000 1.000001 6587.dat
1 71 55.774640 -209.000400 -99.892000 0.000001 0.000000 -1.000001 0.000000 1.000002 0.000001 1.000001 -0.000001 0.000001 3713.dat
0 STEP
1 1 55.954820 -209.000300 20.108530 1.000001 0.000000 0.000000 0.000000 1.000002 0.000000 0.000000 -0.000001 1.000001 6558.dat
1 1 55.954840 -209.000400 -19.891880 1.000001 0.000000 -0.000001 0.000000 1.000002 0.000000 0.000000 -0.000001 1.000001 6558.dat
0 STEP
1 1 55.954720 -287.719500 81.119880 0.000000 -1.000001 0.000000 -0.610149 0.000000 0.792290 -0.792288 0.000000 -0.610148 6629.dat
1 1 75.954840 -288.229200 -80.906780 0.000000 1.000001 0.000000 -0.610148 0.000000 0.792290 0.792288 0.000000 0.610148 6629.dat
0 STEP
1 15 75.954720 -255.859000 56.936810 -0.000001 -1.000001 0.000000 -0.599023 0.000001 0.800735 -0.800733 0.000001 -0.599022 32523.dat
1 19 55.954720 -271.873700 68.916960 -1.000001 0.000000 0.000000 0.000000 1.000002 0.000000 0.000000 -0.000001 -1.000001 32556.dat
1 19 55.954720 -256.027900 56.714120 -1.000001 0.000000 0.000000 0.000000 1.000002 0.000000 0.000000 -0.000001 -1.000001 32556.dat
0 STEP
1 19 55.954840 -272.383500 -68.703720 -1.000001 0.000000 0.000000 0.000000 1.000002 0.000000 0.000000 -0.000001 -1.000001 32556.dat
1 19 55.954840 -256.537700 -56.500780 -1.000001 0.000000 0.000000 0.000000 1.000002 0.000000 0.000000 -0.000001 -1.000001 32556.dat
1 15 55.954840 -256.368800 -56.723200 0.000001 1.000001 0.000000 -0.599022 0.000001 0.800734 0.800734 -0.000001 0.599022 32523.dat
0 STEP
1 71 35.954710 -260.940900 83.216320 0.000000 0.000000 1.000001 -0.794413 -0.607380 0.000000 0.607380 -0.794412 0.000000 3743.dat
1 71 35.954840 -261.493200 -82.947830 0.000000 0.000000 1.000001 0.794414 -0.607381 0.000000 0.607380 0.794413 0.000000 3743.dat
1 1 35.954710 -281.688000 89.008540 0.000000 0.000000 1.000001 -0.794413 -0.607380 0.000000 0.607380 -0.794412 0.000000 3894.dat
1 1 35.954840 -282.240500 -88.740070 0.000000 0.000000 -1.000001 -0.794414 -0.607380 0.000000 -0.607380 0.794412 0.000000 3894.dat
0 STEP
1 1 17.644760 -279.538300 105.359900 0.000000 1.000001 0.000000 1.000002 0.000000 0.000000 -0.000001 0.000000 -1.000001 32001.dat
1 1 17.954820 -280.090800 -105.091200 0.000000 1.000001 0.000000 1.000002 0.000000 0.000000 -0.000001 0.000000 -1.000001 32001.dat
1 1 35.954710 -319.538400 105.359900 1.000001 0.000000 0.000000 0.000000 1.000002 0.000000 0.000000 -0.000001 1.000001 6558.dat
1 1 35.954840 -320.090700 -105.091100 1.000001 0.000000 0.000000 0.000000 1.000002 0.000000 0.000000 -0.000001 1.000001 6558.dat
0 STEP
1 72 6.034660 -189.000400 100.108500 -1.000000 0.000000 0.000001 0.000000 -1.000000 0.000000 0.000001 0.000000 1.000000 32002.dat
1 72 5.864500 -189.000300 -99.891860 -1.000000 0.000000 0.000001 0.000000 -1.000000 0.000000 0.000001 0.000000 1.000000 32002.dat
0 STEP
1 15 -7.965330 -178.739700 71.917720 0.000000 1.000000 0.000000 0.342020 0.000000 -0.939693 -0.939693 0.000001 -0.342021 2431.dat
1 15 -8.135540 -176.321800 -72.702580 0.000000 1.000000 0.000000 -0.422617 0.000000 -0.906308 -0.906309 0.000000 0.422617 2431.dat
0 STEP
1 0 -3.965590 -109.000200 100.108400 -1.000001 0.000000 0.000000 0.000000 -1.000002 0.000000 0.000000 0.000001 1.000001 32016.dat
1 0 -3.965590 -129.000200 100.108400 1.000001 0.000000 0.000000 0.000000 1.000002 0.000000 0.000000 -0.000001 1.000001 32016.dat
1 0 -3.965600 -148.154600 146.087400 -0.000001 0.000000 -1.000001 -0.382691 0.923878 0.000000 0.923877 0.382690 0.000000 3705.dat
1 0 -3.965600 -89.846500 146.085400 0.000001 0.000000 1.000001 -0.382691 0.923879 0.000000 -0.923877 -0.382691 0.000000 3705.dat
0 STEP
1 0 -4.135520 -109.000200 -99.891940 1.000001 0.000000 0.000000 0.000000 -1.000002 0.000000 0.000000 0.000000 -1.000001 32016.dat
1 0 -4.135520 -129.000200 -99.891940 -1.000001 0.000000 0.000000 0.000000 1.000002 0.000000 0.000000 -0.000001 -1.000001 32016.dat
1 0 -4.135510 -148.154700 -145.870800 0.000000 0.000000 1.000001 -0.382691 0.923879 0.000000 -0.923877 -0.382691 0.000000 3705.dat
1 0 -4.135510 -89.846560 -145.868900 -0.000001 0.000000 -1.000001 -0.382691 0.923878 0.000001 0.923877 0.382690 0.000000 3705.dat
0 STEP
1 19 -3.965530 -109.000200 70.108440 -0.000001 1.000000 -0.000001 0.000001 0.000001 1.000000 1.000000 0.000001 -0.000001 3749.dat
1 19 -3.965530 -129.000300 68.748390 -0.000001 1.000000 -0.000001 0.000001 0.000001 1.000000 1.000000 0.000001 -0.000001 3749.dat
1 19 -4.135590 -129.000200 -69.891830 0.000001 -1.000000 0.000001 0.000001 0.000001 1.000000 -1.000000 -0.000001 0.000001 3749.dat
1 19 -4.135590 -109.000300 -69.891830 0.000001 -1.000000 0.000001 0.000001 0.000001 1.000000 -1.000000 -0.000001 0.000001 3749.dat
0 STEP
1 4 -4.135590 -129.000200 -59.891830 1.000000 0.000000 0.000000 0.000000 1.000000 0.000000 0.000000 0.000000 1.000000 42003.dat
1 4 -3.965530 -129.000300 58.748390 1.000000 0.000000 0.000000 0.000000 1.000000 0.000000 0.000000 0.000000 1.000000 42003.dat
1 4 -13.965530 -149.000300 58.748400 -1.000000 0.000000 0.000000 0.000000 1.000000 0.000000 0.000000 0.000000 -1.000000 32062.dat
1 4 -14.135590 -149.000200 -59.891830 -1.000000 0.000000 0.000000 0.000000 1.000000 0.000000 0.000000 0.000000 -1.000000 32062.dat
0 STEP
1 19 -16.975570 -149.000300 58.748400 0.000000 0.000000 1.000000 -1.000000 0.000000 0.000000 0.000000 -1.000000 0.000000 32198.dat
1 19 -16.875610 -149.000200 -59.891830 0.000000 0.000000 1.000000 -1.000000 0.000000 0.000000 0.000000 -1.000000 0.000000 32198.dat
1 14 -28.965530 -149.000300 58.748400 0.000000 0.000000 1.000000 0.000000 1.000000 0.000000 -1.000000 0.000000 0.000000 32123a.dat
1 14 -29.135600 -149.000200 -59.891820 0.000000 0.000000 1.000000 0.000000 1.000000 0.000000 -1.000000 0.000000 0.000000 32123a.dat
0 STEP
0 NOFILE
