0 Untitled Model
0 Name:  拱门
0 Author:  
0 CustomBrick
0 NumOfBricks:  22
1 1 -80.000000 -24.000000 -10.000000 1.000000 0.000000 0.000000 0.000000 1.000000 0.000000 0.000000 0.000000 1.000000 3700.dat
1 1 -80.000000 -47.999990 -10.000000 1.000000 0.000000 0.000000 0.000000 1.000000 0.000000 0.000000 0.000000 1.000000 3700.dat
1 0 -80.000000 -38.000000 -7.280030 0.000000 0.000000 1.000000 0.000000 1.000000 0.000000 -1.000000 0.000000 0.000000 3705.dat
0 STEP
1 4 -80.000000 -37.999990 -38.989990 -1.000000 0.000000 0.000000 0.000000 -1.000000 -0.000001 0.000000 -0.000001 1.000000 32039.dat
1 4 -80.000000 -37.999990 22.719970 1.000000 0.000000 0.000000 0.000000 -1.000000 -0.000001 0.000000 0.000001 -1.000000 32039.dat
0 STEP
1 1 -39.999970 -71.999980 -10.000000 1.000000 0.000000 0.000000 0.000000 1.000000 0.000000 0.000000 0.000000 1.000000 3023.dat
1 1 -80.000000 -55.999990 -10.000000 1.000000 0.000000 0.000000 0.000000 1.000000 0.000000 0.000000 0.000000 1.000000 3023.dat
1 1 -60.000000 -63.999990 -10.000000 1.000000 0.000000 0.000000 0.000000 1.000000 0.000000 0.000000 0.000000 1.000000 3023.dat
0 STEP
1 1 20.000050 -79.999970 -10.000060 1.000000 0.000000 0.000000 0.000000 1.000000 0.000000 0.000000 0.000000 1.000000 3023.dat
1 1 0.000050 -87.999970 -10.000000 1.000000 0.000000 0.000000 0.000000 1.000000 0.000000 0.000000 0.000000 1.000000 3710.dat
1 1 -19.999960 -79.999970 -10.000000 1.000000 0.000000 0.000000 0.000000 1.000000 0.000000 0.000000 0.000000 1.000000 3023.dat
0 STEP
1 1 60.000060 -63.999990 -10.000060 1.000000 0.000000 0.000000 0.000000 1.000000 0.000000 0.000000 0.000000 1.000000 3700.dat
1 1 40.000050 -71.999980 -10.000060 1.000000 0.000000 0.000000 0.000000 1.000000 0.000000 0.000000 0.000000 1.000000 3023.dat
0 STEP
1 1 100.000000 -32.000000 -10.000060 1.000000 0.000000 0.000000 0.000000 1.000000 0.000000 0.000000 0.000000 1.000000 3023.dat
1 1 80.000060 -39.999990 -10.000060 1.000000 0.000000 0.000000 0.000000 1.000000 0.000000 0.000000 0.000000 1.000000 3023.dat
0 STEP
1 1 120.000000 -24.000000 -10.000060 1.000000 0.000000 0.000000 0.000000 1.000000 0.000000 0.000000 0.000000 1.000000 3700.dat
0 STEP
1 1 60.000100 -53.999990 -10.000060 0.000000 0.000000 1.000000 0.000000 1.000000 0.000000 -1.000000 0.000000 0.000000 6558.dat
0 STEP
1 19 120.000100 -14.000000 -10.000120 0.000000 0.000000 1.000000 0.000000 1.000000 0.000000 -1.000000 0.000000 0.000000 32556.dat
0 STEP
1 4 60.000100 -53.999990 -30.000030 0.000000 0.000000 -1.000000 0.000000 -1.000000 0.000000 -1.000000 0.000000 0.000000 32034.dat
1 4 60.000100 -53.999990 9.999940 0.000000 0.000000 -1.000000 0.000000 -1.000000 0.000000 -1.000000 0.000000 0.000000 32034.dat
0 STEP
1 4 120.000100 -14.000000 -30.000120 0.000000 0.000000 -1.000000 0.000000 -1.000000 0.000000 -1.000000 0.000000 0.000000 32034.dat
1 4 120.000100 -14.000000 9.999880 0.000000 0.000000 -1.000000 0.000000 -1.000000 0.000000 -1.000000 0.000000 0.000000 32034.dat
0 STEP
0 STEP
