0 FILE 四脚虫.io
0 Untitled Model
0 Name:  四脚虫
0 Author:  
0 CustomBrick
0 NumOfBricks:  87
1 1 -73.240060 -103.171500 -115.000000 -0.000001 0.000000 -1.000000 0.000000 1.000000 0.000000 1.000000 0.000000 -0.000001 3703.dat
1 1 -53.240120 -103.171500 -15.000120 0.000000 0.000000 1.000000 0.000000 1.000000 0.000000 -1.000000 0.000000 0.000000 3700.dat
1 1 -63.240120 -79.171520 -15.000110 0.000000 0.000000 1.000000 0.000000 1.000000 0.000000 -1.000000 0.000000 0.000000 32001.dat
0 STEP
1 0 -63.240060 -93.171520 -94.999980 -1.000000 0.000000 0.000000 0.000000 1.000000 0.000000 0.000000 0.000000 -1.000000 2780.dat
1 71 -63.070020 -93.171550 -115.000600 0.000000 0.000000 1.000000 0.000000 1.000000 0.000000 -1.000000 0.000000 0.000000 58120.dat
1 0 -63.070020 -93.171540 -135.000500 -1.000000 0.000000 0.000000 0.000000 1.000000 0.000000 0.000000 0.000000 -1.000000 2780.dat
0 STEP
1 72 -93.070130 -93.171550 -115.000000 0.000000 0.000000 1.000000 -1.000000 0.000000 0.000000 0.000000 -1.000000 0.000000 3647.dat
1 71 -73.070010 -93.171550 -115.000000 1.000001 0.000000 0.000000 0.000000 0.000000 1.000000 0.000000 -1.000001 0.000000 4519.dat
0 STEP
1 1 -3.240170 -71.171520 -15.000100 1.000000 0.000000 0.000000 0.000000 1.000000 0.000000 0.000000 0.000000 1.000000 32001.dat
1 1 56.759900 -79.171520 -15.000110 0.000000 0.000000 1.000000 0.000000 1.000000 0.000000 -1.000000 0.000000 0.000000 32001.dat
0 STEP
1 1 66.759950 -103.171500 -115.000000 0.000000 0.000000 1.000000 0.000000 1.000000 0.000000 -1.000000 0.000000 0.000000 3703.dat
1 1 46.759900 -103.171500 -14.999990 0.000000 0.000000 1.000000 0.000000 1.000000 0.000000 -1.000000 0.000000 0.000000 3700.dat
0 STEP
1 1 -3.240110 -111.171500 -14.999990 1.000000 0.000000 0.000000 0.000000 1.000000 0.000000 0.000000 0.000000 1.000000 3738.dat
1 1 36.759890 -119.171500 -14.999990 -1.000000 0.000000 0.000000 0.000000 1.000000 0.000000 0.000000 0.000000 -1.000000 3709b.dat
1 1 16.759890 -122.721500 -14.999990 0.000000 0.000000 1.000000 1.000000 0.000000 0.000000 0.000000 1.000000 0.000000 6558.dat
0 STEP
1 1 -43.240120 -119.171500 -14.999990 -1.000000 0.000000 0.000000 0.000000 1.000000 0.000000 0.000000 0.000000 -1.000000 3709b.dat
1 1 -23.240110 -122.191500 -14.999990 0.000000 0.000000 1.000000 1.000000 0.000000 0.000000 0.000000 1.000000 0.000000 6558.dat
0 STEP
1 1 -3.240050 -71.171550 -214.999900 1.000000 0.000000 0.000000 0.000000 1.000000 0.000000 0.000000 0.000000 1.000000 32001.dat
1 1 -43.240050 -79.171550 -214.999800 -1.000000 0.000000 0.000000 0.000000 1.000000 0.000000 0.000000 0.000000 -1.000000 3709b.dat
1 1 36.759950 -79.171550 -214.999900 -1.000000 0.000000 0.000000 0.000000 1.000000 0.000000 0.000000 0.000000 -1.000000 3709b.dat
0 STEP
1 1 -3.240050 -111.171600 -214.999800 1.000000 0.000000 0.000000 0.000000 1.000000 0.000000 0.000000 0.000000 1.000000 3738.dat
1 1 36.759950 -119.171600 -214.999800 -1.000000 0.000000 0.000000 0.000000 1.000000 0.000000 0.000000 0.000000 -1.000000 3709b.dat
1 1 16.759950 -122.911500 -214.999800 0.000000 0.000000 1.000000 1.000000 0.000000 0.000000 0.000000 1.000000 0.000000 6558.dat
0 STEP
1 1 -23.240050 -121.171500 -214.999800 0.000000 0.000000 1.000000 1.000000 0.000000 0.000000 0.000000 1.000000 0.000000 6558.dat
1 1 -43.240050 -119.171600 -214.999800 -1.000000 0.000000 0.000000 0.000000 1.000000 0.000000 0.000000 0.000000 -1.000000 3709b.dat
0 STEP
1 16 -73.241220 -151.005300 -51.999860 0.000000 -1.000004 0.000000 0.000000 0.000000 1.000004 -1.000000 0.000000 0.000000 submodel group 9 copy copy copy
0 STEP
1 0 -3.429990 -93.171520 -54.999990 -1.000000 0.000000 0.000000 0.000000 0.973579 -0.228352 0.000000 -0.228352 -0.973579 3737.dat
1 72 86.570010 -93.171520 -54.999990 0.000000 0.000000 -1.000000 -0.228352 -0.973579 0.000000 -0.973578 0.228352 0.000000 3648b.dat
1 71 -92.990050 -93.171550 -54.999990 0.000000 0.000000 -1.000000 -0.228352 -0.973579 0.000000 -0.973579 0.228352 0.000000 3649.dat
0 STEP
1 72 87.000000 -93.171500 -175.000000 0.000000 0.000000 -1.000000 -0.076720 -0.997053 0.000000 -0.997053 0.076720 0.000000 3648b.dat
1 0 -3.000000 -93.171520 -175.000000 -1.000000 0.000000 0.000000 0.000000 0.997053 -0.076720 0.000000 -0.076720 -0.997053 3737.dat
1 71 -93.000000 -93.171520 -174.999800 0.000000 0.000000 -1.000000 -0.076720 -0.997053 0.000000 -0.997053 0.076720 0.000000 3649.dat
0 STEP
1 19 -43.240050 -182.911500 -224.999800 -0.000001 1.000000 -0.000001 -0.000001 -0.000001 -1.000000 -1.000000 -0.000001 0.000001 3749.dat
1 19 -43.240050 -182.911500 -227.999800 -1.000000 0.000000 -0.000001 0.000000 1.000000 0.000000 0.000001 0.000000 -1.000000 6589.dat
1 14 -43.240050 -182.911500 -239.999800 1.000000 0.000000 0.000000 0.000000 1.000000 0.000000 0.000000 0.000000 1.000000 32123a.dat
0 STEP
1 19 36.759950 -182.911500 -228.030000 -1.000000 0.000000 -0.000001 0.000000 1.000000 0.000000 0.000001 0.000000 -1.000000 6589.dat
1 19 36.759950 -182.911500 -224.999900 -0.000001 1.000000 -0.000001 -0.000001 -0.000001 -1.000000 -1.000000 -0.000001 0.000001 3749.dat
1 14 36.759950 -182.911500 -240.000000 1.000000 0.000000 0.000000 0.000000 1.000000 0.000000 0.000000 0.000000 1.000000 32123a.dat
0 STEP
1 19 -23.240050 -192.911500 -214.999800 -0.000001 1.000000 -0.000001 -1.000000 -0.000001 0.000001 0.000001 0.000001 1.000000 3749.dat
1 19 16.759950 -192.911500 -214.999800 -0.000001 1.000000 -0.000001 -1.000000 -0.000001 0.000001 0.000001 0.000001 1.000000 3749.dat
0 STEP
1 19 16.760070 -202.911500 -245.000000 -0.000001 1.000000 -0.000001 0.000001 0.000001 1.000000 1.000000 0.000001 -0.000001 3749.dat
1 4 16.759950 -202.911500 -234.999800 0.000000 1.000000 0.000001 1.000000 0.000000 0.000000 0.000000 0.000001 -1.000000 32039.dat
0 STEP
1 4 -23.240050 -202.911500 -234.999800 0.000000 1.000000 0.000001 1.000000 0.000000 0.000000 0.000000 0.000001 -1.000000 32039.dat
1 19 -23.239930 -202.911500 -244.999800 -0.000001 1.000000 -0.000001 0.000001 0.000001 1.000000 1.000000 0.000001 -0.000001 3749.dat
0 STEP
1 0 16.760070 -202.911500 -255.000000 0.000000 -1.000000 0.000000 0.000000 0.000000 -1.000000 1.000000 0.000000 0.000000 32016.dat
1 0 43.567500 -267.366100 -254.999800 -0.382691 -0.923877 0.000000 0.923877 -0.382691 0.000000 0.000000 0.000000 1.000000 3706.dat
0 STEP
1 0 -23.239930 -202.911500 -254.999800 0.000000 1.000000 0.000000 0.000000 0.000000 -1.000000 -1.000000 0.000000 0.000000 32016.dat
1 0 -50.047300 -267.366100 -254.999800 0.382691 -0.923877 0.000000 0.923877 0.382691 0.000000 0.000000 0.000000 1.000000 3706.dat
0 STEP
1 15 -3.239870 -162.911500 -255.000100 0.000001 0.000001 -1.000000 0.000001 1.000000 0.000001 1.000000 -0.000001 0.000001 32523.dat
1 19 -23.239930 -172.911500 -254.999800 -0.000001 1.000000 -0.000001 -1.000000 -0.000001 0.000001 0.000001 0.000001 1.000000 3749.dat
1 19 16.760070 -172.911500 -255.000000 -0.000001 1.000000 -0.000001 -1.000000 -0.000001 0.000001 0.000001 0.000001 1.000000 3749.dat
0 STEP
1 4 -3.239870 -162.911500 -255.000100 -0.000001 1.000000 -0.000001 -1.000000 -0.000001 0.000001 0.000001 0.000001 1.000000 32054.dat
1 4 -3.239810 -132.911500 -255.000100 0.000000 0.000000 -1.000000 1.000000 0.000000 0.000000 0.000000 -1.000000 0.000000 32062.dat
0 STEP
1 15 -93.240100 -112.936000 28.059940 0.000001 1.000000 0.000001 -0.152990 0.000001 -0.988227 -0.988227 0.000001 0.152990 40490.dat
1 19 -73.240120 -93.171500 25.000000 -1.000000 0.000000 0.000000 0.000000 -1.000000 0.000000 0.000000 0.000000 1.000000 32556.dat
0 STEP
1 71 -103.239900 -105.301600 -62.362780 -1.000000 0.000000 0.000000 0.000000 1.000000 0.000000 0.000000 0.000000 -1.000000 3673.dat
1 71 -103.240000 -172.229700 37.239120 -1.000000 0.000000 0.000000 0.000000 0.988227 -0.152991 0.000000 -0.152991 -0.988227 3673.dat
1 1 -113.239900 -147.065800 -18.139020 0.000000 0.000000 1.000000 0.557735 0.830018 0.000000 -0.830018 0.557735 0.000000 3702.dat
0 STEP
1 0 -103.240200 -33.877910 15.820690 -1.000000 0.000000 0.000000 0.000000 1.000000 0.000000 0.000000 0.000000 -1.000000 2780.dat
1 0 -103.240200 -53.591980 19.190430 -1.000000 0.000000 0.000000 0.000000 1.000000 0.000000 0.000000 0.000000 -1.000000 2780.dat
1 1 -113.240200 -73.306030 22.560180 -0.000001 -1.000000 0.000000 -0.168484 0.000000 0.985704 -0.985704 0.000001 -0.168484 32140.dat
0 STEP
1 19 -73.239930 -93.171580 -254.999800 -1.000000 0.000000 0.000000 0.000000 -1.000000 0.000000 0.000000 0.000000 1.000000 32556.dat
1 15 -93.239930 -111.544500 -262.901400 0.000001 1.000000 0.000001 0.395070 0.000001 -0.918648 -0.918648 0.000001 -0.395070 40490.dat
0 STEP
1 71 -103.000000 -103.909300 -184.203100 -1.000000 0.000000 0.000000 0.000000 1.000000 0.000000 0.000000 0.000000 -1.000000 3673.dat
1 71 -103.239900 -166.663400 -286.605600 -1.000000 0.000000 0.000000 0.000000 0.958964 0.283526 0.000000 0.283526 -0.958964 3673.dat
1 1 -113.000000 -143.809700 -230.115300 0.000000 0.000000 1.000000 -0.522946 0.852365 0.000000 -0.852365 -0.522947 0.000000 3702.dat
0 STEP
1 0 -103.240000 -38.052660 -231.295900 -1.000000 0.000000 0.000000 0.000000 1.000000 0.000000 0.000000 0.000000 -1.000000 2780.dat
1 0 -103.240000 -56.449070 -239.142400 -1.000000 0.000000 0.000000 0.000000 1.000000 0.000000 0.000000 0.000000 -1.000000 2780.dat
1 1 -113.240000 -74.845480 -246.989300 -0.000001 -1.000000 0.000000 0.392339 0.000000 0.919820 -0.919820 0.000001 0.392339 32140.dat
0 STEP
1 19 66.759950 -93.171500 25.000000 1.000000 0.000000 0.000000 0.000000 1.000000 0.000000 0.000000 0.000000 1.000000 32556.dat
1 15 86.760010 -111.498700 33.007190 0.000001 1.000000 0.000001 -0.400350 0.000001 -0.916362 -0.916362 0.000001 0.400350 40490.dat
0 STEP
1 1 106.570000 -142.388400 1.242790 0.000000 0.000000 1.000000 0.557740 0.830015 0.000000 -0.830016 0.557740 0.000000 3702.dat
1 71 96.570010 -100.623800 -42.980700 -1.000000 0.000000 0.000000 0.000000 1.000000 0.000000 0.000000 0.000000 -1.000000 3673.dat
1 71 96.570010 -167.552600 56.621060 -1.000000 0.000000 0.000000 0.000000 0.989016 -0.147811 0.000000 -0.147811 -0.989016 3673.dat
0 STEP
1 0 96.759950 -38.189790 0.979260 -1.000000 0.000000 0.000001 0.000000 0.995562 0.094108 -0.000001 0.094108 -0.995562 2780.dat
1 1 106.759900 -74.559320 17.629880 -0.000002 -1.000000 0.000001 -0.416274 0.000001 0.909239 -0.909239 0.000001 -0.416274 32140.dat
1 0 96.759890 -56.374570 9.304450 -1.000000 0.000000 0.000001 0.000000 0.995562 0.094108 -0.000001 0.094108 -0.995562 2780.dat
0 STEP
1 19 66.759950 -93.171580 -255.000000 1.000000 0.000000 0.000000 0.000000 1.000000 0.000000 0.000000 0.000000 1.000000 32556.dat
1 15 86.760010 -113.082800 -256.882000 0.000001 1.000000 0.000001 0.094108 0.000001 -0.995561 -0.995561 0.000001 -0.094108 40490.dat
0 STEP
1 71 96.760070 -172.816400 -262.528700 -1.000000 0.000000 0.000000 0.000000 0.995562 0.094107 0.000000 0.094107 -0.995562 3673.dat
1 71 97.000000 -102.374900 -164.262200 -1.000000 0.000000 0.000000 0.000000 1.000000 0.000000 0.000000 0.000000 -1.000000 3673.dat
1 1 106.760100 -146.115300 -207.874900 0.000000 0.000000 1.000000 -0.580705 0.814113 0.000000 -0.814113 -0.580706 0.000000 3702.dat
0 STEP
1 0 96.759950 -33.437950 -249.353300 -1.000000 0.000000 0.000001 0.000000 0.995562 0.094108 -0.000001 0.094108 -0.995562 2780.dat
1 1 106.759900 -73.285700 -252.839600 -0.000001 -1.000000 0.000001 0.087158 0.000001 0.996194 -0.996194 0.000001 0.087159 32140.dat
1 0 96.759890 -53.361840 -251.096300 -1.000000 0.000000 0.000001 0.000000 0.995562 0.094108 -0.000001 0.094108 -0.995562 2780.dat
0 STEP
0 STEP
0 NOFILE
0 FILE SubModel Group 9 Copy Copy Copy
0 SubModel Group 9 Copy Copy Copy
0 Name:  SubModel Group 9 Copy Copy Copy
0 Author:  
0 CustomBrick
0 NumOfBricks:  3
1 72 10.000000 -1.128810 -10.000000 1.000000 0.000000 0.000000 0.000000 0.000000 -1.000000 0.000000 1.000000 0.000000 dch003.dat
1 71 -27.466620 -79.717990 29.427020 1.000000 0.000000 0.000000 0.000000 0.000000 -1.000000 0.000000 1.000000 0.000000 dch004.dat
1 25 7.837010 13.484720 -9.965000 1.000000 0.000000 0.000000 0.000000 0.000000 -1.000000 0.000000 1.000000 0.000000 dch005.dat
0 NOFILE
