0 FILE 手枪.io
0 Untitled Model
0 Name:  手枪
0 Author:  
0 CustomBrick
0 NumOfBricks:  115
1 16 119.000000 -45.379620 349.000000 0.000000 0.000000 -1.000000 -1.000000 0.000000 0.000000 0.000000 1.000000 0.000000 submodel group 9 copy copy copy
1 1 108.119100 -208.216000 260.301500 1.000000 0.000000 0.000000 0.000000 1.000000 0.000000 0.000000 0.000000 1.000000 6558.dat
1 15 128.119000 -208.216000 220.301500 0.000001 1.000000 0.000001 -1.000000 0.000001 -0.000001 -0.000001 -0.000001 1.000000 64871.dat
0 STEP
1 1 108.119000 -208.216000 300.301500 1.000000 0.000000 0.000000 0.000000 1.000000 0.000000 0.000000 0.000000 1.000000 6558.dat
1 15 88.119140 -208.216000 280.301500 0.000001 1.000000 0.000001 -1.000000 0.000001 -0.000001 -0.000001 -0.000001 1.000000 32524.dat
0 STEP
1 16 128.119100 -198.216000 300.301500 1.000000 0.000000 0.000000 0.000000 1.000000 0.000000 0.000000 0.000000 1.000000 submodel group 4
0 STEP
1 16 149.159100 -219.216100 368.301600 1.000000 0.000000 0.000000 0.000000 1.000000 0.000000 0.000000 0.000000 1.000000 submodel group 5
0 STEP
1 71 108.639300 -228.216300 480.301600 0.000000 0.000000 1.000000 -0.972370 0.233444 0.000000 -0.233444 -0.972370 0.000000 3649.dat
1 0 89.649170 -228.216200 480.301700 1.000000 0.000000 0.000000 0.000000 0.972370 -0.233444 0.000000 0.233444 0.972370 15462.dat
1 0 118.639300 -255.052900 463.574600 -1.000000 0.000000 0.000000 0.000000 1.000000 0.000000 0.000000 0.000000 -1.000000 2780.dat
0 STEP
1 0 98.119140 -228.216000 220.301500 -1.000000 0.000000 0.000000 0.000000 1.000000 0.000000 0.000000 0.000000 -1.000000 2780.dat
1 0 98.119140 -228.216000 340.301500 -1.000000 0.000000 0.000000 0.000000 1.000000 0.000000 0.000000 0.000000 -1.000000 2780.dat
0 STEP
1 15 88.119140 -228.216000 340.301500 0.000001 1.000000 0.000001 -1.000000 0.000001 -0.000001 -0.000001 -0.000001 1.000000 64871.dat
1 72 108.119100 -228.216100 420.301500 0.000000 0.000000 1.000000 1.000000 0.000000 0.000000 0.000000 1.000000 0.000000 3647.dat
1 71 88.119140 -228.216100 420.301500 -1.000000 0.000000 0.000000 0.000000 0.000000 1.000000 0.000000 1.000000 0.000000 4519.dat
0 STEP
1 0 78.119140 -228.216000 400.301500 -1.000000 0.000000 0.000000 0.000000 1.000000 0.000000 0.000000 0.000000 -1.000000 2780.dat
1 0 78.119260 -228.216100 440.301500 -1.000000 0.000000 0.000000 0.000000 1.000000 0.000000 0.000000 0.000000 -1.000000 2780.dat
1 71 68.439210 -228.216200 480.301700 0.000001 0.000000 -1.000000 -0.233444 0.972370 0.000000 0.972371 0.233444 0.000001 3713.dat
0 STEP
1 15 77.000000 -228.000000 420.000000 0.000000 0.000000 -1.000000 0.000000 1.000000 0.000000 1.000000 0.000000 0.000000 dx0075.dat.dat
0 STEP
1 19 78.119260 -208.216000 320.301600 -1.000000 -0.000001 0.000001 0.000001 0.000001 1.000000 -0.000001 1.000000 -0.000001 3749.dat
1 19 78.119140 -208.215900 240.301500 -1.000000 -0.000001 0.000001 0.000001 0.000001 1.000000 -0.000001 1.000000 -0.000001 3749.dat
1 0 78.119020 -228.216000 320.301500 1.000000 0.000000 0.000000 0.000000 1.000000 0.000000 0.000000 0.000000 1.000000 2780.dat
1 0 78.119020 -228.215900 240.301500 1.000000 0.000000 0.000000 0.000000 1.000000 0.000000 0.000000 0.000000 1.000000 2780.dat
0 STEP
1 71 68.119020 -208.215900 320.301500 -0.000001 1.000000 0.000001 -0.000001 0.000001 -1.000000 -1.000000 -0.000001 0.000001 60483.dat
1 71 68.119020 -208.215900 240.301500 -0.000001 1.000000 0.000001 -0.000001 0.000001 -1.000000 -1.000000 -0.000001 0.000001 60483.dat
0 STEP
1 0 158.119000 -208.216000 300.301500 -1.000000 0.000000 0.000000 0.000000 1.000000 0.000000 0.000000 0.000000 -1.000000 2780.dat
1 0 158.119100 -208.216000 260.301500 -1.000000 0.000000 0.000000 0.000000 1.000000 0.000000 0.000000 0.000000 -1.000000 2780.dat
1 15 168.119100 -208.216000 280.301500 0.000001 1.000000 0.000001 -1.000000 0.000001 -0.000001 -0.000001 -0.000001 1.000000 32524.dat
0 STEP
1 0 158.119000 -228.216000 220.301500 -1.000000 0.000000 0.000000 0.000000 1.000000 0.000000 0.000000 0.000000 -1.000000 2780.dat
1 0 158.119000 -228.216000 340.301500 -1.000000 0.000000 0.000000 0.000000 1.000000 0.000000 0.000000 0.000000 -1.000000 2780.dat
1 15 168.119100 -228.216100 280.301500 0.000001 1.000000 0.000001 -1.000000 0.000001 -0.000001 -0.000001 -0.000001 1.000000 32524.dat
0 STEP
1 19 178.119000 -208.216000 240.301400 1.000000 0.000001 -0.000001 0.000001 0.000001 1.000000 0.000001 -1.000000 0.000001 3749.dat
1 0 178.119100 -228.216100 320.301500 -1.000000 0.000000 0.000000 0.000000 1.000000 0.000000 0.000000 0.000000 -1.000000 2780.dat
1 0 178.119100 -228.216200 240.301500 -1.000000 0.000000 0.000000 0.000000 1.000000 0.000000 0.000000 0.000000 -1.000000 2780.dat
1 19 178.119100 -208.216000 320.301300 1.000000 0.000001 -0.000001 0.000001 0.000001 1.000000 0.000001 -1.000000 0.000001 3749.dat
0 STEP
1 71 188.119200 -208.216100 320.301600 0.000001 -1.000000 -0.000001 -0.000001 0.000001 -1.000000 1.000000 0.000001 -0.000001 60483.dat
1 71 188.119100 -208.216200 240.301500 0.000001 -1.000000 -0.000001 -0.000001 0.000001 -1.000000 1.000000 0.000001 -0.000001 60483.dat
0 STEP
1 0 108.119100 -248.216000 210.301500 0.000000 0.000000 -1.000000 0.000000 1.000000 0.000000 1.000000 0.000000 0.000000 2780.dat
1 14 99.329590 -277.564200 194.302900 0.000000 -1.000000 0.000000 0.000000 0.000000 1.000000 -1.000000 0.000000 0.000000 12344.dat
1 0 108.119000 -288.215900 210.301600 0.000000 0.000000 -1.000000 0.000000 1.000000 0.000000 1.000000 0.000000 0.000000 2780.dat
0 STEP
1 0 148.119000 -248.216000 210.301500 0.000000 0.000000 -1.000000 0.000000 1.000000 0.000000 1.000000 0.000000 0.000000 2780.dat
1 0 148.119000 -288.215900 210.301500 0.000000 0.000000 -1.000000 0.000000 1.000000 0.000000 1.000000 0.000000 0.000000 2780.dat
0 STEP
1 14 139.329600 -277.564200 194.302900 0.000000 -1.000000 0.000000 0.000000 0.000000 1.000000 -1.000000 0.000000 0.000000 12344.dat
1 0 159.159200 -228.216200 200.301600 -1.000000 0.000000 0.000000 0.000000 1.000000 0.000000 0.000000 0.000000 -1.000000 2780.dat
0 STEP
1 1 128.119500 -208.215800 80.301600 1.000000 0.000000 0.000000 0.000000 -1.000000 0.000000 0.000000 0.000000 -1.000000 6558.dat
1 1 128.119000 -208.215900 140.301500 1.000000 0.000000 0.000000 0.000000 -1.000000 0.000000 0.000000 0.000000 -1.000000 6558.dat
0 STEP
1 15 108.119500 -208.216100 40.301600 0.000001 1.000000 0.000001 -1.000000 0.000001 -0.000001 -0.000001 -0.000001 1.000000 64871.dat
0 STEP
1 0 98.119630 -208.216200 120.301500 -1.000000 0.000000 0.000000 0.000000 1.000000 0.000000 0.000000 0.000000 -1.000000 2780.dat
1 0 98.119510 -208.216100 160.301500 -1.000000 0.000000 0.000000 0.000000 1.000000 0.000000 0.000000 0.000000 -1.000000 2780.dat
1 0 98.119380 -228.215900 160.301400 -1.000000 0.000000 0.000000 0.000000 1.000000 0.000000 0.000000 0.000000 -1.000000 2780.dat
1 1 88.119330 -208.216000 100.301400 0.000001 1.000000 -0.000001 -1.000000 0.000001 0.000001 0.000001 0.000001 1.000000 32140.dat
0 STEP
1 1 128.119500 -208.216100 60.301600 1.000000 0.000000 0.000000 0.000000 1.000000 0.000000 0.000000 0.000000 1.000000 6558.dat
1 1 128.119400 -208.216000 -59.698490 1.000000 0.000000 0.000000 0.000000 1.000000 0.000000 0.000000 0.000000 1.000000 6558.dat
1 15 128.119300 -208.215800 -19.698490 0.000001 1.000000 0.000001 -1.000000 0.000001 -0.000001 -0.000001 -0.000001 1.000000 40490.dat
0 STEP
1 15 148.119500 -208.215900 40.301600 -0.000001 -1.000000 -0.000001 -1.000000 0.000001 -0.000001 0.000001 0.000001 -1.000000 64871.dat
0 STEP
1 0 158.119500 -208.215800 120.301400 -1.000000 0.000000 0.000000 0.000000 1.000000 0.000000 0.000000 0.000000 -1.000000 2780.dat
1 0 158.119500 -208.215700 160.301400 -1.000000 0.000000 0.000000 0.000000 1.000000 0.000000 0.000000 0.000000 -1.000000 2780.dat
1 0 158.119500 -228.215700 160.301400 -1.000000 0.000000 0.000000 0.000000 1.000000 0.000000 0.000000 0.000000 -1.000000 2780.dat
1 1 168.119600 -208.215800 100.301400 0.000001 1.000000 -0.000001 -1.000000 0.000001 0.000001 0.000001 0.000001 1.000000 32140.dat
0 STEP
1 16 109.117300 -218.015800 60.001010 1.000000 0.000000 0.000000 0.000000 1.000000 0.000000 0.000000 0.000000 1.000000 submodel group 3
1 16 149.118700 -218.016000 60.001710 1.000000 0.000000 0.000000 0.000000 1.000000 0.000000 0.000000 0.000000 1.000000 submodel group 2
0 STEP
1 19 109.117300 -258.015700 120.000500 -0.000001 -0.000001 -1.000000 -1.000000 -0.000001 0.000001 -0.000001 1.000000 -0.000001 3749.dat
1 19 109.117400 -258.015700 160.000500 -0.000001 -0.000001 -1.000000 -1.000000 -0.000001 0.000001 -0.000001 1.000000 -0.000001 3749.dat
0 STEP
1 71 109.117400 -278.015700 119.997500 -1.000000 0.000000 -0.000001 -0.000001 0.000000 1.000000 0.000000 1.000000 0.000000 59443.dat
1 71 109.117400 -278.015600 159.997600 -1.000000 0.000000 -0.000001 -0.000001 0.000000 1.000000 0.000000 1.000000 0.000000 59443.dat
0 STEP
1 16 129.119000 -238.016000 -39.999000 1.000000 0.000000 0.000000 0.000000 1.000000 0.000000 0.000000 0.000000 1.000000 submodel group 1
0 STEP
1 16 121.000000 -240.045700 140.000000 1.000000 0.000000 0.000000 0.000000 1.000000 0.000000 0.000000 0.000000 1.000000 submodel group
0 STEP
1 15 172.119100 -228.471100 200.301500 0.000000 0.000000 -1.000000 0.000000 -1.000000 0.000000 -1.000000 0.000000 0.000000 xpj0108.dat
0 STEP
0 STEP
0 NOFILE
0 FILE SubModel Group 9 Copy Copy Copy
0 SubModel Group 9 Copy Copy Copy
0 Name:  SubModel Group 9 Copy Copy Copy
0 Author:  
0 CustomBrick
0 NumOfBricks:  3
1 72 10.000000 -1.128810 -10.000000 1.000000 0.000000 0.000000 0.000000 0.000000 -1.000000 0.000000 1.000000 0.000000 dch003.dat
1 71 -27.466620 -79.717990 29.427020 1.000000 0.000000 0.000000 0.000000 0.000000 -1.000000 0.000000 1.000000 0.000000 dch004.dat
1 25 7.837010 13.484720 -9.965000 1.000000 0.000000 0.000000 0.000000 0.000000 -1.000000 0.000000 1.000000 0.000000 dch005.dat
0 NOFILE
0 FILE SubModel Group 4
0 SubModel Group 4
0 Name:  SubModel Group 4
0 Author:  
0 CustomBrick
0 NumOfBricks:  8
1 71 -19.999950 -69.999910 -19.999970 0.000000 -1.000000 0.000000 -1.000000 0.000000 0.000000 0.000000 0.000000 -1.000000 64179.dat
1 71 19.999950 -69.999910 -20.000020 0.000000 -1.000000 0.000000 -1.000000 0.000000 0.000000 0.000000 0.000000 -1.000000 64179.dat
0 STEP
1 1 -19.999960 -29.999980 -60.000000 0.000000 -1.000000 0.000000 1.000000 0.000000 0.000000 0.000000 0.000000 1.000000 6558.dat
1 1 20.000050 -29.999980 -60.000020 0.000000 -1.000000 0.000000 1.000000 0.000000 0.000000 0.000000 0.000000 1.000000 6558.dat
1 71 0.000050 -49.999980 -20.000020 1.000000 0.000000 0.000000 0.000000 -1.000000 0.000000 0.000000 0.000000 -1.000000 60484.dat
0 STEP
1 1 19.999950 -30.000000 20.000000 0.000000 -1.000000 0.000000 1.000000 0.000000 0.000000 0.000000 0.000000 1.000000 6558.dat
1 1 -20.000040 -30.000000 20.000020 0.000000 -1.000000 0.000000 1.000000 0.000000 0.000000 0.000000 0.000000 1.000000 6558.dat
1 71 -0.000050 -50.000020 60.000020 1.000000 0.000000 0.000000 0.000000 -1.000000 0.000000 0.000000 0.000000 -1.000000 60484.dat
0 STEP
0 NOFILE
0 FILE SubModel Group 5
0 SubModel Group 5
0 Name:  SubModel Group 5
0 Author:  
0 CustomBrick
0 NumOfBricks:  5
1 15 -0.000190 -9.000120 32.000010 0.000001 1.000000 0.000001 -0.999999 0.000001 -0.000001 -0.000001 -0.000001 1.000000 32316.dat
0 STEP
1 15 -19.999900 -9.000120 -108.000000 -0.000001 -1.000000 -0.000001 1.000000 -0.000001 0.000001 -0.000001 -0.000001 1.000000 64290.dat
1 1 -0.000230 -9.000050 -8.000020 1.000000 0.000000 0.000000 0.000000 -1.000000 0.000000 0.000000 0.000000 -1.000000 6558.dat
0 STEP
1 15 -19.999790 -9.000120 92.000030 0.000001 1.000000 0.000001 -1.000000 0.000001 -0.000001 -0.000001 -0.000001 1.000000 32523.dat
1 71 -9.999900 -9.000030 72.000010 -1.000000 0.000000 0.000000 0.000000 1.000000 0.000000 0.000000 0.000000 -1.000000 3673.dat
0 STEP
0 NOFILE
0 FILE SubModel Group 3
0 SubModel Group 3
0 Name:  SubModel Group 3
0 Author:  
0 CustomBrick
0 NumOfBricks:  6
1 15 0.000000 -30.000080 -20.000370 1.000000 -0.000001 0.000001 0.000001 0.999999 0.000001 -0.000001 -0.000001 1.000001 64871.dat
1 0 0.000800 -20.000020 120.000200 0.000000 -1.000001 0.000000 -1.000000 0.000000 0.000000 0.000000 0.000000 -1.000001 2780.dat
1 0 0.000800 -19.999980 80.000220 0.000000 -1.000001 0.000000 -1.000000 0.000000 0.000000 0.000000 0.000000 -1.000001 2780.dat
0 STEP
1 0 -0.000800 -20.000170 -160.000400 0.000000 -1.000004 0.000000 -1.000002 0.000000 0.000000 0.000000 0.000000 -1.000001 2780.dat
1 15 -0.000890 -10.000180 -60.000440 -1.000000 0.000001 -0.000001 -0.000001 -0.999999 -0.000001 -0.000001 -0.000001 1.000001 64290.dat
1 0 0.000100 -19.999980 40.000880 0.000000 -1.000000 0.000000 -0.999999 0.000000 0.000000 0.000000 0.000000 -1.000001 2780.dat
0 STEP
0 NOFILE
0 FILE SubModel Group 2
0 SubModel Group 2
0 Name:  SubModel Group 2
0 Author:  
0 CustomBrick
0 NumOfBricks:  6
1 15 0.000310 -30.000140 -20.000120 1.000000 -0.000001 0.000001 0.000001 1.000000 0.000001 -0.000001 -0.000001 1.000000 64871.dat
1 0 -0.000270 -20.000000 40.000760 0.000000 -1.000000 0.000000 -1.000000 0.000000 0.000000 0.000000 0.000000 -1.000000 2780.dat
0 STEP
1 0 -0.000390 -20.000210 -160.000100 0.000000 -1.000004 0.000000 -1.000003 0.000000 0.000000 0.000000 0.000000 -1.000000 2780.dat
1 15 -0.000490 -10.000210 -60.000180 -1.000000 0.000001 -0.000001 -0.000001 -1.000000 -0.000001 -0.000001 -0.000001 1.000000 64290.dat
0 STEP
1 0 0.000420 -20.000020 119.999800 0.000000 -1.000000 0.000000 -1.000000 0.000000 0.000000 0.000000 0.000000 -1.000000 2780.dat
1 0 0.000420 -20.000000 79.999850 0.000000 -1.000000 0.000000 -1.000000 0.000000 0.000000 0.000000 0.000000 -1.000000 2780.dat
0 STEP
0 NOFILE
0 FILE SubModel Group 1
0 SubModel Group 1
0 Name:  SubModel Group 1
0 Author:  
0 CustomBrick
0 NumOfBricks:  9
1 0 -0.000050 -20.000120 -39.999420 0.000000 0.000000 -1.000000 1.000000 0.000000 0.000000 0.000000 -1.000000 0.000000 2780.dat
1 15 0.000060 -10.000080 20.000580 1.000000 -0.000001 0.000001 0.000001 1.000000 0.000001 -0.000001 -0.000001 1.000000 40490.dat
1 0 0.000060 -20.000030 40.000580 0.000000 0.000000 -1.000000 1.000000 0.000000 0.000000 0.000000 -1.000000 0.000000 2780.dat
0 STEP
1 0 -19.999940 -20.000060 40.000640 0.000000 0.000000 -1.000000 1.000000 0.000000 0.000000 0.000000 -1.000000 0.000000 2780.dat
1 0 19.999960 -20.000030 40.000580 0.000000 0.000000 -1.000000 1.000000 0.000000 0.000000 0.000000 -1.000000 0.000000 2780.dat
1 1 0.000060 -30.000030 29.998630 1.000000 0.000000 0.000000 0.000000 0.000000 -0.999996 0.000000 0.999996 0.000000 3701.dat
0 STEP
1 0 -19.999950 -20.000030 -39.999420 0.000000 0.000000 -1.000000 1.000000 0.000000 0.000000 0.000000 -1.000000 0.000000 2780.dat
1 0 19.999860 -20.000120 -39.999420 0.000000 0.000000 -1.000000 1.000000 0.000000 0.000000 0.000000 -1.000000 0.000000 2780.dat
1 1 -0.000050 -30.000640 -50.002350 1.000000 0.000000 0.000000 0.000000 0.000000 -0.999999 0.000000 0.999999 0.000000 3701.dat
0 STEP
0 NOFILE
0 FILE SubModel Group
0 SubModel Group
0 Name:  SubModel Group
0 Author:  
0 CustomBrick
0 NumOfBricks:  17
1 0 -11.882340 -157.970000 20.000430 0.000000 -1.000000 0.000000 -1.000000 0.000000 0.000000 0.000000 0.000000 -1.000000 3708.dat
1 0 -11.882290 -157.700000 -19.999570 0.000000 -1.000000 0.000000 -1.000000 0.000000 0.000000 0.000000 0.000000 -1.000000 3708.dat
1 1 -11.882340 -69.269990 0.000430 0.000000 0.000000 -1.000000 1.000000 0.000000 0.000000 0.000000 -1.000000 0.000000 32184.dat
0 STEP
1 72 8.117650 -235.330000 20.000430 0.000000 -1.000000 0.000000 0.000000 0.000000 1.000000 -1.000000 0.000000 0.000000 6575.dat
1 72 8.117680 -235.000000 -19.999570 0.000000 -1.000000 0.000000 0.000000 0.000000 1.000000 -1.000000 0.000000 0.000000 6575.dat
1 1 -11.882370 -250.260000 0.000430 0.000000 0.000000 -1.000000 1.000000 0.000000 0.000000 0.000000 -1.000000 0.000000 32184.dat
0 STEP
1 0 8.117579 -120.330000 20.000430 0.000000 1.000000 0.000000 1.000000 0.000000 0.000000 0.000000 0.000000 -1.000000 3708.dat
1 1 18.117620 -219.600000 0.000430 0.000000 -1.000000 0.000000 0.000000 0.000000 -1.000000 1.000000 0.000000 0.000000 3701.dat
1 0 8.117650 -120.000000 -19.999570 0.000000 1.000000 0.000000 1.000000 0.000000 0.000000 0.000000 0.000000 -1.000000 3708.dat
0 STEP
1 71 8.117620 -199.900000 -19.999510 1.000000 0.000000 0.000001 -0.000001 0.000000 1.000000 0.000000 -1.000000 0.000000 3713.dat
1 71 8.117550 -200.600000 20.000430 1.000000 0.000000 0.000001 -0.000001 0.000000 1.000000 0.000000 -1.000000 0.000000 3713.dat
0 STEP
1 15 8.117680 -88.249980 0.000430 1.000000 -0.000001 0.000001 0.000001 1.000000 0.000001 -0.000001 -0.000001 1.000000 32316.dat
1 15 8.117620 -128.030000 0.000430 -1.000000 0.000001 -0.000001 -0.000001 -1.000000 -0.000001 -0.000001 -0.000001 1.000000 64290.dat
1 15 8.117650 -108.580000 0.000430 1.000000 -0.000001 0.000001 0.000001 1.000000 0.000001 -0.000001 -0.000001 1.000000 32316.dat
0 STEP
1 15 8.117650 -68.250000 -0.001650 1.000000 -0.000001 0.000001 0.000001 1.000000 0.000001 -0.000001 -0.000001 1.000000 32316.dat
1 15 8.117650 -48.250000 -0.001890 1.000000 -0.000001 0.000001 0.000001 1.000000 0.000001 -0.000001 -0.000001 1.000000 32316.dat
1 15 8.117770 -28.249950 -0.001650 1.000000 -0.000001 0.000001 0.000001 1.000000 0.000001 -0.000001 -0.000001 1.000000 32316.dat
0 STEP
0 NOFILE
