0 Untitled Model
0 Name:  平板小拖车
0 Author:  
0 CustomBrick
0 NumOfBricks:  72
1 0 -17.000000 -57.229900 102.000000 0.000000 0.000000 1.000000 1.000000 0.000000 0.000000 0.000000 1.000000 0.000000 3705.dat
1 1 -16.999970 -19.709920 102.000000 1.000000 0.000000 0.000000 0.000000 1.000000 0.000000 0.000000 0.000000 1.000000 32001.dat
1 1 33.000040 -43.709930 102.000000 0.000000 0.000000 1.000000 0.000000 1.000000 0.000000 -1.000000 0.000000 0.000000 3700.dat
1 1 -67.000000 -43.709930 102.000000 0.000000 0.000000 1.000000 0.000000 1.000000 0.000000 -1.000000 0.000000 0.000000 3700.dat
1 71 -17.000000 -31.389920 101.999900 1.000000 0.000000 0.000001 -0.000001 0.000000 1.000000 0.000000 -1.000000 0.000000 3713.dat
0 STEP
1 1 -17.000000 -75.709910 102.000000 -1.000000 0.000000 0.000000 0.000000 1.000000 0.000000 0.000000 0.000000 -1.000000 3709b.dat
1 1 -17.000000 -59.709930 102.000000 -1.000000 0.000000 0.000000 0.000000 1.000000 0.000000 0.000000 0.000000 -1.000000 3709b.dat
1 1 -17.000000 -67.709910 102.000000 -1.000000 0.000000 0.000000 0.000000 1.000000 0.000000 0.000000 0.000000 -1.000000 3709b.dat
1 1 -17.000000 -51.709930 102.000000 1.000000 0.000000 0.000000 0.000000 1.000000 0.000000 0.000000 0.000000 1.000000 32001.dat
0 STEP
1 1 -17.000000 -87.269910 82.000000 1.000000 0.000000 0.000000 0.000000 1.000000 0.000000 0.000000 0.000000 1.000000 6558.dat
1 1 -17.000000 -87.269920 62.000000 1.000000 0.000000 0.000000 0.000000 1.000000 0.000000 0.000000 0.000000 1.000000 6558.dat
1 4 -17.000000 -87.269910 82.000000 0.000000 0.000000 1.000000 -1.000000 0.000000 0.000000 0.000000 -1.000000 0.000000 42003.dat
0 STEP
1 0 13.000000 -87.269910 102.000000 -1.000000 0.000000 0.000000 0.000000 1.000000 0.000000 0.000000 0.000000 -1.000000 2780.dat
1 0 13.000150 -87.270110 -58.000000 -1.000000 0.000000 0.000000 0.000000 1.000000 0.000000 0.000000 0.000000 -1.000000 2780.dat
1 15 3.000070 -87.270000 22.000000 -0.000001 -1.000000 -0.000001 1.000000 -0.000001 0.000001 -0.000001 -0.000001 1.000000 64290.dat
0 STEP
1 1 -16.999910 -64.000020 -58.000120 -1.000002 0.000000 0.000000 0.000000 1.000000 0.000000 0.000000 0.000000 -1.000002 3709b.dat
1 1 -16.999910 -56.000050 -58.000120 -1.000002 0.000000 0.000000 0.000000 1.000000 0.000000 0.000000 0.000000 -1.000002 3709b.dat
1 1 -16.999080 -72.000020 -57.999760 -1.000000 0.000000 0.000000 0.000000 1.000000 0.000000 0.000000 0.000000 -1.000000 3709b.dat
1 1 -16.999910 -48.000050 -58.000000 1.000002 0.000000 0.000000 0.000000 1.000000 0.000000 0.000000 0.000000 1.000002 32001.dat
1 14 -16.999910 -32.440050 -58.000000 1.000002 0.000000 0.000000 0.000000 0.000000 -1.000000 0.000000 1.000002 0.000000 32123a.dat
1 0 -16.999910 -57.270060 -58.000000 0.000000 0.000000 1.000002 1.000000 0.000000 0.000000 0.000000 1.000002 0.000000 3705.dat
1 4 -16.999910 -87.270030 -38.000000 0.000000 0.000000 -1.000002 -1.000000 0.000000 0.000000 0.000000 1.000002 0.000000 42003.dat
1 1 -16.999910 -87.270030 -38.000000 1.000002 0.000000 0.000000 0.000000 1.000000 0.000000 0.000000 0.000000 1.000002 6558.dat
1 1 -16.999910 -87.270030 -18.000000 1.000002 0.000000 0.000000 0.000000 1.000000 0.000000 0.000000 0.000000 1.000002 6558.dat
0 STEP
1 1 33.000240 -40.000050 -58.000000 0.000000 0.000000 1.000002 0.000000 1.000000 0.000000 -1.000002 0.000000 0.000000 3701.dat
1 1 13.000220 -40.000050 -78.000060 0.000000 0.000000 1.000002 0.000000 1.000000 0.000000 -1.000002 0.000000 0.000000 3894.dat
1 1 -66.999970 -40.000050 -57.999940 0.000000 0.000000 1.000002 0.000000 1.000000 0.000000 -1.000002 0.000000 0.000000 3701.dat
1 1 -16.999910 -16.000040 -58.000000 1.000002 0.000000 0.000000 0.000000 1.000000 0.000000 0.000000 0.000000 1.000002 32001.dat
1 1 -46.999940 -40.000050 -78.000000 0.000000 0.000000 1.000002 0.000000 1.000000 0.000000 -1.000002 0.000000 0.000000 3894.dat
0 STEP
1 1 -16.999790 -64.000020 -88.000060 1.000000 0.000000 0.000000 0.000000 1.000000 0.000000 0.000000 0.000000 1.000000 3894.dat
0 STEP
1 15 23.000210 -87.270200 22.000000 0.000001 1.000000 0.000001 -1.000000 0.000001 -0.000001 -0.000001 -0.000001 1.000000 64290.dat
0 STEP
1 0 -46.999940 -87.270060 -58.000000 -1.000000 0.000000 0.000000 0.000000 1.000000 0.000000 0.000000 0.000000 -1.000000 2780.dat
1 0 -47.000120 -87.269860 102.000000 -1.000000 0.000000 0.000000 0.000000 1.000000 0.000000 0.000000 0.000000 -1.000000 2780.dat
1 15 -37.000030 -87.269980 22.000000 -0.000001 -1.000000 -0.000001 1.000000 -0.000001 0.000001 -0.000001 -0.000001 1.000000 64290.dat
0 STEP
1 15 -56.999880 -87.270150 22.000000 0.000001 1.000000 0.000001 -1.000000 0.000001 -0.000001 -0.000001 -0.000001 1.000000 64290.dat
0 STEP
1 1 43.000190 -97.270210 21.999940 0.000000 0.000000 1.000000 0.000000 1.000000 0.000000 -1.000000 0.000000 0.000000 3700.dat
1 1 -76.999910 -97.270130 22.000000 0.000000 0.000000 1.000000 0.000000 1.000000 0.000000 -1.000000 0.000000 0.000000 3700.dat
1 0 33.000210 -87.270200 22.000000 -1.000000 0.000000 0.000000 0.000000 1.000000 0.000000 0.000000 0.000000 -1.000000 2780.dat
1 0 -66.999880 -87.270140 22.000000 -1.000000 0.000000 0.000000 0.000000 1.000000 0.000000 0.000000 0.000000 -1.000000 2780.dat
0 STEP
1 1 43.000190 -121.270200 21.999880 0.000000 0.000000 1.000000 0.000000 1.000000 0.000000 -1.000000 0.000000 0.000000 3701.dat
1 1 -76.999910 -121.270100 22.000000 0.000000 0.000000 1.000000 0.000000 1.000000 0.000000 -1.000000 0.000000 0.000000 3701.dat
1 15 43.000190 -145.270200 31.999880 1.000000 0.000000 0.000000 0.000000 1.000000 0.000000 0.000000 0.000000 1.000000 3040b.dat
1 15 -76.999910 -145.270100 32.000000 1.000000 0.000000 0.000000 0.000000 1.000000 0.000000 0.000000 0.000000 1.000000 3040b.dat
0 STEP
1 1 -76.999940 -97.270130 -38.000060 0.000000 0.000000 1.000000 0.000000 1.000000 0.000000 -1.000000 0.000000 0.000000 3701.dat
1 1 -76.999940 -97.270130 82.000000 0.000000 0.000000 1.000000 0.000000 1.000000 0.000000 -1.000000 0.000000 0.000000 3701.dat
1 1 43.000160 -97.270210 81.999880 0.000000 0.000000 1.000000 0.000000 1.000000 0.000000 -1.000000 0.000000 0.000000 3701.dat
1 1 43.000200 -97.270210 -38.000180 0.000000 0.000000 1.000000 0.000000 1.000000 0.000000 -1.000000 0.000000 0.000000 3701.dat
1 15 -76.999940 -121.270100 -48.000120 1.000000 0.000000 0.000000 0.000000 1.000000 0.000000 0.000000 0.000000 1.000000 3040b.dat
1 15 43.000200 -121.270200 -48.000180 1.000000 0.000000 -0.000001 0.000000 1.000000 0.000000 0.000001 0.000000 1.000000 3040b.dat
0 STEP
1 19 -77.000000 -33.709910 102.000000 -1.000000 -0.000001 0.000001 0.000001 0.000001 1.000000 -0.000001 1.000000 -0.000001 3749.dat
1 14 48.000040 -33.709910 101.999900 0.000000 0.000000 1.000000 0.000000 1.000000 0.000000 -1.000000 0.000000 0.000000 32123a.dat
1 19 43.000050 -33.709910 101.999900 1.000000 0.000001 -0.000001 0.000001 0.000001 1.000000 0.000001 -1.000000 0.000001 3749.dat
1 14 48.000310 -30.000020 -58.000060 0.000000 0.000000 -1.000002 0.000000 -1.000000 0.000000 -1.000002 0.000000 0.000000 32123a.dat
1 14 -82.820040 -33.709900 102.000000 0.000000 0.000000 1.000000 0.000000 1.000000 0.000000 -1.000000 0.000000 0.000000 32123a.dat
1 19 -77.000000 -30.000020 -57.999940 -1.000002 -0.000001 0.000001 0.000001 0.000001 1.000000 -0.000001 1.000002 -0.000001 3749.dat
1 71 -92.000030 -33.709900 102.000000 0.000000 0.000000 -1.000000 0.000000 -1.000000 0.000000 -1.000000 0.000000 0.000000 4185.dat
1 71 58.000050 -33.709900 101.999900 0.000000 0.000000 1.000000 1.000000 0.000000 0.000000 0.000000 1.000000 0.000000 4185.dat
1 19 43.000300 -30.000020 -58.000060 1.000002 0.000001 -0.000001 0.000001 0.000001 1.000000 0.000001 -1.000002 0.000001 3749.dat
1 71 58.000360 -30.000020 -57.999450 0.000000 0.000000 1.000000 0.000000 1.000000 0.000000 -1.000000 0.000000 0.000000 4185.dat
1 71 -92.000080 -30.000010 -58.000000 0.000000 0.000000 1.000002 0.000000 1.000000 0.000000 -1.000002 0.000000 0.000000 4185.dat
1 14 -82.380040 -30.000020 -57.999940 0.000000 0.000000 1.000002 0.000000 1.000000 0.000000 -1.000002 0.000000 0.000000 32123a.dat
0 STEP
1 4 -14.949920 -42.855780 -133.321000 -1.000000 0.000000 0.000000 0.000000 0.766044 -0.642788 0.000000 -0.642788 -0.766044 32039.dat
1 14 -1.879920 -30.000080 -118.000200 0.000000 0.000000 1.000000 -0.642788 0.766044 0.000000 -0.766044 -0.642788 0.000000 32123a.dat
1 14 -31.669950 -30.000090 -118.000200 0.000000 0.000000 1.000000 -0.642788 0.766044 0.000000 -0.766044 -0.642788 0.000000 32123a.dat
1 71 -18.379910 -30.000040 -118.000100 -1.000000 0.000000 0.000000 0.000000 0.766044 -0.642788 0.000000 -0.642788 -0.766044 32073.dat
0 STEP
1 14 27.400080 -30.000080 -118.000200 0.000000 0.000000 1.000000 -0.642788 0.766044 0.000000 -0.766044 -0.642788 0.000000 32123a.dat
1 14 -61.869940 -30.000090 -118.000200 0.000000 0.000000 1.000000 -0.642788 0.766044 0.000000 -0.766044 -0.642788 0.000000 32123a.dat
0 STEP
1 15 -46.999940 -64.000020 -108.000100 1.000000 0.000000 0.000000 0.000000 1.000000 0.000000 0.000000 0.000000 1.000000 32064a.dat
1 15 23.000220 -64.000020 -108.000100 1.000000 0.000000 0.000000 0.000000 1.000000 0.000000 0.000000 0.000000 1.000000 32064a.dat
0 STEP
1 4 -14.949890 -135.314400 -243.509200 -1.000000 0.000000 0.000000 0.000000 -0.766044 0.642788 0.000000 0.642788 0.766044 32039.dat
1 0 -14.949890 -87.850910 -186.944500 0.000000 0.000000 1.000000 -0.642788 0.766044 0.000000 -0.766044 -0.642788 0.000000 3707.dat
1 4 -14.909880 -148.170100 -258.830100 -1.000000 0.000000 0.000000 0.000000 0.766044 -0.642788 0.000000 -0.642788 -0.766044 32062.dat
0 STEP
0 STEP
