0 FILE 大摆锤.io
0 Untitled Model
0 Name:  大摆锤
0 Author:  
0 CustomBrick
0 NumOfBricks:  74
1 0 92.809840 -79.999950 6.999030 0.000000 0.000000 1.000000 0.000000 1.000000 0.000000 -1.000000 0.000000 0.000000 73090b.dat
0 STEP
1 1 92.809840 -31.999960 -43.001100 1.000000 0.000000 0.000000 0.000000 1.000000 0.000000 0.000000 0.000000 1.000000 3703.dat
1 1 92.809830 -31.999960 56.999040 1.000000 0.000000 0.000000 0.000000 1.000000 0.000000 0.000000 0.000000 1.000000 3703.dat
0 STEP
1 1 212.809900 -7.999960 -43.001100 1.000000 0.000000 0.000000 0.000000 1.000000 0.000000 0.000000 0.000000 1.000000 3710.dat
1 1 -27.190180 -7.999960 -43.001100 1.000000 0.000000 0.000000 0.000000 1.000000 0.000000 0.000000 0.000000 1.000000 3710.dat
1 1 -27.190170 -7.999960 56.999000 1.000000 0.000000 0.000000 0.000000 1.000000 0.000000 0.000000 0.000000 1.000000 3710.dat
1 1 212.809900 -7.999960 56.999040 1.000000 0.000000 0.000000 0.000000 1.000000 0.000000 0.000000 0.000000 1.000000 3710.dat
0 STEP
1 1 122.809800 -55.999960 6.999030 0.000000 0.000000 1.000000 0.000000 1.000000 0.000000 -1.000000 0.000000 0.000000 3894.dat
1 1 62.809840 -55.999960 6.999030 0.000000 0.000000 1.000000 0.000000 1.000000 0.000000 -1.000000 0.000000 0.000000 3894.dat
0 STEP
1 0 132.809800 -21.999960 -53.001100 0.000000 0.000000 -1.000000 0.000000 1.000000 0.000000 1.000000 0.000000 0.000000 2780.dat
1 0 52.809800 -21.999960 -53.001220 0.000000 0.000000 -1.000000 0.000000 1.000000 0.000000 1.000000 0.000000 0.000000 2780.dat
0 STEP
1 16 83.366400 -31.999950 -37.378370 1.000000 0.000000 0.000000 0.000000 1.000000 0.000000 0.000000 0.000000 1.000000 submodel group 1
0 STEP
1 72 -18.470110 -246.000100 -53.001220 0.000000 0.000000 -1.000000 -1.000000 0.000000 0.000000 0.000000 1.000000 0.000000 3647.dat
1 71 -38.470100 -246.000100 -53.001220 -1.000000 0.000000 0.000000 0.000000 0.000000 1.000000 0.000000 1.000000 0.000000 4519.dat
0 STEP
1 71 -47.190100 -246.000000 -53.001350 0.000000 0.000000 -1.000000 0.000000 1.000000 0.000000 1.000000 0.000000 0.000000 58120.dat
0 STEP
1 1 12.809860 -63.999960 -33.000980 -1.000000 0.000000 0.000000 0.000000 1.000000 0.000000 0.000000 0.000000 -1.000000 32001.dat
1 1 12.809830 -63.999960 46.999020 -1.000000 0.000000 0.000000 0.000000 1.000000 0.000000 0.000000 0.000000 -1.000000 32001.dat
1 1 172.809900 -63.999960 -33.000960 -1.000000 0.000000 0.000000 0.000000 1.000000 0.000000 0.000000 0.000000 -1.000000 32001.dat
1 1 172.809800 -63.999960 46.999050 -1.000000 0.000000 0.000000 0.000000 1.000000 0.000000 0.000000 0.000000 -1.000000 32001.dat
1 16 23.000000 -52.462980 -226.000000 0.000000 -1.000000 0.000000 0.000000 0.000000 -1.000000 1.000000 0.000000 0.000000 submodel group 9 copy copy copy
0 STEP
0 STEP
0 NOFILE
0 FILE SubModel Group 1
0 SubModel Group 1
0 Name:  SubModel Group 1
0 Author:  
0 CustomBrick
0 NumOfBricks:  53
1 19 79.533680 -274.000500 -15.623410 -1.000000 0.000000 0.000001 0.000001 0.733729 0.679442 -0.000001 0.679442 -0.733729 3749.dat
1 1 89.533690 -314.000500 -5.623340 0.000000 0.000000 1.000000 -1.000000 0.000000 0.000000 0.000000 -1.000000 0.000000 3895.dat
1 19 79.533680 -334.000500 -15.623410 -1.000000 0.000001 0.000001 0.000001 0.929133 0.369747 -0.000001 0.369747 -0.929133 3749.dat
0 STEP
1 72 69.533680 -334.000500 -15.623410 0.000000 0.000002 -1.000000 -0.369748 0.929132 0.000002 0.929132 0.369748 0.000000 3648b.dat
1 71 71.533680 -274.000500 -15.623410 0.000001 -0.000001 -1.000000 0.679443 -0.733729 0.000001 -0.733729 -0.679443 0.000000 3650c.dat
0 STEP
1 1 -50.156380 -314.000200 -5.622250 0.000000 0.000000 1.000000 -1.000000 0.000000 0.000000 0.000000 -1.000000 0.000000 3895.dat
1 1 19.533660 -214.000100 -29.621460 1.000000 0.000000 0.000000 0.000000 0.000000 1.000000 0.000000 -1.000000 0.000000 3738.dat
1 1 19.533660 -204.000100 -5.621330 1.000000 0.000000 0.000000 0.000000 0.000000 1.000001 0.000000 -1.000001 0.000000 3894.dat
0 STEP
1 1 19.533680 -214.000400 2.376590 1.000000 0.000000 0.000000 0.000000 0.000000 1.000000 0.000000 -1.000000 0.000000 3738.dat
1 1 19.533660 -224.000200 -5.621330 1.000000 0.000000 0.000000 0.000000 0.000000 1.000001 0.000000 -1.000001 0.000000 3894.dat
0 STEP
1 71 19.533680 -244.260200 -15.621200 0.980614 0.195950 0.000000 0.000000 0.000000 1.000000 0.195950 -0.980614 0.000000 3649.dat
1 71 19.533260 -184.260400 -15.620290 0.980614 0.195950 0.000000 0.000000 0.000000 1.000000 0.195950 -0.980614 0.000000 3713.dat
1 0 19.533680 -174.260200 -15.621330 0.000000 0.195950 0.980614 -1.000000 0.000000 0.000000 0.000000 -0.980614 0.195950 3707.dat
0 STEP
1 71 19.533680 -145.400100 -15.621330 0.980614 0.195950 0.000000 0.000000 0.000000 1.000000 0.195950 -0.980614 0.000000 3713.dat
1 71 19.533490 -164.260100 -15.621330 0.980614 0.195951 0.000000 0.000000 0.000000 1.000008 0.195950 -0.980620 0.000000 3713.dat
0 STEP
1 1 19.533680 -127.430100 -15.621330 0.000000 0.000000 1.000000 0.000000 -1.000000 0.000000 1.000000 0.000000 0.000000 32001.dat
1 1 19.533520 -119.430100 -15.622250 -1.000003 0.000000 0.000000 0.000000 -1.000000 0.000000 0.000000 0.000000 1.000003 32001.dat
1 71 19.533680 -104.260100 -15.621200 0.980614 0.195950 0.000000 0.000000 0.000000 1.000000 0.195950 -0.980614 0.000000 3713.dat
0 STEP
1 71 69.393650 -414.000500 -15.623410 0.000000 0.000000 -1.000000 0.000000 -1.000000 0.000000 -1.000000 0.000000 0.000000 3649.dat
1 0 109.933700 -414.000500 -15.623340 -1.000000 0.000000 0.000000 0.000000 1.000000 0.000000 0.000000 0.000000 -1.000000 3706.dat
0 STEP
1 14 54.933660 -414.000500 -15.623410 0.000000 0.000000 1.000000 0.000000 1.000000 0.000000 -1.000000 0.000000 0.000000 32123a.dat
1 14 104.973700 -414.000500 -15.623410 0.000000 0.000000 1.000000 0.000000 1.000000 0.000000 -1.000000 0.000000 0.000000 32123a.dat
0 STEP
1 15 139.443600 -294.000200 -15.622980 0.000001 1.000000 0.000001 0.000001 0.000001 -1.000000 -1.000000 0.000001 -0.000001 64871.dat
1 71 119.733700 -414.000500 -15.623340 0.000001 0.000000 -1.000000 0.000000 1.000000 0.000000 1.000000 0.000000 0.000001 3713.dat
0 STEP
1 0 149.933700 -394.000400 -15.623220 -1.000000 0.000000 0.000000 0.000000 1.000000 0.000000 0.000000 0.000000 -1.000000 2780.dat
1 71 159.933700 -414.000400 -15.623220 0.000001 -1.000000 -0.000001 0.000001 -0.000001 1.000000 -1.000000 -0.000001 0.000001 60483.dat
0 STEP
1 1 159.443500 -14.000000 -15.622860 -0.000001 1.000000 0.000000 0.000000 0.000000 1.000000 1.000000 0.000000 0.000000 32009.dat
1 19 149.443500 -174.000200 -15.622860 1.000000 0.000001 -0.000001 0.000001 0.000002 1.000000 0.000001 -1.000000 0.000002 3749.dat
1 0 149.443500 -154.000000 -15.622740 -1.000000 0.000000 0.000000 0.000000 1.000000 0.000000 0.000000 0.000000 -1.000000 2780.dat
0 STEP
1 0 149.443500 -14.000000 24.377260 -1.000000 0.000000 0.000000 0.000000 1.000000 0.000000 0.000000 0.000000 -1.000000 2780.dat
1 1 139.443500 -24.000010 44.377260 0.000000 0.000000 1.000000 0.000000 1.000000 0.000000 -1.000000 0.000000 0.000000 3894.dat
1 19 149.443500 -13.999970 64.377260 1.000000 0.000001 -0.000001 0.000001 0.000001 1.000000 0.000001 -1.000000 0.000001 3749.dat
0 STEP
1 0 -60.156380 -394.000200 -15.622250 -1.000000 0.000000 0.000000 0.000000 0.782637 -0.622478 0.000000 -0.622478 -0.782637 2780.dat
1 71 -70.156380 -414.000400 -15.623220 0.000000 1.000000 0.000001 -0.000043 -0.000001 1.000000 1.000000 0.000000 0.000043 60483.dat
0 STEP
1 14 -35.396380 -414.000300 -15.623220 0.000000 0.000000 1.000000 0.000000 1.000000 0.000000 -1.000000 0.000000 0.000000 32123a.dat
1 0 -90.136370 -414.000300 -15.623220 -1.000000 0.000000 0.000000 0.000000 1.000000 0.000043 0.000000 0.000045 -0.999998 3706.dat
0 STEP
1 14 -85.186410 -414.000300 -15.623220 0.000000 0.000000 1.000000 0.000043 1.000000 0.000000 -0.999998 0.000045 0.000000 32123a.dat
1 71 -100.656400 -414.000300 -15.623220 0.000001 0.000000 -1.000000 -0.000043 1.000000 0.000000 0.999998 0.000045 0.000001 3713.dat
0 STEP
1 19 -130.556400 -334.000200 -15.622980 -1.000000 -0.000001 0.000001 0.000001 0.381069 0.924546 -0.000001 0.924546 -0.381070 3749.dat
1 15 -120.556400 -294.000200 -15.622980 0.000001 1.000000 0.000001 0.000001 0.000001 -1.000000 -1.000000 0.000001 -0.000001 64871.dat
0 STEP
1 72 -140.366400 -413.999500 -15.621630 0.000000 0.000000 -1.000000 0.000045 -1.000000 0.000000 -1.000000 -0.000045 0.000000 3648b.dat
1 71 -140.556400 -334.000200 -15.622980 0.000000 0.000000 -1.000000 -0.381069 -0.924547 0.000000 -0.924547 0.381069 0.000000 3649.dat
1 71 -120.426500 -274.000200 -15.622860 -1.000000 0.000000 0.000000 0.000000 0.088898 0.996040 0.000000 0.996040 -0.088898 4519.dat
0 STEP
1 72 -140.426500 -274.000200 -15.622860 0.000000 0.000000 1.000000 0.996041 0.088897 0.000000 -0.088898 0.996041 0.000000 3647.dat
1 71 -99.826480 -274.000200 -15.622860 0.000000 0.000000 1.000000 -0.088897 0.996040 0.000000 -0.996040 -0.088897 0.000000 3649.dat
0 STEP
1 0 -130.556600 -194.000100 -15.622860 -1.000000 0.000000 0.000000 0.000000 1.000000 0.000000 0.000000 0.000000 -1.000000 2780.dat
1 0 -130.556500 -234.000100 -15.622860 -1.000000 0.000000 0.000000 0.000000 1.000000 0.000000 0.000000 0.000000 -1.000000 2780.dat
0 STEP
1 19 -130.556600 -174.000100 -15.622740 -1.000000 -0.000001 0.000001 0.000001 0.000001 1.000000 -0.000001 1.000000 -0.000002 3749.dat
1 0 -130.556600 -154.000000 -15.622610 -1.000000 0.000000 0.000000 0.000000 1.000000 0.000000 0.000000 0.000000 -1.000000 2780.dat
1 1 -140.556600 -14.000020 -15.622740 0.000000 1.000000 0.000000 0.000000 0.000000 1.000000 1.000000 0.000000 0.000000 32009.dat
0 STEP
1 1 -120.556600 -24.000010 44.377240 0.000000 0.000000 1.000000 0.000000 1.000000 0.000000 -1.000000 0.000000 0.000000 3894.dat
1 0 -130.556600 -14.000000 24.377240 -1.000000 0.000000 0.000000 0.000000 1.000000 0.000000 0.000000 0.000000 -1.000000 2780.dat
1 19 -130.556600 -13.999970 64.377350 -1.000000 -0.000001 0.000001 0.000001 0.000001 1.000000 -0.000001 1.000000 -0.000001 3749.dat
0 STEP
0 NOFILE
0 FILE SubModel Group 9 Copy Copy Copy
0 SubModel Group 9 Copy Copy Copy
0 Name:  SubModel Group 9 Copy Copy Copy
0 Author:  
0 CustomBrick
0 NumOfBricks:  3
1 72 10.000000 -1.128810 -10.000000 1.000000 0.000000 0.000000 0.000000 0.000000 -1.000000 0.000000 1.000000 0.000000 dch003.dat
1 71 -27.466620 -79.717990 29.427020 1.000000 0.000000 0.000000 0.000000 0.000000 -1.000000 0.000000 1.000000 0.000000 dch004.dat
1 25 7.837010 13.484720 -9.965000 1.000000 0.000000 0.000000 0.000000 0.000000 -1.000000 0.000000 1.000000 0.000000 dch005.dat
0 NOFILE
