0 Untitled Model
0 Name:  打鼓机器人（电池盒
0 Author:  
0 CustomBrick
0 NumOfBricks:  120
0 STEP
1 15 42.000220 -81.976800 74.000040 -1.000001 0.000001 -0.000001 -0.000001 -1.000000 -0.000001 -0.000001 -0.000001 1.000001 32524.dat
1 15 -158.000000 -81.181000 74.000040 1.000001 -0.000001 0.000001 0.000001 1.000000 0.000001 -0.000001 -0.000001 1.000001 32524.dat
1 0 -158.000000 -71.180980 94.000080 0.000000 0.000000 -1.000001 1.000000 0.000000 0.000000 0.000000 -1.000001 0.000000 2780.dat
1 0 -158.000000 -72.069020 55.000030 0.000000 -1.000001 0.000000 -1.000000 0.000000 0.000000 0.000000 0.000000 -1.000001 2780.dat
1 0 42.000160 -71.976820 94.000080 0.000000 1.000001 0.000000 1.000000 0.000000 0.000000 0.000000 0.000000 -1.000001 2780.dat
1 0 42.000160 -71.856170 54.000030 0.000000 1.000001 0.000000 1.000000 0.000000 0.000000 0.000000 0.000000 -1.000001 2780.dat
0 STEP
1 1 -37.999980 -101.976700 113.999900 0.000001 0.000001 1.000001 0.000001 1.000000 -0.000001 -1.000001 0.000001 0.000001 32526.dat
1 1 -78.000020 -101.181000 114.000000 -0.000001 -0.000001 -1.000001 -0.000001 -1.000000 0.000001 -1.000001 0.000001 0.000001 32526.dat
1 0 -158.000100 -91.180980 74.000040 0.000000 0.000000 -1.000001 1.000000 0.000000 0.000000 0.000000 -1.000001 0.000000 2780.dat
1 0 42.000220 -91.976800 74.000040 0.000000 0.000000 -1.000001 1.000000 0.000000 0.000000 0.000000 -1.000001 0.000000 2780.dat
1 0 42.000160 -91.976840 114.000100 0.000000 0.000000 -1.000001 1.000000 0.000000 0.000000 0.000000 -1.000001 0.000000 2780.dat
1 0 -158.000000 -91.180950 114.000100 0.000000 0.000000 -1.000001 1.000000 0.000000 0.000000 0.000000 -1.000001 0.000000 2780.dat
0 STEP
1 1 -98.000000 -101.181100 34.000000 -0.000001 -0.000001 -1.000000 -0.000001 -1.000000 0.000001 -1.000000 0.000001 0.000001 32140.dat
1 1 -17.999780 -101.976700 33.999940 0.000001 0.000001 1.000001 0.000001 1.000000 -0.000001 -1.000001 0.000001 0.000001 32140.dat
1 0 42.000260 -91.976760 34.000000 0.000000 0.000000 -1.000001 1.000000 0.000000 0.000000 0.000000 -1.000001 0.000000 2780.dat
1 0 -158.000100 -91.181060 14.000060 0.000000 0.000000 -1.000001 1.000000 0.000000 0.000000 0.000000 -1.000001 0.000000 2780.dat
1 0 -158.000000 -91.181040 34.000080 0.000000 0.000000 -1.000001 1.000000 0.000000 0.000000 0.000000 -1.000001 0.000000 2780.dat
1 0 42.000280 -91.976760 14.000060 0.000000 0.000000 -1.000001 1.000000 0.000000 0.000000 0.000000 -1.000001 0.000000 2780.dat
0 STEP
1 0 -118.000100 -111.181100 34.000080 0.000000 0.000000 -1.000001 1.000000 0.000000 0.000000 0.000000 -1.000001 0.000000 2780.dat
1 0 2.000250 -111.976700 33.999940 0.000000 0.000000 -1.000001 1.000000 0.000000 0.000000 0.000000 -1.000001 0.000000 2780.dat
1 0 2.000070 -111.976800 114.000000 0.000000 0.000000 -1.000001 1.000000 0.000000 0.000000 0.000000 -1.000001 0.000000 2780.dat
1 0 -118.000100 -111.181000 114.000000 0.000000 -1.000001 0.000000 1.000000 0.000000 0.000000 0.000000 0.000000 1.000001 2780.dat
1 71 -58.000000 -121.181100 74.000100 0.000000 0.000000 1.000001 0.000000 1.000000 0.000000 -1.000001 0.000000 0.000000 64179.dat
0 STEP
1 1 -58.000000 -131.181100 14.000060 1.000001 0.000000 0.000000 0.000000 1.000000 0.000000 0.000000 0.000000 1.000001 3702.dat
1 1 -57.999940 -131.181100 134.000200 1.000001 0.000000 0.000000 0.000000 1.000000 0.000000 0.000000 0.000000 1.000001 3702.dat
1 0 -98.000060 -121.181100 124.000100 0.000000 0.000000 -1.000001 0.000000 1.000000 0.000000 1.000001 0.000000 0.000000 2780.dat
1 0 -17.999960 -121.181100 24.000070 0.000000 0.000000 -1.000001 0.000000 1.000000 0.000000 1.000001 0.000000 0.000000 2780.dat
1 0 -17.999900 -121.181100 124.000200 0.000000 0.000000 -1.000001 0.000000 -1.000000 0.000000 -1.000001 0.000000 0.000000 2780.dat
1 0 -98.000060 -121.181100 24.000070 0.000000 0.000000 -1.000001 0.000000 1.000000 0.000000 1.000001 0.000000 0.000000 2780.dat
0 STEP
1 1 -57.999940 -139.181100 124.000200 1.000001 0.000000 0.000000 0.000000 1.000000 0.000000 0.000000 0.000000 1.000001 3738.dat
1 1 -97.999980 -163.181100 114.000200 1.000001 0.000000 0.000000 0.000000 1.000000 0.000000 0.000000 0.000000 1.000001 3895.dat
1 1 -97.999980 -163.181100 134.000200 1.000001 0.000000 0.000000 0.000000 1.000000 0.000000 0.000000 0.000000 1.000001 3895.dat
0 STEP
1 1 -98.000060 -163.181100 14.000060 1.000001 0.000000 0.000000 0.000000 1.000000 0.000000 0.000000 0.000000 1.000001 3895.dat
1 1 -58.000000 -139.181100 24.000070 1.000001 0.000000 0.000000 0.000000 1.000000 0.000000 0.000000 0.000000 1.000001 3738.dat
0 STEP
1 1 -198.000200 -153.181100 154.000100 0.000000 0.000000 -1.000001 0.000000 1.000000 0.000000 1.000001 0.000000 0.000000 6558.dat
1 1 -138.000000 -153.181100 154.000100 0.000000 0.000000 -1.000001 0.000000 1.000000 0.000000 1.000001 0.000000 0.000000 6558.dat
0 STEP
1 1 -158.000000 -163.181100 154.000100 1.000001 0.000000 0.000000 0.000000 1.000000 0.000000 0.000000 0.000000 1.000001 3894.dat
0 STEP
1 1 -158.000000 -163.181100 174.000100 1.000001 0.000000 0.000000 0.000000 1.000000 0.000000 0.000000 0.000000 1.000001 3894.dat
0 STEP
1 0 -138.000100 -153.181100 24.000070 0.000000 0.000000 -1.000001 0.000000 1.000000 0.000000 1.000001 0.000000 0.000000 2780.dat
1 0 -158.000100 -153.181100 24.000070 0.000000 0.000000 -1.000001 0.000000 1.000000 0.000000 1.000001 0.000000 0.000000 2780.dat
1 1 -198.000200 -153.181100 34.000000 1.000001 0.000000 0.000000 0.000000 0.000000 1.000000 0.000000 -1.000001 0.000000 32009.dat
0 STEP
1 1 -37.999920 -187.181100 114.000200 1.000001 0.000000 0.000000 0.000000 1.000000 0.000000 0.000000 0.000000 1.000001 3894.dat
1 1 -37.999980 -187.181100 14.000060 1.000001 0.000000 0.000000 0.000000 1.000000 0.000000 0.000000 0.000000 1.000001 3894.dat
1 71 2.000070 -177.181100 4.000040 0.000000 0.000000 -1.000001 0.000000 1.000000 0.000000 1.000001 0.000000 0.000000 3673.dat
1 71 -17.999960 -177.181100 4.000040 0.000000 0.000000 -1.000001 0.000000 1.000000 0.000000 1.000001 0.000000 0.000000 3673.dat
1 71 1.999940 -177.181100 124.000000 0.000000 0.000000 -1.000001 0.000000 1.000000 0.000000 1.000001 0.000000 0.000000 3673.dat
1 71 -18.000080 -177.181100 124.000000 0.000000 0.000000 -1.000001 0.000000 1.000000 0.000000 1.000001 0.000000 0.000000 3673.dat
0 STEP
1 1 -17.999960 -177.181100 -5.999960 0.000001 0.000001 1.000001 1.000000 -0.000001 -0.000001 0.000001 1.000001 -0.000001 32526.dat
1 19 62.000060 -177.181100 3.999920 -0.000001 1.000001 -0.000001 0.000001 0.000001 1.000000 1.000001 0.000001 -0.000001 3749.dat
0 STEP
1 71 62.000100 -177.184000 23.999950 1.000001 0.000000 0.000001 0.000000 1.000000 0.000000 -0.000001 0.000000 1.000001 59443.dat
1 0 62.000040 -177.181100 63.999970 0.000000 0.000000 1.000001 0.000000 1.000000 0.000000 -1.000001 0.000000 0.000000 3705.dat
1 14 62.000040 -177.181100 48.999970 0.000000 1.000001 0.000000 -1.000000 0.000000 0.000000 0.000000 0.000000 1.000001 32123a.dat
1 14 62.000100 -177.181100 79.479960 0.000000 1.000001 0.000000 -1.000000 0.000000 0.000000 0.000000 0.000000 1.000001 32123a.dat
1 4 62.000100 -197.181100 64.139980 0.000000 -1.000001 -0.000001 0.000000 0.000001 -1.000000 1.000001 0.000000 0.000000 32039.dat
0 STEP
1 19 62.000040 -177.181100 124.000000 0.000001 -1.000001 0.000001 0.000001 0.000001 1.000000 -1.000001 -0.000001 0.000001 3749.dat
1 71 62.000060 -177.184000 104.000000 1.000001 0.000000 0.000001 0.000000 1.000000 0.000000 -0.000001 0.000000 1.000001 59443.dat
0 STEP
1 1 -18.000080 -177.181100 134.000000 0.000001 0.000001 1.000001 1.000000 -0.000001 -0.000001 0.000001 1.000001 -0.000001 32526.dat
0 STEP
1 71 62.000120 -211.961100 64.139980 1.000001 0.000000 0.000000 0.000000 0.000000 -1.000000 0.000000 1.000001 0.000000 4185.dat
1 4 62.000120 -200.181100 64.139980 0.000000 1.000001 0.000000 1.000000 0.000000 0.000000 0.000000 0.000000 -1.000001 32062.dat
0 STEP
1 72 -198.000100 -193.181100 83.999980 -1.000001 0.000000 0.000000 0.000000 1.000000 0.000000 0.000000 0.000000 -1.000001 3647.dat
1 4 -198.000100 -193.181100 94.000080 0.000000 0.000000 -1.000001 0.000000 1.000000 0.000000 1.000001 0.000000 0.000000 32062.dat
1 71 -198.000100 -193.181100 94.000140 1.000001 0.000000 0.000000 0.000000 1.000000 0.000000 0.000000 0.000000 1.000001 58120.dat
0 STEP
1 4 -138.000000 -207.181000 144.000100 0.000000 0.000000 1.000001 1.000000 0.000000 0.000000 0.000000 1.000001 0.000000 62462.dat
1 15 -138.000000 -187.181100 144.000100 1.000001 0.000000 0.000000 0.000000 1.000000 0.000000 0.000000 0.000000 1.000001 3941.dat
1 19 -138.000000 -187.181100 144.000100 -0.000001 1.000001 -0.000001 1.000000 0.000001 -0.000001 -0.000001 -0.000001 -1.000001 3749.dat
0 STEP
1 72 -198.000200 -233.181100 74.440040 0.000000 -1.000001 0.000000 1.000000 0.000000 0.000000 0.000000 0.000000 1.000001 3648b.dat
1 0 -198.000200 -233.181100 45.750030 0.000000 0.000000 1.000001 0.000000 1.000000 0.000000 -1.000001 0.000000 0.000000 3705.dat
1 71 -198.000200 -233.181100 54.239960 1.000001 0.000000 0.000001 0.000000 1.000000 0.000000 -0.000001 0.000000 1.000001 3713.dat
1 71 -198.000200 -233.181100 14.819940 1.000001 0.000000 0.000001 0.000000 1.000000 0.000000 -0.000001 0.000000 1.000001 3713.dat
0 STEP
1 1 -37.999920 -211.181100 114.000200 1.000001 0.000000 0.000000 0.000000 1.000000 0.000000 0.000000 0.000000 1.000001 3894.dat
1 1 -58.000000 -219.181100 14.000060 1.000001 0.000000 0.000000 0.000000 1.000000 0.000000 0.000000 0.000000 1.000001 3710.dat
1 1 -57.999940 -219.181100 114.000200 1.000001 0.000000 0.000000 0.000000 1.000000 0.000000 0.000000 0.000000 1.000001 3710.dat
1 1 -37.999980 -211.181100 14.000060 1.000001 0.000000 0.000000 0.000000 1.000000 0.000000 0.000000 0.000000 1.000001 3894.dat
0 STEP
1 1 12.000140 -219.181100 64.000160 0.000000 0.000000 -1.000001 0.000000 1.000000 0.000000 1.000001 0.000000 0.000000 3666.dat
0 STEP
1 1 -17.999960 -243.181100 14.040030 1.000001 0.000000 0.000000 0.000000 1.000000 0.000000 0.000000 0.000000 1.000000 3702.dat
1 1 -17.999900 -243.181100 114.000300 1.000001 0.000000 0.000000 0.000000 1.000000 0.000000 0.000000 0.000000 1.000001 3702.dat
0 STEP
1 1 2.000070 -251.181000 14.040030 1.000001 0.000000 0.000000 0.000000 1.000000 0.000000 0.000000 0.000000 1.000001 3023.dat
1 1 2.000130 -251.181100 114.000300 1.000001 0.000000 0.000000 0.000000 1.000000 0.000000 0.000000 0.000000 1.000001 3023.dat
1 1 42.000100 -251.181000 14.040030 1.000001 0.000000 0.000000 0.000000 1.000000 0.000000 0.000000 0.000000 1.000001 3023.dat
1 1 42.000160 -251.181100 114.000300 1.000001 0.000000 0.000000 0.000000 1.000000 0.000000 0.000000 0.000000 1.000001 3023.dat
1 1 -57.999940 -267.181100 114.000300 1.000001 0.000000 0.000000 0.000000 1.000000 0.000000 0.000000 0.000000 1.000001 3701.dat
1 1 -57.999940 -267.181000 14.039970 1.000001 0.000000 0.000000 0.000000 1.000000 0.000000 0.000000 0.000000 1.000000 3701.dat
0 STEP
1 71 -77.999840 -257.181000 24.040170 0.000000 -0.422620 -0.906309 0.000000 0.906308 -0.422619 0.999999 0.000000 0.000000 3673.dat
1 71 -77.999950 -257.181100 104.000300 0.000000 0.000000 -1.000001 0.000000 1.000000 0.000000 1.000001 0.000000 0.000000 3673.dat
1 15 -17.999900 -257.180900 34.040360 0.000001 0.000001 -1.000001 -1.000000 0.000001 -0.000001 0.000001 1.000000 0.000001 40490.dat
1 15 -17.999960 -257.181100 94.000140 0.000001 0.000001 -1.000001 -1.000000 0.000001 -0.000001 0.000001 1.000001 0.000001 40490.dat
0 STEP
1 0 -58.000000 -257.181000 4.040020 0.000000 0.000000 -1.000001 0.000000 1.000000 0.000000 1.000001 0.000000 0.000000 2780.dat
1 0 -37.999980 -257.181000 4.039960 0.000000 0.000000 -1.000001 0.000000 1.000000 0.000000 1.000001 0.000000 0.000000 2780.dat
1 0 -57.999940 -257.181100 124.000400 0.000000 0.000000 -1.000001 0.000000 1.000000 0.000000 1.000001 0.000000 0.000000 2780.dat
1 0 -37.999920 -257.181100 124.000400 0.000000 0.000000 -1.000001 0.000000 1.000000 0.000000 1.000001 0.000000 0.000000 2780.dat
1 1 2.000190 -257.181100 -5.959990 -0.000001 -0.000001 -1.000001 -1.000000 0.000001 0.000001 0.000001 1.000000 -0.000001 32271.dat
1 1 1.996460 -257.181100 133.997800 -0.000001 -0.000001 -0.999998 -1.000000 0.000001 0.000001 0.000001 0.999997 -0.000001 32271.dat
0 STEP
1 0 -130.000000 -273.181200 64.000760 0.000000 0.000000 1.000001 0.000000 1.000000 0.000000 -1.000001 0.000000 0.000000 3737.dat
1 71 -130.000000 -273.181200 -25.999800 1.000001 0.000000 0.000001 0.000000 1.000000 0.000000 -0.000001 0.000000 0.999999 3713.dat
1 71 -130.000000 -273.181200 62.640780 1.000001 0.000000 0.000000 0.000000 -1.000000 0.000000 0.000000 0.000000 -1.000000 3649.dat
1 71 -129.999700 -273.181200 154.000700 0.999998 0.000000 0.000001 0.000000 1.000000 0.000000 -0.000001 0.000000 0.999998 3713.dat
0 STEP
1 0 -139.999800 -303.181200 52.640600 0.000000 0.000000 -1.000001 0.000000 1.000000 0.000000 1.000001 0.000000 0.000000 2780.dat
1 0 -119.999800 -243.181000 72.640970 0.000000 0.000000 -1.000001 0.000000 1.000000 0.000000 1.000001 0.000000 0.000000 2780.dat
1 0 -160.000000 -263.181000 72.640970 0.000000 0.000000 -1.000001 0.000000 1.000000 0.000000 1.000001 0.000000 0.000000 2780.dat
0 STEP
1 1 -57.999940 -291.181300 14.039970 1.000001 0.000000 0.000000 0.000000 1.000000 0.000000 0.000000 0.000000 1.000000 3701.dat
1 1 -57.999940 -315.181200 14.040030 1.000001 0.000000 0.000000 0.000000 1.000000 0.000000 0.000000 0.000000 1.000000 3701.dat
1 1 -57.999940 -315.181300 114.000300 1.000001 0.000000 0.000000 0.000000 1.000000 0.000000 0.000000 0.000000 1.000001 3701.dat
1 1 -57.999940 -291.181300 114.000300 1.000001 0.000000 0.000000 0.000000 1.000000 0.000000 0.000000 0.000000 1.000001 3701.dat
0 STEP
1 1 -57.999940 -323.181300 63.999860 0.000000 0.000000 1.000001 0.000000 1.000000 0.000000 -1.000000 0.000000 0.000000 32001.dat
0 STEP
1 1 -47.999940 -371.181300 63.999910 0.000000 0.000000 1.000001 0.000000 1.000000 0.000000 -1.000000 0.000000 0.000000 3701.dat
1 1 -57.999940 -347.181300 53.999720 1.000001 0.000000 0.000000 0.000000 1.000000 0.000000 0.000000 0.000000 1.000000 3700.dat
1 1 -67.999880 -371.181300 63.999790 0.000000 0.000000 1.000001 0.000000 1.000000 0.000000 -1.000000 0.000000 0.000000 3701.dat
1 1 -57.999940 -347.181300 74.000100 1.000001 0.000000 0.000000 0.000000 1.000000 0.000000 0.000000 0.000000 1.000000 3700.dat
1 15 -57.999940 -347.181300 33.999820 1.000001 0.000000 0.000000 0.000000 1.000000 0.000000 0.000000 0.000000 1.000001 32064a.dat
1 15 -57.999880 -347.181300 93.999820 1.000001 0.000000 0.000000 0.000000 1.000000 0.000000 0.000000 0.000000 1.000001 32064a.dat
0 STEP
1 19 -37.999860 -361.181400 43.999240 1.000001 0.000001 -0.000001 -0.000001 -0.000001 -1.000000 -0.000001 1.000000 -0.000001 3749.dat
1 19 -37.999860 -361.181300 84.000230 1.000001 0.000001 -0.000001 0.000001 0.000001 1.000000 0.000001 -1.000000 0.000001 3749.dat
1 0 -27.389920 -361.181300 84.000170 0.000000 0.000000 1.000001 -1.000000 0.000000 0.000000 0.000000 -1.000000 0.000000 32270.dat
1 0 -27.999840 -361.181400 43.999240 0.000000 0.000000 1.000001 -1.000000 0.000000 0.000000 0.000000 -1.000000 0.000000 32270.dat
0 STEP
1 1 -57.999940 -379.181300 63.999910 0.000000 0.000000 1.000001 0.000000 1.000000 0.000000 -1.000001 0.000000 0.000000 3709b.dat
0 STEP
1 15 -67.999880 -403.181300 93.999950 0.000000 0.000000 -1.000001 0.000000 1.000000 0.000000 1.000001 0.000000 0.000000 3040b.dat
1 15 -67.999950 -403.181300 53.999970 0.000000 0.000000 -1.000001 0.000000 1.000000 0.000000 1.000001 0.000000 0.000000 3040b.dat
1 15 -68.001290 -403.181300 73.998760 0.000000 0.000000 -1.000004 0.000000 1.000000 0.000000 1.000003 0.000000 0.000000 3040b.dat
1 15 -67.999950 -403.181300 33.999820 0.000000 0.000000 -1.000001 0.000000 1.000000 0.000000 1.000001 0.000000 0.000000 3040b.dat
0 STEP
1 71 -57.999850 -39.976810 74.000080 1.000000 0.000000 0.000000 0.000000 0.000000 -1.000000 0.000000 1.000000 0.000000 58119.dat
0 STEP
