0 Untitled Model
0 Name:  划船机器人（电池盒
0 Author:  
0 CustomBrick
0 NumOfBricks:  50
1 19 80.000420 -13.999980 80.000270 -1.000003 -0.000001 0.000001 0.000001 0.000001 1.000000 -0.000002 1.000003 -0.000001 3749.dat
1 0 80.000420 -14.000000 120.000600 -1.000003 0.000000 0.000001 0.000000 1.000000 0.000000 -0.000001 0.000000 -1.000003 2780.dat
1 1 90.000640 -24.000000 -20.000080 0.000000 0.000000 -1.000003 0.000000 1.000000 0.000000 1.000003 0.000000 0.000000 3703.dat
1 1 70.000450 -13.999960 240.000300 0.000000 1.000003 0.000000 -1.000000 0.000000 0.000000 0.000000 0.000000 1.000003 32009.dat
0 STEP
1 1 -10.000070 -24.000000 -20.000020 0.000000 0.000000 -1.000000 0.000000 1.000000 0.000000 1.000000 0.000000 0.000000 3703.dat
1 0 -0.000120 -14.000000 120.000600 -1.000003 0.000000 0.000001 0.000000 1.000000 0.000000 -0.000001 0.000000 -1.000003 2780.dat
1 19 -0.000120 -13.999980 80.000270 1.000003 0.000002 -0.000001 0.000001 0.000001 1.000000 0.000002 -1.000003 0.000001 3749.dat
1 1 10.000030 -13.999960 240.000300 0.000000 1.000003 0.000000 -1.000000 0.000000 0.000000 0.000000 0.000000 1.000003 32009.dat
0 STEP
1 19 80.000540 -13.999980 -140.000100 -1.000003 -0.000001 0.000001 0.000001 0.000001 1.000000 -0.000002 1.000003 -0.000001 3749.dat
1 19 -0.000060 -13.999980 -140.000100 1.000003 0.000002 -0.000001 0.000001 0.000001 1.000000 0.000002 -1.000003 0.000001 3749.dat
1 0 80.000540 -14.000000 -160.000000 -1.000003 0.000000 0.000001 0.000000 1.000000 0.000000 -0.000001 0.000000 -1.000003 2780.dat
1 0 0.000000 -14.000000 -160.000000 -1.000003 0.000000 0.000001 0.000000 1.000000 0.000000 -0.000001 0.000000 -1.000003 2780.dat
1 1 70.000580 -14.000030 -140.000100 -0.000001 -1.000003 0.000001 -1.000000 0.000001 0.000001 -0.000001 -0.000001 -1.000003 32271.dat
1 1 10.000150 -14.000040 -140.000100 -0.000001 -1.000003 0.000002 -1.000000 0.000001 0.000001 -0.000001 -0.000002 -1.000003 32271.dat
0 STEP
1 1 40.000360 -40.000000 -140.000200 0.000000 0.000000 1.000003 0.000000 1.000000 0.000000 -1.000003 0.000000 0.000000 3709b.dat
1 1 40.000300 -32.000000 -160.000000 1.000003 0.000000 -0.000001 0.000000 1.000000 0.000000 0.000001 0.000000 1.000003 32001.dat
1 1 40.000240 -32.000000 -0.000090 1.000003 0.000000 -0.000001 0.000000 1.000000 0.000000 0.000001 0.000000 1.000003 32001.dat
1 1 40.000180 -32.000000 60.000280 1.000003 0.000000 -0.000001 0.000000 1.000000 0.000000 0.000001 0.000000 1.000003 32001.dat
1 1 40.000240 -32.000000 -80.000070 1.000003 0.000000 -0.000001 0.000000 1.000000 0.000000 0.000001 0.000000 1.000003 32001.dat
1 1 40.000180 -32.000000 120.000600 1.000003 0.000000 -0.000001 0.000000 1.000000 0.000000 0.000001 0.000000 1.000003 32001.dat
1 1 40.000360 -32.000000 -120.000100 1.000003 0.000000 -0.000001 0.000000 1.000000 0.000000 0.000001 0.000000 1.000003 32001.dat
0 STEP
1 15 90.000270 -40.000000 100.000500 0.000000 0.000000 1.000003 0.000000 1.000000 0.000000 -1.000003 0.000000 0.000000 2431.dat
1 15 -9.999949 -40.000000 100.000500 0.000000 0.000000 1.000003 0.000000 1.000000 0.000000 -1.000003 0.000000 0.000000 2431.dat
1 0 20.000060 -35.550000 60.000280 0.000000 -1.000003 0.000000 -1.000000 0.000000 0.000000 0.000000 0.000000 -1.000003 2780.dat
1 0 60.000300 -35.010000 60.000280 0.000000 -1.000003 0.000000 -1.000000 0.000000 0.000000 0.000000 0.000000 -1.000003 2780.dat
0 STEP
1 71 40.000240 -145.010000 100.000400 0.000000 0.000000 1.000003 -1.000000 0.000000 0.000000 0.000000 -1.000003 0.000000 58119.dat
0 STEP
1 15 80.000420 -56.000000 -159.999900 1.000003 0.000000 0.000000 0.000000 1.000000 0.000000 0.000000 0.000000 1.000003 3941.dat
1 15 0.000180 -56.000000 -160.000000 1.000003 0.000000 0.000000 0.000000 1.000000 0.000000 0.000000 0.000000 1.000003 3941.dat
0 STEP
1 72 40.457820 -103.000000 -139.004200 0.000000 0.000000 -1.000012 -0.987688 0.156436 0.000000 0.156438 0.987700 0.000000 3648b.dat
1 71 39.998100 -62.000000 -136.733700 0.000001 0.000000 1.000012 0.000000 1.000000 0.000000 -1.000012 0.000000 0.000001 32209.dat
1 47 39.999320 -80.000000 -140.001200 0.000001 0.000000 1.000005 0.000000 1.000000 0.000000 -1.000005 0.000000 0.000001 6588.dat
1 71 39.998100 -62.000000 -140.773900 1.000012 0.000000 0.000000 0.000000 1.000000 0.000000 0.000000 0.000000 1.000012 4716.dat
1 14 39.998100 -62.000000 -169.645100 1.000012 0.000000 0.000000 0.000000 1.000000 0.000000 0.000000 0.000000 1.000012 32123a.dat
1 71 39.998100 -62.000000 -99.733360 1.000005 0.000000 0.000000 0.000000 1.000000 0.000000 0.000000 0.000000 1.000005 58120.dat
0 STEP
1 0 41.027900 -102.999900 -139.004000 -1.000012 0.000000 0.000000 0.000000 0.156436 0.987688 0.000000 0.987700 -0.156438 3737.dat
1 71 8.537380 -102.999900 -139.004000 0.000000 0.000000 -1.000012 0.156437 0.987688 0.000000 0.987700 -0.156438 0.000000 3713.dat
1 71 70.008140 -102.999900 -139.004000 0.000001 0.000000 -1.000012 0.156436 0.987688 0.000000 0.987700 -0.156438 0.000001 3713.dat
0 STEP
1 19 142.248900 -48.866950 -1.782570 -1.000003 0.000001 0.000001 0.000000 -0.460304 0.887761 0.000001 0.887764 0.460306 3749.dat
1 19 -61.813160 -48.866940 -1.782570 1.000003 -0.000001 -0.000001 0.000001 0.460305 0.887761 0.000000 -0.887764 0.460306 3749.dat
1 1 -48.973280 -102.999900 -139.004000 0.000000 -1.000003 0.000001 0.987688 0.000000 0.156438 -0.156438 0.000001 0.987691 32271.dat
1 1 131.028800 -102.999900 -139.004000 0.000000 -1.000003 0.000001 0.987688 0.000000 0.156438 -0.156438 0.000001 0.987691 32271.dat
0 STEP
1 1 20.000270 -245.010000 120.000500 1.000000 0.000000 0.000000 0.000000 1.000000 0.000000 0.000000 0.000000 1.000000 6558.dat
1 1 60.000220 -245.010000 80.000340 -1.000000 0.000000 0.000000 0.000000 1.000000 0.000000 0.000000 0.000000 -1.000000 6558.dat
1 15 40.000240 -245.010000 100.000400 0.000001 1.000003 0.000001 -1.000000 0.000001 -0.000001 -0.000001 -0.000001 1.000003 32316.dat
0 STEP
1 1 0.000270 -255.010000 120.000500 0.000000 0.000000 1.000000 0.000000 1.000000 0.000000 -1.000000 0.000000 0.000000 3700.dat
1 1 80.000220 -255.010000 80.000340 0.000000 0.000000 1.000000 0.000000 1.000000 0.000000 -1.000000 0.000000 0.000000 3700.dat
0 STEP
1 0 20.000120 -255.010000 60.000280 0.000000 0.000000 -1.000003 1.000000 0.000000 0.000000 0.000000 -1.000003 0.000000 2780.dat
1 0 60.000300 -255.010000 140.000500 0.000000 0.000000 -1.000003 1.000000 0.000000 0.000000 0.000000 -1.000003 0.000000 2780.dat
1 15 60.000240 -265.010000 140.000500 0.000001 0.000001 -1.000003 0.000001 1.000000 0.000001 1.000003 -0.000001 0.000001 32523.dat
1 15 20.000060 -265.010000 60.000220 0.000001 0.000001 -1.000003 0.000001 1.000000 0.000001 1.000003 -0.000001 0.000001 32523.dat
0 STEP
0 STEP
