0 Untitled Model
0 Name:  齿轮连杆2
0 Author:  
0 CustomBrick
0 NumOfBricks:  38
1 15 129.999900 -24.000000 -69.999950 0.000000 0.000000 -1.000000 0.000000 1.000000 0.000000 1.000000 0.000000 0.000000 3040b.dat
1 15 129.999900 -24.000040 -29.999880 0.000000 0.000000 -1.000000 0.000000 1.000000 0.000000 1.000000 0.000000 0.000000 3040b.dat
1 15 139.999900 -48.000040 -29.999940 1.000000 0.000000 0.000000 0.000000 1.000000 0.000000 0.000000 0.000000 1.000000 32064a.dat
1 15 139.999900 -48.000000 -69.999950 1.000000 0.000000 0.000000 0.000000 1.000000 0.000000 0.000000 0.000000 1.000000 32064a.dat
0 STEP
1 1 -0.000030 -71.999940 -69.999950 1.000000 0.000000 0.000000 0.000000 1.000000 0.000000 0.000000 0.000000 1.000000 3703.dat
1 1 -0.000030 -71.999980 -29.999940 1.000000 0.000000 0.000000 0.000000 1.000000 0.000000 0.000000 0.000000 1.000000 3703.dat
0 STEP
1 15 -150.000000 -24.000000 -70.000010 0.000000 0.000000 -1.000000 0.000000 1.000000 0.000000 1.000000 0.000000 0.000000 3040b.dat
1 15 -140.000000 -48.000040 -29.999940 1.000000 0.000000 0.000000 0.000000 1.000000 0.000000 0.000000 0.000000 1.000000 32064a.dat
1 15 -140.000000 -48.000000 -69.999950 1.000000 0.000000 0.000000 0.000000 1.000000 0.000000 0.000000 0.000000 1.000000 32064a.dat
1 15 -150.000100 -24.000040 -30.000000 0.000000 0.000000 -1.000000 0.000000 1.000000 0.000000 1.000000 0.000000 0.000000 3040b.dat
0 STEP
1 1 -0.000090 -95.999950 -29.999980 1.000000 0.000000 0.000000 0.000000 1.000000 0.000000 0.000000 0.000000 1.000000 3703.dat
0 STEP
1 1 100.000000 -166.000100 -49.999940 1.000000 -0.000001 -0.000001 0.000001 0.000001 1.000000 -0.000001 -1.000000 0.000001 32526.dat
1 1 -100.000200 -166.000100 -49.999880 -1.000000 0.000001 0.000001 0.000001 0.000001 1.000000 0.000001 1.000000 -0.000001 32526.dat
1 1 99.999940 -85.999970 -49.999940 0.000000 0.000000 1.000000 0.000000 1.000000 0.000000 -1.000000 0.000000 0.000000 6558.dat
1 1 139.999900 -85.999980 -49.999940 0.000000 0.000000 1.000000 0.000000 1.000000 0.000000 -1.000000 0.000000 0.000000 6558.dat
1 1 -140.000100 -85.999940 -49.999940 0.000000 0.000000 1.000000 0.000000 1.000000 0.000000 -1.000000 0.000000 0.000000 6558.dat
1 1 -100.000100 -85.999940 -49.999940 0.000000 0.000000 1.000000 0.000000 1.000000 0.000000 -1.000000 0.000000 0.000000 6558.dat
0 STEP
1 1 -0.000030 -95.999950 -69.999950 1.000000 0.000000 0.000000 0.000000 1.000000 0.000000 0.000000 0.000000 1.000000 3703.dat
0 STEP
1 0 -0.000060 -85.999950 -79.999950 0.000000 0.000000 -1.000000 0.000000 1.000000 0.000000 1.000000 0.000000 0.000000 2780.dat
1 0 -0.000060 -85.999950 -19.999900 0.000000 0.000000 -1.000000 0.000000 1.000000 0.000000 1.000000 0.000000 0.000000 2780.dat
0 STEP
1 1 -0.000060 -95.999950 -89.999950 1.000000 0.000000 0.000000 0.000000 1.000000 0.000000 0.000000 0.000000 1.000000 3702.dat
1 1 -0.000060 -95.999950 -9.999920 1.000000 0.000000 0.000000 0.000000 1.000000 0.000000 0.000000 0.000000 1.000000 3702.dat
0 STEP
1 0 100.000000 -166.000100 -60.000060 0.000000 0.000000 -1.000000 0.000000 1.000000 0.000000 1.000000 0.000000 0.000000 2780.dat
1 0 -100.000200 -166.000100 -59.999820 0.000000 0.000000 -1.000000 0.000000 1.000000 0.000000 1.000000 0.000000 0.000000 2780.dat
0 STEP
1 15 -40.000220 -166.000000 -69.999950 0.000001 0.000001 -1.000000 -1.000000 0.000001 -0.000001 0.000001 1.000000 0.000001 64871.dat
0 STEP
1 71 -115.470200 -166.000100 -89.999820 -1.000000 0.000000 0.000000 0.000000 0.000001 -1.000000 0.000000 -1.000000 0.000000 60485.dat
1 0 -120.000200 -166.000100 -89.999820 0.000001 -1.000000 0.000000 0.000001 0.000000 -1.000000 1.000000 0.000001 0.000001 15100.dat
1 0 -160.000200 -166.000100 -89.999820 0.000001 -1.000000 0.000000 0.000001 0.000000 -1.000000 1.000000 0.000001 0.000001 15100.dat
0 STEP
1 71 -16.680460 -168.215100 -100.489900 0.000000 0.000000 -1.000000 0.000000 1.000000 0.000000 1.000000 0.000000 0.000000 3673.dat
1 4 -16.680460 -168.215100 -90.489940 0.000000 -0.087156 -0.996195 0.000000 -0.996195 0.087156 -1.000000 0.000000 0.000000 32034.dat
0 STEP
1 0 79.999760 -165.999900 -61.660040 0.000000 0.500013 0.866018 0.000000 0.866018 -0.500013 -1.000000 0.000000 0.000000 3705.dat
1 4 114.640400 -186.000400 -2.080180 0.000000 -0.087141 0.996196 0.000000 0.996196 0.087141 -1.000000 0.000000 0.000000 62462.dat
1 19 114.640400 -186.000400 -22.080100 0.000001 -0.866018 0.500014 0.000000 0.500014 0.866018 -1.000000 -0.000001 0.000001 3749.dat
1 71 79.999760 -166.000000 -52.960020 0.866018 0.500013 0.000001 -0.500013 0.866018 0.000000 -0.000001 0.000000 1.000000 3713.dat
1 1 97.320100 -176.000200 -32.080130 0.000000 -0.866018 -0.500013 0.000000 0.500013 -0.866018 1.000000 0.000000 0.000000 32184.dat
0 STEP
1 71 59.019230 -142.339300 -100.490100 0.000000 0.000016 1.000000 0.000000 1.000000 -0.000016 -1.000000 0.000000 0.000000 3673.dat
1 71 79.999760 -165.999800 -90.490060 0.866018 0.500013 0.000000 -0.500013 0.866018 0.000000 0.000000 0.000000 1.000000 3649.dat
0 STEP
1 15 21.169170 -155.277200 -110.489900 0.323448 0.000001 -0.946246 -0.946246 0.000001 -0.323448 0.000001 1.000000 0.000001 32316.dat
0 STEP
0 STEP
