0 Untitled Model
0 Name:  双体船
0 Author:  
0 CustomBrick
0 NumOfBricks:  49
1 15 -0.016070 -14.227270 -50.000120 0.000001 0.000001 -1.000000 -0.999999 0.000001 -0.000001 0.000001 1.000000 0.000001 64290.dat
0 STEP
1 0 -40.015990 -14.227300 -40.000000 0.000000 0.000000 -1.000000 0.000000 0.999999 0.000000 1.000000 0.000000 0.000000 2780.dat
1 0 39.983860 -14.227330 -40.000000 0.000000 0.000000 -1.000000 0.000000 0.999999 0.000000 1.000000 0.000000 0.000000 2780.dat
1 71 -0.015950 -14.227310 10.000000 0.000000 0.000000 1.000000 0.000000 0.999999 0.000000 -1.000000 0.000000 0.000000 64179.dat
0 STEP
1 0 -40.015930 -14.227290 60.000000 0.000000 0.000000 -1.000000 0.000000 0.999999 0.000000 1.000000 0.000000 0.000000 2780.dat
1 0 39.984100 -14.227250 59.999880 0.000000 0.000000 -1.000000 0.000000 0.999999 0.000000 1.000000 0.000000 0.000000 2780.dat
1 15 -0.015890 -14.227280 70.000000 0.000001 0.000001 -1.000000 -0.999999 0.000001 -0.000001 0.000001 1.000000 0.000001 64290.dat
0 STEP
1 0 -80.016280 -14.227280 -60.000000 0.000000 0.000000 -1.000000 0.000000 0.999999 0.000000 1.000000 0.000000 0.000000 2780.dat
1 1 -20.015910 -14.227400 -69.999880 -0.000001 -0.000001 -1.000000 -0.999999 0.000001 0.000001 0.000001 1.000000 -0.000001 32271.dat
0 STEP
1 0 -140.016000 -14.227230 -40.390080 0.000000 0.654833 0.755774 0.000000 0.755774 -0.654832 -1.000000 0.000000 0.000000 3705.dat
1 0 -152.015800 -30.227200 -40.000000 0.000000 -0.001624 0.999998 0.000000 0.999997 0.001624 -1.000000 0.000000 0.000000 3705.dat
1 71 -140.016000 -14.227250 -49.810120 -0.755774 0.654832 0.000000 0.654831 0.755773 0.000000 0.000000 0.000000 -1.000000 3713.dat
1 71 -152.015800 -30.227210 -50.000000 -0.999998 -0.001624 -0.000001 -0.001624 0.999997 0.000000 0.000001 0.000000 -1.000000 3713.dat
0 STEP
1 0 -146.563700 -21.785490 9.609680 -0.654832 -0.755774 0.000000 -0.755773 0.654831 0.000000 0.000000 0.000000 -1.000000 2780.dat
1 4 -153.112000 -29.343200 9.609680 -0.654833 0.755774 0.000000 -0.755773 -0.654832 0.000000 0.000000 0.000000 1.000000 32034.dat
1 4 -140.015200 -14.227750 9.609680 -0.654833 0.755774 0.000000 -0.755773 -0.654831 0.000000 0.000000 0.000000 1.000000 32034.dat
0 STEP
1 0 -140.016000 -14.227320 59.609680 0.000000 0.654833 0.755774 0.000000 0.755774 -0.654833 -1.000000 0.000000 0.000000 3705.dat
1 0 -152.015800 -30.227340 60.000000 0.000000 -0.001624 0.999998 0.000000 0.999997 0.001624 -1.000000 0.000000 0.000000 3705.dat
1 71 -152.015800 -30.227340 70.000000 0.999998 -0.001624 0.000001 0.001624 0.999997 0.000000 -0.000001 0.000000 1.000000 3713.dat
1 71 -140.016000 -14.227270 69.609680 0.755774 0.654832 0.000000 -0.654831 0.755773 0.000000 0.000000 0.000000 1.000000 3713.dat
0 STEP
1 71 -164.015900 -46.227140 -49.999880 -0.804822 0.593517 0.000001 0.593517 0.804820 -0.000001 -0.000001 0.000000 -1.000000 3713.dat
1 0 -164.016000 -46.227100 0.000000 0.000001 0.593517 0.804821 -0.000001 0.804820 -0.593517 -1.000000 0.000000 0.000001 3707.dat
1 71 -164.016200 -46.227070 70.409980 0.804821 0.593517 -0.000001 -0.593517 0.804820 0.000001 0.000001 0.000000 1.000000 3713.dat
0 STEP
1 0 -80.016280 -14.227360 80.000000 0.000000 0.000000 -1.000000 0.000000 0.999999 0.000000 1.000000 0.000000 0.000000 2780.dat
1 1 -20.015910 -14.227490 90.000110 -0.000001 -0.000001 -1.000000 -0.999999 0.000001 0.000001 0.000001 1.000000 -0.000001 32271.dat
0 STEP
1 0 79.983840 -14.227470 80.000000 0.000000 0.000000 -1.000000 0.000000 0.999999 0.000000 1.000000 0.000000 0.000000 2780.dat
1 1 19.983940 -14.227490 89.999880 0.000001 0.000001 1.000000 -0.999999 0.000001 0.000001 -0.000001 -1.000000 0.000001 32271.dat
0 STEP
1 1 -0.016010 -24.227380 110.000000 1.000000 0.000000 0.000000 0.000000 0.999999 0.000000 0.000000 0.000000 1.000000 3895.dat
1 0 -100.016300 -14.227350 100.000000 0.000000 0.000000 -1.000000 0.000000 0.999999 0.000000 1.000000 0.000000 0.000000 2780.dat
1 0 99.983920 -14.227480 100.000000 0.000000 0.000000 -1.000000 0.000000 0.999999 0.000000 1.000000 0.000000 0.000000 2780.dat
0 STEP
1 71 139.982900 -14.227180 70.000680 0.802890 -0.596127 0.000000 0.596126 0.802889 0.000000 0.000000 0.000000 1.000000 3713.dat
1 0 151.905600 -30.284930 63.470820 0.000000 -0.596128 0.802891 0.000000 0.802888 0.596127 -1.000000 0.000000 0.000000 3705.dat
1 0 139.982900 -14.227200 60.000680 0.000000 -0.596128 0.802891 0.000000 0.802888 0.596127 -1.000000 0.000000 0.000000 3705.dat
1 71 151.905600 -30.284920 69.820800 0.802890 -0.596127 0.000000 0.596126 0.802889 0.000000 0.000000 0.000000 1.000000 3713.dat
0 STEP
1 0 145.944200 -22.256060 10.000300 -0.596128 0.802891 0.000000 0.802888 0.596127 0.000000 0.000000 0.000000 -1.000000 2780.dat
1 4 151.905500 -30.284930 10.000300 -0.596128 -0.802891 0.000000 0.802888 -0.596127 0.000000 0.000000 0.000000 1.000000 32034.dat
1 4 139.982800 -14.227270 10.000300 -0.596128 -0.802891 0.000000 0.802888 -0.596127 0.000000 0.000000 0.000000 1.000000 32034.dat
0 STEP
1 71 139.983900 -14.227180 -50.000120 -0.802890 -0.596128 0.000000 -0.596127 0.802889 0.000000 0.000000 0.000000 -1.000000 3713.dat
1 71 151.905500 -30.285000 -49.997800 -0.802890 -0.596128 0.000000 -0.596127 0.802889 0.000000 0.000000 0.000000 -1.000000 3713.dat
1 0 151.905500 -30.284980 -39.997920 0.000000 -0.596128 0.802891 0.000000 0.802888 0.596127 -0.999999 0.000000 0.000000 3705.dat
1 0 139.983900 -14.227200 -40.000120 0.000000 -0.596128 0.802890 0.000000 0.802889 0.596127 -1.000000 0.000000 0.000000 3705.dat
0 STEP
1 71 163.983900 -46.227220 69.999880 0.804821 -0.593517 -0.000001 0.593516 0.804821 -0.000001 0.000001 0.000000 1.000000 3713.dat
1 71 163.983900 -46.227140 -50.000120 -0.804821 -0.593517 0.000001 -0.593516 0.804821 0.000001 -0.000001 0.000000 -1.000000 3713.dat
1 0 163.983900 -46.227170 -0.000120 0.000001 -0.593517 0.804822 0.000000 0.804821 0.593516 -1.000000 0.000000 0.000001 3707.dat
0 STEP
1 0 79.983840 -14.227200 -60.000240 0.000000 0.000000 -1.000000 0.000000 0.999999 0.000000 1.000000 0.000000 0.000000 2780.dat
1 1 19.983820 -14.227220 -70.000240 0.000000 0.000001 1.000000 -0.999999 0.000001 0.000000 -0.000001 -1.000000 0.000001 32271.dat
0 STEP
1 1 -0.016010 -24.227300 -90.000000 1.000000 0.000000 0.000000 0.000000 0.999999 0.000000 0.000000 0.000000 1.000000 3895.dat
1 0 99.983860 -14.227210 -80.000240 0.000000 0.000000 -1.000000 0.000000 0.999999 0.000000 1.000000 0.000000 0.000000 2780.dat
1 0 -100.016300 -14.227280 -80.000000 0.000000 0.000000 -1.000000 0.000000 0.999999 0.000000 1.000000 0.000000 0.000000 2780.dat
0 STEP
0 STEP
