0 Untitled Model
0 Name:  皮划艇
0 Author:  
0 CustomBrick
0 NumOfBricks:  45
1 15 -150.000200 -31.999990 -0.000180 0.000000 0.000000 -1.000000 0.000000 1.000000 0.000000 1.000000 0.000000 0.000000 32064a.dat
0 STEP
1 19 -159.810100 -22.000010 -0.000300 0.999992 0.000001 -0.000001 0.000001 -1.000000 0.000001 -0.000001 -0.000001 -0.999992 3749.dat
1 4 -169.810000 -22.000030 -0.000300 -0.999992 0.000000 0.000000 0.000000 -1.000000 0.000000 0.000000 0.000000 0.999992 32034.dat
0 STEP
1 1 -140.000500 -7.999980 10.000490 1.000008 0.000000 0.000000 0.000000 1.000000 0.000000 0.000000 0.000000 1.000008 3710.dat
1 1 -140.000100 -7.999980 -10.000180 1.000000 0.000000 0.000000 0.000000 1.000000 0.000000 0.000000 0.000000 1.000000 3710.dat
0 STEP
1 1 -120.000100 -31.999990 10.000120 -1.000000 0.000000 0.000000 0.000000 1.000000 0.000000 0.000000 0.000000 -1.000000 3700.dat
1 1 -120.000200 -31.999990 -10.000180 1.000000 0.000000 0.000000 0.000000 1.000000 0.000000 0.000000 0.000000 1.000000 3700.dat
0 STEP
1 15 -120.000200 -55.999980 -0.000180 0.999992 0.000000 0.000000 0.000000 1.000000 0.000000 0.000000 0.000000 0.999992 3001.dat
0 STEP
1 1 -80.000110 -31.999990 10.000060 1.000000 0.000001 0.000000 -0.000001 1.000000 0.000000 0.000000 0.000000 1.000000 3700.dat
1 1 -80.000110 -32.000000 -10.000180 1.000000 0.000001 0.000000 -0.000001 1.000000 0.000000 0.000000 0.000000 1.000000 3700.dat
1 1 -60.000020 -8.000000 0.000060 -1.000000 0.000000 0.000000 0.000000 1.000000 0.000000 0.000000 0.000000 -1.000000 3709b.dat
0 STEP
1 0 -120.000100 -21.999990 19.999810 0.000000 0.000000 -1.000000 0.000000 -1.000000 0.000000 -1.000000 0.000000 0.000000 2780.dat
1 0 -80.000170 -21.999990 20.000050 0.000000 0.000000 -1.000000 0.000000 -1.000000 0.000000 -1.000000 0.000000 0.000000 2780.dat
0 STEP
1 0 -120.000200 -21.999990 -19.999930 0.000000 0.000000 -1.000000 0.000000 1.000000 0.000000 1.000000 0.000000 0.000000 2780.dat
1 0 -80.000110 -22.000000 -20.000180 0.000000 0.000000 -1.000000 0.000000 1.000000 0.000000 1.000000 0.000000 0.000000 2780.dat
0 STEP
1 1 -120.000200 -79.999980 -10.000180 0.999992 0.000000 0.000000 0.000000 1.000000 0.000000 0.000000 0.000000 0.999992 3701.dat
1 1 -120.000200 -79.999980 9.999690 0.999992 0.000000 0.000000 0.000000 1.000000 0.000000 0.000000 0.000000 0.999992 3701.dat
0 STEP
1 1 -149.999900 -104.000000 -0.000180 0.000000 0.000000 0.999992 0.000000 1.000000 0.000000 -0.999992 0.000000 0.000000 3701.dat
0 STEP
1 71 -159.999900 -94.000070 19.999830 -1.000000 0.000000 0.000000 0.000000 1.000000 0.000000 0.000000 0.000000 -1.000000 3673.dat
1 71 -159.999900 -94.000030 -20.000170 -1.000000 0.000000 0.000000 0.000000 1.000000 0.000000 0.000000 0.000000 -1.000000 3673.dat
1 15 -169.999900 -94.000040 -0.000180 0.000001 1.000000 0.000001 -1.000000 0.000001 -0.000001 -0.000001 -0.000001 1.000000 32523.dat
1 19 -179.999900 -93.999950 -0.000240 -1.000000 -0.000001 0.000001 0.000001 0.000001 1.000000 -0.000001 1.000000 -0.000001 3749.dat
0 STEP
1 14 -194.999900 -93.999940 -0.000240 0.000000 0.000000 1.000000 -1.000000 0.000000 0.000000 0.000000 -1.000000 0.000000 32123a.dat
1 19 -182.799900 -93.999950 -0.000240 0.000001 0.000000 -1.000000 1.000000 0.000000 0.000001 0.000000 -1.000000 0.000000 6589.dat
0 STEP
1 15 -110.000300 -104.000000 -0.000180 0.000000 0.000000 0.999992 0.000000 1.000000 0.000000 -0.999992 0.000000 0.000000 32064a.dat
1 15 -130.000100 -104.000000 -0.000180 0.000000 0.000000 -0.999992 0.000000 1.000000 0.000000 0.999992 0.000000 0.000000 32064a.dat
0 STEP
1 15 -120.000200 -128.000000 -0.000180 0.999992 0.000000 0.000000 0.000000 1.000000 0.000000 0.000000 0.000000 0.999992 3941.dat
1 19 -120.000200 -128.000000 -0.000180 -0.000001 0.999992 -0.000001 1.000000 0.000001 -0.000001 -0.000001 -0.000001 -0.999992 3749.dat
0 STEP
1 15 -80.000170 -21.999940 -29.999940 0.000001 0.000001 -1.000000 -1.000000 0.000001 -0.000001 0.000001 1.000000 0.000001 32316.dat
1 15 -80.000480 -22.000050 29.999320 0.000001 0.000001 -1.000000 1.000000 -0.000001 0.000001 -0.000001 -1.000000 -0.000001 32316.dat
0 STEP
1 1 40.000000 -8.000000 0.000000 1.000000 0.000000 0.000000 0.000000 1.000000 0.000000 0.000000 0.000000 1.000000 32001.dat
1 1 -20.000080 -16.000000 0.000060 -1.000000 0.000000 0.000000 0.000000 1.000000 0.000000 0.000000 0.000000 -1.000000 3709b.dat
0 STEP
1 1 49.999870 -40.000000 0.000180 0.000000 0.000000 1.000000 0.000000 1.000000 0.000000 -1.000000 0.000000 0.000000 3023.dat
1 15 49.999870 -32.000000 10.000300 0.000000 0.000000 1.000000 0.000000 1.000000 0.000000 -1.000000 0.000000 0.000000 3040b.dat
1 15 49.999870 -32.000000 -9.999750 0.000000 0.000000 1.000000 0.000000 1.000000 0.000000 -1.000000 0.000000 0.000000 3040b.dat
0 STEP
1 1 99.999820 -16.000000 0.000060 -1.000000 0.000000 0.000000 0.000000 1.000000 0.000000 0.000000 0.000000 -1.000000 3709b.dat
1 1 159.999800 -8.000000 0.000060 1.000000 0.000000 0.000000 0.000000 1.000000 0.000000 0.000000 0.000000 1.000000 32001.dat
0 STEP
1 15 169.999700 -32.000000 10.000430 0.000000 0.000000 1.000000 0.000000 1.000000 0.000000 -1.000000 0.000000 0.000000 3040b.dat
1 15 169.999900 -32.000000 -10.000050 0.000000 0.000000 1.000001 0.000000 1.000000 0.000000 -1.000001 0.000000 0.000000 3040b.dat
0 STEP
1 1 169.999900 -40.000000 -0.000120 0.000000 0.000000 1.000000 0.000000 1.000000 0.000000 -1.000000 0.000000 0.000000 3023.dat
1 15 199.999800 -32.000000 0.000060 1.000000 0.000000 0.000000 0.000000 1.000000 0.000000 0.000000 0.000000 1.000000 3941.dat
0 STEP
1 0 199.999800 -70.500000 0.000060 0.000000 0.000000 1.000000 -1.000000 0.000000 0.000000 0.000000 -1.000000 0.000000 3706.dat
1 4 199.999800 -123.490000 0.000000 -1.000000 0.000000 0.000000 0.000000 -0.000001 1.000000 0.000000 1.000000 0.000001 32039.dat
0 STEP
1 71 217.999800 -123.490000 0.000000 0.000000 0.000000 1.000000 0.000000 -1.000000 0.000000 1.000000 0.000000 0.000000 4185.dat
1 19 209.999800 -143.490000 0.000000 -1.000000 -0.000001 0.000001 0.000001 0.000001 1.000000 -0.000001 1.000000 -0.000001 3749.dat
0 STEP
0 STEP
