0 Untitled Model
0 Name:  矿车
0 Author:  
0 CustomBrick
0 NumOfBricks:  56
1 0 -9.540050 -43.999970 -160.000700 0.000000 0.000000 1.000000 -1.000000 0.000000 0.000000 0.000000 -1.000000 0.000000 2780.dat
1 0 70.459960 -43.999970 -40.000670 0.000000 1.000000 0.000000 1.000000 0.000000 0.000000 0.000000 0.000000 -1.000000 2780.dat
1 0 -9.540040 -43.999970 -40.000670 0.000000 -1.000000 0.000000 -1.000000 0.000000 0.000000 0.000000 0.000000 -1.000000 2780.dat
1 0 70.459960 -43.999970 -160.000700 0.000000 1.000000 0.000000 1.000000 0.000000 0.000000 0.000000 0.000000 -1.000000 2780.dat
1 71 30.459960 -33.999980 -100.000700 -1.000000 0.000000 0.000000 0.000000 1.000000 0.000000 0.000000 0.000000 -1.000000 64179.dat
0 STEP
1 71 30.459960 -53.999970 -100.000700 -1.000000 0.000000 0.000000 0.000000 1.000000 0.000000 0.000000 0.000000 -1.000000 64179.dat
0 STEP
1 0 70.459960 -63.499970 -80.000680 0.000000 0.000000 -1.000000 1.000000 0.000000 0.000000 0.000000 -1.000000 0.000000 2780.dat
1 0 70.459960 -63.999970 -120.000700 0.000000 0.000000 -1.000000 1.000000 0.000000 0.000000 0.000000 -1.000000 0.000000 2780.dat
1 0 -9.540110 -63.519970 -80.000800 0.000000 0.000000 -1.000000 1.000000 0.000000 0.000000 0.000000 -1.000000 0.000000 2780.dat
1 0 -9.540080 -61.819970 -120.000800 0.000000 0.000000 -1.000000 1.000000 0.000000 0.000000 0.000000 -1.000000 0.000000 2780.dat
0 STEP
1 1 70.459960 -75.499970 -120.000700 -1.000000 0.000000 0.000000 0.000000 1.000000 0.000000 0.000000 0.000000 -1.000000 3709b.dat
1 1 -9.540110 -75.499970 -80.000800 -1.000000 0.000000 0.000000 0.000000 1.000000 0.000000 0.000000 0.000000 -1.000000 3709b.dat
1 1 -9.540080 -75.499970 -120.000800 -1.000000 0.000000 0.000000 0.000000 1.000000 0.000000 0.000000 0.000000 -1.000000 3709b.dat
1 1 70.459960 -75.499970 -80.000680 -1.000000 0.000000 0.000000 0.000000 1.000000 0.000000 0.000000 0.000000 -1.000000 3709b.dat
0 STEP
1 1 30.459960 -83.499970 -120.000700 1.000000 0.000000 0.000000 0.000000 1.000000 0.000000 0.000000 0.000000 1.000000 32001.dat
1 1 30.459960 -83.499970 -80.000680 1.000000 0.000000 0.000000 0.000000 1.000000 0.000000 0.000000 0.000000 1.000000 32001.dat
0 STEP
1 1 -39.540100 -99.499970 -100.000800 0.000000 0.000000 1.000000 0.000000 1.000000 0.000000 -1.000000 0.000000 0.000000 3895.dat
0 STEP
1 1 30.459920 -75.499970 -160.000500 1.000000 0.000000 0.000000 0.000000 1.000000 0.000000 0.000000 0.000000 1.000000 3738.dat
1 1 30.459920 -83.499970 -180.000500 -1.000000 0.000000 0.000000 0.000000 1.000000 0.000000 0.000000 0.000000 -1.000000 3709b.dat
0 STEP
1 1 30.459920 -75.499970 -200.000500 1.000000 0.000000 0.000000 0.000000 1.000000 0.000000 0.000000 0.000000 1.000000 3738.dat
1 1 30.459900 -99.499970 -210.000500 1.000000 0.000000 0.000000 0.000000 1.000000 0.000000 0.000000 0.000000 1.000000 3894.dat
0 STEP
1 1 30.459930 -75.499970 -40.000670 1.000000 0.000000 0.000000 0.000000 1.000000 0.000000 0.000000 0.000000 1.000000 3738.dat
0 STEP
1 1 100.460000 -99.499970 -100.000700 0.000000 0.000000 1.000000 0.000000 1.000000 0.000000 -1.000000 0.000000 0.000000 3895.dat
0 STEP
1 0 -19.540050 -53.999970 -140.000700 -1.000000 0.000000 0.000000 0.000000 1.000000 0.000000 0.000000 0.000000 -1.000000 2780.dat
1 0 -19.540050 -53.999970 -60.000680 -1.000000 0.000000 0.000000 0.000000 1.000000 0.000000 0.000000 0.000000 -1.000000 2780.dat
1 15 -29.540020 -54.000000 -100.000700 0.000001 1.000000 0.000001 -1.000000 0.000001 -0.000001 -0.000001 -0.000001 1.000000 40490.dat
0 STEP
1 0 80.459960 -53.999970 -60.000680 -1.000000 0.000000 0.000000 0.000000 1.000000 0.000000 0.000000 0.000000 -1.000000 2780.dat
1 0 80.459960 -53.999970 -140.000700 -1.000000 0.000000 0.000000 0.000000 1.000000 0.000000 0.000000 0.000000 -1.000000 2780.dat
1 15 90.459980 -54.000000 -100.000700 0.000001 1.000000 0.000001 -1.000000 0.000001 -0.000001 -0.000001 -0.000001 1.000000 40490.dat
0 STEP
1 1 30.459930 -75.499970 -0.000670 1.000000 0.000000 0.000000 0.000000 1.000000 0.000000 0.000000 0.000000 1.000000 3738.dat
1 1 30.459930 -83.499970 -20.000670 -1.000000 0.000000 0.000000 0.000000 1.000000 0.000000 0.000000 0.000000 -1.000000 3709b.dat
0 STEP
1 0 34.509890 -54.000080 -180.000500 -1.000000 0.000000 0.000000 0.000000 1.000000 0.000000 0.000000 0.000000 -1.000000 3708.dat
1 14 104.959900 -54.000080 -180.000500 0.000000 0.000000 -1.000000 -1.000000 0.000000 0.000000 0.000000 1.000000 0.000000 32123a.dat
1 14 -43.310100 -54.000080 -180.000500 0.000000 0.000000 1.000000 1.000000 0.000000 0.000000 0.000000 1.000000 0.000000 32123a.dat
0 STEP
1 14 104.250000 -54.000130 -20.000550 0.000000 0.000000 -1.000000 -1.000000 0.000000 0.000000 0.000000 1.000000 0.000000 32123a.dat
1 0 36.660040 -54.000130 -20.000550 -1.000000 0.000000 0.000000 0.000000 1.000000 0.000000 0.000000 0.000000 -1.000000 3708.dat
1 14 -42.159960 -54.000130 -20.000550 0.000000 0.000000 1.000000 1.000000 0.000000 0.000000 0.000000 1.000000 0.000000 32123a.dat
0 STEP
1 1 -39.540080 -123.500000 -100.000900 0.000000 0.000000 1.000000 0.000000 1.000000 0.000000 -1.000000 0.000000 0.000000 3895.dat
1 1 100.460000 -123.500000 -100.000800 0.000000 0.000000 1.000000 0.000000 1.000000 0.000000 -1.000000 0.000000 0.000000 3895.dat
1 1 30.459900 -123.500000 -210.000500 1.000000 0.000000 0.000000 0.000000 1.000000 0.000000 0.000000 0.000000 1.000000 3894.dat
0 STEP
1 1 30.459930 -123.500000 9.999330 1.000000 0.000000 0.000000 0.000000 1.000000 0.000000 0.000000 0.000000 1.000000 3894.dat
1 1 30.459930 -99.499970 9.999330 1.000000 0.000000 0.000000 0.000000 1.000000 0.000000 0.000000 0.000000 1.000000 3894.dat
0 STEP
1 1 30.459930 -147.500000 9.999330 1.000000 0.000000 0.000000 0.000000 1.000000 0.000000 0.000000 0.000000 1.000000 3894.dat
1 1 -39.540100 -147.500000 -100.000900 0.000000 0.000000 1.000000 0.000000 1.000000 0.000000 -1.000000 0.000000 0.000000 3895.dat
1 1 30.459900 -147.500000 -210.000500 1.000000 0.000000 0.000000 0.000000 1.000000 0.000000 0.000000 0.000000 1.000000 3894.dat
1 1 100.460000 -147.500000 -100.000800 0.000000 0.000000 1.000000 0.000000 1.000000 0.000000 -1.000000 0.000000 0.000000 3895.dat
0 STEP
1 1 30.459990 -171.500000 -210.000800 1.000000 0.000000 0.000000 0.000000 1.000000 0.000000 0.000000 0.000000 1.000000 3702.dat
1 1 30.459990 -195.500000 -210.000800 1.000000 0.000000 0.000000 0.000000 1.000000 0.000000 0.000000 0.000000 1.000000 3701.dat
0 STEP
1 0 136.719900 -54.000080 -180.000500 0.000000 0.000000 1.000000 0.000000 -1.000000 0.000000 1.000000 0.000000 0.000000 44309.dat
1 71 136.719900 -54.000080 -180.000500 0.000000 0.000000 1.000000 -1.000000 0.000000 0.000000 0.000000 -1.000000 0.000000 56145.dat
1 0 136.660000 -54.000130 -20.000550 0.000000 0.000000 1.000000 -1.000000 0.000000 0.000000 0.000000 -1.000000 0.000000 44309.dat
1 71 136.660000 -54.000130 -20.000550 0.000000 0.000000 1.000000 0.000000 1.000000 0.000000 -1.000000 0.000000 0.000000 56145.dat
0 STEP
1 0 -80.000000 -54.000000 -20.000000 0.000000 0.000000 -1.000000 1.000000 0.000000 0.000000 0.000000 -1.000000 0.000000 44309.dat
1 71 -79.999970 -54.000130 -20.000550 0.000000 0.000000 -1.000000 0.000000 -1.000000 0.000000 -1.000000 0.000000 0.000000 56145.dat
1 0 -78.920120 -54.000080 -180.000500 0.000000 0.000000 -1.000000 0.000000 -1.000001 0.000000 -1.000000 0.000000 0.000000 44309.dat
1 71 -78.920120 -54.000080 -180.000500 0.000000 0.000000 -1.000000 -1.000000 0.000000 0.000000 0.000000 1.000000 0.000000 56145.dat
0 STEP
0 STEP
