0 Untitled Model
0 Name:  机械蝴蝶
0 Author:  
0 CustomBrick
0 NumOfBricks:  72
1 1 -164.575800 -38.000120 27.999080 0.000000 1.000000 0.000000 -1.000000 0.000000 0.000000 0.000000 0.000000 1.000000 32009.dat
0 STEP
1 1 -144.576600 -38.000150 -52.000920 1.000003 0.000000 0.000000 0.000000 1.000003 0.000000 0.000000 0.000000 1.000000 6558.dat
1 4 -144.576600 -38.000150 -52.000920 0.000000 0.000000 -1.000003 1.000003 0.000000 0.000000 0.000000 -1.000000 0.000000 42003.dat
1 1 -144.576600 -38.000150 -72.000920 1.000003 0.000000 0.000000 0.000000 1.000003 0.000000 0.000000 0.000000 1.000000 6558.dat
0 STEP
1 1 -144.276500 -198.000400 107.999200 0.000000 1.000003 0.000000 0.800003 0.000000 0.600001 0.600000 0.000000 -0.800000 6629.dat
1 71 -144.576600 -118.000300 27.999080 -1.000003 0.000000 0.000000 0.000000 0.000000 1.000003 0.000000 1.000000 0.000000 4519.dat
1 71 -144.226600 -78.000230 27.999080 -1.000003 0.000000 0.000000 0.000000 0.000000 1.000003 0.000000 1.000000 0.000000 4519.dat
0 STEP
1 1 -124.576600 -38.000150 27.999080 0.000000 1.000003 0.000000 -1.000003 0.000000 0.000000 0.000000 0.000000 1.000000 32009.dat
0 STEP
1 14 -109.256500 -38.000140 -12.000920 0.000000 0.000000 -1.000000 0.000000 -1.000000 0.000000 -1.000000 0.000000 0.000000 32123a.dat
1 0 -147.256600 -38.000130 -12.000920 -1.000003 0.000000 0.000000 0.000000 1.000003 0.000000 0.000000 0.000000 -1.000000 3707.dat
1 14 -179.436700 -38.000130 -12.001040 0.000000 0.000000 -1.000000 0.000000 -1.000000 0.000000 -1.000000 0.000000 0.000000 32123a.dat
0 STEP
1 0 -84.000000 -38.000020 -12.000000 0.000001 0.000000 -1.000000 -1.000000 0.000000 -0.000001 0.000000 1.000000 0.000000 30391.dat
1 71 -84.256510 -38.000140 -12.000790 0.000000 0.000000 -1.000000 0.000000 1.000000 0.000000 1.000000 0.000000 0.000000 55982.dat
1 0 -204.423500 -38.000010 -12.001830 -0.000001 0.000000 1.000000 -1.000000 0.000000 -0.000001 0.000000 -1.000000 0.000000 30391.dat
1 71 -204.166700 -38.000130 -12.001040 0.000000 0.000000 1.000000 0.000000 1.000000 0.000000 -1.000000 0.000000 0.000000 55982.dat
0 STEP
1 4 -144.576600 -138.000500 -52.000920 0.000000 1.000000 0.000001 1.000000 0.000000 0.000000 0.000000 0.000001 -1.000000 32039.dat
1 0 -144.576600 -108.000500 -32.000920 0.000000 -1.000000 0.000000 -1.000000 0.000000 0.000000 0.000000 0.000000 -1.000000 3707.dat
1 71 -144.576500 -138.000500 -72.000920 0.000000 -1.000000 0.000000 0.000000 0.000000 1.000000 -1.000000 0.000000 0.000000 4519.dat
0 STEP
1 4 -144.576700 -198.000500 -32.000920 -0.000001 -0.000001 -1.000000 -1.000000 -0.000001 0.000001 -0.000001 1.000000 -0.000002 32054.dat
1 71 -144.576500 -157.730500 -72.001040 0.000000 -1.000000 0.000000 0.000000 0.000000 1.000000 -1.000000 0.000000 0.000000 4519.dat
1 4 -144.576600 -157.730500 -52.001040 0.000000 1.000000 0.000001 1.000000 0.000000 0.000000 0.000000 0.000001 -1.000000 32039.dat
0 STEP
1 72 -144.576600 -177.730500 -67.031020 -1.000000 0.000000 0.000000 0.000000 0.000000 1.000000 0.000000 1.000000 0.000000 99773.dat
1 71 -144.576500 -157.730500 -81.740920 1.000000 0.000000 0.000001 0.000000 1.000000 0.000000 -0.000001 0.000000 1.000000 3713.dat
1 71 -144.576500 -138.000500 -82.100900 1.000000 0.000000 0.000001 0.000000 1.000000 0.000000 -0.000001 0.000000 1.000000 3713.dat
0 STEP
1 0 -99.696120 -38.000140 -112.000900 0.000000 0.000000 -1.000000 0.000000 1.000000 0.000000 1.000000 0.000000 0.000000 2815.dat
1 71 -109.576200 -38.000140 -112.001000 0.000000 0.000000 1.000003 0.000000 1.000003 0.000000 -1.000000 0.000000 0.000000 4185.dat
1 71 -144.576600 -38.000150 -112.000900 -1.000003 0.000000 0.000000 0.000000 1.000003 0.000000 0.000000 0.000000 -1.000000 32073.dat
1 71 -99.696120 -38.000140 -112.000900 0.000000 0.000000 1.000003 0.000000 1.000003 0.000000 -1.000000 0.000000 0.000000 4185.dat
0 STEP
1 0 -189.576600 -38.000150 -112.000900 0.000000 0.000000 -1.000000 0.000000 1.000000 0.000000 1.000000 0.000000 0.000000 2815.dat
1 71 -179.786600 -38.000140 -112.001000 0.000000 0.000000 1.000003 0.000000 1.000003 0.000000 -1.000000 0.000000 0.000000 4185.dat
1 71 -189.576600 -38.000150 -112.000900 0.000000 0.000000 1.000003 0.000000 1.000003 0.000000 -1.000000 0.000000 0.000000 4185.dat
0 STEP
1 0 -194.786500 -18.000090 -112.001000 -1.000000 0.000000 0.000000 0.000000 1.000000 0.000000 0.000000 0.000000 -1.000000 2780.dat
1 0 -204.786500 -18.000060 -112.001000 1.000000 0.000002 0.000002 -0.000002 -0.000002 1.000000 0.000002 -1.000000 -0.000002 32013.dat
0 STEP
1 4 -204.786300 -153.000500 -111.998200 0.000000 0.999997 0.000001 0.000000 -0.000001 1.000003 1.000000 0.000000 0.000000 32039.dat
1 0 -204.787000 -101.000400 -112.002200 0.000000 0.000000 1.000001 1.000004 0.000000 0.000000 0.000000 1.000006 0.000000 3706.dat
0 STEP
1 72 -164.576600 -177.730500 -72.031020 0.000001 0.000000 1.000000 0.000000 -1.000000 0.000000 1.000000 0.000000 -0.000001 32002.dat
1 15 -303.758400 -162.616200 -82.031020 0.107959 0.000001 -0.994155 0.994155 -0.000001 0.107959 -0.000001 -1.000000 -0.000001 64871.dat
0 STEP
1 14 -204.786300 -173.000500 -66.908320 -1.000000 0.000000 0.000000 0.000000 1.000000 0.000000 0.000000 0.000000 -1.000000 32123a.dat
1 71 -204.786300 -173.000500 -131.858400 1.000000 0.000000 0.000001 0.000000 1.000000 0.000000 -0.000001 0.000000 1.000000 3713.dat
1 71 -204.786300 -173.000500 -92.168330 0.000000 0.000000 1.000000 0.000000 1.000000 0.000000 -1.000000 0.000000 0.000000 32073.dat
0 STEP
1 0 -93.576190 -18.000090 -112.001000 -1.000000 0.000000 0.000000 0.000000 1.000000 0.000000 0.000000 0.000000 -1.000000 2780.dat
1 0 -83.576210 -18.000060 -112.001000 1.000000 0.000002 0.000002 -0.000002 -0.000002 1.000000 0.000002 -1.000000 -0.000002 32013.dat
0 STEP
1 4 -83.576610 -151.999900 -111.999100 0.000000 1.000000 0.000001 0.000000 -0.000001 1.000000 1.000000 0.000000 0.000000 32039.dat
1 0 -83.576300 -102.000100 -112.000900 0.000000 0.000000 1.000000 1.000000 0.000000 0.000000 0.000000 1.000000 0.000000 3706.dat
0 STEP
1 72 -124.576500 -177.730500 -72.031020 0.000001 0.000000 1.000000 0.000000 -1.000000 0.000000 1.000000 0.000000 -0.000001 32002.dat
1 15 14.409780 -160.915100 -82.031020 -0.120109 -0.000001 0.992759 0.992759 -0.000001 0.120109 0.000001 1.000000 0.000001 64871.dat
1 71 -83.576610 -172.000000 -91.659240 0.000000 0.000000 1.000000 0.000000 1.000000 0.000000 -1.000000 0.000000 0.000000 32073.dat
0 STEP
1 14 -83.576610 -172.000000 -66.869200 -1.000000 0.000000 0.000000 0.000000 1.000000 0.000000 0.000000 0.000000 -1.000000 32123a.dat
1 71 -83.576610 -172.000000 -131.699200 1.000000 0.000000 0.000001 0.000000 1.000000 0.000000 -0.000001 0.000000 1.000000 3713.dat
0 STEP
1 0 -164.276700 -229.668500 150.223500 0.000000 0.000000 1.000000 0.600001 0.800000 0.000000 -0.800000 0.600001 0.000000 3705.dat
1 71 -144.276600 -198.000400 107.999000 -1.000000 0.000000 0.000000 0.000000 -0.600001 0.800000 0.000000 0.800001 0.600002 4519.dat
1 4 -164.276700 -210.000500 123.999500 -1.000000 0.000000 0.000000 0.000000 -0.799999 -0.600000 0.000000 -0.600001 0.799999 32039.dat
0 STEP
1 4 -124.276700 -210.000400 123.999000 -1.000000 0.000000 0.000000 0.000000 -0.800000 -0.600001 0.000000 -0.600001 0.800000 32039.dat
1 0 -124.276700 -228.882600 149.175100 0.000000 0.000000 1.000000 0.600001 0.800000 0.000000 -0.800000 0.600001 0.000000 3705.dat
0 STEP
1 1 -263.992200 -166.934600 -62.031000 0.000000 0.000000 -1.000000 0.000000 1.000000 0.000000 1.000000 0.000000 0.000000 6558.dat
1 1 -403.173900 -151.820300 -62.031140 0.000000 0.000000 -1.000000 0.000000 1.000000 0.000000 1.000000 0.000000 0.000000 6558.dat
1 15 -383.290800 -153.979500 -42.031190 0.107959 0.000001 -0.994156 0.994155 -0.000002 0.107959 -0.000001 -1.000000 -0.000001 64871.dat
0 STEP
1 1 -303.758300 -162.616300 -22.031130 0.000000 0.000000 -1.000000 0.000000 1.000000 0.000000 1.000000 0.000000 0.000000 6558.dat
1 1 -383.290800 -153.979600 -22.031190 0.000000 0.000000 -1.000000 0.000000 1.000000 0.000000 1.000000 0.000000 0.000000 6558.dat
1 15 -383.290600 -153.979600 -2.031190 0.107959 0.000001 -0.994155 0.994155 -0.000002 0.107959 -0.000001 -1.000000 -0.000001 64871.dat
0 STEP
1 0 -343.524500 -158.298000 7.968870 0.000000 -0.120109 -0.992761 -0.000001 0.992761 -0.120109 1.000000 0.000001 0.000000 2780.dat
1 0 -442.940100 -147.502100 7.968810 0.000000 -0.120109 -0.992761 -0.000001 0.992761 -0.120109 1.000000 0.000001 0.000000 2780.dat
1 1 -482.624500 -142.448700 17.968810 0.113209 0.000000 -0.993571 0.993571 0.000000 0.113209 0.000000 -1.000000 0.000000 32009.dat
0 STEP
1 1 -25.300630 -165.719600 -62.031000 0.000000 0.000000 -1.000000 0.000000 1.000000 0.000000 1.000000 0.000000 0.000000 6558.dat
1 1 113.685700 -148.904400 -62.031000 0.000000 0.000000 -1.000000 0.000000 1.000000 0.000000 1.000000 0.000000 0.000000 6558.dat
1 15 93.830470 -151.306500 -42.031000 -0.120109 -0.000001 0.992761 0.992761 -0.000001 0.120109 0.000001 1.000000 0.000001 64871.dat
0 STEP
1 1 14.409570 -160.915100 -22.031130 0.000000 0.000000 -1.000000 0.000000 1.000000 0.000000 1.000000 0.000000 0.000000 6558.dat
1 15 93.830360 -151.306500 -2.031010 -0.120109 0.000000 0.992761 0.992760 -0.000001 0.120109 0.000001 1.000002 0.000001 64871.dat
1 1 93.830470 -151.306500 -22.031010 0.000000 0.000000 -1.000000 0.000000 1.000000 0.000000 1.000000 0.000000 0.000000 6558.dat
0 STEP
1 0 54.120080 -156.110700 7.969360 0.000000 -0.120109 -0.992761 -0.000001 0.992760 -0.120109 1.000002 0.000001 0.000000 2780.dat
1 1 193.220100 -140.261500 17.970220 -0.113209 0.000000 0.993572 0.993572 0.000000 0.113209 0.000000 1.000000 0.000000 32009.dat
1 0 133.605900 -147.054200 7.969300 0.000000 -0.120109 -0.992761 -0.000001 0.992760 -0.120109 1.000002 0.000001 0.000000 2780.dat
0 STEP
0 STEP
