0 Untitled Model
0 Name:  拳击手
0 Author:  
0 CustomBrick
0 NumOfBricks:  59
1 1 332.359500 -352.500500 -163.000400 0.000000 -1.000004 0.000000 1.000000 0.000000 0.000000 0.000000 0.000000 1.000004 3702.dat
1 1 332.359500 -352.500400 -263.000600 0.000000 -1.000004 0.000000 1.000000 0.000000 0.000000 0.000000 0.000000 1.000004 3702.dat
1 1 332.361400 -192.500000 -163.001600 0.000000 -1.000002 0.000000 0.999998 0.000000 0.000000 0.000000 0.000000 1.000004 3702.dat
1 1 332.359600 -192.500300 -263.000600 0.000000 -1.000004 0.000000 1.000000 0.000000 0.000000 0.000000 0.000000 1.000004 3702.dat
1 1 340.359800 -272.500500 -213.000500 0.000000 -1.000004 0.000000 0.000000 0.000000 1.000000 -1.000004 0.000000 0.000000 32001.dat
0 STEP
1 1 340.359600 -412.500400 -213.000700 0.000000 -1.000004 0.000000 0.000000 0.000000 1.000000 -1.000004 0.000000 0.000000 32001.dat
1 1 340.359600 -132.500200 -213.000500 0.000000 -1.000004 0.000000 0.000000 0.000000 1.000000 -1.000004 0.000000 0.000000 32001.dat
0 STEP
1 1 364.360700 -272.500500 -263.000700 0.000000 -1.000004 0.000000 1.000000 0.000000 0.000000 0.000000 0.000000 1.000004 3703.dat
1 1 364.360700 -272.500500 -163.000500 0.000000 -1.000004 0.000000 1.000000 0.000000 0.000000 0.000000 0.000000 1.000004 3703.dat
0 STEP
1 1 372.360800 -132.500200 -213.000600 0.000000 -1.000004 0.000000 0.000000 0.000000 1.000000 -1.000004 0.000000 0.000000 32001.dat
0 STEP
1 15 308.359500 -132.500200 -163.000400 0.000000 -1.000004 0.000000 1.000000 0.000000 0.000000 0.000000 0.000000 1.000004 32064a.dat
1 15 308.359500 -132.500200 -263.000600 0.000000 -1.000004 0.000000 1.000000 0.000000 0.000000 0.000000 0.000000 1.000004 32064a.dat
0 STEP
1 1 401.000600 -119.020300 -253.000600 0.000000 -1.000004 0.000000 0.000000 0.000000 1.000000 -1.000004 0.000000 0.000000 3701.dat
1 1 401.000600 -118.330200 -173.000300 0.000000 -1.000004 0.000000 0.000000 0.000000 1.000000 -1.000004 0.000000 0.000000 3701.dat
0 STEP
1 4 391.000600 -192.500200 -153.000300 -1.000004 0.000000 0.000000 0.000000 -0.000001 1.000000 0.000000 1.000004 0.000001 32039.dat
1 19 401.000700 -212.500200 -153.000300 -1.000004 -0.000001 0.000001 0.000001 0.000001 1.000000 -0.000001 1.000004 -0.000001 3749.dat
1 0 391.000500 -102.500200 -153.000300 0.000000 -1.000004 0.000000 -1.000000 0.000000 0.000000 0.000000 0.000000 -1.000004 3737.dat
0 STEP
1 0 391.000600 -102.500200 -273.000400 0.000000 -1.000004 0.000000 -1.000000 0.000000 0.000000 0.000000 0.000000 -1.000004 3737.dat
1 19 401.000700 -212.500200 -273.000500 -1.000004 -0.000001 0.000001 0.000001 0.000001 1.000000 -0.000001 1.000004 -0.000001 3749.dat
1 4 391.000700 -192.500200 -273.000400 -1.000004 0.000000 0.000000 0.000000 -0.000001 1.000000 0.000000 1.000004 0.000001 32039.dat
0 STEP
1 15 425.000600 -118.330200 -183.000300 0.000000 -1.000004 0.000000 1.000000 0.000000 0.000000 0.000000 0.000000 1.000004 3040b.dat
1 15 425.000600 -119.020300 -243.000600 0.000000 -1.000004 0.000000 -1.000000 0.000000 0.000000 0.000000 0.000000 -1.000004 3040b.dat
1 15 425.000800 -119.020300 -263.000500 0.000000 -1.000004 0.000000 1.000000 0.000000 0.000000 0.000000 0.000000 1.000004 3040b.dat
1 15 425.000600 -118.330200 -163.000200 0.000000 -1.000004 0.000000 -1.000000 0.000000 0.000000 0.000000 0.000000 -1.000004 3040b.dat
0 STEP
1 1 433.000800 -118.330200 -173.000300 0.000000 -1.000004 0.000000 0.000000 0.000000 -1.000000 1.000004 0.000000 0.000000 3023.dat
1 1 433.000800 -119.020300 -253.000600 0.000000 -1.000004 0.000000 0.000000 0.000000 -1.000000 1.000004 0.000000 0.000000 3023.dat
0 STEP
1 0 391.000700 -33.600040 -273.000100 -1.000004 0.000000 0.000000 0.000000 0.000000 -1.000000 0.000000 -1.000004 0.000000 44309.dat
1 71 391.000700 -33.600180 -273.000400 0.000000 1.000004 0.000000 0.000000 0.000000 -1.000001 -1.000005 0.000000 0.000000 56145.dat
1 0 391.000400 -26.999960 -153.000000 -1.000004 0.000000 0.000000 0.000000 0.000000 -1.000000 0.000000 -1.000004 0.000000 44309.dat
1 71 391.000600 -27.000060 -153.000200 0.000000 1.000004 0.000000 0.000000 0.000000 -1.000002 -1.000006 0.000000 0.000000 56145.dat
0 STEP
1 71 325.149400 -412.500400 -213.000500 -0.000001 0.000000 1.000004 0.000000 -1.000000 0.000000 1.000004 0.000000 0.000001 3713.dat
1 0 393.150900 -412.500400 -213.000400 1.000004 0.000001 0.000000 0.000000 -0.000001 -1.000000 -0.000001 1.000005 -0.000001 3707.dat
0 STEP
1 15 308.359600 -412.500400 -263.000600 0.000000 -1.000004 0.000000 1.000000 0.000000 0.000000 0.000000 0.000000 1.000004 32064a.dat
1 15 308.359600 -412.500500 -163.000500 0.000000 -1.000004 0.000000 1.000000 0.000000 0.000000 0.000000 0.000000 1.000004 32064a.dat
0 STEP
1 1 372.360800 -412.500400 -213.000700 0.000000 -1.000004 0.000000 0.000000 0.000000 1.000000 -1.000004 0.000000 0.000000 32001.dat
0 STEP
1 1 396.360800 -412.500400 -183.000600 0.000000 -1.000004 0.000000 1.000000 0.000000 0.000000 0.000000 0.000000 1.000004 3700.dat
1 1 396.360800 -412.500400 -243.000900 0.000000 -1.000004 0.000000 1.000000 0.000000 0.000000 0.000000 0.000000 1.000004 3700.dat
0 STEP
1 1 404.360900 -412.500400 -213.000700 0.000000 -1.000004 0.000000 0.000000 0.000000 1.000000 -1.000004 0.000000 0.000000 3709b.dat
0 STEP
1 14 414.200900 -412.500400 -213.000700 0.000000 0.000000 1.000004 1.000000 0.000000 0.000000 0.000000 1.000004 0.000000 32123a.dat
0 STEP
1 15 411.000900 -312.500600 -273.000500 0.000001 1.000004 0.000001 0.000001 0.000001 -1.000000 -1.000004 0.000001 -0.000001 64290.dat
1 15 411.000800 -312.500500 -153.000300 0.000001 1.000004 0.000001 0.000001 0.000001 -1.000000 -1.000004 0.000001 -0.000001 64290.dat
0 STEP
1 71 421.000800 -412.500400 -153.000500 -1.000004 0.000000 0.000000 0.000000 1.000000 0.000000 0.000000 0.000000 -1.000004 3673.dat
1 71 421.000800 -412.500400 -273.000800 -1.000004 0.000000 0.000000 0.000000 1.000000 0.000000 0.000000 0.000000 -1.000004 3673.dat
0 STEP
1 1 431.000000 -402.500300 -213.000000 0.000000 0.000000 1.000000 0.000000 -1.000000 0.000000 1.000000 0.000000 0.000000 3895.dat
0 STEP
1 71 450.630900 -412.500400 -213.000700 -0.000001 0.000000 1.000004 0.000000 -1.000000 0.000000 1.000004 0.000000 0.000001 3713.dat
0 STEP
1 19 441.000800 -412.500500 -133.000000 1.000004 0.000001 -0.000001 -0.000001 -0.000001 -1.000000 -0.000001 1.000005 -0.000001 3749.dat
1 19 441.000900 -412.500400 -293.001000 1.000004 0.000001 -0.000001 -0.000001 -0.000001 -1.000000 -0.000001 1.000005 -0.000001 3749.dat
1 0 441.000900 -412.500300 -313.001200 1.000004 0.000000 0.000000 0.000000 -1.000000 0.000000 0.000000 0.000000 -1.000004 2780.dat
1 0 441.000900 -412.500300 -112.999900 1.000004 0.000000 0.000000 0.000000 -1.000000 0.000000 0.000000 0.000000 -1.000004 2780.dat
0 STEP
1 1 451.000900 -412.500300 -373.001600 0.000000 1.000004 0.000000 0.000000 0.000000 1.000000 1.000004 0.000000 0.000000 32009.dat
1 1 451.001000 -412.500500 -52.999780 0.000000 -1.000004 0.000000 0.000000 0.000000 1.000000 -1.000004 0.000000 0.000000 32009.dat
0 STEP
1 0 421.000800 -252.500300 -273.000400 -1.000002 0.000000 0.000000 0.000000 0.999998 0.000000 0.000000 0.000000 -1.000004 2780.dat
1 0 421.000700 -252.500200 -153.000300 -1.000002 0.000000 0.000000 0.000000 0.999998 0.000000 0.000000 0.000000 -1.000004 2780.dat
1 4 431.000800 -252.500300 -273.000400 -1.000002 0.000000 0.000000 0.000000 -0.999998 0.000000 0.000000 0.000000 1.000004 32034.dat
1 4 431.000700 -252.500200 -153.000300 -1.000002 0.000000 0.000000 0.000000 -0.999998 0.000000 0.000000 0.000000 1.000004 32034.dat
0 STEP
1 0 461.001000 -532.500400 -52.999780 -1.000004 0.000000 0.000000 0.000000 1.000000 0.000000 0.000000 0.000000 -1.000004 2780.dat
1 0 461.000900 -532.500300 -373.001600 -1.000004 0.000000 0.000000 0.000000 1.000000 0.000000 0.000000 0.000000 -1.000004 2780.dat
1 4 471.000900 -532.500300 -373.001500 1.000004 0.000000 0.000000 0.000000 -1.000000 0.000000 0.000000 0.000000 -1.000004 32034.dat
1 4 471.001000 -532.500400 -52.999780 1.000004 0.000000 0.000000 0.000000 -1.000000 0.000000 0.000000 0.000000 -1.000004 32034.dat
0 STEP
0 STEP
