0 FILE 滚压机.io
0 Untitled Model
0 Name:  滚压机
0 Author:  
0 CustomBrick
0 NumOfBricks:  44
1 1 -105.000400 -89.000230 -263.029200 -0.999999 0.000001 0.000001 0.000001 0.000001 0.999999 0.000001 1.000000 -0.000001 32526.dat
0 STEP
1 14 -105.000400 -29.000260 -278.099100 0.000000 0.999999 0.000000 -0.999999 0.000000 0.000000 0.000000 0.000000 1.000000 32123a.dat
1 71 -105.000400 -29.000270 -213.189100 0.000000 0.000000 0.999999 0.000000 0.999999 0.000000 -1.000000 0.000000 0.000000 44294.dat
0 STEP
1 14 -105.000400 -29.000270 -247.879100 0.000000 0.999999 0.000000 -0.999999 0.000000 0.000000 0.000000 0.000000 1.000000 32123a.dat
1 14 -105.000400 -29.000270 -178.189100 0.000000 0.999999 0.000000 -0.999999 0.000000 0.000000 0.000000 0.000000 1.000000 32123a.dat
0 STEP
1 1 -105.000300 -89.000090 -163.209200 -0.999999 0.000001 0.000001 0.000001 0.000001 0.999999 0.000001 1.000000 -0.000001 32526.dat
1 14 -105.000300 -29.000270 -148.069100 0.000000 0.999999 0.000000 -0.999999 0.000000 0.000000 0.000000 0.000000 1.000000 32123a.dat
0 STEP
1 0 -145.000300 -9.000160 -153.209100 0.000000 0.000000 -1.000000 0.000000 0.999999 0.000000 1.000000 0.000000 0.000000 2780.dat
1 0 -105.000200 -9.000110 -153.209200 0.000000 0.000000 -0.999999 0.000000 0.999999 0.000000 1.000000 0.000000 0.000000 2780.dat
1 0 -145.000300 -9.000230 -273.029200 0.000000 0.000000 -0.999999 0.000000 1.000000 0.000000 1.000000 0.000000 0.000000 2780.dat
1 0 -105.000300 -9.000190 -273.029400 0.000000 0.000000 -1.000000 0.000000 1.000000 0.000000 1.000000 0.000000 0.000000 2780.dat
0 STEP
1 15 -105.000200 -9.000130 -143.209200 0.000001 0.000001 -0.999999 -0.999999 0.000001 -0.000001 0.000001 1.000000 0.000001 64290.dat
1 15 -105.000500 -9.000180 -283.029400 0.000001 0.000001 -0.999999 -1.000000 0.000001 -0.000001 0.000001 1.000000 0.000001 64290.dat
0 STEP
1 0 -105.000300 -89.000090 -153.209000 0.000000 -1.000000 0.000000 0.000000 0.000000 -1.000000 1.000000 0.000000 0.000000 2780.dat
1 0 -105.000300 -49.000120 -153.209200 0.000000 -0.999999 0.000000 0.000000 0.000000 -0.999999 1.000000 0.000000 0.000000 2780.dat
1 0 -105.000400 -89.000200 -273.029200 0.000000 -0.999999 0.000000 0.000000 0.000000 -0.999999 1.000000 0.000000 0.000000 2780.dat
1 0 -105.000300 -49.000280 -273.028800 0.000000 -0.999999 0.000000 0.000000 0.000000 -0.999999 1.000000 0.000000 0.000000 2780.dat
0 STEP
1 15 -105.000100 -189.000100 -283.169400 0.999999 -0.000001 0.000001 0.000001 0.000001 -1.000000 0.000001 1.000000 0.000001 64871.dat
0 STEP
1 0 -105.000100 -189.000100 -212.688900 0.000000 0.000000 0.999999 0.000000 0.999999 0.000000 -1.000000 0.000000 0.000000 3737.dat
1 0 -105.000000 -309.000100 -212.738700 0.000000 0.000000 0.999999 0.000000 0.999999 0.000000 -1.000000 0.000000 0.000000 3737.dat
0 STEP
1 14 -105.000000 -309.000100 -268.068800 -0.999999 0.000000 0.000000 0.000000 0.999999 0.000000 0.000000 0.000000 -1.000000 32123a.dat
1 14 -105.000100 -189.000100 -267.908900 -0.999999 0.000000 0.000000 0.000000 0.999999 0.000000 0.000000 0.000000 -1.000000 32123a.dat
0 STEP
1 0 -104.999600 -308.999700 -243.141300 -0.999999 0.000000 0.000000 0.000000 -0.999999 0.000000 0.000000 0.000000 1.000000 44309.dat
1 71 -105.000000 -309.000200 -243.138600 0.000000 1.000002 0.000000 -1.000002 0.000000 0.000000 0.000000 0.000000 1.000000 56145.dat
1 0 -104.999700 -188.999600 -243.011600 -0.999997 0.000000 0.000000 0.000000 -0.999997 0.000000 0.000000 0.000000 1.000000 44309.dat
1 71 -105.000100 -189.000100 -243.008900 0.000000 0.999999 0.000000 -0.999999 0.000000 0.000000 0.000000 0.000000 1.000000 56145.dat
0 STEP
1 0 -105.000000 -309.000100 -189.000000 -1.000000 0.000000 0.000000 0.000000 -1.000000 0.000000 0.000000 0.000000 1.000000 44309.dat
1 71 -105.000000 -309.000100 -188.998700 0.000000 1.000000 0.000000 -1.000000 0.000000 0.000000 0.000000 0.000000 1.000000 56145.dat
1 0 -105.000000 -189.000200 -188.870400 -0.999997 0.000000 0.000000 0.000000 -0.999997 0.000000 0.000000 0.000000 1.000000 44309.dat
1 71 -105.000100 -189.000000 -188.869000 0.000000 0.999997 0.000000 -0.999997 0.000000 0.000000 0.000000 0.000000 1.000000 56145.dat
0 STEP
1 14 -104.999900 -309.000100 -158.388800 0.000000 1.000000 0.000000 1.000000 0.000000 0.000000 0.000000 0.000000 -1.000000 32123a.dat
1 14 -105.000100 -189.000100 -158.598900 0.999999 0.000000 0.000000 0.000000 -0.999999 0.000000 0.000000 0.000000 -1.000000 32123a.dat
0 STEP
1 15 -105.000200 -189.000000 -143.209000 0.999999 -0.000001 0.000001 0.000001 0.000001 -0.999999 0.000001 1.000000 0.000001 64871.dat
0 STEP
1 0 -105.000200 -169.000000 -133.209000 0.000000 0.000000 -1.000000 0.000000 0.999999 0.000000 1.000000 0.000000 0.000000 2780.dat
1 71 -105.000000 -309.000100 -123.068900 0.999999 0.000000 0.000001 0.000000 0.999999 0.000000 -0.000001 0.000000 1.000000 3713.dat
1 0 -105.000200 -209.000000 -133.209000 0.000000 0.000000 -0.999999 0.000000 0.999999 0.000000 1.000000 0.000000 0.000000 2780.dat
0 STEP
1 19 -105.000100 -249.000100 -293.169400 0.000001 -0.622515 0.782608 0.000001 0.782608 0.622515 -1.000000 0.000000 0.000001 3749.dat
1 71 -105.000000 -249.000100 -301.169400 0.782607 0.622516 0.000000 0.622516 -0.782607 0.000002 0.000001 -0.000001 -1.000000 3650c.dat
0 STEP
1 71 -105.000200 -189.000000 -133.209000 0.999999 0.000000 0.000000 0.000000 0.999999 0.000000 0.000000 0.000000 1.000000 58120.dat
1 72 -105.000100 -189.000100 -302.688900 0.000000 -1.000000 0.000000 -1.000000 0.000000 0.000000 0.000000 0.000000 -1.000000 3648b.dat
1 72 -105.000000 -309.000200 -302.738700 1.000000 0.000000 0.000000 0.000000 -1.000000 0.000000 0.000000 0.000000 -1.000000 3648b.dat
0 STEP
1 16 -321.000000 0.000000 -202.000000 0.000000 0.000000 -1.000000 0.000000 1.000000 0.000000 1.000000 0.000000 0.000000 submodel group 9 copy copy copy
0 STEP
0 STEP
0 NOFILE
0 FILE SubModel Group 9 Copy Copy Copy
0 SubModel Group 9 Copy Copy Copy
0 Name:  SubModel Group 9 Copy Copy Copy
0 Author:  
0 CustomBrick
0 NumOfBricks:  3
1 72 10.000000 -1.128810 -10.000000 1.000000 0.000000 0.000000 0.000000 0.000000 -1.000000 0.000000 1.000000 0.000000 dch003.dat
1 71 -27.466620 -79.717990 29.427020 1.000000 0.000000 0.000000 0.000000 0.000000 -1.000000 0.000000 1.000000 0.000000 dch004.dat
1 25 7.837010 13.484720 -9.965000 1.000000 0.000000 0.000000 0.000000 0.000000 -1.000000 0.000000 1.000000 0.000000 dch005.dat
0 NOFILE
