0 FILE 甩干机.io
0 Untitled Model
0 Name:  甩干机
0 Author:  
0 CustomBrick
0 NumOfBricks:  62
1 1 0.000060 -8.000000 -19.999970 0.000001 0.000000 1.000000 0.000000 1.000000 0.000000 -1.000000 0.000000 0.000000 32001.dat
1 1 -9.999940 -32.000000 -39.999980 0.000001 0.000000 1.000000 0.000000 1.000000 0.000000 -1.000000 0.000000 0.000000 3894.dat
0 STEP
1 1 -9.999940 -56.000000 -39.999980 0.000001 0.000000 1.000000 0.000000 1.000000 0.000000 -1.000000 0.000000 0.000000 3701.dat
1 0 -19.999950 -46.000000 -19.999970 -1.000000 0.000000 0.000001 0.000000 1.000000 0.000000 0.000000 0.000000 -1.000000 2780.dat
1 0 -19.999900 -46.000000 -59.999980 -1.000000 0.000000 0.000001 0.000000 1.000000 0.000000 0.000000 0.000000 -1.000000 2780.dat
0 STEP
1 71 -19.999940 -46.000000 -39.999980 -0.000001 0.000000 -1.000000 0.000000 1.000000 0.000000 1.000000 0.000000 0.000000 58120.dat
1 16 -253.000000 0.000000 6.000000 0.000000 0.000000 1.000000 0.000000 1.000000 0.000000 -1.000000 0.000000 0.000000 submodel group 9 copy copy copy
0 STEP
1 71 10.179940 -46.000000 -40.000290 0.000000 0.000000 -1.000000 0.000000 1.000000 0.000000 1.000000 0.000000 0.000001 3713.dat
1 71 11.129960 -46.000000 -39.999980 1.000000 0.000000 -0.000001 0.000000 1.000000 0.000000 0.000000 0.000000 1.000000 32073.dat
0 STEP
1 71 48.780040 -45.999980 -40.000110 0.000000 0.000000 1.000000 0.000000 1.000000 0.000000 -1.000000 0.000000 -0.000001 3650c.dat
1 71 30.179940 -46.000000 -39.999980 0.000000 0.000000 -1.000000 0.000000 1.000000 0.000000 1.000000 0.000000 0.000001 3713.dat
0 STEP
1 1 40.000020 -8.000000 -100.000000 1.000000 0.000000 -0.000001 0.000000 1.000000 0.000000 0.000000 0.000000 1.000000 32001.dat
1 1 20.000020 -32.000000 -110.000000 1.000000 0.000000 -0.000001 0.000000 1.000000 0.000000 0.000000 0.000000 1.000000 3701.dat
0 STEP
1 1 19.999880 -32.000000 30.000030 1.000000 0.000000 -0.000001 0.000000 1.000000 0.000000 0.000000 0.000000 1.000000 3701.dat
1 1 79.999900 -32.000000 10.000000 1.000000 0.000000 -0.000001 0.000000 1.000000 0.000000 0.000000 0.000000 1.000000 3701.dat
1 1 79.999900 -8.000000 20.000000 1.000000 0.000000 -0.000001 0.000000 1.000000 0.000000 0.000000 0.000000 1.000000 32001.dat
0 STEP
1 1 80.000000 -32.000000 -90.000000 1.000000 0.000000 -0.000001 0.000000 1.000000 0.000000 0.000000 0.000000 1.000000 3701.dat
1 1 79.999950 -40.000000 -39.999980 0.000001 0.000000 1.000000 0.000000 1.000000 0.000000 -1.000000 0.000000 0.000000 32001.dat
1 1 120.000100 -8.000000 -60.000120 0.000001 0.000000 1.000000 0.000000 1.000000 0.000000 -1.000000 0.000000 0.000000 32001.dat
0 STEP
1 1 130.000100 -32.000000 -40.000110 0.000001 0.000000 1.000000 0.000000 1.000000 0.000000 -1.000000 0.000000 0.000000 3894.dat
1 1 99.999870 -32.000000 30.000000 1.000000 0.000000 -0.000001 0.000000 1.000000 0.000000 0.000000 0.000000 1.000000 3701.dat
1 1 100.000000 -32.000000 -110.000000 1.000000 0.000000 -0.000001 0.000000 1.000000 0.000000 0.000000 0.000000 1.000000 3701.dat
0 STEP
1 14 79.997440 -49.080420 -40.003100 0.788010 -0.615663 0.000000 0.000000 0.000001 -1.000000 0.615662 0.788011 0.000001 32123a.dat
1 0 79.997440 -64.760660 -40.003100 0.000000 -0.788017 0.615663 -1.000011 0.000000 -0.000001 0.000001 -0.615668 -0.788011 3706.dat
0 STEP
1 72 80.001900 -74.380960 -40.003160 0.615663 0.788006 0.000000 0.000000 0.000000 -0.999995 -0.788011 0.615659 0.000000 3648b.dat
1 14 79.997440 -59.760650 -40.002980 0.615663 -0.788014 0.000000 0.000000 0.000000 1.000006 -0.788011 -0.615665 0.000000 32123a.dat
0 STEP
1 71 79.996020 -115.141000 -40.003770 0.615662 0.788015 0.000000 0.000000 0.000000 -1.000006 -0.788011 0.615665 0.000001 3649.dat
1 71 80.002330 -94.760540 -39.998890 -0.615663 -0.788023 0.000000 0.000001 -0.000001 -1.000018 0.788011 -0.615673 0.000001 3713.dat
0 STEP
1 16 82.995860 -106.951400 -55.003920 0.788011 0.000001 -0.615662 -0.000001 1.000000 0.000000 0.615662 0.000000 0.788011 submodel group 1
0 STEP
0 STEP
0 NOFILE
0 FILE SubModel Group 9 Copy Copy Copy
0 SubModel Group 9 Copy Copy Copy
0 Name:  SubModel Group 9 Copy Copy Copy
0 Author:  
0 CustomBrick
0 NumOfBricks:  3
1 72 10.000000 -1.128810 -10.000000 1.000000 0.000000 0.000000 0.000000 0.000000 -1.000000 0.000000 1.000000 0.000000 dch003.dat
1 71 -27.466620 -79.717990 29.427020 1.000000 0.000000 0.000000 0.000000 0.000000 -1.000000 0.000000 1.000000 0.000000 dch004.dat
1 25 7.837010 13.484720 -9.965000 1.000000 0.000000 0.000000 0.000000 0.000000 -1.000000 0.000000 1.000000 0.000000 dch005.dat
0 NOFILE
0 FILE SubModel Group 1
0 SubModel Group 1
0 Name:  SubModel Group 1
0 Author:  
0 CustomBrick
0 NumOfBricks:  32
1 1 6.871120 -30.279990 73.666950 1.000005 -0.000001 -0.000001 0.000001 1.000006 0.000001 0.000000 0.000000 1.000001 3738.dat
0 STEP
1 1 6.871330 -30.279980 33.667060 1.000005 -0.000001 -0.000001 0.000001 1.000006 0.000001 0.000000 0.000000 1.000001 3738.dat
1 1 -63.128880 -22.280150 13.666950 -0.000001 -0.000001 -1.000005 0.000001 1.000006 -0.000001 1.000001 0.000000 0.000000 3666.dat
1 1 76.871200 -22.280000 13.667120 0.000001 -0.000001 1.000005 0.000000 1.000006 0.000001 -1.000001 0.000000 0.000000 3666.dat
0 STEP
1 1 6.871220 -30.279960 -6.333210 1.000005 -0.000001 -0.000001 0.000001 1.000006 0.000001 0.000000 0.000000 1.000001 3738.dat
1 1 6.871120 -30.279940 -46.331700 1.000005 -0.000001 -0.000001 0.000001 1.000006 0.000001 0.000000 0.000000 1.000001 3738.dat
0 STEP
1 19 6.871170 -20.000140 -6.333170 0.000000 -1.000005 0.000000 1.000007 0.000000 -0.000001 0.000001 0.000000 1.000000 3749.dat
1 19 6.871300 -20.190160 33.667240 0.000000 -1.000005 0.000000 1.000007 0.000000 -0.000001 0.000001 0.000001 1.000000 3749.dat
0 STEP
1 1 6.868480 -54.280590 83.664720 -1.000005 -0.000001 0.000001 -0.000001 1.000006 0.000000 0.000000 0.000000 -1.000000 3702.dat
1 1 76.871010 -54.280200 13.667210 0.000001 -0.000001 1.000005 0.000000 1.000006 0.000001 -1.000001 0.000000 0.000000 3894.dat
0 STEP
1 1 6.871270 -54.280340 -56.332060 -1.000005 -0.000001 0.000001 -0.000001 1.000006 0.000000 0.000000 0.000000 -1.000001 3702.dat
1 1 -63.128860 -54.280440 13.667030 0.000001 -0.000001 1.000005 0.000000 1.000006 0.000001 -1.000001 0.000000 0.000000 3894.dat
0 STEP
1 1 76.870830 -78.280170 13.666960 0.000001 -0.000001 1.000005 0.000000 1.000006 0.000001 -1.000001 0.000000 0.000000 3702.dat
1 1 6.871110 -78.280280 83.666850 -1.000005 -0.000001 0.000001 -0.000001 1.000006 0.000000 0.000000 0.000000 -1.000001 3894.dat
0 STEP
1 1 6.870990 -78.280240 -56.332070 -1.000005 -0.000001 0.000001 -0.000001 1.000006 0.000000 0.000000 0.000000 -1.000001 3894.dat
1 1 -63.128540 -78.280440 13.666790 0.000001 -0.000001 1.000005 0.000000 1.000006 0.000001 -1.000001 0.000000 0.000000 3702.dat
0 STEP
1 15 76.870860 -102.280200 -36.331870 1.000004 -0.000001 -0.000001 0.000001 1.000006 0.000000 0.000001 0.000000 1.000001 3040b.dat
1 15 76.872150 -102.280300 -6.333020 0.000001 -0.000001 1.000000 0.000000 1.000006 0.000001 -1.000001 0.000000 0.000001 32064a.dat
1 15 76.871150 -102.280200 63.666580 -1.000005 -0.000001 0.000001 -0.000001 1.000006 -0.000001 0.000000 0.000000 -1.000001 3040b.dat
1 15 76.870880 -102.280200 33.667000 0.000001 -0.000001 1.000005 0.000000 1.000006 0.000001 -1.000001 0.000000 0.000000 32064a.dat
0 STEP
1 1 6.870950 -102.280200 83.666910 -1.000005 -0.000001 0.000001 -0.000001 1.000006 0.000000 0.000000 0.000000 -1.000001 3894.dat
1 15 -63.129600 -102.280300 63.666760 -1.000005 -0.000001 0.000001 -0.000001 1.000006 -0.000001 0.000000 0.000000 -1.000001 3040b.dat
1 15 -63.129520 -102.280300 33.666920 0.000001 -0.000001 1.000005 0.000000 1.000006 0.000001 -1.000001 0.000000 0.000000 32064a.dat
0 STEP
1 1 6.871010 -102.280100 -56.332080 -1.000005 -0.000001 0.000001 -0.000001 1.000006 0.000000 0.000000 0.000000 -1.000001 3894.dat
1 15 -63.129340 -102.280300 -36.331640 1.000005 -0.000001 -0.000001 0.000001 1.000006 0.000000 0.000000 0.000000 1.000001 3040b.dat
1 15 -63.129440 -102.280200 -6.332930 0.000001 -0.000001 1.000005 0.000000 1.000006 0.000001 -1.000001 0.000000 0.000000 32064a.dat
0 STEP
1 1 66.872260 -110.280600 -26.333050 -0.000001 -0.000001 -1.000005 0.000000 1.000006 -0.000001 1.000001 0.000000 0.000000 3709b.dat
1 1 6.871120 -110.280600 -46.332040 -1.000005 -0.000001 0.000001 -0.000001 1.000006 0.000000 0.000000 0.000000 -1.000001 3709b.dat
1 1 66.870920 -110.280500 53.666880 -0.000001 -0.000001 -1.000005 0.000000 1.000006 -0.000001 1.000001 0.000000 0.000000 3709b.dat
0 STEP
1 1 -53.129340 -110.280500 -26.333160 -0.000001 -0.000001 -1.000005 0.000000 1.000006 -0.000001 1.000001 0.000000 0.000000 3709b.dat
1 1 -53.129700 -110.280700 53.666680 -0.000001 -0.000001 -1.000005 0.000000 1.000006 -0.000001 1.000001 0.000000 0.000000 3709b.dat
1 1 6.870900 -110.280600 73.666920 -1.000005 -0.000001 0.000001 -0.000001 1.000006 0.000000 0.000000 0.000000 -1.000001 3709b.dat
0 STEP
0 NOFILE
