0 Untitled Model
0 Name:  扳手
0 Author:  
0 CustomBrick
0 NumOfBricks:  37
1 15 120.000000 -13.999760 10.000490 0.000001 0.000001 -0.999997 -1.000000 0.000001 -0.000001 0.000001 0.999997 0.000001 64871.dat
1 0 0.000320 -14.000050 20.000640 0.000000 0.000000 -0.999997 0.000000 1.000000 0.000000 0.999997 0.000000 0.000000 2780.dat
0 STEP
1 15 119.999700 -13.999760 30.000300 0.000001 0.000001 -0.999997 -1.000000 0.000001 -0.000001 0.000001 0.999997 0.000001 64871.dat
1 0 239.999600 -13.999650 20.000210 0.000000 0.000000 -0.999997 0.000000 1.000000 0.000000 0.999997 0.000000 0.000000 2780.dat
0 STEP
1 15 -59.999500 -14.000100 50.000550 0.000001 0.000001 -0.999997 -1.000000 0.000001 -0.000001 0.000001 0.999997 0.000001 40490.dat
1 0 -19.999830 -13.999910 40.000370 0.000000 0.000000 -0.999997 0.000000 1.000000 0.000000 0.999997 0.000000 0.000000 2780.dat
1 0 20.000050 -13.999850 40.000880 0.000000 0.000000 -0.999997 0.000000 1.000000 0.000000 0.999997 0.000000 0.000000 2780.dat
0 STEP
1 0 -19.999560 -13.999880 0.000570 0.000000 0.000000 -0.999997 0.000000 1.000000 0.000000 0.999997 0.000000 0.000000 2780.dat
1 0 20.000350 -13.999840 0.000570 0.000000 0.000000 -0.999997 0.000000 1.000000 0.000000 0.999997 0.000000 0.000000 2780.dat
0 STEP
1 1 -100.000000 -24.000000 30.000000 1.000000 0.000000 0.000000 0.000000 1.000000 0.000000 0.000000 0.000000 1.000000 3894.dat
1 0 -140.000000 -13.999990 39.999970 0.000000 0.000000 -1.000000 0.000000 1.000000 0.000000 1.000000 0.000000 0.000000 2780.dat
1 0 -59.999500 -13.999990 40.000060 0.000000 0.000000 -1.000000 0.000000 1.000000 0.000000 1.000000 0.000000 0.000000 2780.dat
0 STEP
1 1 -99.999980 -24.000000 9.999450 1.000000 0.000000 0.000000 0.000000 1.000000 0.000000 0.000000 0.000000 1.000000 3894.dat
1 0 -79.998160 -13.999990 20.000120 0.000000 0.000000 -1.000000 0.000000 1.000000 0.000000 1.000000 0.000000 0.000000 2780.dat
1 0 -119.999900 -13.999990 20.000030 0.000000 0.000000 -1.000000 0.000000 1.000000 0.000000 1.000000 0.000000 0.000000 2780.dat
0 STEP
1 15 -59.999440 -13.999910 -9.999390 0.000001 0.000001 -0.999997 -1.000000 0.000001 -0.000001 0.000001 0.999997 0.000001 40490.dat
1 0 -139.999200 -14.000000 0.000690 0.000000 0.000000 -0.999997 0.000000 1.000000 0.000000 0.999997 0.000000 0.000000 2780.dat
1 0 -59.999500 -14.000000 -0.000530 0.000000 0.000000 -1.000000 0.000000 1.000000 0.000000 1.000000 0.000000 0.000000 2780.dat
0 STEP
1 1 -139.999200 -23.999960 -29.999210 0.999997 0.000000 0.000000 0.000000 1.000000 0.000000 0.000000 0.000000 0.999997 3702.dat
1 0 -79.999360 -13.999920 -19.999360 0.000000 0.000000 -0.999997 0.000000 1.000000 0.000000 0.999997 0.000000 0.000000 2780.dat
1 0 -119.999200 -13.999960 -19.999240 0.000000 0.000000 -0.999997 0.000000 1.000000 0.000000 0.999997 0.000000 0.000000 2780.dat
0 STEP
1 1 -140.000000 -24.000000 69.999970 0.999997 0.000000 0.000000 0.000000 1.000000 0.000000 0.000000 0.000000 0.999997 3702.dat
1 0 -79.999440 -14.000130 60.000520 0.000000 0.000000 -0.999997 0.000000 1.000000 0.000000 0.999997 0.000000 0.000000 2780.dat
1 0 -120.000000 -13.999990 60.000000 0.000000 0.000000 -0.999997 0.000000 1.000000 0.000000 0.999997 0.000000 0.000000 2780.dat
0 STEP
1 15 239.999600 -13.999640 50.000120 0.000001 0.000001 -0.999997 -1.000000 0.000001 -0.000001 0.000001 0.999997 0.000001 32316.dat
1 0 259.999600 -13.999620 40.000150 0.000000 0.000000 -0.999997 0.000000 1.000000 0.000000 0.999997 0.000000 0.000000 2780.dat
1 1 199.999600 -13.999680 50.000030 0.000000 0.000000 -0.999997 0.000000 1.000000 0.000000 0.999997 0.000000 0.000000 6558.dat
0 STEP
1 1 259.999500 -23.999680 69.999970 0.999997 0.000000 0.000000 0.000000 1.000000 0.000000 0.000000 0.000000 0.999997 3702.dat
1 0 279.999400 -13.999680 60.000000 0.000000 0.000000 -0.999997 0.000000 1.000000 0.000000 0.999997 0.000000 0.000000 2780.dat
0 STEP
1 15 319.998900 -13.999670 89.998550 0.000001 0.000001 -1.000000 -1.000000 0.000001 -0.000001 0.000001 1.000000 0.000001 32524.dat
1 0 259.999500 -13.999680 79.999940 0.000000 0.000000 -0.999997 0.000000 1.000000 0.000000 0.999997 0.000000 0.000000 2780.dat
1 0 319.999300 -13.999680 79.999850 0.000000 0.000000 -0.999998 0.000000 1.000000 0.000000 0.999998 0.000000 0.000000 2780.dat
0 STEP
1 1 259.999400 -23.999680 -9.999700 0.999998 0.000000 0.000000 0.000000 1.000000 0.000000 0.000000 0.000000 0.999998 3894.dat
1 0 219.999500 -13.999680 0.000270 0.000000 0.000000 -0.999997 0.000000 1.000000 0.000000 0.999997 0.000000 0.000000 2780.dat
1 1 259.999600 -13.999610 -9.999700 0.000000 0.000000 0.999997 0.000000 1.000000 0.000000 -0.999997 0.000000 0.000000 6558.dat
0 STEP
1 1 299.999300 -23.999680 -29.999640 0.999997 0.000000 0.000000 0.000000 1.000000 0.000000 0.000000 0.000000 0.999997 3894.dat
1 0 299.999300 -13.999680 -19.999660 0.000000 0.000000 -0.999997 0.000000 1.000000 0.000000 0.999997 0.000000 0.000000 2780.dat
0 STEP
0 STEP
