0 FILE 加特林
0 Untitled Model
0 Name:  加特林
0 Author:  
0 CustomBrick
0 NumOfBricks:  80
1 1 9.999990 -30.000020 -39.999660 1.000000 0.000000 0.000000 0.000000 0.000000 1.000000 0.000000 -1.000000 0.000000 3702.dat
1 1 -30.000010 -30.000020 -63.999970 1.000000 0.000000 0.000000 0.000000 0.000000 1.000001 0.000000 -1.000001 0.000000 3023.dat
1 1 50.000000 -30.000020 -63.999940 1.000000 0.000000 0.000000 0.000000 0.000000 1.000001 0.000000 -1.000001 0.000000 3023.dat
0 STEP
1 1 9.999990 -30.000010 -80.000000 1.000000 0.000000 0.000000 0.000000 0.000001 1.000001 0.000000 -1.000001 0.000001 3702.dat
1 1 -30.000010 -30.000020 -71.999970 1.000000 0.000000 0.000000 0.000000 0.000000 1.000001 0.000000 -1.000001 0.000000 3023.dat
1 1 50.000000 -30.000020 -71.999940 1.000000 0.000000 0.000000 0.000000 0.000000 1.000001 0.000000 -1.000001 0.000000 3023.dat
0 STEP
1 1 -20.000010 -10.000000 -70.000000 0.000000 -1.000000 0.000000 0.000000 0.000000 1.000000 -1.000000 0.000000 0.000000 3701.dat
1 0 -30.000010 -20.000020 -49.999900 0.000000 0.000000 -1.000000 1.000001 0.000000 0.000000 0.000000 -1.000001 0.000000 2780.dat
1 0 -30.000010 -20.000000 -90.000000 0.000000 0.000000 -1.000000 1.000001 0.000000 0.000000 0.000000 -1.000001 0.000000 2780.dat
0 STEP
1 1 60.000000 -10.000000 -70.000000 0.000000 -1.000000 0.000000 0.000000 0.000000 1.000000 -1.000000 0.000000 0.000000 3701.dat
1 0 50.000000 -20.000020 -49.999900 0.000000 0.000000 -1.000000 1.000001 0.000000 0.000000 0.000000 -1.000001 0.000000 2780.dat
1 0 50.000000 -20.000000 -90.000000 0.000000 0.000000 -1.000000 1.000001 0.000000 0.000000 0.000000 -1.000001 0.000000 2780.dat
0 STEP
1 1 9.999990 -30.000040 -15.999650 1.000000 0.000000 0.000000 0.000000 0.000000 1.000000 0.000000 -1.000000 0.000000 3895.dat
1 1 9.999990 -30.000000 -104.000000 1.000000 0.000000 0.000000 0.000000 0.000000 1.000000 0.000000 -1.000000 0.000000 3895.dat
0 STEP
1 1 100.000000 -20.000030 -25.999640 1.000000 0.000000 0.000000 0.000000 1.000000 0.000000 0.000000 0.000000 1.000000 3700.dat
1 1 100.000000 -20.000000 -114.000000 1.000000 0.000000 0.000000 0.000000 1.000000 0.000000 0.000000 0.000000 1.000000 3700.dat
1 1 -80.000000 -20.000000 -114.000000 1.000000 0.000000 0.000000 0.000000 1.000000 0.000000 0.000000 0.000000 1.000000 3700.dat
1 1 -80.000000 -20.000030 -25.999640 1.000000 0.000000 0.000000 0.000000 1.000000 0.000000 0.000000 0.000000 1.000000 3700.dat
0 STEP
1 1 19.999990 -50.000000 -70.000000 0.000000 -1.000000 0.000000 0.000000 0.000000 -1.000000 1.000000 0.000000 0.000000 3701.dat
1 0 9.999929 -40.000020 -49.999660 0.000000 -1.000000 0.000000 1.000000 0.000000 0.000000 0.000000 0.000000 1.000000 2780.dat
1 0 9.999990 -40.000000 -90.000000 0.000000 -1.000000 0.000000 1.000000 0.000000 0.000000 0.000000 0.000000 1.000000 2780.dat
0 STEP
1 71 9.999990 -9.469999 -69.999970 -1.000000 0.000000 -0.000001 0.000001 0.000000 -1.000000 0.000000 -1.000000 0.000000 3713.dat
1 71 9.999990 -69.469990 -70.000000 1.000000 0.000000 0.000001 -0.000001 0.000000 1.000000 0.000000 -1.000000 0.000000 3713.dat
1 0 9.999990 -59.469990 -69.999970 0.000000 1.000000 0.000000 1.000000 0.000000 0.000000 0.000000 0.000000 -1.000000 3706.dat
0 STEP
1 4 9.999929 -129.470000 -70.000000 -0.000001 -0.000001 -1.000000 -1.000000 -0.000001 0.000001 -0.000001 1.000000 -0.000001 32054.dat
1 71 9.999990 -89.469980 -69.999970 1.000000 0.000000 0.000000 0.000000 0.000000 1.000000 0.000000 -1.000000 0.000000 3649.dat
0 STEP
1 4 10.000050 -129.470000 -70.000180 0.000000 1.000000 0.000000 1.000000 0.000000 0.000000 0.000000 0.000000 -1.000000 32034.dat
1 4 9.999690 -149.470000 -70.000000 0.000000 1.000000 0.000000 1.000000 0.000000 0.000000 0.000000 0.000000 -1.000000 32034.dat
0 STEP
1 19 9.999690 -149.470000 -40.000020 -0.000001 1.000000 -0.000001 -0.000001 -0.000001 -1.000000 -1.000000 -0.000001 0.000001 3749.dat
1 4 9.999690 -149.469900 -30.000010 -1.000000 0.000000 0.000000 0.000000 1.000000 0.000000 0.000000 0.000000 -1.000000 42003.dat
0 STEP
1 19 9.999750 -149.470000 -100.000000 -0.000001 1.000000 -0.000001 0.000001 0.000001 1.000000 1.000000 0.000001 -0.000001 3749.dat
1 4 9.999750 -149.470000 -110.000000 -1.000000 0.000000 0.000000 0.000000 1.000000 0.000000 0.000000 0.000000 -1.000000 42003.dat
0 STEP
1 16 49.287820 -99.470100 -70.000200 1.000000 0.000000 0.000000 0.000000 1.000000 0.000000 0.000000 0.000000 1.000000 submodel group 3
0 STEP
1 71 -19.680370 -169.472800 -110.000200 -0.000001 0.000000 1.000003 0.000000 1.000000 0.000000 -1.000003 0.000000 -0.000001 59443.dat
1 71 -20.000310 -169.472800 -29.999980 -0.000001 0.000000 1.000000 0.000000 1.000000 0.000000 -1.000000 0.000000 -0.000001 59443.dat
0 STEP
1 16 94.290370 -80.470050 -70.000210 1.000000 0.000000 0.000000 0.000000 1.000000 0.000000 0.000000 0.000000 1.000000 submodel group 2
0 STEP
1 71 -50.000300 -169.469900 -29.999920 -1.000000 0.000000 0.000000 0.000000 0.000000 1.000000 0.000000 1.000000 0.000000 4519.dat
1 4 -70.000300 -149.469900 -29.999920 -1.000000 0.000000 0.000000 0.000000 1.000000 0.000000 0.000000 0.000000 -1.000000 42003.dat
0 STEP
1 71 -49.680540 -169.470000 -110.000100 -1.000000 0.000000 0.000000 0.000000 0.000000 1.000000 0.000000 1.000000 0.000000 4519.dat
1 4 -69.680540 -149.470000 -110.000100 -1.000000 0.000000 0.000000 0.000000 1.000000 0.000000 0.000000 0.000000 -1.000000 42003.dat
0 STEP
1 16 -130.000000 -19.999990 -59.999780 1.000000 0.000000 0.000000 0.000000 1.000000 0.000000 0.000000 0.000000 1.000000 submodel group 1
0 STEP
0 STEP
0 NOFILE
0 FILE SubModel Group 3
0 SubModel Group 3
0 Name:  SubModel Group 3
0 Author:  
0 CustomBrick
0 NumOfBricks:  16
1 1 12.401910 -30.000000 0.000070 0.000000 -1.000000 0.000000 0.000000 0.000000 1.000000 -1.000000 0.000000 0.000000 3894.dat
1 1 12.401910 -50.000000 -0.000020 0.000000 -1.000000 0.000000 0.000000 0.000000 1.000000 -1.000000 0.000000 0.000000 3894.dat
1 1 2.401910 -50.000000 -39.999960 0.000000 1.000000 0.000000 1.000000 0.000000 0.000000 0.000000 0.000000 -1.000000 6558.dat
1 1 2.031760 -49.999940 40.000120 0.000000 1.000002 0.000000 1.000002 0.000000 0.000000 0.000000 0.000000 -1.000000 6558.dat
0 STEP
1 0 2.401880 -40.000000 -0.000020 0.000000 0.000000 1.000000 -1.000000 0.000000 0.000000 0.000000 -1.000000 0.000000 3705.dat
1 4 22.401890 -9.999990 -0.000020 0.000000 -0.000001 1.000000 1.000000 0.000000 0.000000 0.000000 1.000000 0.000001 32039.dat
0 STEP
1 19 2.401880 -60.000000 -20.000050 -0.000001 -0.000001 -1.000000 -1.000000 -0.000001 0.000001 -0.000001 1.000000 -0.000001 3749.dat
1 19 2.401880 -60.000000 19.999960 -0.000001 -0.000001 -1.000000 -1.000000 -0.000001 0.000001 -0.000001 1.000000 -0.000001 3749.dat
1 4 22.401820 -70.000000 -0.000020 0.000000 -0.000001 1.000000 1.000000 0.000000 0.000000 0.000000 1.000000 0.000001 32039.dat
0 STEP
1 15 2.401850 -110.000000 -0.000140 -1.000000 0.000001 -0.000001 0.000001 1.000000 0.000001 0.000001 0.000001 -1.000000 32523.dat
1 4 2.401850 -90.000000 -20.000120 -0.000001 -0.000001 -1.000000 -1.000000 -0.000001 0.000001 -0.000001 1.000000 -0.000001 32054.dat
1 4 2.401850 -89.999980 19.999890 -0.000001 -0.000001 -1.000000 -1.000000 -0.000001 0.000001 -0.000001 1.000000 -0.000001 32054.dat
0 STEP
1 71 -39.288120 -69.999850 40.000180 -1.000000 0.000000 0.000000 0.000000 0.000000 1.000000 0.000000 1.000000 0.000000 4519.dat
1 0 2.031820 -69.999910 40.000090 -0.000002 -0.000002 1.000000 -1.000000 -0.000002 -0.000002 0.000002 -1.000000 -0.000002 32013.dat
0 STEP
1 71 -37.598060 -69.999900 -39.999900 -1.000000 0.000000 0.000000 0.000000 0.000000 1.000000 0.000000 1.000000 0.000000 4519.dat
1 0 2.401940 -69.999970 -39.999960 -0.000002 -0.000002 1.000000 -1.000003 -0.000002 -0.000002 0.000002 -1.000000 -0.000002 32013.dat
0 STEP
0 NOFILE
0 FILE SubModel Group 2
0 SubModel Group 2
0 Name:  SubModel Group 2
0 Author:  
0 CustomBrick
0 NumOfBricks:  14
1 71 12.309270 -68.999980 -0.000010 0.000000 0.000000 1.000000 -1.000000 0.000000 0.000000 0.000000 -1.000000 0.000000 4185.dat
1 71 22.379310 -69.000000 -0.000010 0.000000 0.000000 1.000000 -1.000000 0.000000 0.000000 0.000000 -1.000000 0.000000 4185.dat
1 71 27.739300 -69.000000 -0.000010 -1.000000 0.000000 0.000000 0.000000 1.000000 0.000000 0.000000 0.000000 -1.000000 32073.dat
0 STEP
1 71 37.709300 -69.000000 -0.000010 0.000001 0.000000 -1.000000 0.000000 1.000000 0.000000 1.000000 0.000000 0.000001 3713.dat
1 71 30.379310 -51.500000 9.999990 -1.000000 0.000000 0.000000 0.000000 1.000000 0.000000 0.000000 0.000000 -1.000000 3673.dat
1 1 37.309270 -51.499980 -10.000010 1.000000 0.000000 0.000000 0.000000 1.000000 0.000000 0.000000 0.000000 1.000000 6558.dat
0 STEP
1 1 38.309270 -86.499980 9.999990 1.000000 0.000000 0.000000 0.000000 1.000000 0.000000 0.000000 0.000000 1.000000 6558.dat
1 19 38.309270 -68.999980 20.000000 1.000000 0.000000 0.000000 0.000000 1.000000 0.000000 0.000000 0.000000 1.000000 32556.dat
0 STEP
1 71 28.309270 -86.499980 -10.000010 -1.000000 0.000000 0.000000 0.000000 1.000000 0.000000 0.000000 0.000000 -1.000000 3673.dat
1 19 38.309270 -68.999980 -20.000010 1.000000 0.000000 0.000000 0.000000 1.000000 0.000000 0.000000 0.000000 1.000000 32556.dat
0 STEP
1 15 -2.600700 -49.000030 -0.000010 0.000001 1.000000 0.000001 -0.000001 -0.000001 1.000000 1.000000 -0.000001 0.000001 32316.dat
0 STEP
1 14 -17.260740 -69.000000 -0.000040 0.000000 0.000000 1.000000 0.000000 1.000000 0.000000 -1.000000 0.000000 0.000000 32123a.dat
1 19 -12.600730 -89.000020 -0.000010 -1.000000 -0.000001 0.000001 -0.000001 1.000000 -0.000001 -0.000001 -0.000001 -1.000000 3749.dat
1 19 -12.600550 -28.999980 0.000020 -1.000000 -0.000001 0.000001 -0.000001 1.000000 -0.000001 -0.000001 -0.000001 -1.000000 3749.dat
0 STEP
0 NOFILE
0 FILE SubModel Group 1
0 SubModel Group 1
0 Name:  SubModel Group 1
0 Author:  
0 CustomBrick
0 NumOfBricks:  12
1 1 -0.000030 -30.000050 20.000090 1.000000 0.000000 0.000000 0.000000 0.000000 1.000000 0.000000 -1.000000 0.000000 3702.dat
0 STEP
1 1 19.999970 -30.000040 44.000130 1.000000 0.000000 0.000000 0.000000 0.000000 1.000000 0.000000 -1.000000 0.000000 3894.dat
1 0 40.000030 -20.000050 34.000140 0.000000 -1.000000 0.000000 -1.000000 0.000001 0.000000 0.000000 0.000000 -1.000000 2780.dat
1 0 60.000030 -20.000040 34.000140 0.000000 -1.000000 0.000000 -1.000000 0.000000 0.000000 0.000000 0.000000 -1.000000 2780.dat
0 STEP
1 1 -0.000030 -30.000040 -3.999950 1.000000 0.000000 0.000000 0.000000 0.000000 1.000002 0.000000 -1.000002 0.000000 3710.dat
1 1 -59.999970 -30.000000 -12.000280 1.000000 0.000000 0.000000 0.000000 0.000000 1.000001 0.000000 -1.000001 0.000000 3023.dat
1 1 -59.999970 -30.000020 -3.999950 1.000000 0.000000 0.000000 0.000000 0.000000 1.000000 0.000000 -1.000000 0.000000 3023.dat
0 STEP
1 1 0.000030 -30.000000 -20.000250 1.000000 0.000000 0.000000 0.000000 0.000000 1.000000 0.000000 -1.000000 0.000000 3702.dat
1 1 -0.000030 -30.000010 -11.999310 1.000000 0.000000 0.000000 0.000000 0.000000 1.000000 0.000000 -1.000000 0.000000 3710.dat
0 STEP
1 1 20.000030 -30.000010 -44.000260 1.000000 0.000000 0.000000 0.000000 0.000000 1.000000 0.000000 -1.000000 0.000000 3894.dat
1 0 40.000030 -20.000000 -54.000260 0.000000 0.000000 1.000000 1.000000 0.000000 0.000000 0.000000 1.000000 0.000000 2780.dat
1 0 60.000030 -20.000000 -54.000260 0.000000 0.000000 1.000000 1.000000 0.000000 0.000000 0.000000 1.000000 0.000000 2780.dat
0 STEP
0 NOFILE
