0 Untitled Model
0 Name:  手钻
0 Author:  
0 CustomBrick
0 NumOfBricks:  49
1 19 -376.081000 -73.752740 -41.789540 -0.000001 1.000002 -0.000001 0.000001 0.000001 1.000000 1.000002 0.000001 -0.000001 3749.dat
1 15 -236.080300 -73.752620 -54.339740 0.000001 0.000001 -1.000002 -1.000000 0.000001 -0.000001 0.000001 1.000002 0.000001 64871.dat
1 71 -376.081000 -73.755580 -21.349440 1.000002 0.000000 0.000001 0.000000 1.000000 0.000000 -0.000001 0.000000 1.000002 59443.dat
0 STEP
1 4 -96.080180 -73.752540 -54.339860 0.000001 -1.000002 0.000001 0.000001 0.000001 1.000000 -1.000002 -0.000001 0.000001 32054.dat
1 4 -136.080300 -73.752580 -54.339860 0.000001 -1.000002 0.000001 0.000001 0.000001 1.000000 -1.000002 -0.000001 0.000001 32054.dat
1 4 -96.080120 -73.752490 -21.349690 0.000000 0.000000 -1.000002 0.000000 1.000000 0.000000 1.000002 0.000000 0.000000 32062.dat
1 4 -136.080200 -73.752540 -21.349810 0.000000 0.000000 -1.000002 0.000000 1.000000 0.000000 1.000002 0.000000 0.000000 32062.dat
0 STEP
1 15 -236.080500 -73.752620 8.650490 0.000001 0.000001 -1.000002 -1.000000 0.000001 -0.000001 0.000001 1.000002 0.000001 64871.dat
0 STEP
1 19 -376.081000 -73.752720 -1.349410 0.000001 -1.000002 0.000001 0.000001 0.000001 1.000000 -1.000002 -0.000001 0.000001 3749.dat
1 4 -136.080300 -73.752520 8.650370 -0.000001 1.000002 -0.000001 0.000001 0.000001 1.000000 1.000002 0.000001 -0.000001 32054.dat
1 4 -96.080180 -73.752490 8.650370 -0.000001 1.000002 -0.000001 0.000001 0.000001 1.000000 1.000002 0.000001 -0.000001 32054.dat
0 STEP
1 1 -316.080600 -83.752670 28.650580 1.000002 0.000000 0.000000 0.000000 1.000000 0.000000 0.000000 0.000000 1.000002 3895.dat
1 1 -316.080600 -35.752660 28.650580 1.000002 0.000000 0.000000 0.000000 1.000000 0.000000 0.000000 0.000000 1.000002 3895.dat
1 1 -316.080600 -59.752660 28.650580 1.000002 0.000000 0.000000 0.000000 1.000000 0.000000 0.000000 0.000000 1.000002 3895.dat
1 1 -316.080400 -83.752650 -74.339780 1.000002 0.000000 0.000000 0.000000 1.000000 0.000000 0.000000 0.000000 1.000002 3895.dat
1 1 -316.080400 -35.752640 -74.339780 1.000002 0.000000 0.000000 0.000000 1.000000 0.000000 0.000000 0.000000 1.000002 3895.dat
1 1 -316.080400 -59.752640 -74.339780 1.000002 0.000000 0.000000 0.000000 1.000000 0.000000 0.000000 0.000000 1.000002 3895.dat
1 0 -276.080400 -73.752650 -64.339760 0.000000 0.000000 -1.000002 0.000000 1.000000 0.000000 1.000002 0.000000 0.000000 2780.dat
1 0 -276.080500 -73.752670 18.650560 0.000000 0.000000 -1.000002 0.000000 1.000000 0.000000 1.000002 0.000000 0.000000 2780.dat
0 STEP
1 0 -316.080400 -49.752640 -84.339850 0.000000 0.000000 -1.000002 0.000000 1.000000 0.000000 1.000002 0.000000 0.000000 2780.dat
1 0 -316.080600 -49.752660 38.650540 0.000000 0.000000 -1.000002 0.000000 1.000000 0.000000 1.000002 0.000000 0.000000 2780.dat
1 4 -316.080500 -49.752640 -94.339900 0.000000 0.000000 -1.000002 0.000000 -1.000000 0.000000 -1.000002 0.000000 0.000000 32034.dat
1 4 -316.080600 -49.752660 48.650570 0.000000 0.000000 -1.000002 0.000000 -1.000000 0.000000 -1.000002 0.000000 0.000000 32034.dat
0 STEP
1 19 103.920100 -73.752260 -61.690100 -0.000001 1.000002 -0.000001 0.000001 0.000001 1.000000 1.000002 0.000001 -0.000001 3749.dat
1 15 -36.080020 -73.752450 -74.340020 0.000001 0.000001 -1.000002 -1.000000 0.000001 -0.000001 0.000001 1.000002 0.000001 64871.dat
0 STEP
1 19 -115.683700 -182.560300 -121.350100 -0.000001 0.999700 0.024552 0.000001 -0.024553 0.999698 1.000002 0.000000 -0.000001 3749.dat
1 4 -115.683700 -182.560300 -141.350100 0.000000 0.258815 0.965929 0.000000 0.965927 -0.258815 -1.000002 0.000000 0.000000 62462.dat
1 71 -16.080280 -73.752420 -91.349970 0.819153 -0.573578 0.000001 0.573577 0.819152 0.000001 -0.000001 0.000000 1.000002 3713.dat
1 1 -16.080310 -73.752400 -111.350100 0.573578 0.000000 -0.819153 -0.819152 0.000001 -0.573577 0.000001 1.000002 0.000000 32271.dat
1 71 -16.080310 -73.752460 -71.350030 0.000000 -0.573578 0.819153 0.000000 0.819152 0.573577 -1.000002 0.000000 0.000000 32073.dat
0 STEP
1 71 -16.077960 -73.754200 -21.349810 0.642791 -0.766044 0.000001 0.766042 0.642790 0.000001 -0.000001 0.000000 1.000002 59443.dat
1 0 -16.080130 -73.752350 18.650260 0.000000 -0.766044 0.642791 0.000000 0.642791 0.766042 -1.000002 0.000000 0.000000 3705.dat
0 STEP
1 19 43.919940 -73.752460 -1.809920 0.991043 -0.133555 0.000000 -0.133554 -0.991042 0.000000 0.000000 0.000000 -1.000002 32269.dat
1 0 43.919910 -73.752460 -25.389860 0.000000 0.133555 0.991043 0.000000 0.991042 -0.133554 -1.000002 0.000000 0.000000 3707.dat
1 71 43.919940 -73.752460 -93.870050 0.991043 0.133555 0.000001 -0.133554 0.991042 0.000000 -0.000001 0.000000 1.000002 3713.dat
1 14 43.919940 -73.752460 13.450120 0.991043 -0.133555 0.000000 -0.133554 -0.991042 0.000000 0.000000 0.000000 -1.000002 32123a.dat
0 STEP
1 19 103.920000 -73.752260 18.650140 0.000001 -1.000002 0.000001 0.000001 0.000001 1.000000 -1.000002 -0.000001 0.000001 3749.dat
1 14 103.920100 -73.752260 -56.690090 1.000002 0.000000 0.000000 0.000000 1.000000 0.000000 0.000000 0.000000 1.000002 32123a.dat
1 4 103.920100 -73.752240 -21.999960 1.000002 0.000000 0.000000 0.000000 -1.000000 0.000000 0.000000 0.000000 -1.000002 32034.dat
1 14 103.920100 -73.752240 12.960070 1.000002 0.000000 0.000000 0.000000 1.000000 0.000000 0.000000 0.000000 1.000002 32123a.dat
0 STEP
1 15 -36.080120 -73.752420 28.650340 0.000001 0.000001 -1.000002 -1.000000 0.000001 -0.000001 0.000001 1.000002 0.000001 64871.dat
0 STEP
1 72 43.919980 -73.752460 48.030210 0.133555 -0.991044 0.000000 0.991042 0.133554 0.000000 0.000000 0.000000 1.000002 3647.dat
1 71 -16.080160 -73.752380 49.520260 0.642791 0.766044 0.000000 0.766042 -0.642790 0.000000 0.000000 0.000000 -1.000002 3649.dat
0 STEP
1 19 71.000000 -73.752240 -22.000000 0.000001 0.000000 -1.000000 0.000000 -1.000000 0.000000 -1.000000 0.000000 -0.000001 6589.dat
1 72 123.290100 -73.752240 -21.999960 0.000000 0.000000 -1.000002 0.000000 -1.000000 0.000000 -1.000002 0.000000 0.000000 3648b.dat
1 0 186.290200 -73.752240 -21.999960 -1.000002 0.000000 0.000000 0.000000 1.000000 0.000000 0.000000 0.000000 -1.000002 3708.dat
1 14 78.350060 -73.752240 -21.999900 0.000000 0.000000 -1.000002 0.000000 -1.000000 0.000000 -1.000002 0.000000 0.000000 32123a.dat
1 14 88.550060 -73.752240 -21.999900 0.000000 0.000000 -1.000002 0.000000 -1.000000 0.000000 -1.000002 0.000000 0.000000 32123a.dat
1 71 145.040200 -73.752240 -21.999960 0.000001 0.000000 -1.000002 0.000000 1.000000 0.000000 1.000002 0.000000 0.000001 94925.dat
0 STEP
0 STEP
