0 Untitled Model
0 Name:  十字旋转门
0 Author:  
0 CustomBrick
0 NumOfBricks:  150
1 1 -39.999980 -48.000040 -110.000000 1.000000 0.000000 0.000000 0.000000 1.000002 0.000000 0.000000 0.000000 1.000000 3895.dat
1 1 200.000100 -48.000040 -90.000060 1.000000 0.000000 0.000000 0.000000 1.000002 0.000000 0.000000 0.000000 1.000000 3895.dat
1 1 200.000100 -48.000040 -110.000100 1.000000 0.000000 0.000000 0.000000 1.000002 0.000000 0.000000 0.000000 1.000000 3895.dat
1 1 -39.999980 -48.000040 -90.000010 1.000000 0.000000 0.000000 0.000000 1.000002 0.000000 0.000000 0.000000 1.000000 3895.dat
1 1 80.000290 -56.000060 -100.000100 1.000000 0.000000 0.000000 0.000000 1.000002 0.000000 0.000000 0.000000 1.000000 32001.dat
0 STEP
1 1 280.000100 -56.000060 -99.999980 -1.000000 0.000000 0.000000 0.000000 1.000002 0.000000 0.000000 0.000000 -1.000000 3709b.dat
1 1 -120.000000 -56.000060 -100.000100 -1.000000 0.000000 0.000000 0.000000 1.000002 0.000000 0.000000 0.000000 -1.000000 3709b.dat
0 STEP
1 15 -100.000000 -24.000000 -100.000000 1.000000 0.000000 0.000000 0.000000 1.000002 0.000000 0.000000 0.000000 1.000000 3001.dat
1 15 260.000100 -24.000000 -100.000100 1.000000 0.000000 0.000000 0.000000 1.000002 0.000000 0.000000 0.000000 1.000000 3001.dat
0 STEP
1 0 20.000020 -38.000030 -80.000000 0.000000 0.000000 -1.000000 0.000000 1.000002 0.000000 1.000000 0.000000 0.000000 2780.dat
1 0 -19.999990 -38.000030 -79.999950 0.000000 0.000000 -1.000000 0.000000 1.000002 0.000000 1.000000 0.000000 0.000000 2780.dat
1 0 140.000100 -38.000030 -80.000060 0.000000 0.000000 -1.000000 0.000000 1.000002 0.000000 1.000000 0.000000 0.000000 2780.dat
1 0 180.000100 -38.000030 -80.000060 0.000000 0.000000 -1.000000 0.000000 1.000002 0.000000 1.000000 0.000000 0.000000 2780.dat
0 STEP
1 14 -34.000110 -47.579040 -20.000080 1.000000 0.000000 0.000000 0.000000 -1.000002 0.000000 0.000000 0.000000 -1.000000 12344.dat
1 14 195.000200 -29.000000 -20.000080 -1.000000 0.000000 0.000000 0.000000 1.000002 0.000000 0.000000 0.000000 -1.000000 12344.dat
0 STEP
1 0 212.000200 -35.801010 -49.000080 1.000000 0.000000 0.000000 0.000000 1.000002 0.000000 0.000000 0.000000 1.000000 2780.dat
1 0 -52.000100 -39.801020 -48.000080 1.000000 0.000000 0.000000 0.000000 1.000002 0.000000 0.000000 0.000000 1.000000 2780.dat
1 0 -51.000110 -38.801020 -9.000080 1.000000 0.000000 0.000000 0.000000 1.000002 0.000000 0.000000 0.000000 1.000000 2780.dat
1 0 212.000200 -36.801010 -8.000080 1.000000 0.000000 0.000000 0.000000 1.000002 0.000000 0.000000 0.000000 1.000000 2780.dat
0 STEP
1 1 221.000200 -46.801030 -28.000080 0.000000 0.000000 1.000000 0.000000 1.000002 0.000000 -1.000000 0.000000 0.000000 3701.dat
1 1 -61.000100 -48.801040 -29.000140 0.000000 0.000000 1.000000 0.000000 1.000002 0.000000 -1.000000 0.000000 0.000000 3701.dat
0 STEP
1 0 260.000100 -38.000030 -80.000060 0.000000 0.000000 -1.000000 0.000000 1.000002 0.000000 1.000000 0.000000 0.000000 2780.dat
1 0 280.000100 -38.000030 -80.000060 0.000000 0.000000 -1.000000 0.000000 1.000002 0.000000 1.000000 0.000000 0.000000 2780.dat
1 0 -120.000000 -38.000030 -80.000080 0.000000 0.000000 -1.000000 0.000000 1.000002 0.000000 1.000000 0.000000 0.000000 2780.dat
1 0 -100.000000 -38.000030 -80.000080 0.000000 0.000000 -1.000000 0.000000 1.000002 0.000000 1.000000 0.000000 0.000000 2780.dat
0 STEP
1 1 -119.999900 -118.000100 -70.000110 1.000000 -0.000001 -0.000001 0.000001 0.000001 1.000000 -0.000001 -1.000000 0.000001 32526.dat
1 1 279.999900 -118.000200 -69.000180 -1.000000 0.000001 0.000001 0.000001 0.000001 1.000002 0.000001 1.000000 -0.000001 32526.dat
0 STEP
1 0 180.000200 -38.000030 -120.000100 0.000000 0.000000 -1.000000 0.000000 1.000002 0.000000 1.000000 0.000000 0.000000 2780.dat
1 0 20.000140 -38.000030 -120.000100 0.000000 0.000000 -1.000000 0.000000 1.000002 0.000000 1.000000 0.000000 0.000000 2780.dat
1 0 140.000400 -38.000030 -120.000100 0.000000 0.000000 -1.000000 0.000000 1.000002 0.000000 1.000000 0.000000 0.000000 2780.dat
1 0 -19.999990 -38.000030 -120.000100 0.000000 0.000000 -1.000000 0.000000 1.000002 0.000000 1.000000 0.000000 0.000000 2780.dat
0 STEP
1 14 -34.999990 -29.000000 -180.000100 1.000000 0.000000 0.000000 0.000000 1.000002 0.000000 0.000000 0.000000 1.000000 12344.dat
1 14 194.000100 -47.579030 -181.000100 -1.000000 0.000000 0.000000 0.000000 -1.000002 0.000000 0.000000 0.000000 1.000000 12344.dat
0 STEP
1 0 211.000200 -38.801020 -152.000000 -1.000000 0.000000 0.000000 0.000000 1.000002 0.000000 0.000000 0.000000 -1.000000 2780.dat
1 0 211.000100 -38.801040 -192.000100 -1.000000 0.000000 0.000000 0.000000 1.000002 0.000000 0.000000 0.000000 -1.000000 2780.dat
1 0 -52.999980 -38.801020 -151.000000 -1.000000 0.000000 0.000000 0.000000 1.000002 0.000000 0.000000 0.000000 -1.000000 2780.dat
1 0 -51.999980 -37.801010 -191.000100 -1.000000 0.000000 0.000000 0.000000 1.000002 0.000000 0.000000 0.000000 -1.000000 2780.dat
0 STEP
1 1 -61.999920 -47.801030 -172.000100 0.000000 0.000000 1.000000 0.000000 1.000002 0.000000 -1.000000 0.000000 0.000000 3701.dat
1 1 220.000100 -48.801040 -172.000100 0.000000 0.000000 1.000000 0.000000 1.000002 0.000000 -1.000000 0.000000 0.000000 3701.dat
0 STEP
1 15 -61.000100 -72.801100 -19.000140 -1.000000 0.000000 0.000000 0.000000 1.000002 0.000000 0.000000 0.000000 -1.000000 3040b.dat
1 15 221.000200 -70.801080 -18.000080 -1.000000 0.000000 0.000001 0.000000 1.000002 0.000000 -0.000001 0.000000 -1.000000 3040b.dat
1 15 -61.999980 -71.801080 -202.000100 -1.000000 0.000000 0.000000 0.000000 1.000002 0.000000 0.000000 0.000000 -1.000000 3040b.dat
1 15 220.000100 -72.801100 -202.000100 -1.000000 0.000000 0.000000 0.000000 1.000002 0.000000 0.000000 0.000000 -1.000000 3040b.dat
0 STEP
1 0 80.000290 -149.970200 -99.999980 0.000000 -1.000000 0.000000 1.000002 0.000000 0.000000 0.000000 0.000000 1.000000 3737.dat
1 0 100.000200 -80.640080 -99.999920 0.000000 0.000000 -1.000000 -1.000002 0.000000 0.000000 0.000000 1.000000 0.000000 2780.dat
1 71 80.000290 -70.640080 -98.999980 0.000001 -0.000001 1.000000 -0.000001 1.000002 0.000001 -1.000000 -0.000001 0.000001 60483.dat
0 STEP
1 15 80.000290 -90.640140 -99.999870 0.000001 0.000001 -1.000000 -0.000001 -1.000002 -0.000001 -1.000000 0.000001 -0.000001 64871.dat
0 STEP
1 15 80.000290 -108.330200 -80.000060 -1.000000 0.000001 -0.000001 -0.000001 -1.000002 -0.000001 -0.000001 -0.000001 1.000000 64871.dat
0 STEP
1 0 80.000290 -117.550200 -80.000000 0.000000 0.000000 -1.000000 -1.000002 0.000000 0.000000 0.000000 1.000000 0.000000 2780.dat
1 71 80.000290 -118.330100 -140.000100 0.000000 0.000000 -1.000000 -1.000002 0.000000 0.000000 0.000000 1.000000 0.000000 3673.dat
1 71 80.000170 -118.330200 -20.000140 0.000000 0.000000 -1.000000 -1.000002 0.000000 0.000000 0.000000 1.000000 0.000000 3673.dat
0 STEP
1 71 80.000290 -127.550200 -99.999980 -1.000000 -0.000001 0.000001 0.000001 -1.000002 -0.000001 0.000001 -0.000001 1.000000 60483.dat
0 STEP
1 0 279.999900 -118.000200 -79.000110 0.000000 0.000000 -1.000000 0.000000 1.000002 0.000000 1.000000 0.000000 0.000000 2780.dat
1 0 280.000000 -78.000110 -79.000180 0.000000 0.000000 -1.000000 0.000000 1.000002 0.000000 1.000000 0.000000 0.000000 2780.dat
1 15 280.000000 -218.000400 -89.000110 1.000000 -0.000001 0.000001 0.000001 0.000001 -1.000002 0.000001 1.000000 0.000001 64871.dat
0 STEP
1 0 -119.999700 -118.000200 -80.000690 0.000000 0.000000 -1.000000 0.000000 1.000002 0.000000 1.000000 0.000000 0.000000 2780.dat
1 0 -119.999900 -78.000110 -80.000140 0.000000 0.000000 -1.000000 0.000000 1.000002 0.000000 1.000000 0.000000 0.000000 2780.dat
1 15 -119.999900 -218.000400 -90.000560 1.000000 -0.000001 0.000001 -0.000001 -0.000001 1.000002 -0.000001 -1.000000 -0.000001 64871.dat
0 STEP
1 15 279.999900 -198.000300 -110.000400 -1.000000 0.000001 -0.000001 0.000001 0.000001 -1.000002 -0.000001 -1.000000 -0.000001 64290.dat
1 0 280.000000 -98.000130 -120.000200 0.000000 0.000000 -1.000000 0.000000 1.000002 0.000000 1.000000 0.000000 0.000000 2780.dat
1 0 280.000000 -118.000100 -120.000200 0.000000 0.000000 -1.000000 0.000000 1.000002 0.000000 1.000000 0.000000 0.000000 2780.dat
1 0 280.000100 -38.000030 -120.000100 0.000000 0.000000 -1.000000 0.000000 1.000002 0.000000 1.000000 0.000000 0.000000 2780.dat
1 15 280.000100 -118.000200 -130.000200 -1.000000 0.000001 -0.000001 0.000001 0.000001 -1.000002 -0.000001 -1.000000 -0.000001 40490.dat
1 71 279.999600 -278.000400 -120.000500 0.000000 -1.000000 0.000000 0.000000 0.000000 -1.000002 1.000000 0.000000 0.000000 3673.dat
1 71 279.999800 -298.000400 -120.000600 0.000000 -1.000000 0.000000 0.000000 0.000000 -1.000002 1.000000 0.000000 0.000000 3673.dat
0 STEP
1 15 -119.999900 -198.000300 -110.000200 -1.000000 0.000001 -0.000001 -0.000001 -0.000001 1.000002 0.000001 1.000000 0.000001 64290.dat
1 0 -120.000000 -118.000100 -120.000100 0.000000 0.000000 -1.000000 0.000000 1.000002 0.000000 1.000000 0.000000 0.000000 2780.dat
1 0 -120.000000 -98.000110 -120.000100 0.000000 0.000000 -1.000000 0.000000 1.000002 0.000000 1.000000 0.000000 0.000000 2780.dat
1 0 -119.999900 -38.000030 -120.000100 0.000000 0.000000 -1.000000 0.000000 1.000002 0.000000 1.000000 0.000000 0.000000 2780.dat
1 15 -120.000000 -118.000100 -130.000100 -1.000000 0.000001 -0.000001 0.000001 0.000001 -1.000002 -0.000001 -1.000000 -0.000001 40490.dat
1 71 -119.999700 -278.000500 -120.000400 0.000000 0.000000 -1.000000 0.000000 1.000002 0.000000 1.000000 0.000000 0.000000 3673.dat
1 71 -119.999600 -298.000400 -120.000400 0.000000 0.000000 -1.000000 0.000000 1.000002 0.000000 1.000000 0.000000 0.000000 3673.dat
0 STEP
1 4 160.000300 -128.330200 -20.000080 -0.000001 1.000000 -0.000001 1.000002 0.000001 -0.000001 -0.000001 -0.000001 -1.000000 32054.dat
1 4 0.000010 -128.330400 -20.000200 -0.000001 1.000000 -0.000001 1.000002 0.000001 -0.000001 -0.000001 -0.000001 -1.000000 32054.dat
1 19 0.000010 -158.330400 -20.000260 -0.000001 1.000000 -0.000001 1.000002 0.000001 -0.000001 -0.000001 -0.000001 -1.000000 3749.dat
1 15 80.000170 -128.330300 -20.000140 0.000001 0.000001 -1.000000 -0.000001 -1.000002 -0.000001 -1.000000 0.000001 -0.000001 40490.dat
1 19 160.000300 -158.330200 -20.000140 -0.000001 1.000000 -0.000001 1.000002 0.000001 -0.000001 -0.000001 -0.000001 -1.000000 3749.dat
0 STEP
1 0 100.000400 -300.070500 -99.999580 0.000000 -1.000000 0.000000 1.000002 0.000000 0.000000 0.000000 0.000000 1.000000 2780.dat
1 71 80.000540 -290.030500 -100.000300 0.000002 -0.000001 1.000000 -0.000001 1.000002 0.000001 -1.000000 -0.000001 0.000002 60483.dat
1 71 80.000290 -258.970500 -99.997120 1.000000 0.000000 0.000001 -0.000001 0.000000 1.000002 0.000000 -1.000000 0.000000 59443.dat
0 STEP
1 19 0.000130 -158.330300 -140.000200 -0.000001 1.000000 -0.000001 1.000002 0.000001 -0.000001 -0.000001 -0.000001 -1.000000 3749.dat
1 19 160.000500 -158.330100 -139.999900 -0.000001 1.000000 -0.000001 1.000002 0.000001 -0.000001 -0.000001 -0.000001 -1.000000 3749.dat
1 4 160.000400 -128.330100 -139.999900 -0.000001 1.000000 -0.000001 1.000002 0.000001 -0.000001 -0.000001 -0.000001 -1.000000 32054.dat
1 4 0.000010 -128.330200 -140.000200 -0.000001 1.000000 -0.000001 1.000002 0.000001 -0.000001 -0.000001 -0.000001 -1.000000 32054.dat
1 15 80.000290 -128.330200 -140.000000 0.000001 0.000001 -1.000000 -0.000001 -1.000002 -0.000001 -1.000000 0.000001 -0.000001 40490.dat
0 STEP
1 14 -59.999730 -104.730300 -99.999770 1.000000 0.000000 0.000000 0.000000 0.000000 -1.000002 0.000000 1.000000 0.000000 32123a.dat
1 4 -59.999730 -119.940300 -99.999820 0.000000 -1.000000 0.000000 -1.000002 0.000000 0.000000 0.000000 0.000000 -1.000000 32034.dat
1 4 220.000500 -119.070000 -99.999370 0.000000 -1.000000 0.000000 1.000002 0.000000 0.000000 0.000000 0.000000 1.000000 32034.dat
1 0 220.000500 -202.130200 -99.999450 0.000000 0.000000 -1.000000 -1.000002 0.000000 0.000000 0.000000 1.000000 0.000000 3708.dat
1 0 -59.999730 -200.640400 -99.999820 0.000000 0.000000 -1.000000 -1.000002 0.000000 0.000000 0.000000 1.000000 0.000000 3708.dat
1 14 220.000500 -104.200000 -99.999370 1.000000 0.000000 0.000000 0.000000 0.000000 -1.000002 0.000000 1.000000 0.000000 32123a.dat
0 STEP
1 14 220.000500 -293.430300 -99.999370 1.000000 0.000000 0.000000 0.000000 0.000000 -1.000002 0.000000 1.000000 0.000000 32123a.dat
1 14 -59.999730 -294.600600 -99.999770 1.000000 0.000000 0.000000 0.000000 0.000000 -1.000002 0.000000 1.000000 0.000000 32123a.dat
0 STEP
1 15 80.000420 -310.070500 -99.999580 0.000001 0.000001 -1.000000 -0.000001 -1.000002 -0.000001 -1.000000 0.000001 -0.000001 64871.dat
0 STEP
1 0 80.000780 -215.890200 -220.000300 0.000000 0.000000 -1.000000 -1.000002 0.000000 0.000000 0.000000 1.000000 0.000000 3708.dat
1 0 80.000420 -216.770500 59.999660 0.000000 0.000000 -1.000000 -1.000002 0.000000 0.000000 0.000000 1.000000 0.000000 3708.dat
1 14 80.000780 -123.850100 -220.000300 1.000000 0.000000 0.000000 0.000000 0.000000 -1.000002 0.000000 1.000000 0.000000 32123a.dat
1 14 80.000420 -122.830300 59.999660 1.000000 0.000000 0.000000 0.000000 0.000000 -1.000002 0.000000 1.000000 0.000000 32123a.dat
0 STEP
1 14 80.000420 -312.390600 59.999660 1.000000 0.000000 0.000000 0.000000 0.000000 -1.000002 0.000000 1.000000 0.000000 32123a.dat
1 14 80.000780 -310.890300 -220.000300 1.000000 0.000000 0.000000 0.000000 0.000000 -1.000002 0.000000 1.000000 0.000000 32123a.dat
0 STEP
1 15 80.000420 -327.120500 -80.000300 -1.000000 0.000001 -0.000001 -0.000001 -1.000002 -0.000001 -0.000001 -0.000001 1.000000 64871.dat
0 STEP
1 0 80.000540 -367.750700 -100.000300 0.000000 0.000000 1.000000 -1.000002 0.000000 0.000000 0.000000 -1.000000 0.000000 3737.dat
0 STEP
1 0 -120.000100 -358.000600 -80.000380 0.000000 0.000000 -1.000000 0.000000 1.000002 0.000000 1.000000 0.000000 0.000000 2780.dat
1 0 280.000400 -318.000500 -80.000490 0.000000 0.000000 -1.000000 0.000000 1.000002 0.000000 1.000000 0.000000 0.000000 2780.dat
1 0 280.000400 -358.000500 -80.000370 0.000000 0.000000 -1.000000 0.000000 1.000002 0.000000 1.000000 0.000000 0.000000 2780.dat
1 0 -120.000000 -318.000500 -80.000320 0.000000 0.000000 -1.000000 0.000000 1.000002 0.000000 1.000000 0.000000 0.000000 2780.dat
0 STEP
1 1 80.000540 -384.000700 -100.000300 1.000000 0.000000 0.000000 0.000000 1.000002 0.000000 0.000000 0.000000 1.000000 32001.dat
1 71 80.000540 -347.580600 -101.000300 -1.000000 -0.000001 0.000001 -0.000001 1.000002 0.000001 -0.000001 0.000001 -1.000000 60483.dat
0 STEP
1 1 280.000400 -318.000500 -70.000490 -1.000000 0.000001 0.000001 -0.000001 -0.000001 -1.000002 -0.000001 -1.000000 0.000001 32526.dat
1 1 -120.000000 -318.000500 -70.000320 1.000000 -0.000001 -0.000001 -0.000001 -0.000001 -1.000002 0.000001 1.000000 -0.000001 32526.dat
1 71 -100.000000 -398.000700 -80.000380 0.000000 0.000000 -1.000000 0.000000 1.000002 0.000000 1.000000 0.000000 0.000000 3673.dat
1 71 240.000500 -398.000700 -80.000300 0.000000 0.000000 -1.000000 0.000000 1.000002 0.000000 1.000000 0.000000 0.000000 3673.dat
1 71 -79.999740 -398.000700 -80.000260 0.000000 0.000000 -1.000000 0.000000 1.000002 0.000000 1.000000 0.000000 0.000000 3673.dat
1 71 260.000500 -398.000700 -80.000300 0.000000 0.000000 -1.000000 0.000000 1.000002 0.000000 1.000000 0.000000 0.000000 3673.dat
0 STEP
1 1 260.000500 -408.000700 -90.000300 1.000000 0.000000 0.000000 0.000000 1.000002 0.000000 0.000000 0.000000 1.000000 3703.dat
1 1 -99.999770 -408.000700 -90.000320 1.000000 0.000000 0.000000 0.000000 1.000002 0.000000 0.000000 0.000000 1.000000 3703.dat
0 STEP
1 1 220.000500 -408.000700 -110.000300 1.000000 0.000000 0.000000 0.000000 1.000002 0.000000 0.000000 0.000000 1.000000 3895.dat
1 71 279.999800 -398.000700 -120.000500 0.000000 0.000000 -1.000000 0.000000 1.000002 0.000000 1.000000 0.000000 0.000000 3673.dat
0 STEP
1 15 279.999900 -338.000500 -130.000500 1.000000 -0.000001 0.000001 -0.000001 -0.000001 1.000002 -0.000001 -1.000000 -0.000001 32524.dat
0 STEP
1 1 -59.999730 -408.000700 -110.000300 1.000000 0.000000 0.000000 0.000000 1.000002 0.000000 0.000000 0.000000 1.000000 3895.dat
1 71 -119.999700 -398.000700 -120.000300 0.000000 0.000000 -1.000000 0.000000 1.000002 0.000000 1.000000 0.000000 0.000000 3673.dat
0 STEP
1 15 -119.999700 -338.000500 -130.000400 1.000000 -0.000001 0.000001 -0.000001 -0.000001 1.000002 -0.000001 -1.000000 -0.000001 32524.dat
0 STEP
1 1 80.000540 -416.000800 -100.000300 1.000000 0.000000 0.000000 0.000000 1.000002 0.000000 0.000000 0.000000 1.000000 32001.dat
0 STEP
1 19 80.000540 -422.730900 -100.000400 -1.000000 0.000000 -0.000001 0.000001 0.000000 -1.000002 0.000000 -1.000000 0.000000 6589.dat
1 71 80.000540 -439.480900 -100.000400 1.000000 0.000000 0.000001 0.000001 0.000000 -1.000002 0.000000 1.000000 0.000000 3713.dat
0 STEP
1 19 200.000500 -398.000700 -120.000300 0.000001 -1.000000 0.000001 0.000001 0.000001 1.000002 -1.000000 -0.000001 0.000001 3749.dat
1 15 200.000600 -408.000600 -130.000300 1.000000 0.000000 0.000000 0.000000 1.000002 0.000000 0.000000 0.000000 1.000000 32064a.dat
1 15 -39.999860 -408.000600 -130.000300 1.000000 0.000000 0.000000 0.000000 1.000002 0.000000 0.000000 0.000000 1.000000 32064a.dat
1 19 -39.999860 -398.000700 -120.000300 0.000001 -1.000000 0.000001 0.000001 0.000001 1.000002 -1.000000 -0.000001 0.000001 3749.dat
0 STEP
1 1 340.000500 -416.000800 -100.000400 -1.000000 0.000000 0.000000 0.000000 1.000002 0.000000 0.000000 0.000000 -1.000000 3709b.dat
1 1 160.000500 -424.000900 -100.000300 -1.000000 0.000000 0.000000 0.000000 1.000002 0.000000 0.000000 0.000000 -1.000000 3709b.dat
1 1 340.000300 -424.000900 -100.000100 -0.999999 0.000000 0.000000 0.000000 1.000002 0.000000 0.000000 0.000000 -0.999999 3709b.dat
1 1 220.000500 -416.000800 -100.000300 1.000000 0.000000 0.000000 0.000000 1.000002 0.000000 0.000000 0.000000 1.000000 32001.dat
0 STEP
1 0 400.000400 -398.000700 -80.000370 0.000000 0.000000 -1.000000 0.000000 1.000002 0.000000 1.000000 0.000000 0.000000 2780.dat
1 0 -239.999600 -398.000700 -80.000380 0.000000 0.000000 -1.000000 0.000000 1.000002 0.000000 1.000000 0.000000 0.000000 2780.dat
1 4 400.000300 -398.000700 -70.000370 0.000000 0.000000 -1.000000 0.000000 -1.000002 0.000000 -1.000000 0.000000 0.000000 32034.dat
1 4 -239.999700 -398.000700 -70.000380 0.000000 0.000000 -1.000000 0.000000 -1.000002 0.000000 -1.000000 0.000000 0.000000 32034.dat
0 STEP
1 15 -79.999740 -424.000900 -90.000320 1.000000 0.000000 0.000000 0.000000 1.000002 0.000000 0.000000 0.000000 1.000000 2431.dat
1 15 -19.999740 -424.000900 -110.000400 1.000000 0.000000 0.000000 0.000000 1.000002 0.000000 0.000000 0.000000 1.000000 2431.dat
1 1 -59.999730 -416.000800 -100.000300 1.000000 0.000000 0.000000 0.000000 1.000002 0.000000 0.000000 0.000000 1.000000 32001.dat
0 STEP
1 1 130.000500 -448.000900 -100.000300 0.000000 0.000000 1.000000 0.000000 1.000002 0.000000 -1.000000 0.000000 0.000000 3700.dat
0 STEP
1 71 269.320300 -438.003800 -100.000200 -0.000001 0.000000 1.000000 0.000000 1.000002 0.000000 -1.000000 0.000000 -0.000001 59443.dat
1 14 116.750300 -438.000900 -100.000200 0.000000 0.000000 -1.000000 0.000000 -1.000002 0.000000 -1.000000 0.000000 0.000000 32123a.dat
1 0 102.530100 -438.000900 -100.000200 0.000000 0.000000 1.000000 0.000000 1.000002 0.000000 -1.000000 0.000000 0.000000 32270.dat
1 71 180.540300 -438.000900 -100.000200 -1.000000 0.000000 0.000000 0.000000 1.000002 0.000000 0.000000 0.000000 -1.000000 60485.dat
0 STEP
1 1 370.000200 -448.000900 -100.000200 0.000000 0.000000 1.000000 0.000000 1.000002 0.000000 -1.000000 0.000000 0.000000 3700.dat
1 71 359.320300 -438.000900 -100.000200 -1.000000 0.000000 0.000000 0.000000 1.000002 0.000000 0.000000 0.000000 -1.000000 60485.dat
0 STEP
1 1 439.320300 -458.000900 -100.000200 1.000000 0.000000 0.000000 0.000000 -1.000002 0.000000 0.000000 0.000000 -1.000000 32184.dat
0 STEP
1 19 449.320300 -478.001000 -100.000200 -1.000000 -0.000001 0.000001 0.000001 0.000001 1.000002 -0.000001 1.000000 -0.000001 3749.dat
1 4 469.320300 -478.001000 -100.000200 -1.000000 0.000000 0.000000 0.000000 1.000002 0.000000 0.000000 0.000000 -1.000000 62462.dat
0 STEP
