0 FILE 仰卧起坐.io
0 Untitled Model
0 Name:  仰卧起坐
0 Author:  
0 CustomBrick
0 NumOfBricks:  73
1 1 -242.000100 -76.221170 -246.720000 -1.000000 0.000000 0.000000 -0.000001 1.000000 0.000000 0.000000 0.000000 -1.000000 3895.dat
1 1 -242.000100 -76.221170 -146.720200 -1.000000 0.000000 0.000000 -0.000001 1.000000 0.000000 0.000000 0.000000 -1.000000 3895.dat
1 1 -302.000200 -84.221200 -196.720100 0.000000 0.000000 -1.000000 0.000000 1.000000 -0.000001 1.000000 0.000000 0.000000 32001.dat
1 1 -222.000300 -84.221160 -196.720100 0.000000 0.000000 -1.000000 0.000000 1.000000 -0.000001 1.000000 0.000000 0.000000 32001.dat
1 1 -342.000100 -84.221210 -196.720100 0.000000 0.000000 -1.000000 0.000000 1.000000 -0.000001 1.000000 0.000000 0.000000 32001.dat
1 1 -262.000200 -84.221190 -196.720100 0.000000 0.000000 -1.000000 0.000000 1.000000 -0.000001 1.000000 0.000000 0.000000 32001.dat
0 STEP
1 1 -332.000400 -44.221220 -196.720100 0.000000 0.000000 -1.000000 0.000000 1.000000 -0.000001 1.000000 0.000000 0.000000 3701.dat
1 1 -352.000100 -44.221230 -196.720100 0.000000 0.000000 -1.000000 0.000000 1.000000 -0.000001 1.000000 0.000000 0.000000 3701.dat
1 1 -342.000200 -52.221220 -196.720100 0.000001 0.000000 1.000000 0.000000 1.000000 0.000001 -1.000000 0.000000 0.000001 32001.dat
0 STEP
1 1 -132.000200 -44.221120 -196.720000 0.000000 0.000000 -1.000000 0.000000 1.000000 -0.000001 1.000000 0.000000 0.000000 3701.dat
1 1 -151.999900 -44.221130 -196.719900 0.000000 0.000000 -1.000000 0.000000 1.000000 -0.000001 1.000000 0.000000 0.000000 3701.dat
1 1 -142.000400 -52.221120 -196.720100 -0.000001 0.000000 -1.000000 0.000000 1.000000 -0.000001 1.000000 0.000000 -0.000001 32001.dat
0 STEP
1 1 -81.999970 -28.221090 -176.720100 1.000000 0.000000 0.000000 0.000001 1.000000 0.000000 0.000000 0.000000 1.000000 3709b.dat
1 1 -122.000200 -20.221110 -166.720100 -1.000000 0.000000 0.000000 -0.000001 1.000000 0.000000 0.000000 0.000000 -1.000000 3666.dat
1 1 -122.000200 -20.221110 -206.720000 -1.000000 0.000000 0.000000 -0.000001 1.000000 0.000000 0.000000 0.000000 -1.000000 3666.dat
0 STEP
1 1 -122.000300 -100.221100 -146.720200 -1.000000 0.000000 0.000000 -0.000001 1.000000 0.000000 0.000000 0.000000 -1.000000 3702.dat
0 STEP
1 1 17.999830 -20.221040 -176.720000 -1.000000 0.000000 0.000000 -0.000001 1.000000 0.000000 0.000000 0.000000 -1.000000 3738.dat
0 STEP
1 47 -81.999950 -68.221100 -176.720100 1.000000 0.000000 0.000000 0.000001 1.000000 -0.000001 0.000000 0.000001 1.000000 6588.dat
0 STEP
1 71 -83.249950 -50.221080 -176.720200 -0.000001 0.000000 1.000000 0.958949 -0.283577 0.000001 0.283577 0.958949 0.000000 4716.dat
1 14 -115.500100 -50.221100 -176.720200 0.000000 0.000000 1.000000 0.958949 -0.283577 0.000000 0.283577 0.958949 0.000000 32123a.dat
1 0 -58.779930 -50.221080 -176.720100 -1.000000 0.000000 0.000000 -0.000001 -0.283578 0.958949 0.000000 0.958949 0.283578 3706.dat
1 71 -20.999520 -50.221060 -176.718900 0.000000 0.000000 0.999997 0.000000 1.000000 0.000001 -0.999997 0.000000 0.000000 58120.dat
0 STEP
1 72 -82.000000 -90.221030 -177.000000 0.173648 -0.984808 0.000000 0.984808 0.173648 0.000000 0.000000 0.000000 1.000000 3648b.dat
1 71 -81.999950 -90.221080 -205.390000 0.984808 0.173648 0.000000 -0.173648 0.984808 0.000000 0.000000 0.000000 1.000000 3649.dat
1 0 -81.999950 -90.221070 -174.400100 0.000000 -0.984808 0.173649 0.000000 0.173648 0.984808 -1.000000 0.000000 0.000000 3705.dat
0 STEP
1 71 -66.942440 -62.413330 -215.390000 0.000000 0.258817 -0.965926 0.000000 0.965926 0.258818 1.000000 0.000000 0.000000 3673.dat
1 15 -99.356780 -112.904000 -225.390100 0.841509 -0.000001 -0.540238 -0.540240 0.000000 -0.841512 0.000001 0.999998 0.000000 40490.dat
0 STEP
1 1 -153.224500 -183.924600 -205.390100 -0.499998 0.866027 0.000000 0.866027 0.499998 0.000000 0.000000 0.000000 -1.000000 3700.dat
1 71 -144.564100 -178.924600 -215.390100 0.000000 0.000000 -1.000000 0.000000 1.000000 0.000000 1.000000 0.000000 0.000000 3673.dat
0 STEP
1 1 -182.717500 -213.929600 -197.640200 0.000000 0.866027 0.499998 0.000000 0.499998 -0.866027 -1.000000 0.000000 0.000000 3700.dat
1 1 -160.004800 -189.269400 -207.640100 0.499998 0.866027 0.000000 -0.866027 0.499998 0.000000 0.000000 0.000000 1.000000 3023.dat
1 1 -166.932900 -193.269400 -197.640200 0.000000 0.866027 0.499998 0.000000 0.499998 -0.866027 -1.000000 0.000000 0.000000 3709b.dat
0 STEP
1 1 -207.717500 -170.628300 -227.640100 0.499998 0.866027 0.000000 -0.866027 0.499998 0.000000 0.000000 0.000000 1.000000 3894.dat
1 71 -219.057200 -130.987300 -178.140300 0.000000 -0.500000 -0.866026 0.000000 0.866025 -0.500001 1.000000 0.000000 0.000000 3673.dat
1 0 -230.528700 -114.604200 -197.640200 0.000000 0.000000 -1.000000 0.000000 1.000000 -0.000001 1.000000 0.000000 0.000000 2780.dat
1 71 -219.057200 -130.987300 -217.640200 0.000000 0.087155 -0.996195 0.000000 0.996195 0.087155 1.000000 0.000000 0.000000 3673.dat
1 1 -207.717500 -170.628300 -168.140300 0.499998 0.866027 0.000000 -0.866027 0.499998 0.000000 0.000000 0.000000 1.000000 3894.dat
1 15 -219.057200 -130.987300 -188.140200 -0.819152 0.000000 -0.573577 -0.573577 -0.000001 0.819152 0.000000 1.000000 0.000001 32316.dat
1 15 -219.057200 -130.987200 -207.640200 -0.819153 0.000001 -0.573576 -0.573576 -0.000001 0.819152 0.000000 1.000000 0.000001 32316.dat
1 1 -206.932800 -123.987300 -197.640200 0.000000 0.866027 0.499998 0.000000 0.499998 -0.866026 -1.000000 0.000000 0.000000 3709b.dat
0 STEP
1 1 -262.000200 -108.221200 -146.720200 1.000000 0.000000 0.000000 0.000001 1.000000 0.000000 0.000000 0.000000 1.000000 3701.dat
1 1 -262.000300 -108.221200 -246.720000 1.000000 0.000000 0.000000 0.000001 1.000000 0.000000 0.000000 0.000000 1.000000 3701.dat
0 STEP
1 1 -242.000300 -98.221160 -227.550000 -0.021001 -0.000001 -0.999780 0.999779 -0.000001 -0.021001 -0.000001 -1.000000 0.000001 32271.dat
1 1 -242.000200 -98.221160 -167.070200 -0.021001 -0.000001 -0.999780 0.999779 -0.000001 -0.021001 -0.000001 -1.000000 0.000001 32271.dat
1 0 -242.000200 -98.221170 -195.000100 0.000000 -0.021000 0.999779 0.000000 0.999779 0.021000 -1.000000 0.000000 0.000000 3706.dat
0 STEP
1 19 -169.057400 -217.589900 -197.640200 0.499998 -0.000002 -0.866027 -0.866027 -0.000001 -0.499998 0.000000 1.000000 -0.000003 3749.dat
0 STEP
1 0 -154.057500 -243.570700 -197.640200 -0.866027 0.000002 0.499998 -0.499998 0.000002 -0.866027 -0.000003 -1.000000 0.000000 32013.dat
0 STEP
1 71 -168.468200 -251.890700 -197.640300 0.000003 -0.499998 0.866027 0.000001 0.866026 0.499998 -1.000000 -0.000001 0.000003 4185.dat
1 71 -140.079700 -235.500700 -197.640200 0.000003 0.499998 -0.866027 0.000001 -0.866026 -0.499999 -1.000000 0.000001 -0.000003 4185.dat
1 4 -154.022800 -243.550700 -197.640200 0.866027 -0.499998 -0.000003 0.499998 0.866026 -0.000001 0.000003 -0.000001 1.000000 32062.dat
0 STEP
1 1 -170.605000 -182.143200 -247.640200 0.906308 -0.000001 -0.422619 -0.422618 -0.000001 -0.906308 0.000001 1.000000 -0.000002 32526.dat
1 1 -170.605100 -182.143200 -148.140400 0.906308 -0.000001 -0.422619 -0.422619 -0.000001 -0.906308 0.000001 1.000000 -0.000002 32526.dat
1 0 -179.057400 -200.269300 -237.640200 0.000000 0.000000 -1.000000 0.000000 1.000000 -0.000001 1.000000 0.000000 0.000000 2780.dat
1 0 -179.057400 -200.269400 -158.140300 0.000000 0.000000 -1.000000 0.000000 1.000000 -0.000001 1.000000 0.000000 0.000000 2780.dat
0 STEP
1 1 -194.645800 -209.269300 -197.640200 0.000000 0.866027 0.499998 0.000000 0.499998 -0.866026 -1.000000 0.000000 0.000000 3709b.dat
1 15 -228.502000 -182.628200 -168.140300 0.499995 0.866025 0.000000 -0.866028 0.499996 0.000000 0.000000 0.000000 0.999997 32064a.dat
1 15 -228.502100 -182.628200 -227.640100 0.499996 0.866025 0.000000 -0.866027 0.499997 0.000000 0.000000 0.000000 0.999997 32064a.dat
1 15 -210.430500 -229.929500 -197.640200 0.000000 0.866025 0.499995 0.000000 0.499997 -0.866028 -0.999997 0.000000 0.000000 32064a.dat
0 STEP
1 0 -209.057200 -148.307800 -237.640100 0.000000 -0.499996 -0.866025 0.000000 0.866027 -0.499997 0.999997 0.000000 0.000000 2780.dat
1 0 -209.057100 -148.307800 -158.140300 0.000000 0.000000 -0.999997 0.000000 1.000000 -0.000001 0.999998 0.000000 0.000000 2780.dat
1 4 -209.057100 -148.307800 -148.140400 0.000000 0.000000 -0.999997 0.000000 -1.000000 -0.000001 -0.999997 0.000000 0.000000 32034.dat
1 4 -209.057200 -148.307800 -247.640000 0.000000 0.000000 -0.999997 0.000000 -1.000000 -0.000001 -0.999998 0.000000 0.000000 32034.dat
0 STEP
1 1 -168.162300 -281.552600 -128.140600 0.999997 0.000000 0.000000 0.000001 1.000000 0.000000 0.000000 0.000000 0.999997 3700.dat
1 1 -168.162200 -281.552600 -267.640200 0.999997 0.000000 0.000000 0.000001 1.000000 0.000000 0.000000 0.000000 0.999997 3700.dat
1 0 -168.162300 -271.552600 -138.140500 0.000000 0.000000 -0.999997 0.000000 1.000000 -0.000001 0.999998 0.000000 0.000000 2780.dat
1 0 -168.162300 -271.552600 -257.640300 0.000000 0.000000 -0.999997 0.000000 1.000000 -0.000001 0.999998 0.000000 0.000000 2780.dat
0 STEP
1 15 -158.162300 -305.552600 -267.640200 0.000000 0.000000 -0.999997 0.000000 1.000000 -0.000001 0.999998 0.000000 0.000000 3040b.dat
1 15 -178.162200 -305.552600 -267.640300 0.000000 0.000000 0.999997 0.000000 1.000000 0.000001 -0.999997 0.000000 0.000000 3040b.dat
1 15 -178.162300 -305.552600 -128.140600 0.000000 0.000000 0.999997 0.000000 1.000000 0.000001 -0.999997 0.000000 0.000000 3040b.dat
1 15 -158.162400 -305.552500 -128.140600 0.000000 0.000000 -0.999997 0.000000 1.000000 -0.000001 0.999997 0.000000 0.000000 3040b.dat
0 STEP
1 16 -221.998900 -0.000060 -26.719250 0.999997 0.000000 0.000000 0.000001 1.000000 0.000000 0.000000 0.000000 0.999997 submodel group 9 copy copy copy
0 STEP
0 STEP
0 NOFILE
0 FILE SubModel Group 9 Copy Copy Copy
0 SubModel Group 9 Copy Copy Copy
0 Name:  SubModel Group 9 Copy Copy Copy
0 Author:  
0 CustomBrick
0 NumOfBricks:  3
1 72 10.000000 -1.128810 -10.000000 1.000000 0.000000 0.000000 0.000000 0.000000 -1.000000 0.000000 1.000000 0.000000 dch003.dat
1 71 -27.466620 -79.717990 29.427020 1.000000 0.000000 0.000000 0.000000 0.000000 -1.000000 0.000000 1.000000 0.000000 dch004.dat
1 25 7.837010 13.484720 -9.965000 1.000000 0.000000 0.000000 0.000000 0.000000 -1.000000 0.000000 1.000000 0.000000 dch005.dat
0 NOFILE
