0 Untitled Model
0 Name:  万向轮结构5
0 Author:  
0 CustomBrick
0 NumOfBricks:  17
1 71 0.000000 -38.000000 -60.000000 0.000000 0.000000 1.000000 -1.000000 0.000000 0.000000 0.000000 -1.000000 0.000000 56145.dat
1 0 -5.300170 -37.999990 -60.000020 -1.000000 0.000000 0.000000 0.000000 1.000000 0.000000 0.000000 0.000000 -1.000000 3706.dat
0 STEP
1 1 36.300050 -98.000160 -60.000200 -0.000001 -1.000000 0.000001 0.000001 0.000001 1.000000 -1.000000 0.000001 0.000001 32140.dat
1 1 -44.400150 -98.000030 -60.000140 -0.000001 -1.000000 0.000001 0.000001 0.000001 1.000000 -1.000000 0.000001 0.000001 32140.dat
1 14 -29.399900 -37.999980 -60.000080 0.000000 0.000000 1.000002 0.000000 1.000002 0.000000 -1.000000 0.000000 0.000000 32123a.dat
0 STEP
1 71 -4.499880 -108.000100 -40.006780 0.000000 0.000000 -0.999998 1.000011 0.000000 0.000000 0.000000 -1.000013 0.000000 3673.dat
1 0 -4.499940 -98.000160 -60.000200 -1.000000 0.000000 0.000000 0.000000 0.000000 1.000000 0.000000 1.000000 0.000000 6536.dat
1 71 -25.830020 -98.000160 -60.000200 0.000001 0.000000 -1.000002 0.000000 -1.000002 0.000000 -1.000000 0.000000 -0.000001 3713.dat
1 71 16.609990 -98.000160 -60.000200 0.000001 0.000000 -1.000002 0.000000 -1.000002 0.000000 -1.000000 0.000000 -0.000001 3713.dat
1 71 -5.830020 -98.000160 -60.000200 -1.000002 0.000000 0.000000 0.000000 1.000002 0.000000 0.000000 0.000000 -1.000000 32073.dat
0 STEP
1 14 -60.300170 -37.999980 -60.000020 0.000000 0.000000 1.000000 0.000000 1.000000 0.000000 -1.000000 0.000000 0.000000 32123a.dat
1 14 51.469850 -38.000010 -60.000080 0.000000 0.000000 1.000000 0.000000 1.000000 0.000000 -1.000000 0.000000 0.000000 32123a.dat
0 STEP
1 0 -54.400140 -78.000040 -60.000120 -1.000000 0.000000 0.000000 0.000000 1.000000 0.000000 0.000000 0.000000 -1.000000 2780.dat
1 0 46.300080 -78.000140 -60.000180 1.000000 0.000000 0.000000 0.000000 1.000000 0.000000 0.000000 0.000000 1.000000 2780.dat
0 STEP
1 4 -64.400140 -78.000040 -60.000120 -1.000000 0.000000 0.000000 0.000000 -1.000000 0.000000 0.000000 0.000000 1.000000 32034.dat
1 4 56.300060 -78.000140 -60.000180 -1.000000 0.000000 0.000000 0.000000 -1.000000 0.000000 0.000000 0.000000 1.000000 32034.dat
0 STEP
1 15 -4.499820 -118.000300 -40.006780 0.000001 0.000001 -1.000000 0.000001 1.000000 0.000001 1.000000 -0.000001 0.000001 32523.dat
0 STEP
0 STEP
