0 Untitled Model
0 Name:  道闸
0 Author:  
0 CustomBrick
0 NumOfBricks:  114
1 1 140.000000 -24.000000 -70.000000 -1.000000 0.000000 0.000000 0.000000 1.000000 0.000000 0.000000 0.000000 -1.000000 3703.dat
1 1 0.000000 -31.999990 -40.000000 0.000000 0.000000 -1.000000 0.000000 1.000000 0.000000 1.000000 0.000000 0.000000 3709b.dat
1 1 140.000000 -24.000000 -9.999880 -1.000000 0.000000 0.000000 0.000000 1.000000 0.000000 0.000000 0.000000 -1.000000 3703.dat
0 STEP
1 1 60.000000 -31.999990 -40.000000 0.000000 0.000000 -1.000000 0.000000 1.000000 0.000000 1.000000 0.000000 0.000000 3709b.dat
1 1 280.000100 -31.999990 -40.000000 0.000000 0.000000 -1.000000 0.000000 1.000000 0.000000 1.000000 0.000000 0.000000 3709b.dat
1 1 220.000100 -31.999990 -40.000000 0.000000 0.000000 -1.000000 0.000000 1.000000 0.000000 1.000000 0.000000 0.000000 3709b.dat
1 15 -10.000000 -56.000000 -30.000000 -1.000000 0.000000 0.000000 0.000000 1.000000 0.000000 0.000000 0.000000 -1.000000 3040b.dat
1 15 -10.000000 -56.000000 -50.000000 1.000000 0.000000 0.000000 0.000000 1.000000 0.000000 0.000000 0.000000 1.000000 3040b.dat
1 15 290.000100 -56.000000 -50.000000 1.000000 0.000000 0.000000 0.000000 1.000000 0.000000 0.000000 0.000000 1.000000 3040b.dat
1 15 290.000100 -56.000000 -30.000000 -1.000000 0.000000 0.000000 0.000000 1.000000 0.000000 0.000000 0.000000 -1.000000 3040b.dat
0 STEP
1 1 140.000000 -95.999980 -9.999880 -1.000000 0.000000 0.000000 0.000000 1.000000 0.000000 0.000000 0.000000 -1.000000 3894.dat
1 1 140.000000 -72.000000 -70.000000 -1.000000 0.000000 0.000000 0.000000 1.000000 0.000000 0.000000 0.000000 -1.000000 3894.dat
1 1 140.000000 -72.000000 -9.999880 -1.000000 0.000000 0.000000 0.000000 1.000000 0.000000 0.000000 0.000000 -1.000000 3894.dat
1 1 140.000000 -95.999980 -70.000000 -1.000000 0.000000 0.000000 0.000000 1.000000 0.000000 0.000000 0.000000 -1.000000 3894.dat
1 1 140.000000 -48.000000 -70.000000 -1.000000 0.000000 0.000000 0.000000 1.000000 0.000000 0.000000 0.000000 -1.000000 3894.dat
1 1 140.000000 -48.000000 -9.999880 -1.000000 0.000000 0.000000 0.000000 1.000000 0.000000 0.000000 0.000000 -1.000000 3894.dat
0 STEP
1 0 120.000000 -62.000000 0.000120 0.000000 0.000000 1.000000 0.000000 1.000000 0.000000 -1.000000 0.000000 0.000000 2780.dat
1 71 140.000000 -61.999970 20.000120 0.000000 0.000000 1.000000 0.000000 1.000000 0.000000 -1.000000 0.000000 0.000000 3673.dat
1 0 160.000100 -62.000000 0.000240 0.000000 0.000000 1.000000 0.000000 1.000000 0.000000 -1.000000 0.000000 0.000000 2780.dat
1 15 140.000000 -62.000000 10.000120 -0.000001 -0.000001 1.000000 -1.000000 0.000001 -0.000001 -0.000001 -1.000000 -0.000001 32523.dat
0 STEP
1 0 160.000100 -85.999980 -80.000000 0.000000 0.000000 1.000000 0.000000 1.000000 0.000000 -1.000000 0.000000 0.000000 2780.dat
1 0 100.000000 -85.999980 0.000120 0.000000 0.000000 1.000000 0.000000 1.000000 0.000000 -1.000000 0.000000 0.000000 2780.dat
1 0 180.000100 -85.999980 0.000120 0.000000 0.000000 1.000000 0.000000 1.000000 0.000000 -1.000000 0.000000 0.000000 2780.dat
1 0 120.000000 -85.999980 -80.000000 0.000000 0.000000 1.000000 0.000000 1.000000 0.000000 -1.000000 0.000000 0.000000 2780.dat
0 STEP
1 1 140.000000 -104.000000 -60.000000 1.000000 0.000000 0.000000 0.000000 1.000000 0.000000 0.000000 0.000000 1.000000 3709b.dat
1 1 140.000000 -104.000000 -19.999880 1.000000 0.000000 0.000000 0.000000 1.000000 0.000000 0.000000 0.000000 1.000000 3709b.dat
0 STEP
1 1 110.000000 -152.000000 -40.000000 0.000000 0.000000 -1.000000 0.000000 1.000000 0.000000 1.000000 0.000000 0.000000 3701.dat
1 1 170.000200 -152.000000 -40.000000 0.000000 0.000000 -1.000000 0.000000 1.000000 0.000000 1.000000 0.000000 0.000000 3701.dat
1 1 110.000000 -128.000000 -40.000000 0.000000 0.000000 -1.000000 0.000000 1.000000 0.000000 1.000000 0.000000 0.000000 3701.dat
1 1 170.000100 -128.000000 -40.000000 0.000000 0.000000 -1.000000 0.000000 1.000000 0.000000 1.000000 0.000000 0.000000 3701.dat
0 STEP
1 71 139.480200 -142.000000 -40.000000 0.000000 0.000000 -1.000000 0.000000 1.000000 0.000000 1.000000 0.000000 0.000000 4716.dat
1 71 91.050110 -142.000000 -40.000000 -0.000001 0.000000 1.000000 0.000000 1.000000 0.000000 -1.000000 0.000000 -0.000001 3713.dat
1 0 138.960200 -142.000000 -40.000000 1.000000 0.000000 0.000000 0.000000 1.000000 0.000000 0.000000 0.000000 1.000000 3706.dat
0 STEP
1 1 140.000100 -168.000000 -9.999880 -1.000000 0.000000 0.000000 0.000000 1.000000 0.000000 0.000000 0.000000 -1.000000 3710.dat
1 1 140.000100 -160.000000 -9.999880 -1.000000 0.000000 0.000000 0.000000 1.000000 0.000000 0.000000 0.000000 -1.000000 3710.dat
1 1 140.000000 -168.000000 -70.000000 -1.000000 0.000000 0.000000 0.000000 1.000000 0.000000 0.000000 0.000000 -1.000000 3710.dat
1 1 140.000000 -160.000000 -70.000000 -1.000000 0.000000 0.000000 0.000000 1.000000 0.000000 0.000000 0.000000 -1.000000 3710.dat
0 STEP
1 72 140.000200 -182.000000 -40.249880 0.000000 1.000000 0.000000 -1.000000 0.000000 0.000000 0.000000 0.000000 1.000000 3648b.dat
1 1 140.000100 -192.000000 -9.999880 -1.000000 0.000000 0.000000 0.000000 1.000000 0.000000 0.000000 0.000000 -1.000000 3701.dat
1 1 140.000000 -192.000000 -70.000000 -1.000000 0.000000 0.000000 0.000000 1.000000 0.000000 0.000000 0.000000 -1.000000 3701.dat
1 14 140.000200 -182.000000 -24.879760 0.000000 -1.000000 0.000000 -1.000000 0.000000 0.000000 0.000000 0.000000 -1.000000 32123a.dat
1 71 140.000100 -182.000000 -89.879890 -1.000000 0.000000 -0.000001 0.000000 1.000000 0.000000 0.000001 0.000000 -1.000000 3713.dat
1 14 140.000200 -182.000000 -55.269840 0.000000 -1.000000 0.000000 1.000000 0.000000 0.000000 0.000000 0.000000 1.000000 32123a.dat
1 0 140.000200 -182.000000 -39.879880 0.000000 0.000000 -1.000000 0.000000 1.000000 0.000000 1.000000 0.000000 0.000000 3706.dat
0 STEP
1 71 201.960200 -122.000000 -40.000000 1.000000 0.000000 0.000000 0.000000 1.000000 0.000000 0.000000 0.000000 1.000000 3673.dat
1 71 185.210200 -142.000000 -40.000000 0.000000 0.000000 -1.000000 0.000000 1.000000 0.000000 1.000000 0.000000 0.000000 4185.dat
1 71 193.960200 -142.000000 -40.000000 0.000000 0.000000 -1.000000 0.000000 1.000000 0.000000 1.000000 0.000000 0.000000 4185.dat
0 STEP
1 4 221.960300 -122.000000 -40.000000 1.000000 0.000000 0.000000 0.000000 1.000000 0.000000 0.000000 0.000000 1.000000 62462.dat
0 STEP
1 1 140.000100 -216.000000 -9.999880 -1.000000 0.000000 0.000000 0.000000 1.000000 0.000000 0.000000 0.000000 -1.000000 3894.dat
1 1 140.000000 -216.000000 -70.000000 -1.000000 0.000000 0.000000 0.000000 1.000000 0.000000 0.000000 0.000000 -1.000000 3701.dat
0 STEP
1 0 99.999610 -206.000000 0.000120 0.000000 0.000000 1.000000 0.000000 1.000000 0.000000 -1.000000 0.000000 0.000000 2780.dat
1 0 120.000000 -206.000000 -80.000000 0.000000 0.000000 1.000000 0.000000 1.000000 0.000000 -1.000000 0.000000 0.000000 2780.dat
1 0 160.000200 -206.000000 -80.000000 0.000000 0.000000 1.000000 0.000000 1.000000 0.000000 -1.000000 0.000000 0.000000 2780.dat
1 0 179.999300 -206.000000 0.000240 0.000000 0.000000 1.000000 0.000000 1.000000 0.000000 -1.000000 0.000000 0.000000 2780.dat
0 STEP
1 15 179.999300 -126.000000 10.000120 1.000000 -0.000001 0.000001 -0.000001 -0.000001 1.000000 -0.000001 -1.000000 -0.000001 64290.dat
1 15 99.999690 -126.000000 10.000120 1.000000 -0.000001 0.000001 -0.000001 -0.000001 1.000000 -0.000001 -1.000000 -0.000001 64290.dat
1 15 120.000100 -126.000000 -90.000000 1.000000 -0.000001 0.000001 -0.000001 -0.000001 1.000000 -0.000001 -1.000000 -0.000001 64290.dat
1 15 160.000300 -126.000000 -90.000000 1.000000 -0.000001 0.000001 -0.000001 -0.000001 1.000000 -0.000001 -1.000000 -0.000001 64290.dat
0 STEP
1 0 120.005600 -182.000500 20.001530 0.000000 0.000000 1.000000 0.000000 1.000000 0.000000 -1.000000 0.000000 0.000000 2780.dat
1 0 160.006000 -182.000600 20.001460 0.000000 0.000000 1.000000 0.000000 1.000000 0.000000 -1.000000 0.000000 0.000000 2780.dat
1 71 140.000200 -182.000000 15.120240 -1.000000 0.000000 0.000000 0.000000 -1.000000 0.000000 0.000000 0.000000 1.000000 4185.dat
1 71 140.000200 -182.000000 6.150330 -1.000000 0.000000 0.000000 0.000000 -1.000000 0.000000 0.000000 0.000000 1.000000 4185.dat
0 STEP
1 15 20.005000 -182.000400 30.001460 -0.000001 -0.000001 1.000007 -1.000000 0.000001 -0.000001 -0.000001 -1.000007 -0.000001 64871.dat
1 15 19.999660 -61.999840 30.000920 -0.000001 -0.000001 1.000000 -1.000000 0.000001 -0.000001 -0.000001 -1.000000 -0.000001 64871.dat
0 STEP
1 71 60.000300 -182.000200 39.999330 0.000000 0.000000 1.000000 0.000000 1.000000 0.000000 -1.000000 0.000000 0.000000 3673.dat
1 71 60.000180 -61.999950 39.999450 0.000000 0.000000 1.000000 0.000000 1.000000 0.000000 -1.000000 0.000000 0.000000 3673.dat
0 STEP
1 15 59.999790 -121.999500 49.996820 -1.000000 0.000001 -0.000001 -0.000001 -0.000001 0.999987 0.000001 0.999994 0.000001 32524.dat
0 STEP
1 19 20.004940 -182.000400 40.001460 -0.000001 1.000000 -0.000001 0.000001 0.000001 1.000000 1.000000 0.000001 -0.000001 3749.dat
1 19 -40.000280 -61.999760 20.000980 0.000001 -1.000000 0.000001 0.000001 0.000001 1.000000 -1.000000 -0.000001 0.000001 3749.dat
1 19 -0.000370 -61.999780 40.000920 -0.000001 1.000000 -0.000001 0.000001 0.000001 1.000000 1.000000 0.000001 -0.000001 3749.dat
1 19 -19.995240 -182.000300 20.001590 0.000001 -1.000000 0.000001 0.000001 0.000001 1.000000 -1.000000 -0.000001 0.000001 3749.dat
0 STEP
1 15 -40.000240 -71.999750 10.000980 1.000000 0.000000 0.000000 0.000000 1.000000 0.000000 0.000000 0.000000 1.000000 32064a.dat
1 15 20.004940 -192.000400 50.001460 1.000000 0.000000 0.000000 0.000000 1.000000 0.000000 0.000000 0.000000 1.000000 32064a.dat
1 15 -0.000370 -71.999780 50.000920 1.000000 0.000000 0.000000 0.000000 1.000000 0.000000 0.000000 0.000000 1.000000 32064a.dat
1 15 -19.995210 -192.000300 10.001590 1.000000 0.000000 0.000000 0.000000 1.000000 0.000000 0.000000 0.000000 1.000000 32064a.dat
0 STEP
1 0 -119.995900 -182.000000 19.999450 0.000000 0.000000 1.000011 0.000000 1.000000 0.000000 -1.000011 0.000000 0.000000 2780.dat
1 0 -79.995000 -182.000100 19.999330 0.000000 0.000000 1.000011 0.000000 1.000000 0.000000 -1.000011 0.000000 0.000000 2780.dat
1 0 -79.999790 -61.999840 19.999940 0.000000 0.000000 1.000000 0.000000 1.000000 0.000000 -1.000000 0.000000 0.000000 2780.dat
1 0 -119.999700 -61.999800 19.999940 0.000000 0.000000 1.000000 0.000000 1.000000 0.000000 -1.000000 0.000000 0.000000 2780.dat
0 STEP
1 71 -99.999880 -182.000100 39.999580 0.000000 0.000000 1.000000 0.000000 1.000000 0.000000 -1.000000 0.000000 0.000000 3673.dat
1 71 -100.000000 -61.999800 39.999580 0.000000 0.000000 1.000000 0.000000 1.000000 0.000000 -1.000000 0.000000 0.000000 3673.dat
1 15 -100.000000 -121.999900 49.999330 -1.000000 0.000001 -0.000001 -0.000001 -0.000001 1.000000 0.000001 1.000000 0.000001 32524.dat
0 STEP
1 15 -119.999700 -62.000070 9.999760 -0.000001 -0.000001 1.000000 -1.000000 0.000001 -0.000001 -0.000001 -1.000000 -0.000001 32316.dat
1 15 -119.995600 -182.000100 9.999760 -0.000001 -0.000001 1.000010 -1.000000 0.000001 -0.000001 -0.000001 -1.000010 -0.000001 32316.dat
1 0 -139.995000 -182.000300 19.996830 0.000000 0.000000 1.000001 0.000000 1.000000 0.000000 -1.000001 0.000000 0.000000 2780.dat
1 0 -139.999900 -62.000060 19.999760 0.000000 0.000000 1.000000 0.000000 1.000000 0.000000 -1.000000 0.000000 0.000000 2780.dat
1 0 -160.000000 -62.000030 19.999760 0.000000 0.000000 1.000000 0.000000 1.000000 0.000000 -1.000000 0.000000 0.000000 2780.dat
1 0 -159.996400 -182.000300 19.998960 0.000000 0.000000 1.000011 0.000000 1.000000 0.000000 -1.000011 0.000000 0.000000 2780.dat
0 STEP
1 15 -279.998600 -182.000200 29.999450 -0.000001 -0.000001 1.000001 -1.000000 0.000001 -0.000001 -0.000001 -1.000001 -0.000001 64871.dat
1 15 -280.001000 -61.999950 29.997070 -0.000001 -0.000001 0.999990 -1.000000 0.000001 -0.000001 -0.000001 -0.999990 -0.000001 64871.dat
0 STEP
1 15 -260.000000 -122.000000 49.999330 -1.000000 0.000001 -0.000001 -0.000001 -0.000001 1.000000 0.000001 1.000000 0.000001 32524.dat
1 71 -260.000000 -61.999940 39.999330 0.000000 0.000000 1.000000 0.000000 1.000000 0.000000 -1.000000 0.000000 0.000000 3673.dat
1 71 -260.000000 -182.000200 39.999330 0.000000 0.000000 1.000000 0.000000 1.000000 0.000000 -1.000000 0.000000 0.000000 3673.dat
0 STEP
1 0 -299.998600 -182.000200 39.999450 0.000000 0.000000 -1.000000 0.000000 1.000000 0.000000 1.000000 0.000000 0.000000 2780.dat
1 0 -219.998500 -182.000200 39.999450 0.000000 0.000000 -1.000000 0.000000 1.000000 0.000000 1.000000 0.000000 0.000000 2780.dat
1 4 -219.998500 -182.000200 49.999390 0.000000 0.000000 -1.000000 0.000000 -1.000000 0.000000 -1.000000 0.000000 0.000000 32034.dat
1 4 -299.998600 -182.000200 49.999390 0.000000 0.000000 -1.000000 0.000000 -1.000000 0.000000 -1.000000 0.000000 0.000000 32034.dat
0 STEP
1 0 -199.998500 -182.000300 19.999390 0.000000 0.000000 -1.000000 0.000000 1.000000 0.000000 1.000000 0.000000 0.000000 2780.dat
1 0 -279.998600 -182.000200 19.999450 0.000000 0.000000 -1.000000 0.000000 1.000000 0.000000 1.000000 0.000000 0.000000 2780.dat
1 4 -199.998500 -182.000300 9.999390 0.000000 0.000000 -1.000000 0.000000 -1.000000 0.000000 -1.000000 0.000000 0.000000 32034.dat
1 4 -279.998500 -182.000200 9.999510 0.000000 0.000000 -1.000000 0.000000 -1.000000 0.000000 -1.000000 0.000000 0.000000 32034.dat
0 STEP
1 15 -420.000300 -121.999900 49.999330 -1.000000 0.000000 -0.000001 -0.000001 -0.000001 1.000000 0.000000 1.000000 0.000001 32524.dat
1 71 -420.000300 -61.999780 39.999580 0.000000 0.000000 1.000000 0.000000 1.000000 0.000000 -1.000000 0.000000 0.000000 3673.dat
1 71 -420.000200 -182.000000 39.999450 0.000000 0.000000 1.000000 0.000000 1.000000 0.000000 -1.000000 0.000000 0.000000 3673.dat
0 STEP
1 0 -380.000200 -61.999840 19.999940 0.000000 0.000000 1.000000 0.000000 1.000000 0.000000 -1.000000 0.000000 0.000000 2780.dat
1 0 -319.999900 -61.999880 19.999760 0.000000 0.000000 1.000000 0.000000 1.000000 0.000000 -1.000000 0.000000 0.000000 2780.dat
1 0 -340.000200 -61.999870 19.999760 0.000000 0.000000 1.000000 0.000000 1.000000 0.000000 -1.000000 0.000000 0.000000 2780.dat
1 0 -339.998700 -182.000100 19.999330 0.000000 0.000000 1.000011 0.000000 1.000000 0.000000 -1.000011 0.000000 0.000000 2780.dat
1 0 -400.000300 -61.999810 19.999940 0.000000 0.000000 1.000000 0.000000 1.000000 0.000000 -1.000000 0.000000 0.000000 2780.dat
1 0 -319.998400 -182.000100 19.999330 0.000000 0.000000 1.000011 0.000000 1.000000 0.000000 -1.000011 0.000000 0.000000 2780.dat
1 0 -379.999100 -182.000100 19.999450 0.000000 0.000000 1.000011 0.000000 1.000000 0.000000 -1.000011 0.000000 0.000000 2780.dat
1 0 -399.999300 -182.000000 19.999450 0.000000 0.000000 1.000011 0.000000 1.000000 0.000000 -1.000011 0.000000 0.000000 2780.dat
0 STEP
1 15 -360.000200 -61.999840 10.000000 -0.000001 -0.000001 1.000000 -1.000000 0.000001 -0.000001 -0.000001 -1.000000 -0.000001 32316.dat
1 15 -359.998900 -182.000100 9.999570 -0.000001 -0.000001 1.000011 -1.000000 0.000001 -0.000001 -0.000001 -1.000011 -0.000001 32316.dat
0 STEP
0 STEP
