0 FILE 火星探测车.io
0 Untitled Model
0 Name:  火星探测车
0 Author:  
0 CustomBrick
0 NumOfBricks:  91
1 0 372.000300 -57.999860 44.980090 0.000000 0.000000 1.000001 0.000000 1.000001 0.000000 -1.000000 0.000000 0.000000 2780.dat
1 1 332.000100 -67.999870 34.980150 1.000001 0.000000 -0.000001 0.000000 1.000001 0.000000 0.000001 0.000000 1.000000 3894.dat
1 0 352.000200 -57.999870 44.980080 0.000000 0.000000 1.000001 0.000000 1.000001 0.000000 -1.000000 0.000000 0.000000 2780.dat
0 STEP
1 0 332.000100 -57.999870 24.980100 0.000000 0.000000 1.000001 0.000000 1.000001 0.000000 -1.000000 0.000000 0.000000 2780.dat
1 0 292.000100 -57.999880 24.980100 0.000000 0.000000 1.000001 0.000000 1.000001 0.000000 -1.000000 0.000000 0.000000 2780.dat
0 STEP
1 1 312.000100 -119.999900 4.979860 1.000001 0.000000 0.000000 0.000000 -1.000001 0.000000 0.000000 0.000000 -1.000000 3709b.dat
1 47 312.000100 -79.999900 4.979990 1.000001 0.000000 0.000001 0.000000 -1.000001 0.000000 0.000001 0.000000 -1.000000 6588.dat
0 STEP
1 71 311.980100 -97.999910 4.979990 0.000000 0.000000 1.000001 0.000000 1.000001 0.000000 -1.000000 0.000000 0.000000 4716.dat
1 0 311.730100 -97.999910 4.979990 1.000001 0.000000 0.000000 0.000000 1.000001 0.000000 0.000000 0.000000 1.000000 3707.dat
0 STEP
1 14 346.950200 -97.999900 4.980000 0.000000 0.000000 1.000001 0.000000 1.000001 0.000000 -1.000000 0.000000 0.000000 32123a.dat
1 14 280.480100 -97.999910 4.979990 0.000000 0.000000 1.000001 1.000001 0.000000 0.000000 0.000000 1.000000 0.000000 32123a.dat
0 STEP
1 0 292.000100 -57.999880 -15.019990 0.000000 0.000000 1.000001 0.000000 1.000001 0.000000 -1.000000 0.000000 0.000000 2780.dat
1 0 332.000100 -57.999870 -15.019980 0.000000 0.000000 1.000001 0.000000 1.000001 0.000000 -1.000000 0.000000 0.000000 2780.dat
0 STEP
1 1 332.000200 -67.999870 -25.020040 1.000001 0.000000 -0.000001 0.000000 1.000001 0.000000 0.000001 0.000000 1.000000 3894.dat
1 0 352.000300 -57.999870 -35.019960 0.000000 0.000000 1.000001 0.000000 1.000001 0.000000 -1.000000 0.000000 0.000000 2780.dat
1 0 372.000300 -57.999860 -35.019960 0.000000 0.000000 1.000001 0.000000 1.000001 0.000000 -1.000000 0.000000 0.000000 2780.dat
0 STEP
1 1 232.000100 -67.999900 -45.020030 1.000001 0.000000 0.000000 0.000000 1.000001 0.000000 0.000000 0.000000 1.000000 3703.dat
1 1 232.000100 -67.999900 54.980000 1.000001 0.000000 -0.000001 0.000000 1.000001 0.000000 0.000001 0.000000 1.000000 3703.dat
0 STEP
1 1 372.000300 -43.999820 4.980000 0.000000 0.000000 -1.000001 0.000000 1.000001 0.000000 1.000000 0.000000 0.000000 32001.dat
1 1 192.000100 -43.999860 4.979860 0.000000 0.000000 -1.000001 0.000000 1.000001 0.000000 1.000000 0.000000 0.000000 32001.dat
0 STEP
1 71 357.329700 -97.999900 4.980120 0.000000 0.000000 1.000004 0.000000 1.000001 0.000000 -1.000003 0.000000 0.000000 4185.dat
1 71 367.810200 -97.999900 4.980000 0.000001 0.000000 1.000001 0.000000 1.000001 0.000000 -1.000000 0.000000 0.000001 4185.dat
0 STEP
1 71 391.730200 -98.002740 4.979980 -0.000001 0.000000 1.000000 0.000000 1.000000 0.000000 -1.000000 0.000000 -0.000001 59443.dat
1 19 414.350100 -97.999900 4.979960 0.000000 0.000000 -1.000000 1.000000 0.000000 0.000000 0.000000 -1.000000 0.000000 32198.dat
1 71 421.730200 -97.999900 4.979960 -1.000000 0.000000 0.000000 0.000000 0.000000 1.000000 0.000000 1.000000 0.000000 4519.dat
0 STEP
1 19 424.540200 -97.999900 4.979960 -0.000001 0.000000 1.000000 0.000000 -1.000000 0.000000 1.000000 0.000000 0.000001 6589.dat
1 72 441.730200 -97.999880 4.979960 0.000000 0.000000 -1.000000 -1.000000 0.000000 0.000000 0.000000 1.000000 0.000000 3647.dat
0 STEP
1 1 282.000100 -127.999900 4.979860 0.000000 0.000000 -1.000001 0.000000 -1.000001 0.000000 -1.000000 0.000000 0.000000 3700.dat
1 0 272.000000 -138.000000 4.979860 -1.000001 0.000000 0.000000 0.000000 1.000001 0.000000 0.000000 0.000000 -1.000000 2780.dat
0 STEP
1 0 252.000000 -117.999900 4.979860 -1.000001 0.000000 0.000000 0.000000 1.000001 0.000000 0.000000 0.000000 -1.000000 2780.dat
1 15 262.000000 -97.999910 4.979860 -0.000001 -1.000001 -0.000001 0.000001 0.000001 -1.000001 1.000000 -0.000001 0.000001 32316.dat
1 0 252.000100 -77.999900 4.979860 -1.000001 0.000000 0.000000 0.000000 1.000001 0.000000 0.000000 0.000000 -1.000000 2780.dat
0 STEP
1 15 51.999780 -57.999940 34.980000 0.000001 0.000001 -1.000001 -1.000001 0.000001 -0.000001 0.000001 1.000000 0.000001 32524.dat
1 0 71.999790 -57.999920 24.980070 0.000000 0.000000 -1.000001 0.000000 1.000001 0.000000 1.000000 0.000000 0.000000 2780.dat
1 1 111.999900 -57.999860 34.979880 0.000000 0.000000 -1.000001 0.000000 1.000001 0.000000 1.000000 0.000000 0.000000 6558.dat
1 0 91.999850 -57.999920 44.979930 0.000000 0.000000 1.000001 0.000000 1.000001 0.000000 -1.000000 0.000000 0.000000 2780.dat
0 STEP
1 0 112.000000 -57.999910 -35.020120 0.000000 0.000000 1.000001 0.000000 1.000001 0.000000 -1.000000 0.000000 0.000000 2780.dat
1 0 91.999970 -57.999920 -35.020120 0.000000 0.000000 1.000001 0.000000 1.000001 0.000000 -1.000000 0.000000 0.000000 2780.dat
1 15 51.999900 -57.999940 -25.020070 0.000001 0.000001 -1.000001 -1.000001 0.000001 -0.000001 0.000001 1.000000 0.000001 32524.dat
0 STEP
1 71 251.730000 -97.999930 4.979980 0.000000 0.000000 -1.000001 0.000000 1.000001 0.000000 1.000000 0.000000 0.000000 58120.dat
0 STEP
1 0 312.000200 -57.999860 -2.400080 0.000000 0.000000 1.000001 0.000000 1.000001 0.000000 -1.000000 0.000000 0.000000 3708.dat
1 72 312.000100 -57.999860 -65.030020 1.000001 0.000000 0.000000 0.000000 -1.000001 0.000000 0.000000 0.000000 -1.000000 3648b.dat
0 STEP
1 71 312.000200 -57.999860 -84.720050 -1.000002 0.000000 -0.000001 0.000000 1.000001 0.000000 0.000001 0.000000 -1.000000 3713.dat
1 71 312.000200 -57.999860 75.620000 -1.000002 0.000000 -0.000001 0.000000 1.000001 0.000000 0.000001 0.000000 -1.000000 3713.dat
0 STEP
1 72 252.000200 -57.999820 -65.430060 0.414693 0.909963 0.000000 0.909962 -0.414693 0.000001 0.000001 0.000000 -1.000000 3648b.dat
1 19 252.000200 -57.999860 -55.020080 0.000001 -0.909962 0.414695 0.000001 0.414694 0.909962 -1.000000 -0.000001 0.000001 3749.dat
0 STEP
1 72 172.000000 -57.999860 -65.000000 0.000000 1.000000 0.000000 1.000000 0.000000 0.000000 0.000000 0.000000 -1.000000 3648b.dat
1 0 172.000000 -57.999890 2.249890 0.000000 0.000000 1.000001 0.000000 1.000001 0.000000 -1.000000 0.000000 0.000000 3708.dat
0 STEP
1 71 172.000000 -57.999890 -84.890000 -1.000002 0.000000 -0.000001 0.000000 1.000001 0.000000 0.000001 0.000000 -1.000000 3713.dat
1 71 172.000000 -57.999890 74.849960 -1.000002 0.000000 -0.000001 0.000000 1.000001 0.000000 0.000001 0.000000 -1.000000 3713.dat
0 STEP
1 0 311.999800 -57.999860 -115.478300 1.000001 0.000000 0.000000 0.000000 -1.000001 0.000000 0.000000 0.000000 -1.000000 44309.dat
1 71 312.000100 -57.999860 -115.480000 0.000000 -1.000007 0.000000 -1.000001 0.000000 0.000000 0.000000 0.000000 -1.000006 56145.dat
1 0 171.999000 -57.999900 -114.737800 0.999991 0.000000 0.000000 0.000000 -1.000001 0.000000 0.000000 0.000000 -0.999990 44309.dat
1 71 172.000100 -57.999890 -114.740100 0.000000 -1.000001 0.000000 -1.000001 0.000000 0.000000 0.000000 0.000000 -1.000000 56145.dat
0 STEP
1 0 312.001100 -57.999860 105.638300 -0.999994 0.000000 0.000000 0.000000 -1.000001 0.000000 0.000000 0.000000 0.999993 44309.dat
1 71 312.000100 -57.999860 105.640200 0.000000 1.000004 0.000000 -1.000001 0.000000 0.000000 0.000000 0.000000 1.000003 56145.dat
1 0 172.001100 -57.999900 106.967800 -0.999991 0.000000 0.000000 0.000000 -1.000001 0.000000 0.000000 0.000000 0.999990 44309.dat
1 71 172.000000 -57.999890 106.970000 0.000000 1.000001 0.000000 -1.000001 0.000000 0.000000 0.000000 0.000000 1.000000 56145.dat
0 STEP
1 0 -8.000290 -58.000020 44.980040 0.000000 0.000000 -1.000001 0.000000 1.000001 0.000000 1.000000 0.000000 0.000000 2780.dat
1 0 31.999770 -57.999980 44.980040 0.000000 0.000000 -1.000001 0.000000 1.000001 0.000000 1.000000 0.000000 0.000000 2780.dat
1 1 31.999640 -57.999980 54.979980 -0.000001 -0.000001 -1.000001 1.000001 -0.000001 -0.000001 -0.000001 -1.000000 0.000001 32526.dat
0 STEP
1 15 -48.000200 -38.000050 75.170020 0.000001 0.000001 -1.000001 -1.000001 0.000001 -0.000001 0.000001 1.000000 0.000001 32524.dat
1 0 -48.000200 -38.000060 4.930030 0.000000 0.000000 1.000001 0.000000 1.000001 0.000000 -1.000000 0.000000 0.000000 3708.dat
0 STEP
1 19 11.999830 -37.999970 85.169940 -0.000001 1.000001 -0.000001 0.000001 0.000001 1.000001 1.000000 0.000001 -0.000001 3749.dat
1 19 -108.000300 -38.000100 85.170100 -0.000001 1.000001 -0.000001 0.000001 0.000001 1.000001 1.000000 0.000001 -0.000001 3749.dat
0 STEP
1 71 -48.000200 -38.000060 95.739990 1.000001 0.000000 0.000001 0.000000 1.000001 0.000000 -0.000001 0.000000 1.000000 3713.dat
1 14 -48.000200 -38.000060 110.920100 1.000001 0.000000 0.000000 0.000000 1.000001 0.000000 0.000000 0.000000 1.000000 32123a.dat
0 STEP
1 0 11.998550 -38.000020 105.426300 1.000002 0.000000 0.000001 0.000001 -1.000002 0.000000 0.000001 0.000000 -1.000000 30391.dat
1 71 11.999830 -37.999980 105.169900 0.000000 -1.000001 0.000000 -1.000001 -0.000001 0.000000 0.000000 0.000000 -1.000000 55982.dat
1 0 -108.001000 -38.000150 105.426400 1.000002 0.000000 0.000001 0.000001 -1.000002 0.000000 0.000001 0.000000 -1.000000 30391.dat
1 71 -108.000400 -38.000110 105.170100 0.000000 -1.000001 0.000000 -1.000001 -0.000001 0.000000 0.000000 0.000000 -1.000000 55982.dat
0 STEP
1 19 -48.000200 -38.000050 21.259990 0.000000 -1.000001 0.000000 -1.000001 0.000000 -0.000001 0.000001 0.000000 -1.000000 6589.dat
1 71 -48.000200 -38.000060 34.629900 1.000001 0.000000 0.000001 0.000000 1.000001 0.000000 -0.000001 0.000000 1.000000 3713.dat
0 STEP
1 1 32.000010 -57.999960 -45.020060 -0.000001 -0.000001 -1.000001 1.000001 -0.000001 -0.000001 -0.000001 -1.000000 0.000001 32526.dat
1 0 -8.000170 -58.000020 -35.020000 0.000000 0.000000 -1.000001 0.000000 1.000001 0.000000 1.000000 0.000000 0.000000 2780.dat
1 0 31.999890 -57.999960 -35.020120 0.000000 0.000000 -1.000001 0.000000 1.000001 0.000000 1.000000 0.000000 0.000000 2780.dat
0 STEP
1 15 -48.000200 -38.000050 -65.280060 0.000001 0.000001 -1.000001 -1.000001 0.000001 -0.000001 0.000001 1.000000 0.000001 32524.dat
1 19 11.999830 -37.999980 -75.280100 -0.000001 1.000001 -0.000001 -0.000001 -0.000001 -1.000001 -1.000000 -0.000001 0.000001 3749.dat
1 19 -108.000300 -38.000120 -75.280000 -0.000001 1.000001 -0.000001 -0.000001 -0.000001 -1.000001 -1.000000 -0.000001 0.000001 3749.dat
0 STEP
1 14 -48.000200 -38.000060 -101.070000 1.000001 0.000000 0.000000 0.000000 1.000001 0.000000 0.000000 0.000000 1.000000 32123a.dat
1 71 -48.000140 -38.000060 -85.580020 1.000001 0.000000 0.000001 0.000000 1.000001 0.000000 -0.000001 0.000000 1.000000 3713.dat
0 STEP
1 0 12.000070 -38.000040 -95.536430 -1.000002 0.000000 -0.000001 0.000000 -1.000002 0.000000 -0.000001 0.000000 1.000000 30391.dat
1 71 11.999770 -37.999990 -95.280090 0.000000 1.000001 0.000000 -1.000001 0.000000 0.000000 0.000000 0.000000 1.000000 55982.dat
1 0 -108.000000 -38.000150 -95.536330 -1.000002 0.000000 -0.000001 0.000000 -1.000002 0.000000 -0.000001 0.000000 1.000000 30391.dat
1 71 -108.000300 -38.000130 -95.279990 0.000000 1.000001 0.000000 -1.000001 0.000000 0.000000 0.000000 0.000000 1.000000 55982.dat
0 STEP
1 1 71.999920 -138.000000 14.979760 1.000001 -0.000001 -0.000001 0.000001 0.000001 1.000001 -0.000001 -1.000000 0.000001 32526.dat
1 0 71.999860 -118.000000 4.978980 0.000000 0.000000 -1.000001 0.000000 1.000002 0.000000 1.000001 0.000000 0.000000 2780.dat
1 0 71.999920 -138.000000 4.979710 0.000000 0.000000 -1.000001 0.000000 1.000001 0.000000 1.000000 0.000000 0.000000 2780.dat
0 STEP
1 16 -91.000350 -68.795810 -15.020400 1.000001 0.000000 0.000000 0.000000 1.000001 0.000000 0.000000 0.000000 1.000000 submodel group 9 copy copy copy
0 STEP
0 STEP
0 NOFILE
0 FILE SubModel Group 9 Copy Copy Copy
0 SubModel Group 9 Copy Copy Copy
0 Name:  SubModel Group 9 Copy Copy Copy
0 Author:  
0 CustomBrick
0 NumOfBricks:  3
1 72 10.000000 -1.128810 -10.000000 1.000000 0.000000 0.000000 0.000000 0.000000 -1.000000 0.000000 1.000000 0.000000 dch003.dat
1 71 -27.466620 -79.717990 29.427020 1.000000 0.000000 0.000000 0.000000 0.000000 -1.000000 0.000000 1.000000 0.000000 dch004.dat
1 25 7.837010 13.484720 -9.965000 1.000000 0.000000 0.000000 0.000000 0.000000 -1.000000 0.000000 1.000000 0.000000 dch005.dat
0 NOFILE
