0 Untitled Model
0 Name:  电脑显示屏
0 Author:  
0 CustomBrick
0 NumOfBricks:  40
1 1 -29.998690 -10.000030 -63.998260 -0.999999 0.000000 0.000000 0.000000 0.000000 1.000002 0.000000 1.000003 0.000000 3894.dat
0 STEP
1 1 -29.999790 -80.000200 -79.999680 0.000000 0.000000 -1.000000 -1.000003 0.000000 0.000000 0.000000 1.000005 0.000000 3738.dat
1 1 -29.999900 -80.000270 -87.999660 0.000000 0.000000 -1.000000 -1.000003 0.000000 0.000000 0.000000 1.000005 0.000000 3738.dat
1 1 -29.999790 -39.999900 -71.999660 0.000001 0.000000 -1.000000 -1.000003 0.000000 -0.000001 0.000000 1.000005 0.000000 3709b.dat
1 1 -69.999900 -10.000000 -87.999690 -1.000000 0.000000 0.000000 0.000000 0.000000 1.000003 0.000000 1.000005 0.000000 3700.dat
1 1 10.000010 -9.999969 -87.999810 -1.000000 0.000000 0.000000 0.000000 0.000000 1.000003 0.000000 1.000005 0.000000 3700.dat
0 STEP
1 1 -30.000000 -9.999949 -160.000000 1.000000 0.000000 0.000000 0.000000 0.000000 -1.000003 0.000000 1.000003 0.000000 3894.dat
1 1 -30.000000 -9.999940 -111.999900 -1.000000 0.000000 0.000000 0.000000 0.000000 1.000003 0.000000 1.000005 0.000000 3894.dat
1 1 -30.000000 -9.999949 -136.000000 -1.000000 0.000000 0.000000 0.000000 0.000000 1.000003 0.000000 1.000005 0.000000 3894.dat
0 STEP
1 0 -69.998650 -20.000070 -53.998250 0.000000 0.000000 -1.000000 -1.000003 0.000000 0.000000 0.000000 1.000003 0.000000 2780.dat
1 0 -70.000000 -19.999980 -126.000000 0.000000 0.000000 -1.000000 1.000003 0.000000 0.000000 0.000000 -1.000003 0.000000 2780.dat
1 0 10.000010 -19.999970 -101.999800 0.000000 1.000000 0.000000 -1.000003 0.000000 0.000000 0.000000 0.000000 1.000003 2780.dat
1 0 10.000010 -19.999990 -150.000200 0.000000 0.000000 -1.000000 1.000003 0.000000 0.000000 0.000000 -1.000003 0.000000 2780.dat
0 STEP
1 4 -69.998650 -30.000100 -53.998250 0.000000 0.000000 -1.000000 1.000003 0.000000 0.000000 0.000000 -1.000003 0.000000 32034.dat
1 4 10.000010 -30.000000 -101.999900 0.000000 -1.000000 0.000000 -1.000003 0.000000 0.000000 0.000000 0.000000 -1.000003 32034.dat
1 4 10.000010 -30.000020 -150.000200 0.000000 0.000000 -1.000000 -1.000003 0.000000 0.000000 0.000000 1.000003 0.000000 32034.dat
1 4 -70.000020 -30.000010 -126.000000 0.000000 1.000000 0.000000 -1.000003 0.000000 0.000000 0.000000 0.000000 1.000003 32034.dat
0 STEP
1 1 -9.999790 -150.000600 -111.999900 -1.000000 0.000000 0.000000 0.000000 0.000000 1.000003 0.000000 1.000005 0.000000 3701.dat
1 1 -9.999790 -130.000400 -111.999900 -1.000000 0.000000 0.000000 0.000000 0.000000 1.000003 0.000000 1.000005 0.000000 3701.dat
0 STEP
1 1 -49.999900 -180.000600 -119.999900 0.000000 0.000000 -1.000000 -1.000003 0.000000 0.000000 0.000000 1.000005 0.000000 32001.dat
1 1 70.000010 -180.000500 -119.999800 0.000000 0.000000 -1.000000 -1.000003 0.000000 0.000000 0.000000 1.000005 0.000000 32001.dat
1 1 -89.999980 -180.000600 -119.999900 0.000000 0.000000 -1.000000 -1.000003 0.000000 0.000000 0.000000 1.000005 0.000000 32001.dat
1 1 -9.999880 -180.000600 -120.000000 0.000000 0.000000 -1.000000 -1.000003 0.000000 0.000000 0.000000 1.000005 0.000000 32001.dat
1 1 -50.000080 -230.000800 -127.999900 -1.000000 0.000000 0.000000 0.000000 0.000000 1.000003 0.000000 1.000005 0.000000 3710.dat
1 1 30.000010 -230.000800 -128.000000 -1.000000 0.000000 0.000000 0.000000 0.000000 1.000003 0.000000 1.000005 0.000000 3710.dat
1 1 30.000010 -180.000600 -119.999900 0.000000 0.000000 -1.000000 -1.000003 0.000000 0.000000 0.000000 1.000005 0.000000 32001.dat
0 STEP
1 1 50.000020 -210.000700 -127.999700 1.000000 0.000000 0.000000 0.000000 0.000000 -1.000000 0.000000 1.000000 0.000000 3023.dat
1 1 -29.999910 -190.000700 -128.000000 1.000000 0.000000 0.000000 0.000000 0.000000 -1.000003 0.000000 1.000003 0.000000 3023.dat
1 1 -69.999900 -190.000700 -128.000000 1.000000 0.000000 0.000000 0.000000 0.000000 -1.000003 0.000000 1.000003 0.000000 3023.dat
1 1 50.000020 -190.000700 -128.000000 1.000000 0.000000 0.000000 0.000000 0.000000 -1.000003 0.000000 1.000003 0.000000 3023.dat
1 1 -70.000000 -210.000800 -128.000000 1.000000 0.000000 0.000000 0.000000 0.000000 -1.000003 0.000000 1.000003 0.000000 3023.dat
1 15 -9.999990 -210.000800 -128.000000 1.000000 0.000000 0.000000 0.000000 0.000000 -1.000003 0.000000 1.000003 0.000000 2431.dat
1 1 10.000010 -190.000600 -127.999900 1.000000 0.000000 0.000000 0.000000 0.000001 -1.000003 0.000000 1.000003 0.000001 3023.dat
0 STEP
1 1 -70.000080 -230.000800 -135.999900 1.000000 0.000000 0.000000 0.000000 0.000000 -1.000003 0.000000 1.000003 0.000000 3023.dat
1 1 50.000020 -230.000800 -136.000000 1.000000 0.000000 0.000000 0.000000 0.000000 -1.000003 0.000000 1.000003 0.000000 3023.dat
0 STEP
1 15 -9.999990 -230.000800 -136.000000 1.000000 0.000000 0.000000 0.000000 0.000000 -1.000003 0.000000 1.000003 0.000000 2431.dat
0 STEP
1 1 -99.999980 -180.000600 -127.999900 0.000000 0.000000 1.000000 1.000003 0.000000 0.000000 0.000000 1.000005 0.000000 3666.dat
1 1 80.000220 -180.000500 -127.999800 0.000000 0.000000 1.000000 1.000003 0.000000 0.000000 0.000000 1.000005 0.000000 3666.dat
0 STEP
1 1 30.000010 -130.000400 -127.999900 -1.000000 0.000000 0.000000 0.000000 0.000000 1.000003 0.000000 1.000005 0.000000 3710.dat
1 1 -50.000000 -130.000400 -127.999900 -1.000000 0.000000 0.000000 0.000000 0.000000 1.000003 0.000000 1.000005 0.000000 3710.dat
0 STEP
0 STEP
