0 Untitled Model
0 Name:  霍布森方向节（电池盒(1)
0 Author:  
0 CustomBrick
0 NumOfBricks:  101
1 1 80.000060 -8.000000 -40.000040 0.000000 0.000000 1.000001 0.000000 1.000000 0.000000 -1.000001 0.000000 0.000000 32001.dat
1 1 80.000140 -8.000000 -159.999900 0.000000 0.000000 1.000001 0.000000 1.000000 0.000000 -1.000001 0.000000 0.000000 32001.dat
1 1 80.000100 -16.000000 -99.999790 0.000001 0.000000 1.000001 0.000000 1.000000 0.000000 -1.000001 0.000000 0.000001 32001.dat
0 STEP
1 1 -59.999990 -32.000000 -209.999900 1.000001 0.000000 0.000000 0.000000 1.000000 0.000000 0.000000 0.000000 1.000001 3703.dat
1 1 19.999990 -8.000000 10.000010 1.000001 0.000000 0.000000 0.000000 1.000000 0.000000 0.000000 0.000000 1.000001 3710.dat
1 1 -60.000120 -8.000000 9.999990 1.000001 0.000000 0.000000 0.000000 1.000000 0.000000 0.000000 0.000000 1.000001 3710.dat
1 1 -180.000100 -8.000000 -210.000000 1.000001 0.000000 0.000000 0.000000 1.000000 0.000000 0.000000 0.000000 1.000001 3710.dat
1 1 -100.000000 -8.000000 -210.000000 1.000001 0.000000 0.000000 0.000000 1.000000 0.000000 0.000000 0.000000 1.000001 3710.dat
1 1 -60.000120 -32.000000 9.999990 1.000001 0.000000 0.000000 0.000000 1.000000 0.000000 0.000000 0.000000 1.000001 3703.dat
1 1 -160.000200 -8.000000 9.999980 1.000001 0.000000 0.000000 0.000000 1.000000 0.000000 0.000000 0.000000 1.000001 3666.dat
1 1 0.000090 -8.000000 -209.999900 1.000001 0.000000 0.000000 0.000000 1.000000 0.000000 0.000000 0.000000 1.000001 3666.dat
0 STEP
1 1 -240.000400 -8.000000 -40.000140 0.000000 0.000000 1.000001 0.000000 1.000000 0.000000 -1.000001 0.000000 0.000000 32001.dat
1 1 -240.000400 -16.000000 -100.000200 0.000001 0.000000 1.000001 0.000000 1.000000 0.000000 -1.000001 0.000000 0.000001 32001.dat
1 1 -240.000300 -8.000000 -159.999900 0.000001 0.000000 1.000001 0.000000 1.000000 0.000000 -1.000001 0.000000 0.000001 32001.dat
1 15 -240.000400 -32.000000 9.999960 1.000001 0.000000 0.000000 0.000000 1.000000 0.000000 0.000000 0.000000 1.000001 32064a.dat
1 15 -240.000300 -32.000000 -210.000000 1.000001 0.000000 0.000000 0.000000 1.000000 0.000000 0.000000 0.000000 1.000001 32064a.dat
0 STEP
1 1 20.000080 -56.000000 10.000010 1.000001 0.000000 0.000000 0.000000 1.000000 0.000000 0.000000 0.000000 1.000001 3702.dat
1 1 20.000330 -56.000000 -209.999900 1.000001 0.000000 0.000000 0.000000 1.000000 0.000000 0.000000 0.000000 1.000001 3702.dat
1 1 -180.000100 -64.000000 -200.000000 -1.000001 0.000000 0.000000 0.000000 1.000000 0.000000 0.000000 0.000000 -1.000001 3738.dat
1 1 -180.000200 -64.000000 -0.000050 -1.000001 0.000000 0.000000 0.000000 1.000000 0.000000 0.000000 0.000000 -1.000001 3738.dat
1 1 20.000080 -64.000000 -0.000010 -1.000001 0.000000 0.000000 0.000000 1.000000 0.000000 0.000000 0.000000 -1.000001 3738.dat
1 1 20.000330 -64.000000 -199.999900 -1.000001 0.000000 0.000000 0.000000 1.000000 0.000000 0.000000 0.000000 -1.000001 3738.dat
1 1 -180.000200 -56.000000 9.999969 1.000001 0.000000 0.000000 0.000000 1.000000 0.000000 0.000000 0.000000 1.000001 3702.dat
1 1 -180.000100 -56.000000 -210.000000 1.000001 0.000000 0.000000 0.000000 1.000000 0.000000 0.000000 0.000000 1.000001 3702.dat
0 STEP
1 1 -80.000080 -88.000000 10.000000 -1.000000 0.000000 0.000000 0.000000 1.000000 0.000000 0.000000 0.000000 -1.000000 3703.dat
1 1 90.000200 -88.000000 -99.999790 -0.000001 0.000000 -1.000001 0.000000 1.000000 0.000000 1.000001 0.000000 -0.000001 3895.dat
1 1 -250.000200 -88.000000 -100.000000 -0.000001 0.000000 -1.000001 0.000000 1.000000 0.000000 1.000001 0.000000 -0.000001 3895.dat
1 1 -79.999920 -88.000000 -209.999900 -1.000001 0.000000 0.000000 0.000000 1.000000 0.000000 0.000000 0.000000 -1.000001 3703.dat
0 STEP
1 0 100.000300 -77.999980 -179.999900 -1.000001 0.000000 0.000000 0.000000 1.000000 0.000000 0.000000 0.000000 -1.000008 2780.dat
1 19 100.000300 -77.999980 -140.000000 1.000001 0.000001 -0.000001 0.000001 0.000001 1.000000 0.000001 -1.000008 0.000001 3749.dat
1 1 110.000300 -78.000030 -219.996500 0.000000 1.000001 0.000000 0.000000 0.000000 1.000000 1.000001 0.000000 0.000000 32009.dat
0 STEP
1 1 20.000080 -104.000000 -0.000010 1.000001 0.000000 0.000000 0.000000 1.000000 0.000000 0.000000 0.000000 1.000001 3709b.dat
1 1 -200.000100 -104.000000 -0.000050 1.000001 0.000000 0.000000 0.000000 1.000000 0.000000 0.000000 0.000000 1.000001 3709b.dat
1 1 40.000100 -96.000000 0.000000 -1.000001 0.000000 0.000000 0.000000 1.000000 0.000000 0.000000 0.000000 -1.000001 32001.dat
1 1 -200.000100 -128.000000 9.999969 -1.000001 0.000000 0.000000 0.000000 1.000000 0.000000 0.000000 0.000000 -1.000001 3701.dat
1 1 20.000080 -128.000000 10.000010 -1.000001 0.000000 0.000000 0.000000 1.000000 0.000000 0.000000 0.000000 -1.000001 3701.dat
1 1 -200.000100 -96.000000 -0.000050 -1.000001 0.000000 0.000000 0.000000 1.000000 0.000000 0.000000 0.000000 -1.000001 32001.dat
0 STEP
1 1 -220.000100 -96.000000 -200.000100 1.000001 0.000000 0.000000 0.000000 1.000000 0.000000 0.000000 0.000000 1.000001 3709b.dat
1 15 -250.000200 -120.000000 -210.000200 0.000000 0.000000 -1.000001 0.000000 1.000000 0.000000 1.000001 0.000000 0.000000 3040b.dat
1 15 -250.000200 -120.000000 -190.000100 0.000000 0.000000 -1.000001 0.000000 1.000000 0.000000 1.000001 0.000000 0.000000 3040b.dat
0 STEP
1 0 -20.000010 -78.000000 20.000260 0.000000 0.000000 1.000001 0.000000 1.000000 0.000000 -1.000001 0.000000 0.000000 2780.dat
1 0 -220.000100 -78.000000 19.999970 0.000000 0.000000 1.000001 0.000000 1.000000 0.000000 -1.000001 0.000000 0.000000 2780.dat
1 15 -120.000200 -77.999860 30.000320 -0.000001 -0.000001 1.000001 -1.000000 0.000001 -0.000001 -0.000001 -1.000001 -0.000001 64290.dat
0 STEP
1 19 -180.000200 -118.000000 20.000220 -0.000001 1.000001 -0.000001 0.000001 0.000001 1.000000 1.000001 0.000001 -0.000001 3749.dat
1 0 -200.000100 -77.999760 40.000300 0.000000 0.000000 1.000001 0.000000 1.000000 0.000000 -1.000001 0.000000 0.000000 2780.dat
1 0 -180.000200 -77.999790 40.000310 0.000000 0.000000 1.000001 0.000000 1.000000 0.000000 -1.000001 0.000000 0.000000 2780.dat
1 0 -220.000100 -118.000000 20.000220 0.000000 0.000000 1.000001 0.000000 1.000000 0.000000 -1.000001 0.000000 0.000000 2780.dat
1 1 -200.000100 -118.000000 30.000240 -0.000001 0.000000 -1.000001 0.000000 1.000000 0.000000 1.000001 0.000000 -0.000001 6558.dat
1 1 -291.220900 -214.902000 29.999800 0.804824 0.000001 0.593516 -0.593515 0.000002 0.804823 0.000000 -1.000001 0.000002 32271.dat
1 71 -200.000200 -118.000000 49.999880 -1.000001 0.000000 0.000000 0.000000 0.000000 1.000000 0.000000 1.000001 0.000000 60484.dat
0 STEP
1 0 0.000050 -118.000000 20.000260 0.000000 0.000000 1.000001 0.000000 1.000000 0.000000 -1.000001 0.000000 0.000000 2780.dat
1 0 0.000050 -78.000000 20.000260 0.000000 0.000000 1.000001 0.000000 1.000000 0.000000 -1.000001 0.000000 0.000000 2780.dat
1 15 0.000050 -138.000000 30.000270 1.000001 -0.000001 0.000001 0.000001 0.000001 -1.000000 0.000001 1.000001 0.000001 32524.dat
0 STEP
1 0 -260.000200 -78.000000 -200.000100 -1.000001 0.000000 0.000000 0.000000 1.000000 0.000000 0.000000 0.000000 -1.000001 2780.dat
1 0 -260.000200 -78.000000 -120.000100 -1.000001 0.000000 0.000000 0.000000 1.000000 0.000000 0.000000 0.000000 -1.000001 2780.dat
0 STEP
1 71 -370.000300 -97.999980 -160.000100 -1.000001 0.000000 0.000000 0.000000 0.000000 1.000000 0.000000 1.000001 0.000000 58119.dat
0 STEP
1 0 60.000260 -78.000000 -220.000000 0.000000 0.000000 -1.000001 0.000000 1.000000 0.000000 1.000001 0.000000 0.000000 2780.dat
1 4 60.000260 -78.000000 -230.000100 0.000000 0.000000 -1.000001 0.000000 -1.000000 0.000000 -1.000001 0.000000 0.000000 32034.dat
0 STEP
1 0 -280.000400 -197.999700 20.000520 0.000000 0.000000 1.000001 0.000000 1.000000 0.000000 -1.000001 0.000000 0.000000 2780.dat
1 0 0.000050 -198.000000 20.000320 0.000000 0.000000 1.000001 0.000000 1.000000 0.000000 -1.000001 0.000000 0.000000 2780.dat
1 15 -140.000100 -197.999800 10.000280 -0.000001 -0.000001 1.000001 -1.000000 0.000001 -0.000001 -0.000001 -1.000001 -0.000001 64871.dat
0 STEP
1 0 -200.000200 -217.999600 -105.459800 0.000000 0.000000 1.000001 0.000000 1.000000 0.000000 -1.000001 0.000000 0.000000 3737.dat
1 0 -217.500200 -187.999600 -138.519800 0.000000 0.000000 1.000001 0.000000 1.000000 0.000000 -1.000001 0.000000 0.000000 3707.dat
1 71 -200.000200 -197.999600 -148.619900 1.000001 0.000000 0.000000 0.000000 -1.000000 0.000000 0.000000 0.000000 -1.000001 4185.dat
1 71 -200.000200 -197.999600 -95.059860 1.000001 0.000000 0.000000 0.000000 1.000000 0.000000 0.000000 0.000000 1.000001 4185.dat
1 71 -200.000200 -197.999600 -112.209700 0.000000 0.000000 1.000001 0.000000 1.000000 0.000000 -1.000001 0.000000 0.000000 60485.dat
1 71 -200.000100 -198.002600 -21.139720 1.000001 0.000000 0.000001 0.000000 1.000000 0.000000 -0.000001 0.000000 1.000001 59443.dat
1 0 -182.500200 -187.999600 -117.359800 0.000000 0.000000 1.000001 0.000000 1.000000 0.000000 -1.000001 0.000000 0.000000 3707.dat
0 STEP
1 0 -70.000060 -217.999600 -215.460000 -1.000001 0.000000 0.000000 0.000000 1.000000 0.000000 0.000000 0.000000 -1.000001 3708.dat
1 0 -57.230060 -189.999600 -201.460200 -1.000001 0.000000 0.000000 0.000000 1.000000 0.000000 0.000000 0.000000 -1.000001 3708.dat
1 0 -182.500200 -187.999600 -202.359900 0.000000 -1.000001 0.000000 -1.000000 0.000000 0.000000 0.000000 0.000000 -1.000001 32014.dat
1 0 -200.000200 -217.999600 -215.460000 0.000000 -1.000001 0.000000 -1.000000 0.000000 0.000000 0.000000 0.000000 -1.000001 32014.dat
1 0 -87.500100 -187.999600 -237.389900 -1.000001 0.000000 0.000000 0.000000 1.000000 0.000000 0.000000 0.000000 -1.000001 3708.dat
1 0 -217.500200 -187.999600 -237.389900 0.000000 -1.000001 0.000000 -1.000000 0.000000 0.000000 0.000000 0.000000 -1.000001 32014.dat
0 STEP
1 71 -55.000070 -197.999600 -219.960200 0.000000 0.000000 1.000001 0.000000 1.000000 0.000000 -1.000001 0.000000 0.000000 4185.dat
1 71 -9.000010 -198.000000 -220.000000 -1.000001 0.000000 0.000000 0.000000 1.000000 0.000000 0.000000 0.000000 -1.000008 60485.dat
1 71 -3.320010 -199.999600 -218.960200 0.000000 0.000000 1.000001 0.000000 1.000000 0.000000 -1.000001 0.000000 0.000000 4185.dat
0 STEP
1 71 80.000270 -198.002900 -220.000100 -0.000001 0.000000 1.000001 0.000000 1.000000 0.000000 -1.000008 0.000000 -0.000001 59443.dat
1 71 110.000300 -198.000000 -219.999900 -1.000001 0.000000 0.000000 0.000000 0.000000 1.000000 0.000000 1.000008 0.000000 4519.dat
0 STEP
1 72 -200.000100 -197.999800 29.860350 -1.000001 0.000000 0.000000 0.000000 1.000000 0.000000 0.000000 0.000000 -1.000001 3648b.dat
1 71 -200.000100 -197.999800 8.860320 0.000000 1.000001 0.000000 0.000000 0.000000 1.000000 1.000001 0.000000 0.000000 4519.dat
0 STEP
1 0 -40.000020 -197.999900 0.000230 0.000000 0.000000 -1.000001 0.000000 1.000000 0.000000 1.000001 0.000000 0.000000 2780.dat
1 0 -80.000080 -197.999900 0.000230 0.000000 0.000000 -1.000001 0.000000 1.000000 0.000000 1.000001 0.000000 0.000000 2780.dat
0 STEP
1 71 -120.000200 -197.999800 29.000560 -1.000001 0.000000 0.000000 0.000000 1.000000 0.000000 0.000000 0.000000 -1.000001 3649.dat
1 19 -120.000200 -197.999800 20.000300 -0.000001 1.000001 -0.000001 0.000001 0.000001 1.000000 1.000001 0.000001 -0.000001 3749.dat
0 STEP
1 72 -60.000060 -197.999900 30.370320 0.000000 1.000001 0.000000 -1.000000 0.000000 0.000000 0.000000 0.000000 1.000001 3647.dat
1 71 -60.000060 -197.999900 7.520190 0.000000 1.000001 0.000000 0.000000 0.000000 1.000000 1.000001 0.000000 0.000000 4519.dat
1 71 -60.000060 -197.999900 0.000230 -1.000001 0.000000 0.000000 0.000000 1.000000 0.000000 0.000000 0.000000 -1.000001 58120.dat
0 STEP
1 1 60.000380 -96.000000 -199.999900 1.000001 0.000000 0.000000 0.000000 1.000000 0.000000 0.000000 0.000000 1.000001 3709b.dat
1 15 90.000400 -120.000000 -190.000000 0.000001 0.000000 1.000001 0.000000 1.000000 0.000000 -1.000001 0.000000 0.000001 3040b.dat
1 15 90.000400 -120.000000 -210.000000 0.000001 0.000000 1.000001 0.000000 1.000000 0.000000 -1.000001 0.000000 0.000001 3040b.dat
0 STEP
1 1 90.000170 -120.000000 -119.999800 0.000000 0.000000 1.000001 0.000000 1.000000 0.000000 -1.000001 0.000000 0.000000 3023.dat
1 1 90.000140 -120.000000 -79.999760 0.000000 0.000000 1.000001 0.000000 1.000000 0.000000 -1.000001 0.000000 0.000000 3023.dat
1 15 90.000190 -112.000000 -119.999800 0.000000 0.000000 1.000001 0.000000 1.000000 0.000000 -1.000001 0.000000 0.000000 32064a.dat
1 15 90.000140 -112.000000 -79.999760 0.000000 0.000000 1.000001 0.000000 1.000000 0.000000 -1.000001 0.000000 0.000000 32064a.dat
0 STEP
1 0 60.000020 -78.000000 20.000030 0.000000 0.000000 -1.000001 0.000000 1.000000 0.000000 1.000001 0.000000 0.000000 2780.dat
1 4 60.000020 -78.000000 30.000040 0.000000 0.000000 -1.000001 0.000000 -1.000000 0.000000 -1.000001 0.000000 0.000000 32034.dat
0 STEP
1 0 150.000300 -198.000000 -218.940000 0.000000 0.000000 1.000001 0.000000 1.000000 0.000000 -1.000008 0.000000 0.000000 3705.dat
1 4 130.000300 -198.000000 -219.999900 0.000000 0.000001 -1.000001 0.000000 -1.000000 -0.000001 -1.000008 0.000000 0.000000 32039.dat
0 STEP
1 4 150.000300 -198.000000 -268.940100 0.000001 -1.000001 0.000001 0.000001 0.000001 1.000000 -1.000008 -0.000001 0.000001 32054.dat
1 4 150.000200 -198.000000 -168.939900 -0.000001 1.000001 -0.000001 0.000001 0.000001 1.000000 1.000008 0.000001 -0.000001 32054.dat
0 STEP
0 STEP
