0 Untitled Model
0 Name:  手动三轮车
0 Author:  
0 CustomBrick
0 NumOfBricks:  39
1 1 -112.000100 -48.556870 -33.000000 0.000000 0.000000 1.000000 0.000000 1.000000 0.000000 -1.000000 0.000000 0.000000 32001.dat
1 1 -102.000000 -72.556870 -33.000000 0.000000 0.000000 1.000000 0.000000 1.000000 0.000000 -1.000000 0.000000 0.000000 3701.dat
1 1 -122.000100 -72.556870 -33.000000 0.000000 0.000000 1.000000 0.000000 1.000000 0.000000 -1.000000 0.000000 0.000000 3701.dat
0 STEP
1 14 -87.140010 -62.557000 -33.000060 0.000000 0.000000 1.000000 -1.000000 -0.000001 0.000000 0.000001 -1.000000 0.000000 32123a.dat
1 71 -109.550000 -62.556860 -33.000000 -1.000000 0.000000 0.000000 0.000000 -0.000001 -1.000000 0.000000 -1.000000 0.000001 32073.dat
1 71 -49.550000 -62.556960 -34.070190 0.000000 -1.000000 0.000000 0.000001 0.000000 -1.000000 1.000000 0.000000 0.000001 4519.dat
1 4 -69.549990 -62.556930 -34.070190 0.000000 0.000001 -1.000000 0.000001 1.000000 0.000001 1.000000 -0.000001 0.000000 32039.dat
1 14 -155.290200 -62.557020 -33.000060 0.000000 0.000000 1.000000 -1.000000 -0.000001 0.000000 0.000001 -1.000000 0.000000 32123a.dat
1 72 -141.930100 -62.557020 -33.000060 0.000000 0.000000 1.000000 -1.000001 -0.000001 0.000000 0.000001 -1.000001 0.000000 3648b.dat
0 STEP
1 1 -32.000000 -72.556870 -83.000000 1.000000 0.000000 0.000000 0.000000 1.000000 0.000000 0.000000 0.000000 1.000000 3703.dat
1 1 -32.000000 -72.556900 17.000000 1.000000 0.000000 0.000000 0.000000 1.000000 0.000000 0.000000 0.000000 1.000000 3703.dat
0 STEP
1 15 -122.000000 -96.556870 -23.000060 0.000000 0.000000 -1.000000 0.000000 1.000000 0.000000 1.000000 0.000000 0.000000 3040b.dat
1 15 -122.000100 -96.556870 -43.000060 0.000000 0.000000 -1.000000 0.000000 1.000000 0.000000 1.000000 0.000000 0.000000 3040b.dat
0 STEP
1 1 -122.000200 -104.556900 -33.000120 0.000000 0.000000 1.000000 0.000000 1.000000 0.000000 -1.000000 0.000000 0.000000 3023.dat
1 1 -102.000100 -80.556870 6.999940 0.000000 0.000000 1.000000 0.000000 1.000000 0.000000 -1.000000 0.000000 0.000000 3023.dat
1 1 -102.000100 -80.556870 -73.000060 0.000000 0.000000 1.000000 0.000000 1.000000 0.000000 -1.000000 0.000000 0.000000 3023.dat
0 STEP
1 1 -122.000200 -128.556900 -33.000180 0.000000 0.000000 1.000000 0.000000 1.000000 0.000000 -1.000000 0.000000 0.000000 3700.dat
0 STEP
1 14 -172.000000 -62.556870 -99.439990 0.984808 0.173649 0.000000 -0.173649 0.984808 0.000000 0.000000 0.000000 1.000000 32123a.dat
1 14 -172.000000 -62.556880 31.350040 -0.984808 0.173649 0.000000 0.173649 0.984808 0.000000 0.000000 0.000000 -1.000000 32123a.dat
1 0 -172.000000 -62.556870 -34.390020 0.000000 0.173649 0.984808 0.000000 0.984808 -0.173649 -1.000000 0.000000 0.000000 3737.dat
1 71 -172.000000 -62.556870 -1.439940 -0.984808 0.173649 -0.000001 0.173649 0.984808 0.000000 0.000001 0.000000 -1.000000 3650c.dat
0 STEP
1 1 8.000000 -96.556870 -83.000000 1.000000 0.000000 0.000000 0.000000 1.000000 0.000000 0.000000 0.000000 1.000000 3700.dat
1 1 -32.000000 -96.556880 17.000000 1.000000 0.000000 0.000000 0.000000 1.000000 0.000000 0.000000 0.000000 1.000000 3700.dat
1 1 -72.000000 -96.556870 -83.000000 1.000000 0.000000 0.000000 0.000000 1.000000 0.000000 0.000000 0.000000 1.000000 3700.dat
1 15 8.000000 -96.556880 17.000000 1.000000 0.000000 0.000000 0.000000 1.000000 0.000000 0.000000 0.000000 1.000000 32064a.dat
1 15 -72.000000 -96.556880 17.000000 1.000000 0.000000 0.000000 0.000000 1.000000 0.000000 0.000000 0.000000 1.000000 32064a.dat
1 15 -32.000000 -96.556870 -83.000000 1.000000 0.000000 0.000000 0.000000 1.000000 0.000000 0.000000 0.000000 1.000000 32064a.dat
0 STEP
1 0 -172.000500 -62.556640 56.979980 0.173649 -0.984809 0.000000 0.984806 0.173649 0.000000 0.000000 0.000000 1.000001 44309.dat
1 71 -172.000000 -62.556880 56.979980 -0.984808 -0.173649 0.000000 0.173649 -0.984808 0.000000 0.000000 0.000000 1.000000 56145.dat
1 0 -171.999800 -62.556960 -127.650500 0.173649 0.984807 0.000000 0.984808 -0.173649 0.000000 0.000000 0.000000 -1.000000 44309.dat
1 71 -172.000000 -62.556920 -127.649900 0.984809 -0.173649 0.000000 -0.173649 -0.984809 0.000000 0.000000 0.000000 -1.000000 56145.dat
0 STEP
1 19 -32.000000 -86.556880 -94.010070 -0.000001 1.000000 -0.000001 0.000001 0.000001 1.000000 1.000000 0.000001 -0.000001 3749.dat
0 STEP
1 4 -32.000000 -86.556910 -104.010100 0.000000 0.000000 -1.000000 0.000000 -1.000000 0.000000 -1.000000 0.000000 0.000000 32034.dat
0 STEP
1 15 98.000000 -96.556870 -83.000000 0.000000 0.000000 -1.000000 0.000000 1.000000 0.000000 1.000000 0.000000 0.000000 3040b.dat
1 15 98.000030 -96.556880 17.000000 0.000000 0.000000 -1.000000 0.000000 1.000000 0.000000 1.000000 0.000000 0.000000 3040b.dat
0 STEP
1 14 108.000100 -62.556870 32.000000 1.000000 0.000000 0.000000 0.000000 1.000000 0.000000 0.000000 0.000000 1.000000 32123a.dat
1 14 108.000100 -62.556870 -98.580080 1.000000 0.000000 0.000000 0.000000 1.000000 0.000000 0.000000 0.000000 1.000000 32123a.dat
1 71 108.000100 -62.556870 -33.540040 1.000000 0.000000 0.000000 0.000000 -1.000000 0.000000 0.000000 0.000000 -1.000000 4185.dat
1 71 108.000100 -62.556870 -33.580020 0.000000 0.000000 1.000000 0.000000 1.000000 0.000000 -1.000000 0.000000 0.000000 44294.dat
0 STEP
0 STEP
