0 FILE 跳舞机器人.io
0 Untitled Model
0 Name:  跳舞机器人
0 Author:  
0 CustomBrick
0 NumOfBricks:  115
1 1 51.000240 -71.801110 -487.728000 0.000001 0.000000 1.000002 0.000000 1.000002 0.000000 -1.000000 0.000000 0.000001 3895.dat
1 1 50.999880 -47.801050 -487.727900 -0.000001 0.000000 -1.000002 0.000000 1.000002 0.000000 1.000000 0.000000 -0.000001 3895.dat
1 0 40.999600 -37.801010 -487.727900 1.000002 0.000000 -0.000001 0.000000 1.000002 0.000000 0.000001 0.000000 1.000000 2780.dat
0 STEP
1 1 51.000180 -95.801150 -447.728100 0.000001 0.000000 1.000002 0.000000 1.000002 0.000000 -1.000000 0.000000 0.000001 3702.dat
1 0 61.000210 -85.801120 -427.728100 -1.000002 0.000000 0.000000 0.000000 1.000002 0.000000 0.000000 0.000000 -1.000000 2780.dat
1 19 61.000270 -85.801090 -467.728100 1.000002 0.000001 -0.000001 0.000001 0.000001 1.000002 0.000001 -1.000000 0.000001 3749.dat
1 1 71.000230 -85.801120 -387.728100 0.000000 -1.000002 0.000000 0.000000 0.000000 1.000002 -1.000000 0.000000 0.000000 32009.dat
0 STEP
1 1 30.999370 -47.801050 -647.728200 -0.000001 0.000000 -1.000002 0.000000 1.000002 0.000000 1.000000 0.000000 -0.000001 3895.dat
1 1 30.999490 -47.801050 -447.727800 -0.000001 0.000000 -1.000002 0.000000 1.000002 0.000000 1.000000 0.000000 -0.000001 3702.dat
1 0 40.999600 -37.801010 -727.728100 1.000002 0.000000 -0.000001 0.000000 1.000002 0.000000 0.000001 0.000000 1.000000 2780.dat
1 0 20.999470 -37.801010 -427.727800 1.000002 0.000000 -0.000001 0.000000 1.000002 0.000000 0.000001 0.000000 1.000000 2780.dat
1 0 20.999470 -37.801010 -387.728000 1.000002 0.000000 -0.000001 0.000000 1.000002 0.000000 0.000001 0.000000 1.000000 2780.dat
1 0 40.999480 -37.801010 -547.728100 1.000002 0.000000 -0.000001 0.000000 1.000002 0.000000 0.000001 0.000000 1.000000 2780.dat
1 0 40.999600 -37.801010 -587.728300 1.000002 0.000000 -0.000001 0.000000 1.000002 0.000000 0.000001 0.000000 1.000000 2780.dat
1 0 21.999410 -37.801010 -747.728100 1.000002 0.000000 -0.000001 0.000000 1.000002 0.000000 0.000001 0.000000 1.000000 2780.dat
1 1 30.999490 -37.801010 -707.728300 -1.000002 0.000000 0.000001 0.000000 1.000002 0.000000 -0.000001 0.000000 -1.000000 6558.dat
1 1 50.999570 -37.801010 -667.728300 0.000000 -1.000002 0.000000 0.000000 0.000000 1.000002 -1.000000 0.000000 0.000000 32009.dat
0 STEP
1 0 20.999470 -37.801010 -467.727900 1.000002 0.000000 -0.000001 0.000000 1.000002 0.000000 0.000001 0.000000 1.000000 2780.dat
1 0 20.999340 -37.801010 -667.728400 1.000002 0.000000 -0.000001 0.000000 1.000002 0.000000 0.000001 0.000000 1.000000 2780.dat
0 STEP
1 1 10.999630 -47.801050 -567.728100 -0.000001 0.000000 -1.000002 0.000000 1.000002 0.000000 1.000000 0.000000 -0.000001 3895.dat
1 1 20.999590 -55.801060 -507.727900 -0.000001 0.000000 -1.000002 0.000000 1.000002 0.000000 1.000000 0.000000 -0.000001 32001.dat
0 STEP
1 0 -10.000730 -38.801030 -355.728200 0.000001 0.000000 1.000002 0.000000 1.000002 0.000000 -1.000000 0.000000 0.000001 2780.dat
1 0 -49.000520 -38.000010 -777.728100 0.000001 0.000000 1.000002 0.000000 1.000002 0.000000 -1.000000 0.000000 0.000001 2780.dat
1 0 -9.000730 -38.000010 -777.728100 0.000001 0.000000 1.000002 0.000000 1.000002 0.000000 -1.000000 0.000000 0.000001 2780.dat
1 0 -51.000640 -38.801030 -355.728400 0.000001 0.000000 1.000002 0.000000 1.000002 0.000000 -1.000000 0.000000 0.000001 2780.dat
1 14 3.999430 -47.579080 -416.727900 -1.000002 0.000000 0.000000 0.000000 -1.000002 0.000000 0.000000 0.000000 1.000000 12344.dat
1 14 5.300090 -29.210010 -718.150500 -1.000001 0.000000 0.000001 0.000000 1.000002 0.000000 -0.000001 0.000000 -0.999999 12344.dat
0 STEP
1 1 10.999510 -48.000040 -787.727900 -1.000002 0.000000 0.000001 0.000000 1.000002 0.000000 -0.000001 0.000000 -1.000000 3703.dat
1 15 -79.000680 -72.000100 -787.728100 0.000000 0.000000 1.000002 0.000000 1.000002 0.000000 -1.000000 0.000000 0.000000 3040b.dat
1 15 150.999800 -23.999990 -787.727800 -1.000002 0.000000 0.000000 0.000000 1.000002 0.000000 0.000000 0.000000 -1.000000 32064a.dat
1 15 -129.000800 -23.999990 -787.728100 1.000002 0.000000 0.000000 0.000000 1.000002 0.000000 0.000000 0.000000 1.000000 32064a.dat
0 STEP
1 1 8.999440 -48.801040 -346.728400 -1.000002 0.000000 0.000001 0.000000 1.000002 0.000000 -0.000001 0.000000 -1.000000 3703.dat
1 15 -81.000760 -72.801100 -346.728400 0.000000 0.000000 1.000002 0.000000 1.000002 0.000000 -1.000000 0.000000 0.000000 3040b.dat
1 15 -131.000900 -24.801000 -346.728500 1.000002 0.000000 0.000000 0.000000 1.000002 0.000000 0.000000 0.000000 1.000000 32064a.dat
1 15 148.999800 -24.801000 -346.728200 1.000002 0.000000 0.000000 0.000000 1.000002 0.000000 0.000000 0.000000 1.000000 32064a.dat
0 STEP
1 0 61.000210 -225.801400 -387.728100 1.000002 0.000000 0.000000 0.000000 1.000002 0.000000 0.000000 0.000000 1.000000 2780.dat
1 19 61.000210 -245.801500 -387.728100 1.000002 0.000001 -0.000001 0.000001 0.000001 1.000002 0.000001 -1.000000 0.000001 3749.dat
0 STEP
1 72 31.209520 -177.801400 -667.727900 0.000000 0.000000 1.000002 -0.961811 0.273723 0.000000 -0.273723 -0.961808 0.000000 3647.dat
1 71 51.209590 -177.801400 -667.728100 1.000002 0.000000 0.000000 0.000000 0.273724 0.961811 0.000000 -0.961808 0.273723 4519.dat
1 19 60.999660 -197.801400 -667.728100 -1.000002 -0.000001 0.000001 0.000001 0.000001 1.000002 -0.000001 1.000000 -0.000001 3749.dat
1 0 60.999660 -157.801300 -667.728300 1.000002 0.000000 0.000000 0.000000 1.000002 0.000000 0.000000 0.000000 1.000000 2780.dat
1 71 60.999660 -177.801400 -667.728300 0.000000 0.000000 1.000002 0.000000 1.000002 0.000000 -1.000000 0.000000 0.000000 58120.dat
0 STEP
1 71 29.959700 -117.801200 -667.728100 0.000000 0.000000 1.000002 1.000002 0.000000 0.000000 0.000000 1.000000 0.000000 3649.dat
1 19 40.999660 -117.801200 -667.728100 -1.000002 -0.000001 0.000001 0.000001 0.000001 1.000002 -0.000001 1.000000 -0.000001 3749.dat
0 STEP
1 71 41.000220 -61.801080 -587.728300 -1.000002 0.000000 0.000000 0.000000 0.939695 -0.342021 0.000000 -0.342021 -0.939693 3673.dat
1 4 7.989920 -120.889600 -577.309200 0.000000 -0.000001 1.000002 0.000000 -1.000002 -0.000001 1.000000 0.000000 0.000000 32039.dat
1 15 30.999980 -160.282100 -570.363400 -0.000002 -1.000002 -0.000001 -0.173647 0.000000 0.984811 -0.984808 0.000002 -0.173647 64290.dat
1 14 47.020000 -120.889600 -577.309100 0.000000 0.000000 -1.000002 -1.000002 0.000000 0.000000 0.000000 1.000000 0.000000 32123a.dat
1 71 27.989960 -120.889600 -577.309100 -1.000002 0.000000 0.000000 0.000000 0.000000 1.000002 0.000000 1.000000 0.000000 4519.dat
0 STEP
1 15 9.959650 -164.409900 -610.190900 0.000000 1.000002 0.000001 -0.792292 0.000001 -0.610146 -0.610145 -0.000001 0.792290 32524.dat
1 71 19.960040 -201.018500 -562.653200 -1.000002 0.000000 0.000000 0.000000 0.967711 0.252071 0.000000 0.252070 -0.967709 3673.dat
1 71 19.959610 -127.801200 -657.728000 -1.000002 0.000000 0.000000 0.000000 0.754712 -0.656060 0.000000 -0.656059 -0.754710 3673.dat
0 STEP
1 14 14.759890 -219.370700 -559.944800 0.000000 0.000000 1.000002 0.000000 1.000002 0.000000 -1.000000 0.000000 0.000000 32123a.dat
1 71 31.549970 -219.370700 -559.944700 -1.000002 0.000000 0.000000 0.000000 0.000000 1.000002 0.000000 1.000000 0.000000 4519.dat
0 STEP
1 71 41.000160 -61.801060 -407.728000 -1.000002 0.000000 0.000000 0.000000 0.939695 0.342020 0.000000 0.342019 -0.939693 3673.dat
1 15 31.000160 -160.945800 -420.780800 -0.000001 -1.000002 0.000000 0.130528 -0.000001 0.991447 -0.991445 0.000001 0.130527 64290.dat
0 STEP
1 14 46.980200 -220.432600 -428.612300 0.000000 0.000000 -1.000002 -1.000002 0.000000 0.000000 0.000000 1.000000 0.000000 32123a.dat
1 4 9.380179 -220.432800 -428.612300 0.000000 -0.000001 1.000002 0.000000 -1.000004 -0.000001 1.000002 0.000000 0.000000 32039.dat
1 71 29.380160 -220.432600 -428.612300 -1.000002 0.000000 0.000000 0.000000 0.000000 1.000002 0.000000 1.000000 0.000000 4519.dat
0 STEP
1 4 53.130220 -160.945800 -420.780800 0.000000 0.000001 -1.000002 0.000000 -1.000002 -0.000001 -1.000000 0.000000 0.000000 32039.dat
1 14 16.820140 -160.945800 -420.780600 0.000000 0.000000 -1.000002 0.000000 -1.000002 0.000000 -1.000000 0.000000 0.000000 32123a.dat
1 71 41.820200 -160.945800 -420.780700 -1.000002 0.000000 0.000000 0.000000 0.000000 1.000002 0.000000 1.000000 0.000000 4519.dat
0 STEP
1 71 41.000100 -258.763200 -432.998500 -1.000002 0.000000 0.000000 0.000000 1.000002 0.000000 0.000000 0.000000 -1.000000 3673.dat
1 71 41.000100 -258.763200 -552.998700 -1.000002 0.000000 0.000000 0.000000 1.000002 0.000000 0.000000 0.000000 -1.000000 3673.dat
1 71 51.000120 -298.763200 -492.998500 0.000000 1.000002 0.000000 1.000002 0.000000 0.000000 0.000000 0.000000 -1.000000 64179.dat
0 STEP
1 0 51.000120 -348.763300 -492.998500 0.000000 1.000002 0.000000 1.000002 0.000000 0.000000 0.000000 0.000000 -1.000000 2780.dat
1 0 51.000120 -348.763300 -452.998500 0.000000 1.000002 0.000000 1.000002 0.000000 0.000000 0.000000 0.000000 -1.000000 2780.dat
1 0 51.000120 -348.763300 -532.998700 0.000000 1.000002 0.000000 1.000002 0.000000 0.000000 0.000000 0.000000 -1.000000 2780.dat
0 STEP
1 71 51.000120 -398.763300 -492.998500 0.000000 1.000002 0.000000 1.000002 0.000000 0.000000 0.000000 0.000000 -1.000000 64179.dat
0 STEP
1 15 51.000300 -285.801600 -387.728000 -0.000001 -1.000003 -0.000001 -0.000001 -0.000001 1.000002 -1.000000 0.000001 -0.000001 32524.dat
1 1 31.000220 -345.801700 -387.727900 -1.000002 0.000000 0.000000 0.000000 1.000002 0.000000 0.000000 0.000000 -1.000000 6558.dat
0 STEP
1 19 51.000120 -448.763500 -492.998500 -0.000001 -0.000001 -1.000002 -1.000002 -0.000001 0.000001 -0.000001 1.000000 -0.000001 3749.dat
1 71 50.997190 -468.763600 -492.998500 0.000000 1.000002 0.000000 0.000001 0.000000 -1.000002 -1.000000 0.000000 -0.000001 59443.dat
0 STEP
1 19 51.000060 -488.763700 -492.998500 0.000001 0.000001 1.000002 1.000002 0.000001 -0.000001 -0.000001 1.000000 -0.000001 3749.dat
1 1 30.999920 -498.763700 -492.998500 1.000002 0.000000 0.000000 0.000000 0.000000 1.000002 0.000000 -1.000000 0.000000 44809.dat
0 STEP
1 71 41.000100 -358.763300 -432.998500 -1.000002 0.000000 0.000000 0.000000 1.000002 0.000000 0.000000 0.000000 -1.000000 3673.dat
1 71 41.000100 -338.763300 -552.998700 -1.000002 0.000000 0.000000 0.000000 1.000002 0.000000 0.000000 0.000000 -1.000000 3673.dat
1 71 41.000100 -438.763500 -552.998700 -1.000002 0.000000 0.000000 0.000000 0.173651 0.984810 0.000000 0.984807 -0.173650 3673.dat
1 71 41.000100 -438.763500 -432.998500 -1.000002 0.000000 0.000000 0.000000 -0.342021 -0.939695 0.000000 -0.939693 0.342020 3673.dat
1 4 31.000070 -358.763300 -432.998500 -1.000002 0.000000 0.000000 0.000000 -1.000002 0.000000 0.000000 0.000000 1.000000 32034.dat
1 4 31.000070 -338.763300 -552.998700 -1.000002 0.000000 0.000000 0.000000 -1.000002 0.000000 0.000000 0.000000 1.000000 32034.dat
0 STEP
1 19 20.999830 -440.068300 -472.977100 1.000002 -0.000001 -0.000002 -0.000001 -0.999701 -0.024549 -0.000002 0.024549 -0.999699 3749.dat
1 19 21.000080 -438.925100 -532.999600 -1.000002 -0.000001 0.000001 0.000001 0.000001 1.000002 -0.000001 1.000000 -0.000001 3749.dat
1 1 30.999980 -342.184800 -624.220900 0.000001 -1.000002 0.000001 0.593518 0.000000 -0.804824 0.804822 0.000001 0.593517 32271.dat
1 1 31.000100 -340.465100 -364.168900 0.000000 1.000002 -0.000001 0.573581 -0.000001 -0.819152 -0.819150 -0.000001 -0.573580 32271.dat
0 STEP
1 1 11.000000 -438.924700 -533.000000 -0.000001 -1.000000 -0.000001 1.000000 -0.000001 0.000001 -0.000001 -0.000001 1.000000 32140.dat
0 STEP
1 0 21.000020 -373.231200 -387.112200 -1.000002 -0.000001 0.000000 0.000000 0.573582 -0.819151 0.000001 -0.819149 -0.573580 2780.dat
1 0 20.999960 -358.281200 -612.350600 -1.000002 0.000000 0.000000 0.000000 1.000002 0.000000 0.000000 0.000000 -1.000000 2780.dat
1 19 20.999960 -342.184800 -624.220900 1.000002 0.000002 -0.000001 0.000001 -0.593518 0.804824 0.000001 -0.804822 -0.593517 3749.dat
1 19 21.000080 -340.465200 -364.168900 1.000002 0.000001 -0.000002 0.000002 -0.819151 0.573583 -0.000001 -0.573582 -0.819148 3749.dat
0 STEP
1 1 11.000060 -388.070900 -689.753200 0.000000 1.000002 -0.000001 -0.819155 0.000001 0.573576 0.573575 0.000001 0.819153 32526.dat
1 1 11.000060 -384.336500 -297.271000 -0.000001 -1.000002 0.000000 -0.836225 0.000001 0.548391 -0.548390 0.000001 -0.836223 32526.dat
1 4 51.550020 -219.370700 -559.944600 0.000000 0.000001 -1.000003 0.000000 -1.000002 -0.000001 -1.000000 0.000000 0.000000 32039.dat
0 STEP
1 14 25.750020 -388.071000 -689.753200 0.000000 0.000000 1.000002 1.000002 0.000000 0.000000 0.000000 1.000000 0.000000 32123a.dat
1 71 1.220000 -388.071000 -689.753200 -1.000002 0.000000 0.000000 0.000000 0.000000 1.000002 0.000000 1.000000 0.000000 4519.dat
0 STEP
1 71 -9.780020 -388.071000 -689.753200 0.000000 0.000000 -1.000002 0.000000 -1.000002 0.000000 -1.000000 0.000000 0.000000 3649.dat
1 14 -23.780060 -388.071000 -689.753200 0.000000 0.000000 -1.000002 -1.000002 0.000000 0.000000 0.000000 1.000000 0.000000 32123a.dat
0 STEP
1 19 20.999890 -518.763600 -492.998500 -1.000002 -0.000001 0.000001 0.000001 0.000001 1.000002 -0.000001 1.000000 -0.000001 3749.dat
0 STEP
1 71 10.999880 -518.763600 -492.998500 0.000000 0.000000 1.000002 -1.000002 0.000000 0.000000 0.000000 -1.000000 0.000000 3649.dat
0 STEP
1 19 0.999850 -548.763700 -482.998400 -1.000003 -0.000001 0.000001 0.000001 0.000001 1.000002 -0.000001 1.000000 -0.000001 3749.dat
1 19 0.999850 -548.763700 -502.998500 -1.000003 -0.000001 0.000001 0.000001 0.000001 1.000002 -0.000001 1.000000 -0.000001 3749.dat
1 4 -3.310160 -498.763700 -492.998500 -1.000002 0.000000 0.000000 0.000000 1.000002 0.000000 0.000000 0.000000 -1.000000 32062.dat
0 STEP
1 0 -13.310120 -498.763700 -492.998500 0.000000 0.000000 -1.000002 1.000002 0.000000 0.000000 0.000000 -1.000000 0.000000 32270.dat
0 STEP
1 14 -4.000230 -548.763700 -482.998400 0.000000 0.000000 1.000002 1.000002 0.000000 0.000000 0.000000 1.000000 0.000000 32123a.dat
1 14 -6.220140 -548.763700 -502.998500 0.000000 0.000000 1.000002 1.000002 0.000000 0.000000 0.000000 1.000000 0.000000 32123a.dat
1 14 -14.000190 -548.763700 -482.998400 0.000000 0.000000 1.000002 1.000002 0.000000 0.000000 0.000000 1.000000 0.000000 32123a.dat
1 14 -14.000190 -548.763700 -502.998500 0.000000 0.000000 1.000002 1.000002 0.000000 0.000000 0.000000 1.000000 0.000000 32123a.dat
0 STEP
1 19 1.000030 -384.336500 -297.271100 -1.000003 -0.000001 0.000001 0.000001 0.000001 1.000002 -0.000001 1.000000 -0.000001 3749.dat
0 STEP
1 71 -19.000010 -384.339300 -297.271100 -0.000001 0.000000 1.000002 0.000000 1.000002 0.000000 -1.000000 0.000000 -0.000001 59443.dat
1 0 -139.950200 -384.336300 -296.270800 -1.000002 0.000000 0.000000 0.000000 1.000002 0.000000 0.000000 0.000000 -1.000000 3708.dat
0 STEP
1 71 -248.270600 -384.336300 -296.270800 0.000001 0.000000 -1.000002 0.000000 1.000002 0.000000 1.000000 0.000000 0.000001 3713.dat
1 14 -231.650500 -384.336300 -296.270800 0.000000 0.000000 1.000002 1.000002 0.000000 0.000000 0.000000 1.000000 0.000000 32123a.dat
0 STEP
1 16 257.000000 0.000000 -600.000000 0.000000 0.000000 -1.000000 0.000000 1.000000 0.000000 1.000000 0.000000 0.000000 submodel group 9 copy copy copy
0 STEP
0 STEP
0 NOFILE
0 FILE SubModel Group 9 Copy Copy Copy
0 SubModel Group 9 Copy Copy Copy
0 Name:  SubModel Group 9 Copy Copy Copy
0 Author:  
0 CustomBrick
0 NumOfBricks:  3
1 72 10.000000 -1.128810 -10.000000 1.000000 0.000000 0.000000 0.000000 0.000000 -1.000000 0.000000 1.000000 0.000000 dch003.dat
1 71 -27.466620 -79.717990 29.427020 1.000000 0.000000 0.000000 0.000000 0.000000 -1.000000 0.000000 1.000000 0.000000 dch004.dat
1 25 7.837010 13.484720 -9.965000 1.000000 0.000000 0.000000 0.000000 0.000000 -1.000000 0.000000 1.000000 0.000000 dch005.dat
0 NOFILE
