0 Untitled Model
0 Name:  夹子
0 Author:  
0 CustomBrick
0 NumOfBricks:  29
1 0 69.999860 -40.000120 30.000110 0.000000 0.000000 -0.999998 1.000000 0.000000 0.000000 0.000000 -1.000000 0.000000 2780.dat
1 15 69.999800 -30.000050 50.000110 0.999998 -0.000001 0.000001 0.000001 1.000000 0.000001 -0.000001 -0.000001 1.000000 64871.dat
1 15 106.252000 -50.000150 46.904840 -0.422618 0.000001 -0.906306 0.000001 1.000000 0.000000 0.906308 -0.000001 -0.422619 64871.dat
0 STEP
1 0 233.135000 -40.000140 106.071500 0.000000 0.999998 0.000000 -1.000000 0.000000 0.000000 0.000000 0.000000 1.000000 2780.dat
1 0 196.882800 -40.000140 89.166770 0.000000 0.999998 0.000000 1.000000 0.000000 0.000000 0.000000 0.000000 -1.000000 2780.dat
1 0 70.000010 -19.999940 150.000100 0.000000 0.999998 0.000000 1.000000 0.000000 0.000000 0.000000 0.000000 -1.000000 2780.dat
1 0 69.999950 -19.999900 190.000100 0.000000 0.999998 0.000000 -1.000000 0.000000 0.000000 0.000000 0.000000 1.000000 2780.dat
0 STEP
1 15 215.008700 -30.000060 97.619340 -0.422618 -0.000001 0.906306 0.000000 -1.000000 -0.000001 0.906308 -0.000001 0.422618 32523.dat
1 15 70.000010 -9.999980 170.000100 -0.999998 0.000001 -0.000001 -0.000001 -1.000000 -0.000001 -0.000001 -0.000001 1.000000 32523.dat
0 STEP
1 0 69.999880 -40.000050 110.000100 0.000000 0.000000 -0.999998 -1.000000 0.000000 0.000000 0.000000 1.000000 0.000000 2780.dat
1 0 160.630400 -60.000140 72.262050 0.000000 0.999998 0.000000 1.000000 0.000000 0.000000 0.000000 0.000000 -1.000000 2780.dat
0 STEP
1 15 160.630400 -70.000100 72.262000 -0.422618 -0.000001 0.906305 -0.000001 -1.000000 -0.000001 0.906308 -0.000001 0.422618 32316.dat
1 15 69.999820 -50.000050 110.000100 -0.999998 0.000001 -0.000001 -0.000001 -1.000000 -0.000001 -0.000001 -0.000001 1.000000 32316.dat
0 STEP
1 0 15.795080 -40.000100 4.262630 0.000000 0.490904 -0.871211 1.000000 -0.000001 0.000000 -0.000001 -0.871213 -0.490905 2780.dat
1 0 69.999680 -40.000200 -49.999880 0.000000 0.000000 -0.999998 1.000000 0.000000 0.000000 0.000000 -1.000000 0.000000 2780.dat
1 0 -20.630770 -40.000070 -12.261650 0.000000 0.000000 -0.999998 1.000000 0.000000 0.000000 0.000000 -1.000000 0.000000 2780.dat
1 0 69.999480 -40.000230 -89.999860 0.000000 0.000000 -0.999998 1.000000 0.000000 0.000000 0.000000 -1.000000 0.000000 2780.dat
0 STEP
1 1 69.999620 -50.000180 -29.999760 -0.999998 0.000001 0.000001 0.000001 1.000000 -0.000001 -0.000001 -0.000001 -1.000000 32271.dat
1 1 34.008740 -30.000080 12.524840 0.413105 -0.000001 -0.910681 -0.000001 -1.000000 0.000001 -0.910683 0.000000 -0.413106 32271.dat
0 STEP
1 19 -80.436870 -39.999990 -56.408220 0.000001 0.984808 0.173647 -1.000000 0.000001 0.000001 0.000001 -0.173647 0.984808 3749.dat
1 19 37.999760 -40.000320 -173.999900 -0.000001 0.804819 -0.593515 -1.000000 0.000000 0.000001 0.000001 0.593517 0.804821 3749.dat
1 19 -83.909930 -39.999980 -76.104460 0.000001 0.978121 -0.208028 1.000000 -0.000001 -0.000001 -0.000001 -0.208028 -0.978123 3749.dat
1 19 53.999700 -40.000320 -161.999700 -0.000001 0.773836 0.633382 1.000000 0.000001 0.000000 -0.000001 0.633384 -0.773839 3749.dat
0 STEP
1 71 -80.436920 -50.000000 -56.408240 -0.984806 -0.000001 -0.173647 -0.000001 1.000000 0.000001 0.173647 0.000001 -0.984808 60483.dat
1 71 53.476640 -30.000290 -161.332100 -0.633382 0.000001 -0.773836 0.000000 1.000000 0.000001 0.773839 0.000001 -0.633384 60483.dat
0 STEP
1 0 69.999660 -60.000260 -129.999700 0.000000 0.000000 -0.999998 -1.000000 0.000000 0.000000 0.000000 1.000000 0.000000 2780.dat
1 0 -57.059280 -40.000040 -28.785880 0.000000 0.000000 -0.999998 1.000000 0.000000 0.000000 0.000000 -1.000000 0.000000 2780.dat
0 STEP
1 4 69.999660 -70.000220 -129.999700 0.000000 0.000000 -0.999998 -1.000000 0.000000 0.000000 0.000000 1.000000 0.000000 32034.dat
1 4 -57.059340 -50.000040 -28.785880 0.000000 0.999998 0.000000 -1.000000 0.000000 0.000000 0.000000 0.000000 1.000000 32034.dat
0 STEP
0 STEP
