0 FILE 单杠.io
0 Untitled Model
0 Name:  单杠
0 Author:  
0 CustomBrick
0 NumOfBricks:  35
1 71 -169.996200 -13.999960 -0.000150 0.000000 0.999993 0.000000 0.000000 0.000000 1.000000 1.000000 0.000000 0.000000 4519.dat
1 0 -169.996200 -13.999960 39.999980 0.000000 0.000000 -0.999993 -1.000000 0.000000 0.000000 0.000000 1.000000 0.000000 32014.dat
0 STEP
1 0 -169.992900 -13.999960 -40.000150 0.000000 -0.999989 0.000001 -1.000000 0.000000 0.000000 0.000000 -0.000001 -1.000000 32014.dat
1 71 -169.996200 -13.999960 -0.000150 -0.999993 0.000000 -0.000001 0.000000 1.000000 0.000000 0.000001 0.000000 -1.000000 3713.dat
0 STEP
1 1 -130.000000 -24.000000 -0.000030 0.000000 0.000000 1.000000 0.000000 1.000000 0.000000 -1.000000 0.000000 0.000000 3702.dat
1 19 -139.999800 -13.999970 -40.000150 -1.000000 -0.000001 0.000001 0.000001 0.000001 1.000000 -0.000001 1.000000 -0.000001 3749.dat
1 19 -139.996100 -13.999970 39.999980 -0.999993 -0.000001 0.000001 0.000001 0.000001 1.000000 -0.000001 1.000000 -0.000001 3749.dat
0 STEP
1 1 -130.000000 -32.000000 -0.000030 0.000000 0.000000 1.000000 0.000000 1.000000 0.000000 -1.000000 0.000000 0.000000 3710.dat
1 1 -130.000000 -40.000010 0.000520 0.000001 0.000000 1.000000 0.000000 1.000000 0.000000 -1.000000 0.000000 0.000001 3710.dat
0 STEP
1 1 -129.999900 -64.000010 0.000270 0.000000 0.000000 1.000000 0.000000 1.000000 0.000000 -1.000000 0.000000 0.000000 3701.dat
1 15 -130.000100 -48.000000 49.999980 -1.000000 0.000000 0.000000 0.000000 1.000000 0.000000 0.000000 0.000000 -1.000000 3040b.dat
1 15 -130.000000 -48.000000 -50.000030 1.000000 0.000000 0.000000 0.000000 1.000000 0.000000 0.000000 0.000000 1.000000 3040b.dat
0 STEP
1 0 -119.999900 -54.000020 0.000270 -1.000000 0.000000 0.000000 0.000000 1.000000 0.000000 0.000000 0.000000 -1.000000 2780.dat
1 0 -120.000000 -14.000000 -0.000030 -1.000000 0.000000 0.000000 0.000000 1.000000 0.000000 0.000000 0.000000 -1.000000 2780.dat
1 15 -109.999800 -114.000000 0.000520 -0.000001 -1.000000 -0.000001 -0.000001 -0.000001 1.000000 -1.000000 0.000001 -0.000001 64290.dat
0 STEP
1 0 -49.829660 -214.000000 0.000570 -1.000000 0.000000 0.000000 0.000000 1.000000 0.000000 0.000000 0.000000 -1.000000 3707.dat
1 14 -94.789680 -214.000000 0.000520 0.000000 0.000000 -1.000000 0.000000 -1.000000 0.000000 -1.000000 0.000000 0.000000 32123a.dat
1 14 -124.829700 -214.000000 0.000580 0.000000 0.000000 -1.000000 0.000000 -1.000000 0.000000 -1.000000 0.000000 0.000000 32123a.dat
0 STEP
1 15 9.998799 -114.000100 0.004650 -0.000001 -1.000000 -0.000001 -0.000001 -0.000001 1.000000 -1.000000 0.000001 -0.000001 64290.dat
1 14 -4.949690 -214.000000 0.000560 0.000000 0.000000 -1.000000 0.000000 -1.000000 0.000000 -1.000000 0.000000 0.000000 32123a.dat
1 14 24.860460 -214.000000 0.000560 0.000000 0.000000 1.000000 0.000000 -1.000000 0.000000 1.000000 0.000000 0.000000 32123a.dat
0 STEP
1 1 30.001630 -64.000240 0.000260 0.000001 0.000000 1.000005 0.000000 1.000000 0.000000 -1.000005 0.000000 0.000001 3701.dat
1 1 30.001630 -40.000160 0.000200 0.000001 0.000000 1.000005 0.000000 1.000000 0.000000 -1.000005 0.000000 0.000001 3710.dat
1 0 20.001630 -54.000160 0.000260 -1.000006 0.000000 0.000000 0.000000 1.000000 0.000000 0.000000 0.000000 -1.000006 2780.dat
0 STEP
1 1 30.000230 -24.000000 -0.000050 0.000000 0.000000 1.000000 0.000000 1.000000 0.000000 -1.000000 0.000000 0.000000 3702.dat
1 1 30.000170 -32.000010 -0.000050 0.000001 0.000000 1.000006 0.000000 1.000000 0.000000 -1.000006 0.000000 0.000001 3710.dat
1 0 20.000170 -14.000000 -0.000050 -1.000006 0.000000 0.000000 0.000000 1.000000 0.000000 0.000000 0.000000 -1.000006 2780.dat
0 STEP
1 15 30.000240 -48.000000 49.999960 -1.000000 0.000000 0.000000 0.000000 1.000000 0.000000 0.000000 0.000000 -1.000000 3040b.dat
1 15 30.000220 -48.000000 -50.000040 1.000000 0.000000 0.000000 0.000000 1.000000 0.000000 0.000000 0.000000 1.000000 3040b.dat
0 STEP
1 16 50.000240 -3.999980 -0.000130 1.000000 0.000000 0.000000 0.000000 1.000000 0.000000 0.000000 0.000000 1.000000 submodel group 1
0 STEP
0 STEP
0 STEP
0 NOFILE
0 FILE SubModel Group 1
0 SubModel Group 1
0 Name:  SubModel Group 1
0 Author:  
0 CustomBrick
0 NumOfBricks:  6
1 0 20.000000 -10.000000 40.000090 0.000000 1.000000 0.000000 -1.000000 0.000000 0.000000 0.000000 0.000000 1.000000 32014.dat
1 19 -10.000000 -10.000000 39.999970 1.000000 0.000001 -0.000001 0.000001 0.000001 1.000000 0.000001 -1.000000 0.000001 3749.dat
0 STEP
1 71 20.000020 -10.000000 -0.000050 0.000000 -1.000000 0.000000 0.000000 0.000000 1.000000 -1.000000 0.000000 0.000000 4519.dat
1 71 20.000000 -10.000000 0.000080 1.000000 0.000000 0.000001 0.000000 1.000000 0.000000 -0.000001 0.000000 1.000000 3713.dat
0 STEP
1 19 -10.000000 -10.000000 -40.000040 1.000000 0.000001 -0.000001 0.000001 0.000001 1.000000 0.000001 -1.000000 0.000001 3749.dat
1 0 20.000000 -10.000000 -40.000050 0.000000 0.000000 1.000000 -1.000000 0.000000 0.000000 0.000000 -1.000000 0.000000 32014.dat
0 STEP
0 NOFILE
