0 Untitled Model
0 Name:  起落架
0 Author:  
0 CustomBrick
0 NumOfBricks:  37
1 1 -19.999480 -23.999660 -169.999300 -1.000000 0.000000 0.000001 0.000000 1.000000 0.000000 -0.000001 0.000000 -1.000000 3702.dat
1 1 0.000460 -31.999640 -159.999300 -1.000000 0.000000 0.000001 0.000000 1.000000 0.000000 -0.000001 0.000000 -1.000000 3709b.dat
0 STEP
1 1 -20.000000 -23.999630 -70.000070 -1.000001 0.000000 0.000001 0.000000 1.000000 0.000000 -0.000001 0.000000 -1.000001 3702.dat
1 1 0.000450 -23.999640 -119.999300 -0.000001 0.000000 -1.000000 0.000000 1.000000 0.000000 1.000000 0.000000 -0.000001 3709b.dat
1 1 0.000430 -31.999610 -79.999080 -1.000000 0.000000 0.000001 0.000000 1.000000 0.000000 -0.000001 0.000000 -1.000000 3709b.dat
0 STEP
1 1 30.000430 -55.999650 -119.999300 0.000001 0.000000 1.000000 0.000000 1.000000 0.000000 -1.000000 0.000000 0.000001 3894.dat
1 1 -29.999500 -55.999650 -119.999300 0.000001 0.000000 1.000000 0.000000 1.000000 0.000000 -1.000000 0.000000 0.000001 3894.dat
0 STEP
1 1 20.000410 -63.999740 -119.999300 0.000001 0.000000 1.000000 0.000000 1.000000 0.000000 -1.000000 0.000000 0.000001 32001.dat
1 1 -19.999550 -63.999740 -119.999000 0.000001 0.000000 1.000000 0.000000 1.000000 0.000000 -1.000000 0.000000 0.000001 32001.dat
0 STEP
1 1 0.000600 -87.999690 -169.999100 -0.999998 0.000000 0.000001 0.000000 1.000000 0.000000 -0.000001 0.000000 -0.999998 3701.dat
1 1 0.000430 -87.999640 -69.998940 -1.000000 0.000000 0.000001 0.000000 1.000000 0.000000 -0.000001 0.000000 -1.000000 3701.dat
0 STEP
1 1 -29.999560 -111.999600 -119.999100 0.000001 0.000000 1.000000 0.000000 1.000000 0.000000 -1.000000 0.000000 0.000001 3894.dat
1 1 0.000420 -119.999600 -169.999100 1.000000 0.000000 -0.000001 0.000000 1.000000 0.000000 0.000001 0.000000 1.000000 3710.dat
1 1 30.000370 -111.999600 -119.999100 0.000001 0.000000 1.000000 0.000000 1.000000 0.000000 -1.000000 0.000000 0.000001 3894.dat
0 STEP
1 14 -44.589520 -101.999600 -139.999100 0.000001 0.000000 1.000000 0.000000 1.000000 0.000000 -1.000000 0.000000 0.000001 32123a.dat
1 14 44.830570 -101.999600 -139.999100 0.000001 0.000000 1.000000 0.000000 1.000000 0.000000 -1.000000 0.000000 0.000001 32123a.dat
1 71 0.690400 -101.999600 -139.999100 0.000001 0.000000 1.000000 0.000000 1.000000 0.000000 -1.000000 0.000000 0.000001 4716.dat
1 0 10.410330 -101.999600 -139.999100 -1.000000 0.000000 0.000001 0.000000 1.000000 0.000000 -0.000001 0.000000 -1.000000 3706.dat
0 STEP
1 19 70.410780 -141.999600 -139.999100 -1.000000 -0.000002 0.000001 0.000001 0.000001 1.000000 -0.000002 1.000000 -0.000001 3749.dat
1 1 60.410580 -121.999700 -139.999100 1.000000 0.000000 -0.000001 0.000000 1.000000 0.000000 0.000001 0.000000 1.000000 32184.dat
0 STEP
1 4 90.410770 -141.999600 -139.999100 0.999999 0.000000 0.000000 0.000000 1.000000 0.000000 0.000000 0.000000 0.999999 62462.dat
0 STEP
1 1 0.000420 -143.999500 -169.999100 1.000000 0.000000 -0.000001 0.000000 1.000000 0.000000 0.000001 0.000000 1.000000 3701.dat
0 STEP
1 14 0.000400 -133.999600 -155.029100 0.999999 0.000000 -0.000001 0.000000 1.000000 0.000000 0.000001 0.000000 0.999999 32123a.dat
1 14 0.000330 -133.999600 -123.839200 0.999999 0.000000 0.000000 0.000000 -1.000000 0.000000 0.000001 0.000000 -0.999999 32123a.dat
1 14 0.000420 -133.999600 -185.709100 0.999999 0.000000 -0.000001 0.000000 1.000000 0.000000 0.000001 0.000000 0.999999 32123a.dat
1 71 0.000400 -133.999600 -139.559200 0.000000 -0.999999 0.000000 -1.000000 0.000000 -0.000001 0.000001 0.000000 -0.999999 94925.dat
1 0 0.000390 -133.999600 -130.909200 0.000000 0.000000 0.999999 0.000000 1.000000 0.000000 -0.999999 0.000000 0.000000 3706.dat
0 STEP
1 1 0.000390 -143.999500 -109.999000 1.000000 0.000000 -0.000001 0.000000 1.000000 0.000000 0.000001 0.000000 1.000000 3701.dat
1 1 0.000390 -119.999600 -109.999000 1.000000 0.000000 -0.000001 0.000000 1.000000 0.000000 0.000001 0.000000 1.000000 3710.dat
0 STEP
1 1 0.000440 -133.999200 -87.799310 -0.000001 -0.000001 -0.999999 0.999997 -0.000001 -0.000001 -0.000001 -0.999999 0.000001 32140.dat
0 STEP
1 0 -39.999520 -133.999600 -77.799260 0.000000 0.000000 0.999999 0.000000 1.000000 0.000000 -0.999999 0.000000 0.000000 2780.dat
1 0 -19.999570 -133.999600 -77.799300 0.000000 0.000000 0.999999 0.000000 1.000000 0.000000 -0.999999 0.000000 0.000000 2780.dat
1 15 -159.999200 -133.999800 -67.799120 0.000001 0.000001 -0.999999 -1.000000 0.000001 -0.000001 0.000001 0.999999 0.000001 64871.dat
0 STEP
1 0 -299.999100 -134.000000 -57.798960 0.000000 0.000000 -1.000001 0.000000 1.000000 0.000000 1.000001 0.000000 0.000000 2780.dat
1 0 -239.999100 -133.999900 -77.799030 0.000000 0.000000 -1.000000 0.000000 1.000000 0.000000 1.000000 0.000000 0.000000 2780.dat
1 4 -299.998900 -134.000000 -47.799000 0.000000 0.000000 -1.000000 0.000000 -1.000000 0.000000 -1.000000 0.000000 0.000000 32034.dat
1 4 -239.999300 -133.999900 -87.799210 0.000000 0.000000 -1.000000 0.000000 -1.000000 0.000000 -1.000000 0.000000 0.000000 32034.dat
0 STEP
0 STEP
