0 FILE 电三轮.io
0 Untitled Model
0 Name:  电三轮
0 Author:  
0 CustomBrick
0 NumOfBricks:  123
1 1 117.999900 -64.000020 -75.000110 0.000000 0.000000 1.000000 0.000000 1.000000 0.000000 -1.000000 0.000000 0.000000 3701.dat
1 1 137.999900 -64.000020 -75.000110 0.000000 0.000000 1.000000 0.000000 1.000000 0.000000 -1.000000 0.000000 0.000000 3701.dat
1 1 128.000000 -40.000020 -75.000060 0.000000 0.000000 1.000000 0.000000 1.000000 0.000000 -1.000000 0.000000 0.000000 32001.dat
0 STEP
1 1 48.000000 -64.000020 -25.000000 1.000000 0.000000 0.000000 0.000000 1.000000 0.000000 0.000000 0.000000 1.000000 3703.dat
1 1 47.999970 -64.000020 -125.000100 1.000000 0.000000 0.000000 0.000000 1.000000 0.000000 0.000000 0.000000 1.000000 3703.dat
0 STEP
1 1 87.999940 -40.000020 -75.000060 0.000000 0.000000 1.000000 0.000000 1.000000 0.000000 -1.000000 0.000000 0.000000 32001.dat
0 STEP
1 1 97.999910 -64.000020 -75.000110 0.000000 0.000000 1.000000 0.000000 1.000000 0.000000 -1.000000 0.000000 0.000000 3701.dat
1 1 77.999910 -64.000020 -75.000110 0.000000 0.000000 1.000000 0.000000 1.000000 0.000000 -1.000000 0.000000 0.000000 3701.dat
0 STEP
1 0 115.999900 -54.000020 -75.000110 -1.000000 0.000000 0.000000 0.000000 1.000000 0.000000 0.000000 0.000000 -1.000000 3706.dat
1 19 157.269900 -54.000020 -75.000110 0.000000 0.000000 1.000000 -1.000000 0.000000 0.000000 0.000000 -1.000000 0.000000 32269.dat
1 14 171.469900 -54.000020 -75.000180 0.000000 0.000000 1.000000 0.000000 1.000000 0.000000 -1.000000 0.000000 0.000000 32123a.dat
0 STEP
1 1 118.000000 -87.999980 -75.000180 0.000000 0.000000 1.000000 0.000000 1.000000 0.000000 -1.000004 0.000000 0.000000 3894.dat
0 STEP
1 16 128.000200 -239.940400 -4.997700 0.000000 0.000000 1.000000 1.000000 0.000000 0.000000 0.000000 1.000000 0.000000 submodel group 9 copy copy copy
1 1 97.999970 -78.000000 -95.000190 1.000000 0.000000 0.000000 0.000000 1.000000 0.000000 0.000000 0.000000 1.000005 6558.dat
1 1 98.000080 -77.999980 -55.000180 1.000000 0.000000 0.000000 0.000000 1.000000 0.000000 0.000000 0.000000 1.000004 6558.dat
0 STEP
1 1 78.000030 -87.999980 -75.000180 0.000000 0.000000 1.000000 0.000000 1.000000 0.000000 -1.000004 0.000000 0.000000 3894.dat
0 STEP
1 0 67.999910 -54.000020 -95.000110 -1.000000 0.000000 0.000000 0.000000 1.000000 0.000000 0.000000 0.000000 -1.000000 2780.dat
1 0 67.999910 -54.000020 -55.000120 -1.000000 0.000000 0.000000 0.000000 1.000000 0.000000 0.000000 0.000000 -1.000000 2780.dat
0 STEP
1 71 8.000000 -54.000020 -185.000100 0.000000 0.000000 1.000000 0.000000 1.000000 0.000000 -1.000000 0.000000 0.000000 64179.dat
0 STEP
1 15 8.000000 -54.000040 -165.000100 0.000001 0.000001 -1.000000 -1.000000 0.000001 -0.000001 0.000001 1.000000 0.000001 32316.dat
1 1 -12.000210 -54.000080 -185.000400 0.000000 0.000000 1.000000 0.000000 1.000000 0.000000 -1.000000 0.000000 0.000000 6558.dat
1 1 27.999790 -54.000060 -185.000400 0.000000 0.000000 1.000000 0.000000 1.000000 0.000000 -1.000000 0.000000 0.000000 6558.dat
1 15 7.999850 -54.000040 -185.000300 0.000001 0.000001 -1.000001 -1.000000 0.000001 -0.000001 0.000001 1.000001 0.000001 32316.dat
1 15 7.999790 -54.000060 -205.000400 0.000001 0.000001 -1.000000 -1.000000 0.000001 -0.000001 0.000001 1.000000 0.000001 32316.dat
0 STEP
1 1 47.999970 -54.000020 -145.000100 0.000001 0.000000 1.000000 0.000000 1.000000 0.000000 -1.000000 0.000000 0.000001 6558.dat
0 STEP
1 14 -32.000000 -54.000160 -110.200000 0.000000 1.000000 0.000000 1.000000 0.000000 0.000000 0.000000 0.000000 -1.000000 32123a.dat
1 71 -32.000060 -54.000160 -176.020000 0.000000 0.000000 1.000000 0.000000 1.000000 0.000000 -1.000000 0.000000 0.000000 44294.dat
0 STEP
1 71 8.000030 -54.000020 34.999940 0.000000 0.000000 1.000000 0.000000 1.000000 0.000000 -1.000000 0.000000 0.000000 64179.dat
0 STEP
1 15 7.999970 -54.000060 14.999880 0.000001 0.000001 -1.000001 -1.000000 0.000001 -0.000001 0.000001 1.000001 0.000001 32316.dat
1 15 8.000030 -54.000040 35.000000 0.000001 0.000001 -1.000001 -1.000000 0.000001 -0.000001 0.000001 1.000001 0.000001 32316.dat
1 1 -11.999970 -54.000100 34.999820 0.000000 0.000000 1.000001 0.000000 1.000000 0.000000 -1.000001 0.000000 0.000000 6558.dat
1 1 28.000030 -54.000060 34.999940 0.000000 0.000000 1.000001 0.000000 1.000000 0.000000 -1.000001 0.000000 0.000000 6558.dat
1 15 8.000150 -54.000070 54.999940 0.000001 0.000001 -1.000000 -1.000000 0.000001 -0.000001 0.000001 1.000000 0.000001 32316.dat
0 STEP
1 1 48.000000 -54.000020 -5.000060 0.000000 0.000000 -1.000000 0.000000 1.000000 0.000000 1.000000 0.000000 0.000000 6558.dat
0 STEP
1 14 -31.999940 -54.000020 -39.010070 0.000000 1.000000 0.000000 1.000000 0.000000 0.000000 0.000000 0.000000 -1.000000 32123a.dat
1 71 -31.999970 -54.000020 25.989930 0.000000 0.000000 1.000000 0.000000 1.000000 0.000000 -1.000000 0.000000 0.000000 44294.dat
0 STEP
1 71 67.999880 -54.000020 -75.000180 0.000000 0.000000 -1.000000 0.000000 1.000000 0.000000 1.000000 0.000000 0.000000 58120.dat
0 STEP
1 0 -72.000060 -54.000020 -135.000100 0.000000 0.000000 -1.000000 0.000000 1.000000 0.000000 1.000000 0.000000 0.000000 2780.dat
1 0 -92.000000 -54.000040 -15.000000 0.000000 0.000000 -1.000000 0.000000 1.000000 0.000000 1.000000 0.000000 0.000000 2780.dat
1 0 -72.000000 -54.000020 -15.000000 0.000000 0.000000 -1.000000 0.000000 1.000000 0.000000 1.000000 0.000000 0.000000 2780.dat
1 0 -92.000060 -54.000020 -135.000100 0.000000 0.000000 -1.000000 0.000000 1.000000 0.000000 1.000000 0.000000 0.000000 2780.dat
0 STEP
1 1 -12.000030 -88.000030 -125.000100 1.000000 0.000000 0.000000 0.000000 1.000000 0.000000 0.000000 0.000000 1.000000 3702.dat
1 1 -12.000000 -88.000030 -25.000000 1.000000 0.000000 0.000000 0.000000 1.000000 0.000000 0.000000 0.000000 1.000000 3702.dat
1 1 -12.000030 -112.000000 -125.000100 1.000000 0.000000 0.000000 0.000000 1.000000 0.000000 0.000000 0.000000 1.000000 3702.dat
1 1 -12.000000 -112.000000 -25.000000 1.000000 0.000000 0.000000 0.000000 1.000000 0.000000 0.000000 0.000000 1.000000 3702.dat
0 STEP
1 0 -12.000030 -102.000000 -135.000100 0.000000 0.000000 -1.000000 0.000000 1.000000 0.000000 1.000000 0.000000 0.000000 2780.dat
1 0 -12.000000 -102.000000 -15.000000 0.000000 0.000000 -1.000000 0.000000 1.000000 0.000000 1.000000 0.000000 0.000000 2780.dat
0 STEP
1 1 47.999940 -120.000000 -75.000110 0.000000 0.000000 1.000000 0.000000 1.000000 0.000000 -1.000000 0.000000 0.000000 32001.dat
1 1 -32.000060 -120.000000 -75.000060 0.000000 0.000000 1.000000 0.000000 1.000000 0.000000 -1.000000 0.000000 0.000000 32001.dat
1 1 -72.000060 -120.000000 -75.000110 0.000000 0.000000 1.000000 0.000000 1.000000 0.000000 -1.000000 0.000000 0.000000 32001.dat
1 1 7.999940 -120.000000 -75.000110 0.000000 0.000000 1.000000 0.000000 1.000000 0.000000 -1.000000 0.000000 0.000000 32001.dat
0 STEP
1 1 -32.000060 -128.000000 -75.000060 1.000000 0.000000 0.000000 0.000000 1.000000 0.000000 0.000000 0.000000 1.000000 32001.dat
0 STEP
1 0 -132.000000 -54.000100 -14.999940 0.000000 0.000000 -1.000000 0.000000 1.000000 0.000000 1.000000 0.000000 0.000000 2780.dat
1 0 -192.000000 -54.000100 -14.999940 0.000000 0.000000 -1.000000 0.000000 1.000000 0.000000 1.000000 0.000000 0.000000 2780.dat
1 15 -132.000000 -54.000080 -4.999940 0.000001 0.000001 -1.000000 -1.000000 0.000001 -0.000001 0.000001 1.000000 0.000001 32524.dat
1 0 -192.000100 -54.000140 -135.000100 0.000000 0.000000 -1.000000 0.000000 1.000000 0.000000 1.000000 0.000000 0.000000 2780.dat
1 0 -132.000100 -54.000080 -135.000100 0.000000 0.000000 -1.000000 0.000000 1.000000 0.000000 1.000000 0.000000 0.000000 2780.dat
1 15 -132.000000 -54.000070 -145.000100 0.000001 0.000001 -1.000000 -1.000000 0.000001 -0.000001 0.000001 1.000000 0.000001 32524.dat
0 STEP
1 1 -232.000000 -64.000100 -24.999880 1.000000 0.000000 0.000000 0.000000 1.000000 0.000000 0.000000 0.000000 1.000000 3895.dat
1 1 -232.000100 -64.000080 -125.000100 1.000000 0.000000 0.000000 0.000000 1.000000 0.000000 0.000000 0.000000 1.000000 3895.dat
0 STEP
1 0 -212.000000 -54.000100 -34.999940 0.000000 0.000000 -1.000000 0.000000 1.000000 0.000000 1.000000 0.000000 0.000000 2780.dat
1 0 -231.999900 -54.000160 -34.999880 0.000000 -0.258820 -0.965926 0.000000 0.965926 -0.258820 1.000000 0.000000 0.000000 2780.dat
1 0 -212.000200 -54.000080 -115.000200 0.000000 0.000000 -1.000000 0.000000 1.000000 0.000000 1.000000 0.000000 0.000000 2780.dat
1 0 -232.000100 -54.000080 -115.000200 0.000000 0.000000 -1.000000 0.000000 1.000000 0.000000 1.000000 0.000000 0.000000 2780.dat
0 STEP
1 1 -134.895200 -144.833300 -44.999820 -0.766044 0.000001 -0.642789 -0.642788 0.000001 0.766044 0.000001 1.000000 0.000000 32271.dat
1 1 -134.895300 -144.833300 -105.000100 -0.766044 0.000001 -0.642789 -0.642788 0.000001 0.766044 0.000001 1.000000 0.000000 32271.dat
0 STEP
1 19 48.000000 -54.000000 84.999940 -0.000001 1.000000 -0.000001 0.000001 0.000001 1.000000 1.000000 0.000001 -0.000001 3749.dat
1 14 47.999970 -54.000000 101.239900 0.000000 1.000000 0.000000 -1.000000 0.000000 0.000000 0.000000 0.000000 1.000000 32123a.dat
1 72 48.000030 -54.000000 90.000000 0.000001 0.000001 -1.000000 -1.000000 0.000001 -0.000001 0.000001 1.000000 0.000001 32250.dat
0 STEP
1 19 48.000030 -54.000000 -235.000100 0.000001 -1.000000 0.000001 0.000001 0.000001 1.000000 -1.000000 -0.000001 0.000001 3749.dat
1 14 48.000060 -53.999980 -250.000100 0.000000 1.000000 0.000000 -1.000000 0.000000 0.000000 0.000000 0.000000 1.000000 32123a.dat
1 72 48.000100 -53.999980 -240.000100 0.000001 0.000001 -1.000000 -1.000000 0.000001 -0.000001 0.000001 1.000000 0.000001 32250.dat
0 STEP
1 14 188.000000 -54.000020 -39.080030 -0.670433 0.741971 0.000000 -0.741971 -0.670433 0.000000 0.000000 0.000000 1.000000 32123a.dat
1 0 188.000000 -54.000020 -77.350040 0.000000 -0.741970 0.670432 0.000000 0.670432 0.741970 -1.000000 0.000000 0.000000 3737.dat
1 71 188.000000 -54.000000 -52.030020 -0.670432 -0.741970 -0.000001 -0.741970 0.670432 -0.000001 0.000001 0.000000 -1.000000 3650c.dat
0 STEP
1 71 188.000000 -54.000020 -5.830010 0.670432 -0.741970 0.000001 0.741970 0.670432 0.000001 -0.000001 0.000000 1.000000 3713.dat
1 0 188.000000 -54.000020 27.339970 0.741970 0.670432 0.000000 -0.670432 0.741970 0.000000 0.000000 0.000000 1.000000 44309.dat
1 71 188.000000 -54.000020 27.339970 0.670432 -0.741970 0.000000 0.741970 0.670432 0.000000 0.000000 0.000000 1.000000 56145.dat
0 STEP
1 71 188.000000 -54.000020 -144.910100 0.670432 -0.741970 0.000001 0.741970 0.670432 0.000001 -0.000001 0.000000 1.000000 3713.dat
1 0 188.000000 -54.000020 -174.930100 0.741970 -0.670432 0.000000 -0.670432 -0.741970 0.000000 0.000000 0.000000 -1.000000 44309.dat
1 71 188.000000 -54.000020 -174.930100 -0.670432 -0.741970 0.000000 -0.741970 0.670432 0.000000 0.000000 0.000000 -1.000000 56145.dat
0 STEP
1 0 -332.000000 -54.000100 -86.999880 -0.000001 -1.000000 0.000000 -1.000000 0.000000 0.000000 0.000000 0.000000 -1.000000 44309.dat
1 71 -332.000000 -54.000100 -86.999880 -1.000000 0.000000 0.000000 0.000000 1.000000 0.000000 0.000000 0.000000 -1.000000 56145.dat
1 71 -332.000000 -54.000100 -45.119880 1.000000 0.000000 0.000001 0.000000 1.000000 0.000000 -0.000001 0.000000 1.000000 3713.dat
1 71 -332.000000 -54.000100 -105.869900 1.000000 0.000000 0.000001 0.000000 1.000000 0.000000 -0.000001 0.000000 1.000000 3713.dat
1 71 -332.000000 -54.000100 -57.969910 1.000000 0.000000 0.000001 0.000000 1.000000 0.000000 -0.000001 0.000000 1.000000 3713.dat
1 0 -332.000200 -54.000100 -74.180060 0.000000 0.000000 1.000000 0.000000 1.000000 0.000000 -1.000000 0.000000 0.000000 3707.dat
0 STEP
1 14 -332.000200 -54.000100 -10.469970 0.000000 1.000000 0.000000 -1.000000 0.000000 0.000000 0.000000 0.000000 1.000000 32123a.dat
1 14 -332.000000 -54.000100 -140.379900 1.000000 0.000000 0.000000 0.000000 -1.000000 0.000000 0.000000 0.000000 -1.000000 32123a.dat
0 STEP
1 1 -252.000100 -72.000080 -75.000110 0.000000 0.000000 1.000000 0.000000 1.000000 0.000000 -1.000000 0.000000 0.000000 3738.dat
1 1 -262.000200 -96.000080 -75.000180 0.000000 0.000000 1.000000 0.000000 1.000000 0.000000 -1.000000 0.000000 0.000000 3701.dat
1 1 -242.000100 -96.000080 -75.000180 0.000000 0.000000 1.000000 0.000000 1.000000 0.000000 -1.000000 0.000000 0.000000 3701.dat
0 STEP
1 0 -160.606800 -114.191600 -74.999820 0.000000 0.000000 1.000000 0.000000 1.000000 0.000000 -1.000000 0.000000 0.000000 3705.dat
1 0 -160.606800 -114.191600 -75.169800 0.000001 -0.766046 -0.642786 0.000000 -0.642786 0.766046 -1.000000 -0.000001 -0.000001 32013.dat
1 14 -160.606800 -114.191600 -60.049740 0.000000 1.000000 0.000000 1.000000 0.000000 0.000000 0.000000 0.000000 -1.000000 32123a.dat
1 14 -160.606800 -114.191600 -89.999770 0.000000 1.000000 0.000000 1.000000 0.000000 0.000000 0.000000 0.000000 -1.000000 32123a.dat
0 STEP
1 14 -126.609800 -154.707700 -75.169740 0.766046 0.000000 0.642786 0.642786 0.000001 -0.766046 0.000000 1.000000 0.000001 32123a.dat
1 15 -143.307800 -150.365100 -75.169860 0.000000 0.766046 0.642786 -0.000001 0.642786 -0.766046 -1.000000 -0.000001 0.000001 32064a.dat
1 0 -114.711800 -168.887300 -75.169800 0.642786 -0.000001 -0.766046 -0.766046 0.000001 -0.642786 0.000001 1.000000 0.000000 3706.dat
0 STEP
1 1 -155.864000 -147.846900 -75.169860 -0.000001 0.766046 0.642786 0.000000 0.642786 -0.766046 -1.000000 -0.000001 0.000000 3709b.dat
1 1 -131.350600 -127.277700 -75.169860 0.000000 0.766046 0.642786 0.000000 0.642786 -0.766046 -1.000000 0.000000 0.000000 3709b.dat
0 STEP
1 71 -82.572480 -207.189600 -75.169680 0.766046 0.000000 -0.642786 0.642786 -0.000001 0.766046 0.000000 -1.000000 -0.000001 3649.dat
0 STEP
1 19 -99.126010 -234.133600 -65.169680 0.642786 -0.766046 0.000002 -0.766046 -0.642786 0.000000 0.000001 -0.000001 -1.000000 3749.dat
1 15 -100.358600 -248.222000 -65.169620 0.000000 0.766046 0.642786 -0.000001 0.642786 -0.766046 -1.000000 -0.000001 0.000001 32064a.dat
0 STEP
1 15 57.999910 -144.000000 -85.000190 0.000000 0.000000 1.000000 0.000000 1.000000 0.000000 -1.000000 0.000000 0.000000 3040b.dat
1 15 57.999940 -144.000000 -105.000200 0.000000 0.000000 1.000000 0.000000 1.000000 0.000000 -1.000000 0.000000 0.000000 3040b.dat
1 15 57.999910 -144.000000 -65.000180 0.000000 0.000000 1.000000 0.000000 1.000000 0.000000 -1.000000 0.000000 0.000000 3040b.dat
1 15 57.999910 -144.000000 -45.000120 0.000000 0.000000 1.000000 0.000000 1.000000 0.000000 -1.000000 0.000000 0.000000 3040b.dat
1 1 57.999880 -168.000000 -75.000240 0.000000 0.000000 1.000000 0.000000 1.000000 0.000000 -1.000000 0.000000 0.000000 3701.dat
0 STEP
1 15 7.999880 -152.000000 -75.000110 0.000000 0.000000 1.000000 0.000000 1.000000 0.000000 -1.000000 0.000000 0.000000 3001.dat
1 15 7.999880 -176.000000 -75.000110 1.000000 0.000000 0.000000 0.000000 1.000000 0.000000 0.000000 0.000000 1.000000 3941.dat
0 STEP
1 15 57.999820 -216.000000 -75.000370 0.000000 0.000000 1.000000 0.000000 1.000000 0.000000 -1.000000 0.000000 0.000000 32064a.dat
1 15 57.999860 -192.000000 -75.000300 0.000000 0.000000 1.000000 0.000000 1.000000 0.000000 -1.000000 0.000000 0.000000 32064a.dat
1 19 47.999820 -206.000000 -75.000430 1.000000 0.000001 -0.000001 0.000001 0.000001 1.000000 0.000001 -1.000000 0.000001 3749.dat
1 19 47.999850 -182.000000 -75.000300 1.000000 0.000000 0.000000 0.000000 1.000000 -0.000001 0.000000 0.000001 1.000000 3749.dat
1 4 37.999820 -206.000000 -75.000430 -1.000000 0.000000 0.000000 0.000000 -1.000000 0.000000 0.000000 0.000000 1.000000 32034.dat
1 4 37.999850 -182.000000 -75.000300 -1.000000 0.000000 0.000000 0.000000 -1.000000 0.000000 0.000000 0.000000 1.000000 32034.dat
0 STEP
1 0 138.000300 -288.000200 -34.997680 0.000000 0.000000 -1.000000 1.000000 0.000000 0.000000 0.000000 -1.000000 0.000000 2780.dat
1 0 98.000240 -288.000100 -114.997700 0.000000 0.000000 -1.000000 1.000000 0.000000 0.000000 0.000000 -1.000000 0.000000 2780.dat
1 4 98.000240 -298.000100 -114.997700 0.000000 0.000000 -1.000000 -1.000000 0.000000 0.000000 0.000000 1.000000 0.000000 32034.dat
1 4 138.000300 -298.000200 -34.997680 0.000000 0.000000 -1.000000 -1.000000 0.000000 0.000000 0.000000 1.000000 0.000000 32034.dat
0 STEP
0 STEP
0 NOFILE
0 FILE SubModel Group 9 Copy Copy Copy
0 SubModel Group 9 Copy Copy Copy
0 Name:  SubModel Group 9 Copy Copy Copy
0 Author:  
0 CustomBrick
0 NumOfBricks:  3
1 72 10.000000 -1.128810 -10.000000 1.000000 0.000000 0.000000 0.000000 0.000000 -1.000000 0.000000 1.000000 0.000000 dch003.dat
1 71 -27.466620 -79.717990 29.427020 1.000000 0.000000 0.000000 0.000000 0.000000 -1.000000 0.000000 1.000000 0.000000 dch004.dat
1 25 7.837010 13.484720 -9.965000 1.000000 0.000000 0.000000 0.000000 0.000000 -1.000000 0.000000 1.000000 0.000000 dch005.dat
0 NOFILE
