0 FILE 机械手.io
0 Untitled Model
0 Name:  机械手
0 Author:  
0 CustomBrick
0 NumOfBricks:  77
1 16 55.013400 -89.482020 228.960600 -1.000000 0.000000 0.000000 0.000000 0.000000 1.000000 0.000000 1.000000 0.000000 submodel group 9 copy copy copy
1 1 -108.999900 -60.000220 158.996800 0.000000 0.000000 1.000000 1.000007 0.000000 0.000000 0.000000 1.000007 0.000000 6558.dat
1 1 90.999910 -60.000220 158.996900 0.000000 0.000000 1.000000 1.000007 0.000000 0.000000 0.000000 1.000007 0.000000 6558.dat
0 STEP
1 1 111.000800 -30.000020 148.996100 1.000003 0.000000 0.000000 0.000000 0.000000 -1.000003 0.000000 1.000003 0.000000 3703.dat
1 1 -8.999909 -50.000020 148.996800 1.000000 0.000000 0.000000 0.000000 0.000000 -1.000001 0.000000 1.000001 0.000000 3895.dat
0 STEP
1 4 -28.999880 -30.000040 158.996800 -0.000001 1.000000 -0.000001 -1.000001 -0.000001 0.000001 0.000001 0.000001 1.000001 32054.dat
1 4 71.000840 -30.000020 158.996100 -0.000001 1.000003 -0.000001 -1.000003 -0.000001 0.000001 0.000001 0.000001 1.000003 32054.dat
1 1 11.000090 -40.000040 140.996800 1.000000 0.000000 0.000000 0.000000 0.000000 -0.999999 0.000000 0.999999 0.000000 32001.dat
0 STEP
1 1 -109.000100 -140.000800 158.997700 0.000000 0.000000 -1.000000 -1.000005 0.000000 0.000000 0.000000 1.000005 0.000000 6558.dat
1 1 90.999910 -140.000800 158.997700 0.000000 0.000000 -1.000000 -1.000005 0.000000 0.000000 0.000000 1.000005 0.000000 6558.dat
0 STEP
1 1 -9.000030 -150.000900 148.997700 1.000000 0.000000 0.000000 0.000000 0.000000 -1.000001 0.000000 1.000001 0.000000 3895.dat
1 1 111.000000 -170.000900 149.000000 1.000000 0.000000 0.000000 0.000000 0.000000 -1.000001 0.000000 1.000001 0.000000 3703.dat
0 STEP
1 1 11.000060 -160.000900 140.999900 1.000000 0.000000 0.000000 0.000000 0.000000 -0.999999 0.000000 0.999999 0.000000 32001.dat
0 STEP
1 4 -29.000030 -170.000900 158.997700 -0.000001 1.000000 -0.000001 1.000003 0.000001 -0.000001 -0.000001 -0.000001 -1.000007 32054.dat
1 4 71.000020 -170.000900 158.997700 -0.000001 1.000000 -0.000001 1.000003 0.000001 -0.000001 -0.000001 -0.000001 -1.000007 32054.dat
0 STEP
1 15 90.999910 -160.000900 124.997600 1.000000 0.000000 0.000000 0.000000 0.000000 -0.999999 0.000000 0.999999 0.000000 3941.dat
1 15 91.000030 -40.000040 124.996700 1.000000 0.000000 0.000000 0.000000 0.000000 -0.999999 0.000000 0.999999 0.000000 3941.dat
0 STEP
1 16 368.954600 -19.540850 153.322000 1.000000 0.000000 0.000000 0.000000 1.000000 0.000000 0.000000 0.000000 1.000000 submodel group 1
0 STEP
1 1 251.000000 -100.000900 141.000000 0.000000 0.000000 1.000000 1.000000 0.000000 0.000000 0.000000 1.000000 0.000000 3738.dat
0 STEP
1 15 241.000000 -50.000860 117.000000 0.000000 0.000000 -1.000000 -0.999999 0.000000 0.000000 0.000000 0.999999 0.000000 3040b.dat
1 15 241.000000 -150.000900 117.000000 0.000000 0.000000 -1.000000 -0.999999 0.000000 0.000000 0.000000 0.999999 0.000000 3040b.dat
1 15 241.000000 -110.000900 117.000000 0.000000 0.000000 -1.000000 -0.999999 0.000000 0.000000 0.000000 0.999999 0.000000 3040b.dat
1 15 241.000000 -90.000910 117.000000 0.000000 0.000000 -1.000000 -0.999999 0.000000 0.000000 0.000000 0.999999 0.000000 3040b.dat
0 STEP
0 STEP
0 NOFILE
0 FILE SubModel Group 9 Copy Copy Copy
0 SubModel Group 9 Copy Copy Copy
0 Name:  SubModel Group 9 Copy Copy Copy
0 Author:  
0 CustomBrick
0 NumOfBricks:  3
1 72 10.000000 -1.128810 -10.000000 1.000000 0.000000 0.000000 0.000000 0.000000 -1.000000 0.000000 1.000000 0.000000 dch003.dat
1 71 -27.466620 -79.717990 29.427020 1.000000 0.000000 0.000000 0.000000 0.000000 -1.000000 0.000000 1.000000 0.000000 dch004.dat
1 25 7.837010 13.484720 -9.965000 1.000000 0.000000 0.000000 0.000000 0.000000 -1.000000 0.000000 1.000000 0.000000 dch005.dat
0 NOFILE
0 FILE SubModel Group 1
0 SubModel Group 1
0 Name:  SubModel Group 1
0 Author:  
0 CustomBrick
0 NumOfBricks:  53
1 1 -127.954700 -80.460060 -4.322010 0.000000 0.000000 -1.000000 -1.000000 0.000000 0.000000 0.000000 1.000000 0.000000 3894.dat
1 1 -117.954700 -80.460060 19.677930 0.000000 0.000000 1.000000 1.000000 0.000000 0.000000 0.000000 1.000000 0.000000 3738.dat
0 STEP
1 0 -137.954700 -60.460080 5.677960 -1.000000 0.000000 0.000000 0.000000 1.000000 0.000000 0.000000 0.000000 -1.000000 2780.dat
1 0 -137.954700 -100.460100 5.677960 -1.000000 0.000000 0.000000 0.000000 1.000000 0.000000 0.000000 0.000000 -1.000000 2780.dat
0 STEP
1 0 -57.954590 -80.460060 5.677960 -1.000000 0.000000 0.000000 0.000000 1.000000 0.000000 0.000000 0.000000 -1.000000 3737.dat
1 4 -97.954620 -80.460060 5.677960 -1.000000 0.000000 0.000000 0.000000 1.000000 0.000000 0.000000 0.000000 -1.000000 62462.dat
1 15 -139.954600 -80.637180 5.677980 0.000000 0.000000 -1.000000 -1.000000 0.000000 0.000000 0.000000 1.000000 0.000000 dx0073.dat
0 STEP
1 71 -67.954590 -80.460060 5.677960 -0.000001 0.000000 1.000000 0.000000 1.000000 0.000000 -1.000000 0.000000 -0.000001 3713.dat
1 71 -37.954590 -80.460060 5.677960 0.000000 0.000000 1.000000 0.000000 1.000000 0.000000 -1.000000 0.000000 0.000000 4716.dat
0 STEP
1 4 2.045410 -80.460060 5.677960 -1.000000 0.000000 0.000000 0.000000 1.000000 0.000000 0.000000 0.000000 -1.000000 62462.dat
1 1 -37.954650 -50.460080 -4.322010 1.000000 0.000000 0.000000 0.000000 0.000000 -1.000000 0.000000 1.000000 0.000000 3702.dat
0 STEP
1 1 32.045350 -80.460060 -4.322010 0.000000 0.000000 1.000000 1.000000 0.000000 0.000000 0.000000 1.000000 0.000000 3700.dat
1 1 22.045350 -80.460060 19.677930 0.000000 0.000000 1.000000 1.000000 0.000000 0.000000 0.000000 1.000000 0.000000 3709b.dat
0 STEP
1 1 -37.954650 -110.460100 -4.322010 1.000000 0.000000 0.000000 0.000000 0.000000 -1.000000 0.000000 1.000000 0.000000 3702.dat
1 1 22.045350 -80.460060 -12.321990 0.000000 0.000000 1.000000 1.000000 0.000000 0.000000 0.000000 1.000000 0.000000 3709b.dat
0 STEP
1 16 -37.954650 -0.159930 -24.122410 1.000000 0.000000 0.000000 0.000000 1.000000 0.000000 0.000000 0.000000 1.000000 submodel group 3
0 STEP
1 16 -37.954650 -0.000060 23.877870 1.000000 0.000000 0.000000 0.000000 1.000000 0.000000 0.000000 0.000000 1.000000 submodel group 2
0 STEP
1 15 -37.954650 -30.159940 5.677230 1.000000 -0.000001 0.000001 -0.000001 -1.000000 -0.000001 0.000001 0.000001 -1.000000 32316.dat
1 15 -37.954590 -130.000100 5.677840 -1.000000 0.000001 -0.000001 -0.000001 -1.000000 -0.000001 -0.000001 -0.000001 1.000000 32316.dat
0 STEP
1 1 51.608700 -10.000030 158.719200 0.532433 0.000000 -0.846472 0.000000 -1.000000 0.000000 -0.846472 0.000000 -0.532434 6629.dat
1 0 17.749820 -20.000020 137.422000 0.000000 0.000000 -1.000000 1.000000 0.000000 0.000000 0.000000 -1.000000 0.000000 2780.dat
1 19 51.608700 -20.000010 158.719200 0.000000 0.846472 0.532434 1.000000 0.000000 -0.000001 -0.000001 0.532434 -0.846472 3749.dat
0 STEP
1 1 42.045350 -10.159980 -154.322600 0.600000 0.000000 -0.800000 0.000000 1.000000 0.000000 0.800000 0.000000 0.600000 6629.dat
1 19 42.045350 -20.159960 -154.322600 0.000000 0.600000 0.800000 1.000000 0.000000 0.000000 0.000000 0.800000 -0.600000 3749.dat
1 0 10.045350 -20.159960 -130.322600 0.000000 0.000000 -1.000000 1.000000 -0.000001 0.000000 -0.000001 -1.000000 0.000000 2780.dat
0 STEP
1 1 51.608640 -150.000100 158.719200 0.532434 0.000000 -0.846472 0.000000 -1.000000 0.000000 -0.846472 0.000000 -0.532434 6629.dat
1 19 51.608700 -140.000100 158.719400 0.000000 0.532434 0.846472 -1.000000 0.000000 0.000000 0.000000 -0.846472 0.532434 3749.dat
1 0 17.749760 -140.000100 137.422000 0.000000 0.000000 -1.000000 1.000000 0.000000 0.000000 0.000000 -1.000000 0.000000 2780.dat
0 STEP
1 1 42.045350 -150.160200 -154.322700 0.600000 0.000000 -0.800000 0.000000 1.000000 0.000000 0.800000 0.000000 0.600000 6629.dat
1 19 42.045350 -140.160200 -154.322700 0.000000 0.800000 0.600000 -1.000000 0.000000 0.000000 0.000000 -0.600000 0.800000 3749.dat
1 0 10.045350 -140.160200 -130.322800 0.000000 0.000000 -1.000000 1.000000 0.000000 0.000000 0.000000 -1.000000 0.000000 2780.dat
0 STEP
1 15 85.530820 -29.999950 179.915900 0.529913 0.000001 -0.848052 0.000000 -1.000000 -0.000001 -0.848053 0.000001 -0.529913 40490.dat
1 15 85.530750 -130.000100 179.916000 0.529913 0.000001 -0.848052 0.000000 -1.000000 -0.000001 -0.848053 0.000001 -0.529913 40490.dat
0 STEP
1 15 74.020080 -30.160040 -178.356300 0.600421 -0.000001 0.799684 -0.000001 -1.000000 -0.000001 0.799684 0.000000 -0.600421 40490.dat
1 15 74.032840 -130.160300 -178.339500 0.600421 -0.000001 0.799684 -0.000001 -1.000000 -0.000001 0.799684 0.000000 -0.600421 40490.dat
0 STEP
0 NOFILE
0 FILE SubModel Group 3
0 SubModel Group 3
0 Name:  SubModel Group 3
0 Author:  
0 CustomBrick
0 NumOfBricks:  10
1 1 0.000000 -50.300160 3.800190 1.000000 0.000000 0.000000 0.000000 0.000000 -1.000000 0.000000 1.000000 0.000000 3710.dat
1 1 0.000000 -50.300160 -20.199780 1.000000 0.000000 0.000000 0.000000 0.000000 -1.000000 0.000000 1.000000 0.000000 3701.dat
0 STEP
1 14 0.000000 -65.020180 -10.200410 1.000000 0.000000 0.000000 0.000000 0.000000 -1.000001 0.000000 1.000001 0.000000 32123a.dat
1 0 0.000000 -80.000170 -10.200410 0.000000 0.000000 1.000000 -1.000002 0.000000 0.000000 0.000000 -1.000002 0.000000 3707.dat
0 STEP
1 14 0.000000 -95.270240 -10.200530 1.000000 0.000000 0.000000 0.000000 0.000000 -1.000002 0.000000 1.000002 0.000000 32123a.dat
1 72 0.000000 -80.410190 -10.200410 1.000000 0.000000 0.000000 0.000000 0.000000 1.000002 0.000000 -1.000002 0.000000 3648b.dat
0 STEP
1 1 0.000000 -110.300200 3.800310 1.000000 0.000000 0.000000 0.000000 0.000000 -1.000000 0.000000 1.000000 0.000000 3710.dat
1 1 0.000000 -110.300200 -20.199670 1.000000 0.000000 0.000000 0.000000 0.000000 -1.000000 0.000000 1.000000 0.000000 3701.dat
0 STEP
1 1 0.000000 -110.300200 11.800420 1.000000 0.000000 0.000000 0.000000 0.000000 -1.000000 0.000000 1.000000 0.000000 3023.dat
1 1 0.000000 -50.300160 11.800290 1.000000 0.000000 0.000000 0.000000 0.000000 -1.000000 0.000000 1.000000 0.000000 3023.dat
0 STEP
0 NOFILE
0 FILE SubModel Group 2
0 SubModel Group 2
0 Name:  SubModel Group 2
0 Author:  
0 CustomBrick
0 NumOfBricks:  10
1 1 0.000000 -50.460020 11.800030 1.000000 0.000000 0.000000 0.000000 0.000000 -1.000000 0.000000 1.000000 0.000000 3701.dat
1 1 0.000000 -50.460020 3.800060 1.000000 0.000000 0.000000 0.000000 0.000000 -1.000000 0.000000 1.000000 0.000000 3710.dat
0 STEP
1 14 0.000000 -65.350010 21.800020 0.996637 0.081936 0.000000 0.000000 0.000000 -1.000000 -0.081936 0.996637 0.000000 32123a.dat
1 0 0.000000 -80.000000 21.799900 0.000000 -0.081936 0.996638 -1.000000 0.000000 0.000000 0.000000 -0.996638 -0.081936 3707.dat
0 STEP
1 14 0.000000 -95.510010 21.800020 0.996637 0.081936 0.000000 0.000000 0.000000 -1.000000 -0.081936 0.996637 0.000000 32123a.dat
1 72 0.000000 -80.829990 21.799900 0.996637 -0.081936 0.000000 0.000000 0.000000 1.000000 -0.081936 -0.996637 0.000000 3648b.dat
0 STEP
1 1 0.000000 -110.460000 11.799910 1.000000 0.000000 0.000000 0.000000 0.000000 -1.000000 0.000000 1.000000 0.000000 3701.dat
1 1 0.000000 -110.460000 3.800060 1.000000 0.000000 0.000000 0.000000 0.000000 -1.000000 0.000000 1.000000 0.000000 3710.dat
0 STEP
1 1 0.000000 -50.460020 -4.199940 1.000000 0.000000 0.000000 0.000000 0.000000 -1.000000 0.000000 1.000000 0.000000 3023.dat
1 1 0.000000 -110.460000 -4.199940 1.000000 0.000000 0.000000 0.000000 0.000000 -1.000000 0.000000 1.000000 0.000000 3023.dat
0 STEP
0 NOFILE
