0 FILE 挖掘机.io
0 Untitled Model
0 Name:  挖掘机
0 Author:  
0 CustomBrick
0 NumOfBricks:  113
1 1 -146.864900 -81.784190 -114.989900 0.992963 -0.118405 0.000000 0.118405 0.992966 0.000000 0.000000 0.000000 1.000000 3703.dat
1 0 -9.034060 -55.277800 -104.989900 0.000000 -0.118405 -0.992963 0.000000 0.992966 -0.118405 1.000000 0.000000 0.000000 2780.dat
1 0 -128.189700 -69.486480 -104.989900 0.000000 -0.992963 -0.118406 0.000000 -0.118406 0.992966 -1.000000 0.000000 0.000000 2780.dat
0 STEP
1 1 -26.762000 -75.519290 -114.989900 0.992963 -0.118405 0.000000 0.118405 0.992966 0.000000 0.000000 0.000000 1.000000 3710.dat
1 1 -25.814800 -83.463020 -114.989900 0.992963 -0.118405 0.000000 0.118405 0.992966 0.000000 0.000000 0.000000 1.000000 3710.dat
1 1 -126.058500 -87.359830 -114.989900 0.992963 -0.118405 0.000000 0.118405 0.992966 0.000000 0.000000 0.000000 1.000000 3023.dat
1 1 -125.111200 -95.303550 -114.989900 0.992963 -0.118405 0.000000 0.118405 0.992966 0.000000 0.000000 0.000000 1.000000 3023.dat
0 STEP
1 1 -59.849840 -135.861600 -114.989900 0.992963 -0.118405 0.000000 0.118405 0.992966 0.000000 0.000000 0.000000 1.000000 3701.dat
1 1 -62.691610 -112.030400 -114.989900 0.992963 -0.118405 0.000000 0.118405 0.992966 0.000000 0.000000 0.000000 1.000000 3702.dat
1 0 -4.297880 -94.996410 -104.989900 0.000000 -0.118405 -0.992963 0.000000 0.992966 -0.118405 1.000000 0.000000 0.000000 2780.dat
1 0 -123.453500 -109.205100 -104.989900 0.000000 -0.992963 -0.118406 0.000000 -0.118406 0.992966 -1.000000 0.000000 0.000000 2780.dat
0 STEP
1 15 -121.085400 -129.064400 -94.989990 0.992964 -0.000001 -0.118404 0.118404 -0.000001 0.992966 -0.000001 -1.000000 -0.000001 32524.dat
0 STEP
1 1 8.000020 -113.671700 -94.989930 -0.118406 -0.992963 0.000000 0.992965 -0.118406 0.000000 0.000000 0.000000 1.000000 3702.dat
1 0 5.175320 -174.433700 -104.990600 0.000000 -0.118405 -0.992965 0.000000 0.992964 -0.118406 1.000000 0.000000 0.000000 2780.dat
0 STEP
1 0 -267.204400 -86.063210 -104.989900 0.000000 -0.118405 -0.992963 0.000000 0.992966 -0.118405 1.000000 0.000000 0.000000 2780.dat
1 19 -207.626800 -78.958870 -104.990000 -0.000001 0.992963 -0.118407 0.000001 0.118406 0.992966 1.000000 0.000001 -0.000001 3749.dat
0 STEP
1 0 -187.767600 -76.590790 -124.990000 0.000000 -0.118405 -0.992963 0.000000 0.992966 -0.118405 1.000000 0.000000 0.000000 2780.dat
1 0 -148.048900 -71.854560 -124.989900 0.000000 -0.118405 -0.992963 0.000000 0.992966 -0.118405 1.000000 0.000000 0.000000 2780.dat
0 STEP
1 1 -268.861700 -72.161660 -114.989900 0.992973 -0.118405 0.000000 0.118406 0.992966 0.000000 0.000000 0.000000 1.000009 3701.dat
0 STEP
1 71 -48.753780 -60.014160 -135.437700 -0.992963 -0.118405 -0.000001 -0.118405 0.992966 0.000000 0.000001 0.000000 -1.000000 3713.dat
1 0 -48.753780 -60.014160 -125.437700 0.000000 -0.118405 0.992963 0.000000 0.992966 0.118405 -1.000000 0.000000 0.000000 3705.dat
0 STEP
1 4 -48.752500 -60.014020 -75.442160 -0.992974 0.118405 0.000000 -0.118407 -0.992966 0.000000 0.000000 0.000000 1.000011 32034.dat
0 STEP
1 71 -289.905100 -64.600130 -134.989700 0.992973 -0.118405 0.000001 0.118406 0.992966 0.000000 -0.000001 0.000000 1.000009 3713.dat
1 0 -289.904000 -64.599970 -71.885340 0.000000 -0.118405 -0.992963 0.000000 0.992966 -0.118405 1.000000 0.000000 0.000000 3737.dat
0 STEP
1 1 -207.626800 -78.958900 -94.989990 0.118405 0.000000 -0.992963 -0.992966 0.000000 -0.118405 0.000000 1.000000 0.000000 6629.dat
1 0 -316.944100 -108.107700 -104.990000 0.000000 -0.118405 -0.992963 0.000000 0.992966 -0.118406 1.000000 0.000000 0.000000 2780.dat
1 0 -326.964900 -125.416100 -104.990000 0.000000 -0.118405 -0.992963 0.000000 0.992966 -0.118405 1.000000 0.000000 0.000000 2780.dat
0 STEP
1 71 -289.905100 -64.600130 -94.890010 0.992973 -0.118405 0.000001 0.118406 0.992966 0.000000 -0.000001 0.000000 1.000009 3713.dat
1 19 -227.486000 -81.326980 -84.990020 -0.000001 0.984193 -0.177087 0.000001 0.177087 0.984195 1.000000 0.000001 -0.000001 3749.dat
1 0 -289.905100 -64.600120 -75.319960 -0.118406 -0.992973 0.000000 0.992966 -0.118407 0.000000 0.000000 0.000000 1.000009 32270.dat
0 STEP
1 71 -289.905100 -64.600120 -55.280060 0.992973 -0.118405 0.000001 0.118406 0.992966 0.000000 -0.000001 0.000000 1.000009 3713.dat
1 14 -289.905100 -64.600120 -40.770110 -0.118406 0.992973 0.000000 0.992966 0.118406 0.000000 0.000000 0.000000 -1.000010 32123a.dat
0 STEP
1 71 -232.015500 -112.623700 -64.990030 0.000000 0.118405 -0.992963 0.000000 -0.992966 -0.118405 -1.000000 0.000000 0.000000 3673.dat
1 71 -227.486100 -81.326960 -74.990020 0.177086 -0.984193 0.000000 -0.984196 -0.177086 0.000000 0.000000 0.000000 -1.000000 3649.dat
0 STEP
1 71 -167.908200 -74.222640 -94.900020 -0.992963 -0.118405 -0.000001 -0.118405 0.992966 0.000000 0.000001 0.000000 -1.000000 3713.dat
1 72 -167.908200 -74.222660 -74.900050 -0.992963 -0.118405 0.000000 -0.118405 0.992966 0.000000 0.000000 0.000000 -1.000000 3647.dat
1 0 -167.908200 -74.222650 -64.900050 0.000000 -0.118405 0.992963 0.000000 0.992966 0.118405 -1.000000 0.000000 0.000000 3707.dat
0 STEP
1 71 -167.908200 -74.222650 -54.900060 0.992963 -0.118405 0.000000 0.118405 0.992965 0.000000 0.000000 0.000000 1.000000 3713.dat
1 14 -167.908200 -74.222650 -39.900100 0.118405 -0.992964 0.000000 -0.992966 -0.118406 0.000000 0.000000 0.000000 -1.000000 32123a.dat
0 STEP
1 14 -48.752500 -60.014000 -40.440510 0.118405 0.992974 0.000000 -0.992966 0.118407 0.000000 0.000000 0.000000 1.000011 32123a.dat
1 71 -48.752560 -60.014000 -15.440160 0.000000 -0.118405 0.992974 0.000000 0.992966 0.118407 -1.000011 0.000000 0.000000 32073.dat
0 STEP
1 16 -90.000000 -36.000000 -30.000000 0.992965 -0.118406 0.000000 0.118406 0.992965 0.000000 0.000000 0.000000 1.000000 submodel group 2
0 STEP
1 71 -48.752560 -60.014000 -5.959990 0.992963 -0.118405 0.000001 0.118405 0.992966 0.000000 -0.000001 0.000000 1.000000 3713.dat
1 71 -167.908200 -74.222650 -5.940090 -0.992963 -0.118405 -0.000001 -0.118405 0.992966 0.000000 0.000001 0.000000 -1.000000 3713.dat
1 71 -289.905100 -64.600130 -6.240080 0.992973 -0.118405 0.000001 0.118406 0.992966 0.000000 -0.000001 0.000000 1.000009 3713.dat
0 STEP
1 0 -48.752500 -60.014020 23.840300 0.118406 0.992963 0.000000 -0.992966 0.118406 0.000000 0.000000 0.000000 1.000000 44309.dat
1 71 -48.752560 -60.014000 23.840300 0.992967 -0.118406 0.000000 0.118406 0.992969 0.000000 0.000000 0.000000 1.000000 56145.dat
1 0 -289.904000 -64.599970 23.644630 -0.118405 -0.992963 0.000000 0.992966 -0.118405 0.000000 0.000000 0.000000 1.000000 44309.dat
1 71 -289.904000 -64.599960 23.644630 -0.992963 0.118405 0.000000 -0.118405 -0.992966 0.000000 0.000000 0.000000 1.000000 56145.dat
0 STEP
1 0 -48.753840 -60.014180 -166.057900 0.118405 -0.992963 0.000000 -0.992966 -0.118405 0.000000 0.000000 0.000000 -1.000000 44309.dat
1 71 -48.753780 -60.014160 -166.057900 -0.992963 -0.118405 0.000000 -0.118405 0.992966 0.000000 0.000000 0.000000 -1.000000 56145.dat
1 0 -289.904000 -64.599970 -165.685300 -0.118405 0.992963 0.000000 0.992966 0.118405 0.000000 0.000000 0.000000 -1.000000 44309.dat
1 71 -289.904000 -64.599980 -165.685300 0.992963 0.118405 0.000000 0.118405 -0.992966 0.000000 0.000000 0.000000 -1.000000 56145.dat
0 STEP
1 0 -111.977600 -188.351800 -36.000080 0.000000 -0.118405 -0.992963 0.000000 0.992966 -0.118405 1.000000 0.000000 0.000000 2780.dat
1 19 -118.717300 -148.923700 -36.000080 -0.000002 0.997683 -0.068014 0.000001 0.068014 0.997685 1.000000 0.000001 -0.000001 3749.dat
1 1 -91.758330 -306.636100 -26.000150 0.985701 0.000000 0.168494 0.168494 0.000000 -0.985703 0.000000 1.000000 0.000000 32009.dat
0 STEP
1 15 -33.218200 -225.635900 -46.000050 -0.219859 0.000001 -0.975529 -0.975532 0.000001 0.219859 0.000001 1.000000 0.000001 40490.dat
1 0 -108.607700 -208.065800 -36.000140 0.000000 -0.118405 -0.992963 0.000000 0.992966 -0.118405 1.000000 0.000000 0.000000 2780.dat
0 STEP
1 15 5.593520 -214.431500 -26.000020 0.999943 -0.000001 -0.010473 0.010473 -0.000001 0.999945 -0.000001 -1.000000 -0.000001 32316.dat
1 0 5.174680 -174.433700 -36.000080 0.000000 -0.118405 -0.992963 0.000000 0.992966 -0.118405 1.000000 0.000000 0.000000 2780.dat
1 0 5.803080 -234.430300 -36.000020 0.000000 -0.118405 -0.992963 0.000000 0.992966 -0.118405 1.000000 0.000000 0.000000 2780.dat
0 STEP
1 1 6.221720 -234.430300 -5.999970 -0.999943 0.000001 -0.010467 0.010467 -0.000001 -0.999945 -0.000001 -1.000000 0.000001 32140.dat
1 0 6.012440 -254.429200 -15.999980 0.000000 -0.118405 -0.992963 0.000000 0.992966 -0.118405 1.000000 0.000000 0.000000 2780.dat
1 19 -12.902240 -293.156600 -16.000150 0.000001 -0.985701 -0.168494 0.000000 -0.168494 0.985703 -1.000000 -0.000001 0.000000 3749.dat
0 STEP
1 1 -111.977600 -188.351800 -114.990000 0.000000 -0.118405 0.992963 0.000000 0.992966 0.118405 -1.000000 0.000000 0.000000 6558.dat
1 19 -118.717400 -148.923700 -104.989900 0.000001 -0.985701 -0.168493 0.000001 -0.168493 0.985703 -1.000000 -0.000001 0.000001 3749.dat
0 STEP
1 1 -91.758330 -306.636100 -114.989900 0.985701 0.000000 0.168494 0.168494 0.000000 -0.985703 0.000000 1.000000 0.000000 32009.dat
1 1 -108.607700 -208.065800 -114.989900 0.000000 -0.118405 0.992963 0.000000 0.992966 0.118405 -1.000000 0.000000 0.000000 6558.dat
0 STEP
1 15 -30.565290 -225.654600 -94.989990 -0.219859 0.000001 -0.975530 -0.975532 0.000001 0.219859 0.000001 1.000000 0.000001 40490.dat
1 0 5.803170 -234.430300 -104.990000 0.000000 -0.118405 -0.992963 0.000000 0.992966 -0.118405 1.000000 0.000000 0.000000 2780.dat
0 STEP
1 15 5.593580 -214.431500 -114.990000 -0.999943 0.000001 -0.010475 -0.010475 -0.000001 0.999945 0.000001 1.000000 0.000001 32316.dat
0 STEP
1 0 6.012620 -254.429200 -124.990100 0.000000 -0.118405 -0.992963 0.000000 0.992966 -0.118405 1.000000 0.000000 0.000000 2780.dat
1 19 -12.902240 -293.156600 -124.989900 -0.000001 0.985701 -0.168494 0.000000 0.168494 0.985703 1.000000 0.000001 0.000000 3749.dat
0 STEP
1 1 7.515610 -233.297300 -134.989900 -0.999974 0.000001 -0.006971 0.006971 -0.000001 -0.999976 -0.000001 -1.000000 0.000001 32140.dat
0 STEP
1 1 -25.512050 -356.103800 -94.988590 -0.992963 0.000001 -0.118404 -0.118404 0.000001 0.992963 0.000001 0.999996 -0.000001 32140.dat
1 0 -32.616240 -296.526200 -104.989900 0.000000 -0.118405 -0.992965 0.000000 0.992966 -0.118406 1.000000 0.000000 0.000000 2780.dat
1 0 -52.475680 -298.894300 -104.990000 0.000000 -0.118405 -0.992965 0.000000 0.992966 -0.118406 1.000000 0.000000 0.000000 2780.dat
0 STEP
1 72 -23.142970 -375.962900 -110.430100 -0.992965 -0.118405 0.000000 -0.118406 0.992966 0.000000 0.000000 0.000000 -1.000002 6575.dat
1 4 -25.511990 -356.103800 -96.138490 0.000000 -0.118405 -0.992963 0.000000 0.992966 -0.118405 1.000000 0.000000 0.000000 32062.dat
0 STEP
1 16 -510.000000 -24.000000 -120.000000 0.854466 0.519508 0.000001 -0.519508 0.854466 0.000000 -0.000001 0.000000 1.000000 submodel group 1
0 STEP
1 15 -277.590800 -244.997400 -54.989830 0.945525 -0.000001 0.325540 -0.325541 -0.000001 0.945527 0.000000 -1.000000 -0.000001 64871.dat
1 71 -316.575600 -358.810100 -74.932580 0.992967 -0.118405 0.000001 0.118406 0.992966 0.000000 -0.000001 0.000000 1.000004 3713.dat
1 0 -316.574200 -358.810100 -75.471800 0.000000 -0.118405 0.992963 0.000000 0.992966 0.118405 -1.000000 0.000000 0.000000 3705.dat
0 STEP
1 14 -316.575600 -358.810100 -39.492560 0.118405 0.992967 0.000000 -0.992966 0.118406 0.000000 0.000000 0.000000 1.000004 32123a.dat
1 14 -316.574200 -358.810100 -110.471800 0.118405 0.992963 0.000000 -0.992966 0.118405 0.000000 0.000000 0.000000 1.000000 32123a.dat
0 STEP
1 15 -183.821100 -62.033320 -123.000000 -0.973579 -0.228345 0.000000 -0.228345 0.973579 0.000000 0.000000 0.000000 -1.000000 dx0066.dat.dat
1 16 -161.595600 -127.559900 -168.000000 -0.981629 -0.190798 0.000000 -0.190798 0.981629 0.000000 0.000000 0.000000 -1.000000 submodel group 9 copy copy copy
0 STEP
0 STEP
0 NOFILE
0 FILE SubModel Group 2
0 SubModel Group 2
0 Name:  SubModel Group 2
0 Author:  
0 CustomBrick
0 NumOfBricks:  14
1 1 -181.885300 -14.729020 4.000000 -1.000007 0.000000 0.000000 0.000000 1.000000 0.000000 0.000000 0.000000 -1.000009 3701.dat
1 1 -61.885940 -38.728990 3.999940 0.999998 0.000000 0.000000 0.000000 1.000000 0.000000 0.000000 0.000000 1.000000 3703.dat
0 STEP
1 1 58.113820 -54.729030 3.999890 0.999998 0.000000 0.000000 0.000000 1.000000 0.000000 0.000000 0.000000 1.000000 3710.dat
1 1 58.113900 -46.729040 3.999890 0.999998 0.000000 0.000000 0.000000 1.000000 0.000000 0.000000 0.000000 1.000000 3710.dat
1 1 -41.886100 -46.729000 3.999930 0.999998 0.000000 0.000000 0.000000 1.000000 0.000000 0.000000 0.000000 1.000000 3023.dat
1 1 -41.886080 -54.729020 3.999930 0.999998 0.000000 0.000000 0.000000 1.000000 0.000000 0.000000 0.000000 1.000000 3023.dat
0 STEP
1 1 18.113850 -78.729020 3.999900 0.999998 0.000000 0.000000 0.000000 1.000000 0.000000 0.000000 0.000000 1.000000 3702.dat
1 1 18.113880 -102.729000 3.999900 0.999998 0.000000 0.000000 0.000000 1.000000 0.000000 0.000000 0.000000 1.000000 3701.dat
0 STEP
1 0 78.113750 -68.729020 -6.000120 0.000000 0.000000 -0.999998 0.000000 1.000000 0.000000 1.000000 0.000000 0.000000 2780.dat
1 0 78.113800 -28.729010 -6.000120 0.000000 0.000000 -0.999998 0.000000 1.000000 0.000000 1.000000 0.000000 0.000000 2780.dat
1 0 -41.886030 -28.729000 -6.000060 0.000000 -0.999998 0.000000 0.000000 0.000000 1.000000 -1.000000 0.000000 0.000000 2780.dat
1 0 -41.886040 -68.729020 -6.000060 0.000000 -0.999998 0.000000 0.000000 0.000000 1.000000 -1.000000 0.000000 0.000000 2780.dat
0 STEP
1 1 88.113830 -88.729020 -16.000040 0.000000 -1.000000 0.000000 1.000000 0.000000 0.000000 0.000000 0.000000 1.000000 3702.dat
1 15 -41.886060 -88.729010 -16.000030 0.999998 -0.000001 0.000001 -0.000001 -0.000001 1.000000 -0.000001 -1.000000 -0.000001 32524.dat
0 STEP
0 NOFILE
0 FILE SubModel Group 1
0 SubModel Group 1
0 Name:  SubModel Group 1
0 Author:  
0 CustomBrick
0 NumOfBricks:  12
1 1 -29.137370 -151.642700 -14.990190 0.000001 0.617027 -0.786941 0.000000 -0.786943 -0.617026 -1.000000 0.000000 -0.000001 6558.dat
1 1 -10.673100 -159.328700 -14.990170 0.000001 0.617027 -0.786941 0.000000 -0.786943 -0.617025 -1.000000 0.000000 -0.000001 6558.dat
1 1 7.682960 -167.272200 5.009850 0.390740 0.000001 -0.920500 0.920499 0.000000 0.390742 0.000001 -1.000000 -0.000001 6629.dat
0 STEP
1 15 100.111800 -205.445200 -14.990070 -0.384303 0.000001 0.923206 -0.923205 0.000002 -0.384304 -0.000002 -1.000000 0.000000 64871.dat
1 71 210.895900 -251.561900 -4.989960 0.000001 0.617027 -0.786941 0.000000 -0.786942 -0.617026 -1.000000 0.000000 -0.000001 3673.dat
1 71 81.647820 -197.758900 -4.990210 0.000000 -0.597623 -0.801775 0.000001 -0.801774 0.597626 -1.000000 -0.000001 0.000000 3673.dat
0 STEP
1 1 7.737160 -167.143400 -34.990150 0.390740 0.000001 -0.920501 0.920499 0.000000 0.390742 0.000001 -1.000000 -0.000001 6629.dat
0 STEP
1 15 81.647990 -157.759100 5.009680 0.999997 0.000000 0.000000 -0.000003 -0.000001 0.999998 0.000000 -1.000000 -0.000001 40490.dat
1 15 209.919800 -111.565500 5.010200 -0.999974 0.000000 -0.006972 -0.006969 0.000000 0.999975 0.000000 1.000000 0.000000 64871.dat
1 71 81.647420 -77.759680 15.009710 -0.000001 -0.617027 -0.786941 0.000000 0.786943 -0.617026 1.000000 0.000000 -0.000001 3673.dat
1 71 210.059300 -131.565100 15.010130 0.000001 0.617023 -0.786943 0.000000 -0.786945 -0.617022 -1.000000 0.000000 -0.000001 3673.dat
0 STEP
1 15 210.058800 -131.565300 25.008540 0.385945 -0.000001 0.922523 0.922522 -0.000002 -0.385944 0.000002 1.000003 0.000000 64871.dat
0 STEP
0 NOFILE
0 FILE SubModel Group 9 Copy Copy Copy
0 SubModel Group 9 Copy Copy Copy
0 Name:  SubModel Group 9 Copy Copy Copy
0 Author:  
0 CustomBrick
0 NumOfBricks:  3
1 72 10.000000 -1.128810 -10.000000 1.000000 0.000000 0.000000 0.000000 0.000000 -1.000000 0.000000 1.000000 0.000000 dch003.dat
1 71 -27.466620 -79.717990 29.427020 1.000000 0.000000 0.000000 0.000000 0.000000 -1.000000 0.000000 1.000000 0.000000 dch004.dat
1 25 7.837010 13.484720 -9.965000 1.000000 0.000000 0.000000 0.000000 0.000000 -1.000000 0.000000 1.000000 0.000000 dch005.dat
0 NOFILE
