0 FILE 磨光机.io
0 Untitled Model
0 Name:  磨光机
0 Author:  
0 CustomBrick
0 NumOfBricks:  31
1 1 -4.000000 -30.540080 -21.000200 -1.000000 0.000000 0.000000 0.000000 0.000000 1.000006 0.000000 1.000006 0.000000 3703.dat
1 0 136.000000 -40.540170 -11.000150 0.000000 0.000000 -1.000000 1.000006 0.000000 0.000000 0.000000 -1.000006 0.000000 2780.dat
1 0 -44.000000 -40.540150 -11.000150 0.000000 0.000000 -1.000000 1.000006 0.000000 0.000000 0.000000 -1.000006 0.000000 2780.dat
1 1 -23.999980 -50.540200 -11.000210 0.000000 0.000000 1.000000 -1.000006 0.000000 0.000000 0.000000 -1.000006 0.000000 6558.dat
1 1 116.000000 -50.540200 -11.000210 0.000000 0.000000 1.000000 -1.000006 0.000000 0.000000 0.000000 -1.000006 0.000000 6558.dat
0 STEP
1 1 56.000000 -50.540210 -21.000260 1.000000 0.000000 0.000000 0.000000 0.000000 -1.000006 0.000000 1.000006 0.000000 3895.dat
1 0 -84.000000 -40.540150 -11.000090 0.000000 0.000000 -1.000000 1.000007 -0.000001 0.000000 -0.000001 -1.000007 0.000000 2780.dat
0 STEP
1 1 56.000000 -70.540060 -21.000000 1.000000 0.000000 0.000000 0.000000 0.000000 -1.000000 0.000000 1.000000 0.000000 3895.dat
0 STEP
1 1 -224.000000 -50.540200 -20.999890 1.000000 0.000000 0.000000 0.000000 0.000000 -1.000006 0.000000 1.000006 0.000000 3703.dat
1 0 -104.000000 -60.540320 -11.000150 0.000000 0.000000 -1.000000 1.000007 -0.000001 0.000000 0.000000 -1.000007 0.000000 2780.dat
1 1 -144.000000 -50.540220 -11.000150 0.000000 0.000000 1.000000 -1.000006 0.000000 0.000000 0.000000 -1.000006 0.000000 6558.dat
0 STEP
1 1 -224.000000 -70.540370 -21.000200 1.000000 0.000000 0.000000 0.000000 0.000000 -1.000007 0.000000 1.000007 0.000000 3703.dat
1 1 -264.000000 -70.540390 -11.000150 0.000000 0.000000 1.000000 -1.000006 0.000000 0.000000 0.000000 -1.000006 0.000000 6558.dat
1 0 -364.000200 -60.000320 -11.000150 0.000000 -0.118400 0.992966 -1.000007 0.000000 0.000000 0.000000 -0.992972 -0.118401 3705.dat
0 STEP
1 0 -352.886700 -20.000010 -2.254430 0.000000 -0.118401 -0.992966 1.000007 0.000000 0.000000 0.000000 -0.992972 0.118401 2780.dat
1 0 -372.745900 -20.000020 0.113560 0.000000 -0.118401 -0.992966 1.000007 0.000000 0.000000 0.000000 -0.992972 0.118401 2780.dat
1 72 -364.000200 -30.000080 -11.000210 0.992966 -0.118400 0.000000 0.000000 0.000000 1.000007 -0.118401 -0.992972 0.000000 3648b.dat
0 STEP
1 0 -355.254400 -20.000070 -22.114030 0.000000 -0.118401 -0.992966 1.000007 0.000000 0.000000 0.000000 -0.992972 0.118401 2780.dat
1 0 -375.113900 -20.000020 -19.745970 0.000000 -0.118401 -0.992966 1.000007 0.000000 0.000000 0.000000 -0.992972 0.118401 2780.dat
0 STEP
1 71 -284.000000 -51.290260 -11.000150 0.000000 0.000000 1.000000 -1.000006 0.000000 0.000000 0.000000 -1.000006 0.000000 32073.dat
1 71 -284.000000 -30.620130 -11.000150 1.000000 0.000000 0.000000 0.000000 0.000000 1.000006 0.000000 -1.000006 0.000000 3649.dat
0 STEP
1 71 -284.000000 -11.290020 -11.000210 1.000000 0.000000 0.000001 -0.000001 0.000000 1.000006 0.000000 -1.000006 0.000000 3713.dat
1 71 -364.000200 -9.999949 -11.000210 0.992966 -0.118400 0.000000 0.000000 0.000000 1.000006 -0.118401 -0.992972 0.000000 3649.dat
0 STEP
1 0 -124.000000 -80.540420 -11.000150 0.000000 0.000000 -1.000000 1.000006 0.000000 0.000000 0.000000 -1.000006 0.000000 2780.dat
1 0 -304.000000 -80.540390 -10.999840 0.000000 0.000000 -1.000000 1.000006 -0.000001 0.000000 -0.000001 -1.000006 0.000000 2780.dat
1 71 -364.000200 -92.000490 -11.000150 -0.992966 0.118400 -0.000001 -0.000001 0.000000 1.000007 0.118401 0.992972 0.000000 3650c.dat
1 0 -44.000000 -80.540400 -11.000210 0.000000 0.000000 -1.000000 1.000006 -0.000001 0.000000 -0.000001 -1.000006 0.000000 2780.dat
0 STEP
1 16 -155.000000 -255.406400 19.000000 0.000000 -1.000000 0.000000 1.000000 0.000000 0.000000 0.000000 0.000000 1.000000 submodel group 9 copy copy copy
0 STEP
1 15 -284.000000 -82.591140 -11.000000 1.000000 0.000000 0.000000 0.000000 0.000000 -1.000000 0.000000 1.000000 0.000000 dx0072.dat.dat
0 STEP
0 STEP
0 NOFILE
0 FILE SubModel Group 9 Copy Copy Copy
0 SubModel Group 9 Copy Copy Copy
0 Name:  SubModel Group 9 Copy Copy Copy
0 Author:  
0 CustomBrick
0 NumOfBricks:  3
1 72 10.000000 -1.128810 -10.000000 1.000000 0.000000 0.000000 0.000000 0.000000 -1.000000 0.000000 1.000000 0.000000 dch003.dat
1 71 -27.466620 -79.717990 29.427020 1.000000 0.000000 0.000000 0.000000 0.000000 -1.000000 0.000000 1.000000 0.000000 dch004.dat
1 25 7.837010 13.484720 -9.965000 1.000000 0.000000 0.000000 0.000000 0.000000 -1.000000 0.000000 1.000000 0.000000 dch005.dat
0 NOFILE
