0 Untitled Model
0 Name:  空中跳绳
0 Author:  
0 CustomBrick
0 NumOfBricks:  87
1 1 -60.000000 -24.000000 -30.000000 1.000000 0.000000 0.000000 0.000000 1.000000 0.000000 0.000000 0.000000 1.000000 3703.dat
1 1 -60.000000 -24.000000 -9.999940 1.000000 0.000000 0.000000 0.000000 1.000000 0.000000 0.000000 0.000000 1.000000 3895.dat
1 0 0.000000 -14.000000 -20.000000 0.000000 0.000000 -1.000000 0.000000 1.000000 0.000000 1.000000 0.000000 0.000000 2780.dat
1 0 -120.000000 -14.000000 -20.000000 0.000000 0.000000 -1.000000 0.000000 1.000000 0.000000 1.000000 0.000000 0.000000 2780.dat
0 STEP
1 1 -59.999880 -24.000000 70.000000 1.000000 0.000000 0.000000 0.000000 1.000000 0.000000 0.000000 0.000000 1.000000 3895.dat
1 1 -59.999880 -24.000000 90.000060 1.000000 0.000000 0.000000 0.000000 1.000000 0.000000 0.000000 0.000000 1.000000 3703.dat
1 0 40.000120 -14.000000 80.000000 0.000000 0.000000 -1.000000 0.000000 1.000000 0.000000 1.000000 0.000000 0.000000 2780.dat
1 0 -159.999900 -14.000000 80.000060 0.000000 0.000000 -1.000000 0.000000 1.000000 0.000000 1.000000 0.000000 0.000000 2780.dat
0 STEP
1 1 -170.000000 -48.000000 40.000060 0.000000 0.000000 1.000000 0.000000 1.000000 0.000000 -1.000000 0.000000 0.000000 3894.dat
1 0 -180.000000 -38.000000 0.000060 -1.000000 0.000000 0.000000 0.000000 1.000000 0.000000 0.000000 0.000000 -1.000000 2780.dat
1 0 -180.000000 -38.000000 80.000060 -1.000000 0.000000 0.000000 0.000000 1.000000 0.000000 0.000000 0.000000 -1.000000 2780.dat
1 1 -190.000000 -48.000000 40.000000 0.000000 0.000000 1.000000 0.000000 1.000000 0.000000 -1.000000 0.000000 0.000000 3894.dat
0 STEP
1 1 30.000120 -48.000000 39.999880 0.000000 0.000000 1.000000 0.000000 1.000000 0.000000 -1.000000 0.000000 0.000000 3894.dat
1 0 40.000120 -38.000000 -0.000060 -1.000000 0.000000 0.000000 0.000000 1.000000 0.000000 0.000000 0.000000 -1.000000 2780.dat
1 0 40.000120 -38.000000 79.999940 -1.000000 0.000000 0.000000 0.000000 1.000000 0.000000 0.000000 0.000000 -1.000000 2780.dat
1 1 50.000120 -48.000000 39.999940 0.000000 0.000000 1.000000 0.000000 1.000000 0.000000 -1.000000 0.000000 0.000000 3894.dat
0 STEP
1 1 -79.999880 -48.000000 90.000060 1.000000 0.000000 0.000000 0.000000 1.000000 0.000000 0.000000 0.000000 1.000000 3702.dat
0 STEP
1 1 -60.000000 -48.000000 -30.000000 1.000000 0.000000 0.000000 0.000000 1.000000 0.000000 0.000000 0.000000 1.000000 3702.dat
1 15 30.000060 -48.000000 -30.000000 0.000000 0.000000 -1.000000 0.000000 1.000000 0.000000 1.000000 0.000000 0.000000 3040b.dat
1 15 -150.000100 -48.000000 -30.000060 0.000000 0.000000 1.000000 0.000000 1.000000 0.000000 -1.000000 0.000000 0.000000 3040b.dat
0 STEP
1 1 -190.000000 -64.000000 39.999880 0.000000 0.000000 1.000000 0.000000 1.000000 0.000000 -1.000000 0.000000 0.000000 3710.dat
1 1 -190.000000 -56.000000 39.999940 0.000000 0.000000 1.000000 0.000000 1.000000 0.000000 -1.000000 0.000000 0.000000 3710.dat
1 1 50.000120 -64.000000 39.999820 0.000000 0.000000 1.000000 0.000000 1.000000 0.000000 -1.000000 0.000000 0.000000 3710.dat
1 1 50.000120 -56.000000 39.999880 0.000000 0.000000 1.000000 0.000000 1.000000 0.000000 -1.000000 0.000000 0.000000 3710.dat
1 15 -180.000000 -72.000000 -9.999940 1.000000 0.000000 0.000000 0.000000 1.000000 0.000000 0.000000 0.000000 1.000000 32064a.dat
1 15 40.000120 -72.000000 -10.000060 1.000000 0.000000 0.000000 0.000000 1.000000 0.000000 0.000000 0.000000 1.000000 32064a.dat
0 STEP
1 1 -190.000000 -88.000000 39.999820 0.000000 0.000000 1.000000 0.000000 1.000000 0.000000 -1.000000 0.000000 0.000000 3701.dat
1 1 50.000120 -88.000000 39.999760 0.000000 0.000000 1.000000 0.000000 1.000000 0.000000 -1.000000 0.000000 0.000000 3701.dat
0 STEP
1 1 40.000120 -72.000000 89.999880 1.000000 0.000000 0.000000 0.000000 1.000000 0.000000 0.000000 0.000000 1.000000 3700.dat
1 1 -180.000000 -72.000000 90.000000 1.000000 0.000000 0.000000 0.000000 1.000000 0.000000 0.000000 0.000000 1.000000 3700.dat
0 STEP
1 15 -190.000100 -136.000000 49.999760 1.000000 0.000000 0.000000 0.000000 1.000000 0.000000 0.000000 0.000000 1.000000 3040b.dat
1 15 50.000120 -112.000000 39.999700 0.000000 0.000000 1.000000 0.000000 1.000000 0.000000 -1.000000 0.000000 0.000000 32064a.dat
1 15 50.000120 -136.000000 49.999640 1.000000 0.000000 0.000000 0.000000 1.000000 0.000000 0.000000 0.000000 1.000000 3040b.dat
1 15 -190.000100 -112.000000 39.999760 0.000000 0.000000 1.000000 0.000000 1.000000 0.000000 -1.000000 0.000000 0.000000 32064a.dat
0 STEP
1 0 60.000120 -38.000000 39.999940 -1.000000 0.000000 0.000000 0.000000 1.000000 0.000000 0.000000 0.000000 -1.000000 2780.dat
1 0 60.000120 -78.000000 39.999760 -1.000000 0.000000 0.000000 0.000000 1.000000 0.000000 0.000000 0.000000 -1.000000 2780.dat
0 STEP
1 15 70.000180 -178.000000 39.999640 0.000001 1.000000 0.000001 0.000001 0.000001 -1.000000 -1.000000 0.000001 -0.000001 64871.dat
0 STEP
1 19 50.000240 -258.000000 39.999510 1.000000 0.000000 0.000000 0.000000 1.000000 0.000000 0.000000 0.000000 1.000000 32556.dat
0 STEP
1 19 17.520260 -278.000000 39.999450 1.000000 0.000001 -0.000001 0.000001 0.000001 1.000000 0.000001 -1.000000 0.000001 3749.dat
1 1 30.000240 -278.000000 39.999510 -0.000001 -1.000000 0.000001 0.000001 0.000001 1.000000 -1.000000 0.000001 0.000001 32271.dat
0 STEP
1 71 -22.479740 -278.000100 39.999450 -1.000000 0.000000 0.000000 0.000000 1.000000 0.000000 0.000000 0.000000 -1.000000 3673.dat
1 4 -2.479740 -278.000100 39.999450 -1.000000 0.000000 0.000000 0.000000 1.000000 0.000000 0.000000 0.000000 -1.000000 62462.dat
0 STEP
1 1 -32.479740 -258.000100 29.999450 0.000000 0.000000 1.000000 1.000000 0.000000 0.000000 0.000000 1.000000 0.000000 3701.dat
0 STEP
1 1 -12.479740 -253.321000 27.143740 0.000000 -1.000000 0.000001 0.642787 0.000001 0.766045 -0.766045 0.000001 0.642787 32526.dat
1 0 -22.479740 -238.000100 39.999450 -1.000000 0.000000 0.000000 0.000000 0.642789 0.766044 0.000000 0.766044 -0.642789 2780.dat
0 STEP
1 1 -42.479740 -278.000100 53.999450 0.000000 0.000000 1.000000 1.000000 0.000000 0.000000 0.000000 1.000000 0.000000 3709b.dat
0 STEP
1 1 -52.479740 -258.000100 29.999450 0.000000 0.000000 1.000000 1.000000 0.000000 0.000000 0.000000 1.000000 0.000000 3701.dat
0 STEP
1 0 -62.479740 -258.000100 39.999450 -1.000000 0.000000 0.000000 0.000000 0.984808 0.173648 0.000000 0.173648 -0.984808 2780.dat
1 71 -62.479740 -278.000100 39.999450 1.000000 0.000000 0.000000 0.000000 1.000000 0.000000 0.000000 0.000000 1.000000 3673.dat
0 STEP
1 1 -42.479740 -308.000100 29.999390 1.000000 0.000000 0.000000 0.000000 0.000000 -1.000000 0.000000 1.000000 0.000000 3700.dat
0 STEP
1 19 -42.479740 -318.000100 39.999390 -0.000001 1.000000 -0.000001 -1.000000 -0.000001 0.000001 0.000001 0.000001 1.000000 3749.dat
1 0 -42.479740 -328.000100 39.999390 1.000000 0.000000 0.000000 0.000000 0.000000 1.000000 0.000000 -1.000000 0.000000 32270.dat
0 STEP
1 1 -42.479740 -258.000100 21.999450 0.000000 0.000000 1.000000 1.000000 0.000000 0.000000 0.000000 1.000000 0.000000 3709b.dat
0 STEP
1 1 -72.479860 -263.925600 59.101320 0.000001 -1.000000 -0.000002 -0.955101 -0.000002 0.296277 -0.296277 0.000001 -0.955101 32526.dat
0 STEP
1 14 13.890320 -134.000200 7.999450 0.000000 0.000000 1.000000 0.593517 0.804821 0.000000 -0.804821 0.593517 0.000000 32123a.dat
1 14 -96.759700 -134.000000 7.999630 0.000000 0.000000 1.000000 0.593517 0.804822 0.000000 -0.804821 0.593517 0.000000 32123a.dat
1 0 -40.759700 -134.000100 7.999510 -1.000000 0.000002 0.000001 0.000002 0.804821 0.593517 0.000001 0.593517 -0.804822 3707.dat
0 STEP
1 4 -82.479740 -278.000100 39.999450 1.000000 0.000000 0.000000 0.000000 1.000000 0.000000 0.000000 0.000000 1.000000 62462.dat
1 19 -102.479700 -278.000100 39.999450 -1.000000 -0.000001 0.000001 0.000001 0.000001 1.000000 -0.000001 1.000000 -0.000001 3749.dat
0 STEP
1 1 -112.479800 -278.000000 39.999390 -0.000001 -1.000000 0.000001 0.000001 0.000001 1.000000 -1.000000 0.000001 0.000001 32271.dat
0 STEP
1 71 -128.570000 -218.000200 40.139040 -1.000000 0.000000 0.000000 0.000000 -0.003487 0.999994 0.000000 0.999994 0.003487 4519.dat
1 14 -127.859900 -218.000200 40.139040 0.000000 0.000000 1.000000 0.003487 0.999994 0.000000 -0.999994 0.003487 0.000000 32123a.dat
0 STEP
1 71 -169.770000 -238.000200 40.069340 -0.000001 -1.000000 0.000000 0.999994 -0.000001 -0.003487 0.003487 0.000000 0.999994 4519.dat
1 4 -149.770000 -218.000300 40.139040 -0.000001 -0.000001 1.000000 0.999994 -0.003487 0.000001 0.003487 0.999994 0.000001 32039.dat
0 STEP
1 4 -189.769900 -258.000000 39.999640 0.000001 0.000000 -1.000000 -0.999994 -0.003487 0.000000 -0.003486 0.999994 0.000000 32039.dat
1 71 -229.769900 -258.000100 39.999640 -1.000000 0.000000 0.000000 0.000000 -0.999995 -0.003486 0.000000 -0.003486 0.999995 32073.dat
0 STEP
1 0 -200.000000 -38.000000 40.000060 -1.000000 0.000000 0.000000 0.000000 1.000000 0.000000 0.000000 0.000000 -1.000000 2780.dat
1 0 -200.000000 -78.000000 39.999820 -1.000000 0.000000 0.000000 0.000000 1.000000 0.000000 0.000000 0.000000 -1.000000 2780.dat
0 STEP
1 15 -209.999900 -178.000000 39.999760 0.000001 1.000000 0.000001 0.000001 0.000001 -1.000000 -1.000000 0.000001 -0.000001 64871.dat
0 STEP
1 71 -189.989900 -198.000100 39.999700 0.000001 0.000000 -1.000000 0.000000 1.000000 0.000000 1.000000 0.000000 0.000001 3713.dat
1 71 -211.769900 -198.000100 39.999720 -1.000000 0.000001 0.000000 0.000000 0.000000 1.000000 0.000001 1.000000 0.000000 4519.dat
0 STEP
1 0 -219.999900 -158.000000 39.999760 -1.000000 0.000000 0.000000 0.000000 1.000000 0.000000 0.000000 0.000000 -1.000000 2780.dat
1 1 -229.999900 -118.000000 39.999760 -1.000000 0.000000 0.000000 0.000000 1.000000 0.000000 0.000000 0.000000 -1.000000 6558.dat
0 STEP
1 15 -229.999900 -138.000000 39.999760 0.000001 1.000000 0.000001 0.000001 0.000001 -1.000000 -1.000000 0.000001 -0.000001 32523.dat
0 STEP
1 72 -228.439800 -198.000100 39.999700 0.000000 0.000000 -1.000000 0.000000 1.000000 0.000000 1.000000 0.000000 0.000000 3647.dat
1 1 -229.999800 -318.000000 39.999640 1.000000 0.000000 0.000000 0.000000 1.000000 0.000000 0.000000 0.000000 1.000000 6558.dat
0 STEP
1 15 -249.999900 -218.000000 39.999510 -0.000001 -1.000000 -0.000001 -0.000001 -0.000001 1.000000 -1.000000 0.000001 -0.000001 64290.dat
0 STEP
1 0 -259.999900 -218.000000 39.999510 -1.000000 0.000000 0.000000 0.000000 1.000000 0.000000 0.000000 0.000000 -1.000000 2780.dat
1 0 -259.999900 -178.000000 39.999450 -1.000000 0.000000 0.000000 0.000000 1.000000 0.000000 0.000000 0.000000 -1.000000 2780.dat
0 STEP
1 15 -269.999900 -197.999900 39.999510 0.000001 1.000000 0.000001 0.000001 0.000001 -1.000000 -1.000000 0.000001 -0.000001 32523.dat
0 STEP
1 71 -269.769900 -258.000000 39.999700 0.000000 0.000000 -1.000000 0.003486 -0.999994 0.000000 -0.999994 -0.003486 0.000000 3713.dat
0 STEP
1 0 -199.999900 -14.000000 -40.000000 0.000000 0.000000 -1.000000 0.000000 1.000000 0.000000 1.000000 0.000000 0.000000 2780.dat
1 0 80.000000 -14.000000 -40.000000 0.000000 0.000000 -1.000000 0.000000 1.000000 0.000000 1.000000 0.000000 0.000000 2780.dat
1 0 -60.000000 -38.000000 -40.000000 0.000000 0.000000 -1.000000 0.000000 1.000000 0.000000 1.000000 0.000000 0.000000 2780.dat
0 STEP
1 4 -200.000000 -14.000000 -50.000060 0.000000 0.000000 -1.000000 0.000000 -1.000000 0.000000 -1.000000 0.000000 0.000000 32034.dat
1 4 -60.000000 -38.000000 -50.000000 0.000000 0.000000 -1.000000 0.000000 -1.000000 0.000000 -1.000000 0.000000 0.000000 32034.dat
1 4 80.000000 -14.000000 -50.000000 0.000000 0.000000 -1.000000 0.000000 -1.000000 0.000000 -1.000000 0.000000 0.000000 32034.dat
0 STEP
0 STEP
