0 Untitled Model
0 Name:  拉力车
0 Author:  
0 CustomBrick
0 NumOfBricks:  59
1 1 120.000000 -48.000020 -30.000000 1.000000 0.000000 0.000000 0.000000 1.000000 0.000000 0.000000 0.000000 1.000000 3700.dat
1 1 120.000000 -48.000000 -49.999940 1.000000 0.000000 0.000000 0.000000 1.000000 0.000000 0.000000 0.000000 1.000000 3700.dat
1 1 140.000000 -56.000440 -50.000000 -1.000000 0.000000 0.000000 0.000000 1.000000 0.000000 0.000000 0.000000 -1.000000 3023.dat
1 1 140.000000 -56.000020 -30.000000 -1.000000 0.000000 0.000001 0.000000 1.000000 0.000000 -0.000002 0.000000 -1.000000 3023.dat
1 15 150.000000 -48.000000 -39.999760 0.000000 0.000000 -1.000000 0.000000 1.000000 0.000000 1.000000 0.000000 0.000000 32064a.dat
0 STEP
1 1 80.000020 -56.000000 -49.999940 1.000000 0.000000 0.000000 0.000000 1.000000 0.000000 0.000000 0.000000 1.000000 3710.dat
1 1 80.000020 -56.000000 -29.999940 1.000000 0.000000 0.000000 0.000000 1.000000 0.000000 0.000000 0.000000 1.000000 3710.dat
1 15 90.000030 -48.000000 -39.999940 0.000000 0.000000 -1.000000 0.000000 1.000000 0.000000 1.000000 0.000000 0.000000 32064a.dat
1 15 40.000020 -48.000000 -39.999940 1.000000 0.000000 0.000000 0.000000 1.000000 0.000000 0.000000 0.000000 1.000000 3001.dat
0 STEP
1 1 0.000000 -56.000000 -50.000000 1.000000 0.000000 -0.000001 0.000000 1.000000 0.000000 0.000001 0.000000 1.000000 3023.dat
1 1 30.000000 -56.000000 -39.999940 0.000000 0.000000 1.000000 0.000000 1.000000 0.000000 -1.000000 0.000000 0.000000 3023.dat
1 1 0.000020 -56.000000 -29.999940 1.000000 0.000000 -0.000001 0.000000 1.000000 0.000000 0.000001 0.000000 1.000000 3023.dat
0 STEP
1 1 -30.000020 -56.000000 -40.000000 0.000000 0.000000 1.000000 0.000000 1.000000 0.000000 -1.000000 0.000000 0.000000 3023.dat
1 15 -39.999980 -48.000000 -39.999940 1.000000 0.000000 0.000000 0.000000 1.000000 0.000000 0.000000 0.000000 1.000000 3001.dat
0 STEP
1 1 -120.000000 -48.000000 -50.000000 -1.000000 0.000000 0.000000 0.000000 1.000000 0.000000 0.000000 0.000000 -1.000000 3701.dat
1 1 -120.000000 -48.000000 -30.000000 -1.000000 0.000000 0.000000 0.000000 1.000000 0.000000 0.000000 0.000000 -1.000000 3701.dat
1 1 -79.999980 -56.000000 -39.999940 -1.000000 0.000000 0.000000 0.000000 1.000000 0.000000 0.000000 0.000000 -1.000000 3709b.dat
0 STEP
1 1 60.000000 -80.000000 -50.000000 1.000000 0.000000 0.000000 0.000000 1.000000 0.000000 0.000000 0.000000 1.000000 3894.dat
1 1 60.000000 -80.000000 -29.999940 1.000000 0.000000 0.000000 0.000000 1.000000 0.000000 0.000000 0.000000 1.000000 3894.dat
1 15 130.000000 -80.000340 -50.000000 0.000000 0.000000 -1.000000 0.000000 1.000000 0.000000 1.000000 0.000000 0.000000 3040b.dat
1 15 130.000000 -80.000220 -29.999940 0.000000 0.000000 -1.000000 0.000000 1.000000 0.000000 1.000000 0.000000 0.000000 3040b.dat
0 STEP
1 71 60.000020 -70.000000 -60.000000 0.000000 0.000000 -1.000000 0.000000 1.000000 0.000000 1.000000 0.000000 0.000000 3673.dat
1 71 60.000000 -70.000000 -19.999940 0.000000 0.000000 -1.000000 0.000000 1.000000 0.000000 1.000000 0.000000 0.000000 3673.dat
0 STEP
1 15 -19.999980 -80.000000 -29.999940 1.000000 0.000000 0.000000 0.000000 1.000000 0.000000 0.000000 0.000000 1.000000 32064a.dat
1 15 -20.000020 -80.000000 -50.000000 1.000000 0.000000 0.000000 0.000000 1.000000 0.000000 0.000000 0.000000 1.000000 32064a.dat
1 19 -20.000030 -70.000020 -60.000000 -0.000001 1.000000 -0.000001 0.000001 0.000001 1.000000 1.000000 0.000001 -0.000001 3749.dat
1 19 -19.999980 -70.000020 -20.000000 -0.000001 -0.000001 -1.000000 0.000001 -1.000000 0.000001 -1.000000 -0.000001 0.000001 3749.dat
0 STEP
1 4 -20.000000 -70.000040 -70.000000 0.000000 0.000000 -1.000000 0.000000 -1.000000 0.000000 -1.000000 0.000000 0.000000 32034.dat
1 4 -19.999980 -70.000020 -10.000000 0.000000 0.000000 -1.000000 0.000000 -1.000000 0.000000 -1.000000 0.000000 0.000000 32034.dat
0 STEP
1 1 -79.999980 -80.000000 -29.999940 1.000000 0.000000 0.000000 0.000000 1.000000 0.000000 0.000000 0.000000 1.000000 3701.dat
1 1 -79.999980 -80.000000 -49.999940 1.000000 0.000000 0.000000 0.000000 1.000000 0.000000 0.000000 0.000000 1.000000 3701.dat
1 15 -130.000000 -72.000000 -50.000000 0.000000 0.000000 1.000000 0.000000 1.000000 0.000000 -1.000000 0.000000 0.000000 3040b.dat
1 15 -130.000000 -72.000000 -30.000000 0.000000 0.000000 1.000000 0.000000 1.000000 0.000000 -1.000000 0.000000 0.000000 3040b.dat
0 STEP
1 1 -130.000000 -80.000000 -40.000000 0.000000 0.000000 -1.000000 0.000000 1.000000 0.000000 1.000000 0.000000 0.000000 3023.dat
0 STEP
1 19 120.000000 -37.999990 -60.000000 0.000001 -1.000000 0.000001 0.000001 0.000001 1.000000 -1.000000 -0.000001 0.000001 3749.dat
1 19 120.000000 -38.000000 -20.000000 -0.000001 1.000000 -0.000001 0.000001 0.000001 1.000000 1.000000 0.000001 -0.000001 3749.dat
1 19 -140.000000 -37.999980 -20.000060 -0.000001 1.000000 -0.000001 0.000001 0.000001 1.000000 1.000000 0.000001 -0.000001 3749.dat
1 19 -140.000000 -37.999980 -60.000000 0.000001 -1.000000 0.000001 0.000001 0.000001 1.000000 -1.000000 -0.000001 0.000001 3749.dat
0 STEP
1 0 120.000000 -38.000020 0.256770 0.000000 1.000000 0.000000 1.000000 0.000000 0.000001 0.000001 0.000000 -1.000000 30391.dat
1 71 120.000000 -38.000000 0.000000 1.000001 0.000000 0.000000 0.000000 -1.000001 0.000000 0.000000 0.000000 -1.000000 55982.dat
1 0 120.000100 -38.000120 -80.256720 0.000000 1.000000 0.000000 -1.000000 0.000000 -0.000001 -0.000001 0.000000 1.000000 30391.dat
1 71 120.000000 -37.999980 -80.000000 1.000004 0.000000 0.000000 0.000000 1.000004 0.000000 0.000000 0.000000 1.000000 55982.dat
1 0 -140.001000 -38.001120 0.256590 0.000000 1.000000 0.000000 1.000000 0.000000 0.000001 0.000001 0.000000 -1.000000 30391.dat
1 71 -140.000000 -37.999980 -0.000060 1.000002 0.000000 0.000000 0.000000 -1.000002 0.000000 0.000000 0.000000 -1.000000 55982.dat
1 0 -139.999300 -38.000140 -80.255440 0.000000 1.000000 0.000000 -1.000000 0.000000 -0.000001 -0.000001 0.000000 1.000000 30391.dat
1 71 -140.000100 -37.999980 -80.000000 1.000003 0.000000 0.000000 0.000000 1.000003 0.000000 0.000000 0.000000 1.000000 55982.dat
0 STEP
1 1 100.000000 -88.000000 -40.000000 -1.000000 0.000000 0.000000 0.000000 1.000000 0.000000 0.000000 0.000000 -1.000000 3709b.dat
0 STEP
1 15 120.000000 -112.000000 -40.000000 1.000000 0.000000 0.000000 0.000000 1.000000 0.000000 0.000000 0.000000 1.000000 3941.dat
1 19 120.000000 -113.400000 -40.000000 -0.000001 1.000000 -0.000001 1.000000 0.000001 -0.000001 -0.000001 -0.000001 -1.000000 3749.dat
0 STEP
1 1 20.000000 -88.000000 -50.000000 1.000000 0.000000 0.000000 0.000000 1.000000 0.000000 0.000000 0.000000 1.000000 3710.dat
1 1 20.000000 -88.000000 -29.999940 1.000000 0.000000 0.000000 0.000000 1.000000 0.000000 0.000000 0.000000 1.000000 3710.dat
0 STEP
1 15 -59.999980 -88.000000 -49.999940 -1.000000 0.000000 0.000000 0.000000 1.000000 0.000000 0.000000 0.000000 -1.000000 2431.dat
1 15 -59.999980 -88.000000 -29.999940 -1.000000 0.000000 0.000000 0.000000 1.000000 0.000000 0.000000 0.000000 -1.000000 2431.dat
0 STEP
1 1 -110.000000 -104.000000 -39.999940 0.000000 0.000000 1.000000 0.000000 1.000000 0.000000 -1.000000 0.000000 0.000000 3700.dat
1 1 -130.000000 -104.000000 -40.000060 0.000000 0.000000 1.000000 0.000000 1.000000 0.000000 -1.000000 0.000000 0.000000 3700.dat
1 19 -140.000100 -93.999980 -40.000060 -1.000000 -0.000001 0.000001 0.000001 0.000001 1.000000 -0.000001 1.000000 -0.000001 3749.dat
0 STEP
1 4 -150.000100 -93.999970 -40.000060 0.000000 -0.000001 1.000000 0.000000 -1.000000 -0.000001 1.000000 0.000000 0.000000 32039.dat
0 STEP
1 15 -120.000000 -128.000000 -39.999940 1.000000 0.000000 0.000000 0.000000 1.000000 0.000000 0.000000 0.000000 1.000000 3941.dat
1 19 -120.000000 -128.000000 -39.999940 -0.000001 1.000000 -0.000001 1.000000 0.000001 -0.000001 -0.000001 -0.000001 -1.000000 3749.dat
0 STEP
0 STEP
