0 FILE 摇头风扇.io
0 Untitled Model
0 Name:  摇头风扇
0 Author:  
0 CustomBrick
0 NumOfBricks:  70
1 16 -30.000800 -176.457400 -58.999820 0.000000 -1.000000 0.000000 1.000000 0.000000 0.000000 0.000000 0.000000 1.000000 submodel group 9 copy copy copy
0 STEP
1 0 60.000000 -14.000010 -40.000000 0.000000 -1.000001 0.000000 0.000000 0.000000 -1.000000 1.000001 0.000000 0.000000 2780.dat
1 0 19.999510 -14.000010 -40.000000 0.000000 1.000001 0.000000 0.000000 0.000000 -1.000000 -1.000001 0.000000 0.000000 2780.dat
1 1 40.000000 -24.000030 -30.000000 1.000000 0.000000 0.000000 0.000000 1.000000 0.000000 0.000000 0.000000 1.000000 3703.dat
0 STEP
1 1 40.000000 -24.000000 -110.000000 1.000000 0.000000 0.000000 0.000000 1.000000 0.000000 0.000000 0.000000 1.000000 3703.dat
1 0 19.999510 -14.000010 -99.999820 0.000000 -1.000001 0.000000 0.000000 0.000000 -1.000000 1.000001 0.000000 0.000000 2780.dat
1 0 60.000000 -14.000010 -100.000000 0.000000 -1.000001 0.000000 0.000000 0.000000 -1.000000 1.000001 0.000000 0.000000 2780.dat
0 STEP
1 0 -0.000490 -224.000200 -89.999820 0.000000 0.000000 1.000001 -1.000000 0.000000 0.000000 0.000000 -1.000001 0.000000 2780.dat
1 0 -0.000550 -224.000100 -50.000000 0.000000 0.000000 1.000001 -1.000000 0.000000 0.000000 0.000000 -1.000001 0.000000 2780.dat
1 0 80.000110 -224.000000 -50.000120 0.000000 0.000000 1.000001 -1.000000 0.000000 0.000000 0.000000 -1.000001 0.000000 2780.dat
1 0 79.999860 -223.999900 -89.999820 0.000000 0.000000 1.000003 -1.000003 0.000000 0.000000 0.000000 -1.000000 0.000000 2780.dat
0 STEP
1 71 39.999700 -273.999800 -50.000120 0.000000 0.000000 1.000001 -1.000000 0.000000 0.000000 0.000000 -1.000001 0.000000 64179.dat
1 71 39.999820 -273.999900 -89.999820 0.000000 0.000000 1.000001 -1.000000 0.000000 0.000000 0.000000 -1.000001 0.000000 64179.dat
0 STEP
1 0 -0.000310 -324.000000 -89.999770 0.000000 0.000000 1.000000 1.000000 0.000000 0.000000 0.000000 1.000000 0.000000 2780.dat
1 0 79.999880 -324.000000 -89.999770 0.000000 0.000000 1.000000 -1.000000 0.000000 0.000000 0.000000 -1.000000 0.000000 2780.dat
1 0 79.999820 -324.000000 -50.000000 0.000000 0.000000 1.000000 1.000000 0.000000 0.000000 0.000000 1.000000 0.000000 2780.dat
1 0 -0.000310 -324.000000 -50.000120 0.000000 0.000000 1.000000 1.000000 0.000000 0.000000 0.000000 1.000000 0.000000 2780.dat
1 15 39.999820 -334.000000 -89.999640 0.000001 0.000001 -1.000000 -0.000001 -1.000000 -0.000001 -1.000000 0.000001 -0.000001 40490.dat
1 15 39.999700 -334.000000 -50.000000 0.000001 0.000001 -1.000000 -0.000001 -1.000000 -0.000001 -1.000000 0.000001 -0.000001 40490.dat
0 STEP
1 71 119.999600 -343.999900 -50.000000 0.000000 0.000000 1.000000 -1.000000 0.000000 0.000000 0.000000 -1.000000 0.000000 3673.dat
0 STEP
1 0 119.999800 -383.999800 -50.000000 0.000000 -1.000000 0.000000 -0.999999 0.000000 0.000000 0.000000 0.000000 -1.000000 2780.dat
1 4 119.999600 -363.999800 -50.000000 0.000000 0.000000 1.000000 1.000000 0.000000 0.000000 0.000000 1.000000 0.000000 62462.dat
0 STEP
1 0 120.000700 -404.000000 -130.000400 0.000000 -1.000000 0.000000 -0.999999 0.000000 0.000000 0.000000 0.000000 -1.000000 2780.dat
1 1 110.000600 -393.999900 -90.000430 0.000000 1.000000 0.000000 0.000000 0.000000 -0.999999 -1.000000 0.000000 0.000000 3894.dat
1 0 80.000850 -404.000000 31.899720 0.000000 0.000000 1.000000 0.000000 0.999999 0.000000 -1.000000 0.000000 0.000000 3707.dat
1 71 80.000740 -404.000000 -30.000430 0.000000 1.000000 0.000000 0.999999 0.000000 0.000000 0.000000 0.000000 -1.000000 58120.dat
0 STEP
1 1 110.000700 -414.000000 -90.000430 0.000000 1.000000 0.000000 0.000000 0.000000 -0.999999 -1.000000 0.000000 0.000000 3894.dat
0 STEP
1 15 -9.581240 -354.000200 -30.911320 -0.984808 0.000001 0.173650 -0.000001 -1.000000 -0.000001 0.173650 -0.000001 0.984808 32524.dat
1 71 -20.000310 -344.000100 -89.999640 0.000000 0.000000 1.000000 1.000000 0.000000 0.000000 0.000000 1.000000 0.000000 3673.dat
0 STEP
1 19 0.467650 -364.299800 27.422980 0.000002 -0.988290 -0.152585 -0.999999 -0.000002 0.000000 0.000000 0.152585 -0.988291 3749.dat
1 1 20.233460 -374.299800 24.371340 0.000000 0.988291 0.152585 -0.999999 0.000000 0.000000 0.000000 -0.152585 0.988291 32184.dat
0 STEP
1 72 59.999280 -387.849800 21.319640 0.000000 0.000000 -1.000000 0.000000 -0.999999 0.000000 -1.000000 0.000000 0.000000 99773.dat
1 71 39.999150 -398.199800 21.319880 0.000000 0.988291 -0.152585 0.999999 0.000000 0.000000 0.000000 -0.152585 -0.988291 4519.dat
0 STEP
1 0 99.999270 -403.999900 -28.680240 0.000000 0.000000 -1.000005 0.000000 1.000003 0.000000 1.000000 0.000000 0.000000 2780.dat
1 4 80.000850 -404.000000 -18.680240 0.000000 0.999999 0.000000 0.999997 0.000000 0.000000 0.000000 0.000000 -1.000000 42003.dat
0 STEP
1 14 80.000850 -404.000000 48.039620 0.000000 1.000000 0.000000 -0.999999 0.000000 0.000000 0.000000 0.000000 1.000000 32123a.dat
1 14 80.000850 -404.000000 -3.100280 0.000000 1.000000 0.000000 -0.999999 0.000000 0.000000 0.000000 0.000000 1.000000 32123a.dat
1 71 80.000850 -404.000000 22.009580 -1.000000 0.000000 0.000000 0.000000 0.999999 0.000000 0.000000 0.000000 -1.000000 4716.dat
1 4 80.000850 -404.000000 61.899720 0.000000 1.000000 0.000000 0.999999 0.000000 0.000000 0.000000 0.000000 -1.000000 42003.dat
0 STEP
1 4 59.999280 -402.849900 -18.680240 0.000000 1.000004 0.000000 1.000003 0.000000 0.000000 0.000000 0.000000 -1.000000 32062.dat
1 4 59.999280 -401.209800 61.319760 0.000000 1.000000 0.000000 0.999999 0.000000 0.000000 0.000000 0.000000 -1.000000 32062.dat
0 STEP
1 72 39.999080 -402.599800 21.319880 0.988290 -0.152585 0.000000 0.000000 0.000000 0.999999 -0.152585 -0.988290 0.000000 3648b.dat
0 STEP
1 72 59.997440 -419.359900 21.318850 0.000000 0.000000 -1.000003 0.000000 -1.000002 0.000000 -1.000000 0.000000 0.000000 99773.dat
0 STEP
1 15 60.000860 -404.000000 81.899720 0.000001 0.000001 -1.000000 -0.999999 0.000001 -0.000001 0.000001 1.000000 0.000001 32316.dat
0 STEP
1 72 80.000850 -404.000000 101.899700 -1.000000 0.000000 0.000000 0.000000 0.999999 0.000000 0.000000 0.000000 -1.000000 3647.dat
0 STEP
1 0 20.000960 -404.000000 113.799700 0.000000 0.662620 0.748956 0.000000 0.748956 -0.662620 -1.000000 0.000000 0.000000 3706.dat
1 14 20.000980 -404.000000 66.449680 -0.662620 -0.748956 0.000000 -0.748956 0.662619 0.000000 0.000000 0.000000 -1.000000 32123a.dat
0 STEP
1 71 20.001100 -403.999900 101.959700 -0.662620 -0.748956 0.000000 -0.748956 0.662619 0.000000 0.000000 0.000000 -1.000000 3649.dat
1 71 20.001100 -403.999900 121.899700 -0.662619 0.748956 -0.000001 -0.748956 -0.662619 -0.000001 -0.000001 0.000000 1.000000 3713.dat
0 STEP
1 71 20.001100 -403.999900 141.899700 -0.662619 -0.748956 0.000000 -0.748956 0.662619 0.000000 0.000000 0.000000 -1.000000 3649.dat
1 14 20.001100 -403.999900 158.279700 -0.662619 -0.748956 0.000000 -0.748956 0.662619 0.000000 0.000000 0.000000 -1.000000 32123a.dat
1 14 20.000950 -404.000000 166.899700 -0.662620 -0.748957 0.000000 -0.748956 0.662619 0.000000 0.000000 0.000000 -1.000000 32123a.dat
0 STEP
1 0 4.158570 -376.632000 151.899700 0.000000 0.622516 0.782607 0.000000 -0.782606 0.622516 1.000000 0.000000 0.000000 2780.dat
1 0 7.612120 -433.094800 151.899600 0.000000 -0.894935 -0.446197 0.000000 -0.446197 0.894934 -1.000000 0.000000 0.000000 2780.dat
1 0 47.369200 -388.157700 151.899700 0.000000 0.894935 0.446197 0.000000 -0.446197 0.894934 1.000000 0.000000 0.000000 2780.dat
1 0 -9.093750 -391.611100 151.899700 0.000000 0.894935 0.446197 0.000000 -0.446197 0.894934 1.000000 0.000000 0.000000 2780.dat
1 0 -7.367070 -419.842500 151.899700 0.000000 -0.748956 -0.662619 0.000001 -0.662619 0.748956 -1.000000 0.000000 0.000001 2780.dat
1 0 49.095950 -416.389100 151.899700 0.000000 0.894935 0.446197 0.000000 -0.446197 0.894934 1.000000 0.000000 0.000000 2780.dat
1 0 32.390140 -374.905100 151.899700 0.000000 0.894935 0.446197 0.000000 -0.446197 0.894934 1.000000 0.000000 0.000000 2780.dat
1 0 35.843510 -431.368200 151.899700 0.000000 0.894935 0.446197 0.000000 -0.446197 0.894934 1.000000 0.000000 0.000000 2780.dat
0 STEP
1 15 -88.607970 -481.485800 161.899600 -0.748957 0.000000 0.662619 0.662618 -0.000001 0.748956 0.000001 1.000000 0.000001 64871.dat
1 15 96.085330 -514.165700 161.899500 0.675591 -0.000001 0.737276 0.737276 -0.000002 -0.675591 0.000002 1.000000 -0.000001 64871.dat
1 15 -57.484620 -295.390900 161.899600 -0.662620 0.000000 -0.748957 -0.748956 0.000001 0.662619 0.000001 1.000000 0.000000 64871.dat
1 15 128.793600 -326.676800 161.899700 -0.747797 0.000000 0.663928 0.663927 0.000000 0.747796 0.000000 1.000000 0.000000 64871.dat
0 STEP
1 4 19.999680 -313.999800 -30.000130 0.000000 0.000001 -1.000000 0.000000 -1.000000 -0.000001 -1.000000 0.000000 0.000000 32034.dat
1 0 19.999680 -313.999800 -40.000130 0.000000 -0.000001 -1.000000 0.000000 1.000000 -0.000001 1.000000 0.000000 0.000000 2780.dat
1 19 59.999660 -233.999800 -28.280140 1.000000 0.000000 -0.000001 0.000000 1.000000 0.000000 0.000001 0.000000 1.000000 32269.dat
1 19 59.999680 -233.999800 -40.000140 -0.000002 1.000000 0.000000 0.000000 0.000000 1.000000 1.000000 0.000002 0.000000 3749.dat
0 STEP
0 STEP
0 NOFILE
0 FILE SubModel Group 9 Copy Copy Copy
0 SubModel Group 9 Copy Copy Copy
0 Name:  SubModel Group 9 Copy Copy Copy
0 Author:  
0 CustomBrick
0 NumOfBricks:  3
1 72 10.000000 -1.128810 -10.000000 1.000000 0.000000 0.000000 0.000000 0.000000 -1.000000 0.000000 1.000000 0.000000 dch003.dat
1 71 -27.466620 -79.717990 29.427020 1.000000 0.000000 0.000000 0.000000 0.000000 -1.000000 0.000000 1.000000 0.000000 dch004.dat
1 25 7.837010 13.484720 -9.965000 1.000000 0.000000 0.000000 0.000000 0.000000 -1.000000 0.000000 1.000000 0.000000 dch005.dat
0 NOFILE
