0 FILE 移动城堡.io
0 Untitled Model
0 Name:  移动城堡
0 Author:  
0 CustomBrick
0 NumOfBricks:  79
1 16 21.999760 -59.848000 -248.999300 -1.000000 0.000000 0.000000 0.000000 0.000000 -1.000000 0.000000 -1.000000 0.000000 submodel group 9 copy copy copy
0 STEP
1 0 -139.999800 -79.999020 -160.000200 0.000000 0.000000 -0.999998 -0.999979 0.000000 0.000000 0.000000 0.999981 0.000000 2780.dat
1 0 -139.999800 -79.999000 -199.999500 0.000000 0.000000 -0.999998 0.999979 0.000000 0.000000 0.000000 -0.999981 0.000000 2780.dat
1 71 -139.999800 -149.997500 -179.999800 0.000000 -0.999998 0.000000 0.000000 0.000000 -0.999979 0.999981 0.000000 0.000000 64179.dat
0 STEP
1 0 59.999750 -79.998550 -199.999400 0.000000 0.000000 -1.000000 1.000000 0.000000 0.000000 0.000000 -1.000000 0.000000 2780.dat
1 0 59.999750 -79.999040 -160.000200 0.000000 0.000000 -0.999998 0.999979 0.000000 0.000000 0.000000 -0.999981 0.000000 2780.dat
1 71 59.999750 -149.997500 -179.999800 0.000000 -0.999998 0.000000 0.000000 0.000000 -0.999979 0.999981 0.000000 0.000000 64179.dat
0 STEP
1 0 -154.479800 -29.293920 -219.001000 0.000000 0.000000 -1.000000 0.000000 -1.000021 0.000000 -1.000022 0.000000 0.000000 2815.dat
1 0 -154.439800 -29.293940 -139.000500 0.000000 0.000000 -1.000000 0.000000 -1.000021 0.000000 -1.000021 0.000000 0.000000 2815.dat
1 19 -149.019700 -29.293930 -139.000500 -0.999998 -0.000001 0.000001 -0.000001 -0.000001 -1.000000 0.000001 -1.000002 0.000001 3749.dat
1 71 -154.479800 -29.293920 -219.001000 0.000000 0.000000 0.999998 0.000000 -1.000000 0.000000 1.000002 0.000000 0.000000 4185.dat
1 19 -149.019700 -29.293900 -219.001000 -0.999998 -0.000001 0.000001 -0.000001 -0.000001 -1.000000 0.000001 -1.000002 0.000001 3749.dat
1 71 -154.439800 -29.293940 -139.000500 0.000000 0.000000 0.999998 0.000000 -1.000000 0.000000 1.000002 0.000000 0.000000 4185.dat
0 STEP
1 0 75.999840 -29.293920 -139.000500 0.000000 0.000000 -1.000001 0.000000 -1.000021 0.000000 -1.000022 0.000000 0.000000 2815.dat
1 0 75.979880 -29.293900 -219.001000 0.000000 0.000000 -1.000000 0.000000 -1.000021 0.000000 -1.000021 0.000000 0.000000 2815.dat
1 19 70.999760 -29.293900 -139.000500 1.000000 0.000001 -0.000001 -0.000001 -0.000001 -1.000021 -0.000001 1.000021 -0.000001 3749.dat
1 19 70.979860 -29.293880 -219.001000 0.999998 0.000001 -0.000001 -0.000001 -0.000001 -1.000000 -0.000001 1.000002 -0.000001 3749.dat
1 71 75.979880 -29.293900 -219.001000 0.000000 0.000000 -0.999998 0.000000 1.000000 0.000000 1.000002 0.000000 0.000000 4185.dat
1 71 75.999840 -29.293920 -139.000500 0.000000 0.000000 -0.999998 0.000000 1.000000 0.000000 1.000002 0.000000 0.000000 4185.dat
0 STEP
1 0 59.999750 -109.998400 -130.000700 0.000000 0.000000 -0.999998 0.000000 0.999979 0.000000 0.999981 0.000000 0.000000 2780.dat
1 0 -139.999800 -109.998400 -130.000700 0.000000 0.000000 -0.999998 0.000000 0.999979 0.000000 0.999981 0.000000 0.000000 2780.dat
1 1 -79.999970 -109.998300 -100.001600 0.000000 0.000000 -0.999998 0.000000 0.999979 0.000000 0.999981 0.000000 0.000000 6558.dat
1 15 -40.000050 -109.998300 -120.001100 0.000001 0.000001 -0.999998 0.999979 -0.000001 0.000001 -0.000001 -0.999981 -0.000001 64290.dat
1 1 -0.000080 -109.998400 -100.001400 0.000000 0.000000 -0.999998 0.000000 0.999979 0.000000 0.999981 0.000000 0.000000 6558.dat
0 STEP
1 15 -40.000050 -109.998300 -80.001750 -0.000001 -0.000001 0.999998 -0.999979 0.000001 -0.000001 -0.000001 -0.999981 -0.000001 32524.dat
1 15 -40.000050 -109.998200 -100.001600 0.000001 0.000001 -0.999998 -0.999979 0.000001 -0.000001 0.000001 0.999981 0.000001 32524.dat
0 STEP
1 0 -139.999800 -109.998400 -229.998900 0.000000 0.000000 -0.999998 0.000000 0.999979 0.000000 0.999981 0.000000 0.000000 2780.dat
1 0 59.999750 -109.998400 -229.998900 0.000000 0.000000 -0.999998 0.000000 0.999979 0.000000 0.999981 0.000000 0.000000 2780.dat
1 1 -79.999970 -109.998600 -259.998200 0.000000 0.000000 0.999998 0.000000 0.999979 0.000000 -0.999981 0.000000 0.000000 6558.dat
1 1 -0.000110 -109.998400 -259.998300 0.000000 0.000000 0.999998 0.000000 0.999979 0.000000 -0.999981 0.000000 0.000000 6558.dat
1 15 -40.000050 -109.998500 -239.998600 0.000001 0.000001 -0.999998 -0.999979 0.000001 -0.000001 0.000001 0.999981 0.000001 64290.dat
0 STEP
1 15 -40.000050 -109.998500 -259.998300 0.000001 0.000001 -0.999998 -0.999979 0.000001 -0.000001 0.000001 0.999981 0.000001 32524.dat
1 15 -40.000050 -109.998500 -279.998000 0.000001 0.000001 -0.999998 -0.999979 0.000001 -0.000001 0.000001 0.999981 0.000001 32524.dat
0 STEP
1 0 59.999750 -189.996700 -229.998900 0.000000 0.000000 -0.999998 0.000000 0.999979 0.000000 0.999981 0.000000 0.000000 2780.dat
1 0 -139.999800 -189.996700 -229.998900 0.000000 0.000000 -0.999998 0.000000 0.999979 0.000000 0.999981 0.000000 0.000000 2780.dat
1 15 -40.000020 -189.996500 -239.998900 0.000001 0.000001 -0.999998 -0.999979 0.000001 -0.000001 0.000001 0.999981 0.000001 64290.dat
0 STEP
1 19 19.999940 -189.996500 -249.998700 0.000001 -0.999998 0.000001 0.000001 0.000001 0.999979 -0.999981 -0.000001 0.000001 3749.dat
1 14 -119.999800 -189.996600 -263.748400 0.999998 0.000000 0.000000 0.000000 -0.999979 0.000000 0.000000 0.000000 -0.999981 32123a.dat
1 19 -119.999900 -189.996600 -249.998700 0.000001 -0.999998 0.000001 0.000001 0.000001 0.999979 -0.999981 -0.000001 0.000001 3749.dat
1 14 19.999970 -189.996400 -263.748400 0.999998 0.000000 0.000000 0.000000 0.999979 0.000000 0.000000 0.000000 0.999981 32123a.dat
1 72 -119.999900 -189.996600 -254.998700 -0.999998 0.000001 -0.000001 0.000001 0.000001 -0.999979 -0.000001 -0.999981 -0.000001 32250.dat
1 72 19.999970 -189.996500 -254.998700 0.999998 -0.000001 0.000001 0.000001 0.000001 -0.999979 0.000001 0.999981 0.000001 32250.dat
0 STEP
1 71 20.000000 -238.256100 -180.000100 0.000000 -1.000000 0.000000 1.000000 0.000000 0.000000 0.000000 0.000000 1.000000 4519.dat
1 0 40.000090 -219.996100 -179.999900 0.000000 0.000000 -1.000000 -1.000000 0.000000 0.000000 0.000000 1.000000 0.000000 2780.dat
1 0 59.999750 -219.996000 -179.999900 0.000000 0.000000 -1.000000 -1.000000 -0.000001 0.000000 0.000000 1.000000 0.000000 2780.dat
1 0 -0.000050 -219.996100 -179.999900 0.000000 0.000000 -1.000000 1.000000 0.000000 0.000000 0.000000 -1.000000 0.000000 2780.dat
1 15 -40.000050 -229.996200 -180.000200 0.000001 0.000001 -1.000000 -0.000001 -1.000000 -0.000001 -1.000000 0.000001 -0.000001 64290.dat
1 71 20.000150 -219.995100 -179.989000 -0.999998 0.000000 0.000000 0.000000 0.000000 0.999979 0.000000 0.999981 0.000000 58120.dat
0 STEP
1 0 69.999720 -169.997100 -219.999100 -0.999998 0.000000 0.000000 0.000000 0.999979 0.000000 0.000000 0.000000 -0.999981 2780.dat
1 0 69.999720 -169.997100 -140.000600 -0.999998 0.000000 0.000000 0.000000 0.999979 0.000000 0.000000 0.000000 -0.999981 2780.dat
1 1 99.999650 -169.997100 -160.000200 0.999998 0.000000 0.000000 0.000000 0.999979 0.000000 0.000000 0.000000 0.999981 6558.dat
1 1 99.999620 -169.997000 -199.999500 0.999998 0.000000 0.000000 0.000000 0.999979 0.000000 0.000000 0.000000 0.999981 6558.dat
1 15 79.999680 -169.997000 -179.999900 0.000001 0.999998 0.000001 -0.999979 0.000001 -0.000001 -0.000001 -0.000001 0.999981 32316.dat
0 STEP
1 15 99.999680 -169.997100 -179.999800 0.000001 0.999998 0.000001 -0.999979 0.000001 -0.000001 -0.000001 -0.000001 0.999981 32316.dat
1 15 119.999600 -169.997000 -179.999900 0.000001 0.999998 0.000001 -0.999979 0.000001 -0.000001 -0.000001 -0.000001 0.999981 32316.dat
0 STEP
1 0 -149.999800 -89.998790 -140.000600 -0.999998 0.000000 0.000000 0.000000 0.999979 0.000000 0.000000 0.000000 -0.999981 2780.dat
1 0 -149.999800 -89.998790 -219.999100 -0.999998 0.000000 0.000000 0.000000 0.999979 0.000000 0.000000 0.000000 -0.999981 2780.dat
1 1 -179.999800 -89.998760 -160.000200 -0.999998 0.000000 0.000000 0.000000 0.999979 0.000000 0.000000 0.000000 -0.999981 6558.dat
1 1 -179.999800 -89.998740 -199.999500 -0.999998 0.000000 0.000000 0.000000 0.999979 0.000000 0.000000 0.000000 -0.999981 6558.dat
1 15 -159.999800 -89.998760 -179.999800 0.000001 0.999998 0.000001 -0.999979 0.000001 -0.000001 -0.000001 -0.000001 0.999981 32316.dat
0 STEP
1 15 -199.999700 -89.998740 -179.999800 0.000001 0.999998 0.000001 -0.999979 0.000001 -0.000001 -0.000001 -0.000001 0.999981 32316.dat
1 15 -179.999800 -89.998740 -179.999800 0.000001 0.999998 0.000001 -0.999979 0.000001 -0.000001 -0.000001 -0.000001 0.999981 32316.dat
0 STEP
1 72 20.000000 -251.406100 -180.000000 0.000000 -1.000000 0.000000 0.000000 0.000000 1.000000 -1.000000 0.000000 0.000000 3647.dat
0 STEP
1 71 -40.000080 -275.285600 -180.000200 0.000000 -0.996195 0.087158 1.000000 0.000000 0.000000 0.000000 0.087158 0.996195 44294.dat
1 71 -40.000080 -317.275700 -180.000200 0.087158 0.996193 0.000000 0.000000 0.000000 0.999999 0.996195 -0.087158 0.000000 3649.dat
1 71 -39.999940 -250.825600 -180.000200 0.996193 -0.087158 0.000000 0.000000 0.000000 0.999999 -0.087158 -0.996195 0.000000 3649.dat
1 14 -40.000190 -210.285500 -180.000200 0.087158 -0.996193 0.000000 0.000000 0.000000 -0.999999 0.996195 0.087158 0.000000 32123a.dat
0 STEP
1 19 -69.014260 -327.275600 -167.423500 0.000001 0.087159 0.996194 0.999999 0.000001 -0.000001 -0.000001 0.996195 -0.087159 3749.dat
1 19 -70.757420 -327.275600 -187.347400 0.000001 0.087159 0.996194 0.999999 0.000001 -0.000001 -0.000001 0.996195 -0.087159 3749.dat
1 19 -10.985790 -327.275600 -192.576900 0.000001 0.087159 0.996194 0.999999 0.000001 -0.000001 -0.000001 0.996195 -0.087159 3749.dat
1 19 -9.242660 -327.275600 -172.653000 -0.000001 0.996193 -0.087159 0.999999 0.000001 -0.000001 -0.000001 -0.087159 -0.996195 3749.dat
1 19 -32.652900 -327.275600 -210.757700 0.000001 0.087159 0.996193 0.999999 0.000001 -0.000001 -0.000001 0.996195 -0.087159 3749.dat
1 19 -27.423380 -327.275600 -150.985900 0.000001 0.087159 0.996194 0.999999 0.000001 -0.000001 -0.000001 0.996195 -0.087159 3749.dat
0 STEP
1 4 -40.000040 -109.998500 -299.998200 0.000000 0.000001 -1.000000 0.000000 -1.000000 -0.000001 -1.000000 0.000000 0.000000 32034.dat
1 0 -40.000040 -109.998500 -289.998200 0.000000 0.000000 -1.000000 0.000000 1.000000 0.000000 1.000000 0.000000 0.000000 2780.dat
1 0 -40.000010 -189.996500 -249.999100 0.000000 0.000000 -1.000000 0.000000 1.000000 0.000000 1.000000 0.000000 0.000000 2780.dat
1 4 -40.000010 -189.996500 -259.999100 0.000000 0.000001 -1.000000 0.000000 -1.000000 -0.000001 -1.000000 0.000000 0.000000 32034.dat
0 STEP
0 STEP
0 NOFILE
0 FILE SubModel Group 9 Copy Copy Copy
0 SubModel Group 9 Copy Copy Copy
0 Name:  SubModel Group 9 Copy Copy Copy
0 Author:  
0 CustomBrick
0 NumOfBricks:  3
1 72 10.000000 -1.128810 -10.000000 1.000000 0.000000 0.000000 0.000000 0.000000 -1.000000 0.000000 1.000000 0.000000 dch003.dat
1 71 -27.466620 -79.717990 29.427020 1.000000 0.000000 0.000000 0.000000 0.000000 -1.000000 0.000000 1.000000 0.000000 dch004.dat
1 25 7.837010 13.484720 -9.965000 1.000000 0.000000 0.000000 0.000000 0.000000 -1.000000 0.000000 1.000000 0.000000 dch005.dat
0 NOFILE
