0 FILE 小狗.io
0 Untitled Model
0 Name:  小狗
0 Author:  
0 CustomBrick
0 NumOfBricks:  180
1 16 67.490220 -59.386310 -265.001100 -1.000000 0.000000 0.000000 0.000000 1.000000 0.000000 0.000000 0.000000 -1.000000 submodel group 9 copy copy copy
1 0 105.490000 -149.140600 -285.000400 0.000000 -1.000000 0.000000 0.000000 0.000000 1.000000 -1.000000 0.000000 0.000000 2780.dat
0 STEP
1 0 105.490200 -109.140600 -285.000900 0.000000 -1.000000 0.000000 0.000000 0.000000 1.000000 -1.000000 0.000000 0.000000 2780.dat
1 15 105.490200 -129.140600 -295.000900 1.000000 -0.000001 0.000001 -0.000001 -0.000001 1.000000 -0.000001 -1.000000 -0.000001 32524.dat
0 STEP
1 15 105.490300 -49.140640 -315.001100 1.000000 -0.000001 0.000001 -0.000001 -0.000001 1.000000 -0.000001 -1.000000 -0.000001 32316.dat
1 0 105.490200 -89.140620 -305.000900 0.000000 -1.000000 0.000000 0.000000 0.000000 1.000000 -1.000000 0.000000 0.000000 2780.dat
1 0 105.490200 -69.140620 -305.001100 0.000000 -1.000000 0.000000 0.000000 0.000000 1.000000 -1.000000 0.000000 0.000000 2780.dat
0 STEP
1 1 25.490300 -9.140719 -335.001200 0.000001 0.000001 1.000000 -1.000000 0.000001 0.000001 -0.000001 -1.000000 0.000001 32526.dat
1 0 105.490300 -9.140620 -325.001100 0.000000 -1.000000 0.000000 0.000000 0.000000 -1.000000 1.000000 0.000000 0.000000 2780.dat
1 0 105.490300 -49.140620 -325.001100 0.000000 -1.000000 0.000000 0.000000 0.000000 -1.000000 1.000000 0.000000 0.000000 2780.dat
0 STEP
1 4 105.490200 -189.140600 -295.000900 0.000001 -1.000000 0.000001 0.000001 0.000001 1.000000 -1.000000 -0.000001 0.000001 32054.dat
1 71 105.490200 -189.140600 -255.000900 0.000000 -1.000000 0.000000 0.000000 0.000000 1.000000 -1.000000 0.000000 0.000000 4519.dat
0 STEP
1 0 105.490000 -149.140600 -225.000500 0.000000 -1.000000 0.000000 0.000000 0.000000 -1.000001 1.000001 0.000000 0.000000 2780.dat
1 0 105.490000 -109.140600 -225.000500 0.000000 -1.000000 0.000000 0.000000 0.000000 -1.000001 1.000001 0.000000 0.000000 2780.dat
1 15 105.490000 -129.140600 -215.000200 1.000000 -0.000001 0.000001 -0.000001 -0.000001 1.000000 -0.000001 -1.000000 -0.000001 32524.dat
1 4 105.490000 -189.140600 -215.000000 -0.000001 1.000000 -0.000001 0.000001 0.000001 1.000000 1.000000 0.000001 -0.000001 32054.dat
0 STEP
1 15 105.490100 -49.140660 -195.000400 1.000000 -0.000001 0.000001 -0.000001 -0.000001 1.000000 -0.000001 -1.000000 -0.000001 32316.dat
1 0 105.490000 -89.140650 -205.000200 0.000000 -1.000000 0.000000 0.000000 0.000000 1.000000 -1.000000 0.000000 0.000000 2780.dat
1 0 105.490000 -69.140660 -205.000400 0.000000 -1.000000 0.000000 0.000000 0.000000 1.000000 -1.000000 0.000000 0.000000 2780.dat
0 STEP
1 1 25.489990 -9.140750 -175.000400 0.000001 0.000001 1.000000 -1.000000 0.000001 0.000001 -0.000001 -1.000000 0.000001 32526.dat
1 0 105.490100 -49.140670 -185.000400 0.000000 -1.000000 0.000000 0.000000 0.000000 -1.000000 1.000000 0.000000 0.000000 2780.dat
1 0 105.490100 -9.140670 -185.000400 0.000000 -1.000000 0.000000 0.000000 0.000000 -1.000000 1.000000 0.000000 0.000000 2780.dat
0 STEP
1 0 -94.510010 -109.140600 -285.000400 0.000000 0.000000 -1.000000 0.000000 1.000000 0.000000 1.000000 0.000000 0.000000 2780.dat
1 0 -94.510010 -149.140600 -285.000400 0.000000 0.000000 -1.000000 0.000000 1.000000 0.000000 1.000000 0.000000 0.000000 2780.dat
1 15 -94.510250 -149.000000 -294.000500 1.000000 -0.000001 0.000001 0.000001 0.000001 -1.000000 0.000001 1.000000 0.000001 64871.dat
0 STEP
1 4 -94.510120 -189.141700 -294.997500 0.000001 0.000001 1.000000 -0.000001 1.000002 -0.000001 -1.000002 -0.000001 0.000001 32054.dat
1 71 -94.510120 -189.141700 -254.997300 0.000000 0.000000 1.000000 0.000000 1.000002 0.000000 -1.000002 0.000000 0.000000 4519.dat
1 15 5.489990 -189.141600 -314.997700 0.000001 0.000001 -1.000000 -1.000000 0.000001 -0.000001 0.000001 1.000000 0.000001 64871.dat
0 STEP
1 1 -174.510300 -9.000080 -314.000700 0.000001 0.000001 1.000000 -1.000000 0.000001 0.000001 -0.000001 -1.000000 0.000001 32526.dat
1 0 -94.510310 -9.000000 -304.000700 0.000000 -1.000000 0.000000 0.000000 0.000000 -1.000000 1.000000 0.000000 0.000000 2780.dat
1 0 -94.510310 -48.999980 -304.000700 0.000000 -1.000000 0.000000 0.000000 0.000000 -1.000000 1.000000 0.000000 0.000000 2780.dat
0 STEP
1 0 -94.510010 -149.140600 -225.000400 0.000000 1.000000 0.000000 0.000000 0.000000 1.000002 1.000002 0.000000 0.000000 2780.dat
1 0 -94.510120 -109.140600 -225.000400 0.000000 1.000000 0.000000 0.000000 0.000000 1.000002 1.000002 0.000000 0.000000 2780.dat
1 0 -94.510250 -129.000000 -255.570600 0.000000 0.722969 0.690880 0.000000 0.690880 -0.722969 -1.000000 0.000000 0.000000 3707.dat
0 STEP
1 0 -94.510010 -289.000000 -284.000400 0.000000 0.000000 -1.000000 0.000000 1.000000 0.000000 1.000000 0.000000 0.000000 2780.dat
1 14 -88.711120 -239.871400 -265.774500 1.000000 0.000000 0.000000 0.000000 0.000000 -1.000000 0.000000 1.000000 0.000000 12344.dat
0 STEP
1 71 -94.509700 -249.140200 -253.239500 0.768286 0.640107 0.000001 0.640107 -0.768286 0.000001 0.000001 0.000000 -1.000000 3650c.dat
1 0 -94.509810 -249.140200 -252.919400 0.000000 -0.640107 0.768286 0.000000 0.768286 0.640107 -1.000000 0.000000 0.000000 3737.dat
0 STEP
1 71 -94.509810 -249.140200 -313.399400 0.768286 -0.640107 0.000000 0.640107 0.768286 0.000000 0.000000 0.000000 1.000000 3713.dat
1 72 -100.910900 -241.457300 -327.919400 -0.768286 -0.640107 0.000000 -0.640107 0.768286 0.000000 0.000000 0.000000 -1.000000 6575.dat
0 STEP
1 0 -94.509920 -289.140800 -225.000400 0.000000 1.000000 0.000000 0.000000 0.000000 1.000002 1.000002 0.000000 0.000000 2780.dat
1 14 -88.711000 -240.223800 -225.534600 1.000000 0.000000 0.000000 0.000000 0.000000 -1.000000 0.000000 1.000000 0.000000 12344.dat
0 STEP
1 4 -94.510010 -189.140700 -215.000400 0.000001 0.000001 1.000000 0.000001 -1.000002 0.000001 1.000002 0.000001 -0.000001 32054.dat
1 15 -94.509810 -149.140300 -214.999500 -1.000000 0.000000 -0.000001 -0.000001 -0.000001 1.000000 0.000001 1.000000 0.000001 64871.dat
0 STEP
1 1 -174.509900 -9.140400 -194.999500 0.000001 0.000001 1.000000 -1.000000 0.000001 0.000001 -0.000001 -1.000000 0.000001 32526.dat
1 0 -94.510010 -9.140300 -204.999200 0.000000 -1.000000 0.000000 0.000000 0.000000 -1.000000 1.000000 0.000000 0.000000 2780.dat
1 0 -94.509920 -49.140320 -204.999500 0.000000 -1.000000 0.000000 0.000000 0.000000 -1.000000 1.000000 0.000000 0.000000 2780.dat
0 STEP
1 71 -94.510120 -249.140600 -194.869600 0.768286 -0.640107 0.000000 0.640107 0.768286 0.000000 0.000000 0.000000 1.000000 3713.dat
1 72 -100.910900 -241.457300 -180.439500 -0.768286 -0.640107 0.000000 -0.640107 0.768286 0.000000 0.000000 0.000000 -1.000000 6575.dat
0 STEP
1 0 -134.510000 -189.141700 -304.997500 0.000000 0.000000 -1.000000 0.000000 1.000000 0.000000 1.000000 0.000000 0.000000 2780.dat
1 0 -114.510100 -189.141700 -304.997300 0.000000 0.000000 -1.000000 0.000000 1.000000 0.000000 1.000000 0.000000 0.000000 2780.dat
1 15 -214.510100 -189.141900 -294.997500 0.000001 0.000001 -1.000000 -0.999996 0.000001 -0.000001 0.000001 0.999996 0.000001 64290.dat
0 STEP
1 19 -194.510100 -189.141800 -304.997500 0.000001 -1.000000 0.000001 0.000001 0.000001 1.000001 -1.000001 -0.000001 0.000001 3749.dat
1 71 -194.509600 -189.141800 -314.995500 -1.000000 -0.000001 0.000001 -0.000001 0.000001 -0.999995 0.000001 -0.999995 -0.000001 60483.dat
0 STEP
1 0 -194.510100 -209.141800 -304.997600 0.000000 0.000000 -1.000000 0.000000 1.000001 0.000000 1.000001 0.000000 0.000000 2780.dat
1 19 -134.509900 -209.141600 -284.997600 -0.000001 1.000000 -0.000001 0.000001 0.000001 1.000000 1.000000 0.000001 -0.000001 3749.dat
1 15 -174.509900 -209.141700 -294.997600 0.000001 0.000001 -1.000000 -1.000000 0.000001 -0.000001 0.000001 1.000000 0.000001 32316.dat
0 STEP
1 4 -134.509900 -209.141600 -254.997700 0.000000 -1.000000 0.000000 -1.000000 0.000000 0.000000 0.000000 0.000000 -1.000000 32034.dat
1 14 -134.507900 -224.141600 -254.997500 -0.080205 -0.996782 0.000000 0.000000 0.000000 -1.000001 0.996783 -0.080205 0.000000 32123a.dat
1 0 -134.510100 -259.141600 -254.997700 0.000000 0.996779 -0.080205 -1.000000 0.000000 0.000000 0.000000 0.080205 0.996779 3706.dat
0 STEP
1 14 -134.507800 -274.141700 -254.997500 -0.080205 -0.996782 0.000000 0.000000 0.000000 -1.000000 0.996779 -0.080205 0.000000 32123a.dat
1 71 -134.507700 -249.031700 -254.997500 -0.080205 0.996782 0.000000 0.000000 0.000000 1.000000 0.996778 0.080205 0.000000 4716.dat
0 STEP
1 0 -154.510200 -299.141600 -254.997700 0.000000 -1.000000 0.000000 -1.000000 0.000000 0.000000 0.000000 0.000000 -1.000000 2780.dat
1 4 -154.510200 -289.141600 -254.997700 0.000000 1.000000 0.000000 0.000000 0.000000 1.000000 1.000000 0.000000 0.000000 42003.dat
0 STEP
1 71 -134.510200 -299.141600 -254.997700 0.000000 1.000000 0.000000 0.000000 0.000000 -1.000000 -1.000000 0.000000 0.000000 58120.dat
0 STEP
1 1 -104.510200 -359.141600 -244.997700 0.000000 1.000003 0.000000 1.000003 0.000000 0.000000 0.000000 0.000000 -1.000000 3894.dat
1 1 -104.509300 -359.141600 -264.997700 0.000000 1.000000 0.000000 1.000000 0.000000 0.000000 0.000000 0.000000 -1.000000 3894.dat
0 STEP
1 0 -74.510010 -299.084100 -235.000400 0.000000 1.000000 0.000000 1.000000 0.000000 0.000000 0.000000 0.000000 -1.000000 2780.dat
1 0 -74.510010 -299.243900 -275.000400 0.000000 1.000000 0.000000 1.000000 0.000000 0.000000 0.000000 0.000000 -1.000000 2780.dat
1 15 -74.510010 -309.243800 -255.000400 1.000000 -0.000001 0.000001 -0.000001 -1.000000 -0.000001 0.000001 0.000001 -1.000000 32316.dat
0 STEP
1 0 -74.510010 -319.243800 -215.000300 0.000000 0.000000 -1.000000 1.000000 0.000000 0.000000 0.000000 -1.000000 0.000000 2780.dat
1 0 -74.509920 -319.243900 -295.000300 0.000000 0.000000 -1.000000 1.000000 0.000000 0.000000 0.000000 -1.000000 0.000000 2780.dat
1 15 -74.510010 -329.243900 -255.000300 -1.000000 0.000001 -0.000001 -0.000001 -1.000000 -0.000001 -0.000001 -0.000001 1.000000 64290.dat
0 STEP
1 15 -174.510000 -229.141700 -274.997500 1.000000 -0.000001 0.000001 -0.000001 -0.000001 1.000000 -0.000001 -1.000000 -0.000001 32524.dat
1 0 -174.509900 -209.141700 -284.997600 0.000000 0.000000 -1.000000 0.000000 1.000000 0.000000 1.000000 0.000000 0.000000 2780.dat
0 STEP
1 0 -174.509900 -189.141700 -254.997700 0.000000 -0.123602 0.992332 0.000000 0.992332 0.123602 -1.000000 0.000000 0.000000 15462.dat
1 71 -174.510000 -249.141700 -256.997500 0.000000 0.000000 1.000000 0.000000 1.000000 0.000000 -1.000000 0.000000 0.000000 32073.dat
0 STEP
1 15 -174.509900 -229.141600 -234.057500 1.000000 -0.000001 0.000001 -0.000001 -0.000001 1.000000 -0.000001 -1.000000 -0.000001 32524.dat
1 72 -174.509900 -189.141700 -254.997900 0.992332 -0.123602 0.000000 0.123602 0.992332 0.000000 0.000000 0.000000 1.000000 3648b.dat
1 71 -174.510000 -249.141700 -252.997500 -1.000000 0.000000 -0.000001 0.000000 1.000000 0.000000 0.000001 0.000000 -1.000000 3650c.dat
0 STEP
1 71 -234.509900 -189.141800 -274.997700 1.000000 0.000000 0.000001 0.000000 1.000000 0.000000 -0.000001 0.000000 1.000000 3713.dat
1 0 -234.509900 -189.141800 -254.997700 0.000000 0.000000 1.000000 0.000000 1.000000 0.000000 -1.000000 0.000000 0.000000 15462.dat
0 STEP
1 0 -254.510100 -189.141900 -284.997400 0.000000 0.000000 -1.000000 0.000000 -1.000000 0.000000 -1.000000 0.000000 0.000000 2780.dat
1 19 -254.510100 -209.141900 -284.997400 -0.000001 0.700909 0.713251 -0.000001 0.713251 -0.700909 -1.000000 -0.000002 0.000000 3749.dat
1 1 -314.510100 -189.142000 -274.997500 0.000001 0.000001 1.000000 -1.000000 0.000001 0.000001 -0.000001 -1.000000 0.000001 32140.dat
0 STEP
1 72 -234.509900 -189.141800 -254.997700 0.000000 -1.000000 0.000000 1.000000 0.000000 0.000000 0.000000 0.000000 1.000000 3648b.dat
1 71 -234.509900 -189.141800 -234.997700 1.000000 0.000000 0.000001 0.000000 1.000000 0.000000 -0.000001 0.000000 1.000000 3713.dat
0 STEP
1 72 -274.510000 -189.141900 -255.127500 0.319694 -0.947521 0.000000 0.947520 0.319694 0.000000 0.000000 0.000000 1.000000 3647.dat
1 0 -274.510000 -189.141700 -255.477500 0.000000 0.319694 0.947521 0.000000 0.947521 -0.319694 -1.000000 0.000000 0.000000 3707.dat
0 STEP
1 71 -314.510100 -189.142000 -254.997500 1.000000 0.000000 0.000001 0.000000 1.000000 0.000000 -0.000001 0.000000 1.000000 3713.dat
1 71 -314.510100 -189.142000 -254.997500 0.000000 0.000000 1.000000 0.000000 1.000000 0.000000 -1.000000 0.000000 0.000000 32073.dat
0 STEP
1 19 -254.510100 -209.141900 -224.997500 -0.000001 0.700908 -0.713252 0.000001 0.713252 0.700908 1.000000 0.000000 -0.000001 3749.dat
1 0 -254.510100 -189.141900 -224.997500 0.000000 0.000000 -1.000000 0.000000 1.000000 0.000000 1.000000 0.000000 0.000000 2780.dat
1 1 -314.510100 -189.142000 -234.997600 0.000001 0.000001 1.000000 -1.000000 0.000001 0.000001 -0.000001 -1.000000 0.000001 32140.dat
0 STEP
1 15 -214.510100 -189.141800 -214.997700 0.000001 0.000001 -1.000000 -1.000000 0.000001 -0.000001 0.000001 1.000000 0.000001 64290.dat
1 0 -114.510100 -189.141700 -204.997700 0.000000 0.000000 -1.000000 0.000000 1.000000 0.000000 1.000000 0.000000 0.000000 2780.dat
1 0 -134.510100 -189.141700 -204.997700 0.000000 0.000000 -1.000000 0.000000 1.000000 0.000000 1.000000 0.000000 0.000000 2780.dat
0 STEP
1 1 -254.510100 -209.141800 -214.997600 0.700909 0.000001 0.713251 0.713251 0.000000 -0.700909 -0.000001 1.000000 -0.000001 32271.dat
1 0 -174.510100 -289.141700 -255.657500 0.000000 0.000000 1.000000 0.000000 1.000000 0.000000 -1.000000 0.000000 0.000000 3737.dat
1 1 -254.510200 -209.141900 -294.997400 0.700908 0.000002 0.713252 0.713252 -0.000001 -0.700908 -0.000001 1.000000 -0.000002 32271.dat
0 STEP
1 14 -174.510200 -289.141700 -200.177300 0.000000 1.000000 0.000000 1.000000 0.000000 0.000000 0.000000 0.000000 -1.000000 32123a.dat
1 14 -174.510100 -289.141700 -310.397300 0.000000 1.000000 0.000000 1.000000 0.000000 0.000000 0.000000 0.000000 -1.000000 32123a.dat
0 STEP
1 16 274.889300 -171.097700 -254.999500 0.819153 0.573575 0.000000 -0.573575 0.819153 0.000000 0.000000 0.000000 1.000000 submodel group
0 STEP
1 15 5.489900 -189.141600 -194.997700 0.000001 0.000001 -1.000000 -1.000000 0.000001 -0.000001 0.000001 1.000000 0.000001 64871.dat
0 STEP
1 19 -134.509900 -209.141600 -224.997700 -0.000001 1.000000 -0.000001 -0.000001 -0.000001 -1.000000 -1.000000 -0.000001 0.000001 3749.dat
1 0 -174.509900 -209.141600 -224.057500 0.000000 0.000000 -1.000000 0.000000 1.000000 0.000000 1.000000 0.000000 0.000000 2780.dat
1 15 -174.509900 -209.141600 -214.997600 0.000001 0.000001 -1.000000 -1.000000 0.000001 -0.000001 0.000001 1.000000 0.000001 32316.dat
0 STEP
1 0 -194.510100 -209.141700 -204.997600 0.000000 0.000000 -1.000002 0.000000 1.000003 0.000000 1.000001 0.000000 0.000000 2780.dat
1 19 -194.510200 -189.141600 -204.997600 -0.000001 1.000001 -0.000001 0.000001 0.000001 1.000003 1.000001 0.000001 -0.000001 3749.dat
1 71 -194.509400 -189.141600 -194.997300 -1.000000 -0.000001 0.000001 -0.000001 0.000001 -1.000000 0.000001 -1.000000 -0.000001 60483.dat
0 STEP
1 14 -274.510000 -189.141900 -200.417500 0.947521 -0.319694 0.000000 -0.319694 -0.947521 0.000000 0.000000 0.000000 -1.000000 32123a.dat
1 71 -94.510270 -129.000000 -200.350600 -0.690880 0.722969 0.000000 0.722969 0.690880 0.000000 0.000000 0.000000 -1.000000 4185.dat
1 15 -276.000500 -188.935000 -200.920000 0.000000 -1.000000 0.000000 -1.000000 0.000000 0.000000 0.000000 0.000000 -1.000000 xpj0112.dat.dat
0 STEP
1 19 -122.145300 -100.081300 -175.570600 -0.000002 0.690879 -0.722970 0.000000 -0.722970 -0.690879 -1.000000 -0.000001 0.000001 3749.dat
1 1 -108.327700 -114.540700 -185.570600 0.000000 -0.690880 0.722969 0.000000 0.722969 0.690880 -1.000000 0.000000 0.000000 32184.dat
1 71 -274.509900 -189.141900 -185.477500 -0.319694 0.000000 -0.947521 -0.947521 -0.000001 0.319694 -0.000001 1.000000 0.000000 60483.dat
0 STEP
1 14 158.610900 -100.665900 -149.998400 0.819153 -0.573575 0.000000 -0.573575 -0.819153 0.000000 0.000000 0.000000 -1.000000 32123a.dat
1 15 18.610900 -100.666000 -165.058400 0.000001 0.000001 -1.000000 -1.000000 0.000001 -0.000001 0.000001 1.000000 0.000001 64871.dat
0 STEP
1 14 -274.510000 -189.141900 -309.787400 0.319694 0.947521 0.000000 0.947521 -0.319694 0.000000 0.000000 0.000000 -1.000000 32123a.dat
1 71 -94.510250 -129.000100 -310.430700 -0.690880 0.722969 0.000000 0.722969 0.690880 0.000000 0.000000 0.000000 -1.000000 4185.dat
1 15 -276.000000 -188.935000 -311.000000 0.000000 -1.000000 0.000000 -1.000000 0.000000 0.000000 0.000000 0.000000 -1.000000 xpj0112.dat.dat
0 STEP
1 19 -122.145300 -100.081300 -335.570600 0.000000 0.690881 0.722969 0.000001 -0.722969 0.690881 1.000000 0.000001 -0.000001 3749.dat
1 1 -108.327700 -114.540700 -325.570600 0.000000 -0.690880 0.722969 0.000000 0.722969 0.690880 -1.000000 0.000000 0.000000 32184.dat
1 71 -274.510100 -189.141800 -325.477400 -0.319694 0.000000 -0.947521 -0.947521 -0.000001 0.319694 -0.000001 1.000000 0.000000 60483.dat
0 STEP
1 14 158.610300 -100.666600 -360.090500 0.819153 -0.573575 0.000000 -0.573575 -0.819153 0.000000 0.000000 0.000000 -1.000000 32123a.dat
1 15 18.610290 -100.666700 -345.050500 0.000001 0.000001 -1.000000 -1.000000 0.000001 -0.000001 0.000001 1.000000 0.000001 64871.dat
0 STEP
1 1 -274.510400 -299.141700 -185.297200 -1.000000 0.000000 0.000000 0.000000 1.000000 0.000000 0.000000 0.000000 -1.000000 3895.dat
1 0 -174.510100 -289.141700 -145.657500 1.000000 0.000002 0.000002 -0.000002 1.000000 0.000002 -0.000002 -0.000002 1.000000 32013.dat
0 STEP
1 71 -293.360600 -183.810500 -175.297200 0.000000 -0.133221 -0.991086 0.000000 0.991086 -0.133221 1.000000 0.000000 0.000000 3673.dat
1 19 -374.510500 -289.141700 -175.297300 -0.000001 0.859849 0.510548 0.000001 -0.510548 0.859849 1.000000 0.000002 0.000000 3749.dat
1 1 -374.510500 -289.141800 -165.297300 0.859850 0.000002 0.510547 -0.510547 0.000000 0.859850 0.000002 -1.000000 0.000001 32271.dat
0 STEP
1 1 -274.510100 -299.141700 -325.297400 -1.000000 0.000000 0.000000 0.000000 1.000000 0.000000 0.000000 0.000000 -1.000000 3895.dat
1 0 -174.510100 -289.141800 -365.657500 1.000000 0.000002 0.000002 0.000002 -1.000000 -0.000002 0.000002 0.000002 -1.000000 32013.dat
0 STEP
1 71 -293.460600 -182.747900 -335.477400 0.000000 -0.013187 -0.999913 0.000000 0.999913 -0.013187 1.000000 0.000000 0.000000 3673.dat
1 19 -374.610600 -288.079300 -335.477600 0.000001 -0.510548 -0.859850 0.000001 -0.859850 0.510548 -1.000000 -0.000001 -0.000001 3749.dat
1 1 -374.610600 -288.079300 -345.477600 0.859850 0.000002 0.510547 -0.510547 0.000000 0.859850 0.000002 -1.000000 0.000001 32271.dat
0 STEP
1 1 -374.510800 -275.141700 -255.297200 0.000000 0.000000 -1.000000 0.000000 1.000000 0.000000 1.000000 0.000000 0.000000 3738.dat
1 1 -384.510900 -299.141700 -275.297300 0.000000 0.000000 1.000000 0.000000 1.000000 0.000000 -1.000000 0.000000 0.000000 3700.dat
0 STEP
1 1 -364.510800 -299.141700 -255.297300 0.000000 0.000000 1.000000 0.000000 1.000000 0.000000 -1.000000 0.000000 0.000000 3701.dat
1 1 -384.510900 -299.141700 -235.297400 0.000000 0.000000 1.000000 0.000000 1.000000 0.000000 -1.000000 0.000000 0.000000 3700.dat
0 STEP
1 1 -334.510500 -307.141700 -255.297300 0.000000 0.000000 1.000000 0.000000 1.000000 0.000000 -1.000000 0.000000 0.000000 3738.dat
1 1 -374.510500 -307.141700 -255.297300 0.000000 0.000000 1.000001 0.000000 1.000000 0.000000 -1.000001 0.000000 0.000000 3738.dat
0 STEP
1 1 -384.510500 -315.141700 -255.297400 0.000000 0.000000 1.000000 0.000000 1.000000 0.000000 -1.000000 0.000000 0.000000 3710.dat
1 15 -364.509300 -331.141700 -185.296500 0.000000 0.000000 1.000000 0.000000 1.000000 0.000000 -1.000000 0.000000 0.000000 3040b.dat
1 15 -364.510500 -331.141700 -205.297300 0.000000 0.000000 1.000003 0.000000 1.000000 0.000000 -1.000003 0.000000 0.000000 3040b.dat
1 15 -354.510500 -331.141700 -255.297400 0.000000 0.000000 1.000000 0.000000 1.000000 0.000000 -1.000000 0.000000 0.000000 3001.dat
0 STEP
1 15 -384.510500 -323.141700 -255.297300 0.000000 0.000000 1.000000 0.000000 1.000000 0.000000 -1.000000 0.000000 0.000000 2431.dat
1 15 -364.510500 -331.141700 -325.298200 0.000000 0.000000 1.000002 0.000000 1.000000 0.000000 -1.000002 0.000000 0.000000 3040b.dat
1 15 -364.510500 -331.141700 -305.297500 0.000000 0.000000 1.000000 0.000000 1.000000 0.000000 -1.000000 0.000000 0.000000 3040b.dat
0 STEP
1 0 -74.510140 -436.494000 -175.000300 0.000000 1.000000 0.000000 0.000000 0.000000 -1.000000 -1.000000 0.000000 0.000000 32014.dat
1 71 -74.510140 -355.194000 -175.000300 0.000000 1.000000 0.000000 1.000000 0.000000 0.000000 0.000000 0.000000 -1.000000 44294.dat
1 72 -74.510800 -290.194500 -175.000300 -1.000004 0.000001 -0.000001 -0.000001 -1.000004 -0.000001 -0.000001 -0.000001 1.000000 32250.dat
1 71 -114.510100 -436.494000 -175.000300 -1.000000 0.000000 0.000000 0.000000 0.000000 1.000000 0.000000 1.000000 0.000000 4519.dat
0 STEP
1 71 -114.509900 -436.003800 -335.000000 -1.000000 0.000000 0.000000 0.000000 0.000000 1.000000 0.000000 1.000000 0.000000 4519.dat
1 0 -74.509920 -436.003800 -335.000200 0.000000 1.000000 0.000000 0.000000 0.000000 -1.000000 -1.000000 0.000000 0.000000 32014.dat
1 72 -74.509200 -289.733900 -334.997300 -1.000000 0.000001 -0.000001 0.000001 1.000000 0.000001 0.000001 0.000001 -1.000000 32250.dat
1 71 -74.509920 -354.733800 -335.000200 0.000000 -1.000000 0.000000 1.000000 0.000000 0.000000 0.000000 0.000000 1.000000 44294.dat
0 STEP
1 0 -74.509920 -436.003800 -257.200100 0.000000 0.000000 1.000000 0.000000 1.000000 0.000000 -1.000000 0.000000 0.000000 3708.dat
1 71 -74.509920 -436.003800 -355.330500 0.000000 1.000000 0.000000 -1.000000 0.000000 -0.000001 -0.000001 0.000000 1.000000 94925.dat
1 71 -74.509920 -436.003800 -155.200300 0.000000 1.000000 0.000000 -1.000000 0.000000 -0.000001 -0.000001 0.000000 1.000000 94925.dat
0 STEP
1 71 -126.000000 -436.003800 -335.000000 0.000000 0.000000 -1.000000 -1.000000 0.000000 0.000000 0.000000 1.000000 0.000000 56145.dat
1 71 -125.360100 -436.494100 -175.000300 0.000000 0.000000 -1.000000 -1.000000 0.000000 0.000000 0.000000 1.000000 0.000000 56145.dat
0 STEP
0 STEP
0 NOFILE
0 FILE SubModel Group 9 Copy Copy Copy
0 SubModel Group 9 Copy Copy Copy
0 Name:  SubModel Group 9 Copy Copy Copy
0 Author:  
0 CustomBrick
0 NumOfBricks:  3
1 72 10.000000 -1.128810 -10.000000 1.000000 0.000000 0.000000 0.000000 0.000000 -1.000000 0.000000 1.000000 0.000000 dch003.dat
1 71 -27.466620 -79.717990 29.427020 1.000000 0.000000 0.000000 0.000000 0.000000 -1.000000 0.000000 1.000000 0.000000 dch004.dat
1 25 7.837010 13.484720 -9.965000 1.000000 0.000000 0.000000 0.000000 0.000000 -1.000000 0.000000 1.000000 0.000000 dch005.dat
0 NOFILE
0 FILE SubModel Group
0 SubModel Group
0 Name:  SubModel Group
0 Author:  
0 CustomBrick
0 NumOfBricks:  17
1 1 184.354400 -29.000060 -0.000310 0.000000 -1.000008 0.000000 0.000000 0.000000 1.000000 -1.000008 0.000000 0.000000 6558.dat
1 1 184.354200 -49.000060 -0.000310 0.000000 -1.000008 0.000000 0.000000 0.000000 1.000000 -1.000008 0.000000 0.000000 6558.dat
1 1 184.354200 -89.000070 20.000060 0.000000 0.000000 1.000008 1.000000 0.000000 0.000000 0.000000 1.000008 0.000000 32009.dat
0 STEP
1 1 184.354300 -69.000060 -0.000430 -1.000008 0.000001 0.000001 0.000001 0.000001 1.000000 0.000001 1.000008 -0.000001 32140.dat
1 1 184.354500 -89.000060 -20.000430 0.000000 -0.000001 1.000008 1.000000 0.000000 0.000000 0.000000 1.000008 0.000001 32009.dat
0 STEP
1 71 24.352780 -89.000030 -0.000180 -1.000008 0.000000 -0.000001 0.000000 1.000000 0.000000 0.000001 0.000000 -1.000008 3713.dat
1 71 24.353520 -89.000060 -0.000310 0.000000 0.000000 -1.000008 0.000000 1.000000 0.000000 1.000008 0.000000 0.000000 32073.dat
0 STEP
1 71 -95.647720 -89.000060 50.000800 0.000000 0.000000 1.000008 0.000000 1.000000 0.000000 -1.000008 0.000000 0.000000 3673.dat
1 1 -135.647900 -89.000040 40.000550 0.000000 0.000000 -1.000008 1.000000 -0.000001 0.000000 -0.000001 -1.000008 0.000000 32009.dat
0 STEP
1 0 -135.647900 -9.000000 70.000850 0.000000 0.000000 -1.000008 0.000000 1.000000 0.000000 1.000008 0.000000 0.000000 3705.dat
1 71 -135.647900 -9.000030 60.000740 -1.000008 0.000000 -0.000001 0.000000 1.000000 0.000000 0.000001 0.000000 -1.000008 3713.dat
1 14 -135.647900 -9.000000 75.000920 1.000008 0.000000 0.000000 0.000000 -1.000000 0.000000 0.000000 0.000000 -1.000008 32123a.dat
0 STEP
1 71 -95.648440 -89.000930 -49.998360 0.000000 0.000000 1.000000 0.000000 1.000000 0.000000 -1.000000 0.000000 0.000000 3673.dat
1 1 -135.647900 -89.000910 -40.000800 0.000000 0.000000 -1.000008 1.000000 0.000000 0.000000 0.000000 -1.000008 0.000000 32009.dat
0 STEP
1 0 -135.647900 -9.000919 -70.000920 0.000000 0.000000 -1.000008 0.000000 1.000000 0.000000 1.000008 0.000000 0.000000 3705.dat
1 71 -135.647900 -9.000919 -60.000860 -1.000008 0.000000 -0.000001 0.000000 1.000000 0.000000 0.000001 0.000000 -1.000008 3713.dat
1 14 -135.648500 -9.000919 -75.001160 1.000007 0.000000 0.000000 0.000000 -1.000000 0.000000 0.000000 0.000000 -1.000007 32123a.dat
0 STEP
0 NOFILE
