0 FILE 稻草人.io
0 Untitled Model
0 Name:  稻草人
0 Author:  
0 CustomBrick
0 NumOfBricks:  64
1 1 -119.999900 -48.000030 -70.000140 1.000000 0.000000 0.000000 0.000000 1.000000 0.000000 0.000000 0.000000 1.000000 3702.dat
1 1 -179.999900 -56.000120 -70.000020 1.000000 0.000000 0.000000 0.000000 1.000000 0.000000 0.000000 0.000000 1.000000 3023.dat
1 1 -59.999940 -56.000120 -70.000020 1.000000 0.000000 0.000000 0.000000 1.000000 0.000000 0.000000 0.000000 1.000000 3023.dat
0 STEP
1 1 -119.999900 -88.000110 -70.000020 1.000000 0.000000 0.000000 0.000000 1.000000 0.000000 0.000000 0.000000 1.000000 3702.dat
1 1 -179.999900 -64.000120 -70.000020 1.000000 0.000000 0.000000 0.000000 1.000000 0.000000 0.000000 0.000000 1.000000 3023.dat
1 1 -59.999920 -64.000120 -70.000020 1.000000 0.000000 0.000000 0.000000 1.000000 0.000000 0.000000 0.000000 1.000000 3023.dat
0 STEP
1 15 -120.000100 -178.000200 -49.999320 1.000000 -0.000001 0.000001 -0.000001 -0.000001 1.000000 -0.000001 -1.000000 -0.000001 64871.dat
1 1 -119.999900 -38.000030 -50.000180 0.000000 0.000000 -1.000000 0.000000 1.000002 0.000000 1.000002 0.000000 0.000000 6558.dat
1 1 -119.999900 -78.000110 -50.000060 0.000000 0.000000 -1.000000 0.000000 1.000002 0.000000 1.000002 0.000000 0.000000 6558.dat
0 STEP
1 1 -119.999900 -48.000040 -29.999990 1.000000 0.000000 0.000000 0.000000 1.000002 0.000000 0.000000 0.000000 1.000002 3702.dat
0 STEP
1 1 -180.000000 -56.000060 -29.999990 1.000000 0.000000 0.000000 0.000000 1.000002 0.000000 0.000000 0.000000 1.000002 3023.dat
1 1 -59.999940 -56.000060 -29.999990 1.000000 0.000000 0.000000 0.000000 1.000002 0.000000 0.000000 0.000000 1.000002 3023.dat
0 STEP
1 1 -180.000000 -64.000060 -29.999990 1.000000 0.000000 0.000000 0.000000 1.000002 0.000000 0.000000 0.000000 1.000002 3023.dat
1 1 -59.999920 -64.000060 -29.999990 1.000000 0.000000 0.000000 0.000000 1.000002 0.000000 0.000000 0.000000 1.000002 3023.dat
0 STEP
1 1 -119.999900 -88.000110 -29.999990 1.000000 0.000000 0.000000 0.000000 1.000002 0.000000 0.000000 0.000000 1.000002 3702.dat
0 STEP
1 1 -169.999900 -24.000000 -39.999990 0.000000 0.000000 1.000000 0.000000 1.000000 0.000000 -1.000000 0.000000 0.000000 3703.dat
1 1 -69.999860 -24.000030 -40.000230 0.000000 0.000000 1.000000 0.000000 1.000000 0.000000 -1.000000 0.000000 0.000000 3703.dat
0 STEP
1 0 -139.999900 -38.000030 -19.999980 0.000000 -1.000000 0.000000 0.000000 0.000000 -1.000000 1.000000 0.000000 0.000000 2780.dat
1 0 -99.999910 -38.000030 -19.999980 0.000000 -1.000000 0.000000 0.000000 0.000000 -1.000000 1.000000 0.000000 0.000000 2780.dat
0 STEP
1 16 -130.018000 -7.039350 27.486620 0.000000 0.000000 -1.000000 0.000000 1.000000 0.000000 1.000000 0.000000 0.000000 submodel group 9 copy copy copy
0 STEP
1 0 -120.000200 -118.000100 -59.998920 0.000000 1.000000 0.000000 0.000000 0.000000 1.000000 1.000000 0.000000 0.000000 2780.dat
1 0 -120.000000 -158.000200 -59.999280 0.000000 1.000000 0.000000 0.000000 0.000000 1.000000 1.000000 0.000000 0.000000 2780.dat
0 STEP
1 71 -120.000000 -138.000200 -50.909360 0.000000 -1.000000 0.000000 0.000000 0.000000 1.000000 -1.000000 0.000000 0.000000 4519.dat
1 72 -120.000000 -138.000200 -30.909350 -1.000000 0.000000 0.000000 0.000000 1.000000 0.000000 0.000000 0.000000 -1.000000 3647.dat
0 STEP
1 19 -120.000100 -178.000200 -39.999260 -0.000001 0.921185 -0.389124 0.000001 0.389124 0.921185 1.000000 0.000001 -0.000001 3749.dat
1 71 -120.000200 -178.000200 -31.999200 -0.389124 -0.921186 0.000000 0.921186 -0.389123 0.000001 -0.000001 0.000000 1.000000 3650c.dat
0 STEP
1 71 -120.000000 -238.000200 -50.169240 0.000000 1.000000 0.000000 0.000000 0.000000 1.000000 1.000000 0.000000 0.000000 4519.dat
1 72 -120.000000 -238.000100 -30.329210 1.000000 0.000000 0.000000 0.000000 1.000000 0.000000 0.000000 0.000000 1.000000 3648b.dat
0 STEP
1 71 -120.000100 -238.000200 -70.169200 1.000000 0.000000 0.000000 0.000000 -1.000000 0.000000 0.000000 0.000000 -1.000000 3649.dat
0 STEP
1 15 -120.000000 -358.000200 -29.998950 1.000000 -0.000001 0.000001 0.000001 0.000001 -1.000000 0.000001 1.000000 0.000001 32524.dat
1 0 -120.000000 -318.000200 -39.999010 0.000000 -1.000000 0.000000 0.000000 0.000000 -1.000000 1.000000 0.000000 0.000000 2780.dat
1 0 -120.000200 -298.000200 -39.999200 0.000000 -1.000000 0.000000 0.000000 0.000000 -1.000000 1.000000 0.000000 0.000000 2780.dat
0 STEP
1 0 -119.999900 -418.000200 -39.998950 0.000000 0.000000 -1.000000 0.000000 1.000000 0.000000 1.000000 0.000000 0.000000 2780.dat
1 0 -120.000000 -378.000200 -39.998890 0.000000 0.000000 -1.000000 0.000000 1.000000 0.000000 1.000000 0.000000 0.000000 2780.dat
0 STEP
1 15 -119.999900 -418.000200 -49.999020 1.000000 -0.000001 0.000001 0.000001 0.000001 -1.000000 0.000001 1.000000 0.000001 32316.dat
1 71 -119.999900 -458.000200 -59.998980 0.000000 0.000000 -1.000000 0.000000 1.000000 0.000000 1.000000 0.000000 0.000000 3673.dat
0 STEP
1 16 -124.839100 -337.873900 -103.815100 0.579281 0.815128 0.000000 -0.815128 0.579281 0.000000 0.000000 0.000000 1.000000 submodel group 1
0 STEP
1 71 -90.000060 -248.000200 -80.169140 0.000000 0.000000 -1.000000 0.000000 1.000000 0.000000 1.000000 0.000000 0.000000 3673.dat
1 71 -38.487100 -400.072100 -79.999100 0.000000 0.062781 -0.998028 0.000000 0.998027 0.062781 1.000000 0.000000 0.000000 3673.dat
0 STEP
1 15 -119.957000 -137.740900 -61.028060 -1.000000 0.000000 0.000000 0.000000 1.000000 0.000000 0.000000 0.000000 -1.000000 dx0067.dat.dat
1 15 -64.400750 -324.385200 -89.999140 0.946084 0.000001 0.323921 0.323921 0.000000 -0.946083 -0.000001 1.000000 0.000000 40490.dat
0 STEP
0 STEP
0 NOFILE
0 FILE SubModel Group 9 Copy Copy Copy
0 SubModel Group 9 Copy Copy Copy
0 Name:  SubModel Group 9 Copy Copy Copy
0 Author:  
0 CustomBrick
0 NumOfBricks:  3
1 72 10.000000 -1.128810 -10.000000 1.000000 0.000000 0.000000 0.000000 0.000000 -1.000000 0.000000 1.000000 0.000000 dch003.dat
1 71 -27.466620 -79.717990 29.427020 1.000000 0.000000 0.000000 0.000000 0.000000 -1.000000 0.000000 1.000000 0.000000 dch004.dat
1 25 7.837010 13.484720 -9.965000 1.000000 0.000000 0.000000 0.000000 0.000000 -1.000000 0.000000 1.000000 0.000000 dch005.dat
0 NOFILE
0 FILE SubModel Group 1
0 SubModel Group 1
0 Name:  SubModel Group 1
0 Author:  
0 CustomBrick
0 NumOfBricks:  22
1 15 100.721700 -105.642400 33.816100 1.000000 0.000000 0.000000 0.000000 0.000001 -1.000000 -0.000001 1.000000 0.000001 64871.dat
0 STEP
1 0 100.721000 -145.642300 23.817080 0.000001 -0.999987 0.005239 0.000001 -0.005243 -0.999984 1.000003 0.000002 0.000001 2780.dat
1 0 100.616200 -125.641800 23.818960 0.000001 -0.999987 0.005239 0.000001 -0.005243 -0.999984 1.000003 0.000002 0.000001 2780.dat
0 STEP
1 72 100.825900 -165.641400 18.818600 0.999987 -0.000001 -0.005239 0.005243 -0.000001 0.999984 -0.000002 -1.000003 -0.000001 99773.dat
1 72 100.825900 -165.641400 8.818600 0.999987 -0.000001 -0.005239 0.005243 -0.000001 0.999984 -0.000002 -1.000003 -0.000001 99773.dat
0 STEP
1 19 140.825500 -165.432000 3.818770 0.000003 -0.999988 0.005240 0.000000 -0.005245 -0.999983 1.000002 0.000003 0.000000 3749.dat
1 19 60.826160 -165.851100 3.818930 0.000003 -0.999988 0.005240 0.000000 -0.005245 -0.999983 1.000002 0.000003 0.000000 3749.dat
0 STEP
1 19 101.245100 -245.640700 23.817420 -0.000003 0.005238 -0.999988 0.000000 -0.999983 -0.005242 -1.000003 0.000000 0.000003 3749.dat
1 71 101.245200 -245.640800 13.817370 -0.005239 0.999987 -0.000001 0.999984 0.005243 -0.000001 -0.000001 -0.000002 -1.000003 3649.dat
0 STEP
1 19 131.297000 -255.483400 3.817250 0.000001 -0.999987 -0.005243 0.000001 -0.005246 0.999983 -1.000003 -0.000001 0.000000 3749.dat
1 19 131.192300 -235.483800 3.817260 0.000001 -0.999987 -0.005243 0.000001 -0.005246 0.999983 -1.000002 -0.000001 0.000000 3749.dat
0 STEP
1 19 71.297660 -255.797800 3.817330 0.000001 -0.999987 -0.005243 0.000001 -0.005246 0.999983 -1.000002 -0.000001 0.000000 3749.dat
1 19 71.192880 -235.798200 3.817520 0.000001 -0.999987 -0.005243 0.000001 -0.005246 0.999983 -1.000002 -0.000001 0.000000 3749.dat
0 STEP
1 72 71.297580 -255.797600 -1.182670 -0.999987 0.005243 -0.000001 -0.005248 -0.999983 0.000001 0.000000 0.000001 1.000002 6575.dat
1 72 131.297000 -255.483400 -1.182750 -0.999988 0.005243 -0.000001 -0.005247 -0.999983 0.000001 0.000000 0.000001 1.000002 6575.dat
0 STEP
1 15 100.824900 -165.639700 -6.180550 -0.005239 -0.000001 -0.999986 0.999984 -0.000002 -0.005243 -0.000002 -1.000000 0.000001 64871.dat
0 STEP
1 0 -19.172990 -166.270500 -16.180900 -0.000001 -0.005244 -0.999988 0.000001 0.999983 -0.005247 1.000003 -0.000001 0.000000 2780.dat
1 0 240.822700 -164.905500 -16.180690 -0.000001 -0.005247 -0.999986 0.000001 0.999986 -0.005247 1.000000 -0.000001 0.000000 2780.dat
1 0 220.823900 -165.012500 -16.180390 -0.000001 -0.005244 -0.999988 0.000001 0.999983 -0.005247 1.000003 -0.000001 0.000000 2780.dat
1 0 -39.172650 -166.375200 -16.181020 -0.000001 -0.005244 -0.999988 0.000001 0.999983 -0.005247 1.000003 -0.000001 0.000000 2780.dat
0 STEP
1 15 300.822800 -164.592800 -26.180460 0.005245 0.000000 -0.999986 -0.999986 0.000001 -0.005245 0.000001 1.000000 0.000000 40490.dat
1 15 -99.171810 -166.690200 -26.180940 0.005245 0.000000 -0.999986 -0.999986 0.000001 -0.005246 0.000001 1.000000 0.000000 40490.dat
0 STEP
0 NOFILE
