0 Untitled Model
0 Name:  除草机
0 Author:  
0 CustomBrick
0 NumOfBricks:  54
1 1 -68.000030 -16.000040 -42.000080 0.000000 0.000000 1.000000 0.000000 1.000000 0.000000 -1.000002 0.000000 0.000000 32001.dat
1 1 -78.000100 -40.000040 -42.000140 0.000000 0.000000 1.000000 0.000000 1.000000 0.000000 -1.000002 0.000000 0.000000 3701.dat
1 1 -58.000100 -40.000040 -42.000140 0.000000 0.000000 1.000000 0.000000 1.000000 0.000000 -1.000002 0.000000 0.000000 3701.dat
0 STEP
1 1 -27.999980 -40.000040 -92.000100 1.000000 0.000000 0.000000 0.000000 1.000000 0.000000 0.000000 0.000000 1.000002 3895.dat
1 1 -27.999970 -40.000050 8.000080 1.000000 0.000000 0.000000 0.000000 1.000000 0.000000 0.000000 0.000000 1.000002 3895.dat
0 STEP
1 1 -7.999980 -64.000060 -92.000100 1.000000 0.000000 0.000000 0.000000 1.000000 0.000000 0.000000 0.000000 1.000002 3701.dat
1 1 -7.999970 -64.000060 8.000080 1.000000 0.000000 0.000000 0.000000 1.000000 0.000000 0.000000 0.000000 1.000002 3701.dat
0 STEP
1 0 -37.440160 -30.000020 -42.000080 0.000000 0.000000 -1.000000 0.349814 -0.936819 0.000000 -0.936821 -0.349814 0.000000 32270.dat
1 0 -110.050200 -30.000020 -42.000080 0.000000 0.000000 -1.000000 0.349814 -0.936819 0.000000 -0.936821 -0.349814 0.000000 32270.dat
1 14 -94.180770 -29.999780 -42.000690 0.000000 0.000000 1.000003 0.349815 0.936819 0.000000 -0.936824 0.349814 0.000000 32123a.dat
1 71 -73.450120 -30.000040 -42.000140 -1.000000 0.000000 0.000000 0.000000 0.936819 0.349813 0.000000 0.349814 -0.936821 32073.dat
0 STEP
1 1 -8.000010 -72.000060 -42.000020 0.000000 0.000000 1.000000 0.000000 1.000000 0.000000 -1.000002 0.000000 0.000000 32001.dat
0 STEP
1 71 -8.000000 -65.710060 -42.000000 0.000000 -0.000001 -1.000000 1.000000 0.000000 0.000000 0.000000 -1.000000 0.000001 4519.dat
1 19 -7.999970 -44.400050 -42.000140 0.000001 1.000000 0.000000 0.000000 0.000000 1.000000 1.000002 -0.000001 0.000000 32269.dat
1 71 -7.999980 -83.020060 -42.000140 0.000001 1.000000 0.000000 -0.000001 0.000000 1.000000 1.000002 -0.000001 0.000001 3713.dat
0 STEP
1 1 72.000000 -48.000050 -42.000020 0.000000 0.000000 1.000000 0.000000 1.000000 0.000000 -1.000002 0.000000 0.000000 32001.dat
0 STEP
1 1 72.000010 -72.000070 8.000080 1.000000 0.000000 0.000000 0.000000 1.000000 0.000000 0.000000 0.000000 1.000002 3700.dat
1 1 72.000000 -72.000060 -92.000110 1.000000 0.000000 0.000000 0.000000 1.000000 0.000000 0.000000 0.000000 1.000002 3700.dat
1 19 71.999970 -62.000040 -82.000080 -0.000001 1.000000 -0.000001 0.000001 0.000001 1.000000 1.000002 0.000001 -0.000001 3749.dat
1 19 72.000040 -62.000040 -1.999950 0.000001 -1.000000 0.000001 0.000001 0.000001 1.000000 -1.000002 -0.000001 0.000001 3749.dat
1 1 71.999960 -222.000100 -12.000030 1.000000 0.000000 0.000000 0.000000 0.000000 -1.000000 0.000000 1.000002 0.000000 32009.dat
1 1 71.999860 -222.000000 -72.000140 1.000000 0.000000 0.000000 0.000000 0.000000 -1.000000 0.000000 1.000002 0.000000 32009.dat
0 STEP
1 19 72.000070 -30.000020 -102.000200 0.000001 -1.000000 0.000001 0.000001 0.000001 1.000000 -1.000002 -0.000001 0.000001 3749.dat
1 19 72.000020 -30.000030 18.000090 -0.000001 1.000000 -0.000001 0.000001 0.000001 1.000000 1.000002 0.000001 -0.000001 3749.dat
1 71 72.000020 -30.000020 24.000090 0.000000 1.000000 0.000000 -1.000000 0.000000 0.000000 0.000000 0.000000 1.000002 4185.dat
1 71 72.000130 -30.000010 -107.080200 0.000000 1.000000 0.000000 1.000000 0.000000 0.000000 0.000000 0.000000 -1.000002 4185.dat
0 STEP
1 0 71.999980 -102.000000 -2.000010 0.000000 0.000000 -1.000000 0.000000 1.000000 0.000000 1.000002 0.000000 0.000000 2780.dat
1 0 71.999870 -122.000000 -82.000160 0.000000 0.000000 -1.000000 0.000000 1.000000 0.000000 1.000002 0.000000 0.000000 2780.dat
1 4 71.999950 -102.000000 8.000010 0.000000 0.000000 -1.000000 0.000000 -1.000000 0.000000 -1.000002 0.000000 0.000000 32034.dat
1 4 71.999900 -122.000000 -92.000170 0.000000 0.000000 -1.000000 0.000000 -1.000000 0.000000 -1.000002 0.000000 0.000000 32034.dat
0 STEP
1 0 131.999900 -222.000100 -2.000020 0.000000 0.000000 -1.000000 0.000000 1.000000 0.000000 1.000002 0.000000 0.000000 2780.dat
1 0 131.999800 -222.000000 -82.000160 0.000000 0.000000 -1.000000 0.000000 1.000000 0.000000 1.000002 0.000000 0.000000 2780.dat
1 4 132.000000 -222.000100 8.000010 0.000000 0.000000 -1.000000 0.000000 -1.000000 0.000000 -1.000002 0.000000 0.000000 32034.dat
1 4 131.999800 -222.000000 -92.000230 0.000000 0.000000 -1.000000 0.000000 -1.000000 0.000000 -1.000002 0.000000 0.000000 32034.dat
0 STEP
1 1 -68.000040 -48.000040 -42.000080 0.000000 0.000000 1.000000 0.000000 1.000000 0.000000 -1.000002 0.000000 0.000000 32001.dat
1 1 -68.000040 -96.000060 -72.000200 1.000000 0.000000 0.000000 0.000000 1.000000 0.000000 0.000000 0.000000 1.000002 3700.dat
1 1 -68.000040 -96.000060 -12.000090 1.000000 0.000000 0.000000 0.000000 1.000000 0.000000 0.000000 0.000000 1.000002 3700.dat
1 15 -68.000040 -72.000060 -42.000140 0.000000 0.000000 1.000000 0.000000 1.000000 0.000000 -1.000002 0.000000 0.000000 3001.dat
1 15 -68.000040 -96.000060 -42.000140 1.000000 0.000000 0.000000 0.000000 1.000000 0.000000 0.000000 0.000000 1.000002 3941.dat
0 STEP
1 71 -127.999900 -30.000030 -117.040100 0.000000 1.000000 0.000000 1.000000 0.000000 0.000000 0.000000 0.000000 -1.000002 4185.dat
1 71 -128.000000 -30.000040 33.240100 0.000000 1.000000 0.000000 -1.000000 0.000000 0.000000 0.000000 0.000000 1.000002 4185.dat
1 19 -127.999900 -30.000040 -21.249920 1.000000 0.000000 0.000001 0.000000 -1.000000 0.000000 0.000001 0.000000 -1.000002 6589.dat
1 14 -127.999900 -30.000040 -11.339930 1.000000 0.000000 0.000000 0.000000 1.000000 0.000000 0.000000 0.000000 1.000002 32123a.dat
1 14 -127.999900 -30.000040 23.200110 0.000000 1.000000 0.000000 -1.000000 0.000000 0.000000 0.000000 0.000000 1.000002 32123a.dat
1 14 -127.999900 -30.000030 -107.150100 1.000000 0.000000 0.000000 0.000000 1.000000 0.000000 0.000000 0.000000 1.000002 32123a.dat
1 71 -127.999900 -30.000040 -42.040000 0.000000 0.000000 1.000000 0.000000 1.000000 0.000000 -1.000002 0.000000 0.000000 60485.dat
0 STEP
1 15 -68.000040 -96.000080 -92.000220 1.000000 0.000000 0.000000 0.000000 1.000000 0.000000 0.000000 0.000000 1.000002 32064a.dat
1 15 -68.000040 -96.000040 7.999950 1.000000 0.000000 0.000000 0.000000 1.000000 0.000000 0.000000 0.000000 1.000002 32064a.dat
1 19 -68.000040 -86.000070 -82.000220 0.000001 0.000001 1.000000 -0.000001 1.000000 -0.000001 -1.000002 -0.000001 0.000001 3749.dat
1 19 -68.000040 -86.000040 -2.000070 -0.000001 1.000000 -0.000001 0.000001 0.000001 1.000000 1.000002 0.000001 -0.000001 3749.dat
0 STEP
1 15 -58.000040 -120.000100 -12.000150 0.000000 0.000000 1.000000 0.000000 1.000000 0.000000 -1.000002 0.000000 0.000000 3040b.dat
1 15 -58.000040 -120.000100 -72.000200 0.000000 0.000000 1.000000 0.000000 1.000000 0.000000 -1.000002 0.000000 0.000000 3040b.dat
1 15 -58.000040 -120.000100 -52.000220 0.000000 0.000000 1.000000 0.000000 1.000000 0.000000 -1.000002 0.000000 0.000000 3040b.dat
1 15 -58.000110 -120.000100 -32.000190 0.000000 0.000000 1.000000 0.000000 1.000000 0.000000 -1.000002 0.000000 0.000000 3040b.dat
0 STEP
0 STEP
