0 Untitled Model
0 Name:  眼镜2
0 Author:  
0 CustomBrick
0 NumOfBricks:  47
1 19 129.999600 -90.000030 -0.000030 -0.000001 1.000000 -0.000001 0.000001 0.000001 1.000000 1.000000 0.000001 -0.000001 3749.dat
1 19 109.999700 -90.000060 -0.000030 -0.000002 1.000000 -0.000001 0.000001 0.000001 1.000000 1.000000 0.000001 -0.000001 3749.dat
1 72 169.999600 -90.000010 4.999930 -1.000000 0.000000 -0.000001 -0.000001 -0.000001 1.000000 0.000000 1.000000 0.000001 32250.dat
1 72 69.999750 -90.000030 4.999980 1.000000 0.000000 0.000001 -0.000001 0.000000 1.000000 0.000000 -1.000000 -0.000001 32250.dat
1 0 119.999700 -70.000000 -10.000030 1.000000 0.000000 0.000000 0.000000 -1.000000 0.000000 0.000000 0.000000 -1.000000 32291.dat
0 STEP
1 14 109.999700 -90.000060 14.999970 1.000000 0.000000 0.000000 0.000000 1.000000 -0.000001 0.000000 0.000000 1.000000 32123a.dat
1 14 129.999600 -90.000030 14.999970 1.000000 0.000000 0.000000 0.000000 1.000000 -0.000001 0.000000 0.000000 1.000000 32123a.dat
0 STEP
1 19 169.999600 -9.999990 -0.000030 -0.000002 1.000000 -0.000001 0.000001 0.000001 1.000000 1.000000 0.000001 -0.000001 3749.dat
1 19 69.999810 -9.999980 -0.000030 -0.000001 1.000000 -0.000001 0.000001 0.000001 1.000000 1.000000 0.000001 -0.000001 3749.dat
1 19 169.999600 -90.000030 -0.000070 -0.000002 1.000000 -0.000001 0.000001 0.000001 1.000000 1.000000 0.000001 -0.000001 3749.dat
1 19 69.999810 -90.000030 0.000030 -0.000002 1.000000 -0.000001 0.000001 0.000001 1.000000 1.000000 0.000001 -0.000001 3749.dat
0 STEP
1 71 10.000010 -50.000000 -9.999980 0.000000 0.000000 1.000000 1.000000 0.000000 0.000000 0.000000 1.000000 0.000000 64179.dat
1 71 229.999700 -49.999990 -10.000090 0.000000 0.000000 1.000000 1.000000 0.000000 0.000000 0.000000 1.000000 0.000000 64179.dat
0 STEP
1 14 169.999600 -9.999980 14.999980 1.000000 0.000000 0.000000 0.000000 -1.000000 0.000000 0.000000 0.000000 -1.000000 32123a.dat
1 14 169.999600 -90.000030 14.999910 1.000000 0.000000 0.000000 0.000000 1.000000 -0.000001 0.000000 0.000000 1.000000 32123a.dat
1 14 69.999810 -9.999969 14.999850 1.000000 0.000000 0.000000 0.000000 -1.000000 0.000000 0.000000 0.000000 -1.000000 32123a.dat
1 14 69.999750 -90.000030 15.000030 1.000000 0.000000 0.000000 0.000000 1.000000 -0.000001 0.000000 0.000000 1.000000 32123a.dat
0 STEP
1 19 -59.999900 -29.999960 -10.000090 -0.999996 -0.000001 0.000001 0.000001 0.000001 1.000000 -0.000001 1.000000 -0.000001 3749.dat
1 19 -60.000080 -69.999980 -10.000090 -1.000000 -0.000001 0.000001 0.000001 0.000001 1.000000 -0.000001 1.000000 -0.000001 3749.dat
1 19 299.999500 -29.999950 -10.000090 1.000000 0.000002 -0.000001 0.000001 0.000002 1.000000 0.000001 -1.000000 0.000001 3749.dat
1 19 299.999600 -69.999970 -10.000150 1.000000 0.000002 -0.000001 0.000001 0.000002 1.000000 0.000001 -1.000000 0.000001 3749.dat
0 STEP
1 72 304.999100 -49.999950 -9.999909 0.000000 1.000000 0.000000 -1.000000 0.000000 -0.000001 0.000000 0.000000 1.000000 99773.dat
1 0 299.999300 -49.999980 30.000100 1.000000 0.000000 0.000000 0.000000 1.000000 0.000000 0.000000 0.000000 1.000000 2780.dat
1 0 299.999200 -49.999980 10.000100 1.000000 0.000000 0.000000 0.000000 1.000000 0.000000 0.000000 0.000000 1.000000 2780.dat
1 15 289.999400 -49.999940 90.000170 -0.000001 -1.000000 -0.000001 -1.000000 0.000001 -0.000001 0.000001 0.000001 -1.000000 40490.dat
0 STEP
1 14 316.269600 -69.999950 -10.000090 0.000000 -0.000001 -1.000000 -1.000000 0.000000 0.000000 0.000000 1.000000 -0.000001 32123a.dat
1 14 314.999600 -29.999930 -10.000030 0.000000 -0.000001 -1.000000 -1.000000 0.000000 0.000000 0.000000 1.000000 -0.000001 32123a.dat
0 STEP
1 72 -65.000140 -49.999980 -10.000090 0.000000 -1.000000 -0.000001 1.000000 0.000000 0.000000 0.000000 -0.000001 1.000000 99773.dat
1 0 -60.000180 -50.000000 29.999960 1.000000 0.000000 0.000000 0.000000 1.000000 0.000000 0.000000 0.000000 1.000000 2780.dat
1 0 -60.000140 -49.999980 9.999909 1.000000 0.000000 0.000000 0.000000 1.000000 0.000000 0.000000 0.000000 1.000000 2780.dat
1 15 -50.000210 -49.999940 89.999900 -0.000001 -1.000000 -0.000001 -1.000000 0.000001 -0.000001 0.000001 0.000001 -1.000000 40490.dat
0 STEP
1 14 -75.000110 -69.999960 -10.000090 0.000000 0.000000 1.000000 1.000000 0.000000 0.000000 0.000000 1.000000 0.000000 32123a.dat
1 14 -76.020030 -29.999930 -10.000030 0.000000 0.000000 1.000000 1.000000 0.000000 0.000000 0.000000 1.000000 0.000000 32123a.dat
0 STEP
1 0 30.000060 -9.999969 -19.999980 0.000000 0.000000 1.000000 0.000000 1.000000 0.000000 -1.000000 0.000000 0.000000 2780.dat
1 0 209.999600 -9.999980 -20.000030 0.000000 0.000000 1.000000 0.000000 1.000000 0.000000 -1.000000 0.000000 0.000000 2780.dat
1 0 249.999600 -90.000010 -20.000020 0.000000 0.000000 1.000000 0.000000 1.000000 0.000000 -1.000000 0.000000 0.000000 2780.dat
1 0 -9.999990 -90.000030 -20.000030 0.000000 0.000000 1.000000 0.000000 1.000000 0.000000 -1.000000 0.000000 0.000000 2780.dat
0 STEP
1 4 209.999700 -9.999969 -30.000020 0.000000 0.000000 1.000000 0.000000 -1.000000 0.000000 1.000000 0.000000 0.000000 32034.dat
1 4 30.000030 -9.999969 -29.999960 0.000000 0.000000 1.000000 0.000000 -1.000000 0.000000 1.000000 0.000000 0.000000 32034.dat
1 4 -10.000020 -90.000000 -30.000020 0.000000 0.000000 1.000000 0.000000 -1.000000 0.000000 1.000000 0.000000 0.000000 32034.dat
1 4 249.999600 -90.000000 -30.000060 0.000000 0.000000 1.000000 0.000000 -1.000000 0.000000 1.000000 0.000000 0.000000 32034.dat
0 STEP
1 19 299.999400 -49.999860 150.000100 1.000000 0.000001 -0.000001 0.000001 0.000001 1.000000 0.000001 -1.000000 0.000001 3749.dat
1 19 -60.000120 -49.999880 150.000000 -1.000000 -0.000001 0.000001 0.000001 0.000001 1.000000 -0.000001 1.000000 -0.000001 3749.dat
1 0 299.999400 -49.999870 170.000200 1.000000 0.000000 0.000000 0.000000 1.000000 0.000000 0.000000 0.000000 1.000000 2780.dat
1 0 -60.000120 -49.999900 169.999900 1.000000 0.000000 0.000000 0.000000 1.000000 0.000000 0.000000 0.000000 1.000000 2780.dat
0 STEP
1 1 309.999400 -49.999840 150.000200 -0.000001 -1.000000 0.000001 1.000000 -0.000001 -0.000001 0.000001 0.000001 1.000000 32271.dat
1 1 -70.000110 -49.999850 150.000000 -0.000001 -1.000000 0.000001 1.000000 -0.000001 -0.000002 0.000002 0.000001 1.000000 32271.dat
0 STEP
0 STEP
