0 FILE 电动风扇（电池盒.io
0 Untitled Model
0 Name:  电动风扇（电池盒
0 Author:  
0 CustomBrick
0 NumOfBricks:  81
1 0 -141.000000 -199.000100 -64.999980 0.000000 0.000000 -1.000000 0.000000 1.000000 0.000000 1.000000 0.000000 0.000000 2780.dat
1 1 -1.000000 -208.999900 -75.000000 1.000000 0.000000 0.000000 0.000000 1.000000 0.000000 0.000000 0.000000 1.000000 3703.dat
1 1 38.999980 -185.000100 -75.000000 1.000000 0.000000 0.000000 0.000000 1.000000 0.000000 0.000000 0.000000 1.000000 3895.dat
0 STEP
1 1 38.999980 -185.000100 -54.999960 1.000000 0.000000 0.000000 0.000000 1.000000 0.000000 0.000000 0.000000 1.000000 3895.dat
1 1 -1.000010 -209.000100 -54.999960 1.000000 0.000000 0.000000 0.000000 1.000000 0.000000 0.000000 0.000000 1.000000 3703.dat
0 STEP
1 1 -201.000100 -185.000100 -54.999950 1.000000 0.000000 0.000000 0.000000 1.000000 0.000000 0.000000 0.000000 1.000000 3895.dat
1 1 -201.000100 -185.000100 -74.999980 1.000000 0.000000 0.000000 0.000000 1.000000 0.000000 0.000000 0.000000 1.000000 3895.dat
0 STEP
1 0 18.999990 -199.000100 -85.000030 0.000000 0.000000 -1.000000 0.000000 1.000000 0.000000 1.000000 0.000000 0.000000 2780.dat
1 1 59.000000 -199.000100 -75.000000 0.000000 0.000000 -1.000000 0.000000 1.000000 0.000000 1.000000 0.000000 0.000000 6558.dat
0 STEP
1 72 38.999990 -199.000100 -35.119830 1.000000 0.000000 0.000000 0.000000 1.000000 0.000000 0.000000 0.000000 1.000000 3648b.dat
1 71 38.999990 -199.000100 -14.059710 1.000000 0.000000 0.000001 0.000000 1.000000 0.000000 -0.000001 0.000000 1.000000 3713.dat
1 71 38.999990 -199.000100 -53.869960 0.000000 0.000000 1.000000 0.000000 1.000000 0.000000 -1.000000 0.000000 0.000000 32073.dat
1 71 38.999990 -199.000100 -85.000030 -1.000000 0.000000 0.000000 0.000000 1.000000 0.000000 0.000000 0.000000 -1.000000 58120.dat
0 STEP
1 1 -80.999970 -161.000100 -64.999980 1.000000 0.000000 0.000000 0.000000 1.000000 0.000000 0.000000 0.000000 1.000000 32001.dat
0 STEP
1 19 119.000000 -223.000100 -43.729950 0.000001 -1.000001 0.000001 0.000001 0.000001 1.000000 -1.000001 -0.000001 0.000001 3749.dat
1 15 119.000000 -233.000100 -54.999980 1.000001 0.000000 0.000000 0.000000 1.000000 0.000000 0.000000 0.000000 1.000001 32064a.dat
1 15 119.000000 -233.000100 -75.000020 1.000001 0.000000 0.000000 0.000000 1.000000 0.000000 0.000000 0.000000 1.000001 32064a.dat
1 4 119.000000 -266.999900 -65.000000 0.000000 0.000000 -1.000001 1.000000 0.000000 0.000000 0.000000 -1.000001 0.000000 32034.dat
1 19 119.000000 -256.999900 -65.000000 0.000001 0.000001 1.000001 1.000000 0.000001 -0.000001 -0.000001 1.000001 -0.000001 3749.dat
1 4 119.000000 -223.000100 -33.729960 0.000000 0.000000 -1.000001 0.000000 -1.000000 0.000000 -1.000001 0.000000 0.000000 32034.dat
1 15 119.000000 -256.999900 -65.000000 1.000001 0.000000 0.000000 0.000000 1.000000 0.000000 0.000000 0.000000 1.000001 3941.dat
0 STEP
1 15 149.000000 -233.000100 -75.000020 -1.000001 0.000000 0.000000 0.000000 1.000000 0.000000 0.000000 0.000000 -1.000001 3040b.dat
0 STEP
1 1 159.000000 -161.000100 -75.000020 1.000001 0.000000 0.000000 0.000000 1.000000 0.000000 0.000000 0.000000 1.000001 3701.dat
1 1 179.000000 -137.000100 -75.000020 1.000001 0.000000 0.000000 0.000000 1.000000 0.000000 0.000000 0.000000 1.000001 3894.dat
1 1 159.000000 -161.000100 -54.999980 1.000001 0.000000 0.000000 0.000000 1.000000 0.000000 0.000000 0.000000 1.000001 3701.dat
1 1 179.000000 -137.000100 -54.999980 1.000001 0.000000 0.000000 0.000000 1.000000 0.000000 0.000000 0.000000 1.000001 3894.dat
0 STEP
1 71 -40.999970 -199.000100 -95.910030 0.993823 -0.110979 0.000000 0.110980 0.993823 0.000000 0.000000 0.000000 1.000000 3713.dat
1 71 -40.999960 -199.000100 -34.859940 0.993823 -0.110979 0.000000 0.110979 0.993823 0.000000 0.000000 0.000000 1.000000 3649.dat
1 71 -40.999940 -199.000100 -14.659930 0.110979 0.993823 0.000000 -0.993823 0.110979 0.000000 0.000000 0.000000 1.000000 3713.dat
1 71 -40.999970 -199.000100 -54.379970 0.000000 -0.110980 0.993823 0.000000 0.993823 0.110980 -1.000000 0.000000 0.000000 32073.dat
0 STEP
1 72 -121.000000 -199.000100 -36.249960 1.000000 0.000000 0.000000 0.000000 1.000000 0.000000 0.000000 0.000000 1.000000 3648b.dat
1 14 -121.000000 -199.000100 -22.039980 0.000000 1.000000 0.000000 -1.000000 0.000000 0.000000 0.000000 0.000000 1.000000 32123a.dat
1 14 -121.000000 -199.000100 -111.250000 1.000000 0.000000 0.000000 0.000000 1.000000 0.000000 0.000000 0.000000 1.000000 32123a.dat
1 71 -121.000000 -199.000100 -94.830100 1.000000 0.000000 0.000000 0.000000 1.000000 0.000000 0.000000 0.000000 1.000000 3649.dat
1 71 -121.000000 -199.000100 -66.249980 0.000000 0.000000 1.000000 0.000000 1.000000 0.000000 -1.000000 0.000000 0.000000 32073.dat
0 STEP
1 1 -241.000100 -209.000100 -74.999980 1.000000 0.000000 0.000000 0.000000 1.000000 0.000000 0.000000 0.000000 1.000000 3702.dat
1 0 -301.000200 -199.000100 -65.000080 0.000000 0.000000 -1.000000 0.000000 1.000000 0.000000 1.000000 0.000000 0.000000 2780.dat
1 1 -241.000100 -209.000100 -54.999950 1.000000 0.000000 0.000000 0.000000 1.000000 0.000000 0.000000 0.000000 1.000000 3702.dat
0 STEP
1 72 -201.000200 -199.000200 -94.121330 0.766046 -0.642786 0.000000 0.642786 0.766046 0.000000 0.000000 0.000000 1.000000 3648b.dat
1 71 -201.000200 -199.000100 -115.369800 0.766046 -0.642786 0.000001 0.642786 0.766046 0.000000 -0.000001 0.000000 1.000000 3713.dat
1 71 -201.000100 -199.000100 -34.889710 0.766046 -0.642786 0.000001 0.642786 0.766046 0.000000 -0.000001 0.000000 1.000000 3713.dat
1 71 -201.000100 -199.000100 -76.119740 0.000000 -0.642786 0.766046 0.000000 0.766046 0.642786 -1.000000 0.000000 0.000000 32073.dat
0 STEP
1 15 -311.000100 -233.000100 -74.999980 -1.000001 0.000000 0.000000 0.000000 1.000000 0.000000 0.000000 0.000000 -1.000001 3040b.dat
1 15 -281.000100 -233.000100 -74.999980 1.000001 0.000000 0.000000 0.000000 1.000000 0.000000 0.000000 0.000000 1.000001 32064a.dat
1 15 -281.000100 -233.000100 -54.999950 1.000001 0.000000 0.000000 0.000000 1.000000 0.000000 0.000000 0.000000 1.000001 32064a.dat
0 STEP
1 19 -281.000200 -223.000100 -45.000080 0.000001 -1.000001 0.000001 0.000001 0.000001 1.000000 -1.000001 -0.000001 0.000001 3749.dat
1 4 -281.000200 -223.000100 -35.000060 0.000000 0.000000 -1.000001 0.000000 -1.000000 0.000000 -1.000001 0.000000 0.000000 32034.dat
0 STEP
1 15 -281.000100 -256.999900 -64.999980 1.000001 0.000000 0.000000 0.000000 1.000000 0.000000 0.000000 0.000000 1.000001 3941.dat
1 19 -281.000200 -256.999900 -64.999980 0.000001 0.000001 1.000001 1.000000 0.000001 -0.000001 -0.000001 1.000001 -0.000001 3749.dat
0 STEP
1 72 -241.000100 -199.000100 -95.099970 0.000000 -1.000000 0.000000 -1.000000 0.000000 0.000000 0.000000 0.000000 -1.000000 3647.dat
1 71 -241.000400 -199.000100 -30.530590 1.000000 0.000000 0.000001 0.000000 1.000000 0.000000 -0.000001 0.000000 1.000000 3713.dat
1 71 -241.000100 -199.000100 -115.960000 1.000000 0.000000 0.000001 0.000000 1.000000 0.000000 -0.000001 0.000000 1.000000 3713.dat
1 14 -241.000000 -199.000100 -15.759650 1.000001 0.000000 0.000000 0.000000 1.000000 0.000000 0.000000 0.000000 1.000001 32123a.dat
1 71 -241.000100 -199.000100 -53.369940 0.000000 0.000000 1.000000 0.000000 1.000000 0.000000 -1.000000 0.000000 0.000000 44294.dat
0 STEP
1 71 -241.000100 -199.000100 -1.829730 1.000001 0.000000 0.000000 0.000000 1.000000 0.000000 0.000000 0.000000 1.000001 3649.dat
0 STEP
1 14 -241.000100 -199.000100 15.730210 1.000000 0.000000 0.000000 0.000000 1.000000 0.000000 0.000000 0.000000 1.000000 32123a.dat
1 0 -210.999800 -209.000100 8.170199 0.000000 0.000000 -1.000001 0.000000 1.000000 0.000000 1.000001 0.000000 0.000000 2780.dat
1 0 -251.000000 -228.999900 8.170140 0.000000 0.000000 -1.000001 0.000000 1.000000 0.000000 1.000001 0.000000 0.000000 2780.dat
1 0 -251.000100 -169.000000 8.170159 0.000000 0.000000 -1.000001 0.000000 1.000000 0.000000 1.000001 0.000000 0.000000 2780.dat
1 0 -270.999800 -189.000000 8.170159 0.000000 0.000000 -1.000001 0.000000 1.000000 0.000000 1.000001 0.000000 0.000000 2780.dat
1 0 -270.999900 -209.000100 8.170159 0.000000 0.000000 -1.000001 0.000000 1.000000 0.000000 1.000001 0.000000 0.000000 2780.dat
1 0 -231.000000 -228.999900 8.170259 0.000000 0.000000 -1.000001 0.000000 1.000000 0.000000 1.000001 0.000000 0.000000 2780.dat
1 0 -210.999800 -189.000000 8.170259 0.000000 0.000000 -1.000001 0.000000 1.000000 0.000000 1.000001 0.000000 0.000000 2780.dat
1 0 -231.000000 -169.000100 8.170280 0.000000 0.000000 -1.000001 0.000000 1.000000 0.000000 1.000001 0.000000 0.000000 2780.dat
0 STEP
1 15 -330.999500 -169.000100 18.170640 0.000001 0.000001 -1.000001 -1.000000 0.000001 -0.000001 0.000001 1.000001 0.000001 64290.dat
1 15 -210.999900 -109.000000 18.169790 -1.000001 0.000001 -0.000001 -0.000001 -0.000001 1.000000 0.000001 1.000001 0.000001 64290.dat
1 15 -150.997800 -229.000100 18.169970 0.000001 0.000001 -1.000001 0.999999 -0.000001 0.000001 -0.000001 -1.000001 -0.000001 64290.dat
1 15 -270.999700 -288.999800 18.169420 -1.000001 0.000001 -0.000001 -0.000001 -0.000001 1.000000 0.000001 1.000001 0.000001 64290.dat
0 STEP
1 0 -390.999500 -169.000200 28.170780 0.000000 0.000000 -1.000001 0.000000 1.000000 0.000000 1.000001 0.000000 0.000000 2780.dat
1 0 -50.997700 -229.000300 28.170100 0.000000 0.000000 -1.000001 0.000000 1.000000 0.000000 1.000001 0.000000 0.000000 2780.dat
1 0 -90.997730 -229.000200 28.170040 0.000000 0.000000 -1.000001 0.000000 1.000000 0.000000 1.000001 0.000000 0.000000 2780.dat
1 0 -430.999600 -169.000200 28.170720 0.000000 0.000000 -1.000001 0.000000 1.000000 0.000000 1.000001 0.000000 0.000000 2780.dat
1 15 -70.997720 -229.000200 38.170040 0.000001 0.000001 -1.000001 -1.000000 0.000001 -0.000001 0.000001 1.000001 0.000001 32523.dat
1 15 -410.999500 -169.000200 38.170680 -0.000001 -0.000001 1.000001 1.000000 -0.000001 0.000001 0.000001 1.000001 0.000001 32523.dat
0 STEP
1 1 -341.000100 -137.000100 -54.999950 1.000001 0.000000 0.000000 0.000000 1.000000 0.000000 0.000000 0.000000 1.000001 3894.dat
1 1 -341.000100 -137.000100 -74.999970 1.000001 0.000000 0.000000 0.000000 1.000000 0.000000 0.000000 0.000000 1.000001 3894.dat
1 1 -321.000100 -161.000100 -54.999950 1.000001 0.000000 0.000000 0.000000 1.000000 0.000000 0.000000 0.000000 1.000001 3701.dat
1 1 -321.000100 -161.000100 -74.999980 1.000001 0.000000 0.000000 0.000000 1.000000 0.000000 0.000000 0.000000 1.000001 3701.dat
0 STEP
1 16 277.000000 0.000000 187.000000 0.000000 0.000000 -1.000000 0.000000 1.000000 0.000000 1.000000 0.000000 0.000000 submodel group 9 copy copy copy
0 STEP
0 STEP
0 NOFILE
0 FILE SubModel Group 9 Copy Copy Copy
0 SubModel Group 9 Copy Copy Copy
0 Name:  SubModel Group 9 Copy Copy Copy
0 Author:  
0 CustomBrick
0 NumOfBricks:  3
1 72 10.000000 -1.128810 -10.000000 1.000000 0.000000 0.000000 0.000000 0.000000 -1.000000 0.000000 1.000000 0.000000 dch003.dat
1 71 -27.466620 -79.717990 29.427020 1.000000 0.000000 0.000000 0.000000 0.000000 -1.000000 0.000000 1.000000 0.000000 dch004.dat
1 25 7.837010 13.484720 -9.965000 1.000000 0.000000 0.000000 0.000000 0.000000 -1.000000 0.000000 1.000000 0.000000 dch005.dat
0 NOFILE
