0 FILE 秋千2.io
0 Untitled Model
0 Name:  秋千2
0 Author:  
0 CustomBrick
0 NumOfBricks:  72
1 0 -30.000160 -10.000120 20.000210 0.000000 0.000000 -1.000000 0.000000 1.000000 0.000000 1.000000 0.000000 0.000000 2780.dat
1 0 -70.000200 -10.000160 20.000270 0.000000 0.000000 -1.000000 0.000000 1.000000 0.000000 1.000000 0.000000 0.000000 2780.dat
1 15 49.999860 -10.000060 30.000090 0.000001 0.000001 -1.000000 -1.000000 0.000001 -0.000001 0.000001 1.000000 0.000001 64871.dat
0 STEP
1 0 129.999900 -9.999980 19.999970 0.000000 0.000000 -1.000000 0.000000 1.000000 0.000000 1.000000 0.000000 0.000000 2780.dat
1 0 69.999860 -10.000030 20.000210 0.000000 0.000000 -1.000000 0.000000 1.000000 0.000000 1.000000 0.000000 0.000000 2780.dat
1 0 29.999980 -10.000070 20.000210 0.000000 0.000000 -1.000000 0.000000 1.000000 0.000000 1.000000 0.000000 0.000000 2780.dat
1 0 169.999800 -9.999949 19.999970 0.000000 0.000000 -1.000000 0.000000 1.000000 0.000000 1.000000 0.000000 0.000000 2780.dat
0 STEP
1 1 69.999760 -90.000060 10.000310 -1.000000 0.000001 0.000001 0.000001 0.000001 1.000000 0.000001 1.000000 -0.000001 32526.dat
1 0 69.999760 -90.000060 20.000270 0.000000 0.000000 1.000000 0.000000 1.000000 0.000000 -1.000000 0.000000 0.000000 2780.dat
1 0 69.999860 -30.000070 20.000270 0.000000 0.000000 1.000000 0.000000 1.000000 0.000000 -1.000000 0.000000 0.000000 2780.dat
0 STEP
1 0 -70.000220 -10.000160 -119.999800 0.000000 0.000000 -1.000000 0.000000 1.000000 0.000000 1.000000 0.000000 0.000000 2780.dat
1 0 -30.000040 -10.000160 -119.999800 0.000000 0.000000 -1.000000 0.000000 1.000000 0.000000 1.000000 0.000000 0.000000 2780.dat
1 71 -50.000180 -10.000160 -49.999760 -1.000000 0.000000 0.000000 0.000000 1.000000 0.000000 0.000000 0.000000 -1.000000 64179.dat
0 STEP
1 0 129.999800 -9.999980 -120.000100 0.000000 0.000000 -1.000000 0.000000 1.000000 0.000000 1.000000 0.000000 0.000000 2780.dat
1 0 170.000000 -9.999980 -120.000100 0.000000 0.000000 -1.000000 0.000000 1.000000 0.000000 1.000000 0.000000 0.000000 2780.dat
1 71 149.999900 -9.999980 -50.000080 -1.000000 0.000000 0.000000 0.000000 1.000000 0.000000 0.000000 0.000000 -1.000000 64179.dat
0 STEP
1 0 69.999980 -10.000070 -119.999800 0.000000 0.000000 -1.000000 0.000000 1.000000 0.000000 1.000000 0.000000 0.000000 2780.dat
1 0 29.999980 -10.000110 -119.999800 0.000000 0.000000 -1.000000 0.000000 1.000000 0.000000 1.000000 0.000000 0.000000 2780.dat
1 15 49.999980 -10.000080 -129.999800 0.000001 0.000001 -1.000000 -1.000000 0.000001 -0.000001 0.000001 1.000000 0.000001 64871.dat
0 STEP
1 1 69.999850 -90.000190 -109.999800 -1.000000 0.000001 0.000001 0.000001 0.000001 1.000000 0.000001 1.000000 -0.000001 32526.dat
1 0 69.999970 -30.000180 -119.999800 0.000000 0.000000 1.000000 0.000000 1.000000 0.000000 -1.000000 0.000000 0.000000 2780.dat
1 0 69.999850 -90.000160 -119.999800 0.000000 0.000000 1.000000 0.000000 1.000000 0.000000 -1.000000 0.000000 0.000000 2780.dat
0 STEP
1 15 69.999640 -170.000000 30.000270 -1.000000 0.000001 -0.000001 0.000001 0.000001 -1.000000 -0.000001 -1.000000 -0.000001 64871.dat
1 0 69.999620 -310.000200 -49.789920 0.000000 0.000000 1.000000 0.000000 1.000000 0.000000 -1.000000 0.000000 0.000000 3737.dat
1 14 69.999620 -310.000200 45.410010 1.000000 0.000000 0.000000 0.000000 -1.000000 0.000000 0.000000 0.000000 -1.000000 32123a.dat
0 STEP
1 15 69.999440 -210.000100 -10.149960 1.000000 -0.000001 0.000001 0.000001 0.000001 -1.000000 0.000001 1.000000 0.000001 64290.dat
1 71 69.999620 -310.000200 9.630130 1.000000 0.000000 0.000001 0.000000 1.000000 0.000000 -0.000001 0.000000 1.000000 3713.dat
0 STEP
1 1 9.999450 -110.000000 -30.150870 0.000001 0.000001 1.000000 -1.000001 0.000001 0.000001 -0.000001 -1.000001 0.000001 32140.dat
1 0 69.999450 -110.000000 -20.150750 0.000000 0.000000 -1.000000 0.000000 1.000001 0.000000 1.000001 0.000000 0.000000 2780.dat
1 0 69.999360 -130.000000 -20.150750 0.000000 0.000000 -1.000000 0.000000 1.000001 0.000000 1.000001 0.000000 0.000000 2780.dat
0 STEP
1 1 9.999360 -110.000100 -50.151360 0.000001 0.000001 1.000000 -1.000001 0.000001 0.000001 -0.000001 -1.000001 0.000001 32140.dat
1 1 29.999440 -110.000000 -50.151360 0.000000 0.000000 -1.000000 0.000000 1.000001 0.000000 1.000001 0.000000 0.000000 6558.dat
1 1 49.999360 -110.000000 -50.151360 0.000000 0.000000 -1.000000 0.000000 1.000001 0.000000 1.000001 0.000000 0.000000 6558.dat
0 STEP
1 0 69.999530 -110.000000 -80.151360 0.000000 0.000000 -1.000000 0.000000 1.000001 0.000000 1.000001 0.000000 0.000000 2780.dat
1 0 69.999530 -130.000000 -80.151360 0.000000 0.000000 -1.000000 0.000000 1.000001 0.000000 1.000001 0.000000 0.000000 2780.dat
1 1 9.999570 -110.000000 -70.151360 0.000001 0.000001 1.000000 -1.000001 0.000001 0.000001 -0.000001 -1.000001 0.000001 32140.dat
0 STEP
1 15 69.999530 -210.000100 -90.151110 1.000000 -0.000001 0.000001 0.000001 0.000001 -1.000001 0.000001 1.000001 0.000001 64290.dat
1 71 69.999620 -310.000200 -109.960000 -1.000000 0.000000 -0.000001 0.000000 1.000000 0.000000 0.000001 0.000000 -1.000000 3713.dat
0 STEP
1 15 69.999740 -170.000100 -129.999800 -1.000000 0.000001 -0.000001 0.000001 0.000001 -1.000000 -0.000001 -1.000000 -0.000001 64871.dat
1 14 69.999620 -310.000200 -144.789900 1.000000 0.000000 0.000000 0.000000 -1.000000 0.000000 0.000000 0.000000 -1.000000 32123a.dat
0 STEP
1 16 217.999900 0.000040 -50.000040 1.000000 0.000000 0.000000 0.000000 1.000000 0.000000 0.000000 0.000000 1.000000 submodel group 4
0 STEP
1 16 -118.000100 -0.000130 -49.999760 1.000000 0.000000 0.000000 0.000000 1.000000 0.000000 0.000000 0.000000 1.000000 submodel group 3
0 STEP
1 16 69.999660 -160.000000 36.333590 1.000000 0.000000 0.000000 0.000000 1.000000 0.000000 0.000000 0.000000 1.000000 submodel group 2
0 STEP
1 16 69.999640 -160.000100 -166.333200 1.000000 0.000000 0.000000 0.000000 1.000000 0.000000 0.000000 0.000000 1.000000 submodel group 1
0 STEP
0 NOFILE
0 FILE SubModel Group 4
0 SubModel Group 4
0 Name:  SubModel Group 4
0 Author:  
0 CustomBrick
0 NumOfBricks:  10
1 71 11.999970 -10.000000 -0.000030 0.000000 -1.000000 0.000000 0.000000 0.000000 1.000000 -1.000000 0.000000 0.000000 4519.dat
1 71 11.999970 -10.000000 -0.000030 1.000000 0.000000 0.000001 0.000000 1.000000 0.000000 -0.000001 0.000000 1.000000 3713.dat
0 STEP
1 19 11.999970 -20.000020 -40.000020 0.000001 -1.000000 0.000001 -1.000000 -0.000001 0.000001 -0.000001 -0.000001 -1.000000 3749.dat
1 0 11.999970 -10.000010 -40.000020 0.000000 0.000000 1.000000 -1.000000 0.000000 0.000000 0.000000 -1.000000 0.000000 32014.dat
0 STEP
1 19 11.999970 -20.000030 40.000040 0.000001 -1.000000 0.000001 -1.000000 -0.000001 0.000001 -0.000001 -0.000001 -1.000000 3749.dat
1 0 12.000090 -10.000020 40.000040 0.000000 1.000000 0.000000 -1.000000 0.000000 0.000000 0.000000 0.000000 1.000000 32014.dat
0 STEP
1 72 11.999970 -30.000040 40.000040 1.000000 0.000000 0.000000 0.000000 0.000000 1.000000 0.000000 -1.000000 0.000000 3648b.dat
1 72 11.999970 -31.400020 -40.000020 1.000000 0.000000 0.000000 0.000000 0.000000 1.000000 0.000000 -1.000000 0.000000 3648b.dat
0 STEP
1 19 -18.000030 -10.000000 40.000040 1.000000 0.000001 -0.000001 0.000001 0.000001 1.000000 0.000001 -1.000000 0.000001 3749.dat
1 19 -18.000030 -10.000000 -40.000020 1.000000 0.000001 -0.000001 0.000001 0.000001 1.000000 0.000001 -1.000000 0.000001 3749.dat
0 STEP
0 NOFILE
0 FILE SubModel Group 3
0 SubModel Group 3
0 Name:  SubModel Group 3
0 Author:  
0 CustomBrick
0 NumOfBricks:  10
1 71 -12.000040 -9.999990 -0.000050 0.000000 -1.000000 0.000000 0.000000 0.000000 1.000000 -1.000000 0.000000 0.000000 4519.dat
1 71 -12.000040 -9.999980 -0.000050 1.000000 0.000000 0.000001 0.000000 1.000000 0.000000 -0.000001 0.000000 1.000000 3713.dat
0 STEP
1 0 -12.000040 -10.000000 40.000020 0.000000 0.000000 -1.000000 -1.000000 0.000000 0.000000 0.000000 1.000000 0.000000 32014.dat
1 19 -11.999950 -20.000020 40.000020 0.000001 -1.000000 0.000001 -1.000000 -0.000001 0.000001 -0.000001 -0.000001 -1.000000 3749.dat
0 STEP
1 19 -11.999950 -20.000030 -39.999980 0.000001 -1.000000 0.000001 -1.000000 -0.000001 0.000001 -0.000001 -0.000001 -1.000000 3749.dat
1 0 -12.000040 -10.000020 -39.999980 0.000000 -1.000000 0.000000 -1.000000 0.000000 0.000000 0.000000 0.000000 -1.000000 32014.dat
0 STEP
1 72 -11.999950 -32.730000 40.000020 1.000000 0.000000 0.000000 0.000000 0.000000 1.000000 0.000000 -1.000000 0.000000 3648b.dat
1 72 -11.999950 -30.000030 -39.999980 1.000000 0.000000 0.000000 0.000000 0.000000 1.000000 0.000000 -1.000000 0.000000 3648b.dat
0 STEP
1 19 17.999960 -10.000010 40.000020 -1.000000 -0.000001 0.000001 0.000001 0.000001 1.000000 -0.000001 1.000000 -0.000001 3749.dat
1 19 17.999960 -10.000010 -39.999980 -1.000000 -0.000001 0.000001 0.000001 0.000001 1.000000 -0.000001 1.000000 -0.000001 3749.dat
0 STEP
0 NOFILE
0 FILE SubModel Group 2
0 SubModel Group 2
0 Name:  SubModel Group 2
0 Author:  
0 CustomBrick
0 NumOfBricks:  6
1 0 -0.000030 -40.000020 33.666650 0.000000 0.000000 -1.000000 1.000000 0.000000 0.000000 0.000000 -1.000000 0.000000 3705.dat
1 71 -0.000120 -40.000090 33.666710 0.000000 -1.000000 0.000000 0.000000 0.000000 1.000000 -1.000000 0.000000 0.000000 4716.dat
0 STEP
1 4 -0.000040 -70.000000 13.666630 0.000000 -1.000000 -0.000001 -1.000000 0.000000 0.000000 0.000000 0.000001 -1.000000 32039.dat
1 4 0.000090 -10.000000 13.666690 0.000000 -1.000000 -0.000001 -1.000000 0.000000 0.000000 0.000000 0.000001 -1.000000 32039.dat
0 STEP
1 19 -0.000040 -70.000000 3.666630 0.000001 0.000001 1.000000 0.000001 -1.000000 0.000001 1.000000 0.000001 -0.000001 3749.dat
1 19 0.000090 -10.000000 3.666690 0.000001 0.000001 1.000000 0.000001 -1.000000 0.000001 1.000000 0.000001 -0.000001 3749.dat
0 STEP
0 NOFILE
0 FILE SubModel Group 1
0 SubModel Group 1
0 Name:  SubModel Group 1
0 Author:  
0 CustomBrick
0 NumOfBricks:  6
1 0 -0.000020 -40.000000 -3.666720 0.000000 0.000000 -1.000000 1.000000 0.000000 0.000000 0.000000 -1.000000 0.000000 3705.dat
1 71 -0.000020 -40.000000 -3.666720 0.000000 -1.000000 0.000000 0.000000 0.000000 1.000000 -1.000000 0.000000 0.000000 4716.dat
0 STEP
1 4 -0.000020 -70.000000 16.333280 0.000000 1.000000 0.000001 -1.000000 0.000000 0.000000 0.000000 -0.000001 1.000000 32039.dat
1 4 -0.000020 -10.000080 16.333470 0.000000 1.000000 0.000001 -1.000000 0.000000 0.000000 0.000000 -0.000001 1.000000 32039.dat
0 STEP
1 19 0.000100 -10.000080 26.333400 -0.000001 1.000000 -0.000001 -0.000001 -0.000001 -1.000000 -1.000000 -0.000001 0.000001 3749.dat
1 19 -0.000020 -70.000000 26.333280 -0.000001 -0.000001 -1.000000 0.000001 -1.000000 0.000001 -1.000000 -0.000001 0.000001 3749.dat
0 STEP
0 NOFILE
