0 Untitled Model
0 Name:  跑跑机甲
0 Author:  
0 CustomBrick
0 NumOfBricks:  34
1 1 57.420640 -70.000320 -40.000070 0.000001 0.000000 1.000008 0.000000 1.000008 0.000000 -1.000000 0.000000 0.000001 3700.dat
1 1 37.420480 -70.000320 -40.000060 0.000001 0.000000 1.000008 0.000000 1.000008 0.000000 -1.000000 0.000000 0.000001 3700.dat
1 15 47.420550 -94.000510 -50.000080 1.000008 0.000000 -0.000001 0.000000 1.000008 0.000000 0.000001 0.000000 1.000000 32064a.dat
0 STEP
1 19 67.420780 -60.000180 -40.000050 1.000008 0.000001 -0.000001 0.000001 0.000001 1.000008 0.000001 -1.000000 0.000001 3749.dat
1 19 27.420430 -60.000190 -40.000050 -1.000008 -0.000001 0.000001 -0.000001 -0.000001 -1.000008 0.000001 -1.000000 0.000001 3749.dat
0 STEP
1 1 47.420740 -110.000500 -50.000060 1.000009 0.000000 -0.000001 0.000000 1.000008 0.000000 0.000001 0.000000 1.000001 3023.dat
1 1 47.420720 -102.000500 -50.000070 1.000009 0.000000 -0.000001 0.000000 1.000008 0.000000 0.000001 0.000000 1.000001 3023.dat
0 STEP
1 1 37.420600 -78.000340 -20.000050 0.000000 0.000000 -1.000009 0.000000 1.000008 0.000000 1.000001 0.000000 0.000000 3023.dat
1 1 57.420760 -78.000340 -20.000050 0.000000 0.000000 -1.000009 0.000000 1.000008 0.000000 1.000001 0.000000 0.000000 3023.dat
0 STEP
1 1 37.420590 -102.000500 -20.000050 0.000001 0.000000 1.000009 0.000000 1.000008 0.000000 -1.000001 0.000000 0.000001 3700.dat
1 1 57.420720 -102.000500 -20.000050 0.000001 0.000000 1.000009 0.000000 1.000008 0.000000 -1.000001 0.000000 0.000001 3700.dat
0 STEP
1 15 91.911010 -60.000160 -40.000040 0.000000 -1.000008 0.000000 0.000000 0.000000 -1.000008 1.000000 0.000000 0.000000 3941.dat
1 15 4.000240 -60.000190 -40.000060 0.000000 1.000008 0.000000 0.000000 0.000000 1.000008 1.000000 0.000000 0.000000 3941.dat
0 STEP
1 19 67.420860 -92.000490 -20.000030 1.000008 0.000001 -0.000001 0.000001 0.000001 1.000008 0.000001 -1.000000 0.000001 3749.dat
1 14 82.421040 -92.000480 -20.000020 0.000000 0.000000 1.000008 0.000000 -1.000008 0.000000 1.000000 0.000000 0.000000 32123a.dat
1 14 72.420900 -92.000480 -20.000020 0.000000 0.000000 -1.000008 0.000000 1.000008 0.000000 1.000000 0.000000 0.000000 32123a.dat
0 STEP
1 19 27.420530 -92.000480 -20.000080 -1.000008 -0.000001 0.000001 0.000001 0.000001 1.000008 -0.000001 1.000000 -0.000001 3749.dat
1 14 22.420490 -92.000460 -20.000090 0.000001 0.000000 1.000008 1.000008 0.000000 0.000000 0.000000 1.000000 0.000000 32123a.dat
1 14 12.420390 -92.000460 -20.000090 0.000000 0.000000 -1.000008 0.000000 1.000008 0.000000 1.000000 0.000000 0.000000 32123a.dat
0 STEP
1 15 37.420580 -126.000700 -20.000040 0.000000 0.000000 -1.000009 0.000000 1.000008 0.000000 1.000001 0.000000 0.000000 32064a.dat
1 15 57.420720 -126.000700 -20.000040 0.000001 0.000000 1.000009 0.000000 1.000008 0.000000 -1.000001 0.000000 0.000001 32064a.dat
0 STEP
1 15 37.420700 -134.001000 -50.000060 1.000009 0.000000 -0.000001 0.000000 1.000008 0.000000 0.000001 0.000000 1.000001 3040b.dat
1 15 57.420840 -134.001000 -50.000050 1.000009 0.000000 -0.000001 0.000000 1.000008 0.000000 0.000001 0.000000 1.000001 3040b.dat
0 STEP
1 1 37.420580 -134.001000 -20.000050 0.000000 0.000000 1.000008 0.000000 1.000008 0.000000 -1.000000 0.000000 0.000000 3023.dat
1 1 57.420760 -134.001000 -20.000050 0.000000 0.000001 1.000008 0.000000 1.000008 -0.000001 -1.000000 0.000000 0.000000 3023.dat
1 15 47.420720 -158.001000 -10.000040 1.000008 0.000000 0.000000 0.000000 1.000008 0.000000 0.000000 0.000000 1.000000 32064a.dat
0 STEP
1 19 47.420770 -148.001100 -20.000040 -0.000001 1.000008 -0.000001 0.000001 0.000001 1.000008 1.000000 0.000001 -0.000001 3749.dat
1 4 47.420800 -148.001100 -30.000040 0.000000 0.000000 -1.000008 0.000000 -1.000008 0.000000 -1.000000 0.000000 0.000000 32034.dat
0 STEP
1 15 37.420600 -182.001000 -10.000040 1.000008 0.000000 -0.000001 0.000000 1.000008 0.000000 0.000001 0.000000 1.000000 3040b.dat
1 15 57.420800 -182.001000 -10.000000 1.000008 0.000000 -0.000001 0.000000 1.000008 0.000000 0.000001 0.000000 1.000000 3040b.dat
0 STEP
1 1 -20.000000 -39.999810 -50.000000 0.000000 1.000000 0.000000 -1.000000 0.000000 0.000000 0.000000 0.000000 1.000000 3701.dat
1 1 -19.999980 -40.000020 -30.000060 0.000000 1.000008 0.000000 -1.000008 0.000000 0.000000 0.000000 0.000000 1.000000 3701.dat
0 STEP
1 1 115.911100 -40.000010 -30.000030 0.000000 -1.000008 0.000000 1.000008 0.000000 0.000000 0.000000 0.000000 1.000000 3701.dat
1 1 115.911100 -40.000020 -50.000040 0.000000 -1.000008 0.000000 1.000008 0.000000 0.000000 0.000000 0.000000 1.000000 3701.dat
0 STEP
0 STEP
