0 FILE 手机支架2.io
0 Untitled Model
0 Name:  手机支架2
0 Author:  
0 CustomBrick
0 NumOfBricks:  47
1 1 -2.000000 -48.001320 91.000000 1.000000 0.000000 0.000000 0.000000 1.000000 0.000000 0.000000 0.000000 1.000000 3703.dat
1 19 -122.000000 -38.001300 100.999900 -0.000001 1.000000 -0.000001 0.000001 0.000001 1.000000 1.000000 0.000001 -0.000001 3749.dat
1 19 118.000000 -38.001300 101.000000 -0.000001 1.000000 -0.000001 0.000001 0.000001 1.000000 1.000000 0.000001 -0.000001 3749.dat
0 STEP
1 1 -41.999880 -24.001320 20.999880 0.000000 0.000000 1.000000 0.000000 1.000000 0.000000 -1.000000 0.000000 0.000000 3738.dat
1 1 -142.000000 -24.001320 21.000000 0.000000 0.000000 1.000000 0.000000 1.000000 0.000000 -1.000000 0.000000 0.000000 3738.dat
1 1 138.000200 -24.001320 21.000000 0.000000 0.000000 1.000000 0.000000 1.000000 0.000000 -1.000000 0.000000 0.000000 3738.dat
1 1 78.000160 -24.001320 21.000000 0.000000 0.000000 1.000000 0.000000 1.000000 0.000000 -1.000000 0.000000 0.000000 3738.dat
0 STEP
1 15 -142.000000 -48.001320 -29.000000 1.000000 0.000000 0.000000 0.000000 1.000000 0.000000 0.000000 0.000000 1.000000 32064a.dat
1 15 -142.000000 -48.001320 20.999880 0.000000 0.000000 1.000000 0.000000 1.000000 0.000000 -1.000000 0.000000 0.000000 3001.dat
1 15 -142.000000 -48.001320 71.000000 1.000000 0.000000 0.000000 0.000000 1.000000 0.000000 0.000000 0.000000 1.000000 32064a.dat
0 STEP
1 1 -2.000000 -48.001320 -49.000000 1.000000 0.000000 0.000000 0.000000 1.000000 0.000000 0.000000 0.000000 1.000000 3703.dat
1 19 -121.999900 -38.001300 -59.000000 0.000001 -1.000000 0.000001 0.000001 0.000001 1.000000 -1.000000 -0.000001 0.000001 3749.dat
1 19 118.000000 -38.001300 -59.000000 0.000001 -1.000000 0.000001 0.000001 0.000001 1.000000 -1.000000 -0.000001 0.000001 3749.dat
0 STEP
1 71 38.000300 -38.001060 111.370100 -0.766046 0.642786 -0.000001 0.642786 0.766046 0.000000 0.000001 0.000000 -1.000000 3713.dat
1 71 38.000300 -38.001090 -68.630000 0.766046 0.642785 0.000001 -0.642785 0.766046 0.000000 -0.000001 0.000000 1.000000 3713.dat
1 16 9.714620 -25.195660 21.038000 0.766046 0.642786 0.000001 -0.642786 0.766046 0.000000 -0.000001 0.000000 1.000000 submodel group 1
0 STEP
1 1 88.000030 -72.001300 21.000000 0.000000 0.000000 1.000000 0.000000 1.000000 0.000000 -1.000000 0.000000 0.000000 3702.dat
1 1 -22.000000 -72.001330 91.000000 1.000000 0.000000 0.000000 0.000000 1.000000 0.000000 0.000000 0.000000 1.000000 3701.dat
1 1 -22.000000 -72.001320 -49.000000 1.000000 0.000000 0.000000 0.000000 1.000000 0.000000 0.000000 0.000000 1.000000 3701.dat
0 STEP
1 0 118.000000 -38.001030 121.257300 0.000000 -1.000000 0.000000 -1.000000 0.000000 -0.000001 0.000001 0.000000 -1.000000 30391.dat
1 71 118.000000 -38.001300 120.999900 -1.000000 0.000000 0.000000 0.000000 1.000000 0.000000 0.000000 0.000000 -1.000000 55982.dat
1 0 -122.000000 -38.002190 121.256700 0.000000 -1.000000 0.000000 -1.000004 0.000000 -0.000001 0.000001 0.000000 -1.000004 30391.dat
1 71 -122.000000 -38.001300 120.999900 -1.000000 0.000000 0.000000 0.000000 1.000000 0.000000 0.000000 0.000000 -1.000000 55982.dat
0 STEP
1 1 128.000200 -48.001320 20.999880 0.000000 0.000000 1.000000 0.000000 1.000000 0.000000 -1.000000 0.000000 0.000000 3701.dat
1 15 147.999700 -48.001340 31.000000 0.000000 0.000000 -1.000000 0.000000 1.000000 0.000000 1.000000 0.000000 0.000000 3040b.dat
1 15 148.000000 -48.001300 50.999880 0.000000 0.000000 -1.000000 0.000000 1.000000 0.000000 1.000000 0.000000 0.000000 3040b.dat
1 15 138.000000 -48.001300 71.000000 -1.000000 0.000000 0.000000 0.000000 1.000000 0.000000 0.000000 0.000000 -1.000000 32064a.dat
0 STEP
1 15 148.000000 -48.001300 10.999880 0.000000 0.000000 -1.000000 0.000000 1.000000 0.000000 1.000000 0.000000 0.000000 3040b.dat
1 15 148.000000 -48.001300 -9.000120 0.000000 0.000000 -1.000000 0.000000 1.000000 0.000000 1.000000 0.000000 0.000000 3040b.dat
1 15 138.000200 -48.001300 -29.000000 -1.000000 0.000000 0.000000 0.000000 1.000000 0.000000 0.000000 0.000000 -1.000000 32064a.dat
0 STEP
1 0 118.000000 -38.000030 -79.256770 0.000000 -1.000000 0.000000 1.000004 0.000000 0.000001 -0.000001 0.000000 1.000004 30391.dat
1 71 118.000000 -38.001300 -79.000000 -1.000000 0.000000 0.000000 0.000000 -1.000000 0.000000 0.000000 0.000000 1.000000 55982.dat
1 0 -122.000000 -38.001440 -79.256770 0.000000 -1.000000 0.000000 1.000000 0.000000 0.000001 -0.000001 0.000000 1.000000 30391.dat
1 71 -121.999900 -38.001300 -79.000000 -1.000000 0.000000 0.000000 0.000000 -1.000000 0.000000 0.000000 0.000000 1.000000 55982.dat
0 STEP
1 71 -90.556200 -191.209500 -49.730280 1.000000 0.000000 0.000000 0.000000 1.000000 0.000000 0.000000 0.000000 1.000000 3649.dat
1 19 -90.710700 -191.083700 80.783020 -0.000001 1.000000 -0.000001 0.000001 0.000001 1.000000 1.000000 0.000001 -0.000001 3749.dat
1 19 -90.556200 -191.209500 -38.700200 0.000001 -1.000000 0.000001 0.000001 0.000001 1.000000 -1.000000 -0.000001 0.000001 3749.dat
1 71 -90.710700 -191.083700 91.373000 -1.000000 0.000000 0.000000 0.000000 1.000000 0.000000 0.000000 0.000000 -1.000000 3649.dat
0 STEP
0 STEP
0 NOFILE
0 FILE SubModel Group 1
0 SubModel Group 1
0 Name:  SubModel Group 1
0 Author:  
0 CustomBrick
0 NumOfBricks:  10
1 15 29.700240 -91.630130 49.744760 0.999997 0.000000 0.000000 -0.000005 0.000000 0.999997 0.000000 -1.000000 -0.000001 64290.dat
0 STEP
1 0 29.700260 -91.630000 39.744780 -0.000001 -0.999996 0.000001 0.000000 0.000004 -1.000002 1.000005 -0.000001 0.000000 2780.dat
1 14 38.478550 -37.629500 -19.045490 0.000001 0.999996 -0.000001 -1.000002 -0.000004 0.000000 0.000000 0.000000 1.000005 12344.dat
0 STEP
1 71 29.899520 -51.627980 69.952180 -1.000000 0.000000 0.000000 0.000000 1.000000 0.000000 0.000000 0.000000 -1.000000 3713.dat
1 0 29.899560 -51.627940 -0.047820 -0.000001 -0.999996 0.000001 0.000000 0.000004 -0.999997 1.000000 -0.000001 0.000000 3707.dat
0 STEP
1 0 29.899350 -91.627610 -39.737890 -0.000001 -0.999996 0.000001 0.000000 0.000004 -0.999997 1.000000 -0.000001 0.000000 2780.dat
1 14 38.689380 -105.928800 18.843290 -0.000001 0.999996 0.000001 0.999997 -0.000004 0.000000 0.000000 0.000001 -1.000000 12344.dat
0 STEP
1 15 29.899580 -91.627200 -49.737960 -1.000000 0.000000 0.000000 0.000001 -0.000001 0.999997 0.000000 0.999996 0.000001 64290.dat
1 71 29.899520 -51.628000 -70.047820 1.000000 -0.000001 0.000000 0.000001 1.000000 0.000000 0.000000 0.000000 1.000000 3713.dat
1 0 29.899260 8.372129 0.332020 0.000001 -0.999996 -0.000001 0.000000 0.000004 0.999997 -1.000000 -0.000001 0.000000 3737.dat
0 STEP
0 NOFILE
