0 FILE 高低杠.io
0 Untitled Model
0 Name:  高低杠
0 Author:  
0 CustomBrick
0 NumOfBricks:  66
1 1 40.000000 -24.000000 50.000000 1.000000 0.000000 0.000000 0.000000 1.000000 0.000000 0.000000 0.000000 1.000000 3895.dat
0 STEP
1 1 119.999900 -94.000030 70.000180 -1.000000 0.000001 0.000001 0.000001 0.000001 1.000000 0.000001 1.000000 -0.000001 32526.dat
1 0 120.000000 -13.999990 60.000120 0.000000 0.000000 -1.000000 0.000000 1.000000 0.000000 1.000000 0.000000 0.000000 2780.dat
1 0 80.000000 -13.999990 60.000120 0.000000 0.000000 -1.000000 0.000000 1.000000 0.000000 1.000000 0.000000 0.000000 2780.dat
0 STEP
1 0 119.999900 -54.000040 60.000180 0.000000 0.000000 1.000000 0.000000 1.000000 0.000000 -1.000000 0.000000 0.000000 2780.dat
1 0 119.999900 -94.000010 60.000180 0.000000 0.000000 1.000000 0.000000 1.000000 0.000000 -1.000000 0.000000 0.000000 2780.dat
1 15 119.999900 -194.000000 50.000120 -1.000000 0.000001 -0.000001 0.000001 0.000001 -1.000000 -0.000001 -1.000000 -0.000001 64871.dat
0 STEP
1 14 119.999600 -334.000000 34.979620 1.000000 0.000000 0.000000 0.000000 -1.000000 0.000000 0.000000 0.000000 -1.000000 32123a.dat
1 14 119.999600 -334.000000 -55.340400 1.000000 0.000000 0.000000 0.000000 -1.000000 0.000000 0.000000 0.000000 -1.000000 32123a.dat
1 71 119.999600 -334.000000 -9.840390 0.000000 0.000000 1.000000 0.000000 1.000000 0.000000 -1.000000 0.000000 0.000000 44294.dat
0 STEP
1 0 119.999900 -94.000040 -80.000110 0.000000 0.000000 1.000000 0.000000 1.000000 0.000000 -1.000000 0.000000 0.000000 2780.dat
1 0 119.999900 -54.000060 -80.000110 0.000000 0.000000 1.000000 0.000000 1.000000 0.000000 -1.000000 0.000000 0.000000 2780.dat
1 15 119.999800 -194.000100 -70.000240 -1.000000 0.000001 -0.000001 0.000001 0.000001 -1.000000 -0.000001 -1.000000 -0.000001 64871.dat
0 STEP
1 1 119.999800 -94.000040 -90.000110 -1.000000 0.000001 0.000001 0.000001 0.000001 1.000000 0.000001 1.000000 -0.000001 32526.dat
1 0 120.000000 -14.000000 -80.000000 0.000000 0.000000 -1.000000 0.000000 1.000000 0.000000 1.000000 0.000000 0.000000 2780.dat
1 0 79.999880 -14.000000 -80.000110 0.000000 0.000000 -1.000000 0.000000 1.000000 0.000000 1.000000 0.000000 0.000000 2780.dat
0 STEP
1 1 40.000000 -24.000000 -70.000110 1.000000 0.000000 0.000000 0.000000 1.000000 0.000000 0.000000 0.000000 1.000000 3895.dat
1 0 -0.000110 -14.000000 -80.000110 0.000000 0.000000 -1.000000 0.000000 1.000000 0.000000 1.000000 0.000000 0.000000 2780.dat
1 0 -40.000130 -14.000000 -80.000110 0.000000 0.000000 -1.000000 0.000000 1.000000 0.000000 1.000000 0.000000 0.000000 2780.dat
0 STEP
1 1 -0.000110 -94.000060 70.000110 -1.000000 0.000001 0.000001 0.000001 0.000001 1.000000 0.000001 1.000000 -0.000001 32526.dat
1 0 -40.000000 -14.000000 60.000000 0.000000 0.000000 -1.000000 0.000000 1.000000 0.000000 1.000000 0.000000 0.000000 2780.dat
1 0 0.000010 -13.999990 60.000000 0.000000 0.000000 -1.000000 0.000000 1.000000 0.000000 1.000000 0.000000 0.000000 2780.dat
0 STEP
1 0 -0.000110 -54.000040 60.000000 0.000000 0.000000 -1.000000 0.000000 1.000000 0.000000 1.000000 0.000000 0.000000 2780.dat
1 0 -0.000170 -94.000010 60.000120 0.000000 0.000000 -1.000000 0.000000 1.000000 0.000000 1.000000 0.000000 0.000000 2780.dat
1 15 -0.000110 -154.000000 50.000180 1.000000 -0.000001 0.000001 0.000001 0.000001 -1.000000 0.000001 1.000000 0.000001 64290.dat
0 STEP
1 71 -0.000110 -254.000000 -9.999880 0.000000 0.000000 1.000000 0.000000 1.000000 0.000000 -1.000000 0.000000 0.000000 44294.dat
1 14 -0.000110 -254.000000 35.080080 1.000000 0.000000 0.000000 0.000000 -1.000000 0.000000 0.000000 0.000000 -1.000000 32123a.dat
0 STEP
1 15 -0.000170 -154.000000 -69.999880 1.000000 -0.000001 0.000001 0.000001 0.000001 -1.000000 0.000001 1.000000 0.000001 64290.dat
1 14 -0.000110 -254.000100 -54.459900 1.000000 0.000000 0.000000 0.000000 -1.000000 0.000000 0.000000 0.000000 -1.000000 32123a.dat
0 STEP
1 1 -0.000170 -94.000040 -90.000110 -1.000000 0.000001 0.000001 0.000001 0.000001 1.000000 0.000001 1.000000 -0.000001 32526.dat
1 0 -0.000170 -54.000070 -80.000110 0.000000 0.000000 -1.000000 0.000000 1.000000 0.000000 1.000000 0.000000 0.000000 2780.dat
1 0 -0.000170 -94.000040 -80.000110 0.000000 0.000000 -1.000000 0.000000 1.000000 0.000000 1.000000 0.000000 0.000000 2780.dat
0 STEP
1 16 60.021110 -124.000100 66.306430 1.000000 0.000000 0.000000 0.000000 1.000000 0.000000 0.000000 0.000000 1.000000 submodel group 2
0 STEP
1 16 59.999880 -124.000000 -86.234550 1.000000 0.000000 0.000000 0.000000 1.000000 0.000000 0.000000 0.000000 1.000000 submodel group 1
0 STEP
0 STEP
0 NOFILE
0 FILE SubModel Group 2
0 SubModel Group 2
0 Name:  SubModel Group 2
0 Author:  
0 CustomBrick
0 NumOfBricks:  17
1 19 -0.021100 -20.000020 24.053540 0.000001 -1.000000 0.000001 -1.000000 -0.000001 0.000001 -0.000001 -0.000001 -1.000000 3749.dat
0 STEP
1 4 -0.021100 -10.000020 24.053540 0.000000 0.000000 -1.000000 1.000000 0.000000 0.000000 0.000000 -1.000000 0.000000 32034.dat
1 71 39.978920 -9.999909 24.053540 -1.000000 0.000000 0.000000 0.000000 0.000000 1.000000 0.000000 1.000000 0.000000 4519.dat
1 71 -40.021100 -9.999909 24.053540 -1.000000 0.000000 0.000000 0.000000 0.000000 1.000000 0.000000 1.000000 0.000000 4519.dat
0 STEP
1 19 59.978910 -9.999909 -6.306320 -0.000001 1.000000 -0.000001 0.000001 0.000001 1.000000 1.000000 0.000001 -0.000001 3749.dat
1 19 -60.021280 -9.999909 -6.306260 -0.000001 1.000000 -0.000001 0.000001 0.000001 1.000000 1.000000 0.000001 -0.000001 3749.dat
1 4 59.978920 -9.999909 4.053670 -1.000000 0.000000 0.000000 0.000000 1.000000 0.000001 0.000000 0.000001 -1.000000 32039.dat
1 4 -60.021100 -9.999909 4.053540 -1.000000 0.000000 0.000000 0.000000 1.000000 0.000001 0.000000 0.000001 -1.000000 32039.dat
0 STEP
1 71 0.068740 -40.000020 23.900830 1.000000 0.000000 0.000001 0.000001 0.000000 -1.000000 0.000000 1.000000 0.000000 59443.dat
1 19 0.068740 -60.000030 23.903880 0.000001 -1.000000 0.000001 1.000000 0.000001 -0.000001 0.000001 0.000001 1.000000 3749.dat
0 STEP
1 4 0.068800 -70.000030 23.903880 0.000000 0.000000 -1.000000 1.000000 0.000000 0.000000 0.000000 -1.000000 0.000000 32034.dat
1 71 -39.931200 -70.000030 23.903880 -1.000000 0.000000 0.000000 0.000000 0.000000 1.000000 0.000000 1.000000 0.000000 4519.dat
1 71 39.978800 -69.999910 22.693680 -1.000000 0.000000 0.000000 0.000000 0.000000 1.000000 0.000000 1.000000 0.000000 4519.dat
0 STEP
1 19 -60.021220 -69.999910 -6.306260 -0.000001 1.000000 -0.000001 0.000001 0.000001 1.000000 1.000000 0.000001 -0.000001 3749.dat
1 19 59.978800 -69.999910 -6.306320 -0.000001 1.000000 -0.000001 0.000001 0.000001 1.000000 1.000000 0.000001 -0.000001 3749.dat
1 4 59.978800 -69.999910 2.693680 -1.000000 0.000000 0.000000 0.000000 1.000000 0.000001 0.000000 0.000001 -1.000000 32039.dat
1 4 -60.021220 -69.999910 3.903880 -1.000000 0.000000 0.000000 0.000000 1.000000 0.000001 0.000000 0.000001 -1.000000 32039.dat
0 STEP
0 NOFILE
0 FILE SubModel Group 1
0 SubModel Group 1
0 Name:  SubModel Group 1
0 Author:  
0 CustomBrick
0 NumOfBricks:  17
1 19 -0.000370 -20.000020 -23.762350 0.000001 0.000001 1.000000 -1.000000 -0.000001 0.000001 0.000001 -1.000000 0.000001 3749.dat
1 71 0.000360 -40.000020 -23.761070 1.000000 0.000000 0.000001 -0.000001 0.000000 1.000000 0.000000 -1.000000 0.000000 59443.dat
0 STEP
1 71 -40.000060 -10.000020 -23.765590 -1.000001 0.000000 0.000000 0.000000 0.000000 1.000000 0.000000 1.000006 0.000000 4519.dat
1 71 39.999960 -10.000020 -23.765590 -1.000001 0.000000 0.000000 0.000000 0.000000 1.000000 0.000000 1.000006 0.000000 4519.dat
1 4 -0.000370 -10.000020 -23.762350 0.000000 0.000000 -1.000000 -1.000000 0.000000 0.000000 0.000000 1.000000 0.000000 32034.dat
0 STEP
1 19 59.999960 -10.000020 6.234410 0.000001 -1.000000 0.000001 0.000001 0.000001 1.000000 -1.000000 -0.000001 0.000001 3749.dat
1 4 59.999960 -10.000020 -3.765590 -1.000000 0.000000 0.000000 0.000000 -1.000000 -0.000001 0.000000 -0.000001 1.000000 32039.dat
1 4 -60.000050 -10.000020 -3.765340 -1.000000 0.000000 0.000000 0.000000 -1.000000 -0.000001 0.000000 -0.000001 1.000000 32039.dat
1 19 -60.000050 -10.000020 6.234660 0.000001 -1.000000 0.000001 0.000001 0.000001 1.000000 -1.000000 -0.000001 0.000001 3749.dat
0 STEP
1 19 0.000360 -60.000020 -23.763820 -0.000001 1.000000 -0.000001 1.000000 0.000001 -0.000001 -0.000001 -0.000001 -1.000000 3749.dat
1 4 0.000360 -70.000020 -23.763940 0.000000 0.000000 -1.000000 -1.000000 0.000000 0.000000 0.000000 1.000000 0.000000 32034.dat
1 71 -40.000060 -70.000020 -23.765590 -1.000002 0.000000 0.000000 0.000000 0.000000 1.000000 0.000000 1.000002 0.000000 4519.dat
1 71 40.000020 -70.000020 -23.765590 -1.000002 0.000000 0.000000 0.000000 0.000000 1.000000 0.000000 1.000002 0.000000 4519.dat
0 STEP
1 4 -59.999980 -70.000020 -3.765340 -1.000000 0.000000 0.000000 0.000000 -1.000000 -0.000001 0.000000 -0.000001 1.000000 32039.dat
1 19 -59.999980 -70.000140 6.234660 -0.000001 1.000000 -0.000001 -0.000001 -0.000001 -1.000000 -1.000000 -0.000001 0.000000 3749.dat
1 4 60.000020 -70.000140 -3.765710 -1.000000 0.000000 0.000000 0.000000 -1.000000 -0.000001 0.000000 -0.000001 1.000000 32039.dat
1 19 60.000020 -70.000140 6.234290 -0.000001 1.000000 -0.000001 -0.000001 -0.000001 -1.000000 -1.000000 -0.000001 0.000001 3749.dat
0 STEP
0 NOFILE
