0 FILE 云梯.io
0 Untitled Model
0 Name:  云梯
0 Author:  
0 CustomBrick
0 NumOfBricks:  72
1 71 40.000040 -54.000000 -120.000500 0.000000 0.000000 1.000000 0.000000 1.000000 0.000000 -1.000000 0.000000 0.000000 58120.dat
0 STEP
1 0 40.000040 -54.000000 -140.000500 -1.000000 0.000000 0.000000 0.000000 1.000000 0.000000 0.000000 0.000000 -1.000000 2780.dat
1 0 1.370010 -54.000000 -120.000500 -1.000000 0.000000 0.000000 0.000000 1.000000 0.000000 0.000000 0.000000 -1.000000 3706.dat
1 0 40.000040 -54.000000 -100.000500 -1.000000 0.000000 0.000000 0.000000 1.000000 0.000000 0.000000 0.000000 -1.000000 2780.dat
0 STEP
1 1 30.000030 -64.000000 -120.000500 0.000000 0.000000 1.000000 0.000000 1.000000 0.000000 -1.000000 0.000000 0.000000 3701.dat
1 1 30.000030 -40.000000 -120.000400 0.000000 0.000000 1.000000 0.000000 1.000000 0.000000 -1.000000 0.000000 0.000000 3023.dat
0 STEP
1 71 -18.630020 -54.000000 -120.000500 0.000000 0.000000 1.000001 0.000000 1.000000 0.000000 -1.000001 0.000000 0.000000 4716.dat
1 1 -19.999960 -32.000000 -120.000000 1.000000 0.000000 0.000000 0.000000 1.000000 0.000000 0.000000 0.000000 1.000000 32001.dat
1 47 -20.000050 -72.000020 -120.000400 1.000000 0.000000 0.000000 0.000000 1.000000 0.000000 0.000000 0.000000 1.000000 6588.dat
0 STEP
1 1 -79.999940 -24.000000 -130.000000 1.000000 0.000000 0.000000 0.000000 1.000000 0.000000 0.000000 0.000000 1.000000 3895.dat
1 1 -39.999950 -24.000000 -110.000000 1.000000 0.000000 0.000000 0.000000 1.000000 0.000000 0.000000 0.000000 1.000000 3702.dat
0 STEP
1 72 -20.000050 -94.000030 -120.410300 1.000000 0.000000 0.000000 0.000000 -1.000000 0.000000 0.000000 0.000000 -1.000000 3648b.dat
1 71 -20.000020 -94.000030 -90.000350 0.000000 0.000000 1.000001 0.000000 1.000000 0.000000 -1.000001 0.000000 0.000000 32073.dat
0 STEP
1 72 -20.000010 -94.000040 -90.000430 0.000000 -1.000000 0.000000 1.000000 0.000000 0.000000 0.000000 0.000000 1.000000 3648b.dat
1 1 -9.999980 -104.000000 -70.000360 0.000000 0.000000 -1.000000 0.000000 1.000000 0.000000 1.000000 0.000000 0.000000 6558.dat
1 1 -10.000020 -84.000030 -70.000290 0.000000 0.000000 -1.000000 0.000000 1.000000 0.000000 1.000000 0.000000 0.000000 6558.dat
0 STEP
1 1 -30.000040 -104.000000 -70.000290 0.000000 0.000000 -1.000000 0.000000 1.000000 0.000000 1.000000 0.000000 0.000000 6558.dat
1 1 -30.000040 -84.000030 -70.000360 0.000000 0.000000 -1.000000 0.000000 1.000000 0.000000 1.000000 0.000000 0.000000 6558.dat
1 72 -20.000020 -94.000000 -50.000350 0.000000 -1.000000 0.000000 1.000000 0.000000 0.000000 0.000000 0.000000 1.000000 3648b.dat
0 STEP
1 1 -80.000000 -24.000000 -29.999980 1.000000 0.000000 0.000000 0.000000 1.000000 0.000000 0.000000 0.000000 1.000000 3895.dat
1 1 -99.999980 -32.000000 -80.000060 0.000000 0.000000 1.000000 0.000000 1.000000 0.000000 -1.000000 0.000000 0.000000 32001.dat
1 0 -99.999950 -43.780020 -100.000000 0.000000 0.000000 -1.000000 -1.000000 -0.000001 0.000000 0.000000 1.000000 0.000000 2780.dat
1 0 -100.000000 -44.840060 -59.999860 0.000000 0.000000 -1.000000 -1.000000 -0.000001 0.000000 -0.000001 1.000000 0.000000 2780.dat
0 STEP
1 1 -180.000000 -32.000000 -79.999980 0.000000 0.000000 1.000000 0.000000 1.000000 0.000000 -1.000000 0.000000 0.000000 32001.dat
1 0 -180.000000 -44.840020 -99.999870 0.000000 0.000000 -1.000000 -1.000000 -0.000001 0.000000 0.000000 1.000000 0.000000 2780.dat
1 0 -180.000000 -44.840020 -59.999860 0.000000 0.000000 -1.000000 -1.000000 -0.000001 0.000000 -0.000001 1.000000 0.000000 2780.dat
0 STEP
1 16 -70.000110 -217.410100 -91.002670 0.000000 1.000002 0.000000 1.000000 0.000000 0.000000 0.000000 0.000000 -1.000002 submodel group 9 copy copy copy
0 STEP
1 1 -119.999700 -334.840000 -120.000400 -1.000000 0.000001 0.000001 0.000001 0.000001 1.000000 0.000001 1.000000 -0.000001 32526.dat
1 0 -159.999700 -254.840000 -110.000600 0.000000 0.000000 -1.000000 0.000000 1.000000 0.000000 1.000000 0.000000 0.000000 2780.dat
1 0 -119.999600 -254.840000 -110.000500 0.000000 0.000000 -1.000000 0.000000 1.000000 0.000000 1.000000 0.000000 0.000000 2780.dat
0 STEP
1 0 -119.999600 -254.840000 -50.000470 0.000000 0.000000 -1.000000 0.000000 1.000000 0.000000 1.000000 0.000000 0.000000 2780.dat
1 0 -159.999700 -254.840000 -50.000600 0.000000 0.000000 -1.000000 0.000000 1.000000 0.000000 1.000000 0.000000 0.000000 2780.dat
1 1 -119.999800 -334.840000 -40.000410 -1.000000 0.000001 0.000001 0.000001 0.000001 1.000000 0.000001 1.000000 -0.000001 32526.dat
0 STEP
1 0 -119.999800 -334.840100 -110.000500 0.000000 0.000000 -1.000000 0.000000 1.000000 0.000000 1.000000 0.000000 0.000000 2780.dat
1 0 -119.999700 -294.840000 -110.000400 0.000000 0.000000 -1.000000 0.000000 1.000000 0.000000 1.000000 0.000000 0.000000 2780.dat
1 15 -119.999700 -434.840100 -100.000400 1.000000 -0.000001 0.000001 0.000001 0.000001 -1.000000 0.000001 1.000000 0.000001 64871.dat
0 STEP
1 15 -119.999700 -434.840100 -20.000410 1.000000 -0.000001 0.000001 0.000001 0.000001 -1.000000 0.000001 1.000000 0.000001 64871.dat
1 0 -119.999800 -334.840100 -30.000470 0.000000 0.000000 -1.000000 0.000000 1.000000 0.000000 1.000000 0.000000 0.000000 2780.dat
1 0 -119.999700 -294.840100 -30.000470 0.000000 0.000000 -1.000000 0.000000 1.000000 0.000000 1.000000 0.000000 0.000000 2780.dat
0 STEP
1 15 -139.999700 -454.840100 -0.000410 0.000001 0.000001 -1.000000 -1.000000 0.000001 -0.000001 0.000001 1.000000 0.000001 64871.dat
1 71 -119.999700 -454.840100 -10.000470 0.000000 0.000000 -1.000000 0.000000 1.000000 0.000000 1.000000 0.000000 0.000000 3673.dat
0 STEP
1 15 -199.999600 -574.840100 -0.000290 0.000001 0.000001 -1.000000 -1.000000 0.000001 -0.000001 0.000001 1.000000 0.000001 40490.dat
1 71 -119.999600 -574.840100 -10.000350 0.000000 0.000000 -1.000000 0.000000 1.000000 0.000000 1.000000 0.000000 0.000000 3673.dat
0 STEP
1 71 -279.999600 -574.840200 -10.000230 0.000000 0.000000 -1.000000 0.000000 1.000000 0.000000 1.000000 0.000000 0.000000 3673.dat
1 15 -279.999600 -594.840200 -20.000230 -1.000000 0.000001 -0.000001 0.000001 0.000001 -1.000000 -0.000001 -1.000000 -0.000001 64871.dat
1 71 -279.999800 -454.840200 -10.000350 0.000000 0.000000 -1.000000 0.000000 1.000000 0.000000 1.000000 0.000000 0.000000 3673.dat
0 STEP
1 1 -240.000300 -704.840300 -40.001080 1.000002 0.000000 0.000000 0.000000 1.000000 0.000000 0.000000 0.000000 1.000002 3894.dat
1 0 -280.000300 -694.840300 -30.001080 0.000000 0.000000 -1.000002 0.000000 1.000000 0.000000 1.000002 0.000000 0.000000 2780.dat
0 STEP
1 1 -200.000400 -720.840300 -50.001140 0.000000 0.000000 1.000002 0.000000 1.000000 0.000000 -1.000002 0.000000 0.000000 3709b.dat
1 1 -200.000400 -712.840300 -50.001140 0.000000 0.000000 1.000002 0.000000 1.000000 0.000000 -1.000002 0.000000 0.000000 3709b.dat
1 1 -260.000400 -712.840300 -40.001080 1.000002 0.000000 0.000000 0.000000 1.000000 0.000000 0.000000 0.000000 1.000002 3710.dat
1 1 -260.000400 -720.840300 -40.001080 1.000002 0.000000 0.000000 0.000000 1.000000 0.000000 0.000000 0.000000 1.000002 3710.dat
0 STEP
1 1 -240.000300 -744.840300 -40.001080 1.000002 0.000000 0.000000 0.000000 1.000000 0.000000 0.000000 0.000000 1.000002 3894.dat
1 0 -279.999800 -734.840300 -30.000470 0.000000 0.000000 -1.000000 0.000000 1.000000 0.000000 1.000000 0.000000 0.000000 2780.dat
0 STEP
1 1 -240.000300 -704.840300 -80.001140 1.000002 0.000000 0.000000 0.000000 1.000000 0.000000 0.000000 0.000000 1.000002 3894.dat
1 1 -260.000400 -712.840300 -80.001140 1.000002 0.000000 0.000000 0.000000 1.000000 0.000000 0.000000 0.000000 1.000002 3710.dat
1 1 -260.000400 -720.840300 -80.001140 1.000002 0.000000 0.000000 0.000000 1.000000 0.000000 0.000000 0.000000 1.000002 3710.dat
0 STEP
1 1 -240.000300 -744.840300 -80.001140 1.000002 0.000000 0.000000 0.000000 1.000000 0.000000 0.000000 0.000000 1.000002 3894.dat
0 STEP
1 15 -280.000200 -594.840300 -100.001400 1.000000 -0.000001 0.000001 -0.000001 -0.000001 1.000000 -0.000001 -1.000000 -0.000001 64871.dat
1 0 -280.000300 -694.840300 -90.001220 0.000000 0.000000 -1.000002 0.000000 1.000000 0.000000 1.000002 0.000000 0.000000 2780.dat
1 0 -280.000300 -734.840300 -90.001220 0.000000 0.000000 -1.000002 0.000000 1.000000 0.000000 1.000002 0.000000 0.000000 2780.dat
0 STEP
1 71 -119.999600 -574.840000 -110.000400 0.000000 0.000000 -1.000000 0.000000 1.000000 0.000000 1.000000 0.000000 0.000000 3673.dat
1 15 -200.000200 -574.840200 -120.001500 0.000001 0.000001 -1.000000 -1.000000 0.000001 -0.000001 0.000001 1.000000 0.000001 40490.dat
1 71 -280.000200 -574.840300 -110.001500 0.000000 0.000000 -1.000000 0.000000 1.000000 0.000000 1.000000 0.000000 0.000000 3673.dat
0 STEP
1 4 0.000320 -454.839900 -0.000540 -0.000001 1.000000 -0.000001 0.000001 0.000001 1.000000 1.000000 0.000001 -0.000001 32054.dat
1 71 0.000440 -454.840000 -60.000540 0.000000 0.000000 1.000000 0.000000 1.000000 0.000000 -1.000000 0.000000 0.000000 32073.dat
1 4 0.000460 -454.840000 -120.000500 0.000001 -1.000000 0.000001 0.000001 0.000001 1.000000 -1.000000 -0.000001 0.000001 32054.dat
0 STEP
1 15 -139.999800 -454.841000 -120.002400 0.000001 0.000001 -1.000000 -1.000000 0.000001 -0.000001 0.000001 1.000000 0.000001 64871.dat
1 71 -279.999900 -454.841200 -110.002300 0.000000 0.000000 -1.000000 0.000000 1.000001 0.000000 1.000001 0.000000 0.000000 3673.dat
1 71 -119.999700 -454.840100 -110.000400 0.000000 0.000000 -1.000000 0.000000 1.000000 0.000000 1.000000 0.000000 0.000000 3673.dat
0 STEP
0 STEP
0 NOFILE
0 FILE SubModel Group 9 Copy Copy Copy
0 SubModel Group 9 Copy Copy Copy
0 Name:  SubModel Group 9 Copy Copy Copy
0 Author:  
0 CustomBrick
0 NumOfBricks:  3
1 72 10.000000 -1.128810 -10.000000 1.000000 0.000000 0.000000 0.000000 0.000000 -1.000000 0.000000 1.000000 0.000000 dch003.dat
1 71 -27.466620 -79.717990 29.427020 1.000000 0.000000 0.000000 0.000000 0.000000 -1.000000 0.000000 1.000000 0.000000 dch004.dat
1 25 7.837010 13.484720 -9.965000 1.000000 0.000000 0.000000 0.000000 0.000000 -1.000000 0.000000 1.000000 0.000000 dch005.dat
0 NOFILE
