0 FILE 简易搅拌器.io
0 Untitled Model
0 Name:  简易搅拌器
0 Author:  
0 CustomBrick
0 NumOfBricks:  41
1 71 -120.000000 -72.349940 41.309880 -1.000000 0.000000 0.000000 0.000000 0.000000 1.000000 0.000000 1.000000 0.000000 4519.dat
1 0 -150.562900 -72.349930 41.306760 0.000000 0.000000 -0.999990 0.000000 1.000000 0.000000 0.999990 0.000000 0.000000 44309.dat
1 71 -150.560000 -72.349940 41.309880 0.000000 0.000000 -1.000000 1.000000 0.000000 0.000000 0.000000 -1.000000 0.000000 56145.dat
0 STEP
1 71 -120.000000 -72.349940 41.309880 0.000001 0.000000 -1.000000 0.000000 1.000000 0.000000 1.000000 0.000000 0.000001 3713.dat
1 0 -100.000100 -72.349940 41.309760 1.000000 0.000000 0.000000 0.000000 1.000000 0.000000 0.000000 0.000000 1.000000 32291.dat
0 STEP
1 0 -110.000100 -52.349940 51.309760 0.000000 0.000000 -1.000000 0.000000 1.000000 0.000000 1.000000 0.000000 0.000000 2780.dat
1 0 -90.000060 -52.349960 51.309880 0.000000 0.000000 -1.000000 0.000000 1.000000 0.000000 1.000000 0.000000 0.000000 2780.dat
1 15 -10.000090 -52.350060 61.310000 0.000001 0.000001 -1.000000 1.000000 -0.000001 0.000001 -0.000001 -1.000000 -0.000001 64290.dat
0 STEP
1 72 30.000000 -52.349880 100.000000 0.992114 -0.125332 0.000000 0.125332 0.992114 0.000000 0.000000 0.000000 1.000000 3648b.dat
1 0 29.999910 -52.349900 88.179870 0.000000 -0.125332 0.992114 0.000000 0.992114 0.125332 -1.000000 0.000000 0.000000 3707.dat
1 71 30.000000 -52.349880 80.000000 0.992114 -0.125332 0.000001 0.125332 0.992114 0.000000 -0.000001 0.000000 1.000000 3713.dat
0 STEP
1 71 29.999910 -52.349880 25.779850 0.992114 0.125332 0.000000 0.125332 -0.992114 0.000000 0.000000 0.000000 -1.000000 4185.dat
1 71 29.999910 -52.349880 16.179870 0.992114 0.125332 0.000000 0.125332 -0.992114 0.000000 0.000000 0.000000 -1.000000 4185.dat
1 71 29.999910 -52.349880 40.789740 0.992114 -0.125332 0.000001 0.125332 0.992114 0.000000 -0.000001 0.000000 1.000000 3713.dat
0 STEP
1 1 27.493280 -32.507600 -1.820130 0.000000 -0.125332 0.992114 0.000000 0.992114 0.125332 -1.000000 0.000000 0.000000 6558.dat
1 1 48.615240 -60.077740 -0.220150 0.000000 -0.125332 0.992114 0.000000 0.992114 0.125332 -1.000000 0.000000 0.000000 6558.dat
1 1 13.891220 -64.464320 -0.220150 0.000000 -0.125332 0.992114 0.000000 0.992114 0.125332 -1.000000 0.000000 0.000000 6558.dat
0 STEP
1 72 90.000000 -52.349820 99.960090 1.000000 0.000000 0.000000 0.000000 1.000000 0.000000 0.000000 0.000000 1.000000 3648b.dat
1 71 89.999900 -52.349820 80.450080 1.000000 0.000000 0.000001 0.000000 1.000000 0.000000 -0.000001 0.000000 1.000000 3713.dat
1 0 89.999900 -52.349820 90.289980 0.000000 0.000000 1.000000 0.000000 1.000000 0.000000 -1.000000 0.000000 0.000000 3707.dat
0 STEP
1 71 89.999900 -52.349820 26.289980 1.000000 0.000000 0.000000 0.000000 -1.000000 0.000000 0.000000 0.000000 -1.000000 4185.dat
1 71 89.999900 -52.349820 16.289980 1.000000 0.000000 0.000000 0.000000 -1.000000 0.000000 0.000000 0.000000 -1.000000 4185.dat
1 71 89.999900 -52.349820 41.729980 1.000000 0.000000 0.000001 0.000000 1.000000 0.000000 -0.000001 0.000000 1.000000 3713.dat
0 STEP
1 1 107.499900 -42.349820 -1.710020 0.000000 0.000000 1.000000 0.000000 1.000000 0.000000 -1.000000 0.000000 0.000000 6558.dat
1 1 72.499900 -42.349820 -1.710020 0.000000 0.000000 1.000000 0.000000 1.000000 0.000000 -1.000000 0.000000 0.000000 6558.dat
1 1 89.999900 -72.349820 -1.710020 0.000000 0.000000 1.000000 0.000000 1.000000 0.000000 -1.000000 0.000000 0.000000 6558.dat
0 STEP
1 71 -50.000000 -52.350010 78.739870 1.000000 0.000000 0.000001 0.000000 1.000000 0.000000 -0.000001 0.000000 1.000000 3713.dat
1 71 -50.000000 -52.350000 98.740050 1.000000 0.000000 0.000000 0.000000 1.000000 0.000000 0.000000 0.000000 1.000000 3649.dat
1 15 -10.000090 -52.350030 119.170000 -0.000001 -0.000001 0.999999 1.000000 -0.000001 0.000001 0.000001 0.999999 0.000001 64290.dat
1 0 -50.000100 -52.350060 111.719700 0.000000 0.000000 1.000000 0.000000 1.000000 0.000000 -1.000000 0.000000 0.000000 3706.dat
0 STEP
1 0 69.999900 -52.349910 129.170000 0.000000 0.000000 -0.999999 0.000000 -1.000000 0.000000 -0.999999 0.000000 0.000000 2780.dat
1 0 -109.999800 -52.350160 129.169700 0.000000 0.000000 -0.999999 0.000000 -1.000000 0.000000 -0.999999 0.000000 0.000000 2780.dat
1 15 -10.000000 -52.350030 139.170000 -0.000001 -0.000001 1.000000 1.000000 -0.000001 0.000001 0.000001 0.999999 0.000001 64290.dat
0 STEP
1 0 -29.999910 -52.350030 149.170000 0.000000 0.000000 -0.999999 0.000000 -1.000000 0.000000 -0.999999 0.000000 0.000000 2780.dat
1 0 -69.999850 -52.350100 149.170000 0.000000 0.000000 -0.999999 0.000000 -1.000000 0.000000 -0.999999 0.000000 0.000000 2780.dat
1 71 30.000000 -52.349900 158.000000 -0.992114 -0.125332 -0.000001 -0.125332 0.992114 0.000000 0.000001 0.000000 -1.000000 3713.dat
1 71 90.000000 -52.349820 159.450100 -1.000000 0.000000 -0.000001 0.000000 1.000000 0.000000 0.000001 0.000000 -1.000000 3713.dat
0 STEP
1 71 -49.999820 -52.350100 149.170000 1.000000 0.000000 0.000000 0.000000 1.000000 0.000000 0.000000 0.000000 1.000000 58120.dat
1 16 -199.000000 0.000000 412.000000 0.000000 0.000000 1.000000 0.000000 1.000000 0.000000 -1.000000 0.000000 0.000000 submodel group 9 copy copy copy
0 STEP
0 STEP
0 NOFILE
0 FILE SubModel Group 9 Copy Copy Copy
0 SubModel Group 9 Copy Copy Copy
0 Name:  SubModel Group 9 Copy Copy Copy
0 Author:  
0 CustomBrick
0 NumOfBricks:  3
1 72 10.000000 -1.128810 -10.000000 1.000000 0.000000 0.000000 0.000000 0.000000 -1.000000 0.000000 1.000000 0.000000 dch003.dat
1 71 -27.466620 -79.717990 29.427020 1.000000 0.000000 0.000000 0.000000 0.000000 -1.000000 0.000000 1.000000 0.000000 dch004.dat
1 25 7.837010 13.484720 -9.965000 1.000000 0.000000 0.000000 0.000000 0.000000 -1.000000 0.000000 1.000000 0.000000 dch005.dat
0 NOFILE
