0 FILE 扁担舞2（带皮筋.io
0 Untitled Model
0 Name:  扁担舞2（带皮筋
0 Author:  
0 CustomBrick
0 NumOfBricks:  75
1 0 -99.588900 -22.000160 -291.270200 0.000000 0.000000 -1.000000 0.000000 0.999998 0.000001 1.000000 0.000000 0.000000 2780.dat
1 0 -139.588900 -22.000100 -291.270100 0.000000 0.000000 -1.000000 0.000000 0.999998 0.000001 1.000000 0.000000 0.000000 2780.dat
1 15 -119.588900 -22.000080 -301.270100 0.000001 0.000001 -1.000000 -0.999998 0.000001 0.000000 0.000001 1.000000 0.000001 64290.dat
0 STEP
1 1 -99.588950 -102.000000 -281.270100 -1.000000 0.000001 0.000001 0.000002 0.000001 0.999997 0.000001 1.000000 -0.000001 32526.dat
1 19 -99.588870 -42.000110 -271.270100 -0.000001 1.000000 -0.000001 0.000001 0.000000 0.999998 1.000000 0.000001 -0.000001 3749.dat
0 STEP
1 71 -99.588920 -42.002940 -251.270100 1.000000 0.000000 0.000001 -0.000001 0.999998 0.000000 -0.000001 0.000000 1.000000 59443.dat
1 19 -99.588900 -42.000100 -231.270100 0.000001 -1.000000 0.000001 0.000001 0.000002 0.999998 -1.000000 -0.000001 0.000001 3749.dat
0 STEP
1 1 -99.588990 -102.000000 -221.270000 -1.000000 0.000001 0.000001 0.000002 0.000001 0.999997 0.000001 1.000000 -0.000001 32526.dat
1 0 -99.589050 -22.000160 -211.269500 0.000000 0.000000 -1.000000 0.000000 0.999998 0.000001 1.000000 0.000000 0.000000 2780.dat
1 0 -139.588900 -22.000180 -211.270100 0.000000 0.000000 1.000000 0.000000 0.999998 -0.000001 -1.000000 0.000000 0.000000 2780.dat
0 STEP
1 15 -119.589000 -22.000160 -201.269500 -0.000001 -0.000001 1.000000 0.999998 -0.000001 0.000000 0.000001 1.000000 0.000001 64290.dat
0 STEP
1 15 -99.000000 -181.624800 -267.000000 1.000000 0.000000 0.000000 0.000000 1.000000 0.000000 0.000000 0.000000 1.000000 xpj0115.dat.dat
1 71 -99.588870 -81.999980 -259.999900 1.000000 0.000000 0.000001 -0.000001 0.999998 0.000000 -0.000001 0.000000 1.000000 3713.dat
1 1 -99.588930 -102.000000 -301.270100 0.000000 0.000000 1.000000 0.000000 0.999998 -0.000001 -1.000000 0.000000 0.000000 6558.dat
1 1 -99.588870 -62.000050 -301.270100 0.000001 0.000000 1.000000 0.000000 0.999998 -0.000001 -1.000000 0.000000 0.000001 6558.dat
1 0 -99.588960 -81.999980 -289.999900 0.000000 0.000000 1.000000 0.000000 0.999998 -0.000001 -1.000000 0.000000 0.000000 3705.dat
1 15 -99.589000 -201.999600 -301.270100 -1.000000 0.000001 -0.000001 0.000001 0.000001 -0.999997 -0.000001 -1.000000 -0.000001 64871.dat
0 STEP
1 0 -99.588990 -102.000000 -211.270000 0.000000 0.000000 -1.000000 0.000000 0.999998 0.000001 1.000000 0.000000 0.000000 2780.dat
1 0 -99.588960 -62.000060 -211.270100 0.000000 0.000000 -1.000000 0.000000 0.999998 0.000001 1.000000 0.000000 0.000000 2780.dat
0 STEP
1 15 -99.589080 -201.999700 -201.270100 -1.000000 0.000001 -0.000001 0.000002 0.000001 -0.999998 -0.000001 -1.000000 -0.000001 64871.dat
0 STEP
1 19 -19.588940 -22.000020 -311.270200 0.000001 -1.000000 0.000001 0.000001 0.000002 0.999998 -1.000000 -0.000001 0.000001 3749.dat
1 19 -219.588900 -22.000090 -311.270100 0.000001 -1.000000 0.000001 0.000001 0.000002 0.999998 -1.000000 -0.000001 0.000001 3749.dat
1 19 -219.589100 -22.000170 -191.269700 -0.000001 1.000000 -0.000001 0.000001 0.000000 0.999998 1.000000 0.000001 -0.000001 3749.dat
1 19 -19.589140 -22.000090 -191.269300 -0.000001 1.000000 -0.000001 0.000001 0.000000 0.999998 1.000000 0.000001 -0.000001 3749.dat
0 STEP
1 15 -219.589100 -32.000150 -181.269700 1.000000 0.000000 0.000000 -0.000001 0.999998 0.000000 0.000000 0.000000 1.000000 32064a.dat
1 15 -19.589130 -32.000050 -180.149300 1.000000 0.000000 0.000000 -0.000001 0.999998 0.000000 0.000000 0.000000 1.000000 32064a.dat
1 15 -19.588910 -31.999950 -321.270200 1.000000 0.000000 0.000000 -0.000001 0.999998 0.000000 0.000000 0.000000 1.000000 32064a.dat
1 15 -219.588800 -32.000060 -321.270100 1.000000 0.000000 0.000000 -0.000001 0.999998 0.000000 0.000000 0.000000 1.000000 32064a.dat
0 STEP
1 1 -219.589100 -8.000200 -191.269700 -1.000000 0.000000 0.000000 0.000001 0.999998 0.000000 0.000000 0.000000 -1.000000 3709b.dat
1 1 -19.588930 -8.000020 -311.270200 -1.000000 0.000000 0.000000 0.000001 0.999998 0.000000 0.000000 0.000000 -1.000000 3709b.dat
1 1 -219.588800 -8.000110 -311.270100 -1.000000 0.000000 0.000000 0.000001 0.999998 0.000000 0.000000 0.000000 -1.000000 3709b.dat
1 1 -19.589140 -8.000120 -190.149400 -1.000000 0.000000 0.000000 0.000001 0.999998 0.000000 0.000000 0.000000 -1.000000 3709b.dat
0 STEP
1 15 -229.588900 -55.999980 -321.270100 0.000000 0.000000 -1.000000 0.000000 0.999998 0.000001 1.000000 0.000000 0.000000 3040b.dat
1 15 -9.588880 -55.999920 -321.270300 0.000000 0.000000 1.000000 0.000000 0.999998 -0.000001 -1.000000 0.000000 0.000000 3040b.dat
1 15 -29.589120 -56.000000 -180.149300 0.000000 0.000000 -1.000000 0.000000 0.999998 0.000001 1.000000 0.000000 0.000000 3040b.dat
1 15 -209.589000 -56.000110 -181.269700 0.000000 0.000000 1.000000 0.000000 0.999998 -0.000001 -1.000000 0.000000 0.000000 3040b.dat
0 STEP
1 71 -99.588900 -82.000010 -311.270100 -1.000000 0.000000 0.000000 0.000001 0.999998 0.000000 0.000000 0.000000 -1.000000 58120.dat
0 STEP
1 71 -99.588930 -181.999800 -282.350100 0.941610 0.336706 0.000001 -0.336706 0.941608 0.000000 -0.000001 0.000000 1.000000 3713.dat
1 71 -99.588930 -181.999800 -322.350100 0.941610 0.336706 0.000001 -0.336706 0.941608 0.000000 -0.000001 0.000000 1.000000 3713.dat
1 71 -99.588960 -181.999800 -222.350100 0.941610 0.336706 0.000001 -0.336706 0.941608 0.000000 -0.000001 0.000000 1.000000 3713.dat
1 71 -99.588950 -181.999700 -183.840100 0.941610 0.336706 0.000001 -0.336706 0.941608 0.000000 -0.000001 0.000000 1.000000 3713.dat
1 71 -99.588960 -181.999700 -267.350200 0.336706 0.941611 0.000000 0.941608 -0.336707 0.000000 0.000000 0.000000 -1.000000 4185.dat
1 71 -99.588950 -181.999700 -242.350100 0.000000 0.336706 0.941610 0.000000 0.941608 -0.336706 -1.000000 0.000000 0.000000 60485.dat
0 STEP
1 71 -99.588950 -181.999700 -162.350200 0.336706 -0.941611 0.000000 0.941608 0.336706 0.000000 0.000000 0.000000 1.000000 3649.dat
1 71 -124.470100 -162.482500 -152.350100 0.000000 0.336706 -0.941610 0.000000 0.941608 0.336706 1.000000 0.000000 0.000000 3673.dat
0 STEP
1 14 -99.589210 -341.999200 -286.810300 0.737273 -0.675596 0.000000 -0.675596 -0.737270 0.000000 0.000000 0.000000 -1.000000 32123a.dat
1 71 -99.589250 -341.999300 -321.810200 -0.675596 0.737272 -0.000001 -0.737270 -0.675596 0.000000 -0.000001 0.000000 1.000000 3713.dat
1 71 -99.589160 -341.999300 -221.810300 -0.675596 0.737273 -0.000001 -0.737270 -0.675596 0.000000 -0.000001 0.000000 1.000000 3713.dat
1 0 -99.589210 -341.999300 -251.810200 0.000000 0.737273 -0.675596 0.000000 -0.675596 -0.737270 -1.000000 0.000000 0.000000 3707.dat
0 STEP
1 0 -128.463400 -329.104200 -171.810200 0.000000 0.043627 -0.999048 0.000000 0.999046 0.043628 1.000000 0.000000 0.000000 2780.dat
1 0 -114.951300 -314.358600 -171.810200 0.000000 0.043627 -0.999048 0.000000 0.999046 0.043628 1.000000 0.000000 0.000000 2780.dat
1 71 -99.589250 -341.999200 -181.810300 -0.675596 -0.737273 0.000000 -0.737270 0.675596 0.000000 0.000000 0.000000 -1.000000 3649.dat
0 STEP
1 71 -74.415550 -270.122300 -151.810200 0.000000 0.000000 -1.000000 0.000000 0.999998 0.000001 1.000000 0.000000 0.000000 3673.dat
1 15 -101.439400 -299.613200 -161.810200 0.737271 0.000001 -0.675598 -0.675597 0.000000 -0.737268 -0.000001 1.000000 0.000000 32316.dat
0 STEP
1 15 -99.772510 -215.743800 -141.810400 -0.906309 0.000001 0.422617 -0.422615 0.000001 -0.906306 -0.000001 -1.000000 -0.000001 32524.dat
0 STEP
1 0 -84.226940 -369.639900 -171.810300 0.000000 -0.793349 -0.608768 0.000000 0.608767 -0.793346 1.000000 0.000000 0.000000 2780.dat
1 0 -70.715140 -354.894200 -171.810300 0.000000 -0.382677 -0.923882 0.000000 0.923880 -0.382675 1.000000 0.000000 0.000000 2780.dat
0 STEP
1 15 -84.227000 -369.640000 -161.810200 0.737271 0.000001 -0.675597 -0.675597 0.000001 -0.737268 0.000000 1.000000 0.000001 32524.dat
0 STEP
1 19 -57.203130 -340.149300 -151.810300 -0.000001 0.709846 -0.704357 0.000001 0.704354 0.709845 1.000000 0.000000 -0.000001 3749.dat
1 0 -42.892820 -326.177400 -151.810100 0.000000 0.000000 -1.000000 0.000000 0.999998 0.000001 1.000000 0.000000 0.000000 2780.dat
1 0 -125.278300 -413.386500 -151.810100 0.000000 0.000000 -1.000000 0.000000 0.999998 0.000001 1.000000 0.000000 0.000000 2780.dat
1 19 -111.250900 -399.130700 -151.810100 -0.000001 0.707107 0.707106 0.000001 -0.707106 0.707105 1.000000 0.000001 0.000000 3749.dat
0 STEP
1 1 89.999790 -330.595900 -141.810200 -0.153253 0.000001 -0.988186 -0.988184 0.000001 0.153254 0.000001 1.000000 0.000000 32271.dat
1 1 -121.375700 -546.295300 -141.810100 0.988774 0.000002 -0.149417 0.149416 0.000000 0.988772 0.000002 -1.000000 0.000000 32271.dat
0 STEP
1 19 -8.818880 -315.270500 -131.810200 -0.000001 1.000000 -0.000001 0.000001 0.000000 0.999998 1.000000 0.000001 -0.000001 3749.dat
1 19 -136.317300 -447.417900 -131.810100 -0.000001 1.000000 -0.000001 0.000001 0.000000 0.999998 1.000000 0.000001 -0.000001 3749.dat
0 STEP
1 71 -136.317300 -447.417900 -121.810100 0.000000 -1.000000 0.000000 0.999998 0.000001 0.000001 -0.000001 0.000000 1.000000 94925.dat
1 71 -8.818900 -315.270500 -121.810200 0.000000 -1.000000 0.000000 0.999998 0.000001 0.000001 -0.000001 0.000000 1.000000 94925.dat
0 STEP
1 4 89.999790 -330.595900 -131.810200 0.000000 0.153253 -0.988187 0.000000 0.988184 0.153254 1.000000 0.000000 0.000000 32062.dat
1 4 -121.375700 -546.295300 -131.810100 0.000000 -0.149417 -0.988774 0.000000 0.988772 -0.149416 1.000000 0.000000 0.000000 32062.dat
0 STEP
1 72 90.000000 -330.595800 -120.000000 0.988187 -0.153253 0.000000 -0.153253 -0.988187 0.000000 0.000000 0.000000 -1.000000 3648b.dat
1 72 -121.375700 -546.295300 -121.810100 0.988775 0.149417 0.000000 0.149416 -0.988772 0.000000 0.000000 0.000000 -1.000000 3648b.dat
0 STEP
1 16 -225.000000 0.000000 -546.000000 1.000000 0.000000 0.000000 0.000000 1.000000 0.000000 0.000000 0.000000 1.000000 submodel group 9 copy copy copy
0 STEP
0 STEP
0 NOFILE
0 FILE SubModel Group 9 Copy Copy Copy
0 SubModel Group 9 Copy Copy Copy
0 Name:  SubModel Group 9 Copy Copy Copy
0 Author:  
0 CustomBrick
0 NumOfBricks:  3
1 72 10.000000 -1.128810 -10.000000 1.000000 0.000000 0.000000 0.000000 0.000000 -1.000000 0.000000 1.000000 0.000000 dch003.dat
1 71 -27.466620 -79.717990 29.427020 1.000000 0.000000 0.000000 0.000000 0.000000 -1.000000 0.000000 1.000000 0.000000 dch004.dat
1 25 7.837010 13.484720 -9.965000 1.000000 0.000000 0.000000 0.000000 0.000000 -1.000000 0.000000 1.000000 0.000000 dch005.dat
0 NOFILE
