0 FILE 荷兰风车.io
0 Untitled Model
0 Name:  荷兰风车
0 Author:  
0 CustomBrick
0 NumOfBricks:  201
1 19 -96.999200 -253.193800 -210.329800 -0.000001 1.000000 -0.000001 0.000001 0.000001 1.000000 1.000000 0.000001 -0.000001 3749.dat
1 19 -96.999260 -253.193900 -150.329800 -0.000001 1.000000 -0.000001 -0.000001 -0.000001 -1.000000 -1.000000 -0.000001 0.000001 3749.dat
1 71 -56.998980 -253.193900 -180.329400 0.000000 0.000000 0.999999 0.000000 1.000000 0.000000 -0.999999 0.000000 0.000000 64179.dat
0 STEP
1 19 -16.999240 -253.193800 -210.329900 -0.000001 1.000000 -0.000001 0.000001 0.000001 1.000000 1.000000 0.000001 -0.000001 3749.dat
1 19 -16.999300 -253.193900 -150.329800 -0.000001 1.000000 -0.000001 -0.000001 -0.000001 -1.000000 -1.000000 -0.000001 0.000001 3749.dat
0 STEP
1 72 -56.999290 -253.193800 -204.589900 1.000000 0.000000 0.000000 0.000000 0.000000 -1.000000 0.000000 1.000000 0.000000 99773.dat
1 72 -56.999360 -253.193900 -155.329900 1.000000 0.000000 0.000000 0.000000 0.000000 -1.000000 0.000000 1.000000 0.000000 99773.dat
0 STEP
1 71 -57.479270 -253.193900 -180.329800 0.000000 0.000000 1.000000 0.000000 1.000000 0.000000 -1.000000 0.000000 0.000000 4716.dat
1 71 -56.999230 -253.193900 -180.329800 -1.000000 0.000000 0.000000 0.000000 1.000000 0.000000 0.000000 0.000000 -1.000000 60485.dat
1 71 -16.999240 -253.193900 -180.329800 0.000001 0.000000 -1.000000 0.000000 1.000000 0.000000 1.000000 0.000000 0.000001 3713.dat
1 71 -96.999200 -253.193900 -180.329800 0.000001 0.000000 -1.000000 0.000000 1.000000 0.000000 1.000000 0.000000 0.000001 3713.dat
1 14 -81.999170 -253.193900 -180.329900 0.000000 0.000000 1.000000 0.000000 1.000000 0.000000 -1.000000 0.000000 0.000000 32123a.dat
1 14 -32.089270 -253.193900 -180.329900 0.000000 0.000000 1.000000 0.000000 1.000000 0.000000 -1.000000 0.000000 0.000000 32123a.dat
0 STEP
1 0 -126.999100 -253.193900 -200.329800 -1.000000 0.000000 0.000000 0.000000 1.000000 0.000000 0.000000 0.000000 -1.000000 2780.dat
1 0 -126.999300 -253.193900 -160.329800 -1.000000 0.000000 0.000000 0.000000 1.000000 0.000000 0.000000 0.000000 -1.000000 2780.dat
0 STEP
1 71 23.000660 -253.193900 -180.329800 0.000001 0.000000 -1.000000 1.000000 0.000000 0.000001 0.000000 -1.000000 0.000000 94925.dat
0 STEP
1 14 -131.200000 -322.200400 -229.119200 1.000000 0.000000 0.000000 0.000000 0.000000 1.000000 0.000000 -1.000000 0.000000 12344.dat
1 1 -116.999000 -253.193900 -220.329600 0.000000 0.000000 1.000000 -1.000003 0.000000 0.000000 0.000000 -1.000003 0.000000 6558.dat
1 1 -76.998980 -253.193900 -220.329600 0.000000 0.000000 1.000000 -1.000003 0.000000 0.000000 0.000000 -1.000003 0.000000 6558.dat
0 STEP
1 14 17.201510 -322.200200 -211.539700 -1.000000 0.000000 0.000000 0.000000 0.000000 0.999996 0.000000 0.999996 0.000000 12344.dat
1 1 3.000970 -253.193800 -220.329600 0.000000 0.000000 -1.000000 -1.000000 0.000000 0.000000 0.000000 1.000000 0.000000 6558.dat
1 1 -36.999000 -253.193800 -220.329600 0.000000 0.000000 -1.000000 -1.000000 0.000000 0.000000 0.000000 1.000000 0.000000 6558.dat
0 STEP
1 14 -131.200400 -322.200200 -149.118800 1.000000 0.000000 0.000000 0.000000 0.000000 1.000000 0.000000 -1.000000 0.000000 12344.dat
1 1 -116.999400 -253.193900 -140.330000 0.000000 0.000000 1.000000 -1.000000 0.000000 0.000000 0.000000 -1.000000 0.000000 6558.dat
1 1 -76.999360 -253.193900 -140.330000 0.000000 0.000000 1.000000 -1.000000 0.000000 0.000000 0.000000 -1.000000 0.000000 6558.dat
1 14 17.201570 -322.200100 -131.539600 -1.000000 0.000000 0.000000 0.000000 0.000000 0.999997 0.000000 0.999997 0.000000 12344.dat
1 1 3.001030 -253.193700 -140.329400 0.000000 0.000000 -1.000000 -1.000001 0.000000 0.000000 0.000000 1.000001 0.000000 6558.dat
1 1 -36.999000 -253.193700 -140.329400 0.000000 0.000000 -1.000000 -1.000001 0.000000 0.000000 0.000000 1.000001 0.000000 6558.dat
0 STEP
1 71 -56.999360 -233.193900 -180.330400 0.000000 0.000000 1.000000 0.000000 1.000000 0.000000 -1.000000 0.000000 0.000000 64179.dat
0 STEP
1 72 -57.000000 -293.193800 -180.000000 -1.000000 0.000000 0.000000 0.000000 1.000000 0.000000 0.000000 0.000000 -1.000000 3648b.dat
1 14 -56.999360 -293.193800 -165.329900 1.000000 0.000000 0.000000 0.000000 1.000000 0.000000 0.000000 0.000000 1.000000 32123a.dat
1 14 -56.999360 -293.193800 -194.689900 1.000000 0.000000 0.000000 0.000000 1.000000 0.000000 0.000000 0.000000 1.000000 32123a.dat
1 71 -56.999360 -293.193800 -190.329900 0.000000 0.000000 -1.000000 0.000000 1.000000 0.000000 1.000000 0.000000 0.000000 32073.dat
0 STEP
1 14 -56.999360 -293.193800 -214.920100 1.000000 0.000000 0.000000 0.000000 1.000000 0.000000 0.000000 0.000000 1.000000 32123a.dat
1 14 -56.999360 -293.193800 -225.330000 1.000000 0.000000 0.000000 0.000000 1.000000 0.000000 0.000000 0.000000 1.000000 32123a.dat
1 14 -56.999360 -293.193800 -145.329800 0.000000 -1.000000 0.000000 1.000000 0.000000 0.000000 0.000000 0.000000 1.000000 32123a.dat
0 STEP
1 1 -56.999290 -243.193900 -240.330500 1.000000 0.000000 0.000000 0.000000 1.000000 0.000000 0.000000 0.000000 1.000000 3895.dat
1 1 -96.999320 -233.193900 -240.330500 0.000000 0.000000 1.000000 0.000000 1.000000 0.000000 -1.000000 0.000000 0.000000 6558.dat
1 1 -16.999360 -233.193900 -240.330500 0.000000 0.000000 1.000000 0.000000 1.000000 0.000000 -1.000000 0.000000 0.000000 6558.dat
0 STEP
1 0 -156.999500 -233.193900 -250.330600 0.000000 0.000000 -1.000000 0.000000 1.000000 0.000000 1.000000 0.000000 0.000000 2780.dat
1 15 -245.991000 -125.948300 -260.330300 -0.766039 -0.000001 0.642794 -0.642793 0.000001 -0.766039 0.000000 -1.000002 -0.000002 64871.dat
1 0 -207.423300 -171.910700 -270.330400 0.000000 0.000000 -1.000000 0.000000 1.000000 0.000000 1.000000 0.000000 0.000000 2780.dat
0 STEP
1 71 -147.519900 -172.012000 -270.333500 0.000000 -0.646787 -0.762671 0.000000 0.762671 -0.646787 1.000000 0.000000 0.000000 3673.dat
1 15 -121.648400 -202.518800 -260.333500 -0.762671 0.000001 -0.646786 -0.646786 -0.000001 0.762671 0.000000 0.999999 0.000001 32316.dat
0 STEP
1 0 -76.999290 -233.193900 -250.330600 0.000000 0.000000 -1.000000 0.000000 1.000000 0.000000 1.000000 0.000000 0.000000 2780.dat
1 71 -56.999290 -273.193800 -260.330700 1.000000 0.000000 0.000000 0.000000 0.000000 1.000000 0.000000 -1.000000 0.000000 60484.dat
1 0 -36.999340 -233.193900 -250.330600 0.000000 0.000000 -1.000000 0.000000 1.000000 0.000000 1.000000 0.000000 0.000000 2780.dat
0 STEP
1 71 33.128100 -170.846100 -270.330600 -0.000001 -0.646787 -0.762671 0.000000 0.762671 -0.646787 1.000000 0.000000 -0.000001 3673.dat
1 15 8.064390 -202.020000 -260.330600 0.779347 -0.000001 0.626593 -0.626593 -0.000001 0.779347 0.000000 -1.000001 -0.000001 32316.dat
0 STEP
1 0 43.000660 -233.193900 -250.330400 0.000000 0.000000 -1.000000 0.000000 1.000000 0.000000 1.000000 0.000000 0.000000 2780.dat
1 15 130.344500 -123.781700 -260.330800 0.781515 0.000001 -0.623886 -0.623886 0.000001 -0.781515 0.000000 1.000001 0.000001 64871.dat
1 0 92.911310 -170.672600 -270.330700 0.000000 0.000000 -1.000000 0.000000 1.000000 0.000000 1.000000 0.000000 0.000000 2780.dat
0 STEP
1 1 -47.088680 -170.672700 -280.330800 0.000000 0.000000 -1.000000 1.000000 -0.000001 0.000000 -0.000001 -1.000000 0.000000 32009.dat
1 1 -67.736690 -171.838600 -280.333500 0.000000 0.000000 1.000000 1.000000 0.000000 0.000000 0.000000 1.000000 0.000000 32009.dat
0 STEP
1 71 -57.736720 -101.838600 -300.333500 1.000000 0.000000 0.000000 0.000000 -1.000000 0.000000 0.000000 0.000000 -1.000000 3649.dat
1 0 -47.088660 -110.672600 -290.330900 0.000000 0.000000 -1.000000 0.000000 1.000000 0.000000 1.000000 0.000000 0.000000 2780.dat
1 0 -67.736720 -111.838600 -290.333500 0.000000 0.000000 -1.000000 0.000000 1.000000 0.000000 1.000000 0.000000 0.000000 2780.dat
1 19 -67.736660 -91.838570 -290.333500 -0.000001 1.000000 -0.000001 0.000001 0.000001 1.000000 1.000000 0.000001 -0.000001 3749.dat
1 19 -47.088680 -90.672600 -290.330900 -0.000001 1.000000 -0.000001 0.000001 0.000001 1.000000 1.000000 0.000001 -0.000001 3749.dat
0 STEP
1 1 -56.999420 -243.193900 -120.330000 1.000000 0.000000 0.000000 0.000000 1.000000 0.000000 0.000000 0.000000 1.000000 3895.dat
1 1 -96.999450 -233.193900 -120.330000 0.000000 0.000000 1.000000 0.000000 -1.000000 0.000000 1.000000 0.000000 0.000000 6558.dat
1 1 -17.999300 -233.193900 -120.330100 0.000000 0.000000 1.000000 0.000000 -1.000000 0.000000 1.000000 0.000000 0.000000 6558.dat
0 STEP
1 0 42.000660 -233.193900 -110.330200 0.000000 0.000000 -1.000000 0.000000 1.000000 0.000000 1.000000 0.000000 0.000000 2780.dat
1 0 92.128150 -170.846100 -90.330170 0.000002 -0.648121 0.761538 0.000001 0.761538 0.648121 -1.000000 0.000000 0.000002 2780.dat
1 15 129.344600 -123.781700 -100.330400 0.781515 0.000001 -0.623886 -0.623886 0.000001 -0.781515 0.000000 1.000000 0.000001 64871.dat
0 STEP
1 15 -122.648300 -202.518900 -100.332900 -0.762671 0.000001 -0.646786 -0.646786 -0.000001 0.762671 0.000000 0.999999 0.000001 32316.dat
1 71 -148.519900 -172.012100 -90.332790 0.000000 -0.622512 0.782610 0.000000 0.782610 0.622512 -1.000000 0.000000 0.000000 3673.dat
1 71 32.128160 -170.846200 -90.330170 0.000000 0.641448 0.767167 -0.000001 0.767167 -0.641448 -1.000000 -0.000001 0.000000 3673.dat
1 15 7.064450 -202.020100 -100.330200 0.779347 -0.000001 0.626593 -0.626593 -0.000001 0.779347 0.000000 -1.000000 -0.000001 32316.dat
0 STEP
1 0 -208.520000 -172.012100 -90.332740 -0.000001 0.798632 0.601820 0.000000 0.601820 -0.798632 -1.000000 -0.000001 -0.000001 2780.dat
1 0 -156.999500 -233.193900 -110.330000 0.000000 0.000000 -1.000000 0.000000 1.000000 0.000000 1.000000 0.000000 0.000000 2780.dat
1 15 -246.991000 -125.948400 -100.329800 -0.766039 -0.000001 0.642793 -0.642793 0.000001 -0.766039 0.000000 -1.000000 -0.000001 64871.dat
0 STEP
1 1 -47.871860 -170.846200 -80.330170 0.000000 0.000000 -1.000000 1.000000 -0.000001 0.000000 -0.000001 -1.000000 0.000000 32009.dat
1 1 -68.519800 -172.012100 -80.332740 0.000000 0.000000 1.000000 1.000000 0.000000 0.000000 0.000000 1.000000 0.000000 32009.dat
0 STEP
1 19 -47.519380 -91.011870 -70.516760 0.000001 -1.000004 0.000001 0.000001 0.000001 1.000000 -1.000004 -0.000001 0.000001 3749.dat
1 4 -68.519680 -92.011970 -70.515540 0.000000 0.000000 1.000000 0.000000 1.000000 0.000000 -1.000000 0.000000 0.000000 32062.dat
1 71 -68.519680 -92.011920 -60.515540 0.000001 -0.000001 1.000000 1.000000 0.000001 -0.000001 -0.000001 1.000000 0.000001 60483.dat
0 STEP
1 0 -137.000000 -312.720900 -130.999800 0.000000 -1.000000 0.000000 0.000000 0.000000 -1.000000 1.000000 0.000000 0.000000 2780.dat
1 0 -137.000000 -272.720900 -130.999800 0.000000 -1.000000 0.000000 0.000000 0.000000 -1.000000 1.000000 0.000000 0.000000 2780.dat
1 0 22.999990 -312.720900 -130.999800 0.000000 -1.000000 0.000000 0.000000 0.000000 -1.000000 1.000000 0.000000 0.000000 2780.dat
1 0 22.999990 -272.720900 -130.999800 0.000000 -1.000000 0.000000 0.000000 0.000000 -1.000000 1.000000 0.000000 0.000000 2780.dat
0 STEP
1 1 33.000140 -412.931300 -240.944500 0.000000 -1.000000 0.000000 -1.000000 0.000000 0.000000 0.000000 0.000000 -1.000000 3703.dat
1 4 23.000170 -273.283900 -240.194700 -0.000001 1.000000 -0.000001 0.000001 0.000001 1.000000 1.000000 0.000001 -0.000001 32054.dat
1 4 23.000170 -312.931400 -240.944700 -0.000001 1.000000 -0.000001 0.000001 0.000001 1.000000 1.000000 0.000001 -0.000001 32054.dat
0 STEP
1 1 -146.998700 -412.931500 -240.005200 0.000000 1.000000 0.000000 -1.000000 0.000000 0.000000 0.000000 0.000000 1.000000 3703.dat
1 4 -136.998700 -312.931600 -240.005200 -0.000001 1.000000 -0.000001 0.000001 0.000001 1.000000 1.000000 0.000001 -0.000001 32054.dat
1 4 -136.998700 -273.283900 -240.034400 -0.000001 1.000000 -0.000001 0.000001 0.000001 1.000000 1.000000 0.000001 -0.000001 32054.dat
0 STEP
1 1 -336.982100 -18.702980 -100.329600 0.000000 0.000000 -1.000000 0.000000 1.000000 0.000000 1.000000 0.000000 0.000000 6558.dat
1 19 -311.233200 -49.313520 -90.329620 -0.000002 0.770440 -0.637513 0.000001 0.637513 0.770440 1.000000 0.000001 -0.000002 3749.dat
1 1 -456.794900 -25.400920 -80.329730 0.055816 0.000001 0.998441 -0.998441 0.000001 0.055816 -0.000001 -1.000000 0.000001 32271.dat
0 STEP
1 19 -436.826100 -24.284620 -100.329700 0.000000 0.000000 1.000000 0.000000 1.000000 0.000000 -1.000000 0.000000 0.000000 32556.dat
1 19 -376.995000 -19.785960 -100.329800 0.000000 0.000000 1.000000 0.000000 1.000000 0.000000 -1.000000 0.000000 0.000000 32556.dat
0 STEP
1 1 -436.128800 -34.260240 -100.329700 0.997564 -0.069752 0.000000 0.069752 0.997564 0.000000 0.000000 0.000000 1.000000 3702.dat
1 1 -416.132500 -32.756920 -120.329700 0.997185 -0.074977 0.000000 0.074977 0.997185 0.000000 0.000000 0.000000 1.000000 3894.dat
0 STEP
1 1 -335.982200 -18.702890 -260.330200 0.000000 0.000000 1.000000 0.000000 1.000000 0.000000 -1.000000 0.000000 0.000000 6558.dat
1 19 -310.663100 -49.669740 -270.330200 0.000001 -0.779261 -0.626699 0.000001 -0.626700 0.779261 -1.000000 -0.000001 -0.000001 3749.dat
1 1 -455.877000 -23.728130 -280.330300 0.041877 0.000001 0.999123 -0.999123 0.000001 0.041877 -0.000001 -1.000000 0.000001 32271.dat
0 STEP
1 19 -375.947200 -20.377940 -260.330300 0.000000 0.000000 -1.000000 0.000000 1.000000 0.000000 1.000000 0.000000 0.000000 32556.dat
1 19 -415.912000 -22.053050 -260.330300 0.000000 0.000000 -1.000000 0.000000 1.000000 0.000000 1.000000 0.000000 0.000000 32556.dat
0 STEP
1 1 -435.165800 -33.423720 -260.330300 0.997565 -0.069752 0.000000 0.069752 0.997564 0.000000 0.000000 0.000000 1.000000 3702.dat
1 1 -415.162400 -32.024920 -240.330300 0.997185 -0.074977 0.000000 0.074977 0.997185 0.000000 0.000000 0.000000 1.000000 3894.dat
0 STEP
1 1 -434.607900 -41.404260 -190.330200 0.000000 -0.069752 0.997564 0.000000 0.997564 0.069752 -1.000000 0.000000 0.000000 3738.dat
1 1 -374.753900 -37.219140 -190.330200 0.000000 -0.069752 0.997564 0.000000 0.997564 0.069752 -1.000000 0.000000 0.000000 3738.dat
0 STEP
1 0 205.210900 -29.999950 -270.330900 0.000000 0.000000 -1.000000 0.000000 1.000000 0.000000 1.000000 0.000000 0.000000 2780.dat
1 1 217.688500 -14.369670 -260.330900 0.000000 0.000000 1.000000 0.000000 1.000000 0.000000 -1.000000 0.000000 0.000000 6558.dat
1 1 337.210900 -14.000070 -280.330800 -0.000001 -0.000001 -1.000000 -1.000000 0.000001 0.000001 0.000001 1.000000 -0.000001 32271.dat
0 STEP
1 1 317.210900 -14.000070 -260.330800 0.000000 0.000000 -1.000000 0.000000 1.000000 0.000000 1.000000 0.000000 0.000000 6558.dat
1 1 257.210900 -14.000010 -260.330800 0.000000 0.000000 -1.000000 0.000000 1.000000 0.000000 1.000000 0.000000 0.000000 6558.dat
0 STEP
1 1 317.210900 -24.000070 -260.330800 1.000000 0.000000 0.000000 0.000000 1.000000 0.000000 0.000000 0.000000 1.000000 3702.dat
1 1 297.210900 -24.000010 -240.330800 1.000000 0.000000 0.000000 0.000000 1.000000 0.000000 0.000000 0.000000 1.000000 3894.dat
0 STEP
1 1 216.688700 -14.369640 -100.330500 0.000000 0.000000 -1.000000 0.000000 1.000000 0.000000 1.000000 0.000000 0.000000 6558.dat
1 19 192.688700 -46.369660 -90.330470 -0.000001 0.804822 0.593517 0.000001 -0.593517 0.804822 1.000000 0.000001 0.000000 3749.dat
1 1 336.688700 -14.369760 -80.330420 -0.000001 -0.000001 -1.000000 -1.000000 0.000001 0.000001 0.000001 1.000000 -0.000001 32271.dat
0 STEP
1 1 256.688700 -14.369670 -100.330500 0.000000 0.000000 1.000000 0.000000 1.000000 0.000000 -1.000000 0.000000 0.000000 6558.dat
1 1 316.688700 -14.369730 -100.330400 0.000000 0.000000 1.000000 0.000000 1.000000 0.000000 -1.000000 0.000000 0.000000 6558.dat
0 STEP
1 1 316.688700 -24.369730 -100.330400 1.000000 0.000000 0.000000 0.000000 1.000000 0.000000 0.000000 0.000000 1.000000 3702.dat
1 1 296.688700 -24.369730 -120.330400 1.000000 0.000000 0.000000 0.000000 1.000000 0.000000 0.000000 0.000000 1.000000 3894.dat
0 STEP
1 1 317.210900 -32.000020 -170.330700 0.000000 0.000000 1.000000 0.000000 1.000000 0.000000 -1.000000 0.000000 0.000000 3738.dat
1 1 257.210800 -32.000020 -170.330700 0.000000 0.000000 1.000000 0.000000 1.000000 0.000000 -1.000000 0.000000 0.000000 3738.dat
0 STEP
1 0 23.000110 -412.931300 -161.094500 0.000000 0.000000 1.000000 0.000000 1.000000 0.000000 -1.000000 0.000000 0.000000 3737.dat
1 14 23.000140 -412.931400 -146.974500 0.000000 1.000000 0.000000 -1.000000 0.000000 0.000000 0.000000 0.000000 1.000000 32123a.dat
1 14 23.000140 -412.931300 -256.094600 0.000000 1.000000 0.000000 -1.000000 0.000000 0.000000 0.000000 0.000000 1.000000 32123a.dat
0 STEP
1 15 -58.000000 -292.528300 -147.000000 1.000000 0.000000 0.000000 0.000000 1.000000 0.000000 0.000000 0.000000 1.000000 xpj109.dat.dat
1 71 23.000170 -412.931300 -136.664500 0.000000 1.000000 0.000000 -1.000000 0.000000 0.000000 0.000000 0.000000 1.000000 4185.dat
1 15 23.000050 -412.721000 -120.999800 1.000000 -0.000001 0.000001 0.000001 0.000001 -1.000000 0.000001 1.000000 0.000001 64871.dat
0 STEP
1 0 23.000110 -492.931300 -170.654500 0.000000 -0.230049 0.973179 0.000000 0.973179 0.230049 -1.000000 0.000000 0.000000 3737.dat
1 71 23.000110 -492.931300 -260.654700 0.973179 -0.230049 0.000001 0.230049 0.973179 0.000000 -0.000001 0.000000 1.000000 3713.dat
1 71 23.000050 -552.931500 -250.944700 0.000000 0.000000 -1.000000 0.000000 1.000000 0.000000 1.000000 0.000000 0.000000 3673.dat
1 71 -136.998800 -552.931600 -250.005400 0.000000 0.000000 -1.000000 0.000000 1.000000 0.000000 1.000000 0.000000 0.000000 3673.dat
0 STEP
1 14 23.000140 -412.931400 -66.624360 0.000000 1.000000 0.000000 -1.000000 0.000000 0.000000 0.000000 0.000000 1.000000 32123a.dat
1 71 23.000170 -412.931300 -101.334400 1.000000 0.000000 0.000001 0.000000 1.000000 0.000000 -0.000001 0.000000 1.000000 3713.dat
1 15 -136.999900 -412.720900 -120.999800 1.000000 -0.000001 0.000001 0.000001 0.000001 -1.000000 0.000001 1.000000 0.000001 64871.dat
1 72 23.000140 -412.931400 -81.594330 0.000000 -1.000000 0.000000 -1.000000 0.000000 0.000000 0.000000 0.000000 -1.000000 3648b.dat
0 STEP
1 71 23.000080 -492.931300 -100.654400 0.973179 -0.230049 0.000001 0.230049 0.973179 0.000000 -0.000001 0.000000 1.000000 3713.dat
1 71 23.000140 -492.931300 -80.654520 -0.230049 -0.973179 0.000000 0.973179 -0.230049 0.000000 0.000000 0.000000 1.000000 3649.dat
0 STEP
1 71 23.000200 -552.721100 -110.999700 0.000000 0.000000 -1.000000 0.000000 1.000000 0.000000 1.000000 0.000000 0.000000 3673.dat
1 15 -56.999780 -552.721200 -100.999500 0.000001 0.000001 -1.000000 -1.000000 0.000001 -0.000001 0.000001 1.000000 0.000001 40490.dat
1 71 -136.999800 -552.721000 -110.999700 0.000000 0.000000 -1.000000 0.000000 1.000000 0.000000 1.000000 0.000000 0.000000 3673.dat
0 STEP
1 0 -57.000000 -552.931500 -190.664600 0.000000 0.295710 0.955278 0.000000 0.955278 -0.295710 -1.000000 0.000000 0.000000 3708.dat
1 71 -56.999960 -552.931500 -80.664460 0.295710 -0.955278 0.000000 0.955278 0.295710 0.000000 0.000000 0.000000 1.000000 3649.dat
1 71 -56.999960 -552.931600 -120.884400 0.955278 0.295710 0.000001 -0.295710 0.955278 0.000000 -0.000001 0.000000 1.000000 3713.dat
0 STEP
1 71 -57.000000 -552.931500 -241.024500 0.955278 0.295710 0.000001 -0.295710 0.955278 0.000000 -0.000001 0.000000 1.000000 3713.dat
1 15 -56.999940 -552.931500 -260.944600 0.000001 0.000001 -1.000000 -1.000000 0.000001 -0.000001 0.000001 1.000000 0.000001 40490.dat
0 STEP
1 71 -56.999960 -552.931500 -280.664700 0.955278 0.295710 0.000001 -0.295710 0.955278 0.000000 -0.000001 0.000000 1.000000 3713.dat
1 71 -56.999940 -552.931500 -301.294700 0.955278 0.295710 0.000000 -0.295710 0.955278 -0.000001 0.000000 0.000001 1.000000 3649.dat
0 STEP
1 0 -82.701100 -534.507400 -311.294700 0.000000 -0.955278 -0.295710 0.000000 0.295710 -0.955278 1.000000 0.000000 -0.000001 2780.dat
1 0 -63.595540 -540.421600 -311.294700 0.000000 -0.955278 -0.295710 0.000000 0.295710 -0.955278 1.000000 0.000000 -0.000001 2780.dat
1 0 -38.575880 -527.230200 -311.294700 0.000000 -0.955278 -0.295710 0.000000 0.295710 -0.955278 1.000000 0.000000 -0.000001 2780.dat
1 0 -44.489870 -546.335900 -311.294700 0.000000 -0.955278 -0.295710 0.000000 0.295710 -0.955278 1.000000 0.000000 -0.000001 2780.dat
0 STEP
1 0 -50.404270 -565.441300 -311.294700 0.000000 -0.955278 -0.295710 0.000000 0.295710 -0.955278 1.000000 0.000000 -0.000001 2780.dat
1 0 -75.423930 -578.632800 -311.294700 0.000000 -0.955278 -0.295710 0.000000 0.295710 -0.955278 1.000000 0.000000 -0.000001 2780.dat
1 0 -31.298710 -571.355600 -311.294700 0.000000 -0.955278 -0.295710 0.000000 0.295710 -0.955278 1.000000 0.000000 -0.000001 2780.dat
1 0 -69.509760 -559.527200 -311.294700 0.000000 -0.955278 -0.295710 0.000000 0.295710 -0.955278 1.000000 0.000000 -0.000001 2780.dat
0 STEP
1 15 -14.918890 -450.808000 -321.294600 -0.955277 0.000002 -0.295711 0.295711 0.000001 -0.955277 -0.000001 -1.000000 -0.000001 64290.dat
1 0 -9.004710 -431.702500 -331.294600 0.000000 -0.955278 -0.295710 -0.000001 0.295710 -0.955278 1.000000 0.000000 -0.000001 2780.dat
1 0 -32.661540 -508.124700 -331.294700 0.000000 -0.955278 -0.295710 -0.000001 0.295710 -0.955278 1.000000 0.000000 -0.000001 2780.dat
0 STEP
1 19 -178.228800 -504.936300 -331.294600 0.000001 0.295711 0.955278 -0.000001 0.955277 -0.295711 -1.000000 -0.000001 0.000001 3749.dat
1 15 -159.123300 -510.850500 -321.294600 -0.295711 0.000000 0.955278 -0.955277 0.000001 -0.295711 -0.000001 -1.000000 -0.000001 64290.dat
1 19 -101.806600 -528.593200 -331.294700 0.000001 0.295711 0.955278 -0.000001 0.955277 -0.295711 -1.000000 -0.000001 0.000001 3749.dat
0 STEP
1 15 -99.080860 -655.054900 -321.294800 -0.955277 0.000002 -0.295711 0.295711 0.000001 -0.955277 -0.000001 -1.000000 -0.000001 64290.dat
1 0 -104.995100 -674.160500 -331.294800 0.000000 -0.955278 -0.295710 -0.000001 0.295710 -0.955278 1.000000 0.000000 -0.000001 2780.dat
1 0 -81.338190 -597.738200 -331.294700 0.000000 -0.955278 -0.295710 -0.000001 0.295710 -0.955278 1.000000 0.000000 -0.000001 2780.dat
0 STEP
1 15 45.123480 -595.012500 -321.294800 -0.295711 0.000000 0.955278 -0.955277 0.000001 -0.295711 -0.000001 -1.000000 -0.000001 64290.dat
1 19 -12.193150 -577.269800 -331.294700 0.000001 0.295711 0.955278 -0.000001 0.955277 -0.295711 -1.000000 -0.000001 0.000001 3749.dat
1 19 64.229030 -600.926800 -331.294800 0.000001 0.295711 0.955278 -0.000001 0.955277 -0.295711 -1.000000 -0.000001 0.000001 3749.dat
0 STEP
1 1 -32.661600 -508.124600 -341.294400 -0.955278 0.000001 0.295711 0.295711 0.000000 0.955278 0.000001 1.000000 -0.000001 32526.dat
1 0 14.652190 -355.280300 -331.294400 0.000000 -0.955278 -0.295710 -0.000001 0.295710 -0.955278 1.000000 0.000000 -0.000001 2780.dat
1 0 8.737940 -374.385800 -331.294400 0.000000 -0.955278 -0.295710 -0.000001 0.295710 -0.955278 1.000000 0.000000 -0.000001 2780.dat
0 STEP
1 72 -101.806600 -528.593300 -336.294600 0.295711 0.000001 -0.955278 0.955278 -0.000001 0.295711 -0.000001 -1.000000 -0.000001 32250.dat
1 0 -254.651200 -481.279400 -331.294600 0.000000 -0.955278 -0.295710 -0.000001 0.295710 -0.955278 1.000000 0.000000 -0.000001 2780.dat
1 0 -235.545500 -487.193600 -331.294600 0.000000 -0.955278 -0.295710 -0.000001 0.295710 -0.955278 1.000000 0.000000 -0.000001 2780.dat
0 STEP
1 1 -81.338220 -597.738200 -341.294700 0.955278 -0.000002 -0.295711 -0.295711 -0.000001 -0.955278 0.000001 1.000000 -0.000001 32526.dat
1 0 -128.652000 -750.582700 -331.294900 0.000000 -0.955278 -0.295710 -0.000001 0.295710 -0.955278 1.000000 0.000000 -0.000001 2780.dat
1 0 -122.737800 -731.477100 -331.294900 0.000000 -0.955278 -0.295710 -0.000001 0.295710 -0.955278 1.000000 0.000000 -0.000001 2780.dat
0 STEP
1 72 -12.193150 -577.269800 -336.624800 -0.295711 0.000000 0.955278 -0.955278 0.000001 -0.295711 -0.000001 -1.000000 -0.000001 32250.dat
1 0 140.651200 -624.583600 -331.294800 0.000000 -0.955278 -0.295710 -0.000001 0.295710 -0.955278 1.000000 0.000000 -0.000001 2780.dat
1 0 121.545700 -618.669400 -331.294800 0.000000 -0.955278 -0.295710 -0.000001 0.295710 -0.955278 1.000000 0.000000 -0.000001 2780.dat
0 STEP
1 1 28.756220 -275.901000 -341.294400 0.295710 0.955278 0.000000 0.955278 -0.295710 0.000000 0.000000 0.000000 -1.000000 3895.dat
1 1 -334.030500 -467.175400 -341.294600 0.955278 0.295710 -0.000001 -0.295710 0.955278 0.000000 0.000001 0.000000 1.000000 3895.dat
1 1 -412.818400 -451.160900 -341.294700 -0.955278 0.295710 0.000000 0.295710 0.955278 0.000000 0.000000 0.000000 -1.000000 3710.dat
1 1 44.770780 -197.113200 -341.294400 0.295710 0.955278 0.000001 0.955278 -0.295710 0.000000 0.000000 0.000001 -1.000000 3710.dat
0 STEP
1 1 -142.756000 -829.962000 -341.294900 0.295710 -0.955278 0.000000 0.955278 0.295710 0.000000 0.000000 0.000000 1.000000 3895.dat
1 1 220.030500 -638.687600 -341.294800 -0.955278 -0.295710 0.000000 0.295710 -0.955278 0.000000 0.000000 0.000000 1.000000 3895.dat
1 1 298.818500 -654.702100 -341.294800 -0.955278 -0.295710 0.000000 0.295710 -0.955278 0.000000 0.000000 0.000000 1.000000 3710.dat
1 1 -158.770800 -908.750000 -341.294900 -0.295710 -0.955278 0.000000 -0.955278 0.295710 0.000000 0.000000 0.000000 -1.000000 3710.dat
0 STEP
1 71 67.880000 -183.330400 -351.294400 0.000000 0.000000 -1.000000 0.000000 1.000000 0.000000 1.000000 0.000000 0.000000 3673.dat
1 1 54.199280 -220.918100 -361.294600 -0.939694 0.000000 0.342019 0.342019 -0.000001 0.939694 0.000000 1.000000 0.000001 6629.dat
1 4 61.039680 -202.124300 -361.294600 -0.000001 1.000000 -0.000001 0.000001 0.000001 1.000000 1.000000 0.000001 -0.000001 32054.dat
0 STEP
1 71 -426.601100 -428.051600 -351.294700 0.000000 0.000000 -1.000000 0.000000 1.000000 0.000000 1.000000 0.000000 0.000000 3673.dat
1 1 -389.013400 -441.732200 -361.294700 -0.342016 0.000000 -0.939694 -0.939694 0.000000 0.342017 -0.000001 1.000000 0.000000 6629.dat
1 4 -407.807400 -434.891900 -361.294700 -0.000001 1.000000 -0.000001 0.000001 0.000001 1.000000 1.000000 0.000001 -0.000001 32054.dat
0 STEP
1 71 -181.879800 -922.532700 -351.295000 0.000000 0.000000 -1.000000 0.000000 1.000000 0.000000 1.000000 0.000000 0.000000 3673.dat
1 1 -171.527600 -883.895500 -361.295000 0.965929 0.000000 -0.258809 -0.258809 0.000000 -0.965929 0.000000 1.000000 0.000000 6629.dat
1 4 -176.703700 -903.214100 -361.295000 -0.000001 1.000000 -0.000001 0.000001 0.000001 1.000000 1.000000 0.000001 -0.000001 32054.dat
0 STEP
1 15 -129.000000 -253.000000 -180.500500 0.000000 0.000000 -1.000000 0.000000 1.000000 0.000000 1.000000 0.000000 0.000000 dx0056.dat.dat
1 16 -370.000000 -168.000000 -381.000000 1.000000 0.000000 0.000000 0.000000 1.000000 0.000000 0.000000 0.000000 1.000000 submodel group 9 copy copy copy
0 STEP
1 4 293.807400 -670.970900 -361.294800 -0.000001 1.000000 -0.000001 0.000001 0.000001 1.000000 1.000000 0.000001 -0.000001 32054.dat
1 1 275.013500 -664.130600 -361.294800 0.342019 0.000000 0.939693 0.939693 0.000000 -0.342019 0.000000 1.000000 0.000000 6629.dat
1 71 312.601300 -677.811400 -351.294800 0.000000 0.000000 -1.000000 0.000000 1.000000 0.000000 1.000000 0.000000 0.000000 3673.dat
0 STEP
0 STEP
0 NOFILE
0 FILE SubModel Group 9 Copy Copy Copy
0 SubModel Group 9 Copy Copy Copy
0 Name:  SubModel Group 9 Copy Copy Copy
0 Author:  
0 CustomBrick
0 NumOfBricks:  3
1 72 10.000000 -1.128810 -10.000000 1.000000 0.000000 0.000000 0.000000 0.000000 -1.000000 0.000000 1.000000 0.000000 dch003.dat
1 71 -27.466620 -79.717990 29.427020 1.000000 0.000000 0.000000 0.000000 0.000000 -1.000000 0.000000 1.000000 0.000000 dch004.dat
1 25 7.837010 13.484720 -9.965000 1.000000 0.000000 0.000000 0.000000 0.000000 -1.000000 0.000000 1.000000 0.000000 dch005.dat
0 NOFILE
