0 FILE 长腿四足兽.io
0 Untitled Model
0 Name:  长腿四足兽
0 Author:  
0 CustomBrick
0 NumOfBricks:  111
1 1 -28.243250 -307.933500 -267.000300 0.000000 -0.904209 0.427089 0.000000 0.427090 0.904209 -1.000000 0.000000 0.000000 32001.dat
1 1 -10.812640 -327.226000 -267.000200 0.000000 -0.904209 0.427089 0.000000 0.427090 0.904209 -1.000000 0.000000 0.000000 3701.dat
1 1 -2.270840 -309.141700 -267.000300 0.000000 -0.904209 0.427089 0.000000 0.427090 0.904209 -1.000000 0.000000 0.000000 3701.dat
1 0 -7.042420 -295.828800 -247.000300 -0.427089 -0.904209 0.000000 -0.904209 0.427090 0.000000 0.000000 0.000000 -1.000000 2780.dat
1 0 -7.042420 -295.828700 -287.000200 -0.427089 -0.904209 0.000000 -0.904209 0.427090 0.000000 0.000000 0.000000 -1.000000 2780.dat
1 0 -37.297460 -359.882700 -266.460200 -0.427089 0.849680 0.309255 -0.904209 -0.401334 -0.146072 0.000000 -0.342019 0.939694 3707.dat
1 71 1.499470 -277.744400 -267.000200 0.000000 -0.904206 0.427089 0.000000 0.427087 0.904210 -0.999994 0.000000 0.000000 58120.dat
0 STEP
1 1 2.000000 -300.099200 -317.000000 0.427090 -0.904209 0.000000 0.904209 0.427090 0.000000 0.000000 0.000000 1.000000 3703.dat
0 STEP
1 72 -49.751240 -386.249500 -301.999900 0.427089 0.000000 -0.904209 0.904209 0.000000 0.427090 0.000000 -1.000000 0.000000 99773.dat
1 0 -58.293060 -404.333600 -307.000000 0.000000 -0.904209 -0.427089 0.000000 0.427090 -0.904209 1.000000 0.000000 0.000000 2780.dat
1 0 -41.209560 -368.165300 -306.999900 0.000000 -0.904209 -0.427089 0.000000 0.427090 -0.904209 1.000000 0.000000 0.000000 2780.dat
1 19 -32.667710 -350.081000 -306.999900 -0.000001 0.427088 -0.904210 -0.000001 0.904210 0.427089 1.000000 0.000001 -0.000001 3749.dat
0 STEP
1 14 -38.894780 -363.264500 -266.460200 0.849680 -0.309255 0.427089 -0.401334 0.146072 0.904210 -0.342019 -0.939694 0.000000 32123a.dat
1 0 -66.834920 -422.417800 -266.460300 -0.427087 -0.904210 -0.000003 -0.904210 0.427089 -0.000001 0.000002 0.000002 -1.000000 32013.dat
1 4 -32.667740 -350.081000 -267.380200 -0.427089 0.904209 0.000000 -0.904209 -0.427090 0.000000 0.000000 0.000000 1.000000 32034.dat
1 71 -49.584790 -385.896900 -266.460300 0.309255 0.849680 0.427089 -0.146072 -0.401334 0.904209 0.939694 -0.342019 0.000000 4716.dat
1 14 -60.360230 -408.710100 -266.460200 0.849680 -0.309255 0.427089 -0.401334 0.146072 0.904210 -0.342019 -0.939694 0.000000 32123a.dat
0 STEP
1 19 -66.834800 -422.417900 -226.380400 -0.000001 -0.427090 -0.904209 0.000002 -0.904210 0.427092 -1.000000 -0.000001 0.000001 3749.dat
1 72 -49.751260 -386.249400 -232.380300 0.427089 0.000000 -0.904209 0.904209 0.000000 0.427091 0.000000 -1.000000 0.000000 99773.dat
1 0 -41.209530 -368.165300 -226.380400 0.000000 -0.904209 -0.427089 0.000000 0.427090 -0.904209 1.000000 0.000000 0.000000 2780.dat
1 0 -58.293030 -404.333800 -226.380400 0.000000 -0.904209 -0.427089 0.000000 0.427090 -0.904209 1.000000 0.000000 0.000000 2780.dat
1 19 -32.667710 -350.081100 -226.380400 0.000000 -0.427090 -0.904209 0.000002 -0.904210 0.427092 -1.000000 -0.000001 0.000001 3749.dat
0 STEP
1 1 2.000420 -300.099600 -216.381600 0.427090 -0.904210 0.000000 0.904210 0.427089 0.000000 0.000000 0.000000 0.999999 3703.dat
0 STEP
1 1 60.484640 -195.011300 -317.000000 0.427089 -0.904209 0.000000 0.904209 0.427090 0.000000 0.000000 0.000000 1.000000 3710.dat
1 1 -42.017340 -412.021300 -317.001000 0.427090 -0.904209 0.000000 0.904212 0.427091 0.000000 0.000000 0.000000 1.000000 3710.dat
1 1 -42.016900 -412.021500 -216.380300 0.427089 -0.904209 0.000000 0.904209 0.427090 0.000000 0.000000 0.000000 1.000000 3710.dat
1 1 60.484640 -195.011400 -216.380400 0.427089 -0.904209 0.000000 0.904209 0.427090 0.000000 0.000000 0.000000 1.000000 3710.dat
1 1 0.692100 -321.600500 -266.380200 0.000000 -0.904209 0.427089 0.000000 0.427090 0.904209 -1.000000 0.000000 0.000000 32001.dat
0 STEP
1 1 13.850400 -349.934400 -316.999900 0.427089 -0.904203 0.000000 0.904209 0.427088 0.000000 0.000000 0.000000 0.999994 3895.dat
1 1 13.851350 -349.935000 -216.380300 0.427089 -0.904209 0.000000 0.904209 0.427091 0.000000 0.000000 0.000000 1.000000 3895.dat
1 1 82.185920 -205.261500 -216.380500 0.427089 -0.904209 0.000000 0.904209 0.427090 0.000000 0.000000 0.000000 1.000000 3701.dat
1 1 82.185860 -205.261400 -317.000100 0.427089 -0.904209 0.000000 0.904209 0.427090 0.000000 0.000000 0.000000 1.000000 3701.dat
0 STEP
1 71 52.750260 -169.239400 -327.000100 0.000001 -0.569519 -0.821973 -0.000001 0.821969 -0.569525 0.999994 0.000001 0.000000 3673.dat
1 71 52.751000 -169.239500 -206.381800 0.000000 0.342019 -0.939692 0.000000 0.939688 0.342021 0.999994 0.000000 0.000000 3673.dat
1 15 22.576860 -144.175400 -336.999800 -0.626606 -0.000001 0.779332 -0.779338 0.000001 -0.626602 0.000000 -0.999994 -0.000001 64871.dat
1 15 32.722520 -134.682000 -194.299000 -0.874623 -0.000001 0.484803 -0.484808 0.000001 -0.874619 0.000000 -0.999994 -0.000002 64871.dat
0 STEP
1 0 61.810640 -187.159100 -184.299100 0.000000 0.000006 -1.000000 0.000000 0.999999 -0.000001 0.999995 0.000000 0.000000 2780.dat
1 0 32.722480 -134.682000 -184.299000 0.000000 0.000006 -1.000000 0.000000 0.999999 -0.000001 0.999995 0.000000 0.000000 2780.dat
1 0 68.874600 -182.341200 -346.999800 0.000000 0.000006 -0.999999 0.000000 0.999999 -0.000001 0.999994 0.000000 0.000000 2780.dat
1 0 6.990220 -131.643300 -346.999700 0.000000 0.626607 -0.779335 0.000000 0.779339 0.626600 0.999994 0.000000 0.000000 2780.dat
1 15 41.810960 -152.518100 -174.299100 -0.866028 0.000000 -0.499994 -0.499999 0.000001 0.866024 0.000001 0.999994 0.000000 32316.dat
1 15 37.932400 -156.992300 -356.999600 -0.633729 0.000001 -0.773555 -0.773559 0.000001 0.633723 0.000001 0.999994 0.000000 32316.dat
0 STEP
1 15 89.766060 -264.138800 -216.380700 0.000000 -0.904206 -0.427095 0.000000 0.427089 -0.904209 0.999994 0.000000 0.000000 3040b.dat
1 15 89.766060 -264.138800 -316.380700 0.000000 -0.904206 -0.427095 0.000000 0.427089 -0.904209 0.999994 0.000000 0.000000 3040b.dat
1 1 72.336020 -244.846600 -266.380700 0.000000 -0.904209 0.427089 0.000000 0.427090 0.904209 -1.000000 0.000000 0.000000 32001.dat
0 STEP
1 72 -85.919490 -369.165500 -266.940100 0.000000 -1.000000 0.000000 -1.000002 0.000001 0.000000 0.000000 0.000000 -1.000000 3648b.dat
1 71 -85.920630 -369.165500 -218.000300 0.000000 -1.000000 0.000000 1.000002 0.000001 0.000001 -0.000001 0.000000 1.000000 3713.dat
1 71 -85.920650 -369.165500 -248.090200 0.000000 -1.000000 0.000000 1.000002 0.000001 0.000001 -0.000001 0.000000 1.000000 3713.dat
1 71 -85.920630 -369.165400 -316.310000 0.000000 -1.000000 0.000000 1.000002 0.000001 0.000001 -0.000001 0.000000 1.000000 3713.dat
1 71 -85.920630 -369.165500 -286.500000 0.000000 -1.000000 0.000000 1.000002 0.000001 0.000001 -0.000001 0.000000 1.000000 3713.dat
1 0 -85.920650 -369.165500 -267.940200 0.000000 0.000000 1.000000 0.000000 1.000002 -0.000001 -1.000000 0.000000 0.000000 3707.dat
0 STEP
1 1 -85.920840 -389.165500 -194.300400 0.000000 0.000006 -0.999997 -0.000001 0.999998 0.000001 0.999994 0.000000 0.000000 32184.dat
1 1 -85.920490 -349.165300 -335.839800 0.000000 0.000006 -0.999996 0.000000 0.999998 0.000001 0.999994 0.000000 0.000000 32184.dat
0 STEP
1 19 4.808370 -345.663500 -326.999900 0.000001 -0.999999 0.000007 0.000001 0.000001 0.999999 -0.999994 -0.000001 0.000001 3749.dat
1 4 4.808390 -345.663500 -336.999900 -0.999999 -0.000006 0.000000 -0.000001 -0.999999 -0.000001 0.000000 -0.000001 0.999994 32039.dat
1 19 -37.899670 -436.085000 -206.380500 -0.000001 0.999999 0.000004 0.000001 0.000002 0.999999 0.999994 0.000001 -0.000001 3749.dat
1 4 -37.899680 -436.085000 -196.380500 0.999999 -0.000006 0.000001 0.000001 -0.999999 -0.000001 0.000001 0.000001 -0.999994 32039.dat
0 STEP
1 0 131.988300 -231.783900 -345.839100 0.000000 -0.999960 0.008721 -0.000001 -0.008726 -0.999961 0.999994 0.000000 0.000000 2780.dat
1 19 -85.920390 -329.165600 -345.839700 0.000000 0.000006 -0.999996 -0.000001 0.999998 0.000002 0.999994 0.000001 0.000000 3749.dat
1 71 100.594800 -257.128700 -184.299900 0.000000 -0.999998 -0.000006 0.000000 0.000000 -0.999998 0.999994 0.000000 0.000000 3673.dat
1 19 -85.920840 -408.165400 -184.300400 -0.000001 -0.000007 -1.000000 0.000002 -0.999998 0.000002 -0.999994 -0.000001 0.000001 3749.dat
1 15 5.291460 -288.173200 -355.839300 0.409917 -0.000002 -0.912120 -0.912118 -0.000002 -0.409922 0.000000 0.999994 -0.000003 64871.dat
1 15 -8.206160 -345.233400 -174.300100 0.629313 -0.000003 -0.777149 -0.777145 0.000000 -0.629317 0.000002 0.999994 -0.000002 64871.dat
0 STEP
1 0 38.422810 -307.474400 -164.300000 0.000000 0.000006 -1.000000 0.000000 0.999999 -0.000001 0.999994 0.000000 0.000000 2780.dat
1 0 78.261010 -255.379500 -365.839000 0.000000 0.000006 -1.000000 0.000000 0.999999 -0.000001 0.999994 0.000000 0.000000 2780.dat
1 4 78.261010 -255.379500 -375.839000 0.000000 -0.000006 -0.999999 0.000000 -0.999999 -0.000001 -0.999994 0.000000 0.000000 32034.dat
1 4 38.422810 -307.474400 -154.300000 0.000000 -0.000006 -0.999999 0.000000 -0.999999 -0.000001 -0.999994 0.000000 0.000000 32034.dat
0 STEP
1 1 -13.082070 -425.688400 -266.380500 0.000000 -0.904209 0.427089 0.000000 0.427090 0.904209 -1.000000 0.000000 0.000000 32001.dat
1 15 4.347870 -444.980600 -316.380500 0.000000 -0.904206 -0.427095 0.000000 0.427089 -0.904209 0.999994 0.000000 0.000000 3040b.dat
1 15 4.347870 -444.980600 -216.380500 0.000000 -0.904206 -0.427095 0.000000 0.427089 -0.904209 0.999994 0.000000 0.000000 3040b.dat
0 STEP
1 0 -101.685900 -420.482200 -164.300700 0.000000 -0.999999 -0.000006 0.000000 0.000001 -0.999998 0.999994 0.000000 0.000000 2780.dat
1 0 -117.006800 -433.338000 -164.300600 0.000000 -0.999999 -0.000006 0.000000 0.000001 -0.999998 0.999994 0.000000 0.000000 2780.dat
1 0 -122.289000 -345.816400 -365.839500 0.000000 -0.999997 -0.000006 -0.000001 0.000001 -0.999998 0.999994 0.000000 0.000000 2780.dat
1 0 -104.162900 -337.364000 -365.839500 0.000000 -0.999997 -0.000006 -0.000001 0.000001 -0.999998 0.999994 0.000000 0.000000 2780.dat
1 1 -147.648400 -459.049600 -154.300300 0.766045 0.000000 0.642782 0.642787 0.000000 -0.766042 0.000000 0.999994 0.000000 32009.dat
1 1 -158.541400 -362.721100 -375.839400 0.906308 0.000000 0.422612 0.422616 -0.000001 -0.906306 0.000000 0.999994 0.000000 32009.dat
0 STEP
1 19 -250.229900 -336.263400 -144.300600 -0.000001 0.642781 -0.766045 0.000001 -0.766042 -0.642786 -0.999994 -0.000001 0.000000 3749.dat
1 19 -226.159300 -217.711800 -385.839100 0.000000 -0.422612 -0.906308 -0.000001 0.906307 -0.422616 0.999994 0.000001 0.000000 3749.dat
1 0 -224.782100 -367.124300 -144.300500 0.000000 -0.999997 -0.000006 0.000000 0.000002 -0.999998 0.999994 0.000000 0.000000 2780.dat
1 0 -186.215300 -413.087000 -144.300300 0.000000 0.000006 -1.000000 0.000000 0.999999 -0.000001 0.999994 0.000000 0.000000 2780.dat
1 0 -211.926500 -382.445300 -144.300200 0.000000 0.000006 -1.000000 0.000000 0.999999 -0.000001 0.999994 0.000000 0.000000 2780.dat
1 0 -192.350300 -290.216600 -385.839300 0.000000 0.000006 -1.000000 0.000000 0.999999 -0.000001 0.999994 0.000000 0.000000 2780.dat
1 0 -199.071000 -397.766100 -144.300300 0.000000 0.000006 -1.000000 0.000000 0.999999 -0.000001 0.999994 0.000000 0.000000 2780.dat
1 0 -209.254700 -253.964100 -385.839100 0.000000 -0.999997 -0.000006 -0.000001 0.000001 -0.999998 0.999994 0.000000 0.000000 2780.dat
1 0 -200.802600 -272.090400 -385.839300 0.000000 0.000006 -1.000000 0.000000 0.999999 -0.000001 0.999994 0.000000 0.000000 2780.dat
1 0 -183.898000 -308.342700 -385.839300 0.000000 0.000006 -0.999999 0.000000 0.999999 -0.000001 0.999994 0.000000 0.000000 2780.dat
1 15 -226.159300 -217.711800 -395.838900 0.906309 0.000000 0.422611 0.422615 0.000000 -0.906307 0.000000 0.999994 0.000000 32316.dat
1 15 -250.230000 -336.263700 -134.300600 0.771527 0.000000 0.636192 0.636196 0.000001 -0.771525 0.000000 0.999994 0.000001 32316.dat
1 15 -199.071000 -397.766100 -134.300300 -0.766048 0.000001 -0.642783 -0.642789 0.000001 0.766042 0.000001 0.999994 0.000000 32523.dat
1 15 -192.350300 -290.216500 -395.839200 -0.906310 0.000001 -0.422614 -0.422619 0.000001 0.906306 0.000001 0.999994 -0.000001 32523.dat
0 STEP
1 1 -25.183140 -106.579000 -356.999700 -0.626606 0.000000 -0.779332 -0.779338 0.000000 0.626602 0.000001 0.999994 0.000000 32526.dat
1 0 -25.183140 -106.579000 -346.999700 0.000000 -0.971131 -0.238537 0.000000 0.238532 -0.971133 0.999994 0.000000 0.000000 2780.dat
1 0 -87.529930 -56.450790 -346.999800 0.000000 -0.946646 -0.322268 0.000000 0.322264 -0.946649 0.999994 0.000000 0.000000 2780.dat
1 0 3.634270 -82.204760 -184.299500 0.000000 -0.830980 -0.556297 0.000000 0.556293 -0.830985 0.999994 0.000000 0.000000 2780.dat
1 0 -35.837590 -12.620740 -184.299500 0.000000 -0.971131 -0.238537 0.000000 0.238532 -0.971133 0.999994 0.000000 0.000000 2780.dat
1 1 3.634180 -82.204780 -174.299600 -0.869803 0.000000 -0.493397 -0.493401 0.000000 0.869800 0.000000 0.999994 0.000000 32526.dat
0 STEP
1 1 -212.265000 -147.691000 -395.838900 0.366495 -0.000001 -0.930418 -0.930416 0.000000 -0.366499 0.000001 0.999994 -0.000001 32526.dat
1 1 -258.553100 -265.755800 -134.300600 0.642780 -0.000001 -0.766046 -0.766044 -0.000001 -0.642786 0.000000 0.999994 -0.000001 32526.dat
1 0 -262.953800 -320.833000 -144.300700 0.000000 -0.999997 -0.000006 0.000000 0.000002 -0.999998 0.999994 0.000000 0.000000 2780.dat
1 0 -304.516100 -304.323100 -144.300600 0.000000 -0.999997 -0.000006 0.000000 0.000002 -0.999999 0.999994 0.000000 0.000000 2780.dat
1 0 -234.611500 -199.585800 -385.839100 0.000000 -0.999997 -0.000006 -0.000001 0.000001 -0.999998 0.999994 0.000000 0.000000 2780.dat
1 0 -230.873200 -155.021000 -385.839300 0.000000 -0.999997 -0.000006 -0.000001 0.000001 -0.999998 0.999994 0.000000 0.000000 2780.dat
1 0 -268.020400 -169.856500 -385.839200 0.000000 -0.999997 -0.000006 -0.000001 0.000001 -0.999998 0.999994 0.000000 0.000000 2780.dat
1 0 -243.063700 -181.459600 -385.839200 0.000000 -0.999997 -0.000006 -0.000001 0.000001 -0.999998 0.999994 0.000000 0.000000 2780.dat
1 0 -275.677600 -305.402500 -144.300700 0.000000 -0.999997 -0.000006 0.000000 0.000002 -0.999998 0.999994 0.000000 0.000000 2780.dat
1 0 -273.874100 -278.611600 -144.300600 0.000000 -0.999997 -0.000006 0.000000 0.000002 -0.999999 0.999994 0.000000 0.000000 2780.dat
1 71 -234.611500 -199.585800 -375.839300 0.928677 0.000000 -0.370884 0.370888 0.000000 0.928675 0.000000 -0.999994 0.000000 60484.dat
1 71 -262.953700 -320.832900 -154.300600 0.745822 0.000000 -0.666141 0.666146 0.000000 0.745819 0.000000 -0.999994 0.000000 60484.dat
0 STEP
1 16 280.000000 -0.000010 -113.321700 0.000000 0.000000 1.000000 0.000000 1.000000 0.000000 -1.000000 0.000000 0.000000 submodel group 9 copy copy copy
0 STEP
0 STEP
0 NOFILE
0 FILE SubModel Group 9 Copy Copy Copy
0 SubModel Group 9 Copy Copy Copy
0 Name:  SubModel Group 9 Copy Copy Copy
0 Author:  
0 CustomBrick
0 NumOfBricks:  3
1 72 10.000000 -1.128810 -10.000000 1.000000 0.000000 0.000000 0.000000 0.000000 -1.000000 0.000000 1.000000 0.000000 dch003.dat
1 71 -27.466620 -79.717990 29.427020 1.000000 0.000000 0.000000 0.000000 0.000000 -1.000000 0.000000 1.000000 0.000000 dch004.dat
1 25 7.837010 13.484720 -9.965000 1.000000 0.000000 0.000000 0.000000 0.000000 -1.000000 0.000000 1.000000 0.000000 dch005.dat
0 NOFILE
