0 FILE 兵兵球发球机.io
0 Untitled Model
0 Name:  兵兵球发球机
0 Author:  
0 CustomBrick
0 NumOfBricks:  161
1 19 -99.999980 -6.000000 -140.000000 0.000000 0.000000 -1.000000 0.000000 1.000000 0.000000 1.000000 0.000000 0.000000 3749.dat
1 1 40.000000 -16.000000 -150.000000 1.000000 0.000000 0.000000 0.000000 1.000000 0.000000 0.000000 0.000000 1.000000 3703.dat
1 0 19.999990 -6.000000 -140.000000 0.000000 0.000000 1.000000 0.000000 1.000000 0.000000 -1.000000 0.000000 0.000000 2780.dat
1 19 60.000000 -6.000000 -140.000000 0.000000 0.000000 -1.000000 0.000000 1.000000 0.000000 1.000000 0.000000 0.000000 3749.dat
0 STEP
1 71 -100.000200 -6.002850 -120.000000 -0.999998 0.000000 0.000000 0.000000 1.000000 0.000000 0.000000 0.000000 -0.999998 59443.dat
1 1 -20.000000 -6.000000 -130.000000 1.000000 0.000000 0.000000 0.000000 0.000000 1.000000 0.000000 -1.000000 0.000000 32009.dat
0 STEP
1 0 -100.000000 -6.000000 -80.000000 0.000000 0.000000 1.000000 0.000000 1.000000 0.000000 -1.000000 0.000000 0.000000 3705.dat
1 71 -100.000000 -6.002850 -40.000040 -1.000000 0.000000 0.000000 0.000000 1.000000 0.000000 0.000000 0.000000 -1.000000 59443.dat
0 STEP
1 4 -20.000010 -126.000000 -130.000100 0.000000 0.000000 1.000000 0.000000 1.000000 0.000000 -1.000000 0.000000 0.000000 32054.dat
1 0 -20.000010 -126.000000 -80.000080 0.000000 0.000000 1.000000 0.000000 1.000000 0.000000 -1.000000 0.000000 0.000000 3705.dat
0 STEP
1 1 -20.000010 -6.000000 -30.000020 1.000000 0.000000 0.000000 0.000000 0.000000 1.000000 0.000000 -1.000000 0.000000 32009.dat
1 4 -20.000010 -126.000000 -30.000040 0.000000 0.000000 -1.000000 0.000000 1.000000 0.000000 1.000000 0.000000 0.000000 32054.dat
0 STEP
1 19 -100.000000 -6.000000 -20.000010 0.000000 0.000000 1.000000 0.000000 1.000000 0.000000 -1.000000 0.000000 0.000000 3749.dat
1 0 20.000010 -6.000000 -20.000010 0.000000 0.000000 1.000000 0.000000 1.000000 0.000000 -1.000000 0.000000 0.000000 2780.dat
1 19 60.000000 -6.000000 -20.000010 0.000000 0.000000 -1.000000 0.000000 -1.000000 0.000000 -1.000000 0.000000 0.000000 3749.dat
0 STEP
1 1 40.000000 -16.000000 -10.000010 1.000000 0.000000 0.000000 0.000000 1.000000 0.000000 0.000000 0.000000 1.000000 3703.dat
0 STEP
1 0 -20.000010 -166.000000 -160.000100 0.000000 0.000000 1.000000 0.000000 1.000000 0.000000 -1.000000 0.000000 0.000000 3705.dat
1 151 20.000000 -186.000000 -150.000100 -1.000000 0.000000 0.000000 0.000000 0.000000 -1.000000 0.000000 -1.000000 0.000000 64179.dat
0 STEP
1 0 99.999980 -6.000000 -140.000000 0.000000 0.000000 1.000000 0.000000 1.000000 0.000000 -1.000000 0.000000 0.000000 2780.dat
1 4 60.000020 -206.001300 -150.000400 0.000000 0.000000 -1.000000 0.000000 1.000004 0.000000 1.000002 0.000000 0.000000 32054.dat
0 STEP
1 151 81.206860 -106.229700 -130.000400 0.978148 0.000000 0.207910 -0.207911 0.000000 0.978152 0.000000 -1.000003 0.000000 32525.dat
0 STEP
1 0 -20.000000 -246.000000 -140.000100 0.000000 0.000000 1.000000 0.000000 1.000000 0.000000 -1.000000 0.000000 0.000000 2780.dat
1 0 60.000000 -246.000000 -140.000100 0.000000 0.000000 1.000000 0.000000 1.000000 0.000000 -1.000000 0.000000 0.000000 2780.dat
1 1 -60.000000 -256.000000 -130.000100 1.000000 0.000000 0.000000 0.000000 1.000000 0.000000 0.000000 0.000000 1.000000 3703.dat
0 STEP
1 16 37.872520 -144.423300 -79.830680 1.000000 0.000000 0.000000 0.000000 1.000000 0.000000 0.000000 0.000000 1.000000 submodel group 3
0 STEP
1 0 -20.000000 -246.000000 -20.000020 0.000000 0.000000 1.000000 0.000000 1.000000 0.000000 -1.000000 0.000000 0.000000 2780.dat
1 0 60.000000 -246.000000 -20.000020 0.000000 0.000000 1.000000 0.000000 1.000000 0.000000 -1.000000 0.000000 0.000000 2780.dat
1 1 -60.000000 -256.000000 -30.000000 1.000000 0.000000 0.000000 0.000000 1.000000 0.000000 0.000000 0.000000 1.000000 3703.dat
0 STEP
1 151 19.999980 -186.000000 -10.000040 -1.000000 0.000000 0.000000 0.000000 0.000000 -1.000000 0.000000 -1.000000 0.000000 64179.dat
0 STEP
1 0 100.000000 -6.000000 -20.000010 0.000000 0.000000 1.000000 0.000000 1.000000 0.000000 -1.000000 0.000000 0.000000 2780.dat
1 0 -20.000020 -166.000000 -0.000050 0.000000 0.000000 1.000000 0.000000 1.000000 0.000000 -1.000000 0.000000 0.000000 3705.dat
1 4 60.000000 -206.000000 -10.000040 0.000000 0.000000 1.000000 0.000000 1.000000 0.000000 -1.000000 0.000000 0.000000 32054.dat
0 STEP
1 151 80.228760 -106.020900 -30.000000 0.978148 0.000000 0.207910 -0.207910 0.000000 0.978148 0.000000 -1.000000 0.000000 32525.dat
0 STEP
1 151 99.999980 -166.000000 9.999969 0.000000 0.000000 -1.000000 -1.000000 0.000000 0.000000 0.000000 1.000000 0.000000 41239.dat
1 4 60.000000 -166.000000 9.999949 0.000000 0.000000 1.000000 0.000000 1.000000 0.000000 -1.000000 0.000000 0.000000 32054.dat
0 STEP
1 4 -20.000010 -166.000000 49.999950 0.000000 0.000000 -1.000000 0.000000 1.000000 0.000000 1.000000 0.000000 0.000000 32054.dat
1 19 60.000000 -166.000000 39.999950 0.000000 0.000000 1.000000 0.000000 1.000000 0.000000 -1.000000 0.000000 0.000000 3749.dat
0 STEP
1 19 120.002900 -166.000000 29.520600 -0.999999 0.000000 0.000000 0.000000 1.000000 0.000000 0.000000 0.000000 -0.999999 32269.dat
1 72 120.000000 -166.000000 19.999960 0.000000 0.000000 -1.000000 0.000000 1.000000 0.000000 1.000000 0.000000 0.000000 87083.dat
1 151 120.000000 -166.000000 49.999960 0.000000 0.000000 -1.000000 1.000000 0.000000 0.000000 0.000000 -1.000000 0.000000 32278.dat
0 STEP
1 0 119.999900 -166.000000 -9.570030 -1.000000 0.000000 0.000000 0.000000 1.000000 0.000000 0.000000 0.000000 -1.000000 10928.dat
1 0 160.000600 -165.993200 29.659890 1.000000 0.000000 0.000000 0.000000 1.000000 0.000000 0.000000 0.000000 1.000000 32270.dat
1 71 160.000500 -165.993200 48.730040 0.000000 0.000000 1.000002 0.000000 1.000002 0.000000 -1.000013 0.000000 0.000000 4519.dat
0 STEP
1 0 180.000000 -166.000000 59.999960 0.000000 0.000000 1.000000 0.000000 1.000000 0.000000 -1.000000 0.000000 0.000000 2780.dat
1 0 140.000000 -166.000000 59.999960 0.000000 0.000000 1.000000 0.000000 1.000000 0.000000 -1.000000 0.000000 0.000000 2780.dat
0 STEP
1 71 179.999800 -166.000200 -10.000010 0.997564 -0.069756 0.000000 0.069756 0.997564 0.000000 0.000000 0.000000 0.999990 3649.dat
1 71 180.000000 -166.000000 -10.000030 0.000000 -0.069756 0.997564 0.000000 0.997564 0.069756 -1.000000 0.000000 0.000000 4519.dat
0 STEP
1 71 180.000300 -166.003000 -39.999920 -0.997564 -0.069756 0.000001 -0.069756 0.997564 0.000000 -0.000001 0.000000 -0.999990 59443.dat
1 0 180.000000 -166.000000 -118.910100 0.000000 0.000000 1.000000 0.000000 1.000000 0.000000 -1.000000 0.000000 0.000000 3707.dat
0 STEP
1 151 180.000000 -206.000000 -79.910090 1.000000 0.000000 0.000000 0.000000 0.000000 -1.000000 0.000000 1.000000 0.000000 32316.dat
1 14 180.000000 -166.000000 -65.080110 1.000000 0.000000 0.000000 0.000000 1.000000 0.000000 0.000000 0.000000 1.000000 32123a.dat
1 71 180.000000 -166.000000 -99.910110 1.000000 0.000000 0.000000 0.000000 0.000000 -1.000000 0.000000 1.000000 0.000000 33299.dat
0 STEP
1 14 180.000000 -166.000000 -155.140100 1.000000 0.000000 0.000000 0.000000 1.000000 0.000000 0.000000 0.000000 1.000000 32123a.dat
1 151 100.000000 -166.000000 -170.000100 0.000000 0.000000 -1.000000 -1.000000 0.000000 0.000000 0.000000 1.000000 0.000000 41239.dat
0 STEP
1 71 -20.000020 -166.000000 -190.000100 1.000000 0.000000 0.000001 0.000000 1.000000 -0.000001 -0.000001 0.000001 1.000000 3713.dat
1 4 59.999980 -166.000000 -170.000100 0.000001 0.000000 -1.000000 0.000000 1.000000 0.000000 1.000000 0.000000 0.000001 32054.dat
0 STEP
1 1 -120.000000 -232.000000 -80.000010 0.000000 0.000000 -1.000000 0.000000 1.000000 0.000000 1.000000 0.000000 0.000000 32001.dat
1 19 -120.000000 -245.260000 -80.000010 0.000000 -1.000000 0.000001 -1.000000 0.000000 0.000000 0.000000 -0.000001 -1.000000 6558.dat
0 STEP
1 71 0.000000 -1.000000 0.000000 1.000000 0.000000 0.000000 0.000000 1.000000 0.000000 0.000000 0.000000 1.000000 bbqxpjn.dat
0 STEP
1 71 0.000000 0.000000 0.000000 1.000000 0.000000 0.000000 0.000000 1.000000 0.000000 0.000000 0.000000 1.000000 bbqxpjx.dat
0 STEP
1 1 -120.000000 -264.000000 -80.000000 0.000000 0.000000 -1.000000 0.000000 1.000000 0.000000 1.000000 0.000000 0.000000 32001.dat
0 STEP
1 151 -160.000000 -280.000000 -130.000100 1.000000 0.000000 0.000000 0.000000 1.000000 0.000000 0.000000 0.000000 1.000000 32064c.dat
1 151 -160.000000 -280.000000 -30.000000 1.000000 0.000000 0.000000 0.000000 1.000000 0.000000 0.000000 0.000000 1.000000 32064c.dat
1 1 0.000000 -280.000000 -130.000100 1.000000 0.000000 0.000000 0.000000 1.000000 0.000000 0.000000 0.000000 1.000000 3894.dat
1 1 0.000000 -280.000000 -30.000000 1.000000 0.000000 0.000000 0.000000 1.000000 0.000000 0.000000 0.000000 1.000000 3894.dat
0 STEP
1 16 -53.666690 -280.000000 -70.000110 1.000000 0.000000 0.000000 0.000000 1.000000 0.000000 0.000000 0.000000 1.000000 submodel group 2
0 STEP
1 0 -100.000000 -294.000000 -140.000100 0.000000 0.000000 1.000000 0.000000 1.000000 0.000000 -1.000000 0.000000 0.000000 2780.dat
1 0 20.000010 -294.000000 -140.000100 0.000000 0.000000 1.000000 0.000000 1.000000 0.000000 -1.000000 0.000000 0.000000 2780.dat
1 0 -100.000000 -294.000000 -20.000130 0.000000 0.000000 1.000000 0.000000 1.000000 0.000000 -1.000000 0.000000 0.000000 2780.dat
1 0 19.999960 -294.000000 -20.000120 0.000000 0.000000 1.000000 0.000000 1.000000 0.000000 -1.000000 0.000000 0.000000 2780.dat
0 STEP
1 1 -39.999990 -304.000000 -150.000100 1.000000 0.000000 0.000000 0.000000 1.000000 0.000000 0.000000 0.000000 1.000000 3702.dat
1 1 -39.999990 -328.000000 -150.000100 1.000000 0.000000 0.000000 0.000000 1.000000 0.000000 0.000000 0.000000 1.000000 3702.dat
1 1 -40.000050 -304.000000 -10.000130 1.000000 0.000000 0.000000 0.000000 1.000000 0.000000 0.000000 0.000000 1.000000 3702.dat
1 1 -40.000050 -328.000000 -10.000120 1.000000 0.000000 0.000000 0.000000 1.000000 0.000000 0.000000 0.000000 1.000000 3702.dat
0 STEP
1 0 -59.999990 -318.000000 -160.000100 0.000000 0.000000 1.000000 0.000000 1.000000 0.000000 -1.000000 0.000000 0.000000 2780.dat
1 0 -20.000000 -206.000000 -160.000100 0.000000 0.000000 1.000000 0.000000 1.000000 0.000000 -1.000000 0.000000 0.000000 2780.dat
0 STEP
1 15 -39.478710 -261.618500 -170.000200 0.939692 0.000000 -0.342021 -0.342021 0.000000 -0.939692 0.000000 1.000000 0.000000 32524.dat
0 STEP
1 0 -61.042580 -318.763100 -0.000010 0.000000 0.000000 1.000000 0.000000 1.000000 0.000000 -1.000000 0.000000 0.000000 2780.dat
1 0 -20.000020 -206.000000 -0.000040 0.000000 0.000000 1.000000 0.000000 1.000000 0.000000 -1.000000 0.000000 0.000000 2780.dat
0 STEP
1 15 -40.521300 -262.381500 9.999969 0.939692 0.000000 -0.342021 -0.342021 0.000000 -0.939692 0.000000 1.000000 0.000000 32524.dat
0 STEP
1 15 -0.000050 -336.000000 -10.000140 1.000000 0.000000 0.000000 0.000000 1.000000 0.000000 0.000000 0.000000 1.000000 3710.dat
1 15 -0.000050 -344.000000 -10.000140 1.000000 0.000000 0.000000 0.000000 1.000000 0.000000 0.000000 0.000000 1.000000 3710.dat
1 15 0.000010 -336.000000 -150.000100 1.000000 0.000000 0.000000 0.000000 1.000000 0.000000 0.000000 0.000000 1.000000 3710.dat
1 15 0.000010 -344.000000 -150.000100 1.000000 0.000000 0.000000 0.000000 1.000000 0.000000 0.000000 0.000000 1.000000 3710.dat
0 STEP
1 1 -0.000050 -368.000000 -10.000140 1.000000 0.000000 0.000000 0.000000 1.000000 0.000000 0.000000 0.000000 1.000000 3701.dat
1 1 0.000000 -368.000000 -150.000100 1.000000 0.000000 0.000000 0.000000 1.000000 0.000000 0.000000 0.000000 1.000000 3701.dat
0 STEP
1 71 62.859740 -345.281900 -101.419600 -0.866025 0.000000 -0.500001 -0.500001 0.000000 0.866025 0.000000 1.000000 0.000000 33299.dat
1 71 62.859740 -345.281900 -81.419560 0.000001 -0.500001 0.866025 0.000000 0.866025 0.500001 -1.000000 0.000000 0.000000 4519.dat
0 STEP
1 71 62.859730 -345.281900 -61.419560 -0.500001 0.000000 -0.866025 0.866025 0.000000 -0.500001 0.000000 -1.000000 0.000000 33299.dat
0 STEP
1 4 19.999990 -358.000000 -150.000200 0.000000 0.000000 -1.000000 0.000000 1.000000 0.000000 1.000000 0.000000 0.000000 32054.dat
1 4 20.000000 -318.000000 -150.000100 0.000000 0.000000 -1.000000 0.000000 1.000000 0.000000 1.000000 0.000000 0.000000 32054.dat
1 4 19.999960 -358.000000 -10.000140 0.000000 0.000000 1.000000 0.000000 1.000000 0.000000 -1.000000 0.000000 0.000000 32054.dat
1 4 19.999960 -318.000000 -10.000120 0.000000 0.000000 1.000000 0.000000 1.000000 0.000000 -1.000000 0.000000 0.000000 32054.dat
0 STEP
1 15 19.999990 -458.000000 -130.000100 1.000000 0.000000 0.000000 0.000000 0.000000 -1.000000 0.000000 1.000000 0.000000 32278.dat
1 15 19.999960 -458.000000 -30.000100 1.000000 0.000000 0.000000 0.000000 0.000000 -1.000000 0.000000 1.000000 0.000000 32278.dat
0 STEP
1 19 -20.000040 -318.000000 -20.000130 0.000000 0.000000 1.000000 0.000000 1.000000 0.000000 -1.000000 0.000000 0.000000 3749.dat
1 19 -20.000000 -318.000000 -140.000100 0.000000 0.000000 -1.000000 0.000000 1.000000 0.000000 1.000000 0.000000 0.000000 3749.dat
1 72 -20.000040 -358.000000 -20.000140 0.000000 0.000000 1.000000 0.000000 1.000000 0.000000 -1.000000 0.000000 0.000000 32002.dat
1 72 -20.000010 -358.000000 -140.000200 0.000000 0.000000 -1.000000 0.000000 1.000000 0.000000 1.000000 0.000000 0.000000 32002.dat
0 STEP
1 72 -20.000040 -358.000000 -25.000140 0.000000 0.000000 -1.000000 -1.000000 0.000000 0.000000 0.000000 1.000000 0.000000 2905.dat
1 72 -20.000010 -358.000000 -135.000200 0.000000 0.000000 -1.000000 -1.000000 0.000000 0.000000 0.000000 1.000000 0.000000 2905.dat
0 STEP
1 0 20.000000 -398.000000 -140.000200 0.000000 0.000000 1.000000 0.000000 1.000000 0.000000 -1.000000 0.000000 0.000000 2780.dat
1 0 19.999950 -398.000000 -20.000120 0.000000 0.000000 1.000000 0.000000 1.000000 0.000000 -1.000000 0.000000 0.000000 2780.dat
0 STEP
1 1 -79.999980 -398.000000 -150.000200 0.000000 0.000000 1.000000 -1.000000 0.000000 0.000000 0.000000 -1.000000 0.000000 32271.dat
1 71 -80.000000 -398.000000 -130.000200 0.000000 0.000000 1.000000 0.000000 1.000000 0.000000 -1.000000 0.000000 0.000000 4519.dat
0 STEP
1 15 -80.000360 -518.000100 -130.000000 1.000000 0.000000 0.000000 0.000000 0.000000 -1.000000 0.000000 1.000000 0.000000 41239.dat
0 STEP
1 4 -80.000020 -398.000000 -80.000180 0.000000 0.000000 -1.000000 0.000000 1.000000 0.000000 1.000000 0.000000 0.000000 32062.dat
1 71 -80.000000 -398.002800 -100.000200 -1.000000 0.000000 0.000000 0.000000 1.000000 0.000000 0.000000 0.000000 -1.000000 59443.dat
0 STEP
1 71 -80.000060 -398.000000 -31.090120 0.000000 0.000000 1.000000 0.000000 1.000000 0.000000 -1.000000 0.000000 0.000000 4519.dat
1 71 -80.000060 -398.002800 -60.090130 -1.000000 0.000000 0.000000 0.000000 1.000000 0.000000 0.000000 0.000000 -1.000000 59443.dat
0 STEP
1 15 -80.000060 -518.000000 -29.999970 1.000000 0.000000 0.000000 0.000000 0.000000 -1.000000 0.000000 1.000000 0.000000 41239.dat
0 STEP
1 1 -80.000060 -398.000000 -10.000120 0.000000 0.000000 1.000000 -1.000000 0.000000 0.000000 0.000000 -1.000000 0.000000 32271.dat
0 STEP
1 0 20.000000 -518.000000 -140.000100 0.000000 0.000000 1.000000 0.000000 1.000000 0.000000 -1.000000 0.000000 0.000000 2780.dat
1 0 19.999930 -518.000000 -20.000070 0.000000 0.000000 1.000000 0.000000 1.000000 0.000000 -1.000000 0.000000 0.000000 2780.dat
1 0 -80.000360 -518.000100 -140.000000 0.000000 0.000000 1.000000 0.000000 1.000000 0.000000 -1.000000 0.000000 0.000000 2780.dat
1 0 -80.000060 -518.000000 -20.000050 0.000000 0.000000 1.000000 0.000000 1.000000 0.000000 -1.000000 0.000000 0.000000 2780.dat
0 STEP
1 15 -20.000350 -518.000100 -150.000000 0.000000 0.000000 -1.000000 -1.000000 0.000000 0.000000 0.000000 1.000000 0.000000 32524.dat
1 15 -20.000080 -518.000000 -10.000060 0.000000 0.000000 -1.000000 -1.000000 0.000000 0.000000 0.000000 1.000000 0.000000 32524.dat
0 STEP
1 71 19.999990 -598.000000 -140.000100 0.000000 0.000000 -1.000000 0.000000 1.000000 0.000000 1.000000 0.000000 0.000000 3673.dat
1 71 19.999980 -538.000000 -140.000100 0.000000 0.000000 -1.000000 0.000000 1.000000 0.000000 1.000000 0.000000 0.000000 3673.dat
1 71 19.999830 -598.000000 -20.000120 0.000000 0.000000 -1.000000 0.000000 1.000000 0.000000 1.000000 0.000000 0.000000 3673.dat
1 71 19.999960 -538.000000 -20.000070 0.000000 0.000000 -1.000000 0.000000 1.000000 0.000000 1.000000 0.000000 0.000000 3673.dat
0 STEP
1 15 19.999840 -618.000000 -10.000120 1.000000 0.000000 0.000000 0.000000 0.000000 1.000000 0.000000 -1.000000 0.000000 40490.dat
1 15 19.999990 -618.000100 -150.000100 1.000000 0.000000 0.000000 0.000000 0.000000 1.000000 0.000000 -1.000000 0.000000 40490.dat
0 STEP
1 71 20.000000 -678.000100 -140.000100 0.000000 0.000000 -1.000000 0.000000 1.000000 0.000000 1.000000 0.000000 0.000000 3673.dat
1 71 20.000000 -618.000100 -140.000100 0.000000 0.000000 -1.000000 0.000000 1.000000 0.000000 1.000000 0.000000 0.000000 3673.dat
1 71 19.999830 -678.000000 -20.000140 0.000000 0.000000 -1.000000 0.000000 1.000000 0.000000 1.000000 0.000000 0.000000 3673.dat
1 71 19.999840 -618.000000 -20.000120 0.000000 0.000000 -1.000000 0.000000 1.000000 0.000000 1.000000 0.000000 0.000000 3673.dat
0 STEP
1 15 20.000000 -678.000100 -130.000100 1.000000 0.000000 0.000000 0.000000 0.000000 -1.000000 0.000000 1.000000 0.000000 32524.dat
1 15 19.999820 -678.000000 -30.000150 1.000000 0.000000 0.000000 0.000000 0.000000 -1.000000 0.000000 1.000000 0.000000 32524.dat
0 STEP
1 71 0.000000 2.000000 2.000000 1.000000 0.000000 0.000000 0.000000 1.000000 0.000000 0.000000 0.000000 1.000000 bbqdj.dat
0 STEP
1 71 241.000000 155.000000 282.000000 0.000000 -1.000000 0.000000 1.000000 0.000000 0.000000 0.000000 0.000000 1.000000 dianji.dat
0 STEP
0 STEP
0 NOFILE
0 FILE SubModel Group 3
0 SubModel Group 3
0 Name:  SubModel Group 3
0 Author:  
0 CustomBrick
0 NumOfBricks:  19
1 14 2.127460 -101.576500 34.920950 0.000001 -1.000000 0.000000 1.000000 0.000000 0.000000 0.000000 0.000000 1.000000 32123a.dat
1 71 2.127480 -101.576500 24.371160 -1.000000 0.000001 0.000000 0.000000 1.000000 0.000000 0.000000 0.000000 -1.000000 4185.dat
1 0 2.127450 -101.576600 0.120950 0.000000 -1.000000 -0.000001 0.000000 0.000000 -1.000000 1.000000 0.000000 0.000000 3706.dat
1 71 2.127570 -101.576400 16.411750 -1.000000 0.000002 0.000000 0.000000 0.999998 0.000000 0.000000 0.000000 -1.000000 4185.dat
0 STEP
1 1 19.627560 -91.576540 -1.629100 0.000000 -1.000000 0.000001 0.000000 0.000000 1.000000 -1.000000 0.000000 0.000000 6558.dat
1 1 2.127530 -81.576510 -1.629040 0.000000 -1.000000 0.000001 0.000000 0.000000 1.000000 -1.000000 0.000000 0.000000 6558.dat
1 1 19.627540 -111.576400 -1.588970 0.000000 -1.000000 0.000001 0.000000 0.000000 1.000000 -1.000000 0.000000 0.000000 6558.dat
1 1 -15.372520 -91.576540 -1.588990 0.000000 -1.000000 0.000001 0.000000 0.000000 1.000000 -1.000000 0.000000 0.000000 6558.dat
1 1 -15.372560 -111.576500 -1.629040 0.000000 -1.000000 0.000001 0.000000 0.000000 1.000000 -1.000000 0.000000 0.000000 6558.dat
1 1 2.127480 -121.576400 -1.588940 0.000000 -1.000000 0.000001 0.000000 0.000000 1.000000 -1.000000 0.000000 0.000000 6558.dat
0 STEP
1 1 76.768570 -32.294310 -1.629040 -0.866026 0.000000 -0.500000 0.500002 0.000000 -0.866025 0.000000 -1.000000 0.000000 32526.dat
1 1 24.987210 -200.858600 -1.588870 0.866026 0.000000 -0.500000 0.499999 0.000000 0.866026 0.000000 -1.000000 0.000000 32526.dat
1 1 -95.372590 -71.576350 -1.588970 -0.000002 0.000000 1.000000 -1.000000 0.000000 0.000000 0.000000 -1.000000 0.000000 32526.dat
0 STEP
1 71 2.127500 -101.576300 -16.588940 -1.000000 0.000001 0.000000 0.000001 1.000000 0.000000 0.000000 0.000000 -1.000000 4185.dat
1 71 2.127510 -101.576500 -24.628920 -1.000000 0.000001 0.000000 0.000000 1.000005 0.000000 0.000000 0.000000 -1.000000 4185.dat
1 14 2.127450 -101.576500 -34.789070 0.000001 -1.000000 0.000000 1.000000 0.000000 0.000000 0.000000 0.000000 1.000000 32123a.dat
0 STEP
1 4 -5.013570 -148.896800 -1.508940 0.000000 -1.000000 -0.000001 0.000000 0.000000 -1.000001 1.000001 0.000000 0.000000 32062.dat
1 14 -5.013580 -148.896800 -16.338890 0.000001 -1.000000 0.000000 1.000001 0.000000 0.000000 0.000000 0.000000 1.000001 32123a.dat
1 14 -5.013580 -148.897100 13.491100 0.000001 -1.000000 0.000000 1.000000 0.000000 0.000000 0.000000 0.000000 1.000000 32123a.dat
0 STEP
0 NOFILE
0 FILE SubModel Group 2
0 SubModel Group 2
0 Name:  SubModel Group 2
0 Author:  
0 CustomBrick
0 NumOfBricks:  12
1 0 -26.333390 -14.000000 -9.999980 0.000000 0.000000 1.000000 0.000000 1.000000 0.000000 -1.000000 0.000000 0.000000 2780.dat
1 0 13.666690 -14.000000 -9.999980 0.000000 0.000000 1.000000 0.000000 1.000000 0.000000 -1.000000 0.000000 0.000000 2780.dat
1 15 -6.333310 -14.000000 -20.000010 0.000000 0.000000 -1.000000 -1.000000 0.000000 0.000000 0.000000 1.000000 0.000000 32524.dat
1 15 -6.333340 -14.000000 0.000020 0.000000 0.000000 -1.000000 -1.000000 0.000000 0.000000 0.000000 1.000000 0.000000 32524.dat
0 STEP
1 1 53.666690 -14.000000 -40.000010 0.000000 -1.000000 0.000001 0.000000 0.000001 1.000000 -1.000000 0.000000 0.000000 6558.dat
1 1 -66.333390 -14.000000 -40.000010 0.000000 -1.000000 0.000001 0.000000 0.000001 1.000000 -1.000000 0.000000 0.000000 6558.dat
1 1 53.666660 -14.000000 20.000020 0.000000 1.000000 -0.000001 0.000000 0.000001 1.000000 1.000000 0.000000 0.000000 6558.dat
1 1 -66.333390 -14.000000 19.999990 0.000000 1.000000 -0.000001 0.000000 0.000001 1.000000 1.000000 0.000000 0.000000 6558.dat
0 STEP
1 15 13.666690 -14.000000 -40.000010 0.000000 0.000000 1.000000 -1.000000 0.000000 0.000000 0.000000 -1.000000 0.000000 40490.dat
1 15 13.666660 -14.000000 19.999990 0.000000 0.000000 1.000000 -1.000000 0.000000 0.000000 0.000000 -1.000000 0.000000 40490.dat
0 STEP
1 1 -6.333340 -24.000000 39.999990 1.000000 0.000000 0.000000 0.000000 1.000000 0.000000 0.000000 0.000000 1.000000 3895.dat
1 1 -6.333310 -24.000000 -60.000020 1.000000 0.000000 0.000000 0.000000 1.000000 0.000000 0.000000 0.000000 1.000000 3895.dat
0 STEP
0 NOFILE
