0 FILE 摩天轮-2.io
0 Untitled Model
0 Name:  摩天轮-2
0 Author:  
0 CustomBrick
0 NumOfBricks:  157
1 1 -410.000200 -508.477400 -163.024200 -1.000003 0.000000 0.000000 0.000000 -0.000223 0.999998 0.000000 1.000001 0.000223 6558.dat
1 1 -410.000200 -488.477300 -163.019900 -1.000003 0.000000 0.000000 0.000000 -0.000223 0.999998 0.000000 1.000001 0.000223 6558.dat
1 1 -410.000200 -488.482000 -143.019800 -1.000003 0.000000 0.000000 0.000000 -0.000223 0.999998 0.000000 1.000001 0.000223 6558.dat
1 1 -409.999900 -508.480900 -143.023800 -1.000002 0.000000 0.000000 0.000000 -0.000223 1.000002 0.000000 0.999979 0.000223 6558.dat
1 71 -410.000400 -498.480600 -153.021900 0.000000 0.000000 1.000003 -1.000002 0.000227 0.000000 -0.000225 -1.000004 0.000000 3649.dat
0 STEP
1 0 -400.000200 -508.472600 -183.024200 -1.000003 0.000000 0.000000 0.000000 -0.000221 0.999999 0.000000 1.000003 0.000221 2780.dat
1 0 -399.999900 -468.476800 -163.015200 -1.000003 0.000000 0.000000 0.000000 -0.000223 0.999998 0.000000 1.000001 0.000223 2780.dat
1 0 -400.000000 -528.481600 -143.029200 -1.000003 0.000000 0.000000 0.000000 -0.000223 0.999998 0.000000 1.000001 0.000223 2780.dat
1 0 -399.999900 -488.486400 -123.019700 -1.000003 0.000000 0.000000 0.000000 -0.000223 0.999998 0.000000 1.000001 0.000223 2780.dat
0 STEP
1 0 -400.000000 -510.759500 -323.008000 -1.000003 0.000000 0.000000 0.000000 -0.587961 0.808887 0.000000 0.808888 0.587964 2780.dat
1 15 -389.999900 -510.473800 -303.009900 0.000000 -1.000003 0.000000 -0.999898 0.000000 -0.014262 0.014263 0.000000 -0.999897 32278.dat
1 0 -399.999900 -668.467700 -141.031700 -1.000003 0.000000 0.000000 0.000000 0.808885 0.587968 0.000000 0.587961 -0.808887 2780.dat
1 15 -389.999900 -648.469200 -141.318200 0.000000 -1.000003 0.000000 0.014258 0.000000 -0.999898 0.999898 0.000000 0.014259 32278.dat
1 0 -399.999900 -486.489600 16.966540 -1.000003 0.000000 0.000000 0.000000 0.587966 -0.808884 0.000000 -0.808884 -0.587971 2780.dat
1 15 -389.999800 -486.776000 -3.031460 0.000000 -1.000003 0.000000 0.999897 0.000000 0.014254 -0.014254 0.000000 0.999898 32278.dat
1 0 -400.000200 -328.491200 -165.011000 -1.000003 0.000000 0.000000 0.000000 -0.808885 -0.587976 0.000000 -0.587970 0.808886 2780.dat
1 15 -389.999900 -348.489200 -164.724900 0.000000 -1.000003 0.000000 -0.014250 0.000000 0.999899 -0.999903 0.000000 -0.014250 32278.dat
0 STEP
1 0 -420.000000 -621.588900 -276.186800 -1.000003 0.000000 0.000000 0.000000 -0.707257 0.706946 0.000000 0.706946 0.707263 2780.dat
1 15 -410.000200 -566.386100 -299.695400 0.000000 -1.000003 0.000000 -0.391811 0.000000 0.920043 -0.920050 0.000000 -0.391813 40490.dat
1 0 -420.000100 -621.646400 -30.201940 -1.000003 0.000000 0.000000 0.000000 0.706944 0.707262 0.000000 0.707258 -0.706943 2780.dat
1 15 -410.000100 -645.155300 -85.404670 0.000000 -1.000003 0.000000 -0.920047 0.000000 -0.391809 0.391811 0.000000 -0.920044 40490.dat
1 0 -420.000200 -375.660700 -29.854200 -1.000003 0.000000 0.000000 0.000000 0.707261 -0.706942 0.000000 -0.706941 -0.707266 2780.dat
1 15 -410.000200 -430.862600 -6.345820 0.000000 -1.000003 0.000000 0.391806 0.000000 -0.920044 0.920052 0.000000 0.391807 40490.dat
1 0 -420.000000 -375.312700 -275.841500 -1.000003 0.000000 0.000000 0.000000 -0.706938 -0.707267 0.000000 -0.707263 0.706937 2780.dat
1 15 -410.000200 -351.803300 -220.638300 0.000000 -1.000003 0.000000 0.920054 0.000000 0.391805 -0.391805 0.000000 0.920052 40490.dat
0 STEP
1 15 -430.000200 -607.450000 -262.041700 0.000000 -1.000003 0.000000 -0.707257 0.000000 -0.706946 0.706946 0.000000 -0.707263 32278.dat
1 15 -430.000200 -607.501000 -44.340850 0.000000 -1.000003 0.000000 0.706944 0.000000 -0.707262 0.707258 0.000000 0.706943 32278.dat
1 15 -430.000200 -389.799300 -43.999600 0.000000 -1.000003 0.000000 0.707261 0.000000 0.706943 -0.706941 0.000000 0.707266 32278.dat
1 15 -430.000300 -389.456600 -261.700600 0.000000 -1.000001 0.000000 -0.706950 0.000000 0.707273 -0.707265 0.000000 -0.706934 32278.dat
0 STEP
1 71 -410.000900 -498.480300 -153.022000 1.000003 0.000000 0.000000 0.000000 1.000000 -0.000141 0.000000 0.000142 1.000003 32073.dat
1 71 -460.001200 -498.483100 -153.021900 0.000000 0.000000 1.000005 0.000000 1.000000 0.000000 -1.000005 0.000000 0.000000 59443.dat
0 STEP
1 0 -520.001600 -498.480200 -153.021900 1.000005 0.000000 0.000000 0.000000 1.000000 0.000000 0.000000 0.000000 1.000005 3706.dat
0 STEP
1 16 -494.001500 -47.120980 -241.884100 1.000003 0.000000 0.000000 0.000000 0.974370 0.224951 0.000000 -0.224952 0.974374 submodel group 9
0 STEP
1 71 -510.001500 -498.480200 -153.021900 0.000000 0.000000 1.000003 0.000000 1.000000 0.000000 -1.000003 0.000000 0.000000 3713.dat
1 1 -510.001500 -79.757880 -152.000800 0.000000 0.000000 1.000003 0.000000 1.000000 0.000000 -1.000003 0.000000 0.000000 3895.dat
0 STEP
1 16 -526.001600 -47.057460 -61.994320 1.000003 0.000000 0.000000 0.000000 0.972776 -0.231748 0.000000 0.231749 0.972779 submodel group 8
0 STEP
1 71 -550.001600 -498.480200 -153.021900 0.000000 0.000000 1.000003 0.000000 1.000000 0.000000 -1.000003 0.000000 0.000000 3713.dat
0 STEP
1 71 -360.000700 -498.483100 -153.022500 0.000000 0.000000 1.000003 0.000000 1.000000 0.000000 -1.000003 0.000000 0.000000 59443.dat
1 0 -300.000500 -498.480300 -153.021900 1.000005 0.000000 0.000000 0.000000 1.000000 0.000000 0.000000 0.000000 1.000005 3706.dat
0 STEP
1 16 -330.000500 -47.120950 -215.854800 1.000000 0.000000 0.000000 0.000000 0.974370 0.224950 0.000000 -0.224950 0.974370 submodel group 1
0 STEP
1 71 -310.000400 -498.480300 -153.021900 0.000000 0.000000 1.000005 0.000000 1.000000 0.000000 -1.000005 0.000000 0.000000 3649.dat
1 0 -320.000500 -69.757660 -252.000800 1.000003 0.000000 0.000000 0.000000 1.000000 0.000000 0.000000 0.000000 1.000004 2780.dat
0 STEP
1 1 -310.000500 -79.757660 -152.000400 0.000000 0.000000 1.000003 0.000000 1.000000 0.000000 -1.000004 0.000000 0.000000 3895.dat
1 0 -300.000400 -69.757640 -52.000000 1.000003 0.000000 0.000000 0.000000 1.000000 0.000000 0.000000 0.000000 1.000004 2780.dat
0 STEP
1 16 -290.000400 -62.831200 -129.307000 1.000003 0.000000 0.000000 0.000000 0.972776 -0.231748 0.000000 0.231749 0.972780 submodel group 7
0 STEP
1 71 -270.000300 -498.480300 -153.021900 0.000000 0.000000 1.000003 0.000000 1.000000 0.000000 -1.000003 0.000000 0.000000 3713.dat
0 STEP
1 8 -310.000600 -439.411900 -140.063900 0.000000 0.000000 1.000003 0.123603 0.992332 0.000000 -0.992335 0.123604 0.000000 10928.dat
1 0 -280.000500 -439.411900 -140.063900 1.000003 0.000000 0.000000 0.000000 0.992333 -0.123593 0.000000 0.123593 0.992337 3705.dat
0 STEP
1 0 -260.000400 -400.501100 -130.794100 1.000003 0.000000 0.000000 0.000000 0.984808 -0.173649 0.000000 0.173649 0.984812 3705.dat
1 8 -270.000400 -400.501000 -130.794200 0.000000 0.000000 1.000003 0.173649 0.984808 0.000000 -0.984812 0.173649 0.000000 10928.dat
0 STEP
1 1 -270.000400 -361.590100 -121.524100 1.000003 0.000000 0.000000 0.000000 1.000000 0.000000 0.000000 0.000000 1.000003 6558.dat
1 8 -270.000400 -439.412000 -140.064000 0.000000 0.000000 1.000003 -0.123593 -0.992333 0.000000 0.992337 -0.123593 0.000000 3648b.dat
0 STEP
1 0 -240.000300 -419.907600 -135.632700 1.000003 0.000000 0.000000 0.000000 -0.927184 0.374607 0.000000 -0.374608 -0.927187 2780.dat
1 0 -240.000300 -381.029200 -126.226900 1.000003 0.000000 0.000000 0.000000 -0.927184 0.374607 0.000000 -0.374608 -0.927187 2780.dat
1 1 -250.000400 -402.819800 -121.210100 0.000000 0.000000 1.000003 -0.971961 0.235143 0.000000 -0.235144 -0.971965 0.000000 3894.dat
0 STEP
1 71 -421.000800 -31.757640 28.000320 1.000003 0.000000 0.000000 0.000000 1.000000 0.000000 0.000000 0.000000 1.000003 mtld.dat
0 STEP
1 16 -429.615400 -410.780800 140.492600 1.000003 0.000000 0.000000 0.000000 1.000000 0.000000 0.000000 0.000000 1.000003 submodel group 5
1 16 -429.615400 -438.470800 -439.457100 1.000000 0.000000 0.000000 0.000000 1.000000 0.000000 0.000000 0.000000 1.000000 submodel group 2
0 STEP
1 16 -390.000300 -216.438100 -356.448900 1.000003 0.000000 0.000000 0.000000 1.000000 0.000000 0.000000 0.000000 1.000003 submodel group 4
1 16 -390.000100 -632.517700 58.853440 1.000000 0.000000 0.000000 0.000000 1.000000 0.000000 0.000000 0.000000 1.000000 submodel group 6
0 STEP
1 16 -408.000200 -637.420900 -353.058200 1.000003 0.000000 0.000000 0.000000 1.000000 0.000000 0.000000 0.000000 1.000003 submodel group 3
1 16 -408.000200 -221.827200 63.017780 1.000000 0.000000 0.000000 0.000000 1.000000 0.000000 0.000000 0.000000 1.000000 submodel group 11
0 STEP
1 16 -425.499000 -714.454800 -137.022800 1.000003 0.000000 0.000000 0.000000 1.000000 0.000000 0.000000 0.000000 1.000003 submodel group 10
1 16 -425.499200 -134.503100 -164.420800 1.000000 0.000000 0.000000 0.000000 1.000000 0.000000 0.000000 0.000000 1.000000 submodel group 12
0 STEP
1 71 -91.000000 -109.757600 -152.000000 0.000000 0.000000 1.000000 0.000000 1.000000 0.000000 -1.000000 0.000000 0.000000 58119.dat
0 STEP
0 STEP
0 NOFILE
0 FILE SubModel Group 9
0 SubModel Group 9
0 Name:  SubModel Group 9
0 Author:  
0 CustomBrick
0 NumOfBricks:  5
1 1 3.999870 -159.781800 -0.949710 0.000000 0.000000 -1.000000 -1.000008 0.000003 0.000000 -0.000001 1.000001 0.000000 3710.dat
1 1 4.000010 -79.781460 -24.949750 0.000000 0.000000 -1.000000 -1.000008 0.000003 0.000000 -0.000001 1.000001 0.000000 3702.dat
1 0 -5.999970 -19.780900 -14.949860 1.000000 0.000000 0.000000 0.000000 0.974378 -0.224950 0.000000 0.224952 0.974370 2780.dat
0 STEP
1 1 4.000050 -319.780500 -24.949390 0.000000 0.000000 -1.000000 -1.000000 0.000000 0.000000 0.000000 1.000000 0.000000 3703.dat
1 1 3.999990 -159.781900 -32.950000 0.000000 0.000000 -1.000000 -1.000008 0.000003 0.000000 -0.000001 1.000001 0.000000 3023b.dat
0 STEP
0 NOFILE
0 FILE SubModel Group 8
0 SubModel Group 8
0 Name:  SubModel Group 8
0 Author:  
0 CustomBrick
0 NumOfBricks:  5
1 1 -4.000010 -159.766800 0.983240 0.000000 0.000000 1.000000 -1.000008 0.000000 0.000000 0.000003 -1.000000 0.000000 3710.dat
1 1 -4.000000 -79.766480 24.983050 0.000000 0.000000 1.000000 -1.000008 0.000000 0.000000 0.000003 -1.000000 0.000000 3702.dat
1 0 6.000000 -19.766040 14.982810 1.000000 0.000000 0.000000 0.000000 0.972783 0.231749 0.000000 -0.231751 0.972776 2780.dat
0 STEP
1 1 -3.999910 -319.767900 24.983950 0.000000 0.000000 1.000000 -1.000008 0.000000 0.000000 0.000003 -1.000000 0.000000 3703.dat
1 1 -4.000110 -159.767100 32.983210 0.000000 0.000000 1.000000 -1.000008 0.000000 0.000000 0.000003 -1.000000 0.000000 3023b.dat
0 STEP
0 NOFILE
0 FILE SubModel Group 1
0 SubModel Group 1
0 Name:  SubModel Group 1
0 Author:  
0 CustomBrick
0 NumOfBricks:  4
1 1 -0.000010 -73.925520 -50.311630 0.000000 0.000000 1.000003 1.000000 0.000000 0.000000 -0.000002 1.000004 0.000000 3702.dat
1 1 0.000010 -153.925400 -26.311390 0.000000 0.000000 1.000003 1.000000 0.000000 0.000000 -0.000002 1.000004 0.000000 3710.dat
0 STEP
1 1 -0.000050 -313.925300 -50.311150 0.000000 0.000000 1.000003 1.000000 0.000000 0.000000 -0.000002 1.000004 0.000000 3703.dat
1 1 0.000020 -153.925500 -58.311700 0.000000 0.000000 1.000003 1.000000 0.000000 0.000000 -0.000002 1.000004 0.000000 3023b.dat
0 STEP
0 NOFILE
0 FILE SubModel Group 7
0 SubModel Group 7
0 Name:  SubModel Group 7
0 Author:  
0 CustomBrick
0 NumOfBricks:  4
1 1 0.000020 -48.822180 86.807220 0.000000 0.000000 -1.000000 0.999999 0.000000 0.000000 0.000000 -0.999999 0.000000 3702.dat
1 1 0.000030 -128.822100 62.807180 0.000000 0.000000 -1.000000 0.999999 0.000000 0.000000 0.000000 -0.999999 0.000000 3710.dat
0 STEP
1 1 -0.000080 -288.821800 86.807330 0.000000 0.000000 -1.000000 0.999999 0.000000 0.000000 0.000000 -0.999999 0.000000 3703.dat
1 1 0.000020 -128.822300 94.807190 0.000000 0.000000 -1.000000 0.999999 0.000000 0.000000 0.000000 -0.999999 0.000000 3023b.dat
0 STEP
0 NOFILE
0 FILE SubModel Group 5
0 SubModel Group 5
0 Name:  SubModel Group 5
0 Author:  
0 CustomBrick
0 NumOfBricks:  13
1 1 19.615060 -73.999660 -3.538130 -0.000001 0.999993 0.000000 0.000000 0.000000 0.999993 1.000000 0.000001 0.000000 32140.dat
1 71 9.615580 -13.999850 16.461670 -1.000000 0.000000 0.000001 0.000000 1.000000 0.000000 -0.000001 0.000000 -1.000000 3673.dat
1 71 9.615610 -13.999850 -3.538330 -1.000000 0.000000 0.000001 0.000000 1.000000 0.000000 -0.000001 0.000000 -1.000000 3673.dat
1 19 29.615450 -73.999760 -3.538430 -1.000000 0.000000 0.000000 0.000000 1.000000 0.000000 0.000000 0.000000 -1.000000 3749.dat
0 STEP
1 1 -0.384800 -23.999850 -3.538530 0.000000 0.000000 0.999990 0.000000 0.999993 0.000000 -0.999997 0.000000 0.000000 3701.dat
1 1 -10.384680 -31.999850 -3.538530 0.000000 0.000000 0.999990 0.000000 0.999993 0.000000 -0.999997 0.000000 0.000000 32001.dat
0 STEP
1 15 -20.384550 -55.999580 6.461470 -0.999990 0.000000 0.000000 0.000000 0.999993 0.000000 0.000000 0.000000 -0.999997 3040b.dat
1 15 -20.384580 -55.999580 -13.538470 0.999990 0.000000 0.000000 0.000000 0.999993 0.000000 0.000000 0.000000 0.999997 3040b.dat
0 STEP
1 15 -10.384650 -79.999460 -3.538530 -0.999990 0.000000 0.000000 0.000000 0.999993 0.000000 0.000000 0.000000 -0.999997 3941.dat
1 71 -10.384650 -89.999450 -3.538530 0.000000 0.999990 0.000000 0.999993 0.000000 0.000000 0.000000 0.000000 -0.999997 4519.dat
0 STEP
1 4 -20.384580 -129.999100 -3.538530 0.999990 0.000000 0.000000 0.000000 -0.999993 0.000000 0.000000 0.000000 -0.999997 32062.dat
1 4 -10.384680 -109.999300 -3.538530 -0.999990 0.000000 0.000000 0.000000 0.000000 0.999993 0.000000 0.999997 0.000000 32039.dat
0 STEP
1 19 -30.384480 -129.999100 -3.538530 0.000000 0.000000 0.999990 -0.999993 0.000000 0.000000 0.000000 -0.999997 0.000000 32269.dat
0 STEP
0 NOFILE
0 FILE SubModel Group 2
0 SubModel Group 2
0 Name:  SubModel Group 2
0 Author:  
0 CustomBrick
0 NumOfBricks:  13
1 1 19.615200 -73.998840 -3.538150 -0.000001 0.999997 0.000000 0.000000 0.000000 0.999993 1.000003 0.000001 0.000000 32140.dat
1 71 9.615510 -13.999940 16.461670 -1.000003 0.000000 0.000001 0.000000 1.000000 0.000000 -0.000001 0.000000 -1.000003 3673.dat
1 71 9.615510 -13.999850 -3.538330 -1.000003 0.000000 0.000001 0.000000 1.000000 0.000000 -0.000001 0.000000 -1.000003 3673.dat
1 19 29.615420 -73.999760 -3.538540 -1.000003 0.000000 0.000000 0.000000 1.000000 0.000000 0.000000 0.000000 -1.000003 3749.dat
0 STEP
1 1 -0.384890 -23.999850 -3.538540 0.000000 0.000000 0.999993 0.000000 0.999993 0.000000 -1.000000 0.000000 0.000000 3701.dat
1 1 -10.384800 -31.999720 -3.538540 0.000000 0.000000 0.999993 0.000000 0.999993 0.000000 -1.000000 0.000000 0.000000 32001.dat
0 STEP
1 15 -20.384680 -55.999450 6.461360 -0.999993 0.000000 0.000000 0.000000 0.999993 0.000000 0.000000 0.000000 -1.000000 3040b.dat
1 15 -20.384680 -55.999540 -13.538540 0.999993 0.000000 0.000000 0.000000 0.999993 0.000000 0.000000 0.000000 1.000000 3040b.dat
0 STEP
1 15 -10.384800 -79.999460 -3.538540 -0.999993 0.000000 0.000000 0.000000 0.999993 0.000000 0.000000 0.000000 -1.000000 3941.dat
1 71 -10.384800 -89.999210 -3.538640 0.000000 0.999993 0.000000 0.999993 0.000000 0.000000 0.000000 0.000000 -1.000000 4519.dat
0 STEP
1 4 -10.384800 -109.999000 -3.538640 -0.999993 0.000000 0.000000 0.000000 0.000000 0.999993 0.000000 1.000000 0.000000 32039.dat
1 4 -20.384680 -129.998800 -3.538540 0.999993 0.000000 0.000000 0.000000 -0.999993 0.000000 0.000000 0.000000 -1.000000 32062.dat
0 STEP
1 19 -30.384580 -129.999000 -3.538540 0.000000 0.000000 0.999993 -0.999993 0.000000 0.000000 0.000000 -1.000000 0.000000 32269.dat
0 STEP
0 NOFILE
0 FILE SubModel Group 4
0 SubModel Group 4
0 Name:  SubModel Group 4
0 Author:  
0 CustomBrick
0 NumOfBricks:  9
1 1 -20.000080 -73.999100 -4.223020 0.000000 1.000000 0.000000 0.000000 0.000000 0.999995 0.999995 0.000000 0.000000 32140.dat
1 71 -10.000040 -14.000000 -4.222140 -1.000000 0.000000 0.000000 0.000000 -1.000000 0.000000 0.000000 0.000000 1.000000 3673.dat
1 71 -10.000040 -13.999910 15.777770 -1.000000 0.000000 0.000000 0.000000 -1.000000 0.000000 0.000000 0.000000 1.000000 3673.dat
1 19 -29.999820 -74.000200 -4.222050 1.000000 0.000000 0.000000 0.000000 1.000000 0.000000 0.000000 0.000000 1.000000 3749.dat
0 STEP
1 1 -0.000040 -24.000000 -4.222140 0.000000 0.000000 1.000000 0.000000 1.000000 0.000000 -1.000000 0.000000 0.000000 3894.dat
1 1 9.999960 -31.999910 -4.222140 0.000000 0.000000 1.000000 0.000000 1.000000 0.000000 -1.000000 0.000000 0.000000 32001.dat
0 STEP
1 1 20.000020 -80.000290 -4.222050 0.000000 0.000000 1.000000 0.000000 1.000000 0.000000 -1.000000 0.000000 0.000000 3700.dat
1 1 20.000020 -55.999910 -4.222140 0.000000 0.000000 1.000000 0.000000 1.000000 0.000000 -1.000000 0.000000 0.000000 3700.dat
0 STEP
1 15 20.000020 -104.000400 -4.222140 0.000000 0.000000 1.000000 0.000000 1.000000 0.000000 -1.000000 0.000000 0.000000 32064c.dat
0 STEP
0 NOFILE
0 FILE SubModel Group 6
0 SubModel Group 6
0 Name:  SubModel Group 6
0 Author:  
0 CustomBrick
0 NumOfBricks:  9
1 1 -20.000090 -73.999690 -4.222230 0.000000 1.000003 0.000000 0.000000 0.000000 0.999995 0.999999 0.000000 0.000000 32140.dat
1 71 -10.000180 -14.000000 -4.222230 -1.000003 0.000000 0.000000 0.000000 -1.000000 0.000000 0.000000 0.000000 1.000003 3673.dat
1 71 -10.000180 -14.000000 15.777720 -1.000003 0.000000 0.000000 0.000000 -1.000000 0.000000 0.000000 0.000000 1.000003 3673.dat
1 19 -29.999970 -73.999880 -4.222170 1.000003 0.000000 0.000000 0.000000 1.000000 0.000000 0.000000 0.000000 1.000003 3749.dat
0 STEP
1 1 -0.000090 -24.000000 -4.222230 0.000000 0.000000 1.000003 0.000000 1.000000 0.000000 -1.000003 0.000000 0.000000 3894.dat
1 1 9.999909 -32.000000 -4.222230 0.000000 0.000000 1.000003 0.000000 1.000000 0.000000 -1.000003 0.000000 0.000000 32001.dat
0 STEP
1 1 20.000030 -79.999880 -4.222190 0.000000 0.000000 1.000003 0.000000 1.000000 0.000000 -1.000003 0.000000 0.000000 3700.dat
1 1 20.000030 -55.999880 -4.222230 0.000000 0.000000 1.000003 0.000000 1.000000 0.000000 -1.000003 0.000000 0.000000 3700.dat
1 15 20.000030 -103.999900 -4.222210 0.000000 0.000000 1.000003 0.000000 1.000000 0.000000 -1.000003 0.000000 0.000000 32064c.dat
0 STEP
0 NOFILE
0 FILE SubModel Group 3
0 SubModel Group 3
0 Name:  SubModel Group 3
0 Author:  
0 CustomBrick
0 NumOfBricks:  5
1 1 -1.999940 -69.000000 -7.999820 0.000000 1.000000 0.000000 0.000000 0.000000 1.000000 1.000000 0.000000 0.000000 32140.dat
1 71 8.000010 -9.001400 11.999970 1.000000 0.000000 0.000000 0.000000 1.000004 0.000000 0.000000 0.000000 1.000001 3673.dat
1 71 8.000000 -9.001400 -8.000030 1.000000 0.000000 0.000000 0.000000 1.000004 0.000000 0.000000 0.000000 1.000001 3673.dat
1 19 -11.999950 -69.001460 -8.000030 1.000000 0.000000 0.000000 0.000000 1.000004 0.000000 0.000000 0.000000 1.000000 3749.dat
0 STEP
1 15 17.999880 -9.001400 -8.000030 0.000000 1.000000 0.000000 1.000004 0.000000 0.000000 0.000000 0.000000 -1.000000 32316.dat
0 STEP
0 NOFILE
0 FILE SubModel Group 11
0 SubModel Group 11
0 Name:  SubModel Group 11
0 Author:  
0 CustomBrick
0 NumOfBricks:  5
1 0 8.000090 -9.000000 -8.000020 1.000003 0.000000 0.000000 0.000000 1.000000 0.000000 0.000000 0.000000 1.000003 2780.dat
1 0 7.999970 -9.000000 12.000060 1.000003 0.000000 0.000000 0.000000 1.000000 0.000000 0.000000 0.000000 1.000003 2780.dat
1 15 18.000090 -9.000000 -8.000020 0.000000 -1.000003 0.000000 -1.000000 0.000000 0.000000 0.000000 0.000000 -1.000003 32316.dat
0 STEP
1 19 -12.000030 -69.000020 -8.000020 1.000003 0.000000 0.000000 0.000000 1.000000 0.000000 0.000000 0.000000 1.000003 3749.dat
1 1 -2.000030 -69.000200 -8.000000 0.000000 1.000003 0.000000 0.000000 0.000000 1.000000 1.000003 0.000000 0.000000 32140.dat
0 STEP
0 NOFILE
0 FILE SubModel Group 10
0 SubModel Group 10
0 Name:  SubModel Group 10
0 Author:  
0 CustomBrick
0 NumOfBricks:  16
1 1 15.498750 -74.000000 -2.298710 0.000000 1.000002 0.000000 0.000000 0.000000 1.000000 1.000003 0.000000 0.000000 32140.dat
1 71 5.499480 -14.000120 -2.298900 1.000004 0.000000 0.000000 0.000000 1.000000 0.000000 0.000000 0.000000 1.000004 3673.dat
1 71 5.499420 -14.000120 17.701390 1.000004 0.000000 0.000000 0.000000 1.000000 0.000000 0.000000 0.000000 1.000004 3673.dat
1 19 25.499030 -74.000110 -2.299210 -1.000000 0.000000 0.000000 0.000000 1.000000 0.000000 0.000000 0.000000 -1.000000 3749.dat
0 STEP
1 1 -4.501010 -24.000000 -2.298710 0.000000 0.000000 1.000004 0.000000 1.000000 0.000000 -1.000004 0.000000 0.000000 3701.dat
1 1 -14.500960 -32.000000 -2.298710 0.000000 0.000000 1.000002 0.000000 1.000000 0.000000 -1.000003 0.000000 0.000000 32001.dat
0 STEP
1 4 -14.500900 -52.000120 -22.298710 0.000000 -1.000002 0.000000 1.000000 0.000000 0.000000 0.000000 0.000000 1.000003 32062.dat
1 4 -14.501020 -52.000120 17.701390 0.000000 -1.000002 0.000000 1.000000 0.000000 0.000000 0.000000 0.000000 1.000003 32062.dat
1 71 -14.499490 -42.000180 17.701300 0.000000 -0.999999 0.000000 0.000000 0.000000 0.999996 -1.000003 0.000000 0.000000 3713.dat
1 71 -14.500710 -42.000000 -22.298710 0.000000 -1.000003 0.000000 0.000000 0.000000 1.000000 -1.000003 0.000000 0.000000 3713.dat
0 STEP
1 4 -14.498700 -62.000180 -22.298710 0.000000 -1.000002 0.000000 0.000000 0.000000 1.000000 -1.000003 0.000000 0.000000 32039.dat
1 4 -14.499180 -62.000000 17.701300 0.000000 -0.999998 0.000000 0.000000 0.000000 0.999996 -1.000003 0.000000 0.000000 32039.dat
0 STEP
1 4 -14.498570 -102.000200 -2.038710 0.000000 -1.000002 0.000000 0.000000 0.000000 -1.000000 1.000003 0.000000 0.000000 32039.dat
1 71 -14.499180 -81.999880 -2.298710 0.000000 0.000000 1.000002 0.000000 1.000000 0.000000 -1.000003 0.000000 0.000000 32073.dat
0 STEP
1 4 -14.498510 -112.000200 -2.038710 0.000000 -1.000003 0.000000 1.000000 0.000000 0.000000 0.000000 0.000000 1.000003 32062.dat
1 71 -14.498450 -124.000200 -2.038710 0.000000 -1.000002 0.000000 0.000000 0.000000 1.000000 -1.000003 0.000000 0.000000 3650c.dat
0 STEP
0 NOFILE
0 FILE SubModel Group 12
0 SubModel Group 12
0 Name:  SubModel Group 12
0 Author:  
0 CustomBrick
0 NumOfBricks:  16
1 1 15.498870 -74.000000 -2.298770 0.000000 1.000005 0.000000 0.000000 0.000000 1.000000 1.000006 0.000000 0.000000 32140.dat
1 71 5.499570 -14.000110 -2.298860 1.000008 0.000000 0.000000 0.000000 1.000000 0.000000 0.000000 0.000000 1.000008 3673.dat
1 71 5.499480 -14.000110 17.701430 1.000008 0.000000 0.000000 0.000000 1.000000 0.000000 0.000000 0.000000 1.000008 3673.dat
1 19 25.499080 -74.000000 -2.299160 -1.000003 0.000000 0.000000 0.000000 1.000000 0.000000 0.000000 0.000000 -1.000003 3749.dat
0 STEP
1 1 -4.501040 -24.000000 -2.298770 0.000000 0.000000 1.000008 0.000000 1.000000 0.000000 -1.000008 0.000000 0.000000 3701.dat
1 1 -14.501040 -32.000000 -2.298770 0.000000 0.000000 1.000005 0.000000 1.000000 0.000000 -1.000006 0.000000 0.000000 32001.dat
0 STEP
1 4 -14.500920 -52.000200 -22.298770 0.000000 -1.000005 0.000000 1.000000 0.000000 0.000000 0.000000 0.000000 1.000006 32062.dat
1 4 -14.501040 -52.000200 17.701540 0.000000 -1.000005 0.000000 1.000000 0.000000 0.000000 0.000000 0.000000 1.000006 32062.dat
1 71 -14.499510 -42.000200 17.701340 0.000000 -1.000002 0.000000 0.000000 0.000000 0.999996 -1.000006 0.000000 0.000000 3713.dat
1 71 -14.500730 -42.000000 -22.298770 0.000000 -1.000006 0.000000 0.000000 0.000000 1.000000 -1.000006 0.000000 0.000000 3713.dat
0 STEP
1 4 -14.498720 -62.000200 -22.298770 0.000000 -1.000005 0.000000 0.000000 0.000000 1.000000 -1.000006 0.000000 0.000000 32039.dat
1 4 -14.499240 -62.000000 17.701340 0.000000 -1.000001 0.000000 0.000000 0.000000 0.999996 -1.000006 0.000000 0.000000 32039.dat
0 STEP
1 4 -14.498630 -102.000200 -2.038760 0.000000 -1.000005 0.000000 0.000000 0.000000 -1.000000 1.000006 0.000000 0.000000 32039.dat
1 71 -14.499240 -82.000000 -2.298770 0.000000 0.000000 1.000005 0.000000 1.000000 0.000000 -1.000006 0.000000 0.000000 32073.dat
0 STEP
1 4 -14.498540 -112.000200 -2.038760 0.000000 -1.000006 0.000000 1.000000 0.000000 0.000000 0.000000 0.000000 1.000006 32062.dat
1 71 -14.498540 -124.000200 -2.038760 0.000000 -1.000005 0.000000 0.000000 0.000000 1.000000 -1.000006 0.000000 0.000000 3650c.dat
0 STEP
0 NOFILE
