0 FILE 摩天轮-1.io
0 Untitled Model
0 Name:  摩天轮-1
0 Author:  
0 CustomBrick
0 NumOfBricks:  153
1 1 -510.000800 292.000000 30.000040 1.000000 0.000000 0.000000 0.000000 1.000000 0.000000 0.000000 0.000000 1.000000 3703.dat
1 4 -390.000000 302.000000 30.000020 0.000001 0.000000 1.000000 0.000000 -1.000000 0.000000 1.000000 0.000000 0.000000 32054.dat
1 4 -430.000800 302.000000 30.000040 0.000001 0.000000 1.000000 0.000000 -1.000000 0.000000 1.000000 0.000000 0.000000 32054.dat
1 4 -590.000700 302.000000 29.999940 0.000000 0.000000 -1.000000 0.000000 1.000000 0.000000 1.000000 0.000000 0.000000 32054.dat
1 4 -630.000800 302.000000 29.999960 0.000000 0.000000 -1.000000 0.000000 1.000000 0.000000 1.000000 0.000000 0.000000 32054.dat
0 STEP
1 151 -630.000700 302.000000 89.999950 0.000000 0.000000 1.000000 0.000000 -1.000000 0.000000 1.000000 0.000000 0.000000 64179.dat
1 151 -390.000000 302.000000 90.000030 0.000000 0.000000 1.000000 0.000000 -1.000000 0.000000 1.000000 0.000000 0.000000 64179.dat
0 STEP
1 4 -490.000800 302.000000 30.000040 0.000000 0.000000 -1.000000 0.000000 -1.000000 0.000000 -1.000000 0.000000 0.000001 32054.dat
1 4 -530.000800 302.000000 30.000040 0.000000 0.000000 -1.000000 0.000000 -1.000000 0.000000 -1.000000 0.000000 0.000001 32054.dat
1 71 -695.000800 414.000000 20.000030 -1.000000 0.000000 0.000000 0.000000 -1.000000 0.000000 0.000000 0.000000 1.000000 dianji.dat
0 STEP
1 1 -510.000500 292.000000 -49.999830 1.000000 0.000000 0.000000 0.000000 1.000000 0.000000 0.000000 0.000000 1.000000 3703.dat
1 4 -490.001200 302.000000 -49.999960 0.000001 0.000000 1.000003 0.000000 -1.000000 0.000000 1.000003 0.000000 0.000000 32054.dat
1 4 -530.000800 302.000000 -49.999960 0.000001 0.000000 1.000003 0.000000 -1.000000 0.000000 1.000003 0.000000 0.000000 32054.dat
0 STEP
1 71 -470.000800 92.000010 10.000030 0.000000 0.000000 1.000000 -1.000000 0.000000 0.000000 0.000000 -1.000000 0.000000 32002.dat
1 71 -550.000800 92.000000 10.000030 0.000000 0.000000 1.000000 -1.000000 0.000000 0.000000 0.000000 -1.000000 0.000000 32002.dat
1 71 -550.000800 92.000000 -29.999970 0.000000 0.000000 1.000000 -1.000000 0.000000 0.000000 0.000000 -1.000000 0.000000 32002.dat
1 71 -470.000800 92.000000 -29.999970 0.000000 0.000000 1.000000 -1.000000 0.000000 0.000000 0.000000 -1.000000 0.000000 32002.dat
0 STEP
1 1 -510.000800 84.000010 10.000030 -1.000000 0.000000 0.000000 0.000000 1.000000 0.000000 0.000000 0.000000 -1.000000 3738.dat
1 1 -510.000800 84.000000 -29.999970 -1.000000 0.000000 0.000000 0.000000 1.000000 0.000000 0.000000 0.000000 -1.000000 3738.dat
1 1 -510.000800 76.000010 -9.999969 1.000000 0.000000 0.000000 0.000000 1.000000 0.000000 0.000000 0.000000 1.000000 32001.dat
0 STEP
1 71 -572.000000 45.000000 -9.000080 0.000000 0.000000 1.000000 0.000000 1.000000 0.000000 -1.000000 0.000000 0.000000 mtlj.dat
0 STEP
1 0 -569.791200 25.812290 -10.549800 1.000015 0.000000 0.000000 0.000000 0.000002 1.000000 0.000000 -1.000000 0.000000 2780.dat
1 0 -569.791200 65.812190 -10.549800 1.000015 0.000000 0.000000 0.000000 0.000000 1.000000 0.000000 -1.000000 0.000000 2780.dat
0 STEP
1 15 -579.785400 -14.187840 -10.549780 -0.000001 -1.000000 -0.000001 0.000000 0.000001 -1.000000 1.000000 -0.000001 0.000000 40490.dat
1 14 -569.791200 -14.187900 -10.549680 1.000015 0.000001 -0.000001 0.000001 -1.000000 0.000002 -0.000001 -0.000002 -1.000000 3749.dat
0 STEP
1 16 -529.789000 16.312290 -10.549680 1.000015 0.000000 0.000000 0.000000 1.000000 -0.000002 0.000000 0.000000 1.000000 submodel group 2
0 STEP
1 72 -599.791300 -54.188200 -10.549470 0.000000 0.000000 -1.000015 -0.520146 0.854078 0.000000 0.854079 0.520145 0.000000 3648b.dat
1 0 -549.790200 -54.187900 -10.549710 1.000015 0.000000 0.000000 0.000000 0.854078 -0.520144 0.000000 0.520145 0.854079 3706.dat
1 71 -529.789100 -54.187840 -10.549710 0.000000 0.000000 1.000015 0.520146 0.854078 0.000000 -0.854079 0.520144 0.000000 4716.dat
0 STEP
1 19 -589.791400 5.812100 -10.549680 -1.000015 -0.000001 0.000001 -0.000001 0.990268 0.139173 -0.000001 0.139174 -0.990268 3749.dat
1 72 -599.791700 5.812130 -10.549680 0.000000 0.000000 -1.000015 -0.139174 0.990268 0.000000 0.990268 0.139175 0.000000 3648b.dat
0 STEP
1 0 -599.791600 45.812080 -10.549560 0.000000 0.000000 -1.000015 -0.000001 1.000000 0.000000 1.000000 0.000001 0.000000 10928.dat
1 71 -579.791400 45.812140 -10.549560 1.000015 0.000000 0.000000 0.000000 1.000000 -0.000001 0.000000 0.000001 1.000000 4519.dat
0 STEP
1 71 -529.789200 -94.187900 19.980130 -0.998358 -0.057566 -0.000001 -0.057565 0.998342 0.000001 0.000001 -0.000001 -1.000000 3713.dat
1 72 -529.789200 -94.187870 -9.929810 0.998358 -0.057566 0.000000 0.057565 0.998342 -0.000002 0.000000 0.000000 1.000000 3648b.dat
1 0 -529.789200 -94.187870 -12.549800 0.000000 -0.057566 -0.998358 -0.000001 0.998342 -0.057565 1.000000 0.000001 0.000000 3707.dat
0 STEP
1 16 -530.048900 280.731600 -86.126070 0.998358 -0.057566 0.000000 0.057565 0.998342 -0.000002 0.000000 0.000000 1.000000 submodel group 1
0 STEP
0 STEP
0 NOFILE
0 FILE SubModel Group 2
0 SubModel Group 2
0 Name:  SubModel Group 2
0 Author:  
0 CustomBrick
0 NumOfBricks:  6
1 47 -0.000310 -88.000130 0.000010 -1.000000 0.000000 0.000000 0.000000 1.000000 -0.000001 0.000000 0.000001 -1.000000 6588.dat
1 15 0.000000 -47.999990 -0.000040 -1.000000 0.000000 0.000000 0.000000 1.000000 -0.000001 0.000000 0.000001 -1.000000 3709b.dat
0 STEP
1 15 -30.000060 -39.999990 -0.000040 0.000000 0.000000 -1.000000 0.000001 1.000000 0.000000 1.000000 0.000001 0.000000 32064a.dat
1 15 0.000120 -16.000040 0.000040 -1.000000 0.000000 0.000000 0.000000 1.000000 -0.000001 0.000000 0.000001 -1.000000 3709b.dat
1 15 30.000030 -39.999990 -0.000030 0.000000 0.000000 -1.000000 0.000001 1.000000 0.000000 1.000000 0.000001 0.000000 32064a.dat
1 15 0.000120 -8.000020 0.000040 -1.000000 0.000000 0.000000 0.000000 1.000000 -0.000001 0.000000 0.000001 -1.000000 3709b.dat
0 STEP
0 NOFILE
0 FILE SubModel Group 1
0 SubModel Group 1
0 Name:  SubModel Group 1
0 Author:  
0 CustomBrick
0 NumOfBricks:  112
1 71 -21.322850 -374.312700 25.126280 0.000000 -1.000000 0.000000 1.000000 0.000000 0.000000 0.000000 0.000000 1.000000 4185.dat
1 71 -21.321210 -374.314000 16.126360 0.000001 -0.999995 0.000000 0.999995 -0.000001 0.000000 0.000000 0.000000 1.000000 4185.dat
1 0 -1.321240 -374.314000 11.126240 0.000000 -0.000001 0.999995 0.000000 -0.999995 0.000001 1.000000 0.000000 0.000000 2780.dat
1 0 -41.321360 -374.314000 10.126270 0.000000 -0.000001 0.999995 0.000000 -0.999995 0.000001 1.000000 0.000000 0.000000 2780.dat
1 0 -11.321250 -356.814300 10.126280 0.000000 -0.000001 0.999995 0.000000 -0.999995 0.000001 1.000000 0.000000 0.000000 2780.dat
1 0 -31.321210 -356.814300 10.126280 0.000000 -0.000001 0.999995 0.000000 -0.999995 0.000001 1.000000 0.000000 0.000000 2780.dat
1 0 -31.321720 -391.813600 10.126210 0.000000 -0.781521 0.623870 0.000000 -0.623871 -0.781521 1.000000 0.000000 0.000000 2780.dat
1 0 -11.321710 -391.813800 10.126260 0.000000 -0.000001 0.999995 0.000000 -0.999995 0.000001 1.000000 0.000000 0.000000 2780.dat
0 STEP
1 1 -181.320600 -374.314100 0.126270 0.000001 0.000000 0.999995 0.999995 0.000000 0.000002 0.000000 1.000000 0.000000 32278.dat
1 1 138.677500 -374.314000 1.126140 0.000001 0.000000 0.999995 0.999995 0.000000 0.000002 0.000000 1.000000 0.000000 32278.dat
1 1 -101.319300 -235.571100 0.124780 0.866023 0.000000 0.499997 0.499996 0.000000 -0.866019 0.000000 1.000000 0.000000 32278.dat
1 1 -101.321400 -513.056600 0.126210 0.866021 0.000000 -0.499999 -0.499997 0.000000 -0.866022 0.000000 1.000000 0.000000 32278.dat
1 1 58.677980 -235.571300 0.126270 0.866021 0.000000 -0.499999 -0.499997 0.000000 -0.866022 0.000000 1.000000 0.000000 32278.dat
1 1 58.677860 -513.056900 0.126180 0.866022 0.000000 0.499997 0.499997 0.000000 -0.866019 0.000000 1.000000 0.000000 32278.dat
0 STEP
1 0 -61.321670 -443.775100 10.126180 0.000000 -0.500000 0.866021 0.000000 -0.866021 -0.499998 1.000000 0.000000 0.000000 2780.dat
1 0 -101.320600 -374.314000 10.126260 0.000000 -0.389124 0.921181 0.000000 -0.921181 -0.389122 1.000000 0.000000 0.000000 2780.dat
1 1 -89.669220 -413.835900 20.126230 0.490901 0.871211 0.000000 -0.871208 0.490900 0.000000 0.000000 0.000000 1.000000 3894.dat
0 STEP
1 0 -62.052000 -305.090800 10.126630 0.000000 -0.509044 -0.860736 0.000000 0.860735 -0.509032 1.000000 0.000000 0.000000 2780.dat
1 0 18.679080 -304.854300 10.126270 0.000000 0.390729 -0.920501 0.000000 0.920507 0.390718 1.000000 0.000000 0.000000 2780.dat
1 1 -22.049260 -295.089100 20.126330 -0.999995 0.000004 0.000000 -0.000001 -1.000005 0.000000 0.000000 0.000000 1.000000 3894.dat
0 STEP
1 0 59.165180 -374.187200 10.127430 0.000000 0.999997 0.000000 0.000000 0.000002 0.999996 1.000000 0.000000 0.000000 2780.dat
1 0 18.677300 -443.775100 10.126210 0.000000 0.921181 0.389123 0.000000 -0.389122 0.921189 1.000000 0.000000 0.000000 2780.dat
1 1 47.411480 -413.708000 20.126360 0.509037 -0.860743 0.000000 0.860744 0.509045 0.000000 0.000000 0.000000 1.000000 3894.dat
0 STEP
1 0 78.832300 -547.257700 11.126180 0.000000 0.501505 0.865150 0.000000 -0.865144 0.501508 1.000008 0.000000 0.000000 2780.dat
1 0 -121.321100 -547.697400 10.126180 0.000000 0.501509 0.865150 0.000000 -0.865147 0.501507 1.000000 0.000000 0.000000 2780.dat
1 1 -21.287580 -557.348300 20.125820 -0.999987 -0.003490 0.000000 -0.003499 0.999985 0.000000 0.000000 0.000000 -1.000008 3895.dat
0 STEP
1 0 -121.319100 -200.930300 10.124780 0.000000 -0.363256 0.931689 0.000000 -0.931689 -0.363256 1.000000 0.000000 0.000000 2780.dat
1 0 -221.621900 -374.668700 10.126360 0.000000 0.501506 0.865150 0.000000 -0.865144 0.501508 1.000008 0.000000 0.000000 2780.dat
1 1 -179.963800 -283.213300 20.126880 0.503016 0.864273 0.000000 0.864273 -0.503014 0.000000 0.000000 0.000000 -1.000000 3895.dat
0 STEP
1 1 137.345600 -282.188400 20.126080 0.499998 -0.866022 0.000000 -0.866015 -0.500001 0.000000 0.000000 0.000000 -1.000008 3895.dat
1 0 178.685500 -373.790200 10.126210 0.000000 0.501506 0.865150 0.000000 -0.865144 0.501508 1.000008 0.000000 0.000000 2780.dat
1 0 78.385220 -200.760600 10.126240 0.000000 0.501506 0.865150 0.000000 -0.865144 0.501508 1.000008 0.000000 0.000000 2780.dat
0 STEP
1 1 -22.049220 -255.089200 20.122690 0.999994 0.000003 0.000000 0.000006 -0.999995 0.000000 0.000001 0.000000 -0.999994 3700.dat
1 1 -22.049510 -279.089500 20.126360 0.999996 0.000003 0.000001 0.000005 -0.999995 0.000000 0.000001 0.000000 -1.000000 3023.dat
1 1 -22.049010 -287.089100 20.126360 0.999996 0.000003 0.000001 0.000005 -0.999995 0.000000 0.000001 0.000000 -1.000000 3023.dat
1 1 -124.515400 -433.474900 20.122920 -0.490892 0.871214 0.000000 0.871195 0.490904 0.000000 0.000001 0.000000 -0.999994 3700.dat
1 1 -103.608300 -421.690300 20.126360 -0.490899 0.871211 0.000000 0.871206 0.490900 0.000001 0.000001 0.000000 -1.000001 3023.dat
1 1 -96.639270 -417.763100 20.126210 -0.490901 0.871211 0.000000 0.871208 0.490900 0.000001 0.000001 0.000000 -1.000001 3023.dat
1 1 81.841770 -434.063900 20.121660 -0.509036 -0.860741 0.000000 -0.860720 0.509041 0.000000 0.000001 0.000000 -0.999994 3700.dat
1 1 61.182220 -421.851900 20.126750 -0.509041 -0.860737 0.000000 -0.860736 0.509040 -0.000001 0.000001 0.000000 -1.000000 3023.dat
1 1 54.297060 -417.780100 20.126370 -0.509042 -0.860738 0.000000 -0.860737 0.509040 -0.000001 0.000001 0.000000 -1.000000 3023.dat
0 STEP
1 0 -22.050250 -265.089600 10.126650 -0.000001 -0.999996 0.000003 0.000000 -0.000005 -0.999995 1.000000 -0.000001 0.000000 2780.dat
1 0 -115.908200 -428.380200 10.126180 0.000000 0.428932 0.903331 -0.000001 -0.903329 0.428933 1.000001 -0.000001 0.000000 2780.dat
1 0 73.232340 -428.978600 10.126940 0.000000 0.509041 -0.860737 0.000001 0.860736 0.509040 1.000000 -0.000001 0.000000 2780.dat
1 0 38.803530 -408.617200 10.126360 0.000000 0.509042 -0.860737 0.000001 0.860737 0.509040 1.000000 -0.000001 0.000000 2780.dat
1 0 -22.049110 -305.089200 10.126440 0.000000 0.509042 -0.860737 0.000001 0.860736 0.509040 1.000000 -0.000001 0.000000 2780.dat
1 0 -80.957200 -408.926700 10.126210 0.000000 0.509043 -0.860736 0.000001 0.860736 0.509041 1.000000 -0.000001 0.000000 2780.dat
0 STEP
1 1 142.513900 -468.978100 0.126880 -0.499996 -0.000001 0.866024 -0.866024 0.000001 -0.499994 0.000000 -1.000000 -0.000001 41239.dat
1 1 -23.446100 -185.102300 0.126680 -0.999844 0.000001 0.017457 -0.017459 0.000001 -0.999843 -0.000001 -1.000000 -0.000001 41239.dat
1 1 -185.809400 -467.287200 0.125980 -0.486337 0.000001 -0.873768 0.873765 0.000001 -0.486336 0.000001 -1.000000 -0.000001 41239.dat
0 STEP
1 1 -20.423760 -533.401300 20.125880 0.999989 -0.003491 0.000000 0.003493 0.999989 0.000000 0.000000 0.000000 1.000000 3710.dat
1 1 -20.452210 -525.401400 20.125240 0.999986 -0.003491 0.000000 0.003493 0.999989 0.000000 0.000000 0.000000 0.999997 3710.dat
1 1 -159.221300 -295.285500 20.126910 0.503016 0.864273 0.000000 0.864272 -0.503014 0.000000 0.000000 0.000000 -1.000000 3710.dat
1 1 -152.307000 -299.310200 20.126950 0.503016 0.864272 0.000000 0.864272 -0.503014 0.000000 0.000000 0.000000 -1.000000 3710.dat
1 1 116.560700 -294.188500 20.126170 -0.500003 -0.866019 0.000000 0.866017 -0.500002 -0.000001 0.000001 0.000000 1.000000 3023b.dat
1 1 109.632300 -298.189700 20.126710 -0.500005 -0.866024 0.000000 0.866026 -0.500003 0.000000 0.000001 0.000000 0.999994 3023b.dat
0 STEP
1 1 -145.393000 -303.334500 20.126950 0.503016 0.864272 0.000000 0.864272 -0.503014 0.000000 0.000000 0.000000 -1.000000 32064a.dat
1 1 -20.480390 -517.401400 20.125200 -0.999989 -0.003491 0.000000 -0.003493 0.999989 0.000000 0.000000 0.000000 -1.000000 32064a.dat
1 1 102.704500 -302.189600 20.126710 -0.500002 -0.866021 0.000000 0.866017 -0.500002 0.000000 0.000000 0.000000 1.000000 3700.dat
0 STEP
1 0 94.044120 -307.189600 10.126690 0.000000 0.501510 0.865149 0.000000 -0.865146 0.501509 1.000000 -0.000001 0.000000 2780.dat
1 0 128.685400 -287.188600 10.126200 0.000000 0.501509 0.865149 0.000000 -0.865145 0.501509 1.000000 -0.000001 0.000000 2780.dat
1 71 -171.321000 -288.243400 10.126880 0.000000 0.121872 0.992542 0.000000 -0.992540 0.121876 1.000000 0.000000 0.000000 3673.dat
1 71 -21.322120 -547.348100 10.125850 0.000000 0.121871 0.992542 0.000000 -0.992540 0.121876 1.000000 0.000000 0.000000 3673.dat
1 19 -136.750400 -308.364500 10.126940 0.000000 0.503016 -0.864272 0.000000 0.864273 0.503014 1.000000 0.000000 0.000000 3749.dat
1 19 -20.552560 -507.355700 10.125950 0.000000 -0.003489 -0.999989 0.000000 0.999990 -0.003493 1.000000 0.000000 0.000000 3749.dat
0 STEP
1 1 -205.962600 -268.244100 0.126980 -0.501506 0.000001 -0.865150 -0.865150 -0.000001 0.501504 0.000000 1.000000 0.000001 64290.dat
1 1 163.326200 -267.189500 0.126590 0.500001 0.000001 -0.866021 -0.866018 -0.000001 -0.500000 -0.000001 1.000000 0.000000 64290.dat
1 1 -22.090040 -587.340600 0.125790 -0.999810 0.000001 0.019193 0.019190 -0.000001 0.999811 0.000001 1.000000 0.000001 64290.dat
0 STEP
1 1 106.671400 -600.479100 20.125810 -0.725374 0.000000 -0.688349 0.688347 0.000000 -0.725374 0.000000 -1.000000 0.000000 6629.dat
1 19 -23.625380 -667.325300 10.125790 0.000000 0.115454 -0.993308 -0.000001 0.993308 0.115451 1.000000 0.000001 0.000000 3749.dat
1 19 108.677900 -599.659100 10.126200 0.000000 -0.499997 -0.866023 0.000000 0.866019 -0.499997 1.000000 0.000000 0.000000 3749.dat
0 STEP
1 1 -254.588300 -507.651000 20.126270 0.782600 0.000000 -0.622517 0.622518 0.000000 0.782600 0.000000 -1.000000 0.000000 6629.dat
1 19 -301.319900 -374.314100 10.126240 0.000000 0.967573 0.252571 0.000000 -0.252570 0.967573 1.000000 0.000000 0.000000 3749.dat
1 19 -255.710600 -506.194400 10.125980 0.000000 0.873768 -0.486336 -0.000001 0.486336 0.873764 1.000000 0.000000 0.000001 3749.dat
0 STEP
1 1 -152.089300 -149.543300 20.124860 0.715694 0.000000 0.698408 -0.698406 0.000000 0.715694 0.000000 -1.000000 0.000000 6629.dat
1 19 -24.737670 -85.976260 10.124700 0.000000 -0.129310 0.991600 0.000000 -0.991600 -0.129308 1.000000 0.000000 0.000000 3749.dat
1 19 -151.318800 -148.969000 10.124860 0.000000 0.718125 0.695908 0.000000 -0.695905 0.718126 1.000000 0.000000 0.000000 3749.dat
0 STEP
1 1 215.734800 -236.002800 22.141640 -0.801766 0.000000 0.597629 -0.597631 0.000000 -0.801763 0.000000 -1.000000 0.000000 6629.dat
1 19 215.276300 -235.984200 12.125500 0.000000 -0.816130 0.577858 0.000000 -0.577862 -0.816130 1.000000 0.000000 0.000000 3749.dat
1 19 258.677600 -374.314400 11.126210 0.000000 -0.816131 0.577859 0.000000 -0.577858 -0.816130 1.000000 0.000000 0.000000 3749.dat
0 STEP
1 71 -171.321000 -634.299900 -9.873730 0.000000 0.121871 0.992541 0.000000 -0.992539 0.121876 1.000000 0.000000 0.000000 3673.dat
1 71 -292.477400 -218.093900 -9.872920 0.000000 0.121871 0.992541 0.000000 -0.992539 0.121876 1.000000 0.000000 0.000000 3673.dat
1 71 128.677900 -114.328600 -9.873890 0.000000 0.121871 0.992541 0.000000 -0.992539 0.121876 1.000000 0.000000 0.000000 3673.dat
1 71 246.437300 -528.977400 -9.873250 0.000000 0.121871 0.992541 0.000000 -0.992539 0.121875 1.000000 0.000000 0.000000 3673.dat
0 STEP
1 1 -171.320900 -634.300000 -19.873770 0.883761 -0.000001 0.467929 -0.467926 0.000001 0.883761 -0.000001 -1.000000 0.000001 32526.dat
1 1 128.678000 -114.328500 -19.873880 0.883761 -0.000001 0.467929 -0.467926 0.000001 0.883761 -0.000001 -1.000000 0.000001 32526.dat
1 1 246.437400 -528.977400 -19.873280 0.883761 -0.000001 0.467929 -0.467926 0.000001 0.883761 -0.000001 -1.000000 0.000001 32526.dat
1 1 -292.477400 -218.093900 -19.872980 0.883761 -0.000001 0.467929 -0.467926 0.000001 0.883761 -0.000001 -1.000000 0.000001 32526.dat
0 STEP
1 8 -290.661300 -525.648100 -19.874180 0.000000 0.467929 -0.883761 0.000000 0.883761 0.467927 1.000000 0.000000 0.000000 6587.dat
1 8 -24.009120 -687.321900 -19.874180 0.000000 0.467929 -0.883761 0.000000 0.883761 0.467927 1.000000 0.000000 0.000000 6587.dat
1 8 249.928000 -217.189200 -19.873380 0.000000 0.467929 -0.883761 0.000000 0.883761 0.467927 1.000000 0.000000 0.000000 6587.dat
1 8 -25.540440 -65.121280 -19.873180 0.000000 0.467929 -0.883761 0.000000 0.883761 0.467927 1.000000 0.000000 0.000000 6587.dat
1 71 -24.009120 -687.321900 -19.874180 0.883761 0.467929 0.000001 -0.467927 0.883761 0.000000 -0.000001 0.000000 1.000000 3713.dat
1 71 -290.661300 -525.648100 -19.874180 0.883761 0.467929 0.000001 -0.467927 0.883761 0.000000 -0.000001 0.000000 1.000000 3713.dat
1 71 -25.540440 -65.121280 -19.873180 0.883761 0.467929 0.000001 -0.467927 0.883761 0.000000 -0.000001 0.000000 1.000000 3713.dat
1 71 249.928000 -217.189200 -19.873380 0.883761 0.467929 0.000001 -0.467927 0.883761 0.000000 -0.000001 0.000000 1.000000 3713.dat
0 STEP
1 1 -25.540440 -65.121280 -39.873280 0.883761 0.000000 0.467929 -0.467927 0.000001 0.883761 -0.000001 -1.000000 0.000001 32140.dat
1 1 249.928000 -217.189200 -39.873480 0.883761 0.000000 0.467929 -0.467927 0.000001 0.883761 -0.000001 -1.000000 0.000001 32140.dat
1 1 -24.009210 -687.321900 -39.874280 0.883761 0.000000 0.467929 -0.467927 0.000001 0.883761 -0.000001 -1.000000 0.000001 32140.dat
1 1 -290.661200 -525.648200 -39.874180 0.883761 0.000000 0.467929 -0.467927 0.000001 0.883761 -0.000001 -1.000000 0.000001 32140.dat
0 STEP
1 71 -321.319600 -374.314400 0.126180 0.000000 0.467929 0.883761 0.000000 0.883761 -0.467927 -1.000000 0.000000 0.000000 4519.dat
1 1 -321.319200 -374.314500 -19.874980 0.883767 0.000000 0.467929 -0.467930 0.000001 0.883760 -0.000001 -1.000012 0.000001 32140.dat
1 71 -321.319300 -374.314400 20.125650 0.883767 0.467929 0.000001 -0.467930 0.883761 0.000000 -0.000001 0.000000 1.000012 3713.dat
0 STEP
1 71 128.677400 -634.299600 -0.283820 0.000000 0.467929 0.883761 0.000000 0.883761 -0.467927 -1.000000 0.000000 0.000000 4519.dat
1 1 128.679800 -634.301000 -20.286870 0.883778 0.000000 0.467929 -0.467937 0.000001 0.883761 -0.000001 -1.000024 0.000001 32140.dat
1 71 128.693800 -634.308300 20.106190 0.885160 0.465283 -0.001639 -0.465282 0.885162 0.000865 0.001853 -0.000003 0.999998 3713.dat
0 STEP
1 71 278.677200 -374.313900 1.196130 0.000000 0.467929 0.883761 0.000000 0.883761 -0.467927 -1.000000 0.000000 0.000000 4519.dat
1 1 278.681700 -374.316100 -18.806980 0.883785 0.000000 0.467929 -0.467939 0.000001 0.883761 -0.000001 -1.000031 0.000001 32140.dat
1 71 278.693600 -374.322500 21.076140 0.885161 0.465283 -0.001639 -0.465282 0.885162 0.000865 0.001853 -0.000003 0.999998 3713.dat
0 STEP
1 71 -171.318900 -114.328300 -1.665190 0.000000 0.467929 0.883761 0.000000 0.883761 -0.467927 -1.000000 0.000000 0.000000 4519.dat
1 71 -171.312900 -114.331200 18.330560 0.883789 0.467929 0.000001 -0.467942 0.883761 0.000000 -0.000001 0.000000 1.000037 3713.dat
1 1 -171.312800 -114.331300 -21.670980 0.883790 0.000000 0.467929 -0.467942 0.000001 0.883761 -0.000001 -1.000037 0.000001 32140.dat
0 STEP
0 STEP
0 NOFILE
