0 FILE 快速投石机.io
0 Untitled Model
0 Name:  快速投石机
0 Author:  
0 CustomBrick
0 NumOfBricks:  120
1 71 -213.000000 -10.000070 172.000000 0.000000 1.000000 0.000000 0.000000 0.000000 1.000000 1.000000 0.000000 0.000000 dianji.dat
1 0 -101.000000 -10.000030 -33.000010 0.000000 0.000000 -1.000000 -1.000000 0.000000 0.000000 0.000000 1.000000 0.000000 2780.dat
1 0 -101.000000 -10.000030 7.000000 0.000000 0.000000 -1.000000 -1.000000 0.000000 0.000000 0.000000 1.000000 0.000000 2780.dat
1 0 98.999950 -10.000020 -33.000060 0.000000 0.000000 -1.000000 -1.000000 0.000000 0.000000 0.000000 1.000000 0.000000 2780.dat
1 0 99.000000 -10.000010 7.000000 0.000000 0.000000 -1.000000 -1.000000 0.000000 0.000000 0.000000 1.000000 0.000000 2780.dat
0 STEP
1 19 -101.000000 9.999969 86.999980 0.000000 -1.000000 0.000000 1.000000 0.000000 0.000000 0.000000 0.000000 1.000000 3749.dat
1 15 -101.000000 -0.000030 -13.000010 1.000000 0.000000 0.000000 0.000000 1.000000 0.000000 0.000000 0.000000 1.000000 32525.dat
1 19 -101.000000 9.999969 -113.000000 0.000000 -1.000000 0.000000 1.000000 0.000000 0.000000 0.000000 0.000000 1.000000 3749.dat
1 19 98.999980 9.999990 86.999980 0.000000 -1.000000 0.000000 1.000000 0.000000 0.000000 0.000000 0.000000 1.000000 3749.dat
1 15 99.000000 -0.000010 -13.000000 1.000000 0.000000 0.000000 0.000000 1.000000 0.000000 0.000000 0.000000 1.000000 32525.dat
1 19 99.000000 9.999990 -113.000000 0.000000 -1.000000 0.000000 1.000000 0.000000 0.000000 0.000000 0.000000 1.000000 3749.dat
0 STEP
1 71 99.000000 29.999990 -113.000000 1.000000 0.000000 0.000000 0.000000 0.000000 -1.000000 0.000000 1.000000 0.000000 55982.dat
1 0 98.999950 29.999990 -113.000000 0.000000 -1.000000 0.000000 0.000000 0.000000 1.000000 -1.000000 0.000000 0.000000 92402.dat
1 71 98.999980 31.129990 86.999980 1.000000 0.000000 0.000000 0.000000 0.000000 -1.000000 0.000000 1.000000 0.000000 55982.dat
1 0 98.999920 31.130060 87.000110 0.000000 -1.000000 0.000000 0.000000 0.000000 1.000005 -1.000005 0.000000 0.000000 92402.dat
1 71 -101.000000 29.999970 -113.000000 1.000000 0.000000 0.000000 0.000000 0.000000 -1.000000 0.000000 1.000000 0.000000 55982.dat
1 0 -101.000100 30.000080 -113.000200 0.000000 -1.000000 0.000000 0.000000 0.000000 1.000008 -1.000008 0.000000 0.000000 92402.dat
1 71 -101.000000 29.999970 86.999980 1.000000 0.000000 0.000000 0.000000 0.000000 -1.000000 0.000000 1.000000 0.000000 55982.dat
1 0 -101.000100 30.000160 87.000130 0.000000 -1.000000 0.000000 0.000000 0.000000 1.000018 -1.000018 0.000000 0.000000 92402.dat
0 STEP
1 0 -101.000000 -70.000030 7.000000 0.000000 0.000000 -1.000000 -1.000000 0.000000 0.000000 0.000000 1.000000 0.000000 2780.dat
1 0 -101.000000 -70.000030 -33.000000 0.000000 0.000000 -1.000000 -1.000000 0.000000 0.000000 0.000000 1.000000 0.000000 2780.dat
1 0 99.000010 -70.000020 7.000000 0.000000 0.000000 -1.000000 -1.000000 0.000000 0.000000 0.000000 1.000000 0.000000 2780.dat
1 0 99.000010 -70.000010 -33.000000 0.000000 0.000000 -1.000000 -1.000000 0.000000 0.000000 0.000000 1.000000 0.000000 2780.dat
0 STEP
1 1 -101.000000 -78.000030 -13.000020 0.000000 0.000000 1.000000 0.000000 1.000000 0.000000 -1.000000 0.000000 0.000000 3738.dat
1 1 99.000000 -78.000010 -13.000010 0.000000 0.000000 1.000000 0.000000 1.000000 0.000000 -1.000000 0.000000 0.000000 3738.dat
0 STEP
1 1 39.000010 -102.000000 -83.000020 1.000000 0.000000 0.000000 0.000000 1.000000 0.000000 0.000000 0.000000 1.000000 3703.dat
0 STEP
1 0 119.000000 -92.000030 -73.000020 0.000000 0.000000 -1.000000 0.000000 1.000000 0.000000 1.000000 0.000000 0.000000 2780.dat
1 0 79.000020 -92.000030 -73.000020 0.000000 0.000000 -1.000000 0.000000 1.000000 0.000000 1.000000 0.000000 0.000000 2780.dat
0 STEP
1 1 119.000000 -172.000000 -63.000000 -1.000000 0.000000 0.000000 0.000000 0.000000 1.000000 0.000000 1.000000 0.000000 32526.dat
0 STEP
1 15 -101.000000 -102.000000 -13.000020 0.000000 0.000000 1.000000 0.000000 1.000000 0.000000 -1.000000 0.000000 0.000000 3001.dat
1 15 99.000000 -102.000000 -13.000010 0.000000 0.000000 1.000000 0.000000 1.000000 0.000000 -1.000000 0.000000 0.000000 3001.dat
0 STEP
1 4 119.000000 -172.000000 -63.000020 0.000000 0.000000 1.000000 0.000000 1.000000 0.000000 -1.000000 0.000000 0.000000 32054.dat
0 STEP
1 16 119.000100 -162.999900 -12.999810 1.000000 0.000000 0.000000 0.000000 1.000000 0.000000 0.000000 0.000000 1.000000 submodel group 1
0 STEP
1 1 119.000000 -172.000000 36.999990 -1.000000 0.000000 0.000000 0.000000 0.000000 1.000000 0.000000 1.000000 0.000000 32526.dat
1 4 119.000000 -172.000000 36.999980 0.000000 0.000000 1.000000 0.000000 -1.000000 0.000000 1.000000 0.000000 0.000000 32054.dat
0 STEP
1 0 119.000000 -92.000030 46.999980 0.000000 0.000000 -1.000000 0.000000 1.000000 0.000000 1.000000 0.000000 0.000000 2780.dat
1 0 78.999970 -92.000030 46.999990 0.000000 0.000000 -1.000000 0.000000 1.000000 0.000000 1.000000 0.000000 0.000000 2780.dat
0 STEP
1 1 38.999980 -102.000000 56.999980 1.000000 0.000000 0.000000 0.000000 1.000000 0.000000 0.000000 0.000000 1.000000 3703.dat
0 STEP
1 1 -101.000000 -110.000000 26.999980 0.000000 0.000000 1.000000 0.000000 1.000000 0.000000 -1.000000 0.000000 0.000000 3709b.dat
1 1 -101.000000 -110.000000 -53.000020 0.000000 0.000000 1.000000 0.000000 1.000000 0.000000 -1.000000 0.000000 0.000000 3709b.dat
0 STEP
1 1 89.000030 -110.000000 26.999990 0.000000 0.000000 -1.000000 0.000000 1.000000 0.000000 1.000000 0.000000 0.000000 3710.dat
1 1 89.000030 -110.000000 -53.000020 0.000000 0.000000 -1.000000 0.000000 1.000000 0.000000 1.000000 0.000000 0.000000 3710.dat
0 STEP
1 0 139.000000 -92.000030 -73.000020 0.000000 0.000000 -1.000000 0.000000 1.000000 0.000000 1.000000 0.000000 0.000000 2780.dat
1 0 179.000000 -92.000030 -73.000020 0.000000 0.000000 -1.000000 0.000000 1.000000 0.000000 1.000000 0.000000 0.000000 2780.dat
1 0 139.000000 -92.000030 46.999980 0.000000 0.000000 -1.000000 0.000000 1.000000 0.000000 1.000000 0.000000 0.000000 2780.dat
1 0 179.000000 -92.000030 46.999990 0.000000 0.000000 -1.000000 0.000000 1.000000 0.000000 1.000000 0.000000 0.000000 2780.dat
0 STEP
1 1 179.000000 -172.000000 36.999970 -1.000000 0.000000 0.000000 0.000000 0.000000 1.000000 0.000000 1.000000 0.000000 32526.dat
1 1 179.000000 -172.000000 -63.000020 -1.000000 0.000000 0.000000 0.000000 0.000000 1.000000 0.000000 1.000000 0.000000 32526.dat
0 STEP
1 0 119.000200 -331.999900 -13.000450 0.000000 0.000000 1.000000 0.000000 1.000000 0.000000 -1.000000 0.000000 0.000000 3706.dat
1 14 119.000100 -331.999900 -38.110450 1.000000 0.000000 0.000000 0.000000 1.000000 0.000000 0.000000 0.000000 1.000000 32123a.dat
1 14 119.000100 -331.999900 11.999540 1.000000 0.000000 0.000000 0.000000 1.000000 0.000000 0.000000 0.000000 1.000000 32123a.dat
0 STEP
1 71 0.000000 0.000000 0.000000 1.000000 0.000000 0.000000 0.000000 1.000000 0.000000 0.000000 0.000000 1.000000 tsjxpjx.dat
1 71 0.000000 0.000000 50.000000 1.000000 0.000000 0.000000 0.000000 1.000000 0.000000 0.000000 0.000000 1.000000 tsjxpjx.dat
0 STEP
1 71 119.000200 -331.999900 -48.280460 1.000000 0.000000 0.000000 0.000000 1.000000 0.000000 0.000000 0.000000 1.000000 4185.dat
1 71 119.000100 -331.999900 22.469540 1.000000 0.000000 0.000000 0.000000 1.000000 0.000000 0.000000 0.000000 1.000000 4185.dat
0 STEP
1 0 179.000000 -172.000100 -73.000000 0.000000 0.000000 -1.000000 0.000000 1.000000 0.000000 1.000000 0.000000 0.000000 2780.dat
1 0 179.000000 -152.000000 -73.000010 0.000000 0.000000 -1.000000 0.000000 1.000000 0.000000 1.000000 0.000000 0.000000 2780.dat
0 STEP
1 1 179.000000 -132.000000 -83.000010 -1.000000 0.000000 0.000000 0.000000 0.000000 -1.000000 0.000000 -1.000000 0.000000 6629.dat
1 0 131.000000 -268.000100 -13.000030 0.000000 -0.600000 0.800000 0.000000 0.800000 0.600000 -1.000000 0.000000 0.000000 3707.dat
0 STEP
1 0 179.000000 -172.000000 46.999970 0.000000 0.000000 -1.000000 0.000000 1.000000 0.000000 1.000000 0.000000 0.000000 2780.dat
1 0 179.000000 -152.000000 46.999960 0.000000 0.000000 -1.000000 0.000000 1.000000 0.000000 1.000000 0.000000 0.000000 2780.dat
1 1 179.000000 -132.000000 57.000000 -1.000000 0.000000 0.000000 0.000000 0.000000 -1.000000 0.000000 -1.000000 0.000000 6629.dat
0 STEP
1 0 119.000200 -411.999900 -32.999930 0.000000 0.000000 1.000000 0.000000 1.000000 0.000000 -1.000000 0.000000 0.000000 2780.dat
1 0 119.000100 -411.999900 7.000180 0.000000 0.000000 1.000000 0.000000 1.000000 0.000000 -1.000000 0.000000 0.000000 2780.dat
1 0 119.000100 -391.999900 -12.999950 0.000000 0.000000 1.000000 0.000000 1.000000 0.000000 -1.000000 0.000000 0.000000 3705.dat
0 STEP
1 1 119.000200 -391.999900 -42.999940 1.000000 0.000000 0.000000 0.000000 0.000000 -1.000000 0.000000 1.000000 0.000000 32140.dat
1 1 119.000100 -391.999900 17.000100 1.000000 0.000000 0.000000 0.000000 0.000000 -1.000000 0.000000 1.000000 0.000000 32140.dat
0 STEP
1 0 119.000100 -451.999900 -16.469940 0.000000 0.000000 1.000000 0.000000 1.000000 0.000000 -1.000000 0.000000 0.000000 3737.dat
1 71 119.000100 -451.999900 -63.049930 -1.000000 0.000000 0.000000 0.000000 1.000000 0.000000 0.000000 0.000000 -1.000000 3713.dat
1 71 119.000000 -451.999900 36.490090 -1.000000 0.000000 0.000000 0.000000 1.000000 0.000000 0.000000 0.000000 -1.000000 3713.dat
0 STEP
1 71 -41.000000 -92.000030 -93.000030 0.000000 0.000000 -1.000000 0.000000 1.000000 0.000000 1.000000 0.000000 0.000000 3673.dat
1 71 -21.000000 -92.000030 -93.000030 0.000000 0.000000 -1.000000 0.000000 1.000000 0.000000 1.000000 0.000000 0.000000 3673.dat
1 71 -41.000030 -92.000030 67.000000 0.000000 0.000000 -1.000000 0.000000 1.000000 0.000000 1.000000 0.000000 0.000000 3673.dat
1 71 -21.000020 -92.000030 67.000000 0.000000 0.000000 -1.000000 0.000000 1.000000 0.000000 1.000000 0.000000 0.000000 3673.dat
0 STEP
1 72 -23.990000 -112.000000 -103.000100 -1.000000 0.000000 0.000000 0.000000 1.000000 0.000000 0.000000 0.000000 -1.000000 6587.dat
1 72 -31.000000 -112.000000 -103.000100 1.000000 0.000000 0.000000 0.000000 0.000000 -1.000000 0.000000 1.000000 0.000000 41678.dat
1 72 -23.990040 -112.000000 76.999800 -1.000000 0.000000 0.000000 0.000000 1.000000 0.000000 0.000000 0.000000 -1.000000 6587.dat
1 72 -31.000020 -112.000000 77.000020 1.000000 0.000000 0.000000 0.000000 0.000000 -1.000001 0.000000 1.000001 0.000000 41678.dat
0 STEP
1 0 -61.000060 -92.000030 7.409960 0.000000 0.422619 0.906308 0.000000 0.906308 -0.422619 -1.000000 0.000000 0.000000 3708.dat
1 1 -61.000030 -92.000060 -102.590000 0.906308 0.000000 -0.422619 -0.422619 0.000000 -0.906308 0.000000 1.000000 0.000000 32271.dat
1 1 -61.000100 -92.000030 77.689980 0.906308 0.000000 -0.422619 -0.422619 0.000000 -0.906308 0.000000 1.000000 0.000000 32271.dat
0 STEP
1 71 -0.999990 -92.000030 -73.000020 0.000000 0.000000 -1.000000 0.000000 1.000000 0.000000 1.000000 0.000000 0.000000 3673.dat
1 0 -103.261900 -182.630800 -92.590030 0.000000 0.000000 1.000000 0.000000 1.000000 0.000000 -1.000000 0.000000 0.000000 6628.dat
0 STEP
1 71 0.000000 0.000000 -1.000000 1.000000 0.000000 0.000000 0.000000 1.000000 0.000000 0.000000 0.000000 1.000000 tsjxpjc.dat
0 STEP
1 19 -111.714300 -200.757000 -92.590030 0.000000 -0.891007 0.453991 0.000000 -0.453991 -0.891007 1.000000 0.000000 0.000000 3749.dat
1 19 -92.855350 -236.032100 67.689950 0.000000 -0.878017 0.478629 0.000000 -0.478629 -0.878017 1.000000 0.000000 0.000000 3749.dat
1 19 -111.714400 -200.756900 67.689960 0.000000 -0.444699 0.895680 0.000000 0.895680 0.444699 -1.000000 0.000001 0.000000 3749.dat
1 19 -92.855330 -236.032200 -92.590020 0.000001 0.478601 -0.878033 0.000000 -0.878033 -0.478601 -1.000000 0.000000 0.000000 3749.dat
0 STEP
1 1 -111.714300 -200.756900 57.689950 0.895680 0.000000 0.444699 0.444699 -0.000001 -0.895680 0.000000 1.000000 -0.000001 32140.dat
1 1 -111.714300 -200.756900 -82.590020 0.891007 0.000000 0.453991 0.453991 -0.000001 -0.891007 0.000000 1.000000 -0.000001 32140.dat
0 STEP
1 0 -85.032420 -254.497600 -12.310120 0.000000 0.000000 1.000000 0.000000 1.000000 0.000000 -1.000000 0.000000 0.000000 3737.dat
1 71 -85.032380 -254.497600 -102.310100 -1.000000 0.000000 0.000000 0.000000 1.000000 0.000000 0.000000 0.000000 -1.000000 3713.dat
1 71 -85.032440 -254.497600 77.689890 -1.000000 0.000000 0.000000 0.000000 1.000000 0.000000 0.000000 0.000000 -1.000000 3713.dat
0 STEP
1 71 -61.000100 -92.000030 97.409980 -0.906308 0.422619 0.000000 0.422619 0.906308 0.000000 0.000000 0.000000 -1.000000 3713.dat
1 71 -61.000100 -92.000030 118.610000 0.422619 0.000000 0.906308 0.906308 0.000000 -0.422619 0.000000 1.000000 0.000000 33299.dat
0 STEP
1 0 18.999980 -92.000040 66.999980 0.000000 0.000000 -1.000000 0.000000 1.000000 0.000000 1.000000 0.000000 0.000000 2780.dat
1 0 58.999980 -92.000030 66.999980 0.000000 0.000000 -1.000000 0.000000 1.000000 0.000000 1.000000 0.000000 0.000000 2780.dat
0 STEP
1 72 38.999990 -92.000060 72.000000 1.000000 0.000000 0.000000 0.000000 0.000000 1.000000 0.000000 -1.000000 0.000000 2905.dat
1 72 38.999990 -92.000060 82.000000 1.000000 0.000000 0.000000 0.000000 0.000000 1.000000 0.000000 -1.000000 0.000000 2905.dat
0 STEP
1 71 78.999980 -92.000060 96.999980 0.000000 0.000000 1.000000 0.000000 1.000000 0.000000 -1.000000 0.000000 0.000000 4519.dat
1 0 -1.000020 -92.000060 86.999980 0.000000 0.000000 1.000000 0.000000 1.000000 0.000000 -1.000000 0.000000 0.000000 3705.dat
0 STEP
1 71 78.999980 -112.000100 96.999980 0.000000 0.000000 -1.000000 0.000000 -1.000000 0.000000 -1.000000 0.000000 0.000000 42003.dat
1 71 -1.000020 -112.000000 96.999980 0.000000 0.000000 -1.000000 0.000000 -1.000000 0.000000 -1.000000 0.000000 0.000000 42003.dat
0 STEP
1 72 39.000030 -72.000060 96.839980 1.000000 0.000000 0.000000 0.000000 1.000000 0.000000 0.000000 0.000000 1.000000 3648b.dat
1 0 39.000010 -72.000060 116.200000 0.000000 0.000000 -1.000000 0.000000 1.000000 0.000000 1.000000 0.000000 0.000000 32073.dat
0 STEP
1 72 38.999980 -92.000060 112.000000 1.000000 0.000000 0.000000 0.000000 0.000000 1.000000 0.000000 -1.000000 0.000000 2905.dat
1 72 38.999970 -92.000060 121.840000 1.000000 0.000000 0.000000 0.000000 0.000000 1.000000 0.000000 -1.000000 0.000000 2905.dat
0 STEP
1 71 19.000020 -72.000060 136.330000 0.000000 0.000000 1.000000 -1.000000 0.000000 0.000000 0.000000 -1.000000 0.000000 32316.dat
1 71 39.000020 -72.000060 156.330000 0.000000 0.000000 -1.000000 1.000000 0.000000 0.000000 0.000000 -1.000000 0.000000 33299.dat
0 STEP
1 0 38.999980 -112.000000 97.000000 1.000000 0.000000 0.000000 0.000000 1.000000 0.000000 0.000000 0.000000 1.000000 44294.dat
1 0 88.999980 -132.000100 96.999980 1.000000 0.000000 0.000000 0.000000 1.000000 0.000000 0.000000 0.000000 1.000000 2780.dat
1 14 63.999980 -112.000000 97.000010 0.000000 0.000000 -1.000000 0.000000 1.000000 0.000000 1.000000 0.000000 0.000000 32123a.dat
1 14 14.759980 -112.000000 97.000010 0.000000 0.000000 -1.000000 0.000000 1.000000 0.000000 1.000000 0.000000 0.000000 32123a.dat
1 71 39.809980 -112.000000 97.000000 0.000000 0.000000 1.000000 0.000000 1.000000 0.000000 -1.000000 0.000000 0.000000 4716.dat
0 STEP
1 71 0.000000 0.000000 0.000000 1.000000 0.000000 0.000000 0.000000 1.000000 0.000000 0.000000 0.000000 1.000000 tsjdj.dat
0 STEP
0 STEP
0 NOFILE
0 FILE SubModel Group 1
0 SubModel Group 1
0 Name:  SubModel Group 1
0 Author:  
0 CustomBrick
0 NumOfBricks:  6
1 15 0.000020 -149.000000 -10.000210 -1.000008 0.000000 0.000000 0.000000 0.000000 -1.000000 0.000000 -1.000009 0.000000 32278.dat
1 0 0.000020 -209.000100 -0.000080 0.000000 0.000000 1.000008 0.000000 1.000000 0.000000 -1.000009 0.000000 0.000000 2780.dat
1 0 0.000120 -89.000090 0.000230 0.000000 0.000000 1.000000 0.000000 1.000000 0.000000 -1.000000 0.000000 0.000000 2780.dat
1 15 0.000020 -149.000000 10.000120 -1.000008 0.000000 0.000000 0.000000 0.000000 -1.000000 0.000000 -1.000009 0.000000 32278.dat
0 STEP
1 19 -0.000100 -9.000150 20.000160 0.000000 -1.000008 0.000000 0.000000 0.000000 -1.000000 1.000009 0.000000 0.000000 3749.dat
1 19 -0.000110 -9.000140 -20.000220 0.000000 1.000008 0.000000 0.000000 0.000000 -1.000000 -1.000009 0.000000 0.000000 3749.dat
0 STEP
0 NOFILE
