0 Untitled Model
0 Name:  移动拳击手
0 Author:  
0 CustomBrick
0 NumOfBricks:  113
1 1 80.000000 5.999990 29.999990 0.000000 1.000000 0.000000 0.000000 0.000000 -1.000000 -1.000000 0.000000 0.000000 3894.dat
1 15 72.000000 -3.999650 30.000100 0.000000 1.000000 0.000000 0.000000 0.000000 -1.000000 -1.000000 0.000000 0.000000 3738.dat
1 1 80.000000 -13.999710 30.000080 0.000000 1.000000 0.000000 0.000000 0.000000 -1.000014 -1.000014 0.000000 0.000000 3894.dat
0 STEP
1 1 56.500000 -163.999800 -39.999960 0.000000 1.000000 0.000000 -1.000000 0.000000 0.000000 0.000000 0.000000 1.000000 3702.dat
1 1 80.000000 -83.999680 -39.999920 0.000000 1.000000 0.000000 -1.000000 0.000000 0.000000 0.000000 0.000000 1.000000 3703.dat
1 1 80.000000 -83.999690 100.000100 0.000000 1.000000 0.000000 -1.000000 0.000000 0.000000 0.000000 0.000000 1.000000 3703.dat
1 1 56.500000 -163.999800 100.000100 0.000000 1.000000 0.000000 -1.000000 0.000000 0.000000 0.000000 0.000000 1.000000 3702.dat
0 STEP
1 0 89.500030 -23.999640 50.000400 0.000000 1.000000 0.000000 1.000014 0.000000 0.000000 0.000000 0.000000 -1.000014 2780.dat
1 15 104.000000 -3.999640 30.000110 0.000000 1.000000 0.000000 0.000000 0.000000 -1.000014 -1.000014 0.000000 0.000000 3738.dat
1 0 89.500030 -23.999630 9.999860 0.000000 1.000000 0.000000 1.000014 0.000000 0.000000 0.000000 0.000000 -1.000014 2780.dat
0 STEP
1 71 86.963210 -24.018000 30.033930 0.000000 1.000000 0.000000 0.000000 0.000000 -1.000000 -1.000000 0.000000 0.000000 qjsdj.dat
0 STEP
1 1 48.500000 -183.999700 -9.999920 0.000000 1.000000 0.000000 0.000000 0.000000 1.000000 1.000000 0.000000 0.000000 3709b.dat
1 1 48.500000 -183.999800 70.000060 0.000000 1.000000 0.000000 0.000000 0.000000 1.000000 1.000000 0.000000 0.000000 3709b.dat
1 1 56.500000 -193.999800 30.000030 0.000000 1.000000 0.000000 0.000000 0.000000 1.000000 1.000000 0.000000 0.000000 3894.dat
1 1 56.500020 -173.999800 30.000070 0.000000 1.000000 0.000000 0.000000 0.000000 1.000000 1.000000 0.000000 0.000000 3894.dat
0 STEP
1 1 48.500000 -223.999800 70.000060 0.000000 1.000000 0.000000 0.000000 0.000000 1.000000 1.000000 0.000000 0.000000 3709b.dat
1 1 56.500020 -263.999700 30.000070 0.000000 1.000000 0.000000 -1.000000 0.000000 0.000000 0.000000 0.000000 1.000000 32001.dat
1 1 48.500000 -223.999800 -9.999929 0.000000 1.000000 0.000000 0.000000 0.000000 1.000000 1.000000 0.000000 0.000000 3709b.dat
0 STEP
1 15 64.500000 -223.999800 30.000080 0.000000 1.000000 0.000000 0.000000 0.000000 1.000000 1.000000 0.000000 0.000000 3001.dat
1 15 88.500030 -223.999800 30.000080 0.000000 1.000000 0.000000 0.000000 0.000000 1.000000 1.000000 0.000000 0.000000 3001.dat
0 STEP
1 1 104.500000 -223.999800 100.000100 0.000000 1.000000 0.000000 1.000000 0.000000 0.000000 0.000000 0.000000 -1.000000 3023.dat
1 1 112.500000 -223.999800 70.000060 0.000000 1.000000 0.000000 0.000000 0.000000 -1.000000 -1.000000 0.000000 0.000000 3020.dat
1 1 112.500000 -223.999800 -9.999920 0.000000 1.000000 0.000000 0.000000 0.000000 1.000000 1.000000 0.000000 0.000000 3020.dat
1 1 104.500000 -223.999800 -39.999980 0.000000 1.000000 0.000000 -1.000000 0.000000 0.000000 0.000000 0.000000 1.000000 3023.dat
0 STEP
1 71 66.000000 -223.999800 110.000100 0.000000 0.707107 0.707107 0.000000 0.707107 -0.707107 -1.000000 0.000000 0.000000 2780.dat
1 71 90.000030 -183.999800 110.000100 0.000000 0.430880 0.902409 0.000000 0.902409 -0.430880 -1.000000 0.000000 0.000000 2780.dat
1 71 90.000030 -183.999800 -49.999940 0.000000 0.430261 0.902705 0.000000 0.902705 -0.430261 -1.000000 0.000000 0.000000 2780.dat
1 71 66.000000 -223.999800 -49.999960 0.000000 0.766046 0.642787 0.000000 0.642787 -0.766046 -1.000000 0.000000 0.000000 2780.dat
0 STEP
1 71 37.715740 -195.715500 120.000000 -0.707107 0.707106 0.000000 0.707107 0.707107 0.000000 0.000000 0.000000 -1.000000 4519.dat
1 72 65.999960 -223.999800 120.000100 0.000000 -0.707108 0.707105 0.000003 -0.707105 -0.707108 1.000000 0.000002 0.000002 32013.dat
1 72 65.999960 -223.999800 -59.999920 0.000000 -0.707108 0.707105 0.000003 -0.707105 -0.707108 1.000000 0.000002 0.000002 32013.dat
1 71 37.715740 -195.715500 -59.999980 -0.707107 0.707107 0.000000 0.707107 0.707107 0.000000 0.000000 0.000000 -1.000000 4519.dat
0 STEP
1 72 9.431399 -167.431300 120.000000 0.000003 -0.707105 -0.707108 0.000000 -0.707108 0.707105 -1.000000 -0.000002 -0.000002 32013.dat
1 72 9.431399 -167.431300 -60.000060 0.000003 -0.707105 -0.707108 0.000000 -0.707108 0.707105 -1.000000 -0.000002 -0.000002 32013.dat
0 STEP
1 15 53.903650 -166.764600 120.000000 -0.430880 0.000001 -0.902410 -0.902410 0.000000 0.430880 0.000001 1.000000 0.000001 32316.dat
1 15 53.891820 -166.789300 -59.999960 -0.430260 0.000001 -0.902705 -0.902705 0.000000 0.430260 0.000001 1.000000 0.000001 32316.dat
0 STEP
1 19 90.000030 -123.999700 110.000100 0.000000 1.000000 0.000000 0.000000 0.000000 1.000000 1.000000 0.000000 0.000000 3749.dat
1 72 90.000030 -123.999200 120.002100 0.000000 1.000000 0.000000 1.000019 0.000000 0.000000 0.000000 0.000000 -1.000019 3648b.dat
1 19 90.000030 -123.999700 -49.999940 0.000000 0.984808 -0.173646 0.000000 -0.173646 -0.984809 -1.000000 0.000000 0.000000 3749.dat
1 72 89.999930 -124.000100 -60.002140 -0.173651 0.984808 0.000000 -0.984835 -0.173646 0.000000 0.000000 0.000000 1.000027 3648b.dat
0 STEP
1 19 80.850600 -113.186800 -69.999960 0.000000 0.449312 0.893375 0.000000 0.893375 -0.449312 -1.000000 0.000000 0.000000 3749.dat
1 19 80.862270 -113.162500 130.000100 0.000000 -0.893375 -0.449313 0.000000 0.449312 -0.893375 1.000000 0.000000 0.000000 3749.dat
0 STEP
1 19 53.891820 -166.789300 -69.999960 0.000000 0.449312 0.893376 0.000000 0.893376 -0.449312 -1.000000 0.000000 0.000000 3749.dat
1 19 53.903640 -166.764600 130.000100 0.000000 -0.893374 -0.449314 0.000000 0.449314 -0.893371 1.000000 0.000000 0.000000 3749.dat
0 STEP
1 72 71.864340 -131.054300 -79.999950 0.000000 -0.893375 -0.449312 0.000000 0.449312 -0.893375 1.000000 0.000000 0.000000 32039.dat
1 4 67.371220 -139.988000 -79.999950 0.449312 -0.893375 0.000000 0.893375 0.449312 0.000000 0.000000 0.000000 1.000000 32062.dat
1 4 67.382950 -139.963700 140.000100 0.449312 -0.893375 -0.000001 0.893375 0.449312 0.000000 0.000000 -0.000001 1.000000 32062.dat
1 72 71.876120 -131.029800 140.000100 -0.000001 -0.893374 -0.449308 0.000000 0.449309 -0.893367 1.000000 0.000000 0.000000 32039.dat
0 STEP
1 71 62.878100 -148.921800 -79.999950 0.000000 -0.893376 0.449312 0.000000 0.449312 0.893376 -1.000000 0.000000 0.000000 32039.dat
1 71 62.889820 -148.897000 140.000000 0.000000 -0.893375 0.449309 0.000000 0.449310 0.893371 -1.000000 0.000000 0.000000 32039.dat
0 STEP
1 71 9.431370 -167.431300 -70.000070 0.000000 0.430261 0.902705 0.000000 0.902705 -0.430261 -1.000000 0.000000 0.000000 2780.dat
1 71 17.783620 -149.578800 -69.999920 0.000000 0.430261 0.902705 0.000000 0.902705 -0.430261 -1.000000 0.000000 0.000000 2780.dat
1 71 9.431430 -167.431300 130.000000 0.000000 0.430261 0.902705 0.000000 0.902705 -0.430261 -1.000000 0.000000 0.000000 2780.dat
1 71 17.807230 -149.529400 130.000100 0.000000 0.430261 0.902705 0.000000 0.902705 -0.430261 -1.000000 0.000000 0.000000 2780.dat
0 STEP
1 15 -7.550220 -203.907700 140.000100 0.906305 0.000000 -0.422624 -0.422624 0.000000 -0.906305 0.000000 1.000000 0.000000 32524.dat
1 15 -7.473600 -203.683500 -80.000060 0.906305 0.000000 -0.422624 -0.422624 0.000000 -0.906305 0.000000 1.000000 0.000000 32524.dat
0 STEP
1 72 -32.907170 -258.286200 124.718300 0.906280 0.422617 0.000000 -0.422604 0.906308 0.000000 0.000000 0.000000 0.999969 6575.dat
1 4 -24.455200 -240.159900 139.720100 0.000000 0.422617 -0.906308 0.000000 0.906308 0.422617 1.000000 0.000000 0.000000 32062.dat
1 4 -32.907170 -258.286200 139.717300 0.000000 0.422678 -0.906280 0.000000 0.906280 0.422678 1.000000 0.000000 0.000000 32062.dat
0 STEP
1 72 -32.907160 -258.286200 154.717300 0.906308 0.422617 0.000000 -0.422617 0.906308 0.000000 0.000000 0.000000 1.000000 6575.dat
0 STEP
1 72 -32.831390 -258.061300 -95.219470 0.906280 0.422617 0.000000 -0.422604 0.906308 0.000000 0.000000 0.000000 0.999969 6575.dat
1 4 -24.379140 -239.935500 -80.217180 0.000000 0.422615 -0.906309 0.000000 0.906308 0.422619 1.000000 0.000000 0.000000 32062.dat
1 4 -32.831070 -258.061800 -80.220040 0.000000 0.422676 -0.906280 0.000000 0.906279 0.422680 1.000000 0.000000 0.000000 32062.dat
1 72 -32.831060 -258.061700 -65.220050 0.906309 0.422615 0.000000 -0.422619 0.906308 0.000000 0.000000 0.000000 1.000000 6575.dat
0 STEP
1 1 111.999900 56.000260 100.000100 0.000000 1.000000 0.000000 -1.000000 0.000000 0.000000 0.000000 0.000000 1.000000 3023b.dat
1 1 104.000000 56.000320 100.000100 0.000000 1.000000 0.000000 -1.000000 0.000000 0.000000 0.000000 0.000000 1.000000 3023b.dat
0 STEP
1 1 119.999900 56.000260 100.000100 0.000000 1.000000 0.000000 -1.000000 0.000000 0.000000 0.000000 0.000000 1.000000 3700.dat
1 0 129.999800 56.000260 90.000110 0.000000 0.902705 -0.430261 0.000000 -0.430261 -0.902705 -1.000000 0.000000 0.000000 2780.dat
0 STEP
1 71 109.999800 56.000260 80.000110 0.000000 -1.000000 0.000000 0.000000 0.000000 1.000000 -1.000000 0.000000 0.000000 48989.dat
0 STEP
1 72 90.000030 -2.270020 29.999990 0.000000 0.000000 1.000000 1.000003 0.000000 0.000000 0.000000 1.000003 0.000000 6587.dat
1 19 89.999900 18.729800 30.000070 1.000000 0.000000 0.000000 0.000000 0.000000 1.000000 0.000000 -1.000000 0.000000 6589.dat
0 STEP
1 71 89.996520 56.000360 -19.999970 -1.000000 0.000000 0.000344 0.000000 1.000000 -0.000001 -0.000344 -0.000001 -1.000000 3713.dat
1 0 89.999970 56.000340 -49.999920 0.000000 0.000000 1.000000 0.000000 1.000000 0.000000 -1.000000 0.000000 0.000000 3706.dat
0 STEP
1 71 90.000030 92.300250 20.500080 1.000000 0.000000 0.000000 0.000000 1.000000 0.000000 0.000000 0.000000 1.000000 62821b.dat
1 19 107.500000 56.000280 20.500090 0.000000 -0.000001 -1.000000 0.000000 1.000000 -0.000001 1.000000 0.000000 0.000000 6589.dat
1 19 89.999900 56.000260 3.000030 1.000000 0.000000 0.000000 0.000000 1.000000 -0.000001 0.000000 0.000001 1.000000 6589.dat
1 19 90.000030 56.000260 38.000070 -0.996195 -0.087156 0.000000 -0.087156 0.996195 -0.000001 0.000000 -0.000001 -1.000000 6589.dat
0 STEP
1 71 90.000010 56.000340 101.075100 0.000000 -0.087156 -0.996195 0.000000 0.996195 -0.087156 1.000000 0.000000 0.000000 44294.dat
1 71 90.000000 56.000350 61.075080 -0.996195 -0.087156 -0.000001 -0.087156 0.996195 -0.000001 0.000001 -0.000001 -1.000000 3713.dat
0 STEP
1 72 89.999980 56.000340 -59.999920 0.000000 1.000000 0.000000 -1.000000 0.000000 0.000000 0.000000 0.000000 1.000000 3648b.dat
1 72 90.000010 56.000340 120.025100 0.087156 0.996195 0.000000 -0.996195 0.087156 0.000000 0.000000 0.000000 1.000000 3648b.dat
1 14 89.999980 56.000340 -74.749920 1.000000 0.000000 0.000000 0.000000 1.000000 0.000000 0.000000 0.000000 1.000000 32123a.dat
1 14 90.000030 56.000340 135.015100 0.996195 -0.087156 0.000000 0.087156 0.996195 0.000000 0.000000 0.000000 1.000000 32123a.dat
0 STEP
1 71 89.999980 -23.999720 -59.999960 0.997564 -0.069756 0.000000 0.069756 0.997564 0.000000 0.000000 0.000000 1.000000 3649.dat
1 19 89.999980 -23.999660 -49.999920 0.000000 0.997564 0.069756 0.000000 0.069756 -0.997564 -1.000000 0.000000 -0.000001 3749.dat
1 71 89.999930 -23.999510 119.999700 -0.999964 -0.008728 0.000000 -0.008728 0.999962 0.000000 0.000000 0.000000 -1.000000 3649.dat
1 19 90.000010 -23.999690 110.000100 0.000000 -0.999963 0.008728 0.000001 -0.008728 -0.999962 1.000000 0.000000 0.000001 3749.dat
0 STEP
1 71 90.000000 56.000340 160.115100 0.996199 -0.087156 0.000000 0.087156 0.996199 0.000000 0.000000 0.000000 1.000000 56145.dat
1 0 90.000160 56.000500 160.115100 0.087154 0.996173 0.000000 -0.996173 0.087154 0.000000 0.000000 0.000000 1.000000 55978.dat
1 71 89.999980 56.000340 -99.709930 -1.000000 0.000000 0.000000 0.000000 1.000000 0.000000 0.000000 0.000000 -1.000000 56145.dat
1 0 89.999820 56.000540 -99.709910 0.000000 -0.999978 0.000000 -0.999978 0.000000 0.000000 0.000000 0.000000 -1.000000 55978.dat
0 STEP
1 19 90.000000 -83.999660 -49.999920 0.000000 0.996192 0.087156 0.000000 0.087155 -0.996195 -1.000000 0.000000 0.000000 3749.dat
1 0 90.000140 -83.999560 -61.039840 0.996195 -0.087156 0.000000 0.087156 0.996195 0.000000 0.000000 0.000000 1.000000 3647.dat
1 19 89.999980 -83.999690 110.000100 0.000000 -0.956305 0.292373 0.000000 -0.292373 -0.956305 1.000000 0.000000 0.000000 3749.dat
1 0 89.999850 -83.999860 121.039900 -0.956302 -0.292372 0.000000 -0.292371 0.956305 0.000000 0.000000 0.000000 -1.000000 3647.dat
0 STEP
1 15 169.999800 76.000260 80.000110 0.000000 0.000000 -1.000000 0.000000 1.000000 0.000000 1.000000 0.000000 0.000000 40490.dat
1 0 249.999900 66.000260 80.000180 0.000000 -0.902705 0.430261 1.000000 0.000000 0.000000 0.000000 0.430261 0.902705 2780.dat
1 0 169.999800 66.000260 80.000130 0.000000 -0.902705 0.430261 1.000000 0.000000 0.000000 0.000000 0.430261 0.902705 2780.dat
0 STEP
1 71 24.999900 -255.999700 30.000150 -1.000000 0.000000 0.000000 0.000000 1.000000 0.000000 0.000000 0.000000 -1.000000 dianji.dat
0 STEP
1 0 229.999900 56.000260 63.510170 0.000000 0.000000 1.000000 0.000000 1.000000 0.000000 -1.000000 0.000000 0.000000 3708.dat
1 71 229.999900 56.000270 20.220170 1.000000 0.000000 0.000001 0.000000 1.000000 -0.000001 -0.000001 0.000001 1.000000 3713.dat
1 71 229.999900 56.000270 0.820160 1.000000 0.000000 0.000001 0.000000 1.000000 -0.000001 -0.000001 0.000001 1.000000 3713.dat
1 71 229.999900 56.000270 99.080150 -1.000000 0.000000 -0.000001 0.000000 1.000000 -0.000001 0.000001 -0.000001 -1.000000 3713.dat
1 71 229.999900 56.000270 119.000200 -1.000000 0.000000 -0.000001 0.000000 1.000000 -0.000001 0.000001 -0.000001 -1.000000 3713.dat
0 STEP
1 71 229.999900 56.000260 -29.569830 -1.000000 0.000000 0.000000 0.000000 1.000000 0.000000 0.000000 0.000000 -1.000000 56145.dat
1 0 229.999800 56.000450 -29.569830 0.000000 -0.999978 0.000000 -0.999978 0.000000 0.000000 0.000000 0.000000 -1.000000 55978.dat
1 71 229.999800 56.000260 149.670200 1.000000 0.000000 0.000000 0.000000 1.000000 0.000000 0.000000 0.000000 1.000000 56145.dat
1 0 229.999700 56.000440 149.670200 0.000000 0.999978 0.000000 -0.999978 0.000000 0.000000 0.000000 0.000000 1.000000 55978.dat
0 STEP
1 15 64.500010 -313.999700 30.000060 0.000000 1.000000 0.000000 0.000000 0.000000 -1.000000 -1.000000 0.000000 0.000000 3710.dat
1 15 64.500010 -293.999700 30.000060 0.000000 1.000000 0.000000 0.000000 0.000000 -1.000000 -1.000000 0.000000 0.000000 3710.dat
0 STEP
1 15 40.499990 -313.999700 60.000040 0.000000 1.000000 0.000000 0.000000 0.000000 1.000000 1.000000 0.000000 0.000000 3040a.dat
1 15 40.500010 -313.999700 0.000060 0.000000 1.000000 0.000000 0.000000 0.000000 1.000000 1.000000 0.000000 0.000000 3040a.dat
1 71 46.000000 -284.000000 31.000000 0.000344 0.000001 1.000000 0.000000 1.000000 -0.000001 -1.000000 0.000000 0.000344 3713.dat
0 STEP
0 STEP
